<svg width="260" height="260" viewBox="0 0 260 260" fill="none" xmlns="http://www.w3.org/2000/svg">
<path d="M169.767 217.276C169.789 217.453 169.812 217.629 169.841 217.806C171.274 220.026 172.322 222.31 173.137 224.805C173.799 226.878 174.221 229.057 174.292 231.273C176.912 230.972 179.408 230.54 181.536 230.111C181.494 230.079 181.462 230.055 181.462 230.055C181.049 228.931 180.761 227.759 180.604 226.522C180.55 225.976 180.949 225.489 181.495 225.435C182.787 225.344 184.011 228.264 184.098 229.559C185.321 229.279 186.313 229.028 186.979 228.852C186.906 222.328 182.973 217.858 182.931 217.811C182.775 217.637 182.664 217.422 182.615 217.193C182.137 214.998 182.146 212.916 182.29 211.307C178.419 213.728 174.198 215.705 169.767 217.276Z" fill="#F295FF"/>
<path d="M104.549 216.36C104.285 216.268 104.023 216.171 103.76 216.076C103.774 216.749 103.796 217.42 103.843 218.085C103.843 218.085 103.848 218.131 103.853 218.171C103.854 218.173 103.853 218.173 103.855 218.176C103.887 218.261 103.997 218.49 104.106 218.692C106.016 222.111 107.867 225.94 107.92 229.947C113.792 230.76 118.123 230.616 121.09 230.222C120.72 229.044 120.424 227.777 120.251 226.516C120.126 225.591 121.329 225.045 121.947 225.726C122.626 226.384 123.708 228.326 123.756 229.737C124.561 229.545 125.161 229.353 125.561 229.207C125.719 226.715 124.714 222.987 123.821 220.989C117.261 220.094 110.771 218.648 104.549 216.36Z" fill="#F295FF"/>
<path d="M103.859 218.226C103.86 218.214 103.857 218.2 103.855 218.188C103.857 218.209 103.859 218.226 103.859 218.226Z" fill="#F295FF"/>
<path d="M120.645 45.3942C120.821 45.5788 121.021 45.7406 121.252 45.871C121.304 45.9006 121.363 45.926 121.419 45.953C121.842 46.2171 122.436 46.5575 123.302 47.0302L123.465 47.1199C123.88 47.354 124.325 47.4629 124.795 47.4629C127.918 47.4629 132.084 42.6311 134.967 37.5225C138.231 31.7379 140.349 24.6458 137.285 22.7444C136.896 22.5034 135.25 21.5922 135.024 21.4669C135.023 21.4668 135.024 21.4669 135.024 21.4669C135.021 21.4653 135.015 21.4621 135.013 21.4608C135.005 21.4568 134.997 21.4545 134.99 21.4506C131.815 19.715 126.826 25.2075 123.521 31.064C120.593 36.2529 118.597 42.424 120.352 45.0304C120.419 45.1495 120.503 45.2627 120.645 45.3942ZM133.617 23.8219C133.644 23.8219 133.668 23.824 133.69 23.8285C134.208 24.4001 133.981 28.5884 130.395 34.9427C126.78 41.3491 123.282 43.6951 122.597 43.5224C122.064 43.0056 122.265 38.8008 125.88 32.3949C129.361 26.2255 132.731 23.8219 133.617 23.8219Z" fill="black"/>
<path d="M67.5143 130.093C64.8342 123.287 58.2148 122.331 55.8421 122.216C55.5945 123.341 55.192 125.237 54.8585 127.135C54.8016 127.459 54.8508 127.698 55.0233 127.937C55.6186 128.761 57.3124 129.175 57.8588 129.255C57.9593 129.27 58.0545 129.297 58.1457 129.332C61.4 128.554 64.5952 129.018 67.5143 130.093Z" fill="#F295FF"/>
<path d="M60.5831 146.801C59.6705 146.854 58.7561 146.587 57.9633 146.006C56.6348 145.032 55.955 143.402 56.2309 141.853C56.5398 140.121 57.6779 138.003 61.3474 137.756C62.0205 137.71 62.7268 137.828 63.4552 138.065C64.1409 136.452 64.9005 134.87 65.7383 133.329C65.8972 133.035 66.0699 132.756 66.2337 132.467C61.7646 130.941 57.6846 131.529 54.0648 134.247C51.2728 136.343 49.9986 139.455 50.4765 143.011C51.0581 147.337 54.0605 151.385 57.7781 152.855C58.2746 153.052 58.8395 153.222 59.4582 153.324C59.6964 151.128 60.0739 148.949 60.5831 146.801Z" fill="#F295FF"/>
<path d="M199.486 185.605C198.783 185.757 198.057 185.881 197.303 185.969C197.173 185.984 197.048 185.99 196.92 186.003C186.658 187.799 175.909 185.035 167.87 178.283C166.639 177.266 165.471 176.107 164.665 174.698C164.391 174.228 164.553 173.623 165.025 173.353C165.365 173.159 165.773 173.191 166.075 173.402C168.536 175.166 170.62 177.238 173.22 178.775C176.825 181.019 180.84 182.546 185.005 183.328C184.497 182.98 184.004 182.603 183.53 182.19C176.181 175.786 175.134 163.189 175.025 158.069C174.98 155.919 176.474 154.041 178.578 153.603L200.68 149.009C199.828 148.497 199.04 147.878 198.364 147.162C197.588 146.335 196.968 145.469 196.504 144.413C196.256 143.839 196.521 143.172 197.095 142.924C197.663 142.675 198.271 142.943 198.568 143.444C198.703 143.646 198.852 143.838 199.001 144.03C203.245 140.154 201.567 135.377 199.112 130.005C198.801 129.324 198.507 128.68 198.264 128.085C196.032 122.63 194.697 119.483 194.092 118.073C192.621 118.292 189.363 119.027 184.988 121.412C188.72 125.069 191.919 129.268 194.408 133.883C195.454 135.786 196.804 137.735 196.682 140.004C196.632 140.487 196.2 140.837 195.717 140.787C195.537 140.768 195.38 140.697 195.249 140.591C194.295 139.846 193.893 138.894 193.406 137.971C190.465 131.312 185.959 125.387 180.374 120.722C169.778 111.926 156.252 108.044 142.688 106.41C142.528 107.394 142.269 108.355 141.913 109.282C143.5 109.475 145.125 109.709 146.797 109.991C147.364 110.086 147.808 110.529 147.906 111.095C148.004 111.661 147.734 112.228 147.232 112.508L143.799 114.427C143.597 114.541 143.369 114.599 143.138 114.599C143.085 114.599 143.031 114.596 142.977 114.59C142.85 114.574 132.269 113.338 118.775 113.769C118.345 113.79 117.998 113.799 117.948 113.796C115.331 113.892 112.612 114.052 109.844 114.296C109.24 114.353 108.658 113.985 108.45 113.405C108.242 112.825 108.452 112.178 108.96 111.83L112.461 109.433C112.66 109.297 112.891 109.217 113.131 109.2C113.241 109.192 113.351 109.185 113.461 109.177C113.145 108.357 112.908 107.507 112.745 106.635C88.4795 110.518 67.3463 124.005 62.6811 149.422C61.4615 156.085 61.1073 162.928 61.3946 169.724C61.9189 180.484 63.8723 191.345 68.4535 201.129C69.1755 202.63 70.1356 204.674 70.7214 206.197C74.0186 214.494 76.7966 222.965 79.5387 231.446C81.5665 231.792 83.5999 232.113 85.6495 232.294C90.2526 232.752 94.9095 232.785 99.5157 232.342C99.3027 231.042 99.1127 229.698 98.8683 228.43C98.6346 227.435 99.9381 226.814 100.561 227.61C101.527 228.853 102.023 230.319 102.274 231.83C102.284 231.89 102.294 231.952 102.303 232.015C102.473 231.991 102.643 231.973 102.812 231.948C103.639 231.819 104.489 231.671 105.293 231.499C105.566 227.017 103.114 223.061 101.229 219.07C101.178 218.945 101.103 218.591 101.096 218.404C100.988 217.15 101.029 215.92 101.078 214.734C101.185 212.642 101.401 210.58 101.857 208.527C101.96 208.065 102.418 207.773 102.88 207.876C103.255 207.959 103.518 208.276 103.549 208.639C103.711 210.16 103.734 211.695 103.739 213.226C104.311 213.445 104.884 213.662 105.46 213.865C113.36 216.779 121.704 218.293 130.077 219.045C132.599 219.266 135.181 219.4 137.794 219.448C137.647 217.271 137.544 214.966 138.188 212.908C138.299 212.542 138.686 212.334 139.052 212.445C139.267 212.51 139.427 212.67 139.501 212.865C139.814 213.706 139.987 214.547 140.124 215.385C140.354 216.811 140.53 218.896 140.698 220.35C141.234 224.206 141.777 228.155 143.367 231.721C147.81 233.454 152.895 233.566 157.669 233.426C160.519 233.309 163.39 233.045 166.24 232.662C166.035 231.216 165.859 229.707 165.58 228.315C165.448 227.778 165.792 227.231 166.34 227.133C166.706 227.067 167.061 227.218 167.273 227.494C168.301 228.922 168.833 230.556 168.998 232.257C169.954 232.101 170.905 231.929 171.851 231.747C171.83 229.668 171.443 227.573 170.797 225.553C170.064 223.266 168.97 220.928 167.661 218.95C167.244 218.106 167.167 217.1 167.052 216.181C166.878 214.768 166.839 207.792 169.289 208.821C169.681 209.015 169.883 209.414 169.869 209.823C169.816 211.427 169.658 213.049 169.637 214.665C180.707 210.641 190.38 203.8 196.372 193.081C197.616 190.802 198.652 188.279 199.486 185.605ZM177.377 144.619C177.834 144.042 178.665 143.937 179.25 144.376C179.328 144.428 180.213 144.984 182.173 144.799C184.16 144.614 184.876 143.885 184.906 143.854C185.382 143.278 186.219 143.212 186.797 143.688C187.374 144.164 187.441 145.035 186.965 145.612C186.832 145.774 185.571 147.202 182.424 147.496C182.07 147.529 181.737 147.544 181.424 147.544C178.967 147.544 177.744 146.637 177.597 146.521C177.011 146.057 176.912 145.205 177.377 144.619ZM163.384 145.776C163.841 145.199 164.673 145.094 165.257 145.533C165.336 145.585 166.22 146.14 168.18 145.956C170.168 145.771 170.884 145.042 170.913 145.011C171.389 144.435 172.228 144.37 172.804 144.845C173.381 145.321 173.448 146.192 172.973 146.77C172.839 146.931 171.578 148.359 168.432 148.653C168.078 148.686 167.745 148.701 167.432 148.701C164.975 148.701 163.751 147.794 163.605 147.679C163.019 147.214 162.92 146.362 163.384 145.776ZM126.479 153.411C124.057 149.085 123.681 143.904 124.747 139.336C125.317 136.184 125.003 132.773 124.39 129.596C124.164 128.504 123.887 127.388 123.571 126.365C123.344 125.404 124.224 124.646 124.877 124.316C131.084 121.722 142.059 123.459 148.08 126.201C150.571 127.312 152.941 128.775 154.966 130.662C155.359 131.027 155.38 131.642 155.015 132.034C154.653 132.422 154.046 132.446 153.653 132.092C147.887 127.014 139.781 125.288 132.255 125.4C130.189 125.5 128.002 125.599 126.121 126.424C126.354 127.34 126.539 128.233 126.705 129.151C127.336 132.655 127.659 136.178 127.001 139.758C126.539 141.923 126.386 144.011 126.665 146.189C127.927 156.059 136.095 159.784 145.011 156.431C146.789 155.569 148.428 154.143 149.57 152.432C150.178 151.525 151.589 152.282 151.191 153.284C150.026 156.222 147.465 158.629 144.379 159.54C137.57 161.464 130.095 159.975 126.479 153.411Z" fill="#F295FF"/>
<path d="M163.605 147.678C163.751 147.794 164.975 148.701 167.432 148.701C167.745 148.701 168.078 148.686 168.432 148.653C171.578 148.359 172.839 146.931 172.973 146.769C173.448 146.192 173.381 145.321 172.804 144.845C172.228 144.37 171.389 144.435 170.913 145.011C170.884 145.042 170.168 145.771 168.18 145.956C166.22 146.14 165.336 145.585 165.257 145.533C164.673 145.094 163.841 145.199 163.384 145.776C162.92 146.362 163.019 147.214 163.605 147.678Z" fill="black"/>
<path d="M177.597 146.521C177.744 146.637 178.967 147.544 181.424 147.544C181.737 147.544 182.071 147.529 182.424 147.496C185.571 147.202 186.832 145.774 186.965 145.612C187.441 145.035 187.374 144.164 186.797 143.688C186.219 143.212 185.382 143.278 184.906 143.854C184.876 143.885 184.16 144.614 182.173 144.799C180.213 144.984 179.328 144.428 179.25 144.376C178.665 143.937 177.834 144.042 177.377 144.619C176.913 145.205 177.011 146.057 177.597 146.521Z" fill="black"/>
<path d="M210.118 163.58C209.862 158.452 208.7 153.652 208.031 151.247C207.883 150.717 207.342 150.39 206.798 150.504L179.129 156.255C178.302 156.427 177.715 157.166 177.733 158.012C177.834 162.771 178.775 174.455 185.309 180.148C188.326 182.777 192.256 183.833 196.989 183.278C201.599 182.741 205.038 180.83 207.21 177.597C209.439 174.28 210.417 169.564 210.118 163.58ZM191.674 159.91C192.556 159.8 193.339 160.519 193.99 162.05C194.496 163.241 194.894 164.845 195.11 166.566C195.326 168.287 195.338 169.939 195.142 171.219C194.891 172.863 194.315 173.754 193.429 173.865C193.369 173.873 193.31 173.876 193.252 173.876C192.439 173.876 191.72 173.154 191.113 171.725C190.607 170.534 190.209 168.93 189.993 167.209C189.903 166.495 189.188 160.223 191.674 159.91ZM205.299 169.393C205.048 171.038 204.472 171.928 203.586 172.04C203.526 172.047 203.467 172.051 203.409 172.051C202.596 172.051 201.877 171.328 201.27 169.899C200.764 168.708 200.366 167.104 200.15 165.383C200.06 164.669 199.345 158.397 201.831 158.084C204.315 157.766 205.178 164.026 205.267 164.74C205.484 166.461 205.495 168.114 205.299 169.393Z" fill="#DB00F8"/>
<path d="M210.639 150.521C210.111 148.622 208.183 147.451 206.247 147.852L206.081 147.887C206.013 147.881 205.944 147.881 205.876 147.873C205.456 147.797 205.022 147.782 204.615 147.66C203.27 147.379 202.019 146.765 200.927 145.936C206.845 140.416 203.564 133.232 201.576 128.879C201.276 128.224 200.993 127.604 200.77 127.06C197.561 119.213 196.192 116.108 196.179 116.077C195.962 115.586 195.476 115.27 194.94 115.27C194.934 115.27 194.927 115.27 194.92 115.27C194.694 115.274 190.005 115.399 182.905 119.469C179.346 116.336 175.369 113.676 171.095 111.597C162.25 107.252 152.624 104.94 142.873 103.77C142.867 103.5 142.856 103.23 142.836 102.958C142.289 95.6464 136.417 89.9845 129.312 89.4766C128.229 89.3121 127.12 89.2648 126.002 89.3482C118.302 89.9247 112.431 96.4023 112.485 104.013C95.6385 106.663 79.4281 113.932 69.3719 127.62C65.5477 120.203 57.4811 119.547 55.7096 119.494C54.8093 119.468 53.7918 119.438 53.4633 120.467C53.4448 120.525 53.4305 120.583 53.4202 120.642C53.3104 121.117 52.6865 123.846 52.1909 126.667C52.0076 127.71 52.23 128.7 52.8344 129.532C53.2346 130.083 53.7675 130.509 54.3288 130.843C53.6973 131.199 53.0667 131.61 52.4387 132.081C48.8282 134.792 47.1781 138.802 47.7925 143.372C48.4984 148.624 52.1948 153.56 56.7818 155.374C57.5961 155.696 58.4179 155.903 59.2397 156.021C59.2137 156.484 59.1935 156.948 59.18 157.412C57.8092 173.488 60.2452 190.299 67.384 204.64C68.4698 207.123 69.4452 209.652 70.3831 212.206C72.3421 217.552 74.1792 222.962 75.951 228.389C70.2179 229.417 66.9246 230.615 66.9246 231.895C66.9246 235.711 96.1631 238.804 132.231 238.804C168.298 238.804 197.536 235.711 197.536 231.895C197.536 230.704 194.692 229.585 189.684 228.607C189.546 222.084 186.167 217.485 185.195 216.294C184.577 213.096 185.135 210.157 185.344 209.246C193.415 203.392 199.61 195.346 202.438 184.712C205.38 183.545 207.733 181.674 209.458 179.108C215.291 170.426 212.227 156.224 210.639 150.521ZM119.245 96.2836C121.319 93.8741 124.207 92.4163 127.378 92.1793C130.545 91.9415 133.621 92.9535 136.031 95.0276C138.44 97.1016 139.898 99.9901 140.135 103.16C140.353 106.071 139.515 108.907 137.768 111.217C136.29 111.109 132.676 110.886 127.8 110.871C127.6 110.871 127.403 110.871 127.208 110.871C123.105 110.871 119.988 110.997 118.648 111.063C117.339 109.274 116.564 107.17 116.397 104.937C116.159 101.766 117.171 98.6933 119.245 96.2836ZM54.8585 127.135C55.192 125.237 55.5945 123.341 55.8421 122.216C58.2148 122.331 64.8342 123.287 67.5143 130.093C64.5952 129.018 61.4 128.554 58.1457 129.332C58.0545 129.297 57.9593 129.27 57.8588 129.255C57.3124 129.175 55.6186 128.761 55.0233 127.937C54.8508 127.698 54.8016 127.459 54.8585 127.135ZM59.4582 153.324C58.8395 153.222 58.2746 153.052 57.7781 152.855C54.0605 151.385 51.0581 147.337 50.4765 143.011C49.9986 139.455 51.2728 136.343 54.0648 134.247C57.6846 131.529 61.7646 130.941 66.2337 132.467C66.0699 132.756 65.8972 133.036 65.7383 133.329C64.9005 134.87 64.1409 136.452 63.4552 138.065C62.7268 137.828 62.0205 137.71 61.3474 137.756C57.6779 138.003 56.5398 140.121 56.2309 141.853C55.955 143.402 56.6348 145.032 57.9633 146.006C58.7561 146.587 59.6705 146.854 60.5831 146.801C60.0739 148.949 59.6964 151.128 59.4582 153.324ZM60.9779 143.939C60.3741 144.255 59.8758 144.049 59.5645 143.821C59.0707 143.46 58.8027 142.86 58.8974 142.329C59.076 141.326 59.5724 140.624 61.3865 140.469C61.6066 140.99 61.8308 141.809 61.7776 142.542C61.6756 142.856 61.5785 143.171 61.4821 143.487C61.3593 143.669 61.1956 143.825 60.9779 143.939ZM103.855 218.176C103.853 218.173 103.854 218.173 103.853 218.171C103.848 218.131 103.843 218.085 103.843 218.085C103.796 217.42 103.774 216.749 103.76 216.075C104.023 216.171 104.285 216.267 104.549 216.36C110.771 218.648 117.261 220.094 123.821 220.989C124.714 222.987 125.719 226.715 125.561 229.207C125.161 229.353 124.561 229.545 123.756 229.737C123.708 228.326 122.626 226.384 121.947 225.725C121.329 225.045 120.126 225.591 120.251 226.516C120.424 227.776 120.72 229.043 121.09 230.222C118.124 230.616 113.792 230.76 107.92 229.947C107.867 225.94 106.016 222.11 104.106 218.692C103.998 218.49 103.888 218.261 103.855 218.176ZM132.231 224.985C130.764 224.985 129.31 224.991 127.868 225.001C127.608 223.705 127.252 222.443 126.876 221.367C127.866 221.477 128.857 221.577 129.848 221.664C132.52 221.931 135.259 222.09 138.037 222.136C138.153 223.099 138.3 224.074 138.472 225.017C136.418 224.996 134.336 224.985 132.231 224.985ZM186.979 228.852C186.313 229.028 185.321 229.279 184.098 229.559C184.011 228.264 182.787 225.344 181.495 225.435C180.949 225.489 180.55 225.976 180.604 226.522C180.761 227.759 181.049 228.931 181.462 230.055C181.462 230.055 181.494 230.079 181.536 230.11C179.408 230.54 176.912 230.971 174.292 231.273C174.221 229.057 173.799 226.878 173.137 224.805C172.322 222.31 171.274 220.026 169.841 217.806C169.812 217.629 169.789 217.453 169.767 217.276C174.198 215.705 178.419 213.728 182.29 211.307C182.146 212.916 182.137 214.998 182.615 217.193C182.664 217.422 182.775 217.637 182.931 217.811C182.973 217.858 186.906 222.327 186.979 228.852ZM196.372 193.081C190.381 203.799 180.707 210.641 169.637 214.665C169.658 213.048 169.816 211.427 169.869 209.823C169.883 209.414 169.681 209.015 169.289 208.821C166.839 207.792 166.878 214.768 167.052 216.181C167.167 217.1 167.244 218.106 167.661 218.95C168.97 220.927 170.064 223.266 170.797 225.552C171.443 227.573 171.83 229.668 171.851 231.747C170.905 231.928 169.954 232.101 168.999 232.256C168.833 230.556 168.301 228.922 167.273 227.494C167.061 227.218 166.706 227.067 166.34 227.133C165.792 227.231 165.448 227.778 165.58 228.315C165.859 229.706 166.035 231.216 166.24 232.662C163.39 233.045 160.519 233.309 157.669 233.426C152.895 233.566 147.81 233.454 143.367 231.721C141.777 228.155 141.234 224.206 140.698 220.35C140.53 218.896 140.354 216.811 140.124 215.385C139.987 214.547 139.814 213.706 139.501 212.865C139.427 212.67 139.267 212.51 139.052 212.445C138.686 212.334 138.299 212.542 138.189 212.908C137.544 214.966 137.647 217.271 137.795 219.447C135.181 219.4 132.599 219.266 130.077 219.045C121.704 218.293 113.36 216.779 105.46 213.865C104.884 213.662 104.311 213.445 103.739 213.225C103.734 211.695 103.711 210.16 103.549 208.639C103.518 208.276 103.255 207.959 102.881 207.876C102.418 207.773 101.96 208.064 101.857 208.527C101.401 210.58 101.185 212.642 101.078 214.734C101.029 215.92 100.988 217.15 101.096 218.404C101.103 218.591 101.178 218.945 101.229 219.07C103.114 223.061 105.566 227.017 105.293 231.499C104.489 231.671 103.639 231.819 102.812 231.948C102.643 231.973 102.473 231.991 102.303 232.014C102.294 231.952 102.284 231.89 102.274 231.83C102.023 230.319 101.527 228.853 100.561 227.609C99.9382 226.814 98.6346 227.435 98.8683 228.43C99.1128 229.698 99.3028 231.042 99.5158 232.342C94.9096 232.785 90.2527 232.752 85.6495 232.294C83.5999 232.113 81.5665 231.792 79.5388 231.445C76.7967 222.965 74.0187 214.494 70.7215 206.197C70.1356 204.674 69.1756 202.63 68.4536 201.129C63.8724 191.345 61.919 180.484 61.3946 169.724C61.1074 162.928 61.4616 156.085 62.6811 149.422C67.3464 124.005 88.4796 110.518 112.745 106.635C112.908 107.507 113.145 108.357 113.461 109.177C113.351 109.184 113.241 109.192 113.131 109.2C112.891 109.216 112.66 109.297 112.461 109.433L108.96 111.83C108.452 112.178 108.243 112.825 108.45 113.405C108.658 113.985 109.24 114.353 109.844 114.296C112.612 114.052 115.331 113.892 117.948 113.796C117.998 113.799 118.345 113.79 118.775 113.769C132.269 113.338 142.85 114.574 142.977 114.59C143.031 114.596 143.085 114.599 143.139 114.599C143.369 114.599 143.597 114.541 143.799 114.427L147.232 112.508C147.734 112.228 148.004 111.661 147.906 111.095C147.808 110.529 147.364 110.086 146.797 109.991C145.125 109.709 143.5 109.475 141.914 109.282C142.27 108.355 142.528 107.394 142.688 106.41C156.252 108.044 169.778 111.926 180.374 120.722C185.959 125.387 190.465 131.312 193.406 137.971C193.893 138.894 194.295 139.846 195.249 140.591C195.38 140.697 195.537 140.768 195.717 140.787C196.2 140.837 196.632 140.487 196.682 140.004C196.804 137.735 195.454 135.786 194.408 133.883C191.92 129.268 188.72 125.069 184.988 121.412C189.363 119.027 192.621 118.292 194.092 118.072C194.697 119.482 196.032 122.63 198.264 128.085C198.507 128.68 198.801 129.324 199.112 130.005C201.567 135.377 203.245 140.154 199.001 144.03C198.852 143.838 198.703 143.645 198.568 143.444C198.271 142.943 197.663 142.675 197.095 142.924C196.521 143.172 196.256 143.839 196.504 144.413C196.968 145.469 197.588 146.334 198.364 147.162C199.04 147.877 199.828 148.496 200.68 149.009L178.578 153.603C176.474 154.041 174.98 155.919 175.025 158.069C175.134 163.188 176.181 175.786 183.53 182.19C184.004 182.603 184.497 182.98 185.005 183.328C180.84 182.546 176.825 181.019 173.22 178.775C170.62 177.238 168.536 175.166 166.075 173.402C165.773 173.191 165.365 173.159 165.025 173.353C164.553 173.623 164.391 174.228 164.665 174.698C165.471 176.107 166.639 177.266 167.871 178.283C175.909 185.034 186.658 187.798 196.92 186.002C197.048 185.99 197.173 185.984 197.303 185.969C198.057 185.881 198.783 185.757 199.486 185.604C198.653 188.279 197.616 190.802 196.372 193.081ZM207.21 177.597C205.038 180.83 201.599 182.741 196.989 183.278C192.256 183.833 188.326 182.777 185.309 180.148C178.775 174.454 177.834 162.771 177.733 158.012C177.715 157.166 178.302 156.427 179.129 156.255L206.798 150.504C207.342 150.39 207.883 150.717 208.031 151.247C208.7 153.652 209.862 158.452 210.118 163.58C210.417 169.564 209.439 174.28 207.21 177.597Z" fill="black"/>
<path d="M151.191 153.284C151.589 152.282 150.178 151.525 149.57 152.432C148.428 154.143 146.789 155.569 145.011 156.431C136.095 159.784 127.927 156.058 126.665 146.189C126.386 144.011 126.539 141.922 127.001 139.758C127.659 136.178 127.336 132.655 126.705 129.151C126.539 128.232 126.354 127.34 126.121 126.424C128.002 125.599 130.19 125.5 132.255 125.4C139.781 125.288 147.887 127.014 153.653 132.092C154.046 132.446 154.653 132.422 155.015 132.034C155.38 131.642 155.359 131.027 154.966 130.662C152.941 128.775 150.571 127.312 148.08 126.201C142.059 123.459 131.084 121.722 124.877 124.316C124.224 124.645 123.344 125.404 123.571 126.365C123.887 127.388 124.164 128.504 124.39 129.596C125.003 132.773 125.317 136.184 124.747 139.336C123.681 143.903 124.057 149.085 126.479 153.411C130.095 159.974 137.57 161.464 144.379 159.539C147.465 158.629 150.026 156.222 151.191 153.284Z" fill="black"/>
<path d="M191.113 171.725C191.72 173.154 192.439 173.876 193.252 173.876C193.31 173.876 193.369 173.873 193.429 173.865C194.315 173.754 194.891 172.863 195.142 171.219C195.338 169.939 195.326 168.287 195.11 166.566C194.894 164.845 194.496 163.241 193.99 162.05C193.339 160.519 192.556 159.8 191.674 159.91C189.188 160.223 189.903 166.495 189.993 167.209C190.209 168.93 190.607 170.534 191.113 171.725Z" fill="black"/>
<path d="M201.831 158.084C199.345 158.397 200.06 164.669 200.15 165.384C200.366 167.104 200.764 168.708 201.27 169.899C201.877 171.328 202.596 172.051 203.409 172.051C203.467 172.051 203.526 172.047 203.586 172.04C204.472 171.928 205.048 171.038 205.299 169.393C205.495 168.114 205.484 166.461 205.267 164.74C205.178 164.026 204.315 157.766 201.831 158.084Z" fill="black"/>
<path d="M125.88 32.395C122.265 38.8008 122.064 43.0056 122.597 43.5224C123.282 43.6952 126.78 41.3492 130.395 34.9428C133.981 28.5885 134.208 24.4001 133.69 23.8286C133.668 23.8241 133.644 23.822 133.617 23.822C132.731 23.822 129.361 26.2256 125.88 32.395Z" fill="#FFB921"/>
<path d="M127.378 92.1793C124.207 92.4163 121.319 93.8742 119.245 96.2836C117.171 98.6933 116.159 101.766 116.397 104.937C116.564 107.17 117.339 109.274 118.648 111.063C119.988 110.997 123.105 110.871 127.208 110.871C127.403 110.871 127.6 110.871 127.8 110.871C132.676 110.886 136.29 111.109 137.768 111.217C139.515 108.907 140.353 106.071 140.135 103.161C139.898 99.9901 138.44 97.1017 136.031 95.0276C133.621 92.9535 130.545 91.9416 127.378 92.1793Z" fill="#FFB921"/>
<path d="M162.727 72.7518C162.355 69.7264 160.963 67.0175 158.807 65.124C156.988 63.5266 154.81 62.6778 152.578 62.6778C152.219 62.6778 151.859 62.6998 151.499 62.7442C146.067 63.4118 142.267 68.9871 143.027 75.1727C143.399 78.1981 144.791 80.907 146.947 82.8004C149.059 84.6547 151.655 85.5016 154.256 85.1803C159.687 84.5127 163.487 78.9373 162.727 72.7518Z" fill="#FFB921"/>
<path d="M165.415 72.4212C164.962 68.7356 163.25 65.4213 160.595 63.0891C157.913 60.7344 154.596 59.6593 151.238 60.0493C151.088 60.0599 150.641 60.1139 149.411 60.2707L149.125 60.307C142.212 61.1568 137.354 68.0863 138.297 75.7542C139.175 82.9028 144.857 88.1674 151.462 88.1674C151.802 88.1674 152.145 88.1533 152.49 88.125L153.148 88.0745C154.566 87.9677 154.821 87.9444 154.96 87.9203C155.887 87.7597 156.74 87.4732 157.533 87.0961C162.82 84.9298 166.217 78.944 165.415 72.4212ZM154.256 85.1803C151.655 85.5016 149.059 84.6547 146.947 82.8004C144.791 80.907 143.399 78.1981 143.027 75.1727C142.267 68.9871 146.067 63.4118 151.499 62.7442C151.859 62.6998 152.219 62.6778 152.578 62.6778C154.81 62.6778 156.988 63.5266 158.807 65.124C160.963 67.0175 162.355 69.7264 162.727 72.7518C163.487 78.9373 159.687 84.5127 154.256 85.1803Z" fill="black"/>
<path d="M112.045 68.4111C111.686 70.5402 110.961 72.0033 109.597 73.4694C111.476 74.1618 112.782 75.1409 114.064 76.8791C114.423 74.7497 115.147 73.2866 116.511 71.8211C114.632 71.1284 113.326 70.1493 112.045 68.4111Z" fill="#D5C3EE"/>
<path d="M119.491 69.8626C115.695 68.9953 114.606 68.0292 112.201 63.402C111.915 62.8508 111.289 62.5644 110.686 62.7093C110.081 62.8532 109.652 63.3901 109.645 64.0114C109.587 69.2254 109.05 70.5793 106.054 73.0658C105.657 73.3948 105.482 73.9206 105.601 74.4218C105.721 74.9232 106.114 75.3134 106.617 75.4279C110.413 76.2949 111.503 77.261 113.907 81.8879C114.144 82.3439 114.612 82.6179 115.108 82.6179C115.213 82.6179 115.318 82.606 115.423 82.5809C116.027 82.437 116.456 81.9001 116.463 81.2788C116.521 76.0648 117.058 74.7109 120.054 72.2247C120.451 71.8957 120.627 71.3699 120.507 70.8687C120.388 70.3672 119.994 69.9774 119.491 69.8626ZM109.597 73.4694C110.961 72.0033 111.686 70.5402 112.045 68.4111C113.326 70.1493 114.632 71.1284 116.511 71.8211C115.147 73.2866 114.423 74.7497 114.064 76.8791C112.782 75.1409 111.476 74.1618 109.597 73.4694Z" fill="black"/>
<path d="M151.322 45.7671C151.753 45.2458 152.242 44.8205 152.843 44.4558C152.371 43.9342 152.024 43.3865 151.761 42.7639C151.33 43.2852 150.841 43.7105 150.24 44.0752C150.711 44.5968 151.059 45.1445 151.322 45.7671Z" fill="#D5C3EE"/>
<path d="M146.95 44.8216C148.659 45.9999 149.091 46.5976 149.409 49.7699C149.471 50.3882 149.946 50.8847 150.561 50.9746C150.627 50.9844 150.693 50.9889 150.758 50.9889C151.3 50.9889 151.798 50.663 152.009 50.1499C153.222 47.2014 153.807 46.7523 155.781 46.1125C156.272 45.9536 156.629 45.5302 156.704 45.02C156.778 44.51 156.557 44.002 156.133 43.7094C154.424 42.5312 153.992 41.9334 153.674 38.7612C153.612 38.1428 153.137 37.6464 152.522 37.5564C151.906 37.4657 151.31 37.8064 151.074 38.3811C149.861 41.3296 149.276 41.7787 147.302 42.4185C146.811 42.5774 146.454 43.0009 146.379 43.5108C146.305 44.021 146.526 44.5291 146.95 44.8216ZM151.761 42.7639C152.024 43.3865 152.371 43.9342 152.843 44.4558C152.242 44.8205 151.753 45.2458 151.322 45.7671C151.059 45.1445 150.711 44.5968 150.24 44.0752C150.841 43.7105 151.33 43.2852 151.761 42.7639Z" fill="black"/>
</svg>
