<svg xmlns="http://www.w3.org/2000/svg" width="61" height="61" fill="none" viewBox="0 0 61 61"><path fill="url(#a)" d="M30.5 61C47.345 61 61 47.345 61 30.5S47.345 0 30.5 0 0 13.655 0 30.5 13.655 61 30.5 61"/><path fill="url(#b)" d="M30.5 61C47.345 61 61 47.345 61 30.5S47.345 0 30.5 0 0 13.655 0 30.5 13.655 61 30.5 61"/><path fill="url(#c)" d="M51.098 35.664a1.1 1.1 0 0 0-.71-.029 72 72 0 0 1-19.874 2.767 72.6 72.6 0 0 1-19.874-2.767 1.1 1.1 0 0 0-.71.029c-.695.283-1.801 1.333-.34 5.348v.014c2.156 5.135 7.873 14.158 20.91 14.158 13.009 0 18.725-9.037 20.939-14.158 1.447-4.029.354-5.079-.34-5.362"/><path fill="url(#d)" d="M22.244 25.592c-2.114-1.305-4.838-1.164-6.824.326-1.007.766-2 1.93-2.582 3.745-.099.298-.17.624-.184.95-.043.653.411 1.235 1.149.554 5.632-5.32 9.576.156 9.576.156.766.553 1.546-.596 1.39-1.66-.043-.312-.085-.638-.156-.922-.454-1.56-1.376-2.54-2.37-3.15"/><path fill="url(#e)" d="M50.687 35.579a.5.5 0 0 0-.142.014 72.4 72.4 0 0 1-20.06 2.823c-6.823 0-13.561-.95-20.058-2.823-.043-.014-.085-.014-.142-.014-.44.042-2.54.482-.738 5.447v.014c.88 2.071 2.34 4.781 4.625 7.264-2.142-2.54.496-3.944 5.192-3.377s11.122.582 11.122.582 6.412-.014 11.122-.582c4.695-.567 7.334.837 5.192 3.377 2.284-2.483 3.745-5.193 4.624-7.264v-.014c1.802-4.98-.298-5.419-.737-5.447"/><path fill="url(#f)" d="M47.07 42.558a4.19 4.19 0 0 0 3.305-3.703l.17-1.787A74 74 0 0 1 30.5 39.834a74 74 0 0 1-20.045-2.766l.17 1.788c.17 1.815 1.518 3.305 3.306 3.702a78 78 0 0 0 16.569 1.76c5.59 0 11.15-.597 16.57-1.76"/><path fill="url(#g)" d="M24.599 28.727a6.6 6.6 0 0 0-.767-1.646 5.2 5.2 0 0 0-1.588-1.49c-2.114-1.305-4.838-1.163-6.824.327-1.007.766-2 1.93-2.582 3.745-.056.17-.1.355-.127.539v.014c2.482-3.873 6.057-4.142 6.057-4.142s3.547-.298 5.944 3.163c-.028-.17-.07-.34-.113-.51"/><path fill="url(#h)" d="M38.756 25.592c2.114-1.305 4.838-1.164 6.824.326 1.007.766 2 1.93 2.582 3.745.099.298.17.624.184.95.043.653-.411 1.235-1.149.554-5.632-5.32-9.576.156-9.576.156-.766.553-1.546-.596-1.39-1.66.043-.312.085-.638.156-.922.454-1.56 1.376-2.54 2.37-3.15"/><path fill="url(#i)" d="M36.401 28.727a6.6 6.6 0 0 1 .766-1.646 5.2 5.2 0 0 1 1.59-1.49c2.113-1.305 4.837-1.163 6.823.327 1.007.766 2 1.93 2.582 3.745.056.17.099.355.127.539v.014c-2.482-3.873-6.057-4.142-6.057-4.142s-3.547-.298-5.944 3.163c.028-.17.07-.34.113-.51"/><path fill="url(#j)" d="M47.878 44.771c.213-.312-.128-.71-.468-.553-2.185.95-7.377 2.596-16.91 2.596-9.845 0-14.796-1.589-16.896-2.553-.34-.157-.68.24-.468.553 2.994 4.411 8.3 9.036 17.364 9.036 9.065-.014 14.37-4.653 17.378-9.079"/><defs><radialGradient id="a" cx="0" cy="0" r="1" gradientTransform="translate(24.5 18.14)scale(36.7943)" gradientUnits="userSpaceOnUse"><stop stop-color="#FFDF30"/><stop offset="1" stop-color="#FFB82E"/></radialGradient><radialGradient id="b" cx="0" cy="0" r="1" gradientTransform="translate(24.5 18.14)scale(28.9477)" gradientUnits="userSpaceOnUse"><stop stop-color="#FFE95F"/><stop offset="1" stop-color="#FFBB47" stop-opacity="0"/></radialGradient><radialGradient id="d" cx="0" cy="0" r="1" gradientTransform="rotate(175.474 8.812 14.511)scale(4.70546 3.33657)" gradientUnits="userSpaceOnUse"><stop offset=".001" stop-color="#7A4400"/><stop offset="1" stop-color="#643800"/></radialGradient><radialGradient id="f" cx="0" cy="0" r="1" gradientTransform="translate(30.5 40.7)scale(36.8469)" gradientUnits="userSpaceOnUse"><stop offset=".001" stop-color="#fff"/><stop offset="1" stop-color="#A8BBBD"/></radialGradient><radialGradient id="h" cx="0" cy="0" r="1" gradientTransform="matrix(4.69078 .37128 -.26327 3.32616 42.225 28.28)" gradientUnits="userSpaceOnUse"><stop offset=".001" stop-color="#7A4400"/><stop offset="1" stop-color="#643800"/></radialGradient><radialGradient id="j" cx="0" cy="0" r="1" gradientTransform="matrix(36.3063 0 0 36.3062 30.507 49.01)" gradientUnits="userSpaceOnUse"><stop offset=".001" stop-color="#fff"/><stop offset="1" stop-color="#A8BBBD"/></radialGradient><linearGradient id="c" x1="8.849" x2="52.151" y1="45.386" y2="45.386" gradientUnits="userSpaceOnUse"><stop offset=".001" stop-color="#3C2200"/><stop offset=".5" stop-color="#512D00"/><stop offset="1" stop-color="#3C2200"/></linearGradient><linearGradient id="e" x1="51.908" x2="9.352" y1="41.933" y2="41.933" gradientUnits="userSpaceOnUse"><stop offset=".001" stop-color="#3C2200"/><stop offset=".5" stop-color="#512D00"/><stop offset="1" stop-color="#3C2200"/></linearGradient><linearGradient id="g" x1="19.236" x2="18.863" y1="22.357" y2="27.478" gradientUnits="userSpaceOnUse"><stop offset=".001" stop-color="#3C2200"/><stop offset="1" stop-color="#512D00"/></linearGradient><linearGradient id="i" x1="41.738" x2="42.111" y1="22.358" y2="27.48" gradientUnits="userSpaceOnUse"><stop offset=".001" stop-color="#3C2200"/><stop offset="1" stop-color="#512D00"/></linearGradient></defs></svg>