<svg xmlns="http://www.w3.org/2000/svg" width="61" height="61" fill="none" viewBox="0 0 61 61"><path fill="url(#a)" d="M61 30.5C61 47.345 47.345 61 30.5 61S0 47.345 0 30.5 13.655 0 30.5 0 61 13.655 61 30.5"/><path fill="url(#b)" d="M61 30.5C61 47.345 47.345 61 30.5 61S0 47.345 0 30.5 13.655 0 30.5 0 61 13.655 61 30.5"/><path fill="url(#c)" d="M51.056 35.635a1.1 1.1 0 0 0-.709-.029A72 72 0 0 1 30.49 38.37a72.6 72.6 0 0 1-19.858-2.764 1.1 1.1 0 0 0-.709.029c-.694.283-1.8 1.332-.34 5.343v.014c2.154 5.132 7.867 14.147 20.893 14.147 12.998 0 18.71-9.03 20.922-14.147 1.445-4.025.354-5.074-.34-5.357"/><path fill="url(#d)" d="M22.226 25.57c-2.113-1.303-4.834-1.162-6.818.327-1.007.765-1.999 1.927-2.58 3.742-.1.297-.17.623-.184.95-.043.651.41 1.233 1.148.552 5.627-5.315 9.568.156 9.568.156.765.553 1.544-.595 1.389-1.658-.043-.312-.085-.638-.156-.922-.454-1.559-1.375-2.537-2.367-3.146"/><path fill="url(#e)" d="M50.645 35.55a.5.5 0 0 0-.142.014 72.3 72.3 0 0 1-20.042 2.82c-6.818 0-13.551-.95-20.043-2.82-.042-.015-.085-.015-.142-.015-.44.043-2.537.482-.737 5.443v.015c.88 2.07 2.339 4.776 4.621 7.257-2.14-2.537.496-3.94 5.188-3.374 4.692.567 11.113.581 11.113.581s6.407-.014 11.112-.58c4.692-.568 7.329.836 5.188 3.373 2.282-2.48 3.742-5.188 4.621-7.257v-.015c1.8-4.975-.297-5.414-.737-5.443"/><path fill="url(#f)" d="M47.03 42.523a4.19 4.19 0 0 0 3.303-3.7l.17-1.785a74 74 0 0 1-20.028 2.764 74 74 0 0 1-20.028-2.764l.17 1.786c.17 1.814 1.516 3.302 3.302 3.7a78 78 0 0 0 16.556 1.757c5.585 0 11.141-.595 16.556-1.758"/><path fill="url(#g)" d="M24.578 28.703a6.6 6.6 0 0 0-.765-1.644 5.2 5.2 0 0 0-1.588-1.488c-2.112-1.304-4.833-1.163-6.818.326-1.006.765-1.998 1.927-2.58 3.742-.056.17-.098.354-.127.538v.015c2.48-3.87 6.053-4.14 6.053-4.14s3.543-.297 5.939 3.162a7 7 0 0 0-.114-.51"/><path fill="url(#h)" d="M38.725 25.57c2.111-1.303 4.833-1.162 6.817.327 1.007.765 1.999 1.927 2.58 3.742.1.297.17.623.184.95.043.651-.41 1.233-1.148.552-5.627-5.315-9.567.156-9.567.156-.766.553-1.545-.595-1.39-1.658.043-.312.085-.638.156-.922.454-1.559 1.375-2.537 2.367-3.146"/><path fill="#1C1C1C" d="M36.372 28.703c.198-.638.467-1.19.765-1.644a5.2 5.2 0 0 1 1.587-1.488c2.112-1.304 4.834-1.163 6.818.326 1.007.765 1.999 1.927 2.58 3.742.057.17.1.354.128.538v.015c-2.48-3.87-6.053-4.14-6.053-4.14s-3.544-.297-5.939 3.162c.028-.17.07-.34.113-.51"/><path fill="url(#i)" d="M47.839 44.735c.212-.312-.128-.71-.468-.553-2.183.95-7.37 2.594-16.896 2.594-9.837 0-14.784-1.588-16.882-2.552-.34-.156-.68.241-.467.553 2.99 4.408 8.292 9.03 17.349 9.03 9.057-.015 14.359-4.65 17.364-9.073"/><defs><radialGradient id="b" cx="0" cy="0" r="1" gradientTransform="rotate(90 0 30.5)scale(30.5)" gradientUnits="userSpaceOnUse"><stop stop-color="#757575" stop-opacity="0"/><stop offset=".9" stop-color="#757575" stop-opacity=".25"/><stop offset=".94" stop-color="#757575" stop-opacity=".5"/><stop offset="1" stop-color="#757575" stop-opacity=".7"/></radialGradient><radialGradient id="c" cx="0" cy="0" r="1" gradientTransform="matrix(7.18745 0 0 .58538 30.84 48.995)" gradientUnits="userSpaceOnUse"><stop offset=".001" stop-color="#686868"/><stop offset="1" stop-color="#404040"/></radialGradient><radialGradient id="d" cx="0" cy="0" r="1" gradientTransform="matrix(2.0157 0 0 .20233 18.804 29.323)" gradientUnits="userSpaceOnUse"><stop offset=".001" stop-color="#686868"/><stop offset="1" stop-color="#404040"/></radialGradient><radialGradient id="e" cx="0" cy="0" r="1" gradientTransform="matrix(7.19323 0 0 .38017 30.816 44.274)" gradientUnits="userSpaceOnUse"><stop offset=".001" stop-color="#686868"/><stop offset="1" stop-color="#404040"/></radialGradient><radialGradient id="f" cx="0" cy="0" r="1" gradientTransform="translate(30.475 40.666)scale(36.8167)" gradientUnits="userSpaceOnUse"><stop offset=".001" stop-color="#fff"/><stop offset="1" stop-color="#A8BBBD"/></radialGradient><radialGradient id="g" cx="0" cy="0" r="1" gradientTransform="matrix(1.99306 0 0 .16482 18.794 28.462)" gradientUnits="userSpaceOnUse"><stop offset=".001" stop-color="#686868"/><stop offset="1" stop-color="#404040"/></radialGradient><radialGradient id="h" cx="0" cy="0" r="1" gradientTransform="matrix(2.01569 0 0 .20233 42.345 29.323)" gradientUnits="userSpaceOnUse"><stop offset=".001" stop-color="#686868"/><stop offset="1" stop-color="#404040"/></radialGradient><radialGradient id="i" cx="0" cy="0" r="1" gradientTransform="translate(30.482 48.97)scale(36.2765)" gradientUnits="userSpaceOnUse"><stop offset=".001" stop-color="#fff"/><stop offset="1" stop-color="#A8BBBD"/></radialGradient><linearGradient id="a" x1="30.5" x2="30.5" y1="0" y2="61" gradientUnits="userSpaceOnUse"><stop stop-color="#fff"/><stop offset="1" stop-color="#C5C5C5"/></linearGradient></defs></svg>