<svg xmlns="http://www.w3.org/2000/svg" width="61" height="61" fill="none" viewBox="0 0 61 61"><path fill="url(#a)" d="M61 30.5C61 47.345 47.345 61 30.5 61S0 47.345 0 30.5 13.655 0 30.5 0 61 13.655 61 30.5"/><path fill="url(#b)" d="M61 30.5C61 47.345 47.345 61 30.5 61S0 47.345 0 30.5 13.655 0 30.5 0 61 13.655 61 30.5"/><path fill="url(#c)" d="M30.475 41.758c8.944 0 11.807 8.845 9.072 7.456-3.657-1.857-5.968-2.027-9.072-2.027s-5.415.184-9.072 2.027c-2.735 1.389.128-7.456 9.072-7.456"/><path fill="url(#d)" d="M18.852 32.219s5.5-.525 7.101-4.366c.1-.241.156-.496.17-.751.015-.51-.481-1.05-1.474-.553-6.095 3.076-9.61 1.998-12.246 1.247-1.035-.298-1.956.794-1.489 1.53 2.367 3.729 7.938 2.892 7.938 2.892"/><path fill="#1C1C1C" d="M25.954 26.605c-.227-.255-.653-.368-1.29-.042-6.095 3.076-9.61 1.999-12.247 1.247-.553-.156-1.063.085-1.36.44 4.237 2.834 12.232 1.7 14.896-1.645"/><path fill="#1C1C1C" d="M30.475 43.317c5.273 0 8.604 2.977 10.064 5.443.085-1.786-3.19-7.002-10.064-7.002-6.86 0-10.149 5.216-10.064 7.002 1.46-2.466 4.791-5.443 10.064-5.443"/><path fill="url(#e)" d="M42.084 32.219s-5.5-.525-7.102-4.366a2.3 2.3 0 0 1-.17-.751c-.014-.51.482-1.05 1.474-.553 6.095 3.076 9.61 1.998 12.247 1.247 1.035-.298 1.956.794 1.489 1.53-2.353 3.729-7.938 2.892-7.938 2.892"/><path fill="#1C1C1C" d="M34.997 26.605c.226-.255.652-.368 1.29-.042 6.095 3.076 9.61 1.999 12.246 1.247.553-.156 1.063.085 1.36.44-4.237 2.834-12.246 1.7-14.896-1.645"/><defs><radialGradient id="b" cx="0" cy="0" r="1" gradientTransform="rotate(90 0 30.5)scale(30.5)" gradientUnits="userSpaceOnUse"><stop stop-color="#757575" stop-opacity="0"/><stop offset=".9" stop-color="#757575" stop-opacity=".25"/><stop offset=".94" stop-color="#757575" stop-opacity=".5"/><stop offset="1" stop-color="#757575" stop-opacity=".7"/></radialGradient><radialGradient id="c" cx="0" cy="0" r="1" gradientTransform="matrix(10.1385 0 0 1.82392 31 41.859)" gradientUnits="userSpaceOnUse"><stop offset=".001" stop-color="#686868"/><stop offset="1" stop-color="#404040"/></radialGradient><radialGradient id="d" cx="0" cy="0" r="1" gradientTransform="matrix(10.1385 0 0 1.82392 31 41.859)" gradientUnits="userSpaceOnUse"><stop offset=".001" stop-color="#686868"/><stop offset="1" stop-color="#404040"/></radialGradient><radialGradient id="e" cx="0" cy="0" r="1" gradientTransform="matrix(10.1385 0 0 1.82392 31 41.859)" gradientUnits="userSpaceOnUse"><stop offset=".001" stop-color="#686868"/><stop offset="1" stop-color="#404040"/></radialGradient><linearGradient id="a" x1="30.5" x2="30.5" y1="0" y2="61" gradientUnits="userSpaceOnUse"><stop stop-color="#fff"/><stop offset="1" stop-color="#C5C5C5"/></linearGradient></defs></svg>