<svg xmlns="http://www.w3.org/2000/svg" width="61" height="61" fill="none" viewBox="0 0 61 61"><path fill="url(#a)" d="M30.5 61C47.345 61 61 47.345 61 30.5S47.345 0 30.5 0 0 13.655 0 30.5 13.655 61 30.5 61"/><path fill="url(#b)" d="M30.5 61C47.345 61 61 47.345 61 30.5S47.345 0 30.5 0 0 13.655 0 30.5 13.655 61 30.5 61"/><path fill="#643800" d="M30.5 40.791c8.951 0 11.817 8.852 9.079 7.462-3.66-1.858-5.972-2.028-9.08-2.028-3.106 0-5.418.184-9.078 2.028-2.738 1.39.128-7.462 9.079-7.462"/><path fill="url(#c)" d="M18.868 31.244s5.504-.525 7.107-4.37c.099-.24.156-.496.17-.751.014-.51-.482-1.05-1.475-.553-6.1 3.078-9.619 2-12.257 1.248-1.036-.298-1.958.794-1.49 1.532 2.37 3.731 7.945 2.894 7.945 2.894"/><path fill="url(#d)" d="M25.975 25.626c-.227-.255-.653-.368-1.291-.042-6.1 3.078-9.618 2-12.257 1.248-.553-.156-1.064.085-1.362.44 4.242 2.837 12.243 1.702 14.91-1.646"/><path fill="url(#e)" d="M30.5 42.352c5.277 0 8.61 2.979 10.072 5.447.085-1.787-3.192-7.008-10.072-7.008-6.866 0-10.157 5.22-10.072 7.008 1.461-2.468 4.795-5.447 10.072-5.447"/><path fill="url(#f)" d="M42.118 31.244s-5.504-.525-7.107-4.37a2.3 2.3 0 0 1-.17-.751c-.014-.51.482-1.05 1.475-.553 6.1 3.078 9.618 2 12.257 1.248 1.036-.298 1.958.794 1.49 1.532-2.355 3.731-7.945 2.894-7.945 2.894"/><path fill="url(#g)" d="M35.025 25.626c.227-.255.653-.368 1.291-.042 6.1 3.078 9.618 2 12.257 1.248.553-.156 1.064.085 1.362.44-4.242 2.837-12.257 1.702-14.91-1.646"/><defs><radialGradient id="a" cx="0" cy="0" r="1" gradientTransform="translate(24.5 18.14)scale(36.7943)" gradientUnits="userSpaceOnUse"><stop stop-color="#FFDF30"/><stop offset="1" stop-color="#FFB82E"/></radialGradient><radialGradient id="b" cx="0" cy="0" r="1" gradientTransform="translate(24.5 18.14)scale(28.9477)" gradientUnits="userSpaceOnUse"><stop stop-color="#FFE95F"/><stop offset="1" stop-color="#FFBB47" stop-opacity="0"/></radialGradient><radialGradient id="c" cx="0" cy="0" r="1" gradientTransform="matrix(5.8675 -.57135 .25389 2.60735 18.599 28.657)" gradientUnits="userSpaceOnUse"><stop offset=".001" stop-color="#7A4400"/><stop offset="1" stop-color="#643800"/></radialGradient><radialGradient id="f" cx="0" cy="0" r="1" gradientTransform="rotate(-174.438 21.895 13.299)scale(5.89526 2.61968)" gradientUnits="userSpaceOnUse"><stop offset=".001" stop-color="#7A4400"/><stop offset="1" stop-color="#643800"/></radialGradient><linearGradient id="d" x1="18.413" x2="18.703" y1="24.835" y2="29.875" gradientUnits="userSpaceOnUse"><stop offset=".001" stop-color="#3C2200"/><stop offset="1" stop-color="#512D00"/></linearGradient><linearGradient id="e" x1="30.5" x2="30.5" y1="38.477" y2="45.535" gradientUnits="userSpaceOnUse"><stop offset=".001" stop-color="#3C2200"/><stop offset="1" stop-color="#512D00"/></linearGradient><linearGradient id="g" x1="42.584" x2="42.294" y1="24.834" y2="29.873" gradientUnits="userSpaceOnUse"><stop offset=".001" stop-color="#3C2200"/><stop offset="1" stop-color="#512D00"/></linearGradient></defs></svg>