<svg xmlns="http://www.w3.org/2000/svg" width="61" height="61" fill="none" viewBox="0 0 61 61"><path fill="url(#a)" d="M30.5 61C47.345 61 61 47.345 61 30.5S47.345 0 30.5 0 0 13.655 0 30.5 13.655 61 30.5 61"/><path fill="url(#b)" d="M30.5 61C47.345 61 61 47.345 61 30.5S47.345 0 30.5 0 0 13.655 0 30.5 13.655 61 30.5 61"/><path fill="url(#c)" d="M20.55 31.815c1.62 0 2.935-1.988 2.935-4.441s-1.314-4.442-2.936-4.442c-1.62 0-2.935 1.989-2.935 4.442s1.314 4.441 2.935 4.441"/><path fill="url(#d)" d="M20.55 24.438c1.258 0 2.363 1.106 2.935 2.726-.038-2.402-1.334-4.327-2.936-4.327-1.6 0-2.897 1.925-2.935 4.327.572-1.64 1.658-2.726 2.935-2.726"/><path fill="url(#e)" d="M40.45 31.815c1.622 0 2.936-1.988 2.936-4.441s-1.314-4.442-2.935-4.442-2.936 1.989-2.936 4.442 1.315 4.441 2.936 4.441"/><path fill="url(#f)" d="M40.45 24.534c-1.257 0-2.363 1.105-2.935 2.726.038-2.402 1.335-4.328 2.936-4.328s2.897 1.926 2.935 4.328c-.571-1.62-1.658-2.727-2.935-2.727"/><path fill="url(#g)" d="M43.958 48.037a1.433 1.433 0 0 0 .248-1.963c-2.688-3.622-6.977-6.882-13.706-6.882-6.73 0-11.018 3.26-13.706 6.882a1.433 1.433 0 0 0 .248 1.963c.629.515 1.582.4 2.058-.267 2.307-3.05 5.834-5.604 11.38-5.604 5.548 0 9.094 2.555 11.381 5.605a1.475 1.475 0 0 0 2.097.266"/><path fill="url(#h)" d="M44.473 47.084a1.4 1.4 0 0 0-.267-1.01c-2.688-3.622-6.977-6.882-13.706-6.882-6.73 0-11.018 3.26-13.706 6.882a1.4 1.4 0 0 0-.267 1.01c2.917-3.545 7.34-6.538 13.973-6.538s11.075 2.993 13.973 6.538"/><defs><radialGradient id="a" cx="0" cy="0" r="1" gradientTransform="translate(24.499 18.146)scale(36.7943)" gradientUnits="userSpaceOnUse"><stop stop-color="#FFE030"/><stop offset="1" stop-color="#FFB92E"/></radialGradient><radialGradient id="b" cx="0" cy="0" r="1" gradientTransform="translate(24.499 18.146)scale(28.9477)" gradientUnits="userSpaceOnUse"><stop stop-color="#FFEA5F"/><stop offset="1" stop-color="#FFBC47" stop-opacity="0"/></radialGradient><radialGradient id="c" cx="0" cy="0" r="1" gradientTransform="matrix(1.1984 4.13944 -2.67815 .77534 19.654 27.485)" gradientUnits="userSpaceOnUse"><stop offset=".001" stop-color="#7A4400"/><stop offset="1" stop-color="#643800"/></radialGradient><radialGradient id="e" cx="0" cy="0" r="1" gradientTransform="rotate(73.854 1.5 40.068)scale(4.30942 2.78813)" gradientUnits="userSpaceOnUse"><stop offset=".001" stop-color="#7A4400"/><stop offset="1" stop-color="#643800"/></radialGradient><radialGradient id="g" cx="0" cy="0" r="1" gradientTransform="matrix(11.8503 0 0 13.366 36.609 39.8)" gradientUnits="userSpaceOnUse"><stop offset=".001" stop-color="#7A4400"/><stop offset="1" stop-color="#643800"/></radialGradient><linearGradient id="d" x1="20.542" x2="20.542" y1="22.902" y2="27.042" gradientUnits="userSpaceOnUse"><stop offset=".001" stop-color="#3C2200"/><stop offset="1" stop-color="#512D00"/></linearGradient><linearGradient id="f" x1="40.458" x2="40.458" y1="23.011" y2="27.151" gradientUnits="userSpaceOnUse"><stop offset=".001" stop-color="#3C2200"/><stop offset="1" stop-color="#512D00"/></linearGradient><linearGradient id="h" x1="16.509" x2="44.491" y1="43.138" y2="43.138" gradientUnits="userSpaceOnUse"><stop offset=".001" stop-color="#3C2200"/><stop offset="1" stop-color="#512D00"/></linearGradient></defs></svg>