<svg xmlns="http://www.w3.org/2000/svg" width="61" height="61" fill="none" viewBox="0 0 61 61"><path fill="url(#a)" d="M61 30.5C61 47.345 47.345 61 30.5 61S0 47.345 0 30.5 13.655 0 30.5 0 61 13.655 61 30.5"/><path fill="url(#b)" d="M61 30.5C61 47.345 47.345 61 30.5 61S0 47.345 0 30.5 13.655 0 30.5 0 61 13.655 61 30.5"/><path fill="url(#c)" d="M21.057 32.314c1.62 0 2.934-1.987 2.934-4.438s-1.314-4.438-2.934-4.438-2.933 1.987-2.933 4.438 1.313 4.438 2.933 4.438"/><path fill="#1C1C1C" d="M21.057 24.943c1.257 0 2.362 1.105 2.934 2.724-.038-2.4-1.334-4.324-2.934-4.324s-2.895 1.924-2.933 4.324c.571-1.638 1.657-2.724 2.933-2.724"/><path fill="url(#d)" d="M40.943 32.314c1.62 0 2.933-1.987 2.933-4.438s-1.313-4.438-2.933-4.438-2.933 1.987-2.933 4.438 1.313 4.438 2.933 4.438"/><path fill="#1C1C1C" d="M40.943 25.038c-1.257 0-2.362 1.105-2.933 2.724.038-2.4 1.333-4.324 2.933-4.324s2.895 1.924 2.933 4.324c-.571-1.619-1.657-2.724-2.933-2.724"/><path fill="url(#e)" d="M44.448 48.524c.59-.477.704-1.353.247-1.962-2.686-3.62-6.971-6.876-13.695-6.876s-11.01 3.257-13.695 6.876a1.43 1.43 0 0 0 .247 1.962c.629.514 1.581.4 2.057-.267 2.305-3.048 5.829-5.6 11.372-5.6s9.085 2.552 11.371 5.6a1.474 1.474 0 0 0 2.096.267"/><path fill="#1C1C1C" d="M44.962 47.571a1.4 1.4 0 0 0-.267-1.01C42.01 42.944 37.724 39.687 31 39.687s-11.01 3.257-13.695 6.876a1.4 1.4 0 0 0-.267 1.01c2.914-3.544 7.333-6.534 13.962-6.534s11.067 2.99 13.962 6.533"/><defs><radialGradient id="b" cx="0" cy="0" r="1" gradientTransform="rotate(90 0 30.5)scale(30.5)" gradientUnits="userSpaceOnUse"><stop stop-color="#757575" stop-opacity="0"/><stop offset=".9" stop-color="#757575" stop-opacity=".25"/><stop offset=".94" stop-color="#757575" stop-opacity=".5"/><stop offset="1" stop-color="#757575" stop-opacity=".7"/></radialGradient><radialGradient id="c" cx="0" cy="0" r="1" gradientTransform="matrix(10.1385 0 0 1.82392 31 41.859)" gradientUnits="userSpaceOnUse"><stop offset=".001" stop-color="#686868"/><stop offset="1" stop-color="#404040"/></radialGradient><radialGradient id="d" cx="0" cy="0" r="1" gradientTransform="matrix(10.1385 0 0 1.82392 31 41.859)" gradientUnits="userSpaceOnUse"><stop offset=".001" stop-color="#686868"/><stop offset="1" stop-color="#404040"/></radialGradient><radialGradient id="e" cx="0" cy="0" r="1" gradientTransform="matrix(10.1385 0 0 1.82392 31 41.859)" gradientUnits="userSpaceOnUse"><stop offset=".001" stop-color="#686868"/><stop offset="1" stop-color="#404040"/></radialGradient><linearGradient id="a" x1="30.5" x2="30.5" y1="0" y2="61" gradientUnits="userSpaceOnUse"><stop stop-color="#fff"/><stop offset="1" stop-color="#C5C5C5"/></linearGradient></defs></svg>