<svg xmlns="http://www.w3.org/2000/svg" width="69" height="32" fill="none" viewBox="0 0 69 32">
  <g clip-path="url(#a)">
    <path
      fill="#FCFBF2"
      d="M27.871 18.98c0 7.155 6.038 12.87 13.083 12.87h14.964C62.962 31.85 69 26.136 69 18.98V0H58.324v19.547c0 1.701-.963 2.618-2.275 2.618-1.313 0-2.275-.916-2.275-2.618V0H43.098v19.547c0 1.701-.963 2.618-2.276 2.618s-2.275-.916-2.275-2.618V0H27.871zM12.951 32.2c7.657 0 12.951-5.541 12.951-13.046V0H15.226v19.372c0 1.702-.962 2.618-2.275 2.618s-2.275-.916-2.275-2.618V0H0v19.154C0 26.66 5.294 32.2 12.951 32.2"
    />
  </g>
  <defs>
    <clipPath id="a"><path fill="#fff" d="M0 0h69v32H0z" /></clipPath>
  </defs>
</svg>
