<svg xmlns="http://www.w3.org/2000/svg" width="580" height="580" fill="none" viewBox="0 0 580 580">
  <path
    fill="#F295FF"
    d="M155.075 65.716c4.229-2.94 8.714-5.452 13.16-5.743 3.116-.206 5.609 1.013 7.223 3.507l1.744-7.731a7.8 7.8 0 0 1 2.292-4.004c-7.393-.237-15.554-.455-24.54-.64a12 12 0 0 0-1.378.04c.088.525.267 1.266.421 1.901.685 2.834 1.686 6.993 1.078 12.67"
  />
  <path fill="#F295FF" d="m172.21 77.882.002-.01a3.3 3.3 0 0 1-.544-.173c.195.09.369.147.542.183" />
  <path
    fill="#EE6DBB"
    d="m161.734 160.041 3.687.832a2.863 2.863 0 0 0 3.416-2.159l3.32-14.719c-3.546-18.891 1.067-39.222 12.361-54.805l6.823-30.252a2.86 2.86 0 0 0-2.159-3.418l-3.686-.83a2.84 2.84 0 0 0-2.156.372 2.84 2.84 0 0 0-1.26 1.786l-22.504 99.776a2.86 2.86 0 0 0 2.158 3.417m18.763-84.26 1.614-7.158c.104-.462.381-.855.781-1.108a1.76 1.76 0 0 1 1.337-.23l.692.156a1.76 1.76 0 0 1 1.107.781c.253.4.334.875.23 1.336l-1.614 7.157a1.773 1.773 0 0 1-2.117 1.338l-.692-.156a1.76 1.76 0 0 1-1.108-.781 1.76 1.76 0 0 1-.23-1.336"
  />
  <path
    fill="#000"
    d="m181.835 77.897.692.156q.196.044.39.044c.81 0 1.542-.56 1.727-1.382l1.614-7.157a1.76 1.76 0 0 0-.23-1.335 1.76 1.76 0 0 0-1.107-.781l-.692-.157a1.76 1.76 0 0 0-1.337.23c-.4.253-.677.646-.781 1.108l-1.614 7.157c-.104.462-.023.936.23 1.336s.646.677 1.108.781"
  />
  <path
    fill="#F295FF"
    d="M334.911 378.012a8 8 0 0 1-1.446-.146 66 66 0 0 1-5.725-1.326 97 97 0 0 1-2.034 6.014c-.475 1.23-.979 2.451-1.497 3.668.176.106.341.229.487.376 1.513.397 3.146.765 4.914 1.091 6.865 1.268 12.186.08 15.39-3.433 2.949-3.233 3.405-7.745 2.549-10.782-.807-2.864-4.416-7.199-8.839-9.208-2.733-1.24-5.387-1.468-7.916-.71a107 107 0 0 1-1.531 7.421c2.514-1.242 5.674-.384 7.566 1.208 2.122 1.788 1.501 3.585 1.26 4.093-.397.84-1.269 1.734-3.178 1.734"
  />
  <path
    fill="#F295FF"
    d="M331.326 396.163c4.699 4.801 12.43 9.733 24.264 9.486 1.611-.032 3.487-2.613 3.649-5.02.159-2.369-1.311-2.906-2.609-3.108-1.178-.184-10.195-1.697-14.269-5.407-2.907 2.281-7.709 3.468-11.035 4.049"
  />
  <path fill="#F295FF" d="m335.305 210.767-.026-.024.041.064z" />
  <path
    fill="#F295FF"
    d="M230.868 464.453c-.547-4.036-1.883-13.703-2.725-19.835a1.88 1.88 0 0 0-.545-1.116c-1.116-1.064-2.905-1.351-6.51-1.844-1.623-.222-3.642-.498-6.02-.939-27.201-5.043-38.108-10.536-42.064-13.19l13.917 65.918a9.5 9.5 0 0 1-.673 5.993c-2.259 4.888-7.528 17.639-7.673 30.431-.016 1.398.634 2.716 1.809 3.608.869.66 1.964.953 3.054.953h6.663c-.905-7.309-.183-16.384 5.259-21.297 1.27-1.09 3.171.368 2.496 1.872-2.43 6.191-3.054 12.852-2.552 19.425h35.545a7 7 0 0 1-.338-2.356l-.071-1.82a106.7 106.7 0 0 1 3.307-28.69c.291-1.407 1.112-3.456 1.482-4.773a2.3 2.3 0 0 0-.025-.821c-.052-.186-4.299-31.312-4.336-31.519"
  />
  <path
    fill="#DB00F8"
    d="M268.448 137.365c3.537-7.04 6.964-20.914 8.307-27.383L225.88 89.795q-.04.04-.088.1c-2.335 2.976-10.232 16.222-12.324 22.398-6.685 19.743-1.607 34.318 14.299 41.041 21.263 8.985 35.576-5.81 40.681-15.969m-32.73-18.551c-5.917 12.91-7.363 14.212-9.04 14.822a3.2 3.2 0 0 1-1.121.202 3.6 3.6 0 0 1-1.555-.372c-.354-.168-1.428-.678-1.892-2.057-.564-1.675-.486-3.936 5.911-16.271 2.36-4.552 4.398-8.484 7.967-6.791 3.719 1.766 1.691 6.19-.27 10.467m21.452 8.745c-5.799 12.635-7.205 13.906-8.832 14.497a3.2 3.2 0 0 1-1.103.198 3.5 3.5 0 0 1-1.522-.363c-.923-.439-1.546-1.117-1.849-2.015-.565-1.676-.481-3.798 5.784-15.909 2.445-4.73 4.973-9.619 8.508-7.942 3.537 1.679 1.34 6.466-.986 11.534"
  />
  <path
    fill="#000"
    d="M235.988 108.347c-3.569-1.693-5.607 2.239-7.967 6.791-6.397 12.335-6.475 14.596-5.911 16.271.464 1.379 1.538 1.889 1.892 2.057a3.6 3.6 0 0 0 1.555.372q.567 0 1.121-.202c1.677-.61 3.123-1.912 9.04-14.822 1.961-4.277 3.989-8.701.27-10.467"
  />
  <path
    fill="#000"
    d="M258.156 116.025c-3.535-1.677-6.063 3.212-8.508 7.942-6.265 12.111-6.349 14.233-5.784 15.909.303.898.926 1.576 1.849 2.015q.766.363 1.522.363.558 0 1.103-.198c1.627-.591 3.033-1.862 8.832-14.497 2.326-5.068 4.523-9.855.986-11.534"
  />
  <path
    fill="#000"
    d="m248.683 63.92 1.008.48c.177.084.525.07.784.092 2.037-.07 4.044.304 5.997.87a2.165 2.165 0 0 0 1.222-4.142c-2.919-1.013-6.811-1.355-9.288.926-.553.5-.407 1.465.277 1.774"
  />
  <path
    fill="#000"
    d="M284.707 66.805c.751.547 1.487 1.11 2.155 1.72 1.009.748 2.197 2.042 3.639 1.572.936-.342 1.347-.952 1.427-1.653.136-1.19-.686-2.647-1.547-3.519a10.42 10.42 0 0 0-7.69-3.21c-1.49-.009-2.201 2.068-.973 2.96.965.71 1.992 1.405 2.989 2.13"
  />
  <path
    fill="#EE6DBB"
    d="m473.894 163.048-32.992-15.095a8.3 8.3 0 0 0-3.448-.765c-2.641 0-5.063 1.332-6.219 3.679l-34.417 69.95c-.427 4.413-3.46 9.024-6.317 12.84l-1.688 3.43c-1.021 2.075-1.149 4.48-.361 6.77.89 2.59 2.885 4.794 5.472 6.046l32.41 15.688c4.007 1.94 8.708.575 10.478-3.043l42.389-86.679c1.025-2.095 1.135-4.517.312-6.82-.932-2.606-2.981-4.794-5.619-6.001m-5.906 10.36-39.732 81.004a6.56 6.56 0 0 1-5.887 3.662 6.5 6.5 0 0 1-2.872-.668l-23.932-11.739a6.5 6.5 0 0 1-3.31-3.759 6.5 6.5 0 0 1 .316-5l39.732-81.003a6.5 6.5 0 0 1 3.759-3.311 6.5 6.5 0 0 1 5 .317l23.932 11.738a6.554 6.554 0 0 1 2.994 8.759"
  />
  <path
    fill="#EE6DBB"
    d="M342.157 143.825c-.381-4.777.179-10.794-2.918-14.358-1.682-1.903-5.046-2.949-7.871-3.418-1.615-.317-3.367-.363-4.919.182h-.002c.153 3.657.118 7.331-.19 11a64 64 0 0 1-.493 4.688c3.57.258 7.357-1.33 10.595-2.652 1.283-.732 2.805.66 2.159 1.985-.566 1.104-1.383 2.037-2.363 2.816.68 6.322.565 13.379 1.043 19.535.152 2.03 1.398 5.966 3.598 3.455 1.068-1.734 1.322-4.637 1.502-6.852.182-2.655.189-5.389.15-8.125a256 256 0 0 0-.291-8.256"
  />
  <path
    fill="#000"
    d="M290.768 164.45c4.765-1.818 8.666-5.731 10.931-12.067 1.198-3.241 1.92-6.581 2.357-9.962.4-3.096.564-6.227.613-9.35-.01-.362.033-.587.005-1.002.082-2.048-1.811-3.908-3.949-3.166-.494.141-1.066.522-1.353 1.024-1.484 2.312-3.517 4.478-5.725 6.453-8.954 7.738-21.266 14.728-33.822 18.528 5.371-3.789 10.006-9.161 13.091-15.298 3.793-7.549 7.389-22.098 8.76-28.736.46-2.226-.493-4.336-2.371-5.251a2 2 0 0 0-.173-.076l-51.443-20.414c-2.002-.896-4.335-.233-5.831 1.676-2.844 3.624-10.88 17.25-13.125 23.88-6.211 18.341-3.064 33.257 8.53 42.291-12.837-5.318-21.695-15.356-22.036-33.102-.045-.39-.065-.807-.088-1.232-.077-1.465-.169-3.051-1.276-4.168-1.984-1.773-5.06-1.486-7.047-.029a1.5 1.5 0 0 0-.585 1.111c-.054.91.747 1.609 1.63 1.554.681.032 1.28.046 1.823.144.349.053.688.15.926.242.356 3.78.261 8.168 1.111 12.181.11.633.24 1.249.377 1.86 4.95 22.116 27.49 30.139 48.091 31.355 7.999.096 15.942-1.468 23.577-4.094a60 60 0 0 0 5.361 2.665 33 33 0 0 0 3.1 1.504c6.542 2.901 13.104 3.554 18.541 1.479m-63.001-11.116c-15.906-6.723-20.984-21.298-14.299-41.041 2.092-6.176 9.989-19.422 12.324-22.398q.048-.06.088-.1l50.875 20.187c-1.343 6.469-4.77 20.343-8.307 27.383-5.105 10.159-19.418 24.954-40.681 15.969m48.316 6.416c4.697-2.654 13.565-7.135 20.562-7.564-1.417 2.69-4.247 6.747-8.995 8.429-4.017 1.424-8.565.282-11.567-.865"
  />
  <path
    fill="#DB00F8"
    d="M296.645 152.186c-6.998.429-15.865 4.91-20.562 7.564 3.002 1.147 7.55 2.289 11.567.865 4.748-1.682 7.578-5.739 8.995-8.429"
  />
  <path
    fill="#000"
    d="M388.035 177.325a2.5 2.5 0 0 0 3.449-.779l11.697-18.517a2.501 2.501 0 0 0-4.228-2.67l-11.697 18.518a2.5 2.5 0 0 0 .779 3.448"
  />
  <path
    fill="#000"
    d="M382.506 189.118a3.53 3.53 0 0 0 4-2.971l.001-.004a3.53 3.53 0 0 0-2.975-4 3.535 3.535 0 0 0-4.001 2.974 3.53 3.53 0 0 0 2.975 4.001"
  />
  <path
    fill="#000"
    d="M372.198 169.722a2.5 2.5 0 0 0 3.235-1.426l7.922-20.419a2.5 2.5 0 1 0-4.661-1.809l-7.922 20.419a2.5 2.5 0 0 0 1.426 3.235"
  />
  <path
    fill="#000"
    d="M367.363 174.018a3.4 3.4 0 0 0-2.36 1.111 3.4 3.4 0 0 0-.884 2.454 3.414 3.414 0 0 0 3.566 3.245 3.413 3.413 0 0 0 3.244-3.566 3.4 3.4 0 0 0-1.112-2.36 3.4 3.4 0 0 0-2.454-.884"
  />
  <path
    fill="#F295FF"
    d="M449.735 197.659c-8.703-10.406-19.632-11.771-27.787-10.856l-2.35 4.793c1.581-.234 3.244.084 4.687.858a1.309 1.309 0 0 1-1.048 2.387c-1.32-.541-2.9-.788-4.314-1.032l-.381-.06-6.982 14.233c.242.059.479.152.703.295l19.085 11.072q.05.029.098.062c.875.603 1.215 1.715.867 2.835-.107.341-2.631 8.393-5.06 12.384-2.975 4.89-6.394 7.801-10.16 8.653q-1.154.26-2.335.261c-2.455 0-4.989-.846-7.561-2.528-3.938-2.576-6.212-6.087-6.79-10.294l-3.966 8.085a2.22 2.22 0 0 0-.108 1.707 2.22 2.22 0 0 0 1.13 1.283l23.933 11.739a2.237 2.237 0 0 0 2.99-1.023l26.317-53.653q-.48-.616-.968-1.201m-27.046 7.407q-1.151.588-2.185.588-.672 0-1.288-.249c-1.51-.612-2.056-2.108-2.113-2.276a1.187 1.187 0 0 1 2.242-.776c.013.032.265.659.774.857.37.145.872.059 1.49-.257a1.187 1.187 0 0 1 1.08 2.113m10.67 3.376c-.765.392-1.496.588-2.185.588q-.673 0-1.288-.249c-1.51-.613-2.055-2.108-2.113-2.276a1.187 1.187 0 0 1 2.243-.776c.013.032.265.658.773.857.37.144.873.058 1.49-.257a1.187 1.187 0 0 1 1.08 2.113m10.523-4.994c-1.557.033-1.406-2.019-2.201-2.917-.425-.679-1.137-1.29-1.739-1.767-.824-.66-.089-2.014.902-1.701 2.258.661 4.052 2.715 4.21 5.06a1.25 1.25 0 0 1-1.172 1.325"
  />
  <path
    fill="#000"
    d="M421.609 202.953c-.618.316-1.12.402-1.49.257-.509-.198-.761-.825-.774-.857a1.185 1.185 0 0 0-2.242.776c.057.168.603 1.664 2.113 2.276q.615.249 1.288.249 1.036 0 2.185-.588a1.186 1.186 0 1 0-1.08-2.113"
  />
  <path
    fill="#000"
    d="M432.279 206.329c-.617.316-1.12.402-1.49.257-.508-.199-.76-.825-.773-.857a1.186 1.186 0 0 0-2.242.776c.057.168.603 1.664 2.112 2.276q.616.249 1.289.249 1.034 0 2.185-.588a1.186 1.186 0 0 0-1.081-2.113"
  />
  <path
    fill="#DB00F8"
    d="M408.839 238.505c2.692 1.76 5.248 2.382 7.593 1.852 2.943-.666 5.722-3.117 8.259-7.286 1.728-2.84 3.747-8.53 4.661-11.412l-18.207-10.562c-.764.918-2.238 2.955-3.557 4.984l-3.415 6.963c-1.627 5.231-1.6 11.363 4.666 15.461m9.102-12.573c1.185-1.857 1.873-2.544 2.732-2.723.481-.1.97-.005 1.375.268 1.627 1.097.452 3.201-.405 4.738-2.151 3.855-2.867 4.62-3.806 4.844a1.8 1.8 0 0 1-.423.051q-.546 0-1.056-.343c-1.844-1.245-.6-3.409 1.583-6.835m-7.354-4.926c.925-1.444 1.519-2.162 2.396-2.343.352-.072.892-.078 1.467.312 1.696 1.142.617 3.079-.096 4.361-2.167 3.891-2.899 4.611-3.814 4.829a1.8 1.8 0 0 1-.428.052q-.557 0-1.077-.351c-1.851-1.25-.648-3.426 1.552-6.86"
  />
  <path
    fill="#000"
    d="M409.035 227.866q.521.351 1.077.351.212 0 .428-.051c.915-.219 1.647-.938 3.814-4.83.713-1.282 1.792-3.219.096-4.361-.575-.39-1.115-.384-1.467-.312-.877.181-1.471.9-2.396 2.343-2.2 3.434-3.403 5.61-1.552 6.86"
  />
  <path
    fill="#000"
    d="M416.358 232.767q.51.342 1.056.343.21 0 .423-.051c.939-.223 1.655-.989 3.806-4.844.858-1.537 2.032-3.641.405-4.738a1.8 1.8 0 0 0-1.375-.268c-.858.179-1.547.866-2.731 2.723-2.183 3.426-3.428 5.59-1.584 6.835"
  />
  <path
    fill="#000"
    d="M440.845 197.063c-.992-.313-1.727 1.042-.903 1.701.602.477 1.315 1.088 1.739 1.767.795.898.644 2.95 2.201 2.917a1.25 1.25 0 0 0 1.172-1.325c-.158-2.345-1.952-4.399-4.209-5.06"
  />
  <path
    fill="#000"
    d="m464.994 164.649-23.932-11.738a6.5 6.5 0 0 0-5-.317 6.5 6.5 0 0 0-3.759 3.311l-39.732 81.003a6.5 6.5 0 0 0-.316 5 6.5 6.5 0 0 0 3.31 3.759l23.932 11.739a6.5 6.5 0 0 0 2.872.668 6.56 6.56 0 0 0 5.887-3.662l39.732-81.004a6.554 6.554 0 0 0-2.994-8.759m-43.598 88.887-23.933-11.739a2.22 2.22 0 0 1-1.13-1.283 2.22 2.22 0 0 1 .108-1.707l3.966-8.085c.578 4.207 2.852 7.718 6.79 10.294 2.573 1.682 5.106 2.528 7.561 2.528a10.6 10.6 0 0 0 2.335-.261c3.766-.852 7.185-3.763 10.161-8.653 2.428-3.991 4.952-12.043 5.059-12.384.348-1.119.008-2.232-.867-2.835l-.098-.062-19.085-11.072a2.3 2.3 0 0 0-.703-.294l6.982-14.234.381.06c1.414.244 2.994.491 4.314 1.032a1.309 1.309 0 0 0 1.048-2.387c-1.443-.774-3.106-1.092-4.687-.858l2.351-4.793c8.154-.915 19.083.45 27.786 10.857q.488.584.968 1.2l-26.317 53.653a2.237 2.237 0 0 1-2.99 1.023m-13.808-37.455c1.319-2.029 2.793-4.066 3.557-4.984l18.207 10.562c-.914 2.882-2.933 8.572-4.661 11.412-2.537 4.169-5.316 6.62-8.259 7.286-2.345.53-4.901-.092-7.593-1.852-6.267-4.098-6.293-10.23-4.666-15.462z"
  />
  <path
    fill="#F295FF"
    d="M392.009 253.859c-3.633-1.758-6.445-4.883-7.714-8.572a13.4 13.4 0 0 1-.537-6.726 3 3 0 0 1-.398-.255 2.8 2.8 0 0 1-.463-3.922c2.624-3.422 5.197-6.947 6.973-10.491.859-1.729 1.412-3.611 1.241-4.679-.221-1.396-1.584-2.017-2.758-2.868-1.792-1.1-3.719-1.99-5.606-2.255-.262-.038-.4.02-.741.197-2.165 1.456-3.499 4.217-4.884 6.691-.94 1.816-3.376 6.296-3.52 6.436-1.357 2.036-3.024 4.028-5.271 5.793-5.207 4.089-10.465 5.899-15.218 5.229-3.63-.511-6.793-2.506-9.148-5.768-3.682-5.1-7.362-10.743-10.921-16.201-6.749-10.352-13.661-20.948-20.581-27.777-.734-.505-1.737-1.247-3.183-2.342-6.657-3.564-13.738-1.755-15.584-1.182-.287.089-6.926 2.441-10.208 3.172-2.131.399-4.295.569-6.461.314a1.187 1.187 0 0 1-.418-2.229c.411-.203.828-.389 1.248-.57 3.344-1.437 6.914-2.223 10.299-3.535 25.891-9.649 35.842-34.454 32.961-60.641-.478-3.13-.41-6.14.105-9.368.138-1.067 1.718-1.317 2.175-.343 1.65 2.83 2.348 5.841 2.696 8.959 2.774-.61 5.645-.207 8.385.491 12.085 2.831 12.358 11.805 12.557 22.191.201 5.06.365 10.085.119 15.172 5.985-4.787 10.417-11.347 12.985-19.354 4.617-14.396 14.205-21.633 20.55-26.422 1.971-1.487 4.403-3.323 4.793-4.187-.08-.117-.274-.352-.713-.697-25.915-20.344-53.866-31.624-66.233-35.995.554 1.408.526 2.7-1.009 3.161-1.461.067-2.78-1.114-3.702-1.933-2.055-2.28-4.054-4.65-6.342-6.712-7.693-7.53-17.195-12.656-27.393-15.484-.845.932-1.679 1.827-2.413 2.543-1.559 1.527-4.124-.237-3.29-2.225a25 25 0 0 1 .755-1.497 71 71 0 0 0-2.551-.465 6.4 6.4 0 0 1-.088 1.33c-.137 1.634-2.386 2.257-3.358.97-.726-.849-1.23-1.86-1.528-2.935a74.4 74.4 0 0 0-16.802.326 93.3 93.3 0 0 0-18.138 4.096c-1.963.629-3.855 1.528-5.946 1.69-.854.136-1.538-.372-1.833-1.046-7.462-.532-17.732-1.136-31.349-1.69a7.9 7.9 0 0 1 1.728 2.006c.971 1.067 1.736 2.25 2.239 3.127.82 1.431 2.656 5.073 2.004 7.97l-2.566 10.81c1.505-1.211 3.098-2.292 4.937-2.969a24 24 0 0 1 3.425-1 1.167 1.167 0 0 1 1.38.905c.08.384-.037.749-.277 1.024-2.731 3.547-6.393 5.856-9.659 8.796a61.7 61.7 0 0 0-8.498 9.664c-9.996 14.047-14.21 32.095-11.58 49.129a63.4 63.4 0 0 0 4.381 15.521c.91 2.523 2.557 4.656 3.278 7.192.185.652.325 1.324.357 2.044.048.974-1.097 1.659-1.932 1.158-1.415-.833-3.98-3.859-4.189-4.058-.589-.561-1.18-.903-1.744-1.108-1.855-.674-3.398.209-3.481.258l-1.545.919c-.303.225-1.337.945-1.559 1.085a7.8 7.8 0 0 1-5.927 1.023l-3.687-.831a7.8 7.8 0 0 1-4.913-3.468 7.8 7.8 0 0 1-1.023-5.927l2.28-10.109c-5.408-3.48-9.836-7.377-11.192-11.331-.844-2.461-.56-4.897.822-7.045 2.601-4.044 5.224-5.49 7.538-6.767 2.552-1.407 4.963-2.736 7.984-8.054 1.347-2.371 3.705-8.467 5.84-15.537l4.193-18.592c-4.041 1.351-7.396 4.351-11.414 5.875a1.448 1.448 0 0 1-1.664-2.2c1.541-2.136 3.648-3.574 5.717-5.14 1.965-1.395 4.016-2.797 6.417-3.507a5 5 0 0 1 1.351-.186c.026-2.868-.346-5.212-1.273-6.69-.623-.994-1.415-1.358-2.736-1.279-4.739.31-10.418 4.599-15.428 8.382-3.458 2.611-6.724 5.077-9.706 6.321-19.61 8.18-36.145 23.094-41.144 37.112-10.551 29.589 17.708 58.428 35.512 73.003 7.474 4.42 12.88 6.051 13.842 5.456l.124.173a186 186 0 0 1 4.993-5.91c2.071-2.348 4.179-4.662 6.371-6.898 4.138-4.004 8.312-7.984 13.488-10.699a1.138 1.138 0 0 1 1.437 1.695c-.128.168-.264.327-.394.493-4.528 5.814-9.931 10.585-14.798 16.057-5.045 5.484-9.71 11.312-14.041 17.376-33.453 47.22-47.327 115.985-19.527 168.873 7.256 12.845 16.64 24.698 27.949 34.168 11.341 9.55 24.899 16.063 39.227 19.689l3.82.894a113.4 113.4 0 0 0 18.096 2.402c2.948.175 5.9.274 8.858.357q.112-.474.308-.902c.431-1.152 2.085-1.389 2.812-.393 1.644 1.971 1.685 5.331 2.091 7.686l1.114 7.823c1.397 9.808 5.22 36.685 6.674 46.901.336 1.577.059 3.23-.557 4.703-2.417 7.541-3.471 15.623-3.889 23.525-.121 2.885-.206 7 .151 9.613.277.922 1.267 1.599 2.259 1.746l8.274-.102c-.762-5.462-.398-11.043 1.476-16.285.7-1.715 3.73-7.601 5.998-5.233.411.486.466 1.125.245 1.676-2.474 6.303-3.074 13.092-2.52 19.78 16.412-.192 32.487-.35 46.972-.438.736-.546 1.205-1.391.991-2.269.025-.048-3.332-57.422-3.314-57.474l-2.593-46.667c-.263-1.961-4.293-1.402-4.293-1.402l.092-.111c-.388.079-.78.148-1.184.193a1.152 1.152 0 0 1-1.036-1.851c1.517-2.112 3.333-3.528 5.173-4.934 3.768-2.665 7.269-5.693 10.402-9.084 7.878-8.526 13.657-18.922 17.793-29.74 17.024-45.867-2.982-93.846-16.551-138.06-1.897-6.682-4.902-14.455-6.047-21.341-.044-.263-.607-3.312-.646-3.576-.343-2.404-.38-3.379.352-4.111.413-.413.771-.553 1.354-.525.414.019.85.536 1.006.891.67 1.535 1.253 3.094 1.803 4.662 2.604 7.417 4.109 15.138 6.646 22.617 3.812 12.126 7.961 24.159 11.723 36.304 9.682 6.918 20.382 9.238 31.977 6.905 18.714-3.77 32.947-11.607 42.025-17.174 5.177-3.174 9.976-4.363 14.218-5.399zM282.691 61.716a10.42 10.42 0 0 1 7.69 3.21c.861.872 1.682 2.328 1.547 3.518-.08.701-.492 1.31-1.427 1.653-1.442.47-2.63-.824-3.639-1.572-.668-.61-1.404-1.173-2.155-1.72-.997-.725-2.024-1.42-2.989-2.13-1.228-.892-.517-2.969.973-2.96m-12.808 27.162a2 2 0 0 1 2.562-1.198c1.644.597 7.746 3.084 8.145 3.376l.012.01c.271.169.494.39.653.65.95 1.204 1.04 2.933.092 4.228a3.5 3.5 0 0 1-2.828 1.431c-.717 0-1.44-.22-2.061-.674a3.5 3.5 0 0 1-1.333-3.64c-1.505-.627-3.111-1.282-4.044-1.621a2 2 0 0 1-1.198-2.562m-21.477-26.732c2.477-2.282 6.369-1.939 9.288-.926a2.165 2.165 0 0 1-1.222 4.142c-1.953-.566-3.96-.94-5.997-.87-.259-.022-.607-.008-.784-.092l-1.008-.48c-.685-.309-.83-1.273-.277-1.774m-2.21 16.608a2 2 0 0 1 2.562-1.198c1.644.596 7.74 3.079 8.145 3.376l.011.01c.272.168.495.39.654.651.95 1.203 1.04 2.932.092 4.227a3.5 3.5 0 0 1-2.828 1.431c-.717 0-1.44-.22-2.061-.674a3.48 3.48 0 0 1-1.391-2.287 3.5 3.5 0 0 1 .056-1.355c-1.504-.626-3.11-1.28-4.042-1.619a2 2 0 0 1-1.198-2.562m22.931 82.713a61 61 0 0 1-5.36-2.665c-7.636 2.626-15.578 4.19-23.578 4.094-20.601-1.216-43.14-9.239-48.091-31.355a38 38 0 0 1-.376-1.86c-.851-4.013-.756-8.401-1.112-12.181a4.6 4.6 0 0 0-.926-.242c-.543-.098-1.142-.112-1.823-.144-.882.055-1.684-.644-1.629-1.554.021-.454.25-.855.585-1.111 1.987-1.457 5.062-1.744 7.047.029 1.107 1.117 1.199 2.703 1.275 4.168.023.425.044.842.088 1.232.341 17.746 9.199 27.784 22.036 33.102-11.594-9.034-14.741-23.95-8.53-42.291 2.245-6.63 10.282-20.256 13.125-23.88 1.497-1.909 3.83-2.572 5.831-1.676l51.443 20.414q.089.035.173.076c1.878.915 2.831 3.025 2.371 5.251-1.371 6.638-4.967 21.187-8.76 28.736-3.085 6.137-7.72 11.509-13.091 15.298 12.556-3.8 24.868-10.79 33.822-18.528 2.208-1.975 4.241-4.141 5.726-6.453.286-.502.858-.883 1.352-1.024 2.138-.742 4.031 1.118 3.949 3.166.028.415-.015.64-.005 1.002-.049 3.123-.213 6.254-.613 9.35-.437 3.381-1.158 6.721-2.357 9.962-2.265 6.336-6.166 10.249-10.931 12.067-5.437 2.075-11.998 1.422-18.54-1.478a33 33 0 0 1-3.101-1.505"
  />
  <path
    fill="#000"
    d="M483.651 167.569c-1.329-3.716-4.219-6.821-7.929-8.518l-32.992-15.095c-5.948-2.722-12.729-.537-15.438 4.971l-31.751 64.531c-2.878-1.808-5.884-3.352-8.573-4.053a17.5 17.5 0 0 0-3.2-.823c-6.31-.692-9.56 6.192-11.929 11.872-1.628 3.163-3.437 6.341-6.595 8.821-4.053 3.183-8.108 4.68-11.434 4.211-2.281-.321-4.23-1.581-5.791-3.744-3.613-5.003-7.259-10.596-10.786-16.005l-1.913-2.93-.041-.064c-9.671-14.787-18.939-28.286-29.342-32.869l-.165-.07c2.077-1.656 5.443-4.952 5.443-4.952s.672-.851 2.304-.98a46 46 0 0 0 7.759.652c4.592 0 9.249-.67 13.707-1.973.258.283.533.555.845.798 1.754 1.434 4.46 1.561 6.425.545 2.55-1.378 3.622-3.846 4.17-6.463 8.727-5.502 15.072-13.868 18.475-24.477 4.133-12.888 12.96-19.55 18.802-23.959 3.938-2.972 6.783-5.119 6.812-8.171.016-1.679-.878-3.239-2.657-4.636-35.189-27.625-74.082-38.91-74.47-39.02-.058-.018-.117-.02-.175-.033-8.28-8.787-18.289-14.887-29.222-18.305 1.658-1.819 3.741-4.001 5.232-5.81.763-.811-.039-2.195-1.131-1.915-3.79 1.026-7.102 3.303-9.704 6.231a72 72 0 0 0-5.605-1.031c.356-1.182.974-2.322 1.528-3.466.125-.286.225-.592.145-.916-.655-2.077-3.673-.135-4.715.827-.915.824-1.568 1.872-1.968 3.017-5.762-.428-11.654-.208-17.578.673a98 98 0 0 0-18.984 4.603q-.393.146-.788.288c-12.417-.999-35.851-2.411-75.366-3.225-2.047-.044-4.321.134-5.633 1.766-1.4 1.743-.884 3.878-.287 6.35.825 3.41 2.033 8.426.052 15.834-2.85 2.146-5.522 4.092-7.686 4.995-20.831 8.689-38.485 24.782-43.929 40.046-6.797 19.063-.067 40.517 19.462 62.043 11.646 12.837 24.377 21.997 29.276 25.321-.528.717-1.076 1.42-1.595 2.144-34.702 48.924-48.914 119.476-19.923 174.264 7.669 13.344 17.425 25.619 29.313 35.486 4.028 3.334 8.358 6.337 12.908 9.009l15.015 71.117a4.54 4.54 0 0 1-.32 2.862c-2.394 5.181-7.978 18.714-8.134 32.472a9.3 9.3 0 0 0 1.839 5.66l-2.21.031c-3.952.047-7.904.173-11.851.963a1.114 1.114 0 0 0 .016 2.187c3.958.763 7.911.863 11.863.883 47.955.42 106.121.737 154.129.69 6.916-.124 16.99.528 23.711-.95 2.566-.524 2.474-4.183 0-4.693-6.741-1.44-16.871-.71-23.716-.793l-22.463.176c.221-.918.28-1.879.154-2.809l.02.208-3.41-57.417-3.236-52.614c.947-.755 1.877-1.535 2.809-2.294 8.761-7.525 15.48-17.113 20.537-27.465 3.117 5.499 12.857 19.08 33.008 19.08q.455 0 .917-.01c4.652-.093 8.232-5.178 8.536-9.683.296-4.4-2.383-7.691-6.827-8.384-4.359-.681-8.358-2.057-10.496-3.28a16 16 0 0 0 1.79-1.676c3.73-4.089 5.169-10.176 3.667-15.507-1.147-4.071-5.495-9.638-11.584-12.404-3.078-1.397-6.196-1.86-9.209-1.429 1.365-11.15 1.13-22.515-.298-33.601-1.724-13.676-4.959-26.92-8.796-39.991 6.731 3.702 13.896 5.603 21.387 5.603 3.088 0 6.232-.319 9.421-.962 19.494-3.927 34.249-12.046 43.651-17.812 4.559-2.795 8.806-3.832 12.913-4.834 1.83-.447 3.682-.901 5.551-1.507l9.021 4.366a13.1 13.1 0 0 0 5.7 1.319c4.461-.001 8.657-2.331 10.641-6.387l42.39-86.68c1.549-3.169 1.727-6.801.501-10.23m-160.72-.121c-3.473.039-5.277-2.761-5.277-2.761s5.602-10.875 7.184-17.803c2.215.237 4.6.056 6.794-.574.342 4.299.428 9.723.625 13.502.069 1.68.081 3.953.553 6.14a44.8 44.8 0 0 1-9.879 1.496m19.367-7.242c-.18 2.215-.434 5.118-1.502 6.852-2.2 2.511-3.446-1.425-3.598-3.455-.478-6.156-.363-13.213-1.043-19.535.98-.779 1.797-1.712 2.363-2.816.646-1.325-.876-2.717-2.159-1.985-3.239 1.322-7.025 2.91-10.595 2.652q.331-2.314.493-4.688c.308-3.669.343-7.343.19-11h.001c1.553-.545 3.305-.499 4.92-.182 2.825.469 6.188 1.515 7.871 3.418 3.097 3.564 2.537 9.581 2.918 14.358.138 2.77.243 5.513.291 8.256.039 2.736.032 5.47-.15 8.125M183.34 55.062a2.84 2.84 0 0 1 2.156-.372l3.686.83a2.86 2.86 0 0 1 2.159 3.418l-6.823 30.252c-11.294 15.583-15.907 35.915-12.361 54.805l-3.32 14.719a2.86 2.86 0 0 1-3.416 2.159l-3.686-.832a2.86 2.86 0 0 1-2.159-3.416l22.504-99.776a2.84 2.84 0 0 1 1.26-1.787m-25.186 85.137c-3.934-2.665-6.818-5.342-7.639-7.737-.348-1.018-.257-1.856.298-2.717 1.917-2.982 3.607-3.914 5.748-5.094 1.767-.974 3.678-2.035 5.74-4.182l.271.143zm14.056-62.317a2.4 2.4 0 0 1-.541-.183c.187.08.366.131.543.173zm-17.256-26.777c8.986.185 17.147.403 24.54.64a7.8 7.8 0 0 0-2.292 4.004l-1.744 7.731c-1.614-2.494-4.107-3.713-7.223-3.507-4.446.29-8.931 2.802-13.16 5.743.608-5.677-.393-9.836-1.078-12.67-.154-.635-.333-1.376-.421-1.9.296-.031.735-.053 1.378-.041m80.275 445.688c-.37 1.318-1.191 3.366-1.482 4.773a106.7 106.7 0 0 0-3.307 28.69l.071 1.82a7 7 0 0 0 .338 2.356h-35.544c-.503-6.573.121-13.234 2.551-19.425.675-1.504-1.226-2.962-2.495-1.872-5.443 4.913-6.165 13.988-5.26 21.297h-6.663c-1.09 0-2.185-.293-3.054-.953-1.174-.892-1.824-2.21-1.809-3.608.145-12.792 5.414-25.542 7.673-30.431a9.5 9.5 0 0 0 .673-5.993l-13.917-65.918c3.956 2.654 14.863 8.147 42.064 13.19 2.378.441 4.397.717 6.02.939 3.605.493 5.394.78 6.51 1.844.309.295.487.693.545 1.116.842 6.132 2.178 15.799 2.725 19.836.037.206 4.284 31.332 4.336 31.518q.087.407.025.821m121.401-99.272c1.298.203 2.769.739 2.609 3.108-.162 2.408-2.038 4.988-3.649 5.02-11.834.247-19.565-4.685-24.264-9.486 3.327-.581 8.128-1.768 11.035-4.048 4.074 3.71 13.091 5.222 14.269 5.406m-19.801-25.335c-1.891-1.593-5.052-2.45-7.566-1.209q.897-3.683 1.531-7.421c2.529-.757 5.184-.53 7.916.71 4.423 2.009 8.032 6.344 8.839 9.208.856 3.037.4 7.549-2.548 10.782-3.205 3.514-8.526 4.702-15.391 3.433a67 67 0 0 1-4.914-1.091 2.5 2.5 0 0 0-.487-.376 117 117 0 0 0 1.497-3.668 97 97 0 0 0 2.034-6.014c1.72.483 3.615.932 5.725 1.326a8 8 0 0 0 1.446.146c1.909 0 2.781-.894 3.179-1.734.24-.508.861-2.305-1.261-4.092m57.492-104.926c-9.078 5.567-23.312 13.403-42.026 17.173-11.594 2.334-22.294.013-31.977-6.904-3.761-12.145-7.91-24.178-11.723-36.305-2.536-7.479-4.041-15.2-6.645-22.617-.55-1.568-1.164-3.588-1.804-4.662-.142-.239-.592-.871-1.005-.891-.584-.027-1.116.254-1.354.525-.539.612-.796 1.42-.353 4.111.044.263.603 3.313.647 3.576 1.145 6.887 4.15 14.659 6.046 21.342 13.57 44.213 33.576 92.192 16.552 138.059-4.137 10.819-9.916 21.214-17.794 29.741-3.132 3.39-6.634 6.419-10.401 9.084-1.84 1.405-3.656 2.821-5.173 4.933a1.15 1.15 0 0 0 1.036 1.851c.404-.045.796-.113 1.184-.192l-.092.11s4.03-.559 4.293 1.402l2.592 46.667c-.017.052 3.34 57.426 3.314 57.474.214.879-.254 1.724-.991 2.269-14.484.088-30.559.246-46.971.438-.554-6.688.046-13.477 2.52-19.779.22-.552.166-1.191-.245-1.677-2.268-2.368-5.298 3.519-5.998 5.233-1.874 5.242-2.238 10.824-1.476 16.285l-8.275.102c-.991-.147-1.981-.824-2.258-1.746-.357-2.612-.272-6.727-.152-9.613.418-7.902 1.473-15.983 3.89-23.524.615-1.474.893-3.127.557-4.704-1.454-10.216-5.278-37.093-6.675-46.901l-1.113-7.823c-.407-2.355-.447-5.715-2.092-7.686-.726-.995-2.38-.759-2.811.393a5 5 0 0 0-.308.902c-2.958-.082-5.91-.181-8.858-.357a113 113 0 0 1-18.096-2.402l-3.821-.893c-14.327-3.627-27.885-10.14-39.226-19.69-11.309-9.469-20.694-21.323-27.95-34.168-27.799-52.888-13.925-121.653 19.528-168.873 4.33-6.064 8.996-11.892 14.041-17.375 4.867-5.472 10.27-10.243 14.798-16.057.129-.167.266-.325.394-.493a1.139 1.139 0 0 0-1.437-1.696c-5.176 2.715-9.35 6.695-13.488 10.699-2.192 2.236-4.301 4.551-6.372 6.899a185 185 0 0 0-4.993 5.91l-.123-.174c-.962.595-6.368-1.036-13.842-5.456-17.805-14.575-46.063-43.414-35.512-73.003 4.999-14.018 21.533-28.932 41.144-37.112 2.982-1.243 6.248-3.71 9.706-6.321 5.01-3.783 10.688-8.071 15.428-8.381 1.32-.08 2.113.284 2.736 1.278.926 1.479 1.299 3.823 1.273 6.69a5 5 0 0 0-1.351.187c-2.401.71-4.453 2.111-6.417 3.506-2.069 1.566-4.176 3.005-5.717 5.14-.25.36-.34.835-.194 1.283a1.45 1.45 0 0 0 1.858.917c4.017-1.523 7.373-4.523 11.414-5.875l-4.194 18.593c-2.135 7.069-4.492 13.165-5.839 15.536-3.021 5.318-5.432 6.647-7.984 8.055-2.314 1.276-4.938 2.722-7.539 6.767-1.381 2.147-1.665 4.583-.821 7.044 1.355 3.954 5.784 7.851 11.192 11.331l-2.28 10.11a7.8 7.8 0 0 0 1.023 5.926 7.8 7.8 0 0 0 4.913 3.468l3.687.832a7.8 7.8 0 0 0 5.926-1.023c.223-.141 1.257-.86 1.56-1.086l1.545-.918c.083-.05 1.626-.933 3.481-.258.563.204 1.154.547 1.744 1.107.209.199 2.773 3.225 4.189 4.059.835.5 1.979-.185 1.931-1.159-.031-.72-.171-1.392-.356-2.044-.721-2.536-2.368-4.668-3.278-7.192a63.4 63.4 0 0 1-4.381-15.52c-2.63-17.035 1.583-35.083 11.58-49.13a61.7 61.7 0 0 1 8.498-9.664c3.266-2.94 6.928-5.25 9.659-8.795.239-.276.356-.641.277-1.025a1.167 1.167 0 0 0-1.38-.905 23.6 23.6 0 0 0-3.425 1c-1.839.678-3.432 1.758-4.937 2.969l2.565-10.81c.653-2.897-1.183-6.538-2.003-7.97-.503-.877-1.269-2.06-2.239-3.126a7.9 7.9 0 0 0-1.728-2.006c13.617.553 23.887 1.157 31.349 1.689.295.675.979 1.182 1.832 1.046 2.092-.162 3.984-1.061 5.946-1.69a93.3 93.3 0 0 1 18.139-4.095 74.4 74.4 0 0 1 16.801-.326c.299 1.074.803 2.086 1.528 2.934.973 1.288 3.222.665 3.359-.97.081-.448.099-.89.088-1.33q1.28.21 2.551.466a25 25 0 0 0-.755 1.496c-.835 1.988 1.73 3.753 3.29 2.225.734-.716 1.568-1.61 2.413-2.543 10.198 2.828 19.7 7.955 27.393 15.484 2.288 2.063 4.286 4.432 6.342 6.713.922.818 2.241 2 3.702 1.933 1.535-.463 1.563-1.754 1.009-3.162 12.366 4.372 40.318 15.651 66.232 35.996.44.344.634.579.714.696-.39.864-2.823 2.7-4.793 4.188-6.345 4.788-15.933 12.025-20.551 26.421-2.568 8.007-6.999 14.567-12.985 19.354.247-5.087.083-10.112-.118-15.172-.199-10.386-.472-19.359-12.557-22.19-2.741-.699-5.611-1.102-8.385-.492-.349-3.118-1.046-6.128-2.696-8.959-.457-.974-2.037-.724-2.175.344-.515 3.227-.583 6.237-.105 9.368 2.881 26.187-7.07 50.991-32.962 60.641-3.384 1.312-6.954 2.097-10.299 3.535-.419.18-.836.367-1.247.57a1.187 1.187 0 0 0 .417 2.228c2.167.255 4.331.085 6.462-.313 3.281-.732 9.921-3.084 10.207-3.173 1.847-.573 8.927-2.381 15.584 1.182 1.447 1.095 2.449 1.838 3.184 2.342 6.919 6.829 13.832 17.425 20.581 27.777 3.559 5.458 7.238 11.101 10.92 16.201 2.355 3.263 5.519 5.257 9.148 5.768 4.754.671 10.012-1.139 15.219-5.229 2.247-1.764 3.914-3.757 5.271-5.793.144-.139 2.58-4.62 3.52-6.435 1.385-2.475 2.718-5.235 4.884-6.691.34-.177.479-.235.741-.197 1.886.264 3.813 1.154 5.606 2.254 1.174.851 2.537 1.472 2.758 2.868.17 1.068-.382 2.951-1.242 4.679-1.775 3.544-4.348 7.069-6.972 10.491a2.8 2.8 0 0 0 .463 3.922c.126.1.261.18.398.255a13.37 13.37 0 0 0 .537 6.726c1.269 3.689 4.081 6.814 7.714 8.573l16.529 8.001c-4.242 1.036-9.04 2.224-14.217 5.399m84.88-91.391-42.389 86.679c-1.77 3.618-6.471 4.983-10.478 3.043l-32.41-15.688c-2.586-1.252-4.582-3.456-5.472-6.046-.788-2.291-.66-4.695.361-6.77l1.688-3.43c2.857-3.816 5.89-8.427 6.317-12.84l34.417-69.95c1.156-2.348 3.578-3.68 6.219-3.68 1.137 0 2.314.247 3.448.766l32.992 15.095c2.638 1.207 4.687 3.394 5.619 6.001.823 2.303.713 4.725-.312 6.82"
  />
  <path
    fill="#F295FF"
    d="M322.931 167.448a44.8 44.8 0 0 0 9.879-1.496c-.472-2.187-.484-4.46-.553-6.139-.197-3.78-.283-9.204-.625-13.503-2.194.63-4.579.812-6.794.574-1.582 6.928-7.183 17.803-7.183 17.803s1.802 2.8 5.276 2.761"
  />
  <path
    fill="#000"
    d="m256.914 80.942-.011-.01c-.405-.297-6.501-2.78-8.145-3.376a1.999 1.999 0 1 0-1.364 3.76c.932.339 2.538.993 4.042 1.62a3.5 3.5 0 0 0-.056 1.354 3.48 3.48 0 0 0 1.391 2.287 3.48 3.48 0 0 0 2.061.674 3.5 3.5 0 0 0 2.828-1.43c.948-1.296.858-3.025-.092-4.228a2 2 0 0 0-.654-.651"
  />
  <path
    fill="#000"
    d="M281.255 91.717a2 2 0 0 0-.653-.65q-.005-.006-.012-.011c-.399-.292-6.501-2.78-8.145-3.376a1.999 1.999 0 1 0-1.364 3.76c.933.339 2.539.994 4.044 1.62a3.5 3.5 0 0 0 1.333 3.641 3.48 3.48 0 0 0 2.061.674 3.5 3.5 0 0 0 2.828-1.43c.948-1.297.858-3.025-.092-4.228"
  />
</svg>
