<svg xmlns="http://www.w3.org/2000/svg" width="279" height="394" fill="none" viewBox="0 0 279 394"><path fill="#6DB5C3" d="M195.209 133.305c.29.365.451.815.459 1.281.026 1.621.102 3.238.203 4.853.025.4.042.801.071 1.201.045.614.412 1.174.977 1.417.083.036.149.057.201.072l.02.008q.083.021.085.02s8.005-.733 12.003-1.311c-1.735-4.757-6.025-15.218-11.435-19.15-2.284-1.66-6.32-2.963-11.657-3.398a180 180 0 0 1-.536 12.086 7.4 7.4 0 0 1 3.054-.562c3.79.138 6.283 3.141 6.555 3.483"/><path fill="#6DB5C3" d="M211.325 195.413c7.793 16.826 15.6 28.022 15.754 28.241l.066.099c.22.351 5.333 8.764 1.728 23.183-1.115 4.461-2.967 7.585-4.978 9.772q-.504.545-1.016 1.017a17 17 0 0 1-2.048 1.609 16 16 0 0 1-1.962 1.118 15.5 15.5 0 0 1-2.5.949 13 13 0 0 1-1.185.276 2.5 2.5 0 0 0-1.016.433c-.37.27-.626.528-.733.753a6.5 6.5 0 0 0-.634 2.503c-.021.586.498 1.884 1.817 2.522.356.173 12.136 7.17 12.136 7.17 6.277-1.813 11.011-4.536 12.398-8.551 3.127-9.053-6.746-48.266-16.486-82.006-1.966.458-12.836 3.345-11.341 10.912"/><path fill="#F295FF" d="M71.903 176.246c3.42-3.303 6.928-6.532 10.272-9.907l6.316-28.326c-.326-.651-.884-1.468-1.842-2.426-.432-.432-4.882-3.919-7.064-5.465a185 185 0 0 1-23.029-20.962c-3.58-3.96-7.02-7.834-9.747-12.547-1.458-2.335-1.752-5.19-2.484-7.814-1.285-4.783-2.784-9.736-4.85-14.186-.36-.8-1.039-2.001-1.514-2.48-2.091-.447-4.528.369-6.849 1.321l-.367.169q.132.118.252.27c1.948 2.666 3.067 5.784 3.467 9.059.162 1.409-1.768 2.093-2.535.926-1.676-2.572-3.292-5.162-4.487-7.962a2.1 2.1 0 0 1-.144-.712l-.293.135c-5.966 3.036-11.62 6.896-16.694 11.197-1.864 1.62-3.697 3.352-5.052 5.165-.5.71-1.037 1.407-1.05 2.202-.01.593.39 1.55.988 2.5 2.675 4.009 6.424 7.886 9.52 11.75 6.622 7.979 12.663 16.467 18.102 25.285 8.047 13.098 16.674 25.845 25.51 38.432 2.478 3.71 5.334 7.14 7.315 11.146 1.986-2.35 4.074-4.61 6.259-6.77"/><path fill="#F295FF" d="M196.491 146.239c1.58 12.978 5.238 25.52 9.499 36.594 23.807-4.065 62.312-11.656 64.022-20.84 1.43-4.915 2.455-16.849.966-25.902-1.282.544-2.553 1.084-3.803 1.699-1.654.811-3.389 1.821-4.973 2.654-1.52.789-3.064-1.09-2.027-2.424 2.089-2.635 4.955-4.177 8.05-5.228.539-.151 1.219-.379 1.909-.535-.939-3.265-2.35-5.801-4.387-6.917-1.038.196-2.311.955-3.416 1.592-5.648 3.455-11.61 7.533-18.026 9.916-10.743 3.933-21.993 6.167-33.222 7.912-4.497.663-9.02 1.156-13.59 1.434z"/><path fill="#DB00F8" d="M105.051 91.164c-1.266.358-3.256 1.4-3.78 4.364-.115 5.038.306 12.899.562 17.667.92 17.155 7.44 23.91 22.453 23.296 19.232-.78 20.994-11.177 21.233-23.66.15-7.848-.232-21.265-1.193-25.573zm11.202 33.074a4 4 0 0 1-.364.019 2.82 2.82 0 0 1-1.907-.702c-1.182-1.027-1.996-2.664-2.511-15.556-.199-4.993-.344-8.6 2.928-8.933a2.92 2.92 0 0 1 2.221.657c1.179.983 1.615 2.639 2.024 7.702 1.094 13.532 1.009 16.467-2.391 16.813m16.53-2.356a4 4 0 0 1-.364.019 2.83 2.83 0 0 1-1.907-.702c-1.182-1.027-1.996-2.664-2.511-15.556-.199-4.993-.343-8.601 2.928-8.934a2.92 2.92 0 0 1 2.222.658c1.179.982 1.614 2.638 2.024 7.702 1.094 13.531 1.008 16.467-2.392 16.813"/><path fill="#4C4C4C" d="M144.72 82.985q-.119-.001-.234.01L101.195 87.3c-1.85.093-3.316 1.466-3.75 3.522-.769 3.633-.339 13.156.168 22.599 1.01 18.827 8.698 27.334 24.851 27.334q.977 0 1.994-.041c22.86-.927 25.038-14.837 25.287-27.802.129-6.808-.129-21.645-1.337-26.758-.449-1.903-1.928-3.17-3.688-3.17m.798 29.846c-.238 12.483-2.001 22.88-21.232 23.66-15.014.614-21.533-6.141-22.453-23.296-.256-4.768-.677-12.629-.562-17.667.524-2.964 2.514-4.007 3.78-4.365l39.275-3.905c.96 4.308 1.343 17.725 1.192 25.573"/><path fill="#4C4C4C" d="M116.62 99.723a2.92 2.92 0 0 0-2.221-.657c-3.272.332-3.127 3.94-2.928 8.933.515 12.892 1.329 14.529 2.511 15.556a2.82 2.82 0 0 0 1.907.702q.177 0 .364-.019c3.4-.346 3.486-3.281 2.391-16.813-.409-5.063-.845-6.719-2.024-7.702"/><path fill="#4C4C4C" d="M133.151 97.367a2.92 2.92 0 0 0-2.222-.658c-3.271.333-3.127 3.941-2.928 8.934.515 12.892 1.329 14.529 2.511 15.556a2.83 2.83 0 0 0 1.907.702q.178 0 .364-.019c3.4-.346 3.486-3.282 2.392-16.813-.41-5.064-.845-6.72-2.024-7.702"/><path fill="#4C4C4C" d="M114.403 54.237c2.246-1.452 4.683-2.526 7.247-3.286a1.95 1.95 0 0 0 1.301-2.174c-.73-3.19-5.362-.803-7.077.31-1.476 1.08-2.607 2.638-2.915 4.49-.09.857.827 1.194 1.444.66"/><path fill="#4C4C4C" d="M141.761 46.393c1.554.688 3.189 1.401 4.884 1.65 1.969.245 2.924-2.453 1.198-3.492-1.696-.957-3.635-1.142-5.555-1.01-1.468.109-1.879 2.211-.527 2.852"/><path fill="#F295FF" d="M272.958 298.782c-13.116-6.671-23.375-6.021-23.479-6.013a2.13 2.13 0 0 1-1.22-.282l-44.69-26.054a2.114 2.114 0 0 1-.643-3.073c.649-.895 1.92-1.075 2.875-.518l.552.322c-.275-1.019-2.061-6.481-11.31-19.83-4.609-5.653-9.652-12.684-14.565-21.193-13.168-22.804-12.149-45.72-8.975-60.927 2.359-11.305 6.148-20.006 8.372-24.484a243 243 0 0 0 1.519-6.141q.223-.941.267-1.908c.358-8.158.195-16.385-.261-24.511-.38-6.846-1.005-13.683-1.796-20.503-.717-6.832-2.158-13.56-2.45-20.458-.085-1.525 2.109-2.028 2.664-.57.556 1.449.999 2.95 1.385 4.47.271.442 1.597 2.361 4.007 2.125.667-.066 1.259-.455 1.663-.989.108-.141.215-.293.315-.447.36-.556.411-1.258.172-1.876l-5.073-13.068-.047-.135c-.793-2.542 5.215-7.099 5.53-7.24 1.07-.477 2.265-.122 2.841.845q.042.069.077.142l5.173 10.413a50 50 0 0 0 2.834-7.27c.688-2.439 1.343-4.814 1.265-7.358.038-8.606-2.699-14.403-8.374-20.776-3.693-4.569-6.827-11.686-9.919-16.446-3.246 7.36-7.222 14.398-11.638 21.103-2.884 4.304-5.855 8.487-9.158 12.555 1.041.7 4.957 3.406 3.257 4.65-.732.492-1.37-.18-2.08-.523-.152-.08-2.269-1.036-2.713-1.202-13.784-4.783-31.16-4.034-45.054.181-5.324 1.52-10.273 4.202-15.122 6.728-1.042.672-2.303-.66-1.488-1.65 1.192-1.458 3.885-3.488 3.885-3.488 2.209-1.796-1.313-4.074-1.313-4.074s-12.434-7.52-19.568-10.848a148 148 0 0 0-10.362-4.353c.21 4.517.607 9.597-1.434 13.841l-.702 1.69-.046.113c-2.834 7.052-5.636 14.272-5.447 21.836.049 5.07 2.777 8.893 6.155 12.454 2.85 3.044 6.165 5.698 9.698 7.92 1.183.491 6.84 2.333 9.132-5.99.19-1.106 1.459-6.726 1.936-8.273.207-.675.881-1.151 1.576-1.023a1.37 1.37 0 0 1 1.122 1.467C91.189 82.588 89.232 97.1 90.225 111.6c.8 9.917 2.036 28.071 10.722 33.899 1.396.984 2.789 1.759 4.234 2.796.474.31.599.963.258 1.42a1 1 0 0 1-.675.393c-1.07.132-2.148.026-3.185-.256-.341-.093-.816-.113-1.035.025-1.213.773-2.326 3.355-3.256 4.744-1.652 2.975-3.757 5.738-5.828 8.2-4.408 5.263-9.407 9.946-14.535 14.468-6.22 5.792-11.706 12.404-16.156 19.62-15.613 25.248-16.96 60.443-1.907 86.228 1.943 3.196 4.137 6.243 6.656 8.979 2.529 2.855 5.517 4.928 7.991 7.907a1.01 1.01 0 0 1-1.04 1.621c-2.002-.542-3.765-1.592-5.354-2.824-.158-.132-.304-.275-.46-.408-.53.219-1.353.93-2.328 3.042-.254.55-16.868 48.035-16.868 48.035a2.1 2.1 0 0 1-.689.966c-.078.062-8.225 6.647-13.44 20.332-.944 2.479 1.532 4.501 5.33 6.37l.37.16c.659-1.417 1.45-2.793 2.274-4.085 1.464-2.266 3.1-4.694 5.441-6.093a1.194 1.194 0 0 1 1.618.486c.395.732-.158 1.469-.444 2.117l.088-.112c-1.53 3.252-3.345 6.253-4.956 9.42l.975.421c.725.286 2.127.846 2.161.861 15.2 7.174 26.368 9.558 27.682 8.11 6.768-7.451 9.426-22.553 9.452-22.705a2.1 2.1 0 0 1 .203-.609l17.01-33.676c6.628-12.426-1.288-15.188-1.288-15.188l.022.004a93 93 0 0 1-8.529-3.608c-1.608-.883-3.527-1.769-5.084-2.737-2.214-1.289-4.567-2.583-6.013-4.825a1.04 1.04 0 0 1 .293-1.443 1.05 1.05 0 0 1 .809-.149c2.677.474 4.587 1.988 6.767 3.144 1.5.901 3.338 1.727 4.902 2.544 21.713 10.367 51.131 11.825 74.951 3.138a4.3 4.3 0 0 0 1.433-.841c.816-.743 1.62-1.948.488-3.556-.352-.5-.812-1.485-.448-2.405a2.115 2.115 0 0 1 2.742-1.188l62.445 24.695q.28.111.521.297c.122.096 12.439 9.592 22.34 10.531l.019.001c1.68 0 7.656-8.299 13.691-24.996l.039-.098c.224-.523.467-1.078.72-1.656l.191-.439c-.076-.007-.152-.011-.228-.027-2.034-.433-4.011-1.03-6.037-1.552-2.076-.598-4.132-.932-6.03-2.081-.926-.513-.669-2.01.356-2.201 3.306-.631 6.582.098 9.787.843 1.085.326 2.718.588 3.685 1.32 1.85-4.798 2.649-8.79-.12-10.197M82.674 231.017a1.599 1.599 0 1 1 3.197 0v4.297a1.599 1.599 0 0 1-3.197 0zm3.702 19.116c-.09 6.124-.249 12.859-.589 18.941-.211 2.641-4.085 2.488-4.08-.17.166-6.078.568-12.823.988-18.925.282-1.593-.208-7.892 2.54-7.063.41.151.7.491.811.881.59 2.132.317 4.228.33 6.336m6.499-.703c-.189 5.317-.022 12.799-.89 18.012-.156 1.041-1.721 1.044-1.873 0-.866-5.184-.704-12.716-.89-18.012a641 641 0 0 1-.111-18.011c.082-2.522 3.787-2.538 3.875 0 .056 6.004.001 12.008-.111 18.011m49.413-205.89c1.92-.131 3.859.053 5.555 1.011 1.726 1.039.771 3.737-1.198 3.492-1.695-.249-3.33-.962-4.884-1.65-1.352-.641-.941-2.743.527-2.853m-1.989 20.598a1.69 1.69 0 1 1 2.392-2.39c.933.934 1.99 2.665 2.324 8.575.012.207.037 1.134.02 1.346a2.9 2.9 0 0 1-1.021 1.987 2.9 2.9 0 0 1-2.127.683 2.92 2.92 0 0 1-2.669-3.147c.11-1.33 1.112-2.363 2.355-2.611-.269-3.383-1.223-4.393-1.274-4.443m-15.05 1.627a1.691 1.691 0 0 1 2.392-2.39c.933.934 1.99 2.666 2.324 8.575.012.208.037 1.135.02 1.347a2.92 2.92 0 0 1-3.147 2.67 2.92 2.92 0 0 1-2.67-3.148c.11-1.33 1.112-2.366 2.355-2.612-.27-3.381-1.223-4.391-1.274-4.442m-9.375-16.679c1.715-1.112 6.347-3.498 7.077-.31a1.95 1.95 0 0 1-1.301 2.175c-2.564.76-5.001 1.834-7.247 3.285-.616.535-1.534.199-1.444-.659.308-1.851 1.439-3.41 2.915-4.49m33.871 63.826c-.249 12.965-2.427 26.875-25.287 27.802q-1.017.04-1.994.041c-16.153 0-23.842-8.507-24.851-27.334-.507-9.443-.937-18.966-.169-22.599.435-2.056 1.901-3.43 3.751-3.522l43.291-4.305q.115-.011.234-.01c1.76 0 3.238 1.266 3.688 3.17 1.208 5.112 1.466 19.949 1.337 26.757m18.135 14.111c-2.926 5.183-7.746 8.002-10.765 6.298s-1.689-6.529 1.82-12.526c3.616-6.183.41-9.993 3.868-9.736 3.918.291 8.002 10.782 5.077 15.964"/><path fill="#4C4C4C" d="M274.874 295.014c-12.405-6.308-22.362-6.562-25.022-6.49l-18.285-10.66c6.242-2.412 10.118-5.744 11.58-9.977.584-1.691.796-4.193.706-7.324q1.17-.716 2.397-1.458c2.02-1.222 5.783-3.498-9.321-59.41a1384 1384 0 0 0-4.887-17.602c10.551-2.265 21.02-4.965 31.009-9.102 4.367-2.009 9.855-4.548 11.025-9.835 2.23-9.11 2.363-18.509 1.036-27.749-.841-5.049-3.068-13.387-9.13-14.303-2.404.038-3.993 1.22-5.8 2.189-5.854 3.563-11.102 7.24-17.386 9.607-7.833 2.758-15.938 4.82-24.142 6.376-6.442-15.366-7.766-15.938-8.542-16.162-.739-.213-2.663-.099-3.656-.149-.502-.026-1.069-.054-1.68-.082-1.38-1.825-2.884-3.432-4.498-4.606-3.033-2.204-7.92-3.772-14.134-4.238a243 243 0 0 0-.287-10.112 290 290 0 0 0-3.146-29.16c2.272-.445 4.451-1.401 6.342-2.692.184-.13.358-.27.537-.405l.819 2.109c.196.503.576.913 1.064 1.145l2.735 1.3a2.11 2.11 0 0 0 2.35-.365l3.945-3.687S208.625 87.95 208.656 88a2.24 2.24 0 0 0 1.907 1.054c.361 0 .752-.082 1.164-.27.431-.197 6.489-4.373 5.632-7.166a2 2 0 0 0-.069-.194L206.147 54.7a2.11 2.11 0 0 0-1.873-1.299l-2.521-.093q.446-1.275.839-2.551c1.784-5.52 1.684-11.38.343-17.026-1.169-5.543-4.773-10.587-8.363-14.67-2.794-3.442-5.932-9.635-8.207-13.6-.935-1.54-1.799-3.244-3.211-4.63-.257-.244-.846-.671-1.403-.771-1.05-.26-2.166.378-2.572 1.297-1.309 3.006-2.641 6.013-4.179 8.912-4.896 9.404-10.869 18.467-17.633 26.597-.014.016-.023.034-.036.05-8.363-3.482-18.146-3.09-26.996-2.436-7.779.709-15.543 2.416-22.67 5.66l-1.473-1.04c-7.611-5.26-15.578-9.98-23.91-14.023a152 152 0 0 0-11.883-5.088c-1.441-.667-3.187.02-3.693 1.52-.637 2.03-.156 4.226-.167 6.141.109 3.06-.036 5.978-1.34 8.758-4.049 10.005-9.814 23.216-4.376 33.774C63.641 75.103 67.5 78.907 71.82 82.4c2.731 2.206 5.747 4.025 8.99 5.352l-.072.022s5.374 1.994 5.067 6.752c-.007.114-.332 11.623-.019 17.317.452 5.777.993 13.171 2.748 20.005-2.2-1.562-4.438-3.066-6.525-4.837-7.915-6.345-15.45-13.276-22.342-20.715-3.301-3.642-6.739-7.533-9.161-11.733-.55-.982-.981-1.924-1.166-3.004-1.718-7.098-3.554-14.16-7.06-20.657-2.923-5.693-10.653-2.3-14.897-.459-7.195 3.386-13.759 7.755-19.834 12.895C4.121 86.555-1.85 91.127.557 96.594c1.41 3.234 3.905 5.835 5.964 8.364 1.67 1.969 3.328 3.909 4.952 5.875 6.514 7.838 12.427 16.134 17.788 24.807 7.773 12.763 17.096 26.272 25.635 38.635 2.794 3.804 5.201 7.88 8.654 11.143l.075.068-.183.235a96 96 0 0 0-6.282 8.969c-17.101 27.421-18.21 67.96 1.207 94.605.583.971 2.968 5.317 1.837 9.741-.226.88-16.545 48.515-16.545 48.515-1.983 1.723-9.318 8.715-14.277 21.731-2.364 6.204 3.66 10.033 9.321 12.559.318.234 12.606 5.543 19.375 7.941 6.811 2.412 11.127 3.245 13.948 3.245 2.814-.001 4.14-.828 4.971-1.742 7.097-7.813 9.984-22.092 10.43-24.505l24.128-46.914c22.508 5.031 46.908 2.286 67.467-8.035l53.174 21.028c1.914 1.452 13.861 10.224 24.29 11.214q.225.023.463.023c2.461 0 6.03-1.974 11.896-14.179 3.095-6.437 5.442-12.829 5.702-13.546q.32-.743.678-1.556c2.802-6.389 7.037-16.044-.351-19.801m-35.722-28.507c-1.386 4.015-6.121 6.738-12.398 8.551 0 0-11.78-6.998-12.136-7.17-1.319-.638-1.838-1.936-1.817-2.522a6.5 6.5 0 0 1 .634-2.503c.107-.225.363-.483.733-.753a2.5 2.5 0 0 1 1.016-.433q.235-.042.534-.11a13 13 0 0 0 1.404-.4 16 16 0 0 0 1.747-.715q.47-.225.962-.503a16.4 16.4 0 0 0 3.048-2.224q.513-.472 1.016-1.017c2.011-2.187 3.863-5.311 4.979-9.772 3.604-14.419-1.509-22.832-1.729-23.183l-.066-.099c-.154-.219-7.961-11.415-15.753-28.241-1.496-7.567 9.375-10.455 11.34-10.912 9.74 33.74 19.613 72.952 16.486 82.006M211.083 144.76c11.229-1.745 22.479-3.979 33.222-7.912 6.416-2.383 12.378-6.461 18.026-9.915 1.105-.638 2.378-1.397 3.416-1.593 2.037 1.116 3.448 3.652 4.387 6.917-.69.156-1.37.384-1.909.535-3.095 1.051-5.961 2.593-8.05 5.228-1.037 1.334.507 3.213 2.027 2.424 1.584-.833 3.319-1.843 4.973-2.654 1.25-.615 2.521-1.155 3.803-1.699 1.489 9.053.464 20.987-.966 25.902-1.71 9.184-40.215 16.775-64.022 20.84-4.261-11.074-7.919-23.616-9.499-36.594l1.002-.045c4.57-.278 9.093-.771 13.59-1.434m-24.947-26.462c5.337.436 9.373 1.738 11.657 3.398 5.41 3.932 9.7 14.393 11.435 19.15-3.998.578-12.003 1.311-12.003 1.311q-.002.001-.085-.02l-.02-.007a2 2 0 0 1-.2-.072c-.566-.243-.933-.804-.978-1.418-.029-.399-.046-.8-.071-1.2a105 105 0 0 1-.203-4.854 2.12 2.12 0 0 0-.459-1.281c-.272-.341-2.765-3.344-6.555-3.482a7.4 7.4 0 0 0-3.054.561 180 180 0 0 0 .536-12.086m-.958 17.447c1.117-1.16 2.208-1.731 3.302-1.7 1.285.038 2.393.885 2.978 1.433 1.081 45.213 30.678 88.466 32.117 90.54.321.563 4.227 7.78 1.198 19.893-2.235 8.939-7.895 11.049-9.924 11.525-3.267-2.594-17.617-14.732-30.711-37.408-23.102-40.009-.731-81.157 1.04-84.283m16.721-78.203.868.032 10.238 24.555c-.357.43-.895.984-1.432 1.494a2 2 0 0 1-.568-.282l-7.987-15.52c-.041-.08-.093-.153-.142-.227q-.047-.077-.1-.15a2 2 0 0 0-.195-.218q-.059-.059-.121-.113-.09-.077-.187-.144a2 2 0 0 0-.237-.135c-.048-.024-.095-.05-.145-.07a2 2 0 0 0-.424-.126 2.1 2.1 0 0 0-1.806.537l-4.938 4.614-.677-.322-7.438-19.164c.378-.455.927-1.055 1.464-1.604l5.953 11.985c.278.559.79.955 1.392 1.103.035.009.066.026.102.032l1.227.236c.47.09.94.015 1.347-.19.358-.18.657-.466.868-.827.014-.024.037-.04.05-.066zM58.329 171.87c-8.836-12.587-17.463-25.334-25.51-38.432-5.44-8.818-11.48-17.307-18.102-25.285-3.096-3.864-6.845-7.741-9.52-11.751-.597-.95-.998-1.906-.987-2.5.013-.794.548-1.492 1.05-2.201 1.354-1.813 3.187-3.545 5.05-5.165 5.074-4.301 10.729-8.161 16.695-11.198l.293-.134c.007.228.049.466.144.712 1.195 2.8 2.811 5.39 4.487 7.962.767 1.167 2.697.482 2.535-.927-.4-3.275-1.519-6.392-3.467-9.059a2 2 0 0 0-.253-.27l.368-.168c2.32-.952 4.758-1.768 6.85-1.32.474.478 1.153 1.679 1.513 2.48 2.066 4.449 3.565 9.402 4.85 14.184.732 2.624 1.026 5.48 2.484 7.815 2.727 4.713 6.168 8.587 9.748 12.546a185 185 0 0 0 23.029 20.962c2.18 1.547 6.63 5.034 7.063 5.466.958.958 1.516 1.774 1.842 2.426l-6.316 28.326c-3.344 3.375-6.851 6.604-10.272 9.907a104 104 0 0 0-6.26 6.769c-1.98-4.006-4.835-7.435-7.314-11.145m33.644-30.054c1.12 1.953 2.508 4.672 3.714 7.246-.636 1.128-1.553 2.71-2.033 3.384-1.713 2.404-3.791 5.037-5.69 7.355zm181.105 167.163c-.967-.732-2.6-.994-3.685-1.32-3.205-.745-6.481-1.473-9.787-.843-1.025.191-1.282 1.688-.356 2.201 1.898 1.149 3.954 1.483 6.03 2.081 2.026.523 4.003 1.119 6.037 1.553.076.016.152.019.228.027l-.191.438c-.254.578-.496 1.133-.72 1.657l-.039.097c-6.035 16.697-12.011 24.996-13.691 24.996h-.019c-9.901-.94-22.218-10.436-22.341-10.532a2.1 2.1 0 0 0-.52-.297l-62.445-24.694a2.113 2.113 0 0 0-2.742 1.188c-.364.92.096 1.904.448 2.404 1.132 1.608.328 2.813-.488 3.557a4.3 4.3 0 0 1-1.433.84c-23.82 8.687-53.238 7.229-74.95-3.138-1.566-.817-3.403-1.643-4.903-2.544-2.18-1.156-4.09-2.67-6.767-3.143a1.042 1.042 0 0 0-1.101 1.592c1.445 2.241 3.798 3.535 6.012 4.824 1.557.969 3.476 1.855 5.084 2.737a93 93 0 0 0 8.528 3.609l-.021-.005s7.916 2.762 1.288 15.188l-17.01 33.676a2.1 2.1 0 0 0-.203.609c-.027.152-2.684 15.254-9.452 22.706-1.315 1.447-12.482-.937-27.682-8.111-.034-.015-1.436-.575-2.161-.861l-.976-.421c1.611-3.167 3.427-6.168 4.957-9.419l-.088.112c.286-.649.839-1.386.444-2.118a1.194 1.194 0 0 0-1.618-.486c-2.342 1.399-3.977 3.827-5.441 6.093-.825 1.292-1.615 2.668-2.274 4.085l-.371-.16c-3.797-1.869-6.274-3.891-5.329-6.37 5.214-13.685 13.362-20.27 13.44-20.332a2.1 2.1 0 0 0 .689-.966s16.614-47.485 16.867-48.035c.975-2.112 1.798-2.823 2.33-3.042.155.134.301.277.458.409 1.59 1.231 3.353 2.281 5.354 2.823a1.01 1.01 0 0 0 1.041-1.62c-2.474-2.98-5.462-5.053-7.992-7.908-2.518-2.736-4.712-5.783-6.655-8.979-15.053-25.785-13.706-60.98 1.907-86.228 4.45-7.216 9.936-13.828 16.156-19.62 5.127-4.522 10.127-9.205 14.535-14.468 2.07-2.462 4.176-5.224 5.827-8.2.931-1.389 2.044-3.971 3.257-4.743.219-.139.693-.119 1.035-.026 1.037.282 2.115.388 3.185.257a1 1 0 0 0 .675-.394.994.994 0 0 0-.258-1.42c-1.445-1.037-2.838-1.812-4.234-2.796-8.686-5.828-9.922-23.982-10.722-33.899-.993-14.5.964-29.012 2.078-43.457a1.37 1.37 0 0 0-1.122-1.467c-.695-.128-1.369.348-1.576 1.023-.477 1.547-1.746 7.167-1.936 8.273-2.292 8.323-7.949 6.481-9.132 5.99-3.533-2.222-6.849-4.875-9.698-7.92-3.378-3.56-6.107-7.384-6.156-12.454-.188-7.564 2.614-14.783 5.447-21.836l.047-.112.702-1.69c2.041-4.245 1.644-9.324 1.434-13.842a147 147 0 0 1 10.362 4.353c7.134 3.329 19.568 10.848 19.568 10.848s3.522 2.279 1.312 4.074c0 0-2.692 2.03-3.884 3.489-.815.99.445 2.321 1.487 1.65 4.85-2.527 9.799-5.21 15.123-6.728 13.894-4.216 31.269-4.965 45.054-.182.443.167 2.561 1.123 2.713 1.203.71.342 1.348 1.014 2.08.522 1.7-1.244-2.217-3.95-3.257-4.65 3.303-4.068 6.274-8.25 9.157-12.555 4.417-6.705 8.393-13.743 11.639-21.103 3.092 4.76 6.226 11.877 9.919 16.446 5.674 6.373 8.412 12.17 8.374 20.776.078 2.544-.577 4.92-1.265 7.357a50 50 0 0 1-2.834 7.272l-5.173-10.414a3 3 0 0 0-.077-.142c-.576-.967-1.771-1.322-2.841-.844-.315.14-6.324 4.698-5.53 7.239q.022.068.047.135l5.073 13.068c.239.618.188 1.32-.172 1.876a8 8 0 0 1-.315.448c-.404.534-.996.922-1.663.988-2.41.236-3.736-1.683-4.007-2.125-.386-1.519-.829-3.021-1.385-4.47-.555-1.458-2.749-.954-2.664.57.291 6.899 1.733 13.626 2.45 20.459.791 6.82 1.416 13.656 1.795 20.502.457 8.126.619 16.353.261 24.511a10 10 0 0 1-.266 1.908 243 243 0 0 1-1.519 6.141c-2.224 4.478-6.013 13.179-8.372 24.484-3.174 15.208-4.193 38.123 8.974 60.927 4.914 8.509 9.957 15.54 14.566 21.193 9.249 13.349 11.034 18.811 11.31 19.831l-.552-.323c-.955-.556-2.226-.377-2.875.518a2.114 2.114 0 0 0 .643 3.073l44.689 26.055c.368.214.797.311 1.221.282.104-.009 10.363-.659 23.479 6.012 2.769 1.408 1.97 5.4.12 10.197"/><path fill="#4C4C4C" d="M162.803 111.059c-3.458-.257-.251 3.553-3.868 9.736-3.509 5.997-4.84 10.821-1.82 12.526 3.019 1.704 7.839-1.115 10.765-6.298 2.925-5.182-1.159-15.673-5.077-15.964"/><path fill="#6DB5C3" d="M198.961 63.038a2.1 2.1 0 0 1-2.215 1.018l-1.228-.236c-.035-.007-.066-.024-.101-.032a2.1 2.1 0 0 1-1.392-1.103l-5.953-11.986c-.537.55-1.087 1.15-1.465 1.604l7.439 19.164.677.322 4.937-4.614a2.12 2.12 0 0 1 1.807-.537 2 2 0 0 1 .424.125c.05.02.097.047.144.07q.124.061.238.136.097.067.187.145.062.053.121.112c.068.07.135.14.195.219q.053.072.1.149c.034.054.077.1.106.158l8.023 15.59c.209.145.398.232.568.282a19 19 0 0 0 1.432-1.495l-10.238-24.555-.868-.032-2.888 5.43c-.013.026-.036.042-.05.066"/><path fill="#6DB5C3" d="M184.138 220.028c13.094 22.676 27.444 34.814 30.711 37.408 2.029-.476 7.689-2.586 9.924-11.525 3.029-12.114-.877-19.33-1.198-19.893-1.439-2.074-31.036-45.327-32.117-90.54-.585-.548-1.693-1.395-2.978-1.433-1.094-.031-2.185.54-3.302 1.7-1.771 3.126-24.142 44.274-1.04 84.283m5.08-10.333-1.569 2.202c-1.194 1.659-3.783.217-3.03-1.659l1.008-2.508a2.06 2.06 0 0 1 2.682-1.143c1.227.474 1.682 2.049.909 3.108m8.858 1.905-2.066-2.039c-1.898-1.971.92-4.825 2.915-2.952.38.291 1.44 2.714 1.695 3.146.799 1.602-1.293 3.089-2.544 1.845m2.997-13.057 3.003.521a1.46 1.46 0 0 1 .09 2.86l-2.964.71c-3.3.564-3.457-4.445-.129-4.091m-5.679-6.276 1.737-2.11a1.564 1.564 0 0 1 2.695 1.475l-.842 2.6c-1.208 3.062-5.517.702-3.59-1.965m-.823 4.204a5 5 0 0 1 2.482 2.925 4.98 4.98 0 0 1-.314 3.824 5.02 5.02 0 0 1-6.748 2.168h-.001a5.02 5.02 0 0 1-2.168-6.748 4.98 4.98 0 0 1 2.925-2.482 4.97 4.97 0 0 1 3.824.313m-7.893-6.128 2.045 2.054c2.124 2.351-1.738 5.152-3.313 2.403l-1.317-2.582c-.83-1.632 1.314-3.158 2.585-1.875m-5.648 9.525 2.591-.771a2.093 2.093 0 0 1 2.602 1.41c.458 1.417-.824 2.897-2.284 2.671l-2.679-.36c-1.608-.209-1.764-2.508-.23-2.95"/><path fill="#6DB5C3" d="M93.654 152.446c.48-.674 1.397-2.256 2.033-3.384-1.206-2.574-2.594-5.293-3.714-7.246l-4.01 17.985c1.9-2.318 3.978-4.951 5.69-7.355"/><path fill="#4C4C4C" d="M187.823 198.64a5.02 5.02 0 0 0 2.167 6.749 5.02 5.02 0 0 0 6.749-2.169 4.98 4.98 0 0 0 .314-3.824 5 5 0 0 0-2.482-2.925 4.98 4.98 0 0 0-3.824-.313 4.97 4.97 0 0 0-2.924 2.482"/><path fill="#4C4C4C" d="m198.984 194.232.842-2.6a1.563 1.563 0 0 0-2.695-1.475l-1.737 2.11c-1.927 2.667 2.382 5.027 3.59 1.965"/><path fill="#4C4C4C" d="M188.309 206.587a2.06 2.06 0 0 0-2.682 1.143l-1.008 2.508c-.753 1.875 1.836 3.318 3.03 1.659l1.569-2.202c.773-1.059.318-2.634-.909-3.108"/><path fill="#4C4C4C" d="m201.202 202.634 2.964-.71a1.46 1.46 0 0 0-.09-2.86l-3.003-.521c-3.328-.355-3.171 4.655.129 4.091"/><path fill="#4C4C4C" d="m181.26 202.818 2.679.36c1.46.226 2.742-1.254 2.284-2.671a2.093 2.093 0 0 0-2.602-1.41l-2.591.771c-1.534.442-1.378 2.741.23 2.95"/><path fill="#4C4C4C" d="M185.41 194.8c1.575 2.749 5.437-.052 3.313-2.403l-2.045-2.054c-1.271-1.283-3.414.243-2.585 1.875z"/><path fill="#4C4C4C" d="M198.925 206.609c-1.995-1.873-4.813.981-2.915 2.952l2.066 2.039c1.251 1.244 3.343-.243 2.544-1.845-.255-.432-1.315-2.855-1.695-3.146"/><path fill="#4C4C4C" d="M89.11 231.419a641 641 0 0 0 .112 18.011c.186 5.296.024 12.828.89 18.012.152 1.044 1.717 1.041 1.872 0 .869-5.213.702-12.695.89-18.012a643 643 0 0 0 .112-18.011c-.088-2.538-3.793-2.522-3.875 0"/><path fill="#4C4C4C" d="M85.235 242.916c-2.748-.829-2.258 5.47-2.54 7.063-.42 6.102-.822 12.847-.988 18.925-.005 2.658 3.869 2.811 4.08.17.34-6.082.5-12.817.589-18.941-.013-2.108.26-4.204-.33-6.336-.11-.39-.401-.73-.81-.881"/><path fill="#4C4C4C" d="M84.273 236.912c.882 0 1.598-.716 1.598-1.598v-4.297a1.598 1.598 0 1 0-3.196 0v4.297c0 .882.715 1.598 1.598 1.598"/><path fill="#5B5B5B" d="M175.93 327.085c-.152-1.044-1.716-1.041-1.872 0-.868 5.213-.702 12.695-.89 18.012a640 640 0 0 0-.112 18.011c.089 2.538 3.793 2.522 3.876 0 .055-6.004.001-12.008-.112-18.011-.185-5.296-.023-12.828-.89-18.012"/><path fill="#5B5B5B" d="M180.255 325.453c-.34 6.082-.499 12.817-.589 18.941.013 2.108-.26 4.204.33 6.336.111.389.402.73.811.881 2.749.829 2.259-5.47 2.541-7.063.42-6.102.822-12.847.988-18.925.005-2.658-3.87-2.811-4.081-.17"/><path fill="#5B5B5B" d="M181.769 357.616c-.882 0-1.598.715-1.598 1.598v4.297a1.599 1.599 0 0 0 3.196 0v-4.297c0-.883-.715-1.598-1.598-1.598"/><path fill="#4C4C4C" d="M124.168 72.82a2.92 2.92 0 0 0 2.91 3.156 2.92 2.92 0 0 0 2.907-2.68c.017-.212-.008-1.138-.02-1.346-.334-5.91-1.391-7.641-2.324-8.575a1.69 1.69 0 0 0-2.392 2.39c.051.05 1.005 1.06 1.274 4.442-1.243.246-2.245 1.282-2.355 2.612"/><path fill="#4C4C4C" d="M139.218 71.192a2.92 2.92 0 0 0 2.913 3.157c.691 0 1.352-.242 1.883-.693a2.9 2.9 0 0 0 1.021-1.987c.017-.212-.008-1.139-.02-1.346-.334-5.91-1.391-7.642-2.324-8.575a1.69 1.69 0 0 0-2.392 2.39c.051.05 1.005 1.06 1.274 4.442-1.243.249-2.245 1.282-2.355 2.612"/></svg>