<svg xmlns="http://www.w3.org/2000/svg" width="760" height="428" fill="none" viewBox="0 0 760 428"><path fill="#000" d="M757.567 420.201c-15.823-1.441-31.663-2.035-47.507-2.47.067-1.263.152-3.203.207-3.879.96-19.207 1.734-38.323.707-57.736-.652-5.841-.526-20.162-7.207-22.607-4.956-1.024-9.928-.709-14.845.181-2.968-13.781-10.748-25.795-16.211-34.224-2.297-3.543-5.155-7.953-5.288-9.274-.803-15.646-4.548-40.176-12.463-57.817-7.586-16.908-20.745-28.614-38.057-33.851-14.693-4.444-31.645-3.984-48.497.934-21.533-15.584-47.879-24.4-74.438-24.967q-1.272-.025-2.548-.037a4 4 0 0 1-.72-.069 24 24 0 0 1-1.562-.337c-.958-.253-1.451-1.465-1.143-2.264 4.937-13.107 9.06-26.521 12.132-40.206 2.938-13.706 4.886-28.111 3.229-42.399-.143-1.123-.41-2.16-.729-3.16l22.599-.125c2.163-.012 4.317-.675 5.967-2.075 2.034-1.724 3.158-4.18 3.143-6.806l-.378-68.095c-.004-.838-.089-1.682-.324-2.486-1.176-4.034-4.817-6.476-8.556-6.431L403.586.675c-2.163.012-4.318.674-5.969 2.072a8.8 8.8 0 0 0-3.147 6.809l.379 68.231c.027 4.853 3.983 8.782 8.83 8.782h.05l23.651-.132c-.765 2.3-1.123 4.699-1.625 7.058l-.17.517c-.811 2.49-1.611 5.496-2.377 8.537a7 7 0 0 0-1.062-.149c-.537-.029-1.059.053-1.567.131-8.237 1.42-16.39 3.297-24.397 5.683-17.865 5.325-35.062 12.475-51.665 20.875-1.086.645-2.469 1.204-3.722 1.928-2.355-2.457-11.361-11.124-27.92-18.809-23.557-10.934-54.839-7.623-77.835 8.243-14.337 9.891-24.148 20.513-30.782 30.958-5.714-11.675-12.523-20.72-20.387-27.016-10.861-8.695-23.568-11.942-37.766-9.653-16.938 2.73-32.363 13.786-45.51 32.39-8.43-8.602-17.158-12.173-26.908-11.267-7.694.709-14.111 5.088-18.07 12.329-5.409 9.894-5.617 23.688-.506 33.545.709 1.367 1.554 3.006 2.495 4.835-2.338.295-4.845 1.041-6.53 2.759-1.07 1.09-2.251 3.018-1.809 6.014.557 3.775 3.35 7.542 5.596 10.569.27.366.573.773.867 1.179-4.888.659-8.112 5.407-8.773 10.163a11.4 11.4 0 0 0-.035 2.945l-1.71-.007H45.2a3.55 3.55 0 0 0-3.544 3.777l4.537 71.28c.034.53.186 1.047.446 1.511l7.864 14.045-17.96 46.166a3.5 3.5 0 0 0-.226.972l-1.758 19.947c-.735 8.338 2.943 19.615 8.466 26.32-13.733.084-27.467.229-41.206 1.034a1.933 1.933 0 0 0-.025 3.856c20.528 1.472 41.066 1.471 61.6 1.993 7.663.181 23.14.445 30.802.533 39.671.201 79.964 1.702 119.858 1.038 2.371 2.001 5.05 3.654 8.081 4.754 6.013 1.697 11.873 1.775 17.953 2.242 45.847 2.15 91.683.5 137.484 2.317 28.639 1.961 57.012 6.117 85.843 5.564 17.088-.069 34.092-1.183 51.007-3.409.09.002.173.017.266.013 2.91-.226 9.703-.285 12.865-.286 44.089.152 96.053.988 140.044 1.924 6.675.131 66.745.586 89.86-.177 3.48-.263 3.265-5.095.11-5.407m-56.022-79.457-.021-.005c.038.005.068.01.021.005M585.347 203.17c10.368-1.256 20.426-.594 29.499 2.152 15.286 4.624 26.916 14.984 33.636 29.961 5.871 13.087 9.323 30.284 10.923 44.356-.423 9.918-1.681 20.462-2.06 30.425-.147 2.535 3.462 3.329 4.384.938a78 78 0 0 0 2.254-7.372c.391-.432.981-.751 1.838-.383.563.241 1.126.688 1.643 1.181 4.085 6.315 8.978 14.07 12.178 22.692.961 5.562-1.598 8.427-3.381 9.713-1.6.447-3.188.888-4.758 1.29-4.062 1.023-8.526 2.57-12.539 2.335-.503-.035-3.274-1.056-3.857-1.234l-6.162-2.081c-6.481-1.978-13.113-3.593-19.824-4.709 4.767-45.122-15.55-92.018-48.317-122.75-.552-1.753-.652-4.857 4.543-6.514M403.698 80.887h-.018a3.154 3.154 0 0 1-3.15-3.132l-.378-68.23a3.13 3.13 0 0 1 .91-2.233 3.13 3.13 0 0 1 2.222-.934l121.826-.676h.018c.834 0 1.62.322 2.214.91a3.13 3.13 0 0 1 .934 2.222l.379 68.231a3.12 3.12 0 0 1-.91 2.231c-.592.599-1.38.93-2.221.935l-65.871.366c-.066-.13-.12-.263-.192-.392-2.315-3.382-6.536-5.592-10.644-5.985-6.607-.451-12.991 2.131-17.739 6.535zm-164.625 45.409c12.638-8.719 28.433-13.282 43.607-13.282 9.642 0 19.037 1.844 27.206 5.636a108 108 0 0 1 9.618 5.056c7.892 6.117 9.022 10.162 9.174 11.39a663 663 0 0 0-32.171 17.385c-.031-3.357-1.21-5.621-2.445-7.064-3.035-3.546-8.026-4.184-11.376-3.654-2.482.393-5.203 1.18-8.037 2.26-1.864-2.289-4.972-5.228-9.321-6.401-4.48-1.207-9.218-.281-14.08 2.754-5.48 3.422-9.112 8.683-10.735 15.329-1.037-2.683-.981-6.142-.816-7.576a2.218 2.218 0 0 0-4.108-1.397c-4.59 7.704-5.818 14.193-3.65 19.285 2.584 6.067 8.984 7.618 9.255 7.681l.01.001c.195.142.408.261.65.322a1.93 1.93 0 0 0 1.899-.564c.009-.011.256-.274.743-.755.915-.09 1.797-.511 2.421-1.284 6.851-8.491 25.588-20.854 36.879-22.641 1.662-.261 3.866.086 4.871 1.26.993 1.158 1.004 3.457.033 6.471-.068.211-.11.424-.137.637-49.133 29.359-76.113 54.934-85.578 64.742-2.068-5.872-4.95-16.509-4.495-29.297.927-26.051 14.582-48.356 40.583-66.294m-59.648 3.634c8.792 7.036 15.454 17.594 20.505 29.13a82 82 0 0 0-4.719 11.537c-3.365-16.042-9.732-34.548-21.759-44.676l-.007-.005a42 42 0 0 1 5.98 4.014m-27.645 81.905c-.015-.158-1.413-15.901 5.352-23.385 2.279-2.52 5.232-3.757 9.03-3.783 12.485-.084 16.206-.066 17.31-.046.237.039.482.056.732.043.219.002 3.476-.024 6.547 2.722.278 2.278.478 4.264.62 5.861-.226 9.133 1.055 17.157 2.604 23.359.271 1.591.542 2.952.811 4.13l-43.019-.156.029-8.396q0-.175-.016-.349m14.574-35.785v-4.583h19.216v4.583zm-15.363-50.39c6.76-.608 12.611 1.251 17.886 5.693 8.737 7.357 14.167 20.422 17.524 33.013h-23.598a3.537 3.537 0 0 0-3.512 3.173c-2.069-.387-4.085-.001-5.847 1.212-.396.273-.877.633-1.43 1.047-2.857 2.145-8.18 6.137-12.511 4.901-2.73-.776-5.069-3.613-6.952-8.433-3.447-8.816-9.388-9.966-12.61-9.891-.223.006-.442.035-.663.053 7.237-15.85 17.528-29.486 31.713-30.768m-43.886 88.818a2.9 2.9 0 0 0 3.897 1.279l9.745-4.926a2.902 2.902 0 0 0-.142-5.244c-5.922-2.602-11.065-3.264-15.369-2.05 1.495-7.811 3.497-16.679 6.128-25.559q.265-.889.54-1.788c6.211 11.376 15.61 28.725 24.05 44.333l-33.49-.121c.384-2.8.884-6.145 1.515-9.884.354-.279.732-.54 1.152-.764 1.798-.961 4.007-1.249 6.603-.867l-3.349 1.694a2.9 2.9 0 0 0-1.28 3.897m22.947-86.394c-23.302 21.294-32.12 72.089-34.779 92.292l-17.99-.065c5.47-22.064 21.24-73.543 52.769-92.227m-68.203 23.514c1.973-3.609 5.742-8.042 12.49-8.664 7.826-.719 15.026 2.541 22.22 10.266-4.267 6.795-8.27 14.427-11.97 22.889a228 228 0 0 0-2.055 4.854c-4 4.335-5.251 9.758-5.318 10.057-.198.897.053 1.78.59 2.441a274 274 0 0 0-3.39 10.395c-5.049-9.899-10.117-19.808-13-25.368-3.957-7.63-3.77-19.181.433-26.87M41.633 378.515l1.713-19.44 18.384-47.254a3.55 3.55 0 0 0-.211-3.02l-8.29-14.805-4.244-66.686 138.154.5c.739.003 1.461.154 2.161.38.241.078.49.131.722.237q.012.007.025.012c.585.268 1.153.6 1.67.994q.487.374.889.833.242.276.443.585.256.394.433.846c.176.446.309.923.341 1.461q.033.52-.041 1.102a3.5 3.5 0 0 1-.139.623 4.3 4.3 0 0 1-.991 1.625 324 324 0 0 0-10.827 11.837c-10.003 11.522-19.207 23.918-27.184 36.952-1.046 1.565-1.694 3.404-1.257 5.401 1.032 4.362 5.846 6.438 9.058 8.224 4.379 2.22 9.753 4.861 13.68 7.715 7.167 4.996 14.539 10.088 22.498 13.909a74 74 0 0 0 5.578 2.378c.861.331 1.715.675 2.59.97a6 6 0 0 1 1.061.476 5.2 5.2 0 0 1 .935.688q.39.359.8.775c.405.41.818.873 1.228 1.361.143.17.287.332.429.512.458.582.897 1.223 1.309 1.898.079.129.164.25.241.382.082.142.151.297.23.443.149.277.302.551.438.842.083.178.149.37.226.554.114.272.235.538.335.821.082.236.141.486.213.729.071.245.155.482.214.734.133.571.046 1.173-.191 1.709a209 209 0 0 0-5.045 12.443 141 141 0 0 0-3.558 11.169c-.509 1.87-.974 3.745-1.386 5.626a99 99 0 0 0-1.35 7.551c-.514 3.709-.81 7.427-.814 11.14a72 72 0 0 0 .069 3.252c.202 6.073 1.962 12.298 5.113 17.634l-151.97-.818c-2.07-.012-4.17-1.172-6.242-3.447-5.108-5.609-7.97-15.828-7.44-21.853m661.192 28.592c-.115 2.588-.336 6.852-.496 9.928-1.035.268-2.128.446-3.263.58-10.33.999-20.8.623-31.308.496-16.981-.414-34.004-.63-50.99-.846-23.297-.138-66.419-.462-89.265-.207-2.188.07-4.477.064-6.794.11l.322.067c-7.868.323-15.726 1.7-23.569 2.252a390 390 0 0 1-34.042 1.245c-28.576.308-57.058-3.894-85.528-5.847-48.58-2.1-97.344.367-145.815-2.946-2.492-.248-5.438-.59-7.683-1.252-4.468-1.804-8.479-5.205-10.94-9.404-12.472-22.257 5.008-59.104 15.603-80.012 4.236-9.05 15.23-11.311 24.494-12.592 5.979-.683 12.103-.669 18.128-.067l.02.029c-1.494 5.506-2.847 11.941-4.118 17.518-.228.797-.043 1.681.613 2.28 4.931 3.955 10.181-15.09 10.462-18.376.02-.148.013-.284.017-.425 5.064.95 9.997 2.464 14.227 5.129 12.514 6.948-13.396 39.34-6.448 53.932.757 1.821 3.571 1.539 3.934-.429 2.133-11.028 5.533-21.057 9.61-31.68.06-.163.115-.323.174-.485.68-.336 1.343-.566 1.95-.664 1.333-.215 2.439-.403 3.368-.566a26.6 26.6 0 0 0 4.221-.832c2.21-.597 1.96-3.889-.277-4.192-2.312-.35-4.691-.534-7.091-.695 2.847-11.358.604-19.56-14.086-24.265-14.319-4.724-40.501-6.262-55.763 2.862-6.437-5.345-11.832-11.916-15.633-19.684-2.402-4.42-4.496-9.01-7.118-13.606a1.963 1.963 0 0 0-3.679 1.1 38.2 38.2 0 0 0 1.52 8.048c2.443 7.877 6.633 15.191 11.965 21.552 6.261 7.971 4.536 10.512 4.536 10.512-.068.106-.329.542-.387.655-1.613 2.219-4.024 2.862-5.334 3.047-12.692-.396-28.494-11.383-38.331-18.203-4.307-3.098-9.818-5.777-14.569-8.14-2.208-1.184-4.41-2.179-5.666-3.707 9.06-15.025 20.09-29.794 32.14-43.364.899-.675 3.443-2.412 4.521-1.333.948.948 2.795 4.743 3.762 6.809.294.629.518 1.277.72 1.94.505 1.651 1.205 3.25 2.229 4.753.658 1.081 2.491.634 2.594-.617.663-4.957-.457-9.348-.643-13.962a65 65 0 0 1-.106-4.716c.568-4.895 4.912-12.811 6.221-15.104 14.933-14.64 55.357-50.159 127.286-85.614 1.393.536 2.822.969 4.314 1.192a1.97 1.97 0 0 0 1.561-.404c.85-.675.925-1.928.282-2.803-.175-.24-.363-.462-.544-.694 3.215-1.629 6.666-3.342 9.899-4.819 12.484-5.777 25.253-11.207 38.492-14.919 6.436-1.805 25.631-6.487 26.614-2.553.383 1.533.158 3.834-.256 6.074-2.693 9.408-5.812 18.719-9.396 27.794l-.049.11c-2.96 5.923-7.145 12.634-12.938 18.766-1.306 1.382-2.738.82-3.888-.15-2.673-3.612-5.736-6.943-9.212-9.792-4.883-5.094-12.036-8.001-18.523-9.283-2.547-.558-3.854 3.019-1.539 4.236 4.167 2.189 8.34 4.296 11.624 6.88 1.218.933 2.534 2.306 3.688 3.389 7.537 6.066 12.57 14.535 16.288 23.389 1.015 2.112 2.095 4.297 3.404 6.278 1.112 1.781 4.025.978 4.06-1.14.13-3.705-.75-7.084-2.053-10.304-.073-.609.006-1.523.648-2.575 12.063-13.234 23.467-49.937 26.747-63.002 1.022-4.07 2.308-9.633 3.6-14.242l-.052-.012a76 76 0 0 0 2.076-8.144c.426-1.85.529-3.235 1.378-4.51 3.23-3.58 9.024-6.173 13.361-5.74 1.965.058 4.447 1.557 5.336 2.609 1.612 6.93-.41 14.173.8 21.525.24 2.423 3.757 2.935 4.665.641 1.751-4.414 2.323-8.922 2.409-13.57.532-1.287 2.743-5.094 10.328-6.155l23.2-.129c.145.113.242.189.387.3 5.765 24.072-4.768 59.732-15.918 88.36-10.526.611-20.974 2.337-30.814 6.185a1.84 1.84 0 0 0 .82 3.542c7.564-.573 14.896-1.638 22.276-2.443 21.947-2.451 44.661-.175 65.175 8.055 51.143 20.056 87.611 78.685 85.297 134.083-1.315 5.15-4.627 6.457-6.61 6.77-7.2-.388-14.433-.103-21.615 1.05-7.73 1.42-15.669 3.508-21.439 9.236-1.47 1.524.316 3.901 2.176 3.084 7.629-2.232 15.38-4.701 23.464-5.683 8.079-1.018 16.342-.808 24.511.199 11.209 1.276 22.409 4.615 33.057 8.396 3.6 1.398 8.132.45 11.526-.27 11.124-2.339 22.298-7.423 33.653-6.258 1.967 4.637 2.047 10.023 2.473 15.25-3.691-.003-7.291.293-10.956.821-4.224.636-8.484 1.575-12.488 3.475a2.18 2.18 0 0 0-1.238 2.097 2.177 2.177 0 0 0 2.354 2.034l12.075-.738 10.556-.505c.417 14.62-.142 29.385-.741 44.005"/><path fill="#BE7AEB" d="M74.416 203.836c1-3.283 2.126-6.768 3.39-10.395a2.88 2.88 0 0 1-.59-2.441c.067-.299 1.318-5.722 5.318-10.057q.99-2.414 2.055-4.854c3.7-8.462 7.703-16.094 11.97-22.889-7.194-7.725-14.394-10.985-22.22-10.266-6.749.622-10.517 5.055-12.49 8.664-4.203 7.688-4.39 19.24-.434 26.87 2.884 5.56 7.952 15.469 13.001 25.368"/><path fill="#BE7AEB" d="m108.385 210.581 3.35-1.694c-2.597-.382-4.806-.094-6.604.867-.42.225-.798.486-1.152.764a325 325 0 0 0-1.514 9.884l33.49.121c-8.441-15.607-17.839-32.956-24.051-44.333q-.275.899-.54 1.789c-2.631 8.879-4.633 17.747-6.128 25.558 4.304-1.214 9.447-.552 15.37 2.051a2.901 2.901 0 0 1 .141 5.243l-9.745 4.926a2.9 2.9 0 1 1-2.617-5.176"/><path fill="#BE7AEB" d="M185.569 171.468h-19.215v4.582h19.215z"/><path fill="#BE7AEB" d="M195.211 170.597a82 82 0 0 1 4.719-11.537c-5.051-11.535-11.713-22.094-20.505-29.129a42 42 0 0 0-5.98-4.015l.007.005c12.027 10.128 18.394 28.634 21.759 44.676"/><path fill="#BE7AEB" d="M95.274 220.375c2.658-20.202 11.476-70.997 34.778-92.292-31.528 18.685-47.3 70.164-52.77 92.227z"/><path fill="#BE7AEB" d="m55.315 403.814 151.97.819c-3.152-5.336-4.911-11.561-5.113-17.634a72 72 0 0 1-.069-3.252c.004-3.713.3-7.431.814-11.14a99 99 0 0 1 1.35-7.551 115 115 0 0 1 1.385-5.626 141 141 0 0 1 3.559-11.169 171 171 0 0 1 1.534-4.038 211 211 0 0 1 3.51-8.404c.238-.536.325-1.139.191-1.711-.058-.251-.142-.488-.214-.733-.071-.243-.13-.493-.213-.729-.099-.283-.22-.549-.334-.821-.077-.184-.143-.376-.226-.554-.136-.291-.289-.565-.438-.842-.079-.146-.149-.301-.23-.443-.077-.132-.162-.253-.241-.382a20 20 0 0 0-1.309-1.898c-.142-.18-.286-.342-.429-.512-.41-.488-.823-.951-1.228-1.362a25 25 0 0 0-.8-.774 5.2 5.2 0 0 0-.935-.688 6 6 0 0 0-1.061-.477c-.875-.294-1.73-.638-2.59-.969a74 74 0 0 1-5.579-2.378c-7.959-3.821-15.33-8.913-22.498-13.909-3.926-2.854-9.3-5.496-13.679-7.716-3.213-1.785-8.027-3.861-9.059-8.224-.436-1.996.211-3.835 1.258-5.4 7.976-13.035 17.181-25.43 27.184-36.953a325 325 0 0 1 10.827-11.837 4.24 4.24 0 0 0 .99-1.624q.098-.305.14-.623.073-.582.041-1.102a4.7 4.7 0 0 0-.341-1.461 4.7 4.7 0 0 0-.433-.846 5 5 0 0 0-.443-.585 6.3 6.3 0 0 0-.889-.833 9 9 0 0 0-1.671-.994l-.024-.012c-.232-.106-.481-.159-.723-.237-.699-.227-1.422-.378-2.161-.38l-138.154-.5 4.246 66.686 8.288 14.804a3.55 3.55 0 0 1 .211 3.021l-18.383 47.254-1.713 19.44c-.53 6.025 2.331 16.243 7.44 21.852 2.072 2.276 4.172 3.436 6.242 3.447m86.775-130.577a97.5 97.5 0 0 0 10.314-14.841c1.089-1.755 2.108-3.577 3.454-5.316a2.548 2.548 0 0 1 4.564 1.789c-.222 2.337-.873 4.596-1.833 6.712-3.002 6.331-7.8 11.895-14.176 15.073-2.128.91-3.902-1.78-2.323-3.417m-82.705 90.022a2.092 2.092 0 0 1 4.119-.326c2.29 7.305 5.085 24.065 13.657 25.719 2.774.212 3.226 4.118.576 4.913-11.78 2.569-16.809-12.082-17.91-21.122-.46-3.046-.7-6.045-.442-9.184"/><path fill="#000" d="M77.738 393.566c2.649-.796 2.197-4.701-.577-4.914-8.571-1.654-11.367-18.414-13.657-25.719a2.092 2.092 0 0 0-4.119.326c-.258 3.139-.018 6.138.442 9.184 1.101 9.04 6.13 23.691 17.91 21.123"/><path fill="#000" d="M144.413 276.654c6.375-3.177 11.174-8.742 14.175-15.073.961-2.116 1.612-4.375 1.834-6.712a2.55 2.55 0 0 0-4.564-1.789c-1.347 1.74-2.365 3.562-3.454 5.316a97.4 97.4 0 0 1-10.314 14.841c-1.579 1.637.195 4.327 2.323 3.417"/><path fill="#F295FF" d="M271.076 278.448c.118-.116.158-.202.194-.246.053-.099.03-.123-.004-.094-.078.103-.124.229-.19.34"/><path fill="#F295FF" d="M629.121 332.434c6.711 1.116 13.343 2.731 19.824 4.709l6.162 2.081c.583.178 3.354 1.199 3.857 1.234 4.014.235 8.477-1.312 12.539-2.335a232 232 0 0 0 4.758-1.29c1.784-1.286 4.342-4.151 3.381-9.713-3.2-8.622-8.093-16.377-12.178-22.692-.517-.493-1.08-.94-1.643-1.181-.857-.368-1.447-.049-1.838.383a77 77 0 0 1-2.254 7.372c-.922 2.391-4.531 1.597-4.384-.938.379-9.963 1.637-20.508 2.06-30.425-1.6-14.072-5.052-31.269-10.923-44.357-6.72-14.976-18.35-25.337-33.635-29.96-9.074-2.746-19.132-3.408-29.5-2.152-5.195 1.657-5.095 4.761-4.543 6.514 32.768 30.732 53.085 77.628 48.317 122.75"/><path fill="#7A42C8" d="M520.99 35.176c-.219-.552-.677-.862-1.398-.858-1.178.007-1.845.924-1.622 2.196z"/><path fill="#7A42C8" d="M433.183 38.677c-.865.005-1.414.705-1.409 1.57s.561 1.559 1.426 1.554 1.414-.705 1.409-1.57-.561-1.559-1.426-1.554"/><path fill="#7A42C8" d="M481.948 36.113c-.865.005-1.414.705-1.408 1.81.006 1.106.563 1.8 1.428 1.794.865-.004 1.414-.704 1.408-1.81-.006-1.105-.563-1.799-1.428-1.794"/><path fill="#7A42C8" d="M456.306 35.535c-.22-.551-.678-.861-1.399-.857-1.177.006-1.845.923-1.622 2.195z"/><path fill="#7A42C8" d="M448.817 74.2c4.108.393 8.329 2.603 10.644 5.986.072.128.126.261.192.391l65.871-.366a3.13 3.13 0 0 0 2.221-.934c.592-.598.915-1.39.91-2.231l-.379-68.232a3.13 3.13 0 0 0-.934-2.222 3.13 3.13 0 0 0-2.214-.91h-.018l-121.826.676a3.13 3.13 0 0 0-2.222.935 3.13 3.13 0 0 0-.91 2.232l.379 68.23a3.153 3.153 0 0 0 3.149 3.133h.018l27.38-.152c4.748-4.405 11.133-6.987 17.739-6.536m-2.074-38.492c-.817.005-1.415.609-1.41 1.426l.045 8.05-5.479.03-.078-14.13 8.121-.044.026 4.661zm35.28 9.56c-3.917.022-6.649-2.99-6.673-7.34-.024-4.325 2.699-7.344 6.591-7.365 3.893-.022 6.625 2.943 6.649 7.292s-2.65 7.392-6.567 7.413m37.739-14.915c3.749-.02 6.191 2.753 6.212 6.43l-6.976 3.09 6.728-.037.027 4.901-5.718.032c-4.277.024-7.105-2.82-7.129-7.17-.024-4.324 2.699-7.223 6.856-7.246m-15.658 5.854c-1.289-2.78.402-5.481 3.453-5.498l4.95-.027.026 4.661-2.787.016 1.848 3.978c1.289 2.78-.402 5.481-3.454 5.498l-5.382.03-.026-4.662 3.22-.018zm-2.115 8.662-8.121.045c-2.644.015-4.625-1.92-4.639-4.564l-.053-9.54 5.478-.03.047 8.362c.003.673.39 1.104.895 1.1.504-.002.886-.437.883-1.11l-.047-8.361 5.479-.03zm-12.243-32.564.048 8.65c.003.553.413.815.821.813.409-.002.696-.196.79-.63l2.017-8.853 5.695-.032-4.637 17.591-5.406.03.87-3.44-1.009.005c-2.644.015-4.601-1.92-4.615-4.564l-.053-9.54zm-9.655-3.358.019 3.412 3.292-.018.026 4.661-3.292.018.019 3.412c.004.793.608 1.39 1.401 1.386l1.898-.01.026 4.661-4.181.024c-2.643.014-4.6-1.921-4.615-4.564l-.071-12.952zm-9.084-.238a3.015 3.015 0 0 1 3.044 3.01 3.015 3.015 0 0 1-3.011 3.045 3.015 3.015 0 0 1-3.044-3.011 3.015 3.015 0 0 1 3.011-3.044m2.838 17.814-5.479.03-.062-11.341 5.478-.03zm-6.415 4.409 2.643-.015c2.643-.015 4.624 1.92 4.639 4.564l.053 9.54-5.479.03-.046-8.362c-.004-.673-.391-1.103-.896-1.1-.504.002-.886.437-.882 1.11l.046 8.362-5.478.03-.098-17.541 5.479-.03zm-.122-21.914.097 17.54-5.478.031-.097-17.541zm-9.181-.238a3.016 3.016 0 0 1 3.045 3.011 3.016 3.016 0 0 1-3.011 3.045 3.015 3.015 0 0 1-3.044-3.011 3.014 3.014 0 0 1 3.01-3.045m2.839 17.814-5.479.03-.063-11.34 5.479-.031zm.323 10.547-6.976 3.09 6.728-.037.027 4.902-5.718.032c-4.278.024-7.105-2.82-7.129-7.17-.024-4.324 2.699-7.223 6.856-7.246 3.749-.02 6.191 2.753 6.212 6.43M451.257 9.107l.019 3.412 3.292-.019.026 4.662-3.292.018.019 3.412c.004.793.608 1.39 1.401 1.386l1.898-.01.026 4.661-4.181.024c-2.643.014-4.6-1.921-4.615-4.564l-.072-12.952zm-14.826.082.06 10.669c.005.937.536 1.439 1.257 1.435s1.247-.512 1.241-1.45l-.059-10.668 5.863-.032.059 10.548c.023 4.133-2.868 7.2-7.073 7.224s-7.129-3.012-7.152-7.145l-.059-10.549zm-21.069 52.792-7.511.041h-.022a3.8 3.8 0 0 1-2.696-1.11 3.8 3.8 0 0 1-1.141-2.707l-.026-4.636a3.82 3.82 0 0 1 1.111-2.718 3.8 3.8 0 0 1 2.707-1.14l7.509-.042h.022a3.84 3.84 0 0 1 3.837 3.816l.026 4.636a3.843 3.843 0 0 1-3.816 3.86m2.791-16.647-8.217.046c-3.869.021-7.202-3.108-7.224-7.049l-.058-10.452 5.863-.032.06 10.764c.005.938.536 1.44 1.257 1.435s1.247-.511 1.242-1.449l-.06-10.764 5.863-.033.06 10.765c.005.937.536 1.439 1.257 1.435s1.247-.512 1.242-1.449l-.06-10.765 5.863-.032.058 10.452c.022 3.94-3.277 7.107-7.146 7.128m8.051-4.177c-.014-2.571 2.094-3.64 3.844-4.395l1.959-.859-5.592.032-.026-4.775 7.953-.045c2.644-.014 4.625 1.921 4.639 4.564l.053 9.54-8.818.049c-1.73.01-3.997-1.372-4.012-4.111"/><path fill="#423E3E" d="M415.314 52.959h-.002l-7.511.041a.55.55 0 0 0-.385.164.55.55 0 0 0-.16.386l.026 4.638a.55.55 0 0 0 .164.385c.061.06.19.16.383.16h.003l7.511-.042a.555.555 0 0 0 .545-.551l-.026-4.637a.555.555 0 0 0-.548-.544"/><path fill="#000" d="M415.315 49.669h-.022l-7.51.041a3.8 3.8 0 0 0-2.706 1.141 3.82 3.82 0 0 0-1.111 2.718l.026 4.636a3.8 3.8 0 0 0 1.141 2.706 3.8 3.8 0 0 0 2.695 1.111h.022l7.512-.041a3.843 3.843 0 0 0 3.816-3.86l-.026-4.636a3.84 3.84 0 0 0-3.837-3.816m.028 9.022-7.511.041h-.003a.55.55 0 0 1-.547-.544l-.026-4.638a.55.55 0 0 1 .16-.386c.06-.06.19-.163.384-.164l7.511-.041h.003c.296 0 .547.249.548.544l.026 4.637a.555.555 0 0 1-.545.55"/><path fill="#F295FF" d="m693.01 363.608-12.075.737a2.175 2.175 0 0 1-2.353-2.034 2.18 2.18 0 0 1 1.238-2.096c4.003-1.9 8.263-2.84 12.487-3.475 3.665-.528 7.266-.825 10.956-.821-.426-5.227-.506-10.614-2.473-15.25-11.355-1.166-22.528 3.919-33.652 6.257-3.395.721-7.927 1.669-11.526.271-10.649-3.781-21.849-7.121-33.057-8.396-8.169-1.008-16.432-1.218-24.512-.199-8.084.982-15.835 3.451-23.464 5.683-1.86.817-3.646-1.561-2.176-3.085 5.77-5.727 13.709-7.816 21.439-9.236 7.182-1.153 14.416-1.438 21.615-1.049 1.983-.313 5.295-1.62 6.61-6.77 2.314-55.399-34.154-114.028-85.296-134.084-20.515-8.229-43.228-10.506-65.176-8.055-7.38.806-14.711 1.871-22.276 2.443a1.838 1.838 0 0 1-.819-3.542c9.84-3.847 20.287-5.574 30.813-6.185 11.151-28.628 21.684-64.288 15.918-88.359l-.386-.3-23.201.129c-7.585 1.06-9.796 4.868-10.328 6.155-.086 4.647-.658 9.155-2.408 13.57-.909 2.293-4.426 1.782-4.666-.641-1.209-7.352.812-14.595-.799-21.526-.89-1.052-3.372-2.55-5.337-2.608-4.337-.434-10.131 2.159-13.361 5.74-.849 1.274-.951 2.66-1.378 4.51a76 76 0 0 1-2.076 8.144l.052.012c-1.292 4.609-2.578 10.171-3.6 14.242-3.28 13.065-14.683 49.767-26.747 63.002-.642 1.052-.721 1.965-.648 2.575 1.304 3.219 2.183 6.599 2.053 10.303-.035 2.118-2.948 2.922-4.06 1.14-1.309-1.981-2.389-4.166-3.404-6.278-3.718-8.854-8.751-17.323-16.288-23.389-1.154-1.082-2.47-2.456-3.688-3.388-3.284-2.585-7.456-4.692-11.624-6.881-2.315-1.216-1.007-4.794 1.539-4.236 6.488 1.282 13.64 4.189 18.523 9.284 3.476 2.849 6.54 6.179 9.212 9.792 1.15.97 2.582 1.531 3.888.149 5.793-6.131 9.978-12.842 12.938-18.766l.049-.11c3.584-9.075 6.703-18.385 9.396-27.794.415-2.239.64-4.541.256-6.073-.983-3.934-20.178.747-26.614 2.552-13.239 3.713-26.008 9.143-38.491 14.92-3.234 1.477-6.685 3.19-9.9 4.819.181.231.369.454.545.693.642.875.568 2.128-.283 2.803a1.97 1.97 0 0 1-1.56.405c-1.493-.224-2.921-.656-4.315-1.192-71.928 35.455-112.353 70.974-127.286 85.614-1.309 2.292-5.653 10.208-6.221 15.104-.018 1.568.011 3.14.106 4.716.186 4.614 1.306 9.005.644 13.961-.104 1.252-1.937 1.699-2.595.617-1.024-1.502-1.724-3.101-2.228-4.752a15 15 0 0 0-.721-1.94c-.966-2.066-2.813-5.861-3.762-6.81-1.078-1.078-3.622.659-4.52 1.334-12.051 13.57-23.08 28.338-32.141 43.364 1.257 1.527 3.458 2.522 5.667 3.707 4.75 2.362 10.261 5.042 14.568 8.14 9.837 6.82 25.64 17.807 38.331 18.202 1.31-.185 3.722-.828 5.334-3.047.058-.113.319-.548.387-.655 0 0 1.725-2.541-4.535-10.511-5.333-6.361-9.523-13.676-11.966-21.553a38 38 0 0 1-1.519-8.048 1.963 1.963 0 0 1 3.678-1.099c2.623 4.596 4.716 9.186 7.118 13.606 3.801 7.768 9.196 14.338 15.633 19.684 15.262-9.124 41.444-7.587 55.763-2.862 14.69 4.704 16.933 12.906 14.086 24.265 2.4.161 4.779.345 7.091.695 2.238.303 2.488 3.594.277 4.192a26.6 26.6 0 0 1-4.22.831c-.93.164-2.035.352-3.369.566-.607.098-1.27.329-1.95.664q-.085.243-.174.485c-4.077 10.624-7.477 20.652-9.61 31.68-.363 1.968-3.176 2.251-3.934.43-6.948-14.593 18.963-46.984 6.448-53.932-4.23-2.665-9.163-4.18-14.227-5.129-.004.141.003.276-.016.424-.282 3.287-5.532 22.332-10.463 18.376-.655-.599-.841-1.482-.612-2.28 1.27-5.576 2.623-12.012 4.117-17.518l-.02-.029c-6.025-.601-12.148-.616-18.127.068-9.265 1.28-20.259 3.542-24.495 12.592-10.595 20.908-28.075 57.754-15.603 80.012 2.461 4.199 6.473 7.599 10.94 9.403 2.245.662 5.192 1.004 7.684 1.252 48.47 3.314 97.234.847 145.814 2.946 28.47 1.953 56.952 6.155 85.528 5.847a390 390 0 0 0 34.042-1.244c7.844-.553 15.701-1.93 23.569-2.252l-.321-.068c2.317-.046 4.605-.04 6.794-.11 22.846-.255 65.967.07 89.264.207 16.986.216 34.01.433 50.99.846 10.508.128 20.978.504 31.308-.496 1.135-.134 2.228-.312 3.263-.579.16-3.076.381-7.341.497-9.929.598-14.62 1.157-29.384.741-44.004zM285.393 194.724c.96-3.718 2.861-6.414 5.651-8.013 4.248-2.434 8.804-1.243 9.31-1.098a3.124 3.124 0 0 1-1.687 6.017c-.096-.024-2.572-.635-4.553.525-1.253.734-2.151 2.125-2.669 4.131a3.13 3.13 0 0 1-3.807 2.245 3.125 3.125 0 0 1-2.245-3.807m-29.646 26.332q-.389 0-.783-.1a3.126 3.126 0 0 1-2.245-3.807c.96-3.719 2.862-6.414 5.651-8.013 4.248-2.434 8.803-1.243 9.309-1.098a3.124 3.124 0 0 1 2.149 3.861 3.12 3.12 0 0 1-3.836 2.156c-.098-.024-2.573-.634-4.552.525-1.253.734-2.151 2.124-2.669 4.131a3.13 3.13 0 0 1-3.024 2.345m98.906-13.959c-.789.827-1.755 1.259-2.782 1.525.947 17.624-7.455 38.608-18.758 53.117-1.434 2.148-3.183 4.17-5.256 6.051-.154.158-.306.323-.461.478-14.829 15.247-37.307 17.826-56.805 11.287-.253.83-.374 1.706-.475 2.389-.228 1.981-3.081 2.42-3.904.62-1.594-3.3-1.056-10.069 3.922-9.588 3.302.727 6.513 1.892 9.775 2.423a53.8 53.8 0 0 0 10.942 1.078c-7.345-2.847-14.271-8.562-20.494-17.099-4.287-5.879-10.257-17.535-11.584-21.945-.844-2.804.14-5.584 2.45-6.961l46.417-30.025q.105-.068.215-.127c2.262-1.249 5.058-.728 6.953 1.296 3.547 3.788 12.271 13.489 16.688 21.745 3.254 6.081 5.256 11.865 6.033 17.278 2.654-6.051 4.711-12.491 6.164-19.025 1.149-5.226 1.955-10.563 1.651-15.573a3.045 3.045 0 0 1 2.708-3.179 36 36 0 0 1 1.849-.149c2.174-.121 4.326.386 5.747 2.363.568.832-.507 1.509-.995 2.021"/><path fill="#F295FF" d="m701.524 340.739.021.005c.047.005.017 0-.021-.005"/><path fill="#000" d="M349.9 202.713c-.618.036-1.186.077-1.849.148a3.046 3.046 0 0 0-2.708 3.179c.304 5.011-.502 10.348-1.651 15.574-1.453 6.534-3.51 12.974-6.163 19.025-.778-5.413-2.78-11.197-6.034-17.278-4.417-8.256-13.141-17.957-16.687-21.745-1.896-2.024-4.692-2.546-6.954-1.297a4 4 0 0 0-.215.128l-46.417 30.025c-2.31 1.377-3.294 4.156-2.45 6.961 1.327 4.409 7.298 16.066 11.584 21.945 6.224 8.537 13.149 14.251 20.494 17.098a53.7 53.7 0 0 1-10.942-1.077c-3.262-.531-6.473-1.696-9.775-2.423-4.978-.482-5.516 6.288-3.922 9.587.823 1.8 3.676 1.361 3.904-.619.101-.684.222-1.559.475-2.389 19.498 6.538 41.976 3.96 56.805-11.287.155-.156.307-.32.462-.478 2.072-1.882 3.822-3.903 5.255-6.052 11.303-14.508 19.705-35.492 18.758-53.116 1.028-.266 1.993-.698 2.782-1.526.488-.511 1.563-1.189.994-2.02-1.42-1.978-3.572-2.484-5.746-2.363m-78.63 75.489c-.036.044-.076.13-.194.246.066-.111.112-.238.19-.34.033-.029.056-.005.004.094m45.654-11.215c-18.694 10.899-32.522-.398-40.829-11.792-3.491-4.787-8.839-15.015-10.323-19.207l44.52-28.799c3.216 3.485 11.11 12.361 14.941 19.522 9.725 18.175 7.007 31.35-8.309 40.276"/><path fill="#DB00F8" d="m310.292 207.189-44.52 28.799c1.484 4.192 6.832 14.42 10.323 19.207 8.307 11.394 22.136 22.691 40.83 11.792 15.315-8.926 18.033-22.101 8.309-40.276-3.831-7.161-11.726-16.037-14.942-19.522m-9.21 48.066a3.38 3.38 0 0 1-1.707 2.109c-.594.304-1.171.446-1.736.446-3.276 0-6.13-4.77-9.359-10.17-3.887-6.496-6.956-11.629-3.405-14.312a3.5 3.5 0 0 1 2.826-.651c2.612.509 4.734 3.633 8.63 10.148 4.149 6.936 5.393 10.189 4.751 12.43m14.935-7.851a3.3 3.3 0 0 1-1.95.632q-.353 0-.712-.073c-1.919-.393-4.052-2.216-8.757-10.083-3.744-6.258-5.661-9.647-4.89-12.303a3.62 3.62 0 0 1 1.862-2.245c4.052-2.042 6.929 2.779 10.571 8.881l1.558 2.591c3.226 5.32 6.013 9.915 2.318 12.6"/><path fill="#000" d="M287.701 232.677a3.5 3.5 0 0 0-2.826.651c-3.551 2.683-.482 7.815 3.405 14.312 3.229 5.399 6.083 10.17 9.359 10.17.565 0 1.142-.142 1.736-.447.835-.428 1.441-1.177 1.707-2.108.642-2.241-.602-5.494-4.751-12.431-3.896-6.514-6.018-9.638-8.63-10.147"/><path fill="#000" d="M312.141 232.213c-3.641-6.102-6.519-10.923-10.57-8.88a3.6 3.6 0 0 0-1.862 2.244c-.772 2.656 1.145 6.045 4.889 12.303 4.705 7.867 6.839 9.691 8.757 10.083q.359.073.712.073c.703 0 1.377-.216 1.95-.632 3.695-2.685.908-7.28-2.318-12.6z"/><path fill="#000" d="M287.638 198.531q.394.1.783.1c1.39 0 2.66-.936 3.024-2.345.518-2.006 1.416-3.397 2.669-4.131 1.981-1.161 4.457-.549 4.553-.525a3.124 3.124 0 0 0 1.687-6.017c-.506-.145-5.062-1.336-9.31 1.098-2.79 1.599-4.691 4.295-5.651 8.013a3.125 3.125 0 0 0 2.245 3.807"/><path fill="#000" d="M261.44 214.58c1.979-1.159 4.454-.55 4.552-.525a3.123 3.123 0 0 0 3.836-2.157 3.123 3.123 0 0 0-2.149-3.86c-.506-.145-5.061-1.336-9.309 1.098-2.79 1.599-4.691 4.294-5.651 8.013a3.126 3.126 0 0 0 6.052 1.562c.518-2.007 1.416-3.397 2.669-4.131"/><path fill="#BE7AEB" d="M202.986 221.887c9.465-9.808 36.445-35.383 85.577-64.742.028-.213.069-.426.137-.637.971-3.014.96-5.313-.032-6.472-1.006-1.173-3.21-1.52-4.872-1.259-11.29 1.787-30.028 14.15-36.879 22.641-.623.773-1.505 1.194-2.42 1.284-.487.481-.734.744-.744.755a1.94 1.94 0 0 1-1.899.564 1.9 1.9 0 0 1-.65-.322l-.01-.001c-.271-.063-6.671-1.614-9.254-7.682-2.169-5.091-.94-11.58 3.649-19.284a2.22 2.22 0 0 1 4.109 1.397c-.166 1.434-.222 4.893.815 7.576 1.623-6.646 5.255-11.908 10.736-15.329 4.862-3.035 9.6-3.961 14.079-2.754 4.35 1.173 7.458 4.112 9.322 6.401 2.833-1.08 5.554-1.867 8.036-2.26 3.351-.53 8.341.109 11.377 3.654 1.234 1.443 2.413 3.707 2.445 7.064a663 663 0 0 1 32.171-17.385c-.152-1.228-1.282-5.273-9.175-11.39a108 108 0 0 0-9.617-5.057c-8.169-3.791-17.564-5.635-27.207-5.635-15.174 0-30.968 4.563-43.607 13.282-26.001 17.938-39.655 40.243-40.582 66.293-.455 12.789 2.426 23.426 4.495 29.298"/><path fill="#FFFBE8" d="M437.779 26.915c4.205-.023 7.096-3.091 7.073-7.224l-.059-10.549-5.863.033.06 10.668c.005.938-.521 1.445-1.242 1.45-.721.003-1.252-.498-1.257-1.436l-.059-10.668-5.863.032.058 10.549c.023 4.133 2.947 7.168 7.152 7.145"/><path fill="#FFFBE8" d="M448.221 37.959c.024 4.349 2.851 7.193 7.129 7.169l5.718-.032-.027-4.902-6.728.038 6.976-3.09c-.021-3.677-2.463-6.451-6.212-6.43-4.156.023-6.88 2.922-6.856 7.247m6.686-3.281c.721-.004 1.179.306 1.399.857l-3.021 1.339c-.223-1.273.445-2.19 1.622-2.196"/><path fill="#FFFBE8" d="m460.903 15.253-5.479.03.063 11.342 5.479-.03z"/><path fill="#FFFBE8" d="M458.161 14.835a3.016 3.016 0 0 0 3.011-3.044 3.015 3.015 0 0 0-3.044-3.01 3.015 3.015 0 0 0-3.011 3.043 3.015 3.015 0 0 0 3.044 3.011"/><path fill="#FFFBE8" d="m467.308 9.017-5.479.03.098 17.541 5.478-.03z"/><path fill="#FFFBE8" d="m419.377 27.786.06 10.765c.006.937-.52 1.444-1.241 1.448s-1.253-.497-1.258-1.434l-.06-10.765-5.863.032.06 10.765c.005.937-.52 1.445-1.241 1.449s-1.253-.498-1.258-1.435l-.06-10.765-5.863.033.058 10.452c.022 3.94 3.356 7.07 7.224 7.049l8.218-.046c3.869-.021 7.167-3.187 7.145-7.128l-.058-10.453z"/><path fill="#FFFBE8" d="M438.981 35.68c-.014-2.644-1.996-4.58-4.639-4.565l-7.953.045.026 4.774 5.592-.03-1.959.858c-1.75.755-3.858 1.824-3.844 4.395.015 2.739 2.282 4.12 4.012 4.11l8.818-.049zM433.2 41.8c-.865.006-1.422-.688-1.426-1.553s.544-1.565 1.409-1.57 1.421.69 1.426 1.554-.544 1.565-1.409 1.57"/><path fill="#FFFBE8" d="m439.821 31.085.078 14.129 5.479-.03-.045-8.05c-.004-.818.593-1.422 1.41-1.426l1.225-.007-.025-4.661z"/><path fill="#FFFBE8" d="m462.029 45.09 5.479-.03-.047-8.362c-.003-.672.379-1.107.883-1.11.505-.003.892.428.896 1.1l.046 8.362 5.478-.03-.052-9.54c-.015-2.643-1.996-4.578-4.639-4.563l-2.644.014-.018-3.412-5.479.03z"/><path fill="#FFFBE8" d="m450.465 26.653 4.181-.024-.026-4.661-1.898.01a1.364 1.364 0 0 1-1.401-1.386l-.019-3.412 3.292-.018-.026-4.662-3.292.019-.019-3.412-5.479.03.072 12.951c.015 2.644 1.972 4.58 4.615 4.565"/><path fill="#FFFBE8" d="M496.478 39.133c.004.672-.378 1.107-.882 1.11-.505.003-.892-.428-.895-1.1l-.047-8.363-5.478.03.053 9.54c.014 2.643 1.995 4.579 4.639 4.564l8.121-.045-.078-14.129-5.479.03z"/><path fill="#FFFBE8" d="m520.034 44.769 5.719-.032-.027-4.902-6.728.038 6.975-3.09c-.02-3.677-2.463-6.45-6.211-6.43-4.157.023-6.88 2.922-6.856 7.247.024 4.349 2.851 7.193 7.128 7.169m-.442-10.45c.721-.004 1.179.306 1.398.857l-3.02 1.338c-.223-1.272.444-2.189 1.622-2.195"/><path fill="#FFFBE8" d="m502.758 44.865 5.382-.03c3.052-.017 4.743-2.718 3.454-5.498l-1.849-3.979 2.788-.015-.026-4.662-4.95.028c-3.052.017-4.743 2.717-3.454 5.498l1.849 3.978-3.22.018z"/><path fill="#FFFBE8" d="M481.941 30.563c-3.892.021-6.615 3.04-6.591 7.365.024 4.35 2.756 7.362 6.673 7.34 3.916-.022 6.591-3.064 6.567-7.413s-2.756-7.314-6.649-7.292m.027 9.155c-.865.005-1.422-.69-1.428-1.794-.006-1.106.543-1.806 1.408-1.81s1.422.688 1.428 1.794c.006 1.105-.543 1.805-1.408 1.81"/><path fill="#FFFBE8" d="m473.782 15.181-5.479.03.063 11.342 5.479-.03z"/><path fill="#FFFBE8" d="M471.04 14.764a3.015 3.015 0 0 0 3.011-3.045 3.015 3.015 0 0 0-3.044-3.01 3.015 3.015 0 0 0-3.011 3.044 3.014 3.014 0 0 0 3.044 3.01"/><path fill="#FFFBE8" d="m479.299 26.492 4.181-.023-.025-4.661-1.899.01a1.364 1.364 0 0 1-1.401-1.386l-.019-3.412 3.292-.018-.026-4.662-3.292.019-.019-3.412-5.478.03.072 12.951c.014 2.643 1.971 4.58 4.614 4.564"/><path fill="#FFFBE8" d="m488.935 26.439 1.009-.006-.87 3.441 5.407-.03 4.636-17.591-5.695.032-2.017 8.854c-.094.433-.381.626-.79.629-.408.002-.818-.26-.821-.813l-.048-8.65-5.479.03.053 9.54c.015 2.643 1.972 4.578 4.615 4.564"/></svg>