<svg xmlns="http://www.w3.org/2000/svg" width="580" height="580" fill="none" viewBox="0 0 580 580">
  <path
    fill="#FF7B00"
    d="M371.762 553.348c-2.456 1.012-4.912.751-7.353.753a167 167 0 0 1-7.32-.274c-3.932-.245-7.825-.596-11.724-1.116l.001 4.893c9.799 1.098 19.848 1.886 29.659 1.818.11-.067 4.179-.742 5.007-6.938.023-.171.287-2.893 2.694-2.893-.001-.003.524.016 1.404.051 1.198-6.217 6.128-13.276 7.884-15.64a11 11 0 0 0 1.161-1.95c.538-1.164 1.323-2.959 1.585-4.06a9.8 9.8 0 0 0 .113-3.938l-2.563-14.969a7.7 7.7 0 0 1-.006-1.934c-8.142.636-19.435-.605-27.906-1.539a433 433 0 0 0-5.245-.559 2.32 2.32 0 0 0-1.895.682 2.38 2.38 0 0 0-.686 1.838l4.039 21.41a2.5 2.5 0 0 1-1.247 2.651c-.456.256-9.059 5.224-11.973 16.174 5.658.605 13.456 1.416 17.256 1.771 1.677.297 8.904.047 7.839 3.073-.15.328-.416.569-.724.696"
  />
  <path
    fill="#F295FF"
    d="M501.231 444.098c-2.28-1.684-7.615-2.034-11.352-1.87 1.885 2.387 3.822 5.45 4.817 8.839 1.49.189 3.475.536 6.078 1.158 2.435.581 3.032.171 3.036.165.006-.006.564-.755-.263-4.101-.513-2.071-1.248-3.403-2.316-4.191"
  />
  <path
    fill="#000"
    d="M508.402 447.089c-.807-3.267-2.142-5.497-4.2-7.015-5.034-3.716-15.276-2.828-16.425-2.715-.64.064-2.614-.119-2.729-.216 3.561-11.084 5.026-24.512 2.042-40.335l-.022-.105c4.599-16.533 5.264-34.057-8.595-46.393-10.028-8.485-22.361-13.296-34.218-18.462-6.984-2.723-13.826-5.819-20.993-7.947 3.331-4.995 6.003-10.455 7.808-16.215.296-.958.561-1.926.809-2.899.333-.537 1.178-1.585 2.909-1.969q.209-.047.388-.096c8.667-.763 17.137-4.52 22.787-11.279 4.747-5.883 6.211-13.711 6.111-21.173-.267-6.015-2.083-11.643-4.52-17.036-1.775-4.135-2.116-8.505-2.651-13.116-.57-3.439-.25-11.904-5.944-10.427-3.408 1.4-6.798 2.849-10.221 4.209a522 522 0 0 1-12.273 4.757l-19.031-14.545a11.9 11.9 0 0 0-4.477-2.124l-81.866-19.57a8.27 8.27 0 0 0-6.793 1.342 8 8 0 0 0-1.789 1.794q-1.411-1.326-2.844-2.628l-1.653-1.508-.316-.269c-1.596-1.368-3.919-.742-4.903.96-1.632 2.891-2.062 5.773-3.338 8.673-2.013 5.715-6.66 8.903-10.193 13.495-6.729 8.184-12.766 19.427-10.09 30.472 1.6 5.514 4.467 10.521 8.091 14.917-.413.496-1.295 2.174-1.431 2.456-3.058 6.329-4.295 16.675-.164 25.52a26 26 0 0 0 2.921 4.792c.917 4.27 2.43 8.447 4.753 12.251.431.706.967 1.343 1.371 2.061 1.069 1.899-.268 2.783-1.306 2.874-6.78.596-15.458-.398-20.061-.547-3.567-.115-5.292-4.02-7.707-10.437-2.429-6.45-5.181-13.761-12.377-16.002-2.176-.677-6.607-1.191-11.848-1.269a15.6 15.6 0 0 0-4.318-1.754L227.92 178.944a5 5 0 0 0-.415-1.501c.46-.068.918-.132 1.379-.201 76.359-11.413 138.292-28.938 147.262-41.669 1.177-1.671 1.629-3.357 1.36-5.013l-.012-.084c-.006-.038-.008-.075-.015-.112-.096-.487-.23-1.154-.66-1.917-13.853-38.678-39.483-70.413-72.328-89.475-29.845-17.32-64.4-23.632-101.17-18.701-.312-1.717-1.217-3.392-2.515-4.539-1.636-1.444-3.808-2.024-6.114-1.633-3.909.663-5.93 5.544-6.066 8.636-.001.027.004.05.003.076-4.201.891-8.426 1.92-12.672 3.097-55.974 15.522-81.526 55.547-93.105 86.39-11.123 29.631-11.814 55.981-11.808 62.28a5.8 5.8 0 0 0 .062 1.816c.521 2.637 2.08 10.552 46.707 10.552q1.42 0 2.899-.01c26.696-.197 60.858-3.065 97.164-8.112a5 5 0 0 0-.022 1.136l11.065 109.572c-4.52.828-8.862 2.591-12.079 4.514-1.619.968-2.952 1.962-4.005 2.959a36 36 0 0 1-.132-1.818c-.125-2.792-2.536-4.951-5.281-4.827a5.06 5.06 0 0 0-4.826 5.282c.43 9.555 3.633 17.136 9.019 21.345a16.5 16.5 0 0 0 5.495 2.821q.666 1.27 1.337 2.534c1.731 3.267 3.366 6.353 4.487 8.978 9.77 22.879 23.453 35.68 39.569 37.019 7.753.645 16.502.839 24.222.839q1.885 0 3.675-.015c-1.562 6.251-2.44 12.659-2.769 18.856-1.17 15.538 1.927 31.287 8.173 45.512 9.767 24.089 29.821 43.912 54.516 52.377a96 96 0 0 0 5.271 1.672c.091.816.714 6.391 1.358 12.738a7.36 7.36 0 0 0-5.344 7.85q.01.105.03.209l3.749 19.874c-3.237 2.252-10.52 8.371-13.057 19.153-1.103.25-1.971 1.233-1.961 2.43v10.005c-.003.29.05.57.142.833-12.391.104-24.78-.009-37.176.757a1.361 1.361 0 0 0-.023 2.715c13.42 1.053 26.848 1.069 40.273 1.453 5.011.134 15.13.333 20.14.401 33.371.223 67.418 1.976 100.712.028 2.358-.223 2.26-3.575.032-3.809-3.01-.226-6.028-.412-9.05-.582l.099-8.818c-.002-.605-.189-1.097-.511-1.499l2.551-44.708a3 3 0 0 0 .003-.226 7.5 7.5 0 0 0-2.801-5.604c-.075-.06-.156-.11-.234-.168.192-8.915.242-17.285.142-22.957a75 75 0 0 0 3.477-2.474c2.129-1.615 5.369-4.311 8.949-8.075 2.524 2.576 5.648 4.21 9.184 4.664q1.13.145 2.243.145c4.044 0 7.871-1.425 10.959-4.117 3.46-3.015 5.66-7.409 5.865-11.581 1.128.184 2.532.458 4.271.873.631.151 1.88.45 3.277.449 1.517 0 3.208-.352 4.472-1.625 2.312-2.332 1.701-6.153 1.04-8.825M78.149 150.338l1.096.652a1.62 1.62 0 0 0 2.222-.565 1.62 1.62 0 0 0-.565-2.222l-2.19-1.301q.335-1.935.725-3.955l3.142 1.763a1.662 1.662 0 0 0 1.625-2.899l-3.173-1.78a1.65 1.65 0 0 0-.962-.204c.467-2.207.994-4.481 1.575-6.799l.728-1.291a4.107 4.107 0 0 1 5.587-1.559l1.236.698a4.08 4.08 0 0 1 1.937 2.471 4.08 4.08 0 0 1-.378 3.116l-13.368 23.71c-.162.286-.36.537-.575.769.307-3.155.738-6.722 1.337-10.604m17.67-1.902a4.07 4.07 0 0 1 2.091 2.343 4.08 4.08 0 0 1-.18 3.135l-.616 1.277a4.106 4.106 0 0 1-5.476 1.911l-5.745-2.773 4.736-8.398zm24.856 33.499c-33.635.245-43.825-3.99-44.622-6.38-.01-.94-.016-4.2.311-9.148a8.58 8.58 0 0 0 4.977-4.004l2.317-4.11 6.005 2.899a8.6 8.6 0 0 0 3.743.858c3.215-.001 6.309-1.801 7.798-4.886l.617-1.277a8.6 8.6 0 0 0 .377-6.605 8.6 8.6 0 0 0-4.404-4.936l-4.93-2.379 1.845-3.273a8.6 8.6 0 0 0 .797-6.567 8.58 8.58 0 0 0-4.08-5.206l-1.236-.698a8.6 8.6 0 0 0-6.459-.821 171 171 0 0 1 3.861-11.504c7.128-18.93 17.192-35.217 29.913-48.411 14.547-15.089 32.664-26.158 53.902-32.984-32.916 25.894-36.344 81.407-34.486 120.041.341 5.135.531 10.301 1.32 15.391.358 1.693.87 3.362 1.875 4.979a1.21 1.21 0 0 0 2.196-.311c1.075-3.433.623-6.762.338-10.207a294 294 0 0 1-.626-10.104 301 301 0 0 1-.242-20.241c1.229-37.197 7.982-86.502 45.737-103.813.07-.033.124-.074.188-.11 3.482-.779 16.071-2.63 16.401-2.63a78 78 0 0 1 10.644.925c40.897 7.006 63.612 47.556 77.167 83.241a277 277 0 0 1 6.82 20.873c1 3.523 1.94 7.064 2.799 10.621.824 3.568 1.639 7.119 3.807 10.412.586 1.037 2.255.737 2.478-.42.861-3.989.086-7.665-.796-11.296a287 287 0 0 0-9.552-32.229c-12.479-34.43-34.286-72.69-70.848-84.043 74.234-.327 125.589 49.655 145.943 107.825.036.422-.296.979-.512 1.285-1.753 2.489-9.755 9.377-46.1 19.568-26.677 7.48-61.414 14.596-97.812 20.036-40.151 6.002-78.318 9.425-107.471 9.639m196.905 27.971c.078-.987.574-1.86 1.398-2.458a3.7 3.7 0 0 1 3.052-.596l81.866 19.569a7.3 7.3 0 0 1 2.77 1.313l16.716 12.776a287 287 0 0 1-11.623 3.874c-1.419.471-2.865.847-4.298 1.26l-5.341-1.334a2.286 2.286 0 0 0-2.685 1.406c-.024.066-2.533 6.62-7.209 12.321-5.898 7.192-12.379 9.739-19.272 7.56-4.566-1.441-15.44-7.648-17.805-34.084a3.14 3.14 0 0 0-3.142-2.851c-1.24 0-2.381.726-2.883 1.885-2.509 5.78-9.325 18.927-18.322 16.212-7.599-2.294-14.978-14.806-13.222-36.853m-30.392 47.405c-5.093-10.428.973-21.759 7.714-30.074 1.805-2.227 3.751-4.365 5.769-6.459 4.022-4.152 5.541-9.437 7.277-14.63q.064-.18.133-.361a291 291 0 0 1 4.914 4.459c-.617 8.759.253 17.403 2.485 24.412.68 2.131 1.478 4.074 2.384 5.83-5.131 3.533-9.71 8.063-13.5 13.816-2.267 3.149-4.232 6.948-5.727 10.438-1.101 1.36-3.112 1.969-4.974 2.57a42.4 42.4 0 0 1-6.475-10.001m4.776 38.324c-3.473-7.435-2.434-16.131.138-21.451a1.48 1.48 0 0 1 1.336-.822q.23 0 .459.072l48.845 15.462c.346.11.574.298.718.596.24.493.225 1.236-.039 1.938-3.33 8.854-12.116 22.902-33.528 17.51-8.81-2.22-14.842-6.696-17.929-13.305m-76.856 6.392c.707-1.677 6.484-5.989 14.357-7.525 3.866-.754 10.871-1.234 14.356 4.025 2.013 3.036 1.847 4.523 1.646 4.881l-17.299 9.067c-1.089.555-3.992-1.201-5.117-2.326 0 0-7.736-7.814-7.943-8.122m149.539 247.552c-3.801-.355-11.599-1.166-17.257-1.771 2.914-10.95 11.518-15.919 11.973-16.175a2.5 2.5 0 0 0 1.247-2.65l-4.039-21.411a2.37 2.37 0 0 1 .687-1.837 2.32 2.32 0 0 1 1.894-.682c1.511.146 3.289.343 5.245.559 8.472.934 19.765 2.174 27.907 1.539a7.8 7.8 0 0 0 .005 1.934l2.563 14.969a9.8 9.8 0 0 1-.112 3.938c-.262 1.101-1.047 2.896-1.585 4.06a11 11 0 0 1-1.162 1.95c-1.755 2.364-6.685 9.423-7.884 15.639a91 91 0 0 0-1.404-.05c-2.406 0-2.67 2.722-2.693 2.892-.828 6.197-4.898 6.872-5.008 6.939-9.811.068-19.859-.72-29.659-1.818v-4.893c3.898.52 7.791.871 11.724 1.116 2.435.14 4.876.241 7.319.274 2.442-.002 4.897.259 7.353-.753.309-.128.574-.369.724-.696 1.065-3.026-6.161-2.776-7.838-3.073m-3.522-57.407c2.692.443 11.671 1.779 23.511 2.065 9.054.218 11.71.894 12.577 1.969.157 1.443.329 3.052.51 4.756-.873.223-3.24.922-3.682.984-7.57 1.071-20.523-.359-29.095-1.304a848 848 0 0 0-2.97-.325c-.303-3.005-.603-5.849-.851-8.145m39.217 68.748a253 253 0 0 1-15.12-1.078v-5.174c7.002.239 13.994.35 20.996.398 6.948-.127 16.783.286 23.605-.643 1.565-.221 1.574-2.525-.006-2.747-3.92-.539-7.834-.581-11.752-.705l-11.748-.437c-.019.007-10.131-.408-17.109-.69 2.453-11.084 10.327-15.879 10.738-16.122a2.5 2.5 0 0 0 1.211-2.584l-3.904-22.798a2.28 2.28 0 0 1 .613-1.89 2.3 2.3 0 0 1 1.859-.712c10.787.84 33.401 1.449 49.741-1.59.773-.145 1.56.05 2.16.53.553.444.881 1.073.929 1.778l-2.474 43.347c-2.989-.025-6.362.703-7.731 1.282-1.699.598-1.452 3.237.381 3.462 2.56.336 5.235.371 7.765.527l-.051 4.593c-16.638 1.29-33.425 1.826-50.103 1.253m58.113-92.448c-1.263.71-3.061.795-4.526.683-.397-.03-.793-.093-1.163-.242a2.46 2.46 0 0 0-1.345-.144 2.5 2.5 0 0 0-2.027 2.897c.409 2.318.455 13.754.149 27.453a8 8 0 0 0-.991.113c-14.613 2.719-34.532 2.414-45.802 1.705-.534-5.071-1.016-9.385-1.203-11.051.78-.137 1.561-.273 2.338-.428 2.514-.584 4.973-1.42 7.302-2.625.368-.192.625-.575.634-1.02a1.15 1.15 0 0 0-.238-.698 1.15 1.15 0 0 0-.912-.499c-.159-.001-.314.01-.471.011-2.402.021-4.742.313-7.1.625-37.074 6.967-76.276-7.502-95.97-40.505-10.061-16.881-16.039-36.638-14.507-56.4 1.41-20.882 8.182-37.572 22.044-53.19.039-.044.074-.089.113-.133.837-.988-.379-2.341-1.465-1.671-8.605 5.766-14.659 14.058-18.734 23.386a5.9 5.9 0 0 1-1.082 1.673q-.32.341-.661.655c-4.465 4.118-11.43 4.952-16.05 4.992-1.09-.027-10.667-.436-13.871-.702-17.88-1.486-29.111-19.31-35.385-34.001-.424-.991-.91-2.03-1.438-3.105-.67-1.365-.534-2.994.393-4.2.574-.746 8.589-7.551 9.727-8.148l11.836-6.204.115-.064c.288-.171 1.753-1.135 2.256-3.335.502-2.191-.149-4.779-1.91-7.695 2.306.181 4.163.461 5.265.803 4.864 1.515 7.059 7.348 9.183 12.99 2.372 6.3 5.06 13.441 12.225 13.672 5.658.183 17.405.482 24.357.655.254.103.685.276 1.245.497 3.167 1.244 10.636 4.056 15.907 5.057l.013.002c4.277 1.151 8.747 1.56 13.142 1.089.821-.106 1.202-.797 1.164-1.461-.034-.613-.423-1.203-1.187-1.287-13.513-1.472-24.249-6.264-30.339-15.679-.292-.452-.192-1.083.263-1.369.462-.29 1.302-.458 2.826-.11a41 41 0 0 0 6.16 2.073c3.743.943 7.152 1.361 10.26 1.361 18.42-.002 26.187-14.68 28.864-21.799.728-1.935.679-4.005-.133-5.679-.711-1.463-1.973-2.544-3.552-3.044l-44.984-14.24c1.266-.654 2.42-1.51 3.318-2.761 1.102-1.703 1.312-2.993 2.168-4.526a65 65 0 0 1 3.614-5.834 45.4 45.4 0 0 1 8.394-9.434l.009.005s3.231-1.939 5.305-1.17c1.323 1.383 2.773 2.508 4.336 3.37l-.086.066c-1.236 1.038-.107 3.138 1.457 2.648.056-.015 1.547-.46 1.643-.487.667-.2 1.37-.35 2.068-.476 5.804.845 11.48-2.397 16.388-9.236.897-.899 3.39-2.941 4.538.718.791 3.487 1.896 7.206 3.439 10.761-.198-.031-.394-.067-.593-.091-1.605-.173-2.338 2.096-.901 2.885.831.468 1.998 1.131 2.772 1.65.655.365 1.229.938 1.815 1.403 3.032 4.702 7.138 8.56 12.707 10.318 2.082.658 4.084.957 6.003.957 12.122-.001 24.919-20.937 24.919-20.937 1.547.407 4.331-.3 5.323-.471 11.754-3.043 23.204-7.152 34.54-11.441 3.015-1.14 6.008-2.333 9.004-3.519.488 1.846.587 4.095.818 6.068.436 4.293.861 8.988 2.387 13.271 2.247 5.258 4.382 10.87 4.543 16.598.039 6.074-1.096 12.899-5.085 17.76-6.091 7.323-16.361 10.445-25.713 9.496-6.37-.616-12.458-3.077-17.734-7.059-1.394-1.057-3.181.819-2.023 2.166 2.427 2.786 10.061 7.588 10.62 7.758 1.437.576 3.858 1.852 5.054 4.23.872 1.734.956 3.799.267 6.153a59.3 59.3 0 0 1-4.885 9.356c-1.159 1.22-2.031 1.766-2.608 2.008a56 56 0 0 0-1.839-.334c-1.391-.239-2.107 1.447-1.356 2.365.109.134.25.253.424.346.113.063.227.121.339.183 4.388 2.425 8.988 4.263 13.622 5.99a466 466 0 0 1 14.129 5.594c11.445 5.018 23.259 9.651 32.864 17.482 18.335 16.316 7.998 43.107.33 62.402-3.294 8.92-16.512 5.949-23.203 2.537a31 31 0 0 1-2.539-1.468c.036-.084.079-.162.108-.255.527-1.703 1.156-4.298 1.618-6.066.505-2.091 1.179-4.004 1.208-6.22a1.25 1.25 0 0 0-2.091-.983c-2.672 2.739-3.976 6.646-4.861 10.392-1.467-1.407-2.722-2.976-3.609-4.713-5.359-9.724 7.007-21.382-.29-28.206-1.142-1.047-2.647-1.687-3.94-2.208-1.157-.493-4.084-1.69-5.299-2.189l-7.077-2.887c-4.767-1.807-9.294-4.198-14.542-4.834a1 1 0 0 0-.313.008c-.845.136-1.245 1.358-.481 1.919 3.361 2.634 7.191 4.126 10.986 5.703.905.376 1.809.755 2.703 1.158l11.252 4.719c3.941 2.325 3.469 3.888 1.729 9.592-.299.98-.631 2.07-.982 3.293-1.668 5.79-.407 10.74 2.239 14.858 2.373 5.257 7.269 9.445 12.373 11.942 2.443 1.288 5.408 2.391 8.51 3.078l1.589.315c7.988 1.368 16.461-.25 19.165-8.815a321 321 0 0 0 1.954-4.813c.056-.077.931-1.249 1.634-.778.104.07.194.147.283.225.664 30.081-16.049 48.839-25.193 56.801m27.734-4.445c-1.812 1.58-4.885 3.345-9.278 2.782-2.794-.359-4.891-1.737-6.466-3.449a81 81 0 0 0 3.387-4.323c1.078.731 3.423 1.523 4.887 1.378 1.692-.168 3.45-1.525 4.069-2.656.885-1.617.933-2.973.728-3.797-.415-1.662-1.837-3.128-3.74-4.394a76 76 0 0 0 3.419-7.319c2.435 2.417 7.231 7.885 7.181 13.408-.026 2.89-1.669 6.176-4.187 8.37m17.622-11.637c-.005.006-.602.416-3.037-.165-2.603-.622-4.588-.969-6.078-1.158-.995-3.389-2.932-6.452-4.817-8.839 3.737-.164 9.072.186 11.352 1.87 1.068.788 1.803 2.12 2.316 4.191.827 3.346.269 4.095.264 4.101"
  />
  <path
    fill="#F295FF"
    d="M479.776 449.568c1.903 1.266 3.325 2.733 3.74 4.395.205.823.157 2.179-.728 3.796-.619 1.132-2.377 2.489-4.069 2.656-1.464.145-3.809-.647-4.887-1.378a81 81 0 0 1-3.387 4.323c1.575 1.713 3.672 3.09 6.466 3.449 4.393.563 7.466-1.202 9.278-2.781 2.518-2.195 4.161-5.48 4.187-8.37.05-5.524-4.746-10.992-7.181-13.409a76 76 0 0 1-3.419 7.319"
  />
  <path
    fill="#FF7B00"
    d="M325.958 152.26c36.345-10.19 44.347-17.079 46.1-19.567.216-.307.547-.864.512-1.286-20.354-58.17-71.709-108.152-145.943-107.825 36.562 11.354 58.369 49.612 70.848 84.043a287 287 0 0 1 9.552 32.229c.882 3.631 1.656 7.307.796 11.296-.223 1.158-1.892 1.457-2.478.42-2.168-3.292-2.983-6.844-3.807-10.412a277 277 0 0 0-2.799-10.621 277 277 0 0 0-6.82-20.873c-13.555-35.685-36.27-76.235-77.167-83.241a78 78 0 0 0-10.644-.925c-.33 0-12.919 1.851-16.402 2.63-.063.036-.117.077-.187.11-37.755 17.311-44.508 66.616-45.737 103.813a301 301 0 0 0 .242 20.241q.226 5.059.626 10.104c.285 3.445.736 6.774-.338 10.207a1.213 1.213 0 0 1-2.196.311c-1.006-1.617-1.517-3.286-1.875-4.979-.789-5.09-.979-10.256-1.32-15.391-1.858-38.634 1.57-94.147 34.485-120.04-21.237 6.825-39.354 17.894-53.901 32.983-12.722 13.194-22.785 29.482-29.913 48.411a171 171 0 0 0-3.86 11.504 8.6 8.6 0 0 1 6.458.821l1.236.698a8.58 8.58 0 0 1 4.08 5.206 8.6 8.6 0 0 1-.797 6.567l-1.845 3.273 4.93 2.38a8.58 8.58 0 0 1 4.403 4.936 8.58 8.58 0 0 1-.377 6.604l-.616 1.277a8.66 8.66 0 0 1-7.798 4.886 8.6 8.6 0 0 1-3.743-.858l-6.005-2.899-2.317 4.11a8.57 8.57 0 0 1-4.977 4.004c-.327 4.948-.322 8.208-.311 9.148.797 2.39 10.986 6.625 44.622 6.38 29.153-.214 67.32-3.637 107.47-9.638 36.399-5.441 71.136-12.557 97.813-20.037"
  />
  <path
    fill="#000"
    d="M354.359 72.187c2.407-1.15 4.745-2.406 7.059-3.7 2.318-1.285 4.602-2.628 6.764-4.163a2.534 2.534 0 0 0-2.716-4.268c-4.589 2.675-8.827 5.876-12.976 9.194a1.754 1.754 0 0 0 1.869 2.936"
  />
  <path
    fill="#000"
    d="M359.186 79.578c-1.451.71-1.125 3.002.494 3.256 2.02.39 4.762-.105 6.783-.255 2.236-.245 4.469-.52 6.686-.896 3.223-.624 2.506-5.363-.758-5.001-2.23.298-4.444.698-6.652 1.127-1.967.453-4.75.8-6.553 1.769"
  />
  <path
    fill="#000"
    d="M344.457 62.357a2.53 2.53 0 0 0 3.23-1.536l1.706-4.8a2.53 2.53 0 0 0-4.766-1.695l-1.706 4.8a2.53 2.53 0 0 0 1.536 3.231"
  />
  <path
    fill="#000"
    d="M135.485 33.88a1.753 1.753 0 0 0 3.201-1.366c-.742-2.562-1.6-5.073-2.5-7.567-.891-2.497-1.845-4.968-3.006-7.352a2.534 2.534 0 0 0-4.653 1.985c1.892 4.963 4.36 9.666 6.958 14.3"
  />
  <path
    fill="#000"
    d="M146.765 28.955c.464 1.546 2.779 1.599 3.294.043.713-1.93.671-4.716.852-6.735.123-2.246.215-4.493.205-6.742a2.529 2.529 0 0 0-5.058-.066 76 76 0 0 0-.033 3.372c0 1.964.114 4.758.2 6.749.058 1.125.173 2.25.54 3.38"
  />
  <path
    fill="#000"
    d="m119.48 39.21 4.459 2.464a2.53 2.53 0 0 0 2.447-4.428l-4.459-2.465a2.53 2.53 0 0 0-2.447 4.428"
  />
  <path
    fill="#F295FF"
    d="M394.041 501.946c.442-.062 2.81-.761 3.682-.984-.181-1.704-.353-3.313-.51-4.756-.867-1.076-3.523-1.751-12.577-1.969-11.84-.286-20.819-1.622-23.511-2.065.248 2.295.548 5.14.851 8.145q1.4.15 2.97.325c8.573.945 21.525 2.375 29.095 1.304"
  />
  <path
    fill="#F295FF"
    d="M298.637 264.742c1.495-3.49 3.46-7.289 5.727-10.438 3.79-5.753 8.369-10.283 13.5-13.816-.906-1.756-1.704-3.699-2.384-5.83-2.232-7.009-3.102-15.653-2.485-24.412a287 287 0 0 0-4.914-4.459q-.069.18-.133.361c-1.736 5.193-3.255 10.478-7.277 14.629-2.018 2.095-3.964 4.233-5.769 6.46-6.741 8.315-12.807 19.646-7.714 30.074a42.4 42.4 0 0 0 6.475 10c1.862-.6 3.873-1.209 4.974-2.569"
  />
  <path
    fill="#DB00F8"
    d="M343.421 291.43c.264-.702.279-1.445.039-1.938-.144-.298-.372-.486-.718-.596l-48.845-15.462a1.5 1.5 0 0 0-.459-.072 1.48 1.48 0 0 0-1.336.822c-2.572 5.32-3.611 14.016-.138 21.451 3.087 6.609 9.119 11.085 17.929 13.305 21.412 5.392 30.198-8.656 33.528-17.51m-26.378 3.054c1.033-3.06 1.849-5.475 3.659-6.322.762-.357 1.603-.377 2.428-.056 3.348 1.301 2.102 4.968 1.004 8.203l-.172.509q-.18.535-.344 1.041c-.818 2.506-1.814 5.555-4.457 5.555q-.518.002-1.124-.164a2.77 2.77 0 0 1-1.743-1.407c-.753-1.42-.536-3.552.749-7.359m-8.862-2.993c-1.28 3.791-2.39 5.614-3.833 6.293a2.9 2.9 0 0 1-1.225.281q-.516 0-1.022-.193c-3.348-1.282-1.899-5.579-.84-8.716 1.161-3.441 2.479-7.343 5.906-6.436.843.223 1.498.731 1.894 1.468.906 1.684.24 3.986-.88 7.303"
  />
  <path
    fill="#000"
    d="M346.456 268.619a1.5 1.5 0 0 0-.637 2.932c.554.122 2.04.601 2.906 1.389-1.867-.739-3.873-1.423-4.832-1.349a1.515 1.515 0 0 0-1.406 1.605 1.49 1.49 0 0 0 1.586 1.389c.689.02 3.641 1.133 5.965 2.161a1.5 1.5 0 0 0 2.019-.867c.482-1.351.399-2.673-.243-3.827-1.397-2.513-4.957-3.346-5.358-3.433"
  />
  <path
    fill="#000"
    d="M307.167 282.72c-3.427-.907-4.745 2.994-5.906 6.436-1.059 3.137-2.508 7.433.84 8.716a2.8 2.8 0 0 0 1.022.193c.414 0 .827-.094 1.225-.281 1.443-.679 2.553-2.502 3.833-6.293 1.12-3.318 1.786-5.619.881-7.303-.397-.737-1.052-1.245-1.895-1.468"
  />
  <path
    fill="#000"
    d="M318.037 303.25c.405.112.778.164 1.124.164 2.643 0 3.639-3.048 4.457-5.555q.164-.506.344-1.04l.172-.51c1.098-3.235 2.344-6.902-1.004-8.203-.825-.321-1.666-.301-2.428.056-1.81.847-2.626 3.263-3.659 6.322-1.285 3.807-1.502 5.939-.749 7.359a2.77 2.77 0 0 0 1.743 1.407"
  />
  <path
    fill="#000"
    d="M387.5 293.903c-1.423 3.753-5.148 6.18-8.709 8.083-3.056 1.56-6.15 3.152-9.303 4.462-.944.413-1.875.808-2.45 1.28-.607.498-1.014 1.056-1.2 1.426-.358.714-.076 1.602.607 1.905q.15.067.32.093c1.465.269 2.762.118 4.145-.227 3.699-.914 7.153-2.448 10.423-4.344 4.523-2.675 9.646-6.935 9.82-12.704-.076-2.413-3.615-2.377-3.653.026"
  />
  <path
    fill="#FF7B00"
    d="M330.802 246.759c8.997 2.715 15.813-10.432 18.322-16.212a3.14 3.14 0 0 1 3.39-1.845 3.14 3.14 0 0 1 2.635 2.811c2.365 26.436 13.239 32.643 17.805 34.084 6.893 2.179 13.374-.368 19.273-7.56 4.675-5.701 7.184-12.255 7.209-12.321a2.284 2.284 0 0 1 2.684-1.406l5.341 1.334c1.433-.413 2.879-.789 4.298-1.26a287 287 0 0 0 11.623-3.874l-16.716-12.776a7.3 7.3 0 0 0-2.769-1.313l-81.867-19.569a3.7 3.7 0 0 0-3.052.596c-.824.598-1.32 1.471-1.398 2.458-1.756 22.047 5.623 34.559 13.222 36.853m27.955-25.433a1.14 1.14 0 0 1 1.408-1.096l38.727 9.394c.301.073.559.265.716.532.156.268.196.587.112.885-.375 1.327-8.819 30.618-23.149 30.618a11 11 0 0 1-2.919-.401c-10.531-2.877-15.069-22.129-14.895-39.932m-37.305-10.256a1.14 1.14 0 0 1 1.412-.905l25.783 6.779c.602.158.965.769.817 1.373-.191.777-4.752 19.081-12.371 23.469-1.145.659-2.31.99-3.48.99q-.913 0-1.828-.269c-6.958-2.041-13.839-11.499-10.333-31.437"
  />
  <path
    fill="#000"
    d="M331.785 242.507q.916.269 1.828.269c1.17 0 2.335-.331 3.48-.99 7.619-4.388 12.18-22.691 12.371-23.468a1.14 1.14 0 0 0-.817-1.374l-25.783-6.779a1.137 1.137 0 0 0-1.412.905c-3.506 19.939 3.375 29.396 10.333 31.437m-1.208-18.869c3.673 1.779 6.55-6.083 6.55-6.083l5.162.79s-2.869 11.419-7.831 10.939-4.93 7.996-6.379 6.709c-3.389-3.008-3.91-7.786-3.91-7.786s2.735-6.348 6.408-4.569"
  />
  <path
    fill="#000"
    d="M373.651 261.258c1 .273 1.972.401 2.92.401 14.329 0 22.774-29.291 23.149-30.618a1.14 1.14 0 0 0-.828-1.417l-38.727-9.394a1.14 1.14 0 0 0-1.408 1.096c-.174 17.803 4.364 37.055 14.894 39.932m-.552-24.818c4.326 2.095 7.716-7.166 7.716-7.166l6.08.931s-3.379 13.451-9.224 12.885c-5.846-.565-5.807 9.419-7.514 7.903-3.991-3.543-4.605-9.172-4.605-9.172s3.221-7.476 7.547-5.381"
  />
  <path
    fill="#423E3E"
    d="M328.079 235.993c1.449 1.287 1.417-7.189 6.379-6.709s7.831-10.939 7.831-10.939l-5.162-.79s-2.877 7.862-6.55 6.083-6.408 4.569-6.408 4.569.521 4.778 3.91 7.786"
  />
  <path
    fill="#423E3E"
    d="M370.157 250.993c1.707 1.516 1.668-8.468 7.514-7.903 5.845.565 9.224-12.885 9.224-12.885l-6.08-.931s-3.39 9.261-7.716 7.166-7.547 5.381-7.547 5.381.614 5.629 4.605 9.172"
  />
  <path
    fill="#FF7B00"
    d="M450.496 555.074c-2.53-.156-5.206-.191-7.765-.527-1.833-.225-2.08-2.864-.381-3.462 1.369-.579 4.742-1.307 7.731-1.282l2.474-43.347a2.47 2.47 0 0 0-.929-1.778 2.66 2.66 0 0 0-2.16-.53c-16.34 3.039-38.954 2.43-49.741 1.59a2.3 2.3 0 0 0-1.859.712 2.28 2.28 0 0 0-.613 1.89l3.904 22.798a2.5 2.5 0 0 1-1.211 2.584c-.411.243-8.285 5.038-10.738 16.122 6.977.282 17.09.697 17.108.69l11.748.437c3.919.123 7.833.166 11.753.705 1.58.222 1.571 2.526.006 2.747-6.822.929-16.658.516-23.605.643-7.002-.048-13.994-.159-20.996-.398v5.174c5.013.517 10.059.861 15.12 1.078 16.678.573 33.464.037 50.103-1.253z"
  />
  <path
    fill="#F295FF"
    d="M483.647 411.671a3 3 0 0 0-.283-.225c-.702-.472-1.578.701-1.634.778a321 321 0 0 1-1.953 4.812c-2.704 8.566-11.177 10.184-19.165 8.816l-1.589-.315c-3.103-.687-6.067-1.79-8.511-3.078-5.104-2.498-9.999-6.685-12.373-11.942-2.645-4.119-3.906-9.068-2.239-14.859.352-1.222.684-2.312.983-3.292 1.739-5.704 2.211-7.268-1.729-9.593l-11.253-4.718c-.894-.403-1.797-.782-2.703-1.159-3.795-1.577-7.624-3.068-10.985-5.703-.765-.56-.365-1.782.48-1.918a1 1 0 0 1 .313-.008c5.248.635 9.775 3.027 14.542 4.834l7.078 2.887c1.215.498 4.141 1.696 5.298 2.189 1.294.521 2.798 1.161 3.94 2.207 7.298 6.825-5.069 18.483.29 28.207.888 1.737 2.142 3.305 3.609 4.713.885-3.746 2.19-7.654 4.861-10.392a1.25 1.25 0 0 1 2.092.983c-.029 2.216-.704 4.129-1.208 6.22-.463 1.768-1.091 4.362-1.618 6.066-.03.093-.072.171-.109.255a32 32 0 0 0 2.54 1.468c6.69 3.411 19.908 6.383 23.203-2.537 7.668-19.295 18.005-46.086-.331-62.403-9.604-7.83-21.419-12.463-32.863-17.481a468 468 0 0 0-14.129-5.594c-4.635-1.727-9.235-3.565-13.623-5.991-.112-.062-.226-.12-.338-.183a1.4 1.4 0 0 1-.425-.345c-.75-.918-.034-2.604 1.357-2.366q.924.153 1.839.335c.576-.242 1.448-.788 2.608-2.008a59.4 59.4 0 0 0 4.885-9.356c.689-2.354.605-4.42-.268-6.153-1.195-2.378-3.616-3.654-5.054-4.23-.558-.17-8.193-4.973-10.619-7.758-1.159-1.347.629-3.224 2.023-2.167 5.276 3.983 11.364 6.444 17.734 7.06 9.351.949 19.622-2.173 25.713-9.496 3.988-4.862 5.123-11.686 5.085-17.76-.162-5.728-2.296-11.34-4.543-16.598-1.526-4.283-1.951-8.978-2.387-13.271-.231-1.973-.33-4.222-.819-6.068-2.995 1.186-5.988 2.379-9.003 3.519-11.336 4.289-22.786 8.398-34.54 11.441-.992.171-3.777.877-5.323.471 0 0-12.797 20.936-24.919 20.936-1.919 0-3.921-.298-6.003-.956-5.57-1.758-9.675-5.616-12.707-10.318-.586-.465-1.16-1.038-1.815-1.403-.774-.519-1.941-1.183-2.772-1.65-1.437-.789-.704-3.058.9-2.885.199.024.395.059.593.091-1.542-3.555-2.647-7.275-3.438-10.761-1.148-3.659-3.641-1.617-4.539-.718-4.908 6.839-10.584 10.08-16.388 9.236-.697.126-1.4.276-2.067.476-.096.027-1.588.472-1.643.487-1.565.49-2.693-1.61-1.458-2.648l.087-.066c-1.563-.863-3.013-1.987-4.336-3.37-2.074-.769-5.305 1.17-5.305 1.17l-.01-.005a45.4 45.4 0 0 0-8.393 9.434 65 65 0 0 0-3.615 5.834c-.856 1.533-1.065 2.823-2.167 4.526-.899 1.251-2.053 2.107-3.318 2.761l44.984 14.24c1.579.5 2.84 1.581 3.551 3.044.813 1.673.862 3.743.133 5.679-2.677 7.119-10.443 21.797-28.863 21.799-3.108 0-6.518-.418-10.261-1.361a41 41 0 0 1-6.159-2.073c-1.525-.349-2.364-.181-2.826.11-.455.286-.556.917-.264 1.369 6.091 9.414 16.826 14.207 30.34 15.679.763.084 1.152.674 1.187 1.287.038.664-.343 1.355-1.164 1.46-4.395.472-8.865.063-13.143-1.088l-.012-.002c-5.271-1.001-12.74-3.813-15.907-5.058-.561-.22-.991-.393-1.246-.496-6.951-.173-18.698-.472-24.357-.655-7.165-.231-9.852-7.372-12.224-13.672-2.124-5.642-4.319-11.476-9.184-12.99-1.101-.343-2.958-.622-5.264-.803 1.76 2.916 2.412 5.503 1.91 7.695-.503 2.2-1.968 3.164-2.256 3.335l-.115.064-11.836 6.204c-1.138.596-9.153 7.402-9.728 8.148-.926 1.205-1.063 2.835-.392 4.199a66 66 0 0 1 1.437 3.106c6.275 14.691 17.506 32.515 35.386 34 3.203.267 12.781.675 13.87.703 4.621-.04 11.586-.874 16.051-4.992q.34-.315.661-.656a5.9 5.9 0 0 0 1.082-1.672c4.074-9.329 10.129-17.621 18.733-23.386 1.086-.67 2.303.682 1.466 1.671l-.114.133c-13.862 15.618-20.634 32.308-22.044 53.19-1.531 19.762 4.447 39.519 14.508 56.4 19.694 33.003 58.896 47.472 95.969 40.505 2.359-.312 4.699-.605 7.1-.625.158-.001.313-.012.471-.011.383.008.704.21.912.499.145.199.244.433.239.698a1.18 1.18 0 0 1-.635 1.02c-2.328 1.205-4.788 2.041-7.301 2.625-.777.155-1.558.29-2.338.428.187 1.666.668 5.98 1.202 11.051 11.271.709 31.19 1.014 45.802-1.705a8 8 0 0 1 .992-.113c.306-13.699.259-25.135-.15-27.453a2.5 2.5 0 0 1 2.027-2.897 2.45 2.45 0 0 1 1.345.144c.37.149.766.212 1.164.242 1.465.111 3.262.027 4.526-.683 9.144-7.962 25.857-26.72 25.192-56.801M335.114 270.959c-.643.938-1.56 1.632-2.707 1.722a3.53 3.53 0 0 1-2.281-.577c-.812-.538-1.347-1.389-1.43-2.274a2.48 2.48 0 0 1 .756-2.035c.736-.717 2.396-.893 3.747-.06.221-.499.231-.793.18-.9-.097-.207-.676-.415-1.091-.449a1.51 1.51 0 0 1-1.378-1.608c.062-.82.788-1.443 1.588-1.385.271.018 2.667.229 3.585 2.142.052.108.084.223.108.341.418 1.456-.309 3.963-1.077 5.083m16.943 4.92a1.5 1.5 0 0 1-2.019.867c-2.324-1.028-5.276-2.141-5.965-2.161a1.49 1.49 0 0 1-1.586-1.389 1.515 1.515 0 0 1 1.406-1.605c.959-.074 2.966.61 4.832 1.349-.865-.788-2.352-1.267-2.906-1.389a1.5 1.5 0 0 1 .637-2.932c.402.087 3.961.92 5.359 3.433.641 1.154.724 2.476.242 3.827m29.276 30.702c-3.27 1.896-6.724 3.43-10.423 4.344-1.383.345-2.68.496-4.145.227a1.3 1.3 0 0 1-.32-.093c-.683-.303-.965-1.19-.607-1.905.186-.37.593-.928 1.2-1.426.575-.472 1.506-.867 2.45-1.28 3.153-1.31 6.247-2.902 9.303-4.461 3.56-1.904 7.286-4.331 8.709-8.084.038-2.402 3.577-2.439 3.653-.026-.174 5.769-5.297 10.029-9.82 12.704"
  />
  <path
    fill="#F295FF"
    d="m228.168 312.475 17.299-9.067c.201-.358.367-1.845-1.646-4.881-3.485-5.259-10.49-4.779-14.356-4.025-7.873 1.536-13.65 5.848-14.357 7.525.207.308 7.943 8.122 7.943 8.122 1.125 1.125 4.028 2.881 5.117 2.326"
  />
  <path
    fill="#FF7B00"
    d="m85.893 154.329 5.745 2.773a4.106 4.106 0 0 0 5.476-1.911l.617-1.277a4.08 4.08 0 0 0 .18-3.136 4.08 4.08 0 0 0-2.091-2.342l-5.191-2.505z"
  />
  <path
    fill="#FF7B00"
    d="M90.754 136.463a4.08 4.08 0 0 0 .378-3.116 4.08 4.08 0 0 0-1.937-2.471l-1.236-.698a4.107 4.107 0 0 0-5.587 1.559l-.728 1.291a188 188 0 0 0-1.575 6.799c.323-.03.658.033.962.204l3.173 1.78a1.661 1.661 0 1 1-1.625 2.899l-3.141-1.763a193 193 0 0 0-.725 3.955l2.189 1.301a1.622 1.622 0 0 1-1.657 2.787l-1.096-.652a191 191 0 0 0-1.338 10.604 4 4 0 0 0 .575-.769z"
  />
  <path
    fill="#000"
    d="M336.083 265.535c-.918-1.913-3.315-2.124-3.585-2.142-.8-.058-1.526.565-1.588 1.386a1.51 1.51 0 0 0 1.378 1.607c.415.034.994.242 1.091.449.051.107.041.401-.18.9-1.351-.833-3.011-.657-3.747.06a2.47 2.47 0 0 0-.756 2.035c.083.886.618 1.736 1.43 2.274a3.53 3.53 0 0 0 2.281.577c1.147-.09 2.064-.784 2.707-1.721.767-1.12 1.494-3.628 1.076-5.084a1.4 1.4 0 0 0-.107-.341"
  />
</svg>
