<svg xmlns="http://www.w3.org/2000/svg" width="479" height="416" fill="none" viewBox="0 0 479 416"><path fill="#F295FF" d="M370.488 244.932c-2.321 1.516-8.443 5.654-11.872 9.279-3.136 3.315-2.856 10.558-2.478 14.212.097.947.385 1.859.85 2.69a1235 1235 0 0 0 15.472 26.85c4.464 5.093 28.026-.113 40.832-3.389-1.2-2.281-2.641-4.504-4.174-6.561-1.102-1.738-3.93-3.986-1.521-5.9a2.245 2.245 0 0 1 2.598-.001c2.059 1.469 3.87 3.269 5.416 5.275 1.37 1.792 2.537 3.602 3.436 5.661l.74-.204c2.177-.695 5.002-1.187 6.909-2.262 0 0 .103-.079.119-.189.011-.185-.153-.769-.495-1.371-3.337-5.238-8.607-8.944-13.345-13.057-2.733-2.409-5.721-4.397-7.859-7.545-3.912-6.916-8.226-13.634-12.603-20.372-1.411-2.21-2.935-4.518-4.475-6.874z"/><path fill="#8CBA3B" d="m385.472 231.996-11.132.966a198 198 0 0 1-5.854 6.487l18.663-3.996z"/><path fill="#8CBA3B" d="M389 213.719a201 201 0 0 1-9.478 12.992l9.705-.842c.994-.067 1.774-.424 2.194-.983.317-.423.409-.957.27-1.589-.765-3.494-1.673-6.709-2.691-9.578"/><path fill="#F295FF" d="m112.041 234.133-14.363 45.404c9.429 2.717 18.955 6.044 28.577 8.47l2.401-31.937c-4.544-6.688-8.74-13.97-10.209-19.784a927 927 0 0 1-6.406-2.153"/><path fill="#8CBA3B" d="M131.85 290.698a43 43 0 0 0 5.501 1.646l.986-23.234a236 236 0 0 1-4.435-5.716z"/><path fill="#8CBA3B" d="m143.685 279.427-.691 16.28a2.2 2.2 0 0 0 .635 1.66c.43.439.989.682 1.613.661 10.826-.232 19.561-2.087 24.116-5.097-.152-.018-.292-.029-.451-.049 0 0-15.246-3.94-25.222-13.455"/><path fill="#000" d="M52.685 182.186c1.442-.121 1.56-2.264.147-2.556-7.187-1.603-17.613-1.977-24.997-2.661-8.345-.635-16.697-1.191-25.057-1.597a2.65 2.65 0 0 0-.305 5.291c8.35.558 16.711.965 25.075 1.293 7.384.172 17.854.998 25.137.23"/><path fill="#000" d="M11.877 170.664c2.144.892 4.27.608 6.402.725 6.187.112 13.023.173 19.172-.042 3.605-.217 3.52-5.484-.088-5.584-6.163-.022-12.974.255-19.164.56-2.127.184-4.26-.033-6.376.926a1.863 1.863 0 0 0 .054 3.415"/><path fill="#DB00F8" d="M472.95 80.245c-3.157 1.633-11.929 6.145-13.117 6.757-.507.338-.851.492-1.039.61-.233.134-.304.19-.384.27-.967 1.238-1.036 2.986-1.365 4.952a212 212 0 0 0-1.054 9.299c-.874 10.208-3.737 46.154 5.161 51.582 2.579.903 3.969-1.27 5.311-3.457 3.192-6.422 4.517-13.7 5.243-21.021-2.38-.682-2.375-4.118-2.359-8.368.076-20.675 1.083-21.663 1.818-22.385a2.5 2.5 0 0 1 1.732-.698c.05 0 .098.013.148.017.135-5.48.22-10.69.155-14.388-.006-.825-.069-2.15-.25-3.17m-6.657 45.056c-.234 5.931-.807 7.501-1.849 8.458a2.93 2.93 0 0 1-2.171.78c-3.444-.158-3.308-4.076-3.12-9.499.263-7.584.578-13.549.936-17.729.455-5.3.708-8.247 3.358-8.247l.091.002a2.54 2.54 0 0 1 1.795.815c.972 1.037 1.89 2.016.96 25.42"/><path fill="#8CBA3B" d="M340.548 58.526a67 67 0 0 1 3.193-1.246l9.759-3.68c17.928-6.72 35.986-13.133 54.327-18.66.541-.171 3.508-1.052 3.519-1.057a1 1 0 0 0 .004-.119c.012-.225-.237-.672-.482-.887-3.464-3.101-7.423-6.35-11.351-8.517-1.251-.638-2.197-1.14-3.557-1.097-4.765.216-9.687 1.792-14.38 3.174-12.577 3.974-25.024 8.927-37.265 14.095.034 6.088-1.543 12.512-3.767 17.994"/><path fill="#F295FF" d="m277.12 309.273-51.097 7.564c.347 3.297.552 6.612.658 9.938l53.122 1.371c-.816-6.295-1.666-12.603-2.683-18.873"/><path fill="#000" d="M156.684 79.605c8.37.076 16.739.002 25.108-.152 7.38-.254 17.882-.032 25.107-1.218 1.433-.204 1.429-2.35 0-2.56-7.267-1.187-17.697-.96-25.107-1.217-8.369-.154-16.738-.228-25.108-.153a2.65 2.65 0 0 0 0 5.3"/><path fill="#000" d="M173.938 83.961c-.54.15-1.011.553-1.216 1.12-1.121 3.769 7.643 3.076 9.837 3.47 8.506.582 17.908 1.138 26.382 1.373 3.636.007 3.844-5.293.232-5.58-8.478-.472-17.866-.697-26.404-.827-2.938.015-5.861-.36-8.831.444"/><path fill="#000" d="M156.123 88.586h5.989a2.186 2.186 0 0 0 0-4.37h-5.989a2.186 2.186 0 0 0 0 4.37"/><path fill="#8CBA3B" d="M253.366 368.822a3.73 3.73 0 1 0 7.228 1.84 3.73 3.73 0 0 0-7.228-1.84"/><path fill="#8CBA3B" d="M248.869 370.191c-.562-2.586-.317-4.576.729-5.916 1.509-1.929 4.602-2.435 5.668-2.467a2.89 2.89 0 0 0-.067-5.78l-.056.001c-.663.012-6.589.248-10.062 4.642-2.185 2.763-2.81 6.38-1.858 10.749a2.888 2.888 0 1 0 5.646-1.229"/><path fill="#8CBA3B" d="M253.748 351.547a2.89 2.89 0 0 0 .527-5.756c-.266-.025-6.606-.569-12.142 3.305-7.719 5.4-11.167 13.21-9.707 21.992a2.89 2.89 0 1 0 5.701-.947c-1.376-8.285 3.222-13.442 7.32-16.31 3.73-2.61 8.189-2.293 8.301-2.284"/><path fill="#8CBA3B" d="M69.056 244.526a3.728 3.728 0 1 0-3.886 6.364 3.728 3.728 0 0 0 3.886-6.364"/><path fill="#8CBA3B" d="M69.56 234.067c-1.555-.122-2.99 1.045-3.124 2.635a2.89 2.89 0 0 0 2.636 3.124c2.637.224 4.467 1.044 5.44 2.439 1.398 2.008.972 5.111.689 6.141a2.89 2.89 0 0 0 5.558 1.587c.184-.638 1.704-6.371-1.472-10.985-1.999-2.901-5.27-4.563-9.727-4.941"/><path fill="#8CBA3B" d="M73.058 223.847a2.89 2.89 0 0 0-.774 5.728c8.323 1.124 11.898 7.036 13.431 11.798 1.397 4.335-.226 8.514-.262 8.606a2.89 2.89 0 0 0 5.345 2.198c.103-.248 2.49-6.144.42-12.576-2.89-8.968-9.339-14.562-18.16-15.754"/><path fill="#000" d="M170.019 391.369c1.579.598 3.331.928 5.052.928 2.095 0 4.144-.489 5.776-1.576 1.599 1 3.605 1.409 5.795 1.121 3.856-.503 8.509-3.3 9.536-7.492a6.4 6.4 0 0 0-.465-4.406c2.251-1.882 3.511-4.742 3.263-7.865-.257-3.218-2.242-6.625-6.115-8.038-.283-3.171-2.363-6.062-5.805-7.819-4.061-2.07-9.641-2.339-13.534.635-3.713-1.402-8.104-.741-10.979 1.848-2.18 1.965-3.047 4.661-2.495 7.421-2.293 1.935-3.465 4.838-3.137 8.052.401 3.924 2.86 7.279 6.381 8.955.148 3.586 2.587 6.667 6.727 8.236m-7.358-17.777c-.098-.966.037-2.722 2.048-3.628a2.887 2.887 0 0 0 1.372-3.977c-.653-1.246-.548-2.195.33-2.987.738-.665 1.912-1.091 3.164-1.091.966 0 1.978.254 2.87.848a2.89 2.89 0 0 0 3.845-.586c1.779-2.194 5.536-2.13 8.138-.801.98.5 3.191 1.908 2.58 4.182a2.89 2.89 0 0 0 2.518 3.627c3.199.304 3.631 2.647 3.688 3.358.109 1.374-.548 3.18-2.758 3.752a2.89 2.89 0 0 0-.934 5.166c1.208.845 1.083 1.352 1.042 1.519-.29 1.183-2.438 2.846-4.671 3.138-1.926.248-2.402-.638-2.561-.929a2.9 2.9 0 0 0-2.591-1.504 2.89 2.89 0 0 0-2.532 1.6c-.65 1.302-3.633 1.634-6.142.685-1.345-.509-3.505-1.713-2.879-4.051a2.893 2.893 0 0 0-2.16-3.568c-2.73-.611-4.177-2.892-4.367-4.753"/><path fill="#8CBA3B" d="m248.555 283.536 22.141-16.687a58 58 0 0 0-2.79-3.66c-.59-.107-5.539-.271-24.889 17.988-8.86 8.361-17.025 17.096-19.669 19.96l1.23 10.071 55.438-8.207c.139-.991.284-2.358.354-4.018l-26.026.902a9.04 9.04 0 0 1-8.323-4.779l-.001-.001a9.045 9.045 0 0 1 2.535-11.569"/><path fill="#8CBA3B" d="M281.371 269.248c-.869-1.114-2.51-1.315-3.657-.45l-25.68 19.353a3.3 3.3 0 0 0-.924 4.216c.602 1.118 1.723 1.793 3.033 1.742l32.365-1.122a2.61 2.61 0 0 0 1.975-.988 2.6 2.6 0 0 0 .537-2.134c-1.696-9.154-4.412-16.476-7.649-20.617"/><path fill="#F295FF" d="M304.322 83.903c11.526-3.75 21.847-11.706 28.185-22.062 4.119-6.797 5.838-14.821 6.423-22.69.329-2.545.3-5.308.628-8.118a1.48 1.48 0 0 1 1.238-1.34 1.4 1.4 0 0 1 .413-.017c.542.064.981.414 1.186.88.57 1.31.977 2.621 1.288 3.982a579 579 0 0 1 16.365-6.624c5.998-2.305 12.04-4.516 18.208-6.494-12.595-3.909-26.19-5.077-38.664-3.712-.161.07-64.569 11.948-96.94 9.756-8.09-.626-16.409-1.914-24.306-4.102-2.786-.739-7.057-2.536-10.001-2.496.08.37.195.768.397 1.215 1.823 3.97 4.799 7.51 7.715 10.923 3.086 3.532 6.416 6.934 9.808 10.207l3.496 3.325c2.651 2.541 4.631 5.632 6.168 8.654 6.004 13.058 8.809 20.577 23.308 25.807 14.271 5.418 30.386 7.743 45.085 2.906"/><path fill="#000" d="m463.538 99.066-.091-.002c-2.65 0-2.903 2.947-3.358 8.247-.358 4.179-.673 10.144-.936 17.729-.188 5.423-.324 9.341 3.12 9.499l.153.003a2.93 2.93 0 0 0 2.018-.783c1.042-.957 1.614-2.527 1.849-8.458.93-23.404.011-24.384-.961-25.42a2.53 2.53 0 0 0-1.794-.815"/><path fill="#000" d="M407.977 64.285c-.609-.999-1.485-1.658-2.459-1.884a2.43 2.43 0 0 0-1.199-.299c-3.317.167-6.35.807-9.574 1.397-2.793.617-2.043 4.73.789 4.32 1.764-.28 3.597-.584 5.418-.805-.009.31-.004.626.025.947.102 1.108.42 2.127.921 2.95.763 1.253 1.949 1.974 3.217 1.974q.155 0 .309-.014c2.292-.212 3.754-2.582 3.475-5.637-.102-1.107-.421-2.127-.922-2.949"/><path fill="#000" d="M386.001 69.991c-.606-.995-1.48-1.649-2.448-1.878a2.43 2.43 0 0 0-1.21-.305c-3.316.167-6.35.807-9.574 1.397-2.793.617-2.042 4.73.789 4.319 1.764-.279 3.596-.583 5.418-.805a8 8 0 0 0 .025.95c.102 1.106.42 2.125.921 2.947.764 1.253 1.949 1.975 3.218 1.975q.154 0 .308-.014c2.293-.213 3.754-2.583 3.476-5.638-.103-1.107-.421-2.126-.923-2.948"/><path fill="#000" d="M395.548 12.564c.024-.007 2.425-.62 3.754.517a2.88 2.88 0 0 0 1.876.692 2.89 2.89 0 0 0 1.878-5.087c-3.674-3.138-8.555-1.837-9.101-1.678a2.88 2.88 0 0 0-1.96 3.554c.431 1.528 2.03 2.416 3.553 2.002"/><path fill="#000" d="M373.005 5.957c.024-.008 2.427-.617 3.753.516a2.9 2.9 0 0 0 1.877.693 2.89 2.89 0 0 0 1.878-5.087C376.841-1.057 371.958.242 371.412.4a2.88 2.88 0 0 0-1.961 3.554 2.9 2.9 0 0 0 3.554 2.003"/><path fill="#000" d="M478.794 80.235c-.222-1.468-.489-3.496-1.887-4.938-1.288-1.243-3.343-1.685-5.118-.93-.069 0-.135-.009-.207-.002-11.856.909-27.041 2.476-36.778-4.893-4.572-3.59-6.963-9.506-9.434-15.616-2.295-5.776-5.764-11.132-9.924-15.715.057-.057.122-.096.178-.157 2.4-2.46 1.964-6.346-.044-8.685-1.272-1.407-2.867-2.61-4.31-3.837-4.014-3.07-8.359-6.866-13.657-7.924-3.866-.244-7.578.495-11.218 1.478-8.934-3.492-18.425-5.684-27.89-6.805-6.455-.67-13.054-1.123-19.449.051-5.815 1.068-13.764 2.64-20.048 3.737-18.779 3.251-37.872 5.468-56.9 5.675-14.221.087-28.44-.748-42.018-4.507-2.953-.845-6.615-2.27-9.731-2.647-3.519-.656-8.046.7-8.508 4.902-.741 8.64 13.988 22.413 19.928 28.44l3.476 3.31c1.994 1.912 3.552 4.289 4.92 6.974 3.487 7.307 6.713 15.8 13.345 21.213 3.915 3.384 8.783 5.844 13.522 7.54a103 103 0 0 0 10.512 3.27c-8.897 6.586-19.97 10.098-30.908 11.616-13.77 1.832-27.877 3.015-41.572 5.992-25.621 5.297-51.436 16.946-65.73 39.933l-.705.061c-.433-2.403-2.429-6.652-10.645-9.858-7.624-2.974-19.782-2.129-25.02 1.741-3.859 2.852-6.131 7.038-6.378 11.445a97 97 0 0 1-1.878-1.353c-.957-.702-2.161-1.757-3.438-2.874-5.933-5.195-14.898-13.045-24.562-8.561-6.305 2.926-5.863 10.615-4.61 14.696.232.752.638 1.414 1.34 1.768.68.344 1.357.438 2.078.204.602-.056 5.617-.192 14.655 7.947 8.733 7.864 17.11 10.073 23.767 10.073 6.288-.001 11.036-1.97 13.104-3.008 4.208.907 8.125 1.429 11.745 1.593-5.094 16.656-4.961 34.702-1.652 51.66a77 77 0 0 0 1.553 6.981 5 5 0 0 1-.837.019h-.005a862 862 0 0 1-4.247-1.448 2.88 2.88 0 0 0-1.958-2.851c-.272-.091-27.38-9.171-39.634-12.919a9.78 9.78 0 0 0-7.347.656 15.7 15.7 0 0 0-2.89-5.803c-2.498-3.161-5.993-5.168-9.59-5.507-2.906-.275-5.676.578-7.784 2.402-4.774 4.137-4.91 12.246-.305 18.076a15.7 15.7 0 0 0 2.985 2.886c-1.335-.624-2.738-1.028-4.16-1.163-2.916-.279-5.678.579-7.784 2.403-4.775 4.137-4.911 12.246-.306 18.076 2.498 3.161 5.993 5.168 9.589 5.507q.537.051 1.066.051c.425 0 .844-.034 1.259-.082a522 522 0 0 0-1.514 4.235 16 16 0 0 0-1.529-2.112c-2.616-3.043-6.183-4.9-9.786-5.094-2.925-.16-5.668.807-7.707 2.719-4.617 4.328-4.437 12.429.402 18.058a15.6 15.6 0 0 0 3.028 2.703 12.5 12.5 0 0 0-3.193-.623c-2.931-.159-5.668.807-7.707 2.719-4.617 4.33-4.436 12.431.403 18.058 2.616 3.044 6.183 4.901 9.788 5.094q.31.017.617.017c.882 0 1.74-.113 2.565-.314a10.29 10.29 0 0 0 6.026 12.081c6.907 2.876 12.664 4.319 17.205 4.319q3.332 0 5.78-1.035c2.432-1.03 4.226-2.861 5.186-5.295 10.611-26.908 26.046-22.032 26.74-21.798.407.144 22.212 6.784 33.102 9.417a2.9 2.9 0 0 0 1.351 1.454c.364.184 4.103 2.015 10.143 3.25a8 8 0 0 0 1.85 3.03 8 8 0 0 0 5.867 2.396c8.794-.188 20.742-1.453 27.719-6.412 1.628-1.158 2.675-2.852 3.077-4.696.909-.488 2.015-1.42 2.609-3.153a198 198 0 0 0 9.036 3.506c7.811 2.402 15.867 3.491 23.982 3.909a4.6 4.6 0 0 1 1.956.54q.31.17.596.354a4.55 4.55 0 0 1 1.781 2.119c.831 2.064 1.509 4.271 2.062 6.566l1.015 8.312a2.9 2.9 0 0 0 .656 1.499c.724 6.389.89 12.801 1.063 18.153-.403 9.844-1.259 31.609-1.389 41.897a9.15 9.15 0 0 0 2.775 6.669 17 17 0 0 0-5.132 4.723c-2.533 3.536-3.572 7.757-2.849 11.582.581 3.083 2.279 5.676 4.781 7.301 1.847 1.201 3.982 1.771 6.183 1.771 4.585 0 9.456-2.473 12.609-6.875 2.533-3.536 3.571-7.757 2.849-11.582a12 12 0 0 0-.69-2.322c1.712.231 3.564.462 5.537.691a17 17 0 0 0-2.155 2.46c-2.533 3.536-3.572 7.757-2.849 11.582.481 2.55 1.734 4.754 3.565 6.363-23.889.339-48.597.766-69.019 1.176-1.8.07-11.012.081-11.307 2.046a1.303 1.303 0 0 0 .963 1.586c3.47.875 6.931 1.025 10.391 1.034 34.096.458 79.919.884 114.176.946l20.757.015c6.081-.15 14.884.602 20.757-1.098a2.81 2.81 0 0 0 2.03-2.202c.28-1.493-.789-2.901-2.259-3.283-3.385-.881-6.77-1.017-10.155-.976l-3.502.025c.224-.298.461-.581.668-.897 2.376-3.625 3.237-7.876 2.362-11.665a11.6 11.6 0 0 0-1.553-3.686c6.027-.644 10.686-5.6 10.85-11.833.512-19.465-6.317-24.111-12.135-24.582-29.463-2.385-29.394-23.202-29.376-24.125a2.9 2.9 0 0 0-.789-2.061 2.9 2.9 0 0 0-1.567-.847c-.801-6.438-1.649-13.137-2.698-19.897l.169-.025a2.89 2.89 0 0 0 2.378-2.154c.082-.324.745-3.101.914-7.48l.31-.011c1.51-.052 3.011-.432 4.294-1.229 3.07-1.91 4.509-5.385 3.889-8.728-.103-.553-.215-1.128-.334-1.711 2.792-.916 5.548-1.951 8.294-2.98 15.131-5.764 29.219-13.718 42.045-23.364 4.828 8.941 9.806 17.802 14.858 26.621 0 0 8.375 14.501 9.229 15.221 8.815 8.152 41.387-1.324 52.553-4.191 3.752-1.33 8.514-1.407 10.676-5.464 4.035-8.945-16.171-20.774-21.426-26.776-.442-.428-.972-1.436-1.208-1.849-3.814-6.661-7.948-13.042-12.075-19.397-1.108-1.727-2.371-3.651-3.678-5.648a3 3 0 0 0 .319-.5c.39-.798.391-1.73.003-2.529l-2.393-4.932c1.827-.498 3.403-1.527 4.478-2.957 1.334-1.777 1.794-4.013 1.295-6.296-.935-4.268-2.371-9.493-4.476-14.302a205 205 0 0 0 12.798-24c.532-1.517 2.092-4.566 2.93-7.343 2.594-.736 5.266-1.747 7.68-2.775.944-.484 3.471-1.785 4.376-2.253 3.253-1.907 6.297-4.155 8.9-6.893 11.072.148 22.102-1.384 32.616-4.807 8.113.19 11.859-11.095 13.322-17.767 3.192-12.942 2.861-31.363 3.359-44.667.104-4.597.201-9.33.136-13.966-.041-.899-.04-2.176-.185-3.053M74.048 158.63c-7.877-7.093-13.535-8.992-16.803-9.375-.231-1.96-.151-4.747 1.907-5.702 6.249-2.902 13.225 3.207 18.321 7.667 1.373 1.202 2.669 2.337 3.827 3.186 1.058.776 2.099 1.534 3.126 2.152.758 4.94 3.054 8.237 5.433 10.368-4.665-.823-10.088-3.142-15.81-8.296M32.685 289.35c-1.124 1.054-2.494 1.212-3.44 1.164-2.038-.11-4.122-1.237-5.716-3.091-2.8-3.258-3.18-7.871-.832-10.074 1.009-.946 2.213-1.172 3.135-1.172q.16 0 .307.008c2.039.11 4.122 1.236 5.716 3.091 2.8 3.257 3.18 7.87.83 10.074m4.998-11.856a16 16 0 0 0-1.446-1.986 15.6 15.6 0 0 0-3.027-2.704c1.046.342 2.117.566 3.194.624q.31.016.616.016 1.026-.001 2.004-.184-.664 2.074-1.341 4.234m2.472-11.002c-1.124 1.054-2.495 1.219-3.44 1.164-2.04-.11-4.122-1.236-5.717-3.09-2.8-3.258-3.181-7.872-.831-10.074 1.008-.946 2.213-1.172 3.135-1.172q.16 0 .307.008c2.039.11 4.121 1.236 5.715 3.09 2.8 3.258 3.182 7.871.831 10.074m8.268-22.704c-1.154 1-2.51 1.106-3.456 1.017-2.033-.192-4.072-1.408-5.595-3.337-2.672-3.382-2.877-8.018-.445-10.124.954-.827 2.049-1.042 2.93-1.042q.28.001.525.025c2.034.192 4.073 1.408 5.596 3.336 2.672 3.382 2.877 8.019.445 10.125m5.47-11.636a16 16 0 0 0-1.379-2.072 15.7 15.7 0 0 0-2.986-2.886c1.336.624 2.739 1.028 4.161 1.163q.537.05 1.067.05c.254 0 .505-.015.756-.032a275 275 0 0 0-1.618 3.777m3.796-10.567c-1.156 1.001-2.519 1.104-3.457 1.017-2.033-.192-4.073-1.408-5.596-3.336-2.672-3.382-2.876-8.018-.445-10.124.954-.827 2.049-1.042 2.93-1.042q.28.001.526.025c2.033.192 4.073 1.408 5.596 3.336 2.672 3.382 2.876 8.018.446 10.124m12.606 28.067a3.73 3.73 0 1 1-6.364-3.887 3.73 3.73 0 0 1 6.364 3.887m10.463.341a2.89 2.89 0 0 1-3.576 1.977 2.89 2.89 0 0 1-1.981-3.564c.283-1.03.709-4.133-.69-6.141-.972-1.394-2.802-2.215-5.439-2.439a2.89 2.89 0 0 1-2.636-3.124c.134-1.59 1.57-2.756 3.124-2.635 4.456.378 7.728 2.04 9.726 4.942 3.177 4.613 1.656 10.346 1.472 10.984m10.04 2.184a2.89 2.89 0 0 1-5.345-2.198c.036-.092 1.659-4.271.262-8.606-1.533-4.762-5.108-10.674-13.431-11.798a2.89 2.89 0 0 1 .774-5.728c8.821 1.192 15.27 6.786 18.16 15.754 2.07 6.432-.317 12.329-.42 12.576m210.406 145.164c1.957-2.985 5.129-4.774 7.931-4.774 1.021 0 1.993.238 2.84.742 1.543.918 2.162 2.39 2.409 3.461.522 2.261-.049 4.885-1.563 7.198-1.272 1.94-3.058 3.366-4.921 4.133l-5.57.041c-.093-.048-.19-.088-.28-.142-1.543-.918-2.162-2.389-2.409-3.461-.522-2.261.049-4.885 1.563-7.198m-9.961 8.863c2.375-3.625 3.237-7.876 2.362-11.665a11.8 11.8 0 0 0-1.181-3.079c1.959.058 3.951.112 6.007.158a17 17 0 0 0-2.06 2.555c-2.375 3.625-3.237 7.877-2.362 11.666.191.83.47 1.616.816 2.359l-5.17.037a17 17 0 0 0 1.588-2.031M395.96 23.264c1.36-.044 2.306.458 3.557 1.096 3.928 2.168 7.887 5.416 11.351 8.517.245.215.494.661.482.887a1 1 0 0 1-.004.119c-.011.005-2.978.886-3.518 1.056-18.342 5.527-36.4 11.94-54.328 18.66l-9.759 3.681a68 68 0 0 0-3.193 1.246c2.224-5.482 3.801-11.906 3.767-17.994 12.241-5.168 24.688-10.121 37.265-14.095 4.694-1.382 9.615-2.958 14.38-3.174M259.237 80.997c-14.499-5.231-17.304-12.75-23.308-25.808-1.537-3.022-3.517-6.112-6.168-8.653l-3.496-3.326c-3.391-3.273-6.722-6.675-9.808-10.207-2.916-3.413-5.892-6.953-7.715-10.923a5.8 5.8 0 0 1-.396-1.215c2.943-.04 7.214 1.758 10 2.497 7.897 2.187 16.216 3.476 24.306 4.102 32.371 2.192 96.779-9.687 96.94-9.757 12.474-1.365 26.069-.197 38.664 3.712-6.168 1.979-12.209 4.19-18.208 6.494a578 578 0 0 0-16.365 6.624 22.3 22.3 0 0 0-1.288-3.982 1.49 1.49 0 0 0-1.186-.88 1.4 1.4 0 0 0-.413.017 1.48 1.48 0 0 0-1.238 1.34c-.328 2.81-.299 5.573-.628 8.118-.585 7.869-2.304 15.893-6.423 22.69-6.338 10.357-16.659 18.312-28.184 22.062-14.699 4.838-30.815 2.512-45.086-2.906m-132.982 207.01c-9.622-2.426-19.148-5.754-28.577-8.47l14.363-45.404q3.204 1.09 6.406 2.153c1.469 5.814 5.665 13.096 10.209 19.784zm11.096 4.337a43 43 0 0 1-5.501-1.646l2.052-27.304a239 239 0 0 0 4.435 5.717zm7.892 5.684a2.13 2.13 0 0 1-1.614-.661 2.2 2.2 0 0 1-.635-1.659l.691-16.281c9.976 9.515 25.222 13.455 25.222 13.455.159.02.299.032.452.049-4.556 3.011-13.291 4.866-24.116 5.097m87.955 100.178c-2.844 3.971-7.856 5.629-10.944 3.624-1.494-.97-2.049-2.454-2.251-3.527-.43-2.282.25-4.886 1.868-7.145 2.023-2.823 5.14-4.477 7.883-4.477 1.115 0 2.168.273 3.061.853 1.494.971 2.049 2.454 2.251 3.528.43 2.281-.25 4.885-1.868 7.144m12.822-103.101a9.04 9.04 0 0 0 8.323 4.779l26.026-.902a42 42 0 0 1-.354 4.018l-55.438 8.207-1.23-10.071c2.643-2.864 10.808-11.599 19.669-19.96 19.35-18.259 24.299-18.095 24.889-17.988a59 59 0 0 1 2.79 3.66l-22.141 16.687a9.045 9.045 0 0 0-2.535 11.569m-19.339 31.67a136 136 0 0 0-.659-9.938l51.098-7.564c1.017 6.27 1.867 12.578 2.683 18.873zm33.912 43.888a3.73 3.73 0 1 1-7.228-1.842 3.73 3.73 0 0 1 7.228 1.842m-22.466-.522a2.89 2.89 0 0 1-5.701.947c-1.46-8.782 1.988-16.592 9.707-21.992 5.536-3.874 11.876-3.33 12.142-3.305a2.89 2.89 0 0 1 2.607 3.148 2.895 2.895 0 0 1-3.134 2.608c-.112-.009-4.571-.326-8.301 2.284-4.098 2.868-8.696 8.025-7.32 16.31m5.095 1.28c-.951-4.37-.326-7.987 1.859-10.749 3.473-4.395 9.399-4.63 10.062-4.643h.056a2.889 2.889 0 0 1 .067 5.779c-1.066.032-4.159.538-5.668 2.468-1.046 1.34-1.291 3.33-.729 5.915a2.89 2.89 0 1 1-5.647 1.23m5.297 33.436c-1.493-.971-2.049-2.454-2.251-3.528-.43-2.281.251-4.885 1.868-7.144 2.022-2.823 5.14-4.478 7.883-4.478 1.115 0 2.169.274 3.062.854 1.493.97 2.049 2.454 2.251 3.527.43 2.282-.251 4.886-1.869 7.145-2.844 3.971-7.855 5.629-10.944 3.624m21.441-11.615c-2.375 3.624-3.237 7.876-2.362 11.665a11.7 11.7 0 0 0 1.457 3.535c-2.911.034-5.869.07-8.857.108a17.1 17.1 0 0 0 3.964-3.952c2.533-3.536 3.572-7.757 2.849-11.582a11.8 11.8 0 0 0-.913-2.809c1.936.132 3.94.259 6.023.38a17 17 0 0 0-2.161 2.655m15.604-.865c1.543.918 2.162 2.39 2.409 3.462.522 2.261-.049 4.884-1.563 7.197-2.67 4.073-7.602 5.918-10.771 4.033-1.543-.919-2.162-2.39-2.409-3.462-.522-2.261.049-4.885 1.563-7.198 2.669-4.073 7.601-5.92 10.771-4.032m2.919-100.378c-.49.61-1.192.961-1.975.988l-32.365 1.122c-1.31.051-2.431-.624-3.033-1.742a3.3 3.3 0 0 1 .924-4.216l25.68-19.353c1.147-.864 2.788-.664 3.657.45 3.237 4.141 5.953 11.463 7.649 20.617a2.6 2.6 0 0 1-.537 2.134m104.03-43.951c4.377 6.738 8.69 13.456 12.603 20.372 2.138 3.148 5.126 5.136 7.859 7.545 4.737 4.113 10.008 7.819 13.345 13.057.342.601.506 1.186.494 1.371-.015.11-.118.189-.118.189-1.907 1.075-4.732 1.567-6.909 2.262l-.74.204c-.899-2.059-2.066-3.869-3.436-5.661-1.546-2.006-3.357-3.806-5.416-5.275a2.245 2.245 0 0 0-2.598.001c-2.409 1.914.418 4.162 1.521 5.9 1.533 2.057 2.974 4.28 4.174 6.561-12.806 3.276-36.368 8.482-40.832 3.389a1235 1235 0 0 1-15.472-26.85 7 7 0 0 1-.851-2.69c-.377-3.654-.657-10.897 2.479-14.212 3.429-3.625 9.551-7.763 11.872-9.279l17.549-3.758c1.54 2.356 3.065 4.664 4.476 6.874m-24.027-8.599q2.998-3.177 5.854-6.487l11.132-.966 1.678 3.457zm22.935-14.563c-.42.559-1.2.916-2.194.983l-9.705.842A202 202 0 0 0 389 213.72c1.018 2.868 1.926 6.083 2.691 9.578.139.631.047 1.165-.27 1.588m33.641-66.051c-37.615-1.942-74.679-23.521-91.172-57.975-1.852-3.42-7.442-.68-9.263 1.564-.651.848-1.402 1.933-1.2 3.071a1.79 1.79 0 0 0 2.156 1.334c1.108-.253 2.394-.658 3.415-.998.242-.076.548-.163.866-.253 5.876 10.973 13.62 21.559 22.88 29.849 17.915 15.861 41.536 25.643 65.725 28.368 1.264.577 2.656 1.928-2.958 4.308-.207.076-6.608 2.48-14.236 3.958-7.843 1.521-16.475 1.176-16.643 1.165a56 56 0 0 1-2.947-.261c-2.253-.449-3.153 2.771-.985 3.535 4.819 1.539 9.744 2.09 14.662 1.931 3.796.844 2.478 7.346-1.613 16.147-16.88 31.106-42.308 57.697-73.377 74.757a186 186 0 0 1-15.323 7.561c-7.647 2.608-11.747 1.231-13.278.401-1.437-4.244-3.337-8.398-5.846-11.607-2.514-3.219-7.004-4.082-10.536-2.227a65 65 0 0 0-3.095-4.036c-.744-.895-2.111-1.973-4.398-2.023l-.134-.001c-.138 0-.291.027-.433.036-2.749-4.863-5.939-9.397-9.692-13.462-4.673-4.756-10.562-8.561-17.033-10.303a1.906 1.906 0 0 0-1.655 3.357c.119.092.247.175.392.238 9.988 4.323 17.284 12.537 22.55 21.896-12.577 6.234-33.006 27.48-41.207 36.329-2.6-5.366-6.786-11.123-13.066-11.064-.151.001-.295-.015-.448-.007-1.241.083-1.84 1.74-.948 2.605.918.957 2.226 1.453 2.604 2.507.162.455.721 1.563-.547 1.377-5.157-.422-10.279-1.151-15.304-2.37-5.757-1.538-11.014-3.782-16.413-6.23-16.979-7.825-33.414-18.547-43.733-34.345-5.083-7.771-8.396-16.545-10.003-25.789-3.582-18.462-3.35-37.884 3.785-55.423.849-2.353-1.063-4.018-2.901-3.942-.011 0 .011 0 0 0-.978.051-1.94.598-2.467 1.799-.17.417-.328.838-.489 1.257-3.683-.035-9.143-.554-16.459-2.473-6.622-1.737-10.922-5.34-11.796-9.886-.666-3.464.796-6.906 3.91-9.208 3.36-2.483 13.207-3.455 19.483-1.004 4.84 1.888 6.37 3.856 6.854 4.891-3.078.179-5.758.268-8.005.28-.443-.585-1.166-1.15-2.336-1.528-.084-.027-8.624-2.075-10.638 1.166-.741 1.191-.564 2.741.431 3.769.782.805 2.308 2.381 12.36 2.381 2.796 0 6.273-.126 10.556-.42q.687-.048 1.4-.1c-.026.125-.067.243-.088.371-.077.474.003.977.251 1.416.001.003.113.183.179.267.759.98 2.198 1.101 3.127.293 1.38-1.122 2.335-2.507 3.293-3.942.7-1.025 2.222-3.114 2.938-4.118 17.861-25.982 50.732-34.197 80.455-37.965 10.4-1.485 21.064-1.933 31.398-4.622 7.593-2.142 15.148-5.164 21.672-9.676 7.406.851 33.429 2.52 50.439-13.024 6.971-4.61 12.977-10.658 17.297-17.891.058-.1.114-.207.171-.307 2.816-.317 5.397-1.251 7.967-2.22l9.785-3.522c16.322-5.766 32.668-11.487 49.187-16.647 1.099-.336 3.461-1.06 5.337-1.63 4.153 4.492 7.611 9.65 10.123 15.513 2.617 6.38 5.6 13.322 11.498 17.66 8.749 6.219 20.035 6.466 30.698 5.574-2.808 1.45-6.876 3.49-7.843 4.455-2.321 2.25-2.688 5.72-3.077 8.312a220 220 0 0 0-1.086 9.562c-.589 6.367-.983 12.746-1.114 19.159.054 8.418-.59 27.105 5.913 35.205-9.637 2.658-19.885 3.448-29.972 2.875m47.983-61.032c-.05-.004-.098-.017-.148-.017a2.5 2.5 0 0 0-1.731.698c-.735.722-1.742 1.709-1.819 22.385-.015 4.25-.02 7.686 2.359 8.368-.726 7.321-2.051 14.599-5.243 21.021-1.342 2.187-2.732 4.36-5.311 3.457-8.898-5.428-6.035-41.374-5.161-51.582.292-3.114.63-6.233 1.054-9.299.329-1.966.398-3.714 1.365-4.951.08-.081.151-.137.384-.271.188-.118.532-.272 1.039-.61 1.189-.612 9.96-5.124 13.117-6.757.181 1.02.244 2.345.25 3.17.066 3.697-.02 8.907-.155 14.388"/><path fill="#F295FF" d="M171.95 172.702c-7.049 6.136-13.68 12.775-19.958 19.663-.715.778-1.269 1.41-2.171 2.255-.451.352-.948.742-1.24 1.304-3.816 8.303-.303 26.902 2.922 39.35 2.494-1.367 4.911-3.043 7.132-4.818 1.656-1.088 3.843-4.139 5.791-1.848a2.13 2.13 0 0 1 .141 2.378c-1.347 2.251-3.057 4.271-5.003 6.036-1.958 1.761-3.944 3.27-6.348 4.43l.316 1.046c1.228 3.643 2.763 8.961 7.338 6.161 8.599-5.311 13.463-14.947 19.99-22.549 9.624-9.941 18.091-20.893 29.711-28.863.312-.22.636-.424.953-.638-11.725-5.452-31.66-15.472-39.574-23.907"/><path fill="#F295FF" d="M449.121 120.754c.131-6.412.525-12.792 1.115-19.158.299-3.186.642-6.36 1.085-9.562.39-2.593.757-6.063 3.078-8.312.966-.964 5.034-3.006 7.842-4.455-10.662.892-21.948.645-30.698-5.575-5.898-4.338-8.881-11.278-11.498-17.66-2.512-5.863-5.97-11.02-10.123-15.512-1.876.57-4.237 1.294-5.337 1.63-16.519 5.16-32.865 10.88-49.186 16.647l-9.785 3.522c-2.57.969-5.151 1.903-7.968 2.22-.057.1-.113.208-.17.306-4.321 7.233-10.327 13.282-17.297 17.892-17.011 15.544-43.034 13.875-50.439 13.023-6.525 4.513-14.08 7.534-21.672 9.677-10.335 2.688-20.999 3.137-31.399 4.622-29.723 3.768-62.594 11.982-80.454 37.965-.717 1.004-2.238 3.093-2.938 4.118-.959 1.435-1.914 2.819-3.294 3.942-.929.808-2.367.687-3.127-.293-.066-.084-.177-.265-.179-.267a2.18 2.18 0 0 1-.251-1.416c.021-.128.062-.246.088-.372q-.713.053-1.4.1c-4.283.295-7.759.421-10.555.421-10.053 0-11.579-1.576-12.36-2.382-.996-1.027-1.173-2.577-.431-3.769 2.014-3.24 10.553-1.192 10.637-1.165 1.171.378 1.893.943 2.337 1.527 2.246-.011 4.927-.1 8.004-.279-.484-1.035-2.014-3.003-6.854-4.891-6.275-2.451-16.122-1.479-19.482 1.004-3.114 2.302-4.576 5.744-3.91 9.208.874 4.545 5.173 8.149 11.795 9.886 7.316 1.918 12.776 2.438 16.459 2.473.162-.42.319-.841.489-1.257.528-1.201 1.489-1.748 2.467-1.799-.011 0 .011-.001 0 0 1.839-.077 3.75 1.589 2.901 3.942-7.134 17.538-7.366 36.961-3.784 55.423 1.606 9.244 4.92 18.017 10.002 25.789 10.319 15.798 26.754 26.52 43.734 34.344 5.399 2.449 10.656 4.693 16.412 6.231 5.026 1.218 10.148 1.948 15.304 2.369 1.269.187.709-.921.547-1.376-.377-1.055-1.685-1.55-2.603-2.508-.893-.865-.294-2.521.947-2.604.153-.008.297.008.448.007 6.28-.06 10.466 5.698 13.066 11.064 8.201-8.85 28.631-30.095 41.207-36.329-5.266-9.359-12.562-17.573-22.55-21.896a2 2 0 0 1-.392-.238 1.908 1.908 0 0 1 1.656-3.357c6.47 1.742 12.359 5.547 17.032 10.303 3.753 4.065 6.943 8.599 9.692 13.461.143-.009.296-.036.433-.036l.135.002c2.287.05 3.654 1.127 4.398 2.022a66 66 0 0 1 3.094 4.036c3.532-1.854 8.022-.991 10.537 2.227 2.508 3.21 4.409 7.363 5.845 11.608 1.532.829 5.631 2.207 13.278-.402a185 185 0 0 0 15.323-7.561c31.07-17.06 56.497-43.65 73.377-74.756 4.092-8.801 5.409-15.304 1.613-16.147-4.918.159-9.843-.392-14.662-1.932-2.167-.763-1.268-3.984.986-3.535q1.472.17 2.946.262c.168.01 8.8.355 16.643-1.165 7.628-1.478 14.03-3.883 14.236-3.959 5.615-2.38 4.222-3.73 2.958-4.307-24.189-2.725-47.81-12.507-65.724-28.368-9.261-8.29-17.005-18.876-22.881-29.85-.318.09-.624.177-.865.254-1.021.34-2.308.745-3.416.997a1.793 1.793 0 0 1-2.156-1.333c-.202-1.138.55-2.223 1.201-3.071 1.821-2.245 7.411-4.985 9.262-1.564 16.493 34.453 53.557 56.032 91.172 57.975 10.087.573 20.336-.217 29.973-2.875-6.503-8.101-5.859-26.787-5.914-35.206m-153.924 48.513c-5.024 2.652-10.28 3.657-15.522 5.598l-5.244 1.796c-12.643 4.376-25.235 8.899-37.604 13.964a2.883 2.883 0 0 1-1.601 3.537l-13.783 5.895a2.9 2.9 0 0 1-1.137.232c-.133 0-.264-.022-.396-.04a3 3 0 0 1-.756-.2c-.37-.161-.831-.363-1.333-.584a60 60 0 0 0-3.966 2.539c-11.03 7.552-19.521 18.527-28.842 28.125-6.724 8.123-11.97 18.056-21.445 23.642-4.685 2.616-8.894 1.497-11.758-1.735-1.189-1.341-2.151-3.036-2.81-4.994-3.974-11.184-13.688-48.756-3.029-56.733 7.037-7.714 14.648-15.392 22.817-22.453l-.016-.041c-.538-1.852-.287-3.622.725-5.118a69 69 0 0 1 3.181-4.322c-2.893-2.944-3.353-7.654-.885-11.075 4.788-6.637 13.774-12.042 20.469-15.407a8.63 8.63 0 0 1 12.079 5.025l.193.589c4.457-1.118 7.45-1.263 7.798-1.275a2.88 2.88 0 0 1 2.775 1.784l.297.72c4.924-2.398 9.893-4.754 15.075-6.859 3.518-1.426 7.152-2.623 10.721-3.736 3.676-.946 7.116-2.401 11.035-1.922 1.177.16 1.77 1.455 1.389 2.459a1.6 1.6 0 0 1-.474.691c-3.024 2.487-6.75 3.074-10.286 4.289-3.519 1.017-6.924 2.136-10.263 3.503-5.015 2.075-10.031 4.415-15.018 6.846l17.061 41.274c12.507-5.086 25.244-9.578 38.078-13.724 6.671-1.979 13.491-4.981 20.575-5.258.401-.015.802-.027 1.204-.024 1.478.028 2.262 2.163.696 2.992m88.251-90.69a4 4 0 0 1-.308.014c-1.269 0-2.454-.721-3.217-1.974-.502-.823-.82-1.842-.922-2.948a8 8 0 0 1-.025-.95c-1.821.222-3.654.526-5.418.805-2.831.411-3.582-3.702-.788-4.319 3.224-.59 6.257-1.23 9.573-1.397.479 0 .877.119 1.211.305.968.23 1.841.883 2.448 1.878.501.822.819 1.841.922 2.948.279 3.056-1.183 5.426-3.476 5.638m21.976-5.706a4 4 0 0 1-.308.014c-1.269 0-2.455-.721-3.218-1.975-.501-.822-.819-1.842-.921-2.95a8 8 0 0 1-.025-.947c-1.821.222-3.654.526-5.418.805-2.832.411-3.582-3.702-.789-4.319 3.224-.59 6.257-1.23 9.574-1.397.474 0 .868.116 1.199.299.974.226 1.85.885 2.459 1.884.501.822.82 1.841.923 2.948.278 3.055-1.184 5.426-3.476 5.638"/><path fill="#000" d="M294.501 166.275q-.603-.001-1.204.025c-7.084.276-13.903 3.278-20.575 5.257-12.833 4.146-25.57 8.638-38.078 13.725l-17.061-41.275c4.987-2.431 10.004-4.771 15.018-6.846 3.339-1.367 6.745-2.486 10.263-3.503 3.536-1.215 7.263-1.802 10.286-4.289.233-.193.377-.435.475-.691.38-1.003-.213-2.299-1.39-2.458-3.919-.48-7.359.975-11.035 1.921-3.569 1.113-7.203 2.31-10.721 3.736-5.182 2.105-10.15 4.461-15.074 6.859l-.298-.72a2.88 2.88 0 0 0-2.775-1.784c-.348.013-3.34.157-7.798 1.275l-.193-.589a8.63 8.63 0 0 0-12.079-5.025c-6.695 3.365-15.681 8.77-20.468 15.407-2.469 3.422-2.009 8.131.885 11.075a68 68 0 0 0-3.181 4.323c-1.013 1.495-1.264 3.265-.725 5.117l.016.041c-8.169 7.061-15.78 14.74-22.818 22.453-10.658 7.977-.945 45.549 3.029 56.733.659 1.958 1.622 3.653 2.81 4.994 2.864 3.232 7.073 4.351 11.758 1.735 9.475-5.586 14.722-15.519 21.446-23.642 9.32-9.598 17.812-20.573 28.841-28.125a60 60 0 0 1 3.966-2.539c.503.222.963.424 1.333.585a3 3 0 0 0 .756.199c.132.018.263.041.397.041a2.9 2.9 0 0 0 1.136-.233l13.783-5.894a2.883 2.883 0 0 0 1.601-3.538c12.37-5.065 24.961-9.588 37.604-13.964l5.245-1.795c5.241-1.942 10.497-2.947 15.521-5.599 1.566-.829.783-2.964-.696-2.992m-118.02-15.593c3.201-4.439 9.728-9.278 18.376-13.624a2.84 2.84 0 0 1 1.278-.308c.369 0 .74.074 1.096.222a2.82 2.82 0 0 1 1.619 1.75l10.485 31.935a3.53 3.53 0 0 1-.885 3.639 3.53 3.53 0 0 1-4.612.31l-26.724-19.996c-1.242-.929-1.525-2.691-.633-3.928m34.09 46.565c-11.62 7.97-20.087 18.922-29.711 28.863-6.527 7.602-11.391 17.238-19.99 22.549-4.575 2.8-6.11-2.518-7.338-6.161l-.316-1.046c2.404-1.16 4.39-2.669 6.348-4.43 1.946-1.765 3.656-3.785 5.003-6.036a2.13 2.13 0 0 0-.141-2.378c-1.948-2.291-4.135.76-5.791 1.848-2.221 1.775-4.638 3.451-7.132 4.818-3.225-12.448-6.738-31.047-2.922-39.35.292-.562.789-.952 1.24-1.304.902-.845 1.456-1.477 2.171-2.255 6.278-6.888 12.909-13.527 19.958-19.662 7.914 8.434 27.85 18.454 39.575 23.906-.318.214-.642.418-.954.638m9.755-2.999c-3.354-1.495-13.617-6.158-23.638-11.589-22.738-12.324-22.415-16.68-22.404-16.723a60 60 0 0 1 2.965-4.005l23.125 17.302a9.32 9.32 0 0 0 5.596 1.875 9.3 9.3 0 0 0 6.528-2.687l.001-.001a9.27 9.27 0 0 0 2.327-9.566l-8.469-25.794a43 43 0 0 1 4.233-.839l19.738 47.75z"/><path fill="#8CBA3B" d="m206.357 143.06 8.469 25.794a9.27 9.27 0 0 1-2.327 9.566l-.001.001a9.3 9.3 0 0 1-6.528 2.687 9.32 9.32 0 0 1-5.596-1.875l-23.125-17.302a60 60 0 0 0-2.965 4.005c-.012.043-.334 4.399 22.404 16.723 10.021 5.431 20.284 10.093 23.638 11.589l10.001-4.278-19.737-47.749c-1.055.151-2.502.41-4.233.839"/><path fill="#8CBA3B" d="m177.114 154.61 26.724 19.996a3.53 3.53 0 0 0 4.612-.31 3.53 3.53 0 0 0 .885-3.639l-10.485-31.935a2.82 2.82 0 0 0-1.619-1.75 2.9 2.9 0 0 0-1.096-.222c-.435 0-.869.103-1.278.308-8.648 4.346-15.175 9.185-18.376 13.624-.892 1.237-.609 2.999.633 3.928"/><path fill="#FFFBE8" d="M168.869 379.668c.407.673.522 1.484.319 2.245-.627 2.338 1.534 3.542 2.879 4.051 2.509.949 5.492.617 6.142-.685a2.89 2.89 0 0 1 5.123-.097c.159.292.635 1.178 2.561.93 2.233-.292 4.381-1.955 4.671-3.138.041-.167.166-.674-1.042-1.519a2.891 2.891 0 0 1 .934-5.166c2.21-.572 2.867-2.378 2.758-3.752-.057-.711-.489-3.054-3.688-3.358a2.89 2.89 0 0 1-2.518-3.627c.611-2.274-1.601-3.682-2.581-4.182-2.602-1.329-6.358-1.394-8.137.801a2.89 2.89 0 0 1-3.845.586 5.17 5.17 0 0 0-2.87-.848c-1.252 0-2.426.426-3.164 1.091-.878.791-.983 1.741-.33 2.987a2.89 2.89 0 0 1-1.373 3.977c-2.01.906-2.145 2.662-2.047 3.628.189 1.861 1.637 4.142 4.366 4.753.769.171 1.434.65 1.842 1.323"/><path fill="#FFFBE8" d="M26.14 276.185a6 6 0 0 0-.308-.008c-.922 0-2.126.226-3.135 1.172-2.349 2.203-1.968 6.816.832 10.074 1.594 1.854 3.678 2.981 5.716 3.09.946.048 2.316-.11 3.44-1.163 2.35-2.204 1.97-6.817-.83-10.074-1.594-1.855-3.677-2.981-5.716-3.091"/><path fill="#FFFBE8" d="M33.609 253.328a5 5 0 0 0-.307-.008c-.922 0-2.127.226-3.135 1.172-2.35 2.203-1.969 6.816.831 10.073 1.595 1.855 3.678 2.981 5.717 3.091.946.055 2.316-.11 3.44-1.164 2.35-2.203 1.97-6.816-.83-10.074-1.595-1.854-3.677-2.98-5.716-3.09"/><path fill="#FFFBE8" d="M42.383 230.327a6 6 0 0 0-.525-.025c-.882 0-1.977.215-2.93 1.042-2.432 2.106-2.228 6.742.444 10.124 1.523 1.929 3.563 3.145 5.596 3.337.946.089 2.301-.017 3.455-1.018 2.432-2.105 2.227-6.742-.445-10.124-1.523-1.929-3.562-3.144-5.595-3.336"/><path fill="#FFFBE8" d="M51.647 208.125a6 6 0 0 0-.526-.025c-.882 0-1.977.215-2.93 1.042-2.43 2.106-2.227 6.742.445 10.124 1.523 1.928 3.563 3.144 5.596 3.336.938.087 2.3-.016 3.457-1.017 2.43-2.106 2.226-6.742-.446-10.124-1.523-1.928-3.563-3.144-5.596-3.336"/><path fill="#FFFBE8" d="M302.05 408c.09.054.187.094.28.142l5.57-.041c1.863-.767 3.649-2.193 4.92-4.133 1.515-2.313 2.085-4.937 1.564-7.198-.247-1.072-.866-2.543-2.409-3.461-.847-.504-1.819-.742-2.84-.742-2.802 0-5.974 1.789-7.931 4.774-1.515 2.313-2.085 4.937-1.563 7.198.247 1.072.866 2.543 2.409 3.461"/><path fill="#FFFBE8" d="M232.816 387.534c-.893-.58-1.947-.854-3.062-.854-2.743 0-5.86 1.655-7.883 4.478-1.617 2.259-2.298 4.863-1.868 7.145.202 1.073.757 2.557 2.251 3.527 3.089 2.005 8.101.347 10.944-3.624 1.618-2.259 2.299-4.863 1.869-7.144-.202-1.074-.758-2.557-2.251-3.528"/><path fill="#FFFBE8" d="M261.332 394.088c-.202-1.073-.758-2.557-2.251-3.527-.893-.58-1.946-.854-3.062-.854-2.743 0-5.861 1.655-7.883 4.478-1.617 2.258-2.298 4.863-1.868 7.144.202 1.074.758 2.557 2.251 3.527 3.089 2.006 8.1.347 10.945-3.623 1.617-2.259 2.298-4.863 1.868-7.145"/><path fill="#FFFBE8" d="M274.793 396.409c-1.514 2.313-2.085 4.937-1.563 7.198.247 1.072.866 2.543 2.409 3.461 3.169 1.886 8.101.041 10.771-4.032 1.514-2.313 2.085-4.936 1.563-7.198-.247-1.071-.866-2.543-2.409-3.461-3.17-1.888-8.102-.041-10.771 4.032"/><path fill="#FFFBE8" d="M131.468 348.306a2.89 2.89 0 0 1-2.518-3.627c.243-.904-.725-1.552-1.324-1.857-1.445-.739-3.585-.827-4.514.319a2.89 2.89 0 0 1-3.846.586 2.65 2.65 0 0 0-1.48-.439c-.663 0-1.261.23-1.59.527-.192.172-.373.335-.035.982a2.89 2.89 0 0 1-1.372 3.976c-.249.113-1.007.454-.891 1.597.099.976.868 2.174 2.32 2.499a2.886 2.886 0 0 1 2.16 3.567c-.19.713.294 1.294 1.44 1.728 1.661.629 3.011.185 3.121-.035a2.89 2.89 0 0 1 2.532-1.6c1.127-.003 2.074.559 2.591 1.504.035.065.136.261.816.189 1.125-.126 2.17-.892 2.456-1.357a2 2 0 0 0-.297-.243 2.89 2.89 0 0 1 .934-5.166c1.243-.321 1.26-1.345 1.235-1.652-.039-.502-.318-1.363-1.738-1.498"/><path fill="#000" d="M138.968 349.347c-.22-2.777-1.852-5.009-4.288-6.103-.388-2.274-1.953-4.308-4.426-5.57-2.939-1.501-6.945-1.735-9.897.241-2.762-.858-5.917-.296-8.029 1.605-1.623 1.461-2.342 3.419-2.09 5.451-1.553 1.511-2.329 3.643-2.089 5.985.29 2.852 1.99 5.313 4.453 6.666.333 2.59 2.2 4.823 5.169 5.947 1.182.448 2.494.694 3.791.694 1.419 0 2.818-.295 4.007-.941 1.181.596 2.589.823 4.108.625 2.957-.386 6.533-2.567 7.337-5.847a5.3 5.3 0 0 0-.118-3.019c1.457-1.466 2.248-3.516 2.072-5.734m-6.997 2.109a2.89 2.89 0 0 0-.934 5.166c.143.099.236.182.297.243-.286.465-1.331 1.231-2.456 1.357-.68.072-.781-.124-.816-.189-.517-.945-1.465-1.507-2.591-1.504a2.89 2.89 0 0 0-2.532 1.6c-.11.22-1.46.664-3.121.035-1.146-.434-1.631-1.015-1.44-1.728a2.89 2.89 0 0 0-2.16-3.567c-1.452-.325-2.221-1.523-2.32-2.499-.116-1.143.642-1.484.89-1.597a2.89 2.89 0 0 0 1.373-3.976c-.339-.647-.157-.81.035-.982.329-.297.927-.527 1.59-.527.486 0 1.007.124 1.48.439a2.89 2.89 0 0 0 3.846-.586c.929-1.146 3.069-1.058 4.514-.319.599.305 1.567.953 1.324 1.857a2.89 2.89 0 0 0 2.518 3.627c1.42.135 1.698.997 1.738 1.498.025.307.008 1.331-1.235 1.652"/><path fill="#F295FF" d="M84.426 156.558c-1.027-.618-2.068-1.376-3.126-2.152-1.158-.849-2.454-1.984-3.827-3.186-5.096-4.46-12.072-10.569-18.321-7.667-2.058.955-2.139 3.742-1.907 5.702 3.268.383 8.926 2.282 16.803 9.375 5.723 5.154 11.146 7.473 15.811 8.296-2.38-2.131-4.675-5.428-5.433-10.368"/></svg>