<svg xmlns="http://www.w3.org/2000/svg" width="316" height="400" fill="none" viewBox="0 0 316 400"><path fill="#FF7B00" d="M216.986 389.837c-1.772.73-3.543.542-5.305.544a121 121 0 0 1-13.739-1.003l.001 3.53c7.07.792 14.319 1.361 21.397 1.311.08-.048 3.016-.535 3.613-5.005.017-.124.207-2.088 1.943-2.088 0-.002.378.012 1.013.037.865-4.485 4.422-9.577 5.688-11.283q.493-.66.838-1.407c.388-.84.955-2.135 1.144-2.929a7.1 7.1 0 0 0 .081-2.841l-1.849-10.8a5.6 5.6 0 0 1-.004-1.395c-5.875.459-14.022-.436-20.134-1.11-1.411-.156-2.694-.298-3.784-.403a1.67 1.67 0 0 0-1.366.492c-.35.351-.528.831-.496 1.325l2.914 15.447a1.8 1.8 0 0 1-.899 1.912c-.329.185-6.536 3.769-8.638 11.67 4.082.436 9.708 1.021 12.45 1.277 1.209.214 6.423.034 5.655 2.217a1 1 0 0 1-.523.502"/><path fill="#F295FF" d="M310.393 311.018c-1.645-1.215-5.494-1.467-8.19-1.349 1.359 1.722 2.757 3.932 3.475 6.377 1.075.136 2.507.387 4.385.835 1.757.42 2.187.124 2.191.12s.406-.545-.191-2.959c-.37-1.494-.9-2.455-1.67-3.024"/><path fill="#4C4C4C" d="M315.566 313.176c-.582-2.357-1.545-3.965-3.03-5.061-3.632-2.681-11.021-2.04-11.85-1.959-.462.046-1.886-.086-1.968-.155 2.569-7.997 3.625-17.685 1.472-29.101l-.015-.075c3.318-11.928 3.797-24.571-6.201-33.471-7.235-6.121-16.133-9.592-24.687-13.319-5.039-1.965-9.975-4.198-15.146-5.734 2.404-3.603 4.331-7.543 5.634-11.698.213-.691.404-1.39.583-2.091.24-.388.85-1.144 2.099-1.421q.15-.034.28-.07c6.253-.55 12.363-3.26 16.44-8.137 3.424-4.244 4.48-9.892 4.408-15.275-.192-4.339-1.502-8.4-3.261-12.291-1.28-2.983-1.526-6.136-1.912-9.463-.411-2.481-.181-8.587-4.288-7.522-2.459 1.01-4.905 2.056-7.375 3.037a380 380 0 0 1-8.854 3.432l-13.73-10.494a8.6 8.6 0 0 0-3.23-1.533l-59.063-14.118a5.96 5.96 0 0 0-4.9.968 5.8 5.8 0 0 0-1.291 1.295 159 159 0 0 0-2.052-1.897l-1.193-1.088-.227-.194c-1.152-.987-2.828-.535-3.538.693-1.177 2.086-1.487 4.164-2.408 6.257-1.453 4.123-4.805 6.423-7.354 9.736-4.854 5.905-9.21 14.015-7.279 21.984 1.154 3.979 3.223 7.59 5.837 10.762-.298.358-.934 1.569-1.032 1.772-2.207 4.566-3.099 12.03-.118 18.412a18.6 18.6 0 0 0 2.107 3.457c.662 3.08 1.753 6.094 3.428 8.838.312.51.699.969.99 1.487.771 1.37-.193 2.008-.942 2.074-4.892.43-11.152-.288-14.473-.395-2.574-.083-3.818-2.9-5.561-7.529-1.752-4.654-3.737-9.929-8.929-11.545-1.57-.489-4.767-.859-8.548-.916a11.3 11.3 0 0 0-3.115-1.265l-8.063-79.842a3.6 3.6 0 0 0-.3-1.082l.995-.146c55.09-8.234 99.772-20.877 106.243-30.062.849-1.206 1.176-2.422.982-3.617l-.009-.06-.011-.081c-.07-.351-.166-.832-.476-1.383-9.995-27.904-28.485-50.8-52.181-64.552-21.533-12.496-46.462-17.05-72.99-13.492-.225-1.239-.878-2.448-1.815-3.275C92.47.93 90.902.511 89.238.793c-2.82.478-4.278 4-4.376 6.23l.002.055a153 153 0 0 0-9.142 2.235C35.34 20.51 16.904 49.387 8.551 71.639.526 93.017.028 112.027.032 116.571a4.2 4.2 0 0 0 .044 1.31c.377 1.903 1.501 7.614 33.697 7.614q1.025 0 2.092-.008c19.26-.142 43.907-2.211 70.1-5.853a3.6 3.6 0 0 0-.017.821l7.984 79.051c-3.262.597-6.394 1.869-8.715 3.257-1.168.698-2.129 1.415-2.889 2.134a26 26 0 0 1-.095-1.312c-.09-2.014-1.83-3.571-3.81-3.482a3.65 3.65 0 0 0-3.482 3.81c.31 6.894 2.62 12.363 6.506 15.4a11.9 11.9 0 0 0 3.965 2.036q.48.916.964 1.828c1.249 2.357 2.429 4.583 3.238 6.477 7.049 16.506 16.92 25.742 28.547 26.708 5.593.465 11.905.604 17.475.604q1.36 0 2.651-.01c-1.126 4.51-1.76 9.133-1.997 13.604-.844 11.209 1.39 22.572 5.896 32.835 7.047 17.378 21.515 31.68 39.331 37.787 1.255.442 2.525.838 3.803 1.207.066.588.515 4.61.979 9.189a5.31 5.31 0 0 0-3.855 5.664q.008.076.022.151l2.704 14.338c-2.335 1.625-7.589 6.039-9.419 13.818-.796.18-1.423.889-1.415 1.753v7.218c-.002.21.036.411.102.601-8.939.075-17.878-.007-26.821.546a.981.981 0 0 0-.016 1.959c9.681.76 19.369.771 29.055 1.049 3.615.096 10.915.24 14.53.289 24.076.161 48.639 1.425 72.66.02 1.7-.161 1.629-2.58.022-2.748a344 344 0 0 0-6.529-.42l.071-6.362a1.68 1.68 0 0 0-.368-1.081l1.84-32.255q.005-.081.002-.163a5.4 5.4 0 0 0-2.02-4.043c-.054-.044-.113-.08-.169-.121.138-6.432.175-12.471.102-16.563a53 53 0 0 0 2.509-1.785c1.536-1.165 3.873-3.11 6.456-5.825 1.821 1.858 4.075 3.037 6.626 3.364q.815.105 1.618.105c2.918 0 5.679-1.028 7.907-2.97 2.496-2.176 4.083-5.345 4.231-8.355.813.132 1.827.33 3.081.63.455.108 1.356.324 2.365.323 1.094 0 2.314-.253 3.226-1.172 1.668-1.682 1.227-4.44.75-6.367M5.157 99.084l.792.47a1.169 1.169 0 1 0 1.195-2.01l-1.58-.94q.24-1.395.523-2.853l2.267 1.272a1.199 1.199 0 1 0 1.172-2.091l-2.289-1.284a1.2 1.2 0 0 0-.694-.148c.337-1.592.717-3.232 1.136-4.905l.525-.931a2.963 2.963 0 0 1 4.031-1.125l.892.503a2.94 2.94 0 0 1 1.397 1.783 2.94 2.94 0 0 1-.272 2.248l-9.645 17.105c-.117.207-.26.389-.415.555.222-2.276.533-4.849.965-7.65m12.75-1.373a2.94 2.94 0 0 1 1.508 1.69c.26.746.214 1.549-.13 2.262l-.445.921a2.96 2.96 0 0 1-3.95 1.379l-4.145-2 3.416-6.06zm17.931 24.168c-24.266.177-31.618-2.879-32.192-4.603-.008-.678-.012-3.03.224-6.6a6.2 6.2 0 0 0 3.59-2.888l1.672-2.965 4.333 2.091c.871.42 1.792.619 2.7.619 2.32 0 4.552-1.3 5.626-3.525l.445-.921c.724-1.5.82-3.193.272-4.765a6.2 6.2 0 0 0-3.177-3.561l-3.557-1.717 1.331-2.362a6.2 6.2 0 0 0 .575-4.737 6.2 6.2 0 0 0-2.943-3.756l-.892-.503a6.2 6.2 0 0 0-4.66-.593 123 123 0 0 1 2.785-8.3c5.143-13.656 12.403-25.407 21.581-34.926C44.046 26.981 57.117 18.995 72.44 14.071c-23.747 18.681-26.22 58.731-24.88 86.604.246 3.704.383 7.432.953 11.104.258 1.221.627 2.425 1.352 3.592a.876.876 0 0 0 1.585-.225c.775-2.476.45-4.878.243-7.364a212 212 0 0 1-.451-7.289c-.22-4.866-.282-9.738-.175-14.603.887-26.836 5.759-62.407 32.998-74.897.05-.023.089-.053.135-.08 2.512-.56 11.594-1.896 11.833-1.896a56.5 56.5 0 0 1 7.679.667c29.505 5.055 45.893 34.31 55.672 60.055a200 200 0 0 1 4.921 15.059 201 201 0 0 1 2.019 7.663c.594 2.573 1.183 5.136 2.747 7.511.422.748 1.626.532 1.788-.303.62-2.878.062-5.53-.575-8.15a207 207 0 0 0-6.891-23.251c-9.003-24.84-24.736-52.442-51.114-60.633 53.557-.236 90.607 35.824 105.291 77.79.026.305-.213.707-.369.928-1.265 1.795-7.038 6.765-33.259 14.117-19.246 5.397-44.307 10.53-70.567 14.455-28.967 4.33-56.503 6.8-77.536 6.954m142.059 20.18a2.4 2.4 0 0 1 1.008-1.773 2.68 2.68 0 0 1 2.202-.43l59.063 14.118a5.3 5.3 0 0 1 1.998.947l12.06 9.217c-2.777.988-5.57 1.927-8.386 2.796-1.023.339-2.066.611-3.1.908l-3.854-.962a1.647 1.647 0 0 0-1.936 1.015c-.018.047-1.828 4.775-5.201 8.889-4.256 5.188-8.932 7.025-13.905 5.454-3.294-1.04-11.139-5.518-12.845-24.591a2.263 2.263 0 0 0-2.267-2.056c-.894 0-1.718.524-2.08 1.359-1.81 4.171-6.728 13.655-13.219 11.697-5.482-1.655-10.805-10.682-9.538-26.588M155.97 176.26c-3.674-7.524.702-15.698 5.565-21.698 1.302-1.606 2.707-3.149 4.163-4.66 2.901-2.995 3.997-6.808 5.25-10.554q.046-.13.095-.26a203 203 0 0 1 3.545 3.216c-.445 6.319.183 12.556 1.794 17.613a27 27 0 0 0 1.72 4.206c-3.702 2.549-7.006 5.817-9.74 9.967-1.636 2.272-3.053 5.013-4.132 7.531-.794.981-2.245 1.421-3.588 1.854a30.6 30.6 0 0 1-4.672-7.215m3.446 27.649c-2.506-5.364-1.756-11.638.099-15.476.178-.37.561-.593.964-.593q.166 0 .331.051l35.24 11.156c.249.079.414.215.518.43.173.355.162.891-.028 1.398-2.403 6.388-8.742 16.523-24.19 12.632-6.355-1.601-10.707-4.83-12.934-9.598m-55.449 4.611c.51-1.209 4.678-4.321 10.358-5.429 2.79-.544 7.843-.89 10.358 2.904 1.452 2.19 1.332 3.263 1.187 3.521l-12.48 6.542c-.786.401-2.88-.866-3.692-1.678 0 0-5.581-5.637-5.731-5.86m107.886 178.598c-2.742-.256-8.368-.841-12.45-1.278 2.103-7.9 8.31-11.484 8.638-11.669a1.8 1.8 0 0 0 .9-1.912l-2.914-15.447a1.72 1.72 0 0 1 .495-1.325 1.68 1.68 0 0 1 1.367-.493c1.09.106 2.373.248 3.784.403 6.112.675 14.259 1.57 20.134 1.111-.055.454-.059.92.004 1.395l1.848 10.8c.162.943.141 1.91-.08 2.841-.19.794-.756 2.089-1.144 2.929q-.346.747-.838 1.407c-1.266 1.706-4.824 6.798-5.688 11.283a71 71 0 0 0-1.013-.037c-1.736 0-1.927 1.964-1.943 2.088-.598 4.47-3.533 4.957-3.613 5.005-7.078.05-14.328-.519-21.397-1.311l-.001-3.53a121 121 0 0 0 13.739 1.003c1.761-.002 3.533.186 5.305-.544a1 1 0 0 0 .522-.502c.769-2.183-4.445-2.003-5.655-2.217m-2.541-41.416c1.942.319 8.42 1.283 16.962 1.489 6.533.158 8.449.645 9.074 1.421.113 1.041.238 2.201.368 3.431-.629.161-2.337.665-2.656.71-5.462.773-14.806-.259-20.991-.941q-1.133-.125-2.143-.234c-.218-2.168-.435-4.22-.614-5.876m28.294 49.598a183 183 0 0 1-10.909-.777v-3.733c5.052.172 10.096.252 15.148.287 5.012-.092 12.108.206 17.03-.464 1.129-.16 1.135-1.822-.004-1.982-2.828-.389-5.652-.42-8.479-.509l-8.476-.315c-.013.005-7.309-.294-12.343-.497 1.77-7.997 7.45-11.456 7.747-11.632a1.8 1.8 0 0 0 .874-1.865l-2.817-16.447a1.64 1.64 0 0 1 .443-1.363 1.65 1.65 0 0 1 1.34-.514c7.783.606 24.098 1.045 35.886-1.148a1.92 1.92 0 0 1 1.559.383c.399.321.635.774.67 1.283l-1.785 31.273c-2.156-.018-4.59.507-5.578.925-1.225.431-1.047 2.335.276 2.497 1.846.242 3.776.268 5.602.38l-.037 3.314c-12.004.931-24.115 1.318-36.147.904m41.926-66.697c-.912.512-2.209.573-3.266.493a2.8 2.8 0 0 1-.839-.175 1.8 1.8 0 0 0-.97-.104 1.804 1.804 0 0 0-1.463 2.09c.295 1.672.329 9.923.108 19.807a5 5 0 0 0-.715.081c-10.542 1.962-24.913 1.742-33.044 1.23-.385-3.659-.733-6.771-.868-7.973.563-.099 1.127-.197 1.687-.309 1.813-.421 3.588-1.024 5.268-1.893a.85.85 0 0 0 .457-.736.82.82 0 0 0-.172-.504.83.83 0 0 0-.658-.36c-.114-.001-.226.007-.339.008-1.733.015-3.421.226-5.123.451-26.747 5.027-55.029-5.413-69.238-29.222-7.258-12.18-11.571-26.433-10.466-40.691 1.017-15.065 5.903-27.106 15.904-38.374l.082-.096c.604-.713-.274-1.689-1.058-1.205-6.207 4.159-10.575 10.141-13.515 16.871a4.2 4.2 0 0 1-.781 1.207 9 9 0 0 1-.477.473c-3.221 2.971-8.246 3.573-11.579 3.602-.786-.02-7.696-.315-10.007-.507-12.9-1.072-21.003-13.931-25.529-24.53a47 47 0 0 0-1.038-2.24 2.88 2.88 0 0 1 .284-3.03c.414-.539 6.197-5.448 7.018-5.879l8.539-4.475.083-.047c.208-.123 1.265-.819 1.627-2.406.362-1.581-.107-3.448-1.377-5.552 1.663.131 3.003.333 3.798.58 3.509 1.093 5.093 5.301 6.625 9.371 1.711 4.546 3.65 9.698 8.82 9.864 4.082.132 12.557.348 17.572.473.184.074.494.199.899.358 2.284.898 7.673 2.926 11.476 3.649l.009.001c3.086.831 6.311 1.126 9.482.786.592-.076.867-.575.839-1.054-.025-.442-.305-.868-.856-.929-9.749-1.061-17.495-4.519-21.889-11.312-.21-.325-.138-.781.19-.987.334-.21.939-.331 2.039-.079a29.6 29.6 0 0 0 4.444 1.495c2.701.681 5.16.982 7.403.982 13.289-.001 18.892-10.591 20.823-15.727.526-1.396.491-2.89-.096-4.097a4.23 4.23 0 0 0-2.562-2.196l-32.454-10.274c.913-.471 1.746-1.089 2.394-1.992.795-1.228.946-2.159 1.564-3.265a47 47 0 0 1 2.607-4.209 32.8 32.8 0 0 1 6.056-6.806l.007.003s2.331-1.398 3.827-.844a13.1 13.1 0 0 0 3.128 2.432l-.062.048c-.892.748-.077 2.264 1.052 1.91.039-.011 1.116-.332 1.185-.351.481-.145.988-.253 1.492-.344 4.187.609 8.282-1.729 11.823-6.663.647-.649 2.446-2.122 3.274.518.571 2.515 1.368 5.198 2.481 7.763-.143-.022-.285-.048-.428-.066-1.158-.124-1.686 1.513-.65 2.082.6.337 1.442.816 2 1.19.473.264.887.677 1.31 1.013 2.187 3.392 5.149 6.175 9.167 7.444 1.502.474 2.947.69 4.331.69 8.746-.001 17.978-15.105 17.978-15.105 1.116.293 3.125-.217 3.84-.34 8.48-2.195 16.741-5.16 24.919-8.254 2.175-.823 4.335-1.683 6.496-2.539.352 1.332.424 2.954.59 4.378.315 3.097.621 6.484 1.722 9.574 1.622 3.794 3.162 7.842 3.278 11.975.028 4.382-.791 9.306-3.668 12.813-4.395 5.283-11.805 7.536-18.551 6.851-4.596-.445-8.988-2.22-12.795-5.093-1.005-.763-2.295.591-1.459 1.563 1.75 2.01 7.259 5.475 7.662 5.597 1.037.415 2.783 1.336 3.646 3.052.629 1.25.69 2.741.193 4.439a43 43 0 0 1-3.525 6.75c-.836.88-1.465 1.274-1.881 1.448a42 42 0 0 0-1.327-.241c-1.004-.172-1.52 1.045-.979 1.707a1 1 0 0 0 .307.249l.244.132c3.165 1.75 6.484 3.076 9.828 4.322a335 335 0 0 1 10.193 4.036c8.257 3.62 16.781 6.962 23.71 12.612 13.228 11.771 5.77 31.1.238 45.02-2.376 6.436-11.913 4.292-16.74 1.831a23 23 0 0 1-1.832-1.059c.027-.061.057-.117.079-.184.38-1.229.833-3.101 1.167-4.377.364-1.508.851-2.888.871-4.487a.902.902 0 0 0-1.508-.709c-1.928 1.975-2.869 4.794-3.508 7.497-1.058-1.015-1.963-2.147-2.603-3.4-3.867-7.015 5.055-15.426-.21-20.35-.824-.755-1.909-1.216-2.842-1.593-.835-.355-2.946-1.219-3.823-1.579l-5.106-2.083c-3.439-1.303-6.705-3.028-10.491-3.487a.7.7 0 0 0-.226.006c-.61.098-.898.98-.347 1.384 2.425 1.901 5.188 2.977 7.926 4.114.653.272 1.305.546 1.95.836l8.118 3.404c2.843 1.678 2.502 2.806 1.248 6.921a143 143 0 0 0-.709 2.375c-1.203 4.178-.294 7.749 1.615 10.72 1.712 3.793 5.244 6.814 8.927 8.616 1.763.929 3.901 1.725 6.14 2.22l1.146.228c5.763.986 11.876-.181 13.827-6.36.467-1.128.94-2.289 1.409-3.472.04-.056.672-.902 1.179-.562.075.051.14.106.204.163.48 21.702-11.578 35.235-18.175 40.979m20.009-3.207c-1.308 1.14-3.525 2.414-6.694 2.007-2.016-.259-3.529-1.253-4.665-2.488a59 59 0 0 0 2.444-3.119c.777.527 2.469 1.099 3.525.994 1.221-.121 2.489-1.1 2.936-1.916.639-1.167.673-2.145.525-2.739-.3-1.199-1.325-2.257-2.698-3.171a55 55 0 0 0 2.466-5.28c1.757 1.744 5.217 5.689 5.181 9.674-.019 2.085-1.204 4.455-3.02 6.038m12.713-8.395c-.004.004-.434.3-2.191-.12-1.878-.448-3.31-.699-4.385-.835-.718-2.445-2.116-4.655-3.475-6.377 2.696-.118 6.545.134 8.19 1.349.77.569 1.301 1.53 1.67 3.024.597 2.414.195 2.954.191 2.959"/><path fill="#F295FF" d="M294.914 314.964c1.373.914 2.398 1.972 2.698 3.171.148.594.113 1.572-.525 2.739-.447.816-1.715 1.795-2.936 1.916-1.056.105-2.748-.467-3.526-.994a58 58 0 0 1-2.443 3.119c1.136 1.235 2.649 2.229 4.665 2.488 3.169.407 5.386-.867 6.694-2.006 1.816-1.584 3.001-3.954 3.02-6.039.036-3.985-3.424-7.93-5.181-9.674a55 55 0 0 1-2.466 5.28"/><path fill="#FF7B00" d="M183.941 100.47c26.221-7.352 31.994-12.322 33.259-14.117.156-.222.395-.623.369-.928C202.885 43.46 165.835 7.4 112.278 7.635c26.378 8.19 42.111 35.793 51.114 60.633a207 207 0 0 1 6.891 23.251c.636 2.62 1.195 5.272.574 8.15-.161.835-1.365 1.051-1.787.303-1.564-2.375-2.153-4.938-2.747-7.511a201 201 0 0 0-2.019-7.663 200 200 0 0 0-4.921-15.06c-9.779-25.745-26.167-55-55.672-60.054a56.5 56.5 0 0 0-7.68-.667c-.238 0-9.32 1.335-11.833 1.897-.045.026-.084.056-.135.08-27.239 12.489-32.11 48.06-32.997 74.896-.107 4.864-.045 9.737.174 14.603q.164 3.65.452 7.289c.206 2.486.532 4.888-.243 7.364a.876.876 0 0 1-1.585.225c-.725-1.167-1.094-2.371-1.353-3.593-.569-3.671-.706-7.399-.952-11.104-1.34-27.872 1.133-67.922 24.88-86.603-15.322 4.924-28.393 12.91-38.888 23.796-9.178 9.52-16.438 21.27-21.58 34.926a123 123 0 0 0-2.786 8.3 6.2 6.2 0 0 1 4.66.593l.891.503a6.2 6.2 0 0 1 2.944 3.756 6.2 6.2 0 0 1-.575 4.737l-1.331 2.362 3.557 1.717a6.2 6.2 0 0 1 3.177 3.56 6.2 6.2 0 0 1-.273 4.766l-.444.921a6.244 6.244 0 0 1-8.326 2.906l-4.333-2.091-1.672 2.965a6.2 6.2 0 0 1-3.59 2.888c-.236 3.57-.232 5.922-.225 6.6.575 1.724 7.927 4.78 32.193 4.603 21.033-.154 48.569-2.624 77.535-6.954 26.26-3.925 51.322-9.058 70.568-14.455"/><path fill="#4C4C4C" d="M204.431 42.7c1.736-.829 3.423-1.735 5.093-2.668 1.672-.927 3.319-1.897 4.88-3.004a1.828 1.828 0 0 0-1.96-3.079c-3.31 1.93-6.368 4.24-9.361 6.633a1.266 1.266 0 0 0 1.348 2.118"/><path fill="#5B5B5B" d="M207.913 48.033c-1.046.512-.812 2.166.357 2.35 1.457.28 3.436-.077 4.893-.185a83 83 0 0 0 4.824-.646c2.325-.45 1.808-3.87-.547-3.608a83 83 0 0 0-4.799.813c-1.419.327-3.427.577-4.728 1.276"/><path fill="#5B5B5B" d="M197.287 35.609a1.82 1.82 0 0 0 2.33-1.108l1.231-3.463a1.826 1.826 0 0 0-3.438-1.223l-1.231 3.463a1.824 1.824 0 0 0 1.108 2.331"/><path fill="#5B5B5B" d="M46.523 15.064a1.265 1.265 0 0 0 2.31-.985c-.536-1.849-1.155-3.66-1.804-5.46-.643-1.801-1.331-3.584-2.17-5.304a1.828 1.828 0 0 0-3.356 1.432c1.365 3.58 3.145 6.974 5.02 10.317"/><path fill="#5B5B5B" d="M54.66 11.511c.336 1.116 2.006 1.153 2.377.03.515-1.391.484-3.402.615-4.858.089-1.62.155-3.242.148-4.864a1.825 1.825 0 0 0-3.65-.047c-.023.81-.035 1.62-.023 2.432 0 1.417.082 3.433.145 4.869.041.811.125 1.624.389 2.438"/><path fill="#5B5B5B" d="m34.976 18.909 3.217 1.778a1.825 1.825 0 0 0 1.766-3.194l-3.217-1.779a1.826 1.826 0 0 0-1.766 3.195"/><path fill="#F295FF" d="M233.06 352.753c.319-.045 2.027-.549 2.656-.71-.13-1.23-.254-2.39-.368-3.431-.625-.776-2.541-1.263-9.074-1.421-8.542-.206-15.02-1.17-16.962-1.489.179 1.656.396 3.708.614 5.876q1.01.109 2.143.234c6.185.682 15.529 1.714 20.991.941"/><path fill="#F295FF" d="M164.23 181.62c1.079-2.517 2.496-5.258 4.132-7.53 2.734-4.151 6.038-7.418 9.74-9.967a27 27 0 0 1-1.72-4.206c-1.611-5.057-2.238-11.294-1.794-17.613a207 207 0 0 0-3.545-3.217q-.049.13-.095.26c-1.253 3.747-2.349 7.56-5.25 10.555-1.456 1.511-2.861 3.054-4.163 4.66-4.863 6-9.239 14.174-5.565 21.697a30.5 30.5 0 0 0 4.672 7.215c1.343-.433 2.794-.872 3.588-1.854"/><path fill="#DB00F8" d="M196.54 200.875c.19-.507.201-1.042.028-1.398-.104-.215-.269-.351-.518-.43l-35.24-11.155a1.1 1.1 0 0 0-.331-.052c-.403 0-.786.223-.964.593-1.855 3.838-2.605 10.112-.099 15.476 2.227 4.768 6.579 7.997 12.934 9.598 15.448 3.891 21.787-6.244 24.19-12.632m-19.031 2.203c.746-2.207 1.334-3.95 2.64-4.561.55-.257 1.156-.272 1.752-.04 2.415.939 1.516 3.584.724 5.918l-.124.368q-.13.385-.248.75c-.591 1.808-1.309 4.008-3.216 4.008q-.373.001-.811-.119a2 2 0 0 1-1.257-1.015c-.544-1.024-.387-2.562.54-5.309m-6.394-2.159c-.923 2.735-1.724 4.05-2.765 4.54a2.1 2.1 0 0 1-.883.203q-.373 0-.738-.14c-2.415-.925-1.37-4.024-.606-6.287.838-2.483 1.789-5.298 4.261-4.644.608.161 1.081.527 1.367 1.059.653 1.215.173 2.876-.636 5.269"/><path fill="#4C4C4C" d="M198.729 184.418a1.081 1.081 0 0 0-.459 2.115c.399.088 1.472.434 2.096 1.002-1.346-.533-2.794-1.027-3.486-.973a1.09 1.09 0 0 0-1.014 1.158 1.074 1.074 0 0 0 1.144 1.002c.497.014 2.627.818 4.304 1.559a1.07 1.07 0 0 0 .864.005c.276-.119.491-.347.592-.63.348-.975.288-1.929-.175-2.761-1.008-1.814-3.576-2.414-3.866-2.477"/><path fill="#4C4C4C" d="M170.384 194.591c-2.472-.654-3.423 2.16-4.261 4.644-.764 2.263-1.809 5.362.606 6.287q.365.14.738.139c.298 0 .596-.067.883-.202 1.041-.49 1.842-1.805 2.765-4.54.808-2.394 1.289-4.054.636-5.269-.286-.532-.759-.898-1.367-1.059"/><path fill="#4C4C4C" d="M178.226 209.402q.439.12.811.119c1.907 0 2.625-2.199 3.216-4.008q.118-.365.248-.75l.124-.368c.792-2.334 1.691-4.979-.724-5.918-.596-.232-1.202-.217-1.752.04-1.306.611-1.894 2.354-2.64 4.561-.927 2.747-1.084 4.285-.54 5.31.271.511.706.861 1.257 1.014"/><path fill="#4C4C4C" d="M228.341 202.659c-1.027 2.707-3.715 4.459-6.283 5.832-2.205 1.125-4.438 2.274-6.712 3.218-.681.298-1.353.583-1.768.924-.438.359-.731.762-.865 1.029-.259.515-.055 1.156.438 1.374a1 1 0 0 0 .23.067c1.058.195 1.993.085 2.991-.163 2.669-.66 5.16-1.766 7.519-3.134 3.264-1.93 6.96-5.004 7.085-9.166-.055-1.741-2.608-1.714-2.635.019"/><path fill="#FF7B00" d="M187.435 168.647c6.491 1.958 11.409-7.526 13.219-11.697a2.265 2.265 0 0 1 2.446-1.33 2.26 2.26 0 0 1 1.901 2.027c1.706 19.073 9.551 23.551 12.845 24.591 4.973 1.571 9.649-.266 13.905-5.454 3.373-4.114 5.183-8.842 5.201-8.889a1.65 1.65 0 0 1 1.937-1.015l3.853.962c1.034-.297 2.077-.569 3.1-.908a208 208 0 0 0 8.386-2.796l-12.06-9.217a5.3 5.3 0 0 0-1.998-.947l-59.063-14.118a2.68 2.68 0 0 0-2.202.43 2.4 2.4 0 0 0-1.008 1.773c-1.267 15.906 4.056 24.933 9.538 26.588m20.169-18.349a.82.82 0 0 1 1.016-.791l27.939 6.777a.83.83 0 0 1 .517.384.83.83 0 0 1 .081.639c-.271.958-6.363 22.089-16.701 22.089a8 8 0 0 1-2.106-.289c-7.597-2.076-10.872-15.965-10.746-28.809m-26.914-7.399a.823.823 0 0 1 1.019-.653l18.601 4.891a.82.82 0 0 1 .589.991c-.137.56-3.428 13.765-8.925 16.931-.826.475-1.666.714-2.51.714a4.7 4.7 0 0 1-1.319-.194c-5.02-1.472-9.984-8.295-7.455-22.68"/><path fill="#232323" d="M188.145 165.579q.66.194 1.319.194c.844 0 1.684-.239 2.51-.714 5.497-3.166 8.788-16.371 8.925-16.931a.82.82 0 0 0-.589-.991l-18.601-4.891a.823.823 0 0 0-1.019.653c-2.529 14.385 2.435 21.208 7.455 22.68m-.872-13.613c2.65 1.283 4.726-4.389 4.726-4.389l3.724.57s-2.07 8.238-5.65 7.892-3.557 5.769-4.602 4.841c-2.445-2.171-2.821-5.618-2.821-5.618s1.974-4.579 4.623-3.296"/><path fill="#232323" d="M218.35 179.107a8 8 0 0 0 2.106.289c10.338 0 16.43-21.131 16.701-22.089a.83.83 0 0 0-.081-.639.83.83 0 0 0-.517-.384l-27.939-6.777a.82.82 0 0 0-1.016.791c-.126 12.844 3.148 26.733 10.746 28.809m-.399-17.905c3.121 1.512 5.567-5.17 5.567-5.17l4.386.672s-2.437 9.704-6.654 9.296-4.19 6.795-5.422 5.702c-2.879-2.557-3.322-6.617-3.322-6.617s2.324-5.395 5.445-3.883"/><path fill="#4C4C4C" d="M185.471 160.88c1.045.928 1.022-5.187 4.602-4.841s5.65-7.892 5.65-7.892l-3.724-.57s-2.076 5.672-4.726 4.389-4.622 3.296-4.622 3.296.375 3.447 2.82 5.618"/><path fill="#4C4C4C" d="M215.828 171.702c1.232 1.093 1.204-6.11 5.422-5.702 4.217.408 6.654-9.296 6.654-9.296l-4.386-.672s-2.446 6.682-5.567 5.17-5.445 3.882-5.445 3.882.443 4.061 3.322 6.618"/><path fill="#FF7B00" d="M273.79 391.082c-1.826-.112-3.756-.138-5.603-.38-1.322-.162-1.5-2.066-.275-2.497.988-.418 3.422-.943 5.578-.925l1.785-31.273a1.78 1.78 0 0 0-.67-1.283 1.92 1.92 0 0 0-1.559-.383c-11.788 2.193-28.103 1.754-35.886 1.148a1.66 1.66 0 0 0-1.341.514 1.64 1.64 0 0 0-.442 1.363l2.817 16.447a1.8 1.8 0 0 1-.874 1.865c-.297.175-5.978 3.635-7.747 11.631 5.034.204 12.329.503 12.343.498l8.476.315c2.827.089 5.65.12 8.478.509 1.14.16 1.134 1.822.005 1.982-4.922.67-12.018.372-17.03.464a559 559 0 0 1-15.148-.287v3.733c3.617.372 7.257.621 10.909.777 12.032.414 24.143.027 36.146-.904z"/><path fill="#F295FF" d="M297.707 287.624a2 2 0 0 0-.204-.163c-.507-.34-1.139.506-1.179.561a228 228 0 0 1-1.41 3.472c-1.951 6.18-8.063 7.347-13.826 6.361l-1.147-.228c-2.238-.495-4.377-1.292-6.14-2.221-3.682-1.801-7.214-4.822-8.926-8.615-1.909-2.971-2.818-6.542-1.616-10.72.254-.882.494-1.668.709-2.375 1.255-4.116 1.596-5.244-1.247-6.921l-8.118-3.404a73 73 0 0 0-1.95-.836c-2.738-1.138-5.501-2.214-7.926-4.114-.552-.405-.263-1.286.347-1.384a.7.7 0 0 1 .226-.006c3.786.458 7.052 2.184 10.491 3.487l5.106 2.083c.877.36 2.988 1.224 3.823 1.579.933.377 2.018.838 2.842 1.593 5.265 4.924-3.657 13.334.209 20.35.641 1.253 1.546 2.385 2.604 3.4.639-2.703 1.58-5.522 3.507-7.498a.902.902 0 0 1 1.509.71c-.021 1.598-.508 2.979-.872 4.487-.333 1.276-.786 3.148-1.167 4.377-.021.067-.052.123-.078.184.596.379 1.206.738 1.832 1.059 4.827 2.461 14.363 4.605 16.74-1.831 5.532-13.92 12.99-33.249-.239-45.02-6.929-5.65-15.452-8.992-23.709-12.612a336 336 0 0 0-10.193-4.036c-3.344-1.246-6.663-2.572-9.828-4.322l-.245-.132a1 1 0 0 1-.306-.249c-.541-.663-.025-1.879.979-1.707q.666.11 1.326.241c.416-.174 1.045-.568 1.882-1.449a42.6 42.6 0 0 0 3.524-6.75c.497-1.698.437-3.188-.193-4.439-.862-1.715-2.609-2.636-3.646-3.051-.403-.123-5.911-3.588-7.661-5.597-.836-.972.453-2.326 1.459-1.563 3.806 2.873 8.199 4.648 12.794 5.093 6.747.685 14.157-1.568 18.551-6.851 2.878-3.507 3.696-8.431 3.669-12.813-.117-4.133-1.657-8.181-3.278-11.975-1.101-3.09-1.407-6.477-1.722-9.574-.167-1.424-.238-3.046-.59-4.378-2.161.855-4.321 1.716-6.496 2.539-8.179 3.094-16.439 6.059-24.919 8.254-.716.123-2.725.633-3.84.34 0 0-9.233 15.104-17.978 15.104-1.385 0-2.829-.215-4.331-.689-4.019-1.269-6.98-4.052-9.168-7.445-.422-.335-.837-.749-1.309-1.012-.558-.374-1.401-.853-2-1.19-1.037-.569-.508-2.207.65-2.082.143.018.285.043.427.066-1.113-2.565-1.91-5.248-2.48-7.763-.829-2.64-2.627-1.167-3.275-.519-3.54 4.934-7.636 7.273-11.823 6.664-.503.091-1.01.199-1.492.343-.069.02-1.145.341-1.185.351-1.128.354-1.943-1.161-1.051-1.91l.062-.047a13 13 0 0 1-3.128-2.432c-1.497-.555-3.828.844-3.828.844l-.006-.003a32.7 32.7 0 0 0-6.056 6.806 47 47 0 0 0-2.608 4.209c-.617 1.106-.768 2.037-1.563 3.265-.649.903-1.481 1.521-2.394 1.992l32.454 10.274a4.23 4.23 0 0 1 2.562 2.196c.586 1.207.622 2.701.096 4.097-1.931 5.136-7.534 15.725-20.824 15.727-2.242 0-4.702-.301-7.402-.982a29.5 29.5 0 0 1-4.444-1.496c-1.1-.251-1.706-.13-2.039.08-.328.206-.401.662-.19.987 4.394 6.793 12.139 10.251 21.889 11.312.55.061.831.487.856.929.027.479-.248.977-.84 1.053-3.171.34-6.396.046-9.482-.785l-.009-.001c-3.802-.723-9.191-2.751-11.476-3.649-.404-.159-.715-.284-.898-.358-5.016-.125-13.49-.341-17.573-.473-5.169-.166-7.108-5.318-8.819-9.864-1.533-4.07-3.116-8.279-6.626-9.371-.795-.247-2.134-.449-3.798-.58 1.27 2.104 1.74 3.971 1.378 5.552-.363 1.587-1.42 2.283-1.627 2.406l-.084.046-8.539 4.476c-.821.43-6.603 5.34-7.017 5.879a2.88 2.88 0 0 0-.284 3.029c.381.776.732 1.526 1.037 2.241 4.527 10.599 12.63 23.458 25.53 24.53 2.311.192 9.22.487 10.006.506 3.334-.029 8.359-.63 11.58-3.601q.246-.227.477-.473c.33-.352.588-.765.781-1.207 2.939-6.73 7.307-12.712 13.515-16.871.783-.484 1.661.492 1.057 1.205l-.082.096c-10 11.267-14.886 23.308-15.903 38.374-1.105 14.257 3.208 28.511 10.466 40.69 14.209 23.81 42.491 34.249 69.238 29.223 1.701-.225 3.39-.436 5.122-.451.114-.001.226-.009.34-.008a.83.83 0 0 1 .658.36.83.83 0 0 1 .172.504.85.85 0 0 1-.458.736c-1.68.869-3.454 1.472-5.267 1.893-.561.112-1.124.21-1.687.309.135 1.202.482 4.314.867 7.973 8.131.512 22.502.732 33.045-1.23.238-.045.477-.068.715-.082.221-9.883.187-18.134-.108-19.806a1.804 1.804 0 0 1 1.462-2.09c.341-.059.673-.016.971.104.267.107.552.153.839.174 1.057.081 2.354.02 3.265-.492 6.597-5.744 18.655-19.277 18.176-40.979M190.546 186.106c-.463.677-1.125 1.177-1.952 1.243a2.5 2.5 0 0 1-1.646-.417c-.586-.388-.972-1.002-1.032-1.64a1.79 1.79 0 0 1 .546-1.469c.531-.517 1.728-.644 2.703-.043.159-.36.166-.572.13-.65-.07-.149-.488-.299-.787-.323a1.087 1.087 0 0 1-.994-1.16 1.084 1.084 0 0 1 1.145-.999c.195.012 1.924.165 2.587 1.545.037.078.06.161.077.246.302 1.051-.223 2.859-.777 3.667m12.224 3.55a1.084 1.084 0 0 1-1.456.625c-1.677-.741-3.807-1.545-4.304-1.559a1.074 1.074 0 0 1-1.144-1.002 1.09 1.09 0 0 1 1.014-1.158c.692-.054 2.14.44 3.486.973-.624-.568-1.696-.914-2.096-1.002a1.082 1.082 0 0 1 .459-2.115c.29.063 2.858.663 3.866 2.477.463.832.523 1.786.175 2.761m21.121 22.15c-2.359 1.368-4.85 2.474-7.519 3.134-.998.248-1.933.358-2.991.164a1 1 0 0 1-.23-.067c-.493-.219-.697-.859-.438-1.375.134-.267.427-.669.865-1.029.415-.341 1.087-.626 1.768-.923 2.274-.945 4.507-2.094 6.712-3.219 2.568-1.373 5.256-3.124 6.283-5.832.027-1.733 2.58-1.76 2.635-.018-.125 4.161-3.821 7.235-7.085 9.165"/><path fill="#F295FF" d="m113.39 216.058 12.48-6.542c.145-.258.265-1.331-1.187-3.521-2.515-3.794-7.568-3.448-10.358-2.904-5.68 1.108-9.848 4.219-10.358 5.429.15.223 5.731 5.86 5.731 5.86.812.812 2.906 2.079 3.692 1.678"/><path fill="#FF7B00" d="m10.745 101.963 4.144 2c1.47.71 3.242.09 3.951-1.379l.445-.921c.344-.713.39-1.516.13-2.262a2.94 2.94 0 0 0-1.509-1.69l-3.745-1.807z"/><path fill="#FF7B00" d="M14.252 89.073a2.94 2.94 0 0 0 .272-2.248 2.94 2.94 0 0 0-1.397-1.783l-.892-.503a2.963 2.963 0 0 0-4.03 1.124l-.526.932c-.419 1.672-.8 3.313-1.136 4.905.233-.022.475.024.694.147l2.29 1.285a1.199 1.199 0 1 1-1.173 2.09l-2.267-1.27q-.282 1.455-.522 2.852l1.579.94a1.17 1.17 0 0 1-1.195 2.01l-.792-.47c-.432 2.8-.743 5.373-.964 7.649a3 3 0 0 0 .414-.554z"/><path fill="#4C4C4C" d="M191.246 182.193c-.663-1.38-2.392-1.533-2.587-1.545a1.084 1.084 0 0 0-1.145.999c-.044.593.402 1.11.994 1.16.299.024.717.174.787.323.036.078.029.29-.13.65-.975-.601-2.172-.474-2.703.043a1.79 1.79 0 0 0-.546 1.469c.06.638.446 1.252 1.032 1.64a2.54 2.54 0 0 0 1.646.417c.827-.066 1.489-.566 1.952-1.243.554-.808 1.079-2.616.777-3.667a1 1 0 0 0-.077-.246"/></svg>