<svg xmlns="http://www.w3.org/2000/svg" width="580" height="580" fill="none" viewBox="0 0 580 580">
  <path
    fill="#000"
    d="M555.374 434.848c-11.14-1.015-22.293-1.434-33.448-1.74.047-.889.107-2.255.146-2.731.675-13.523 1.221-26.982.497-40.65-.459-4.112-.37-14.195-5.074-15.916-3.489-.721-6.99-.5-10.452.127-2.09-9.702-7.567-18.161-11.413-24.095-1.617-2.495-3.63-5.6-3.723-6.53-.565-11.016-3.203-28.286-8.775-40.707-5.341-11.904-14.606-20.146-26.794-23.833-10.345-3.129-22.28-2.805-34.146.658-15.16-10.973-33.709-17.179-52.408-17.578a178 178 0 0 0-1.794-.027 3 3 0 0 1-.507-.048 17 17 0 0 1-1.1-.238c-.675-.178-1.021-1.031-.804-1.593 3.476-9.229 6.379-18.673 8.541-28.308 2.069-9.65 3.44-19.792 2.273-29.851-.1-.791-.288-1.522-.512-2.225l15.91-.088c1.524-.009 3.04-.476 4.202-1.461a6.19 6.19 0 0 0 2.212-4.792l-.266-47.943c-.003-.59-.062-1.184-.228-1.751-.828-2.84-3.391-4.559-6.024-4.528l-85.537.475c-1.524.009-3.041.475-4.203 1.459a6.2 6.2 0 0 0-2.216 4.794l.267 48.039a6.225 6.225 0 0 0 6.217 6.183h.035l16.652-.093c-.539 1.619-.791 3.308-1.145 4.969l-.119.364c-.571 1.754-1.134 3.87-1.673 6.011a5 5 0 0 0-.748-.105c-.378-.02-.746.037-1.104.092-5.799 1-11.539 2.321-17.177 4.002-12.577 3.749-24.685 8.782-36.375 14.697-.764.454-1.738.847-2.62 1.357-1.659-1.73-7.999-7.832-19.658-13.242-16.585-7.699-38.61-5.368-54.8 5.803-10.095 6.964-17.002 14.443-21.673 21.796-4.023-8.219-8.817-14.588-14.354-19.021-7.646-6.121-16.593-8.408-26.589-6.796-11.925 1.922-22.786 9.707-32.042 22.804-5.935-6.056-12.08-8.57-18.945-7.932-5.417.499-9.935 3.582-12.722 8.681-3.808 6.965-3.955 16.677-.357 23.617.5.963 1.094 2.116 1.757 3.404-1.646.208-3.41.733-4.597 1.943-.753.767-1.585 2.125-1.274 4.234.392 2.658 2.359 5.31 3.94 7.441.19.258.403.545.61.83-3.441.464-5.711 3.807-6.176 7.156a8 8 0 0 0-.025 2.073l-1.203-.005h-.01a2.5 2.5 0 0 0-2.495 2.659l3.194 50.186c.024.373.132.737.315 1.064l5.537 9.888-12.645 32.504q-.129.33-.16.685l-1.237 14.043c-.518 5.871 2.072 13.81 5.96 18.531-9.669.059-19.338.161-29.011.728a1.36 1.36 0 0 0-.018 2.715c14.453 1.036 28.913 1.035 43.37 1.403 5.395.127 16.292.314 21.687.376 27.931.141 56.299 1.198 84.387.73 1.67 1.409 3.555 2.573 5.69 3.347 4.233 1.195 8.359 1.25 12.64 1.579 32.279 1.514 64.55.352 96.797 1.631 20.164 1.381 40.14 4.307 60.439 3.917a284 284 0 0 0 35.912-2.4c.063.002.121.012.187.009 2.049-.159 6.832-.2 9.058-.201 31.041.107 67.627.696 98.599 1.355 4.7.092 46.993.412 63.267-.125 2.45-.185 2.299-3.587.078-3.806m-39.443-55.943-.015-.004c.027.004.048.007.015.004m-81.811-96.861c7.3-.884 14.381-.418 20.77 1.515 10.761 3.256 18.95 10.55 23.681 21.094 4.134 9.215 6.564 21.323 7.691 31.23-.298 6.983-1.184 14.407-1.451 21.421-.103 1.785 2.438 2.344 3.087.661a55 55 0 0 0 1.587-5.191c.275-.304.69-.528 1.294-.269.396.169.792.484 1.157.831 2.876 4.446 6.321 9.906 8.574 15.977.677 3.915-1.125 5.933-2.381 6.838-1.126.315-2.244.625-3.349.909-2.86.719-6.003 1.809-8.829 1.643-.354-.024-2.305-.743-2.715-.869l-4.339-1.464c-4.563-1.393-9.232-2.53-13.957-3.316 3.356-31.769-10.948-64.786-34.018-86.424-.389-1.234-.459-3.419 3.198-4.586M306.228 195.95h-.012a2.22 2.22 0 0 1-2.218-2.205l-.267-48.039a2.2 2.2 0 0 1 .641-1.572 2.2 2.2 0 0 1 1.565-.657l85.772-.477h.013c.588 0 1.141.228 1.559.641.421.417.655.972.658 1.565l.267 48.039a2.2 2.2 0 0 1-.641 1.57 2.2 2.2 0 0 1-1.564.659l-46.377.257c-.047-.092-.085-.185-.135-.276-1.63-2.381-4.602-3.937-7.494-4.214-4.652-.317-9.146 1.501-12.49 4.602zm-115.906 31.97c8.898-6.138 20.018-9.351 30.702-9.351 6.789 0 13.404 1.298 19.155 3.968a76 76 0 0 1 6.771 3.56c5.557 4.307 6.353 7.154 6.46 8.019a467 467 0 0 0-22.651 12.24c-.022-2.364-.852-3.958-1.721-4.973-2.137-2.497-5.651-2.946-8.01-2.573-1.747.276-3.663.83-5.658 1.591-1.313-1.612-3.501-3.681-6.563-4.506-3.154-.85-6.49-.198-9.913 1.938-3.858 2.409-6.416 6.114-7.558 10.793-.73-1.889-.691-4.324-.574-5.334a1.564 1.564 0 0 0-1.048-1.663 1.564 1.564 0 0 0-1.845.679c-3.231 5.425-4.096 9.993-2.569 13.578 1.818 4.272 6.324 5.364 6.515 5.408l.007.001c.138.1.288.183.458.227q.167.042.335.042c.376 0 .741-.157 1.002-.44.007-.007.18-.193.523-.531a2.47 2.47 0 0 0 1.704-.904c4.824-5.978 18.017-14.682 25.966-15.941 1.17-.184 2.721.061 3.429.887.699.816.707 2.434.023 4.556a2.5 2.5 0 0 0-.096.449c-34.592 20.67-53.588 38.677-60.252 45.582-1.456-4.134-3.485-11.623-3.165-20.627.653-18.341 10.267-34.045 28.573-46.675m-41.996 2.559c6.19 4.954 10.881 12.387 14.437 20.509a57.6 57.6 0 0 0-3.323 8.123c-2.369-11.294-6.851-24.324-15.319-31.455l-.005-.004q2.178 1.2 4.21 2.827m-19.464 57.666c-.01-.111-.994-11.195 3.769-16.464 1.604-1.775 3.683-2.646 6.357-2.664 8.79-.059 11.41-.047 12.188-.033q.25.043.515.031c.154.002 2.447-.017 4.61 1.917.195 1.603.336 3.001.436 4.126a62 62 0 0 0 1.834 16.446c.19 1.12.381 2.078.571 2.908l-30.288-.11.019-5.911a2 2 0 0 0-.011-.246m10.262-25.195v-3.226h13.528v3.226zm-10.817-35.478c4.759-.428 8.879.881 12.593 4.009 6.151 5.179 9.974 14.378 12.338 23.243h-16.614c-1.29 0-2.339.98-2.474 2.234-1.456-.273-2.875-.001-4.116.853-.279.192-.617.445-1.007.737-2.011 1.51-5.759 4.321-8.809 3.451-1.921-.547-3.568-2.544-4.894-5.937-2.427-6.207-6.61-7.017-8.878-6.964-.157.004-.312.024-.467.037 5.095-11.159 12.341-20.76 22.328-21.663m-30.898 62.533a2.04 2.04 0 0 0 2.743.901l6.861-3.468a2.041 2.041 0 0 0-.099-3.692c-4.17-1.832-7.791-2.298-10.822-1.444 1.053-5.499 2.463-11.743 4.315-17.994q.187-.627.38-1.259a9986 9986 0 0 1 16.933 31.213l-23.579-.086c.27-1.971.622-4.326 1.067-6.959a5.5 5.5 0 0 1 .81-.537c1.266-.677 2.822-.88 4.65-.611l-2.359 1.193a2.04 2.04 0 0 0-.9 2.743m16.155-60.826c-16.406 14.992-22.614 50.755-24.486 64.979l-12.666-.046c3.85-15.534 14.955-51.778 37.152-64.933m-48.019 16.555c1.39-2.541 4.043-5.662 8.794-6.1 5.51-.506 10.58 1.789 15.644 7.228-3.004 4.784-5.822 10.158-8.428 16.116a158 158 0 0 0-1.446 3.417c-2.816 3.052-3.697 6.87-3.744 7.081a2.02 2.02 0 0 0 .415 1.718 194 194 0 0 0-2.386 7.319 3635 3635 0 0 0-9.154-17.86c-2.785-5.373-2.654-13.505.305-18.919M51.312 405.498l1.207-13.687 12.942-33.27a2.5 2.5 0 0 0-.148-2.126l-5.836-10.424-2.989-46.951 97.269.352a5 5 0 0 1 1.522.268c.17.055.345.092.508.167l.017.008c.412.189.812.422 1.176.7q.343.264.626.587.17.193.312.412.18.276.306.595c.123.314.216.65.239 1.029a4 4 0 0 1-.029.776 2.4 2.4 0 0 1-.098.438 3 3 0 0 1-.697 1.144 229 229 0 0 0-7.623 8.334c-7.043 8.113-13.523 16.84-19.139 26.017-.737 1.102-1.193 2.396-.885 3.802.726 3.072 4.116 4.533 6.377 5.79 3.083 1.563 6.867 3.423 9.631 5.432 5.047 3.518 10.237 7.103 15.84 9.793a53 53 0 0 0 3.928 1.675c.606.232 1.207.475 1.824.682q.392.132.746.335.355.205.659.485.274.252.563.545c.285.289.576.615.865.959.1.12.202.234.301.36.323.41.632.861.922 1.337.056.091.116.175.17.269.057.1.107.208.162.311.105.196.213.388.308.593.059.126.105.261.159.39.081.191.166.379.236.578.058.166.1.342.15.514s.109.339.151.516c.093.402.033.826-.135 1.204a150 150 0 0 0-2.472 5.917c-.37.944-.733 1.891-1.08 2.843a100 100 0 0 0-2.505 7.864 81 81 0 0 0-.975 3.961 69 69 0 0 0-.951 5.316c-.362 2.612-.57 5.229-.573 7.843q-.002 1.146.049 2.29c.142 4.276 1.381 8.658 3.599 12.415l-106.996-.576c-1.457-.008-2.936-.824-4.395-2.427-3.596-3.949-5.611-11.143-5.238-15.385m465.52 20.13c-.081 1.822-.237 4.825-.349 6.991-.729.188-1.498.313-2.297.408-7.274.703-14.645.439-22.043.349-11.956-.291-23.941-.444-35.901-.596-16.402-.097-46.762-.325-62.847-.146-1.541.05-3.152.045-4.784.078l.227.047c-5.54.227-11.072 1.197-16.594 1.586-7.965.638-15.962.934-23.968.876-20.119.217-40.172-2.742-60.217-4.117-34.203-1.478-68.536.259-102.662-2.074-1.755-.174-3.829-.415-5.41-.881-3.145-1.27-5.969-3.665-7.702-6.621-8.781-15.671 3.526-41.613 10.985-56.333 2.982-6.372 10.723-7.964 17.246-8.866 4.209-.481 8.521-.471 12.763-.047l.014.02c-1.052 3.877-2.005 8.408-2.899 12.334-.161.561-.031 1.183.431 1.605 3.472 2.785 7.168-10.624 7.366-12.938.014-.104.009-.199.012-.299 3.565.669 7.038 1.735 10.017 3.612 8.811 4.891-9.432 27.697-4.54 37.971.533 1.282 2.514 1.083 2.77-.303 1.501-7.764 3.895-14.824 6.766-22.304l.122-.341c.479-.237.946-.399 1.373-.468a165 165 0 0 0 2.372-.399c.981-.115 1.97-.299 2.971-.585 1.556-.421 1.38-2.738-.195-2.951-1.628-.247-3.303-.377-4.992-.49 2.004-7.997.425-13.772-9.918-17.084-10.081-3.326-28.515-4.409-39.26 2.015-4.533-3.763-8.331-8.39-11.007-13.858-1.691-3.113-3.165-6.344-5.011-9.58a1.384 1.384 0 0 0-2.59.774c.15 1.927.514 3.823 1.07 5.666 1.719 5.547 4.67 10.696 8.424 15.175 4.407 5.611 3.193 7.401 3.193 7.401-.048.074-.232.381-.273.461-1.135 1.562-2.832 2.015-3.755 2.145-8.935-.279-20.061-8.014-26.987-12.816-3.033-2.181-6.913-4.067-10.257-5.731-1.555-.834-3.105-1.534-3.99-2.61 6.379-10.578 14.145-20.977 22.629-30.531.633-.475 2.424-1.698 3.183-.939.668.668 1.968 3.34 2.649 4.795.207.442.364.899.507 1.366.355 1.162.848 2.288 1.569 3.345.463.762 1.753.447 1.826-.434.467-3.49-.322-6.581-.453-9.83a46 46 0 0 1-.074-3.32c.4-3.447 3.458-9.02 4.379-10.634 10.514-10.307 38.976-35.315 89.618-60.278.981.378 1.987.682 3.038.84.377.061.77-.024 1.098-.285.599-.475.651-1.357.199-1.974-.124-.168-.256-.325-.383-.488 2.263-1.147 4.693-2.353 6.97-3.393 8.789-4.067 17.779-7.89 27.1-10.504 4.531-1.271 18.046-4.567 18.738-1.797.27 1.079.111 2.699-.181 4.276-1.896 6.624-4.091 13.179-6.615 19.569l-.034.077c-2.084 4.171-5.031 8.896-9.11 13.213-.919.973-1.927.577-2.737-.106-1.881-2.543-4.038-4.888-6.486-6.894-3.438-3.587-8.473-5.634-13.041-6.536-1.793-.393-2.713 2.126-1.084 2.983 2.935 1.541 5.872 3.024 8.184 4.844.858.656 1.784 1.623 2.597 2.385 5.306 4.271 8.85 10.234 11.468 16.468.714 1.487 1.475 3.025 2.396 4.42.783 1.254 2.834.688 2.859-.803.091-2.608-.528-4.987-1.445-7.254-.052-.429.004-1.072.456-1.813 8.493-9.318 16.522-35.159 18.831-44.357.72-2.866 1.625-6.783 2.535-10.027l-.037-.009a54 54 0 0 0 1.462-5.734c.3-1.302.372-2.278.97-3.175 2.274-2.521 6.354-4.347 9.407-4.041 1.383.04 3.131 1.095 3.757 1.836 1.135 4.879-.288 9.979.563 15.155.169 1.706 2.645 2.066 3.285.452 1.232-3.109 1.635-6.283 1.696-9.554.374-.907 1.931-3.587 7.272-4.334l16.334-.091.272.212c4.059 16.947-3.357 42.054-11.207 62.21-7.411.43-14.767 1.646-21.695 4.354a1.295 1.295 0 0 0 .577 2.494c5.326-.403 10.488-1.153 15.684-1.72 15.452-1.725 31.444-.123 45.887 5.671 36.008 14.121 61.684 55.4 60.054 94.404-.926 3.626-3.257 4.546-4.654 4.766-5.068-.274-10.161-.073-15.218.739-5.442 1-11.032 2.47-15.094 6.503-1.035 1.073.222 2.746 1.532 2.171 5.371-1.571 10.828-3.31 16.52-4.001 5.688-.717 11.506-.569 17.258.14 7.891.898 15.776 3.249 23.274 5.912 2.534.984 5.725.316 8.115-.191 7.832-1.646 15.699-5.226 23.693-4.406 1.385 3.265 1.442 7.057 1.741 10.737-2.598-.002-5.133.207-7.714.578-2.973.448-5.973 1.109-8.791 2.447a1.54 1.54 0 0 0-.872 1.476 1.53 1.53 0 0 0 1.657 1.432l8.502-.519 7.432-.356c.293 10.294-.1 20.689-.522 30.982"
  />
  <path
    fill="#FFFBE8"
    d="M159.142 294.412c-.19-.83-.381-1.788-.571-2.908a62 62 0 0 1-1.834-16.446c-.1-1.125-.241-2.523-.436-4.126-2.163-1.934-4.456-1.915-4.61-1.917a2.4 2.4 0 0 1-.515-.031c-.778-.014-3.397-.026-12.187.033-2.674.018-4.754.889-6.358 2.664-4.763 5.269-3.779 16.353-3.768 16.464q.01.123.011.246l-.02 5.911z"
  />
  <path
    fill="#BE7AEB"
    d="M74.394 282.513a193 193 0 0 1 2.386-7.319 2.02 2.02 0 0 1-.415-1.718c.047-.211.928-4.029 3.744-7.081a158 158 0 0 1 1.447-3.417c2.606-5.958 5.423-11.332 8.427-16.116-5.064-5.439-10.134-7.734-15.644-7.228-4.751.438-7.404 3.559-8.793 6.1-2.96 5.413-3.09 13.546-.306 18.918 2.03 3.915 5.599 10.892 9.154 17.861"
  />
  <path
    fill="#BE7AEB"
    d="m98.31 287.262 2.358-1.193c-1.828-.269-3.383-.066-4.65.611a5.6 5.6 0 0 0-.81.537 229 229 0 0 0-1.067 6.959l23.579.086a10006 10006 0 0 0-16.932-31.213q-.194.632-.381 1.259c-1.852 6.252-3.262 12.495-4.314 17.994 3.03-.854 6.651-.388 10.821 1.444a2.042 2.042 0 0 1 .099 3.692l-6.86 3.468a2.043 2.043 0 0 1-1.843-3.644"
  />
  <path fill="#BE7AEB" d="M152.652 259.724h-13.528v3.226h13.528z" />
  <path
    fill="#BE7AEB"
    d="M159.44 259.111a57.6 57.6 0 0 1 3.323-8.123c-3.556-8.122-8.247-15.555-14.437-20.509a29.6 29.6 0 0 0-4.21-2.827l.005.004c8.468 7.131 12.95 20.16 15.319 31.455"
  />
  <path
    fill="#BE7AEB"
    d="M89.078 294.158c1.872-14.224 8.08-49.987 24.486-64.979-22.197 13.155-33.301 49.399-37.152 64.933z"
  />
  <path
    fill="#BE7AEB"
    d="m60.945 423.31 106.996.576c-2.219-3.757-3.457-8.139-3.6-12.415a51 51 0 0 1-.048-2.29c.003-2.614.211-5.231.573-7.843q.37-2.665.951-5.316c.289-1.325.617-2.645.975-3.961a100 100 0 0 1 2.505-7.864c.347-.952.71-1.899 1.08-2.843a150 150 0 0 1 2.472-5.917c.167-.378.228-.801.134-1.204-.041-.177-.1-.344-.15-.516s-.092-.348-.15-.514c-.07-.199-.155-.387-.236-.578-.054-.129-.101-.264-.159-.39-.095-.205-.203-.398-.308-.593-.056-.103-.105-.211-.162-.311-.054-.094-.114-.179-.17-.27-.29-.475-.599-.926-.922-1.336-.099-.126-.201-.241-.301-.36-.289-.344-.58-.67-.865-.959a18 18 0 0 0-.563-.546 3.7 3.7 0 0 0-.659-.484 4 4 0 0 0-.746-.335c-.617-.207-1.218-.45-1.824-.683a53 53 0 0 1-3.928-1.674c-5.603-2.69-10.793-6.275-15.84-9.793-2.764-2.009-6.548-3.869-9.631-5.432-2.262-1.257-5.651-2.719-6.378-5.79-.307-1.406.149-2.701.885-3.802 5.617-9.178 12.097-17.905 19.14-26.017a227 227 0 0 1 7.623-8.334c.312-.327.56-.717.697-1.144q.07-.214.098-.438.052-.41.029-.777a3.3 3.3 0 0 0-.24-1.028 3.3 3.3 0 0 0-.305-.596 4 4 0 0 0-.312-.412 4.3 4.3 0 0 0-.626-.586 6.2 6.2 0 0 0-1.176-.7l-.017-.009c-.163-.074-.339-.111-.509-.166a5 5 0 0 0-1.521-.268l-97.269-.352 2.989 46.951 5.836 10.423a2.5 2.5 0 0 1 .148 2.127l-12.943 33.27-1.206 13.687c-.373 4.242 1.642 11.436 5.238 15.385 1.459 1.602 2.938 2.419 4.395 2.427m61.095-91.934a68.6 68.6 0 0 0 7.262-10.449c.767-1.236 1.484-2.519 2.432-3.743a1.794 1.794 0 0 1 3.213 1.259c-.156 1.646-.615 3.236-1.291 4.726-2.113 4.457-5.492 8.375-9.98 10.612-1.498.641-2.747-1.253-1.636-2.405m-58.23 63.38a1.473 1.473 0 0 1 2.9-.229c1.613 5.143 3.581 16.943 9.616 18.108 1.953.149 2.271 2.899.406 3.459-8.294 1.809-11.835-8.506-12.61-14.871-.324-2.145-.493-4.257-.311-6.467"
  />
  <path
    fill="#000"
    d="M76.732 416.094c1.865-.56 1.547-3.31-.406-3.459-6.035-1.165-8.003-12.965-9.616-18.108a1.474 1.474 0 0 0-2.9.229c-.181 2.21-.012 4.322.312 6.467.775 6.364 4.316 16.68 12.61 14.871"
  />
  <path
    fill="#000"
    d="M123.676 333.781c4.488-2.237 7.867-6.155 9.98-10.612.676-1.49 1.135-3.08 1.291-4.726a1.796 1.796 0 0 0-3.214-1.259c-.948 1.225-1.665 2.507-2.432 3.743a68.6 68.6 0 0 1-7.261 10.449c-1.112 1.152.137 3.046 1.636 2.405"
  />
  <path
    fill="#F295FF"
    d="M212.854 335.045c.083-.082.111-.143.137-.174.037-.069.021-.087-.003-.066-.055.072-.087.161-.134.24"
  />
  <path
    fill="#F295FF"
    d="M464.94 373.054c4.725.786 9.394 1.923 13.957 3.316l4.339 1.464c.41.126 2.361.845 2.715.869 2.826.166 5.969-.924 8.829-1.643 1.105-.284 2.223-.594 3.349-.909 1.256-.905 3.058-2.923 2.381-6.838-2.253-6.071-5.698-11.531-8.574-15.977-.364-.347-.761-.662-1.157-.831-.604-.259-1.019-.035-1.294.269a55 55 0 0 1-1.587 5.191c-.649 1.683-3.19 1.124-3.087-.661.267-7.014 1.153-14.438 1.451-21.421-1.127-9.907-3.557-22.015-7.691-31.23-4.731-10.544-12.919-17.839-23.681-21.094-6.388-1.933-13.47-2.399-20.77-1.515-3.657 1.167-3.587 3.352-3.198 4.586 23.07 21.638 37.374 54.655 34.018 86.424"
  />
  <path
    fill="#7A42C8"
    d="M388.809 163.766c-.154-.388-.477-.607-.984-.604-.829.005-1.3.65-1.142 1.546z"
  />
  <path
    fill="#7A42C8"
    d="M326.987 166.231c-.609.003-.995.496-.992 1.105s.395 1.098 1.004 1.094c.609-.003.996-.496.992-1.105-.003-.609-.395-1.097-1.004-1.094"
  />
  <path
    fill="#7A42C8"
    d="M361.321 164.426c-.609.003-.995.496-.991 1.274.004.779.396 1.267 1.005 1.264.609-.004.995-.497.991-1.275s-.396-1.266-1.005-1.263"
  />
  <path
    fill="#7A42C8"
    d="M343.267 164.019c-.154-.388-.477-.607-.984-.604-.829.005-1.3.65-1.142 1.546z"
  />
  <path
    fill="#7A42C8"
    d="M337.995 191.241c2.892.277 5.864 1.833 7.494 4.214.05.091.088.185.135.276l46.377-.257a2.2 2.2 0 0 0 1.564-.659c.416-.42.644-.979.641-1.57l-.267-48.039a2.2 2.2 0 0 0-.658-1.565 2.2 2.2 0 0 0-1.559-.641h-.013l-85.772.477a2.2 2.2 0 0 0-1.565.657 2.2 2.2 0 0 0-.641 1.572l.267 48.039a2.22 2.22 0 0 0 2.218 2.205h.012l19.277-.107c3.343-3.101 7.838-4.919 12.49-4.602m-1.461-27.1a.97.97 0 0 0-.992 1.003l.031 5.668-3.857.021-.055-9.947 5.718-.032.018 3.282zm24.84 6.731c-2.758.015-4.681-2.106-4.698-5.168-.017-3.045 1.9-5.171 4.64-5.186 2.741-.015 4.664 2.072 4.681 5.134s-1.866 5.204-4.623 5.22m26.571-10.502c2.639-.014 4.358 1.939 4.373 4.527l-4.911 2.176 4.736-.026.02 3.451-4.027.022c-3.011.017-5.002-1.985-5.019-5.048-.016-3.045 1.901-5.085 4.828-5.102m-11.025 4.122c-.908-1.958.283-3.859 2.431-3.871l3.485-.019.019 3.282-1.963.011 1.302 2.801c.907 1.957-.284 3.859-2.432 3.871l-3.79.021-.018-3.282 2.267-.013zm-1.489 6.098-5.718.032c-1.861.011-3.256-1.352-3.266-3.213l-.037-6.716 3.857-.022.033 5.888c.002.473.275.776.63.774s.624-.308.621-.781l-.032-5.888 3.857-.021zm-8.62-22.926.034 6.09c.002.389.291.573.578.572.288-.002.49-.138.556-.443l1.42-6.234 4.01-.022-3.264 12.385-3.807.021.613-2.422-.711.004c-1.861.01-3.239-1.353-3.249-3.214l-.037-6.716zm-6.797-2.365.013 2.402 2.318-.013.018 3.282-2.318.013.013 2.403a.96.96 0 0 0 .987.975l1.337-.007.018 3.282-2.944.016c-1.861.011-3.239-1.352-3.249-3.213l-.051-9.119zm-6.396-.168a2.123 2.123 0 0 1 2.143 2.12 2.123 2.123 0 0 1-2.12 2.144 2.123 2.123 0 0 1-2.143-2.12 2.123 2.123 0 0 1 2.12-2.144m1.998 12.543-3.857.021-.045-7.985 3.858-.021zm-4.517 3.104 1.861-.011c1.861-.01 3.256 1.353 3.266 3.214l.037 6.716-3.857.021-.032-5.887c-.003-.474-.275-.777-.631-.775-.355.002-.624.308-.621.782l.032 5.887-3.857.022-.068-12.35 3.857-.022zm-.085-15.429.068 12.35-3.857.021-.069-12.35zm-6.464-.167a2.12 2.12 0 0 1 2.143 2.12 2.12 2.12 0 0 1-2.12 2.143 2.12 2.12 0 0 1-2.143-2.12 2.123 2.123 0 0 1 2.12-2.143m1.998 12.542-3.857.021-.044-7.985 3.857-.021zm.227 7.426-4.911 2.176 4.737-.027.019 3.451-4.026.023c-3.011.016-5.002-1.986-5.019-5.048-.017-3.045 1.901-5.086 4.827-5.102 2.639-.015 4.359 1.938 4.373 4.527m-7.062-19.738.013 2.402 2.318-.013.018 3.282-2.318.013.014 2.402a.96.96 0 0 0 .986.976l1.337-.007.018 3.282-2.944.016c-1.861.01-3.239-1.352-3.249-3.213l-.051-9.119zm-10.439.058.042 7.511c.004.66.378 1.013.885 1.01.508-.003.878-.36.875-1.02l-.042-7.511 4.128-.023.041 7.427c.016 2.909-2.019 5.069-4.98 5.086-2.96.016-5.019-2.121-5.035-5.031l-.042-7.427zm-14.833 37.168-5.289.03h-.016a2.68 2.68 0 0 1-1.898-.783 2.68 2.68 0 0 1-.803-1.905l-.018-3.264c-.004-.72.274-1.4.782-1.914a2.7 2.7 0 0 1 1.906-.803l5.287-.029h.015a2.705 2.705 0 0 1 2.702 2.686l.018 3.265a2.705 2.705 0 0 1-2.686 2.717m1.965-11.72-5.786.032c-2.724.015-5.071-2.188-5.086-4.962l-.041-7.359 4.128-.023.042 7.579c.004.659.378 1.013.885 1.01.508-.003.878-.36.874-1.02l-.042-7.579 4.128-.023.042 7.579c.004.66.378 1.013.886 1.01.507-.003.877-.36.874-1.02l-.042-7.579 4.128-.023.04 7.359c.016 2.775-2.307 5.004-5.03 5.019m5.668-2.941c-.01-1.81 1.474-2.563 2.706-3.094l1.38-.605-3.937.022-.019-3.362 5.6-.031c1.861-.01 3.255 1.352 3.266 3.213l.037 6.717-6.209.034c-1.218.007-2.813-.966-2.824-2.894"
  />
  <path
    fill="#423E3E"
    d="M314.407 176.286h-.002l-5.288.03a.38.38 0 0 0-.271.115.4.4 0 0 0-.113.272l.019 3.265a.385.385 0 0 0 .385.383h.002l5.288-.029a.39.39 0 0 0 .384-.388l-.018-3.264a.39.39 0 0 0-.386-.384"
  />
  <path
    fill="#000"
    d="M314.407 173.97h-.015l-5.287.029a2.7 2.7 0 0 0-1.906.803 2.7 2.7 0 0 0-.782 1.914l.018 3.264c.004.72.289 1.397.803 1.905a2.68 2.68 0 0 0 1.898.783h.016l5.288-.03a2.705 2.705 0 0 0 2.687-2.717l-.018-3.265a2.705 2.705 0 0 0-2.702-2.686m.02 6.352-5.288.029h-.002a.386.386 0 0 1-.386-.383l-.018-3.265a.4.4 0 0 1 .113-.272.38.38 0 0 1 .271-.115l5.288-.03h.002a.39.39 0 0 1 .385.384l.019 3.264a.39.39 0 0 1-.384.388"
  />
  <path
    fill="#F295FF"
    d="m509.922 395.002-8.502.519a1.53 1.53 0 0 1-1.657-1.432 1.54 1.54 0 0 1 .872-1.476c2.819-1.337 5.818-1.999 8.792-2.446 2.58-.372 5.115-.581 7.713-.578-.299-3.681-.356-7.473-1.74-10.737-7.995-.821-15.862 2.759-23.694 4.405-2.39.508-5.581 1.175-8.115.191-7.497-2.662-15.383-5.013-23.274-5.912-5.752-.709-11.569-.857-17.258-.14-5.691.692-11.149 2.43-16.52 4.002-1.31.575-2.567-1.099-1.532-2.172 4.062-4.033 9.652-5.503 15.094-6.503 5.057-.812 10.15-1.012 15.218-.739 1.397-.22 3.729-1.14 4.655-4.766 1.629-39.004-24.047-80.282-60.055-94.403-14.443-5.794-30.435-7.397-45.887-5.671-5.196.567-10.358 1.317-15.684 1.72a1.295 1.295 0 0 1-.577-2.494c6.928-2.709 14.284-3.924 21.695-4.355 7.85-20.156 15.266-45.263 11.207-62.21l-.272-.211-16.334.09c-5.341.747-6.897 3.428-7.272 4.334-.061 3.272-.463 6.446-1.696 9.554-.64 1.615-3.116 1.255-3.285-.452-.851-5.176.572-10.275-.562-15.155-.627-.74-2.374-1.795-3.758-1.836-3.053-.305-7.133 1.52-9.407 4.041-.597.897-.67 1.873-.97 3.175a54 54 0 0 1-1.461 5.734l.036.009c-.91 3.245-1.815 7.161-2.535 10.027-2.309 9.198-10.338 35.039-18.831 44.357-.452.741-.508 1.384-.456 1.813.917 2.267 1.537 4.646 1.445 7.255-.024 1.491-2.075 2.056-2.858.802-.922-1.395-1.682-2.933-2.397-4.42-2.618-6.234-6.161-12.196-11.468-16.467-.812-.763-1.739-1.729-2.597-2.386-2.311-1.82-5.249-3.303-8.183-4.844-1.63-.857-.71-3.375 1.083-2.983 4.568.903 9.604 2.95 13.041 6.536 2.448 2.006 4.605 4.351 6.486 6.895.81.682 1.818 1.078 2.738.105 4.078-4.317 7.025-9.042 9.109-13.212l.035-.078c2.523-6.389 4.718-12.945 6.615-19.569.291-1.577.45-3.197.18-4.276-.692-2.769-14.206.527-18.738 1.797-9.321 2.614-18.311 6.437-27.1 10.504-2.277 1.04-4.707 2.247-6.97 3.394.127.162.26.319.383.488.452.616.4 1.498-.199 1.973a1.38 1.38 0 0 1-1.098.285c-1.051-.157-2.057-.462-3.038-.839-50.642 24.962-79.103 49.97-89.617 60.277-.922 1.614-3.98 7.188-4.38 10.634a47 47 0 0 0 .074 3.321c.131 3.248.92 6.34.454 9.829-.074.882-1.364 1.196-1.827.435-.721-1.058-1.214-2.184-1.569-3.346-.143-.467-.3-.924-.507-1.366-.681-1.455-1.981-4.127-2.649-4.794-.759-.76-2.55.463-3.183.939-8.484 9.554-16.25 19.952-22.629 30.531.885 1.075 2.435 1.775 3.99 2.609 3.344 1.664 7.224 3.55 10.257 5.731 6.926 4.802 18.052 12.538 26.987 12.816.923-.13 2.621-.583 3.756-2.145.041-.08.225-.386.272-.461 0 0 1.215-1.789-3.193-7.401-3.754-4.479-6.704-9.628-8.424-15.174a27 27 0 0 1-1.07-5.667 1.382 1.382 0 0 1 2.59-.774c1.846 3.236 3.32 6.468 5.011 9.58 2.676 5.469 6.475 10.095 11.007 13.858 10.745-6.423 29.179-5.341 39.26-2.015 10.343 3.313 11.922 9.088 9.918 17.085 1.689.113 3.364.242 4.992.489 1.576.213 1.752 2.531.195 2.951a19 19 0 0 1-2.971.586c-.655.115-1.433.247-2.372.398-.427.069-.894.231-1.373.468l-.122.341c-2.871 7.48-5.265 14.54-6.766 22.305-.256 1.385-2.237 1.584-2.77.302-4.892-10.274 13.351-33.079 4.54-37.971-2.978-1.876-6.452-2.943-10.017-3.611-.003.099.002.194-.012.299-.198 2.314-3.894 15.722-7.366 12.937-.461-.421-.592-1.043-.431-1.605.894-3.926 1.847-8.457 2.899-12.334l-.014-.02c-4.242-.424-8.553-.434-12.763.048-6.523.901-14.263 2.493-17.246 8.865-7.459 14.721-19.766 40.663-10.985 56.333 1.733 2.957 4.557 5.351 7.703 6.621 1.58.466 3.654.707 5.409.882 34.126 2.333 68.459.596 102.662 2.074 20.045 1.374 40.098 4.333 60.217 4.116a274 274 0 0 0 23.968-.876c5.522-.389 11.054-1.358 16.594-1.585l-.226-.048c1.631-.032 3.242-.028 4.783-.077 16.085-.18 46.445.049 62.848.145 11.959.152 23.944.305 35.9.596 7.398.09 14.77.354 22.043-.349.799-.095 1.568-.22 2.297-.408.112-2.166.268-5.168.35-6.99.421-10.294.814-20.689.521-30.982zM222.934 276.098c.676-2.618 2.015-4.516 3.979-5.642 2.991-1.714 6.198-.875 6.554-.773a2.2 2.2 0 0 1-1.187 4.236c-.068-.016-1.811-.447-3.206.37-.882.517-1.514 1.496-1.879 2.908a2.2 2.2 0 0 1-4.261-1.099m-20.872 18.539a2.2 2.2 0 0 1-2.132-2.751c.676-2.618 2.014-4.516 3.978-5.641 2.992-1.714 6.199-.875 6.555-.774a2.2 2.2 0 0 1-1.188 4.237c-.069-.017-1.812-.447-3.205.369-.882.517-1.515 1.496-1.879 2.909a2.2 2.2 0 0 1-2.129 1.651m69.635-9.828c-.555.582-1.235.886-1.958 1.074.667 12.408-5.249 27.182-13.207 37.397a23 23 0 0 1-3.7 4.261c-.109.111-.216.227-.325.336-10.441 10.735-26.267 12.551-39.994 7.947-.179.584-.264 1.201-.334 1.682-.161 1.394-2.17 1.703-2.749.436-1.122-2.323-.744-7.089 2.761-6.75 2.325.512 4.586 1.332 6.882 1.706 2.69.541 5.253.773 7.704.759-5.172-2.005-10.047-6.029-14.429-12.039-3.018-4.139-7.222-12.346-8.156-15.45-.594-1.975.099-3.932 1.725-4.901l32.681-21.14q.073-.048.151-.09c1.592-.879 3.561-.512 4.896.913 2.497 2.667 8.639 9.497 11.749 15.31 2.29 4.282 3.7 8.354 4.247 12.165 1.868-4.26 3.317-8.795 4.34-13.395.809-3.68 1.376-7.437 1.162-10.965a2.144 2.144 0 0 1 1.907-2.238c.467-.05.867-.079 1.302-.104 1.531-.086 3.046.271 4.046 1.663.4.586-.357 1.062-.701 1.423"
  />
  <path fill="#F295FF" d="m515.916 378.901.015.004c.033.003.012 0-.015-.004" />
  <path
    fill="#000"
    d="M268.351 281.723c-.435.025-.835.054-1.302.104a2.143 2.143 0 0 0-1.906 2.238c.214 3.528-.354 7.285-1.163 10.965-1.023 4.6-2.471 9.135-4.339 13.395-.548-3.812-1.957-7.884-4.248-12.165-3.11-5.813-9.252-12.643-11.749-15.31-1.335-1.425-3.303-1.792-4.896-.913a2 2 0 0 0-.151.09l-32.681 21.14c-1.626.969-2.319 2.926-1.725 4.9.935 3.105 5.138 11.312 8.156 15.451 4.382 6.01 9.258 10.034 14.429 12.038a38 38 0 0 1-7.704-.758c-2.296-.374-4.557-1.194-6.882-1.706-3.505-.339-3.883 4.427-2.761 6.75.58 1.267 2.588.958 2.749-.436.07-.481.156-1.098.334-1.682 13.728 4.603 29.554 2.788 39.994-7.947.109-.109.217-.225.325-.337a23 23 0 0 0 3.7-4.26c7.959-10.215 13.874-24.989 13.207-37.398.724-.187 1.403-.491 1.959-1.073.344-.361 1.1-.837.7-1.423-1-1.392-2.515-1.749-4.046-1.663m-55.361 53.148c-.025.031-.053.092-.136.174.047-.079.079-.168.134-.24.023-.021.04-.003.002.066m32.144-7.895c-13.161 7.673-22.898-.281-28.746-8.303-2.458-3.371-6.224-10.571-7.269-13.523l31.346-20.276c2.264 2.453 7.822 8.703 10.519 13.744 6.847 12.797 4.933 22.073-5.85 28.358"
  />
  <path
    fill="#DB00F8"
    d="M240.465 284.874 209.12 305.15c1.045 2.952 4.81 10.152 7.268 13.523 5.848 8.022 15.585 15.976 28.746 8.303 10.784-6.285 12.697-15.561 5.85-28.358-2.697-5.041-8.255-11.291-10.519-13.744m-6.485 33.841a2.38 2.38 0 0 1-1.202 1.485 2.66 2.66 0 0 1-1.222.314c-2.306 0-4.316-3.359-6.589-7.16-2.737-4.574-4.898-8.187-2.397-10.077a2.47 2.47 0 0 1 1.989-.458c1.839.358 3.333 2.558 6.076 7.145 2.922 4.883 3.797 7.174 3.345 8.751m10.515-5.527a2.3 2.3 0 0 1-1.373.444q-.248 0-.501-.051c-1.351-.276-2.853-1.56-6.166-7.099-2.635-4.406-3.985-6.792-3.442-8.662a2.55 2.55 0 0 1 1.311-1.58c2.853-1.438 4.878 1.956 7.442 6.252l1.097 1.824c2.272 3.746 4.234 6.981 1.632 8.872"
  />
  <path
    fill="#000"
    d="M224.56 302.819a2.47 2.47 0 0 0-1.99.458c-2.501 1.89-.34 5.503 2.397 10.077 2.273 3.801 4.283 7.16 6.589 7.16.398 0 .804-.1 1.222-.314a2.38 2.38 0 0 0 1.202-1.485c.452-1.577-.423-3.868-3.345-8.752-2.743-4.586-4.237-6.786-6.075-7.144"
  />
  <path
    fill="#000"
    d="M241.767 302.492c-2.564-4.296-4.59-7.69-7.443-6.252a2.55 2.55 0 0 0-1.311 1.58c-.543 1.87.807 4.256 3.443 8.662 3.312 5.539 4.815 6.823 6.165 7.099q.253.051.502.051c.494 0 .969-.151 1.372-.444 2.602-1.891.64-5.126-1.632-8.871z"
  />
  <path
    fill="#000"
    d="M224.515 278.778q.277.07.551.07a2.2 2.2 0 0 0 2.129-1.651c.365-1.412.997-2.391 1.879-2.908 1.395-.817 3.138-.387 3.206-.37a2.2 2.2 0 0 0 1.187-4.236c-.356-.102-3.563-.941-6.554.773-1.964 1.126-3.303 3.024-3.979 5.642a2.2 2.2 0 0 0 1.581 2.68"
  />
  <path
    fill="#000"
    d="M206.07 290.077c1.393-.816 3.136-.386 3.204-.369a2.2 2.2 0 0 0 1.188-4.237c-.356-.101-3.563-.94-6.554.774-1.964 1.125-3.302 3.023-3.978 5.641a2.2 2.2 0 1 0 4.261 1.1c.364-1.413.997-2.392 1.879-2.909"
  />
  <path
    fill="#BE7AEB"
    d="M164.915 295.222c6.663-6.905 25.659-24.912 60.251-45.582.02-.15.049-.3.097-.449.683-2.122.676-3.74-.023-4.556-.708-.826-2.26-1.071-3.43-.887-7.949 1.258-21.142 9.963-25.965 15.941a2.48 2.48 0 0 1-1.704.904c-.343.338-.517.524-.524.531a1.37 1.37 0 0 1-1.337.398 1.4 1.4 0 0 1-.457-.227l-.007-.001c-.191-.044-4.697-1.136-6.516-5.408-1.527-3.585-.662-8.154 2.569-13.578a1.562 1.562 0 0 1 2.893.984c-.116 1.01-.156 3.445.574 5.334 1.143-4.679 3.7-8.384 7.559-10.793 3.423-2.136 6.759-2.789 9.912-1.938 3.063.825 5.251 2.894 6.563 4.506 1.995-.761 3.911-1.315 5.659-1.591 2.358-.373 5.872.076 8.009 2.573.87 1.015 1.699 2.609 1.722 4.973a467 467 0 0 1 22.65-12.24c-.107-.865-.902-3.713-6.459-8.02a76 76 0 0 0-6.771-3.559c-5.752-2.67-12.367-3.968-19.156-3.968-10.683 0-21.803 3.213-30.702 9.351-18.306 12.63-27.919 28.333-28.572 46.675-.32 9.004 1.708 16.493 3.165 20.627"
  />
  <path
    fill="#FFFBE8"
    d="M330.224 157.95c2.96-.017 4.995-2.177 4.979-5.086l-.041-7.427-4.128.023.042 7.511c.003.66-.367 1.017-.874 1.02-.508.003-.882-.35-.886-1.01l-.041-7.512-4.128.023.041 7.427c.016 2.91 2.075 5.047 5.036 5.031"
  />
  <path
    fill="#FFFBE8"
    d="M337.575 165.725c.017 3.062 2.008 5.064 5.019 5.048l4.027-.023-.02-3.451-4.737.026 4.912-2.175c-.015-2.589-1.734-4.542-4.374-4.527-2.926.016-4.844 2.057-4.827 5.102m4.708-2.31c.507-.003.83.215.984.604l-2.126.942c-.158-.896.313-1.541 1.142-1.546"
  />
  <path fill="#FFFBE8" d="m346.504 149.739-3.858.021.045 7.985 3.857-.021z" />
  <path
    fill="#FFFBE8"
    d="M344.574 149.445a2.12 2.12 0 0 0 2.119-2.144 2.12 2.12 0 0 0-2.143-2.119 2.123 2.123 0 0 0-2.12 2.143 2.124 2.124 0 0 0 2.144 2.12"
  />
  <path fill="#FFFBE8" d="m351.013 145.349-3.857.021.069 12.35 3.857-.021z" />
  <path
    fill="#FFFBE8"
    d="m317.267 158.563.043 7.579c.003.66-.367 1.017-.875 1.02-.507.003-.881-.35-.885-1.01l-.042-7.579-4.128.023.042 7.579c.004.66-.366 1.017-.874 1.02s-.882-.351-.885-1.01l-.042-7.579-4.128.022.04 7.36c.016 2.774 2.363 4.977 5.087 4.962l5.785-.032c2.724-.015 5.046-2.244 5.031-5.019l-.041-7.359z"
  />
  <path
    fill="#FFFBE8"
    d="M331.07 164.12c-.011-1.861-1.406-3.223-3.266-3.213l-5.6.031.018 3.362 3.938-.022-1.38.605c-1.232.531-2.716 1.284-2.706 3.094.01 1.928 1.606 2.901 2.824 2.894l6.209-.034zm-4.071 4.31c-.609.004-1.001-.485-1.004-1.094s.383-1.102.992-1.105 1.001.485 1.005 1.094c.003.609-.384 1.102-.993 1.105"
  />
  <path
    fill="#FFFBE8"
    d="m331.661 160.886.055 9.947 3.857-.021-.031-5.668a.97.97 0 0 1 .992-1.003l.863-.005-.018-3.282z"
  />
  <path
    fill="#FFFBE8"
    d="m347.297 170.747 3.857-.022-.032-5.887c-.003-.474.266-.78.621-.782s.628.301.63.775l.033 5.887 3.857-.021-.037-6.716c-.01-1.861-1.405-3.224-3.266-3.214l-1.861.011-.013-2.403-3.857.022z"
  />
  <path
    fill="#FFFBE8"
    d="m339.155 157.765 2.944-.016-.018-3.282-1.337.007a.96.96 0 0 1-.987-.976l-.013-2.402 2.318-.013-.018-3.282-2.318.013-.014-2.402-3.857.021.051 9.119c.01 1.861 1.388 3.223 3.249 3.213"
  />
  <path
    fill="#FFFBE8"
    d="M371.551 166.552c.003.473-.266.779-.621.781s-.628-.301-.63-.774l-.033-5.888-3.857.022.037 6.716c.01 1.861 1.405 3.224 3.266 3.213l5.718-.032-.055-9.947-3.857.021z"
  />
  <path
    fill="#FFFBE8"
    d="m388.136 170.52 4.026-.022-.019-3.452-4.737.027 4.911-2.176c-.014-2.589-1.734-4.541-4.373-4.527-2.927.016-4.844 2.057-4.827 5.102.017 3.062 2.008 5.065 5.019 5.048m-.312-7.358c.508-.002.831.216.985.604l-2.126.942c-.158-.896.313-1.541 1.141-1.546"
  />
  <path
    fill="#FFFBE8"
    d="m375.972 170.587 3.79-.021c2.149-.012 3.339-1.913 2.432-3.87l-1.302-2.802 1.963-.01-.019-3.282-3.485.019c-2.148.012-3.339 1.913-2.431 3.871l1.301 2.801-2.267.012z"
  />
  <path
    fill="#FFFBE8"
    d="M361.316 160.518c-2.74.015-4.657 2.141-4.64 5.186.017 3.062 1.94 5.183 4.698 5.168 2.757-.016 4.64-2.158 4.623-5.22s-1.94-5.149-4.681-5.134m.019 6.446c-.609.003-1.001-.485-1.005-1.264-.004-.778.382-1.271.991-1.274s1.001.485 1.005 1.263-.382 1.271-.991 1.275"
  />
  <path fill="#FFFBE8" d="m355.572 149.689-3.858.021.045 7.985 3.857-.021z" />
  <path
    fill="#FFFBE8"
    d="M353.641 149.395a2.124 2.124 0 0 0 2.12-2.144 2.123 2.123 0 0 0-2.143-2.12 2.123 2.123 0 0 0-2.12 2.144 2.123 2.123 0 0 0 2.143 2.12"
  />
  <path
    fill="#FFFBE8"
    d="m359.456 157.652 2.944-.016-.018-3.282-1.337.007a.96.96 0 0 1-.986-.976l-.014-2.402 2.318-.013-.018-3.282-2.318.013-.013-2.402-3.858.021.051 9.119c.01 1.861 1.388 3.224 3.249 3.213"
  />
  <path
    fill="#FFFBE8"
    d="m366.24 157.615.711-.004-.613 2.422 3.807-.021 3.264-12.385-4.01.022-1.42 6.234c-.066.305-.268.441-.556.443-.287.001-.576-.183-.578-.572l-.034-6.09-3.857.021.037 6.716c.01 1.861 1.388 3.224 3.249 3.214"
  />
</svg>
