<svg xmlns="http://www.w3.org/2000/svg" width="580" height="580" fill="none" viewBox="0 0 580 580">
  <path
    fill="#F295FF"
    d="M403.315 322.119c-2.007 1.312-7.303 4.892-10.27 8.027-2.713 2.868-2.47 9.134-2.144 12.295.085.819.334 1.607.736 2.326 4.37 7.822 8.858 15.585 13.385 23.228 3.861 4.406 24.244-.097 35.323-2.932-1.038-1.973-2.285-3.896-3.611-5.675-.954-1.504-3.401-3.449-1.316-5.104a1.94 1.94 0 0 1 2.248-.001c1.781 1.271 3.347 2.828 4.684 4.563 1.186 1.551 2.195 3.116 2.973 4.897l.64-.176c1.884-.602 4.327-1.027 5.977-1.957 0 0 .089-.068.102-.163.01-.16-.131-.666-.427-1.186-2.887-4.531-7.446-7.738-11.545-11.296-2.364-2.084-4.949-3.804-6.798-6.527-3.385-5.983-7.117-11.794-10.903-17.623-1.221-1.912-2.539-3.908-3.872-5.947z"
  />
  <path fill="#8CBA3B" d="m416.278 310.928-9.631.836a169 169 0 0 1-5.064 5.612l16.146-3.457z" />
  <path
    fill="#8CBA3B"
    d="M419.33 295.118a174 174 0 0 1-8.2 11.239l8.396-.729c.86-.058 1.535-.367 1.898-.85.275-.366.354-.829.234-1.375-.662-3.022-1.448-5.804-2.328-8.285"
  />
  <path
    fill="#F295FF"
    d="m179.737 312.777-12.425 39.278c8.157 2.35 16.398 5.229 24.722 7.327l2.077-27.628c-3.931-5.785-7.561-12.085-8.832-17.114a839 839 0 0 1-5.542-1.863"
  />
  <path
    fill="#8CBA3B"
    d="M196.874 361.711c1.072.406 2.695.945 4.758 1.423l.854-20.099a203 203 0 0 1-3.837-4.945z"
  />
  <path
    fill="#8CBA3B"
    d="m207.112 351.96-.598 14.084c-.023.541.172 1.05.55 1.436.372.379.855.589 1.395.571 9.366-.2 16.922-1.805 20.863-4.409-.132-.015-.253-.025-.391-.043 0 0-13.189-3.407-21.819-11.639"
  />
  <path
    fill="#000"
    d="M128.389 267.839c1.248-.105 1.351-1.959.128-2.211-6.218-1.388-15.237-1.711-21.624-2.302-7.22-.55-14.445-1.031-21.677-1.382a2.293 2.293 0 0 0-.264 4.577c7.224.483 14.457.835 21.692 1.119 6.387.148 15.445.863 21.745.199"
  />
  <path
    fill="#000"
    d="M93.087 257.871c1.855.772 3.694.526 5.538.627 5.353.097 11.267.15 16.586-.036 3.119-.188 3.045-4.744-.076-4.831-5.331-.019-11.224.221-16.578.485-1.84.159-3.686-.029-5.516.8a1.61 1.61 0 0 0 .046 2.955"
  />
  <path
    fill="#DB00F8"
    d="M491.953 179.651c-2.731 1.413-10.319 5.316-11.347 5.846-.439.292-.736.425-.899.527-.201.116-.263.164-.332.234-.836 1.071-.897 2.583-1.181 4.284-.366 2.652-.659 5.35-.912 8.044-.756 8.831-3.232 39.927 4.465 44.623 2.231.781 3.434-1.099 4.595-2.991 2.761-5.555 3.907-11.852 4.535-18.185-2.058-.589-2.054-3.562-2.041-7.239.067-17.886.938-18.74 1.573-19.364a2.15 2.15 0 0 1 1.498-.605c.044.001.086.012.128.015.117-4.741.191-9.248.135-12.446-.006-.714-.06-1.86-.217-2.743m-5.758 38.977c-.203 5.131-.698 6.49-1.6 7.317a2.53 2.53 0 0 1-1.878.675c-2.979-.137-2.862-3.526-2.699-8.218.228-6.561.5-11.721.81-15.337.393-4.585.612-7.133 2.905-7.133l.078.001c.588.014 1.14.264 1.553.705.841.897 1.635 1.744.831 21.99"
  />
  <path
    fill="#8CBA3B"
    d="M377.415 160.862c.91-.387 1.834-.737 2.762-1.077l8.442-3.185c15.51-5.812 31.131-11.36 46.998-16.142.467-.147 3.034-.91 3.044-.914a.5.5 0 0 0 .003-.102c.011-.196-.205-.582-.417-.768-2.997-2.683-6.421-5.493-9.819-7.368-1.082-.552-1.901-.986-3.077-.949-4.123.187-8.38 1.551-12.44 2.746-10.88 3.438-21.648 7.723-32.237 12.194.029 5.266-1.336 10.823-3.259 15.565"
  />
  <path
    fill="#F295FF"
    d="m322.544 377.779-44.203 6.544c.3 2.852.478 5.72.57 8.597l45.955 1.186c-.707-5.446-1.442-10.903-2.322-16.327"
  />
  <path
    fill="#000"
    d="M218.357 179.098c7.241.065 14.481.001 21.721-.132 6.384-.22 15.469-.028 21.72-1.053 1.239-.177 1.235-2.034 0-2.215-6.287-1.027-15.31-.83-21.72-1.053-7.24-.133-14.48-.198-21.721-.132a2.293 2.293 0 0 0 0 4.585"
  />
  <path
    fill="#000"
    d="M233.283 182.866c-.467.13-.874.478-1.052.968-.969 3.261 6.613 2.662 8.51 3.003 7.359.503 15.492.984 22.823 1.187 3.145.007 3.326-4.578.2-4.827-7.333-.409-15.455-.603-22.841-.715-2.542.013-5.07-.312-7.64.384"
  />
  <path
    fill="#000"
    d="M217.872 186.867h5.181a1.891 1.891 0 0 0 0-3.781h-5.181a1.891 1.891 0 0 0 0 3.781"
  />
  <path
    fill="#8CBA3B"
    d="M301.995 429.294a3.226 3.226 0 1 0 6.253 1.592 3.226 3.226 0 0 0-6.253-1.592"
  />
  <path
    fill="#8CBA3B"
    d="M298.105 430.479c-.486-2.237-.274-3.959.631-5.118 1.305-1.67 3.98-2.107 4.903-2.135a2.5 2.5 0 0 0-.058-4.999h-.048c-.574.011-5.701.214-8.705 4.016-1.89 2.39-2.431 5.519-1.608 9.299a2.5 2.5 0 1 0 4.885-1.063"
  />
  <path
    fill="#8CBA3B"
    d="M302.326 414.35a2.501 2.501 0 0 0 .456-4.98c-.231-.021-5.715-.492-10.504 2.859-6.678 4.672-9.66 11.428-8.398 19.026a2.5 2.5 0 0 0 4.932-.82c-1.19-7.167 2.787-11.628 6.333-14.109 3.227-2.259 7.084-1.984 7.181-1.976"
  />
  <path
    fill="#8CBA3B"
    d="M142.552 321.768a3.225 3.225 0 1 0-3.363 5.507 3.225 3.225 0 0 0 3.363-5.507"
  />
  <path
    fill="#8CBA3B"
    d="M142.988 312.72c-1.345-.105-2.586.904-2.702 2.28a2.5 2.5 0 0 0 2.28 2.702c2.281.194 3.864.904 4.705 2.11 1.21 1.737.842 4.421.597 5.313a2.5 2.5 0 0 0 4.807 1.372c.16-.552 1.475-5.511-1.273-9.502-1.728-2.51-4.559-3.948-8.414-4.275"
  />
  <path
    fill="#8CBA3B"
    d="M146.014 303.878a2.5 2.5 0 0 0-.67 4.956c7.2.972 10.293 6.087 11.619 10.206 1.208 3.751-.195 7.365-.226 7.445a2.5 2.5 0 0 0 4.624 1.902c.089-.215 2.154-5.316.362-10.88-2.499-7.757-8.078-12.597-15.709-13.629"
  />
  <path
    fill="#000"
    d="M229.893 448.799c1.366.517 2.882.803 4.37.803 1.813 0 3.585-.423 4.997-1.364 1.383.866 3.119 1.219 5.013.97 3.336-.435 7.361-2.854 8.25-6.48a5.54 5.54 0 0 0-.402-3.812c1.947-1.628 3.037-4.103 2.822-6.804-.222-2.784-1.939-5.731-5.29-6.954-.244-2.743-2.044-5.244-5.021-6.764-3.513-1.791-8.34-2.023-11.709.55-3.211-1.213-7.01-.642-9.497 1.598-1.886 1.7-2.636 4.032-2.159 6.42-1.983 1.674-2.997 4.185-2.714 6.966.347 3.394 2.475 6.296 5.521 7.746.128 3.103 2.238 5.768 5.819 7.125m-6.365-15.378c-.085-.836.032-2.355 1.771-3.139a2.497 2.497 0 0 0 1.188-3.44c-.566-1.078-.475-1.9.285-2.585.639-.574 1.654-.943 2.737-.943.835 0 1.711.22 2.483.733a2.5 2.5 0 0 0 3.326-.507c1.539-1.898 4.789-1.842 7.04-.692.848.432 2.761 1.65 2.232 3.617a2.5 2.5 0 0 0 2.178 3.138c2.768.263 3.142 2.29 3.19 2.905.095 1.188-.473 2.751-2.385 3.246a2.5 2.5 0 0 0-.808 4.469c1.045.731.937 1.17.902 1.314-.251 1.023-2.11 2.462-4.041 2.714-1.666.215-2.079-.552-2.216-.804a2.51 2.51 0 0 0-2.241-1.3 2.5 2.5 0 0 0-2.191 1.384c-.562 1.126-3.142 1.413-5.313.592-1.163-.44-3.032-1.481-2.49-3.504a2.505 2.505 0 0 0-1.87-3.087c-2.361-.528-3.613-2.501-3.777-4.111"
  />
  <path
    fill="#8CBA3B"
    d="m297.833 355.515 19.154-14.435a50 50 0 0 0-2.413-3.167c-.511-.093-4.792-.234-21.531 15.561-7.665 7.233-14.729 14.79-17.016 17.267l1.064 8.712 47.958-7.099c.121-.858.246-2.04.307-3.476l-22.515.78a7.82 7.82 0 0 1-7.2-4.134l-.001-.001a7.825 7.825 0 0 1 2.193-10.008"
  />
  <path
    fill="#8CBA3B"
    d="M326.222 343.154c-.752-.963-2.172-1.137-3.164-.389l-22.215 16.742a2.854 2.854 0 0 0-.8 3.647c.521.967 1.491 1.552 2.625 1.507l27.997-.971a2.26 2.26 0 0 0 1.71-.854 2.26 2.26 0 0 0 .463-1.846c-1.466-7.919-3.816-14.253-6.616-17.836"
  />
  <path
    fill="#F295FF"
    d="M346.077 182.816c9.97-3.244 18.899-10.127 24.382-19.085 3.563-5.881 5.05-12.822 5.556-19.63.284-2.201.259-4.591.544-7.022.046-.6.505-1.066 1.07-1.16a1.3 1.3 0 0 1 .357-.014c.469.055.849.358 1.026.761a19.4 19.4 0 0 1 1.115 3.445 499 499 0 0 1 14.157-5.73c5.189-1.994 10.415-3.907 15.752-5.619-10.896-3.381-22.657-4.391-33.448-3.211-.139.061-55.858 10.337-83.861 8.441-6.999-.542-14.195-1.656-21.027-3.549-2.41-.639-6.105-2.195-8.651-2.159.069.32.168.664.343 1.051 1.577 3.434 4.151 6.496 6.674 9.449 2.669 3.055 5.551 5.998 8.484 8.83l3.025 2.877c2.293 2.198 4.006 4.871 5.336 7.486 5.194 11.296 7.62 17.8 20.163 22.325 12.345 4.687 26.287 6.699 39.003 2.514"
  />
  <path
    fill="#000"
    d="m483.811 195.933-.078-.001c-2.293 0-2.512 2.548-2.905 7.133-.31 3.616-.582 8.776-.81 15.337-.163 4.692-.28 8.081 2.699 8.218l.132.003c.66 0 1.262-.233 1.746-.678.901-.827 1.397-2.186 1.6-7.316.804-20.247.009-21.094-.831-21.991a2.2 2.2 0 0 0-1.553-.705"
  />
  <path
    fill="#000"
    d="M435.747 165.845c-.527-.864-1.286-1.435-2.127-1.63a2.1 2.1 0 0 0-1.038-.259c-2.869.144-5.493.698-8.282 1.209-2.417.534-1.767 4.092.682 3.736 1.526-.241 3.112-.504 4.687-.696-.007.269-.004.542.022.82.088.958.363 1.839.797 2.551.66 1.084 1.685 1.708 2.783 1.708q.133 0 .267-.012c1.983-.183 3.248-2.234 3.006-4.877-.089-.957-.364-1.839-.797-2.55"
  />
  <path
    fill="#000"
    d="M416.736 170.781c-.525-.861-1.281-1.427-2.118-1.625a2.1 2.1 0 0 0-1.047-.264c-2.869.144-5.493.698-8.282 1.209-2.417.534-1.767 4.092.682 3.736 1.526-.241 3.111-.504 4.687-.696-.008.27-.004.543.022.821.088.957.363 1.839.797 2.55.66 1.084 1.685 1.708 2.783 1.708q.133 0 .267-.012c1.983-.184 3.248-2.234 3.007-4.877-.089-.958-.365-1.839-.798-2.55"
  />
  <path
    fill="#000"
    d="M424.995 121.102c.02-.007 2.097-.536 3.247.446.47.403 1.048.599 1.623.599a2.499 2.499 0 0 0 1.625-4.4c-3.179-2.715-7.402-1.589-7.873-1.452a2.49 2.49 0 0 0-1.697 3.075 2.516 2.516 0 0 0 3.075 1.732"
  />
  <path
    fill="#000"
    d="M405.493 115.386c.02-.007 2.099-.534 3.247.447a2.495 2.495 0 0 0 3.525-.278 2.5 2.5 0 0 0-.277-3.524c-3.177-2.713-7.401-1.589-7.873-1.452a2.49 2.49 0 0 0-1.697 3.074 2.51 2.51 0 0 0 3.075 1.733"
  />
  <path
    fill="#000"
    d="M497.009 179.642c-.192-1.269-.423-3.024-1.632-4.271-1.114-1.075-2.893-1.458-4.428-.805-.06 0-.116-.007-.179-.002-10.256.787-23.392 2.142-31.816-4.232-3.955-3.106-6.024-8.224-8.161-13.509-1.985-4.997-4.987-9.631-8.585-13.595.049-.049.105-.084.153-.136 2.077-2.129 1.7-5.49-.037-7.513-1.101-1.217-2.48-2.258-3.729-3.319-3.472-2.656-7.231-5.94-11.814-6.855-3.345-.212-6.556.428-9.705 1.278-7.729-3.021-15.939-4.917-24.127-5.887-5.584-.58-11.293-.972-16.825.044-5.031.924-11.907 2.285-17.343 3.233-16.245 2.813-32.762 4.731-49.223 4.91-12.303.074-24.603-.648-36.349-3.899-2.555-.731-5.723-1.965-8.419-2.291-3.043-.567-6.96.606-7.36 4.241-.64 7.475 12.101 19.389 17.24 24.604l3.007 2.863c1.724 1.654 3.073 3.71 4.256 6.033 3.016 6.32 5.807 13.668 11.545 18.351 3.386 2.928 7.597 5.055 11.697 6.523a89 89 0 0 0 9.094 2.829c-7.697 5.697-17.276 8.735-26.738 10.048-11.912 1.585-24.116 2.609-35.963 5.184-22.165 4.582-44.496 14.659-56.862 34.545-.201.017-.41.036-.61.052-.375-2.078-2.101-5.754-9.209-8.527-6.596-2.573-17.113-1.842-21.644 1.506-3.338 2.467-5.304 6.088-5.518 9.901a86 86 0 0 1-1.624-1.17c-.828-.608-1.87-1.521-2.975-2.487-5.132-4.494-12.887-11.285-21.248-7.406-5.454 2.532-5.072 9.183-3.987 12.713.2.651.551 1.224 1.159 1.53.588.297 1.173.379 1.797.177.521-.049 4.86-.166 12.678 6.874 7.555 6.803 14.802 8.714 20.56 8.714 5.44 0 9.548-1.704 11.336-2.602 3.641.785 7.03 1.236 10.161 1.378-4.407 14.409-4.292 30.02-1.429 44.69.35 2.023.802 4.04 1.343 6.039a4.4 4.4 0 0 1-.724.017l-.004-.001q-1.8-.607-3.674-1.252a2.49 2.49 0 0 0-1.694-2.466c-.235-.079-23.686-7.934-34.287-11.176a8.46 8.46 0 0 0-6.355.567 13.6 13.6 0 0 0-2.501-5.02c-2.161-2.734-5.184-4.471-8.295-4.764-2.515-.238-4.911.5-6.735 2.078-4.13 3.579-4.248 10.594-.263 15.637.763.966 1.638 1.8 2.582 2.497a11 11 0 0 0-3.599-1.006c-2.522-.241-4.912.501-6.733 2.079-4.131 3.578-4.249 10.593-.265 15.637 2.16 2.734 5.184 4.47 8.295 4.764q.465.044.922.044c.368 0 .73-.029 1.089-.071a465 465 0 0 0-1.31 3.664 14 14 0 0 0-1.322-1.828c-2.263-2.632-5.349-4.239-8.466-4.406-2.53-.139-4.903.698-6.667 2.352-3.994 3.744-3.839 10.752.348 15.622.783.911 1.671 1.69 2.619 2.338a10.8 10.8 0 0 0-2.762-.539c-2.536-.137-4.903.698-6.667 2.353-3.994 3.745-3.838 10.753.349 15.621 2.262 2.633 5.348 4.239 8.467 4.407q.267.014.534.014c.763 0 1.504-.098 2.219-.271a8.9 8.9 0 0 0 5.212 10.451c5.976 2.488 10.956 3.736 14.884 3.736q2.882 0 5-.895c2.105-.891 3.656-2.475 4.487-4.581 9.179-23.278 22.532-19.06 23.131-18.857.353.125 19.216 5.868 28.637 8.146.226.533.63.986 1.169 1.258.314.16 3.549 1.744 8.774 2.812.332.974.87 1.876 1.601 2.621a6.92 6.92 0 0 0 4.929 2.074l.146-.001c7.608-.163 17.944-1.257 23.98-5.547a6.7 6.7 0 0 0 2.661-4.062c.786-.423 1.743-1.229 2.258-2.728a172 172 0 0 0 7.816 3.033c6.757 2.077 13.727 3.02 20.747 3.381a3.95 3.95 0 0 1 1.691.468q.269.147.516.306a3.93 3.93 0 0 1 1.541 1.833c.718 1.785 1.305 3.694 1.784 5.68l.878 7.19c.059.483.26.93.567 1.297.627 5.527.77 11.074.919 15.704-.348 8.516-1.088 27.344-1.201 36.244a7.92 7.92 0 0 0 2.401 5.77 14.7 14.7 0 0 0-4.44 4.086c-2.191 3.058-3.09 6.71-2.465 10.019.503 2.667 1.972 4.91 4.136 6.316 1.599 1.039 3.445 1.532 5.35 1.532 3.966 0 8.179-2.14 10.907-5.948 2.191-3.058 3.09-6.71 2.465-10.018a10.4 10.4 0 0 0-.597-2.009c1.481.199 3.083.399 4.79.597a15 15 0 0 0-1.864 2.129c-2.192 3.058-3.09 6.71-2.465 10.019.416 2.205 1.5 4.113 3.084 5.505-20.666.292-42.04.662-59.708 1.017-1.556.061-9.525.07-9.78 1.769a1.13 1.13 0 0 0 .833 1.373c3.002.757 5.996.886 8.989.894 29.496.396 69.136.765 98.771.818l17.957.013c5.261-.13 12.876.522 17.956-.95a2.42 2.42 0 0 0 1.756-1.904c.243-1.292-.682-2.51-1.954-2.841-2.928-.762-5.856-.879-8.784-.844l-3.03.022c.194-.258.399-.503.578-.776 2.055-3.136 2.8-6.814 2.043-10.092a10.1 10.1 0 0 0-1.343-3.188c5.213-.557 9.244-4.844 9.386-10.237.442-16.838-5.465-20.858-10.498-21.265-25.488-2.063-25.429-20.072-25.413-20.87a2.5 2.5 0 0 0-.683-1.783 2.5 2.5 0 0 0-1.355-.733c-.693-5.569-1.427-11.365-2.334-17.213l.146-.021a2.5 2.5 0 0 0 2.058-1.863c.071-.28.644-2.683.79-6.471l.268-.01c1.306-.045 2.605-.373 3.715-1.063 2.656-1.652 3.9-4.658 3.364-7.55a85 85 0 0 0-.289-1.48c2.416-.793 4.8-1.688 7.175-2.578 13.09-4.987 25.277-11.868 36.373-20.212 4.176 7.734 8.483 15.4 12.853 23.029 0 0 7.245 12.545 7.984 13.168 7.626 7.052 35.803-1.146 45.462-3.626 3.247-1.151 7.366-1.217 9.236-4.727 3.491-7.738-13.989-17.971-18.535-23.163-.383-.37-.841-1.242-1.045-1.599-3.3-5.763-6.875-11.283-10.446-16.781-.958-1.493-2.051-3.158-3.182-4.885q.16-.2.277-.433c.337-.69.338-1.497.002-2.188l-2.07-4.266c1.58-.432 2.944-1.322 3.873-2.559 1.155-1.537 1.552-3.471 1.12-5.446-.808-3.692-2.05-8.213-3.871-12.373a177 177 0 0 0 11.071-20.762c.461-1.312 1.81-3.949 2.534-6.352 2.245-.636 4.556-1.511 6.645-2.4.816-.419 3.002-1.545 3.785-1.95 2.814-1.65 5.448-3.594 7.7-5.963 9.578.128 19.12-1.197 28.215-4.158 7.018.165 10.259-9.598 11.525-15.37 2.761-11.196 2.474-27.132 2.905-38.64.09-3.977.174-8.071.118-12.082-.035-.778-.034-1.883-.16-2.642M146.87 247.461c-6.814-6.137-11.709-7.779-14.536-8.11-.2-1.696-.131-4.107 1.65-4.933 5.406-2.51 11.441 2.774 15.849 6.633 1.188 1.039 2.309 2.021 3.311 2.756.915.671 1.815 1.327 2.704 1.861.656 4.274 2.642 7.126 4.701 8.969-4.037-.711-8.728-2.717-13.679-7.176m-35.782 113.083c-.972.912-2.158 1.048-2.976 1.007-1.763-.095-3.566-1.069-4.945-2.674-2.422-2.818-2.752-6.809-.719-8.715.872-.818 1.914-1.013 2.712-1.013q.137 0 .265.006c1.764.096 3.566 1.07 4.945 2.674 2.422 2.818 2.752 6.809.718 8.715m4.324-10.256a14 14 0 0 0-1.251-1.719 13.6 13.6 0 0 0-2.619-2.339c.905.297 1.831.49 2.763.54q.268.014.533.014.888-.001 1.734-.158a564 564 0 0 0-1.16 3.662m2.138-9.518c-.972.912-2.158 1.055-2.976 1.007-1.764-.095-3.566-1.069-4.946-2.673-2.422-2.819-2.752-6.809-.718-8.715.872-.818 1.914-1.014 2.711-1.014q.138 0 .266.007c1.764.095 3.565 1.069 4.944 2.674 2.422 2.818 2.752 6.808.719 8.714m7.153-19.641c-.998.866-2.171.957-2.99.88-1.759-.166-3.523-1.218-4.841-2.886-2.311-2.926-2.488-6.937-.384-8.759.825-.715 1.772-.901 2.535-.901q.24 0 .454.022c1.759.166 3.523 1.217 4.841 2.886 2.311 2.926 2.488 6.936.385 8.758m4.732-10.066a14 14 0 0 0-1.193-1.792 13.6 13.6 0 0 0-2.583-2.497c1.155.54 2.369.89 3.599 1.006q.464.043.923.043c.22 0 .437-.012.654-.027q-.67 1.533-1.4 3.267m3.283-9.141c-1 .866-2.178.955-2.99.88-1.759-.166-3.523-1.218-4.841-2.886-2.311-2.926-2.488-6.936-.385-8.758.825-.715 1.772-.902 2.535-.902q.242.001.455.022c1.759.166 3.523 1.218 4.841 2.886 2.311 2.925 2.488 6.936.385 8.758m10.906 24.28a3.227 3.227 0 1 1-5.507-3.364 3.227 3.227 0 0 1 5.507 3.364m9.051.295a2.5 2.5 0 0 1-4.807-1.372c.245-.891.613-3.576-.597-5.313-.841-1.206-2.424-1.916-4.705-2.11a2.5 2.5 0 0 1-2.281-2.702c.117-1.376 1.358-2.385 2.703-2.28 3.855.327 6.685 1.765 8.414 4.275 2.748 3.991 1.432 8.95 1.273 9.502m8.686 1.89a2.5 2.5 0 0 1-4.624-1.902c.031-.08 1.434-3.694.226-7.445-1.326-4.119-4.419-9.234-11.619-10.206a2.5 2.5 0 0 1 .67-4.955c7.631 1.031 13.21 5.871 15.709 13.628 1.792 5.564-.273 10.665-.362 10.88m182.018 125.578c1.693-2.582 4.437-4.129 6.861-4.129.884 0 1.724.205 2.457.641 1.335.795 1.87 2.068 2.084 2.995.451 1.956-.042 4.225-1.353 6.226-1.1 1.678-2.645 2.912-4.257 3.575l-4.818.036c-.081-.041-.164-.076-.242-.122-1.335-.795-1.87-2.068-2.084-2.995-.451-1.956.042-4.226 1.352-6.227m-8.617 7.667c2.055-3.135 2.8-6.813 2.043-10.091a10.3 10.3 0 0 0-1.021-2.664c1.694.051 3.417.098 5.196.138-.649.667-1.251 1.4-1.782 2.21-2.055 3.136-2.8 6.814-2.043 10.092.165.718.406 1.398.706 2.04l-4.473.033a15 15 0 0 0 1.374-1.758m90.589-331.275c1.176-.037 1.995.397 3.077.949 3.398 1.875 6.823 4.685 9.82 7.368.211.186.427.572.416.767a.5.5 0 0 1-.003.103c-.01.004-2.577.767-3.044.914-15.867 4.781-31.488 10.329-46.998 16.142l-8.442 3.185c-.927.34-1.852.69-2.762 1.077 1.923-4.742 3.288-10.299 3.259-15.566 10.589-4.471 21.357-8.756 32.237-12.193 4.06-1.195 8.318-2.559 12.44-2.746m-118.277 49.945c-12.543-4.525-14.969-11.029-20.163-22.325-1.33-2.615-3.043-5.288-5.336-7.486l-3.025-2.877c-2.933-2.832-5.815-5.775-8.484-8.83-2.523-2.953-5.097-6.015-6.674-9.449a5 5 0 0 1-.343-1.051c2.546-.035 6.24 1.52 8.651 2.159 6.832 1.893 14.029 3.007 21.027 3.549 28.003 1.896 83.722-8.38 83.861-8.441 10.791-1.18 22.552-.17 33.448 3.212-5.337 1.712-10.563 3.624-15.752 5.618a499 499 0 0 0-14.157 5.73 19.4 19.4 0 0 0-1.115-3.445 1.28 1.28 0 0 0-1.026-.761 1.3 1.3 0 0 0-.357.014 1.28 1.28 0 0 0-1.07 1.16c-.285 2.431-.26 4.821-.544 7.023-.506 6.807-1.993 13.748-5.556 19.629-5.483 8.959-14.412 15.841-24.382 19.085-12.716 4.185-26.658 2.173-39.003-2.514m-115.04 179.08c-8.325-2.098-16.565-4.977-24.722-7.327l12.425-39.278q2.773.943 5.542 1.863c1.271 5.029 4.901 11.329 8.832 17.114zm9.598 3.752a38 38 0 0 1-4.759-1.423l1.776-23.621a203 203 0 0 0 3.837 4.945zm6.827 4.917a1.84 1.84 0 0 1-1.395-.571 1.9 1.9 0 0 1-.55-1.436l.598-14.084c8.63 8.232 21.819 11.64 21.819 11.64.138.017.259.027.391.042-3.941 2.605-11.497 4.209-20.863 4.409m76.089 86.663c-2.46 3.435-6.796 4.869-9.468 3.135-1.292-.84-1.772-2.123-1.947-3.052-.372-1.973.217-4.226 1.616-6.18 1.75-2.442 4.447-3.874 6.82-3.874.964 0 1.876.237 2.648.739 1.292.839 1.773 2.123 1.947 3.051.372 1.974-.216 4.227-1.616 6.181m11.092-89.191a7.82 7.82 0 0 0 7.2 4.134l22.514-.78a36 36 0 0 1-.306 3.476l-47.958 7.099-1.064-8.712c2.287-2.477 9.35-10.034 17.015-17.267 16.74-15.795 21.021-15.654 21.532-15.561a51 51 0 0 1 2.413 3.166l-19.154 14.436a7.825 7.825 0 0 0-2.193 10.008m-16.729 27.397c-.092-2.877-.27-5.745-.57-8.597l44.203-6.544c.88 5.424 1.615 10.881 2.322 16.327zm29.336 37.966a3.225 3.225 0 1 1-6.25-1.59 3.225 3.225 0 0 1 6.25 1.59m-19.435-.451a2.5 2.5 0 1 1-4.932.82c-1.262-7.598 1.72-14.354 8.398-19.026 4.789-3.351 10.273-2.88 10.504-2.859a2.5 2.5 0 0 1 2.255 2.723 2.504 2.504 0 0 1-2.711 2.257c-.097-.008-3.954-.283-7.181 1.976-3.546 2.481-7.523 6.942-6.333 14.109m4.408 1.107c-.823-3.78-.282-6.909 1.608-9.299 3.004-3.801 8.13-4.005 8.705-4.016h.048a2.5 2.5 0 0 1 .058 4.999c-.923.028-3.598.466-4.903 2.135-.905 1.159-1.117 2.881-.631 5.118a2.5 2.5 0 1 1-4.885 1.063m4.582 28.925c-1.292-.839-1.772-2.123-1.947-3.051-.372-1.974.217-4.227 1.616-6.181 1.749-2.442 4.446-3.874 6.819-3.874.965 0 1.876.237 2.649.739 1.292.84 1.772 2.123 1.947 3.052.372 1.973-.217 4.226-1.616 6.18-2.461 3.435-6.796 4.87-9.468 3.135m18.548-10.048c-2.055 3.136-2.8 6.814-2.043 10.091a10.1 10.1 0 0 0 1.26 3.059c-2.518.029-5.077.06-7.661.093a14.8 14.8 0 0 0 3.428-3.419c2.192-3.058 3.09-6.71 2.465-10.019a10.2 10.2 0 0 0-.79-2.43c1.675.114 3.408.224 5.211.329-.682.69-1.316 1.45-1.87 2.296m13.499-.748c1.335.794 1.87 2.067 2.084 2.995.451 1.956-.042 4.225-1.352 6.226-2.31 3.524-6.577 5.12-9.318 3.489-1.335-.795-1.87-2.067-2.084-2.995-.451-1.956.042-4.226 1.353-6.227 2.308-3.523 6.575-5.121 9.317-3.488m2.525-86.835a2.26 2.26 0 0 1-1.709.855l-27.998.97c-1.133.045-2.103-.54-2.624-1.507a2.854 2.854 0 0 1 .8-3.647l22.215-16.742c.992-.748 2.412-.574 3.164.389 2.8 3.583 5.15 9.917 6.616 17.836a2.25 2.25 0 0 1-.464 1.846m89.995-38.021c3.786 5.829 7.518 11.64 10.902 17.623 1.85 2.723 4.435 4.443 6.799 6.527 4.098 3.558 8.658 6.764 11.545 11.296.296.52.437 1.026.427 1.186-.013.095-.102.163-.102.163-1.65.93-4.093 1.355-5.977 1.957l-.64.176c-.778-1.781-1.787-3.346-2.973-4.897-1.337-1.735-2.903-3.292-4.685-4.563a1.94 1.94 0 0 0-2.247.001c-2.085 1.655.362 3.6 1.316 5.104 1.326 1.779 2.573 3.702 3.611 5.675-11.079 2.835-31.462 7.338-35.324 2.932a1069 1069 0 0 1-13.385-23.228 6 6 0 0 1-.735-2.326c-.326-3.161-.569-9.427 2.144-12.295 2.967-3.135 8.262-6.716 10.27-8.027l15.182-3.251c1.332 2.039 2.651 4.035 3.872 5.947m-20.786-7.439a169 169 0 0 0 5.064-5.612l9.631-.836 1.451 2.991zm19.841-12.598c-.363.483-1.038.792-1.898.85l-8.396.729a174 174 0 0 0 8.2-11.239c.88 2.481 1.666 5.263 2.328 8.285.12.546.041 1.009-.234 1.375m29.102-57.14c-32.54-1.68-64.603-20.348-78.871-50.153-1.602-2.959-6.438-.589-8.013 1.353-.563.734-1.213 1.672-1.039 2.657a1.55 1.55 0 0 0 1.866 1.153c.958-.218 2.071-.568 2.954-.863.209-.066.474-.141.749-.219 5.083 9.493 11.782 18.651 19.793 25.823 15.498 13.72 35.932 22.183 56.858 24.54 1.093.499 2.298 1.667-2.559 3.726-.179.066-5.717 2.146-12.315 3.425-6.785 1.315-14.253 1.017-14.398 1.008q-1.275-.08-2.549-.227c-1.949-.388-2.728 2.398-.853 3.058 4.169 1.332 8.43 1.809 12.684 1.671 3.284.73 2.144 6.355-1.395 13.969-14.603 26.909-36.6 49.912-63.478 64.67a161 161 0 0 1-13.255 6.541c-6.615 2.257-10.162 1.065-11.487.348-1.242-3.672-2.886-7.266-5.056-10.042-2.176-2.784-6.06-3.531-9.115-1.927a57 57 0 0 0-2.677-3.491c-.644-.774-1.826-1.706-3.805-1.749l-.116-.002c-.119 0-.252.024-.375.031-2.378-4.206-5.138-8.128-8.384-11.645-4.043-4.114-9.137-7.406-14.735-8.913a1.649 1.649 0 0 0-1.432 2.904c.103.079.214.151.339.206 8.64 3.74 14.952 10.845 19.508 18.942-10.88 5.393-28.553 23.772-35.648 31.427-2.249-4.642-5.87-9.622-11.303-9.571-.13.001-.255-.013-.387-.006-1.074.072-1.592 1.505-.82 2.253.794.829 1.926 1.257 2.252 2.169.141.394.624 1.353-.473 1.191-4.461-.364-8.892-.995-13.239-2.05-4.98-1.33-9.528-3.272-14.198-5.39-14.689-6.768-28.906-16.043-37.833-29.71-4.397-6.723-7.264-14.313-8.654-22.31-3.098-15.971-2.897-32.773 3.274-47.945.735-2.036-.919-3.477-2.509-3.41-.009 0 .01-.001 0 0-.846.044-1.678.517-2.134 1.556-.147.36-.284.724-.423 1.087-3.187-.03-7.91-.48-14.239-2.139-5.728-1.503-9.448-4.62-10.204-8.552-.576-2.997.689-5.974 3.383-7.966 2.906-2.148 11.425-2.989 16.854-.869 4.187 1.634 5.51 3.336 5.929 4.232-2.662.154-4.981.232-6.925.241-.383-.506-1.008-.994-2.021-1.321-.072-.023-7.46-1.795-9.202 1.008-.642 1.031-.489 2.372.373 3.261.676.696 1.996 2.06 10.692 2.06 2.419 0 5.426-.109 9.131-.364q.595-.04 1.212-.086c-.023.108-.058.21-.077.321a1.88 1.88 0 0 0 .373 1.456c.656.848 1.901.952 2.705.253 1.193-.971 2.02-2.168 2.849-3.41.605-.886 1.922-2.694 2.541-3.562 15.451-22.477 43.887-29.583 69.6-32.843 8.997-1.285 18.222-1.673 27.162-3.998 6.568-1.854 13.104-4.468 18.748-8.371 6.407.736 28.919 2.18 43.634-11.267 6.031-3.988 11.226-9.22 14.964-15.478.049-.085.098-.178.147-.264 2.437-.275 4.67-1.083 6.893-1.921l8.465-3.047c14.119-4.988 28.26-9.938 42.55-14.401.951-.29 2.994-.918 4.617-1.41 3.592 3.885 6.584 8.347 8.757 13.42 2.264 5.52 4.845 11.524 9.947 15.276 7.569 5.381 17.332 5.595 26.556 4.823-2.429 1.254-5.948 3.02-6.784 3.854-2.008 1.946-2.326 4.948-2.663 7.191a190 190 0 0 0-.939 8.272c-.51 5.507-.851 11.026-.964 16.573.047 7.283-.51 23.449 5.116 30.456-8.337 2.3-17.203 2.982-25.929 2.487m41.51-52.798c-.043-.003-.085-.014-.128-.015a2.15 2.15 0 0 0-1.498.605c-.636.624-1.507 1.478-1.574 19.364-.013 3.677-.017 6.65 2.041 7.239-.627 6.333-1.774 12.63-4.535 18.185-1.161 1.892-2.364 3.772-4.595 2.991-7.697-4.696-5.221-35.792-4.465-44.623.253-2.694.546-5.392.912-8.044.285-1.701.345-3.213 1.181-4.284.069-.07.131-.118.332-.234.163-.102.461-.235.9-.527 1.027-.53 8.615-4.433 11.346-5.846.157.883.212 2.029.217 2.743.057 3.198-.018 7.705-.134 12.446"
  />
  <path
    fill="#F295FF"
    d="M231.564 259.635c-6.099 5.307-11.834 11.051-17.266 17.009-.618.673-1.098 1.22-1.878 1.951-.39.305-.82.642-1.072 1.128-3.302 7.183-.262 23.272 2.528 34.041 2.157-1.183 4.248-2.632 6.169-4.168 1.433-.941 3.325-3.58 5.01-1.598.47.612.492 1.43.121 2.056-1.164 1.948-2.644 3.695-4.327 5.222-1.694 1.524-3.412 2.829-5.491 3.832q.14.47.272.905c1.062 3.152 2.39 7.753 6.348 5.331 7.439-4.595 11.648-12.931 17.294-19.507 8.325-8.601 15.649-18.075 25.702-24.969.27-.191.55-.367.825-.552-10.143-4.717-27.389-13.385-34.235-20.681"
  />
  <path
    fill="#F295FF"
    d="M471.339 214.695c.114-5.547.454-11.066.965-16.574.259-2.755.555-5.501.939-8.271.337-2.243.654-5.246 2.662-7.191.836-.834 4.355-2.6 6.785-3.854-9.225.771-18.988.558-26.557-4.823-5.102-3.752-7.683-9.756-9.947-15.276-2.173-5.073-5.164-9.535-8.757-13.421-1.623.493-3.666 1.12-4.617 1.411-14.29 4.463-28.43 9.413-42.55 14.401l-8.465 3.046c-2.223.839-4.456 1.647-6.892 1.921-.05.087-.098.18-.148.265-3.738 6.257-8.933 11.49-14.963 15.478-14.716 13.447-37.228 12.003-43.634 11.266-5.644 3.904-12.18 6.518-18.748 8.371-8.941 2.326-18.166 2.714-27.163 3.999-25.713 3.26-54.149 10.366-69.599 32.842-.62.869-1.936 2.676-2.542 3.563-.829 1.241-1.655 2.439-2.849 3.41-.804.699-2.048.594-2.705-.253a4 4 0 0 1-.155-.231 1.88 1.88 0 0 1-.217-1.225c.018-.111.054-.213.076-.322q-.617.047-1.211.087c-3.706.255-6.713.364-9.132.364-8.696 0-10.016-1.364-10.692-2.061-.861-.888-1.015-2.229-.373-3.26 1.742-2.803 9.13-1.032 9.202-1.008 1.013.326 1.638.815 2.022 1.321 1.943-.01 4.262-.087 6.924-.242-.419-.895-1.742-2.598-5.929-4.231-5.429-2.12-13.947-1.279-16.854.869-2.694 1.991-3.959 4.969-3.382 7.965.755 3.933 4.475 7.05 10.204 8.553 6.329 1.659 11.052 2.108 14.238 2.139.14-.363.276-.727.423-1.088.456-1.039 1.288-1.511 2.134-1.556-.009.001.01 0 0 0 1.59-.066 3.244 1.375 2.51 3.411-6.172 15.172-6.373 31.974-3.274 47.945 1.389 7.997 4.256 15.587 8.653 22.309 8.927 13.667 23.144 22.942 37.833 29.711 4.671 2.118 9.218 4.06 14.198 5.39 4.348 1.054 8.779 1.686 13.24 2.05 1.097.162.613-.797.472-1.191-.326-.912-1.458-1.341-2.252-2.169-.772-.748-.254-2.181.82-2.253.132-.007.257.007.387.006 5.433-.051 9.054 4.929 11.303 9.571 7.095-7.655 24.769-26.035 35.648-31.428-4.556-8.096-10.867-15.202-19.507-18.941a1.7 1.7 0 0 1-.34-.206 1.649 1.649 0 0 1 1.433-2.904c5.597 1.507 10.691 4.798 14.734 8.913 3.247 3.516 6.006 7.439 8.384 11.645.124-.008.256-.031.375-.031l.116.001c1.979.043 3.161.975 3.805 1.75a57 57 0 0 1 2.677 3.491c3.056-1.604 6.94-.858 9.115 1.927 2.17 2.776 3.814 6.369 5.057 10.041 1.325.718 4.871 1.909 11.486-.347a160 160 0 0 0 13.256-6.541c26.878-14.758 48.875-37.761 63.477-64.67 3.54-7.614 4.679-13.239 1.396-13.969-4.255.137-8.515-.339-12.684-1.671-1.875-.661-1.097-3.446.852-3.058q1.273.147 2.55.226c.145.009 7.612.308 14.397-1.007 6.599-1.279 12.137-3.359 12.315-3.425 4.857-2.059 3.653-3.227 2.559-3.727-20.925-2.357-41.36-10.819-56.857-24.54-8.011-7.171-14.71-16.329-19.793-25.822-.276.078-.54.153-.749.219-.884.295-1.997.644-2.955.863a1.55 1.55 0 0 1-1.865-1.154c-.175-.984.475-1.922 1.038-2.656 1.576-1.942 6.411-4.312 8.013-1.353 14.268 29.805 46.332 48.473 78.872 50.153 8.726.495 17.591-.188 25.928-2.487-5.625-7.008-5.068-23.173-5.116-30.456m-133.157 41.967c-4.346 2.295-8.893 3.164-13.427 4.844l-4.537 1.553c-10.937 3.785-21.83 7.698-32.531 12.08a2.49 2.49 0 0 1-1.385 3.06l-11.923 5.099a2.5 2.5 0 0 1-.983.202c-.115 0-.229-.02-.343-.036a2.5 2.5 0 0 1-.654-.172c-.32-.139-.718-.314-1.153-.506a52 52 0 0 0-3.431 2.197c-9.542 6.533-16.887 16.027-24.95 24.33-5.817 7.027-10.356 15.62-18.553 20.452-4.052 2.264-7.694 1.295-10.172-1.501-1.027-1.159-1.86-2.626-2.43-4.319-3.438-9.676-11.841-42.179-2.62-49.08 6.088-6.672 12.672-13.314 19.738-19.423l-.013-.036c-.466-1.602-.249-3.133.627-4.427a59 59 0 0 1 2.752-3.739c-2.504-2.547-2.902-6.621-.766-9.58 4.142-5.743 11.915-10.418 17.707-13.329a7.465 7.465 0 0 1 10.449 4.347l.167.51c3.856-.968 6.445-1.093 6.746-1.103a2.495 2.495 0 0 1 2.401 1.543l.257.623c4.26-2.075 8.558-4.113 13.041-5.934 3.043-1.233 6.187-2.269 9.275-3.232 3.18-.818 6.155-2.077 9.546-1.662 1.018.138 1.531 1.259 1.202 2.127-.084.221-.209.43-.411.598-2.615 2.151-5.839 2.659-8.898 3.71-3.044.88-5.99 1.848-8.878 3.03-4.338 1.795-8.678 3.819-12.992 5.922l14.759 35.706c10.82-4.4 21.839-8.286 32.941-11.872 5.771-1.713 11.671-4.31 17.799-4.549.347-.013.693-.023 1.041-.021 1.279.024 1.957 1.872.602 2.588m76.345-78.454a3 3 0 0 1-.267.012c-1.097 0-2.123-.624-2.783-1.708-.433-.711-.709-1.593-.797-2.55a7 7 0 0 1-.022-.821c-1.575.192-3.161.455-4.687.696-2.449.356-3.098-3.202-.682-3.736 2.789-.511 5.413-1.064 8.282-1.208.414-.001.759.102 1.047.263.838.199 1.593.764 2.118 1.625.433.711.709 1.593.798 2.55.241 2.643-1.024 4.693-3.007 4.877m19.011-4.936a3 3 0 0 1-.267.012c-1.098 0-2.123-.624-2.783-1.708-.434-.712-.709-1.594-.797-2.552a7 7 0 0 1-.022-.819c-1.575.192-3.161.455-4.687.696-2.449.356-3.099-3.202-.682-3.736 2.789-.511 5.413-1.065 8.282-1.209.41 0 .751.101 1.038.258.841.196 1.6.766 2.127 1.631.433.711.709 1.592.797 2.55.242 2.643-1.023 4.693-3.006 4.877"
  />
  <path
    fill="#000"
    d="M337.581 254.074c-.348-.002-.695.008-1.042.022-6.128.239-12.028 2.835-17.799 4.548-11.102 3.586-22.121 7.472-32.941 11.873L271.04 234.81c4.314-2.102 8.654-4.126 12.992-5.921 2.889-1.183 5.834-2.151 8.878-3.031 3.059-1.051 6.283-1.559 8.899-3.71.201-.168.326-.377.41-.598.329-.868-.184-1.989-1.202-2.127-3.39-.415-6.366.844-9.546 1.662-3.088.963-6.232 1.999-9.275 3.232-4.483 1.821-8.781 3.859-13.041 5.934l-.257-.623a2.495 2.495 0 0 0-2.4-1.543c-.302.011-2.89.135-6.746 1.103l-.167-.51a7.468 7.468 0 0 0-10.45-4.347c-5.792 2.911-13.565 7.587-17.707 13.329-2.135 2.959-1.737 7.034.766 9.58a59 59 0 0 0-2.752 3.74c-.876 1.293-1.093 2.824-.627 4.426l.014.036c-7.067 6.109-13.651 12.751-19.739 19.424-9.221 6.9-.817 39.403 2.62 49.079.57 1.693 1.403 3.16 2.431 4.32 2.477 2.795 6.119 3.764 10.172 1.501 8.196-4.833 12.735-13.425 18.552-20.452 8.063-8.304 15.409-17.798 24.95-24.331a52 52 0 0 1 3.431-2.197c.435.192.833.367 1.153.506.21.091.431.141.654.172.114.016.228.036.343.036.335 0 .669-.067.984-.202l11.922-5.099a2.493 2.493 0 0 0 1.386-3.06c10.7-4.381 21.593-8.295 32.53-12.08l4.537-1.553c4.534-1.679 9.081-2.549 13.427-4.844 1.355-.716.677-2.564-.601-2.588m-102.098-13.489c2.769-3.84 8.416-8.026 15.897-11.786a2.46 2.46 0 0 1 1.106-.266c.319 0 .64.064.948.192.674.28 1.172.818 1.401 1.513l9.07 27.627a3.05 3.05 0 0 1-.766 3.148 3.055 3.055 0 0 1-3.99.268l-23.118-17.297c-1.074-.804-1.319-2.329-.548-3.399m29.491 40.283c-10.053 6.894-17.377 16.368-25.702 24.969-5.646 6.576-9.855 14.912-17.294 19.507-3.958 2.422-5.286-2.179-6.348-5.331q-.132-.434-.272-.905c2.079-1.003 3.797-2.308 5.491-3.832 1.683-1.527 3.163-3.274 4.327-5.222a1.84 1.84 0 0 0-.121-2.056c-1.685-1.982-3.577.657-5.01 1.598-1.921 1.536-4.012 2.985-6.169 4.168-2.79-10.769-5.83-26.858-2.528-34.04.252-.487.682-.824 1.072-1.129.78-.731 1.26-1.278 1.878-1.951 5.432-5.958 11.167-11.701 17.266-17.009 6.846 7.296 24.092 15.964 34.235 20.681-.274.185-.555.362-.825.552m8.439-2.594c-2.902-1.294-11.78-5.328-20.449-10.026-19.671-10.661-19.391-14.43-19.381-14.467a52 52 0 0 1 2.565-3.465l20.005 14.968a8.06 8.06 0 0 0 4.841 1.622 8.04 8.04 0 0 0 5.647-2.324l.001-.001a8.02 8.02 0 0 0 2.013-8.276l-7.326-22.314a38 38 0 0 1 3.662-.726l17.074 41.308z"
  />
  <path
    fill="#8CBA3B"
    d="m261.329 233.991 7.326 22.314a8.02 8.02 0 0 1-2.013 8.276l-.001.001a8.04 8.04 0 0 1-5.647 2.324 8.06 8.06 0 0 1-4.841-1.622l-20.006-14.968a53 53 0 0 0-2.565 3.465c-.009.037-.289 3.806 19.382 14.467 8.669 4.698 17.547 8.731 20.448 10.025l8.653-3.7-17.074-41.308c-.914.131-2.165.355-3.662.726"
  />
  <path
    fill="#8CBA3B"
    d="m236.031 243.984 23.118 17.297a3.055 3.055 0 0 0 3.99-.268 3.05 3.05 0 0 0 .766-3.148l-9.071-27.627a2.44 2.44 0 0 0-1.4-1.513 2.5 2.5 0 0 0-.948-.192c-.377 0-.752.089-1.106.266-7.481 3.76-13.127 7.946-15.897 11.786-.772 1.07-.527 2.595.548 3.399"
  />
  <path
    fill="#FFFBE8"
    d="M228.898 438.677c.352.582.452 1.284.276 1.942-.542 2.023 1.327 3.064 2.49 3.504 2.171.821 4.751.534 5.314-.592a2.5 2.5 0 0 1 2.19-1.384 2.51 2.51 0 0 1 2.242 1.3c.137.252.549 1.019 2.215.804 1.932-.252 3.79-1.691 4.041-2.714.036-.144.144-.583-.901-1.314a2.5 2.5 0 0 1 .808-4.469c1.912-.495 2.48-2.058 2.385-3.246-.049-.615-.423-2.642-3.19-2.905a2.5 2.5 0 0 1-2.178-3.138c.528-1.967-1.385-3.185-2.232-3.617-2.251-1.15-5.501-1.206-7.04.692a2.5 2.5 0 0 1-3.327.507 4.47 4.47 0 0 0-2.482-.733c-1.083 0-2.099.369-2.737.943-.76.685-.851 1.507-.285 2.585a2.497 2.497 0 0 1-1.188 3.44c-1.739.784-1.856 2.303-1.771 3.139.164 1.61 1.416 3.583 3.777 4.111a2.5 2.5 0 0 1 1.593 1.145"
  />
  <path
    fill="#FFFBE8"
    d="M105.425 349.155a6 6 0 0 0-.265-.007c-.798 0-1.84.196-2.712 1.014-2.032 1.906-1.703 5.897.719 8.715 1.379 1.605 3.182 2.579 4.945 2.674.818.041 2.004-.095 2.976-1.007 2.034-1.906 1.704-5.897-.718-8.715-1.379-1.604-3.181-2.578-4.945-2.674"
  />
  <path
    fill="#FFFBE8"
    d="M111.887 329.382a6 6 0 0 0-.265-.007c-.798 0-1.84.196-2.712 1.014-2.034 1.906-1.703 5.896.718 8.715 1.38 1.604 3.182 2.578 4.946 2.673.818.048 2.004-.095 2.976-1.007 2.034-1.906 1.703-5.896-.718-8.714-1.379-1.605-3.181-2.579-4.945-2.674"
  />
  <path
    fill="#FFFBE8"
    d="M119.477 309.484a5 5 0 0 0-.454-.021c-.763 0-1.71.186-2.535.901-2.104 1.822-1.927 5.833.385 8.759 1.317 1.668 3.082 2.72 4.84 2.886.819.077 1.992-.014 2.99-.88 2.103-1.822 1.927-5.833-.385-8.758-1.317-1.669-3.082-2.721-4.841-2.887"
  />
  <path
    fill="#FFFBE8"
    d="M127.492 290.278a5 5 0 0 0-.455-.022c-.763 0-1.71.186-2.536.902-2.102 1.822-1.925 5.832.386 8.758 1.317 1.668 3.082 2.72 4.841 2.886.811.075 1.99-.014 2.99-.88 2.103-1.822 1.926-5.833-.386-8.758-1.317-1.668-3.082-2.72-4.84-2.886"
  />
  <path
    fill="#FFFBE8"
    d="M344.111 463.187c.078.046.161.081.242.122l4.818-.036c1.612-.663 3.157-1.897 4.257-3.575 1.311-2.001 1.804-4.27 1.353-6.226-.214-.928-.749-2.2-2.084-2.995-.733-.436-1.574-.641-2.457-.641-2.424 0-5.168 1.547-6.861 4.129-1.31 2.001-1.803 4.271-1.352 6.227.214.927.749 2.2 2.084 2.995"
  />
  <path
    fill="#FFFBE8"
    d="M284.217 445.481c-.772-.501-1.683-.738-2.648-.738-2.373 0-5.069 1.432-6.819 3.874-1.4 1.954-1.989 4.207-1.617 6.18.175.929.656 2.212 1.948 3.052 2.672 1.734 7.008.3 9.468-3.135 1.399-1.954 1.988-4.207 1.616-6.181-.175-.929-.656-2.212-1.948-3.052"
  />
  <path
    fill="#FFFBE8"
    d="M308.886 451.151c-.175-.928-.655-2.211-1.947-3.051-.773-.502-1.684-.739-2.649-.739-2.373 0-5.07 1.432-6.819 3.874-1.399 1.954-1.988 4.207-1.616 6.181.175.928.655 2.211 1.947 3.051 2.672 1.735 7.007.3 9.468-3.135 1.399-1.954 1.988-4.207 1.616-6.181"
  />
  <path
    fill="#FFFBE8"
    d="M320.532 453.159c-1.311 2.001-1.804 4.271-1.353 6.227.214.927.749 2.2 2.084 2.994 2.741 1.632 7.008.036 9.318-3.488 1.31-2.001 1.803-4.27 1.352-6.226-.214-.928-.749-2.201-2.084-2.995-2.742-1.633-7.009-.035-9.317 3.488"
  />
  <path
    fill="#FFFBE8"
    d="M196.543 411.546a2.5 2.5 0 0 1-2.178-3.138c.21-.782-.627-1.342-1.145-1.606-1.25-.639-3.102-.716-3.906.276a2.5 2.5 0 0 1-3.327.506 2.3 2.3 0 0 0-1.28-.379c-.573 0-1.091.199-1.375.456-.166.149-.323.29-.03.849a2.5 2.5 0 0 1-1.188 3.44c-.215.097-.871.393-.77 1.382.086.844.751 1.88 2.007 2.161a2.505 2.505 0 0 1 1.869 3.087c-.165.616.254 1.119 1.245 1.494 1.437.544 2.605.16 2.7-.03a2.5 2.5 0 0 1 2.19-1.384c.975-.003 1.794.483 2.242 1.3.03.057.118.226.706.164.973-.108 1.877-.771 2.125-1.174a2 2 0 0 0-.257-.21 2.5 2.5 0 0 1 .808-4.469c1.075-.278 1.089-1.164 1.068-1.429-.034-.434-.275-1.179-1.504-1.296"
  />
  <path
    fill="#000"
    d="M203.031 412.446c-.19-2.402-1.601-4.332-3.709-5.279-.336-1.967-1.689-3.727-3.829-4.819-2.542-1.298-6.008-1.5-8.561.209-2.39-.743-5.12-.256-6.947 1.388-1.403 1.264-2.025 2.958-1.807 4.716-1.344 1.307-2.015 3.152-1.808 5.177.251 2.468 1.722 4.597 3.853 5.767.288 2.241 1.903 4.172 4.471 5.145 1.023.388 2.157.6 3.28.6 1.227 0 2.438-.255 3.466-.814 1.022.516 2.24.712 3.554.541 2.558-.334 5.651-2.221 6.347-5.058.22-.901.18-1.786-.102-2.612 1.261-1.268 1.944-3.041 1.792-4.961m-6.053 1.825a2.502 2.502 0 0 0-.807 4.469c.123.086.204.157.257.21-.248.403-1.152 1.066-2.125 1.174-.588.063-.676-.107-.706-.164-.448-.816-1.267-1.303-2.242-1.3-.93.017-1.775.55-2.19 1.384-.095.19-1.263.574-2.7.03-.991-.375-1.41-.878-1.245-1.494a2.505 2.505 0 0 0-1.87-3.087c-1.255-.281-1.92-1.317-2.006-2.161-.101-.989.555-1.285.77-1.382a2.5 2.5 0 0 0 1.188-3.44c-.293-.559-.136-.7.03-.849.284-.257.802-.456 1.375-.456.421 0 .871.108 1.28.38a2.5 2.5 0 0 0 3.327-.507c.804-.991 2.656-.915 3.906-.276.518.264 1.355.824 1.145 1.606a2.5 2.5 0 0 0 2.178 3.138c1.228.117 1.47.862 1.504 1.296.021.265.007 1.151-1.069 1.429"
  />
  <path
    fill="#F295FF"
    d="M155.848 245.668c-.889-.534-1.789-1.19-2.704-1.861-1.002-.735-2.123-1.717-3.311-2.756-4.408-3.859-10.443-9.143-15.849-6.633-1.781.826-1.85 3.237-1.65 4.933 2.827.331 7.722 1.973 14.536 8.11 4.951 4.459 9.642 6.465 13.679 7.176-2.059-1.843-4.045-4.695-4.701-8.969"
  />
</svg>
