<svg xmlns="http://www.w3.org/2000/svg" width="580" height="580" fill="none" viewBox="0 0 580 580">
  <path
    fill="#6DB5C3"
    d="M355.907 215.222c.342.431.534.964.543 1.515.031 1.917.12 3.831.24 5.742.029.473.05.948.085 1.42.053.726.487 1.389 1.155 1.677a2 2 0 0 0 .238.085l.024.009c.064.018.1.024.1.024s9.471-.868 14.201-1.551c-2.054-5.628-7.128-18.004-13.529-22.655-2.702-1.964-7.477-3.505-13.791-4.02a213 213 0 0 1-.634 14.297c1.17-.474 2.376-.707 3.613-.664 4.484.163 7.433 3.716 7.755 4.121"
  />
  <path
    fill="#6DB5C3"
    d="M374.973 288.698c9.219 19.906 18.455 33.152 18.638 33.411l.078.117c.26.416 6.309 10.368 2.045 27.427-1.32 5.278-3.511 8.974-5.89 11.56a20.4 20.4 0 0 1-2.417 2.235q-.608.474-1.208.873a19.5 19.5 0 0 1-2.321 1.322 18.4 18.4 0 0 1-2.958 1.122 17 17 0 0 1-.771.197q-.352.08-.631.13a2.94 2.94 0 0 0-1.202.512c-.438.32-.74.625-.867.892-.435.919-.713 1.941-.75 2.96-.024.694.589 2.23 2.15 2.984.421.204 14.357 8.483 14.357 8.483 7.427-2.145 13.027-5.367 14.668-10.116 3.699-10.711-7.982-57.102-19.504-97.018-2.325.541-15.186 3.957-13.417 12.909"
  />
  <path
    fill="#F295FF"
    d="M210.029 266.023c4.048-3.908 8.197-7.727 12.153-11.721l7.472-33.511c-.385-.77-1.045-1.736-2.179-2.869-.511-.512-5.776-4.637-8.357-6.467a218.7 218.7 0 0 1-27.244-24.799c-4.235-4.684-8.306-9.268-11.532-14.843-1.725-2.762-2.072-6.141-2.939-9.245-1.52-5.657-3.293-11.518-5.738-16.782-.425-.947-1.228-2.368-1.79-2.933-2.474-.53-5.358.435-8.103 1.562l-.435.2c.104.095.205.198.298.318 2.305 3.155 3.629 6.843 4.103 10.718.191 1.667-2.092 2.476-3 1.096-1.982-3.043-3.894-6.107-5.308-9.419a2.5 2.5 0 0 1-.171-.843l-.346.159c-7.058 3.593-13.748 8.159-19.75 13.247-2.205 1.918-4.374 3.967-5.976 6.111-.593.839-1.227 1.664-1.242 2.605-.012.702.461 1.833 1.169 2.957 3.164 4.744 7.599 9.33 11.262 13.901 7.833 9.439 14.98 19.482 21.416 29.914 9.519 15.495 19.726 30.576 30.179 45.467 2.932 4.389 6.31 8.447 8.653 13.186 2.35-2.78 4.821-5.454 7.405-8.009"
  />
  <path
    fill="#F295FF"
    d="M357.423 230.523c1.869 15.354 6.197 30.191 11.238 43.293 28.165-4.809 73.718-13.79 75.742-24.655 1.692-5.815 2.904-19.933 1.143-30.644-1.517.644-3.02 1.283-4.499 2.01-1.957.96-4.011 2.155-5.884 3.14-1.798.934-3.625-1.289-2.398-2.867 2.472-3.117 5.862-4.942 9.524-6.185.637-.179 1.442-.449 2.258-.633-1.111-3.863-2.78-6.863-5.189-8.184-1.229.232-2.735 1.131-4.043 1.885-6.681 4.086-13.735 8.911-21.325 11.73-12.71 4.653-26.019 7.296-39.304 9.361-5.319.784-10.671 1.368-16.077 1.696z"
  />
  <path
    fill="#DB00F8"
    d="M249.245 165.366c-1.497.423-3.852 1.657-4.472 5.163-.136 5.961.362 15.261.665 20.902 1.089 20.295 8.802 28.286 26.563 27.559 22.752-.922 24.837-13.222 25.12-27.99.177-9.285-.275-25.158-1.412-30.254zm13.253 39.129q-.22.022-.431.022a3.34 3.34 0 0 1-2.256-.83c-1.398-1.215-2.361-3.151-2.971-18.404-.235-5.907-.406-10.175 3.464-10.569 1.244-.13 2.116.353 2.628.779 1.396 1.162 1.91 3.121 2.395 9.112 1.294 16.008 1.193 19.481-2.829 19.89m19.556-2.787q-.22.022-.431.022a3.34 3.34 0 0 1-2.255-.831c-1.399-1.214-2.362-3.151-2.971-18.403-.236-5.908-.406-10.176 3.464-10.569a3.45 3.45 0 0 1 2.628.778c1.395 1.162 1.91 3.121 2.394 9.112 1.295 16.008 1.194 19.481-2.829 19.891"
  />
  <path
    fill="#000"
    d="M296.176 155.69a3 3 0 0 0-.277.012l-51.215 5.093c-2.188.11-3.924 1.735-4.437 4.167-.91 4.298-.401 15.564.199 26.736 1.194 22.274 10.29 32.338 29.4 32.337q1.156 0 2.359-.049c27.044-1.096 29.622-17.552 29.916-32.891.153-8.054-.153-25.606-1.582-31.655-.532-2.252-2.281-3.75-4.363-3.75m.944 35.309c-.282 14.769-2.367 27.069-25.119 27.991-17.761.727-25.474-7.264-26.563-27.559-.303-5.641-.801-14.941-.665-20.902.62-3.507 2.975-4.74 4.472-5.163l46.464-4.621c1.137 5.097 1.589 20.97 1.411 30.254"
  />
  <path
    fill="#000"
    d="M262.932 175.493c-.512-.426-1.384-.909-2.628-.779-3.87.394-3.699 4.662-3.464 10.569.61 15.253 1.573 17.189 2.971 18.404a3.34 3.34 0 0 0 2.256.83q.21 0 .431-.022c4.022-.409 4.124-3.882 2.829-19.89-.485-5.991-.999-7.95-2.395-9.112"
  />
  <path
    fill="#000"
    d="M282.489 172.705a3.45 3.45 0 0 0-2.628-.778c-3.87.393-3.699 4.661-3.464 10.569.609 15.252 1.572 17.189 2.971 18.403a3.34 3.34 0 0 0 2.256.83q.21 0 .43-.022c4.023-.409 4.124-3.882 2.829-19.89-.484-5.991-.999-7.95-2.394-9.112"
  />
  <path
    fill="#000"
    d="M260.309 121.679c2.657-1.716 5.541-2.987 8.574-3.886a2.306 2.306 0 0 0 1.539-2.573c-.864-3.772-6.343-.95-8.373.366-1.746 1.278-3.084 3.123-3.448 5.314-.107 1.014.979 1.412 1.708.779"
  />
  <path
    fill="#000"
    d="M292.675 112.401c1.839.813 3.773 1.657 5.779 1.952 2.329.29 3.459-2.903 1.417-4.132-2.007-1.133-4.301-1.351-6.573-1.196-1.736.13-2.222 2.617-.623 3.376"
  />
  <path
    fill="#F295FF"
    d="M447.888 410.989c-15.517-7.892-27.654-7.123-27.776-7.113a2.53 2.53 0 0 1-1.445-.334l-52.87-30.824a2.5 2.5 0 0 1-.76-3.635c.768-1.058 2.271-1.271 3.401-.612l.653.381c-.326-1.206-2.438-7.669-13.381-23.461-5.452-6.687-11.418-15.006-17.231-25.072-15.578-26.978-14.372-54.089-10.617-72.08 2.791-13.374 7.273-23.668 9.904-28.966a292 292 0 0 0 1.798-7.265 12 12 0 0 0 .314-2.257c.424-9.652.232-19.385-.308-28.997-.449-8.1-1.189-16.188-2.124-24.256-.848-8.084-2.554-16.042-2.899-24.204-.1-1.803 2.495-2.399 3.152-.673.658 1.713 1.182 3.49 1.639 5.286.32.524 1.889 2.794 4.74 2.515.789-.078 1.489-.538 1.968-1.169.126-.168.253-.347.372-.529.426-.658.486-1.489.203-2.22l-6.001-15.461a3 3 0 0 1-.056-.159c-.939-3.007 6.17-8.398 6.542-8.564 1.266-.566 2.68-.145 3.361.998q.049.083.092.168l6.119 12.32a59 59 0 0 0 3.353-8.602c.814-2.884 1.589-5.694 1.497-8.704.044-10.182-3.194-17.04-9.907-24.58-4.369-5.404-8.077-13.824-11.735-19.455-3.84 8.707-8.543 17.033-13.769 24.965-3.411 5.093-6.926 10.04-10.834 14.853 1.231.828 5.865 4.03 3.853 5.501-.866.583-1.62-.212-2.46-.617-.18-.095-2.685-1.226-3.21-1.423-16.308-5.659-36.863-4.773-53.301.215-6.298 1.796-12.153 4.97-17.891 7.959-1.232.795-2.723-.78-1.759-1.951 1.41-1.726 4.595-4.128 4.595-4.128 2.614-2.124-1.552-4.82-1.552-4.82s-14.711-8.895-23.151-12.833a174 174 0 0 0-12.258-5.15c.248 5.344.718 11.353-1.697 16.375l-.83 2-.055.132c-3.352 8.344-6.667 16.885-6.445 25.833.059 5.999 3.287 10.522 7.283 14.735 3.37 3.601 7.294 6.74 11.473 9.369 1.4.581 8.092 2.76 10.804-7.087.224-1.308 1.726-7.957 2.29-9.787.245-.798 1.043-1.362 1.865-1.21a1.62 1.62 0 0 1 1.326 1.735c-1.317 17.09-3.632 34.258-2.458 51.412.947 11.732 2.41 33.21 12.685 40.105 1.652 1.163 3.299 2.08 5.01 3.308.56.366.708 1.139.305 1.679a1.18 1.18 0 0 1-.799.466c-1.266.155-2.541.03-3.769-.304-.403-.11-.965-.134-1.223.03-1.436.914-2.752 3.969-3.853 5.612-1.954 3.52-4.445 6.789-6.894 9.701-5.215 6.227-11.13 11.767-17.196 17.116-7.358 6.853-13.849 14.675-19.114 23.212-18.47 29.87-20.064 71.507-2.256 102.012 2.299 3.781 4.894 7.386 7.874 10.623 2.993 3.377 6.528 5.83 9.455 9.355a1.195 1.195 0 0 1-1.232 1.917c-2.367-.641-4.453-1.884-6.333-3.34-.186-.156-.36-.326-.543-.484-.629.26-1.602 1.1-2.756 3.599-.3.651-19.955 56.828-19.955 56.828-.156.451-.44.847-.815 1.143-.092.073-9.731 7.864-15.9 24.053-1.117 2.934 1.812 5.325 6.304 7.537l.439.189c.78-1.677 1.715-3.305 2.691-4.832 1.731-2.681 3.666-5.554 6.437-7.21a1.413 1.413 0 0 1 1.913.576c.468.866-.186 1.738-.524 2.505l.103-.132c-1.81 3.846-3.957 7.396-5.863 11.144l1.154.497c.857.338 2.517 1.002 2.557 1.019 17.981 8.487 31.193 11.308 32.748 9.595 8.008-8.816 11.151-26.682 11.183-26.861.043-.251.124-.495.24-.721l20.124-39.84c7.841-14.701-1.525-17.968-1.525-17.968l.026.005a110 110 0 0 1-10.089-4.27c-1.902-1.044-4.173-2.092-6.015-3.238-2.619-1.524-5.402-3.056-7.113-5.707a1.23 1.23 0 0 1 .346-1.708c.296-.195.633-.244.957-.176 3.167.561 5.426 2.352 8.006 3.719 1.775 1.067 3.948 2.043 5.799 3.01 25.688 12.264 60.491 13.99 88.671 3.712.62-.226 1.207-.549 1.695-.994.965-.879 1.917-2.305.578-4.207-.417-.592-.961-1.757-.53-2.845a2.5 2.5 0 0 1 3.244-1.405l73.875 29.214q.332.132.616.352c.145.113 14.717 11.347 26.43 12.459h.022c1.988 0 9.057-9.817 16.198-29.571l.045-.115c.265-.62.552-1.276.853-1.96l.225-.519c-.09-.009-.18-.013-.269-.032-2.406-.513-4.746-1.218-7.142-1.836-2.456-.708-4.888-1.103-7.134-2.462-1.095-.607-.791-2.379.421-2.604 3.911-.746 7.786.116 11.579.997 1.284.386 3.215.695 4.359 1.562 2.188-5.676 3.134-10.399-.142-12.064m-225.115-80.17a1.89 1.89 0 0 1 3.781 0v5.084a1.89 1.89 0 0 1-3.781 0zm4.379 22.616c-.106 7.245-.294 15.213-.697 22.408-.25 3.124-4.833 2.944-4.827-.201.197-7.191.672-15.17 1.169-22.389.333-1.885-.246-9.337 3.006-8.356.484.178.828.581.959 1.042.698 2.522.375 5.002.39 7.496m7.688-.831c-.223 6.289-.026 15.141-1.053 21.308-.184 1.232-2.035 1.236-2.215 0-1.025-6.132-.833-15.044-1.053-21.309-.133-7.102-.198-14.205-.132-21.308.098-2.984 4.481-3.002 4.585 0 .066 7.103.001 14.206-.132 21.309m58.458-243.579c2.272-.155 4.566.063 6.573 1.196 2.041 1.229.912 4.422-1.418 4.132-2.005-.295-3.939-1.139-5.778-1.952-1.599-.759-1.113-3.246.623-3.376m-2.353 24.368a2 2 0 0 1 2.831-2.827c1.103 1.104 2.354 3.153 2.749 10.144.014.246.044 1.342.023 1.593a3.43 3.43 0 0 1-1.207 2.35 3.43 3.43 0 0 1-2.517.808 3.456 3.456 0 0 1-3.158-3.723c.131-1.573 1.316-2.795 2.786-3.089-.318-4.001-1.447-5.196-1.507-5.256m-17.804 1.925a2 2 0 0 1 2.83-2.827c1.103 1.105 2.354 3.153 2.749 10.145.014.245.044 1.342.023 1.593a3.456 3.456 0 0 1-3.722 3.158 3.46 3.46 0 0 1-3.16-3.723c.131-1.574 1.316-2.799 2.786-3.091-.318-4-1.446-5.195-1.506-5.255m-11.092-19.732c2.03-1.316 7.509-4.138 8.373-.366a2.306 2.306 0 0 1-1.539 2.573c-3.033.899-5.917 2.17-8.574 3.886-.729.633-1.814.235-1.708-.779.364-2.191 1.702-4.036 3.448-5.314m40.071 75.509c-.293 15.339-2.871 31.795-29.916 32.891q-1.202.049-2.358.049c-19.11.001-28.206-10.063-29.4-32.337-.6-11.172-1.109-22.438-.2-26.736.514-2.432 2.249-4.057 4.438-4.167l51.215-5.093q.137-.013.277-.012c2.082 0 3.831 1.498 4.363 3.75 1.429 6.049 1.735 23.601 1.581 31.655m21.455 16.695c-3.462 6.131-9.163 9.467-12.736 7.45-3.572-2.017-1.998-7.723 2.153-14.819 4.279-7.314.486-11.822 4.577-11.518 4.635.345 9.467 12.756 6.006 18.887"
  />
  <path
    fill="#000"
    d="M450.155 406.532c-14.676-7.464-26.455-7.764-29.603-7.678l-21.632-12.612c7.385-2.854 11.971-6.796 13.701-11.803.69-2.001.941-4.96.834-8.665q1.385-.846 2.835-1.724c2.391-1.447 6.842-4.139-11.026-70.286a1637 1637 0 0 0-5.782-20.824c12.483-2.679 24.868-5.874 36.685-10.768 5.167-2.376 11.66-5.381 13.043-11.635 2.639-10.778 2.796-21.897 1.226-32.829-.994-5.973-3.63-15.838-10.801-16.921-2.844.045-4.724 1.444-6.862 2.59-6.925 4.215-13.134 8.565-20.568 11.366-9.267 3.263-18.855 5.701-28.561 7.542-7.621-18.178-9.188-18.855-10.106-19.12-.875-.252-3.151-.117-4.326-.177-.593-.03-1.263-.063-1.987-.096-1.632-2.159-3.411-4.061-5.321-5.449-3.589-2.608-9.37-4.463-16.721-5.014-.032-4.01-.145-8.008-.339-11.963a344 344 0 0 0-3.723-34.498c2.687-.527 5.266-1.658 7.504-3.184.217-.154.422-.321.635-.48l.969 2.495c.231.596.681 1.08 1.258 1.354l3.235 1.539c.928.44 2.031.269 2.781-.432l4.668-4.362s9.608 18.665 9.645 18.724a2.65 2.65 0 0 0 2.256 1.247c.427 0 .89-.097 1.377-.319.51-.233 7.677-5.174 6.663-8.478a2 2 0 0 0-.082-.229l-13.183-31.616a2.5 2.5 0 0 0-2.215-1.537l-2.984-.11q.528-1.509.993-3.018c2.111-6.532 1.993-13.464.406-20.143-1.383-6.558-5.646-12.525-9.894-17.356-3.306-4.071-7.018-11.398-9.709-16.088-1.106-1.822-2.129-3.838-3.799-5.477-.304-.29-1-.795-1.66-.914-1.242-.308-2.562.448-3.043 1.536-1.548 3.556-3.124 7.113-4.943 10.543-5.792 11.125-12.859 21.847-20.862 31.465-.016.019-.026.041-.042.06-9.893-4.12-21.467-3.657-31.937-2.883-9.203.838-18.389 2.859-26.82 6.697l-1.742-1.231c-9.005-6.223-18.431-11.806-28.289-16.59a180 180 0 0 0-14.056-6.019c-1.705-.789-3.772.023-4.37 1.799-.753 2.4-.184 4.998-.197 7.264.129 3.62-.043 7.073-1.586 10.361-4.79 11.837-11.61 27.466-5.176 39.956 3.334 5.824 7.899 10.324 13.009 14.456 3.231 2.61 6.799 4.762 10.635 6.332l-.086.026s6.358 2.359 5.996 7.987c-.009.136-.393 13.751-.023 20.487.534 6.835 1.174 15.583 3.251 23.668-2.602-1.848-5.251-3.627-7.72-5.723-9.363-7.506-18.278-15.706-26.431-24.506-3.906-4.309-7.973-8.912-10.838-13.882-.652-1.161-1.161-2.276-1.379-3.553-2.033-8.397-4.206-16.753-8.354-24.439-3.457-6.735-12.603-2.72-17.622-.542-8.513 4.005-16.278 9.174-23.465 15.255-4.055 3.806-11.119 9.214-8.272 15.683 1.67 3.826 4.62 6.903 7.056 9.895 1.975 2.328 3.937 4.624 5.859 6.95 7.706 9.273 14.701 19.087 21.044 29.348 9.196 15.1 20.225 31.081 30.327 45.707 3.305 4.501 6.154 9.322 10.239 13.182l.089.082-.217.278a113 113 0 0 0-7.432 10.611c-20.232 32.439-21.543 80.4 1.428 111.922.69 1.148 3.512 6.29 2.173 11.524-.267 1.041-19.574 57.396-19.574 57.396-2.346 2.038-11.023 10.31-16.891 25.709-2.795 7.339 4.332 11.869 11.029 14.858.376.276 14.913 6.557 22.921 9.394 8.058 2.854 13.164 3.839 16.502 3.839 3.328-.001 4.898-.98 5.881-2.061 8.395-9.243 11.811-26.136 12.339-28.991l28.544-55.501c26.628 5.951 55.495 2.704 79.817-9.506l62.907 24.878c2.264 1.716 16.398 12.095 28.736 13.266q.267.026.549.027c2.911 0 7.133-2.335 14.073-16.775 3.661-7.615 6.438-15.177 6.746-16.026.25-.583.521-1.199.802-1.84 3.315-7.559 8.325-18.981-.415-23.425m-42.261-33.725c-1.641 4.749-7.241 7.971-14.668 10.116 0 0-13.936-8.279-14.357-8.483-1.561-.754-2.174-2.29-2.149-2.984.037-1.019.314-2.042.749-2.961.127-.267.429-.571.867-.891.355-.259.77-.433 1.202-.512a15 15 0 0 0 1.402-.327q.418-.117.891-.277a18 18 0 0 0 2.067-.845q.556-.267 1.139-.595a19 19 0 0 0 2.39-1.6 20 20 0 0 0 2.417-2.235c2.379-2.587 4.57-6.282 5.89-11.56 4.264-17.059-1.785-27.012-2.045-27.427a2 2 0 0 0-.078-.117c-.183-.259-9.418-13.505-18.637-33.411-1.769-8.952 11.091-12.368 13.416-12.909 11.523 39.916 23.203 86.306 19.504 97.018m-33.208-144.033c13.285-2.065 26.594-4.708 39.304-9.361 7.59-2.819 14.644-7.644 21.326-11.73 1.307-.754 2.813-1.653 4.042-1.885 2.409 1.321 4.078 4.321 5.189 8.184-.816.184-1.621.454-2.258.633-3.662 1.243-7.052 3.068-9.524 6.185-1.227 1.578.6 3.801 2.398 2.867 1.874-.985 3.927-2.18 5.884-3.14 1.479-.727 2.982-1.366 4.499-2.01 1.762 10.71.549 24.829-1.143 30.644-2.024 10.865-47.577 19.846-75.741 24.655-5.042-13.102-9.37-27.939-11.239-43.293l1.186-.053a189 189 0 0 0 16.077-1.696m-29.513-31.306c6.314.515 11.089 2.056 13.791 4.02 6.401 4.651 11.475 17.027 13.528 22.655-4.73.683-14.2 1.551-14.2 1.551s-.037-.006-.101-.024l-.023-.009a2 2 0 0 1-.237-.084c-.669-.288-1.104-.952-1.156-1.678-.035-.472-.056-.947-.085-1.42a123 123 0 0 1-.24-5.742 2.5 2.5 0 0 0-.543-1.515c-.322-.404-3.271-3.957-7.755-4.12-1.237-.044-2.443.189-3.613.664.376-4.735.577-9.516.634-14.298m-1.134 20.64c1.323-1.372 2.613-2.048 3.907-2.011 1.52.045 2.832 1.048 3.523 1.695 1.279 53.49 36.294 104.661 37.996 107.113.38.666 5.001 9.204 1.417 23.535-2.643 10.575-9.34 13.072-11.74 13.635-3.865-3.069-20.842-17.429-36.333-44.256-27.33-47.332-.864-96.013 1.23-99.711m19.783-92.518 1.026.038 12.112 29.05c-.422.508-1.058 1.164-1.694 1.768a2.3 2.3 0 0 1-.672-.334l-9.449-18.361c-.048-.095-.11-.181-.168-.27q-.055-.09-.118-.176a3 3 0 0 0-.231-.259q-.068-.069-.143-.133a3 3 0 0 0-.221-.17 3 3 0 0 0-.281-.161c-.056-.028-.112-.059-.171-.083a2.4 2.4 0 0 0-.932-.186 2.5 2.5 0 0 0-1.707.673l-5.841 5.459-.801-.381-8.8-22.672a35 35 0 0 1 1.732-1.898l7.043 14.18c.329.66.935 1.13 1.647 1.305.041.01.078.029.12.037l1.452.28a2.5 2.5 0 0 0 1.594-.225 2.5 2.5 0 0 0 1.027-.979c.017-.028.043-.048.059-.078zM193.971 260.846c-10.453-14.892-20.66-29.972-30.179-45.468-6.436-10.431-13.583-20.474-21.416-29.913-3.663-4.571-8.098-9.157-11.262-13.902-.708-1.124-1.181-2.255-1.169-2.956.015-.941.649-1.766 1.242-2.605 1.602-2.145 3.771-4.194 5.976-6.111 6.002-5.088 12.692-9.654 19.75-13.247l.346-.159c.009.27.058.551.171.842 1.414 3.313 3.326 6.376 5.308 9.419.908 1.381 3.191.572 3-1.095-.474-3.875-1.798-7.563-4.103-10.718a2.6 2.6 0 0 0-.298-.319l.435-.199c2.745-1.127 5.629-2.092 8.103-1.562.562.565 1.365 1.986 1.79 2.933 2.445 5.264 4.218 11.124 5.738 16.782.867 3.104 1.214 6.483 2.939 9.245 3.226 5.575 7.297 10.158 11.532 14.843a218.7 218.7 0 0 0 27.244 24.799c2.581 1.83 7.846 5.955 8.357 6.466 1.134 1.134 1.794 2.099 2.179 2.87l-7.472 33.511c-3.956 3.993-8.105 7.813-12.153 11.721a123 123 0 0 0-7.405 8.008c-2.343-4.739-5.721-8.797-8.653-13.185m39.803-35.555c1.324 2.31 2.967 5.527 4.393 8.572-.753 1.334-1.837 3.205-2.405 4.003-2.026 2.844-4.485 5.96-6.732 8.702zM448.03 423.053c-1.144-.866-3.076-1.176-4.359-1.562-3.793-.881-7.668-1.743-11.579-.997-1.213.226-1.516 1.997-.421 2.604 2.245 1.359 4.678 1.754 7.134 2.462 2.396.618 4.736 1.324 7.141 1.836.09.019.18.024.27.032l-.225.519c-.301.684-.588 1.34-.853 1.96l-.045.116c-7.141 19.753-14.21 29.571-16.198 29.571l-.023-.001c-11.712-1.112-26.284-12.346-26.429-12.459a2.5 2.5 0 0 0-.616-.351l-73.875-29.215a2.5 2.5 0 0 0-3.245 1.405c-.43 1.089.114 2.253.53 2.845 1.34 1.902.388 3.328-.577 4.207-.488.445-1.075.768-1.695.994-28.181 10.278-62.983 8.553-88.671-3.711-1.851-.967-4.025-1.944-5.799-3.01-2.58-1.368-4.839-3.159-8.007-3.719a1.233 1.233 0 0 0-1.303 1.883c1.711 2.652 4.495 4.183 7.114 5.708 1.842 1.145 4.113 2.194 6.015 3.238a110 110 0 0 0 10.089 4.269l-.026-.005s9.366 3.267 1.525 17.968l-20.124 39.84c-.116.226-.198.47-.24.721-.032.18-3.175 18.045-11.183 26.861-1.555 1.713-14.767-1.108-32.748-9.595-.04-.017-1.7-.681-2.557-1.019l-1.154-.497c1.906-3.748 4.053-7.298 5.863-11.144l-.103.132c.338-.767.992-1.639.524-2.505a1.413 1.413 0 0 0-1.914-.575c-2.77 1.655-4.705 4.528-6.437 7.209-.975 1.528-1.91 3.156-2.69 4.832l-.439-.189c-4.492-2.211-7.422-4.603-6.304-7.536 6.169-16.19 15.807-23.98 15.9-24.054a2.5 2.5 0 0 0 .815-1.143s19.655-56.176 19.955-56.828c1.154-2.499 2.127-3.339 2.755-3.598.184.158.358.327.543.483 1.881 1.456 3.967 2.699 6.334 3.34a1.196 1.196 0 0 0 1.232-1.917c-2.928-3.525-6.463-5.978-9.455-9.355-2.98-3.236-5.575-6.842-7.874-10.622-17.809-30.506-16.214-72.143 2.256-102.012 5.264-8.538 11.756-16.36 19.114-23.212 6.066-5.35 11.981-10.89 17.196-17.116 2.449-2.913 4.94-6.181 6.894-9.702 1.101-1.643 2.417-4.698 3.853-5.611.258-.165.82-.141 1.223-.031 1.228.334 2.503.459 3.769.304.307-.039.601-.198.799-.466a1.175 1.175 0 0 0-.306-1.679c-1.71-1.228-3.357-2.145-5.009-3.308-10.275-6.895-11.738-28.373-12.685-40.104-1.175-17.155 1.141-34.323 2.458-51.413a1.62 1.62 0 0 0-1.327-1.735c-.821-.152-1.619.412-1.865 1.211-.564 1.829-2.065 8.478-2.29 9.787-2.711 9.846-9.403 7.667-10.803 7.086-4.179-2.629-8.103-5.768-11.473-9.369-3.997-4.213-7.225-8.736-7.283-14.735-.222-8.948 3.093-17.489 6.445-25.833l.054-.132.831-2c2.415-5.022 1.945-11.03 1.697-16.375a174 174 0 0 1 12.258 5.15c8.44 3.938 23.151 12.833 23.151 12.833s4.166 2.696 1.552 4.82c0 0-3.186 2.402-4.595 4.128-.964 1.171.527 2.746 1.759 1.951 5.737-2.989 11.593-6.163 17.891-7.959 16.438-4.988 36.993-5.873 53.301-.215.525.197 3.03 1.329 3.21 1.423.84.405 1.594 1.2 2.46.618 2.012-1.472-2.622-4.674-3.853-5.502 3.907-4.812 7.423-9.76 10.834-14.853 5.225-7.931 9.929-16.258 13.769-24.965 3.658 5.631 7.366 14.051 11.735 19.456 6.713 7.54 9.951 14.397 9.907 24.579.092 3.01-.683 5.82-1.497 8.704a59 59 0 0 1-3.353 8.602l-6.119-12.32q-.043-.085-.092-.168c-.682-1.143-2.095-1.564-3.361-.998-.372.166-7.481 5.557-6.542 8.564q.026.08.055.16l6.002 15.46c.283.731.223 1.562-.203 2.22a10 10 0 0 1-.373.529c-.478.632-1.178 1.091-1.967 1.169-2.851.28-4.42-1.991-4.741-2.514-.456-1.797-.98-3.574-1.638-5.287-.657-1.726-3.253-1.13-3.152.674.345 8.161 2.05 16.12 2.898 24.203.936 8.068 1.675 16.157 2.124 24.256.54 9.612.733 19.345.309 28.997a12 12 0 0 1-.315 2.258 287 287 0 0 1-1.797 7.264c-2.631 5.298-7.113 15.592-9.904 28.966-3.755 17.992-4.961 45.102 10.617 72.08 5.812 10.067 11.779 18.385 17.231 25.072 10.943 15.793 13.055 22.255 13.381 23.461l-.654-.381c-1.129-.659-2.632-.446-3.4.612a2.5 2.5 0 0 0 .76 3.635l52.87 30.825c.435.253.943.368 1.445.333.122-.01 12.259-.779 27.776 7.113 3.276 1.665 2.33 6.388.142 12.064"
  />
  <path
    fill="#000"
    d="M317.569 188.903c-4.091-.304-.298 4.204-4.577 11.518-4.151 7.096-5.725 12.802-2.153 14.819 3.573 2.017 9.274-1.319 12.736-7.45 3.461-6.131-1.371-18.542-6.006-18.887"
  />
  <path
    fill="#6DB5C3"
    d="M360.346 132.092a2.5 2.5 0 0 1-1.027.98 2.5 2.5 0 0 1-1.594.224l-1.452-.279c-.042-.008-.079-.028-.12-.038a2.5 2.5 0 0 1-1.647-1.305l-7.043-14.179a34 34 0 0 0-1.732 1.898l8.8 22.671.801.381 5.841-5.459a2.5 2.5 0 0 1 2.135-.636l.002.001c.175.03.341.083.502.148.059.024.114.055.171.084q.146.071.281.16a2.6 2.6 0 0 1 .364.304q.123.121.231.258.062.086.118.177c.041.063.091.119.126.187l9.491 18.443c.248.172.471.275.672.334.635-.603 1.272-1.26 1.694-1.768l-12.112-29.05-1.026-.038-3.417 6.425c-.016.029-.042.049-.059.077"
  />
  <path
    fill="#6DB5C3"
    d="M342.809 317.819c15.491 26.827 32.468 41.187 36.333 44.256 2.4-.563 9.097-3.06 11.74-13.635 3.584-14.331-1.037-22.869-1.417-23.535-1.702-2.452-36.717-53.623-37.996-107.113-.691-.648-2.003-1.65-3.523-1.695-1.294-.037-2.584.639-3.906 2.011-2.095 3.698-28.561 52.379-1.231 99.711m6.01-12.225-1.856 2.605c-1.413 1.964-4.475.257-3.585-1.962l1.194-2.967a2.437 2.437 0 0 1 3.171-1.353c1.452.561 1.991 2.425 1.076 3.677m10.48 2.255-2.444-2.413c-2.245-2.331 1.088-5.708 3.448-3.492.449.344 1.703 3.21 2.006 3.722.944 1.894-1.53 3.654-3.01 2.183m3.545-15.447 3.553.616a1.728 1.728 0 0 1 .107 3.384l-3.506.839c-3.905.668-4.091-5.259-.154-4.839m-6.718-7.425 2.054-2.496a1.85 1.85 0 0 1 3.189 1.745l-.996 3.076c-1.429 3.622-6.527.829-4.247-2.325m-.974 4.973a5.9 5.9 0 0 1 2.936 3.461 5.88 5.88 0 0 1-.371 4.523 5.937 5.937 0 0 1-7.983 2.566h-.001a5.937 5.937 0 0 1-2.565-7.984 5.9 5.9 0 0 1 3.46-2.936 5.9 5.9 0 0 1 4.524.37m-9.338-7.249 2.42 2.429c2.512 2.782-2.056 6.095-3.92 2.843l-1.558-3.055c-.981-1.931 1.555-3.735 3.058-2.217m-6.682 11.268 3.066-.912a2.477 2.477 0 0 1 3.079 1.668c.54 1.677-.976 3.427-2.703 3.16l-3.17-.426c-1.901-.248-2.086-2.967-.272-3.49"
  />
  <path
    fill="#6DB5C3"
    d="M235.762 237.866c.568-.798 1.652-2.669 2.405-4.003-1.426-3.045-3.069-6.262-4.393-8.572l-4.744 21.277c2.247-2.742 4.706-5.857 6.732-8.702"
  />
  <path
    fill="#000"
    d="M347.168 292.516a5.937 5.937 0 0 0 2.565 7.984 5.937 5.937 0 0 0 7.984-2.566 5.88 5.88 0 0 0 .371-4.523 5.9 5.9 0 0 0-2.936-3.461 5.9 5.9 0 0 0-4.524-.37 5.9 5.9 0 0 0-3.46 2.936"
  />
  <path
    fill="#000"
    d="m360.373 287.302.996-3.077a1.85 1.85 0 0 0-3.189-1.744l-2.054 2.496c-2.28 3.154 2.818 5.946 4.247 2.325"
  />
  <path
    fill="#000"
    d="M347.743 301.918a2.44 2.44 0 0 0-3.172 1.352l-1.193 2.967c-.891 2.219 2.172 3.926 3.585 1.962l1.856-2.604c.915-1.253.376-3.117-1.076-3.677"
  />
  <path
    fill="#000"
    d="m362.998 297.241 3.506-.839a1.728 1.728 0 0 0-.107-3.384l-3.553-.617c-3.937-.419-3.751 5.508.154 4.84"
  />
  <path
    fill="#000"
    d="m339.404 297.459 3.17.426c1.727.267 3.243-1.483 2.703-3.16a2.48 2.48 0 0 0-3.079-1.668l-3.066.911c-1.815.524-1.63 3.243.272 3.491"
  />
  <path
    fill="#000"
    d="M344.314 287.973c1.864 3.252 6.432-.061 3.92-2.843l-2.42-2.429c-1.503-1.518-4.039.286-3.058 2.217z"
  />
  <path
    fill="#000"
    d="M360.303 301.944c-2.36-2.216-5.693 1.161-3.448 3.492l2.444 2.413c1.48 1.471 3.954-.289 3.01-2.183-.302-.512-1.557-3.378-2.006-3.722"
  />
  <path
    fill="#000"
    d="M230.387 331.295c-.066 7.103-.001 14.206.132 21.309.22 6.265.028 15.176 1.053 21.308.18 1.236 2.031 1.232 2.215 0 1.027-6.167.83-15.018 1.053-21.308.133-7.102.198-14.206.132-21.309-.104-3.002-4.487-2.984-4.585 0"
  />
  <path
    fill="#000"
    d="M225.803 344.897c-3.252-.981-2.673 6.472-3.006 8.356-.497 7.219-.973 15.198-1.169 22.389-.006 3.145 4.577 3.326 4.827.201.402-7.195.591-15.162.697-22.408-.015-2.494.308-4.974-.391-7.496a1.56 1.56 0 0 0-.958-1.042"
  />
  <path
    fill="#000"
    d="M224.664 337.794c1.043 0 1.89-.847 1.89-1.891v-5.084a1.891 1.891 0 0 0-3.781 0v5.084c0 1.044.847 1.891 1.891 1.891"
  />
  <path
    fill="#000"
    d="M333.099 444.473c-.179-1.235-2.031-1.232-2.215 0-1.027 6.168-.83 15.019-1.053 21.309-.133 7.102-.198 14.205-.132 21.308.105 3.003 4.487 2.984 4.585 0 .066-7.103.002-14.206-.132-21.308-.22-6.265-.027-15.176-1.053-21.309"
  />
  <path
    fill="#000"
    d="M338.216 442.542c-.402 7.195-.591 15.163-.697 22.409.016 2.494-.308 4.973.391 7.495.13.461.474.864.959 1.043 3.252.98 2.672-6.472 3.005-8.357.497-7.218.973-15.198 1.169-22.388.006-3.145-4.577-3.326-4.827-.202"
  />
  <path
    fill="#000"
    d="M340.007 480.592a1.89 1.89 0 0 0-1.89 1.891v5.083a1.89 1.89 0 1 0 3.781 0v-5.083a1.89 1.89 0 0 0-1.891-1.891"
  />
  <path
    fill="#000"
    d="M271.861 143.664a3.46 3.46 0 0 0 3.444 3.735 3.457 3.457 0 0 0 3.438-3.171c.021-.25-.009-1.347-.023-1.592-.395-6.992-1.646-9.041-2.749-10.145a2 2 0 0 0-2.83 2.827c.06.06 1.188 1.255 1.507 5.255-1.471.291-2.656 1.517-2.787 3.091"
  />
  <path
    fill="#000"
    d="M289.666 141.738a3.456 3.456 0 0 0 3.447 3.735c.817 0 1.599-.286 2.228-.82a3.43 3.43 0 0 0 1.207-2.35c.021-.251-.009-1.347-.023-1.593-.395-6.991-1.646-9.04-2.749-10.144a2 2 0 0 0-2.831 2.827c.061.06 1.189 1.255 1.507 5.256-1.47.294-2.656 1.516-2.786 3.089"
  />
</svg>
