<svg xmlns="http://www.w3.org/2000/svg" width="310" height="399" fill="none" viewBox="0 0 310 399"><path fill="#F295FF" d="M47.819 21.266c3.366-2.341 6.936-4.34 10.474-4.572 2.48-.164 4.466.806 5.75 2.792l1.388-6.154a6.2 6.2 0 0 1 1.824-3.187c-5.884-.19-12.38-.362-19.533-.51a9 9 0 0 0-1.096.033c.07.417.212 1.007.334 1.513.545 2.255 1.343 5.565.859 10.085"/><path fill="#F295FF" d="m61.457 30.95.002-.009a2.6 2.6 0 0 1-.432-.137c.155.072.293.117.43.146"/><path fill="#EE6DBB" d="m53.12 96.346 2.934.662a2.28 2.28 0 0 0 2.72-1.718l2.642-11.716c-2.823-15.037.849-31.22 9.838-43.624l5.431-24.08a2.28 2.28 0 0 0-1.718-2.72l-2.934-.661a2.26 2.26 0 0 0-1.716.296 2.26 2.26 0 0 0-1.003 1.422L51.4 93.627a2.277 2.277 0 0 0 1.718 2.72m14.934-67.07 1.285-5.697a1.4 1.4 0 0 1 .621-.882 1.4 1.4 0 0 1 1.064-.183l.551.125a1.4 1.4 0 0 1 .881.622 1.4 1.4 0 0 1 .184 1.063l-1.285 5.696a1.41 1.41 0 0 1-1.685 1.065l-.551-.124a1.4 1.4 0 0 1-.882-.622 1.4 1.4 0 0 1-.183-1.063"/><path fill="#000" d="m69.119 30.961.551.125q.156.035.31.035c.645 0 1.228-.446 1.375-1.1l1.285-5.697a1.4 1.4 0 0 0-.183-1.063 1.4 1.4 0 0 0-.882-.622l-.55-.124a1.4 1.4 0 0 0-1.065.183 1.4 1.4 0 0 0-.621.881l-1.285 5.697a1.4 1.4 0 0 0 .183 1.063c.201.319.514.54.882.622"/><path fill="#F295FF" d="M190.965 269.847c-.341 0-.723-.036-1.152-.116a52 52 0 0 1-4.557-1.056 77 77 0 0 1-1.619 4.787 93 93 0 0 1-1.191 2.92 2 2 0 0 1 .387.299c1.205.317 2.505.609 3.912.869 5.464 1.009 9.7.064 12.25-2.733 2.347-2.573 2.71-6.165 2.029-8.582-.643-2.28-3.515-5.73-7.036-7.33-2.175-.987-4.287-1.168-6.301-.565a85 85 0 0 1-1.218 5.907c2-.988 4.517-.305 6.022.962 1.689 1.423 1.195 2.853 1.003 3.258-.316.668-1.01 1.38-2.529 1.38"/><path fill="#F295FF" d="M188.111 284.294c3.74 3.822 9.894 7.748 19.314 7.552 1.282-.026 2.775-2.08 2.904-3.997.127-1.885-1.043-2.312-2.077-2.473-.938-.147-8.115-1.351-11.357-4.304-2.315 1.815-6.136 2.76-8.784 3.222"/><path fill="#F295FF" d="m191.278 136.723-.021-.019.033.051z"/><path fill="#F295FF" d="M108.148 338.652c-.435-3.212-1.498-10.907-2.168-15.788a1.5 1.5 0 0 0-.434-.889c-.889-.846-2.313-1.075-5.183-1.468a97 97 0 0 1-4.791-.747c-21.652-4.014-30.333-8.386-33.482-10.498l11.077 52.469a7.57 7.57 0 0 1-.535 4.77c-1.798 3.891-5.993 14.04-6.108 24.222-.012 1.114.505 2.163 1.44 2.873.692.525 1.563.758 2.431.758H75.7c-.72-5.818-.146-13.041 4.186-16.952 1.01-.868 2.523.293 1.986 1.49-1.934 4.928-2.43 10.23-2.03 15.462h28.292a5.5 5.5 0 0 1-.269-1.875l-.056-1.449a85 85 0 0 1 2.632-22.837c.231-1.119.885-2.75 1.18-3.799a1.8 1.8 0 0 0-.02-.653c-.042-.149-3.422-24.924-3.452-25.089"/><path fill="#DB00F8" d="M138.061 78.296c2.816-5.603 5.543-16.646 6.612-21.795l-40.495-16.07a1 1 0 0 0-.07.08c-1.859 2.37-8.144 12.913-9.81 17.828-5.321 15.716-1.279 27.317 11.382 32.668 16.925 7.152 28.318-4.624 32.381-12.71m-26.052-14.765c-4.71 10.276-5.861 11.312-7.196 11.798q-.44.16-.892.16a2.9 2.9 0 0 1-1.238-.296c-.282-.133-1.137-.54-1.506-1.638-.448-1.333-.387-3.133 4.705-12.95 1.879-3.624 3.501-6.754 6.342-5.406 2.96 1.405 1.346 4.927-.215 8.332m17.075 6.96c-4.616 10.058-5.735 11.069-7.03 11.54a2.6 2.6 0 0 1-.878.157q-.601 0-1.211-.29c-.735-.348-1.231-.888-1.472-1.603-.449-1.334-.383-3.023 4.603-12.663 1.947-3.765 3.959-7.657 6.773-6.321 2.815 1.336 1.067 5.146-.785 9.18"/><path fill="#000" d="M112.224 55.199c-2.841-1.348-4.463 1.782-6.342 5.405-5.092 9.819-5.153 11.618-4.705 12.951.369 1.098 1.224 1.504 1.506 1.638q.624.296 1.238.296.451 0 .892-.16c1.335-.486 2.486-1.522 7.196-11.798 1.561-3.405 3.175-6.927.215-8.332"/><path fill="#000" d="M129.869 61.31c-2.814-1.335-4.826 2.557-6.773 6.322-4.986 9.64-5.053 11.33-4.603 12.663.241.715.737 1.255 1.472 1.604q.61.29 1.211.29.444 0 .878-.159c1.295-.47 2.414-1.481 7.03-11.539 1.852-4.034 3.6-7.844.785-9.18"/><path fill="#000" d="m122.329 19.836.802.382c.141.067.418.056.624.073 1.621-.055 3.219.242 4.773.693a1.724 1.724 0 0 0 .973-3.298c-2.323-.805-5.421-1.078-7.392.738-.441.399-.325 1.166.22 1.412"/><path fill="#000" d="M151.003 22.133c.598.435 1.184.882 1.715 1.368.804.596 1.749 1.626 2.897 1.252.745-.273 1.072-.758 1.136-1.317.108-.947-.546-2.106-1.232-2.8a8.3 8.3 0 0 0-6.121-2.555c-1.186-.007-1.752 1.645-.774 2.356.768.565 1.586 1.118 2.379 1.695"/><path fill="#EE6DBB" d="m301.592 98.74-26.261-12.015a6.6 6.6 0 0 0-2.744-.61c-2.103 0-4.031 1.06-4.95 2.93l-27.396 55.678c-.34 3.512-2.754 7.183-5.028 10.22l-1.344 2.73c-.812 1.652-.915 3.566-.287 5.389.709 2.062 2.297 3.816 4.356 4.813l25.797 12.487c3.19 1.544 6.932.458 8.34-2.422l33.742-68.995c.815-1.668.903-3.595.247-5.428-.741-2.075-2.372-3.817-4.472-4.777m-4.701 8.246-31.625 64.477a5.22 5.22 0 0 1-6.973 2.384l-19.049-9.344a5.18 5.18 0 0 1-2.635-2.993 5.17 5.17 0 0 1 .252-3.979l31.625-64.477a5.18 5.18 0 0 1 2.993-2.636 5.17 5.17 0 0 1 3.979.253l19.05 9.343a5.216 5.216 0 0 1 2.383 6.972"/><path fill="#EE6DBB" d="M196.732 83.439c-.303-3.802.142-8.592-2.323-11.43-1.339-1.514-4.016-2.347-6.265-2.72-1.285-.252-2.679-.288-3.915.145h-.001c.121 2.911.093 5.836-.152 8.756a50 50 0 0 1-.393 3.732c2.843.205 5.856-1.06 8.434-2.111 1.021-.583 2.233.525 1.719 1.58-.451.878-1.101 1.621-1.881 2.241.541 5.032.449 10.65.83 15.55.121 1.616 1.113 4.748 2.864 2.75.85-1.38 1.052-3.69 1.195-5.454.145-2.114.151-4.29.12-6.468a205 205 0 0 0-.232-6.571"/><path fill="#000" d="M155.827 99.856c3.794-1.447 6.899-4.562 8.701-9.606.954-2.579 1.528-5.238 1.876-7.929.319-2.464.449-4.956.489-7.442-.008-.289.026-.467.003-.798.066-1.63-1.441-3.11-3.143-2.52-.393.113-.849.415-1.077.815-1.181 1.84-2.799 3.564-4.557 5.137-7.127 6.159-16.927 11.723-26.921 14.747 4.274-3.015 7.964-7.291 10.419-12.177 3.02-6.009 5.882-17.59 6.974-22.873.366-1.772-.393-3.451-1.888-4.18a2 2 0 0 0-.137-.06l-40.948-16.249c-1.593-.713-3.45-.185-4.642 1.334-2.263 2.884-8.66 13.73-10.447 19.008-4.944 14.599-2.439 26.472 6.79 33.662C87.1 86.494 80.05 78.504 79.779 64.379c-.036-.31-.052-.643-.07-.982-.061-1.165-.135-2.428-1.016-3.317-1.58-1.411-4.027-1.183-5.609-.023a1.19 1.19 0 0 0-.466.884c-.043.724.595 1.28 1.298 1.238.542.025 1.018.036 1.45.114.279.042.549.119.738.193.283 3.008.207 6.5.884 9.695.088.504.191.995.3 1.48 3.94 17.605 21.881 23.991 38.279 24.959 6.368.076 12.69-1.168 18.768-3.26a48 48 0 0 0 4.267 2.122c.844.469 1.627.836 2.467 1.198 5.208 2.308 10.431 2.828 14.758 1.177m-50.147-8.849c-12.661-5.35-16.703-16.952-11.382-32.668 1.665-4.915 7.951-15.459 9.809-17.827q.04-.049.071-.08L144.673 56.5c-1.069 5.149-3.796 16.192-6.612 21.795-4.063 8.087-15.456 19.863-32.381 12.711m38.459 5.108c3.738-2.113 10.797-5.68 16.366-6.021-1.128 2.141-3.38 5.37-7.159 6.71-3.198 1.132-6.818.224-9.207-.69"/><path fill="#DB00F8" d="M160.505 90.094c-5.569.341-12.628 3.908-16.366 6.02 2.389.914 6.009 1.822 9.207.69 3.779-1.34 6.031-4.569 7.159-6.71"/><path fill="#F1EFE4" d="M233.25 110.104a1.986 1.986 0 0 0 2.745-.62l9.311-14.74a1.99 1.99 0 0 0-3.365-2.125l-9.311 14.74a1.99 1.99 0 0 0 .62 2.745"/><path fill="#F1EFE4" d="M228.849 119.491q.207.03.41.03a2.81 2.81 0 0 0 2.774-2.395l.001-.003a2.81 2.81 0 0 0-2.368-3.184 2.815 2.815 0 0 0-3.185 2.367 2.81 2.81 0 0 0 2.368 3.185"/><path fill="#F1EFE4" d="M220.644 104.052a1.99 1.99 0 0 0 2.575-1.135l6.306-16.253a1.99 1.99 0 1 0-3.71-1.44l-6.306 16.253a1.99 1.99 0 0 0 1.135 2.575"/><path fill="#F1EFE4" d="M216.796 107.472a2.7 2.7 0 0 0-1.879.884 2.715 2.715 0 0 0 2.135 4.536 2.717 2.717 0 0 0 2.582-2.838 2.7 2.7 0 0 0-.885-1.879 2.7 2.7 0 0 0-1.953-.703"/><path fill="#F295FF" d="M282.362 126.29c-6.928-8.284-15.627-9.37-22.117-8.642l-1.872 3.815c1.259-.186 2.582.067 3.731.683a1.043 1.043 0 0 1-.834 1.901c-1.051-.431-2.308-.628-3.433-.822l-.304-.048-5.557 11.33c.192.046.381.121.559.234l15.191 8.813a1 1 0 0 1 .078.05c.697.479.968 1.365.69 2.256-.085.272-2.094 6.681-4.027 9.858-2.368 3.892-5.089 6.209-8.087 6.887a8.4 8.4 0 0 1-1.859.208c-1.954 0-3.971-.674-6.018-2.013-3.135-2.049-4.945-4.845-5.405-8.193l-3.157 6.435c-.209.427-.24.909-.086 1.359s.473.812.9 1.021l19.049 9.344c.88.432 1.949.067 2.381-.814l20.947-42.707a35 35 0 0 0-.77-.955m-21.528 5.896q-.915.467-1.739.468-.536 0-1.026-.199c-1.201-.487-1.636-1.677-1.682-1.812a.945.945 0 0 1 1.785-.617c.011.025.211.524.616.682.295.115.695.047 1.186-.205a.945.945 0 0 1 .86 1.683m8.493 2.687q-.915.467-1.739.468-.536 0-1.025-.199c-1.202-.487-1.636-1.677-1.682-1.811a.945.945 0 0 1 1.785-.618c.01.025.211.524.615.682.295.115.695.047 1.187-.204a.944.944 0 1 1 .859 1.682m8.376-3.976c-1.239.026-1.119-1.607-1.752-2.322-.338-.54-.905-1.026-1.384-1.406-.656-.525-.071-1.603.718-1.354 1.797.526 3.225 2.161 3.351 4.028a.994.994 0 0 1-.933 1.054"/><path fill="#000" d="M259.974 130.503c-.491.252-.891.32-1.186.205-.405-.158-.605-.657-.615-.682a.944.944 0 0 0-1.786.617c.046.135.481 1.325 1.683 1.812q.49.2 1.025.199.824 0 1.739-.468a.944.944 0 1 0-.86-1.683"/><path fill="#000" d="M268.468 133.191c-.492.251-.892.319-1.186.204-.405-.158-.606-.657-.616-.682a.944.944 0 0 0-1.785.618c.046.134.48 1.324 1.682 1.811q.49.2 1.025.199.824 0 1.74-.468a.946.946 0 0 0-.86-1.682"/><path fill="#DB00F8" d="M249.81 158.802c2.142 1.401 4.177 1.896 6.043 1.474 2.343-.53 4.555-2.481 6.575-5.799 1.375-2.261 2.982-6.79 3.71-9.084l-14.493-8.407c-.608.73-1.781 2.352-2.831 3.967l-2.718 5.542c-1.296 4.164-1.274 9.045 3.714 12.307m7.245-10.008c.943-1.478 1.491-2.025 2.174-2.167.383-.08.772-.005 1.095.213 1.295.873.36 2.548-.323 3.772-1.712 3.068-2.282 3.677-3.029 3.855a1.5 1.5 0 0 1-.337.041q-.434 0-.84-.274c-1.468-.991-.478-2.712 1.26-5.44m-5.854-3.921c.736-1.149 1.209-1.721 1.907-1.865.28-.057.71-.062 1.168.248 1.35.91.491 2.451-.077 3.472-1.724 3.097-2.307 3.67-3.036 3.844a1.5 1.5 0 0 1-.34.041q-.443 0-.857-.28c-1.474-.995-.516-2.727 1.235-5.46"/><path fill="#000" d="M249.966 150.333q.414.28.857.28.17 0 .34-.041c.729-.174 1.312-.747 3.036-3.844.568-1.02 1.427-2.562.077-3.472a1.5 1.5 0 0 0-1.168-.248c-.698.144-1.171.716-1.907 1.865-1.751 2.734-2.708 4.465-1.235 5.46"/><path fill="#000" d="M255.795 154.234q.406.273.84.274a1.4 1.4 0 0 0 .337-.041c.747-.178 1.317-.787 3.03-3.855.682-1.224 1.617-2.899.322-3.772a1.43 1.43 0 0 0-1.095-.213c-.683.142-1.231.689-2.174 2.167-1.738 2.728-2.728 4.449-1.26 5.44"/><path fill="#000" d="M275.285 125.815c-.789-.249-1.374.829-.718 1.354.479.38 1.046.866 1.384 1.406.633.715.513 2.348 1.752 2.322a.994.994 0 0 0 .933-1.054c-.126-1.867-1.554-3.502-3.351-4.028"/><path fill="#000" d="m294.508 100.014-19.05-9.343a5.17 5.17 0 0 0-3.979-.253 5.18 5.18 0 0 0-2.993 2.636l-31.625 64.477a5.18 5.18 0 0 0-.252 3.98 5.18 5.18 0 0 0 2.635 2.992l19.049 9.344a5.22 5.22 0 0 0 6.973-2.384l31.625-64.477a5.216 5.216 0 0 0-2.383-6.972m-34.704 70.752-19.049-9.344a1.76 1.76 0 0 1-.9-1.021 1.77 1.77 0 0 1 .086-1.359l3.157-6.435c.46 3.348 2.27 6.144 5.405 8.194 2.047 1.338 4.064 2.012 6.018 2.012q.94 0 1.859-.208c2.998-.678 5.719-2.995 8.087-6.887 1.933-3.177 3.942-9.586 4.027-9.858.278-.891.007-1.777-.69-2.256l-.077-.05-15.192-8.813a1.8 1.8 0 0 0-.559-.234l5.557-11.33.304.048c1.125.194 2.382.391 3.433.822a1.043 1.043 0 0 0 .835-1.9c-1.149-.617-2.473-.87-3.731-.684l1.871-3.815c6.491-.728 15.189.358 22.117 8.642q.389.465.77.955l-20.947 42.707a1.78 1.78 0 0 1-2.381.814m-10.99-29.813c1.049-1.615 2.223-3.237 2.831-3.967l14.493 8.407c-.728 2.294-2.335 6.823-3.71 9.084-2.02 3.318-4.232 5.269-6.575 5.799-1.866.422-3.901-.073-6.043-1.474-4.988-3.262-5.01-8.143-3.714-12.307z"/><path fill="#F295FF" d="M236.414 171.024c-2.892-1.4-5.13-3.888-6.141-6.824a10.64 10.64 0 0 1-.427-5.353 2.3 2.3 0 0 1-.317-.203 2.23 2.23 0 0 1-.369-3.122c2.089-2.724 4.137-5.53 5.55-8.351.684-1.376 1.125-2.874.989-3.724-.176-1.112-1.261-1.606-2.195-2.283-1.427-.876-2.961-1.584-4.463-1.795-.208-.03-.319.016-.59.157-1.723 1.159-2.785 3.357-3.887 5.326-.748 1.445-2.688 5.011-2.802 5.122-1.08 1.621-2.407 3.207-4.196 4.612-4.144 3.255-8.33 4.695-12.113 4.162-2.889-.407-5.408-1.994-7.282-4.591-2.931-4.06-5.86-8.552-8.692-12.896-5.373-8.24-10.875-16.674-16.383-22.11-.584-.402-1.382-.993-2.534-1.864-5.298-2.837-10.934-1.397-12.404-.941-.228.071-5.513 1.943-8.125 2.525-1.696.317-3.419.453-5.143.25a.945.945 0 0 1-.333-1.774c.327-.162.66-.31.993-.454 2.662-1.144 5.504-1.769 8.198-2.814 20.609-7.68 28.53-27.424 26.237-48.269-.381-2.492-.327-4.888.083-7.457.11-.849 1.368-1.048 1.732-.273 1.313 2.253 1.868 4.65 2.145 7.132 2.208-.486 4.494-.166 6.675.39 9.619 2.254 9.836 9.397 9.995 17.664.16 4.027.29 8.027.094 12.076 4.765-3.81 8.292-9.032 10.336-15.405 3.675-11.46 11.308-17.22 16.358-21.031 1.568-1.184 3.505-2.645 3.815-3.333-.063-.093-.218-.28-.568-.554-20.628-16.194-42.876-25.173-52.719-28.652.44 1.12.418 2.148-.804 2.516-1.163.053-2.213-.887-2.946-1.538-1.637-1.816-3.227-3.702-5.048-5.343-6.124-5.994-13.687-10.075-21.805-12.325a47 47 0 0 1-1.921 2.024c-1.241 1.216-3.283-.189-2.618-1.771.184-.403.388-.8.601-1.191a57 57 0 0 0-2.031-.371c.009.35-.006.702-.07 1.058-.109 1.302-1.899 1.798-2.673.773a6.1 6.1 0 0 1-1.217-2.336 59.2 59.2 0 0 0-13.373.26 74.2 74.2 0 0 0-14.438 3.26c-1.562.5-3.068 1.216-4.733 1.344-.679.11-1.224-.295-1.458-.832-5.94-.423-14.115-.904-24.954-1.345a6.3 6.3 0 0 1 1.375 1.597c.773.85 1.382 1.79 1.782 2.489.654 1.139 2.115 4.038 1.596 6.344l-2.043 8.604c1.199-.964 2.466-1.824 3.93-2.363a19 19 0 0 1 2.726-.796.93.93 0 0 1 .879 1.536c-2.175 2.822-5.09 4.66-7.689 7a49 49 0 0 0-6.764 7.693c-7.957 11.181-11.311 25.547-9.218 39.106a50.5 50.5 0 0 0 3.488 12.354c.724 2.009 2.035 3.706 2.609 5.725a7 7 0 0 1 .284 1.627c.038.775-.873 1.32-1.538.922-1.127-.663-3.168-3.072-3.335-3.23a4 4 0 0 0-1.387-.882c-1.477-.537-2.705.166-2.771.205l-1.23.732a42 42 0 0 1-1.241.864 6.22 6.22 0 0 1-4.718.814l-2.934-.662a6.2 6.2 0 0 1-3.911-2.76 6.22 6.22 0 0 1-.815-4.718l1.815-8.047c-4.304-2.77-7.83-5.872-8.908-9.02-.672-1.958-.446-3.897.654-5.606 2.07-3.22 4.158-4.37 6-5.387 2.032-1.12 3.95-2.178 6.355-6.411 1.072-1.887 2.949-6.74 4.648-12.367l3.338-14.8c-3.217 1.077-5.887 3.465-9.085 4.677a1.153 1.153 0 0 1-1.325-1.75c1.227-1.7 2.904-2.845 4.551-4.092 1.564-1.11 3.197-2.226 5.108-2.791a4 4 0 0 1 1.076-.148c.02-2.283-.277-4.149-1.014-5.326-.496-.79-1.127-1.08-2.178-1.017-3.772.246-8.293 3.66-12.28 6.67-2.753 2.08-5.353 4.043-7.726 5.032-15.61 6.511-28.77 18.383-32.75 29.54-8.398 23.553 14.095 46.508 28.267 58.11 5.95 3.518 10.252 4.817 11.018 4.343l.098.138a148 148 0 0 1 3.975-4.704 142 142 0 0 1 5.071-5.492c3.294-3.187 6.617-6.355 10.737-8.516a.907.907 0 0 1 1.143 1.35c-.102.134-.21.26-.313.392-3.605 4.628-7.905 8.426-11.78 12.781-4.015 4.365-7.728 9.004-11.175 13.831-26.629 37.586-37.672 92.321-15.544 134.42 5.775 10.224 13.245 19.659 22.247 27.197 9.028 7.601 19.82 12.785 31.224 15.672l3.04.711a90 90 0 0 0 14.405 1.912c2.346.14 4.696.219 7.051.284q.089-.377.244-.718c.344-.917 1.66-1.105 2.239-.313 1.309 1.569 1.341 4.244 1.665 6.118l.886 6.227 5.313 37.332c.267 1.256.046 2.572-.444 3.744-1.924 6.003-2.763 12.436-3.096 18.725-.096 2.297-.163 5.573.121 7.653.22.733 1.008 1.272 1.798 1.389l6.586-.081c-.607-4.347-.317-8.79 1.175-12.963.557-1.365 2.969-6.05 4.774-4.165.327.387.371.896.195 1.335-1.969 5.016-2.447 10.42-2.006 15.744 13.063-.153 25.859-.279 37.388-.349.587-.434.96-1.107.789-1.806.021-.038-2.651-45.707-2.638-45.749l-2.063-37.145c-.21-1.561-3.418-1.116-3.418-1.116l.074-.088c-.309.063-.621.117-.943.153a.917.917 0 0 1-.824-1.474c1.207-1.681 2.653-2.808 4.117-3.926 2.999-2.122 5.787-4.532 8.28-7.231 6.271-6.787 10.871-15.062 14.163-23.673 13.551-36.509-2.373-74.699-13.174-109.893-1.51-5.319-3.902-11.505-4.814-16.987-.034-.209-.482-2.636-.514-2.846-.273-1.914-.302-2.69.281-3.273.328-.328.613-.439 1.077-.417.329.015.677.426.801.709a53 53 0 0 1 1.435 3.711c2.073 5.903 3.271 12.049 5.29 18.002 3.035 9.653 6.337 19.231 9.331 28.898 7.708 5.506 16.224 7.353 25.453 5.496 14.896-3.001 26.226-9.239 33.452-13.67 4.12-2.527 7.94-3.473 11.317-4.298zM149.398 18.081a8.3 8.3 0 0 1 6.121 2.555c.686.694 1.34 1.853 1.232 2.8-.064.559-.391 1.044-1.136 1.317-1.148.374-2.093-.656-2.897-1.252a20 20 0 0 0-1.715-1.369c-.794-.577-1.611-1.13-2.379-1.695-.978-.71-.412-2.363.774-2.356m-10.195 21.62a1.594 1.594 0 0 1 2.04-.953c1.308.475 6.166 2.455 6.483 2.687l.01.009c.216.134.392.31.519.517.756.958.828 2.334.074 3.366a2.784 2.784 0 0 1-4.953-2.296c-1.198-.499-2.476-1.02-3.219-1.29a1.59 1.59 0 0 1-.954-2.04m-17.094-21.277c1.971-1.816 5.069-1.543 7.392-.738a1.723 1.723 0 0 1-.973 3.297c-1.554-.45-3.151-.747-4.773-.692-.206-.017-.483-.006-.624-.073l-.802-.382c-.545-.246-.661-1.013-.22-1.412m-1.76 13.22a1.593 1.593 0 0 1 2.039-.954c1.309.474 6.161 2.45 6.483 2.687q.005.003.009.008c.217.134.394.31.521.519a2.78 2.78 0 0 1 .073 3.364 2.783 2.783 0 0 1-3.891.602 2.76 2.76 0 0 1-1.107-1.82c-.057-.365-.04-.73.044-1.078-1.197-.499-2.475-1.02-3.217-1.29a1.59 1.59 0 0 1-.954-2.039m18.253 65.838a48 48 0 0 1-4.267-2.122c-6.078 2.09-12.4 3.335-18.767 3.26-16.398-.969-34.34-7.356-38.28-24.96a31 31 0 0 1-.3-1.48c-.677-3.194-.6-6.687-.884-9.695a3.6 3.6 0 0 0-.737-.193c-.433-.078-.909-.09-1.451-.114-.703.043-1.341-.514-1.297-1.238.016-.361.199-.68.465-.884 1.582-1.16 4.03-1.388 5.61.023.88.89.954 2.152 1.015 3.317.018.34.034.671.07.982.271 14.125 7.322 22.115 17.54 26.347-9.229-7.19-11.734-19.063-6.79-33.662 1.787-5.277 8.184-16.123 10.447-19.008 1.192-1.52 3.049-2.047 4.642-1.334l40.948 16.25q.07.026.137.06c1.495.728 2.254 2.407 1.888 4.179-1.092 5.284-3.954 16.865-6.974 22.874-2.455 4.885-6.145 9.16-10.419 12.176 9.994-3.024 19.794-8.588 26.921-14.747 1.758-1.573 3.376-3.297 4.558-5.137.227-.4.683-.702 1.076-.815 1.702-.59 3.209.89 3.144 2.52.022.33-.012.51-.004.798-.04 2.486-.17 4.978-.488 7.442-.348 2.691-.923 5.35-1.877 7.93-1.802 5.043-4.907 8.158-8.701 9.605-4.327 1.651-9.55 1.131-14.757-1.177a27 27 0 0 1-2.468-1.198"/><path fill="#000" d="M309.359 102.339c-1.058-2.958-3.358-5.43-6.312-6.781l-26.261-12.015c-4.734-2.167-10.132-.428-12.288 3.956l-25.273 51.366c-2.291-1.439-4.684-2.668-6.824-3.226a14 14 0 0 0-2.547-.655c-5.023-.551-7.61 4.928-9.495 9.45-1.296 2.518-2.736 5.047-5.25 7.022-3.226 2.533-6.454 3.724-9.101 3.351-1.816-.256-3.367-1.258-4.61-2.98-2.876-3.983-5.778-8.434-8.585-12.74l-1.523-2.332-.033-.051c-7.697-11.77-15.075-22.515-23.356-26.163l-.13-.055c1.653-1.319 4.332-3.942 4.332-3.942s.535-.678 1.834-.781c2.014.345 4.086.52 6.176.52 3.655 0 7.362-.534 10.91-1.571.206.226.424.442.673.635 1.396 1.142 3.55 1.243 5.114.434 2.03-1.097 2.883-3.062 3.319-5.145 6.947-4.379 11.997-11.038 14.706-19.483 3.29-10.258 10.316-15.561 14.966-19.07 3.134-2.366 5.399-4.075 5.422-6.504.013-1.337-.699-2.579-2.115-3.69-28.009-21.99-58.967-30.972-59.276-31.06-.047-.014-.093-.016-.14-.026-6.591-6.994-14.557-11.85-23.26-14.57 1.32-1.448 2.978-3.186 4.165-4.626.607-.645-.031-1.746-.9-1.523-3.017.817-5.654 2.628-7.725 4.96a58 58 0 0 0-4.461-.821c.284-.942.776-1.848 1.216-2.76.099-.227.179-.47.116-.728-.522-1.653-2.924-.107-3.754.658-.728.655-1.247 1.49-1.566 2.402a63.3 63.3 0 0 0-13.992.535 78 78 0 0 0-15.11 3.664 52 52 0 0 1-.628.23c-9.884-.796-28.537-1.92-59.99-2.568-1.629-.035-3.44.107-4.483 1.406-1.115 1.388-.704 3.087-.228 5.054.656 2.714 1.618 6.707.04 12.604-2.268 1.708-4.395 3.257-6.117 3.976C20.433 35.612 6.38 48.422 2.048 60.572c-5.41 15.173-.054 32.25 15.491 49.385 9.27 10.217 19.404 17.509 23.304 20.154-.42.572-.857 1.131-1.27 1.708-27.622 38.942-38.934 95.1-15.858 138.71 6.104 10.622 13.87 20.393 23.332 28.247a78.4 78.4 0 0 0 10.275 7.171l11.951 56.607a3.6 3.6 0 0 1-.254 2.278c-1.906 4.124-6.35 14.896-6.475 25.847-.018 1.638.5 3.2 1.464 4.505l-1.76.025c-3.145.038-6.29.138-9.432.766a.886.886 0 0 0 .013 1.741c3.15.608 6.296.687 9.442.703 38.171.335 84.471.587 122.684.55 5.504-.099 13.523.42 18.874-.757 2.042-.417 1.968-3.329-.001-3.735-5.366-1.147-13.429-.566-18.878-.631l-17.88.139c.177-.73.224-1.495.123-2.235l.016.165-2.714-45.703-2.576-41.879c.754-.601 1.494-1.222 2.236-1.826 6.974-5.99 12.322-13.622 16.347-21.862 2.481 4.377 10.234 15.187 26.274 15.187q.362 0 .73-.007c3.702-.075 6.552-4.122 6.794-7.708.236-3.502-1.897-6.122-5.434-6.674-3.47-.541-6.653-1.637-8.355-2.61a13 13 0 0 0 1.425-1.334c2.969-3.255 4.114-8.101 2.919-12.344-.913-3.24-4.373-7.671-9.221-9.873-2.449-1.112-4.931-1.481-7.33-1.138 1.087-8.874.9-17.921-.237-26.745-1.372-10.886-3.947-21.428-7.001-31.832 5.357 2.946 11.061 4.46 17.023 4.46q3.69.001 7.499-.766c15.517-3.126 27.262-9.588 34.746-14.178 3.629-2.225 7.009-3.05 10.278-3.848 1.457-.355 2.931-.717 4.418-1.2l7.181 3.476a10.4 10.4 0 0 0 4.537 1.05c3.551-.001 6.891-1.856 8.47-5.085l33.741-68.994c1.234-2.523 1.375-5.415.4-8.143m-127.93-.097c-2.765.031-4.2-2.198-4.2-2.198s4.459-8.656 5.717-14.17c1.764.189 3.662.044 5.408-.457.273 3.422.341 7.739.498 10.747.055 1.337.065 3.147.44 4.888a35.7 35.7 0 0 1-7.863 1.19m15.415-5.764c-.143 1.763-.345 4.074-1.195 5.454-1.751 1.998-2.743-1.134-2.864-2.75-.381-4.9-.289-10.518-.831-15.55.78-.62 1.431-1.363 1.882-2.242.514-1.054-.698-2.162-1.719-1.58-2.578 1.053-5.591 2.317-8.434 2.112q.264-1.842.393-3.732c.245-2.92.273-5.845.152-8.756 1.237-.433 2.631-.397 3.916-.145 2.249.373 4.926 1.206 6.265 2.72 2.465 2.838 2.02 7.627 2.323 11.43.11 2.204.193 4.388.231 6.571.032 2.178.026 4.354-.119 6.468M70.317 12.785a2.26 2.26 0 0 1 1.716-.296l2.934.661a2.28 2.28 0 0 1 1.718 2.72l-5.43 24.08c-8.99 12.404-12.662 28.587-9.84 43.624L58.774 95.29a2.28 2.28 0 0 1-2.719 1.718l-2.934-.662a2.277 2.277 0 0 1-1.719-2.72l17.913-79.419a2.26 2.26 0 0 1 1.003-1.422M50.27 80.553c-3.132-2.122-5.428-4.253-6.081-6.16-.278-.81-.204-1.476.237-2.162 1.526-2.373 2.871-3.115 4.575-4.055 1.407-.775 2.928-1.619 4.569-3.329l.216.115zM61.457 30.95a2 2 0 0 1-.43-.146c.149.063.292.104.432.137zM47.722 9.635c7.153.147 13.649.32 19.533.51a6.2 6.2 0 0 0-1.824 3.187l-1.388 6.154c-1.284-1.986-3.27-2.956-5.75-2.792-3.538.232-7.108 2.23-10.474 4.571.483-4.519-.314-7.829-.859-10.084-.122-.506-.265-1.096-.334-1.514a9 9 0 0 1 1.096-.032m63.898 354.759c-.295 1.049-.949 2.68-1.18 3.799a85 85 0 0 0-2.632 22.837l.056 1.449c-.02.651.077 1.281.269 1.875H79.841c-.4-5.232.096-10.534 2.03-15.462.538-1.197-.976-2.357-1.986-1.489-4.332 3.91-4.907 11.133-4.186 16.951h-5.304c-.868 0-1.74-.233-2.43-.758-.936-.71-1.453-1.759-1.44-2.873.114-10.181 4.309-20.331 6.107-24.222a7.57 7.57 0 0 0 .535-4.77L62.09 309.262c3.149 2.112 11.83 6.485 33.482 10.499 1.892.35 3.5.57 4.792.747 2.869.392 4.293.621 5.182 1.468.246.234.387.551.434.888.67 4.881 1.733 12.576 2.168 15.789.03.164 3.41 24.94 3.452 25.088q.069.323.02.653m96.632-79.018c1.034.161 2.204.588 2.077 2.474-.129 1.916-1.622 3.97-2.904 3.996-9.42.196-15.574-3.73-19.314-7.551 2.648-.463 6.47-1.408 8.784-3.223 3.242 2.953 10.419 4.157 11.357 4.304m-15.761-20.167c-1.505-1.267-4.021-1.95-6.022-.962a85 85 0 0 0 1.218-5.907c2.014-.603 4.126-.422 6.301.565 3.521 1.6 6.393 5.05 7.036 7.33.681 2.417.318 6.009-2.028 8.582-2.551 2.797-6.787 3.742-12.251 2.733a54 54 0 0 1-3.912-.869 2 2 0 0 0-.387-.299c.412-.968.813-1.941 1.192-2.92a78 78 0 0 0 1.619-4.787c1.369.385 2.877.742 4.556 1.056q.642.118 1.152.116c1.519 0 2.213-.712 2.529-1.38.192-.405.686-1.835-1.003-3.258m45.762-83.519c-7.225 4.431-18.555 10.669-33.451 13.67-9.229 1.857-17.746.011-25.453-5.496-2.994-9.667-6.296-19.245-9.331-28.897-2.019-5.953-3.217-12.099-5.29-18.003-.438-1.248-.927-2.856-1.436-3.711-.113-.19-.471-.694-.8-.709-.464-.022-.888.202-1.078.417-.429.488-.633 1.131-.28 3.273.034.209.479 2.637.514 2.846.912 5.482 3.304 11.668 4.813 16.988 10.801 35.193 26.725 73.383 13.175 109.892-3.293 8.612-7.893 16.886-14.163 23.673-2.494 2.699-5.281 5.109-8.28 7.231-1.464 1.118-2.91 2.246-4.117 3.927a.917.917 0 0 0 .824 1.473c.322-.036.634-.09.942-.153l-.073.088s3.208-.445 3.418 1.116l2.063 37.146c-.014.041 2.659 45.71 2.638 45.748.171.699-.202 1.372-.789 1.806-11.529.07-24.325.196-37.388.349-.441-5.324.037-10.728 2.006-15.744.175-.439.132-.948-.195-1.335-1.805-1.885-4.217 2.801-4.775 4.166-1.491 4.172-1.781 8.615-1.174 12.962l-6.587.081c-.789-.117-1.577-.655-1.797-1.389-.284-2.08-.217-5.355-.121-7.652.333-6.29 1.172-12.723 3.096-18.725.49-1.173.711-2.489.444-3.744l-5.313-37.333-.887-6.226c-.323-1.875-.355-4.549-1.665-6.118-.578-.793-1.895-.604-2.238.313a4 4 0 0 0-.245.717 221 221 0 0 1-7.05-.284 90 90 0 0 1-14.404-1.912l-3.042-.711c-11.404-2.887-22.196-8.071-31.223-15.672-9.002-7.538-16.472-16.973-22.247-27.197-22.128-42.098-11.085-96.833 15.543-134.42 3.447-4.827 7.16-9.465 11.177-13.83 3.874-4.356 8.174-8.154 11.778-12.781.104-.133.212-.259.314-.393a.906.906 0 0 0-1.144-1.35c-4.12 2.162-7.442 5.33-10.736 8.517a142 142 0 0 0-5.071 5.491 148 148 0 0 0-3.975 4.704l-.098-.138c-.766.474-5.069-.825-11.018-4.343C19.892 108.417-2.602 85.462 5.797 61.909c3.979-11.158 17.14-23.03 32.75-29.54 2.373-.99 4.973-2.953 7.726-5.032 3.987-3.011 8.508-6.424 12.28-6.671 1.051-.064 1.682.226 2.178 1.017.737 1.177 1.034 3.043 1.013 5.326a4 4 0 0 0-1.075.148c-1.911.565-3.544 1.68-5.108 2.79-1.647 1.248-3.324 2.393-4.55 4.093a1.153 1.153 0 0 0 1.324 1.75c3.198-1.212 5.868-3.6 9.085-4.676l-3.338 14.8c-1.7 5.627-3.576 10.479-4.648 12.366-2.405 4.233-4.323 5.291-6.355 6.411-1.842 1.016-3.93 2.168-6 5.387-1.1 1.71-1.326 3.648-.655 5.607 1.08 3.148 4.605 6.25 8.91 9.02l-1.816 8.046a6.22 6.22 0 0 0 .814 4.718 6.2 6.2 0 0 0 3.911 2.76l2.935.662q.695.156 1.388.155a6.2 6.2 0 0 0 3.33-.969c.176-.112 1-.685 1.24-.864l1.23-.731c.067-.04 1.295-.742 2.772-.206.448.163.918.436 1.387.882.167.158 2.208 2.567 3.335 3.23.664.398 1.576-.147 1.537-.922a7 7 0 0 0-.284-1.627c-.573-2.019-1.884-3.716-2.608-5.725a50.5 50.5 0 0 1-3.488-12.354c-2.093-13.558 1.26-27.925 9.218-39.106a49 49 0 0 1 6.764-7.692c2.6-2.34 5.514-4.178 7.688-7.001a.94.94 0 0 0 .22-.816.93.93 0 0 0-1.098-.72c-.933.194-1.842.467-2.726.796-1.464.54-2.732 1.4-3.93 2.363l2.042-8.604c.52-2.306-.942-5.205-1.595-6.344-.4-.699-1.009-1.64-1.782-2.489a6.3 6.3 0 0 0-1.375-1.597c10.84.44 19.014.922 24.953 1.345.235.537.78.941 1.459.832 1.665-.128 3.171-.844 4.733-1.344a74.2 74.2 0 0 1 14.438-3.26 59.2 59.2 0 0 1 13.373-.26 6.1 6.1 0 0 0 1.217 2.336c.774 1.025 2.564.529 2.673-.772a5.2 5.2 0 0 0 .07-1.059q1.02.166 2.031.37a19 19 0 0 0-.601 1.192c-.665 1.582 1.377 2.987 2.618 1.77a48 48 0 0 0 1.921-2.023c8.117 2.25 15.68 6.332 21.804 12.325 1.822 1.642 3.412 3.528 5.048 5.343.734.651 1.784 1.591 2.947 1.539 1.222-.369 1.244-1.396.803-2.517 9.844 3.48 32.092 12.458 52.72 28.652.35.274.504.461.568.554-.31.688-2.247 2.15-3.815 3.333-5.051 3.812-12.683 9.572-16.358 21.032-2.044 6.373-5.571 11.594-10.336 15.405.196-4.05.066-8.05-.094-12.077-.159-8.267-.376-15.41-9.995-17.663-2.182-.556-4.467-.877-6.675-.391-.277-2.482-.832-4.879-2.146-7.132-.363-.775-1.621-.576-1.731.274-.41 2.569-.464 4.965-.083 7.457 2.293 20.844-5.628 40.588-26.237 48.269-2.694 1.044-5.536 1.669-8.198 2.814a20 20 0 0 0-.993.453.946.946 0 0 0 .332 1.774c1.725.203 3.448.068 5.144-.25 2.612-.582 7.896-2.454 8.125-2.525 1.469-.456 7.105-1.895 12.404.941 1.151.871 1.949 1.463 2.534 1.864 5.508 5.436 11.01 13.87 16.382 22.11 2.833 4.344 5.762 8.836 8.693 12.896 1.874 2.597 4.392 4.184 7.281 4.591 3.784.534 7.969-.907 12.114-4.162 1.789-1.404 3.116-2.991 4.195-4.611.115-.111 2.054-3.678 2.802-5.123 1.103-1.969 2.164-4.167 3.888-5.326.271-.141.381-.187.59-.157 1.501.211 3.035.92 4.462 1.795.935.677 2.019 1.172 2.195 2.283.136.85-.304 2.348-.988 3.725-1.413 2.82-3.461 5.626-5.55 8.35a2.227 2.227 0 0 0 .369 3.122c.1.08.208.143.317.203a10.63 10.63 0 0 0 .427 5.353c1.01 2.937 3.248 5.424 6.14 6.824l13.157 6.369c-3.376.825-7.196 1.77-11.317 4.297m67.564-72.745-33.742 68.995c-1.408 2.88-5.15 3.966-8.34 2.422l-25.797-12.487c-2.059-.997-3.647-2.751-4.356-4.813-.627-1.823-.525-3.737.287-5.389l1.344-2.73c2.274-3.037 4.688-6.708 5.028-10.22l27.396-55.679c.919-1.869 2.847-2.929 4.95-2.929a6.6 6.6 0 0 1 2.744.61l26.261 12.015c2.1.96 3.731 2.702 4.473 4.777.655 1.833.567 3.76-.248 5.428"/><path fill="#F295FF" d="M181.428 102.242a35.7 35.7 0 0 0 7.864-1.19c-.376-1.742-.385-3.55-.44-4.888-.157-3.008-.225-7.325-.498-10.747a14.4 14.4 0 0 1-5.408.457c-1.258 5.514-5.717 14.17-5.717 14.17s1.435 2.229 4.199 2.198"/><path fill="#000" d="m128.88 33.385-.009-.008c-.322-.236-5.174-2.212-6.483-2.687a1.593 1.593 0 0 0-1.085 2.993c.742.27 2.02.79 3.217 1.289a2.8 2.8 0 0 0-.044 1.078 2.76 2.76 0 0 0 1.107 1.82 2.783 2.783 0 0 0 3.891-.602 2.78 2.78 0 0 0-.073-3.365 1.6 1.6 0 0 0-.521-.518"/><path fill="#000" d="M148.255 41.961a1.6 1.6 0 0 0-.519-.517l-.01-.009c-.317-.232-5.175-2.212-6.483-2.687a1.592 1.592 0 1 0-1.086 2.993c.743.27 2.021.791 3.219 1.29a2.79 2.79 0 0 0 1.061 2.898 2.784 2.784 0 0 0 3.892-.602 2.78 2.78 0 0 0-.074-3.366"/></svg>