<svg xmlns="http://www.w3.org/2000/svg" width="61" height="61" fill="none" viewBox="0 0 61 61"><path fill="url(#a)" d="M61 30.5C61 47.345 47.345 61 30.5 61S0 47.345 0 30.5 13.655 0 30.5 0 61 13.655 61 30.5"/><path fill="url(#b)" d="M61 30.5C61 47.345 47.345 61 30.5 61S0 47.345 0 30.5 13.655 0 30.5 0 61 13.655 61 30.5"/><path fill="url(#c)" d="M21.057 31.295c1.62 0 2.933-1.987 2.933-4.438s-1.313-4.438-2.933-4.438-2.933 1.987-2.933 4.438 1.313 4.438 2.933 4.438"/><path fill="#1C1C1C" d="M21.057 23.924c1.257 0 2.362 1.104 2.933 2.724-.038-2.4-1.333-4.324-2.933-4.324s-2.895 1.923-2.933 4.323c.571-1.619 1.657-2.723 2.933-2.723"/><path fill="url(#d)" d="M40.943 31.295c1.62 0 2.933-1.987 2.933-4.438s-1.313-4.438-2.933-4.438-2.933 1.987-2.933 4.438 1.313 4.438 2.933 4.438"/><path fill="#1C1C1C" d="M40.943 24.038c-1.257 0-2.362 1.105-2.933 2.724.038-2.4 1.333-4.324 2.933-4.324s2.895 1.924 2.933 4.324c-.571-1.619-1.657-2.724-2.933-2.724"/><path fill="url(#e)" d="M43.838 43.295H18.162c-.78 0-1.428-.647-1.428-1.428s.647-1.429 1.428-1.429h25.676a1.44 1.44 0 0 1 1.429 1.429 1.44 1.44 0 0 1-1.429 1.428"/><path fill="#1C1C1C" d="M18.029 41.2H43.99a1.44 1.44 0 0 1 1.276.781v-.114a1.44 1.44 0 0 0-1.429-1.429H18.162a1.44 1.44 0 0 0-1.428 1.429v.114c.247-.476.723-.78 1.295-.78"/><defs><radialGradient id="b" cx="0" cy="0" r="1" gradientTransform="rotate(90 0 30.5)scale(30.5)" gradientUnits="userSpaceOnUse"><stop stop-color="#757575" stop-opacity="0"/><stop offset=".9" stop-color="#757575" stop-opacity=".25"/><stop offset=".94" stop-color="#757575" stop-opacity=".5"/><stop offset="1" stop-color="#757575" stop-opacity=".7"/></radialGradient><radialGradient id="c" cx="0" cy="0" r="1" gradientTransform="matrix(10.1385 0 0 1.82392 31 41.859)" gradientUnits="userSpaceOnUse"><stop offset=".001" stop-color="#686868"/><stop offset="1" stop-color="#404040"/></radialGradient><radialGradient id="d" cx="0" cy="0" r="1" gradientTransform="matrix(10.1385 0 0 1.82392 31 41.859)" gradientUnits="userSpaceOnUse"><stop offset=".001" stop-color="#686868"/><stop offset="1" stop-color="#404040"/></radialGradient><radialGradient id="e" cx="0" cy="0" r="1" gradientTransform="matrix(10.1385 0 0 1.82392 31 41.859)" gradientUnits="userSpaceOnUse"><stop offset=".001" stop-color="#686868"/><stop offset="1" stop-color="#404040"/></radialGradient><linearGradient id="a" x1="30.5" x2="30.5" y1="0" y2="61" gradientUnits="userSpaceOnUse"><stop stop-color="#fff"/><stop offset="1" stop-color="#C5C5C5"/></linearGradient></defs></svg>