<svg xmlns="http://www.w3.org/2000/svg" width="61" height="61" fill="none" viewBox="0 0 61 61"><path fill="url(#a)" d="M30.5 61C47.345 61 61 47.345 61 30.5S47.345 0 30.5 0 0 13.655 0 30.5 13.655 61 30.5 61"/><path fill="url(#b)" d="M30.5 61C47.345 61 61 47.345 61 30.5S47.345 0 30.5 0 0 13.655 0 30.5 13.655 61 30.5 61"/><path fill="url(#c)" d="M20.55 31.796c1.62 0 2.935-1.988 2.935-4.441 0-2.454-1.315-4.442-2.936-4.442s-2.936 1.988-2.936 4.442c0 2.453 1.315 4.441 2.936 4.441"/><path fill="url(#d)" d="M20.55 24.419c1.257 0 2.363 1.105 2.935 2.726-.038-2.402-1.335-4.327-2.936-4.327s-2.897 1.925-2.936 4.327c.572-1.62 1.659-2.726 2.936-2.726"/><path fill="url(#e)" d="M40.45 31.796c1.622 0 2.936-1.988 2.936-4.441 0-2.454-1.314-4.442-2.935-4.442-1.622 0-2.936 1.988-2.936 4.442 0 2.453 1.314 4.441 2.936 4.441"/><path fill="url(#f)" d="M40.45 24.534c-1.257 0-2.363 1.105-2.935 2.726.038-2.402 1.334-4.328 2.936-4.328s2.897 1.926 2.935 4.328c-.572-1.62-1.658-2.726-2.935-2.726"/><path fill="url(#g)" d="M43.348 43.806H17.652a1.44 1.44 0 0 1-1.43-1.43c0-.781.649-1.43 1.43-1.43h25.696c.782 0 1.43.649 1.43 1.43a1.44 1.44 0 0 1-1.43 1.43"/><path fill="url(#h)" d="M17.519 41.709H43.5a1.44 1.44 0 0 1 1.277.781v-.114a1.44 1.44 0 0 0-1.43-1.43H17.652a1.44 1.44 0 0 0-1.43 1.43v.114a1.44 1.44 0 0 1 1.297-.781"/><defs><radialGradient id="a" cx="0" cy="0" r="1" gradientTransform="translate(24.499 18.14)scale(36.7943)" gradientUnits="userSpaceOnUse"><stop stop-color="#FFE030"/><stop offset="1" stop-color="#FFB92E"/></radialGradient><radialGradient id="b" cx="0" cy="0" r="1" gradientTransform="translate(24.499 18.14)scale(28.9477)" gradientUnits="userSpaceOnUse"><stop stop-color="#FFEA5F"/><stop offset="1" stop-color="#FFBC47" stop-opacity="0"/></radialGradient><radialGradient id="c" cx="0" cy="0" r="1" gradientTransform="matrix(1.1984 4.13944 -2.67816 .77535 19.65 27.472)" gradientUnits="userSpaceOnUse"><stop offset=".001" stop-color="#7A4400"/><stop offset="1" stop-color="#643800"/></radialGradient><radialGradient id="e" cx="0" cy="0" r="1" gradientTransform="rotate(73.854 1.507 40.06)scale(4.30943 2.78814)" gradientUnits="userSpaceOnUse"><stop offset=".001" stop-color="#7A4400"/><stop offset="1" stop-color="#643800"/></radialGradient><radialGradient id="g" cx="0" cy="0" r="1" gradientTransform="matrix(10.1464 0 0 1.82534 30.5 42.368)" gradientUnits="userSpaceOnUse"><stop offset=".001" stop-color="#7A4400"/><stop offset="1" stop-color="#643800"/></radialGradient><linearGradient id="d" x1="20.542" x2="20.542" y1="22.896" y2="27.035" gradientUnits="userSpaceOnUse"><stop offset=".001" stop-color="#3C2200"/><stop offset="1" stop-color="#512D00"/></linearGradient><linearGradient id="f" x1="40.458" x2="40.458" y1="23.005" y2="27.144" gradientUnits="userSpaceOnUse"><stop offset=".001" stop-color="#3C2200"/><stop offset="1" stop-color="#512D00"/></linearGradient><linearGradient id="h" x1="16.222" x2="44.778" y1="41.708" y2="41.708" gradientUnits="userSpaceOnUse"><stop offset=".001" stop-color="#3C2200"/><stop offset="1" stop-color="#512D00"/></linearGradient></defs></svg>