<svg
  xmlns="http://www.w3.org/2000/svg"
  width="1080"
  height="1080"
  fill="none"
  viewBox="0 0 1080 1080"
>
  <path
    fill="#6DB5C3"
    d="M104.656 543.751c-3.645 10.522-7.806 24.772-8.009 27.885l14.516 49.512 7.562-26.314z"
  />
  <path
    fill="#6DB5C3"
    d="M147.92 368.187c-10.091-23.208-8.87-26.908-8.276-28.69.671-2.015 1.84-3.967 3.194-6.227q.373-.62.759-1.273c-1.784-2.193-6.164-8.76-7.08-21.074l-5.51-18.813c-.728-2.01.593-4.381 2.962-5.239 1.124-.408 2.321-.421 3.371-.034.486.178.904.442 1.264.757.913-4.045 2.146-8.402 3.752-13.08-1.234-.662-2.489-.837-3.69-.837-.663 0-1.309.051-1.926.101-14.298 1.143-34.915 11.659-43.29 26.658-3.037 5.437-2.411 18.091 3.894 29.056 2.968 5.164 9.658 13.857 21.107 14.061 9.361.168 16.31 12.031 22.303 26.937a357 357 0 0 1 7.166-2.303m-31.982-35.881c-.56.969-1.488 1.726-2.612 2.133a5.2 5.2 0 0 1-1.752.311c-1.757 0-3.334-.935-3.895-2.485l-7.466-25.49c-.354-.974-.235-2.094.351-3.106.56-.969 1.487-1.726 2.611-2.133 2.368-.859 4.902.119 5.647 2.174l7.466 25.49c.354.975.235 2.094-.35 3.106m12.798-6.012a5.2 5.2 0 0 1-1.762.313 4.7 4.7 0 0 1-1.609-.28c-1.098-.403-1.906-1.188-2.276-2.208l-7.466-25.489c-.729-2.011.593-4.381 2.962-5.24 1.124-.406 2.321-.419 3.371-.034 1.098.404 1.906 1.188 2.276 2.208l7.466 25.489c.729 2.011-.593 4.382-2.962 5.241"
  />
  <path
    fill="#000"
    d="M124.232 295.564c-.37-1.02-1.178-1.804-2.276-2.208-1.049-.385-2.247-.372-3.371.034-2.369.859-3.691 3.229-2.962 5.24l7.466 25.489c.37 1.02 1.178 1.805 2.276 2.208.51.187 1.055.28 1.609.28a5.2 5.2 0 0 0 1.762-.313c2.369-.859 3.691-3.23 2.962-5.241z"
  />
  <path
    fill="#000"
    d="M108.822 303.71c-.745-2.055-3.279-3.033-5.647-2.174-1.124.407-2.051 1.164-2.611 2.133-.586 1.012-.705 2.131-.351 3.106l7.466 25.49c.562 1.55 2.138 2.485 3.895 2.485.575 0 1.169-.1 1.752-.311 1.124-.407 2.052-1.164 2.612-2.133.585-1.012.704-2.131.35-3.106z"
  />
  <path
    fill="#6DB5C3"
    d="M162.177 329.089a3.4 3.4 0 0 1 2.577 3.073l2.06 30.75a275 275 0 0 1 9.199-2.096l-4.467-31.254a3.4 3.4 0 0 1 1.6-3.387c.064-.04 8.425-5.416 13.491-20.33 4.404-12.964 2.871-33.49-5.774-41.552-2.418-2.256-5.211-3.381-8.439-3.381-2.345 0-4.918.594-7.744 1.779-9.96 4.177-19.919 18.488-18.248 40.037 1.08 13.917 7.26 24.264 15.745 26.361"
  />
  <path
    fill="#DCEDF1"
    d="m173.657 500.702-15.019-53.062a10.6 10.6 0 0 1-.019-5.724 3.4 3.4 0 0 1-1.871-2.268l-3.111-12.792a3.4 3.4 0 0 1 1.615-3.755c.148-.084.907-.516 2.153-1.186l-2.212-9.096a3.4 3.4 0 0 1 1.888-3.895c.685-.314 16.999-7.731 36.261-12.145a320 320 0 0 1 12.89-2.681c.174-.513.351-1.024.551-1.525a1817 1817 0 0 1-5.09-28.853c-6.007.544-20.57 2.282-39.57 7.423-17.06 4.616-30.436 9.692-35.817 11.838 11.747 55.712 26.487 100.623 34.031 121.942 4.23-1.388 8.67-2.799 13.32-4.221"
  />
  <path
    fill="#6DB5C3"
    d="M763.283 697.92a186 186 0 0 0-4.426-1.139 11.67 11.67 0 0 1-7.328-5.403 11.68 11.68 0 0 1-1.271-9.021l6.953-26.418a11.72 11.72 0 0 1 6.161-7.571 11.7 11.7 0 0 1 11.014-3.075c4.13.979 8.636 2.217 13.392 3.678a383 383 0 0 1 12.593 4.096 11.68 11.68 0 0 1 6.757 6.003 11.7 11.7 0 0 1 .503 9.024l-9.018 25.62a11.73 11.73 0 0 1-5.885 6.658 11.7 11.7 0 0 1-11.783 2.863c-2.83-.885-6.447-2.006-10.847-3.354a261 261 0 0 0-4.034 6.758c31.676 10.173 59.378 20.604 71.555 25.307a2.73 2.73 0 0 0 3.483-1.452l26.109-59.143a2.7 2.7 0 0 0 0-2.207 2.72 2.72 0 0 0-1.645-1.5c-44.6-15.009-88.992-27.588-106.007-32.3a2.727 2.727 0 0 0-3.335 1.821l-18.253 57.97a2.73 2.73 0 0 0 .198 2.122c.347.649.926 1.12 1.631 1.325a966 966 0 0 1 19.59 5.936 269 269 0 0 1 3.893-6.598m71.547 1.786c.198.411.224.875.072 1.305l-1.295 3.679a1.69 1.69 0 0 1-1.599 1.138c-.169 0-3.25-.899-3.684-1.005a1.7 1.7 0 0 1-1.06-.782 1.7 1.7 0 0 1-.183-1.305l.998-3.793a1.69 1.69 0 0 1 2.041-1.222c.492.117 3.259.954 3.732 1.116.432.149.78.458.978.869m-11.236-16.98.998-3.794a1.697 1.697 0 0 1 2.04-1.222c.494.117 3.26.954 3.734 1.118.43.147.777.456.976.866.199.412.225.876.073 1.307l-1.295 3.678a1.69 1.69 0 0 1-1.6 1.139c-.169 0-3.249-.9-3.683-1.006a1.7 1.7 0 0 1-1.059-.78 1.7 1.7 0 0 1-.184-1.306m-13.669 7.842c.494.117 3.26.954 3.733 1.118.433.149.78.457.978.868.198.412.224.876.072 1.305l-1.295 3.679a1.7 1.7 0 0 1-1.6 1.139c-.169 0-3.249-.901-3.683-1.006a1.7 1.7 0 0 1-1.059-.781 1.7 1.7 0 0 1-.184-1.305l.999-3.793a1.697 1.697 0 0 1 2.039-1.224"
  />
  <path
    fill="#DCEDF1"
    d="m792.198 691.456 9.019-25.619a4.93 4.93 0 0 0-.212-3.809 4.93 4.93 0 0 0-2.853-2.533c-3.909-1.35-21.349-6.64-25.337-7.586a5 5 0 0 0-1.178-.14 4.93 4.93 0 0 0-4.782 3.703l-6.953 26.418a4.93 4.93 0 0 0 .534 3.808 4.92 4.92 0 0 0 3.092 2.278c3.717.903 19.631 5.67 22.512 6.571 2.56.8 5.266-.557 6.158-3.091"
  />
  <path
    fill="#000"
    d="M806.887 695.585c-.118.446-.052.91.184 1.305.235.395.612.672 1.059.781.434.105 3.514 1.006 3.683 1.006a1.7 1.7 0 0 0 1.6-1.139l1.295-3.679a1.7 1.7 0 0 0-.072-1.305 1.7 1.7 0 0 0-.978-.868c-.473-.164-3.239-1.001-3.733-1.118a1.697 1.697 0 0 0-2.039 1.224z"
  />
  <path
    fill="#000"
    d="M824.837 684.812c.434.106 3.514 1.006 3.683 1.006.703 0 1.354-.438 1.6-1.139l1.295-3.678a1.7 1.7 0 0 0-.073-1.307 1.7 1.7 0 0 0-.977-.866c-.473-.164-3.239-1.001-3.733-1.118a1.697 1.697 0 0 0-2.04 1.221l-.998 3.795c-.118.447-.052.91.184 1.306.236.395.612.672 1.059.78"
  />
  <path
    fill="#000"
    d="m828.079 698.943-.998 3.793c-.118.446-.053.909.183 1.305.235.395.612.673 1.06.782.434.105 3.515 1.005 3.684 1.005.703 0 1.353-.438 1.599-1.138l1.295-3.68a1.7 1.7 0 0 0-.072-1.304 1.7 1.7 0 0 0-.978-.869c-.473-.162-3.24-.999-3.732-1.117a1.693 1.693 0 0 0-2.041 1.223"
  />
  <path
    fill="#6DB5C3"
    d="m235.556 393.277 3.111 12.792c.108.443.113.896.043 1.336a10.56 10.56 0 0 1 2.906 5.192l13.946 63.704a10.5 10.5 0 0 1 .099 4.205c33.768-6.455 72.413-11.686 115.297-14.07 9.106-.506 17.772-.897 26.05-1.187.223-9.493.246-23.188-.689-38.203-.939-15.095-3.435-30.233-7.42-44.994-2.864-10.608-12.491-17.915-23.511-17.915q-.246 0-.493.005c-14.881.293-38.285 1.358-65.277 4.76-34.072 4.296-56.464 8.594-69.249 11.442-7.134 1.589-12.932 6.232-16.176 12.385 11.097-1.742 17.521-2.029 17.92-2.046 1.625-.083 3.06 1.02 3.443 2.594m114.582 29.838c.32-.32.661-.609.998-.905.293-.333.58-.672.897-.989a20.7 20.7 0 0 1 14.729-6.101 20.7 20.7 0 0 1 14.73 6.101 20.7 20.7 0 0 1 6.102 14.73 20.7 20.7 0 0 1-6.102 14.73c-.319.32-.661.609-.997.905-.294.333-.58.672-.897.989a20.7 20.7 0 0 1-14.73 6.102 20.7 20.7 0 0 1-14.73-6.102 20.7 20.7 0 0 1-6.101-14.73 20.7 20.7 0 0 1 6.101-14.73"
  />
  <path
    fill="#DCEDF1"
    d="M124.57 590.449c4.35-2.15 8.71-4.105 13.179-6.052 47.833-20.486 99.123-33.021 150.432-41.018 3.208-.578 10.768-1.434 14.064-1.886 4.197-.532 12.26-1.571 16.42-2.099 7.379-.666 23.326-2.13 30.61-2.771 6.301-.341 21.905-1.141 28.324-1.485 5.607-.355 13.28-.274 18.898-.401 5.219.012 13.688-.516 18.898.508a1.655 1.655 0 0 1-.003 3.259c-5.259 1.208-13.348 1.008-18.792 1.205-3.421.09-10.86.247-14.091.33-8.587.433-24.292 1.505-32.819 2.005-5.754.576-22.029 2.205-28.035 2.811-5.21.543-13.331 1.798-18.613 2.486-3.325.482-10.77 1.413-13.936 2.009-47.666 7.77-95.231 19.522-140.039 37.638-7.631 3.101-15.294 6.459-22.649 10.169l71.833 260.818c1.222 5.018 4.122 9.271 7.991 12.251q4.16-1.349 8.41-2.698c79.968-25.37 200.701-55.574 323.058-55.984l17.538-126.671c-11.492-1.414-22.816-4.132-33.572-8.286l-42.831 76.146c-2.255 7.813-12.754 41.7-25.795 44.258-8.994 1.763-19.359 2.651-30.193 2.651-8.764 0-17.834-.581-26.738-1.752a175 175 0 0 1-8.608-1.359c-12.123 2.945-24.894 4.525-38.084 4.525-53.945 0-100.929-26.351-124.792-65.003l-2.143 1.103a4.11 4.11 0 0 1-5.293-1.359c-1.196-1.776-29.08-44.046-12.653-93.404a4.1 4.1 0 0 1 4.891-2.691l5.146 1.277c4.182-11.395 10.228-22.075 17.83-31.764 25.113-33.582 68.705-55.845 118.182-55.845 29.397 0 56.715 7.863 79.317 21.286-1.085-7.419-1.639-14.916-1.768-22.349a173 173 0 0 1 1.915-28.699 21 21 0 0 1-6.022.887c-5.335 0-10.669-2.03-14.73-6.091-7.692-7.692-8.087-19.946-1.21-28.122a20.9 20.9 0 0 1 3.86-5.348 20.7 20.7 0 0 1 14.731-6.101c5.319 0 10.32 2 14.189 5.611a158 158 0 0 1 6.046-12.894c-21.41-.409-46.241.045-75.588 1.675-56.485 3.14-105.533 11.244-145.655 20.562-1.533.376-13.861 3.514-17.701 4.466-5.694 1.412-15.518 4.047-15.875 4.123-41.02 11.496-68.893 23.119-81.103 28.644a3.2 3.2 0 0 0-1.798 3.634zm7.829-54.741c50.555-23.605 122.531-34.596 123.252-34.704a3.38 3.38 0 0 1 2.527.629 3.4 3.4 0 0 1 1.341 2.231l4.196 28.124a3.4 3.4 0 0 1-2.811 3.856c-45.455 7.475-119.835 33.315-120.581 33.575a3.4 3.4 0 0 1-4.457-2.557l-5.365-27.42a3.4 3.4 0 0 1 1.898-3.734"
  />
  <path
    fill="#DB00F8"
    d="M168.666 428.727c-1.513.839-2.236 2.608-1.756 4.302l16.847 59.524c.282.995 1.118 1.958 2.237 2.579 1.515.837 3.388.998 5.275.448 4.326-1.262 9.306-2.497 15.074-3.928 3.821-.947 8.152-2.021 12.865-3.248 8.984-2.337 16.238-3.846 21.534-4.947 2.022-.421 3.798-.79 5.334-1.135a3.75 3.75 0 0 0 2.368-1.669 3.75 3.75 0 0 0 .485-2.853l-.006-.03-13.943-63.687a3.755 3.755 0 0 0-4.069-2.884c-6.132.68-16.865 2.381-33.174 6.627-14.647 3.814-23.893 8.033-29.071 10.901m63.022-4.592 7.703 38.188a3.404 3.404 0 0 1-2.721 4.017l-.271.051-5.13 1.08c-7.866 1.759-23.43 5.641-40.677 12.151a3.4 3.4 0 0 1-2.755-.156 3.4 3.4 0 0 1-1.731-2.149l-9.583-35.945a3.4 3.4 0 0 1 1.497-3.768c.835-.516 20.782-12.687 49.931-16.173a3.4 3.4 0 0 1 3.737 2.704"
  />
  <path
    fill="#000"
    d="M364.868 458.677a20.7 20.7 0 0 0 14.73-6.102c.317-.317.603-.656.897-.989.336-.296.678-.585.997-.905a20.7 20.7 0 0 0 6.102-14.73 20.7 20.7 0 0 0-6.102-14.73 20.7 20.7 0 0 0-14.73-6.101 20.7 20.7 0 0 0-14.729 6.101c-.317.317-.604.656-.897.989-.337.296-.678.585-.998.905a20.7 20.7 0 0 0-6.101 14.73 20.7 20.7 0 0 0 6.101 14.73 20.7 20.7 0 0 0 14.73 6.102m-8.734-33.354a14.93 14.93 0 0 1 10.628-4.403 14.93 14.93 0 0 1 10.629 4.403 14.93 14.93 0 0 1 4.403 10.628c0 4.016-1.564 7.79-4.403 10.629a14.93 14.93 0 0 1-10.629 4.403c-4.015 0-7.79-1.563-10.628-4.403a14.93 14.93 0 0 1-4.403-10.629c0-4.015 1.563-7.789 4.403-10.628"
  />
  <path
    fill="#DCEDF1"
    d="M437.316 489.036a14.93 14.93 0 0 0-10.628-4.403 14.93 14.93 0 0 0-10.629 4.403 14.93 14.93 0 0 0-4.403 10.629c0 4.014 1.564 7.789 4.403 10.628a14.93 14.93 0 0 0 10.629 4.403 15 15 0 0 0 5.135-.915 167 167 0 0 1 6.718-23.342c-.381-.486-.781-.96-1.225-1.403"
  />
  <path
    fill="#6DB5C3"
    d="M350.595 790.85c4.916 0 9.768-.236 14.548-.682-3.116-1.429-5.751-3.074-7.459-4.961-2.759-3.049-2.438-5.933-2.001-7.381a71 71 0 0 1 1.886-5.399c-2.69.168-5.404.258-8.142.258-42.188 0-78.993-20.384-98.054-50.404l-17.882 9.21c22.909 35.375 66.811 59.359 117.104 59.359"
  />
  <path
    fill="#6DB5C3"
    d="m222.097 642.843 20.071 4.979c13.762-40.134 56.634-69.485 107.259-69.485 33.32 0 63.279 12.718 83.795 32.853l3.611-9.257c-2.258-5.94-4.011-12.063-5.326-18.289-22.497-14.721-50.538-23.473-80.912-23.473-60.7 0-112.093 34.934-128.498 82.672"
  />
  <path
    fill="#3F8C9B"
    d="M257.416 719.136c17.927 27.849 52.448 46.749 92.011 46.749 3.828 0 7.608-.182 11.332-.527 8.42-16.463 21.13-27.974 24.298-30.692l45.471-116.57c-19.291-20.115-48.485-32.959-81.101-32.959-47.749 0-88.156 27.527-100.904 65.094.224.269.424.559.575.883.601 1.287 14.652 31.908 10.109 65.161a4.1 4.1 0 0 1-1.791 2.861m125.168-88.395c-4.005-.579-7.362-2.399-11.147-3.202-7.318-1.883-14.98-2.398-22.518-1.865-3.673.282-7.66.794-11.2 1.673-4.327.937-5.959-5.267-1.718-6.576 12.141-3.112 25.124-2.763 37.095.862 3.963 1.194 7.982 2.601 11.204 5.375 1.622 1.347.343 4.095-1.716 3.733m-78.76-18.888c27.49-15.096 62.827-13.892 90.658-.179.936.482 1.79.941 2.809 1.545a3.4 3.4 0 0 1-3.422 5.875 45 45 0 0 0-2.482-1.318 91 91 0 0 0-7.773-3.403 106.9 106.9 0 0 0-33.373-6.94c-15.425-.891-30.423 2.692-45.083 7.421-1.834.591-3.052-1.996-1.334-3.001m-9.748 112.282c3.763 1.489 6.609 4.035 10.106 5.691 6.685 3.521 14.021 5.793 21.478 7.016 3.639.574 7.637.996 11.285.96 4.425.087 4.581 6.5.151 6.794-12.531.223-25.082-3.115-35.892-9.407-3.58-2.077-7.166-4.374-9.659-7.818-1.267-1.685.612-4.064 2.531-3.236"
  />
  <path
    fill="#000"
    d="M315.608 321.094c-2.964-1.672-6.731-1.805-9.627-.144-2.225 1.277-3.537 3.35-3.752 5.748-2.159 1.352-3.578 3.61-3.884 6.36-.373 3.351.971 6.599 3.466 8.764-.258 3.061 1.334 6.088 4.467 8.116 2.615 1.692 6.103 2.506 9.025 1.649 1.209.977 2.771 1.587 4.565 1.735q.398.032.811.032c3.37 0 7.465-1.633 9.07-4.934.552-1.134.753-2.322.614-3.499 2.038-1.325 3.454-3.485 3.801-6.078.434-3.246-.887-6.214-3.415-8.076.117-2.71-1.177-5.433-3.707-7.498-3.005-2.45-7.55-3.715-11.434-2.175m8.195 9.903a3.397 3.397 0 0 0 1.997 4.796c1.595.506 1.702 1.562 1.624 2.148-.048.358-.321 1.528-1.827 1.59a3.4 3.4 0 0 0-2.354 5.71c.138.148.226.266.28.351-.446.462-1.827 1.092-3.156.947-.787-.08-.862-.333-.887-.417a3.4 3.4 0 0 0-5.915-1.159c-.179.223-1.842.4-3.592-.734-1.208-.782-1.62-1.568-1.225-2.338a3.4 3.4 0 0 0-1.601-4.639c-1.586-.733-2.171-2.297-2.044-3.442.149-1.341 1.103-1.545 1.416-1.611a3.4 3.4 0 0 0 2.197-1.564c.486-.8.619-1.767.369-2.67-.229-.825.019-.966.281-1.117.781-.45 2.448-.469 3.546.66a3.4 3.4 0 0 0 4.568.279c1.349-1.085 3.783-.456 5.263.752.612.499 1.562 1.481 1.06 2.458"
  />
  <path
    fill="#000"
    d="M463.882 296.673c1.983 1.283 4.593 1.929 6.893 1.431.961.664 2.141 1.078 3.471 1.188q.338.028.689.028c2.801 0 6.086-1.347 7.437-4.125.391-.805.576-1.65.564-2.498 1.472-1.121 2.484-2.803 2.749-4.786.335-2.506-.634-4.871-2.481-6.446-.05-2.109-1.108-4.186-3.057-5.777-2.319-1.89-5.785-2.898-8.857-1.885-2.379-1.206-5.266-1.226-7.583.105-1.738.997-2.834 2.618-3.135 4.479-1.602 1.161-2.669 2.96-2.904 5.069-.289 2.597.675 5.12 2.503 6.889-.043 2.41 1.264 4.744 3.711 6.328m.544-12.465c.037-.326.137-.348.32-.387a3.396 3.396 0 0 0 2.601-4.091c.329-.045.857.018 1.231.403a3.4 3.4 0 0 0 4.568.279c.417-.333 1.205-.208 1.753.002.975.373 1.47 1.034 1.49 1.218a3.4 3.4 0 0 0 1.996 4.796c.612.193.578.446.56.581-.047.356-.302.366-.47.373a3.4 3.4 0 0 0-2.838 5.039 2.6 2.6 0 0 1-.843.1 3.4 3.4 0 0 0-2.488-2.037 3.42 3.42 0 0 0-3.12.996c-.645.054-1.914-.533-2.191-1.039l.003-.004a3.4 3.4 0 0 0-1.6-4.639 1.62 1.62 0 0 1-.972-1.59"
  />
  <path
    fill="#000"
    d="M923.944 277.159c10.903 0 19.773-8.87 19.773-19.774 0-10.903-8.87-19.773-19.773-19.773s-19.774 8.87-19.774 19.773 8.87 19.774 19.774 19.774"
  />
  <path
    fill="#6DB5C3"
    d="M923.944 284.702c15.062 0 27.316-12.254 27.316-27.317 0-15.062-12.254-27.316-27.316-27.316s-27.317 12.254-27.317 27.316c0 15.063 12.255 27.317 27.317 27.317m0-47.09c10.903 0 19.773 8.87 19.773 19.773s-8.87 19.774-19.773 19.774-19.774-8.87-19.774-19.774c0-10.903 8.87-19.773 19.774-19.773"
  />
  <path
    fill="#6DB5C3"
    d="M836.535 250.709c-3.371-2.989-5.51-7.337-5.51-12.186 0-8.988 7.312-16.301 16.3-16.301s16.301 7.313 16.301 16.301c0 4.538-1.867 8.645-4.87 11.603-.227 3.301-.622 6.59-1.086 9.869 7.977-3.859 13.491-12.033 13.491-21.472 0-13.143-10.692-23.836-23.836-23.836s-23.835 10.693-23.835 23.836c0 5.847 2.12 11.206 5.626 15.358a206 206 0 0 0 7.419-3.172"
  />
  <path
    fill="#6DB5C3"
    d="M855.626 294.009c-.014.398-.05.793-.075 1.189 37.751 7.672 81.892 17.502 120.654 28.393l2.056-7.065c-13.437-3.545-65.352-17.014-122.635-28.872.078 2.128.12 4.266 0 6.355"
  />
  <path
    fill="#000"
    d="M286.912 310.358c3.543-3.968 6.567-8.267 9.499-12.625 5.163-7.675 12.463-18.603 17.402-26.268a787 787 0 0 0 8.463-13.286c2.235-3.827-3.224-7.285-5.733-3.657-5.739 8.797-11.282 17.717-16.786 26.662-4.702 7.982-12.022 18.952-15.614 27.408-.744 1.711 1.536 3.15 2.769 1.766"
  />
  <path
    fill="#000"
    d="M317.159 277.598c-4.055 6.918-8.007 13.899-11.691 21.023-1.904 3.956 3.731 6.992 5.985 3.227 3.926-6.994 7.585-14.132 11.136-21.323 1.109-2.439 2.645-4.647 2.921-7.535a2.257 2.257 0 0 0-3.662-1.973c-2.261 1.817-3.26 4.314-4.689 6.581"
  />
  <path
    fill="#000"
    d="M305.157 614.854c14.661-4.729 29.659-8.312 45.084-7.421a106.9 106.9 0 0 1 33.373 6.94 91 91 0 0 1 7.773 3.403c.865.427 1.758.899 2.482 1.317a3.398 3.398 0 0 0 3.422-5.874 51 51 0 0 0-2.809-1.546c-27.831-13.713-63.168-14.916-90.658.179-1.718 1.006-.5 3.593 1.333 3.002"
  />
  <path
    fill="#000"
    d="M384.3 627.008c-3.222-2.774-7.241-4.181-11.204-5.376-11.971-3.624-24.954-3.973-37.095-.861-4.241 1.309-2.609 7.513 1.718 6.576 3.54-.879 7.527-1.391 11.2-1.673 7.538-.533 15.2-.018 22.518 1.865 3.785.802 7.142 2.623 11.147 3.202 2.059.362 3.338-2.386 1.716-3.733"
  />
  <path
    fill="#000"
    d="M350.535 314.176c25.479 4.307 47.304 9.637 58.046 12.431.923.239 1.848.355 2.76.355 4.678 0 8.969-3.027 10.418-7.707 5.322-17.205 15.005-43.608 17.225-47.008 14.563-12.646 17.422-27.148 8.042-40.858-1.529-2.235-6.723-8.147-13.322-10.4-9.78-4.198-21.761-3.416-25.8-2.989-3.565-2.346-14.649-8.556-28.832-6.062-7.789 1.371-13.595 4.883-17.255 10.438-5.291 8.028-4.322 17.847-3.741 21.376-9.204 17.309-17.332 37.007-20.339 49.342a9.98 9.98 0 0 0 .89 7.032c2.988 6.157 6.378 13.116 11.908 14.05m-6.192-19.47c2.946-12.086 11.101-31.697 20.292-48.8.39-.726.501-1.577.316-2.381-.023-.1-2.262-10.156 2.566-17.442 2.592-3.911 6.876-6.417 12.734-7.448a31 31 0 0 1 5.383-.468c11.21 0 19.229 5.992 19.314 6.056a3.4 3.4 0 0 0 2.565.672c.222-.031 22.302-3.087 30.352 7.353 1.93 2.504 2.563 6.518 1.734 11.014-1.145 6.212-4.812 11.882-9.57 14.796-1.22.747-2.603 1.595-9.334 20.09-3.403 9.353-7.4 21.207-10.182 30.202a4.113 4.113 0 0 1-4.971 2.781c-10.861-2.824-32.919-8.209-58.622-12.553a3.18 3.18 0 0 1-2.149-1.397 3.12 3.12 0 0 1-.428-2.475"
  />
  <path
    fill="#D69200"
    d="M346.92 298.578c25.703 4.344 47.761 9.729 58.622 12.553a4.113 4.113 0 0 0 4.971-2.781c2.782-8.995 6.779-20.849 10.182-30.202 6.731-18.495 8.114-19.343 9.334-20.09 4.758-2.914 8.425-8.584 9.57-14.796.829-4.496.196-8.51-1.735-11.014-8.049-10.44-30.129-7.384-30.351-7.353a3.4 3.4 0 0 1-2.565-.672c-.085-.064-8.104-6.056-19.314-6.056a31 31 0 0 0-5.383.468c-5.858 1.031-10.142 3.537-12.734 7.448-4.828 7.286-2.59 17.342-2.566 17.442a3.43 3.43 0 0 1-.316 2.381c-9.191 17.104-17.346 36.714-20.292 48.8a3.12 3.12 0 0 0 .428 2.475 3.18 3.18 0 0 0 2.149 1.397"
  />
  <path
    fill="#000"
    d="M767.443 181.597c-5.398 4.853-5.113 12.871-5.089 13.215a3.09 3.09 0 0 0 3.226 2.949c1.704-.075 3.061-1.478 2.949-3.226.003-.043-.15-5.467 3.047-8.34 1.881-1.692 4.738-2.258 8.495-1.687a3.092 3.092 0 0 0 .93-6.112c-5.674-.863-10.235.214-13.558 3.201"
  />
  <path
    fill="#000"
    d="M752.141 197.001a3.08 3.08 0 0 0 2.569-3.535c-.005-.064-.88-6.307 2.455-11.779 3.597-5.905 10.314-12.697 21.89-11.52a3.09 3.09 0 0 0 3.404-3.078 3.09 3.09 0 0 0-2.779-3.071c-11.531-1.174-21.403 3.96-27.794 14.452-4.556 7.477-3.335 15.619-3.281 15.963a3.09 3.09 0 0 0 3.536 2.568"
  />
  <path
    fill="#000"
    d="M855.729 349.001c5.959 1.261 10.856.399 14.559-2.563 6.016-4.811 6.204-13.322 6.199-13.689a3.28 3.28 0 0 0-3.237-3.321c-1.81-.024-3.334 1.378-3.321 3.238-.007.045-.175 5.8-3.738 8.649-2.096 1.677-5.158 2.102-9.102 1.267a3.281 3.281 0 0 0-1.36 6.419"
  />
  <path
    fill="#000"
    d="M856.249 364.313c12.145 1.949 22.918-2.886 30.329-13.611 5.284-7.643 4.488-16.343 4.452-16.71a3.28 3.28 0 0 0-3.589-2.938 3.27 3.27 0 0 0-2.938 3.589c.002.068.547 6.735-3.32 12.329-4.171 6.036-11.704 12.82-23.896 10.866a3.277 3.277 0 0 0-3.794 3.053 3.28 3.28 0 0 0 2.756 3.422"
  />
  <path
    fill="#DB00F8"
    d="M649.377 344.961c24.673 19.828 37.949 8.662 51.563-6.778 8.602-9.756 22.542-27.173 25.851-33.548l-57.502-40.888c-.079.04-.18.1-.294.189-4.513 3.492-16.29 18.979-22.617 27.299-17.202 22.624-16.333 38.189 2.999 53.726m50.575-42.703c1.358.961 1.817 2.198 1.962 3.067.407 2.428-.809 4.939-5.657 11.686l-.001.001c-10.27 14.291-14.431 19.528-17.937 19.528-.931 0-1.815-.369-2.755-1.036-1.134-.801-1.805-1.862-1.994-3.148-.368-2.501.368-5.388 13.421-22.077 5.025-6.426 8.657-11.067 12.961-8.021m-35.953-6.893c5.026-6.426 8.656-11.068 12.962-8.021 1.359.962 1.817 2.201 1.963 3.07.405 2.427-.811 4.938-5.659 11.684-9.857 13.717-14.206 19.485-17.975 19.485-.916 0-1.798-.341-2.716-.99-1.135-.804-1.807-1.864-1.996-3.151-.366-2.5.37-5.389 13.421-22.077"
  />
  <path
    fill="#000"
    d="M645.117 350.262c4.317 3.469 8.374 6.087 12.206 7.998 4.959 2.532 14.49 6.16 28.408 6.16 8.069 0 17.614-1.226 28.588-4.589 2.465 5.328 8.576 12.403 16.421 10.3 17.928-4.806 23.463-28.366 19.45-31.664a3.4 3.4 0 0 0-4.273-.622c-14.33 8.669-34.904 18.439-56.117 19.575 6.053-3.76 11.352-9.194 16.241-14.739 7.415-8.41 22.903-27.322 26.852-35.042 1.457-2.851.959-6.016-1.24-7.876a3 3 0 0 0-.225-.173l-58.221-41.401c-2.379-1.876-5.65-1.738-8.374.369-4.818 3.729-14.433 16.154-23.868 28.562-.35.461-.679.915-1.016 1.372-6.419 8.703-10.406 16.693-11.947 24.155-2.885 13.968 2.782 26.095 17.115 37.615m1.261-59.027c6.327-8.32 18.104-23.806 22.617-27.299.114-.089.215-.149.294-.189l57.502 40.889c-3.309 6.374-17.249 23.792-25.851 33.547-13.614 15.44-26.89 26.606-51.563 6.778-19.332-15.537-20.201-31.102-2.999-53.726"
  />
  <path
    fill="#000"
    d="M652.574 320.593c.919.649 1.8.99 2.716.99 3.769 0 8.118-5.768 17.975-19.485 4.848-6.746 6.064-9.257 5.659-11.684-.146-.869-.604-2.108-1.963-3.07-4.306-3.047-7.936 1.595-12.962 8.021-13.051 16.689-13.787 19.577-13.421 22.077.189 1.287.861 2.347 1.996 3.151"
  />
  <path
    fill="#000"
    d="M673.57 332.356c.189 1.286.86 2.347 1.994 3.148.94.667 1.825 1.036 2.755 1.036 3.506 0 7.667-5.237 17.937-19.528l.001-.001c4.848-6.747 6.064-9.258 5.657-11.686-.145-.869-.604-2.107-1.962-3.067-4.304-3.046-7.936 1.595-12.961 8.021-13.053 16.688-13.789 19.576-13.421 22.077"
  />
  <path
    fill="#000"
    d="m719.666 218.371.427-.052c3.277-.543 6.378-.882 9.574-.023 3.645.65 5.27-4.439 1.869-6.003-4.64-2.273-11.09-.813-13.259 4.183-.448.915.371 2.05 1.389 1.895"
  />
  <path
    fill="#000"
    d="M768.825 232.687c-2.475-.621-4.117 2.67-2.081 4.269 2.429 1.827 4.881 3.966 6.869 6.204.884 1.017 2.269 1.551 3.615.993 3.26-1.532 1.624-4.94-.232-6.871-2.266-2.336-5.027-3.805-8.171-4.595"
  />
  <path
    fill="#6DB5C3"
    d="M804.062 359.8a3.4 3.4 0 0 1-.927-2.797l3.186-24.724c-1.495.21-3.174.507-4.317.775l-8.416 34.155 11.396.16a3.4 3.4 0 0 1 3.301 3.985l-5.42 30.998c1.589-.136 3.459-.408 4.642-.694l10.854-41.922-11.536 1.086a3.38 3.38 0 0 1-2.763-1.022"
  />
  <path
    fill="#F295FF"
    d="M440.365 593.021c2.885 9.82 7.072 19.205 13.086 27.44 1.908 2.772 3.9 5.434 5.832 8.372a1.602 1.602 0 0 1-2.071 2.327c-6.61-3.553-10.894-9.962-14.473-16.306a100 100 0 0 1-2.075-4.032l-49.587 127.123a3.4 3.4 0 0 1-1.019 1.4c-.206.168-20.862 17.249-27.865 40.446-.005.023.096.649 1.559 1.779 2.131 1.647 5.724 3.259 10.349 4.728l.894-1.958c1.236-2.175 2.554-4.457 3.979-6.519.092-.137 1.408-2.163 1.46-2.24 2.451-3.109 4.934-6.541 8.537-8.469 1.531-.918 3.414.784 2.678 2.387-1.699 3.546-3.689 6.683-5.792 10.01-.658 1.403-3.298 5.863-4.685 8.223l.234.561c18.721 4.412 47.257 6.55 70.335 2.024 6.717-1.316 16.308-24.55 20.676-39.838q.11-.385.306-.733l39.372-69.995c-7.089-4.176-18.185-16.849-21.804-21.101-1.058-1.009-1.959-2.17-2.526-3.685a1.788 1.788 0 0 1 1.987-2.399c.468.065.904.166 1.323.286 1.476.421 2.691 1.141 3.841 1.94.867.603 1.701 1.246 2.589 1.831 26.143 17.981 58.844 23.636 90.108 21.612 5.737-.384 11.466-.993 17.157-1.883 3.386-.522 6.751-1.22 10.146-1.558 2.41-.24 4.835-.303 7.296.031 1.199.103 1.661 1.799.658 2.48-1.211.891-2.884 2.07-2.884 2.07q-.8.634-1.545 1.203c-5.978 4.565-9.367 6.068-10.461 6.48l44.027 79.378q.052.094.098.19c.12.253 12.197 25.445 25.787 36.841.145.123 3.81 2.881 25.207-6.37 10.985-4.75 21.214-10.347 22.229-10.906 1.41-.889 3.112-1.891 5.077-3.049 3.247-1.911 8.26-4.863 12.849-8.108-2.228-3.038-4.164-6.126-6.402-9.158l-3.647-4.895a52 52 0 0 1-3.397-5.069c-.476-.812-.338-1.897.4-2.483a1.88 1.88 0 0 1 1.975-.24c2.073.894 3.853 2.291 5.493 3.746 4.279 4.066 7.961 8.824 11.05 13.841 3.976-3.489 6.494-6.95 5.085-9.547-12.133-22.357-33.518-29.384-33.733-29.452a3.4 3.4 0 0 1-2.083-1.864l-36.518-82.47c-.907.205-1.754.018-2.15-1.086-.002-.021.002-.041 0-.061-.169-1.878.962-3.609 1.986-5.006.196-.268.39-.529.568-.77.863-1.061 2.485-3.22 3.274-4.331 22.852-32.755 34.792-73.502 31.168-113.438-.55-7.282-1.815-14.465-3.172-21.644-.973-5.657-2.405-11.235-2.917-17.099a47 47 0 0 1-.197-4.901 1.237 1.237 0 0 1 2.306-.599c2.52 4.315 4.985 12.51 6.028 16.213a12 12 0 0 0 1.798 3.742c4.606 6.422 21.406 28.101 46.333 40.311 0 0 8.818 3.631 17.901 4.556 18.774 2.458 36.125 1.294 50.864-11.709 15.123-11.9 17.946-36.289 13.714-54.109-1.054-3.827-3.352-10.753-7.435-11.649l-2.368 2.432q.506.774.954 1.625c.098.188.182.395.277.589.19.391.383.777.555 1.191.102.246.187.514.282.769.145.386.295.765.424 1.17.091.288.165.597.248.894.102.364.215.715.305 1.094.005.021.004.042.009.063.012.055.03.104.043.159a3.39 3.39 0 0 1-1.222 3.421 3.4 3.4 0 0 1-1.013.549c-.056.02-.107.05-.165.066-.062.017-.124.018-.185.031s-.116.039-.178.049c-.059.01-.117.004-.175.01a3.4 3.4 0 0 1-.622.01 3.5 3.5 0 0 1-.504-.076l-.019-.005c-1.222-.287-2.244-1.226-2.545-2.533-.076-.331-.167-.633-.253-.946-.068-.247-.13-.505-.203-.741-.086-.273-.183-.522-.277-.78-.08-.222-.154-.454-.241-.665-.102-.248-.217-.473-.327-.706-.092-.195-.178-.4-.276-.584-.12-.225-.254-.427-.383-.637-.103-.166-.198-.344-.307-.501-.14-.203-.295-.382-.444-.568-.112-.139-.216-.291-.334-.421-.163-.181-.341-.337-.516-.501-.118-.111-.228-.236-.351-.339-.2-.168-.416-.309-.629-.456-.111-.077-.215-.167-.33-.238a8 8 0 0 0-1.05-.549c-5.615-2.44-14.146 1.151-17.223 2.877-7.442 5.85-11.142 12.086-10.999 18.534.271 12.158 13.81 21.904 13.946 22.002a3.401 3.401 0 0 1-1.968 6.175 3.4 3.4 0 0 1-1.954-.621c-.387-.272-5.784-4.143-10.364-10.351l-10.679 10.973a7.22 7.22 0 0 1-5.287 2.304l-.137-.001a7.23 7.23 0 0 1-5.374-2.555l-6.493-7.673c-2.196-2.594-2.274-6.422-.185-9.102 2.981-3.825 10.939-12.273 21.382-22.984-5.808-.592-11.203-2.085-14.801-4.606-11.821-8.112-23.093-16.969-34.01-26.256-6.385-5.487-12.678-11.145-18.482-17.295-2.287-2.203-4.567-4.369-7.105-6.284-.078-.058-.15-.122-.229-.181-2.702-2.003-5.799-3.771-8.91-4.996-2.036-.857-1.297-3.942.884-3.809 4.094.374 8.059 1.661 11.65 3.639a101 101 0 0 1 2.611-2.32c1.259-1.08 2.534-2.137 3.82-3.219 4.488-3.817 8.497-8.213 12.211-12.847 11.98-15.097 21.587-32.136 30.482-49.269 1.583-2.984 3.046-6.033 4.504-9.083 1.684-3.523 3.364-7.048 5.211-10.483a89 89 0 0 1 3.742-6.366c1.293-2.034 4.579-.738 4.057 1.661-1.134 5.032-2.974 9.801-5.071 14.469 2.33 1.201 4.858 1.928 7.521 2.23l3.347-13.584q.042-.171.101-.336c.734-2.042 2.619-2.705 7.561-3.545 3.576-.608 6.014-.772 7.244-.489 2.092.484 3.014 2.303 2.845 3.851l-1.347 10.451c11.618-4.914 22.574-13.748 28.011-21.587 5.103-7.273 8.607-15.452 8.94-24.37.264-4.689-.261-9.11-.187-13.98.164-4.971.826-9.665 1.48-14.349.651-5.318 1.793-10.535 2.042-15.759-13.274 7.252-27.538 12.634-42.002 16.871a281 281 0 0 1-20.658 5.198l-1.968.398c1.194 2.572 2.099 5.328 2.421 8.143.11 1.339.468 3.788-1.63 3.771-.849-.027-1.37-.671-1.601-1.402-.38-.948-.864-2.062-1.334-2.944-12.157-21.792-40.395-41.203-63.647-49.587-7.783-3-16.09-4.532-24.28-5.843q-1.745-.278-3.48-.548c-1.066-.076-1.654-.935-1.675-1.797-.018-.766.411-1.535 1.371-1.764 2.33-.536 4.617-.712 6.878-.684.014-.017-1.077-5.417-1.077-5.417-1.891-8.155-6.56-30.573-12.328-35.652l-.005-.001c-.528.461-1.238 1.692-1.616 2.556-7.802 19.218-54.184 52.869-53.549 77.338a8.1 8.1 0 0 0 .571 2.786l1.269 3.199c6.071-6.469 12.255-12.859 19.246-18.362 2.607-2.053 5.32-3.99 8.19-5.752 1.008-.618 2.386-.424 3.064.545a2.21 2.21 0 0 1-.293 2.871 364 364 0 0 1-4.375 4.416c-7.195 7.161-14.628 14.139-21.392 21.705-8.159 9.105-15.706 18.755-22.283 28.998-6.236 10.135-12.683 20.566-15.202 32.32a56.2 56.2 0 0 0-1.089 17.478c.423 5.416 1.909 10.425 2.424 15.835.066.689.121 1.383.151 2.087a1.555 1.555 0 0 1-1.496 1.612 1.57 1.57 0 0 1-1.318-.643c-1.921-2.654-3.288-5.604-4.193-8.702a62.3 62.3 0 0 1-2.306-18.417 64.7 64.7 0 0 1 1.888-13.986c-3.656-8.75-6.852-17.689-9.69-26.721-4.873-15.904-9.256-32.056-11.142-48.651-.21-2.455-.4-4.888-.198-7.646l1.591-14.065c.496-4.639.949-9.272 1.222-13.863.254-6.52.777-13.328-1.66-19.2a8 8 0 0 0-1.216-1.938 58 58 0 0 1-5.706 2.645c-3.371 2.557-22.553 26.041-34.085 41.75a11.47 11.47 0 0 1-9.265 4.703c-2.189 0-4.399-.626-6.355-1.929-.722-.481-1.506-1-2.336-1.547-.058 7.754.878 15.69 1.557 23.44 1.655 16.242 3.22 39.728 4.249 56.269 1.169 17.738 4.152 63.379 5.465 82.453 6.86-2.801 13.795-5.404 20.73-7.99 5.365-2.05 10.722-3.83 15.985-5.826 4.352-1.651 8.642-3.448 12.808-5.692 3.017-1.627 6.073-3.338 8.645-5.39a1.29 1.29 0 0 1 1.88 1.724 35 35 0 0 1-3.435 3.994c-6.442 6.506-15.121 10.583-23.523 13.986-9.751 4.028-19.722 7.57-29.544 11.31-19.397 7.12-37.753 17.51-52.566 31.92-39.561 38.587-52.56 100.459-38.235 153.054m290.938-317.313q.855.073 1.712.206c3.997.625 7.949 2.295 10.32 5.779.097.142.176.295.267.44.383.614.725 1.25.982 1.922.231.605.384 1.239.494 1.886.041.241.096.479.118.726a3.4 3.4 0 0 1-.151 1.172 3 3 0 0 1-.208.487c-.743 1.368-2.484 1.823-3.842 1.282a2.77 2.77 0 0 1-1.445-1.286 3.3 3.3 0 0 1-.364-1.283 4.8 4.8 0 0 0-.887-1.909c-1.632-2.158-4.934-2.987-7.708-3.123-.787-.105-1.402-.406-1.854-.823a3 3 0 0 1-.398-.453c-1.379-1.941-.202-5.313 2.964-5.023m-31.125-17.823a3.4 3.4 0 0 1 .34-1.673c.431-.874 1.257-1.555 2.437-1.674q.354-.036.75-.001c3.979.343 8.132 1.62 10.923 4.601q.6.638 1.109 1.385c.156.228.288.469.428.707a10.5 10.5 0 0 1 1.433 4.267c.027.744-.155 1.361-.472 1.847-.421.647-1.081 1.061-1.801 1.23q-.271.063-.548.081-.278.017-.554-.012a3 3 0 0 1-1.53-.605 2.7 2.7 0 0 1-.741-.887 3.3 3.3 0 0 1-.364-1.283 4.9 4.9 0 0 0-.792-1.79 5.8 5.8 0 0 0-1.362-1.343c-.594-.425-1.275-.763-1.995-1.033a12 12 0 0 0-1.291-.403 16 16 0 0 0-3.156-.462 3.8 3.8 0 0 1-1.052-.295 3 3 0 0 1-.801-.529c-.018-.016-.03-.037-.048-.054a3 3 0 0 1-.833-1.482 3.3 3.3 0 0 1-.081-.561zm-72.176 54.762c1.541-7.462 5.528-15.452 11.947-24.155.337-.457.666-.911 1.016-1.372 9.435-12.408 19.05-24.833 23.868-28.562 2.724-2.107 5.995-2.245 8.374-.369l58.221 41.401q.116.081.225.173c2.199 1.86 2.697 5.025 1.24 7.876-3.949 7.72-19.437 26.632-26.852 35.042-4.889 5.545-10.188 10.979-16.241 14.739 21.213-1.137 41.787-10.906 56.117-19.575a3.4 3.4 0 0 1 4.273.622c4.013 3.298-1.522 26.858-19.45 31.664-7.845 2.103-13.956-4.972-16.421-10.3-10.974 3.363-20.519 4.589-28.588 4.589-13.918 0-23.449-3.628-28.408-6.16-3.832-1.911-7.889-4.529-12.206-7.998-14.333-11.52-20-23.647-17.115-37.615"
  />
  <path
    fill="#D69200"
    d="M527.126 223.818a674 674 0 0 1 9.391-12.45c-2.35-.723-4.336-2.289-5.755-4.708-2.918-4.971-14.559-6.545-24.829-7.933-13.587-1.837-27.637-3.736-28.276-14.299-.544-8.97 7.964-13.798 16.192-18.466 8.657-4.912 17.608-9.991 17.834-19.596.212-9.002 5.045-12.478 9.062-13.809 11.169-3.7 28.545 5.214 30.952 8.294 5.124 6.555 5.312 10.266 5.51 14.195.2 3.955.426 8.437 6.464 18.952.953 1.66 1.562 3.489 1.832 5.445 5.555-1.574 10.865-5.903 14.047-11.52 2.457-4.337 3.232-8.71 2.129-12-4.552-13.569-28.19-18.253-28.428-18.299a3.4 3.4 0 0 1-2.205-1.476c-.075-.111-8.154-12.037-23.285-14.463-6.384-1.025-11.68.032-15.744 3.139-7.55 5.77-8.819 16.87-8.831 16.981a3.42 3.42 0 0 1-1.077 2.147c-15.358 14.151-30.546 31.219-37.795 42.471a3.6 3.6 0 0 0-.468 2.864 3.66 3.66 0 0 0 1.813 2.331c24.57 13.441 45.067 26.656 55.098 33.337a4.674 4.674 0 0 0 6.369-1.137"
  />
  <path
    fill="#6DB5C3"
    d="M832.416 462.494c.677.293 1.317.637 1.932 1.015l11.129-11.435c-.005-.062-.02-.119-.025-.182-.383-5.672 3.861-12.381 7.913-14.591.961-.525 1.977-.964 2.959-1.389 3.875-1.677 7.222-3.125 8.495-9.56 2.099-10.617 14.115-12.87 18.201-13.331l-.003-.049c-.167-2.173-.581-7.691 6.744-9.584a37.4 37.4 0 0 0-.846-8.866c-.016-.07-.052-.234-.282-.302a.5.5 0 0 0-.133-.019.38.38 0 0 0-.281.127c-3.44 3.442-9.515 9.447-17.206 17.049-13.745 13.586-33.029 32.649-50.54 50.217 3.829-.717 8.091-.77 11.943.9"
  />
  <path
    fill="#6DB5C3"
    d="M778.372 505.481a.41.41 0 0 0 .012.529l6.494 7.673a.4.4 0 0 0 .312.149.48.48 0 0 0 .317-.137l.073-.077 11.932-12.26c-1.602-3.321-2.711-7.029-2.805-11.021-.022-.903.021-1.798.102-2.687-8.037 8.311-14.036 14.751-16.437 17.831"
  />
  <path
    fill="#DB00F8"
    d="M889.797 412.452c.12 1.566.485 6.333-4.73 7.206a3 3 0 0 1-.405.043c-.117.006-11.725.653-13.173 7.971-1.965 9.938-8.284 12.671-12.465 14.48-.882.382-1.714.742-2.403 1.118-1.793.978-4.585 5.198-4.384 8.163.06.89.345 1.8 2.005 2.434 8.069 3.078 12.988 4.062 19.12 1.34 6.519-2.895 22.5-24.824 22.5-30.874 0-1.497.109-3.129.215-4.706.224-3.331.562-8.364-.786-9.6-.573-.525-1.964-.402-2.742-.281-2.925.452-2.912.622-2.752 2.706"
  />
  <path
    fill="#DB00F8"
    d="M546.399 145.115c-.748-.69-4.68-3.038-10.076-4.825-3.643-1.205-6.917-1.817-9.612-1.817-1.672 0-3.12.236-4.293.71-1.632.661-3.814 2.14-3.937 7.343-.317 13.458-11.938 20.052-21.276 25.35-8.119 4.606-13.029 7.721-12.761 12.14.302 4.985 12.042 6.572 22.4 7.972 12.384 1.675 25.19 3.405 29.782 11.231 1.404 2.39 4.122 2.439 8.079.139 8.97-5.207 17.073-19.002 13.069-25.973-6.85-11.93-7.132-17.511-7.359-21.997-.172-3.405-.276-5.468-4.016-10.273"
  />
  <path
    fill="#DCEDF1"
    d="M210.666 465.766a15 15 0 0 1-.104-3.524c-2.175-.776-4.817-2.082-6.089-4.119-.776-1.243-.998-2.634-.64-4.02 1.133-4.395 5.295-6.197 7.807-6.897.43-1.966 1.578-4.898 4.645-6.972 1.681-1.137 3.528-1.385 5.337-.717 2.083.77 3.873 2.805 5.344 5.203q.839-.233 1.867-.348l-3.183-15.777c-20.719 3.01-36.348 10.589-41.879 13.567l7.943 29.794a314 314 0 0 1 18.952-6.19"
  />
  <path
    fill="#000"
    d="m176.523 441.372 9.583 35.945a3.4 3.4 0 0 0 4.486 2.305c17.247-6.51 32.811-10.392 40.677-12.151l5.13-1.08.271-.051a3.404 3.404 0 0 0 2.721-4.017l-7.703-38.187a3.4 3.4 0 0 0-3.737-2.705c-29.149 3.486-49.096 15.657-49.931 16.173a3.4 3.4 0 0 0-1.497 3.768m35.603 16.119c-1.9-.702-3.334-1.589-3.451-2.14.75-2.912 5.464-3.584 5.501-3.587 1.25-.147 2.197-1.229 2.209-2.488.001-.126.06-3.114 2.701-4.899.255-.173.426-.224.558-.224.097 0 .173.028.244.055.889.327 1.902 1.54 2.899 3.232-.521.643-.965 1.349-1.393 2.089-.923 1.597-1.719 2.976-4.32 4.006-2.179.862-3.832 2.195-4.948 3.956m20.893 4.502-17.325 3.647c-.471-2.326-.518-5.977 3.219-7.457 4.221-1.669 5.717-4.26 6.81-6.153.982-1.698 1.517-2.625 4.201-2.756zm-7.369-33.397 3.183 15.776q-1.028.116-1.867.348c-1.471-2.398-3.261-4.433-5.344-5.203-1.809-.668-3.656-.42-5.337.717-3.067 2.074-4.215 5.006-4.645 6.972-2.512.7-6.674 2.502-7.807 6.897-.358 1.386-.136 2.777.64 4.02 1.272 2.037 3.914 3.343 6.089 4.12a15 15 0 0 0 .104 3.523 314 314 0 0 0-18.952 6.19l-7.943-29.794c5.531-2.978 21.16-10.557 41.879-13.566"
  />
  <path
    fill="#6DB5C3"
    d="M221.394 449.529c.428-.74.872-1.446 1.393-2.09-.997-1.691-2.01-2.904-2.899-3.231a.7.7 0 0 0-.244-.055c-.132 0-.303.051-.558.224-2.641 1.785-2.7 4.773-2.701 4.899-.012 1.259-.959 2.341-2.209 2.487-.037.004-4.751.676-5.501 3.588.117.551 1.551 1.438 3.451 2.139 1.116-1.761 2.769-3.093 4.948-3.955 2.601-1.03 3.397-2.409 4.32-4.006"
  />
  <path
    fill="#DB00F8"
    d="M225.723 452.03c-1.093 1.893-2.589 4.483-6.81 6.153-3.737 1.48-3.69 5.131-3.219 7.457l17.325-3.647-3.095-12.719c-2.684.131-3.219 1.058-4.201 2.756"
  />
  <path
    fill="#6DB5C3"
    d="M408.571 407.51a3.05 3.05 0 0 0 2.004-1.226 3.05 3.05 0 0 0 .55-2.284l-1.876-11.895a3.077 3.077 0 0 0-3.511-2.554l-6.618 1.044 2.833 17.959z"
  />
  <path
    fill="#DCEDF1"
    d="M366.762 450.983a14.93 14.93 0 0 0 10.629-4.403 14.93 14.93 0 0 0 4.403-10.629c0-4.015-1.564-7.789-4.403-10.628a14.93 14.93 0 0 0-10.629-4.403c-4.015 0-7.79 1.563-10.628 4.403a14.93 14.93 0 0 0-4.403 10.628 14.93 14.93 0 0 0 4.403 10.629 14.93 14.93 0 0 0 10.628 4.403m-.627-26.569a3.096 3.096 0 0 1 3.425 2.724l.554 4.868a3.095 3.095 0 0 1-6.149.701l-.555-4.867a3.096 3.096 0 0 1 2.725-3.426"
  />
  <path
    fill="#000"
    d="M363.965 432.707a3.093 3.093 0 1 0 6.149-.701l-.554-4.868a3.096 3.096 0 0 0-6.15.702z"
  />
  <path
    fill="#6DB5C3"
    d="m256.498 529.701-3.197-21.43c-5.67.948-18.052 3.143-33.616 6.644q.027.83.077 1.623c.235 3.784.5 8.073-5.902 12.697-5.253 3.795-17.991 6.601-30.973 9.067q-2.031.385-3.801.385c-3.197 0-5.746-.943-7.606-2.822-2.127-2.149-2.71-4.923-2.796-7.031-10.635 3.517-21.193 7.487-30.996 11.926l4.103 20.967c15.3-5.199 74.532-24.885 114.707-32.026"
  />
  <path
    fill="#DCEDF1"
    d="M181.617 531.622c6.43-1.222 23.51-4.467 28.261-7.899 3.366-2.43 3.298-3.523 3.097-6.765-.009-.153-.016-.33-.026-.489-11.527 2.722-24.382 6.095-37.344 10.141-.009.154-.012.308-.043.464-.165.902-.196 3.066.762 4.018.836.832 2.714 1.019 5.293.53"
  />
  <path
    fill="#000"
    d="M135.867 566.862a3.4 3.4 0 0 0 4.456 2.557c.746-.26 75.126-26.1 120.581-33.575a3.4 3.4 0 0 0 2.811-3.856l-4.196-28.124a3.4 3.4 0 0 0-1.341-2.231 3.38 3.38 0 0 0-2.527-.629c-.721.108-72.697 11.099-123.252 34.704a3.4 3.4 0 0 0-1.898 3.734zm39.695-39.788c.031-.156.034-.31.043-.464 12.962-4.046 25.817-7.419 37.345-10.141.009.159.016.336.025.489.201 3.242.269 4.335-3.097 6.765-4.751 3.432-21.831 6.677-28.261 7.899-2.579.489-4.457.302-5.293-.53-.958-.952-.927-3.116-.762-4.018m-6.878 1.76c.086 2.108.669 4.882 2.796 7.031 1.86 1.879 4.409 2.822 7.606 2.822q1.77 0 3.801-.385c12.982-2.466 25.72-5.272 30.973-9.067 6.402-4.624 6.137-8.913 5.902-12.697q-.05-.793-.077-1.623c15.564-3.501 27.946-5.697 33.616-6.644l3.197 21.43c-40.175 7.141-99.407 26.827-114.707 32.026l-4.103-20.967c9.803-4.439 20.361-8.409 30.996-11.926"
  />
  <path
    fill="#000"
    d="M301.204 735.189c10.81 6.292 23.361 9.63 35.892 9.407 4.43-.294 4.274-6.707-.151-6.794-3.648.036-7.646-.386-11.285-.96-7.457-1.223-14.793-3.495-21.478-7.016-3.497-1.656-6.343-4.202-10.106-5.69-1.919-.829-3.798 1.55-2.531 3.235 2.493 3.444 6.079 5.741 9.659 7.818"
  />
  <path
    fill="#000"
    d="M701.091 259.959c.018.017.03.038.048.054q.339.315.801.529c.309.14.659.242 1.052.294 1.017.05 2.104.196 3.156.463a12 12 0 0 1 1.291.403c.72.27 1.401.608 1.995 1.033.53.379.994.824 1.362 1.343.369.52.642 1.113.792 1.79.043.495.172.922.364 1.283.191.361.446.657.741.887.444.345.978.545 1.53.604a3.3 3.3 0 0 0 1.102-.068c.72-.169 1.38-.583 1.802-1.23.316-.486.498-1.103.471-1.847a10.5 10.5 0 0 0-1.433-4.267c-.14-.238-.272-.479-.428-.707q-.51-.747-1.109-1.385c-2.791-2.982-6.944-4.258-10.923-4.601a4 4 0 0 0-.75.001c-1.18.119-2.005.8-2.437 1.674a3.4 3.4 0 0 0-.34 1.673l-.001.031q.016.284.081.561c.13.552.407 1.069.833 1.482"
  />
  <path
    fill="#000"
    d="M728.737 281.184c.453.417 1.068.717 1.854.823 2.774.136 6.076.964 7.708 3.123a4.9 4.9 0 0 1 .887 1.908c.044.495.172.922.364 1.284.331.624.852 1.05 1.445 1.286 1.358.541 3.099.086 3.842-1.282q.124-.227.208-.487a3.4 3.4 0 0 0 .151-1.172c-.022-.247-.077-.485-.118-.727a10 10 0 0 0-.494-1.885 11 11 0 0 0-.982-1.922c-.091-.145-.17-.298-.267-.44-2.371-3.484-6.322-5.154-10.32-5.779a25 25 0 0 0-1.712-.206c-3.166-.29-4.343 3.082-2.964 5.023q.173.244.398.453"
  />
  <path
    fill="#FFFBE8"
    d="M317.48 327.787a3.4 3.4 0 0 1-4.568-.279c-1.098-1.129-2.765-1.11-3.546-.66-.262.151-.51.292-.281 1.117a3.4 3.4 0 0 1-2.566 4.234c-.313.066-1.267.271-1.416 1.611-.127 1.145.458 2.709 2.044 3.442a3.396 3.396 0 0 1 1.601 4.639c-.395.77.017 1.556 1.225 2.338 1.75 1.134 3.413.957 3.592.734a3.4 3.4 0 0 1 5.915 1.159c.025.084.1.337.887.417 1.329.145 2.71-.484 3.156-.947a2.5 2.5 0 0 0-.28-.351 3.4 3.4 0 0 1 2.354-5.71c1.506-.061 1.779-1.232 1.827-1.59.078-.586-.029-1.642-1.624-2.148a3.4 3.4 0 0 1-2.112-1.935 3.4 3.4 0 0 1 .115-2.861c.502-.977-.448-1.959-1.06-2.458-1.48-1.208-3.914-1.837-5.263-.752"
  />
  <path
    fill="#FFFBE8"
    d="M465.398 285.797a3.4 3.4 0 0 1 1.6 4.64l-.003.004c.277.506 1.546 1.093 2.191 1.039a3.42 3.42 0 0 1 3.12-.996 3.4 3.4 0 0 1 2.488 2.037c.23.021.549-.019.843-.1a3.402 3.402 0 0 1 2.838-5.04c.168-.006.423-.016.47-.373.018-.134.052-.387-.56-.581a3.4 3.4 0 0 1-1.996-4.796c-.02-.183-.515-.844-1.49-1.217-.548-.21-1.336-.335-1.753-.002a3.4 3.4 0 0 1-4.568-.28c-.374-.384-.902-.447-1.231-.402a3.4 3.4 0 0 1-2.601 4.091c-.183.039-.283.06-.32.387-.041.376.108 1.19.972 1.589"
  />
  <path
    fill="#6DB5C3"
    d="M182.908 865.885c.974 3.967 3.035 7.429 5.801 10.152q4.977-1.687 10.11-3.382a28.7 28.7 0 0 1-7.162-13.02l-69.47-252.229c-2.836 9.87-7.226 23.906-7.919 24.335 0 0 68.628 234.095 68.64 234.144"
  />
  <path
    fill="#6DB5C3"
    d="M603.413 846.55c-7.351 20.727-16.072 49.633-20.932 76.654h186.101c7.713-18.514 19.287-37.634 28.354-51.368-65.728-15.86-140.982-22.508-193.523-25.286"
  />
  <path
    fill="#6DB5C3"
    d="M192.835 907.396c4.427 5.278 8.205 10.667 10.611 15.808h184.521c-4.854-21.435-11.451-41.547-17.637-57.737-84.294 9.057-158.194 34.796-177.495 41.929"
  />
  <path
    fill="#6DB5C3"
    d="M813.918 859.242c-4.006 5.497-12.928 18.109-21.956 33.291 21.175 2.107 62.265 10.662 102.118 18.961 21.601 4.497 42.007 8.746 58.035 11.71h43.189c-22.463-9.878-69.934-29.647-131.679-49.231a1364 1364 0 0 0-49.707-14.731"
  />
  <path
    fill="#6DB5C3"
    d="M166.704 890.909c-37.185 13.34-65.65 25.299-81.56 32.295h110.649c-6.568-11.589-20.225-24.555-29.089-32.295"
  />
  <path
    fill="#6DB5C3"
    d="M386.613 891.807c22.718-3.717 122.03-6.121 196.79-3.514 7.657-28.798 17.299-55.192 22.7-67.203-21.764-1.765-43.8-2.755-65.879-2.755-60.197 0-120.093 7.332-174.947 17.803 6.464 13.445 14.453 33.2 21.336 55.669"
  />
  <path
    fill="#3F8C9B"
    d="M188.008 901.94c14.677-5.537 91.372-33.272 179.752-43.036-3.519-8.778-6.791-16.09-9.395-21.426-53.849 10.616-102.564 24.133-141.542 36.495a1421 1421 0 0 0-42.799 14.332c4.603 4.126 9.467 8.772 13.984 13.635"
  />
  <path
    fill="#3F8C9B"
    d="M388.564 898.354a407 407 0 0 1 6.368 24.85h180.644c1.633-9.275 3.73-18.797 6.084-28.168-77.033-2.61-171.766.087-193.096 3.318"
  />
  <path
    fill="#3F8C9B"
    d="M605.838 839.87c53.383 2.894 129.187 9.747 195.136 25.948a448 448 0 0 1 5.935-8.487c-56.06-15.133-123.251-29.356-193.602-35.629-1.858 3.824-4.483 10.141-7.469 18.168"
  />
  <path
    fill="#3F8C9B"
    d="M788.187 899.028c-4.406 7.775-8.665 16.014-12.215 24.176h141.093a9390 9390 0 0 1-24.371-5.053c-39.891-8.307-84.959-17.691-104.507-19.123"
  />
  <path
    fill="#000"
    d="M1012.52 923.538c-.59-.281-59.51-28.34-146.724-56.01-40.923-12.983-92.527-27.232-149.557-38.107 3.244-3.783 6.212-8.039 8.941-12.616 5.406-9.096 9.914-19.67 13.355-30.583 12.38-7.475 26.982-17.678 21.252-28.236a70.5 70.5 0 0 0-10.672-14.744c3.66-11.006 8.776-21.714 13.562-30.548 32.046 10.249 60.208 20.851 72.492 25.596a9.5 9.5 0 0 0 3.437.643 9.53 9.53 0 0 0 8.717-5.693l26.108-59.143a9.55 9.55 0 0 0 .002-7.696 9.58 9.58 0 0 0-5.698-5.202c-44.759-15.063-89.292-27.682-106.361-32.407a9.496 9.496 0 0 0-11.636 6.33l-18.253 57.97a9.47 9.47 0 0 0 .688 7.372 9.44 9.44 0 0 0 5.726 4.647 954 954 0 0 1 18.13 5.48c-4.309 8.047-8.814 17.538-12.338 27.462-8.558-7.371-16.764-10.972-20.07-12.23l-36.618-82.696c.373-.443.723-.859 1.027-1.183 7.888-9.467 14.287-20.162 19.349-31.359 12.33-26.677 18.084-56.53 15.482-85.864 10.486 6.424 21.382 12.083 32.663 17.077 7.945 3.401 16.349 6.599 25.198 7.915 2.786.341 5.836.769 8.629.969 21.292 2.173 39.385-2.285 54.747-17.97 11.078-12.027 14.132-29.269 13.3-45.068-.691-8.58-2.744-21.659-10.835-26.937l2.197-2.257c.87.715 1.88 1.321 3.059 1.77 4.855 1.852 9.474 3.388 14.393 3.387 3.134 0 6.392-.623 9.91-2.186 8.223-3.651 26.54-27.926 26.54-37.088 0-1.27.097-2.718.2-4.251.366-5.448.781-11.622-2.975-15.067-.938-.86-2.051-1.454-3.316-1.804a44.3 44.3 0 0 0-1.017-10.16 7.2 7.2 0 0 0-5.019-5.359 7.22 7.22 0 0 0-7.126 1.829c-3.425 3.428-9.494 9.426-17.176 17.02-18.858 18.64-45.306 44.783-65.43 65.233-3.619.008-7.264-.326-10.765-1.05-2.538-.555-4.699-1.203-6.656-2.659-14.647-10.128-28.622-21.308-41.947-33.109-2.851-2.543-8.788-8.786-9.174-9.244-1.388-1.61-3.966-4.179-1.791-5.787 20.294-13.732 37.394-44.193 48.292-65.9 1.167-2.457 2.377-4.9 3.565-7.354a25.8 25.8 0 0 0 5.374 2.332c1.048.321 2.111.566 3.184.756l-4.923 19.976a3.4 3.4 0 0 0 3.254 4.213l11.684.164-5.354 30.619a3 3 0 0 0-.037.282c-.145 1.609.792 3.474 3.212 4.015.187.042 1.104.103 2.4.103 3.904 0 11.247-.561 12.476-3.928q.057-.155.098-.314l12.464-48.14a3.4 3.4 0 0 0-.704-3.058 3.38 3.38 0 0 0-2.906-1.18l-12.127 1.142.821-6.37c11.248-4.253 21.293-11.046 29.705-19.592 5.583-6.251 10.155-13.804 12.65-21.934 35.601 7.427 75.419 16.549 110.452 26.526a3.4 3.4 0 0 0 1.239.116l13.651-1.251c2.56-.329 2.849-2.411 2.851-2.417l3.972-13.646a3.4 3.4 0 0 0-2.379-4.233c-.317-.085-8.778-2.357-22.693-5.882l22.636-73.957a3.4 3.4 0 0 0-2.162-4.216c-68.384-23.134-171.32-40.135-172.352-40.304a3.403 3.403 0 0 0-3.877 2.655l-16.289 77.409-3.312.728-.089.017c-10.063-15.877-30.961-29.513-47.015-37.556-9.098-4.419-18.805-7.783-28.809-9.446a87 87 0 0 0-3.089-.464c-.088-.487-.189-.971-.274-1.446l-1.064-5.466c-1.49-7.309-3.145-14.558-5.291-21.728-1.98-6.065-6.944-24.138-16.115-17.115-1.702 1.59-2.364 3.112-3.305 4.972-4.148 8.104-10.662 14.566-16.94 21.413-10.064 10.709-20.659 21.191-29.131 33.969-7.759 11.887-11.643 24.953-5.233 35.573-10.93 12.584-20.622 26.296-28.089 41.232a67 67 0 0 0-2.528 5.367c-7.09-19.358-12.846-39.339-16.34-59.63-.651-4.267-1.347-9.014-1.088-13.183l1.578-13.92c.834-10.771 4.113-29.892-2.636-39.357 10.642-7.906 14.509-18.978 10.922-32.098-.76-2.783-3.929-10.543-9.778-15.106-8.467-7.724-20.993-11.124-25.143-12.079-2.706-3.54-11.739-13.81-27.041-16.264-8.322-1.335-15.384.176-20.994 4.486-8.19 6.29-10.61 16.637-11.231 20.318-15.436 14.341-30.626 31.497-38.014 42.965a10.47 10.47 0 0 0-1.529 7.282c.863 7.241 1.85 15.432 7.025 18.264 18.429 10.082 34.541 20.033 45.597 27.147-.314 4.802-.067 9.643.243 14.306 1.09 14.079 2.733 28.041 3.652 42.085 2.072 31.366 5.394 81.032 7.384 112.403l.04.491c-4.027 1.748-8.021 3.577-11.96 5.551-20.325 9.861-37.006 24.325-49.841 41.644-11.812-13.689-40.461-12.696-55.465-11.086a426 426 0 0 0-.638-14.202 230 230 0 0 0-.979-11.213l7.503-1.184a9.8 9.8 0 0 0 6.444-3.942 9.8 9.8 0 0 0 1.768-7.345l-1.876-11.894c-.849-5.375-5.915-9.063-11.288-8.211l-8.226 1.298c-.324-1.286-.643-2.572-.988-3.852-3.723-13.788-16.365-23.222-30.702-22.938-15.046.297-38.708 1.372-65.994 4.813-34.335 4.329-56.951 8.671-69.878 11.551-6.736 1.5-12.54 5.133-16.796 10.088-2.632-14.599-4.155-23.97-4.198-24.24a3.404 3.404 0 0 0-3.509-2.854c-.493.022-8.579.419-21.692 2.808l-4.131-28.905c3.276-2.676 10.06-9.47 14.511-22.571 5.189-15.274 3.384-38.493-7.574-48.713-4.297-4.01-11.856-7.764-23.45-2.901-6.173 2.589-10.955 7.068-14.503 12.545a4 4 0 0 0-1.057.052c-2.796-1.721-6.193-2.344-10.293-2.017-16.395 1.31-39.088 12.935-48.685 30.121-4.67 8.363-2.978 23.737 3.935 35.761 6.365 11.071 15.912 17.275 26.882 17.471 5.693.102 11.548 11.443 15.982 22.353-8.019 2.847-12.891 4.921-13.253 5.076a3.4 3.4 0 0 0-1.99 3.816 944 944 0 0 0 2.192 10.259l-.202.085a3.4 3.4 0 0 0-1.99 3.816c9.943 47.866 22.182 88.089 30.462 112.814-19.591 6.809-33.583 12.747-41.332 16.254a9.9 9.9 0 0 0-3.199 2.312c-1.45 1.074-3.759 4.629-9.362 22.178-2.962 9.279-6.35 20.924-5.667 23.708q.018.074.04.145l86.312 294.414a28.2 28.2 0 0 0 5.384 10.845c-68.785 23.686-113.268 44.867-113.775 45.111a3.399 3.399 0 0 0 1.468 6.466h941.65a3.39 3.39 0 0 0 3.31-2.647 3.39 3.39 0 0 0-1.84-3.819M739.8 698.582a2.7 2.7 0 0 1-1.631-1.326 2.72 2.72 0 0 1-.198-2.121l18.253-57.97a2.727 2.727 0 0 1 3.335-1.821c17.015 4.712 61.407 17.291 106.007 32.3.745.25 1.329.783 1.645 1.5a2.7 2.7 0 0 1 0 2.207l-26.109 59.143a2.73 2.73 0 0 1-3.483 1.452c-12.177-4.704-39.879-15.134-71.555-25.307a261 261 0 0 1 4.034-6.758c4.4 1.348 8.017 2.469 10.847 3.354a11.7 11.7 0 0 0 11.783-2.863 11.73 11.73 0 0 0 5.885-6.659l9.018-25.619a11.7 11.7 0 0 0-.503-9.024 11.68 11.68 0 0 0-6.757-6.003 385 385 0 0 0-12.593-4.097c-4.756-1.461-9.262-2.698-13.392-3.677a11.7 11.7 0 0 0-11.014 3.075 11.72 11.72 0 0 0-6.161 7.571l-6.953 26.418a11.68 11.68 0 0 0 1.271 9.021 11.67 11.67 0 0 0 7.328 5.403c1.455.353 2.935.738 4.426 1.139a269 269 0 0 0-3.893 6.598 966 966 0 0 0-19.59-5.936m23.728-10.606a4.92 4.92 0 0 1-3.092-2.278 4.93 4.93 0 0 1-.534-3.808l6.953-26.418a4.93 4.93 0 0 1 4.782-3.703q.584-.001 1.178.14c3.988.946 21.428 6.236 25.337 7.586a4.93 4.93 0 0 1 2.853 2.533 4.93 4.93 0 0 1 .212 3.808l-9.019 25.62a4.943 4.943 0 0 1-6.158 3.09c-2.881-.9-18.795-5.668-22.512-6.57m43.381 169.354a452 452 0 0 0-5.935 8.488c-65.949-16.201-141.753-23.055-195.136-25.948 2.986-8.027 5.611-14.344 7.469-18.168 70.351 6.273 137.542 20.495 193.602 35.628m-255.38-96.011c9.03 9.629 11.509 21.071 14.095 33.01.219 1.009 2.976 12.993 4.803 17.801-8.6-.333-17.222-.53-25.853-.58zm54.574 59.771c-5.401 12.011-15.043 38.404-22.7 67.203-74.76-2.608-174.072-.203-196.79 3.513-6.883-22.468-14.872-42.223-21.336-55.668 54.854-10.471 114.75-17.803 174.947-17.803 22.079 0 44.115.99 65.879 2.755m113.937-8.803c-.868 1.509-2.655 4.352-2.655 4.352-2.812 4.345-5.778 8.118-8.888 11.329-41.476-7.617-85.655-13.365-130.566-15.512-2.169-4.813-5.355-18.151-5.661-19.567-2.877-13.282-6.083-28.043-19.593-39.857l9.342-67.479c8.711.684 17.473.645 26.116-.079 3.546-.274 7.079-.678 10.597-1.17.058.151.113.304.194.449l47.084 84.89c.98 2.047 13.085 26.936 27.513 39.034 1.632 1.368 3.902 2.062 6.912 2.062 5.644-.001 13.889-2.437 25.405-7.419 11.82-5.113 23.469-11.596 23.689-11.732-2.528 6.929-5.65 14.026-9.489 20.699m172.509-402.541c.778-.121 2.169-.244 2.742.281 1.348 1.236 1.01 6.269.786 9.6-.106 1.577-.215 3.209-.215 4.706 0 6.05-15.981 27.979-22.5 30.874-6.132 2.722-11.051 1.738-19.12-1.34-1.66-.634-1.945-1.544-2.005-2.434-.201-2.965 2.591-7.185 4.384-8.163.689-.376 1.521-.736 2.403-1.118 4.181-1.809 10.5-4.542 12.466-14.48 1.447-7.318 13.055-7.965 13.172-7.971q.204-.01.405-.043c5.215-.873 4.85-5.64 4.73-7.206-.16-2.084-.173-2.254 2.752-2.706m-21.536 1.631c7.691-7.602 13.766-13.607 17.206-17.049a.38.38 0 0 1 .281-.127.5.5 0 0 1 .133.019c.23.068.266.232.282.302.524 2.369.923 5.375.846 8.865-7.325 1.894-6.911 7.412-6.744 9.585l.003.049c-4.086.461-16.102 2.714-18.201 13.331-1.273 6.435-4.62 7.883-8.495 9.56-.982.425-1.998.864-2.959 1.388-4.052 2.21-8.296 8.92-7.913 14.592.005.062.02.12.025.181l-11.129 11.436a15 15 0 0 0-1.932-1.015c-3.852-1.67-8.114-1.617-11.943-.9 17.511-17.569 36.795-36.631 50.54-50.217m-73.501 89.981-11.932 12.26-.073.077a.48.48 0 0 1-.317.137.4.4 0 0 1-.312-.149l-6.494-7.673a.41.41 0 0 1-.012-.528c2.401-3.08 8.4-9.521 16.437-17.832a23 23 0 0 0-.102 2.687c.095 3.992 1.203 7.7 2.805 11.021m20.849-141.622-10.854 41.922c-1.183.286-3.053.557-4.642.694l5.42-30.998a3.397 3.397 0 0 0-3.301-3.985l-11.396-.16 8.416-34.155c1.143-.268 2.822-.565 4.317-.775l-3.186 24.724a3.4 3.4 0 0 0 .927 2.796 3.38 3.38 0 0 0 2.763 1.023zm159.9-43.21-2.056 7.064c-38.762-10.891-82.903-20.72-120.654-28.392.025-.396.061-.791.075-1.189.12-2.089.078-4.227 0-6.355 57.283 11.858 109.198 25.327 122.635 28.872m-54.317-86.457c15.062 0 27.316 12.254 27.316 27.316 0 15.063-12.254 27.317-27.316 27.317s-27.317-12.254-27.317-27.317c0-15.062 12.255-27.316 27.317-27.316m-76.619-15.382c13.144 0 23.836 10.693 23.836 23.836 0 9.439-5.514 17.613-13.491 21.472.464-3.279.859-6.568 1.086-9.869 3.003-2.958 4.87-7.065 4.87-11.603 0-8.988-7.313-16.301-16.301-16.301s-16.3 7.313-16.3 16.301c0 4.849 2.139 9.197 5.51 12.186a206 206 0 0 1-7.419 3.172 23.73 23.73 0 0 1-5.626-15.358c0-13.143 10.692-23.836 23.835-23.836m-381.666-23.069a3.66 3.66 0 0 1-1.813-2.331 3.6 3.6 0 0 1 .468-2.865c7.249-11.251 22.437-28.319 37.795-42.47a3.42 3.42 0 0 0 1.077-2.147c.012-.111 1.281-11.211 8.831-16.981 4.064-3.107 9.36-4.164 15.744-3.139 15.131 2.426 23.21 14.352 23.285 14.463a3.4 3.4 0 0 0 2.205 1.476c.238.046 23.876 4.73 28.428 18.299 1.103 3.29.328 7.663-2.129 12-3.182 5.617-8.492 9.946-14.047 11.52-.27-1.956-.879-3.785-1.832-5.445-6.038-10.515-6.264-14.997-6.464-18.952-.198-3.929-.386-7.64-5.51-14.195-2.407-3.08-19.783-11.994-30.952-8.294-4.017 1.331-8.85 4.807-9.062 13.809-.226 9.605-9.177 14.684-17.834 19.596-8.228 4.668-16.736 9.496-16.192 18.466.639 10.563 14.689 12.462 28.276 14.299 10.27 1.388 21.911 2.962 24.829 7.933 1.419 2.419 3.405 3.985 5.755 4.708a674 674 0 0 0-9.391 12.45 4.674 4.674 0 0 1-6.369 1.137c-10.031-6.681-30.528-19.896-55.098-33.337m79.046 11.74c-3.957 2.3-6.675 2.251-8.079-.14-4.593-7.825-17.398-9.555-29.782-11.23-10.358-1.4-22.098-2.987-22.4-7.972-.268-4.419 4.642-7.534 12.761-12.14 9.338-5.298 20.959-11.892 21.276-25.35.123-5.203 2.305-6.683 3.937-7.343 1.173-.474 2.621-.71 4.293-.71 2.695 0 5.969.612 9.612 1.817 5.396 1.787 9.328 4.134 10.076 4.825 3.74 4.805 3.844 6.868 4.016 10.273.227 4.486.509 10.067 7.359 21.996 4.004 6.972-4.099 20.767-13.069 25.974M478.6 439.967c14.813-14.41 33.169-24.8 52.566-31.92 9.822-3.74 19.793-7.282 29.544-11.31 8.402-3.403 17.081-7.48 23.523-13.986a35.4 35.4 0 0 0 3.435-3.994 1.29 1.29 0 0 0-1.88-1.724c-2.572 2.052-5.628 3.763-8.645 5.39-4.166 2.244-8.456 4.041-12.808 5.692-5.263 1.996-10.62 3.776-15.985 5.826-6.935 2.586-13.87 5.189-20.73 7.99-1.313-19.074-4.296-64.715-5.465-82.454-1.029-16.54-2.594-40.026-4.249-56.268-.679-7.75-1.615-15.686-1.557-23.441.83.548 1.614 1.067 2.336 1.548a11.43 11.43 0 0 0 6.355 1.929 11.47 11.47 0 0 0 9.265-4.703c11.532-15.709 30.714-39.193 34.085-41.75a59 59 0 0 0 5.706-2.645 8 8 0 0 1 1.216 1.938c2.437 5.871 1.914 12.68 1.66 19.2-.273 4.591-.726 9.224-1.222 13.863l-1.591 14.065c-.202 2.758-.012 5.191.198 7.646 1.886 16.595 6.269 32.747 11.142 48.651 2.838 9.032 6.034 17.971 9.69 26.721a64.7 64.7 0 0 0-1.888 13.986 62.3 62.3 0 0 0 2.306 18.417c.904 3.098 2.272 6.048 4.193 8.702a1.555 1.555 0 0 0 2.814-.969 40 40 0 0 0-.151-2.087c-.515-5.41-2.001-10.419-2.424-15.835a56.2 56.2 0 0 1 1.089-17.478c2.519-11.754 8.966-22.185 15.202-32.32 6.577-10.243 14.124-19.893 22.283-28.998 6.764-7.567 14.197-14.544 21.392-21.705a364 364 0 0 0 4.375-4.416c.772-.73.94-1.947.293-2.871-.678-.969-2.056-1.163-3.064-.545-2.87 1.762-5.583 3.699-8.19 5.752-6.992 5.503-13.175 11.893-19.246 18.361l-1.269-3.198a8.1 8.1 0 0 1-.571-2.786c-.635-24.469 45.747-58.12 53.549-77.338.378-.864 1.087-2.095 1.616-2.556l.005.001c5.768 5.079 10.437 27.497 12.328 35.652 0 0 1.091 5.4 1.076 5.417-2.26-.028-4.547.148-6.877.684-.96.229-1.389.998-1.371 1.763.02.863.609 1.722 1.675 1.798q1.735.27 3.48.548c8.19 1.311 16.497 2.843 24.28 5.843 23.252 8.384 51.49 27.795 63.647 49.587.47.882.954 1.996 1.333 2.944.231.731.753 1.374 1.602 1.401 2.098.018 1.74-2.431 1.629-3.771-.321-2.814-1.226-5.57-2.42-8.142l1.968-.398a281 281 0 0 0 20.658-5.198c14.464-4.238 28.728-9.619 42.002-16.871-.249 5.224-1.391 10.441-2.042 15.759-.654 4.684-1.316 9.378-1.481 14.349-.073 4.87.452 9.291.187 13.98-.332 8.918-3.836 17.097-8.939 24.37-5.437 7.839-16.393 16.673-28.011 21.587l1.346-10.451c.17-1.548-.752-3.367-2.844-3.851-1.23-.283-3.668-.119-7.244.489-4.942.84-6.827 1.502-7.561 3.544a4 4 0 0 0-.101.336l-3.347 13.585c-2.663-.302-5.191-1.029-7.521-2.23 2.097-4.668 3.937-9.437 5.071-14.469.522-2.399-2.764-3.695-4.057-1.661a89 89 0 0 0-3.742 6.366c-1.847 3.435-3.527 6.96-5.211 10.482-1.458 3.051-2.921 6.1-4.505 9.084-8.894 17.133-18.501 34.172-30.481 49.269-3.714 4.634-7.723 9.03-12.211 12.847-1.287 1.082-2.561 2.139-3.82 3.219q-1.318 1.131-2.611 2.319c-3.591-1.977-7.556-3.264-11.65-3.638-2.181-.133-2.92 2.952-.884 3.809 3.111 1.225 6.208 2.993 8.91 4.996.079.059.151.122.229.181 2.538 1.914 4.818 4.08 7.105 6.284 5.804 6.15 12.097 11.808 18.482 17.295 10.917 9.287 22.189 18.144 34.01 26.256 3.598 2.521 8.993 4.014 14.801 4.606-10.443 10.71-18.401 19.159-21.382 22.984-2.089 2.68-2.011 6.508.185 9.102l6.493 7.673a7.23 7.23 0 0 0 5.374 2.554l.137.001a7.22 7.22 0 0 0 5.287-2.303l10.679-10.973c4.58 6.208 9.977 10.078 10.364 10.351a3.395 3.395 0 0 0 4.732-.817 3.4 3.4 0 0 0-.81-4.737c-.136-.098-13.675-9.844-13.946-22.002-.143-6.448 3.557-12.684 10.999-18.534 3.077-1.726 11.608-5.318 17.223-2.877q.549.238 1.05.549c.115.071.219.161.33.238.213.147.429.288.629.456.123.103.233.227.351.339.174.164.353.32.516.501.117.13.222.282.334.421.149.186.304.365.444.568.109.156.204.334.307.501.129.21.263.412.383.637.098.184.184.389.276.584.11.233.225.458.327.706.087.211.161.443.241.665.094.257.191.507.277.78.073.236.135.494.203.741.07.254.147.495.21.762.316 1.329 1.338 2.391 2.588 2.717l.019.005a3.5 3.5 0 0 0 .779.087 3 3 0 0 0 .347-.021c.058-.006.116 0 .175-.01.062-.011.117-.036.178-.049a3.34 3.34 0 0 0 1.363-.647l.011-.008a3.39 3.39 0 0 0 1.211-3.412c-.013-.055-.031-.104-.043-.159-.094-.399-.206-.775-.314-1.157-.083-.297-.157-.606-.248-.894-.129-.405-.279-.784-.424-1.17-.095-.255-.18-.523-.282-.769-.172-.414-.365-.8-.555-1.191-.095-.194-.179-.401-.277-.589a20 20 0 0 0-.954-1.625l2.368-2.432c4.083.896 6.381 7.822 7.435 11.649 4.232 17.819 1.409 42.209-13.714 54.109-14.739 13.003-32.09 14.167-50.864 11.708-9.083-.924-17.901-4.555-17.901-4.555-24.927-12.21-41.727-33.889-46.333-40.312a12 12 0 0 1-1.798-3.741c-1.043-3.703-3.508-11.898-6.028-16.213a1.237 1.237 0 0 0-2.306.599 47 47 0 0 0 .197 4.901c.512 5.864 1.944 11.442 2.917 17.099 1.357 7.178 2.622 14.362 3.172 21.644 3.624 39.936-8.316 80.682-31.168 113.438-.79 1.111-2.411 3.27-3.274 4.33l-.569.771c-1.023 1.397-2.154 3.128-1.985 5.006.002.02-.002.04 0 .061.396 1.104 1.243 1.291 2.15 1.085l36.518 82.471a3.4 3.4 0 0 0 2.083 1.864c.215.068 21.6 7.095 33.733 29.452 1.408 2.597-1.109 6.058-5.085 9.546-3.09-5.017-6.771-9.774-11.05-13.84-1.64-1.455-3.42-2.852-5.493-3.746a1.88 1.88 0 0 0-1.975.24c-.738.585-.876 1.671-.4 2.483a52 52 0 0 0 3.397 5.069l3.647 4.895c2.238 3.032 4.174 6.12 6.402 9.158-4.589 3.245-9.602 6.197-12.849 8.108-1.965 1.157-3.667 2.159-5.077 3.049-1.015.559-11.244 6.156-22.229 10.906-21.397 9.251-25.062 6.492-25.207 6.369-13.59-11.395-25.667-36.588-25.787-36.84a4 4 0 0 0-.098-.19l-44.027-79.378c1.094-.413 4.483-1.915 10.461-6.48q.745-.569 1.545-1.203s1.673-1.179 2.884-2.07c1.003-.682.541-2.377-.658-2.48-2.461-.334-4.886-.271-7.296-.031-3.395.337-6.76 1.036-10.146 1.558-5.691.89-11.42 1.499-17.157 1.883-31.264 2.023-63.965-3.632-90.108-21.612-.888-.585-1.722-1.229-2.589-1.831-1.15-.799-2.365-1.519-3.841-1.94a9.5 9.5 0 0 0-1.323-.286 1.79 1.79 0 0 0-1.987 2.399c.567 1.515 1.468 2.676 2.526 3.685 3.619 4.251 14.715 16.925 21.804 21.101l-39.372 69.995q-.196.348-.306.733c-4.368 15.288-13.959 38.522-20.676 39.838-23.078 4.525-51.614 2.388-70.335-2.024l-.234-.561c1.387-2.361 4.026-6.82 4.685-8.223 2.103-3.328 4.093-6.465 5.792-10.01.736-1.604-1.147-3.305-2.678-2.388-3.603 1.929-6.086 5.361-8.537 8.469-.052.078-1.368 2.104-1.46 2.241-1.425 2.061-2.743 4.343-3.979 6.519l-.894 1.958c-4.625-1.47-8.218-3.082-10.349-4.728-1.463-1.13-1.564-1.756-1.559-1.779 7.003-23.198 27.659-40.278 27.865-40.446a3.4 3.4 0 0 0 1.019-1.4l49.587-127.124a100 100 0 0 0 2.075 4.033c3.579 6.344 7.863 12.753 14.473 16.306a1.603 1.603 0 0 0 2.071-2.328c-1.932-2.937-3.924-5.599-5.832-8.371-6.014-8.236-10.201-17.621-13.086-27.44-14.325-52.596-1.326-114.467 38.235-153.054m-41.767 161.966-3.611 9.257c-20.516-20.135-50.475-32.853-83.795-32.853-50.625 0-93.497 29.35-107.259 69.485l-20.071-4.979c16.405-47.738 67.798-82.672 128.498-82.672 30.374 0 58.415 8.752 80.912 23.473 1.315 6.226 3.068 12.349 5.326 18.289m-10.145-87.237c-4.015 0-7.79-1.564-10.629-4.403a14.93 14.93 0 0 1-4.403-10.628c0-4.016 1.564-7.79 4.403-10.629a14.93 14.93 0 0 1 10.629-4.404c4.015 0 7.789 1.564 10.628 4.404.444.443.844.916 1.225 1.403a167 167 0 0 0-6.718 23.342c-1.626.59-3.353.915-5.135.915m-177.59 136.418a4 4 0 0 0-.575-.883c12.748-37.567 53.155-65.094 100.904-65.094 32.616 0 61.81 12.844 81.101 32.959l-45.471 116.57c-3.168 2.718-15.878 14.228-24.298 30.691-3.724.345-7.504.527-11.332.527-39.563 0-74.084-18.899-92.011-46.748a4.1 4.1 0 0 0 1.791-2.861c4.543-33.253-9.508-63.874-10.109-65.161m2.275 71.166c19.061 30.021 55.866 50.405 98.054 50.405 2.738 0 5.452-.09 8.142-.259a71 71 0 0 0-1.886 5.4c-.437 1.448-.758 4.332 2.001 7.381 1.708 1.886 4.343 3.531 7.459 4.961-4.78.446-9.632.682-14.548.682-50.293 0-94.195-23.984-117.104-59.359zm152.515-274.653c16.517-1.833 43.108-1.941 51.224 10.129a150 150 0 0 0-4.467 7.07c-14.031-.336-29.534-.299-46.831.202.11-4.872.166-10.796.074-17.401m1.85-58.076a3.077 3.077 0 0 1 3.511 2.554L411.125 404a3.05 3.05 0 0 1-.55 2.284 3.05 3.05 0 0 1-2.004 1.226l-6.618 1.044-2.833-17.959zm-175.369-9.208c12.785-2.847 35.177-7.145 69.249-11.441 26.992-3.402 50.396-4.467 65.277-4.76q.247-.005.493-.005c11.02 0 20.647 7.307 23.511 17.915 3.985 14.761 6.481 29.899 7.42 44.994.935 15.015.912 28.71.689 38.203-8.278.29-16.944.681-26.05 1.187-42.884 2.383-81.529 7.614-115.297 14.07.247-1.376.22-2.8-.099-4.205l-13.947-63.704a10.55 10.55 0 0 0-2.905-5.192c.07-.44.065-.893-.043-1.336l-3.111-12.792c-.383-1.574-1.818-2.677-3.443-2.594-.399.017-6.823.304-17.92 2.046 3.244-6.153 9.042-10.796 16.176-12.386m.542 30.856a3.756 3.756 0 0 1 4.069 2.884l13.943 63.687.006.03a3.75 3.75 0 0 1-.485 2.853 3.75 3.75 0 0 1-2.368 1.669c-1.536.345-3.312.714-5.334 1.135-5.296 1.101-12.55 2.61-21.534 4.947a1122 1122 0 0 1-12.865 3.248c-5.768 1.431-10.748 2.666-15.074 3.928-1.887.549-3.76.389-5.275-.449-1.119-.62-1.955-1.584-2.237-2.578l-16.847-59.524c-.48-1.694.243-3.463 1.756-4.302 5.178-2.868 14.424-7.087 29.071-10.901 16.309-4.246 27.042-5.947 33.174-6.627M164.68 262.691c2.826-1.186 5.399-1.779 7.744-1.779 3.228 0 6.021 1.125 8.439 3.381 8.645 8.062 10.178 28.587 5.774 41.552-5.066 14.913-13.427 20.289-13.491 20.329a3.4 3.4 0 0 0-1.6 3.388l4.467 31.254a275 275 0 0 0-9.199 2.096l-2.06-30.75a3.4 3.4 0 0 0-2.577-3.074c-8.485-2.096-14.665-12.443-15.745-26.36-1.671-21.549 8.288-35.86 18.248-40.037m-18.585 78.956c.437-1.309 1.428-2.966 2.577-4.884.978-1.633 2.072-3.465 3.152-5.578 1.926 1.606 4.027 2.883 6.3 3.748l1.99 29.709a357 357 0 0 0-5.656 1.586c-5.454-12.532-8.837-22.223-8.363-24.581m-27.644 1.906c-11.449-.204-18.139-8.897-21.107-14.061-6.305-10.965-6.93-23.619-3.894-29.056 8.375-14.999 28.992-25.515 43.29-26.658.617-.05 1.263-.102 1.926-.102 1.201 0 2.456.176 3.69.838-1.606 4.678-2.839 9.034-3.752 13.08a4 4 0 0 0-1.264-.757c-1.05-.387-2.247-.374-3.371.034-2.369.858-3.69 3.229-2.962 5.239l5.51 18.813c.916 12.314 5.296 18.881 7.08 21.073q-.386.654-.759 1.274c-1.354 2.26-2.523 4.212-3.194 6.227-.594 1.781-1.815 5.482 8.276 28.689a357 357 0 0 0-7.166 2.304c-5.993-14.906-12.942-26.769-22.303-26.937m7.855 39.428c5.381-2.146 18.757-7.223 35.817-11.838 19-5.141 33.563-6.879 39.57-7.423.817 4.887 2.585 15.257 5.089 28.852a32 32 0 0 0-.55 1.526c-3.918.73-8.222 1.611-12.89 2.681-19.262 4.414-35.576 11.831-36.261 12.144a3.4 3.4 0 0 0-1.888 3.896l2.212 9.096c-1.246.67-2.005 1.102-2.153 1.186a3.4 3.4 0 0 0-1.615 3.755l3.111 12.792a3.4 3.4 0 0 0 1.871 2.268 10.6 10.6 0 0 0 .019 5.724l15.019 53.062a689 689 0 0 0-13.32 4.221c-7.544-21.319-22.284-66.23-34.031-121.942M111.001 531.02c12.21-5.525 40.083-17.149 81.103-28.644.357-.077 10.18-2.711 15.875-4.123 3.84-.953 16.168-4.091 17.701-4.467 40.122-9.317 89.17-17.421 145.655-20.561 29.347-1.631 54.178-2.084 75.588-1.675a158 158 0 0 0-6.046 12.893c-3.869-3.61-8.87-5.61-14.189-5.61a20.7 20.7 0 0 0-14.731 6.101 20.9 20.9 0 0 0-3.86 5.347c-6.877 8.176-6.482 20.431 1.21 28.123 4.061 4.06 9.395 6.091 14.73 6.091 2.031 0 4.061-.299 6.022-.887a173 173 0 0 0-1.915 28.699c.129 7.433.683 14.929 1.768 22.349-22.602-13.423-49.92-21.286-79.317-21.286-49.477 0-93.069 22.262-118.182 55.844-7.602 9.69-13.648 20.369-17.83 31.764l-5.146-1.276a4.1 4.1 0 0 0-4.891 2.691c-16.427 49.358 11.457 91.628 12.653 93.403a4.11 4.11 0 0 0 5.293 1.36l2.143-1.104c23.863 38.653 70.847 65.004 124.792 65.004 13.189 0 25.961-1.58 38.084-4.525 3.629.665 6.709 1.11 8.608 1.359a207 207 0 0 0 26.738 1.752c10.834 0 21.199-.889 30.193-2.651 13.041-2.558 23.54-36.446 25.795-44.258l42.831-76.146c10.756 4.154 22.08 6.872 33.572 8.286L537.71 811.544c-122.357.409-243.09 30.614-323.058 55.984q-4.25 1.349-8.41 2.698c-3.869-2.98-6.769-7.233-7.991-12.251l-71.834-260.819c7.356-3.709 15.019-7.068 22.65-10.168 44.808-18.116 92.373-29.868 140.039-37.639 3.166-.595 10.611-1.526 13.936-2.008 5.282-.688 13.403-1.943 18.613-2.487 6.006-.606 22.281-2.235 28.035-2.81 8.527-.5 24.232-1.572 32.819-2.006 3.231-.083 10.67-.239 14.091-.329 5.444-.197 13.533.003 18.792-1.205a1.654 1.654 0 0 0 .003-3.259c-5.21-1.024-13.679-.496-18.898-.508-5.618.127-13.291.046-18.898.401-6.419.344-22.023 1.143-28.324 1.484-7.284.642-23.231 2.106-30.61 2.772-4.16.528-12.223 1.567-16.42 2.099-3.296.452-10.856 1.307-14.064 1.886-51.309 7.997-102.599 20.532-150.432 41.018-4.469 1.947-8.829 3.902-13.179 6.052l-15.367-55.795a3.2 3.2 0 0 1 1.798-3.634m-14.354 40.616c.203-3.113 4.364-17.363 8.009-27.885l14.069 51.083-7.562 26.314zm17.621 60.105c.693-.429 5.083-14.466 7.919-24.335l69.47 252.229a28.7 28.7 0 0 0 7.162 13.019 1437 1437 0 0 0-10.11 3.383c-2.766-2.723-4.827-6.186-5.801-10.153-.012-.048-68.64-234.143-68.64-234.143m102.555 242.232c38.978-12.362 87.693-25.879 141.542-36.495 2.604 5.336 5.876 12.648 9.395 21.426-88.38 9.764-165.075 37.499-179.752 43.036-4.517-4.863-9.381-9.509-13.984-13.635a1418 1418 0 0 1 42.799-14.332M85.144 923.204c15.91-6.996 44.375-18.955 81.56-32.295 8.864 7.74 22.521 20.706 29.089 32.295zm118.302 0c-2.406-5.141-6.184-10.531-10.611-15.808 19.301-7.133 93.201-32.872 177.495-41.929 6.186 16.19 12.783 36.302 17.637 57.737zm372.13 0H394.932a406 406 0 0 0-6.368-24.85c21.33-3.231 116.063-5.928 193.096-3.318-2.354 9.371-4.451 18.893-6.084 28.168m6.905 0c4.86-27.021 13.581-55.927 20.932-76.654 52.541 2.778 127.795 9.426 193.523 25.286-9.067 13.734-20.641 32.854-28.354 51.368zm193.491 0c3.55-8.162 7.809-16.401 12.215-24.176 19.548 1.432 64.616 10.816 104.507 19.123a9390 9390 0 0 0 24.371 5.053zm176.143 0c-16.028-2.964-36.434-7.213-58.035-11.71-39.853-8.299-80.943-16.854-102.118-18.961 9.028-15.182 17.95-27.794 21.956-33.291a1364 1364 0 0 1 49.707 14.731c61.745 19.584 109.216 39.353 131.679 49.231z"
  />
</svg>
