<svg
  xmlns="http://www.w3.org/2000/svg"
  width="1080"
  height="1080"
  fill="none"
  viewBox="0 0 1080 1080"
>
  <path
    fill="#FFFBE8"
    d="M819.908 733.631c23.798 8.099 68.33 23.303 86.93 29.976q1.274.457 2.541.922c6.477 2.366 12.595 4.603 17.319 3.88 5.822-.887 11.505-5.53 12.669-10.349.765-3.166-.528-5.985-3.843-8.377-1.592-1.15-3.566-1.788-5.863-1.897a5.6 5.6 0 0 1-4.601-2.806 5.66 5.66 0 0 1-.137-5.444c2.752-5.357 8.783-18.733 5.37-27.217-1.246-3.097-3.683-5.233-7.45-6.529-16.011-5.507-31.679 3.358-37.673 7.424a5.7 5.7 0 0 1-5.704.398 5.57 5.57 0 0 1-3.139-4.716c-.502-8.362-5.582-12.723-15.099-12.962-7.885-.219-15.851 8.002-18.105 10.519a5.67 5.67 0 0 1-6.334 1.47c-1.623-.656-5.098-1.958-9.675-3.111a1289 1289 0 0 0-7.206 28.819"
  />
  <path
    fill="#64862A"
    d="M762.506 644.649a2219 2219 0 0 0-6.923 25.778c9.612.901 19.181 2.574 28.479 5.239a116 116 0 0 1 10.4 3.667 3.4 3.4 0 0 1 1.947 4.395c-.69 1.799-2.749 2.653-4.514 1.901-8.632-3.315-17.62-5.778-26.735-7.536-3.673-.776-7.376-1.345-11.087-1.867q-.597 2.305-1.194 4.631.2.03.4.063c3.36.605 6.688 1.325 9.978 2.175 3.266.919 6.637 1.496 9.579 3.491 1.742 1.133.912 3.969-1.148 3.998-3.422.213-6.502-.916-9.792-1.473-3.215-.609-6.429-1.191-9.656-1.62q-.507-.069-1.015-.135c-4.422 17.499-14.395 61.879-15.221 65.896 22.415 8.74 43.259 25.32 62.323 49.631 2.532-13.623 7.78-38.923 7.78-38.923 13.239-62.01 27.224-107.59 36.698-135.056-16.06 4.758-60.273 17.159-80.299 15.745m17.443 45.036a3.4 3.4 0 0 1 4.207-2.329l8.615 2.473a3.4 3.4 0 0 1-1.876 6.536l-8.616-2.473a3.4 3.4 0 0 1-2.33-4.207"
  />
  <path
    fill="#8CBA3B"
    d="M985.44 429.912c-4.446-1.131-7.666-4.982-8.012-9.583-.204-2.721-.318-5.685-.439-8.824-1.035-26.902-2.599-67.558-63.485-101.761-25.473-14.311-62.481-18.701-89.994-10.676-16.072 4.688-27.843 13.286-34.04 24.865-1.461 2.731-3.838 4.678-6.692 5.482-3.066.864-6.397.374-9.386-1.378-10.749-6.301-23.212-7.549-37.042-3.708-30.726 8.53-58.223 38.728-63.987 49.305-30.694 56.326-7.993 95.044 8.299 107.648 2.705 2.093 4.246 4.97 4.34 8.101.1 3.342-1.43 6.569-4.308 9.085-9.844 8.608-15.045 20.714-15.04 35.008.004 13.947 5.123 29.254 14.413 43.1 19.849 29.586 56.33 51.093 103.694 51.097 27.059.002 57.663-7.015 90.766-23.555a10.76 10.76 0 0 1 4.815-1.139c2.57 0 5.115.922 7.152 2.703 28.82 25.195 62.018 32.065 86.64 17.929 20.997-12.055 30.196-36.573 24.62-65.585-.991-5.151 1.896-10.278 6.866-12.191 13.17-5.073 22.61-30.826 21.03-57.409-1.82-30.7-16.85-52.574-40.21-58.514M760.001 555.217c-.318 4.889-3.243 9.158-7.561 11.362.031 4.452-2.833 8.393-7.892 10.526-4.3 1.812-9.73 2.006-13.478-.372-1.639 1.148-3.679 1.766-5.947 1.766q-.596 0-1.21-.057c-4.769-.445-10.62-3.669-12.07-8.767a7.8 7.8 0 0 1 .44-5.531c-2.926-2.202-4.654-5.7-4.487-9.598.17-3.992 2.493-8.298 7.264-10.182.155-3.952 2.59-7.651 6.789-9.992 4.941-2.754 11.863-3.33 16.799.231 4.52-1.948 10.006-1.351 13.687 1.727 2.785 2.33 3.96 5.636 3.361 9.08 2.961 2.267 4.565 5.808 4.305 9.807m34.247-43.892c-.208 3.205-1.994 6.034-4.677 7.674-.303 2.918-2.318 5.487-5.599 6.87-2.726 1.147-6.115 1.337-8.728.083-1.073.572-2.321.876-3.677.876q-.432 0-.877-.042c-3.359-.313-7.494-2.636-8.543-6.324-.324-1.143-.326-2.276-.025-3.349-1.663-1.599-2.611-3.858-2.505-6.342.134-3.127 1.855-5.705 4.522-7.06.375-2.558 2.053-4.887 4.767-6.399 3.226-1.8 7.692-2.235 11.102-.179 3.073-1.045 6.625-.527 9.072 1.518 1.883 1.576 2.786 3.74 2.615 6.03 1.782 1.648 2.724 4.01 2.553 6.644"
  />
  <path
    fill="#FFFBE8"
    d="M267.332 620.476a284 284 0 0 1-9.926-18.673c-17.72 8.079-27.999 25.291-31.986 33.295a6.72 6.72 0 0 1-5.631 3.707c-2.416.133-4.633-.998-5.94-3.027-4.816-7.47-10.737-10.018-16.572-10.018-4.819 0-9.58 1.737-13.613 3.875-10.641 5.639-15.03 22.161-16.122 27.091a6.68 6.68 0 0 1-5.652 5.166c-3.776.486-13.772 2.079-25.018 6.353-7.511 2.854-13.035 20.816-10.556 34.32.939 5.112 3.362 11.206 9.576 11.206 2.172 0 14.199-2.733 28.125-5.897 33.533-7.62 89.658-20.372 126.383-22.53 10.377-.609 19.103-2.701 25.15-5.971-19.303-16.606-35.531-36.91-48.218-58.897"
  />
  <path
    fill="#FFB921"
    d="M121.589 322.693c.389 11.245 5.135 21.665 13.361 29.342 8.226 7.675 18.941 11.676 30.196 11.299 11.245-.389 21.665-5.134 29.341-13.361s11.689-18.951 11.3-30.196c-.39-11.245-5.135-21.665-13.361-29.341-7.862-7.335-18.004-11.326-28.701-11.326q-.746 0-1.495.026c-23.213.804-41.445 20.343-40.641 43.557"
  />
  <path
    fill="#000"
    d="M114.793 322.928c.913 26.388 22.67 47.232 48.873 47.232q.855 0 1.715-.03c26.961-.933 48.136-23.627 47.202-50.588-.452-13.061-5.963-25.163-15.518-34.078s-22.004-13.576-35.07-13.124c-26.961.934-48.136 23.628-47.202 50.588m47.437-43.792q.749-.026 1.495-.026c10.697 0 20.839 3.991 28.701 11.326 8.226 7.676 12.971 18.096 13.361 29.341.389 11.245-3.623 21.969-11.3 30.196-7.676 8.227-18.096 12.972-29.341 13.362-11.255.376-21.97-3.625-30.196-11.3-8.226-7.677-12.972-18.097-13.361-29.342-.804-23.213 17.428-42.753 40.641-43.557"
  />
  <path
    fill="#000"
    d="M102.111 320.927a3.4 3.4 0 0 0 .204-6.793l-10.6-.651a3.4 3.4 0 0 0-.416 6.788l10.6.65q.106.006.212.006"
  />
  <path
    fill="#000"
    d="M220.384 324.786a3.4 3.4 0 0 0 3.185 3.602l10.811.664q.106.006.212.006a3.4 3.4 0 0 0 .205-6.793l-10.811-.664a3.4 3.4 0 0 0-3.602 3.185"
  />
  <path
    fill="#000"
    d="m89.243 292.772 16.28 6.859a3.4 3.4 0 0 0 2.64-6.266l-16.28-6.86a3.4 3.4 0 1 0-2.64 6.267"
  />
  <path
    fill="#000"
    d="M235.454 354.096a3.4 3.4 0 0 0 1.321-6.534l-16.279-6.86a3.4 3.4 0 1 0-2.64 6.266l16.279 6.86c.431.182.878.268 1.319.268"
  />
  <path
    fill="#000"
    d="M113.792 285.058a3.4 3.4 0 0 0 2.164.779 3.399 3.399 0 0 0 2.167-6.021l-8.596-7.103a3.4 3.4 0 1 0-4.331 5.242z"
  />
  <path
    fill="#000"
    d="M218.521 370.588a3.401 3.401 0 0 0 2.168-6.021l-8.597-7.103a3.401 3.401 0 0 0-4.331 5.243l8.597 7.103a3.38 3.38 0 0 0 2.163.778"
  />
  <path
    fill="#000"
    d="M126.078 272.605a3.395 3.395 0 0 0 4.719.921 3.4 3.4 0 0 0 .921-4.719l-9.867-14.654a3.4 3.4 0 0 0-5.641 3.798z"
  />
  <path
    fill="#000"
    d="M195.087 368.996a3.4 3.4 0 0 0-.921 4.719l9.868 14.654a3.395 3.395 0 0 0 4.719.921 3.4 3.4 0 0 0 .921-4.719l-9.867-14.654a3.4 3.4 0 0 0-4.72-.921"
  />
  <path
    fill="#000"
    d="m152.764 381.733-1.026 10.571a3.4 3.4 0 0 0 6.768.657l1.027-10.571a3.401 3.401 0 0 0-6.769-.657"
  />
  <path
    fill="#000"
    d="M167.597 264.117q.167.016.332.016c1.73 0 3.21-1.315 3.381-3.072l1.046-10.781a3.401 3.401 0 0 0-6.769-.657l-1.046 10.781a3.4 3.4 0 0 0 3.056 3.713"
  />
  <path
    fill="#000"
    d="M126.437 395.694a3.396 3.396 0 0 0 4.515-1.654l7.433-16.026a3.4 3.4 0 1 0-6.169-2.861l-7.433 16.025a3.4 3.4 0 0 0 1.654 4.516"
  />
  <path
    fill="#000"
    d="M185.16 269.083a3.4 3.4 0 0 0 4.515-1.653l7.433-16.026a3.4 3.4 0 0 0-6.169-2.862l-7.433 16.026a3.4 3.4 0 0 0 1.654 4.515"
  />
  <path
    fill="#000"
    d="M114.166 378.715c.938 0 1.872-.386 2.544-1.143l7.403-8.339a3.4 3.4 0 1 0-5.085-4.515l-7.403 8.339a3.4 3.4 0 0 0 2.541 5.658"
  />
  <path
    fill="#000"
    d="M202.502 279.219c.938 0 1.872-.386 2.544-1.143l7.403-8.339a3.401 3.401 0 0 0-5.085-4.515l-7.403 8.34a3.398 3.398 0 0 0 2.541 5.657"
  />
  <path
    fill="#000"
    d="M95.316 366.369c.613 0 1.235-.166 1.794-.514l14.994-9.342a3.401 3.401 0 0 0-3.596-5.772l-14.994 9.342a3.4 3.4 0 0 0 1.802 6.286"
  />
  <path
    fill="#000"
    d="M210.882 290.964a3.396 3.396 0 0 0 4.683 1.088l14.994-9.341a3.4 3.4 0 1 0-3.596-5.772l-14.993 9.342a3.4 3.4 0 0 0-1.088 4.683"
  />
  <path
    fill="#F295FF"
    d="M576.315 694.574c4.508-1.446 8.962-3.045 13.343-4.647 5.979-2.218 11.952-4.567 18.05-6.771l-19.326-49.976c-1.069.464-5.105 2.077-6.116 2.491.033.208.025.483-.034.849-1.103 6.912-5.652 16.012-10.593 24.298z"
  />
  <path
    fill="#fff"
    d="M671.956 664.31c1.308 1.081 2.826 1.161 3.867 1.041 2.258-.264 4.496-1.664 6.143-3.842 2.889-3.82 3.002-8.971.247-11.248-1.031-.852-2.193-1.083-3.149-1.083-.257 0-.499.017-.72.042-2.257.264-4.495 1.665-6.142 3.842-2.889 3.82-3.002 8.971-.246 11.248"
  />
  <path
    fill="#fff"
    d="M682.251 678.333c-2.889 3.82-3.002 8.972-.247 11.248 1.309 1.081 2.827 1.163 3.869 1.041 2.256-.264 4.495-1.664 6.142-3.842 2.889-3.82 3.002-8.971.246-11.248-1.031-.852-2.192-1.083-3.148-1.083-.257 0-.499.017-.72.042-2.257.264-4.496 1.664-6.142 3.842"
  />
  <path
    fill="#fff"
    d="M661.012 639.265c1.338 1.02 2.845 1.04 3.873.878 2.246-.355 4.43-1.851 5.993-4.106 2.737-3.95 2.651-9.115-.187-11.279-1.338-1.02-2.844-1.039-3.873-.878-2.245.355-4.429 1.851-5.992 4.106-2.738 3.95-2.652 9.115.186 11.279"
  />
  <path
    fill="#fff"
    d="M648.984 614.86c1.337 1.021 2.846 1.041 3.873.878 2.246-.355 4.43-1.851 5.992-4.106 2.738-3.95 2.653-9.115-.186-11.279-1.338-1.019-2.843-1.04-3.873-.878-2.245.355-4.43 1.852-5.993 4.107-2.737 3.95-2.651 9.115.187 11.278"
  />
  <path
    fill="#8CBA3B"
    d="m561.57 676.219 2.547 24.159a47 47 0 0 0 5.831-2.207l-3.938-28.433a274 274 0 0 1-4.44 6.481"
  />
  <path
    fill="#8CBA3B"
    d="M536.27 706.122c6.811 1.386 15.109 1.547 21.73 1.087l-1.825-17.31c-6.866 7.376-15.211 13.213-19.905 16.223"
  />
  <path
    fill="#F295FF"
    d="M627.232 546.255c6.483-9.848 12.067-13.564 15.546-14.957-.312-2.135-1.174-4.967-3.546-5.397-7.505-1.357-13.317 7.204-17.559 13.456-1.152 1.696-2.239 3.298-3.259 4.554-.954 1.173-1.893 2.322-2.861 3.304.515 5.339-.951 9.424-2.831 12.366 4.742-2.23 9.856-6.256 14.51-13.326"
  />
  <path fill="#F295FF" d="m575.935 549.048-.17.18.281-.067c-.065-.077-.111-.113-.111-.113" />
  <path
    fill="#F295FF"
    d="M399.75 679.609a3.4 3.4 0 0 1 3.795-.034l2.894 1.91a75 75 0 0 1 3.066-4.555c.793-1.085 2.289-2.425 4.917-2.648a10 10 0 0 1 .896-.032c2.795-5.629 6.108-10.895 10.077-15.634 4.897-5.626 11.115-10.294 18.13-12.998a2.241 2.241 0 0 1 1.769 4.118c-6.161 2.817-11.445 7.168-15.69 12.431-3.2 4.141-5.926 8.695-8.262 13.551 5.376 2.23 13.96 7.58 28.473 19.772 8.498 7.139 16.348 14.401 20.541 18.356 1.075-2.632 2.401-5.109 4.044-7.372 2.416-3.283 6.139-6.223 10.464-5.921 1.497.081 2.256 2.007 1.221 3.088-1.657 2.111-3.276 3.571-4.853 5.334-.147.281-.253.645-.114 1.009.109.282.391.639 1.04.994 3.802-.554 7.64-1.292 11.128-2.462 1.318-.44 4.552-1.546 5.818-1.97 3.096-1.225 6.241-2.502 9.315-3.879 24.172-10.607 47.685-27.204 57.226-52.716 8.759-25.045 9.282-53.62-.019-78.562-1.435-3.988 4.108-6.42 6.114-2.874 3.354-.191 11.459-1.476 24.057-8.557 6.642-3.733 10.259-8.811 9.923-13.932-.255-3.888-2.781-7.161-6.758-8.753-4.253-1.701-15.714.275-20.409 5.387-3.281 3.574-3.12 5.766-2.506 6.501a50 50 0 0 0 3.866-1.128q.02-.15.054-.301c1.128-4.993 7.602-7.013 12.804-7.226 1.424-.06 4.769-.196 5.673 2.685.488 1.553-.152 3.214-1.593 4.132-12.632 8.052-23.349 9.828-29.981 9.947 1.121 2.722 1.29 5.171-1.406 5.793a2.55 2.55 0 0 1-1.935-.537c-2.251-1.834-3.753-4.671-5.406-7.005-2.738-3.956-5.538-7.876-8.662-11.549-19.989-23.488-53.743-31.86-83.237-36.232-8.55-1.376-17.252-2.142-25.857-3.675-2.435 1.483-5.163 3.441-7.483 5.856a3.4 3.4 0 0 1-1.467 1.778c-.041.025-.086.042-.128.065a360 360 0 0 0-.437 9.577c-.375 7.287.164 18.285-1.326 25.413-.365 1.923-3.229 2.218-3.851.247-1.43-4.303-1.523-8.616-1.686-12.936a179 179 0 0 1 .117-12.947c.134-3.508.323-7.015.539-10.521l-46.204-16.176a563 563 0 0 0-2.706 19.454c-1.447 12.556-2.555 25.193-1.617 37.758.307 3.362.784 8.884 1.015 12.305.108 1.04-.682 1.983-1.733 2.036a1.85 1.85 0 0 1-1.705-.925c-2.295-4.01-3.205-8.501-3.628-12.875-1.175-13.028-.253-26.131 1.06-39.043.821-7.191 1.81-14.35 2.922-21.486-5.207-.903-16.569-10.853-21.908-15.755a60 60 0 0 1-4.399-3.654c-6.01-5.409-11.111-11.769-14.524-18.582-6.382-1.525-13.717-5.67-19.266-8.048a1557 1557 0 0 0-21.457-9.631c-12.337-5.389-24.71-10.752-37.222-15.508-4.751 4.161-8.889 8.971-12.069 14.477-2.851 5.088-4.858 10.289-8.514 15.113-7.532 10.715-20.407 13.686-32.822 13.185-3.594-.095-7.141-.403-10.657-.841 1.114.71 2.215 1.412 3.288 2.091 1.438.905 5.369 3.383 5.856 3.83 1.409 1.331 2.509 3.408 2.359 5.394-.295 19.472-.02 39.282-4.174 58.455-1.359 4.913-2.667 11.029-6.43 14.9 11.479 4.292 23.814 6.913 35.962 6.753 37.992-.968 74.982-19.646 99.24-48.779a147.4 147.4 0 0 0 13.099-18.571c.886-1.532 2.886-2.107 4.387-1.356 3.044 1.274 5.747 3.459 7.419 6.313 1.157 1.936-1.256 4.025-2.997 2.636-.971-.806-2.06-1.429-3.24-1.803a13 13 0 0 0-.793-.229c-24.097 37.398-65.365 63.393-109.78 67.405 0 0-.053.061-.111.168a1.2 1.2 0 0 0-.136.449c-.034.373.109.876.82 1.398.089.065.201.088.304.13 8.046 3.259 16.448 6.042 25.175 6.353 1.845.083 3.89.059 5.72-.11.998-.074 2.1-.234 3.034-.373 2.438-.35 3.423 3.088 1.188 4.087-4.247 1.762-8.939 2.535-13.73 2.479 1.222 6.959 6.658 22.183 14.363 37.193 21.956 39.337 53.737 73.255 95.34 91.702 6.863 3.154 13.988 5.46 20.904 8.747.304-2.49.743-5.407 1.378-8.476 2.451-11.823 6.52-19.756 12.094-23.578m85.037-146.782a3.884 3.884 0 0 1 4.632-.94c7.249 3.476 10.273 3.288 17.031-1.062a3.884 3.884 0 0 1 4.714.356 3.884 3.884 0 0 1 .941 4.632c-3.476 7.249-3.288 10.273 1.062 17.032a3.884 3.884 0 0 1-.357 4.713 3.885 3.885 0 0 1-4.633.941c-7.245-3.474-10.271-3.286-17.031 1.063a3.93 3.93 0 0 1-2.126.632 3.9 3.9 0 0 1-2.587-.99 3.885 3.885 0 0 1-.94-4.633c3.475-7.247 3.286-10.271-1.063-17.03a3.89 3.89 0 0 1 .357-4.714m-213.495-81.801a2.54 2.54 0 0 1-3.063 1.81c-2.002-.477-4.043-.92-6.075-1.308a9 9 0 0 1-.091.998c-.198 1.234-.633 2.354-1.257 3.238-.893 1.263-2.165 1.971-3.49 1.971q-.296 0-.593-.048c-2.548-.409-4.001-3.174-3.455-6.574.436-2.709 2.056-4.331 3.839-5.095.503-.215 1.012-.455 1.6-.418 3.761.428 7.166 1.401 10.787 2.318a2.54 2.54 0 0 1 1.798 3.108m24.36 8.116a2.54 2.54 0 0 1-3.062 1.809c-2-.475-4.037-.918-6.066-1.306a9 9 0 0 1-.1.997c-.198 1.234-.633 2.354-1.257 3.238-.893 1.262-2.165 1.971-3.49 1.971q-.296 0-.593-.048c-2.548-.409-4.001-3.174-3.455-6.574.198-1.234.633-2.354 1.257-3.238.682-.964 1.64-1.442 2.566-1.846.508-.221 1.021-.467 1.616-.429 3.76.428 7.165 1.401 10.787 2.318a2.54 2.54 0 0 1 1.797 3.108"
  />
  <path
    fill="#F295FF"
    d="M328.256 415.135a1.747 1.747 0 0 1 3.299.752c.209 3.196.048 6.314.242 9.195.153 8.611 1.475 17.338 5.315 25.112 7.218 14.147 20.476 24.604 35.557 29.161l2.571-19.337a3.4 3.4 0 0 1 3.146-2.945h.013c3.01-14.426 6.394-28.776 9.934-43.086a488 488 0 0 1-11.424-2.033c-14.32-2.775-43.538-10.834-43.635-10.849-7.256-1.078-14.572-1.786-21.922-1.63-6.397.115-12.801.839-19.071 2.177 11.94 4.987 23.219 10.965 34.349 17.471.427-1.365.95-2.681 1.626-3.988"
  />
  <path
    fill="#DB00F8"
    d="m195.488 478.94.065-5.254a6 6 0 0 0-.004-.412c-.092-.38-.464-.886-.789-1.168-5.243-3.016-11.512-6.26-17.102-9.469-.468 1.846-.538 4.452-.744 6.338-1.312 19.489-3.678 40.009-2.184 59.331.64 5.407 1.631 10.654 5.312 14.452.913.928 2.005 1.89 3.058 2.072.414.06 3.135-2.888 4.074-4.766 3.879-9.273 5.039-19.692 6.323-29.774a335 335 0 0 0 1.991-31.35m-7.342 19.581c-.176 2.469-.379 5.331-.587 8.563-.27 4.175-.604 9.35-5.134 9.35q-.158 0-.322-.009c-4.35-.224-4.248-4.119-4.129-8.63l.03-1.163c.113-4.469.727-19.275 3.884-22.199a4 4 0 0 1 2.919-1.072 4.05 4.05 0 0 1 2.748 1.33c1.456 1.647 1.374 2.8.591 13.83"
  />
  <path
    fill="#8CBA3B"
    d="M314.691 439.743c2.932 1.473 9.507 4.42 13.577 6.636a62.5 62.5 0 0 1-2.514-11.408c-.347-2.861-.554-5.781-.406-8.671a406 406 0 0 0-8.262-4.55c-9.804-5.277-19.95-10.358-30.261-14.354-4.934-1.844-10.031-3.727-15.141-3.999-3.205-.101-5.413 1.899-8.093 3.56-2.841 1.988-5.596 4.207-8.261 6.504 12.854 5.006 25.424 10.559 37.964 16.275a1565 1565 0 0 1 21.397 10.007"
  />
  <path
    fill="#F295FF"
    d="m466.313 738.7-58.471-4.944c-.255 2.69-1.328 16.911-1.622 21.193l60.469-5.361c-.136-2.178-.382-9.451-.376-10.888"
  />
  <path
    fill="#8CBA3B"
    d="M637.696 641.664a4.216 4.216 0 0 0-1.035 5.873 4.216 4.216 0 1 0 6.908-4.838 4.217 4.217 0 0 0-5.873-1.035"
  />
  <path
    fill="#8CBA3B"
    d="M625.647 636.092c-3.291 5.485-1.152 11.901-.897 12.614a3.387 3.387 0 0 0 4.323 2.056 3.41 3.41 0 0 0 2.088-4.323c-.387-1.125-1.08-4.552.332-6.874.977-1.607 2.953-2.642 5.872-3.075a3.4 3.4 0 1 0-.998-6.726c-5.043.748-8.65 2.877-10.72 6.328"
  />
  <path
    fill="#8CBA3B"
    d="M616.624 653.795c.498 0 1.003-.109 1.482-.34a3.41 3.41 0 0 0 1.588-4.532c-.022-.045-2.161-4.633-.897-9.607 1.386-5.447 4.977-12.326 14.223-14.17a3.4 3.4 0 1 0-1.33-6.669c-9.925 1.98-16.844 8.785-19.482 19.163-1.896 7.454 1.236 13.982 1.371 14.257a3.38 3.38 0 0 0 3.045 1.898"
  />
  <path
    fill="#FFFBE8"
    d="M492.609 552.206c4.573-2.149 8.397-2.389 13.202-.825-2.149-4.572-2.388-8.397-.824-13.201-4.571 2.15-8.397 2.388-13.201.824 2.149 4.572 2.387 8.397.823 13.202"
  />
  <path
    fill="#000"
    d="M485.493 554.571a3.886 3.886 0 0 0 .94 4.633 3.9 3.9 0 0 0 2.587.989c.731 0 1.468-.209 2.126-.631 6.76-4.349 9.785-4.538 17.031-1.064a3.884 3.884 0 0 0 4.633-.94 3.884 3.884 0 0 0 .357-4.713c-4.35-6.76-4.538-9.783-1.063-17.032a3.88 3.88 0 0 0-.94-4.632 3.88 3.88 0 0 0-4.714-.356c-6.758 4.35-9.783 4.538-17.031 1.062a3.88 3.88 0 0 0-4.632.94 3.886 3.886 0 0 0-.357 4.714c4.349 6.759 4.538 9.783 1.063 17.03m19.494-16.391c-1.564 4.804-1.325 8.629.824 13.201-4.805-1.564-8.629-1.324-13.202.825 1.564-4.805 1.326-8.63-.823-13.202 4.804 1.564 8.629 1.326 13.201-.824"
  />
  <path
    fill="#8CBA3B"
    d="M440.092 719.436a3.4 3.4 0 0 1-2.994 1.978l-33.721.943c.201 1.744.457 3.186.685 4.255l62.95 5.323.664-11.258c-3.215-3.072-12.929-12.236-23.414-20.966-22.756-18.949-28.561-18.804-29.355-18.646a68 68 0 0 0-2.792 4.164l31.096 20.518a3.4 3.4 0 0 1 1.217 4.258z"
  />
  <path
    fill="#000"
    d="M1032.44 488.023c-2.01-33.807-18.95-57.994-45.324-64.701-1.612-.41-2.78-1.818-2.907-3.503-.195-2.596-.307-5.501-.425-8.575-1.027-26.69-2.746-71.361-66.95-107.429-26.938-15.133-66.097-19.77-95.228-11.275-17.866 5.211-31.052 14.957-38.131 28.185-.598 1.116-1.453 1.838-2.542 2.145-1.268.356-2.724.108-4.103-.699-12.398-7.268-26.629-8.746-42.299-4.395-33.127 9.198-61.773 40.924-68.139 52.604-32.887 60.35-7.768 102.451 10.108 116.281.756.584 1.664 1.566 1.705 2.926.038 1.272-.668 2.608-1.987 3.762-11.365 9.939-17.37 23.815-17.364 40.129.004 15.281 5.533 31.932 15.566 46.887 17.361 25.877 46.654 45.952 84.401 52.147a2247 2247 0 0 0-10.128 37.409c-3.752-.174-7.513-.121-11.315.453-1.843.272-1.866 2.966-.037 3.285 3.305.656 6.63 1.16 9.957 1.628q-.593 2.297-1.186 4.615c-4.515-.522-9.062-.768-13.61-.404-4.379.566-3.864 6.921.545 6.774 3.784-.159 7.58-.008 11.365.32-4.298 17.047-14.487 62.511-14.87 64.367-13.065-4.165-26.642-5.743-40.695-4.69-35.142 2.631-67.193 21.071-91.188 36.841-2.944 1.934-6.378 4.494-10.149 7.504-26.438-24.076-55.745-35.067-87.463-32.687-8.731.653-17.27 2.284-25.542 4.606a417 417 0 0 1-.167-2.302c-.362-5.663-.839-17.06-.839-17.06-.039-2.352-.045-4.702.045-7.042.016-.105.044-.206.05-.313l.291-4.928c.265-2.845.67-5.673 1.255-8.475 1.162-1.651 3.016-3.465 5.851-4.412 4.909-.644 9.666-1.441 14.518-3.059 2.239-.8 5.737-1.841 7.897-2.791 5.45-2.182 10.856-4.574 16.135-7.226 6.178 7.788 20.726 9.33 31.179 9.33 5.713 0 10.196-.455 11.402-.59a3.4 3.4 0 0 0 3.002-3.736l-.283-2.692c6.326-1.793 10.145-3.979 10.529-4.205a3.4 3.4 0 0 0 1.454-1.742c12.211-3.808 36.182-12.766 36.646-12.957.718-.293 17.717-6.893 31.558 22.645 1.356 2.895 3.732 4.921 6.87 5.861 1.422.426 2.971.613 4.595.613 11.096 0 25.707-8.746 27.554-9.88a3.4 3.4 0 0 0 1.427-4.03c-.749-2.121-1.488-4.192-2.22-6.229a12.4 12.4 0 0 0 3.408.063c4.089-.478 8.017-2.845 10.776-6.494 5.105-6.751 4.725-15.989-.846-20.592-2.463-2.036-5.656-2.944-8.989-2.553-.96.113-1.909.338-2.839.65a18 18 0 0 0 2.626-2.776c5.105-6.751 4.725-15.988-.846-20.592-2.464-2.036-5.652-2.943-8.99-2.553-1.868.219-3.695.849-5.399 1.797a17.6 17.6 0 0 0 4.311-4.353c4.826-6.964 4.084-16.187-1.652-20.56-2.535-1.933-5.752-2.707-9.057-2.187-1.298.205-2.567.622-3.785 1.191.9-.847 1.735-1.793 2.466-2.849 4.826-6.963 4.084-16.186-1.653-20.56-2.534-1.931-5.751-2.708-9.056-2.187-4.07.643-7.905 3.177-10.521 6.95a18 18 0 0 0-2.29 4.609 3.4 3.4 0 0 0-2.601-.32c-6.084 1.725-48.27 18.858-50.063 19.586A3.39 3.39 0 0 0 586.16 627c-.647.294-4.209 1.688-4.91 2.013-2.021.129-3.176-.788-3.176-2.004 2.329-17.329 1.117-35.156-4.004-51.855 4.262-.498 11.171-2.142 20.7-6.952 1.374.289 3.626.642 6.465.642 8.191 0 21.204-2.942 31.676-18.849 7.421-11.272 12.84-12.589 13.536-12.714.893.06 1.625-.25 2.301-.845.698-.612.958-1.489.997-2.416.206-4.838-1.52-13.402-9.302-14.81-11.857-2.148-19.405 8.971-24.397 16.328-1.067 1.572-2.074 3.057-2.91 4.085a126 126 0 0 1-1.473 1.788c-1.582-4.64-5.223-8.468-10.173-10.451-6.905-2.767-21.447.024-27.946 7.101-4.549 4.955-5.117 9.249-4.337 12.257-2.856.247-5.026.124-6.35-.023-.278-.421-.518-.79-.698-1.083a119.4 119.4 0 0 0-13.809-16.437c-22.361-19.838-52.353-27.588-81.132-31.761-8.108-1.308-16.313-2.068-24.35-3.428 3.65-10.585 4.111-27.616 4.155-29.789a3.4 3.4 0 0 0-.503-1.817c2.417-3.863 4.411-7.987 6.524-11.774 1.907-3.341 3.969-6.135 6.71-8.424.735-.586 2.379-2.029 3.15-2.654 4.201-3.595 8.272-7.277 12.183-11.223 2.608-2.645 5.148-5.382 7.516-8.425 2.2-2.951 4.606-6.196 5.212-10.09.81-5.252-3.652-8.195-8.197-7.96-4.229.065-7.526 1.325-11.437 2.198a139 139 0 0 1-10.564 1.776c3.883-5.701 8.092-11.483 9.942-18.304.553-1.952.426-4.163-.421-5.999l49.401-4.894c9.315-.923 16.143-9.252 15.22-18.567-.374-3.78-1.98-7.135-4.364-9.744l3.132-.31a16.87 16.87 0 0 0 11.456-6.131 16.87 16.87 0 0 0 3.764-12.436 16.86 16.86 0 0 0-6.131-11.455 16.86 16.86 0 0 0-12.436-3.765l-145.528 14.416c-9.315.923-16.142 9.252-15.22 18.568a16.88 16.88 0 0 0 4.349 9.744l-3.117.309c-9.315.923-16.142 9.252-15.22 18.567.867 8.749 8.267 15.303 16.88 15.303q.837 0 1.687-.083l23.329-2.311a8.3 8.3 0 0 0-1.112 2.655l-.389 1.5c-.343 1.229-1.661 6.389-2.716 10.503-18.78-2.998-55.528-12.145-55.714-12.183-3.829-.768-7.713-1.229-11.603-1.476-13.512-.614-27.152.962-40.121 4.813a66 66 0 0 0-4.49-1.227c-4.196-1.019-9.463-1.547-13.507.789-7.122 3.802-12.913 9.021-18.826 14.388-1.772 1.579-1.392 4.541.524 5.751-5.054 4.72-9.38 10.18-12.499 16.384-3.46 7.248-7.214 15.076-13.697 18.923-11.817 6.958-28.118 4.731-41.41 2.898-1.284-.449-2.825-.352-3.99.186-3.439 1.694-3.625 5.997-4.041 9.165-.215 1.925-1.154 12.884-1.348 15.029-.524 7.095-1.467 17.078-1.683 24.113-.146 13.14-2.579 32.685 7.522 43.082 1.892 1.849 7.333 3.977 7.461 3.976 12.854 5.018 26.343 8.161 40.179 8.341 5.103 5.493 12.29 9.735 20.028 12.077 1.107.797 2.515 2.115 3.619 4.168a276 276 0 0 0 7.973 19.451c-6.94 3.154-13.406 7.784-19.323 13.849-7.666 7.86-12.784 16.49-15.751 22.414-8.92-13.64-23.1-16.652-38.947-8.255-12.799 6.784-17.927 24.234-19.555 31.534-5.02.652-15.047 2.388-26.468 6.728-11.662 4.432-17.648 26.549-14.828 41.905 1.958 10.663 7.885 16.778 16.263 16.778 2.81 0 11.602-1.969 29.632-6.066 33.329-7.573 89.111-20.248 125.275-22.373 9.127-.536 21.445-2.418 30.302-8.152 12.658 10.116 26.543 18.658 41.548 25.089 7.459 3.203 15.057 6.297 23.152 7.349a74 74 0 0 0-.174 2.82 3.4 3.4 0 0 0 3.398 3.519l.095-.001 7.455-.209c.504 4.876 1.438 7.927 1.552 8.284a3.4 3.4 0 0 0 2.952 2.353l.054.005c-.418 4.429-1.44 19.386-1.626 22.424a3.42 3.42 0 0 0-2.415 3.557c.083.994 1.65 24.405-31.333 29.167-3.494.504-6.43 2.349-8.492 5.336-7.033 10.185-2.554 31.588-2.009 34.044-48.609 8.889-94.408 20.542-134.981 32.628 2.546-19.788.002-24.687-2.97-26.676-1.725-1.154-4.645-1.892-8.764 1.143-5.827 4.294-9.61 11.782-11.326 22.303a89 89 0 0 1-.283-5.509c-.441-22.688 7.863-40.112 24.682-51.854-.393 1.019-.972 2.167-1.806 3.43-4.179 6.33-3.57 15.062 1.481 21.235 3.155 3.855 7.431 5.902 11.925 5.902 1.956 0 3.952-.388 5.916-1.182 9.525-3.853 10.062-10.83 10.492-16.435.238-3.081.442-5.742 1.91-7.937 1.208-1.804 3.4-1.675 8.486-.92 5.505.818 12.356 1.835 18.735-2.801 6.624-4.813 9.45-14.077 6.72-22.028-2.646-7.706-9.86-12.131-19.284-11.807a55 55 0 0 1-4.04 0c4.214-2.489 9.262-5.086 15.292-7.68a9.9 9.9 0 0 0 1.356 3.042 9.96 9.96 0 0 0 8.293 4.415 9.9 9.9 0 0 0 5.53-1.683c4.564-3.058 5.789-9.258 2.732-13.822-3.058-4.566-9.259-5.79-13.822-2.733a9.9 9.9 0 0 0-2.835 2.897c-9.792 3.937-17.426 7.969-23.343 11.75-.072-1.606.151-3.778.4-6.156.268-2.549.571-5.438.67-8.76.156-5.256-2.168-9.676-6.378-12.124-4.737-2.756-10.994-2.448-16.332.802-5.953 3.624-6.646 9.941-7.258 15.515-.431 3.941-.839 7.663-2.901 10.289-2.16 2.753-3.015 2.339-5.848.964-7.235-3.509-15.27-.709-20.976 7.306-3.48 4.889-3.726 11.848-.598 16.923 3.262 5.292 9.469 7.659 17.028 6.496 1.736-.268 3.187-.367 4.384-.346-18.485 13.027-27.944 32.866-27.406 57.649.136 6.24.883 12.07 1.846 17.142l-.727.232c-2.027-.583-4.169-.479-6.306.339-1.698.65-3.056 1.678-4.029 3.025-52.466 17.292-92.597 33.847-113.29 42.863-11.318 4.932-17.638 7.953-17.7 7.983a3.4 3.4 0 0 0 1.468 6.466h941.65a3.399 3.399 0 0 0 1.468-6.466s-.842-.404-2.458-1.154h-.001c-7.264-3.371-31.857-14.518-68.726-28.525-4.895-15.96-14.709-38.091-32.251-42.683-6.258-1.638-12.348-2.147-18.798-2.687-19.747-1.65-40.144-3.375-68.361-38.455a1504 1504 0 0 1 7.076-36.365s4.886-22.826 7.344-33.388c23.927 8.144 67.804 23.127 86.199 29.727q1.255.452 2.505.909c5.971 2.181 12.115 4.425 17.795 4.425.975 0 1.937-.066 2.881-.21 8.593-1.31 16.44-7.963 18.255-15.475 1.413-5.853-.946-11.497-6.473-15.487-2.21-1.595-4.874-2.625-7.784-3.018 3.896-7.961 8.916-21.341 4.882-31.37-1.998-4.966-5.883-8.472-11.548-10.421-17.605-6.059-34.382 2.272-42.132 7.196-.876-6.278-4.826-17.001-21.523-17.42-9.985-.246-18.938 8.008-22.803 12.189a83 83 0 0 0-9.737-3.092c9.399-35.018 18.048-60.943 23.924-77.175 8.1-3.052 16.364-6.65 24.783-10.857 1.456-.728 3.203-.492 4.452.6 15.784 13.799 33.191 22.662 50.341 25.632a75.6 75.6 0 0 0 12.897 1.133c11.331 0 21.966-2.72 31.264-8.058 23.63-13.569 34.07-40.771 27.91-72.766-.37-1.914.74-3.833 2.63-4.562 16.27-6.263 27.18-33.844 25.38-64.157m-377.203 136.09c-.493.711-.913 1.45-1.29 2.201a319 319 0 0 0-1.871-3.707 13 13 0 0 0 1.842-.152c1.299-.205 2.567-.622 3.785-1.191-.9.847-1.735 1.793-2.466 2.849m11.541 24.847a18 18 0 0 0-1.447 2.265 598 598 0 0 0-1.816-4.224c.144.005.287.017.431.017q.99 0 2.001-.159c1.619-.256 3.197-.822 4.68-1.636a17.7 17.7 0 0 0-3.849 3.737m10.049 25.271a18 18 0 0 0-1.36 2.113 977 977 0 0 0-1.634-4.224c.42.044.845.073 1.274.073q.746 0 1.506-.088c.96-.112 1.91-.338 2.839-.65a18 18 0 0 0-2.625 2.776m11.566.26c.221-.025.463-.042.72-.042.956 0 2.117.231 3.148 1.083 2.755 2.277 2.643 7.428-.247 11.248-1.646 2.178-3.885 3.578-6.142 3.842-1.042.122-2.559.04-3.868-1.041-2.755-2.276-2.642-7.428.247-11.248 1.646-2.178 3.885-3.578 6.142-3.842m-16.191-21.429c1.646-2.177 3.885-3.578 6.142-3.842.221-.025.463-.042.72-.042.956 0 2.117.231 3.149 1.083 2.755 2.277 2.642 7.428-.247 11.248-1.647 2.178-3.886 3.578-6.143 3.842-1.041.12-2.559.04-3.868-1.041-2.755-2.277-2.642-7.428.247-11.248m-5.384-29.183c1.028-.161 2.535-.142 3.873.879 2.838 2.163 2.924 7.328.186 11.279-1.562 2.254-3.746 3.751-5.992 4.106-1.028.162-2.535.142-3.873-.878-2.838-2.164-2.924-7.329-.186-11.279 1.562-2.255 3.747-3.752 5.992-4.107m-18.021-20.297c1.563-2.255 3.747-3.752 5.993-4.107 1.03-.163 2.535-.142 3.872.878 2.839 2.164 2.925 7.329.187 11.279-1.563 2.255-3.747 3.751-5.992 4.106-1.028.163-2.536.143-3.873-.878-2.839-2.163-2.924-7.328-.187-11.278m-33.244-56.367c.967-.982 1.907-2.131 2.86-3.304 1.021-1.256 2.108-2.858 3.26-4.555 4.242-6.252 10.053-14.813 17.559-13.455 2.372.43 3.234 3.262 3.546 5.397-3.479 1.393-9.063 5.109-15.546 14.957-4.654 7.07-9.768 11.096-14.511 13.326 1.88-2.942 3.347-7.027 2.832-12.366M285.315 754.398a3.14 3.14 0 0 1 2.374-.475c.829.164 1.545.64 2.015 1.342a3.17 3.17 0 0 1-.868 4.389 3.17 3.17 0 0 1-4.389-.868 3.167 3.167 0 0 1 .868-4.388m-68.117 33.108q-2.322 0-5.072.423c-4.868.749-8.396-.408-10.205-3.344-1.708-2.77-1.561-6.727.349-9.41 3.705-5.204 8.368-7.122 12.467-5.132 3.013 1.462 8.62 4.183 14.167-2.884 3.259-4.153 3.818-9.25 4.311-13.746.582-5.31 1.089-8.654 4.033-10.447 3.207-1.952 6.8-2.233 9.377-.734 2.016 1.173 3.082 3.32 3.001 6.044-.091 3.068-.381 5.823-.635 8.254-.461 4.386-.848 8.083.293 11.071-3.178 2.405-5.645 4.628-7.535 6.56.322-1.764 1.001-4.044 2.336-6.957a3.4 3.4 0 0 0-1.674-4.507 3.4 3.4 0 0 0-4.507 1.673c-2.617 5.708-3.304 9.92-3.197 12.926-3.227-1.178-7.711-1.831-13.389-.333a3.401 3.401 0 0 0 1.736 6.575c5.56-1.468 9.287-.113 11.216 1.01-1.194 2.92-1.912 7.656-.934 15.339a3.4 3.4 0 0 0 6.745-.858c-1.092-8.586.29-12.085.983-12.808.333-.178.621-.413.869-.68 3.395-1.12 9.6-2.484 13.132-.394a3.397 3.397 0 0 0 4.657-1.194 3.4 3.4 0 0 0-1.193-4.657c-3.117-1.845-6.845-2.216-10.279-1.967 1.553-1.448 3.481-3.068 5.82-4.8 2.737 1.226 6.631 1.668 12.345 1.476 6.462-.22 10.956 2.349 12.628 7.22 1.756 5.111-.087 11.267-4.286 14.318-4.133 3.004-8.798 2.31-13.738 1.576-5.352-.794-11.419-1.697-15.139 3.867-2.458 3.676-2.765 7.67-3.036 11.195-.402 5.225-.644 8.379-6.263 10.652-5.29 2.14-8.775-1.191-10.028-2.722-2.605-3.183-4.051-8.666-1.069-13.183 3.797-5.751 4.602-11.192 2.208-14.927-1.918-2.991-5.437-4.495-10.494-4.495m365.034 7.428c-6.186 5.177-13.011 11.244-19.958 17.623a802 802 0 0 0-40.05-1.024c-14.936 0-29.859.452-44.715 1.282a3.4 3.4 0 0 0 .416-1.599c.014-3.378-2.713-39.009-2.9-41.665 34.253-10.011 71.104-7.243 107.207 25.383M475.77 822.198c1.964 2.407 2.906 5.261 2.586 7.831-.149 1.2-.659 2.877-2.239 4.05-3.287 2.443-8.979.935-12.427-3.293-1.963-2.407-2.906-5.261-2.586-7.831.15-1.2.659-2.877 2.239-4.05 1.071-.796 2.397-1.172 3.817-1.172 2.94 0 6.285 1.614 8.61 4.465m-29.215-40.431c-4.381-2.673-9.394-1.978-9.444-1.972a3.406 3.406 0 0 1-3.863-2.852 3.393 3.393 0 0 1 2.822-3.868c.301-.047 7.463-1.118 14.027 2.888 9.14 5.577 13.606 14.193 12.576 24.26a3.4 3.4 0 0 1-3.729 3.036 3.4 3.4 0 0 1-3.036-3.729c.959-9.378-4.557-14.836-9.353-17.763m-24.703 46.022a19.6 19.6 0 0 0-2.42-2.666c2.16-.262 4.24-.525 6.255-.789a13.5 13.5 0 0 0-.76 3.056c-.548 4.404.934 9.131 4.065 12.969a19.4 19.4 0 0 0 6.116 4.975q-5.858.3-11.711.643a13.2 13.2 0 0 0 1.971-5.089c.725-4.374-.557-9.148-3.516-13.099m11.587-31.373a4.217 4.217 0 1 1 2.59 8.026 4.217 4.217 0 0 1-2.59-8.026m.822 39.645c-1.963-2.407-2.906-5.261-2.586-7.831.15-1.2.659-2.877 2.239-4.051 1.071-.795 2.396-1.171 3.816-1.171 2.941 0 6.286 1.614 8.611 4.464 1.964 2.408 2.906 5.262 2.586 7.831-.149 1.201-.659 2.878-2.239 4.051-3.287 2.443-8.979.934-12.427-3.293m12.892-31.805q-.257 0-.518-.04a3.4 3.4 0 0 1-2.847-3.874c.446-2.917.039-5.11-1.21-6.518-1.802-2.031-5.266-2.374-6.469-2.34a3.41 3.41 0 0 1-3.517-3.268 3.39 3.39 0 0 1 3.237-3.526c.754-.035 7.518-.189 11.79 4.571 2.688 2.994 3.661 7.068 2.891 12.108a3.4 3.4 0 0 1-3.357 2.887m19.536-54.669-60.469 5.362c.294-4.282 1.366-18.503 1.622-21.193l58.471 4.943c-.006 1.438.24 8.711.376 10.888m-48.03 90.19c-.198 1.202-.78 2.87-2.417 3.99-3.387 2.315-9.001.594-12.262-3.759-1.852-2.475-2.672-5.358-2.249-7.911.199-1.203.78-2.871 2.418-3.991 1.025-.7 2.254-1.032 3.561-1.032 3.009 0 6.427 1.756 8.699 4.791 1.853 2.475 2.674 5.358 2.25 7.912m24.552-134.03-31.097-20.518a68 68 0 0 1 2.793-4.165c.794-.157 6.599-.302 29.355 18.646 10.484 8.731 20.199 17.894 23.414 20.967l-.664 11.258-62.95-5.323a45 45 0 0 1-.685-4.255l33.72-.943a3.4 3.4 0 0 0 2.995-1.978l4.336-9.431a3.4 3.4 0 0 0-1.217-4.258m93.059.375c4.694-3.011 13.039-8.847 19.905-16.223L558 707.208c-6.621.461-14.919.3-21.73-1.086m27.847-5.745-2.547-24.159a272 272 0 0 0 4.44-6.48l3.938 28.433a47 47 0 0 1-5.831 2.206m79.452-57.678a4.217 4.217 0 1 1-6.909 4.838 4.217 4.217 0 0 1 6.909-4.838m-3.34-10.071a3.4 3.4 0 0 1-2.864 3.862c-2.919.433-4.895 1.467-5.873 3.075-1.412 2.322-.718 5.749-.332 6.873a3.41 3.41 0 0 1-3.217 4.517 3.39 3.39 0 0 1-3.193-2.249c-.255-.713-2.394-7.129.896-12.614 2.071-3.451 5.678-5.58 10.721-6.328a3.4 3.4 0 0 1 3.862 2.864m-28.022 5.012c2.639-10.378 9.558-17.183 19.483-19.163a3.4 3.4 0 1 1 1.33 6.668c-9.246 1.845-12.838 8.724-14.223 14.171-1.264 4.974.875 9.561.897 9.607a3.41 3.41 0 0 1-1.588 4.532c-.479.231-.985.34-1.482.34a3.39 3.39 0 0 1-3.046-1.899c-.134-.274-3.266-6.802-1.371-14.256m-29.975-1.121c.058-.365.067-.64.034-.848 1.011-.414 5.047-2.027 6.116-2.491l19.326 49.976c-6.098 2.203-12.071 4.553-18.05 6.771-4.381 1.602-8.835 3.201-13.343 4.647l-4.677-33.757c4.941-8.285 9.491-17.386 10.594-24.298M472.621 414.334c2.299-.566 5.202-1.463 7.509-1.287-.748 2.043-2.108 3.928-3.527 5.787-4.259 5.413-9.442 10.355-14.619 15.007-2.626 2.384-5.568 4.764-8.242 7.101-3.064 2.795-5.412 6.171-7.3 9.474-1.538 2.837-2.949 5.623-4.438 8.275l.284-1.608a3.4 3.4 0 0 0-.816-2.861 3.4 3.4 0 0 0-.474-.42c3.426-11.165 7.147-22.388 9.787-33.55.36-.857.808-1.699 1.298-2.533 6.914-.595 13.822-1.637 20.538-3.385m-90.298-75.352s146.211-14.466 146.55-14.466c2.343 0 4.596.801 6.432 2.307a10.1 10.1 0 0 1 3.675 6.867 10.1 10.1 0 0 1-2.257 7.454 10.1 10.1 0 0 1-6.866 3.675l-145.528 14.417c-5.587.552-10.576-3.54-11.13-9.124-.553-5.584 3.54-10.577 9.124-11.13m-11.982 48.874c-5.579.555-10.577-3.539-11.13-9.123s3.54-10.577 9.123-11.131l146.537-14.465h.002c5.163 0 9.6 3.929 10.119 9.173.554 5.584-3.539 10.577-9.123 11.13zm25.07 25.83c.83-3.289 3.623-14.01 4.421-17.095 0 0 .139-.474.215-.59 2.407-2.694 8.047-4.505 14.87-5.727l22.421-2.221a355 355 0 0 1 7.729-.273c-.515 2.422-1.728 6.63-4.51 11.38a3.4 3.4 0 0 0 5.867 3.437c3.852-6.575 5.161-12.312 5.589-14.947l.76-.011c2.116-.007 4.236.004 6.337.042.941.011 1.585.141 1.945.341.106 2.981-2.089 6.487-3.676 9.346-2.089 3.53-4.493 7.002-6.91 10.532-2.237 3.478-4.879 6.568-6.238 10.679-2.119 8.728-4.735 17.367-7.415 26.05-.808 2.664-1.754 5.669-2.713 8.774l-48.654 3.205c3.035-14.379 6.421-28.688 9.962-42.922m3.113 73.553 29.344 12.358-.82 4.637-48.566-17.004 3.131-23.555 53.224-3.506-.92 5.206-33.032 3.631a3.4 3.4 0 0 0-3.004 2.973l-1.412 11.72a3.4 3.4 0 0 0 2.055 3.54m5.002-5.272.783-6.496 35.763-3.931c-.369 6.834-1.421 17.771-3.762 24.235zm-92.174-82.492c7.349-.156 14.666.552 21.922 1.629.096.016 29.315 8.075 43.635 10.85q5.692 1.082 11.424 2.033c-3.54 14.31-6.924 28.66-9.934 43.085l-.013.001a3.4 3.4 0 0 0-3.146 2.945l-2.571 19.336c-15.081-4.556-28.339-15.013-35.557-29.161-3.84-7.774-5.162-16.501-5.315-25.111-.194-2.881-.033-6-.242-9.196a1.747 1.747 0 0 0-3.299-.752 24.5 24.5 0 0 0-1.626 3.989c-11.13-6.506-22.409-12.485-34.349-17.472a100 100 0 0 1 19.071-2.176m-47.761 7.481c2.68-1.66 4.887-3.661 8.093-3.56 5.11.273 10.207 2.156 15.141 4 10.311 3.996 20.457 9.077 30.261 14.354 2.77 1.485 5.54 3.008 8.262 4.55-.148 2.889.059 5.809.406 8.67a62.4 62.4 0 0 0 2.514 11.409c-4.07-2.216-10.645-5.164-13.577-6.636a1553 1553 0 0 0-21.397-10.007c-12.54-5.717-25.111-11.27-37.964-16.275 2.665-2.297 5.419-4.516 8.261-6.505M183.1 544.83c-1.053-.182-2.145-1.144-3.058-2.072-3.681-3.798-4.672-9.045-5.312-14.452-1.494-19.323.872-39.842 2.183-59.331.207-1.886.277-4.492.745-6.338 5.589 3.209 11.859 6.453 17.102 9.468.325.283.697.788.789 1.169 0-.109.007.203.004.412l-.065 5.254a335 335 0 0 1-1.991 31.35c-1.284 10.082-2.444 20.501-6.323 29.774-.939 1.877-3.66 4.826-4.074 4.766m107.3 140.514c-36.725 2.158-92.85 14.91-126.383 22.53-13.926 3.164-25.954 5.897-28.126 5.897-6.213 0-8.636-6.094-9.575-11.206-2.479-13.504 3.045-31.466 10.556-34.32 11.245-4.274 21.242-5.867 25.017-6.353a6.68 6.68 0 0 0 5.653-5.166c1.092-4.93 5.481-21.452 16.121-27.091 4.034-2.138 8.794-3.875 13.614-3.875 5.835 0 11.756 2.548 16.571 10.018 1.308 2.029 3.524 3.159 5.941 3.027a6.72 6.72 0 0 0 5.631-3.707c3.987-8.004 14.266-25.216 31.986-33.295a284 284 0 0 0 9.925 18.673c12.687 21.987 28.916 42.291 48.219 58.897-6.047 3.27-14.773 5.361-25.15 5.971m97.256 17.843a104 104 0 0 0-1.378 8.476c-6.916-3.287-14.041-5.594-20.905-8.747-41.602-18.447-73.383-52.366-95.339-91.702-7.706-15.01-13.142-30.235-14.363-37.193 4.791.056 9.483-.717 13.729-2.479 2.236-.999 1.251-4.437-1.187-4.088-.934.14-2.036.3-3.034.373-1.83.169-3.875.194-5.72.111-8.727-.311-17.129-3.095-25.175-6.353-.103-.042-.215-.065-.304-.131-.711-.521-.854-1.024-.82-1.398a1.2 1.2 0 0 1 .247-.616c44.415-4.012 85.683-30.007 109.78-67.406.274.071.542.149.793.23 1.18.373 2.269.997 3.24 1.803 1.741 1.389 4.153-.7 2.997-2.637-1.672-2.854-4.375-5.039-7.419-6.312-1.501-.752-3.501-.176-4.387 1.355a147 147 0 0 1-13.1 18.572c-24.257 29.133-61.247 47.811-99.239 48.779-12.148.159-24.483-2.461-35.962-6.753 3.763-3.872 5.071-9.987 6.429-14.9 4.154-19.173 3.88-38.984 4.175-58.455.149-1.986-.95-4.064-2.359-5.395-.487-.447-4.419-2.925-5.856-3.83a866 866 0 0 1-3.288-2.091c3.515.439 7.063.747 10.657.842 12.415.501 25.29-2.471 32.822-13.186 3.656-4.823 5.662-10.025 8.513-15.112 3.181-5.506 7.319-10.316 12.07-14.477 12.512 4.756 24.885 10.118 37.221 15.507a1540 1540 0 0 1 21.458 9.632c5.549 2.378 12.884 6.522 19.266 8.048 3.413 6.813 8.514 13.173 14.524 18.582a60 60 0 0 0 4.399 3.654c5.339 4.902 16.701 14.852 21.908 15.755a528 528 0 0 0-2.922 21.486c-1.313 12.911-2.236 26.014-1.06 39.042.423 4.374 1.332 8.866 3.628 12.875.337.586.985.967 1.705.926 1.051-.053 1.841-.996 1.733-2.037-.231-3.42-.708-8.942-1.016-12.305-.937-12.565.171-25.201 1.618-37.757a561 561 0 0 1 2.706-19.455l46.204 16.177a451 451 0 0 0-.539 10.521c-.192 4.31-.237 8.629-.117 12.947.163 4.32.255 8.633 1.686 12.936.621 1.97 3.486 1.676 3.851-.247 1.489-7.128.95-18.126 1.325-25.413.1-3.194.254-6.386.437-9.578.043-.022.088-.039.129-.064a3.4 3.4 0 0 0 1.467-1.778c2.32-2.415 5.048-4.373 7.483-5.856 8.604 1.533 17.307 2.298 25.857 3.675 29.494 4.372 63.247 12.743 83.237 36.232 3.124 3.672 5.924 7.593 8.661 11.549 1.654 2.333 3.156 5.171 5.407 7.005.525.42 1.215.634 1.935.537 2.695-.622 2.527-3.071 1.405-5.793 6.633-.119 17.35-1.895 29.982-9.947 1.441-.918 2.081-2.579 1.593-4.133-.904-2.881-4.249-2.744-5.673-2.685-5.202.214-11.676 2.234-12.804 7.226a4 4 0 0 0-.055.302 50 50 0 0 1-3.865 1.127c-.614-.735-.775-2.926 2.506-6.5 4.694-5.113 16.155-7.088 20.409-5.388 3.976 1.593 6.503 4.866 6.758 8.753.336 5.121-3.281 10.2-9.923 13.933-12.598 7.081-20.703 8.365-24.057 8.557-2.006-3.547-7.549-1.114-6.114 2.874 9.301 24.942 8.778 53.517.019 78.562-9.541 25.512-33.054 42.109-57.226 52.716-3.074 1.377-6.219 2.654-9.315 3.879-1.266.424-4.5 1.53-5.818 1.97-3.488 1.17-7.326 1.908-11.128 2.462-.649-.355-.931-.712-1.04-.995-.14-.364-.033-.727.114-1.008 1.577-1.763 3.196-3.224 4.852-5.334 1.036-1.081.277-3.007-1.22-3.088-4.325-.302-8.048 2.638-10.464 5.921-1.643 2.263-2.969 4.74-4.044 7.371-4.193-3.954-12.043-11.216-20.541-18.355-14.513-12.193-23.097-17.542-28.473-19.772 2.336-4.856 5.062-9.411 8.262-13.551 4.245-5.263 9.529-9.614 15.69-12.431a2.242 2.242 0 0 0-1.769-4.118c-7.015 2.703-13.234 7.372-18.13 12.998-3.969 4.739-7.282 10.005-10.077 15.634a9 9 0 0 0-.896.032c-2.628.223-4.124 1.563-4.917 2.648a75 75 0 0 0-3.066 4.554l-2.894-1.909a3.4 3.4 0 0 0-3.796.034c-5.573 3.822-9.642 11.755-12.093 23.578m188.109-153.959.169-.18s.047.036.113.112zm-183.11 166.626c.741-8.461 3.224-23.035 9.258-29.209l35.117 23.17-2.234 4.861zm3.264 112.069a13.6 13.6 0 0 0-.897 3.063c-.724 4.373.557 9.147 3.515 13.097a19.5 19.5 0 0 0 3.137 3.301q-3.724.263-7.444.538a13.4 13.4 0 0 0 1.396-4.114c.725-4.373-.556-9.147-3.515-13.098a20 20 0 0 0-1.711-1.967c1.838-.276 3.675-.553 5.519-.82m-23.93 7.094c.199-1.202.78-2.87 2.418-3.99 1.025-.701 2.254-1.032 3.562-1.032 3.008 0 6.426 1.756 8.699 4.791 1.852 2.474 2.673 5.358 2.25 7.911-.199 1.203-.78 2.871-2.418 3.991-3.386 2.313-9.002.593-12.261-3.76-1.853-2.474-2.673-5.357-2.25-7.911m-192.68 45.364c.485 4.351 2.57 9.278 4.864 13.58a2296 2296 0 0 0-81.645 14.433c20.314-8.105 46.394-17.904 76.781-28.013M67.118 923.203q1.394-.613 2.912-1.276c39.589-8.33 78.827-15.54 117.864-21.665a92 92 0 0 0 2.878 4.202 3.399 3.399 0 0 0 5.491-4.012c-5.014-6.866-11.466-18.593-10.116-23.166.164-.554.428-.96 1.236-1.269 1.033-.396 1.846-.352 2.714.147 3.854 2.215 6.766 11.464 7.838 17.308.082.492.136.786.148.853a3.401 3.401 0 0 0 6.7-1.164 48 48 0 0 0-.183-1.033c-.274-1.603-.55-3.526-.796-5.667a3.4 3.4 0 0 0-.085-.764c-1.558-14.289-1.671-37.651 8.858-45.412a6.5 6.5 0 0 1 1.078-.668c.643 1.389 2.227 7.427-1.69 30.141-2.427 14.071-5.74 27.426-5.773 27.559a3.4 3.4 0 0 0 6.353 2.317c3.023-6.174 6.941-13.101 9.658-16.9-.022 4.771-1.148 12.751-2.638 19.512a3.401 3.401 0 0 0 6.641 1.465 150 150 0 0 0 1.747-9.365c97.814-13.515 194.67-20.154 292.898-20.154 146.365 0 291.844 16.046 443.925 49.011zm890.134-8.571c-149.309-31.766-292.431-47.24-436.401-47.24-97.956 0-194.548 6.585-292.072 19.98.363-4.655.25-9.047-.98-11.476-.814-1.604-2.31-2.58-4.007-2.543-.946.006-2.801.019-6.406 4.547.5-2.59.993-5.28 1.451-7.987.125-.737.241-1.451.355-2.158 43.597-13.095 93.412-25.751 146.33-34.977-.093.371-.178.745-.242 1.128-.724 4.374.557 9.148 3.516 13.099a19.6 19.6 0 0 0 2.519 2.76c-3.771.384-7.459.932-10.405 1.893a2.493 2.493 0 0 0 .452 4.849c3.89.517 7.709.298 11.517-.051 16.388-1.572 40.69-3.413 57.169-4.543 34.3-2.172 68.682-4.081 103.053-3.117 3.803.137 7.622.211 11.439-.242a1.156 1.156 0 0 0 .237-2.258c-3.81-1.163-7.644-1.471-11.491-1.682-27.338-1.303-54.833-1.095-82.295-.006 2.59-2.033 4.255-5.02 4.684-8.465.548-4.403-.933-9.13-4.064-12.968a20 20 0 0 0-1.462-1.584c1.452-.128 2.907-.245 4.361-.366-.056.295-.116.588-.154.89-.548 4.404.934 9.131 4.065 12.969 3.668 4.498 8.945 6.944 13.902 6.944 2.843 0 5.581-.805 7.849-2.49 2.737-2.033 4.489-5.112 4.932-8.67.48-3.856-.597-7.961-2.976-11.499a792 792 0 0 1 40.096-1.036c182.087 0 361.911 65.947 435.028 96.299m-85.535-59.367c6.148.514 11.954.999 17.641 2.488 12.804 3.352 20.993 19.304 25.781 33.022-79.01-29.451-207.873-69.379-343.326-77.686 11.498-10.4 22.228-19.465 29.58-24.296 55.133-36.234 126.958-66.614 193.56 20.825 31.914 41.899 55.742 43.89 76.764 45.647m-34.929-147.342a5.68 5.68 0 0 0 6.335-1.47c2.254-2.517 10.22-10.738 18.105-10.519 9.516.239 14.597 4.6 15.099 12.961a5.58 5.58 0 0 0 3.139 4.717c1.83.9 4.014.747 5.704-.398 5.994-4.067 21.662-12.931 37.673-7.424 3.767 1.296 6.204 3.432 7.45 6.529 3.413 8.484-2.618 21.86-5.37 27.217a5.66 5.66 0 0 0 .137 5.444 5.6 5.6 0 0 0 4.601 2.806c2.297.109 4.27.747 5.863 1.897 3.315 2.392 4.608 5.211 3.843 8.377-1.164 4.818-6.848 9.461-12.669 10.349-4.725.723-10.842-1.514-17.319-3.88q-1.268-.465-2.541-.923c-18.6-6.672-63.132-21.876-86.931-29.976a1296 1296 0 0 1 7.207-28.818c4.577 1.153 8.052 2.455 9.674 3.111m-30.681 56.037s-5.248 25.3-7.781 38.922c-19.063-24.31-39.907-40.89-62.323-49.63.827-4.018 10.8-48.397 15.222-65.897.338.046.677.088 1.015.135 3.227.43 6.44 1.011 9.655 1.621 3.29.557 6.371 1.685 9.793 1.473 2.06-.029 2.89-2.865 1.148-3.998-2.942-1.995-6.313-2.572-9.579-3.492a137 137 0 0 0-9.978-2.174l-.4-.063q.597-2.327 1.194-4.632c3.711.523 7.414 1.092 11.086 1.868 9.116 1.758 18.104 4.221 26.735 7.536 1.765.752 3.825-.103 4.515-1.901a3.4 3.4 0 0 0-1.947-4.396 116 116 0 0 0-10.401-3.666c-9.298-2.665-18.866-4.338-28.478-5.239 2.33-8.895 4.655-17.53 6.923-25.778 20.026 1.414 64.239-10.987 80.299-15.745-9.474 27.466-23.459 73.045-36.698 135.056m198.513-218.126c-4.97 1.914-7.857 7.041-6.866 12.192 5.576 29.012-3.623 53.53-24.62 65.585-24.622 14.136-57.82 7.266-86.64-17.929a10.86 10.86 0 0 0-7.152-2.703c-1.637 0-3.284.374-4.815 1.139-33.103 16.54-63.707 23.557-90.766 23.555-47.364-.004-83.845-21.511-103.694-51.097-9.29-13.847-14.409-29.153-14.413-43.1-.005-14.294 5.196-26.4 15.04-35.008 2.878-2.516 4.408-5.743 4.308-9.085-.094-3.132-1.635-6.009-4.341-8.101-16.292-12.604-38.992-51.322-8.298-107.648 5.764-10.577 33.261-40.775 63.987-49.305 13.83-3.841 26.292-2.593 37.041 3.708 2.99 1.752 6.321 2.242 9.387 1.378 2.854-.804 5.231-2.751 6.692-5.482 6.197-11.579 17.968-20.177 34.04-24.865 27.513-8.025 64.521-3.635 89.994 10.676 60.885 34.203 62.45 74.858 63.485 101.761.121 3.139.235 6.103.439 8.824.346 4.601 3.565 8.452 8.012 9.583 23.36 5.94 38.39 27.814 40.21 58.514 1.58 26.583-7.86 52.336-21.03 57.408"
  />
  <path
    fill="#8CBA3B"
    d="m437.03 709.815-35.117-23.169c-6.034 6.173-8.517 20.747-9.258 29.208l42.141-1.178z"
  />
  <path
    fill="#F295FF"
    d="M450.785 420.252c-2.64 11.162-6.361 22.385-9.787 33.551.168.127.332.26.474.419.697.778.998 1.833.817 2.862l-.285 1.607c1.49-2.651 2.9-5.438 4.439-8.275 1.887-3.303 4.235-6.679 7.299-9.474 2.674-2.336 5.616-4.717 8.242-7.101 5.177-4.652 10.36-9.594 14.62-15.007 1.418-1.858 2.778-3.744 3.526-5.787-2.307-.176-5.21.721-7.509 1.287-6.716 1.749-13.624 2.79-20.538 3.385-.49.834-.938 1.676-1.298 2.533"
  />
  <path
    fill="#F295FF"
    d="M434.103 453.403c.959-3.104 1.905-6.11 2.713-8.774 2.68-8.683 5.296-17.321 7.415-26.05 1.359-4.11 4.001-7.201 6.238-10.679 2.417-3.53 4.821-7.002 6.91-10.532 1.587-2.858 3.783-6.365 3.677-9.346-.361-.2-1.004-.33-1.946-.341-2.101-.038-4.22-.049-6.337-.042l-.76.011c-.428 2.636-1.737 8.372-5.589 14.947a3.4 3.4 0 0 1-4.652 1.215 3.4 3.4 0 0 1-1.215-4.652c2.782-4.75 3.995-8.957 4.51-11.38-2.362.06-4.974.145-7.729.273l-22.421 2.221c-6.823 1.223-12.463 3.033-14.87 5.727-.076.116-.215.59-.215.59-.797 3.085-3.591 13.806-4.42 17.096-3.542 14.233-6.928 28.542-9.963 42.921z"
  />
  <path
    fill="#8CBA3B"
    d="M397.881 471.979a3.4 3.4 0 0 1 3.004-2.973l33.032-3.631.92-5.206-53.224 3.506-3.131 23.555 48.566 17.004.82-4.636-29.344-12.359a3.4 3.4 0 0 1-2.055-3.54z"
  />
  <path
    fill="#8CBA3B"
    d="m440.072 471.54-35.762 3.931-.784 6.496 32.784 13.808c2.341-6.463 3.393-17.401 3.762-24.235"
  />
  <path
    fill="#000"
    d="M184.807 483.361a4 4 0 0 0-2.919 1.072c-3.157 2.924-3.771 17.73-3.884 22.199l-.03 1.163c-.119 4.511-.221 8.406 4.129 8.63q.164.009.322.009c4.53 0 4.864-5.175 5.134-9.351.208-3.231.411-6.093.587-8.562.783-11.03.865-12.183-.591-13.831a4.06 4.06 0 0 0-2.748-1.329"
  />
  <path
    fill="#000"
    d="M298.443 389.92c.329 0 .663-.06.988-.187 4.276-1.672 7.682-1.024 7.785-1.004a2.715 2.715 0 0 0 1.165-5.301c-.2-.045-4.989-1.073-10.927 1.251a2.714 2.714 0 0 0 .989 5.241"
  />
  <path
    fill="#000"
    d="M269.494 447.918c-3.622-.917-7.026-1.89-10.787-2.318-.588-.037-1.097.203-1.6.418-1.783.764-3.403 2.386-3.839 5.095-.546 3.4.907 6.165 3.455 6.574q.297.048.593.048c1.325 0 2.597-.709 3.49-1.971.624-.884 1.059-2.004 1.257-3.238.055-.341.075-.671.091-.998 2.032.388 4.072.831 6.075 1.307a2.538 2.538 0 0 0 1.265-4.917"
  />
  <path
    fill="#000"
    d="M293.854 456.034c-3.621-.917-7.026-1.89-10.786-2.318-.595-.038-1.109.208-1.616.429-.926.404-1.884.882-2.566 1.846-.624.884-1.059 2.004-1.257 3.238-.547 3.4.907 6.165 3.454 6.574q.299.048.594.048c1.325 0 2.597-.709 3.489-1.971.625-.884 1.059-2.004 1.258-3.238q.08-.504.1-.997c2.029.388 4.066.831 6.066 1.306a2.538 2.538 0 0 0 1.264-4.917"
  />
  <path
    fill="#000"
    d="M263.228 391.83c.572 0 1.149-.18 1.64-.553 1.729-1.312 3.808-.562 3.945-.51a2.713 2.713 0 0 0 2.053-5.024c-1.846-.767-5.877-1.374-9.281 1.212a2.714 2.714 0 0 0 1.643 4.875"
  />
  <path
    fill="#423E3E"
    d="m412.394 302.707 146.224-2.145a10.1 10.1 0 0 0 7.151-3.086 10.1 10.1 0 0 0 2.875-7.239 10.1 10.1 0 0 0-3.086-7.151 10.1 10.1 0 0 0-7.085-2.876l-146.378 2.146c-5.61.083-10.108 4.714-10.026 10.325s4.697 10.081 10.325 10.026m134.798-17.244c4.219-6.908 14.534-5.743 17.398 1.75 2.251 6.698-3.06 13.58-10.129 12.927-6.999-.767-10.947-8.631-7.269-14.677m-21.445.094c4.389-6.753 14.544-5.725 17.397 1.84 2.279 6.767-3.029 13.435-10.105 12.962-7.065-.856-10.931-8.681-7.292-14.802"
  />
  <path
    fill="#000"
    d="m412.238 309.508.255-.002 146.225-2.145c9.359-.138 16.862-7.864 16.725-17.223a16.87 16.87 0 0 0-5.148-11.93c-3.253-3.159-7.529-4.873-12.075-4.795l-146.224 2.145c-9.36.136-16.863 7.863-16.726 17.223a16.86 16.86 0 0 0 5.147 11.93 16.86 16.86 0 0 0 11.821 4.797m-.143-27.151 146.378-2.146a10.1 10.1 0 0 1 7.085 2.875 10.1 10.1 0 0 1 3.086 7.151 10.12 10.12 0 0 1-2.875 7.239 10.1 10.1 0 0 1-7.151 3.086l-146.225 2.145c-5.627.055-10.242-4.415-10.324-10.026s4.415-10.242 10.026-10.324"
  />
  <path
    fill="#8CBA3B"
    d="M554.54 293.22c3.601.993 5.322-4.048 1.819-5.418-3.607-1.062-5.337 4.064-1.819 5.418"
  />
  <path
    fill="#000"
    d="M554.46 300.14c7.07.653 12.381-6.229 10.13-12.927-2.864-7.493-13.179-8.658-17.398-1.75-3.679 6.046.269 13.91 7.268 14.677m1.899-12.338c3.503 1.37 1.782 6.411-1.819 5.418-3.518-1.354-1.788-6.48 1.819-5.418"
  />
  <path
    fill="#FFFBE8"
    d="M533.104 293.399c3.589.996 5.327-4.073 1.833-5.426-3.644-1.064-5.345 4.053-1.833 5.426"
  />
  <path
    fill="#000"
    d="M533.039 300.359c7.076.473 12.384-6.195 10.105-12.962-2.853-7.565-13.008-8.593-17.397-1.84-3.64 6.121.227 13.946 7.292 14.802m1.899-12.386c3.493 1.353 1.755 6.422-1.833 5.426-3.513-1.373-1.811-6.49 1.833-5.426"
  />
  <path
    fill="#423E3E"
    d="M524.993 362.311c-.52-5.245-4.956-9.174-10.12-9.174h-.001l-146.538 14.466c-5.583.553-9.676 5.546-9.123 11.13s5.551 9.678 11.13 9.123l145.528-14.416c5.584-.553 9.677-5.546 9.124-11.129m-34.688 13.041c-7.068-.287-11.564-7.714-8.453-14.085 3.722-7.087 14.072-6.925 17.473.361 2.927 6.403-1.978 13.87-9.02 13.724m12.906-16.019c3.733-7.204 14.051-6.969 17.496.362 2.795 6.45-1.987 13.764-9.038 13.669-7.077-.171-11.556-7.69-8.458-14.031"
  />
  <path
    fill="#8CBA3B"
    d="M512.567 360.906c-3.667-.725-4.995 4.439-1.424 5.547 3.671.746 5.024-4.428 1.424-5.547"
  />
  <path
    fill="#000"
    d="M520.708 359.695c-3.446-7.331-13.764-7.566-17.497-.362-3.098 6.341 1.381 13.86 8.458 14.031 7.051.095 11.833-7.219 9.039-13.669m-9.565 6.758c-3.571-1.109-2.243-6.272 1.424-5.547 3.6 1.119 2.247 6.293-1.424 5.547"
  />
  <path
    fill="#FFFBE8"
    d="M491.202 362.903c-3.714-.761-4.98 4.48-1.343 5.516 3.662.788 4.935-4.516 1.343-5.516"
  />
  <path
    fill="#000"
    d="M481.852 361.267c-3.111 6.371 1.385 13.798 8.453 14.085 7.042.146 11.947-7.321 9.02-13.724-3.401-7.286-13.751-7.448-17.473-.361m8.007 7.152c-3.637-1.036-2.371-6.277 1.343-5.516 3.592 1 2.319 6.304-1.343 5.516"
  />
  <path
    fill="#423E3E"
    d="m384.33 359.236 145.527-14.417a10.1 10.1 0 0 0 6.867-3.675 10.1 10.1 0 0 0 2.257-7.454 10.1 10.1 0 0 0-3.676-6.867 10.1 10.1 0 0 0-6.432-2.307c-.339 0-146.55 14.466-146.55 14.466-5.584.553-9.677 5.546-9.124 11.13.554 5.584 5.543 9.676 11.131 9.124m132.869-28.607c3.926-7.087 13.939-6.905 17.488.406 2.777 6.496-1.926 13.753-9.029 13.707-7.134-.213-11.557-7.733-8.459-14.113m-21.333 2.061c3.573-7.196 14.123-6.966 17.444.319 2.967 6.345-2.048 13.917-9.038 13.72-7.048-.26-11.563-7.697-8.406-14.039"
  />
  <path
    fill="#8CBA3B"
    d="M525.138 337.812c3.644.808 5.02-4.498 1.423-5.503-3.655-.839-5.02 4.469-1.423 5.503"
  />
  <path
    fill="#000"
    d="M525.658 344.742c7.103.046 11.806-7.211 9.029-13.707-3.549-7.311-13.562-7.493-17.488-.406-3.098 6.38 1.325 13.9 8.459 14.113m.903-12.433c3.597 1.005 2.221 6.311-1.423 5.503-3.596-1.034-2.232-6.342 1.423-5.503"
  />
  <path
    fill="#FFFBE8"
    d="M503.792 339.792c3.649.82 5.028-4.451 1.43-5.527-3.674-.794-5.032 4.483-1.43 5.527"
  />
  <path
    fill="#000"
    d="M504.272 346.729c6.99.197 12.004-7.375 9.038-13.719-3.321-7.286-13.872-7.516-17.444-.32-3.158 6.342 1.358 13.779 8.406 14.039m.95-12.464c3.598 1.076 2.219 6.347-1.43 5.527-3.602-1.044-2.244-6.321 1.43-5.527"
  />
  <path
    fill="#000"
    d="M623.48 285.959a5.8 5.8 0 0 0 2.478.559c.663 0 1.329-.116 1.972-.347a5.78 5.78 0 0 0 3.297-2.997 5.78 5.78 0 0 0 .212-4.449 5.83 5.83 0 0 0-7.447-3.509 5.8 5.8 0 0 0-3.296 2.997 5.78 5.78 0 0 0-.212 4.45 5.78 5.78 0 0 0 2.996 3.296"
  />
  <path
    fill="#000"
    d="M627.315 268.862c.581-.021 5.764-.141 8.593 2.808 1.759 1.833 2.417 4.724 1.956 8.594a3.805 3.805 0 0 0 3.899 4.244 3.82 3.82 0 0 0 3.644-3.345c.742-6.236-.61-11.199-4.019-14.751-5.648-5.888-14.59-5.128-14.665-5.12a3.77 3.77 0 0 0-2.591 1.315 3.77 3.77 0 0 0-.901 2.763 3.86 3.86 0 0 0 1.346 2.647 3.66 3.66 0 0 0 2.738.845"
  />
  <path
    fill="#000"
    d="M625.183 253.504a3.76 3.76 0 0 0 2.844.58c.68-.107 6.809-.954 12.303 2.154 6.296 3.559 13.624 10.347 12.788 22.472a3.77 3.77 0 0 0 .924 2.755 3.77 3.77 0 0 0 2.872 1.303l.118-.001.001-.001a3.78 3.78 0 0 0 3.66-3.534c.867-12.539-5.037-23.053-16.624-29.605-8.289-4.689-17.103-3.072-17.473-3.001a3.77 3.77 0 0 0-2.427 1.598 3.77 3.77 0 0 0-.587 2.846 3.78 3.78 0 0 0 1.601 2.434"
  />
  <path fill="#000" d="M370.159 305.53a5.04 5.04 0 1 0 4.175 9.173 5.04 5.04 0 0 0-4.175-9.173" />
  <path
    fill="#000"
    d="M357.114 295.502c-5.119 5.789-3.715 14.193-3.702 14.263a3.63 3.63 0 0 0 4.151 3.003 3.68 3.68 0 0 0 2.412-1.488c.551-.778.76-1.727.591-2.669-.109-.892-.525-5.481 1.977-8.308 1.587-1.796 4.251-2.635 7.94-2.505 1.982.096 3.679-1.491 3.754-3.491a3.646 3.646 0 0 0-3.489-3.751c-5.954-.222-10.539 1.446-13.634 4.946"
  />
  <path
    fill="#000"
    d="M340.892 312.169a3.6 3.6 0 0 0 2.752.335 3.6 3.6 0 0 0 2.189-1.712 3.58 3.58 0 0 0 .33-2.749c-.153-.633-1.426-6.346 1.078-11.764 2.868-6.211 8.701-13.648 20.197-13.799a3.6 3.6 0 0 0 2.548-1.093 3.6 3.6 0 0 0 1.004-2.946 3.61 3.61 0 0 0-3.595-3.205h-.052c-11.914.155-21.389 6.549-26.681 18.004-3.789 8.201-1.575 16.401-1.479 16.746a3.6 3.6 0 0 0 1.709 2.183"
  />
  <path
    fill="#FFFBE8"
    d="M600.414 384.92c-1.034-4.549-.517-8.114 1.766-12.183-4.548 1.035-8.114.518-12.183-1.766 1.034 4.55.517 8.114-1.767 12.183 1.484-.337 2.862-.509 4.187-.509 2.741 0 5.254.736 7.997 2.275"
  />
  <path
    fill="#000"
    d="M585.222 390.055c7.166-2.742 10.026-2.325 16.116 2.337l.001.001a3.87 3.87 0 0 0 2.355.807 3.87 3.87 0 0 0 2.321-.78 3.84 3.84 0 0 0 1.3-4.491c-2.741-7.164-2.326-10.026 2.336-16.116a3.84 3.84 0 0 0 .03-4.675 3.846 3.846 0 0 0-4.492-1.302c-7.166 2.742-10.026 2.326-16.116-2.337a3.84 3.84 0 0 0-4.676-.028 3.84 3.84 0 0 0-1.301 4.491c2.741 7.164 2.326 10.026-2.337 16.116a3.84 3.84 0 0 0-.028 4.677 3.84 3.84 0 0 0 4.491 1.3m4.775-19.084c4.069 2.284 7.635 2.801 12.183 1.766-2.283 4.069-2.8 7.634-1.766 12.183-2.743-1.539-5.256-2.276-7.997-2.276-1.325 0-2.703.173-4.186.51 2.283-4.069 2.8-7.634 1.766-12.183"
  />
  <path
    fill="#FFFBE8"
    d="M503.402 209.32c4.544-2.21 8.365-2.499 13.19-.996-2.208-4.544-2.497-8.366-.995-13.19-4.545 2.209-8.367 2.498-13.19.996 2.208 4.544 2.496 8.366.995 13.19"
  />
  <path
    fill="#000"
    d="M496.316 211.779a3.884 3.884 0 0 0 1.001 4.619c.737.634 1.64.956 2.549.956.749 0 1.501-.219 2.169-.66 6.702-4.437 9.723-4.665 17.015-1.284a3.89 3.89 0 0 0 4.62-1 3.885 3.885 0 0 0 .296-4.718c-4.437-6.702-4.665-9.724-1.284-17.016a3.884 3.884 0 0 0-1-4.62 3.885 3.885 0 0 0-4.718-.296c-6.703 4.438-9.724 4.665-17.015 1.285a3.88 3.88 0 0 0-4.62.999 3.88 3.88 0 0 0-.296 4.718c4.437 6.702 4.665 9.724 1.283 17.017m19.281-16.645c-1.502 4.825-1.213 8.646.995 13.19-4.825-1.503-8.646-1.214-13.19.996 1.501-4.824 1.213-8.646-.995-13.19 4.824 1.502 8.645 1.213 13.19-.996"
  />
  <path
    fill="#FFFBE8"
    d="M750.361 550.131a3.4 3.4 0 0 1-1.889-1.923 3.4 3.4 0 0 1 .104-2.693c.807-1.688.615-2.95-.604-3.97-1.749-1.462-5.229-1.891-7.806-.037a3.4 3.4 0 0 1-4.547-.523c-1.252-1.434-3.166-2.049-5.174-2.049a11.1 11.1 0 0 0-5.286 1.376c-1.245.694-4.042 2.628-3.13 5.588a3.4 3.4 0 0 1-2.804 4.372c-3.292.435-4.553 2.642-4.635 4.563-.077 1.802.867 4.134 3.782 4.775a3.4 3.4 0 0 1 1.319 6.033c-1.584 1.198-1.376 1.931-1.307 2.171.443 1.559 3.231 3.583 6.161 3.857 2.554.236 3.163-.989 3.366-1.393a3.4 3.4 0 0 1 2.98-1.88c1.252-.042 2.439.66 3.046 1.772.935 1.713 4.731 2.033 7.97.668 1.721-.725 4.467-2.397 3.529-5.447a3.4 3.4 0 0 1 2.386-4.289c3.483-.914 5.237-3.919 5.393-6.326.082-1.267-.179-3.556-2.854-4.645"
  />
  <path
    fill="#000"
    d="M755.696 545.41c.599-3.444-.576-6.75-3.361-9.08-3.681-3.078-9.166-3.674-13.687-1.727-4.936-3.561-11.858-2.985-16.799-.231-4.199 2.341-6.634 6.04-6.789 9.993-4.771 1.883-7.094 6.189-7.264 10.181-.167 3.899 1.561 7.396 4.487 9.598a7.8 7.8 0 0 0-.44 5.531c1.45 5.098 7.301 8.322 12.07 8.767q.614.057 1.21.057c2.268 0 4.308-.618 5.947-1.766 3.748 2.379 9.178 2.184 13.478.372 5.059-2.133 7.923-6.073 7.892-10.526 4.318-2.204 7.243-6.473 7.561-11.361.26-3.999-1.344-7.541-4.305-9.808m-2.481 9.367c-.156 2.406-1.91 5.412-5.393 6.326a3.4 3.4 0 0 0-2.386 4.288c.939 3.05-1.808 4.722-3.529 5.447-3.238 1.365-7.035 1.046-7.969-.667-.607-1.113-1.795-1.815-3.047-1.772a3.4 3.4 0 0 0-2.98 1.88c-.202.403-.812 1.628-3.366 1.393-2.93-.274-5.718-2.298-6.161-3.857-.069-.241-.277-.974 1.307-2.172a3.4 3.4 0 0 0 1.271-3.439 3.4 3.4 0 0 0-2.59-2.594c-2.915-.641-3.859-2.973-3.782-4.774.082-1.921 1.343-4.128 4.635-4.563a3.4 3.4 0 0 0 2.418-1.535c.54-.843.681-1.881.386-2.838-.912-2.96 1.885-4.894 3.13-5.588a11.14 11.14 0 0 1 5.286-1.376c2.008 0 3.922.616 5.174 2.049a3.403 3.403 0 0 0 4.547.524c2.577-1.854 6.057-1.425 7.806.036 1.219 1.021 1.411 2.282.604 3.97a3.404 3.404 0 0 0 1.785 4.617c2.675 1.088 2.936 3.377 2.854 4.645"
  />
  <path
    fill="#FFFBE8"
    d="M786.529 509.34a3.404 3.404 0 0 1-1.785-4.617c.284-.595.16-.699-.028-.856-.59-.494-2.059-.765-3.172.036a3.4 3.4 0 0 1-4.547-.524c-1.012-1.16-3.269-.969-4.78-.128-.483.27-1.579.993-1.302 1.889a3.398 3.398 0 0 1-2.805 4.372c-1.357.179-1.673.941-1.699 1.549-.016.388.076 1.319 1.287 1.586a3.398 3.398 0 0 1 1.32 6.032 3 3 0 0 0-.173.141c.283.318.903.8 1.801 1.062.809.237 1.312.129 1.404.063.566-1.132 1.732-1.888 2.998-1.91 1.316-.021 2.458.629 3.065 1.741.332.318 2.277.457 3.8-.468 1.078-.656.926-1.15.836-1.445a3.4 3.4 0 0 1 2.386-4.289c1.504-.395 2.261-1.671 2.327-2.69.074-1.135-.657-1.432-.933-1.544"
  />
  <path
    fill="#000"
    d="M789.08 498.651c-2.447-2.045-5.998-2.563-9.072-1.518-3.41-2.056-7.876-1.621-11.102.179-2.714 1.512-4.392 3.841-4.767 6.398-2.667 1.355-4.388 3.934-4.522 7.061-.106 2.483.842 4.743 2.505 6.342-.301 1.073-.299 2.206.025 3.349 1.049 3.687 5.185 6.011 8.543 6.324q.445.042.877.042c1.356 0 2.604-.304 3.677-.876 2.613 1.254 6.002 1.064 8.728-.083 3.281-1.383 5.296-3.952 5.599-6.87 2.683-1.64 4.469-4.469 4.677-7.674.171-2.635-.771-4.996-2.553-6.644.171-2.29-.732-4.454-2.615-6.03m-3.945 14.923a3.4 3.4 0 0 0-2.386 4.289c.09.295.242.789-.836 1.445-1.523.925-3.468.786-3.8.468-.607-1.112-1.749-1.762-3.065-1.741-1.266.022-2.432.777-2.998 1.91-.093.066-.595.174-1.405-.063-.897-.262-1.518-.744-1.8-1.062q.07-.063.173-.141a3.4 3.4 0 0 0-1.32-6.033c-1.211-.266-1.303-1.197-1.287-1.585.026-.608.342-1.37 1.699-1.549a3.402 3.402 0 0 0 2.805-4.372c-.277-.896.818-1.62 1.302-1.889 1.511-.841 3.768-1.032 4.78.128a3.4 3.4 0 0 0 4.547.524c1.113-.801 2.581-.53 3.172-.036.188.157.312.261.028.856a3.4 3.4 0 0 0 1.785 4.617c.276.112 1.007.409.933 1.544-.066 1.019-.823 2.295-2.327 2.69"
  />
  <path
    fill="#000"
    d="M492.823 483.231c9.41-.044 18.83-.9 28.248-.547a252 252 0 0 1 21.125 1.453c2.34.248 4.667.595 7.007.849a3.406 3.406 0 0 0 3.851-2.872 3.4 3.4 0 0 0-2.868-3.857c-4.812-.707-9.645-1.306-14.502-1.595-4.716-.311-9.871-.484-14.58-.41-9.763.337-19.56.499-28.936 3.76-1.767.645-1.214 3.307.655 3.219"
  />
  <path
    fill="#000"
    d="M509.804 470.387c4.531-.627 9.474-1.113 14.032-1.31 2.343-.128 4.69-.167 7.035-.161 2.363-.094 4.641.433 7.112-.432 1.835-.498 2.188-3.195.502-4.129-2.332-1.391-4.868-1.328-7.335-1.602-7.53-.607-14.949-.418-22.432.927-4.257.949-3.258 7.155 1.086 6.707"
  />
  <path
    fill="#000"
    d="m782.279 693.892 8.616 2.473q.472.134.94.133a3.4 3.4 0 0 0 .937-6.669l-8.616-2.473a3.399 3.399 0 1 0-1.877 6.536"
  />
  <path
    fill="#64862A"
    d="M477.509 812.815c14.856-.83 29.779-1.281 44.716-1.281 13.376 0 26.739.357 40.05 1.024 6.946-6.38 13.771-12.447 19.958-17.624-36.104-32.626-72.955-35.393-107.208-25.383.187 2.656 2.914 38.287 2.9 41.665a3.4 3.4 0 0 1-.416 1.599"
  />
  <path
    fill="#8CBA3B"
    d="M601.393 788.793c-7.352 4.832-18.081 13.896-29.58 24.296 135.454 8.307 264.317 48.235 343.326 77.686-4.788-13.718-12.977-29.67-25.781-33.022-5.687-1.488-11.493-1.974-17.641-2.487-21.022-1.758-44.85-3.749-76.763-45.647-66.603-87.439-138.428-57.06-193.561-20.826"
  />
  <path
    fill="#D2E6B0"
    d="M179.309 880.381c-30.387 10.109-56.467 19.908-76.781 28.014a2296 2296 0 0 1 81.645-14.434c-2.294-4.302-4.379-9.228-4.864-13.58"
  />
  <path
    fill="#D2E6B0"
    d="M423.397 845.977q5.853-.343 11.711-.643a19.4 19.4 0 0 1-6.116-4.975c-3.131-3.838-4.613-8.565-4.065-12.968a13.6 13.6 0 0 1 .76-3.057 691 691 0 0 1-6.255.79 19.6 19.6 0 0 1 2.421 2.665c2.959 3.951 4.24 8.726 3.516 13.099a13.2 13.2 0 0 1-1.972 5.089"
  />
  <path
    fill="#D2E6B0"
    d="M395.626 843.809a13.3 13.3 0 0 1-1.396 4.113q3.72-.275 7.444-.538a19.4 19.4 0 0 1-3.136-3.301c-2.959-3.95-4.24-8.724-3.516-13.097.179-1.078.49-2.098.897-3.063-1.844.267-3.681.544-5.519.821a19.5 19.5 0 0 1 1.711 1.966c2.959 3.951 4.24 8.725 3.515 13.099"
  />
  <path
    fill="#D2E6B0"
    d="M482.129 819.369c2.378 3.539 3.455 7.643 2.975 11.5-.443 3.557-2.194 6.636-4.932 8.67-2.268 1.684-5.006 2.489-7.849 2.489-4.957 0-10.234-2.446-13.902-6.944-3.131-3.838-4.612-8.565-4.065-12.968.038-.302.098-.596.154-.89-1.454.12-2.909.237-4.361.365a20 20 0 0 1 1.462 1.584c3.131 3.838 4.612 8.565 4.064 12.969-.429 3.444-2.094 6.432-4.684 8.464 27.462-1.089 54.957-1.297 82.295.007 3.848.211 7.681.518 11.491 1.681a1.157 1.157 0 0 1-.236 2.258c-3.818.454-7.636.38-11.439.242-34.372-.964-68.754.945-103.053 3.117-16.48 1.13-40.781 2.971-57.17 4.543-3.808.349-7.627.568-11.517.051a2.493 2.493 0 0 1-.452-4.848c2.946-.961 6.634-1.51 10.406-1.894a19.6 19.6 0 0 1-2.52-2.76c-2.959-3.951-4.24-8.725-3.516-13.099.064-.383.149-.757.242-1.127-52.918 9.226-102.733 21.881-146.329 34.977a320 320 0 0 1-1.807 10.144c3.605-4.527 5.46-4.541 6.406-4.547 1.697-.037 3.193.939 4.007 2.543 1.231 2.429 1.344 6.822.98 11.476 97.524-13.395 194.116-19.98 292.073-19.98 143.969 0 287.091 15.475 436.4 47.24-73.117-30.352-252.941-96.299-435.027-96.299-13.388 0-26.767.36-40.096 1.036"
  />
  <path
    fill="#8CBA3B"
    d="M227.954 894.347a150 150 0 0 1-1.748 9.364 3.4 3.4 0 0 1-6.641-1.464c1.49-6.762 2.616-14.742 2.639-19.513-2.718 3.799-6.636 10.726-9.659 16.9a3.4 3.4 0 0 1-6.353-2.317c.033-.133 3.347-13.487 5.773-27.559 3.917-22.714 2.333-28.752 1.69-30.14-.241.112-.596.313-1.078.668-10.529 7.76-10.416 31.122-8.858 45.411.056.254.088.51.085.764.247 2.141.522 4.064.796 5.667.091.485.151.839.183 1.033a3.4 3.4 0 0 1-6.699 1.164 52 52 0 0 1-.149-.853c-1.072-5.844-3.983-15.093-7.838-17.308-.868-.499-1.68-.542-2.714-.147-.808.309-1.071.715-1.236 1.27-1.35 4.572 5.102 16.299 10.116 23.165a3.4 3.4 0 0 1-5.491 4.012 91 91 0 0 1-2.877-4.202c-39.038 6.125-78.276 13.335-117.865 21.665q-1.518.663-2.912 1.277h897.658c-152.081-32.966-297.56-49.012-443.924-49.012-98.229 0-195.085 6.64-292.898 20.155"
  />
  <path
    fill="#DB00F8"
    d="M227.692 792.001c2.394 3.735 1.589 9.176-2.208 14.928-2.982 4.516-1.536 9.999 1.069 13.182 1.254 1.532 4.738 4.863 10.029 2.723 5.618-2.273 5.86-5.427 6.262-10.653.271-3.524.578-7.519 3.036-11.195 3.721-5.564 9.787-4.661 15.139-3.867 4.94.735 9.605 1.428 13.738-1.575 4.199-3.052 6.042-9.207 4.286-14.319-1.672-4.87-6.166-7.439-12.627-7.22-5.715.192-9.609-.25-12.346-1.475-2.339 1.731-4.267 3.351-5.82 4.799 3.435-.249 7.163.123 10.279 1.967a3.4 3.4 0 0 1-3.464 5.852c-3.532-2.091-9.737-.727-13.132.394a3.4 3.4 0 0 1-.869.68c-.692.722-2.075 4.221-.982 12.807a3.4 3.4 0 1 1-6.746.858c-.978-7.683-.26-12.418.934-15.339-1.928-1.123-5.656-2.478-11.216-1.009a3.403 3.403 0 0 1-4.156-2.42 3.4 3.4 0 0 1 2.42-4.156c5.678-1.497 10.162-.845 13.39.333-.108-3.006.579-7.217 3.196-12.925a3.4 3.4 0 1 1 6.181 2.834c-1.335 2.912-2.014 5.192-2.336 6.956 1.891-1.932 4.357-4.155 7.535-6.559-1.14-2.989-.753-6.686-.293-11.072.255-2.431.544-5.186.635-8.254.081-2.724-.984-4.871-3.001-6.043-2.577-1.5-6.17-1.219-9.376.733-2.945 1.793-3.452 5.138-4.034 10.447-.493 4.497-1.051 9.593-4.311 13.746-5.547 7.068-11.154 4.346-14.167 2.884-4.099-1.99-8.762-.071-12.467 5.132-1.91 2.683-2.057 6.641-.349 9.411 1.809 2.936 5.337 4.092 10.205 3.343q2.75-.423 5.072-.423c5.057 0 8.576 1.504 10.494 4.495"
  />
  <path
    fill="#FFB921"
    d="M288.836 759.654a3.167 3.167 0 0 0 .868-4.388 3.14 3.14 0 0 0-2.015-1.343 3.14 3.14 0 0 0-2.374.475 3.17 3.17 0 0 0-.868 4.389 3.17 3.17 0 0 0 4.389.867"
  />
  <path
    fill="#FFFBE8"
    d="M407.71 827.075c-1.307 0-2.536.331-3.561 1.031-1.638 1.12-2.219 2.789-2.418 3.991-.423 2.553.397 5.437 2.25 7.911 3.26 4.353 8.874 6.075 12.261 3.759 1.637-1.12 2.219-2.788 2.418-3.99.423-2.554-.397-5.437-2.25-7.911-2.272-3.035-5.691-4.791-8.7-4.791"
  />
  <path
    fill="#FFFBE8"
    d="M386.5 846.688c1.638-1.12 2.219-2.788 2.418-3.991.423-2.553-.397-5.436-2.25-7.91-2.272-3.035-5.69-4.791-8.699-4.791-1.307 0-2.536.33-3.562 1.031-1.637 1.12-2.219 2.788-2.418 3.991-.423 2.553.397 5.437 2.25 7.911 3.26 4.352 8.875 6.072 12.261 3.759"
  />
  <path
    fill="#FFFBE8"
    d="M446.688 839.354c1.58-1.173 2.09-2.85 2.239-4.05.32-2.57-.622-5.424-2.586-7.831-2.325-2.851-5.67-4.465-8.611-4.465-1.42 0-2.745.376-3.816 1.172-1.58 1.173-2.089 2.85-2.239 4.05-.32 2.57.623 5.424 2.586 7.832 3.448 4.227 9.14 5.735 12.427 3.292"
  />
  <path
    fill="#FFFBE8"
    d="M463.343 818.905c-1.579 1.173-2.089 2.85-2.239 4.051-.319 2.569.623 5.423 2.586 7.831 3.448 4.227 9.141 5.735 12.428 3.293 1.579-1.174 2.089-2.851 2.238-4.051.32-2.57-.622-5.424-2.585-7.831-2.326-2.851-5.671-4.465-8.611-4.465-1.42 0-2.746.376-3.817 1.172"
  />
  <path
    fill="#8CBA3B"
    d="M436.028 804.442a4.217 4.217 0 1 0-2.59-8.027 4.217 4.217 0 0 0 2.59 8.027"
  />
  <path
    fill="#8CBA3B"
    d="M450.51 801.369c.77-5.04-.202-9.114-2.891-12.108-4.272-4.759-11.036-4.606-11.789-4.571a3.39 3.39 0 0 0-3.238 3.526 3.41 3.41 0 0 0 3.517 3.268c1.203-.034 4.667.309 6.47 2.341 1.248 1.407 1.655 3.6 1.209 6.517a3.4 3.4 0 0 0 3.365 3.914c1.651 0 3.1-1.205 3.357-2.887"
  />
  <path
    fill="#8CBA3B"
    d="M458.944 803.259q.177.018.35.018a3.4 3.4 0 0 0 3.379-3.054c1.03-10.067-3.436-18.683-12.576-24.26-6.564-4.006-13.725-2.935-14.027-2.888a3.393 3.393 0 0 0-2.822 3.868 3.406 3.406 0 0 0 3.863 2.852c.051-.006 5.063-.701 9.444 1.972 4.796 2.927 10.313 8.385 9.353 17.764a3.4 3.4 0 0 0 3.036 3.728"
  />
  <path
    fill="#FFFBE8"
    d="M688.393 674.491c.221-.025.463-.042.72-.042.956 0 2.117.231 3.148 1.083 2.756 2.277 2.643 7.428-.246 11.248-1.647 2.178-3.886 3.578-6.142 3.842-1.042.122-2.56.04-3.869-1.041-2.755-2.276-2.642-7.428.247-11.248 1.646-2.178 3.885-3.578 6.142-3.842"
  />
  <path
    fill="#FFFBE8"
    d="M672.202 653.062c1.647-2.177 3.885-3.578 6.142-3.842.221-.025.463-.042.72-.042.956 0 2.118.231 3.149 1.083 2.755 2.277 2.642 7.428-.247 11.248-1.647 2.178-3.885 3.578-6.143 3.842-1.041.12-2.559.04-3.867-1.041-2.756-2.277-2.643-7.428.246-11.248"
  />
  <path
    fill="#FFFBE8"
    d="M666.818 623.88c1.029-.161 2.535-.142 3.873.878 2.838 2.164 2.924 7.329.187 11.279-1.563 2.255-3.747 3.751-5.993 4.106-1.027.162-2.535.142-3.873-.878-2.838-2.164-2.924-7.329-.186-11.279 1.563-2.255 3.747-3.751 5.992-4.106"
  />
  <path
    fill="#FFFBE8"
    d="M648.797 603.582c1.563-2.255 3.748-3.752 5.993-4.107 1.03-.162 2.535-.141 3.873.878 2.839 2.164 2.924 7.329.186 11.279-1.562 2.255-3.746 3.751-5.992 4.106-1.027.163-2.536.143-3.873-.878-2.838-2.163-2.924-7.328-.187-11.278"
  />
</svg>
