<svg xmlns="http://www.w3.org/2000/svg" width="1086" height="772" fill="none" viewBox="0 0 1086 772"><path fill="#8A1FD1" d="M183.255 230.137c-2.837.877-5.621 1.747-8.339 2.609l38.6 157.873c1.108-3.841 2.614-8.062 4.519-12.654z"/><path fill="#8A1FD1" d="m589.346 171.731-1.771 88.576a306 306 0 0 1 7.725-1.859l.878-86.503c-2.229-.076-4.51-.147-6.832-.214"/><path fill="#BE7AEB" d="M359.773 181.277c7.734-1.344 15.547-2.701 23.37-4.09 120.081-21.307 247.717-11.388 271.139-9.282l12.599-152.311C587.285 5.986 504.376 4.87 420.386 12.28c-68.22 6.02-137.302 17.645-205.327 34.554C126.112 68.945 56.03 96.298 28.204 109.06L93.9 255.176c24.35-11.707 90.578-36.973 191.787-59.872 21.954-4.967 47.277-9.368 74.086-14.027M98.749 242.651 43.558 115.262l3.278-1.533c23.732-11.097 91.606-37.784 178.626-59.354 63.852-15.828 128.69-26.838 192.714-32.723 80.053-7.358 159.052-6.682 234.807 2.011l3.572.41-10.558 133.185-3.691-.269c-.862-.063-87.149-6.232-163.027-1.301-38.342 2.492-74.851 8.057-117.125 14.502l-7.452 1.135c-122.981 18.715-251.313 69.478-252.595 69.988z"/><path fill="#DFBDF5" d="M262.657 129.023a135 135 0 0 1-3.324 2.036l-2.189 1.374c-3.727 2.382-5.226 4.864-4.536 7.413.388 1.434 1.152 2.389 2.282 2.863 1.134.477 2.52.505 4.167.082q1.929-.493 3.825-1.814a13 13 0 0 0 3.209-3.178c.878-1.24 1.366-2.549 1.467-3.937q-.907-3.503-1.819-7.006a37 37 0 0 1-3.082 2.167"/><path fill="#DFBDF5" d="M558.695 85.897c.703 1.515 1.684 2.742 2.951 3.69 1.267.945 2.75 1.408 4.461 1.396 2.389-.017 4.251-.81 5.603-2.388 1.346-1.573 1.991-3.568 1.919-5.985-.078-2.811-.878-5.128-2.397-6.941s-3.565-2.715-6.132-2.694c-2.49.024-4.405.82-5.722 2.39-1.323 1.578-1.932 3.52-1.839 5.834.067 1.62.45 3.19 1.156 4.698"/><path fill="#DFBDF5" d="M559.866 123.219c2.329.914 5.482 1.351 9.485 1.33 4.177-.02 7.191-.41 9.044-1.202q2.784-1.18 2.749-3.515-.027-1.885-1.593-2.683c-1.038-.533-2.635-.898-4.774-1.097q-7.005-.59-14.007-1.102c-1.285.347-2.365.882-3.229 1.604-.871.724-1.282 1.611-1.249 2.672.06 1.753 1.252 3.08 3.574 3.993"/><path fill="#DFBDF5" d="M478.796 148.255c67.448-4.384 142.98-.06 160.36 1.058l9.406-118.655c-74.117-8.246-151.333-8.786-229.574-1.602-63.627 5.842-128.07 16.776-191.538 32.498-82.773 20.505-148.058 45.638-174.17 57.413l49.441 114.115c21.155-8.149 138.183-51.973 250.86-69.12l7.451-1.135c42.445-6.47 79.101-12.059 117.764-14.572m143.403-38.045c-6.787 10.336-25.795.79-18.793-10.711 6.777-10.443 25.957-.858 18.793 10.711m-18.085-65.988c2.062-1.55 4.901-2.277 8.504-2.184 3.599.099 6.455.974 8.537 2.617 2.087 1.643 3.131 4.042 3.137 7.188q0 1.838-.386 3.614a68895 68895 0 0 1-5.626 32.298q-5.425-.174-10.843-.302a2137 2137 0 0 0-5.947-32.901q-.362-1.797-.388-3.287c-.056-3.145.94-5.495 3.012-7.043m-58.307 65.037c-1.155-1.166-1.777-2.606-1.855-4.324-.087-2.048.521-3.77 1.861-5.155 1.331-1.387 3.406-2.33 6.222-2.81a18 18 0 0 1-6.007-2.88 16 16 0 0 1-4.425-4.927c-1.137-1.958-1.76-4.104-1.888-6.453-.199-3.665.761-6.942 2.895-9.809s5.137-5.114 9.011-6.723c3.871-1.61 8.215-2.442 13.012-2.484 3.668-.03 7.067.346 10.185 1.12 3.114.775 5.821 1.918 8.112 3.419 1.508-.688 3.126-1.67 4.865-2.946q2.603-1.913 4.376-3.678 3.688 4.81 7.323 9.64-1.67 1.509-4.255 2.913a34 34 0 0 1-5.278 2.316c.797 1.897 1.205 3.968 1.246 6.219.052 3.145-.91 6.01-2.869 8.607-1.96 2.593-4.839 4.643-8.626 6.174-3.788 1.526-8.282 2.299-13.488 2.337l-2.125.018q-1.269.01-2.073.716-.8.704-.766 1.695c.045 1.357 1.591 2.144 4.632 2.387q6.846.542 13.696 1.157c5.949.547 10.494 1.953 13.618 4.18 3.126 2.225 4.686 5.411 4.697 9.549.005 3.175-1.31 5.91-3.934 8.222-2.627 2.308-6.219 4.06-10.781 5.271-4.56 1.215-9.705 1.828-15.434 1.865-5.798.035-10.823-.489-15.085-1.602s-7.543-2.669-9.84-4.694-3.512-4.367-3.634-7.044c-.104-2.348.806-4.341 2.763-5.979 1.953-1.641 4.841-2.888 8.666-3.723-2.06-.557-3.66-1.41-4.817-2.574m-73.36-39.052q9.116-1.98 18.296-3.837 1.397.756 2.792 1.515.82 4.003 1.628 8.007c2.733-3.215 5.791-5.792 9.173-7.713q5.075-2.88 9.406-3.081c3.971-.183 7.384.485 10.238 1.995 2.852 1.512 5.061 3.728 6.627 6.637 1.567 2.91 2.462 6.383 2.694 10.414q.349 6.045.68 12.09c.129 2.348.335 4.231.623 5.664q.43 2.147 1.304 3.734.875 1.583 2.592 3.32l-.409 4.626q-12.34.363-24.626.96-.152-2.302-.307-4.603 1.295-1.851 1.895-3.518c.4-1.114.648-2.381.748-3.81.096-1.429.073-3.315-.088-5.659q-.255-3.762-.519-7.526c-.224-3.235-1.065-5.686-2.505-7.355-1.446-1.671-3.531-2.438-6.238-2.296q-3.476.182-6.228 2.926-2.747 2.747-3.655 6.482.365 4.377.723 8.753c.19 2.343.448 4.221.769 5.644q.485 2.133 1.4 3.694.91 1.56 2.664 3.248l-.281 4.636q-12.262.707-24.469 1.644l-.429-4.592c.826-1.255 1.426-2.445 1.79-3.568q.554-1.685.644-3.829.09-2.143-.243-5.654a4415 4415 0 0 0-1.045-10.866q-.398-4.046-1.047-6.563c-.438-1.68-1.015-3.033-1.752-4.072-.734-1.042-1.7-1.957-2.895-2.763zm-4.957 29.869c.244 2.34.538 4.211.891 5.626q.53 2.12 1.475 3.662.942 1.538 2.725 3.187l-.178 4.64q-12.195.985-24.329 2.2-.263-2.291-.529-4.582 1.192-1.912 1.704-3.609.513-1.694.554-3.841.044-2.144-.365-5.647-.633-5.42-1.281-10.839-.485-4.04-1.187-6.538c-.472-1.667-1.082-3.012-1.838-4.03q-1.131-1.537-2.94-2.698l-.112-4.68q9.65-2.247 19.372-4.356l2.814 1.452a3914 3914 0 0 1 3.224 30.053m-25.629-47.828c.777-1.604 1.99-2.935 3.656-3.975q2.493-1.564 5.812-1.872c2.211-.203 4.218.04 6.005.73q2.683 1.033 4.326 3.139c1.096 1.401 1.743 3.008 1.951 4.816.209 1.846-.059 3.542-.808 5.1q-1.122 2.338-3.528 3.842-2.406 1.507-5.731 1.812c-2.258.209-4.278-.02-6.079-.675-1.797-.657-3.257-1.654-4.37-2.987q-1.678-2.001-2.031-4.71-.368-2.806.797-5.22m-50.687.98q1.43.654 2.857 1.311a3964 3964 0 0 1 4.904 30.234 34.4 34.4 0 0 1 8.207-7.784c3.158-2.14 6.237-3.392 9.214-3.75 3.863-.465 7.256-.043 10.172 1.257 2.914 1.3 5.261 3.359 7.026 6.162q2.648 4.209 3.414 10.163.768 6.005 1.519 12.009.44 3.547.988 5.631c.362 1.391.88 2.595 1.542 3.606q.994 1.513 2.757 3.126l-.076 4.644a1276 1276 0 0 0-24.181 2.737q-.311-2.283-.626-4.568c.758-1.325 1.304-2.552 1.64-3.672.337-1.124.499-2.41.496-3.857q-.009-2.172-.484-5.612a3859 3859 0 0 0-1.041-7.468q-.67-4.763-3.012-7.13c-1.558-1.575-3.678-2.197-6.336-1.86q-3.412.434-5.928 3.368a13.6 13.6 0 0 0-3.146 6.728q.672 4.338 1.332 8.676.527 3.482 1.159 5.575c.418 1.393.966 2.591 1.638 3.584q1.007 1.489 2.853 3.048l.052 4.644a1264 1264 0 0 0-23.987 3.402q-.372-2.275-.748-4.55 1.087-1.969 1.513-3.689.424-1.718.359-3.863c-.042-1.432-.255-3.303-.638-5.623a3882 3882 0 0 0-5.638-33.113q-.724-4.154-1.579-6.664-.85-2.507-2.07-4.003c-.822-.997-1.86-1.869-3.126-2.61l-.292-4.625a1314 1314 0 0 1 19.266-5.464M163.102 178.541c-4.171 4.25-9.57 7.548-16.214 9.944-7.083 2.556-13.862 3.42-20.426 2.573-6.567-.85-12.336-3.164-17.344-6.985-5.005-3.822-8.779-8.755-11.27-14.843-2.654-6.483-3.368-13.05-2.052-19.709 1.308-6.658 4.318-12.642 9.05-17.921 4.732-5.274 10.633-9.204 17.657-11.739 6.426-2.318 12.871-3.135 19.261-2.454 6.397.686 12.003 2.698 16.8 6.017a1957 1957 0 0 0-3.292 15.965q-3.431 1.166-6.853 2.35c-2.354-3.766-5.422-6.326-9.197-7.666-3.773-1.336-7.953-1.189-12.504.457-3.668 1.326-6.64 3.301-8.902 5.903q-3.397 3.908-4.102 9.103c-.473 3.464.051 7.104 1.55 10.919 1.523 3.875 3.703 7.064 6.535 9.584 2.83 2.519 6.036 4.129 9.627 4.846 3.594.713 7.262.388 11.036-.972 4.025-1.453 7.043-3.701 9.049-6.769 2.007-3.065 3.081-6.856 3.207-11.374q3.41-1.175 6.828-2.331 5.464 5.531 10.846 11.107c-2.015 5.092-5.118 9.747-9.29 13.995m50.095-12.884q-.67-2.205-1.345-4.408c.51-1.427.841-2.726.983-3.885.138-1.164.091-2.456-.15-3.886-.243-1.426-.698-3.247-1.377-5.459q-1.103-3.603-2.214-7.203-1.417-4.595-4.055-6.554c-1.758-1.303-3.9-1.58-6.406-.822-2.147.648-3.869 2.076-5.166 4.271-1.297 2.2-1.936 4.582-1.936 7.14q1.352 4.174 2.693 8.35c.717 2.234 1.396 4.004 2.023 5.314q.949 1.964 2.162 3.275 1.211 1.31 3.241 2.551l.805 4.574a1234 1234 0 0 0-22.546 7.184q-.73-2.186-1.463-4.37.726-2.116.855-3.88.13-1.763-.284-3.869-.409-2.107-1.53-5.445a3884 3884 0 0 0-10.834-31.772q-1.378-3.985-2.609-6.323-1.232-2.336-2.653-3.619-1.424-1.28-3.44-2.076l-1.039-4.516a1292 1292 0 0 1 17.699-8.466q1.485.417 2.969.837a3858 3858 0 0 1 9.649 29.05 34.2 34.2 0 0 1 6.644-8.995q4.052-3.925 8.271-5.173c3.639-1.078 6.983-1.204 10.003-.387 3.017.818 5.609 2.469 7.763 4.955 2.158 2.484 3.799 5.647 4.932 9.482a3586 3586 0 0 1 3.407 11.607c.668 2.286 1.284 4.085 1.863 5.398q.861 1.972 2.067 3.31 1.206 1.335 3.157 2.643l.679 4.595a1241 1241 0 0 0-22.818 6.572m62.916-16.384-2.824-1.049q-1.449-3.14-2.91-6.277c-.588 1.677-1.612 3.394-3.064 5.151-1.45 1.757-3.266 3.358-5.436 4.794a23.4 23.4 0 0 1-7.064 3.153q-4.744 1.24-8.644.392c-2.607-.565-4.76-1.631-6.468-3.202-1.703-1.574-2.865-3.419-3.471-5.55-2.276-7.965 2.461-14.874 14.475-20.484q6.564-3.13 13.186-6.194-1.071-3.463-3.603-5.188c-1.69-1.145-3.753-1.415-6.178-.804q-3.589.911-5.067 3.295-1.476 2.38-1.33 5.622a1289 1289 0 0 0-15.544 2.35l-1.631-1.713q.535-4.107 3.418-8.125c1.923-2.676 4.542-5.072 7.853-7.169 3.314-2.098 7.127-3.698 11.447-4.785 4.654-1.171 8.961-1.455 12.901-.858 3.937.596 7.225 2.012 9.835 4.236 2.616 2.222 4.37 5.152 5.27 8.776q1.244 5.006 2.474 10.015c.956 3.884 2.003 6.771 3.149 8.66 1.143 1.888 2.631 3.236 4.467 4.035q.536 2.242 1.067 4.485a1214 1214 0 0 0-16.308 6.434m16.656-25.114-.921-.301q-1.216-5.978-2.448-11.954a1296 1296 0 0 1 27.222-5.915l.936.37q1.058 6.035 2.103 12.071a1279 1279 0 0 0-26.892 5.729m49.212 7.898c-4.536-1.496-8.28-3.892-11.231-7.228-2.953-3.335-4.911-7.208-5.854-11.638-.936-4.398-.524-8.735 1.284-13.011 1.801-4.276 4.702-7.953 8.71-11.017 4.007-3.067 8.641-5.062 13.87-5.97 5.618-.977 10.6-.71 14.928.784 4.327 1.494 7.985 3.638 10.975 6.422a1212 1212 0 0 0-13.645 10.533q-1.99-2.687-4.724-4.26-2.737-1.576-6.003-1.005-2.957.517-4.949 2.334c-1.33 1.212-2.236 2.757-2.713 4.644-.477 1.884-.483 3.962-.033 6.23.504 2.53 1.413 4.727 2.709 6.592 1.299 1.864 2.875 3.218 4.719 4.066q2.766 1.266 6.021.705 3.914-.678 6.628-2.966c1.806-1.524 3.335-3.513 4.587-5.959a1215 1215 0 0 1 12.142 5.004c-2.182 4.484-5.1 8.118-8.747 10.921-3.646 2.801-8.183 4.66-13.623 5.609-5.511.959-10.516.703-15.051-.79"/><path fill="#000" d="M362.154 170.19c42.273-6.445 78.783-12.011 117.125-14.503 75.878-4.931 162.165 1.239 163.027 1.302l3.691.269 10.558-133.184-3.572-.41c-75.755-8.694-154.754-9.37-234.807-2.012-64.024 5.885-128.862 16.894-192.714 32.722-87.02 21.571-154.894 48.258-178.626 59.355l-3.278 1.533 55.191 127.389 3.358-1.338c1.282-.511 129.614-51.273 252.595-69.988zM102.72 233.082 53.28 118.967c26.111-11.775 91.396-36.908 174.17-57.413 63.467-15.722 127.91-26.656 191.537-32.498 78.241-7.184 155.458-6.644 229.575 1.602l-9.406 118.655c-17.381-1.118-92.913-5.442-160.361-1.058-38.662 2.514-75.319 8.102-117.764 14.573l-7.45 1.134c-112.678 17.148-229.705 60.972-250.861 69.12"/><path fill="#000" d="M154.718 155.77c-.126 4.518-1.2 8.31-3.207 11.374-2.006 3.068-5.024 5.316-9.049 6.769-3.774 1.36-7.442 1.686-11.036.973-3.591-.718-6.797-2.328-9.627-4.847-2.832-2.52-5.012-5.708-6.535-9.584-1.499-3.814-2.023-7.454-1.55-10.919q.705-5.195 4.102-9.102c2.262-2.603 5.234-4.577 8.902-5.904 4.551-1.646 8.731-1.793 12.504-.456 3.775 1.339 6.843 3.899 9.197 7.665q3.422-1.184 6.854-2.35a1916 1916 0 0 1 3.291-15.964c-4.797-3.32-10.403-5.332-16.8-6.018-6.39-.681-12.835.136-19.261 2.454-7.024 2.535-12.925 6.465-17.657 11.739-4.732 5.279-7.742 11.264-9.05 17.921-1.316 6.659-.602 13.227 2.052 19.71 2.491 6.087 6.265 11.021 11.27 14.843 5.008 3.82 10.777 6.134 17.344 6.984 6.564.847 13.343-.017 20.426-2.572 6.644-2.397 12.043-5.694 16.214-9.944 4.172-4.249 7.275-8.904 9.29-13.996a1332 1332 0 0 0-10.846-11.107 1305 1305 0 0 0-6.828 2.331"/><path fill="#000" d="M232.179 151.847q-1.206-1.338-2.067-3.31c-.579-1.313-1.195-3.112-1.863-5.398a3586 3586 0 0 0-3.407-11.607c-1.133-3.835-2.774-6.998-4.933-9.482-2.153-2.486-4.745-4.136-7.763-4.955-3.019-.817-6.363-.691-10.003.387q-4.218 1.249-8.27 5.173a34.2 34.2 0 0 0-6.644 8.995 3798 3798 0 0 0-9.65-29.049q-1.483-.421-2.968-.838a1292 1292 0 0 0-17.699 8.466l1.039 4.516q2.015.796 3.44 2.077 1.421 1.281 2.653 3.619c.82 1.559 1.691 3.664 2.609 6.323a3871 3871 0 0 1 10.834 31.771q1.121 3.338 1.53 5.445.413 2.106.284 3.869t-.855 3.88q.733 2.185 1.463 4.37a1247 1247 0 0 1 22.546-7.184l-.805-4.574q-2.03-1.241-3.241-2.551-1.214-1.31-2.162-3.275c-.628-1.31-1.306-3.08-2.023-5.314q-1.342-4.176-2.693-8.349c0-2.559.639-4.941 1.936-7.141 1.297-2.195 3.019-3.623 5.166-4.271 2.506-.758 4.648-.481 6.406.823q2.638 1.957 4.055 6.553 1.11 3.6 2.214 7.203c.679 2.212 1.134 4.033 1.376 5.459.242 1.43.289 2.722.151 3.886-.142 1.159-.474 2.458-.983 3.885l1.345 4.408a1241 1241 0 0 1 22.817-6.572l-.678-4.595q-1.952-1.308-3.157-2.643"/><path fill="#000" d="M286.886 134.319q-1.716-2.834-3.148-8.659-1.231-5.009-2.474-10.016c-.901-3.624-2.655-6.554-5.271-8.776-2.609-2.223-5.897-3.639-9.834-4.236-3.94-.597-8.247-.313-12.902.858-4.319 1.088-8.133 2.688-11.446 4.785-3.312 2.098-5.93 4.494-7.854 7.169-1.923 2.678-3.059 5.389-3.418 8.126q.817.855 1.631 1.712 7.764-1.221 15.545-2.349-.147-3.242 1.33-5.622 1.478-2.385 5.066-3.295c2.426-.611 4.488-.341 6.178.803q2.533 1.725 3.603 5.188a1264 1264 0 0 0-13.185 6.194c-12.015 5.61-16.752 12.519-14.475 20.485.606 2.13 1.768 3.975 3.471 5.55q2.56 2.355 6.467 3.202 3.901.848 8.644-.393a23.4 23.4 0 0 0 7.065-3.153c2.17-1.436 3.985-3.036 5.435-4.794q2.18-2.636 3.065-5.15 1.461 3.136 2.91 6.277 1.413.523 2.823 1.048 8.117-3.27 16.309-6.433-.532-2.243-1.067-4.485c-1.837-.799-3.325-2.148-4.468-4.036m-20.795 3.48a13 13 0 0 1-3.21 3.179q-1.895 1.32-3.824 1.813c-1.647.423-3.033.395-4.167-.082-1.13-.474-1.894-1.429-2.282-2.863-.691-2.549.809-5.031 4.536-7.413q1.094-.688 2.189-1.374a137 137 0 0 0 3.324-2.036 37 37 0 0 0 3.081-2.167q.913 3.503 1.819 7.006c-.1 1.388-.588 2.697-1.466 3.937"/><path fill="#000" d="M316.622 105.99a1289 1289 0 0 0-27.223 5.914 5504 5504 0 0 1 2.449 11.954l.921.301a1280 1280 0 0 1 26.891-5.729 4908 4908 0 0 0-2.103-12.07z"/><path fill="#000" d="M379.402 116.317a1215 1215 0 0 0-12.142-5.004c-1.252 2.446-2.781 4.436-4.587 5.959q-2.714 2.289-6.628 2.966-3.255.56-6.021-.704c-1.844-.849-3.42-2.202-4.719-4.067-1.296-1.864-2.205-4.062-2.709-6.592-.45-2.267-.444-4.346.033-6.23.477-1.887 1.383-3.432 2.713-4.644q1.992-1.816 4.949-2.334 3.266-.57 6.003 1.005 2.733 1.573 4.724 4.261 6.768-5.302 13.645-10.534c-2.99-2.784-6.648-4.928-10.975-6.421-4.328-1.495-9.31-1.762-14.928-.785-5.229.908-9.863 2.903-13.87 5.97-4.008 3.064-6.909 6.74-8.71 11.018-1.808 4.275-2.22 8.612-1.284 13.01.943 4.43 2.901 8.304 5.854 11.638 2.951 3.336 6.695 5.732 11.231 7.228 4.535 1.493 9.54 1.749 15.051.79 5.44-.948 9.977-2.808 13.623-5.608 3.647-2.804 6.565-6.438 8.747-10.922"/><path fill="#000" d="M375.326 65.927q1.22 1.496 2.07 4.003.854 2.51 1.58 6.664a3923 3923 0 0 1 5.638 33.113c.383 2.32.595 4.191.637 5.623q.066 2.145-.359 3.863-.426 1.72-1.513 3.689.376 2.275.748 4.55a1272 1272 0 0 1 23.987-3.402l-.051-4.644q-1.847-1.56-2.854-3.047c-.672-.994-1.22-2.192-1.638-3.584q-.631-2.094-1.159-5.576-.66-4.338-1.332-8.676a13.6 13.6 0 0 1 3.146-6.728c1.677-1.954 3.653-3.08 5.928-3.368 2.659-.337 4.778.285 6.336 1.86q2.341 2.367 3.012 7.13.524 3.735 1.041 7.469.476 3.44.484 5.611c.003 1.447-.159 2.733-.496 3.858-.336 1.119-.881 2.347-1.64 3.671l.627 4.569q12.058-1.482 24.181-2.738l.075-4.643q-1.763-1.614-2.757-3.127c-.662-1.011-1.179-2.215-1.542-3.606-.367-1.39-.693-3.266-.988-5.63q-.75-6.006-1.519-12.01-.767-5.955-3.414-10.163c-1.765-2.803-4.112-4.862-7.026-6.161-2.916-1.3-6.309-1.723-10.172-1.258-2.977.359-6.056 1.61-9.213 3.75a34.4 34.4 0 0 0-8.208 7.785 3964 3964 0 0 0-4.904-30.234q-1.428-.658-2.857-1.312a1317 1317 0 0 0-19.266 5.465q.148 2.312.292 4.624c1.266.741 2.304 1.613 3.126 2.61"/><path fill="#000" d="m442.08 72.927.112 4.68q1.808 1.162 2.94 2.697 1.132 1.53 1.837 4.031c.47 1.665.863 3.846 1.188 6.538q.648 5.42 1.281 10.84.409 3.501.365 5.647-.042 2.145-.554 3.841t-1.704 3.608l.529 4.582q12.135-1.215 24.329-2.199l.178-4.641c-1.191-1.1-2.096-2.161-2.725-3.187-.63-1.027-1.121-2.25-1.475-3.661-.353-1.416-.647-3.287-.891-5.627a3866 3866 0 0 0-3.225-30.052q-1.406-.728-2.813-1.453a1290 1290 0 0 0-19.372 4.356"/><path fill="#000" d="M443.094 62.178c1.113 1.333 2.573 2.33 4.371 2.987 1.8.656 3.821.884 6.079.675q3.324-.305 5.73-1.812 2.406-1.504 3.528-3.841c.75-1.56 1.018-3.255.809-5.101-.208-1.808-.855-3.415-1.952-4.816q-1.643-2.104-4.326-3.14c-1.786-.688-3.794-.932-6.004-.73q-3.32.309-5.813 1.873c-1.666 1.04-2.878 2.371-3.656 3.975q-1.164 2.414-.796 5.22.352 2.709 2.03 4.71"/><path fill="#000" d="M475.292 77.655c.736 1.038 1.314 2.392 1.752 4.071q.648 2.518 1.047 6.564.53 5.432 1.045 10.865.333 3.512.243 5.655t-.645 3.829c-.363 1.123-.964 2.313-1.789 3.567l.429 4.593q12.206-.939 24.468-1.645l.282-4.635q-1.754-1.688-2.665-3.249-.914-1.559-1.399-3.694c-.321-1.422-.58-3.3-.77-5.644q-.358-4.376-.723-8.753.91-3.733 3.655-6.481 2.752-2.744 6.229-2.927c2.707-.142 4.792.625 6.237 2.296 1.441 1.67 2.281 4.12 2.506 7.356q.263 3.764.519 7.526c.16 2.344.184 4.23.088 5.658-.101 1.43-.348 2.697-.748 3.811-.401 1.109-1.031 2.284-1.896 3.517q.156 2.302.307 4.603 12.288-.597 24.627-.959l.408-4.626q-1.716-1.737-2.591-3.32-.875-1.588-1.304-3.735c-.288-1.433-.494-3.316-.623-5.664q-.331-6.044-.68-12.09c-.232-4.03-1.128-7.504-2.695-10.413-1.565-2.91-3.775-5.126-6.627-6.637-2.853-1.51-6.266-2.179-10.238-1.996q-4.33.203-9.405 3.081c-3.382 1.922-6.44 4.498-9.173 7.713q-.808-4.002-1.628-8.006-1.396-.76-2.793-1.516a1296 1296 0 0 0-18.296 3.837l-.049 4.684c1.195.806 2.161 1.72 2.895 2.764"/><path fill="#000" d="M539.194 121.535c.123 2.677 1.337 5.021 3.634 7.044 2.298 2.025 5.577 3.582 9.84 4.695 4.263 1.112 9.287 1.636 15.085 1.602 5.729-.038 10.874-.651 15.434-1.865 4.563-1.212 8.154-2.964 10.782-5.271 2.623-2.313 3.938-5.048 3.933-8.223-.01-4.138-1.57-7.324-4.697-9.548-3.124-2.227-7.669-3.634-13.618-4.181q-6.849-.615-13.696-1.156c-3.041-.244-4.586-1.03-4.632-2.387-.021-.661.231-1.226.766-1.696q.804-.706 2.074-.716l2.124-.017c5.207-.039 9.7-.811 13.489-2.338 3.786-1.53 6.665-3.58 8.626-6.173 1.959-2.598 2.921-5.463 2.869-8.608-.042-2.25-.449-4.322-1.246-6.219a34 34 0 0 0 5.277-2.316q2.584-1.404 4.255-2.912-3.633-4.83-7.323-9.64-1.773 1.764-4.375 3.678c-1.74 1.275-3.357 2.257-4.865 2.945-2.292-1.5-4.999-2.644-8.113-3.419-3.118-.774-6.517-1.15-10.185-1.12-4.796.042-9.14.874-13.012 2.484-3.874 1.61-6.875 3.857-9.011 6.724-2.134 2.867-3.093 6.143-2.895 9.808.128 2.35.752 4.496 1.888 6.454a16 16 0 0 0 4.425 4.927 18 18 0 0 0 6.007 2.88c-2.816.48-4.891 1.423-6.222 2.81-1.34 1.384-1.948 3.106-1.86 5.154.077 1.718.7 3.159 1.854 4.324 1.157 1.164 2.757 2.018 4.817 2.574-3.824.836-6.713 2.082-8.666 3.723-1.957 1.639-2.867 3.632-2.763 5.979m20.184-46.17c1.317-1.57 3.232-2.366 5.722-2.39 2.566-.021 4.613.88 6.132 2.694 1.519 1.813 2.319 4.13 2.397 6.94.072 2.418-.573 4.413-1.919 5.987-1.352 1.577-3.214 2.37-5.603 2.387-1.711.012-3.194-.45-4.461-1.396-1.267-.948-2.248-2.174-2.951-3.69a12.2 12.2 0 0 1-1.157-4.698c-.093-2.315.517-4.256 1.84-5.833m-1.838 41.188c.865-.721 1.945-1.256 3.23-1.603q7.002.513 14.007 1.102c2.139.199 3.736.564 4.774 1.097q1.566.799 1.593 2.683.035 2.335-2.749 3.515c-1.853.792-4.868 1.182-9.044 1.202-4.003.021-7.156-.416-9.485-1.33-2.323-.913-3.515-2.24-3.574-3.993-.034-1.061.377-1.948 1.248-2.673"/><path fill="#000" d="M603.406 99.5c-7.002 11.5 12.006 21.047 18.793 10.71 7.164-11.57-12.016-21.154-18.793-10.71"/><path fill="#000" d="M607.436 87.453q5.419.13 10.844.302a68895 68895 0 0 0 5.626-32.298q.385-1.775.385-3.614c-.005-3.146-1.049-5.545-3.137-7.188-2.081-1.642-4.938-2.518-8.536-2.616-3.603-.094-6.443.633-8.504 2.183-2.073 1.548-3.068 3.899-3.012 7.043q.025 1.49.388 3.287a2125 2125 0 0 1 5.946 32.9"/><path fill="#8A1FD1" d="m831.763 379.05-4.058-16.045-32.668-4.657 4.789 17.909c11.165-.816 21.99.102 31.937 2.793"/><path fill="#BE7AEB" d="M768.838 363.458c6.659 4.26 12.97 9.06 18.846 14.351q2.33-.421 4.649-.745l-4.981-18.626z"/><path fill="#FFB921" d="M96.07 557.196c10.749-4.922 20.473-11.589 29.167-19.952l-5.45-12.896c-6.636 2.721-13.183 4.617-19.331 5.914-24.938 5.264-47.304 1.983-55.401.423-2.106 5.178-3.523 8.089-4.578 9.762.082.226.166.385.212.463 7.42 9.682 19.232 17.705 34.224 23.289a102.6 102.6 0 0 0 21.158-7.003"/><path fill="#FFB921" d="M58.26 598.917c.09-.014.18-.034.272-.041.306-.023 31.24-2.565 60.847-21.943a122 122 0 0 0 17.089-13.485l-10.065-17.269c-38.32 33.715-82.315 27.94-89.458 26.723q-.977-.165-1.86-.166c-.03 0-.057.006-.087.007-2.163 4.541-3.68 7.324-4.808 9.058.174.477.381.948.65 1.401 4.06 6.862 9.174 12.497 14.842 17.12 7.038.899 11.498-1.083 11.544-1.104.035-.016.072-.025.108-.04q.155-.067.316-.118.07-.023.14-.043.216-.062.44-.096z"/><path fill="#FFB921" d="M153.922 631.226a129 129 0 0 0 14.55-5.487c-3.774-2.47-7.04-7.254-8.666-9.554-1.321-1.87-3.752-6.264-6.554-11.596-5.164 3.075-10.525 5.818-16.079 8.141-4.761 1.977-9.631 3.695-14.604 5.079-4.98 1.363-10.006 2.641-15.454 1.942-1.973-.285-2.235-3.058-.31-3.67 4.523-1.836 9.331-2.878 13.989-4.318 4.668-1.443 9.243-3.207 13.703-5.211a132 132 0 0 0 15.495-8.253c-5.337-10.417-10.982-21.939-12.735-25.53a131 131 0 0 1-14.061 10.566c-26.42 17.204-53.104 21.668-61.472 22.693-1.505 5.415-2.636 8.973-3.548 11.329.426.817.863 1.284.984 1.403 12.331 10.035 29.292 16.057 49.056 17.418 15.259 1.051 32.35-.801 45.706-4.952"/><path fill="#8A1FD1" d="M32.409 530.424a96 96 0 0 0 3.114 3.464 138 138 0 0 0 2.17-4.924 22 22 0 0 1-3.676-1.859z"/><path fill="#8A1FD1" d="M21.098 573.493a83 83 0 0 0 3.598 3c.705-1.25 1.576-2.913 2.446-4.652a258 258 0 0 0-4.413-1.713z"/><path fill="#8A1FD1" d="m46.396 607.89-1.602 3.349c2.428 1.213 4.84 2.36 6.549 3.098.596-1.649 1.353-4.021 2.12-6.585a34.3 34.3 0 0 1-7.067.138"/><path fill="#DFBDF5" d="m229.766 497.978-10.674-41.84c-8.119 4.303-21.338 10.006-40.534 14.513-22.952 5.389-37.367 7.432-44.612 8.202-.836 4.02-2.624 11.217-5.813 18.011l-.379.796c-.963 2.008-2.054 4.284-2.048 6.624.013 4.393.888 9.661 2.366 15.47 10.914-.284 52.629-2.682 101.694-21.776"/><path fill="#DFBDF5" d="M185.286 621.048c32.833-1.168 54.76-8.551 71.693-16.397l-8.696-34.089c-20.63 9.987-50.276 20.329-84.608 20.329-1.902 0-3.819-.037-5.747-.102 3.484 6.829 6.671 12.886 9.173 17.639 2.062 3.916 7.966 13 18.185 12.62"/><path fill="#8A1FD1" d="M212.452 439.527c-8.078.591-21.782 2.787-40.594 7.871-16.222 4.384-28.078 8.71-35.707 12.102 9.614-1.51 23.629-4.092 40.39-8.31 17.981-4.525 29.154-8.629 35.911-11.663"/><path fill="#8A1FD1" d="M176.855 463.401c15.029-3.529 26.226-7.837 33.983-11.494l-1.014-3.191c-7.26 2.84-17.398 6.156-31.466 9.697-23.497 5.913-41.412 8.642-49.999 9.743l1.938 3.558c5.335-.45 20.316-2.152 46.558-8.313"/><path fill="#BE7AEB" d="M154.053 583.158c37.467 2.215 70.417-9.383 92.308-20.126l-14.738-57.773c-47.382 18.368-87.285 21.412-101.221 21.893 9.867 28.618 20.477 49.877 23.651 56.006"/><path fill="#BE7AEB" d="M940.794 378.48c-3.876-.557-7.348 2.956-8.478 6.674l-14.911 47.753c-1.703 5.602 2.843 9.902 7.667 12.048 49.289 21.929 73.546 40.64 88.038 51.819 6.37 4.914 10.97 8.464 14.82 10.079 2.32.974 9.8-.025 14.33-4.023 10.16-8.959 32.06-30.472 35.29-33.653 1.58-3.143 1.28-6.908-.82-9.717-10.87-14.568-72.48-71.846-135.936-80.98m126.366 92.124q-.255.45-.63.815c-.7.686-17.11 16.867-24.74 23.593-3.5 3.091-8.32 4.565-12.23 4.565-1.6 0-3.04-.245-4.19-.725-3.35-1.409-8.58-5.216-16.5-10.977-15.805-11.508-42.271-30.771-75.384-45.505-7.126-3.17-10.626-9.538-8.708-15.846l10.231-32.765c1.785-5.871 7.248-9.728 12.709-8.939 44.549 6.413 109.412 59.669 118.602 71.98 2.99 4.008 3.32 9.427.84 13.804"/><path fill="#000" d="M1082.7 455.007c-11.26-15.093-75.1-74.433-140.845-83.898-7.133-1.033-14.294 4.082-16.656 11.852l-14.911 47.753c-2.572 8.462 2.042 16.723 11.756 21.045 12.802 5.696 23.868 11.165 33.508 16.337L944.1 490.308c-13.185-9.963-28.215-18.61-44.527-25.492a219 219 0 0 0-13.203-5.071c-.546-6.587-1.394-13.311-2.618-19.803l23.711-74.099c14.938-7.554 36.312-21.091 54.033-33.794 45.354-32.512 55.074-48.772 55.234-56.687.01-.671-.04-1.455-.21-2.287v-.004c0-.019-.01-.039-.01-.058l-.09-.414c-4.03-21.117-49.337-69.272-73.078-77.486-14.114-4.884-40.404 18.276-59.975 38.566a406 406 0 0 0-4.748 5.01l-2.246-19.467c-.674-5.845-5.976-10.051-11.825-9.378L741.759 224.01a10.6 10.6 0 0 0-7.138 3.97 10.6 10.6 0 0 0-2.24 7.855l4.119 35.709c-2.195-.26-4.595.37-6.509 1.164-3.866 1.653-7.283 3.605-10.716 5.5-7.134 3.114-13.962 7.181-20.692 10.67-15.745 8.263-31.944 15.854-48.425 22.45l-.165.065c-.126-5.608-.911-11.26-2.542-16.554-.835-2.9-1.771-5.796-2.678-8.505-1.64-5.216-1.758-10.849-1.74-16.418-.222-4.762.919-10.917-2.55-15.215-1.302-1.498-3.465-2.241-5.391-2.103l-.291.019-1.121.073c-2.991.18-5.973.436-8.945.756-7.378.823-14.703 1.988-21.972 3.429l.859-84.654c32.53 1.299 53.14 3.393 53.673 3.449a3.726 3.726 0 0 0 4.099-3.396L674.599 12.64a3.724 3.724 0 0 0-3.253-4.003C590.107-1.44 505.408-2.706 419.599 4.874c-68.628 6.062-138.117 17.765-206.537 34.784C119.819 62.85 47.119 91.804 21.704 103.873a3.724 3.724 0 0 0-1.799 4.891l68.789 152.993a3.726 3.726 0 0 0 5.097 1.785c11.297-5.797 36.392-16.291 74.016-28.514l48.14 196.889c-2.573.022-5.64.252-9.307.696-5.514.667-11.928 1.781-18.84 3.256a46 46 0 0 0-3.412-1.25l-2.671-11.965a3.73 3.73 0 0 0-3.11-2.875l-.774-.11-.005-.04a3.725 3.725 0 0 0-3.177-3.187l-2.409-.335a3.7 3.7 0 0 0-1.815-.71l-12.246-1.243-.011.006a3.72 3.72 0 0 0-3.713 5.329l10.217 22.178c-11.598 3.319-22.214 6.983-30.31 10.479-11.649 5.028-16.161 8.692-15.623 12.799-.026.66.109 1.324.435 1.923l5.723 10.504a3.7 3.7 0 0 0 1.424 1.448c-.861 3.794-2.426 9.541-4.932 14.879l-.353.742c-1.178 2.456-2.791 5.821-2.779 9.864.01 3.586.518 7.65 1.422 12.075-6.353 2.793-13.191 4.98-20.52 6.544-27.793 5.929-56.247-.255-56.274-.255-.145-.008-3.597-.234-7.713-4.024a3.72 3.72 0 0 0-5.873 1.116l-4.645 9.586a3.72 3.72 0 0 0 .47 3.984c3.77 4.6 6.232 7.154 8.014 8.504.364 1.495.971 2.702 1.55 3.49 6.264 8.215 15.237 15.314 26.326 20.928-11.658.95-20.227-.25-22.82-.693-1.92-.326-3.767-.358-5.493-.094-.336.051-.65.128-.971.197a256 256 0 0 0-9.608-3.701 3.724 3.724 0 0 0-4.623 1.876l-4.325 8.926a3.72 3.72 0 0 0 .82 4.356c4.666 4.32 7.434 6.399 9.253 7.338.324.868.7 1.723 1.18 2.536 4.197 7.091 9.392 12.995 15.144 17.902l-3.062 6.402a3.724 3.724 0 0 0 1.634 4.906c9.18 4.799 12.72 6.123 14.496 6.338.588.822 1.192 1.467 1.727 1.921 13.5 11.023 29.979 16.379 46.11 18.398-24.017 17.88-44.166 34.641-60.502 48.233-8.737 7.27-16.282 13.548-22.766 18.62a3.7 3.7 0 0 0-.719.774l-.035.02c-.533.76-13.095 19.047-16.442 57.264a3.725 3.725 0 0 0 3.72 4.049h871.065l.014.001.013-.001h160.194c2.05 0 3.72-1.667 3.72-3.724 0-21.509-2.3-34.559-7.45-42.313a3.7 3.7 0 0 0-.67-.769c-5.66-4.842-11.84-10.35-19-16.727-19.463-17.334-44.122-39.289-74.636-62.389 27.551-6.529 47.363-21.366 56.197-42.303 9.619-22.805 4.981-49.888-13.065-76.26-4.029-5.889-8.629-11.585-13.726-17.045l14.42-27.413c12.366 7.926 21.11 14.667 27.75 19.793 6.82 5.258 11.74 9.057 16.48 11.048 1.46.61 3.32.918 5.39.918 5.31 0 12.01-2.028 16.76-6.222 11.08-9.775 34.98-33.331 35.99-34.329q.375-.365.63-.815c3.28-5.792 2.85-12.961-1.11-18.264M35.523 533.888a96 96 0 0 1-3.114-3.464l1.608-3.319a22.3 22.3 0 0 0 3.677 1.859 138 138 0 0 1-2.17 4.924m848.316-29.479c.92.514 1.798 1.556 2.467 2.505 6.227 12.352 14 28.983 12.011 46.025a113 113 0 0 0-9.708-.424c-3.66-.188-7.149.568-10.024-1.067a169.6 169.6 0 0 0-38.243-23.65c1.329-6.865 2.106-13.826 2.189-20.824.527-42.035-14.551-84.281-42.092-116.108-.569-2.045-.814-6.532 7.479-7.466 11.06.036 21.565 1.987 30.864 5.91 16.518 6.968 28.277 19.907 34.008 37.418 4.893 14.95 6.74 34.015 6.931 49.688-.102.268-4.553 23.627-6.12 34.571-.434 2.794 3.463 4.095 4.788 1.566a86 86 0 0 0 3.282-7.663c.087-.232.245-.436.462-.555.446-.245 1.015-.313 1.706.074M790.51 350.18c-.008-.001-.566-.041-.839-.018a7 7 0 0 0-.661.11l-29.114 7.894c-.3-.163-.604-.32-.905-.482 5.895-4.244 11.514-8.877 16.595-14.067a122 122 0 0 0 2.863-3.086c6.814-6.877 6.383-17.249 2.533-25.317a66 66 0 0 0-2.644-4.955l55.938-6.454c-.989 26.753 34.017 56.787 38.482 60.504l.015-.018c.133.112.258.232.408.325a77 77 0 0 0 3.378 1.983l-10.385 33.395c-6.572-7.519-14.794-13.452-24.497-17.545-.504-.213-1.017-.412-1.527-.614l-5.837-23.076a3.72 3.72 0 0 0-3.084-2.773zm1.823 26.884q-2.32.324-4.649.745a145 145 0 0 0-18.845-14.351l18.513-5.02zm35.372-14.059 4.058 16.045c-9.946-2.691-20.772-3.609-31.936-2.793l-4.79-17.909zm181.575-87.794c-.13 6.284-13.854 23.355-52.123 50.785-29.824 21.378-58.014 37.092-65.633 38.358-1.614.265-5.956-1.452-10.157-3.642 40.078-37.607 106.066-92.287 123.673-88.637 4.29.892 4.26 2.408 4.24 3.136m-120.553-36.362c18.266-18.937 42.889-39.908 52.18-36.698 18.098 6.262 52.741 40.979 64.443 62.408-5.727-.872-21.809.055-77.295 45.408-23.927 19.558-45.843 39.785-53.007 46.479-4.042-3.587-12.19-11.221-19.427-20.501-7.215-9.251-14.832-21.879-13.824-33.008l16.191-1.868q.588.573 1.217 1.201c-5.141 5.553-8.637 9.859-8.983 10.288a2.613 2.613 0 1 0 4.065 3.282c.083-.103 3.508-4.321 8.604-9.831 3.655 3.764 7.838 8.212 11.871 12.566-5.321 5.724-8.957 10.204-9.311 10.642a2.613 2.613 0 0 0 4.065 3.282c.085-.104 3.604-4.437 8.813-10.056 3.111 3.386 5.991 6.559 8.284 9.108a2.6 2.6 0 0 0 1.944.865 2.612 2.612 0 0 0 1.941-4.359c-.391-.435-3.902-4.334-8.568-9.411 3.121-3.217 6.617-6.617 10.225-9.76a1238 1238 0 0 1 8.66 9.517 2.6 2.6 0 0 0 1.943.865 2.614 2.614 0 0 0 1.941-4.36c-.39-.434-3.88-4.309-8.523-9.362 3.342-2.644 6.697-4.942 9.864-6.54a2.612 2.612 0 0 0-2.354-4.664c-3.595 1.814-7.36 4.4-11.066 7.35a863 863 0 0 0-8.97-9.546c.547-1.505.773-3.151.577-4.847l-.094-.816c2.271-1.626 4.518-3.046 6.678-4.136a2.612 2.612 0 0 0-2.354-4.665c-1.639.828-3.314 1.818-5.002 2.927l-3.709-32.152a431 431 0 0 1 8.981-9.608m-8.087 57.705a883 883 0 0 1 7.966 8.488c-3.63 3.161-7.118 6.539-10.238 9.743-3.853-4.157-8.091-8.667-11.887-12.57a202 202 0 0 1 2.36-2.398l6.007-.693a10.6 10.6 0 0 0 5.792-2.57m-138.027-65.146 122.788-14.166q.189-.022.376-.022a3.2 3.2 0 0 1 1.998.699 3.2 3.2 0 0 1 1.2 2.157l7.854 68.077a3.23 3.23 0 0 1-2.835 3.573l-122.788 14.166a3.2 3.2 0 0 1-1.913-.38c3.178-2.628 6.18-5.587 8.385-9.168.644-1.082 1.183-2.708 1.141-4.092.138-2.265-.253-4.547-1.056-6.682l.643-.074a4.42 4.42 0 0 0 2.976-1.658 4.42 4.42 0 0 0 .937-3.275l-.479-4.156a4.46 4.46 0 0 0-4.934-3.913l-7.089.818a4.4 4.4 0 0 0-2.64 1.308 28 28 0 0 0-2.973-1.279l-4.425-38.36a3.23 3.23 0 0 1 2.834-3.573m9.953 46.774a28 28 0 0 0-1.507-1.171s6.334-.73 6.357-.73c.187 0 .325.085.394.141a.63.63 0 0 1 .238.423l.479 4.155a.63.63 0 0 1-.135.466.63.63 0 0 1-.423.238l-2.06.238a17.5 17.5 0 0 0-3.343-3.76m-144.41-15.832c9.069-1.548 18.202-2.683 27.38-3.034.231.454.501 1.413.527 2.153.444 5.473-.199 11.762.328 17.525.253 5.968 2.613 12.089 4.238 17.771 1.721 5.744 2.313 11.512 2.165 17.418-4.171 1.564-8.365 3.034-12.589 4.315-6.537 2.086-13.34 3.125-19.932 4.554-.705.11-1.326.542-1.624 1.245-1.501 4.614 9.654 3.974 12.662 3.313 10.86-1.985 21.275-5.653 31.508-9.505 16.877-6.614 33.249-14.211 49.254-22.648 3.964-2.104 8.178-4.466 12.478-6.684.078-.028.152-.039.231-.072 6.773-2.856 13.032-7.611 19.77-9.798.408-.074.577-.12.898-.098 1.569.097 3.156.426 4.745.903 5.826 1.688 11.862 6.034 11.303 12.523-.216.76-1.684 2.458-2.895 3.607-4.632 4.465-10.198 8.319-14.499 13.325-1.757 1.925.317 5.014 2.784 4.079 2.245-.841 4.285-1.947 6.238-3.19.337.352.691.69 1.079.998a10.6 10.6 0 0 0 7.855 2.24l18.114-2.089c5.463 7.903 9.271 17.381 2.701 24.398-6.272 6.726-13.526 12.792-21.42 18.307-13.766-6.407-28.51-10.715-43.567-12.638-9.322-1.182-18.804-1.887-28.219-1.561a4.2 4.2 0 0 0-.598-.635c-3.975-3.053-8.631-5.128-13.365-6.732-2.302-.748-4.202 2.232-2.498 4.004a61 61 0 0 0 4.765 4.355c-3.814.527-7.601 1.255-11.344 2.248a1.923 1.923 0 0 0 .407 3.782c5.325.168 10.518.004 15.784-.111 11.383-.235 22.837-.106 34.095 1.606 50.166 6.318 92.245 40.691 112.339 86.543 11.656 26.263 18.022 56.19 14.29 84.85-.394 1.916-.959 3.454-1.626 4.692-8.53-3.271-17.324-5.855-26.295-7.654-10.312-2.016-20.883-3.653-31.554-1.225a2 2 0 0 0-1.529 1.62c-.202 1.147.649 2.218 1.796 2.329 9.894 1.724 19.942 2.58 29.79 4.608 24.62 5.065 47.991 16.083 67.541 31.883l1.475 1.174c1.944 1.723 4.924 2.818 7.258 3.027 8.105.509 15.171.008 23.017 1.335 8.401 1.226 16.793 3.417 24.929 5.974q.062.177.116.403c.801 4.313.177 9.046-.378 13.488-6.229-3.133-13.443-4.598-20.335-3.472-1.22.285-2.507.674-3.628 1.249-.717.432-1.691.724-2.107 1.51-.238.593.05 1.266.642 1.504 2.375.961 4.492 1.48 6.593 2.056 5.899 1.288 11.777 3.242 17.517 5.109-1.404 7.358-3.275 14.701-5.391 21.93-4.136 13.236-9.181 29.257-17.297 38.889-.541.178-1.612.387-2.371.392-13.539.257-26.696-4.061-39.386-8.93-48.124-19.163-99.501-32.401-151.644-31.412-10.395.094-40.45.957-44.646.677-35.498-2.369-70.455-10.184-105.027-18.373-3.781-.927-7.594-1.883-11.429-2.794-.283-.067-.566-.147-.849-.212-8.209-1.959-16.26-4.781-23.791-8.51-1.042-.397-2.77-1.225-3.823-1.446-.724 0-1.905-.239-2.558.198-1.932 1.161-1.192 3.207.371 5.182-9.959-.55-19.983-.11-29.859.582-26.665 2.276-53.119 2.301-79.56-1.727-13.994-1.51-25.725-10.362-30.557-23.671-9.427-27.08 2.786-58.216 14.952-82.81 1.268-2.405 2.531-5.092 4.005-7.368 1.333-1.868 3.239-3.386 5.491-4.543 11.69-5.464 27.969-3.653 41.466-.156-2.024 5.362-4.503 12.825-6.365 17.991-.334.805-.232 1.752.386 2.449 2.799 2.704 5.493-2.425 6.921-4.247 2.777-4.413 4.807-9.119 6.287-14.092.3.096.602.193.897.291 6.552 2.431 13.232 4.939 17.996 9.738-.138 2.952-1.182 6.133-1.975 9.333-1.549 5.718-3.185 11.554-4.512 17.522-1.106 6.064-2.741 12.389-.613 18.516.558 1.579 2.762 1.835 3.771.649q.216-.251.349-.591c2.164-5.635 2.333-11.256 3.751-17.023 1.159-5.707 2.757-11.365 4.339-17.159.022-.105.051-.222.076-.332 3.738-1.659 27.184-12.125 31.772-15.666l.028-.023c5.823-2.536 11.389-5.653 16.565-9.341 2.37-1.71.182-5.331-2.429-4.054-4.161 2.11-8.278 4.242-12.607 5.894-.565.23-1.139.437-1.707.657a112 112 0 0 1-18.906 5.496 112 112 0 0 1-11.969 1.68c-.03-.034-.051-.074-.083-.108-5.763-6.225-13.754-9.316-21.444-12.148-8.877-2.932-19.596-5.506-30.133-6.026-8.123-.401-16.134.424-23.114 3.247-7.299-6.848-13.07-15.259-16.521-24.887-1.507-3.74-2.879-7.552-4.464-11.413-.364-.888-.729-1.776-1.121-2.669l-.016-.037a2.059 2.059 0 0 0-3.957.741c-.108 3.875.384 7.727 1.314 11.486a52 52 0 0 0 1.315 4.466c4.01 10.97 9.588 19.57 16.502 26.47a20.4 20.4 0 0 0-3.276 3.544l-.026.035a32 32 0 0 0-1.322 2.119c-1.974 1.964-4.525 2.36-5.989 2.403-5.389-.715-10.327-3.085-15.272-5.838-10.239-5.748-19.418-13.849-28.447-21.528-3.49-2.734-8.477-5.906-12.253-8.294-2.219-1.486-4.923-3.148-5.956-4.938l.002-.006a1.3 1.3 0 0 1 .139-.237c.08-.137.388-.497.464-.62 14.513-19.253 31.508-36.557 49.884-52.159.434-.158 7.494-6.216 19.349-14.723 25.128-18.034 76.097-50.308 151.375-77.752a3.7 3.7 0 0 0 1.731-1.343c.238-.332.442-.69.562-1.092a3.7 3.7 0 0 0 .055-1.857c3.668-1.394 7.567-2.846 11.223-4.069 16.536-5.648 33.523-10.243 50.717-13.23m322.408 388.034a862 862 0 0 1 21.482 16.707c2.079 6.321 13.121 41.102 13.631 67.824a1531 1531 0 0 0-22.793-8.591c-2.902-33.363-8.865-61.547-12.32-75.94m-391.023-8.064v-45.991a75 75 0 0 0 7.306 1.781c.441.062 9.344.954 12.424 1.5 3.426.606 9.031 2.125 13.553 3.158v40.976a903 903 0 0 0-33.283-1.424m-77.929 1.694v-49.7c9.359-.182 18.698-.702 27.955-1.482q2.666-.185 5.328-.34v49.941a911 911 0 0 0-33.283 1.581M81.534 666.797a1022 1022 0 0 1 24.431-18.721c-3.511 14.995-9.687 45.046-11.898 78.907a1528 1528 0 0 0-23.462 8.885c1.384-26.011 9.309-61.938 10.929-69.071M489.67 286.974c-3.313-4.815-8.94-7.134-12.791-6.935-2.311.119-4.835.518-7.485 1.141-1.856-3.021-5.325-7.383-10.777-9.489-5.262-2.035-11.056-1.542-17.223 1.457-5.223 2.54-9.338 6.435-12.209 11.481.084-1.078.229-1.993.35-2.54a3.724 3.724 0 0 0-6.612-3.058c-6.26 8.361-8.454 15.804-6.52 22.121 1.848 6.035 6.902 8.97 9.112 9.997a3.72 3.72 0 0 0 2.907 1.399c.89 0 1.768-.32 2.459-.924.05-.045 5.219-4.531 17.609-11.886 12.854-7.631 20.34-10.457 20.411-10.484.326-.12 6.124-1.662 8.362-1.778 1.234-.05 4.397.995 6.271 3.719 1.679 2.44 1.73 5.481.154 9.039a3.7 3.7 0 0 0-.207.631c-60.319 28.068-97.374 55.756-109.593 65.553-1.793-7.242-4.352-21.215-2.638-37.226 3.308-30.9 20.215-54.505 50.25-70.159 13.092-6.824 31.53-11.015 49.385-11.015 14.453 0 28.525 2.748 39.068 9.067 12.78 7.659 21.847 16.672 26.372 21.699a730 730 0 0 0-44.126 18.099c.318-3.604-.527-6.998-2.529-9.909m24.112-36.277c-26.546-15.911-70.356-11.49-95.723 1.732-36.586 19.068-49.384 47.075-53.285 69.381a107 107 0 0 0-2.956-2.986c-.045-.068-.083-.139-.133-.204-.022-.028-.048-.051-.071-.079l-6.122-11.502c-3.013-5.66-9.675-8.495-15.843-6.734l-108.412 30.912a11.45 11.45 0 0 0-7.275 6.241 11.45 11.45 0 0 0 .01 9.586l4.424 9.585a226 226 0 0 0-5.325 10.221l-32.678-138.892c27.306-8.242 59.727-16.971 96.938-25.39 21.771-4.926 47.004-9.311 73.718-13.953 7.743-1.346 15.564-2.705 23.396-4.095 70.951-12.589 144.584-14.186 197.456-12.98l-1.815 90.751c-11.136 3.103-22.117 6.781-32.917 10.863-1.254.569-2.82 1.027-4.279 1.662-.694-1.073-1.566-1.931-2.527-2.671-5.207-5.566-14.207-14.032-26.581-21.448M361.057 378.706a353 353 0 0 0-12.992 11.925l-3.081-18.328c-.019-.115-.063-.221-.093-.332 1.8-18.418 10.398-36.73 14.646-44.837a137 137 0 0 1 4.02 4.444c-.19 2.472-.29 4.884-.317 7.226-1.795 10.854-4.233 29.319-2.183 39.902m-87.787-21.218c4.675 0 10.187-1.03 15.48-2.685 4.97-1.555 9.781-3.676 13.53-6.134l.129 5.833c-2.686 3.014-12.791 12.386-33.071 10.2l-.161-7.527c1.262.212 2.637.313 4.093.313m-3.952-7.847c1.447-1.87 6.514-5.476 15.25-8.209 8.735-2.732 14.954-2.657 17.208-1.946-1.447 1.871-6.514 5.476-15.25 8.209-8.735 2.733-14.953 2.657-17.208 1.946m13.026-15.317c-5.772 1.806-11.01 4.278-14.75 6.961-1.228.881-2.22 1.737-3.028 2.564l-29.943 8.5-3.889-8.426a3.95 3.95 0 0 1-.003-3.358 3.96 3.96 0 0 1 2.548-2.187l108.411-30.912a6.2 6.2 0 0 1 1.693-.236c2.265 0 4.434 1.241 5.534 3.309l4.332 8.137-48.897 13.88c-5.344-1.824-13.93-.758-22.008 1.768m-47.288 25.644 26.571-7.543.332 15.624a3.724 3.724 0 0 0 3.141 3.599c3.647.577 7.04.832 10.195.832 23.266 0 33.426-13.863 33.902-14.532a3.74 3.74 0 0 0 .688-2.239l-.348-15.788q.084-.555.068-1.115l41.621-11.814c-4.556 9.173-11.351 25.062-13.469 41.776l-119.026 33.528c1.008-12.703 11.231-33.285 16.325-42.328m103.271 17.661 3.264 19.419a309 309 0 0 0-9.766 10.435 284 284 0 0 0-14.032 16.96c-3.062 3.48-2.442 7.756.676 10.839 2.16 2.176 4.274 3.502 6.342 4.9 4.621 2.992 10.288 6.558 14.333 10.204 4.291 3.726 8.684 7.509 13.271 11.051l19.754 117.514c-12.487 2.606-55.298 11.637-81.199 18.305-12.303 3.167-19.455 4.953-23.226 5.88l-47.995-192.104zm23.266 93.48c3.325 3.715 10.578 11.675 18.146 19.06-4.231 10.052-7.714 20.436-9.711 31.118zm71.737 122.614c6.932.446 13.885.653 20.835.658v50.152a1010 1010 0 0 0-33.283 3.002v-54.881q2.069.224 4.142.416 4.148.386 8.306.653m-39.383-6.773q1.133.537 2.314 1.014a44.7 44.7 0 0 0 7.512 2.277c3.208.566 6.431 1.061 9.661 1.502v56.611a1110 1110 0 0 0-33.026 4.274v-68.485l5.246-2.404a41.4 41.4 0 0 0 8.293 5.211m-92.955 15.473c10.023-2.454 21.536-5.09 32.53-7.534-.405 19.333-.749 41.592-.771 65.616a1300 1300 0 0 0-33.18 6.608c-.853-17.623.058-42.076 1.421-64.69m40.014-9.187a3435 3435 0 0 1 30.479-6.534l1.476-.307v67.334a1209 1209 0 0 0-32.761 5.414c.035-24.187.393-46.559.806-65.907m-94.644-30.204c-21.891 10.743-54.841 22.341-92.308 20.126-3.175-6.129-13.785-27.388-23.652-56.006 13.937-.48 53.839-3.525 101.221-21.893zm-82.687 27.859c34.332 0 63.978-10.342 84.608-20.33l8.696 34.09c-16.933 7.846-38.86 15.229-71.693 16.397-10.219.38-16.122-8.704-18.185-12.62-2.502-4.753-5.689-10.81-9.173-17.639 1.928.065 3.845.102 5.747.102m-49.019 52.936c.716.011 1.436.03 2.146.03 8.013 0 15.626-.682 22.384-1.725-4.298 20.093-8.967 47.261-9.456 72.17a1567 1567 0 0 0-28 9.874c2.749-37.444 10.216-69.592 12.926-80.349m32.462-3.158c3.361-.725 6.401-1.519 9.014-2.332 7.411-2.304 14.13-5.045 20.244-8.108-3.703 19.653-7.048 44.535-7.345 71.209-2.097.656-4.178 1.309-6.227 1.959a1567 1567 0 0 0-25.561 8.355c.783-24.895 5.637-51.804 9.875-71.083m37.167-12.178c.136.002.269.015.404.015q.43 0 .862-.015c9.972-.355 18.971-1.267 27.163-2.578-1.936 18.194-3.462 39.873-3.594 63.608a1500 1500 0 0 0-32.609 9.601c.483-26.716 4.023-51.473 7.774-70.631m36.066-3.956c12.655-2.56 23.236-6.083 32.429-9.902-1.608 21.42-2.933 44.88-2.932 64.023a1459 1459 0 0 0-33.264 8.779c.215-23.586 1.804-45.038 3.767-62.9m40.156-13.311q.987-.46 1.951-.92a3.72 3.72 0 0 0 2.566 1.045q.418 0 .843-.097c.248-.057 6.29-1.463 26.96-6.784l.561-.144c-1.32 22.605-2.143 46.805-1.191 64.379a1391 1391 0 0 0-34.899 8.099c.085-19.798 1.532-43.959 3.209-65.578m258.864 30.849c-5.68 0-11.357.064-17.029.179v-50.114c3.733-.128 7.461-.173 11.186-.09 3.726.082 7.449.293 11.172.677 2.486.223 4.946.551 7.393.931l.001 48.515a830 830 0 0 0-12.723-.098m60.9 2.154v-39.784c11.049 2.446 22.137 4.716 33.284 6.692v35.946a999 999 0 0 0-33.284-2.854m153.847-26.132c.862 17.008 1.275 34.29.596 48.079a1288 1288 0 0 0-33.025-6.46v-42.145c10.828-.18 21.6-.19 32.429.526m-73.402-.827c5.713.417 25.977.529 32.428.459.43-.004.799-.01 1.098-.016v40.671a1196 1196 0 0 0-33.642-5.425c.005-13.11.05-24.963.116-35.689m-39.714 30.607v-35.457q4.361.72 8.736 1.371c7.778 1.048 15.64 2.074 23.535 2.841a6083 6083 0 0 0-.12 35.262 1101 1101 0 0 0-32.151-4.017m121.087 19.862c.772-14.096.399-31.702-.455-49.026 11.33 1.002 22.594 2.675 33.769 4.862.979 17.477 1.727 36.018 1.753 52.185a1377 1377 0 0 0-35.067-8.021m40.858-42.606a407 407 0 0 1 18.324 4.42 453 453 0 0 1 13.629 3.867c1.576 15.063 2.769 32.837 2.953 52.834a1454 1454 0 0 0-33.25-8.668c.028-16.133-.688-34.77-1.656-52.453m39.676 10.672c10.299 3.279 20.499 6.9 30.602 10.786a349 349 0 0 1 4.702 51.22 1502 1502 0 0 0-32.61-9.496c-.11-19.718-1.2-37.369-2.694-52.51m38.707 13.942c9.134 3.546 18.625 6.437 28.515 8.004l.3.037c3.412 16.157 6.403 34.806 7.035 52.52a1507 1507 0 0 0-31.781-10.208 359 359 0 0 0-4.069-50.353m36.65 8.864c3.169.16 6.339-.036 9.428-1.146 1.339-.567 2.414-1.627 3.369-2.729.159-.183 2.907-3.94 3.876-5.528q3.931-.263 7.778-.73c3.032 12.107 9.461 40.502 12.717 75.025-9.613-3.48-19.78-7.053-30.445-10.666-.395-18.307-3.292-37.497-6.723-54.226M587.575 260.307l1.771-88.576c2.322.067 4.603.138 6.832.214l-.878 86.503a306 306 0 0 0-7.725 1.859M93.9 255.176 28.204 109.06c27.827-12.762 97.908-40.115 186.856-62.225C283.085 29.925 352.166 18.3 420.386 12.28c83.99-7.41 166.9-6.296 246.495 3.313l-12.599 152.311c-23.422-2.106-151.057-12.025-271.138 9.282a6701 6701 0 0 1-23.37 4.09c-26.81 4.659-52.133 9.059-74.087 14.026-101.209 22.9-167.436 48.166-191.787 59.873m119.616 135.443-38.601-157.873c2.719-.862 5.503-1.733 8.34-2.609l34.78 147.827c-1.905 4.592-3.411 8.813-4.519 12.655m-41.658 56.779c18.812-5.084 32.516-7.28 40.594-7.871-6.757 3.034-17.93 7.138-35.911 11.663-16.761 4.219-30.775 6.8-40.39 8.31 7.629-3.392 19.486-7.718 35.707-12.102m6.5 11.015c14.068-3.541 24.206-6.857 31.466-9.697l1.014 3.191c-7.757 3.657-18.954 7.965-33.983 11.494-26.242 6.161-41.223 7.863-46.558 8.313l-1.938-3.558c8.586-1.101 26.502-3.83 49.999-9.743m-50.604 39.247.379-.796c3.189-6.794 4.977-13.991 5.813-18.011 7.245-.77 21.66-2.813 44.612-8.202 19.196-4.507 32.415-10.21 40.534-14.513l10.674 41.84c-49.065 19.094-90.78 21.493-101.694 21.776-1.478-5.809-2.353-11.077-2.366-15.47-.006-2.339 1.085-4.615 2.048-6.624m-87.065 43.249a3 3 0 0 1-.212-.462c1.055-1.673 2.472-4.585 4.578-9.762 8.097 1.56 30.463 4.84 55.401-.423 6.148-1.298 12.695-3.193 19.331-5.914l5.451 12.896c-8.694 8.363-18.419 15.029-29.167 19.952-7.32 3.353-14.485 5.565-21.158 7.003-14.992-5.585-26.803-13.608-34.224-23.29m-15.992 35.584a83 83 0 0 1-3.599-3l1.631-3.365c1.713.647 3.2 1.229 4.414 1.713a112 112 0 0 1-2.447 4.652m26.646 37.843c-1.709-.737-4.121-1.884-6.549-3.098l1.602-3.348c2.69.22 5.068.113 7.067-.138-.767 2.563-1.524 4.936-2.12 6.584m6.307-15.276a4 4 0 0 0-.316.118c-.036.015-.073.024-.108.04-.046.021-4.506 2.002-11.544 1.103-5.668-4.622-10.782-10.257-14.843-17.119a8.3 8.3 0 0 1-.649-1.402c1.128-1.733 2.645-4.516 4.808-9.058.03 0 .056-.006.086-.006q.887 0 1.86.166c7.145 1.217 51.14 6.992 89.459-26.723l10.065 17.268a121.7 121.7 0 0 1-17.089 13.486c-29.607 19.377-60.541 21.919-60.847 21.943-.092.007-.181.027-.272.04l-.03.005q-.223.034-.44.096-.07.02-.14.043m.526 18.297c.912-2.356 2.042-5.914 3.548-11.329 8.368-1.025 35.053-5.489 61.472-22.693a131 131 0 0 0 14.061-10.566c1.753 3.591 7.398 15.113 12.735 25.53a133 133 0 0 1-15.495 8.254c-4.461 2.003-9.035 3.767-13.703 5.211-4.658 1.439-9.467 2.481-13.989 4.317-1.926.613-1.663 3.386.31 3.67 5.448.699 10.474-.579 15.454-1.942 4.973-1.384 9.842-3.102 14.604-5.079 5.554-2.323 10.915-5.066 16.078-8.141 2.803 5.332 5.233 9.726 6.555 11.596 1.626 2.3 4.891 7.085 8.666 9.554a129 129 0 0 1-14.55 5.487c-13.357 4.151-30.447 6.003-45.706 4.952-19.764-1.361-36.725-7.383-49.056-17.418-.121-.118-.559-.585-.984-1.403m14.119 56.808c-3.174 15.053-8.59 43.435-9.273 64.671-8.7 3.433-16.596 6.644-23.595 9.555 1.926-26.621 10.095-51.868 11.83-56.99 6.475-5.374 13.485-11.154 21.038-17.236m-50.006 41.028c5.437-4.268 11.561-9.322 18.472-15.065-3.403 12.005-7.986 31.388-8.989 51.476-10.645 4.51-18.662 8.084-23.659 10.359 3.548-28.839 12.524-44.153 14.176-46.77m166.352 49.181c147.316-44.154 260.477-53.704 330.73-53.704 122.467 0 243.799 27.7 330.711 53.704zm686.743 0c-159.488-50.535-281.616-61.151-356.013-61.151-134.666 0-267.83 33.21-356.015 61.151H20.967c24.603-10.819 76.591-32.47 144.215-53.918 87.647-27.799 220.243-60.936 354.189-60.936s266.542 33.137 354.189 60.936c67.623 21.448 119.613 43.099 144.21 53.918zm131.276-50.525c7.02 6.249 13.1 11.665 18.7 16.467 4.72 7.606 5.69 22.584 5.88 31.927-5.26-2.404-14.27-6.431-26.5-11.583-1.56-17.199-4.25-33.663-6.132-43.976 2.772 2.463 5.472 4.859 8.052 7.165m-9.716 33.558a1410 1410 0 0 0-23.805-9.586c.222-21.158-6.327-47.299-10.669-62.236 9.758 8.063 18.744 15.797 26.999 23.035 1.047 5.089 5.164 25.878 7.475 48.787M973.97 531.541c16.565 24.209 20.951 48.77 12.348 69.159-9.895 23.456-35.342 37.517-67.447 40.712 4.638-9.585 8.69-21.345 11.778-32.951 4.794.698 9.612 1.066 14.513.366 2.314-.389 2.543-3.724.322-4.448-4.155-1.389-8.737-2.125-13.114-2.784 2.336-9.946 3.885-19.422 4.392-26.893.079-5 .549-12.526-5.331-14.696-8.427-2.639-16.981-4.865-25.743-6.198 2.334-20.322-7.359-39.665-13.793-52.345 26.704 15.427 49.32 38.321 66.746 63.583 1.43 2.162 4.52.21 3.401-1.971-9.845-17.635-23.267-32.854-38.156-46.367-11.104-10.044-23.504-18.799-36.82-25.737-.102-.37-.161-.682-.155-.902.156-2.873.244-6.043.265-9.391.085-.859-.13-9.889-.272-12.836a214 214 0 0 1 9.774 3.836c32.935 13.895 60.384 35.155 77.292 59.863m-44.984 36.037.034.011c.104.031.034.012-.034-.011m148.564-98.401c-3.23 3.181-25.13 24.694-35.29 33.653-4.53 3.998-12.01 4.997-14.33 4.023-3.85-1.615-8.45-5.165-14.82-10.078-14.492-11.18-38.749-29.891-88.038-51.82-4.824-2.146-9.37-6.446-7.667-12.048l14.911-47.753c1.13-3.718 4.602-7.231 8.478-6.673 63.456 9.133 125.066 66.411 135.936 80.979 2.1 2.809 2.4 6.574.82 9.717"/><path fill="#423E3E" d="M946.656 392.191a3 3 0 0 0-.388-.027c-1.858 0-3.564 1.886-4.142 3.788l-10.231 32.766c-1.221 4.017 3.632 6.409 4.618 6.848 33.835 15.054 60.696 34.606 76.747 46.288 6.95 5.061 12.44 9.058 15 10.132 1.12.463 5.76-.053 8.61-2.559 6.8-6.005 21.36-20.288 24.01-22.899.8-1.727.6-3.753-.53-5.275-6.66-8.923-70.016-62.775-113.694-69.062"/><path fill="#000" d="M947.718 384.82c-5.461-.789-10.924 3.068-12.709 8.94l-10.231 32.765c-1.918 6.307 1.582 12.675 8.708 15.845 33.113 14.734 59.579 33.998 75.384 45.506 7.92 5.761 13.15 9.567 16.5 10.976 1.15.481 2.59.726 4.19.725 3.91 0 8.73-1.474 12.23-4.564 7.63-6.727 24.04-22.908 24.74-23.594a3.6 3.6 0 0 0 .63-.815c2.48-4.377 2.15-9.795-.84-13.804-9.19-12.311-74.053-65.567-118.602-71.98m113.162 81.708c-2.65 2.611-17.21 16.894-24.01 22.9-2.85 2.505-7.49 3.021-8.61 2.558-2.56-1.074-8.05-5.071-15-10.132-16.051-11.682-42.911-31.234-76.746-46.288-.986-.438-5.84-2.83-4.619-6.848l10.231-32.766c.578-1.901 2.284-3.788 4.143-3.788q.193 0 .387.028c43.678 6.286 107.034 60.138 113.694 69.061a5.19 5.19 0 0 1 .53 5.275"/><path fill="#8A1FD1" d="M363.557 331.578a136 136 0 0 0-4.021-4.444c-4.248 8.107-12.845 26.419-14.645 44.837.03.111.073.217.093.332l3.08 18.328a356 356 0 0 1 12.992-11.925c-2.049-10.583.389-29.048 2.184-39.902.027-2.341.127-4.754.317-7.226"/><path fill="#8A1FD1" d="m361.593 471.109 8.435 50.178c1.997-10.682 5.48-21.067 9.711-31.119-7.568-7.384-14.821-15.344-18.146-19.059"/><path fill="#BE7AEB" d="M290.97 597.257c25.901-6.669 68.713-15.7 81.199-18.306l-19.754-117.514c-4.587-3.541-8.98-7.325-13.271-11.051-4.045-3.646-9.712-7.212-14.333-10.203-2.068-1.399-4.182-2.725-6.342-4.901-3.118-3.083-3.738-7.358-.676-10.839a284 284 0 0 1 14.032-16.96 310 310 0 0 1 9.766-10.435l-3.264-19.419-118.578 33.403 47.995 192.104c3.771-.926 10.923-2.712 23.226-5.879"/><path fill="#BE7AEB" d="m351.226 326.992-41.621 11.814q.016.56-.068 1.115l.348 15.788a3.73 3.73 0 0 1-.688 2.239c-.476.669-10.636 14.532-33.902 14.532-3.155 0-6.548-.255-10.195-.832a3.724 3.724 0 0 1-3.141-3.599l-.332-15.624-26.571 7.543c-5.094 9.043-15.316 29.625-16.325 42.328l119.026-33.528c2.118-16.714 8.913-32.603 13.469-41.776"/><path fill="#BE7AEB" d="m353.248 318.676-4.331-8.137c-1.101-2.068-3.269-3.309-5.535-3.309a6.2 6.2 0 0 0-1.692.236l-108.412 30.912a3.96 3.96 0 0 0-2.548 2.187 3.96 3.96 0 0 0 .003 3.358l3.89 8.426 29.942-8.5c.809-.827 1.801-1.682 3.029-2.564 3.739-2.683 8.978-5.155 14.75-6.961 8.078-2.526 16.663-3.592 22.007-1.768z"/><path fill="#DFBDF5" d="M269.337 364.702c20.281 2.186 30.386-7.187 33.071-10.2l-.128-5.834c-3.75 2.459-8.56 4.58-13.53 6.135-5.293 1.655-10.806 2.685-15.48 2.685-1.456 0-2.831-.101-4.093-.313z"/><path fill="#DFBDF5" d="M286.527 347.695c8.735-2.733 13.802-6.339 15.249-8.209-2.254-.711-8.473-.786-17.208 1.946-8.736 2.733-13.803 6.338-15.25 8.209 2.255.711 8.473.787 17.209-1.946"/><path fill="#DFBDF5" d="M888.457 277.682a2.612 2.612 0 0 1 2.354 4.665c-2.159 1.09-4.407 2.509-6.678 4.136l.094.816a10.6 10.6 0 0 1-.577 4.847 854 854 0 0 1 8.97 9.546c3.707-2.95 7.471-5.536 11.066-7.351a2.612 2.612 0 1 1 2.354 4.665c-3.167 1.598-6.522 3.896-9.864 6.54 4.643 5.053 8.133 8.928 8.523 9.362a2.614 2.614 0 0 1-3.884 3.495 1238 1238 0 0 0-8.66-9.517c-3.607 3.143-7.103 6.543-10.225 9.759a1277 1277 0 0 1 8.568 9.412 2.612 2.612 0 1 1-3.884 3.494c-2.294-2.55-5.174-5.722-8.284-9.108-5.21 5.618-8.729 9.952-8.813 10.056a2.6 2.6 0 0 1-2.035.971 2.613 2.613 0 0 1-2.031-4.253c.354-.438 3.99-4.918 9.311-10.642-4.033-4.354-8.216-8.802-11.871-12.567-5.096 5.511-8.521 9.729-8.604 9.832a2.6 2.6 0 0 1-2.034.971 2.613 2.613 0 0 1-2.031-4.253c.346-.429 3.843-4.736 8.983-10.288q-.63-.627-1.217-1.201l-16.191 1.868c-1.008 11.129 6.609 23.757 13.824 33.008 7.237 9.28 15.385 16.914 19.427 20.501 7.164-6.694 29.08-26.921 53.007-46.479 55.487-45.353 71.568-46.28 77.295-45.408-11.702-21.429-46.345-56.146-64.443-62.409-9.291-3.209-33.914 17.762-52.179 36.699a428 428 0 0 0-8.982 9.608l3.709 32.152c1.688-1.109 3.363-2.099 5.002-2.927m-2.859-25.849 8.745-9.59c10.394-11.393 31.422-28.469 32.313-29.19a3.72 3.72 0 0 1 4.399-.213c34.462 22.807 50.132 46.327 50.782 47.317a3.725 3.725 0 0 1-1.11 5.183c-.18.115-18.176 11.628-37.732 26.902a9328 9328 0 0 0-12.942 10.129 3.724 3.724 0 0 1-5.497-1.025c-10.168-17.065-38.485-44.033-38.77-44.304a3.723 3.723 0 0 1-.188-5.209"/><path fill="#DFBDF5" d="m874.848 299.124-6.008.693a202 202 0 0 0-2.36 2.398c3.797 3.903 8.035 8.413 11.887 12.57 3.12-3.204 6.608-6.582 10.239-9.743a896 896 0 0 0-7.966-8.488 10.6 10.6 0 0 1-5.792 2.57"/><path fill="#BE7AEB" d="M881.367 360.712c4.2 2.19 8.543 3.908 10.157 3.642 7.618-1.265 35.809-16.98 65.632-38.357 38.27-27.431 51.994-44.502 52.124-50.786.01-.728.05-2.243-4.24-3.136-17.607-3.65-83.595 51.03-123.673 88.637"/><path fill="#8A1FD1" d="M928.69 293.978c2.593-2.031 6.344-4.968 9.721-7.605 14.858-11.604 28.835-21.073 35.002-25.15-5.169-6.776-19.543-23.887-44.19-40.643-5.66 4.677-21.237 17.759-29.379 26.683l-6.304 6.914c6.872 6.708 25.336 25.222 35.15 39.801"/><path fill="#000" d="M924.556 301.346a3.723 3.723 0 0 0 5.496 1.025c.001-.001 7.044-5.521 12.943-10.128 19.556-15.274 37.552-26.788 37.732-26.903a3.72 3.72 0 0 0 1.109-5.183c-.649-.99-16.319-24.51-50.781-47.316a3.72 3.72 0 0 0-4.4.212c-.89.721-21.918 17.797-32.312 29.191l-8.745 9.59a3.723 3.723 0 0 0 .188 5.209c.285.27 28.601 27.238 38.77 44.303m-24.712-54.083c8.142-8.924 23.719-22.006 29.379-26.683 24.647 16.756 39.021 33.867 44.19 40.642-6.167 4.078-20.144 13.547-35.002 25.151-3.377 2.637-7.128 5.574-9.721 7.604-9.814-14.578-28.278-33.093-35.15-39.8z"/><path fill="#8A1FD1" d="M896.677 471.679a212 212 0 0 0-9.773-3.837c.142 2.947.356 11.977.271 12.836a200 200 0 0 1-.264 9.391c-.006.22.053.532.155.902 13.315 6.938 25.716 15.693 36.82 25.738 14.889 13.512 28.31 28.732 38.155 46.366 1.12 2.181-1.97 4.133-3.4 1.971-17.426-25.262-40.043-48.156-66.747-63.583 6.435 12.68 16.128 32.023 13.794 52.345 8.762 1.333 17.316 3.559 25.743 6.198 5.88 2.17 5.41 9.696 5.331 14.696-.507 7.471-2.057 16.948-4.392 26.893 4.376.659 8.958 1.395 13.114 2.784 2.221.725 1.991 4.059-.322 4.448-4.902.701-9.719.333-14.514-.366-3.087 11.606-7.14 23.366-11.778 32.951 32.105-3.195 57.552-17.256 67.448-40.711 8.602-20.39 4.217-44.951-12.349-69.16-16.907-24.708-44.356-45.968-77.292-59.862"/><path fill="#F295FF" d="M882.133 504.335a1.04 1.04 0 0 0-.462.556 86 86 0 0 1-3.282 7.662c-1.325 2.529-5.222 1.228-4.789-1.566 1.568-10.944 6.019-34.303 6.121-34.571-.191-15.673-2.038-34.738-6.931-49.688-5.731-17.511-17.49-30.45-34.008-37.418-9.3-3.923-19.804-5.874-30.864-5.91-8.293.934-8.048 5.421-7.479 7.466 27.54 31.827 42.619 74.073 42.092 116.109-.083 6.997-.86 13.958-2.189 20.823a169.6 169.6 0 0 1 38.242 23.651c2.876 1.634 6.365.878 10.025 1.066 3.209-.005 6.464.148 9.708.424 1.989-17.042-5.784-33.673-12.011-46.025-.669-.949-1.547-1.991-2.467-2.505-.691-.387-1.26-.319-1.706-.074"/><path fill="#000" d="M565.55 299.285c1.597 1.067 3.201 2.111 4.761 3.166 2.712 1.836 5.285 3.707 7.424 5.803 1.259 1.187 2.563 2.864 3.726 4.214 2.176 2.286 4.283 4.725 6.056 7.359 2.831 4.124 5.094 8.685 6.897 13.432.813 2.209 1.53 4.459 2.282 6.696.905 2.694 1.862 5.37 3.115 7.934.938 2.033 4.129 1.511 4.37-.73.52-4.134-.101-8.031-1.201-11.8a63 63 0 0 0-1.604-4.73c-3.19-8.48-7.96-16.571-14.386-23.082-4.445-5.672-10.872-9.501-17.593-11.899-.597-.213-1.193-.433-1.793-.623-2.592-.837-4.327 2.741-2.054 4.26"/><path fill="#F295FF" d="M546.216 279.648a3.7 3.7 0 0 1-.055 1.858c-.12.402-.324.76-.563 1.092a3.7 3.7 0 0 1-1.73 1.343c-75.278 27.444-126.247 59.718-151.375 77.751-11.855 8.508-18.915 14.565-19.349 14.723-18.377 15.603-35.371 32.907-49.884 52.16-.076.122-.384.482-.465.619a1.3 1.3 0 0 0-.138.238l-.002.006c1.033 1.79 3.737 3.451 5.956 4.938 3.775 2.388 8.763 5.56 12.253 8.294 9.029 7.679 18.208 15.78 28.447 21.527 4.945 2.754 9.882 5.123 15.272 5.839 1.464-.043 4.015-.44 5.989-2.403.416-.722.851-1.432 1.322-2.12l.026-.034a20.4 20.4 0 0 1 3.276-3.544c-6.914-6.9-12.492-15.5-16.503-26.47a53 53 0 0 1-1.314-4.466c-.93-3.76-1.422-7.612-1.314-11.486a2.059 2.059 0 0 1 3.957-.741l.016.037c.392.893.757 1.781 1.121 2.669 1.584 3.861 2.957 7.673 4.464 11.413 3.451 9.628 9.222 18.039 16.521 24.887 6.98-2.823 14.991-3.648 23.114-3.247 10.537.52 21.256 3.094 30.133 6.026 7.69 2.832 15.681 5.922 21.444 12.148.032.034.053.074.083.108 4.014-.346 8.012-.902 11.968-1.68a112 112 0 0 0 18.907-5.496c.568-.221 1.142-.427 1.707-.657 4.329-1.652 8.446-3.784 12.607-5.894 2.61-1.277 4.799 2.344 2.429 4.053-5.176 3.688-10.742 6.805-16.566 9.342l-.027.022c-4.588 3.542-28.034 14.008-31.772 15.667-.025.11-.055.227-.076.331-1.583 5.795-3.18 11.453-4.339 17.159-1.418 5.768-1.587 11.389-3.751 17.024a2 2 0 0 1-.349.591c-1.009 1.186-3.213.93-3.771-.649-2.128-6.127-.494-12.452.613-18.516 1.327-5.968 2.963-11.804 4.512-17.522.793-3.2 1.836-6.381 1.975-9.333-4.764-4.8-11.444-7.307-17.996-9.739-.295-.097-.597-.194-.897-.291-1.48 4.974-3.51 9.68-6.287 14.092-1.428 1.823-4.122 6.951-6.921 4.248-.618-.697-.72-1.644-.386-2.449 1.862-5.166 4.341-12.629 6.365-17.991-13.498-3.497-29.776-5.308-41.466.156-2.252 1.157-4.158 2.675-5.491 4.543-1.474 2.276-2.737 4.963-4.006 7.367-12.165 24.595-24.378 55.731-14.951 82.811 4.832 13.309 16.563 22.161 30.557 23.671 26.441 4.028 52.895 4.003 79.56 1.727 9.876-.693 19.9-1.132 29.859-.582-1.563-1.976-2.303-4.021-.372-5.182.654-.437 1.835-.198 2.559-.199 1.053.221 2.781 1.05 3.822 1.447 7.532 3.729 15.583 6.551 23.792 8.51.283.065.566.145.849.212 3.835.911 7.648 1.867 11.429 2.794 34.572 8.189 69.529 16.004 105.027 18.373 4.196.28 34.251-.583 44.645-.677 52.144-.989 103.521 12.249 151.645 31.412 12.69 4.869 25.847 9.186 39.386 8.93.759-.005 1.83-.214 2.371-.392 8.116-9.633 13.161-25.653 17.297-38.89 2.116-7.228 3.987-14.571 5.391-21.929-5.74-1.867-11.619-3.821-17.518-5.109-2.1-.577-4.218-1.095-6.592-2.056a1.157 1.157 0 0 1-.642-1.504c.416-.786 1.389-1.079 2.107-1.51 1.121-.575 2.408-.964 3.628-1.249 6.892-1.126 14.106.338 20.335 3.472.555-4.442 1.179-9.175.377-13.488a4 4 0 0 0-.115-.403c-8.136-2.557-16.528-4.748-24.929-5.974-7.846-1.327-14.912-.827-23.017-1.335-2.335-.209-5.314-1.304-7.258-3.027l-1.475-1.174c-19.55-15.8-42.921-26.818-67.541-31.883-9.848-2.028-19.896-2.884-29.79-4.608-1.147-.112-1.998-1.183-1.796-2.329a2.005 2.005 0 0 1 1.529-1.621c10.671-2.427 21.242-.79 31.554 1.226 8.971 1.799 17.765 4.383 26.295 7.654.667-1.238 1.232-2.777 1.626-4.692 3.732-28.66-2.634-58.587-14.291-84.85-20.093-45.852-62.172-80.225-112.338-86.543-11.258-1.712-22.712-1.841-34.095-1.606-5.266.115-10.459.279-15.784.111a1.924 1.924 0 0 1-.407-3.782c3.743-.993 7.53-1.721 11.344-2.248a61 61 0 0 1-4.765-4.356c-1.704-1.771.196-4.751 2.498-4.003 4.734 1.604 9.39 3.679 13.365 6.732.235.201.428.414.598.635 9.415-.326 18.897.379 28.219 1.561 15.057 1.923 29.801 6.231 43.567 12.638 7.894-5.515 15.148-11.581 21.42-18.307 6.569-7.017 2.762-16.495-2.701-24.399l-18.114 2.09q-.625.072-1.245.072a10.6 10.6 0 0 1-6.61-2.312 11 11 0 0 1-1.079-.998c-1.953 1.243-3.993 2.349-6.238 3.19-2.467.934-4.541-2.154-2.785-4.079 4.302-5.006 9.868-8.86 14.5-13.325 1.211-1.15 2.679-2.847 2.895-3.608.559-6.488-5.477-10.834-11.304-12.522-1.588-.477-3.176-.807-4.744-.904-.321-.021-.49.025-.898.099-6.738 2.186-12.997 6.942-19.77 9.797-.079.033-.153.045-.231.073-4.3 2.218-8.514 4.58-12.478 6.684-16.005 8.437-32.377 16.034-49.254 22.648-10.233 3.852-20.648 7.519-31.508 9.505-3.008.661-14.163 1.301-12.662-3.313.298-.703.919-1.135 1.624-1.245 6.592-1.429 13.395-2.469 19.932-4.554 4.224-1.282 8.418-2.751 12.589-4.315.148-5.906-.444-11.675-2.165-17.419-1.625-5.681-3.985-11.803-4.238-17.77-.527-5.763.116-12.052-.328-17.526-.026-.739-.296-1.698-.527-2.152-9.178.351-18.311 1.486-27.38 3.033-17.194 2.988-34.181 7.583-50.718 13.231-3.655 1.222-7.554 2.675-11.222 4.068m-72.787 59.265c1.528-4.081 4-6.899 7.348-8.374 5.097-2.245 10.105-.352 10.658-.129a3.722 3.722 0 0 1-2.752 6.92c-.111-.041-2.705-.973-4.948.045-1.421.643-2.541 2.039-3.33 4.148a3.727 3.727 0 0 1-4.793 2.183 3.725 3.725 0 0 1-2.183-4.793m-35.564 17.411c1.527-4.081 3.999-6.899 7.348-8.373 5.097-2.247 10.104-.353 10.658-.13a3.724 3.724 0 0 1-2.752 6.921c-.108-.042-2.703-.974-4.949.044-1.42.643-2.541 2.039-3.33 4.148a3.725 3.725 0 0 1-4.792 2.183 3.724 3.724 0 0 1-2.183-4.793m112.311 3.852-.942.656c-1.047.786-2.235 1.107-3.462 1.253a49.5 49.5 0 0 1-.71 6.702c-2.91 15.749-10.459 30.263-20.063 42.946-19.828 26.223-48.083 32.76-77.884 19.558-.41.924-.639 1.951-.762 2.724-.365 2.172-3.517 2.423-4.225.346-1.125-3.245-.373-9.238 3.696-10.055 1.299-.203 2.63.42 3.796.878 6.928 2.987 14.273 5.05 21.729 5.614-8.134-3.877-15.419-11.129-21.513-21.66-4.036-6.976-9.252-20.505-10.199-25.512-.585-3.095.778-5.954 3.399-7.161l54.754-27.726q.117-.06.237-.11c2.553-1.074 5.473-.2 7.269 2.176 3.467 4.59 11.953 16.301 15.853 25.904 3.026 7.45 4.555 14.37 4.641 20.676a99 99 0 0 0 2.849-5.195c5.148-10.268 9.717-21.855 10.527-33.208-.059-1.807 1.385-3.355 3.192-3.351 1.438.026 2.714-.025 4.108.326 1.415.188 5.412 2.652 3.71 4.219m17.429-65.151c.6.19 1.195.41 1.792.623 6.721 2.398 13.148 6.227 17.594 11.898 6.425 6.512 11.196 14.603 14.386 23.083a62 62 0 0 1 1.603 4.73c1.101 3.769 1.721 7.665 1.202 11.8-.242 2.241-3.433 2.763-4.371.73-1.252-2.564-2.21-5.24-3.115-7.934-.752-2.237-1.468-4.487-2.282-6.696-1.803-4.747-4.066-9.308-6.896-13.432-1.773-2.634-3.881-5.073-6.057-7.359-1.163-1.35-2.467-3.027-3.726-4.214-2.139-2.096-4.712-3.967-7.424-5.803-1.559-1.055-3.164-2.099-4.761-3.167-2.272-1.518-.537-5.096 2.055-4.259"/><path fill="#000" d="M546.466 355.957c-1.394-.351-2.67-.3-4.108-.326-1.807-.004-3.251 1.544-3.192 3.351-.81 11.354-5.379 22.94-10.527 33.208a98 98 0 0 1-2.849 5.195c-.086-6.306-1.615-13.226-4.641-20.676-3.9-9.602-12.386-21.314-15.853-25.904-1.796-2.376-4.715-3.249-7.269-2.176q-.12.05-.237.11l-54.754 27.726c-2.62 1.207-3.984 4.066-3.399 7.162.947 5.007 6.163 18.536 10.2 25.511 6.093 10.531 13.378 17.784 21.512 21.66-7.456-.564-14.801-2.627-21.728-5.614-1.167-.458-2.497-1.081-3.797-.877-4.069.816-4.821 6.81-3.696 10.054.708 2.078 3.861 1.826 4.225-.346.123-.773.352-1.799.762-2.724 29.801 13.202 58.056 6.665 77.884-19.558 9.604-12.682 17.153-27.196 20.063-42.946.38-2.188.628-4.42.71-6.702 1.228-.146 2.415-.467 3.462-1.253l.942-.656c1.702-1.567-2.295-4.031-3.71-4.219m-46.208 67.33c-22.06 9.91-36.091-4.252-43.975-17.879-3.405-5.884-8.113-17.828-9.214-22.637l52.829-26.752c3.076 4.123 10.91 15.021 14.351 23.493 8.665 21.332 4.089 35.651-13.991 43.775"/><path fill="#DB00F8" d="m499.898 356.02-52.829 26.751c1.101 4.809 5.809 16.753 9.214 22.637 7.884 13.627 21.915 27.789 43.975 17.879 18.08-8.123 22.656-22.442 13.991-43.775-3.441-8.471-11.275-19.37-14.351-23.492m-15.602 52.252c-.443 1.096-1.277 1.927-2.348 2.341a4.7 4.7 0 0 1-1.689.333c-4.104 0-6.955-6.156-9.953-12.631-3.631-7.842-6.499-14.036-1.961-16.766a4.28 4.28 0 0 1 3.505-.426c2.98.915 5.008 4.689 8.618 12.487 3.845 8.304 4.847 12.142 3.828 14.662m17.375-6.797a4.03 4.03 0 0 1-2.019.541c-.428 0-.862-.067-1.29-.203-2.235-.708-4.385-2.97-8.765-12.429-3.468-7.49-5.221-11.537-3.995-14.537a4.4 4.4 0 0 1 2.538-2.474c5.055-1.913 7.747 3.919 11.154 11.298l.466 1.008q.491 1.058.961 2.055c3.036 6.453 5.658 12.027.95 14.741"/><path fill="#000" d="M480.468 393.61c-3.611-7.798-5.638-11.573-8.618-12.487a4.28 4.28 0 0 0-3.506.425c-4.538 2.73-1.67 8.925 1.961 16.767 2.998 6.474 5.849 12.631 9.953 12.631a4.7 4.7 0 0 0 1.69-.334c1.071-.413 1.905-1.245 2.347-2.34 1.02-2.521.018-6.358-3.827-14.662"/><path fill="#000" d="m499.759 384.679-.466-1.008c-3.406-7.379-6.098-13.211-11.154-11.298a4.4 4.4 0 0 0-2.537 2.473c-1.226 3.001.527 7.048 3.994 14.538 4.38 9.459 6.531 11.721 8.766 12.429a4.3 4.3 0 0 0 1.29.203c.704 0 1.395-.182 2.018-.541 4.708-2.714 2.087-8.288-.949-14.741q-.471-.997-.962-2.055"/><path fill="#000" d="M475.612 343.706a3.724 3.724 0 0 0 4.792-2.183c.79-2.109 1.91-3.505 3.331-4.148 2.243-1.018 4.837-.086 4.948-.045a3.725 3.725 0 0 0 2.752-6.92c-.553-.223-5.561-2.116-10.658.129-3.348 1.475-5.821 4.293-7.348 8.374a3.725 3.725 0 0 0 2.183 4.793"/><path fill="#000" d="M441.352 361.354a3.725 3.725 0 0 0 3.488-2.42c.789-2.108 1.91-3.504 3.33-4.148 2.246-1.017 4.841-.085 4.95-.044a3.723 3.723 0 0 0 2.751-6.92c-.554-.224-5.561-2.117-10.658.129-3.349 1.475-5.821 4.292-7.348 8.373a3.725 3.725 0 0 0 3.487 5.03"/><path fill="#BE7AEB" d="M536.325 278.784c-4.526-5.027-13.593-14.04-26.372-21.699-10.543-6.319-24.615-9.066-39.068-9.066-17.856 0-36.293 4.191-49.385 11.014-30.036 15.654-46.942 39.259-50.25 70.159-1.714 16.011.845 29.984 2.638 37.226 12.219-9.797 49.274-37.485 109.593-65.553.051-.212.115-.424.206-.631 1.577-3.558 1.526-6.599-.153-9.039-1.874-2.724-5.037-3.768-6.272-3.719-2.237.116-8.035 1.658-8.361 1.778-.071.027-7.557 2.853-20.411 10.484-12.39 7.355-17.559 11.841-17.61 11.886a3.74 3.74 0 0 1-3.748.693 3.73 3.73 0 0 1-1.618-1.168c-2.209-1.027-7.264-3.962-9.111-9.997-1.935-6.317.26-13.76 6.52-22.121a3.724 3.724 0 0 1 6.612 3.058 19 19 0 0 0-.35 2.54c2.871-5.046 6.986-8.941 12.208-11.481 6.167-2.999 11.962-3.492 17.224-1.457 5.452 2.106 8.921 6.468 10.776 9.489 2.651-.623 5.175-1.022 7.486-1.141 3.851-.199 9.478 2.12 12.791 6.935 2.002 2.911 2.847 6.305 2.529 9.909a730 730 0 0 1 44.126-18.099"/><path fill="#F295FF" d="m929.02 567.589-.034-.01c.067.023.138.042.034.01"/><path fill="#7A42C8" d="M825.435 252.189c-.879.101-1.359.874-1.229 1.997s.773 1.767 1.652 1.665 1.359-.874 1.229-1.997-.773-1.766-1.652-1.665"/><path fill="#7A42C8" d="M776.505 263.411c.879-.101 1.359-.874 1.257-1.753-.101-.879-.744-1.522-1.623-1.421-.879.102-1.359.875-1.258 1.754.102.879.745 1.522 1.624 1.42"/><path fill="#7A42C8" d="M744.204 273.341c1.011.373 2.005.79 2.973 1.279a4.4 4.4 0 0 1 2.639-1.308l7.09-.818a4.46 4.46 0 0 1 4.934 3.913l.479 4.156a4.43 4.43 0 0 1-.937 3.275 4.43 4.43 0 0 1-2.976 1.658l-.643.074c.803 2.135 1.194 4.417 1.056 6.682.042 1.384-.497 3.01-1.141 4.092-2.205 3.581-5.207 6.54-8.385 9.168.582.32 1.244.458 1.913.381l122.788-14.167a3.23 3.23 0 0 0 2.835-3.573l-7.854-68.077a3.2 3.2 0 0 0-1.2-2.157 3.2 3.2 0 0 0-2.374-.677l-122.788 14.166a3.23 3.23 0 0 0-2.835 3.574zm45.391-17.636c-.831.096-1.37.777-1.275 1.607l.944 8.18-5.567.642-1.656-14.357 8.253-.952.546 4.737zm9.802 8.618c-4.346.501-7.538-2.075-8.048-6.494-.507-4.395 1.938-7.646 6.162-8.134 3.809-.439 6.602 2.109 7.033 5.844l-6.747 3.921 6.836-.789.575 4.981zm14.161-1.634-.98-8.497c-.079-.684-.52-1.078-1.033-1.019s-.853.544-.774 1.227l.98 8.497-5.567.643-2.056-17.824 5.567-.643.4 3.468 2.686-.31c2.686-.31 4.916 1.437 5.226 4.122l1.118 9.694zm12.975-1.2c-3.98.459-7.094-2.299-7.604-6.718-.507-4.395 1.924-7.769 5.88-8.225s7.063 2.253 7.573 6.673c.51 4.419-1.869 7.811-5.849 8.27m36.707-19.377c3.809-.439 6.602 2.109 7.033 5.845l-6.748 3.92 6.837-.789.575 4.981-5.811.671c-4.347.501-7.538-2.075-8.048-6.494-.507-4.395 1.938-7.646 6.162-8.134m-15.268 7.7c-1.621-2.683-.203-5.618 2.898-5.976l5.03-.58.547 4.737-2.833.327 2.323 3.839c1.621 2.683.203 5.617-2.898 5.975l-5.469.631-.546-4.737 3.271-.377zm-1.183 9.043-8.253.952c-2.686.31-4.916-1.437-5.226-4.122l-1.118-9.694 5.567-.642.98 8.497c.079.684.52 1.078 1.033 1.019s.853-.544.774-1.228l-.98-8.496 5.567-.643zm-16.082-31.743 1.014 8.79c.064.561.511.782.926.734s.685-.277.732-.728l1.063-9.227 5.787-.668-2.751 18.404-5.494.633.501-3.595-1.025.118c-2.686.31-4.892-1.44-5.202-4.126l-1.118-9.693zm-10.191-2.338.4 3.467 3.345-.386.546 4.737-3.345.386.4 3.467a1.396 1.396 0 0 0 1.58 1.253l1.929-.222.546 4.736-4.248.49c-2.686.31-4.892-1.439-5.202-4.125l-1.518-13.16zm-4.39 18.568-5.567.642-1.33-11.524 5.567-.643zm-4.874-17.796a3.084 3.084 0 0 1 3.432 2.722 3.084 3.084 0 0 1-2.722 3.431 3.083 3.083 0 0 1-3.431-2.722 3.083 3.083 0 0 1 2.721-3.431m-3.726.727 2.056 17.824-5.567.642-2.056-17.824zm-4.487 18.579-5.567.642-1.33-11.525 5.567-.642zm-4.874-17.796a3.084 3.084 0 0 1 3.432 2.721 3.085 3.085 0 0 1-2.722 3.432 3.084 3.084 0 0 1-3.431-2.722 3.083 3.083 0 0 1 2.721-3.431m-6.949 1.099.4 3.467 3.345-.386.547 4.737-3.345.385.4 3.468a1.395 1.395 0 0 0 1.579 1.252l1.929-.222.546 4.737-4.248.49c-2.686.31-4.892-1.44-5.202-4.126l-1.518-13.16zm-15.065 1.738 1.251 10.84c.11.953.706 1.403 1.439 1.319.732-.085 1.21-.659 1.1-1.612l-1.25-10.84 5.957-.688 1.237 10.719c.484 4.2-2.113 7.641-6.385 8.134s-7.585-2.267-8.07-6.466l-1.236-10.719zm.323 22.526c2.686-.31 4.916 1.437 5.226 4.123l1.118 9.693-8.961 1.034c-1.757.203-4.216-.948-4.537-3.732-.302-2.612 1.723-3.935 3.418-4.897l1.896-1.092-5.682.656-.56-4.852zm-26.623-.441 1.262 10.938c.11.952.706 1.403 1.438 1.319.733-.085 1.211-.66 1.101-1.612l-1.262-10.938 5.958-.688 1.262 10.939c.109.952.706 1.403 1.438 1.318.733-.084 1.211-.659 1.101-1.611l-1.262-10.939 5.958-.687 1.225 10.621c.462 4.004-2.538 7.592-6.47 8.045l-8.35.964c-3.931.453-7.67-2.357-8.132-6.361l-1.225-10.621z"/><path fill="#7A42C8" d="M865.027 246.879c-.285-.536-.785-.8-1.518-.716-1.196.138-1.773 1.145-1.404 2.414z"/><path fill="#7A42C8" d="M797.781 253.746c-1.196.139-1.773 1.145-1.404 2.414l2.922-1.698c-.285-.536-.785-.8-1.518-.716"/><path fill="#423E3E" d="m755.909 281.942 2.06-.237a.64.64 0 0 0 .423-.239.63.63 0 0 0 .135-.466l-.479-4.155a.63.63 0 0 0-.238-.423.64.64 0 0 0-.394-.141c-.023 0-6.357.73-6.357.73.508.373 1.014.755 1.507 1.171a17.5 17.5 0 0 1 3.343 3.76"/><path fill="#000" d="M915.821 182.737a2.45 2.45 0 0 0 3.424-.549c2.553-3.527 4.213-7.367 5.649-11.285 4.402-11.72 8.649-23.502 12.177-35.52 1.205-4.526-5.196-6.773-7.069-2.47-3.16 7.731-5.967 15.59-8.659 23.492-2.48 8.042-6.004 15.666-6.534 24.234a2.48 2.48 0 0 0 1.012 2.098"/><path fill="#000" d="m861.46 187.35 14.339 4.39q.453.137.905.136a3.089 3.089 0 0 0 .902-6.041l-14.338-4.39a3.088 3.088 0 1 0-1.808 5.905"/><path fill="#000" d="m885.018 170.957 4.876 9.671c1.731 3.173 2.952 6.588 5.676 9.293a2.59 2.59 0 0 0 2.048.734c5.422-.945-.31-10.209-1.251-13.083-4.031-9.207-9.113-20.564-13.535-29.528-2.411-4.526-9.101-1.359-7.135 3.368 2.558 5.738 6.537 13.819 9.321 19.545"/><path fill="#000" d="M1011.02 324.372a3.094 3.094 0 0 0 4.02 1.711l13.91-5.598a3.09 3.09 0 0 0-2.31-5.729l-13.91 5.599a3.085 3.085 0 0 0-1.71 4.017"/><path fill="#000" d="M996.446 334.915a2.57 2.57 0 0 0-.046 3.63c2.681 2.748 6.08 3.999 9.24 5.759l9.63 4.961c5.68 2.827 13.78 6.903 19.46 9.495 4.7 2.027 7.94-4.694 3.43-7.105-8.94-4.508-20.22-9.675-29.4-13.797-2.76-.973-9.716-5.289-12.314-2.943"/><path fill="#000" d="M164.586 338.673a3.743 3.743 0 0 0-4.163-3.269l-4.301.518c-2.069.24-4.284.825-6.33 1.194-12.959 3.143-25.187 8.688-36.76 15.151-4.844 2.713-9.53 5.651-13.745 9.431-1.542 1.372.098 3.87 1.968 3.034 9.975-4.192 19.375-9.554 29.43-13.478 9.777-3.916 19.999-7.208 30.4-8.391 2.145-.135 3.765-2.05 3.501-4.19"/><path fill="#000" d="M91.655 387.289a3.084 3.084 0 0 0 4.325.6l6.82-5.158a3.087 3.087 0 1 0-3.725-4.925l-6.82 5.158a3.09 3.09 0 0 0-.6 4.325"/><path fill="#000" d="M143.802 353.338c-11.269 3.693-21.887 8.978-31.701 15.635-4.116 3.029.044 9.212 4.396 6.549a188 188 0 0 1 9.589-5.775c6.463-3.679 13.183-6.946 20.09-9.656 3.437-1.444 7.017-2.064 10.336-4.147a2.55 2.55 0 0 0 1.282-1.957c.133-5.666-11.065-1.435-13.992-.649"/><path fill="#FFFBE8" d="M811.962 231.699a3.085 3.085 0 0 0 2.722-3.432 3.083 3.083 0 0 0-3.431-2.721 3.083 3.083 0 0 0-2.722 3.431 3.084 3.084 0 0 0 3.431 2.722"/><path fill="#FFFBE8" d="m807.526 226.273-5.567.642 2.056 17.824 5.567-.643z"/><path fill="#FFFBE8" d="M824.809 246.546c-3.956.456-6.387 3.829-5.88 8.224.51 4.42 3.624 7.178 7.604 6.719s6.359-3.851 5.849-8.271c-.509-4.419-3.618-7.128-7.573-6.672m1.049 9.305c-.879.102-1.522-.541-1.652-1.665-.13-1.123.35-1.896 1.229-1.997s1.523.542 1.652 1.665c.13 1.123-.35 1.896-1.229 1.997"/><path fill="#FFFBE8" d="m847.57 258.765 5.47-.631c3.1-.358 4.519-3.293 2.898-5.976l-2.323-3.839 2.832-.326-.547-4.737-5.03.58c-3.1.358-4.519 3.292-2.898 5.975l2.324 3.84-3.272.377z"/><path fill="#FFFBE8" d="m792.369 246.083 4.249-.491-.547-4.736-1.929.222a1.396 1.396 0 0 1-1.579-1.253l-.4-3.467 3.345-.386-.547-4.736-3.345.386-.4-3.467-5.567.642 1.519 13.16c.31 2.686 2.515 4.435 5.201 4.126"/><path fill="#FFFBE8" d="m801.709 233.327-5.566.642 1.329 11.525 5.567-.642z"/><path fill="#FFFBE8" d="M840.546 253.637c.079.684-.261 1.169-.774 1.228s-.954-.335-1.033-1.019l-.98-8.497-5.567.642 1.118 9.693c.31 2.686 2.54 4.433 5.226 4.123l8.253-.952-1.657-14.357-5.566.643z"/><path fill="#FFFBE8" d="M779.5 247.765c4.272-.493 6.869-3.935 6.385-8.134l-1.237-10.719-5.957.687 1.25 10.841c.11.952-.368 1.527-1.1 1.612-.733.084-1.329-.367-1.439-1.319l-1.251-10.841-5.957.687 1.236 10.719c.485 4.2 3.797 6.96 8.07 6.467"/><path fill="#FFFBE8" d="M798.875 233.209a3.085 3.085 0 0 0 2.722-3.432 3.084 3.084 0 0 0-3.432-2.721 3.083 3.083 0 0 0-2.721 3.431 3.084 3.084 0 0 0 3.431 2.722"/><path fill="#FFFBE8" d="m753.25 269.646 8.35-.963c3.932-.454 6.932-4.041 6.47-8.045l-1.225-10.621-5.958.687 1.262 10.939c.11.952-.368 1.527-1.101 1.611-.732.085-1.329-.366-1.438-1.318l-1.262-10.939-5.958.687 1.262 10.939c.11.952-.368 1.527-1.101 1.611-.732.085-1.328-.366-1.438-1.318l-1.262-10.939-5.958.688 1.225 10.621c.463 4.004 4.201 6.814 8.132 6.36"/><path fill="#FFFBE8" d="m814.796 231.817-5.567.642 1.33 11.525 5.567-.643z"/><path fill="#FFFBE8" d="m782.041 251.777 1.656 14.357 5.567-.643-.944-8.179c-.095-.83.444-1.511 1.275-1.607l1.245-.144-.546-4.736z"/><path fill="#FFFBE8" d="m821.668 242.702 4.249-.49-.547-4.737-1.929.223a1.396 1.396 0 0 1-1.579-1.253l-.4-3.467 3.345-.386-.547-4.737-3.344.386-.4-3.467-5.567.642 1.518 13.161c.31 2.686 2.516 4.435 5.201 4.125"/><path fill="#FFFBE8" d="m812.781 248.23-2.686.31-.4-3.467-5.567.642 2.056 17.824 5.567-.642-.98-8.497c-.079-.684.261-1.168.774-1.227s.954.335 1.033 1.019l.98 8.496 5.567-.642-1.118-9.693c-.31-2.686-2.54-4.433-5.226-4.123"/><path fill="#FFFBE8" d="m774.634 257.548-1.896 1.091c-1.695.963-3.72 2.285-3.418 4.898.321 2.783 2.779 3.935 4.537 3.732l8.961-1.034-1.118-9.693c-.31-2.686-2.54-4.433-5.226-4.123l-8.082.932.56 4.852zm1.505 2.689c.879-.101 1.522.542 1.623 1.421.102.879-.378 1.652-1.257 1.753-.879.102-1.522-.542-1.624-1.421-.101-.879.379-1.652 1.258-1.753"/><path fill="#FFFBE8" d="m831.46 241.573 1.025-.119-.501 3.596 5.494-.634 2.751-18.403-5.787.668-1.063 9.227c-.047.451-.317.68-.733.728-.415.048-.861-.173-.926-.735l-1.013-8.79-5.567.643 1.118 9.693c.31 2.686 2.516 4.435 5.202 4.126"/><path fill="#FFFBE8" d="m865.126 256.739 5.811-.67-.575-4.981-6.837.789 6.748-3.921c-.431-3.735-3.224-6.283-7.033-5.844-4.224.488-6.669 3.739-6.162 8.134.51 4.419 3.701 6.995 8.048 6.493m-1.616-10.576c.732-.084 1.233.18 1.517.716l-2.921 1.698c-.369-1.269.207-2.276 1.404-2.414"/><path fill="#FFFBE8" d="m797.797 259.46 6.747-3.921c-.431-3.735-3.223-6.283-7.032-5.844-4.224.488-6.67 3.739-6.163 8.134.51 4.419 3.702 6.995 8.048 6.493l5.811-.67-.575-4.981zm-.016-5.714c.733-.084 1.233.18 1.518.716l-2.922 1.698c-.369-1.269.208-2.276 1.404-2.414"/><path fill="#423E3E" d="M875.937 703.398a1543 1543 0 0 1 21.243 6.909c-.633-17.715-3.624-36.364-7.036-52.521l-.3-.037c-9.89-1.567-19.381-4.458-28.515-8.003a359 359 0 0 1 4.069 50.352c3.578 1.107 7.097 2.208 10.539 3.3"/><path fill="#423E3E" d="M935.147 723.501c-3.256-34.523-9.684-62.918-12.716-75.024q-3.848.466-7.779.729c-.968 1.588-3.716 5.345-3.875 5.529-.956 1.102-2.03 2.161-3.37 2.728-3.089 1.11-6.258 1.306-9.427 1.147 3.431 16.728 6.328 35.918 6.723 54.225a1566 1566 0 0 1 30.444 10.666"/><path fill="#423E3E" d="M775.403 623.573c-11.175-2.187-22.439-3.859-33.769-4.862.854 17.324 1.227 34.93.455 49.026a1382 1382 0 0 1 35.067 8.021c-.027-16.167-.774-34.708-1.753-52.185"/><path fill="#423E3E" d="M817.853 686.252c-.184-19.997-1.377-37.771-2.953-52.834a453 453 0 0 0-13.629-3.867 407 407 0 0 0-18.324-4.42c.967 17.683 1.684 36.32 1.656 52.453a1461 1461 0 0 1 33.25 8.668"/><path fill="#423E3E" d="M613.555 611.136c-11.147-1.977-22.235-4.247-33.284-6.693v39.784a999 999 0 0 1 33.284 2.855z"/><path fill="#423E3E" d="M653.272 616.63c-7.894-.767-15.757-1.793-23.534-2.841a569 569 0 0 1-8.737-1.371v35.457a1100 1100 0 0 1 32.151 4.017c.008-12.947.054-24.658.12-35.262"/><path fill="#423E3E" d="M701.688 617.569v42.144a1292 1292 0 0 1 33.026 6.461c.679-13.789.266-31.071-.597-48.079-10.829-.716-21.6-.706-32.429-.526"/><path fill="#423E3E" d="M532.093 593.656a115 115 0 0 0-7.393-.931 139 139 0 0 0-11.172-.677 198 198 0 0 0-11.186.09v50.114a833 833 0 0 1 17.029-.18q6.365.001 12.723.098z"/><path fill="#423E3E" d="M694.241 658.382v-40.671c-.298.006-.667.012-1.097.016-6.451.07-26.715-.042-32.428-.458a6160 6160 0 0 0-.116 35.688 1195 1195 0 0 1 33.641 5.425"/><path fill="#423E3E" d="M973.139 737.821c8.739 3.429 16.705 6.65 23.805 9.586-2.312-22.909-6.428-43.698-7.476-48.787-8.254-7.238-17.24-14.972-26.998-23.035 4.342 14.937 10.891 41.078 10.669 62.236"/><path fill="#423E3E" d="M292.197 668.704c-.952-17.574-.129-41.775 1.191-64.379l-.561.144c-20.67 5.321-26.713 6.726-26.96 6.783a3.8 3.8 0 0 1-.843.097 3.72 3.72 0 0 1-2.566-1.045q-.964.461-1.951.921c-1.677 21.618-3.124 45.779-3.209 65.577a1391 1391 0 0 1 34.899-8.098"/><path fill="#423E3E" d="M559.271 599.61c-3.081-.546-11.984-1.439-12.424-1.5a76 76 0 0 1-7.307-1.781v45.991a903 903 0 0 1 33.284 1.424v-40.976c-4.523-1.033-10.128-2.552-13.553-3.158"/><path fill="#423E3E" d="M857.927 697.809a349 349 0 0 0-4.702-51.22c-10.103-3.886-20.303-7.507-30.602-10.786 1.494 15.141 2.584 32.792 2.694 52.51a1496 1496 0 0 1 32.61 9.496"/><path fill="#423E3E" d="M139.186 642.132a148 148 0 0 1-22.384 1.725c-.71 0-1.43-.019-2.146-.03-2.711 10.757-10.178 42.905-12.926 80.349a1567 1567 0 0 1 27.999-9.874c.489-24.909 5.159-52.077 9.457-72.17"/><path fill="#423E3E" d="M1031.24 762.243c-.19-9.343-1.16-24.321-5.88-31.926-5.6-4.803-11.68-10.219-18.7-16.467-2.58-2.307-5.28-4.703-8.052-7.166 1.882 10.314 4.572 26.777 6.132 43.976 12.23 5.153 21.24 9.179 26.5 11.583"/><path fill="#423E3E" d="M169.031 701.438c.297-26.675 3.642-51.556 7.345-71.209-6.114 3.063-12.833 5.804-20.244 8.108-2.613.812-5.653 1.607-9.014 2.332-4.238 19.279-9.092 46.188-9.875 71.083a1555 1555 0 0 1 31.788-10.314"/><path fill="#423E3E" d="M965.676 734.915c-.509-26.722-11.552-61.503-13.63-67.824a866 866 0 0 0-21.482-16.708c3.455 14.394 9.418 42.578 12.32 75.941a1527 1527 0 0 1 22.792 8.591"/><path fill="#423E3E" d="M70.605 735.868a1526 1526 0 0 1 23.462-8.884c2.211-33.861 8.387-63.912 11.897-78.907a1021 1021 0 0 0-24.43 18.72c-1.62 7.134-9.545 43.06-10.93 69.071"/><path fill="#423E3E" d="M252.78 614.633c-9.194 3.819-19.774 7.342-32.43 9.902-1.962 17.862-3.551 39.315-3.767 62.9a1460 1460 0 0 1 33.265-8.779c-.002-19.143 1.323-42.603 2.932-64.023"/><path fill="#423E3E" d="M489.567 592.832c-9.257.78-18.596 1.3-27.955 1.481v49.701a911 911 0 0 1 33.283-1.581v-49.941q-2.662.155-5.328.34"/><path fill="#423E3E" d="M212.714 625.913c-8.192 1.312-17.191 2.223-27.163 2.578q-.433.015-.862.015c-.135 0-.268-.013-.404-.015-3.751 19.159-7.291 43.916-7.774 70.631a1506 1506 0 0 1 32.609-9.6c.132-23.736 1.658-45.415 3.594-63.609"/><path fill="#423E3E" d="M420.881 644.59v2.946a1010 1010 0 0 1 33.283-3.003v-50.152a328 328 0 0 1-20.834-.658 291 291 0 0 1-12.449-1.069z"/><path fill="#423E3E" d="M372.961 649.206v-62.811l-1.476.308a3391 3391 0 0 0-30.479 6.533c-.413 19.348-.771 41.721-.807 65.908a1205 1205 0 0 1 32.762-5.415z"/><path fill="#423E3E" d="M380.408 584.142v68.486a1110 1110 0 0 1 33.026-4.274v-56.611a251 251 0 0 1-9.662-1.503 44.7 44.7 0 0 1-7.512-2.276 43 43 0 0 1-2.314-1.015 41.5 41.5 0 0 1-8.293-5.211z"/><path fill="#423E3E" d="M299.571 667.113a1300 1300 0 0 1 33.18-6.609c.023-24.023.366-46.282.771-65.615-10.994 2.444-22.507 5.08-32.53 7.533-1.362 22.614-2.274 47.068-1.421 64.691"/><path fill="#423E3E" d="M40.76 700.128c-6.91 5.743-13.034 10.797-18.47 15.065-1.653 2.617-10.629 17.931-14.177 46.77 4.997-2.274 13.013-5.849 23.66-10.359 1.002-20.087 5.585-39.471 8.988-51.476"/><path fill="#423E3E" d="M63.021 738.836c.683-21.236 6.1-49.618 9.273-64.671-7.553 6.082-14.563 11.862-21.037 17.236-1.735 5.122-9.904 30.369-11.83 56.99a1389 1389 0 0 1 23.594-9.555"/><path fill="#8A1FD1" d="M519.371 649.52c-133.946 0-266.542 33.137-354.189 60.937-67.623 21.447-119.612 43.098-144.215 53.917h142.389c88.186-27.94 221.349-61.151 356.015-61.151 74.397 0 196.525 10.617 356.013 61.151h142.386c-24.597-10.819-76.587-32.47-144.21-53.917-87.647-27.8-220.243-60.937-354.189-60.937"/><path fill="#BE7AEB" d="M188.641 764.374h661.441C763.17 738.37 641.838 710.67 519.371 710.67c-70.253 0-183.414 9.55-330.73 53.704"/></svg>