<svg
  xmlns="http://www.w3.org/2000/svg"
  width="1080"
  height="1080"
  fill="none"
  viewBox="0 0 1080 1080"
>
  <path
    fill="#FAD0E9"
    d="M551.692 110.371v102.157l78.371-77.962c-23.279-14.153-50.144-22.557-78.371-24.195"
  />
  <path
    fill="#FAD0E9"
    d="M658.259 217.186c3.92-12.848 13.785-23.2 26.48-27.697a162 162 0 0 0-15.624-21.731 160.5 160.5 0 0 0-17.7-17.717l-67.616 67.167zm.397-46.426a3.4 3.4 0 0 1 4.72.922l8.472 12.581a3.4 3.4 0 1 1-5.64 3.798l-8.473-12.581a3.4 3.4 0 0 1 .921-4.72m-10.74 17.21a3.4 3.4 0 0 1 4.787-.455l7.381 6.099a3.4 3.4 0 0 1-4.332 5.242l-7.381-6.099a3.4 3.4 0 0 1-.455-4.787m-10.483 11.315 13.979 5.89a3.4 3.4 0 0 1 1.812 4.453 3.4 3.4 0 0 1-4.453 1.813l-13.978-5.89a3.4 3.4 0 1 1 2.64-6.266"
  />
  <path
    fill="#FAD0E9"
    d="M683.193 407.859a50 50 0 0 1-5.109 7.76c2.354.739 4.777 1.502 7.261 2.285 4.666 1.47 9.961 3.138 15.303 4.785l.855-31.811c-1.309 3.853-3.415 7.422-6.266 10.343-3.4 3.482-7.522 5.717-12.044 6.638"
  />
  <path
    fill="#FAD0E9"
    d="M477.292 399.634c9.235 2.735 19.001 7.137 29.364 13.577a427 427 0 0 1 12.421 8.023c9.12.3 18.243 1.811 27.412 4.542-19.934-16.074-30.936-27.91-33.429-35.901-3.008-9.645 3.159-25.088 10.682-32.452 2.622-2.567 6.15-3.4 9.939-2.348 6.675 1.854 13.645 9.411 17.337 15.865.186-8.742-3.61-14.66-6.407-19.002-2.065-3.207-3.697-5.741-2.701-8.533.578-1.623 1.902-2.779 3.934-3.438 29.028-9.411 55.854-8.088 59.369-7.865 18.311-9.164 38.777-5.594 55.132 6.313 5.579-.92 15.501-1.06 31.633 3.185 6.365 1.675 6.276 6.222 6.19 10.62-.08 4.084-.201 10.255 3.26 19.822.2.551.374 1.109.536 1.67l2.743-102.073a42 42 0 0 1-5.826.397c-18.525 0-34.488-11.996-40.214-28.82H368.759l2.903 53.214a121.6 121.6 0 0 1 9.972 14.157c2.086 3.515 3.969 7.144 5.69 10.848 6.376 10.524 12.685 21.689 14.357 27.221 4.269 14.123-.524 20.598-4.803 23.482-3.104 3.059-9.797 8.84-9.791 9.026-.096 9.966-1.435 20.036-5.619 29.145a168 168 0 0 1 7.358 5.669 201 201 0 0 1 4.649 4.057c1.695-1.32 3.713-2.276 5.155-3.87 7.736-8.554 4.888-25.559 4.209-37.323-.388-6.719-.694-12.026.206-15.488 1.732-6.667 11.273-11.728 16.805-14.151a76 76 0 0 1 5.543-2.149l-6.774-61.131c-.329-3.291 1.9-8.337 5.007-12.239.708-3.577 3.581-6.49 7.261-6.977l9.865-1.304a8.1 8.1 0 0 1 6.138 1.697c1.815 1.438 2.944 3.527 3.179 5.883l1.416 14.17c15.134-7.844 16.801-12.925 18.92-27.518a3.4 3.4 0 0 1 2.918-2.881 3.39 3.39 0 0 1 3.567 2.023c1.402 3.244 2.469 6.09 3.412 8.601 4.282 11.414 5.433 14.482 24.143 16.682a3.4 3.4 0 0 1 .883 6.527q-16.437 6.68-20.376 29.379l-.201 1.155a3.4 3.4 0 0 1-6.468.774c-5.378-12.362-9.759-18.521-25.225-19.001l4.241 42.448c1.717.862 3.008 1.904 3.976 2.993 4.019.33 8.151 1.948 11.025 4.059 2.605 1.775 5.261 4.821 6.067 8.439 3.207 12.564-.739 25.602-1.065 38.106-.005.226-.005.464-.01.695m211.75-118.188a3.394 3.394 0 0 1 3.712-3.056 3.4 3.4 0 0 1 3.055 3.713l-.881 9.076a3.4 3.4 0 1 1-6.767-.657zm-17.601-5.806a3.4 3.4 0 0 1 6.168 2.861l-6.382 13.76a3.4 3.4 0 1 1-6.168-2.861zm-6.446-9.361a3.4 3.4 0 0 1 .284 4.799l-6.357 7.16a3.4 3.4 0 0 1-2.543 1.143 3.4 3.4 0 0 1-2.541-5.657l6.357-7.16a3.4 3.4 0 0 1 4.8-.285m-26.602-3.784 12.874-8.021a3.4 3.4 0 0 1 3.596 5.772l-12.874 8.021a3.397 3.397 0 0 1-4.684-1.088 3.4 3.4 0 0 1 1.088-4.684"
  />
  <path
    fill="#FAD0E9"
    d="M382.529 375.502a13 13 0 0 1-.99-.203c-.05.336-.098.679-.139 1.05.381-.275.751-.567 1.129-.847"
  />
  <path
    fill="#FAD0E9"
    d="M426.55 150.992a175 175 0 0 0-17.656 17.097c-13.155 14.666-23.646 31.134-31.355 49.18l115.602-.034z"
  />
  <path fill="#FAD0E9" d="m525.74 212.93-.078-102.207c-28.165 2.318-54.572 10.828-77.741 24.908z" />
  <path fill="#EE6DBB" d="m869.215 536.152-.761 11.195h8.646l.919-12.502q-4.413.676-8.804 1.307" />
  <path
    fill="#EE6DBB"
    d="m890.539 222.171-9.981 146.954a242 242 0 0 1 9.255 5.128l10.968-149.355z"
  />
  <path
    fill="#C0167C"
    d="M753.269 318.476c23.928 5.444 36.367 12.313 42.586 17.095 4.153-.564 8.34-.871 12.544-.922 24.776-.509 47.528 9.545 62.069 29.55.295.127 1.523.666 3.499 1.61l9.781-144.013-132.094 19.297-4 77.3c1.517-.409 3.337-.435 5.615.083"
  />
  <path fill="#C0167C" d="m835.58 540.484 26.113 6.05.64-9.414a1247 1247 0 0 1-26.753 3.364" />
  <path fill="#EE6DBB" d="m200.656 541.709-6.573-96.788a64 64 0 0 0-9.466-3.882l7.393 100.67z" />
  <path
    fill="#EE6DBB"
    d="M187.096 363.99c.444-.656.909-1.298 1.359-1.95l-9.882-145.509-10.244 2.728 11.479 156.303a230 230 0 0 1 7.288-11.572"
  />
  <path
    fill="#C0167C"
    d="M251.111 451.543c-3.696 5.217-8.849 9.453-15.058 11.261-9.731 3.037-20.495-.611-27.663-7.468a52.5 52.5 0 0 0-7.199-6.128l6.227 91.687 55.693-12.902c.925-9.227 1.634-18.471 1.953-27.752.252-7.56.346-15.128-.021-22.681-.409-6.592-.733-13.194-.163-19.783-5.04-1.536-9.622-3.648-13.769-6.234"
  />
  <path
    fill="#C0167C"
    d="M213.78 330.191c.365-3.916 3.046-6.68 5.027-9.824 6.479-9.022 14.73-16.755 24.101-22.756a71 71 0 0 1 9.242-4.954c-2.004-1.876-3.931-3.663-5.83-5.811-1.045-1.009-.163-2.894 1.267-2.745 4.473.473 8.585 2.664 11.861 5.757a76 76 0 0 1 4.766-1.382 14 14 0 0 0-.993-2.406c-.27-.545-.69-1.21-.923-1.895-.755-3.58 4.192-2.11 5.788-.73 1.278.929 2.225 2.208 2.837 3.642 17.971-2.937 37.028.166 53.572 7.915l-2.373-56.664c-.012-.297.374-2.148.374-2.148l-137.133-20.033 9.322 137.258a214 214 0 0 1 8.92-10.985c2.029-2.258 3.848-4.671 6.821-6.144.94-.467 1.902-.319 2.638.166a93 93 0 0 1 2.12-3.857c-.869-.448-1.507-1.349-1.404-2.404"
  />
  <path
    fill="#C0167C"
    d="M477.527 428.205a124 124 0 0 1 6.245-2.12c7.803-2.391 15.57-3.902 23.327-4.548-1.333-.85-2.663-1.7-4.033-2.551-9.008-5.598-17.51-9.558-25.573-12.157.334 7.098.451 14.256.034 21.376"
  />
  <path
    fill="#FAD0E9"
    d="M447.237 489.194a318 318 0 0 1 7.136 13.647h47.865c2.33-13.965 9.209-28.797 16.772-35.742.041-.041.07-.092.113-.132 5.178-4.798 11.684-6.87 16.962-7.745a90 90 0 0 1 7.856-11.079c3.586-4.156 7.639-8.196 12.083-11.739-30.115-12.366-56.312-9.709-79.156-.7-.49 4.154-1.194 8.282-2.195 12.364-4.493 16.266-14.529 30.431-27.436 41.126"
  />
  <path
    fill="#FFB921"
    d="M700.135 265.215a36 36 0 0 0 4.757-.494l.577-21.476-.006-.029h-39.529c5.541 13.335 18.915 22.524 34.201 21.999"
  />
  <path
    fill="#FFB921"
    d="M688.173 195.517c-10.552 3.33-18.943 11.417-22.744 21.667l32.593-.01a166 166 0 0 0-9.849-21.657"
  />
  <path
    fill="#000"
    d="m634.793 205.552 13.978 5.89a3.4 3.4 0 0 0 4.453-1.813 3.4 3.4 0 0 0-1.812-4.454l-13.979-5.89a3.4 3.4 0 0 0-2.64 6.267"
  />
  <path
    fill="#000"
    d="M655.752 198.856a3.38 3.38 0 0 0 2.164.779 3.4 3.4 0 0 0 2.168-6.021l-7.381-6.099a3.4 3.4 0 0 0-4.332 5.242z"
  />
  <path
    fill="#000"
    d="M666.208 188.061a3.396 3.396 0 0 0 4.719.922 3.4 3.4 0 0 0 .921-4.72l-8.472-12.581a3.4 3.4 0 0 0-4.72-.921 3.4 3.4 0 0 0-.921 4.719z"
  />
  <path
    fill="#000"
    d="M691.217 294.235q.167.016.332.016a3.4 3.4 0 0 0 3.38-3.072l.88-9.076a3.4 3.4 0 0 0-3.055-3.713 3.394 3.394 0 0 0-3.712 3.056l-.881 9.076a3.4 3.4 0 0 0 3.056 3.713"
  />
  <path
    fill="#000"
    d="M666.713 293.915a3.4 3.4 0 0 0 4.514-1.654l6.382-13.76a3.4 3.4 0 0 0-6.168-2.861l-6.382 13.76a3.4 3.4 0 0 0 1.654 4.515"
  />
  <path
    fill="#000"
    d="M654.122 278.524a3.4 3.4 0 0 0 2.257.857c.937 0 1.872-.386 2.543-1.142l6.357-7.161a3.4 3.4 0 1 0-5.084-4.514l-6.357 7.16a3.4 3.4 0 0 0 .284 4.8"
  />
  <path
    fill="#000"
    d="M640.194 268.781c.614 0 1.236-.166 1.795-.514l12.874-8.021a3.4 3.4 0 0 0-3.596-5.772l-12.874 8.021a3.4 3.4 0 0 0 1.801 6.286"
  />
  <path
    fill="#C0167C"
    d="M644.139 120.562C616.802 103.229 585 93.289 551.692 91.674v11.883c30.071 1.679 58.679 10.746 83.336 26.069z"
  />
  <path
    fill="#C0167C"
    d="M551.657 553.68a71 71 0 0 1-7.68-6.388h-71.741a297 297 0 0 1 1.936 6.388z"
  />
  <path
    fill="#C0167C"
    d="M403.832 163.549a182 182 0 0 1 17.873-17.375l-8.705-8.66a192 192 0 0 0-17.257 16.612c-16.866 18.417-29.839 39.643-38.604 63.15l13.049-.004c8.091-19.773 19.342-37.777 33.644-53.723"
  />
  <path
    fill="#C0167C"
    d="m525.657 103.897-.009-11.836c-33.11 2.513-64.591 12.79-91.517 29.871l8.832 8.773c24.556-15.245 52.67-24.426 82.694-26.808"
  />
  <path fill="#C0167C" d="m357.95 303.822-.064.022.044-.007z" />
  <path
    fill="#C0167C"
    d="M361.949 243.216h-11.686l2.484 55.501c4.198-1.165 8.251-2.909 11.96-4.94z"
  />
  <path
    fill="#C0167C"
    d="M683.487 154.978a180 180 0 0 0-18.347-18.571l-8.886 8.827a167.4 167.4 0 0 1 18.035 18.112c13.532 15.867 23.879 33.905 30.948 53.826l12.997-.004c-.089-.281-.186-.558-.276-.839-7.568-22.625-19.121-43.352-34.471-61.351"
  />
  <path
    fill="#C0167C"
    d="M707.394 424.748q2.157.65 4.251 1.268c1.105-8.473 2.247-17.191 3.418-26.101a33 33 0 0 1-4.186-8.906c-3.746-12.451-.577-26.581 7.857-36.593l.685-8.691 4.39-102.509h-11.537z"
  />
  <path
    fill="#EE6DBB"
    d="M380.264 139.949c-25.232 27.551-42.975 61.621-51.329 98.555l2.508 59.876c4.667 1.787 9.625 2.212 14.557 1.659l-2.689-60.071a3.4 3.4 0 0 1 3.397-3.552h380.65a3.4 3.4 0 0 1 3.397 3.546l-4.545 106.114q-.002.061-.007.122l-.058.738c8.056-8.331 11.423-15.088 13.75-19.769l.559-1.118.08-1.659 4.453-86.051c-6.502-37.067-22.489-71.067-46.248-98.348-38.492-44.2-95.607-69.551-156.698-69.551-63.27 0-120.723 24.685-161.777 69.509m124.257 81.98a3.4 3.4 0 0 1-3.142 2.103l-149.073.045a3.4 3.4 0 0 1-3.213-4.511c9.055-26.193 23.064-49.755 41.635-70.033a199 199 0 0 1 20.312-19.243 3.4 3.4 0 0 1 4.556.216l88.179 87.716a3.4 3.4 0 0 1 .746 3.707m27.031 1.099a3.4 3.4 0 0 1-2.406.996h-.484a3.4 3.4 0 0 1-2.397-.988l-99.915-99.247a3.4 3.4 0 0 1 .511-5.241c29.643-19.75 64.908-31.34 101.985-33.517a3.4 3.4 0 0 1 2.532.919 3.4 3.4 0 0 1 1.068 2.472l.101 132.2c0 .902-.358 1.767-.995 2.406m156.487-73.719c17.582 20.189 30.38 43.846 38.04 70.312a3.4 3.4 0 0 1-.548 2.988 3.4 3.4 0 0 1-2.717 1.358l-147.264.043a3.4 3.4 0 0 1-2.398-5.812l89.563-88.967a3.4 3.4 0 0 1 4.573-.2 183 183 0 0 1 20.751 20.278m-35.135-29.634a3.4 3.4 0 0 1-.986 2.741L550.777 223.03a3.4 3.4 0 0 1-2.397.989c-1.878 0-3.489-1.522-3.489-3.4V88.136a3.4 3.4 0 0 1 3.505-3.398c37.284 1.15 72.905 12.368 103.01 32.439a3.4 3.4 0 0 1 1.498 2.498"
  />
  <path
    fill="#000"
    d="M415.596 130.506a3.4 3.4 0 0 0-4.556-.216 199 199 0 0 0-20.312 19.243c-18.571 20.278-32.58 43.84-41.635 70.033a3.4 3.4 0 0 0 3.213 4.511l149.073-.045a3.398 3.398 0 0 0 2.396-5.81zm-19.853 23.62A192 192 0 0 1 413 137.514l8.705 8.66a182 182 0 0 0-17.873 17.375c-14.302 15.946-25.553 33.949-33.644 53.723l-13.049.004c8.765-23.507 21.738-44.733 38.604-63.15m13.151 13.963a175 175 0 0 1 17.656-17.097l66.591 66.243-115.602.034c7.709-18.046 18.201-34.514 31.355-49.18"
  />
  <path
    fill="#000"
    d="m662.715 129.231-89.563 88.967a3.401 3.401 0 0 0 2.398 5.812l147.264-.044a3.4 3.4 0 0 0 2.717-1.357 3.4 3.4 0 0 0 .548-2.988c-7.66-26.467-20.458-50.123-38.04-70.312a183 183 0 0 0-20.751-20.278 3.4 3.4 0 0 0-4.573.2m55.519 87.937-12.997.004c-7.069-19.921-17.416-37.959-30.948-53.826a167.4 167.4 0 0 0-18.035-18.112l8.886-8.827a180 180 0 0 1 18.347 18.571c15.35 17.999 26.903 38.726 34.471 61.351.09.281.187.558.276.839m-49.119-49.41a162 162 0 0 1 15.624 21.731c-12.695 4.497-22.559 14.85-26.48 27.697l-74.46.022 67.616-67.167a160.5 160.5 0 0 1 17.7 17.717m19.058 27.759a166 166 0 0 1 9.849 21.657l-32.592.01c3.8-10.25 12.191-18.337 22.743-21.667"
  />
  <path
    fill="#000"
    d="M548.396 84.738a3.4 3.4 0 0 0-3.505 3.398V220.62c0 1.878 1.611 3.4 3.489 3.4.898 0 1.76-.356 2.397-.989l101.141-100.614a3.398 3.398 0 0 0-.512-5.24c-30.105-20.07-65.726-31.287-103.01-32.438m3.296 25.633c28.227 1.638 55.092 10.042 78.371 24.195l-78.371 77.962zm0-6.814V91.674c33.308 1.615 65.11 11.555 92.447 28.888l-9.111 9.064c-24.657-15.323-53.265-24.39-83.336-26.069"
  />
  <path
    fill="#000"
    d="M532.446 88.422a3.4 3.4 0 0 0-1.068-2.472 3.4 3.4 0 0 0-2.531-.92c-37.078 2.177-72.343 13.767-101.986 33.517a3.404 3.404 0 0 0-.511 5.242l99.915 99.247a3.4 3.4 0 0 0 2.397.988h.484a3.4 3.4 0 0 0 3.401-3.402zM525.74 212.93l-77.819-77.299c23.169-14.08 49.576-22.59 77.741-24.908zm-91.609-90.998c26.926-17.081 58.407-27.358 91.517-29.871l.01 11.836c-30.025 2.382-58.139 11.563-82.695 26.808z"
  />
  <path
    fill="#EE6DBB"
    d="M470.006 540.492h67.75a63 63 0 0 1-4.995-7.372 12.5 12.5 0 0 1-1.888 1.833c-2.09 1.616-4.545 2.424-7.348 2.424-3.641 0-7.869-1.363-12.653-4.087-6.211-3.536-9.488-10.798-9.478-20.998.001-.87.033-1.757.081-2.651h-43.852a316 316 0 0 1 12.383 30.851"
  />
  <path fill="#DB00F8" d="m844.054 748.426 4.559-13.889-15.536-4.731-4.559 13.889z" />
  <path
    fill="#FAD0E9"
    d="M758.586 835.723a14.9 14.9 0 0 0 5.373 3.801c32.596 7.579 62.611 15.915 88.862 23.958.65-.239 1.292-.508 1.913-.839a14.92 14.92 0 0 0 7.305-8.881c1.17-3.84.773-7.905-1.114-11.447a14.94 14.94 0 0 0-8.882-7.305l-38.982-11.87-26.725-8.138-12.257-3.733c-4.873-1.484-9.925-.352-13.659 2.577z"
  />
  <path
    fill="#EE6DBB"
    d="m788.316 808.496 53.45 16.277a14.93 14.93 0 0 0 11.447-1.115 14.93 14.93 0 0 0 7.304-8.882 14.92 14.92 0 0 0-1.114-11.446 14.93 14.93 0 0 0-8.882-7.305l-26.725-8.138-14.694-4.475-.009-.003-12.022-3.661a14.95 14.95 0 0 0-11.446 1.116 14.92 14.92 0 0 0-7.305 8.881 14.92 14.92 0 0 0 1.114 11.446 14.92 14.92 0 0 0 8.882 7.305"
  />
  <path
    fill="#C0167C"
    d="m811.083 776.907 29.388 8.949a14.92 14.92 0 0 0 11.445-1.115 14.92 14.92 0 0 0 7.305-8.881c1.17-3.84.774-7.905-1.115-11.447a14.93 14.93 0 0 0-8.882-7.305l-29.386-8.949a15 15 0 0 0-4.369-.652c-6.44 0-12.411 4.177-14.382 10.649-2.414 7.926 2.07 16.337 9.996 18.751"
  />
  <path
    fill="#EE6DBB"
    d="M581.04 784.938a34.2 34.2 0 0 0-8.245-1.009c-16.622 0-30.515 11.888-33.636 27.607.355 0 .71-.004 1.065-.004 13.029 0 26.041.344 38.992.983z"
  />
  <path
    fill="#C0167C"
    d="M538.179 895.427c-115.528 0-232.597-4.28-347.971-12.72-48.718 16.521-85.948 32.089-105.064 40.495h910.16c-19.498-8.575-57.844-24.601-108.005-41.489-116.009 9.099-233.464 13.714-349.12 13.714"
  />
  <path
    fill="#EE6DBB"
    d="M216.824 873.971c-3.278 1.04-6.506 2.08-9.702 3.119 109.887 7.652 221.169 11.538 331.057 11.538 110.076 0 221.782-4.195 332.316-12.456-2.272-.733-4.557-1.467-6.87-2.201-30.156-9.564-66.142-19.82-105.823-28.89l-.913 10.884c.004 1.371-.379 2.729-1.035 3.962 2.964.444 5.809 1.033 8.123 1.927 2.396.886 2.005 4.551-.585 4.834-6.071.788-14.817-.968-20.908-1.582-42.101-5.053-93.069-11.558-135.157-16.341-3.467-.377-6.93-.835-10.323-1.955a1.164 1.164 0 0 1-.747-1.468c.244-1.825 9.858-.836 11.483-.742 1.781.157 3.57.32 5.354.478-1.515-2.326-2.116-5.071-1.669-7.805.83-5.097 2.223-10.401 3.837-15.398-24.729-2.258-49.856-3.543-75.038-3.543-26.999 0-53.937 1.476-80.387 4.047.345 3.11.542 6.541.548 10.339a12.52 12.52 0 0 1-2.746 7.92c.721-.02 1.448-.051 2.168-.07 7.163-.039 14.342-1.105 21.588 1.894a1.201 1.201 0 0 1-.055 2.244c-6.928 2.874-14.038 2.363-21.27 2.833-7.114.334-14.233.754-21.351 1.189-34.878 2.183-72.013 4.544-106.84 7.116-6.194.333-15.263 1.636-21.449.714-2.533-.344-2.896-4.045-.391-4.799 3.249-1.04 7.451-1.567 11.611-1.943a9.6 9.6 0 0 1-1.226-4.223h-.001l.01.13-.02-.128c-38.798 8.942-74 18.992-103.589 28.376"
  />
  <path
    fill="#000"
    d="M1012.52 923.535c-.59-.28-59.511-28.34-146.723-56.009q-2.088-.662-4.211-1.328a21.7 21.7 0 0 0 6.959-10.456 21.68 21.68 0 0 0-1.621-16.626 21.64 21.64 0 0 0-10.272-9.601c5.018-2.757 8.7-7.271 10.371-12.758a21.7 21.7 0 0 0-1.619-16.626 21.65 21.65 0 0 0-10.084-9.512c5.036-2.754 8.731-7.278 10.406-12.778a21.7 21.7 0 0 0-1.619-16.627 21.7 21.7 0 0 0-12.902-10.611l-.644-.196 5.597-17.049a3.4 3.4 0 0 0-2.24-4.313l-22.043-6.713a3.4 3.4 0 0 0-4.221 2.192l-5.643 17.189-.193-.058c-11.511-3.507-23.73 3.008-27.237 14.52-1.729 5.676-1.018 11.521 1.523 16.412a21.65 21.65 0 0 0-13.679 2.276 21.68 21.68 0 0 0-10.611 12.901c-1.669 5.482-1.13 11.276 1.493 16.358a21.73 21.73 0 0 0-12.195 1.472c.29-3.46 3.155-38.605 4.636-56.928 5.324-1.604 10.476-3.935 15.159-6.991 6.634-4.232 11.974-9.842 17.24-15.34 31.041-31.099 28.918-76.527 25.218-116.945-1.87-21.788-3.98-43.562-3.579-65.372l44.277 10.045q.37.084.752.084h15.445a3.4 3.4 0 0 0 3.39-3.151l1.266-17.236c38.895-6.277 76.58-15.182 87.601-27.007 8.817-9.459 18.868-30.586 13.983-44.044-2.05-5.644-5.566-9.441-10.45-11.286-8.293-3.134-20.071-.422-35.997 8.277-2.657 1.327-19.587 3.506-38.127 5.662 4.769-4.671 8.674-10.047 11.448-15.948 5.809-12.361 15.556-17.909 22.007-21.581 4.615-2.628 7.95-4.526 8.44-8.038.275-1.979-.507-3.923-2.327-5.776-15.423-15.708-31.926-27.603-45.152-35.832l11.427-155.6a3.4 3.4 0 0 0-2.515-3.535l-16.953-4.515a7 7 0 0 0-.684-.1 7 7 0 0 0-.683.022l-135.775 19.834c-7.026-37.171-23.336-71.261-47.292-98.768-39.785-45.684-98.769-71.885-161.826-71.885-65.199 0-124.434 25.47-166.79 71.717-24.325 26.559-41.897 58.985-51.125 94.199L182.177 208.82c-.104-.015-.206-.005-.31-.01-.124-.007-.246-.019-.37-.012-.134.007-.264.034-.395.058-.097.017-.196.017-.292.042l-16.954 4.515a3.4 3.4 0 0 0-2.515 3.535l12.451 169.532c-6.034 11.756-10.95 24.084-14.344 36.859-4.291 12.759 9.355 13.588 18.211 15.79l7.802 106.229a3.4 3.4 0 0 0 3.39 3.151h15.445q.381 0 .752-.084l57.272-12.994c-2.079 18.575-4.87 37.098-7.024 55.722-3.45 30.569-5.101 63.095 7.73 92.058a130 130 0 0 0 1.716 3.602 24.4 24.4 0 0 0-5.372 5.424c-3.423 4.442-5.608 10.465-4.413 16.157.807 5.147 3.805 9.968 8.085 12.942-2.092 1.54-5.736 3.483-10.077 4.855-5.112 1.616-7.663 6.106-6.503 11.439 1.092 5.017 5.469 9.973 10.476 9.973q.46 0 .925-.056c23.957-2.948 32.334-21.408 34.436-27.383a84 84 0 0 0 9.507 5.66c4.678 30.689 12.703 82.229 17.547 113.039-39.231 9.025-74.815 19.181-104.701 28.663-87.213 27.669-146.136 55.729-146.72 56.009a3.401 3.401 0 0 0 1.468 6.467h941.65a3.39 3.39 0 0 0 3.31-2.647 3.39 3.39 0 0 0-1.84-3.82m-927.376-.333c19.116-8.406 56.346-23.974 105.064-40.495 115.374 8.44 232.443 12.72 347.971 12.72 115.656 0 233.111-4.615 349.12-13.714 50.161 16.888 88.507 32.915 108.005 41.489zm167.962-187.019c-.521-2.395.673-3.117 1.909-3.508 2.046-.647 10.97-3.683 14.855-8.479 4.592.962 9.508.131 13.868-1.259-3.456 6.487-11.087 15.939-26.705 17.861-1.069.135-3.341-1.921-3.927-4.615m25.28-46.068c3.555 1.047 7.013 2.868 9.462 5.633-1.72.964-3.53 1.78-5.39 2.456a3 3 0 0 0-.838-.665c-4.141-2.47-11.774.803-11.166 6.032.218 1.671 1.913 3.076 3.42 3.24 1.647.215 2.424-.076 3.669-.34a46 46 0 0 0 3.736-1.02c4.529-1.412 8.806-3.607 12.542-6.559.378-.208 1.068-.864 1.116-.905 2.634-2.42 5.477-4.91 6.203-8.628.34-1.564-1.533-2.884-2.895-2.007l-.553.331c-1.571 1.149-2.87 2.678-4.293 4.057q-.621-.754-1.308-1.447c-2.783-2.81-6.299-4.897-9.945-6.228-3.877-1.6-7.846-1.525-11.506-.327a122 122 0 0 1-1.497-3.219c-12.174-27.705-10.342-59-7.061-88.598 3.511-30.367 8.74-60.724 9.782-91.436.301-7.712.24-15.441.085-23.175-.027-2.09-.236-4.173-.271-6.261-.023-1.405.176-2.631.338-3.698 1.196-7.844 4.549-7.26 4.549-7.26 2.321.134 4.648-.02 6.938-.711a1.65 1.65 0 0 0 1.03-.9c.394-.863-.043-1.879-.923-2.214a25 25 0 0 0-1.673-.627c-3.771-1.268-7.718-1.674-11.542-2.737-4.305-1.155-11.969-4.926-11.969-4.926s1.64-10.512.602-23.23a92 92 0 0 0-.602-5.421s-1.488-9.182-2.753-13.973c-1.593-5.898-3.723-11.627-6.226-17.183-1.268-2.758-2.584-5.492-4.02-8.157-1.431-2.712-2.831-5.411-5.273-7.409-.691-.609-1.621-.533-2.288-.078-.597.407-.985 1.118-.794 1.926.546 3.094 2.13 5.535 3.461 8.137 1.367 2.579 2.608 5.216 3.804 7.867 6.705 15.372 11.365 33.46 5.828 49.789-2.672 7.63-8.113 14.313-15.875 16.604-8.456 2.552-17.19-1.413-23.11-7.73-8.359-8.203-19.489-13.501-30.718-16.164-4.261-1.117-8.596-1.784-12.598-3.173-1.157-.414-2.101-.996-2.319-1.321-.316-.445-.227-.754-.13-1.454 1.066-4.155 2.286-8.336 3.68-12.394 7.553-22.136 19.472-42.692 34.015-60.98a193 193 0 0 1 5.615-6.732c1.818-2.123 3.875-4.065 5.116-6.605.056-.114.12-.223.173-.34.714-1.354.126-2.794-.95-3.503-.736-.485-1.698-.633-2.638-.166-2.973 1.473-4.792 3.886-6.821 6.144a214 214 0 0 0-8.92 10.985l-9.322-137.258 137.133 20.033s-.4 1.492-.374 2.148l2.373 56.664c-16.544-7.749-35.601-10.852-53.572-7.915-.612-1.434-1.56-2.713-2.837-3.642-1.596-1.38-6.543-2.85-5.788.73.233.685.653 1.35.923 1.895.419.798.742 1.597.993 2.406a76 76 0 0 0-4.766 1.382c-3.276-3.093-7.388-5.284-11.861-5.757-1.431-.149-2.312 1.736-1.267 2.745 1.899 2.148 3.826 3.935 5.83 5.811a71 71 0 0 0-9.242 4.954c-9.371 6.001-17.622 13.734-24.101 22.756-1.981 3.144-4.662 5.908-5.027 9.824-.103 1.055.535 1.956 1.404 2.404.767.395 1.714.437 2.494-.098 1.702-1.046 2.69-2.51 3.628-3.99 2.866-4.301 5.896-8.514 9.285-12.409 7.093-8.377 16.282-14.886 26.462-18.937 1.049.933 2.088 1.816 2.996 2.47 2.27 1.938 5.634-.542 4.349-3.289a25 25 0 0 0-.809-1.397c.563-.159 1.123-.333 1.696-.464l.01.003c.551.603 2.091 2.341 2.295 2.413a1.877 1.877 0 0 0 2.59-.579 8.9 8.9 0 0 0 1.32-3.119c18.064-2.974 37.291.551 53.365 9.079 3.396 1.912 7.21 3.296 11.069 3.888 7.441 1.144 14.914.089 21.952-2.322l.064-.022-.02.015-12.268 9.957c-1.971 1.412-2.592 3.998-1.576 6.654 2.205 5.78 17.417 35.291 23.714 43.494 5.527 7.203 9.748 10.37 13.739 11.357q.497.122.99.203c-.378.28-.748.572-1.129.847-12.168 8.782-26.285 14.793-41.103 17.443-17.358 3.177-42.616 2.508-57.877-6.933-2.259-1.681-5.709.215-5.797 2.965-.095 1.167.353 2.277.784 3.237.673 1.576 1.362 3.179 2.118 4.72 1.728 3.765 3.692 7.213 5.853 10.228l-.015.009.173.218a43 43 0 0 0 3.006 3.703l.196.215c1.395 1.512 2.852 2.854 4.368 3.986 3.228 2.466 7.67 4.89 12.667 4.89q.672 0 1.358-.061c10.379-.925 18.094-12.154 18.418-12.631 0 0 4.153-6.076 4.475-6.52 17.633-1.346 34.936-6.884 49.875-16.273-.406 4.283-.944 8.623-1.753 12.813-.108.555-.214 1.112-.331 1.662-.868 4.024-1.929 7.993-3.894 11.492-.235.417-.475.831-.737 1.234-.816 1.113-3.509 5.215-1.126 6.15.15.058.314.119.507.139 3.039.313 5.105-2.22 6.683-4.698 7.355 6.344 14.419 13.19 21.151 20.459-4.862 3.311-10.253 5.852-15.925 7.431a61 61 0 0 1-7.353 1.59 67 67 0 0 1-4.747.584c-4.239.324-8.325.274-12.531 1.464-1.679.417-1.833 2.813-.268 3.495.245.108.495.188.743.283 4.035 1.551 8.332 1.539 12.578 1.189 15.901-1.059 31.408-8.031 42.189-19.899 4.847-5.319 7.174-12.636 8.179-19.44 1.659-11.271.471-21.98.072-32.903-.171-4.076-.06-7.234 2.103-10.607 2.167-3.595 5.053-7.917 9.038-9.264 3.584-.918 6.417 8.143 7.58 10.968.698 1.724 1.06 3.464 2.282 5.157.945 1.307 3.367 2.069 5.074.836 1.017-.774 1.051-1.011 1.527-1.853 2.19-5.28 3.665-11.325 5.368-16.788 1.838-3.192 9.346-.494 11.697 1.381 1.843 1.349 2.78 2.574 3.176 4.374 2.641 11.851-1.134 23.795-1.338 35.901a63 63 0 0 0 .135 6.845c.641 14.529.944 29.507-3.327 43.47-9.139 28.505-35.364 46.828-63.249 54.736a139 139 0 0 1-12.261 3.008c-4.205.853-8.4 1.166-12.262 3.342a2.3 2.3 0 0 0-.366.237 1.94 1.94 0 0 0-.658.923c-.983 3.537 5.871 3.324 8.037 3.223q2.715-.365 5.412-.839c2.669-.468 36.519-6.134 53.482-16.01 20.267 38.217 32.49 80.728 33.326 121.788.037 18.5-2.898 37.324-11.852 53.689-5.018 9.834-10.082 19.817-17.947 27.648-3.187 3.246-6.762 6.103-10.479 8.738-2.394 1.666-4.808 3.307-6.014 6.153-.428 1.144.349 2.436 1.562 2.588 1.224.167 2.184-.127 3.133-.44 2.001-.55 3.714-1.639 5.375-2.824l-3.539 72.38a11.8 11.8 0 0 0 1.691 6.971c.715 1.175 1.629 2.283 2.687 3.567 4.309 5.224 10.82 13.119 10.856 34.841.007 4.119-3.844 6.21-6.507 6.638l-60.458 4.138a3 3 0 0 0-.255.027c-1.194.172-2.374-.179-3.322-.992-1.061-.909-1.678-2.269-1.693-3.733a3 3 0 0 0-.022-.36l-11.743-100.632c4.315-.902 8.677-2.108 13.029-3.712a1.58 1.58 0 0 0 1.127-1.44 1.58 1.58 0 0 0-1.551-1.646c-6.514-.14-16.125.268-22.691.38-21.257.367-43.414-3.415-61.459-15.065 2.368-1.46 4.628-3.1 6.67-4.99 2.922-2.771 5.989-5.894 6.619-10.075.224-1.185-1.004-2.253-2.15-1.847l-.45.147a5 5 0 0 0-2.156 1.394c-.967 1.067-2.501 2.733-3.389 3.565-.205.195-.423.373-.632.564-4.771 4.351-10.565 7.398-16.625 9.837-1.813.642-4.559 1.749-6.39 2.139-8.252 2.28-16.198-1-17.677-9.85-1.703-8.148 8.048-19.389 16.526-17.101M265.043 477.56c.367 7.553.273 15.121.021 22.681-.319 9.281-1.028 18.526-1.953 27.752l-55.693 12.902-6.227-91.687a52.5 52.5 0 0 1 7.199 6.128c7.168 6.857 17.932 10.505 27.663 7.468 6.209-1.808 11.362-6.044 15.058-11.261 4.147 2.586 8.729 4.698 13.769 6.234-.57 6.589-.246 13.191.163 19.783m-70.96-32.639 6.573 96.788h-8.646l-7.393-100.67a64 64 0 0 1 9.466 3.882m-15.511-228.39 9.883 145.509c-.45.652-.915 1.294-1.359 1.95a230 230 0 0 0-7.288 11.572l-11.479-156.303zm520.166-76.54c23.759 27.281 39.747 61.281 46.249 98.348l-4.453 86.051-.08 1.659-.559 1.118c-2.327 4.681-5.694 11.438-13.75 19.769l.058-.738q.005-.061.007-.122l4.545-106.114a3.4 3.4 0 0 0-3.397-3.546h-380.65a3.4 3.4 0 0 0-3.397 3.552L346 300.039c-4.932.553-9.89.128-14.557-1.659l-2.508-59.876c8.354-36.934 26.097-71.004 51.329-98.555 41.054-44.824 98.507-69.51 161.777-69.51 61.091 0 118.205 25.351 156.697 69.552M936.791 418.94c-.921.79-3.026 1.988-4.775 2.983-6.758 3.848-18.071 10.288-24.797 24.598-5.918 12.592-17.703 22.567-32.332 27.369-7.862 2.581-15.73 3.334-22.109 2.276 11.11-8.479 18.771-21.096 21.72-35.841 1.179-5.425 1.81-10.996 1.989-16.523l.066-1.656c.165-2.839-.871-5.523-2.057-8.161-.56-1.294-2.591-1.185-3.018.163-1.268 3.203-1.927 6.152-1.787 9.434l-.133 3.099c-.286 4.118-.819 8.204-1.679 12.203-4.068 20.531-18.597 36.796-39.166 41.487-4.043 1.004-8.218 1.256-12.094 2.98a1.68 1.68 0 0 0-.958 1.011c-.124.401-.108.749.01 1.055.398 1.035 2.03 1.551 3.948 1.768 2.716.308 5.995.02 7.12-.238a57.3 57.3 0 0 0 13.373-3.567c2.042.226 18.28.064 18.597.064 5.755 0 12.008-1.029 18.299-3.093a66 66 0 0 0 14.815-6.991c32.033-3.632 47.855-5.706 51.477-7.685 13.703-7.486 24.194-10.215 30.347-7.892 2.986 1.129 5.1 3.499 6.46 7.246 3.708 10.213-5.106 29.086-12.564 37.088-13.484 14.468-78.558 25.224-131.194 31.414-12.556.538-15.497-5.345-15.644-6.753-.83-7.989 1.997-15.942 1.363-24.002a1.572 1.572 0 0 0-2.965-.587c-1.435 2.787-2.397 5.7-3.16 8.651a70 70 0 0 0-1.251 6.607 109 109 0 0 0-.722 6.635c-.373 4.62-.537 9.265-.822 13.868-.969 24.086 1.37 48.126 3.416 72.015 1.875 23.418 3.905 47.401-1.204 70.385-3.424 15.568-10.909 30.018-21.898 41.512-4.912 5.246-10.093 10.786-15.978 14.591-7.065 4.776-15.352 7.447-23.772 8.716-2.644.495-5.304 1.015-8.02 1.867-.189.059-.376.107-.565.17a1.62 1.62 0 0 0-1.083 1.135 1.5 1.5 0 0 0-.039.248 1.62 1.62 0 0 0 1.195 1.731c1.98.516 4.044.258 5.971.776 1.022.275 5.57 3.559 6.297 12.417-2.765 31.541-6.087 70.275-8.087 92.867-.271.64-.85 1.103-1.594 1.252-.27.06-34.951-3.981-48.996-5.614.283-3.728.76-7.642 1.621-11.26.922-3.935 2.53-7.175 4.135-10.9.331-.668.394-1.448.005-2.15-2.376-3.584-6.98 2.371-8.274 4.455-3.192 5.87-4.547 12.437-4.397 19.055-1.61-.185-3.129-.359-4.525-.517-3.388-.33-8.404-1.421-7.765-5.707.235-2.107.49-4.36.892-6.438 1.303-7.308 3.608-14.473 6.86-21.146 1.265-2.813 3.56-5.443 3.192-8.897.145-13.815.364-43.57.502-59.321 1.613.104 8.713.493 17.814-.024.301-.017 3.683-.106 5.388-.306.914-.097 1.369-.866 1.343-1.617-.021-.608-.349-1.204-1.054-1.422-4.824-1.533-9.784-2.117-14.665-3.11a259 259 0 0 1-8.755-1.892 204 204 0 0 1-9.289-2.399c-6.428-1.733-12.784-4.117-18.868-6.791-1.759-.619-3.3-1.415-5.164-1.886-.638-.215-1.353-.128-1.886.361a1.814 1.814 0 0 0-.116 2.563 24.5 24.5 0 0 0 6.258 4.882c.765.397 14.268 8.086 22.399 10.523-.041 3.069-.082 6.487-.116 8.04-.163 11.152-.586 41.098-.755 52.604.028.983.011.836-.607 1.978-5.629 10.012-9.124 21.18-10.442 32.577-.365 1.969-.264 3.792.198 5.443l-38.009-3.965c.294-3.322.751-6.742 1.51-9.934.922-3.935 2.53-7.175 4.135-10.9.331-.668.394-1.448.005-2.15-2.376-3.584-6.98 2.371-8.273 4.455-2.991 5.497-4.377 11.606-4.419 17.795l-5.761-.601a4.6 4.6 0 0 1-2.988-1.84 4.26 4.26 0 0 1-.785-3.21c2.279-13.984 9.231-30.034 12.32-34.716a11.2 11.2 0 0 0 1.835-6.844l-4.442-76.704c1.275.965 2.563 1.913 3.871 2.829 2.91 2.009 6.02 3.708 9.532 4.696a1.65 1.65 0 0 0 1.455-.295c.721-.571.817-1.64.217-2.333-1.135-1.422-2.427-2.582-3.716-3.732-3.884-3.312-8.187-6.102-11.997-9.463-5.096-4.401-9.708-9.262-13.56-14.715-21.104-29.203-20.422-63.269-10.812-96.737a227 227 0 0 1 4.931-14.794c.573-.323 2.718-.305 2.963 5.012.117 2.563-.75 5.096-1.04 7.729-.138 1.403-.321 3.334.053 5.087.19.792.559 1.639 1.122 2.261.61.709 1.471 1.14 2.326 1.439 4.804 1.527 9.479 2.329 14.332 3.279 9.063 1.528 17.978 3.234 27.277 2.914a18 18 0 0 0 2.044-.26c.355-.091.853-.136 1.197-.299 1.658-.37 3.392-2.12 3.824-3.436 1.319-3.338.803-6.667.466-9.976-.597-4.601-1.536-8.956-2.195-13.219-.336-2.418-.72-4.627-.421-6.648.019-.146.024-.079.046-.2l.242-.599c1.908-6.21 1.42-12.834.218-19.039-1.931-9.318-6.956-18.005-14.192-24.19-2.624-2.244-5.485-4.165-8.479-5.798 12.483-17.497 27.232-33.384 43.713-47.054 10.201-8.326 21.071-15.525 31.872-23.31.433-.313 1.349-.986 1.376-1.009a1.52 1.52 0 0 0 .488-1.61 1.527 1.527 0 0 0-1.909-1.013c-6.782 2.135-12.965 5.643-19.04 9.256a218 218 0 0 0-13.919 10.03 99 99 0 0 0-.041-1.94c-.534-10.187-3.526-20.055-7.597-29.349 24.517-5.403 46.15-.577 46.464-.504a3.4 3.4 0 0 0 1.946-.125c.355.677.737 1.384 1.097 1.86.793.995 1.934 2.056 3.404 2.386a1.927 1.927 0 0 0 2.153-1.673c.409-2.789-.977-4.482-1.85-6.451-2.683-5.691-4.387-11.874-4.862-18.129-1.792-21.292 10.947-41.751 28.575-53.037 1.55-.996 3.903-2.379 5.519-3.176 1.894-1.253 3.481-2.733 5.023-4.493a1.674 1.674 0 0 0-1.151-2.795c-2.441-.088-4.839.288-7.087 1.175-1.754.947-4.301 2.541-6.011 3.592-11.842 7.583-21.267 18.564-26.67 30.995a27.4 27.4 0 0 1-1.657-4.192c-3.418-11.357.397-24.981 9.276-33.13 12.009-11.022 16.409-19.87 19.32-25.724 2.859-5.751 3.023-5.713 5.777-5.088 17.051 3.879 27.796 8.49 34.394 12.274-1.49.358-2.956.835-4.31 1.951-1.59 1.217-.857 3.992 1.146 4.251 2.249.448 4.377-.304 6.519-.687 2.069-.411 4.162-.723 6.258-.991 25.081-3.312 51.354 4.019 67.47 24.294 1.377 1.562 2.531 3.312 3.766 4.996 1.389 2.039 2.607 4.298 5.411 4.809a2.37 2.37 0 0 0 2.572-2.07c12.39 6.353 38.574 21.341 61.655 44.849q.082.084.149.157M835.58 540.484c8.464-.974 17.5-2.095 26.753-3.364l-.64 9.414zm32.874 6.863.761-11.195q4.39-.631 8.804-1.307l-.919 12.502zM778.32 789.745a14.92 14.92 0 0 1 7.305-8.881 14.95 14.95 0 0 1 11.446-1.116l12.022 3.661.009.003 14.694 4.475 26.725 8.138a14.93 14.93 0 0 1 8.882 7.305 14.92 14.92 0 0 1 1.114 11.446 14.93 14.93 0 0 1-7.304 8.882 14.93 14.93 0 0 1-11.447 1.115l-53.45-16.277a14.92 14.92 0 0 1-8.882-7.305 14.92 14.92 0 0 1-1.114-11.446m22.767-31.589c1.97-6.472 7.942-10.649 14.381-10.649a15 15 0 0 1 4.37.652l29.386 8.949a14.93 14.93 0 0 1 8.882 7.305 14.92 14.92 0 0 1 1.114 11.447 14.92 14.92 0 0 1-7.304 8.881 14.93 14.93 0 0 1-11.446 1.115l-29.387-8.949c-7.926-2.414-12.41-10.825-9.996-18.751m47.526-23.619-4.559 13.889-15.536-4.731 4.559-13.889zm-74.534 76.732 12.256 3.732 26.726 8.138 38.982 11.871a14.93 14.93 0 0 1 8.881 7.305 14.93 14.93 0 0 1 1.115 11.446 14.92 14.92 0 0 1-7.305 8.882c-.621.331-1.263.6-1.913.839-26.251-8.044-56.266-16.379-88.862-23.958a14.9 14.9 0 0 1-5.373-3.802l1.834-21.877c3.734-2.928 8.786-4.06 13.659-2.576m-453.656 34.324a9.6 9.6 0 0 0 1.226 4.223c-4.16.376-8.362.903-11.611 1.943-2.505.754-2.142 4.455.391 4.799 6.186.922 15.255-.381 21.449-.714 34.827-2.572 71.962-4.933 106.84-7.116 7.118-.435 14.237-.855 21.351-1.189 7.231-.47 14.342.041 21.27-2.833a1.201 1.201 0 0 0 .055-2.244c-7.246-2.999-14.425-1.933-21.588-1.894-.72.019-1.447.05-2.168.07a12.52 12.52 0 0 0 2.746-7.92c-.006-3.798-.203-7.229-.548-10.339 26.45-2.571 53.388-4.047 80.387-4.047 25.181 0 50.309 1.285 75.038 3.543-1.614 4.997-3.007 10.301-3.838 15.398-.446 2.734.155 5.479 1.67 7.805-1.784-.158-3.573-.321-5.354-.478-1.625-.094-11.239-1.083-11.483.742a1.164 1.164 0 0 0 .747 1.468c3.393 1.12 6.856 1.578 10.323 1.955 42.088 4.783 93.056 11.288 135.157 16.341 6.091.614 14.837 2.37 20.908 1.582 2.59-.283 2.981-3.948.585-4.834-2.314-.894-5.159-1.483-8.123-1.927.655-1.233 1.039-2.591 1.035-3.962l.912-10.884c39.682 9.07 75.667 19.326 105.824 28.89 2.313.734 4.598 1.468 6.87 2.201-110.534 8.261-222.24 12.456-332.316 12.456-109.888 0-221.17-3.886-331.057-11.538 3.196-1.039 6.424-2.079 9.702-3.119 29.589-9.384 64.791-19.434 103.589-28.376l.02.128zm563.325-623.797-9.781 144.013a105 105 0 0 0-3.5-1.61c-14.541-20.005-37.293-30.059-62.068-29.55-4.204.051-8.391.358-12.544.922-6.219-4.782-18.658-11.651-42.586-17.095-2.278-.518-4.098-.492-5.615-.083l4-77.3zm-406.88 213.908c22.844-9.009 49.041-11.666 79.156.7-4.444 3.543-8.497 7.583-12.083 11.739a90 90 0 0 0-7.856 11.079c-5.278.875-11.784 2.947-16.962 7.746-.043.039-.072.091-.113.131-7.563 6.945-14.442 21.778-16.772 35.742h-47.865a317 317 0 0 0-7.136-13.646c12.907-10.696 22.943-24.861 27.436-41.127 1.001-4.082 1.705-8.21 2.195-12.364m1.499-74.871c-.806-3.618-3.462-6.664-6.066-8.439-2.875-2.111-7.007-3.729-11.026-4.059-.968-1.09-2.259-2.131-3.976-2.993l-4.241-42.448c15.466.48 19.847 6.639 25.225 19.001a3.4 3.4 0 0 0 6.468-.774l.201-1.155q3.939-22.7 20.376-29.379a3.402 3.402 0 0 0-.883-6.527c-18.71-2.2-19.861-5.268-24.144-16.682-.942-2.511-2.009-5.357-3.411-8.601a3.39 3.39 0 0 0-3.567-2.023 3.4 3.4 0 0 0-2.918 2.881c-2.119 14.593-3.786 19.674-18.92 27.518l-1.416-14.17c-.235-2.356-1.364-4.445-3.179-5.883a8.1 8.1 0 0 0-6.138-1.697l-9.865 1.304c-3.68.487-6.553 3.4-7.261 6.977-3.107 3.902-5.336 8.948-5.007 12.239l6.774 61.131a76 76 0 0 0-5.543 2.149c-5.532 2.423-15.073 7.484-16.805 14.151-.9 3.462-.594 8.769-.206 15.488.679 11.764 3.527 28.769-4.209 37.323-1.442 1.594-3.46 2.55-5.155 3.87a201 201 0 0 0-4.649-4.057 168 168 0 0 0-7.358-5.669c4.184-9.109 5.523-19.18 5.619-29.145-.006-.186 6.687-5.967 9.791-9.026 4.279-2.884 9.072-9.359 4.803-23.482-1.672-5.532-7.981-16.698-14.357-27.221-1.721-3.704-3.604-7.333-5.69-10.848a121.6 121.6 0 0 0-9.972-14.157l-2.903-53.214h289.908c5.726 16.824 21.689 28.82 40.214 28.82a42 42 0 0 0 5.826-.397l-2.743 102.073a27 27 0 0 0-.536-1.67c-3.462-9.567-3.34-15.738-3.26-19.822.086-4.398.174-8.945-6.19-10.62-16.132-4.245-26.054-4.105-31.633-3.185-16.355-11.907-36.821-15.477-55.132-6.313-3.515-.223-30.341-1.546-59.37 7.865-2.031.659-3.355 1.815-3.933 3.438-.996 2.792.636 5.326 2.701 8.533 2.797 4.342 6.593 10.26 6.407 19.002-3.692-6.454-10.662-14.011-17.337-15.865-3.789-1.052-7.317-.219-9.939 2.348-7.523 7.364-13.69 22.807-10.682 32.452 2.493 7.991 13.495 19.827 33.428 35.901-9.168-2.731-18.291-4.242-27.411-4.542a427 427 0 0 0-12.421-8.023c-10.363-6.44-20.129-10.842-29.364-13.577.005-.231.005-.469.01-.695.326-12.504 4.272-25.542 1.065-38.106m-31.289 1.757c-1.233-2.913-2.724-5.712-4.982-8.116-1.376-1.345-2.791-2.198-4.214-2.658l-7.616-76.215c-.104-1.045.588-2.03 1.512-2.153 0 0 9.99-1.316 10.05-1.316.377 0 .66.156.841.299.358.284.584.72.634 1.228l7.809 78.146c-.733.871-1.342 1.918-1.786 3.17-.762 2.496-1.488 5.063-2.248 7.615m-27.849 1.914c-4.057 6.237-2.949 13.966-2.593 20.858.527 8.581.989 17.046-.16 25.129-.882 5.889-2.538 11.54-6.414 15.93a54 54 0 0 1-5.011 4.83 228 228 0 0 0-5.426-5.463c.39-.381.777-.763 1.148-1.157 10.855-11.518 9.698-31.552 8.855-46.181-.326-5.635-.632-10.959-.001-13.386.578-2.224 4.806-6.065 12.952-9.633a70 70 0 0 1 3.583-1.437l.158 1.43c-2.984 2.613-5.498 6.074-7.091 9.08m-46.035-4.702c-5.637-7.343-19.984-35.099-22.559-41.287l17.751-14.405a820 820 0 0 1 8.237 12.925c-3.432 2.307-1.134 6.302.716 9.514 5.396 9.377 7.257 11.24 9.172 11.688.278.065.54.092.787.092.763 0 1.357-.262 1.733-.477 3.007 5.412 5.313 10.036 6.141 12.772 1.759 5.819 2.682 13.326-2.782 16.293-.795.239-1.552.485-2.281.721-6.175 2.003-8.729 2.83-16.915-7.836m79.015-65.405c14.1-6.985 19.611-12.256 22.605-22.323 3.502 8.99 6.594 13.945 17.844 16.828-8.051 4.459-10.408 9.164-12.798 21.097-5.706-9.241-13.013-13.613-27.479-13.877zm271.6-51.181-4.39 102.509-.685 8.691c-8.434 10.012-11.603 24.142-7.857 36.593a33 33 0 0 0 4.186 8.906c-1.171 8.91-2.313 17.628-3.418 26.101a808 808 0 0 1-4.251-1.268l4.878-181.532zM528.234 476.144c-.033.008-.066.007-.1.016a3.4 3.4 0 0 0-2.399 4.167c4.305 16.005 8.378 43.528.979 49.246-3.026 2.338-8.455.098-12.477-2.192-5.005-2.85-6.049-9.774-6.043-15.082.018-16.882 9.877-37.479 17.636-41.876.335-.189 4.221-2.544 5.944-3.147a84 84 0 0 0-3.54 8.868m172.414-53.454a2684 2684 0 0 1-15.303-4.786c-2.484-.783-4.907-1.546-7.261-2.285a50 50 0 0 0 5.109-7.759c4.522-.922 8.644-3.156 12.044-6.639 2.851-2.92 4.957-6.489 6.266-10.343zm4.821-179.445-.577 21.476a36 36 0 0 1-4.757.494c-15.286.524-28.66-8.664-34.201-21.999h39.529zM503.066 418.987c1.37.851 2.7 1.7 4.033 2.55-7.757.646-15.524 2.157-23.327 4.548a124 124 0 0 0-6.245 2.12c.417-7.12.3-14.278-.034-21.376 8.063 2.599 16.565 6.559 25.573 12.158m-1.591 90.654a51 51 0 0 0-.081 2.651c-.01 10.2 3.267 17.462 9.478 20.998 4.784 2.724 9.012 4.087 12.653 4.087 2.803 0 5.258-.808 7.348-2.424a12.5 12.5 0 0 0 1.888-1.833 63 63 0 0 0 4.995 7.372h-67.75a316 316 0 0 0-12.383-30.851zm42.502 37.651a71 71 0 0 0 7.68 6.388h-77.485a303 303 0 0 0-1.936-6.388zm18.426 13.188c4.631 2.417 9.449 4.125 11.989 2.614q.155-.167.267-.335c.618-.91.324-1.808-.463-2.66-2.104-2.274-7.754-4.225-9.233-5.234-3.194-1.728-6.223-3.744-9.098-5.995-8.015-6.289-15.196-14.03-19.479-23.352 1.452-5.73 1.576-13.53.38-23.535-.892-7.475-2.329-14.439-3.331-18.802 2.906-11.211 8.426-21.838 15.778-30.621 4.666-5.603 10.142-10.527 16.226-14.476 6.028-3.963 12.624-6.591 18.908-10.114.16-.089.321-.172.479-.263a1.588 1.588 0 0 0-.692-2.942c-2.044-.171-4.044.066-5.986.504-5.149 1.108-10.028 3.183-14.586 5.888.098-.17-41.135-34.092-44.01-43.307-1.82-5.833 1.765-18.539 8.946-25.568.626-.612 1.513-1.169 3.363-.655 5.822 1.617 13.69 11.587 14.955 16.456.411 1.579 2.014 3.469 6.073 6.555 1.531 4.337 3.963 8.267 7.266 11.656 2.542 2.608 5.548 4.807 8.788 6.519 5.993 5.27 14.576 7.344 16.211 7.701a38.3 38.3 0 0 0 6.867 4.991c1.497.602 3.435 1.416 5.16.828a1.774 1.774 0 0 0 .743-2.398c-1.363-2.677-3.631-3.915-5.77-5.669-1.908-1.663-3.748-3.376-5.222-5.319-6.581-7.869-6.594-18.334-3.263-27.757 1.732-5.08 4.983-9.506 5.074-15.087a1.72 1.72 0 0 0-.263-1.016c-1.856-2.717-5.822 2.592-6.967 4.103-1.958 3.017-2.96 6.473-4.277 9.817-1.809 5.475-2.96 11.396-2.448 17.491.209 2.89.907 5.655 1.974 8.262-4.36-1.425-8.551-3.943-11.737-7.212-5.046-5.177-7.542-11.999-7.22-19.729.468-11.228-4.505-18.95-7.477-23.563a64 64 0 0 1-1.347-2.153c20.988-6.62 41.043-7.421 50.474-7.362a2.82 2.82 0 0 0 1.953 1.666c1.927.633 2.993-.129 4.463-.911 1.27-.615 2.511-1.296 3.825-1.791 5.137-2.21 10.647-3.36 16.208-3.595 8.472-.209 16.722 1.949 24.377 5.722a65 65 0 0 1 7.44 4.307c2.42 1.666 4.72 3.413 7.592 4.341.451.17.935.211 1.409.005a1.74 1.74 0 0 0 .916-2.283 12 12 0 0 0-.773-1.495c5.13-.064 12.703.658 23.383 3.469.721.19.954.35.97.345.212.446.178 2.175.151 3.566-.085 4.307-.226 11.516 3.665 22.269 2.695 7.447.778 16.542-4.662 22.114a17.2 17.2 0 0 1-3.668 2.869c2.069-6.899 2.467-14.249.603-21.383-1.979-5.833-3.734-13.235-10.226-15.531-3.714-.64-2.044 4.751-1.204 6.304 1.009 2.519 2.597 4.636 3.628 7.134l1.221 3.777c3.116 11.871-1.525 24.409-9.222 33.63-.758.876-1.9 2.323-2.728 3.112-.986.972-1.904 2.017-2.947 2.94-1.265 1.085-2.314 1.803-2.333 3.834a2.347 2.347 0 0 0 1.885 2.48c2.025.416 3.079-.681 4.441-1.735 1.084-.86 2.08-1.833 3.11-2.768 3.38 1.054 6.888 2.16 10.369 3.257 15.243 4.803 26.073 8.114 33.851 10.271.15.42.295.839.456 1.258-7.126-1.251-26.433-3.707-48.009 1.379-1.574-3.135-3.522-6.006-6.865-7.78-1.151-.626-2.633.34-2.534 1.648.026 1.123.201 2.191.474 3.222.878 3.312 2.807 6.238 4.363 9.315q.664 1.366 1.28 2.753a90 90 0 0 1 3.597 9.459c1.265 4.032 2.227 8.128 2.942 12.268.028.164.178 1.656.162 2.032-.178 4.059-1.593 12.227-9.439 18.831-1.033.869-23.033 24.236-32.46 37.556-3.286-1.329-6.688-2.388-10.248-2.556-1.899-.122-2.825 2.066-1.933 3.416.189.286.453.536.813.717 2.915 1.499 6.117 2.279 9.116 3.541 10.658 4.127 19.842 12.289 23.722 23.163 2.085 5.761 2.924 12.18 2.227 18.214-.193 1.52-.465 2.861-1.04 4.179-.672 1.982-.543 4.352-.389 6.268.607 6.678 2.344 13.155 2.678 19.62.035 1.162.035 2.275-.242 3.213-.482.11-.975.166-1.485.194a67 67 0 0 1-5.533-.132c.168-2.046-.319-4.217-1.078-5.955-1.073-2.577-4.631-4-5.996-.775-.841 1.903-.172 4.075-.177 6.01-4.292-.578-8.574-1.364-12.77-2.1-3.853-.727-8.753-1.749-12.258-2.753.193-4.924 1.484-10.152 1.681-15.223.158-3.29.179-7.676-1.879-10.881-4.712-7.826-13.998-11.719-22.41-13.544a68 68 0 0 0-6.906-1.138c-1.196-.148-2.394-.278-3.606-.181-1.131.091-2.275.378-3.442 1.049-1.086.593-1.428 1.953-.984 3.011.163.387.422.737.8.99 2.019 1.53 4.287 1.677 6.449 1.891 6.401.854 13.598 2.39 18.985 6.162-6.332 15.003-11.03 30.506-13.746 46.118-4.856 29.405-1.066 57.174 17.029 81.7 3.564 4.919 7.706 9.345 12.197 13.381l2.695 46.532-17.281-1.683a3.4 3.4 0 0 0-.702.008 7 7 0 0 0-.753.179l-20.465 7.904a3.4 3.4 0 0 0-2.166 2.947l-.527 7.977a41 41 0 0 0-8.7-.936c-20.398 0-37.365 14.94-40.551 34.45-24.687.261-49.283 1.712-73.468 4.074-2.525-12.055-7.47-18.053-10.801-22.092-.891-1.081-1.662-2.015-2.124-2.775-.539-.885-.786-1.917-.712-3.044l3.825-78.208a72 72 0 0 0 4.236-3.904c8.51-8.288 14.104-18.969 19.134-29.534 9.034-17.402 12.451-37.237 12.262-56.694-.274-19.037-3.266-38.999-8.536-58.922zm63.098 236.719a4.43 4.43 0 0 1-.723 2.707c-1.603 2.43-4.053 7.373-6.468 13.48l-13.947-1.359 4.47-45.88 14.954 1.457zm-27.929 14.399-11.454-.402 2.546-38.496 13.196-5.105zm-57.348-.066c-.355 0-.71.004-1.065.004 3.121-15.719 17.014-27.607 33.636-27.607 2.842 0 5.602.354 8.245 1.009l-1.824 27.577a792 792 0 0 0-38.992-.983M350.263 243.216h11.686l2.758 50.561c-3.709 2.031-7.762 3.775-11.96 4.94zm530.295 125.909 9.981-146.954 10.242 2.727-10.968 149.354a244 244 0 0 0-9.255-5.127m-564.523 39.868c-2.58 2.459-6.012 4.891-9.508 5.203-3.904.357-7.671-2.033-10.223-4.191 5.841-1.696 13.812-1.549 19.731-1.012m-5.901 325.344c7.393 2.325 28.745 7.97 52.741 4.641l11.679 100.092c.038 1.464.355 2.88.892 4.196-14.51 1.255-33.352 2.97-45.579 3.993-1.502-.065-2.159-1.338-2.123-2.682.001-.004-10.007-63.196-10.005-63.2z"
  />
  <path fill="#FAD0E9" d="m586.118 811.196 11.455.402 4.287-44.003-13.196 5.105z" />
  <path
    fill="#FAD0E9"
    d="m608.833 766.147-4.47 45.88 13.947 1.359c2.415-6.107 4.866-11.05 6.468-13.48a4.43 4.43 0 0 0 .723-2.707l-1.714-29.595z"
  />
  <path
    fill="#F295FF"
    d="M525.83 470.423c-7.759 4.397-17.618 24.994-17.636 41.876-.006 5.308 1.038 12.232 6.043 15.082 4.022 2.29 9.451 4.53 12.477 2.192 7.399-5.718 3.326-33.241-.979-49.246a3.4 3.4 0 0 1 2.4-4.167c.033-.009.066-.008.099-.016a84 84 0 0 1 3.54-8.868c-1.722.603-5.609 2.958-5.944 3.147"
  />
  <path
    fill="#DB00F8"
    d="M656.497 367.686c-.157-3.178-1.72-6.253-4.92-9.677-.109-.116-.199-.224-.298-.316-20.959-6.262-33.58-2.656-34.754-2.291-.188.094-.494.3-.674.453-1.256 2.263-1.919 3.641-1.146 7.591 1.387 7.101 8.34 15.859 23.366 17.176 6.671.587 12.086-.775 15.259-3.829 2.291-2.205 3.356-5.269 3.167-9.107m-25.741 1.643c-.551.571-1.497 1.218-2.956 1.218a5 5 0 0 1-.415-.016c-4.322-.347-4.456-5.084-4.564-8.89-.053-1.847.015-3.934 1.484-5.33a3.94 3.94 0 0 1 3.073-1.074c3.782.305 4.296 4.668 4.464 6.102.467 3.965.433 6.413-1.086 7.99m14.709 1.19c-.557.58-1.517 1.237-3.006 1.237a5 5 0 0 1-.423-.017c-4.406-.352-4.533-5.092-4.635-8.901-.047-1.733.095-3.513 1.431-4.779.598-.568 1.654-1.213 3.283-1.086 3.803.303 4.25 3.992 4.44 5.568.48 3.937.448 6.375-1.09 7.978"
  />
  <path
    fill="#000"
    d="M656.547 353.368c-.654-.701-1.549-1.66-3.241-2.167-24.298-7.28-38.54-2.393-39.134-2.182l-.136.052c-1.137.461-3.137 1.7-3.989 3.229-1.543 2.775-3.292 5.92-2.016 12.451 1.841 9.417 10.657 20.998 29.446 22.646q1.787.156 3.491.155c7.122 0 13.102-2.033 17.078-5.86 3.716-3.578 5.529-8.537 5.242-14.342-.236-4.807-2.443-9.382-6.741-13.982m-18.476 27.254c-15.026-1.317-21.978-10.076-23.366-17.176-.773-3.95-.11-5.328 1.146-7.591.18-.153.486-.359.674-.453 1.174-.365 13.795-3.971 34.754 2.29.099.093.189.201.298.317 3.2 3.424 4.763 6.499 4.92 9.677.189 3.838-.876 6.902-3.167 9.107-3.173 3.054-8.588 4.416-15.259 3.829"
  />
  <path
    fill="#000"
    d="M642.115 356.973c-1.629-.127-2.685.518-3.283 1.086-1.336 1.266-1.478 3.045-1.431 4.779.102 3.809.229 8.549 4.635 8.901q.217.018.423.018c1.489 0 2.449-.658 3.006-1.238 1.538-1.603 1.57-4.041 1.091-7.978-.191-1.575-.638-5.264-4.441-5.568"
  />
  <path
    fill="#000"
    d="M627.378 355.238a3.94 3.94 0 0 0-3.073 1.073c-1.469 1.396-1.537 3.483-1.484 5.33.108 3.806.242 8.543 4.564 8.89q.215.017.415.017c1.459 0 2.405-.648 2.956-1.219 1.519-1.577 1.553-4.025 1.086-7.99-.168-1.434-.682-5.797-4.464-6.101"
  />
  <path
    fill="#000"
    d="M615.977 342.744a2.953 2.953 0 0 0 3.887 1.522c2.726-1.193 5.472-.866 5.557-.855a2.945 2.945 0 0 0 3.328-2.5 2.95 2.95 0 0 0-2.497-3.345c-.445-.065-4.482-.579-8.753 1.291a2.95 2.95 0 0 0-1.522 3.887"
  />
  <path
    fill="#000"
    d="M635.928 344.359c3.381.377 6.438 1.766 6.495 1.792a2.954 2.954 0 0 0 3.918-1.433 2.95 2.95 0 0 0-1.431-3.921c-.159-.075-3.943-1.817-8.327-2.305a2.954 2.954 0 0 0-3.261 2.607 2.95 2.95 0 0 0 2.606 3.26"
  />
  <path
    fill="#000"
    d="M590.259 396.417c.845 2.771 2.55 5.531 5.52 7.995 1.789 1.484 3.757 2.57 5.798 3.351 3.19 1.408 6.392 1.992 8.984 2.196q1.262.098 2.574.098c11.792 0 26.017-5.822 27.484-11.635.499-1.978.887-4.065-.299-5.933-1.266-1.992-3.4-2.407-6.104-2.933-2.248-.437-5.644-1.097-10.417-2.82-10.653-3.844-12.065-4.962-18.887-14.956-3.701-5.422-7.405-5.103-9.286-4.429-2.789 1.001-5.012 3.956-6.606 8.782-1.083 3.28-1.709 7.019-1.522 9.093.404 4.485 1.39 8.166 2.761 11.191m7.121-9.488c5.326 2.312 13.388 9.358 19.479 15.453-4.912.681-11.99.735-16.738-3.204-5.022-4.165-3.95-9.347-2.741-12.249"
  />
  <path
    fill="#DB00F8"
    d="M616.859 402.383c-6.091-6.096-14.153-13.142-19.479-15.454-1.209 2.902-2.281 8.084 2.741 12.249 4.748 3.939 11.826 3.885 16.738 3.205"
  />
  <path
    fill="#DB00F8"
    d="M793.945 409.001c17.146 9.496 35.665 3.786 43.665-7.22 4.38-6.027 6.499-14.004 6.982-19.004.03-.311.027-.672.004-.959-.152-.133-5.277-4.871-21.001-12.745-12.38-6.2-28.383-8.76-28.538-8.808-3.091 2.914-9.335 10.198-11.738 15.429-2.357 5.128-8.556 22.682 10.626 33.307m25.416-24.728c2.249-2.956 5.648-7.419 9.515-5.107a4.1 4.1 0 0 1 1.908 2.643c.49 2.177-.699 4.515-3.067 8.07h-.001c-3.979 5.974-6.862 10.3-10.156 10.3-.759 0-1.538-.229-2.358-.72-1.178-.707-1.895-1.693-2.133-2.933-.415-2.158.421-4.541 6.292-12.253m-18.425-10.967c2.113-2.759 5.003-6.54 8.899-4.203 1.428.856 1.951 2.024 2.138 2.852.464 2.054-.526 4.067-2.516 7.061-4.167 6.271-7.016 10.274-10.192 10.274-.776 0-1.571-.238-2.411-.741-1.206-.725-1.94-1.731-2.181-2.995-.412-2.158.444-4.645 6.263-12.248"
  />
  <path
    fill="#000"
    d="M790.65 414.949c7.818 4.329 15.157 5.697 21.312 5.697 3.54 0 6.686-.453 9.305-1.054 9.003-2.067 16.965-7.102 21.843-13.814 5.179-7.125 7.657-16.216 8.25-22.346.137-1.405.2-4.654-1.793-6.447-2.447-2.85-10.478-7.759-22.927-13.993-12.177-6.098-26.588-8.752-29.542-9.251-2.096-.89-4.537-.418-6.404 1.293-3.232 2.962-10.525 11.23-13.554 17.82-6.13 13.337-5.8 31.399 13.51 42.095m-7.331-39.255c2.403-5.231 8.648-12.515 11.738-15.429.155.048 16.158 2.608 28.538 8.807 15.724 7.874 20.849 12.613 21.001 12.746.023.287.026.648-.003.959-.484 5-2.603 12.977-6.983 19.003-8 11.007-26.519 16.717-43.665 7.221-19.182-10.625-12.983-28.18-10.626-33.307"
  />
  <path
    fill="#000"
    d="M796.854 388.548c.84.503 1.635.742 2.411.742 3.176 0 6.025-4.003 10.192-10.274 1.99-2.994 2.98-5.007 2.516-7.061-.187-.828-.71-1.996-2.138-2.852-3.896-2.337-6.786 1.444-8.899 4.203-5.819 7.603-6.674 10.09-6.263 12.248.241 1.263.975 2.27 2.181 2.994"
  />
  <path
    fill="#000"
    d="M815.202 399.458c.82.492 1.6.721 2.358.721 3.294 0 6.177-4.326 10.157-10.3l.001-.001c2.367-3.554 3.556-5.893 3.066-8.069a4.1 4.1 0 0 0-1.908-2.643c-3.866-2.312-7.266 2.15-9.515 5.106-5.871 7.712-6.707 10.096-6.292 12.253.238 1.241.955 2.227 2.133 2.933"
  />
  <path
    fill="#000"
    d="M842.645 365.713c.028.011 2.73 1.129 4.814 4.007a3.394 3.394 0 0 0 4.748.76 3.4 3.4 0 0 0 .76-4.747c-3.258-4.5-7.397-6.181-7.858-6.358a3.386 3.386 0 0 0-4.365 1.933c-.685 1.736.173 3.704 1.901 4.405"
  />
  <path
    fill="#000"
    d="m817.302 354.056.044-.001c.031 0 3.235-.01 7.416 2.275a3.402 3.402 0 0 0 3.261-5.967c-5.825-3.184-10.384-3.124-10.879-3.105a3.383 3.383 0 0 0-3.259 3.479c.044 1.848 1.574 3.319 3.417 3.319"
  />
  <path
    fill="#000"
    d="M832.804 453.213c5.209-3.093 11.028-8.58 15.563-14.679 3.725-5.009 7.692-11.95 5.447-16.576-1.952-4.018-6.795-4.571-14.397-1.638-15.175 5.855-27.846 5.813-43.372 3.845-9.588-1.216-15.82-1.299-19.315 1.867-2.635 2.387-2.851 5.884-2.785 8.306.187 6.884 4.402 19.298 15.249 25.279 4.377 2.414 9.076 3.402 13.842 3.402 10.548 0 21.412-4.845 29.768-9.806m-46.719-15.037c8.013 2.469 20.716 7.286 26.172 12.976-2.448 2.725-7.901 6.875-15.97 2.311-7.445-4.213-9.612-10.938-10.202-15.287"
  />
  <path
    fill="#DB00F8"
    d="M796.287 453.463c8.069 4.564 13.522.414 15.97-2.311-5.456-5.69-18.159-10.507-26.172-12.976.59 4.349 2.757 11.074 10.202 15.287"
  />
  <path
    fill="#F295FF"
    d="M980.107 465.029c-1.36-3.747-3.473-6.117-6.46-7.246-6.153-2.323-16.644.406-30.346 7.892-3.623 1.979-19.445 4.053-51.478 7.685a66 66 0 0 1-14.814 6.991c-6.291 2.064-12.545 3.093-18.3 3.093-.317 0-16.554.162-18.597-.065a57.2 57.2 0 0 1-13.373 3.568c-1.125.258-4.404.546-7.12.238-1.918-.217-3.55-.733-3.948-1.768-.117-.306-.134-.654-.01-1.056.165-.483.52-.825.958-1.01 3.876-1.724 8.051-1.976 12.094-2.981 20.57-4.69 35.098-20.955 39.166-41.486.861-3.999 1.393-8.085 1.679-12.204l.133-3.098c-.139-3.282.519-6.231 1.787-9.434.427-1.348 2.458-1.457 3.018-.163 1.186 2.638 2.222 5.322 2.058 8.161l-.067 1.656c-.179 5.526-.81 11.097-1.989 16.523-2.949 14.745-10.61 27.361-21.72 35.84 6.379 1.059 14.247.306 22.11-2.275 14.628-4.802 26.414-14.778 32.332-27.369 6.725-14.31 18.038-20.75 24.796-24.598 1.749-.995 3.854-2.193 4.775-2.983l-.149-.157c-23.081-23.508-49.265-38.496-61.655-44.849a2.37 2.37 0 0 1-2.572 2.07c-2.803-.511-4.022-2.771-5.411-4.809-1.235-1.684-2.388-3.434-3.766-4.996-16.116-20.275-42.389-27.606-67.47-24.294-2.096.268-4.189.58-6.257.991-2.143.382-4.271 1.134-6.52.687-2.003-.259-2.736-3.034-1.145-4.252 1.354-1.116 2.819-1.592 4.31-1.95-6.599-3.784-17.344-8.395-34.394-12.274-2.754-.625-2.918-.664-5.778 5.087-2.911 5.855-7.31 14.703-19.32 25.725-8.879 8.149-12.693 21.773-9.275 33.13a27 27 0 0 0 1.656 4.192c5.403-12.431 14.828-23.412 26.671-30.995 1.709-1.051 4.256-2.645 6.01-3.592 2.248-.887 4.646-1.263 7.087-1.175.923.05 1.63.84 1.579 1.763a1.7 1.7 0 0 1-.428 1.032c-1.541 1.76-3.129 3.24-5.023 4.493-1.615.797-3.968 2.18-5.519 3.175-17.628 11.287-30.366 31.745-28.574 53.038.474 6.255 2.179 12.438 4.861 18.128.873 1.97 2.26 3.662 1.85 6.452a1.926 1.926 0 0 1-2.152 1.673c-1.471-.33-2.612-1.391-3.405-2.386-.36-.476-.741-1.183-1.097-1.86a3.4 3.4 0 0 1-1.946.124c-.314-.072-21.946-4.898-46.464.505 4.071 9.294 7.063 19.162 7.598 29.348.019.627.032 1.281.041 1.941a217 217 0 0 1 13.919-10.03c6.074-3.613 12.257-7.121 19.039-9.256a1.527 1.527 0 0 1 1.909 1.013 1.52 1.52 0 0 1-.487 1.609c-.028.023-.943.697-1.376 1.01-10.802 7.785-21.672 14.984-31.873 23.31-16.48 13.67-31.23 29.557-43.713 47.053 2.994 1.634 5.856 3.555 8.479 5.799 7.236 6.184 12.261 14.872 14.192 24.19 1.202 6.205 1.69 12.829-.218 19.039l-.241.599c-.022.121-.027.054-.047.2-.299 2.021.086 4.229.421 6.648.659 4.263 1.599 8.618 2.195 13.219.337 3.309.853 6.638-.466 9.976-.432 1.316-2.166 3.066-3.824 3.436-.343.163-.842.208-1.196.299-.651.116-1.401.225-2.045.26-9.299.319-18.214-1.386-27.277-2.914-4.853-.95-9.528-1.752-14.331-3.279-.856-.299-1.717-.73-2.327-1.439-.562-.623-.932-1.47-1.122-2.261-.374-1.753-.19-3.684-.053-5.087.29-2.633 1.158-5.166 1.04-7.729-.245-5.317-2.39-5.335-2.963-5.012a227 227 0 0 0-4.931 14.794c-9.61 33.468-10.292 67.534 10.812 96.737 3.852 5.453 8.465 10.314 13.56 14.715 3.81 3.361 8.113 6.151 11.997 9.463 1.289 1.15 2.581 2.31 3.716 3.731.6.694.505 1.763-.217 2.334-.422.337-.97.427-1.455.295-3.511-.988-6.622-2.687-9.532-4.697a128 128 0 0 1-3.871-2.828l4.442 76.704a11.18 11.18 0 0 1-1.835 6.844c-3.089 4.682-10.041 20.731-12.319 34.716a4.25 4.25 0 0 0 .784 3.21 4.6 4.6 0 0 0 2.988 1.84l5.761.601c.042-6.189 1.429-12.298 4.419-17.795 1.294-2.084 5.898-8.039 8.274-4.455.388.702.325 1.482-.006 2.15-1.605 3.725-3.213 6.965-4.135 10.9-.759 3.192-1.216 6.612-1.51 9.934l38.01 3.965c-.462-1.651-.564-3.474-.199-5.444 1.319-11.396 4.813-22.564 10.442-32.576.618-1.142.635-.995.608-1.978.168-11.506.591-41.452.755-52.604.034-1.553.075-4.971.115-8.04-8.131-2.437-21.634-10.126-22.399-10.523-2.321-1.275-4.463-2.924-6.258-4.882a1.813 1.813 0 0 1 .117-2.563c.532-.489 1.247-.577 1.885-.361 1.864.471 3.405 1.267 5.164 1.886 6.084 2.674 12.44 5.058 18.869 6.791a203 203 0 0 0 9.288 2.399c2.902.681 5.819 1.309 8.756 1.892 4.88.993 9.84 1.576 14.665 3.11.704.217 1.032.814 1.053 1.422.026.751-.429 1.52-1.342 1.617-1.706.2-5.087.289-5.389.306-9.101.517-16.201.128-17.814.024-.138 15.751-.357 45.506-.501 59.321.367 3.454-1.928 6.084-3.193 8.897-3.252 6.673-5.557 13.837-6.86 21.145-.402 2.079-.657 4.332-.892 6.439-.639 4.285 4.377 5.377 7.765 5.706l4.526.518c-.151-6.618 1.204-13.185 4.397-19.056 1.294-2.083 5.898-8.038 8.274-4.454.388.702.325 1.482-.006 2.15-1.605 3.725-3.213 6.964-4.135 10.9-.861 3.618-1.337 7.532-1.621 11.26 14.045 1.633 48.726 5.674 48.996 5.614.744-.149 1.323-.612 1.595-1.252 1.999-22.592 5.321-61.326 8.086-92.867-.727-8.858-5.274-12.142-6.297-12.417-1.927-.518-3.99-.26-5.971-.776a1.62 1.62 0 0 1-1.195-1.731c.008-.083.017-.166.039-.248a1.62 1.62 0 0 1 1.083-1.136c.189-.062.376-.11.565-.169 2.716-.853 5.376-1.372 8.02-1.867 8.421-1.269 16.707-3.94 23.772-8.716 5.885-3.805 11.067-9.345 15.978-14.591 10.989-11.494 18.474-25.944 21.898-41.513 5.11-22.983 3.079-46.966 1.204-70.385-2.046-23.888-4.385-47.928-3.416-72.014.285-4.603.45-9.248.823-13.868a108 108 0 0 1 .721-6.635c.317-2.219.72-4.424 1.251-6.607.763-2.951 1.725-5.864 3.16-8.651a1.573 1.573 0 0 1 2.965.587c.634 8.06-2.193 16.013-1.363 24.002.147 1.408 3.088 7.291 15.644 6.753 52.636-6.19 117.71-16.946 131.194-31.414 7.458-8.002 16.272-26.875 12.564-37.088m-131.74-26.495c-4.535 6.098-10.354 11.586-15.563 14.679-8.356 4.96-19.22 9.806-29.768 9.806-4.766 0-9.465-.989-13.842-3.402-10.847-5.981-15.062-18.395-15.249-25.279-.066-2.422.151-5.919 2.785-8.306 3.495-3.166 9.727-3.083 19.315-1.867 15.526 1.967 28.197 2.009 43.372-3.845 7.602-2.933 12.445-2.38 14.397 1.638 2.245 4.626-1.722 11.567-5.447 16.576m-7.623-77.226a3.386 3.386 0 0 1 4.365-1.933c.461.177 4.6 1.858 7.858 6.358a3.4 3.4 0 0 1-5.508 3.987c-2.084-2.878-4.786-3.996-4.814-4.007-1.728-.701-2.586-2.669-1.901-4.405m-23.6-14.05c.495-.019 5.054-.079 10.879 3.105a3.401 3.401 0 0 1-1.634 6.385c-.551 0-1.11-.135-1.627-.418-4.181-2.285-7.385-2.275-7.416-2.275l-.044.001c-1.843 0-3.373-1.471-3.417-3.319a3.383 3.383 0 0 1 3.259-3.479m-40.004 25.596c3.029-6.59 10.322-14.858 13.554-17.82 1.867-1.711 4.308-2.183 6.404-1.293 2.954.499 17.365 3.153 29.542 9.251 12.449 6.234 20.48 11.143 22.927 13.993 1.993 1.793 1.93 5.041 1.793 6.447-.593 6.13-3.071 15.221-8.25 22.346-4.878 6.712-12.84 11.747-21.843 13.814a41.7 41.7 0 0 1-9.305 1.054c-6.155 0-13.494-1.368-21.312-5.697-19.31-10.696-19.64-28.758-13.51-42.095"
  />
  <path
    fill="#F295FF"
    d="M662.735 429.518c3.342 1.774 5.29 4.645 6.864 7.78 21.577-5.086 40.883-2.63 48.009-1.379-.161-.419-.306-.838-.456-1.258-7.778-2.157-18.608-5.468-33.851-10.271-3.48-1.097-6.989-2.203-10.369-3.257-1.029.935-2.026 1.908-3.11 2.768-1.362 1.054-2.416 2.151-4.441 1.735a2.347 2.347 0 0 1-1.885-2.48c.019-2.031 1.068-2.749 2.333-3.834 1.043-.923 1.961-1.968 2.948-2.94.827-.789 1.969-2.236 2.727-3.112 7.697-9.221 12.339-21.759 9.222-33.63l-1.221-3.777c-1.031-2.498-2.619-4.615-3.628-7.134-.84-1.553-2.51-6.944 1.204-6.304 6.492 2.296 8.247 9.698 10.226 15.531 1.864 7.134 1.466 14.484-.603 21.383a17.2 17.2 0 0 0 3.668-2.869c5.44-5.572 7.357-14.667 4.662-22.114-3.891-10.753-3.75-17.962-3.665-22.269.027-1.391.061-3.12-.151-3.566-.016.005-.249-.155-.97-.345-10.679-2.811-18.253-3.533-23.383-3.469.281.472.546.962.773 1.495a1.74 1.74 0 0 1-.916 2.283c-.474.206-.958.165-1.409-.005-2.872-.928-5.172-2.675-7.592-4.341a65 65 0 0 0-7.44-4.307c-7.655-3.773-15.905-5.931-24.376-5.722-5.562.235-11.072 1.385-16.208 3.595-1.314.495-2.556 1.176-3.826 1.791-1.47.782-2.536 1.544-4.463.911a2.82 2.82 0 0 1-1.953-1.666c-9.431-.059-29.486.742-50.474 7.362a64 64 0 0 0 1.347 2.153c2.972 4.613 7.945 12.335 7.477 23.563-.322 7.73 2.174 14.552 7.22 19.729 3.186 3.269 7.377 5.787 11.737 7.212-1.067-2.607-1.765-5.372-1.974-8.262-.512-6.095.639-12.016 2.448-17.491 1.317-3.344 2.319-6.8 4.277-9.817 1.145-1.511 5.111-6.82 6.967-4.103.202.317.277.663.263 1.016-.091 5.581-3.342 10.007-5.074 15.087-3.331 9.423-3.318 19.888 3.263 27.757 1.475 1.943 3.314 3.656 5.222 5.319 2.139 1.754 4.407 2.992 5.771 5.669a1.775 1.775 0 0 1-.744 2.398c-1.725.588-3.663-.226-5.16-.828a38.4 38.4 0 0 1-6.867-4.991c-1.635-.357-10.218-2.431-16.211-7.701-3.24-1.712-6.246-3.911-8.788-6.519-3.303-3.389-5.735-7.319-7.266-11.656-4.059-3.086-5.662-4.976-6.073-6.555-1.264-4.869-9.133-14.839-14.955-16.456-1.849-.514-2.737.043-3.363.655-7.181 7.029-10.766 19.735-8.945 25.568 2.874 9.215 44.107 43.137 44.009 43.307 4.558-2.705 9.437-4.78 14.586-5.888 1.942-.438 3.942-.675 5.986-.504a1.588 1.588 0 0 1 .692 2.942c-.158.091-.319.174-.479.263-6.284 3.523-12.879 6.151-18.908 10.114-6.084 3.949-11.56 8.873-16.226 14.476-7.352 8.783-12.872 19.41-15.778 30.621 1.002 4.363 2.439 11.327 3.331 18.802 1.196 10.005 1.072 17.805-.379 23.535 4.282 9.322 11.463 17.063 19.479 23.352 2.875 2.251 5.903 4.267 9.097 5.995 1.479 1.009 7.13 2.96 9.233 5.234.787.852 1.081 1.75.463 2.66 1.372.443 2.818.84 4.321 1.2-.444-1.058-.102-2.418.984-3.011 1.168-.671 2.311-.958 3.442-1.049 1.212-.097 2.41.033 3.606.181 2.311.262 4.614.637 6.906 1.138 8.412 1.825 17.698 5.718 22.41 13.544 2.058 3.205 2.037 7.591 1.879 10.881-.197 5.071-1.487 10.299-1.681 15.223 3.506 1.004 8.405 2.026 12.258 2.752 4.196.737 8.478 1.523 12.77 2.101.005-1.935-.664-4.107.177-6.01 1.365-3.225 4.924-1.802 5.996.775.759 1.738 1.246 3.909 1.078 5.955 1.852.112 3.699.172 5.533.132a9 9 0 0 0 1.485-.194c.277-.938.277-2.051.242-3.213-.334-6.465-2.071-12.942-2.678-19.62-.154-1.916-.283-4.286.39-6.268.574-1.319.846-2.659 1.039-4.179.697-6.034-.141-12.453-2.227-18.215-3.88-10.873-13.064-19.035-23.722-23.162-2.999-1.262-6.201-2.042-9.116-3.541a2.1 2.1 0 0 1-.813-.717c-.892-1.35.034-3.538 1.933-3.416 3.56.168 6.962 1.227 10.248 2.556 9.427-13.32 31.427-36.687 32.46-37.556 7.847-6.604 9.262-14.772 9.439-18.831a36 36 0 0 0-.162-2.032c-.715-4.14-1.677-8.237-2.942-12.268a90 90 0 0 0-3.597-9.46 89 89 0 0 0-1.28-2.752c-1.556-3.078-3.484-6.003-4.363-9.315a13.8 13.8 0 0 1-.474-3.222c-.099-1.309 1.383-2.274 2.535-1.648m-29.413-88.419a2.954 2.954 0 0 1 3.261-2.607c4.385.488 8.168 2.23 8.327 2.305a2.952 2.952 0 0 1-2.486 5.354c-.058-.026-3.115-1.415-6.496-1.792a2.95 2.95 0 0 1-2.606-3.26m-15.823-2.242c4.271-1.87 8.308-1.356 8.753-1.291a2.95 2.95 0 0 1 2.497 3.345 2.945 2.945 0 0 1-3.328 2.5c-.085-.011-2.831-.338-5.557.855a2.947 2.947 0 0 1-3.887-1.522 2.95 2.95 0 0 1 1.522-3.887m-21.72 65.555c-2.97-2.464-4.675-5.223-5.52-7.995-1.371-3.025-2.357-6.705-2.761-11.191-.187-2.074.439-5.813 1.522-9.093 1.594-4.826 3.817-7.781 6.606-8.782 1.881-.674 5.585-.993 9.286 4.429 6.822 9.994 8.234 11.112 18.887 14.956 4.773 1.723 8.169 2.383 10.417 2.82 2.704.526 4.838.941 6.104 2.933 1.186 1.868.798 3.956.299 5.933-1.467 5.813-15.692 11.635-27.484 11.635q-1.312 0-2.574-.098c-2.592-.204-5.794-.788-8.984-2.196-2.041-.781-4.009-1.867-5.798-3.351m62.267-22.719c-3.976 3.826-9.956 5.859-17.078 5.859q-1.704 0-3.491-.155c-18.789-1.648-27.605-13.229-29.446-22.646-1.276-6.531.473-9.676 2.016-12.451.852-1.529 2.852-2.768 3.989-3.229l.136-.052c.594-.211 14.836-5.098 39.134 2.182 1.692.507 2.587 1.466 3.241 2.167 4.298 4.6 6.504 9.175 6.741 13.982.287 5.805-1.526 10.764-5.242 14.343"
  />
  <path
    fill="#FFFBE8"
    d="M479.86 309.999c2.39-11.933 4.747-16.638 12.798-21.097-11.25-2.883-14.342-7.838-17.844-16.828-2.994 10.067-8.505 15.338-22.605 22.323l.172 1.725c14.466.264 21.773 4.636 27.479 13.877"
  />
  <path
    fill="#F295FF"
    d="M327.744 844.577c-.036 1.344.621 2.617 2.123 2.682 12.227-1.023 31.069-2.738 45.579-3.993a12 12 0 0 1-.892-4.196l-11.679-100.092c-23.996 3.329-45.348-2.316-52.741-4.641l7.605 47.04c-.002.004 10.006 63.196 10.005 63.2"
  />
  <path
    fill="#F295FF"
    d="m426.32 355.424-.158-1.43c-1.209.45-2.408.923-3.583 1.437-8.146 3.568-12.374 7.409-12.952 9.633-.631 2.427-.325 7.751.001 13.386.843 14.629 2 34.663-8.855 46.18-.371.394-.758.777-1.148 1.158a228 228 0 0 1 5.426 5.463 54 54 0 0 0 5.011-4.83c3.876-4.39 5.532-10.041 6.414-15.93 1.149-8.083.687-16.548.16-25.129-.356-6.892-1.464-14.622 2.593-20.858 1.593-3.006 4.107-6.467 7.091-9.08"
  />
  <path
    fill="#EE6DBB"
    d="m451.112 351.805-7.809-78.146c-.05-.508-.276-.944-.634-1.228a1.35 1.35 0 0 0-.841-.299c-.06 0-10.05 1.317-10.05 1.317-.924.122-1.616 1.107-1.512 2.152l7.616 76.215c1.423.46 2.838 1.313 4.214 2.659 2.258 2.403 3.749 5.202 4.982 8.115.76-2.552 1.486-5.119 2.248-7.615.444-1.252 1.053-2.299 1.786-3.17m-14.557-46.752-1.177-11.779c-.12-1.195.727-2.292 1.887-2.446l2.194-.29c.564-.075 1.12.08 1.566.433.464.368.752.901.813 1.503l1.176 11.78c.12 1.195-.725 2.292-1.886 2.446 0 0-2.38.309-2.472.309-.467 0-.917-.157-1.29-.453a2.17 2.17 0 0 1-.811-1.503"
  />
  <path
    fill="#000"
    d="M438.656 307.008c.092 0 2.472-.308 2.472-.308 1.161-.154 2.006-1.251 1.886-2.446l-1.176-11.78a2.18 2.18 0 0 0-.813-1.503 2.07 2.07 0 0 0-1.566-.433l-2.194.29c-1.16.154-2.007 1.251-1.887 2.446l1.177 11.779c.06.602.348 1.136.811 1.503.373.296.823.452 1.29.452"
  />
  <path
    fill="#000"
    d="M290.402 313.441c2.527-1.345 5.814-1.598 8.695-1.732.896.007 1.759-.465 2.128-1.351a2.186 2.186 0 0 0-1.168-2.864c-3.012-1.209-6.05-1.836-9.323-1.35-2.65.378-6.3 2.311-4.831 5.649a3.39 3.39 0 0 0 4.499 1.648"
  />
  <path
    fill="#000"
    d="M253.553 317.649c-1.243 1.347-2.417 3.526-1.156 5.309a3.17 3.17 0 0 0 4.405.834c.618-.4 1.293-.875 1.785-1.446 1.047-1.163 2.433-2.355 3.558-3.46.725-.695 1.298-1.601 1.073-2.684-1.133-4.457-7.769-.642-9.665 1.447"
  />
  <path
    fill="#000"
    d="M282.111 343.713c.54 0 1.085-.173 1.545-.529a295 295 0 0 1 4.068-3.086 5.2 5.2 0 0 0 1.293 1.47 4.95 4.95 0 0 0 3.8.992 5 5 0 0 0 3.377-2.124c1.613-2.318 1.14-5.476-1.074-7.189a4.95 4.95 0 0 0-3.8-.992 5 5 0 0 0-1.119.32c-.896.186-4.355 2.613-5.433 3.414-2.119 1.578-4.206 3.191-4.206 3.191a2.531 2.531 0 0 0 1.549 4.533"
  />
  <path
    fill="#000"
    d="M299.263 329.163a2.525 2.525 0 0 0 3.548.454 295 295 0 0 1 4.069-3.086 5.2 5.2 0 0 0 1.293 1.47 4.94 4.94 0 0 0 3.8.991 5 5 0 0 0 3.375-2.121c1.615-2.319 1.143-5.478-1.074-7.192a4.93 4.93 0 0 0-3.801-.99 5 5 0 0 0-1.115.318c-.897.185-4.357 2.613-5.434 3.415a333 333 0 0 0-4.206 3.192 2.53 2.53 0 0 0-.455 3.549"
  />
  <path
    fill="#DB00F8"
    d="M306.527 414.196c3.496-.312 6.928-2.744 9.508-5.203-5.919-.537-13.89-.684-19.731 1.012 2.552 2.158 6.319 4.548 10.223 4.191"
  />
  <path
    fill="#DB00F8"
    d="M390.109 367.638c.729-.236 1.486-.481 2.281-.721 5.464-2.967 4.541-10.474 2.782-16.293-.828-2.736-3.134-7.36-6.141-12.772-.376.215-.97.477-1.733.477-.246 0-.509-.027-.787-.092-1.915-.448-3.776-2.311-9.172-11.688-1.849-3.211-4.148-7.207-.716-9.514a820 820 0 0 0-8.237-12.925l-17.751 14.405c2.575 6.188 16.922 33.944 22.559 41.287 8.186 10.666 10.74 9.839 16.915 7.836m-10.226-21.805c-.271.18-.987.658-2.005.658-.242 0-.499-.027-.773-.09-1.906-.446-3.679-2.245-9.152-11.727-2.135-3.7-4.792-8.304-1.524-10.486a3.35 3.35 0 0 1 2.541-.491c1.803.364 3.453 2.022 6.303 6.338 6.384 9.665 8.04 13.505 4.61 15.798"
  />
  <path
    fill="#000"
    d="M368.971 323.697a3.34 3.34 0 0 0-2.541.491c-3.269 2.182-.612 6.786 1.523 10.486 5.473 9.482 7.246 11.281 9.152 11.727.274.063.532.09.773.09 1.018 0 1.734-.478 2.005-.658 3.43-2.293 1.774-6.133-4.61-15.798-2.85-4.316-4.5-5.974-6.302-6.338"
  />
  <path
    fill="#F295FF"
    d="M437.834 709.493c3.717-2.635 7.292-5.492 10.479-8.738 7.865-7.831 12.93-17.814 17.947-27.648 8.954-16.365 11.889-35.189 11.852-53.689-.836-41.06-13.058-83.571-33.326-121.788-16.963 9.876-50.813 15.541-53.482 16.01q-2.697.474-5.412.839c-2.166.101-9.02.314-8.037-3.223.13-.389.363-.692.658-.923q.17-.135.366-.237c3.863-2.176 8.057-2.489 12.262-3.342a139 139 0 0 0 12.261-3.008c27.885-7.909 54.111-26.232 63.249-54.736 4.271-13.963 3.968-28.942 3.327-43.47a63 63 0 0 1-.135-6.845c.204-12.106 3.979-24.05 1.338-35.901-.396-1.8-1.333-3.025-3.176-4.374-2.351-1.875-9.859-4.573-11.697-1.381-1.703 5.463-3.178 11.507-5.368 16.788-.476.842-.51 1.079-1.527 1.853-1.707 1.233-4.129.471-5.074-.837-1.222-1.692-1.584-3.432-2.282-5.156-1.163-2.826-3.996-11.886-7.58-10.968-3.985 1.347-6.871 5.669-9.038 9.264-2.163 3.373-2.274 6.531-2.103 10.606.399 10.924 1.587 21.633-.072 32.904-1.005 6.804-3.332 14.121-8.179 19.44-10.78 11.867-26.288 18.84-42.189 19.899-4.246.35-8.543.362-12.578-1.189-.248-.095-.498-.175-.743-.283-1.565-.682-1.411-3.078.268-3.496 4.206-1.189 8.292-1.139 12.531-1.463a67 67 0 0 0 4.747-.584 61 61 0 0 0 7.353-1.59c5.672-1.579 11.063-4.12 15.925-7.431-6.732-7.27-13.796-14.115-21.151-20.459-1.578 2.478-3.644 5.01-6.683 4.698a2 2 0 0 1-.507-.139c-2.383-.935.31-5.037 1.126-6.15.262-.403.502-.817.737-1.234 1.965-3.499 3.026-7.468 3.894-11.492.117-.55.223-1.107.331-1.662.809-4.19 1.347-8.53 1.753-12.813-14.939 9.389-32.241 14.927-49.875 16.273-.322.444-4.475 6.52-4.475 6.52-.324.477-8.038 11.706-18.418 12.631q-.685.06-1.358.06c-4.997 0-9.439-2.423-12.667-4.89-1.516-1.131-2.973-2.473-4.368-3.985l-.196-.215a43 43 0 0 1-3.006-3.703l-.173-.218.015-.009c-2.161-3.015-4.125-6.463-5.853-10.228-.756-1.541-1.445-3.144-2.117-4.72-.432-.96-.88-2.07-.785-3.237.088-2.751 3.538-4.646 5.797-2.965 15.261 9.441 40.519 10.11 57.877 6.933 14.819-2.65 28.935-8.661 41.103-17.443l1.129-.847-.99-.203c-3.991-.987-8.212-4.154-13.739-11.357-6.297-8.203-21.509-37.714-23.714-43.494-1.016-2.656-.395-5.242 1.576-6.654l12.268-9.957c-.006-.011.003.004-.003-.007-7.051 2.421-14.538 3.482-21.993 2.336-3.858-.593-7.673-1.976-11.069-3.888-16.074-8.528-35.301-12.053-53.365-9.079a8.9 8.9 0 0 1-1.32 3.119 1.877 1.877 0 0 1-2.59.579c-.204-.072-1.744-1.81-2.295-2.413l-.01-.003c-.573.131-1.133.304-1.696.464.284.46.558.924.809 1.397 1.285 2.747-2.079 5.227-4.349 3.289-.908-.654-1.947-1.537-2.995-2.47-10.181 4.051-19.37 10.56-26.463 18.937-3.389 3.895-6.419 8.107-9.285 12.409-.938 1.48-1.926 2.944-3.628 3.99-.78.535-1.727.493-2.494.098a94 94 0 0 0-2.12 3.856c1.076.71 1.664 2.15.95 3.504-.053.117-.116.226-.173.34-1.241 2.54-3.298 4.482-5.116 6.605a193 193 0 0 0-5.615 6.732c-14.543 18.288-26.462 38.844-34.014 60.98-1.395 4.058-2.614 8.239-3.68 12.394-.098.7-.187 1.009.129 1.454.218.325 1.162.907 2.319 1.321 4.003 1.389 8.337 2.056 12.598 3.173 11.229 2.663 22.359 7.961 30.718 16.164 5.92 6.317 14.654 10.282 23.11 7.73 7.763-2.291 13.203-8.974 15.875-16.604 5.537-16.329.877-34.417-5.828-49.789-1.196-2.651-2.437-5.288-3.804-7.867-1.331-2.602-2.915-5.043-3.461-8.137-.191-.808.197-1.519.794-1.926.667-.456 1.597-.532 2.288.078 2.442 1.998 3.842 4.697 5.273 7.409 1.437 2.664 2.752 5.399 4.02 8.157 2.503 5.556 4.633 11.285 6.226 17.183 1.265 4.791 2.754 13.973 2.754 13.973.26 1.835.456 3.649.601 5.421 1.038 12.718-.601 23.23-.601 23.23s7.663 3.771 11.968 4.926c3.825 1.063 7.771 1.469 11.542 2.737.562.189 1.12.395 1.673.627.88.335 1.318 1.351.924 2.214a1.65 1.65 0 0 1-1.031.899c-2.29.692-4.616.846-6.938.712 0 0-3.353-.585-4.549 7.26-.162 1.067-.361 2.293-.337 3.698.034 2.087.243 4.171.271 6.261.154 7.734.215 15.463-.085 23.175-1.043 30.712-6.271 61.068-9.783 91.436-3.281 29.598-5.112 60.893 7.061 88.598.48 1.079.984 2.151 1.497 3.219 3.66-1.198 7.629-1.273 11.506.327 3.646 1.331 7.162 3.418 9.945 6.228q.687.693 1.308 1.446c1.424-1.378 2.722-2.907 4.293-4.056l.553-.331c1.362-.878 3.235.443 2.895 2.007-.726 3.718-3.569 6.208-6.203 8.627-.048.041-.738.698-1.116.906-3.736 2.952-8.013 5.147-12.542 6.559a46 46 0 0 1-3.736 1.02c-1.245.263-2.022.555-3.669.339-1.507-.163-3.202-1.568-3.42-3.239-.608-5.229 7.025-8.502 11.166-6.032.336.183.614.409.838.665a36.6 36.6 0 0 0 5.39-2.456c-2.449-2.766-5.907-4.586-9.462-5.633-8.478-2.288-18.229 8.953-16.526 17.1 1.479 8.851 9.425 12.131 17.677 9.851 1.831-.39 4.577-1.497 6.39-2.139 6.06-2.439 11.854-5.486 16.625-9.837.209-.191.427-.369.632-.564.888-.832 2.422-2.498 3.389-3.565a5 5 0 0 1 2.156-1.395l.451-.146c1.145-.406 2.373.662 2.149 1.847-.63 4.181-3.697 7.304-6.619 10.075-2.042 1.89-4.301 3.53-6.67 4.99 18.045 11.65 40.202 15.431 61.459 15.065 6.566-.112 16.177-.52 22.691-.38a1.577 1.577 0 0 1 1.551 1.646 1.58 1.58 0 0 1-1.127 1.44c-4.351 1.604-8.714 2.81-13.029 3.712l11.743 100.632q.02.18.022.36c.015 1.464.632 2.824 1.693 3.733.948.813 2.128 1.164 3.322.992a3 3 0 0 1 .255-.027l60.458-4.138c2.663-.428 6.514-2.519 6.507-6.638-.036-21.722-6.547-29.617-10.856-34.841-1.058-1.284-1.972-2.392-2.687-3.568a11.8 11.8 0 0 1-1.691-6.97l3.539-72.38c-1.661 1.185-3.374 2.274-5.375 2.823-.949.313-1.909.607-3.133.441-1.213-.153-1.99-1.444-1.562-2.588 1.206-2.846 3.62-4.487 6.014-6.153M309.358 319.007a5 5 0 0 1 1.115-.318 4.93 4.93 0 0 1 3.801.99c2.217 1.714 2.689 4.873 1.074 7.192a5.01 5.01 0 0 1-4.136 2.179 4.93 4.93 0 0 1-3.039-1.049 5.2 5.2 0 0 1-1.293-1.471 303 303 0 0 0-4.069 3.087 2.525 2.525 0 0 1-3.548-.454 2.53 2.53 0 0 1 .455-3.55s2.087-1.613 4.206-3.191c1.077-.802 4.537-3.23 5.434-3.415m-18.624-12.863c3.274-.486 6.311.141 9.323 1.35a2.186 2.186 0 0 1 1.168 2.864c-.369.886-1.232 1.358-2.128 1.351-2.88.134-6.167.387-8.695 1.732a3.39 3.39 0 0 1-4.498-1.648c-1.47-3.338 2.18-5.271 4.83-5.649m-10.172 33.036s2.087-1.613 4.206-3.191c1.078-.801 4.537-3.228 5.433-3.414a5 5 0 0 1 1.119-.32 4.95 4.95 0 0 1 3.8.992c2.214 1.713 2.686 4.871 1.074 7.189a5.01 5.01 0 0 1-4.138 2.182 4.95 4.95 0 0 1-3.039-1.05 5.2 5.2 0 0 1-1.293-1.47 295 295 0 0 0-4.068 3.086 2.525 2.525 0 0 1-3.549-.454 2.53 2.53 0 0 1 .455-3.55m-21.975-16.834c-.491.571-1.167 1.046-1.785 1.446a3.17 3.17 0 0 1-4.405-.834c-1.26-1.783-.087-3.962 1.156-5.309 1.896-2.089 8.532-5.904 9.665-1.447.225 1.083-.348 1.989-1.073 2.684-1.125 1.105-2.511 2.297-3.558 3.46"
  />
  <path
    fill="#F295FF"
    d="M283.738 722.937c-4.36 1.39-9.276 2.221-13.868 1.259-3.885 4.796-12.809 7.832-14.855 8.479-1.236.391-2.43 1.113-1.909 3.508.586 2.694 2.858 4.75 3.927 4.615 15.618-1.922 23.249-11.374 26.705-17.861"
  />
  <path
    fill="#000"
    d="M505.981 673.486a7.75 7.75 0 0 0 4.425 1.376c2.155 0 4.294-.88 5.807-2.557.119-.097 8.247-11.772 8.247-11.772l11.37 8.111-3.685 5.31a8 8 0 0 0-1.576-1.293 7.787 7.787 0 0 0-10.203 1.741 7.73 7.73 0 0 0-1.634 6.005 7.83 7.83 0 0 0 3.271 5.282 7.74 7.74 0 0 0 4.424 1.376c2.157-.001 4.297-.882 5.811-2.56.119-.098 12.578-18.014 12.578-18.014.203-.292.302-.64.296-.992a1.68 1.68 0 0 0-.609-1.845l-17.422-12.607a2.87 2.87 0 0 0-2.169-.472 2.88 2.88 0 0 0-1.866 1.2l-6.923 9.976a7.8 7.8 0 0 0-1.576-1.293 7.786 7.786 0 0 0-10.203 1.74 7.74 7.74 0 0 0-1.634 6.005 7.83 7.83 0 0 0 3.271 5.283"
  />
  <path
    fill="#000"
    d="M919.724 617.667a9.663 9.663 0 0 0-8.217 9.867 9.6 9.6 0 0 0 3.3 6.981 9.72 9.72 0 0 0 7.344 2.344c4.833-.489 8.589-4.585 8.698-9.405.033-.165-2.69-27.372-2.69-27.372l-.103-1.384a1.685 1.685 0 0 0-1.782-1.56l-28.4 2.019a3.25 3.25 0 0 0-2.206 1.186 3.25 3.25 0 0 0-.721 2.399l1.662 16.452a9.7 9.7 0 0 0-3.17-.042 9.66 9.66 0 0 0-8.217 9.867 9.6 9.6 0 0 0 3.3 6.981 9.72 9.72 0 0 0 7.344 2.344c4.834-.488 8.59-4.585 8.698-9.405.033-.165-1.855-19.106-1.855-19.106l19.246-1.416.939 9.292a9.7 9.7 0 0 0-3.17-.042"
  />
  <path
    fill="#FAD0E9"
    d="m212.594 679.199-37.014-83.777-8.889-4.725c-15.32 4.699-48.034 15.536-77.382 30.554l-3.015 9.338c2.74 6.002 6.91 14.478 10.998 22.786 9.613 19.535 21.181 43.051 28.022 61.119l9.436 5.015a894 894 0 0 0 4.153-1.926c7.411-3.453 17.561-8.183 31.969-14.175 15.028-6.25 29.732-11.848 38.862-15.245zm-16.828 10.51c-4.115-9.556-9.832-18.028-17.236-25.345a3.3 3.3 0 0 1-.587-.8q-.323.362-.645.719c-5.206 5.776-11.244 11.012-18.079 14.777a51.2 51.2 0 0 1-14.8 5.359c-.624 7.914-.461 15.808.667 23.677.571 3.988-5.525 5.696-6.1 1.682-1.174-8.195-1.529-16.326-.946-24.565-7.708.415-15.413-1.199-21.796-5.678-10.455-7.336-8.075-22.131-2.337-32.462-.477-.498-.806-1.17-.842-2.039l-.595-14.128c-.057-1.35 1.025-2.734 2.322-3.05 5.759-1.405 11.526-.541 16.459 2.314 4.774-4.151 10.205-7.23 16.255-9.169l.005-6.257c.002-2.395.267-5.091 3.063-5.769 2.975-.722 4.878 2.118 6.494 4.071l6.552 7.919c.134.161.237.328.334.496 13.786-1.607 28.642 7.747 25.334 23.329-1.122 5.284-4.125 10.032-7.553 14.322.437.14.868.384 1.268.779 7.759 7.669 13.908 16.603 18.225 26.625 1.595 3.703-3.856 6.921-5.462 3.193"
  />
  <path
    fill="#FAD0E9"
    d="M181.614 634.385c-3.467-5.723-10.325-7.651-16.656-6.745-1.336.191-2.407-.373-3.102-1.221-.903.235-1.896 0-2.708-.981l-4.587-5.543-.728-.88-.005 6.111c-.002 3.09-3.631 3.829-5.39 2.236a38.5 38.5 0 0 0-12.362 6.977c.478 1.429-.394 2.945-1.715 3.641.508.583.766 1.36.775 2.142a9.6 9.6 0 0 1 2.632-2.589c4.376-2.86 9.819-.884 14.648-1.527 4.029-.536 3.976 5.797 0 6.326-2.681.357-5.218-.083-7.893-.065-4.947.032-5.768 5.048-6.139 9.115-.484 5.311-.588 16.518 6.988 16.277 5.823-.186 11.915-5.095 15.665-9.134.792-.853 1.796-2.257 2.717-3.896-.338.125-.71.208-1.138.208-4.077 0-4.07-6.326 0-6.326 1.63 0 2.597 1.015 2.922 2.229 1.487-4.226 1.36-8.485-4.073-8.853-4.046-.274-4.063-6.6 0-6.325 10.84.734 13.336 12.598 8.9 20.906-4.495 8.419-15.079 17.205-24.993 17.516-12.363.388-14.219-14.053-13.212-23.521.263-2.474.636-5.171 1.553-7.576a3.06 3.06 0 0 1-1.628.445c-3.483 0-3.975-4.604-1.51-5.95-3.283-2.884-7.43-4.204-11.668-3.824l.294 6.985c2.431-.515 5.005 2.943 2.904 5.484-4.015 4.853-6.444 10.882-6.58 17.212-.147 6.889 2.687 11.033 9.054 13.542 10.257 4.041 21.997 2.027 31.448-3.182 9.289-5.12 17.684-13.303 23.449-22.195 3.33-5.136 5.584-11.33 2.138-17.019m-35.812 29.744c-4.077 0-4.07-6.326 0-6.326 4.077 0 4.07 6.326 0 6.326m12.832-30.089c-4.077 0-4.07-6.326 0-6.326 4.077 0 4.07 6.326 0 6.326"
  />
  <path fill="#C0167C" d="m81.32 613.558-6.055 18.752 3.013.973 6.055-18.751z" />
  <path
    fill="#000"
    d="m69.94 637.736 9.485 3.063a3.4 3.4 0 0 0 3.65-1.056c2.297 4.806 5.058 10.421 8.115 16.634 7.885 16.024 17.893 36.365 24.856 53.218-1.618-.719-3.536-.09-4.378 1.496l-4.678 8.8a3.397 3.397 0 0 0 1.406 4.598l23.405 12.44a3.4 3.4 0 0 0 2.589.249 3.4 3.4 0 0 0 2.008-1.655l4.678-8.801a3.4 3.4 0 0 0 .249-2.59c-.016-.052-.043-.097-.061-.147l.511-.239c7.357-3.427 17.432-8.122 31.708-14.06 12.453-5.178 24.678-9.905 33.657-13.29-.376 1.697.581 3.432 2.27 3.97l9.495 3.03a3.42 3.42 0 0 0 2.593-.219 3.4 3.4 0 0 0 1.68-1.987l8.055-25.252a3.4 3.4 0 0 0-2.206-4.272l-9.495-3.029a3.395 3.395 0 0 0-3.677 1.115l-31.17-70.55c.03-.008.06-.011.09-.02a3.4 3.4 0 0 0 2.008-1.656l4.678-8.801a3.4 3.4 0 0 0-1.407-4.598l-23.404-12.439a3.4 3.4 0 0 0-4.598 1.406l-4.677 8.801a3.4 3.4 0 0 0-.249 2.59c.21.689.639 1.28 1.206 1.709-15.897 5.092-41.78 14.148-66.334 26.112a3.39 3.39 0 0 0-2.34-3.201l-9.484-3.062a3.396 3.396 0 0 0-4.28 2.191l-8.144 25.222a3.4 3.4 0 0 0 2.19 4.28m11.38-24.178 3.013.973-6.054 18.752-3.014-.973zm83.654-31.474 1.487-2.796 17.4 9.248-1.486 2.796zm58.747 95.027-5.989 18.773-3.016-.962 5.989-18.773zm-90.245 49.422-1.486 2.796-17.4-9.248 1.486-2.796zm5.427-8.95a894 894 0 0 1-4.153 1.926l-9.436-5.015c-6.841-18.068-18.409-41.584-28.022-61.119-4.088-8.308-8.259-16.784-10.998-22.785l3.015-9.339c29.348-15.018 62.062-25.855 77.382-30.554l8.889 4.725 37.014 83.777-2.86 8.964c-9.13 3.397-23.834 8.995-38.862 15.245-14.408 5.992-24.558 10.722-31.969 14.175"
  />
  <path fill="#C0167C" d="m116.076 717.284-1.486 2.796 17.4 9.25 1.486-2.796z" />
  <path fill="#C0167C" d="m166.461 579.287-1.486 2.796 17.399 9.25 1.487-2.796z" />
  <path fill="#C0167C" d="m220.705 676.149-5.989 18.773 3.016.962 5.989-18.773z" />
  <path
    fill="#C0167C"
    d="M145.802 657.803c-4.07 0-4.077 6.326 0 6.326 4.07 0 4.077-6.326 0-6.326"
  />
  <path
    fill="#C0167C"
    d="M158.634 627.714c-4.07 0-4.077 6.326 0 6.326 4.07 0 4.077-6.326 0-6.326"
  />
  <path
    fill="#C0167C"
    d="M201.228 686.517c-4.317-10.023-10.466-18.957-18.225-26.625-.4-.396-.831-.64-1.268-.779 3.428-4.291 6.431-9.039 7.553-14.323 3.308-15.582-11.548-24.935-25.334-23.329a3.5 3.5 0 0 0-.334-.496l-6.552-7.919c-1.616-1.953-3.519-4.792-6.494-4.071-2.796.678-3.061 3.374-3.063 5.769l-.005 6.258c-6.05 1.939-11.481 5.017-16.255 9.168-4.933-2.855-10.7-3.719-16.459-2.314-1.297.316-2.379 1.701-2.322 3.05l.595 14.128c.036.869.365 1.541.842 2.039-5.738 10.331-8.118 25.126 2.337 32.463 6.383 4.478 14.087 6.092 21.795 5.677-.583 8.24-.227 16.371.947 24.565.575 4.014 6.671 2.307 6.1-1.681-1.128-7.87-1.291-15.764-.667-23.678a51.2 51.2 0 0 0 14.8-5.358c6.835-3.766 12.872-9.002 18.079-14.778q.322-.356.645-.719c.148.274.329.545.587.8 7.404 7.318 13.121 15.79 17.236 25.345 1.606 3.728 7.057.51 5.462-3.192m-45.201-12.918c-9.451 5.209-21.191 7.223-31.448 3.182-6.367-2.509-9.201-6.653-9.054-13.542.136-6.33 2.565-12.359 6.579-17.212 2.102-2.541-.472-5.999-2.903-5.484l-.294-6.985c4.238-.38 8.385.94 11.667 3.824-2.464 1.346-1.972 5.95 1.511 5.95.65 0 1.185-.174 1.628-.445-.917 2.405-1.29 5.102-1.553 7.576-1.007 9.468.849 23.909 13.212 23.521 9.913-.311 20.498-9.097 24.993-17.516 4.436-8.308 1.939-20.172-8.9-20.906-4.063-.275-4.046 6.051 0 6.325 5.433.368 5.559 4.627 4.073 8.853-.326-1.214-1.292-2.229-2.922-2.229-4.07 0-4.077 6.326 0 6.326.428 0 .8-.083 1.138-.208-.922 1.639-1.925 3.043-2.717 3.896-3.75 4.039-9.843 8.948-15.665 9.134-7.576.241-7.472-10.966-6.988-16.277.371-4.067 1.192-9.083 6.139-9.115 2.674-.018 5.212.422 7.893.065 3.976-.529 4.029-6.862 0-6.326-4.829.643-10.272-1.333-14.648 1.527a9.6 9.6 0 0 0-2.632 2.589c-.01-.782-.267-1.559-.775-2.142 1.321-.696 2.193-2.212 1.715-3.641a38.5 38.5 0 0 1 12.362-6.977c1.758 1.593 5.387.854 5.39-2.236l.005-6.111.728.88 4.587 5.543c.812.981 1.805 1.216 2.708.981.694.848 1.765 1.412 3.102 1.221 6.331-.906 13.189 1.022 16.655 6.745 3.447 5.689 1.193 11.883-2.137 17.019-5.766 8.892-14.16 17.075-23.449 22.195"
  />
</svg>
