<svg xmlns="http://www.w3.org/2000/svg" width="1020" height="770" fill="none" viewBox="0 0 1020 770"><path fill="#FFFBE8" d="M799.635 566.163c24.654 8.39 70.786 24.14 90.053 31.052q1.32.475 2.633.956c6.709 2.451 13.047 4.768 17.941 4.019 6.03-.919 11.918-5.729 13.124-10.721.792-3.28-.547-6.199-3.981-8.678-1.65-1.191-3.694-1.852-6.074-1.964a5.8 5.8 0 0 1-4.766-2.907 5.87 5.87 0 0 1-.142-5.64c2.851-5.549 9.099-19.406 5.563-28.194-1.29-3.209-3.815-5.421-7.718-6.764-16.586-5.705-32.817 3.478-39.026 7.691a5.9 5.9 0 0 1-5.908.412 5.77 5.77 0 0 1-3.252-4.886c-.521-8.662-5.783-13.18-15.642-13.427-8.168-.227-16.42 8.289-18.755 10.897a5.88 5.88 0 0 1-6.562 1.523c-1.681-.68-5.281-2.029-10.022-3.223-2.459 9.37-4.958 19.32-7.466 29.854"/><path fill="#64862A" d="M740.172 473.984c-2.35 8.545-4.757 17.49-7.172 26.705 9.957.933 19.87 2.666 29.502 5.427a120 120 0 0 1 10.774 3.798 3.52 3.52 0 0 1 2.017 4.553c-.715 1.864-2.848 2.749-4.677 1.97-8.942-3.434-18.252-5.986-27.695-7.807-3.804-.804-7.64-1.393-11.485-1.935q-.618 2.39-1.236 4.798l.414.065a143 143 0 0 1 10.336 2.253c3.384.953 6.875 1.55 9.923 3.617 1.805 1.174.945 4.112-1.189 4.142-3.545.22-6.736-.949-10.144-1.526-3.331-.631-6.66-1.234-10.003-1.679-.35-.049-.701-.093-1.051-.14-4.581 18.129-14.912 64.102-15.768 68.264 23.221 9.054 44.813 26.23 64.561 51.413 2.624-14.112 8.06-40.321 8.06-40.321 13.714-64.238 28.202-111.455 38.017-139.907-16.637 4.929-62.438 17.775-83.184 16.31m18.07 46.655a3.52 3.52 0 0 1 4.357-2.414l8.926 2.563a3.522 3.522 0 1 1-1.945 6.771l-8.925-2.563a3.52 3.52 0 0 1-2.413-4.357"/><path fill="#8CBA3B" d="M971.114 251.534c-4.606-1.171-7.942-5.161-8.3-9.927-.211-2.819-.329-5.89-.454-9.141-1.073-27.869-2.693-69.985-65.766-105.417-26.388-14.824-64.725-19.372-93.226-11.059-16.65 4.856-28.843 13.763-35.263 25.758-1.514 2.829-3.977 4.846-6.933 5.679-3.176.896-6.627.387-9.723-1.427-11.136-6.527-24.046-7.821-38.373-3.842-31.829 8.837-60.314 40.12-66.285 51.077-31.796 58.349-8.281 98.458 8.597 111.515 2.802 2.167 4.399 5.147 4.496 8.392.104 3.462-1.481 6.804-4.463 9.411-10.197 8.917-15.585 21.458-15.58 36.265.004 14.448 5.307 30.305 14.931 44.649 20.562 30.648 58.354 52.928 107.419 52.932 28.031.002 59.734-7.267 94.026-24.401a11.14 11.14 0 0 1 4.988-1.18c2.662 0 5.299.955 7.409 2.8 29.855 26.1 64.246 33.216 89.752 18.573 21.751-12.488 31.285-37.887 25.504-67.94-1.026-5.337 1.964-10.649 7.112-12.63 13.648-5.255 23.418-31.933 21.788-59.471-1.89-31.803-17.461-54.463-41.656-60.616M737.577 381.341c-.329 5.063-3.359 9.486-7.833 11.769.032 4.613-2.934 8.695-8.175 10.904-4.455 1.877-10.08 2.079-13.963-.385-1.697 1.189-3.81 1.83-6.16 1.83q-.616 0-1.254-.06c-4.94-.461-11.001-3.801-12.503-9.082a8.07 8.07 0 0 1 .456-5.729c-3.031-2.281-4.821-5.904-4.648-9.943.176-4.136 2.582-8.596 7.524-10.547.161-4.095 2.684-7.927 7.033-10.351 5.119-2.853 12.289-3.451 17.403.238 4.683-2.017 10.365-1.399 14.178 1.789 2.886 2.414 4.103 5.839 3.483 9.407 3.066 2.349 4.728 6.017 4.459 10.16m35.477-45.47c-.216 3.321-2.066 6.252-4.845 7.95-.314 3.023-2.401 5.685-5.8 7.117-2.824 1.188-6.335 1.385-9.041.086-1.112.593-2.405.907-3.809.907a10 10 0 0 1-.909-.043c-3.479-.325-7.763-2.731-8.85-6.551-.336-1.184-.338-2.358-.026-3.469-1.723-1.657-2.704-3.998-2.595-6.57.139-3.24 1.921-5.911 4.685-7.314.388-2.65 2.127-5.063 4.938-6.629 3.342-1.864 7.968-2.315 11.501-.185 3.184-1.083 6.863-.547 9.397 1.573 1.951 1.632 2.886 3.874 2.71 6.246 1.845 1.707 2.821 4.153 2.644 6.882"/><path fill="#FFFBE8" d="M227.21 448.943a294 294 0 0 1-10.282-19.343c-18.356 8.369-29.005 26.199-33.135 34.491a6.96 6.96 0 0 1-5.833 3.84c-2.503.137-4.8-1.034-6.154-3.136-4.988-7.738-11.122-10.378-17.167-10.378-4.992 0-9.924 1.8-14.102 4.015-11.023 5.841-15.57 22.956-16.701 28.063a6.92 6.92 0 0 1-5.855 5.352c-3.912.504-14.267 2.154-25.916 6.581-7.781 2.957-13.504 21.564-10.935 35.554.972 5.295 3.482 11.608 9.919 11.608 2.25 0 14.709-2.831 29.136-6.109 34.737-7.893 92.878-21.104 130.922-23.339 10.75-.632 19.789-2.798 26.054-6.186-19.997-17.202-36.808-38.236-49.951-61.013"/><path fill="#FFB921" d="M76.232 140.463c.404 11.649 5.32 22.444 13.841 30.396 8.522 7.952 19.622 12.096 31.281 11.706 11.649-.404 22.444-5.319 30.395-13.841 7.952-8.523 12.109-19.632 11.706-31.281s-5.319-22.444-13.841-30.396c-8.144-7.598-18.651-11.732-29.732-11.732q-.773 0-1.548.027c-24.048.833-42.934 21.074-42.102 45.121"/><path fill="#4C4C4C" d="M69.192 140.707c.947 27.336 23.484 48.929 50.629 48.929q.885 0 1.777-.031c27.929-.967 49.864-24.476 48.897-52.406-.468-13.529-6.178-26.067-16.076-35.302-9.897-9.236-22.794-14.064-36.329-13.595-27.93.967-49.865 24.476-48.898 52.405m49.142-45.365a45 45 0 0 1 1.547-.027c11.082 0 21.589 4.134 29.733 11.732 8.522 7.952 13.437 18.747 13.841 30.396s-3.754 22.758-11.706 31.281c-7.951 8.522-18.746 13.437-30.395 13.841-11.659.39-22.759-3.754-31.28-11.706-8.523-7.952-13.438-18.747-13.842-30.396-.832-24.047 18.054-44.288 42.102-45.121"/><path fill="#5B5B5B" d="M56.054 138.634a3.522 3.522 0 0 0 .212-7.037l-10.981-.674a3.522 3.522 0 1 0-.431 7.031l10.981.674q.11.006.22.006"/><path fill="#5B5B5B" d="M178.576 142.632a3.52 3.52 0 0 0 3.299 3.731l11.2.688q.11.006.219.006a3.523 3.523 0 0 0 .213-7.037l-11.2-.688a3.52 3.52 0 0 0-3.731 3.3"/><path fill="#5B5B5B" d="m42.725 109.467 16.864 7.107a3.524 3.524 0 0 0 2.735-6.492l-16.864-7.106a3.521 3.521 0 1 0-2.735 6.491"/><path fill="#5B5B5B" d="M194.187 172.994a3.522 3.522 0 0 0 1.37-6.768l-16.865-7.107a3.523 3.523 0 0 0-2.735 6.492l16.864 7.106c.447.188.91.277 1.366.277"/><path fill="#5B5B5B" d="M68.155 101.476a3.5 3.5 0 0 0 2.242.807 3.522 3.522 0 0 0 2.245-6.237l-8.905-7.358a3.522 3.522 0 1 0-4.486 5.43z"/><path fill="#5B5B5B" d="M176.647 190.08a3.522 3.522 0 0 0 2.245-6.238l-8.905-7.358a3.522 3.522 0 1 0-4.487 5.431l8.905 7.358a3.5 3.5 0 0 0 2.242.807"/><path fill="#5B5B5B" d="M80.882 88.576a3.52 3.52 0 0 0 4.889.954 3.52 3.52 0 0 0 .954-4.889l-10.222-15.18a3.523 3.523 0 0 0-5.843 3.935z"/><path fill="#5B5B5B" d="M152.371 188.43a3.523 3.523 0 0 0-.955 4.889l10.223 15.179a3.52 3.52 0 0 0 4.888.955 3.523 3.523 0 0 0 .955-4.889l-10.222-15.18a3.52 3.52 0 0 0-4.889-.954"/><path fill="#5B5B5B" d="m108.527 201.624-1.063 10.951a3.523 3.523 0 0 0 7.012.681l1.063-10.951a3.522 3.522 0 0 0-7.012-.681"/><path fill="#5B5B5B" d="M123.893 79.783a3.523 3.523 0 0 0 3.846-3.165l1.084-11.168a3.523 3.523 0 0 0-7.012-.681l-1.084 11.168a3.524 3.524 0 0 0 3.166 3.846"/><path fill="#5B5B5B" d="M81.254 216.086a3.523 3.523 0 0 0 4.677-1.713l7.7-16.601a3.523 3.523 0 0 0-6.39-2.964l-7.7 16.601a3.52 3.52 0 0 0 1.713 4.677"/><path fill="#5B5B5B" d="M142.087 84.928a3.52 3.52 0 0 0 4.677-1.713l7.7-16.601a3.523 3.523 0 0 0-6.39-2.965l-7.7 16.602a3.523 3.523 0 0 0 1.713 4.677"/><path fill="#5B5B5B" d="M68.542 198.498c.973 0 1.94-.4 2.636-1.184l7.67-8.639a3.522 3.522 0 1 0-5.268-4.677l-7.67 8.639a3.522 3.522 0 0 0 2.632 5.861"/><path fill="#5B5B5B" d="M160.051 95.428c.973 0 1.94-.4 2.636-1.184l7.669-8.639a3.523 3.523 0 0 0-5.268-4.677l-7.669 8.64a3.523 3.523 0 0 0 2.632 5.86"/><path fill="#5B5B5B" d="M49.015 185.709a3.5 3.5 0 0 0 1.86-.533l15.531-9.678a3.52 3.52 0 1 0-3.725-5.978l-15.532 9.677a3.522 3.522 0 0 0 1.866 6.512"/><path fill="#5B5B5B" d="M168.733 107.595a3.517 3.517 0 0 0 4.851 1.127l15.533-9.677a3.523 3.523 0 0 0-3.725-5.978l-15.532 9.676a3.52 3.52 0 0 0-1.127 4.852"/><path fill="#F295FF" d="M547.293 525.703c4.67-1.498 9.284-3.154 13.822-4.814 6.194-2.298 12.382-4.731 18.699-7.014l-20.021-51.771c-1.107.48-5.288 2.152-6.336 2.581.035.214.026.5-.034.878-1.143 7.161-5.856 16.588-10.974 25.171z"/><path fill="#fff" d="M646.369 494.352c1.355 1.12 2.927 1.203 4.006 1.078 2.339-.273 4.658-1.724 6.364-3.979 2.993-3.958 3.11-9.294.256-11.653-1.069-.882-2.272-1.122-3.263-1.122-.266 0-.516.018-.745.044-2.338.274-4.657 1.724-6.363 3.98-2.993 3.957-3.11 9.293-.255 11.652"/><path fill="#fff" d="M657.034 508.879c-2.993 3.957-3.11 9.293-.255 11.652 1.355 1.12 2.927 1.204 4.007 1.078 2.338-.274 4.657-1.724 6.362-3.98 2.993-3.957 3.11-9.293.256-11.652-1.068-.883-2.271-1.122-3.262-1.122-.266 0-.517.017-.745.044-2.338.273-4.657 1.724-6.363 3.98"/><path fill="#fff" d="M635.032 468.407c1.386 1.057 2.948 1.078 4.013.91 2.326-.368 4.588-1.918 6.207-4.254 2.836-4.092 2.747-9.442-.193-11.684-1.386-1.057-2.947-1.077-4.012-.91-2.326.368-4.589 1.918-6.208 4.254-2.835 4.092-2.747 9.443.193 11.684"/><path fill="#fff" d="M622.572 443.126c1.385 1.057 2.948 1.078 4.012.91 2.327-.368 4.589-1.919 6.208-4.254 2.836-4.092 2.747-9.443-.193-11.685-1.386-1.056-2.945-1.077-4.012-.909-2.326.368-4.589 1.918-6.208 4.254-2.836 4.092-2.747 9.443.193 11.684"/><path fill="#8CBA3B" d="m532.018 506.688 2.639 25.027c2.607-.803 4.656-1.646 6.04-2.286l-4.08-29.454a280 280 0 0 1-4.599 6.713"/><path fill="#8CBA3B" d="M505.809 537.666c7.056 1.436 15.652 1.602 22.511 1.125l-1.891-17.931c-7.112 7.641-15.757 13.687-20.62 16.806"/><path fill="#F295FF" d="M600.039 372.057c6.716-10.202 12.5-14.052 16.104-15.495-.323-2.212-1.216-5.146-3.673-5.59-7.775-1.407-13.795 7.461-18.19 13.938-1.193 1.757-2.319 3.417-3.376 4.718-.988 1.216-1.961 2.406-2.964 3.423.534 5.531-.985 9.763-2.933 12.81 4.913-2.31 10.211-6.48 15.032-13.804"/><path fill="#F295FF" d="m546.899 374.949-.176.187.291-.07c-.067-.079-.115-.117-.115-.117"/><path fill="#F295FF" d="M364.385 510.201a3.52 3.52 0 0 1 3.932-.035l2.998 1.977a77 77 0 0 1 3.176-4.717c.821-1.124 2.371-2.513 5.094-2.743q.43-.038.928-.034c2.895-5.831 6.327-11.286 10.439-16.196 5.072-5.828 11.514-10.664 18.781-13.465a2.323 2.323 0 0 1 1.833 4.267c-6.383 2.918-11.857 7.425-16.254 12.877-3.315 4.289-6.139 9.007-8.559 14.038 5.569 2.31 14.462 7.851 29.496 20.482 8.803 7.396 16.935 14.919 21.279 19.015 1.113-2.726 2.487-5.292 4.189-7.637 2.503-3.4 6.36-6.446 10.84-6.133 1.551.084 2.337 2.079 1.264 3.199-1.716 2.186-3.393 3.699-5.026 5.526-.153.29-.263.667-.119 1.044.113.293.405.662 1.077 1.03 3.94-.574 7.915-1.338 11.528-2.55 1.366-.456 4.716-1.601 6.028-2.041 3.207-1.269 6.464-2.592 9.649-4.018 25.04-10.988 49.398-28.181 59.282-54.61 9.074-25.944 9.615-55.546-.02-81.384-1.487-4.131 4.255-6.651 6.334-2.977 3.474-.198 11.871-1.529 24.921-8.864 6.881-3.868 10.627-9.128 10.279-14.434-.264-4.027-2.881-7.417-7.001-9.067-4.406-1.762-16.279.285-21.142 5.581-3.399 3.703-3.232 5.973-2.596 6.734 1.274-.317 2.61-.7 4.005-1.168q.021-.156.056-.312c1.168-5.172 7.875-7.265 13.264-7.486 1.475-.062 4.94-.203 5.877 2.782.505 1.609-.158 3.33-1.65 4.281-13.086 8.341-24.188 10.181-31.059 10.304 1.162 2.82 1.337 5.357-1.456 6.001-.745.1-1.46-.121-2.005-.557-2.331-1.899-3.887-4.839-5.6-7.256-2.836-4.098-5.737-8.159-8.973-11.964-20.707-24.332-55.674-33.004-86.227-37.533-8.857-1.426-17.872-2.219-26.786-3.807-2.522 1.536-5.348 3.564-7.752 6.066a3.5 3.5 0 0 1-1.519 1.842c-.043.026-.089.044-.133.067-.19 3.306-.35 6.613-.453 9.921-.388 7.549.17 18.942-1.373 26.327-.378 1.991-3.345 2.296-3.989.255-1.482-4.457-1.578-8.925-1.747-13.401-.124-4.472-.078-8.946.121-13.412.139-3.634.335-7.267.559-10.898l-47.864-16.758a579 579 0 0 0-2.803 20.153c-1.499 13.008-2.647 26.098-1.676 39.114.319 3.483.813 9.204 1.052 12.747.112 1.078-.707 2.055-1.795 2.11a1.92 1.92 0 0 1-1.767-.959c-2.377-4.154-3.32-8.806-3.758-13.338-1.217-13.495-.262-27.069 1.098-40.445a550 550 0 0 1 3.027-22.257c-5.393-.936-17.164-11.243-22.695-16.321a62 62 0 0 1-4.556-3.786c-6.226-5.603-11.511-12.192-15.047-19.249-6.611-1.58-14.209-5.873-19.957-8.337a1598 1598 0 0 0-22.229-9.977c-12.779-5.583-25.597-11.138-38.558-16.065-4.921 4.311-9.208 9.293-12.503 14.997-2.954 5.27-5.032 10.658-8.82 15.655-7.802 11.1-21.139 14.178-34 13.659-3.723-.098-7.399-.417-11.04-.871 1.154.736 2.294 1.463 3.406 2.166 1.489.937 5.561 3.504 6.066 3.967 1.46 1.379 2.599 3.531 2.444 5.588-.306 20.172-.021 40.694-4.325 60.556-1.407 5.089-2.762 11.424-6.66 15.435 11.892 4.446 24.67 7.161 37.254 6.995 39.357-1.003 77.675-20.352 102.804-50.531a152.6 152.6 0 0 0 13.57-19.239c.918-1.586 2.99-2.182 4.545-1.404 3.153 1.319 5.953 3.583 7.685 6.54 1.198 2.006-1.301 4.169-3.104 2.731-1.006-.835-2.134-1.481-3.356-1.868a14 14 0 0 0-.823-.238c-24.962 38.742-67.712 65.671-113.723 69.827 0 0-.055.063-.114.174s-.124.271-.142.464c-.035.387.113.909.85 1.449.092.067.208.091.314.135 8.336 3.376 17.039 6.259 26.08 6.581 1.911.086 4.03.061 5.926-.114 1.034-.077 2.175-.242 3.142-.386 2.526-.363 3.546 3.199 1.231 4.234-4.4 1.825-9.26 2.626-14.223 2.568 1.265 7.208 6.897 22.98 14.879 38.529 22.744 40.749 55.667 75.886 98.764 94.996 7.11 3.267 14.491 5.656 21.655 9.061.315-2.58.77-5.602 1.428-8.78 2.539-12.248 6.754-20.466 12.528-24.425m88.092-152.055a4.02 4.02 0 0 1 4.798-.974c7.509 3.601 10.642 3.406 17.643-1.1a4.02 4.02 0 0 1 4.883.369 4.024 4.024 0 0 1 .975 4.798c-3.601 7.509-3.405 10.642 1.1 17.644a4.024 4.024 0 0 1-.369 4.883 4.025 4.025 0 0 1-4.799.974c-7.506-3.599-10.641-3.404-17.644 1.101a4.06 4.06 0 0 1-2.202.654 4.04 4.04 0 0 1-2.68-1.024 4.02 4.02 0 0 1-.973-4.8c3.6-7.507 3.404-10.64-1.102-17.642a4.026 4.026 0 0 1 .37-4.883m-221.164-84.739a2.63 2.63 0 0 1-3.173 1.874 146 146 0 0 0-6.293-1.355c-.016.339-.037.68-.094 1.034-.206 1.279-.656 2.439-1.303 3.355-.925 1.308-2.242 2.042-3.615 2.042q-.306 0-.615-.05c-2.639-.424-4.144-3.288-3.578-6.81.451-2.807 2.13-4.487 3.977-5.278.52-.223 1.048-.472 1.657-.433 3.896.443 7.423 1.451 11.174 2.401a2.63 2.63 0 0 1 1.863 3.22m25.235 8.407a2.63 2.63 0 0 1-3.172 1.874 146 146 0 0 0-6.284-1.353 9 9 0 0 1-.104 1.033c-.205 1.278-.655 2.438-1.302 3.354-.925 1.308-2.242 2.042-3.615 2.042a4 4 0 0 1-.615-.05c-2.639-.424-4.144-3.288-3.578-6.81.205-1.278.655-2.438 1.302-3.354.707-.999 1.699-1.494 2.658-1.912.526-.229 1.058-.484 1.674-.445 3.896.443 7.423 1.451 11.174 2.402a2.63 2.63 0 0 1 1.862 3.219"/><path fill="#F295FF" d="M290.323 236.226a1.81 1.81 0 0 1 3.418.779c.216 3.311.049 6.541.25 9.525.159 8.92 1.529 17.961 5.506 26.014 7.478 14.656 21.212 25.488 36.835 30.209l2.663-20.032a3.52 3.52 0 0 1 3.259-3.05l.013-.001c3.118-14.944 6.624-29.809 10.292-44.633a512 512 0 0 1-11.836-2.106c-14.833-2.875-45.102-11.223-45.201-11.239-7.517-1.116-15.096-1.85-22.71-1.688-6.627.118-13.261.869-19.756 2.254 12.368 5.167 24.053 11.36 35.583 18.1a25.3 25.3 0 0 1 1.684-4.132"/><path fill="#DB00F8" d="m152.786 302.323.067-5.443a6 6 0 0 0-.004-.426c-.095-.394-.48-.918-.817-1.211-5.432-3.123-11.926-6.484-17.717-9.808-.484 1.912-.556 4.612-.771 6.565-1.358 20.189-3.809 41.446-2.262 61.463.663 5.601 1.69 11.036 5.503 14.971.946.961 2.078 1.958 3.168 2.146.429.062 3.248-2.992 4.221-4.937 4.018-9.606 5.22-20.4 6.55-30.843 1.182-10.751 1.892-21.635 2.062-32.477m-7.606 20.285a1305 1305 0 0 0-.608 8.87c-.279 4.326-.626 9.686-5.318 9.686q-.163 0-.334-.009c-4.506-.232-4.4-4.267-4.277-8.94l.031-1.205c.117-4.629.754-19.967 4.024-22.996a4.14 4.14 0 0 1 3.023-1.111 4.2 4.2 0 0 1 2.847 1.377c1.509 1.707 1.424 2.901.612 14.328"/><path fill="#8CBA3B" d="M276.271 261.718c3.037 1.526 9.849 4.579 14.065 6.874a64.6 64.6 0 0 1-2.604-11.818c-.36-2.963-.575-5.988-.421-8.982a417 417 0 0 0-8.56-4.713c-10.156-5.467-20.666-10.73-31.347-14.87-5.112-1.91-10.392-3.86-15.685-4.143-3.321-.104-5.607 1.968-8.384 3.688-2.943 2.06-5.797 4.359-8.558 6.739 13.316 5.185 26.338 10.937 39.328 16.859a1619 1619 0 0 1 22.166 10.366"/><path fill="#F295FF" d="m433.34 571.414-60.572-5.122c-.265 2.787-1.376 17.519-1.681 21.954l62.642-5.553c-.141-2.256-.396-9.79-.389-11.279"/><path fill="#8CBA3B" d="M610.879 470.892a4.368 4.368 0 1 0 5.011 7.157 4.369 4.369 0 0 0-5.011-7.157"/><path fill="#8CBA3B" d="M598.396 465.12c-3.408 5.682-1.193 12.329-.928 13.068a3.507 3.507 0 0 0 4.478 2.129 3.53 3.53 0 0 0 2.162-4.478c-.4-1.165-1.118-4.715.344-7.121 1.013-1.665 3.06-2.736 6.084-3.185a3.522 3.522 0 1 0-1.034-6.968c-5.225.775-8.961 2.981-11.106 6.555"/><path fill="#8CBA3B" d="M589.05 483.459c.515 0 1.039-.113 1.535-.352a3.53 3.53 0 0 0 1.645-4.694c-.023-.048-2.239-4.8-.929-9.953 1.435-5.642 5.155-12.769 14.734-14.679a3.522 3.522 0 0 0-1.378-6.909c-10.282 2.051-17.449 9.101-20.182 19.852-1.964 7.721 1.281 14.484 1.42 14.768a3.51 3.51 0 0 0 3.155 1.967"/><path fill="#FFFBE8" d="M460.58 378.221c4.737-2.227 8.699-2.474 13.676-.854-2.227-4.737-2.473-8.699-.853-13.676-4.736 2.227-8.699 2.474-13.676.854 2.226 4.736 2.473 8.699.853 13.676"/><path fill="#4C4C4C" d="M453.208 380.671a4.02 4.02 0 0 0 .974 4.799 4.04 4.04 0 0 0 2.68 1.025c.758 0 1.521-.216 2.202-.654 7.003-4.505 10.137-4.7 17.643-1.102a4.025 4.025 0 0 0 4.8-.974 4.02 4.02 0 0 0 .369-4.882c-4.506-7.003-4.701-10.135-1.1-17.644a4.025 4.025 0 0 0-.975-4.799 4.02 4.02 0 0 0-4.883-.368c-7.001 4.506-10.134 4.701-17.643 1.1a4.02 4.02 0 0 0-4.798.974 4.026 4.026 0 0 0-.37 4.883c4.506 7.002 4.701 10.135 1.101 17.642m20.195-16.98c-1.62 4.977-1.373 8.939.853 13.676-4.977-1.621-8.939-1.373-13.676.853 1.62-4.976 1.373-8.939-.853-13.675 4.977 1.62 8.94 1.373 13.676-.854"/><path fill="#8CBA3B" d="M406.176 551.458a3.52 3.52 0 0 1-3.101 2.049l-34.932.977a47 47 0 0 0 .709 4.408l65.211 5.514.689-11.663c-3.331-3.182-13.395-12.675-24.256-21.719-23.573-19.629-29.587-19.479-30.41-19.316a70 70 0 0 0-2.892 4.315l32.213 21.254a3.52 3.52 0 0 1 1.261 4.411z"/><path fill="#4C4C4C" d="M1019.8 311.732c-2.08-35.021-19.63-60.077-46.95-67.025-1.67-.425-2.88-1.883-3.011-3.629-.202-2.689-.318-5.698-.441-8.883-1.064-27.649-2.844-73.924-69.355-111.288-27.905-15.676-68.471-20.48-98.648-11.679-18.508 5.398-32.168 15.494-39.501 29.197-.62 1.156-1.505 1.904-2.633 2.222-1.314.369-2.822.112-4.251-.724-12.843-7.529-27.585-9.061-43.818-4.553-34.317 9.529-63.992 42.394-70.586 54.494-34.069 62.517-8.048 106.13 10.471 120.457.782.605 1.724 1.622 1.766 3.032.04 1.318-.692 2.702-2.059 3.897-11.773 10.295-17.993 24.67-17.988 41.57.005 15.83 5.732 33.08 16.126 48.572 17.984 26.806 48.33 47.603 87.433 54.02-3.38 12.077-6.93 25.12-10.493 38.753-3.886-.18-7.782-.125-11.721.469-1.909.281-1.933 3.072-.038 3.402 3.424.681 6.868 1.202 10.315 1.687q-.615 2.38-1.229 4.781c-4.677-.541-9.387-.796-14.099-.419-4.536.587-4.002 7.17.565 7.018 3.92-.164 7.852-.009 11.773.331-4.452 17.66-15.007 64.756-15.404 66.679-13.535-4.314-27.599-5.949-42.157-4.858-36.404 2.725-69.607 21.828-94.464 38.165-3.049 2.003-6.607 4.655-10.514 7.773-27.387-24.941-57.747-36.326-90.604-33.861-9.044.677-17.89 2.366-26.46 4.771-.067-.904-.127-1.72-.172-2.385-.375-5.866-.869-17.672-.869-17.672-.041-2.437-.047-4.871.046-7.295.016-.109.045-.214.052-.324l.301-5.106a79 79 0 0 1 1.301-8.779c1.203-1.711 3.124-3.59 6.06-4.571 5.086-.666 10.014-1.492 15.04-3.168 2.32-.829 5.943-1.907 8.18-2.892 5.646-2.26 11.247-4.738 16.715-7.485 6.4 8.068 21.471 9.665 32.3 9.665 5.917 0 10.561-.472 11.811-.612a3.52 3.52 0 0 0 3.11-3.869l-.294-2.789c6.554-1.858 10.51-4.122 10.908-4.356a3.5 3.5 0 0 0 1.506-1.804c12.65-3.945 37.481-13.225 37.962-13.423.744-.304 18.354-7.14 32.692 23.458 1.405 2.999 3.866 5.098 7.117 6.072 1.473.441 3.077.635 4.76.635 11.494 0 26.63-9.06 28.544-10.235a3.52 3.52 0 0 0 1.478-4.174c-.776-2.197-1.541-4.344-2.3-6.454a12.7 12.7 0 0 0 3.53.066c4.237-.495 8.306-2.948 11.164-6.728 5.288-6.993 4.895-16.562-.877-21.331-2.552-2.11-5.859-3.05-9.311-2.645-.995.117-1.979.35-2.941.674a18.6 18.6 0 0 0 2.72-2.876c5.288-6.994 4.894-16.563-.877-21.332-2.552-2.109-5.854-3.049-9.313-2.644-1.934.226-3.828.878-5.593 1.861a18.2 18.2 0 0 0 4.466-4.51c4.999-7.213 4.231-16.768-1.711-21.298-2.626-2.002-5.959-2.804-9.382-2.266-1.345.212-2.659.644-3.921 1.234a18.7 18.7 0 0 0 2.554-2.951c5-7.213 4.231-16.768-1.712-21.299-2.625-2-5.957-2.805-9.382-2.265-4.216.666-8.189 3.29-10.898 7.2a18.7 18.7 0 0 0-2.372 4.774 3.52 3.52 0 0 0-2.695-.332c-6.302 1.787-50.004 19.536-51.861 20.291a3.51 3.51 0 0 0-2.17 3.539c-.67.305-4.359 1.749-5.086 2.085-2.094.134-3.29-.816-3.29-2.075 2.412-17.952 1.157-36.419-4.148-53.718 4.416-.517 11.572-2.219 21.444-7.203 1.423.3 3.756.665 6.697.665 8.485 0 21.966-3.047 32.814-19.526 7.687-11.677 13.301-13.04 14.022-13.17.925.062 1.683-.259 2.384-.875.722-.634.992-1.543 1.033-2.503.213-5.012-1.575-13.883-9.637-15.342-12.283-2.225-20.102 9.293-25.273 16.914-1.105 1.629-2.149 3.167-3.015 4.232-.487.599-1.021 1.256-1.525 1.852-1.639-4.807-5.411-8.772-10.539-10.826-7.153-2.866-22.218.025-28.95 7.356-4.712 5.133-5.301 9.582-4.493 12.698-2.958.255-5.206.128-6.578-.025a44 44 0 0 1-.723-1.122 123.7 123.7 0 0 0-14.305-17.027c-23.164-20.551-54.234-28.579-84.047-32.902-8.398-1.355-16.898-2.142-25.223-3.551 3.781-10.965 4.258-28.608 4.304-30.859a3.5 3.5 0 0 0-.522-1.883c2.504-4.001 4.57-8.274 6.759-12.197 1.975-3.461 4.112-6.355 6.951-8.726.761-.607 2.464-2.102 3.263-2.749 4.352-3.724 8.569-7.538 12.621-11.626 2.701-2.74 5.333-5.576 7.785-8.728 2.279-3.057 4.771-6.419 5.399-10.452.84-5.441-3.782-8.489-8.491-8.246-4.38.067-7.796 1.372-11.847 2.276a143 143 0 0 1-10.945 1.84c4.023-5.906 8.383-11.895 10.3-18.961.573-2.022.441-4.313-.437-6.215l51.176-5.069c9.65-.956 16.723-9.585 15.767-19.235-.387-3.915-2.051-7.391-4.52-10.093l3.244-.322a17.47 17.47 0 0 0 11.867-6.351 17.47 17.47 0 0 0 3.9-12.882 17.47 17.47 0 0 0-6.352-11.867 17.46 17.46 0 0 0-12.882-3.9l-150.756 14.934c-9.649.956-16.722 9.584-15.766 19.234a17.48 17.48 0 0 0 4.504 10.095l-3.228.32c-9.649.956-16.722 9.584-15.767 19.234.898 9.063 8.564 15.853 17.487 15.853q.868 0 1.747-.087l24.167-2.393a8.5 8.5 0 0 0-1.152 2.75l-.403 1.554c-.355 1.273-1.721 6.618-2.814 10.88-19.454-3.106-57.523-12.582-57.715-12.62-3.967-.796-7.99-1.273-12.02-1.53-13.997-.636-28.127.997-41.562 4.987a68 68 0 0 0-4.651-1.272c-4.347-1.055-9.803-1.603-13.992.817-7.378 3.939-13.377 9.345-19.503 14.905-1.836 1.636-1.442 4.705.543 5.957-5.235 4.89-9.717 10.546-12.947 16.973-3.585 7.509-7.474 15.618-14.19 19.603-12.241 7.209-29.128 4.901-42.897 3.003-1.33-.465-2.926-.365-4.134.192-3.562 1.755-3.755 6.213-4.186 9.494-.223 1.994-1.195 13.347-1.396 15.569-.543 7.35-1.519 17.691-1.744 24.979-.151 13.612-2.671 33.86 7.792 44.63 1.96 1.915 7.597 4.12 7.73 4.119 13.316 5.198 27.289 8.453 41.622 8.64 5.286 5.691 12.731 10.085 20.748 12.511 1.147.826 2.604 2.191 3.748 4.317a285 285 0 0 0 8.26 20.151c-7.19 3.266-13.888 8.063-20.017 14.346-7.942 8.142-13.243 17.082-16.318 23.219-9.239-14.13-23.929-17.25-40.345-8.551-13.259 7.027-18.572 25.104-20.258 32.666-5.2.676-15.587 2.474-27.419 6.97-12.08 4.591-18.28 27.503-15.36 43.411 2.028 11.045 8.169 17.38 16.848 17.38 2.91 0 12.018-2.04 30.696-6.284 34.526-7.845 92.311-20.975 129.775-23.176 9.455-.556 22.215-2.505 31.39-8.446 13.113 10.48 27.497 19.328 43.041 25.991 7.726 3.318 15.598 6.523 23.983 7.613a75 75 0 0 0-.18 2.921 3.524 3.524 0 0 0 3.52 3.646l.099-.002 7.722-.216c.523 5.051 1.489 8.211 1.608 8.582a3.52 3.52 0 0 0 3.058 2.437l.056.005c-.433 4.589-1.492 20.083-1.684 23.23a3.544 3.544 0 0 0-2.502 3.685c.086 1.03 1.709 25.281-32.459 30.214-3.619.522-6.661 2.434-8.797 5.527-7.286 10.552-2.646 32.724-2.081 35.268-50.355 9.208-97.799 21.279-139.829 33.8 2.637-20.499.001-25.574-3.077-27.634-1.787-1.196-4.812-1.96-9.079 1.183-6.036 4.449-9.955 12.206-11.733 23.105a91 91 0 0 1-.293-5.707c-.457-23.503 8.145-41.553 25.569-53.717-.408 1.055-1.007 2.245-1.871 3.553-4.33 6.558-3.699 15.604 1.534 21.998 3.268 3.994 7.697 6.114 12.353 6.114 2.026 0 4.094-.401 6.129-1.224 9.867-3.992 10.423-11.219 10.869-17.026.246-3.191.458-5.948 1.978-8.221 1.251-1.869 3.523-1.736 8.791-.954 5.703.848 12.8 1.902 19.408-2.901 6.862-4.987 9.79-14.584 6.962-22.819-2.741-7.983-10.215-12.567-19.977-12.232a58 58 0 0 1-4.185 0c4.365-2.578 9.595-5.268 15.841-7.955.283 1.093.741 2.16 1.404 3.15a10.32 10.32 0 0 0 8.591 4.574c1.974 0 3.969-.564 5.729-1.743 4.728-3.168 5.997-9.591 2.831-14.319-3.169-4.73-9.593-5.998-14.32-2.831a10.3 10.3 0 0 0-2.937 3.001c-10.143 4.078-18.051 8.255-24.18 12.172-.075-1.663.155-3.913.414-6.377.277-2.641.591-5.634.693-9.075.163-5.445-2.245-10.023-6.607-12.559-4.906-2.855-11.389-2.536-16.918.831-6.167 3.754-6.885 10.298-7.518 16.072-.447 4.082-.87 7.939-3.005 10.658-2.239 2.853-3.124 2.423-6.059.999-7.494-3.635-15.819-.734-21.729 7.569-3.606 5.065-3.861 12.273-.62 17.53 3.379 5.482 9.809 7.934 17.64 6.73 1.798-.277 3.301-.38 4.541-.358-19.149 13.495-28.948 34.047-28.39 59.719.141 6.464.915 12.503 1.912 17.758l-.753.241c-2.1-.605-4.319-.497-6.532.351-1.76.673-3.167 1.738-4.174 3.134-54.35 17.912-95.924 35.062-117.36 44.402-11.725 5.109-18.271 8.239-18.336 8.27a3.521 3.521 0 0 0 1.521 6.698h975.474a3.52 3.52 0 0 0 1.521-6.698s-.872-.418-2.546-1.195h-.002c-7.524-3.492-33.001-15.04-71.194-29.551-5.071-16.533-15.238-39.458-33.41-44.216-6.482-1.697-12.791-2.224-19.472-2.783-20.457-1.709-41.587-3.497-70.818-39.837a1559 1559 0 0 1 7.331-37.67s5.061-23.647 7.607-34.588c24.787 8.437 70.24 23.958 89.296 30.794q1.3.469 2.595.942c6.185 2.26 12.55 4.585 18.434 4.585 1.01 0 2.007-.069 2.985-.218 8.901-1.357 17.031-8.249 18.91-16.031 1.465-6.063-.98-11.91-6.705-16.044-2.289-1.652-5.05-2.718-8.064-3.126 4.036-8.247 9.237-22.107 5.057-32.497-2.069-5.144-6.094-8.776-11.962-10.795-18.237-6.276-35.617 2.354-43.645 7.455-.908-6.504-5-17.612-22.297-18.046-10.343-.255-19.618 8.296-23.622 12.626a86 86 0 0 0-10.087-3.203c9.737-36.275 18.697-63.132 24.784-79.947 8.39-3.161 16.952-6.889 25.673-11.247 1.508-.754 3.318-.509 4.612.622 16.35 14.295 34.384 23.476 52.149 26.552 4.532.785 8.995 1.175 13.361 1.175 11.737-.001 22.755-2.818 32.387-8.348 24.48-14.056 35.289-42.235 28.914-75.38-.382-1.983.764-3.971 2.725-4.726 16.847-6.487 28.147-35.06 26.287-66.462M629.049 452.711c-.51.737-.945 1.502-1.336 2.28a319 319 0 0 0-1.938-3.84 13 13 0 0 0 1.909-.157c1.345-.213 2.659-.645 3.921-1.234a18.6 18.6 0 0 0-2.556 2.951m11.956 25.74a19 19 0 0 0-1.498 2.346q-.959-2.251-1.882-4.376c.149.006.297.018.447.018q1.025 0 2.072-.165c1.678-.265 3.313-.852 4.849-1.694a18.3 18.3 0 0 0-3.988 3.871m10.41 26.179a19 19 0 0 0-1.409 2.188 847 847 0 0 0-1.693-4.375c.436.045.876.075 1.321.075q.774 0 1.559-.091c.995-.116 1.979-.35 2.942-.674a18.5 18.5 0 0 0-2.72 2.877m11.982.269c.228-.026.479-.044.745-.044.991 0 2.193.24 3.262 1.122 2.854 2.359 2.737 7.695-.256 11.652-1.705 2.256-4.025 3.707-6.362 3.98-1.08.126-2.652.042-4.008-1.078-2.854-2.358-2.737-7.695.256-11.652 1.706-2.256 4.025-3.706 6.363-3.98M646.624 482.7c1.706-2.256 4.025-3.706 6.363-3.98.228-.026.479-.044.745-.044.991 0 2.194.24 3.262 1.123 2.855 2.358 2.738 7.694-.255 11.652-1.706 2.256-4.025 3.706-6.364 3.979-1.079.125-2.651.042-4.006-1.078-2.855-2.359-2.738-7.695.255-11.652m-5.577-30.231c1.065-.167 2.626-.147 4.012.91 2.94 2.241 3.028 7.592.193 11.684-1.619 2.336-3.881 3.886-6.208 4.254-1.064.168-2.626.147-4.012-.91-2.94-2.241-3.029-7.592-.193-11.684 1.619-2.336 3.882-3.886 6.208-4.254m-18.668-21.027c1.619-2.336 3.881-3.886 6.207-4.254 1.067-.168 2.627-.147 4.012.909 2.941 2.242 3.03 7.593.193 11.685-1.618 2.335-3.881 3.886-6.207 4.253-1.064.169-2.627.148-4.012-.909-2.941-2.241-3.029-7.592-.193-11.684m-34.439-58.391c1.002-1.017 1.976-2.207 2.963-3.423 1.058-1.301 2.184-2.961 3.377-4.718 4.394-6.477 10.415-15.345 18.19-13.939 2.457.445 3.35 3.379 3.673 5.591-3.604 1.443-9.389 5.293-16.105 15.495-4.821 7.324-10.119 11.494-15.031 13.804 1.947-3.047 3.467-7.279 2.933-12.81M245.839 587.676a3.26 3.26 0 0 1 2.46-.492c.859.17 1.6.663 2.087 1.391a3.28 3.28 0 0 1-.899 4.546 3.28 3.28 0 0 1-4.546-.899 3.28 3.28 0 0 1 .898-4.546m-70.563 34.297q-2.405 0-5.255.438c-5.043.776-8.697-.422-10.571-3.463-1.769-2.87-1.617-6.97.362-9.749 3.838-5.39 8.668-7.377 12.915-5.316 3.121 1.515 8.929 4.334 14.675-2.988 3.377-4.302 3.955-9.581 4.466-14.239.603-5.501 1.128-8.966 4.178-10.823 3.322-2.022 7.044-2.313 9.714-.76 2.089 1.215 3.192 3.439 3.108 6.261-.094 3.178-.394 6.032-.658 8.55-.476 4.544-.877 8.374.304 11.47-3.292 2.491-5.847 4.793-7.805 6.794.333-1.826 1.036-4.188 2.42-7.206a3.523 3.523 0 0 0-6.404-2.935c-2.71 5.913-3.422 10.275-3.311 13.389-3.344-1.22-7.989-1.896-13.87-.344a3.522 3.522 0 1 0 1.798 6.811c5.76-1.521 9.621-.118 11.619 1.046-1.237 3.025-1.98 7.931-.967 15.89a3.522 3.522 0 1 0 6.987-.889c-1.131-8.894.301-12.519 1.018-13.267.345-.186.643-.429.9-.705 3.517-1.161 9.945-2.574 13.604-.408a3.522 3.522 0 1 0 3.588-6.062c-3.228-1.91-7.09-2.295-10.647-2.037 1.608-1.5 3.605-3.179 6.028-4.972 2.835 1.269 6.869 1.727 12.789 1.528 6.694-.227 11.349 2.434 13.082 7.48 1.818 5.294-.091 11.671-4.44 14.832-4.282 3.112-9.115 2.393-14.232 1.633-5.545-.823-11.829-1.758-15.683 4.005-2.547 3.808-2.865 7.947-3.145 11.598-.417 5.413-.668 8.68-6.488 11.035-5.48 2.217-9.09-1.234-10.389-2.82-2.698-3.298-4.195-8.978-1.106-13.657 3.933-5.958 4.767-11.594 2.286-15.463-1.986-3.099-5.632-4.657-10.87-4.657m378.147 7.695c-6.409 5.363-13.48 11.648-20.675 18.257a829 829 0 0 0-41.489-1.061c-15.473 0-30.932.468-46.322 1.327.271-.5.429-1.063.431-1.656.015-3.499-2.81-40.41-3.004-43.162 35.483-10.37 73.658-7.502 111.059 26.295m-110.287 28.243c2.034 2.494 3.01 5.45 2.679 8.112-.155 1.244-.683 2.981-2.319 4.197-3.405 2.53-9.302.968-12.874-3.412-2.034-2.493-3.01-5.45-2.678-8.112.154-1.243.682-2.981 2.319-4.196 1.109-.824 2.482-1.214 3.954-1.214 3.045 0 6.511 1.672 8.919 4.625m-30.264-41.882c-4.539-2.77-9.731-2.05-9.783-2.043a3.527 3.527 0 0 1-4.002-2.955 3.514 3.514 0 0 1 2.923-4.007c.312-.049 7.731-1.158 14.531 2.991 9.468 5.778 14.094 14.703 13.027 25.132a3.523 3.523 0 0 1-7.007-.717c.994-9.716-4.721-15.37-9.689-18.401m-25.59 47.675a20 20 0 0 0-2.508-2.762c2.238-.272 4.393-.545 6.48-.818a14 14 0 0 0-.787 3.166c-.568 4.562.967 9.459 4.21 13.435a20.05 20.05 0 0 0 6.337 5.153q-6.069.311-12.132.667a13.7 13.7 0 0 0 2.042-5.272c.75-4.531-.577-9.477-3.642-13.569m12.003-32.501a4.368 4.368 0 1 1 2.681 8.314 4.368 4.368 0 1 1-2.681-8.314m.851 41.07c-2.034-2.494-3.01-5.45-2.679-8.113.155-1.243.683-2.98 2.319-4.196 1.11-.824 2.482-1.214 3.954-1.214 3.046 0 6.511 1.672 8.92 4.625 2.034 2.494 3.01 5.451 2.679 8.113-.155 1.243-.683 2.981-2.319 4.196-3.406 2.53-9.302.968-12.874-3.411m13.355-32.948q-.266 0-.536-.041a3.52 3.52 0 0 1-2.95-4.014c.462-3.022.041-5.293-1.253-6.751-1.867-2.105-5.456-2.46-6.702-2.425a3.53 3.53 0 0 1-3.643-3.386 3.51 3.51 0 0 1 3.354-3.652c.78-.037 7.787-.195 12.213 4.735 2.785 3.102 3.792 7.322 2.994 12.543a3.52 3.52 0 0 1-3.477 2.991m20.238-56.632-62.642 5.553c.305-4.435 1.416-19.167 1.681-21.954l60.572 5.122c-.007 1.489.247 9.023.389 11.279m-49.755 93.429c-.206 1.245-.808 2.973-2.505 4.133-3.508 2.399-9.324.616-12.701-3.894-1.92-2.563-2.769-5.55-2.331-8.195.207-1.246.809-2.974 2.505-4.134 1.062-.726 2.335-1.069 3.689-1.069 3.117 0 6.658 1.819 9.012 4.963 1.919 2.563 2.77 5.55 2.331 8.196m25.433-138.845-32.213-21.254a70 70 0 0 1 2.892-4.315c.823-.163 6.837-.313 30.41 19.316 10.861 9.044 20.925 18.537 24.255 21.719l-.688 11.663-65.211-5.514a47 47 0 0 1-.709-4.408l34.931-.977a3.52 3.52 0 0 0 3.102-2.049l4.492-9.77a3.52 3.52 0 0 0-1.261-4.411m96.402.389c4.863-3.119 13.508-9.165 20.62-16.806l1.891 17.931c-6.859.477-15.455.311-22.511-1.125m28.848-5.951-2.639-25.027a280 280 0 0 0 4.599-6.714l4.08 29.455a49 49 0 0 1-6.04 2.286m82.306-59.75a4.369 4.369 0 1 1-7.158 5.01 4.369 4.369 0 0 1 7.158-5.01m-3.46-10.433a3.52 3.52 0 0 1-2.967 4.001c-3.025.449-5.071 1.52-6.084 3.185-1.463 2.406-.744 5.956-.344 7.12a3.53 3.53 0 0 1-3.333 4.679 3.51 3.51 0 0 1-3.308-2.329c-.264-.74-2.479-7.386.929-13.068 2.145-3.575 5.881-5.78 11.106-6.555a3.523 3.523 0 0 1 4.001 2.967m-29.029 5.192c2.734-10.751 9.901-17.801 20.183-19.852a3.523 3.523 0 0 1 1.378 6.909c-9.579 1.91-13.299 9.037-14.734 14.679-1.31 5.153.906 9.905.929 9.953a3.53 3.53 0 0 1-1.645 4.694 3.5 3.5 0 0 1-1.535.352 3.51 3.51 0 0 1-3.155-1.966c-.139-.285-3.384-7.048-1.421-14.769m-31.052-1.161c.061-.379.07-.664.035-.879 1.047-.429 5.229-2.1 6.336-2.58l20.02 51.771c-6.316 2.283-12.505 4.716-18.698 7.014-4.539 1.66-9.152 3.316-13.823 4.814l-4.844-34.969c5.119-8.583 9.831-18.011 10.974-25.171M439.874 235.397c2.382-.587 5.389-1.516 7.778-1.334-.774 2.117-2.184 4.07-3.653 5.995-4.412 5.608-9.781 10.727-15.144 15.547-2.72 2.469-5.768 4.935-8.539 7.356-3.174 2.894-5.606 6.392-7.561 9.813-1.594 2.939-3.055 5.826-4.598 8.573l.295-1.665a3.53 3.53 0 0 0-.846-2.965 3.5 3.5 0 0 0-.491-.434c3.549-11.567 7.404-23.193 10.139-34.756.372-.888.836-1.76 1.344-2.624 7.162-.616 14.319-1.695 21.276-3.506m-93.542-78.059s151.463-14.986 151.814-14.986c2.428 0 4.761.83 6.664 2.39a10.48 10.48 0 0 1 3.807 7.114 10.47 10.47 0 0 1-2.338 7.721 10.47 10.47 0 0 1-7.113 3.808l-150.755 14.934c-5.789.572-10.957-3.667-11.53-9.452-.574-5.784 3.666-10.956 9.451-11.529m-12.413 50.63c-5.779.574-10.956-3.667-11.529-9.451s3.667-10.958 9.451-11.531l151.801-14.985h.002c5.349 0 9.944 4.07 10.483 9.503.573 5.784-3.667 10.957-9.452 11.53zm25.972 26.758c.859-3.408 3.753-14.514 4.579-17.71 0 0 .144-.491.223-.611 2.493-2.791 8.336-4.666 15.404-5.933l23.227-2.301a371 371 0 0 1 8.006-.282c-.534 2.509-1.79 6.868-4.672 11.789a3.522 3.522 0 1 0 6.078 3.56c3.99-6.812 5.346-12.754 5.79-15.484l.787-.011c2.192-.008 4.388.004 6.565.043.975.012 1.642.146 2.015.353.11 3.089-2.165 6.721-3.808 9.682-2.165 3.657-4.655 7.254-7.159 10.911-2.317 3.602-5.054 6.804-6.462 11.062-2.195 9.042-4.905 17.991-7.681 26.985-.838 2.76-1.817 5.874-2.811 9.09l-50.401 3.32c3.144-14.895 6.651-29.719 10.32-44.463m3.224 76.194 30.398 12.803-.849 4.803-50.311-17.615 3.244-24.401 55.136-3.632-.953 5.393-34.219 3.761a3.52 3.52 0 0 0-3.112 3.08l-1.463 12.141a3.52 3.52 0 0 0 2.129 3.667m5.182-5.461.811-6.73 37.048-4.072c-.383 7.08-1.472 18.41-3.898 25.106zm-95.485-85.455c7.613-.162 15.193.572 22.71 1.688.099.016 30.368 8.364 45.201 11.239 3.932.746 7.877 1.451 11.836 2.106-3.668 14.824-7.174 29.689-10.292 44.633l-.013.001a3.52 3.52 0 0 0-3.26 3.05l-2.662 20.032c-15.623-4.721-29.358-15.553-36.835-30.209-3.977-8.053-5.347-17.094-5.506-26.014-.201-2.984-.034-6.214-.25-9.525a1.81 1.81 0 0 0-3.418-.779 25.4 25.4 0 0 0-1.685 4.132c-11.529-6.74-23.214-12.934-35.583-18.1a103.7 103.7 0 0 1 19.757-2.254m-49.477 7.75c2.777-1.72 5.063-3.793 8.384-3.688 5.293.283 10.573 2.233 15.685 4.143 10.681 4.14 21.191 9.403 31.347 14.87a417 417 0 0 1 8.56 4.713c-.154 2.994.061 6.018.42 8.982.5 4.006 1.365 7.97 2.604 11.818-4.216-2.295-11.027-5.348-14.064-6.874a1607 1607 0 0 0-22.166-10.366c-12.99-5.922-26.012-11.675-39.328-16.86 2.761-2.379 5.615-4.678 8.558-6.738M139.953 370.58c-1.091-.188-2.222-1.185-3.168-2.146-3.813-3.935-4.84-9.37-5.503-14.972-1.547-20.016.904-41.273 2.262-61.462.214-1.954.287-4.653.771-6.565 5.791 3.324 12.285 6.685 17.717 9.808.337.293.722.817.817 1.211 0-.113.007.21.004.426l-.067 5.443c-.17 10.842-.88 21.726-2.063 32.477-1.329 10.443-2.531 21.237-6.55 30.842-.972 1.946-3.792 5-4.22 4.938m111.154 145.562c-38.044 2.235-96.185 15.446-130.923 23.339-14.426 3.278-26.885 6.109-29.135 6.109-6.437 0-8.947-6.313-9.92-11.608-2.568-13.99 3.155-32.597 10.935-35.554 11.65-4.428 22.005-6.078 25.917-6.581a6.92 6.92 0 0 0 5.855-5.352c1.131-5.107 5.678-22.222 16.701-28.063 4.178-2.215 9.109-4.015 14.102-4.015 6.045 0 12.179 2.64 17.167 10.378 1.354 2.101 3.65 3.273 6.154 3.135a6.96 6.96 0 0 0 5.833-3.839c4.13-8.292 14.778-26.122 33.135-34.491a294 294 0 0 0 10.282 19.343c13.143 22.777 29.954 43.811 49.951 61.013-6.265 3.387-15.304 5.554-26.054 6.186m100.75 18.483a108 108 0 0 0-1.428 8.78c-7.164-3.404-14.545-5.794-21.655-9.061-43.097-19.109-76.02-54.246-98.765-94.995-7.982-15.55-13.613-31.321-14.878-38.53 4.963.058 9.823-.742 14.222-2.567 2.316-1.036 1.296-4.597-1.23-4.235-.968.145-2.109.31-3.143.387-1.895.175-4.014.2-5.925.114-9.041-.322-17.744-3.206-26.08-6.581-.106-.044-.222-.068-.314-.135-.737-.54-.886-1.062-.85-1.449a1.24 1.24 0 0 1 .256-.638c46.011-4.156 88.761-31.085 113.723-69.827.285.073.562.154.822.237 1.222.388 2.35 1.034 3.356 1.869 1.804 1.438 4.303-.726 3.105-2.732-1.732-2.956-4.533-5.22-7.685-6.539-1.555-.779-3.627-.182-4.545 1.404a153 153 0 0 1-13.57 19.239c-25.129 30.179-63.447 49.528-102.804 50.531-12.585.165-25.363-2.549-37.255-6.995 3.899-4.011 5.254-10.346 6.661-15.436 4.303-19.862 4.019-40.384 4.325-60.555.154-2.057-.984-4.209-2.444-5.588-.505-.463-4.577-3.03-6.067-3.968-1.111-.702-2.251-1.43-3.406-2.165 3.642.454 7.317.773 11.04.871 12.861.519 26.199-2.559 34.001-13.659 3.787-4.997 5.866-10.385 8.82-15.656 3.294-5.703 7.581-10.686 12.503-14.996 12.961 4.927 25.779 10.482 38.558 16.064 7.432 3.265 14.84 6.597 22.228 9.978 5.749 2.463 13.347 6.757 19.958 8.337 3.536 7.057 8.821 13.646 15.046 19.249a62 62 0 0 0 4.557 3.785c5.531 5.078 17.301 15.386 22.695 16.321a550 550 0 0 0-3.027 22.258c-1.36 13.376-2.316 26.949-1.098 40.445.438 4.531 1.381 9.184 3.758 13.338a1.91 1.91 0 0 0 1.767.959c1.088-.055 1.907-1.033 1.795-2.11-.239-3.543-.734-9.264-1.052-12.747-.971-13.017.177-26.107 1.676-39.114a579 579 0 0 1 2.803-20.153l47.863 16.757a467 467 0 0 0-.558 10.899c-.199 4.465-.245 8.94-.121 13.412.169 4.476.265 8.943 1.746 13.401.644 2.041 3.612 1.736 3.99-.256 1.543-7.384.984-18.777 1.373-26.326.103-3.308.263-6.615.453-9.921.044-.024.09-.042.133-.067a3.5 3.5 0 0 0 1.519-1.842c2.404-2.502 5.23-4.53 7.752-6.066 8.914 1.587 17.929 2.381 26.786 3.807 30.553 4.529 65.52 13.201 86.227 37.533 3.236 3.804 6.136 7.866 8.973 11.964 1.713 2.417 3.269 5.356 5.6 7.256a2.64 2.64 0 0 0 2.005.557c2.792-.644 2.618-3.181 1.456-6.001 6.87-.123 17.973-1.963 31.058-10.304 1.493-.951 2.156-2.672 1.651-4.281-.937-2.985-4.402-2.844-5.877-2.782-5.389.221-12.096 2.314-13.264 7.486a4 4 0 0 0-.057.312c-1.395.468-2.73.851-4.004 1.168-.636-.761-.803-3.032 2.596-6.734 4.863-5.296 16.736-7.343 21.142-5.581 4.119 1.65 6.736 5.04 7.001 9.067.348 5.305-3.399 10.566-10.28 14.433-13.05 7.336-21.446 8.666-24.921 8.865-2.078-3.674-7.82-1.154-6.333 2.977 9.634 25.838 9.093 55.439.019 81.384-9.883 26.428-34.241 43.622-59.282 54.61-3.184 1.426-6.442 2.749-9.649 4.018-1.312.439-4.662 1.585-6.027 2.041-3.613 1.211-7.589 1.976-11.528 2.55-.672-.368-.964-.738-1.077-1.03-.145-.377-.034-.754.118-1.044 1.634-1.827 3.311-3.34 5.027-5.526 1.073-1.12.287-3.115-1.264-3.199-4.481-.313-8.337 2.733-10.84 6.133-1.703 2.345-3.076 4.911-4.19 7.637-4.343-4.097-12.475-11.619-21.279-19.015-15.034-12.631-23.926-18.172-29.495-20.482 2.42-5.031 5.244-9.749 8.558-14.038 4.398-5.452 9.872-9.959 16.254-12.878a2.323 2.323 0 0 0-1.833-4.266c-7.266 2.801-13.708 7.637-18.781 13.465-4.111 4.91-7.543 10.364-10.438 16.196q-.499-.004-.928.033c-2.723.231-4.273 1.62-5.094 2.743a77 77 0 0 0-3.177 4.718l-2.998-1.978a3.52 3.52 0 0 0-3.931.035c-5.774 3.96-9.989 12.178-12.528 24.425m194.866-159.489.175-.187s.049.037.117.117zM357.036 547.748c.767-8.766 3.339-23.863 9.59-30.258l36.379 24.002-2.315 5.035zm3.381 116.094a14 14 0 0 0-.929 3.173c-.751 4.53.576 9.476 3.641 13.568a20.2 20.2 0 0 0 3.249 3.419q-3.858.272-7.711.558a13.8 13.8 0 0 0 1.446-4.262c.751-4.53-.576-9.476-3.641-13.569a20 20 0 0 0-1.772-2.037c1.903-.286 3.807-.573 5.717-.85m-24.79 7.349c.206-1.245.808-2.973 2.505-4.133 1.062-.727 2.335-1.069 3.689-1.069 3.117 0 6.658 1.819 9.012 4.963 1.919 2.563 2.769 5.55 2.331 8.195-.206 1.246-.808 2.974-2.505 4.134-3.508 2.396-9.325.615-12.702-3.894-1.919-2.563-2.768-5.55-2.33-8.196m-199.602 46.994c.503 4.507 2.663 9.611 5.039 14.067a2378 2378 0 0 0-84.577 14.952c21.043-8.397 48.06-18.548 79.538-29.019m-116.22 44.36q1.444-.635 3.016-1.322c41.011-8.629 81.659-16.098 122.099-22.444a94 94 0 0 0 2.981 4.354 3.523 3.523 0 0 0 5.687-4.157c-5.193-7.112-11.877-19.26-10.478-23.997.17-.575.443-.995 1.28-1.315 1.07-.41 1.912-.365 2.811.152 3.993 2.294 7.009 11.876 8.12 17.93.085.51.141.814.154.883a3.522 3.522 0 0 0 6.939-1.206 43 43 0 0 0-.189-1.069 112 112 0 0 1-.825-5.871 3.5 3.5 0 0 0-.088-.792c-1.613-14.802-1.73-39.003 9.177-47.042.499-.368.867-.576 1.116-.692.667 1.438 2.308 7.693-1.75 31.223-2.514 14.577-5.946 28.411-5.981 28.549a3.523 3.523 0 0 0 6.581 2.4c3.132-6.396 7.191-13.572 10.006-17.507-.023 4.943-1.19 13.209-2.733 20.213a3.523 3.523 0 0 0 6.879 1.517 155 155 0 0 0 1.811-9.7c101.327-14.001 201.662-20.879 303.419-20.879 151.622 0 302.327 16.623 459.87 50.772zm922.108-8.879c-154.672-32.907-302.935-48.937-452.076-48.937-101.476 0-201.537 6.822-302.565 20.698.377-4.822.26-9.372-1.015-11.888-.842-1.662-2.393-2.673-4.15-2.635-.981.006-2.902.02-6.636 4.711.518-2.683 1.028-5.47 1.503-8.275.129-.763.25-1.502.368-2.235 45.162-13.566 96.766-26.676 151.586-36.233-.097.383-.185.771-.251 1.168-.75 4.531.577 9.477 3.642 13.569a20 20 0 0 0 2.61 2.859c-3.907.399-7.727.967-10.779 1.962a2.59 2.59 0 0 0-1.776 2.12 2.584 2.584 0 0 0 2.244 2.903c4.03.535 7.986.308 11.931-.053 16.977-1.629 42.152-3.535 59.223-4.706 35.532-2.25 71.148-4.228 106.755-3.229 3.939.142 7.895.219 11.85-.251a1.2 1.2 0 0 0 .245-2.339c-3.947-1.205-7.918-1.523-11.904-1.742-28.32-1.35-56.803-1.135-85.251-.007 2.683-2.105 4.407-5.2 4.852-8.768.568-4.562-.967-9.459-4.21-13.435a20 20 0 0 0-1.515-1.641c1.505-.132 3.012-.253 4.519-.378-.059.305-.121.609-.16.922-.567 4.561.967 9.458 4.211 13.435 3.799 4.659 9.266 7.193 14.401 7.193 2.945 0 5.782-.834 8.131-2.579 2.836-2.107 4.65-5.296 5.11-8.982.497-3.995-.62-8.247-3.083-11.913a821 821 0 0 1 41.536-1.072c188.627 0 374.911 68.316 450.654 99.758m-88.607-61.499c6.368.532 12.383 1.035 18.275 2.577 13.263 3.472 21.747 19.997 26.707 34.208-81.848-30.509-215.34-71.871-355.659-80.477 11.911-10.773 23.026-20.164 30.642-25.169 57.114-37.535 131.519-69.006 200.514 21.574 33.06 43.403 57.743 45.466 79.521 47.287m-36.183-152.635a5.88 5.88 0 0 0 6.562-1.523c2.335-2.608 10.587-11.124 18.755-10.897 9.858.247 15.121 4.765 15.641 13.427a5.78 5.78 0 0 0 3.252 4.886 5.91 5.91 0 0 0 5.909-.412c6.209-4.213 22.44-13.396 39.026-7.691 3.903 1.342 6.427 3.555 7.718 6.763 3.535 8.789-2.712 22.646-5.563 28.195a5.87 5.87 0 0 0 .142 5.64 5.8 5.8 0 0 0 4.766 2.907c2.38.112 4.424.773 6.074 1.964 3.434 2.479 4.773 5.398 3.981 8.678-1.206 4.992-7.094 9.802-13.125 10.721-4.893.749-11.231-1.569-17.941-4.019a431 431 0 0 0-2.632-.956c-19.268-6.912-65.399-22.662-90.053-31.053a1337 1337 0 0 1 7.466-29.853c4.741 1.194 8.341 2.543 10.022 3.223m-31.784 58.049s-5.436 26.209-8.06 40.321c-19.749-25.183-41.341-42.359-64.562-51.413.856-4.162 11.187-50.135 15.769-68.264q.525.068 1.051.14c3.343.445 6.672 1.047 10.002 1.679 3.409.577 6.6 1.746 10.145 1.526 2.134-.03 2.993-2.968 1.189-4.142-3.048-2.067-6.54-2.664-9.923-3.617a142 142 0 0 0-10.336-2.253l-.415-.065q.618-2.409 1.237-4.798c3.844.542 7.68 1.131 11.485 1.935 9.442 1.821 18.753 4.373 27.695 7.807 1.828.779 3.962-.106 4.676-1.97a3.52 3.52 0 0 0-2.016-4.553 120 120 0 0 0-10.774-3.798c-9.632-2.761-19.545-4.494-29.502-5.427a2276 2276 0 0 1 7.172-26.705c20.745 1.465 66.546-11.381 83.183-16.31-9.814 28.452-24.302 75.669-38.016 139.907m205.642-225.96c-5.147 1.981-8.137 7.293-7.111 12.629 5.781 30.054-3.753 55.453-25.504 67.941-25.507 14.643-59.897 7.527-89.752-18.573a11.25 11.25 0 0 0-7.409-2.8c-1.696 0-3.402.387-4.988 1.18-34.292 17.134-65.995 24.403-94.027 24.401-49.065-.004-86.856-22.284-107.418-52.932-9.624-14.344-14.927-30.201-14.931-44.649-.005-14.807 5.382-27.348 15.58-36.265 2.982-2.607 4.567-5.949 4.463-9.411-.097-3.245-1.694-6.225-4.497-8.392-16.877-13.057-40.392-53.166-8.596-111.515 5.971-10.957 34.456-42.24 66.285-51.077 14.327-3.979 27.237-2.685 38.372 3.842 3.097 1.814 6.548 2.322 9.724 1.427 2.956-.833 5.419-2.85 6.933-5.679 6.419-11.995 18.613-20.902 35.262-25.758 28.502-8.313 66.839-3.765 93.227 11.059 63.073 35.432 64.693 77.548 65.765 105.417.125 3.251.244 6.322.455 9.14.358 4.767 3.694 8.757 8.3 9.928 24.195 6.153 39.766 28.813 41.656 60.616 1.63 27.538-8.14 54.216-21.789 59.471"/><path fill="#8CBA3B" d="m403.005 541.492-36.379-24.002c-6.251 6.395-8.823 21.492-9.59 30.258l43.654-1.221z"/><path fill="#F295FF" d="M417.254 241.527c-2.735 11.563-6.59 23.189-10.139 34.756.174.132.344.27.491.435a3.52 3.52 0 0 1 .846 2.964l-.294 1.665c1.542-2.747 3.004-5.634 4.597-8.573 1.956-3.421 4.387-6.918 7.562-9.813 2.77-2.421 5.818-4.887 8.538-7.356 5.363-4.82 10.732-9.939 15.145-15.547 1.469-1.925 2.878-3.878 3.653-5.995-2.39-.182-5.397.747-7.779 1.334-6.957 1.811-14.113 2.89-21.276 3.506a22 22 0 0 0-1.344 2.624"/><path fill="#F295FF" d="M399.973 275.869c.993-3.216 1.973-6.33 2.81-9.089 2.776-8.995 5.486-17.944 7.682-26.986 1.407-4.258 4.144-7.46 6.461-11.062 2.504-3.657 4.994-7.254 7.159-10.911 1.643-2.961 3.918-6.593 3.808-9.682-.373-.207-1.04-.341-2.015-.353a305 305 0 0 0-6.565-.043l-.787.011c-.444 2.73-1.8 8.672-5.79 15.484a3.52 3.52 0 0 1-4.819 1.259 3.52 3.52 0 0 1-1.259-4.819c2.882-4.921 4.139-9.28 4.673-11.789-2.448.061-5.153.149-8.007.282l-23.227 2.301c-7.068 1.267-12.91 3.142-15.404 5.933-.079.121-.223.611-.223.611-.826 3.196-3.72 14.302-4.579 17.71-3.669 14.744-7.176 29.568-10.32 44.463z"/><path fill="#8CBA3B" d="M362.449 295.112a3.524 3.524 0 0 1 3.112-3.08l34.219-3.761.953-5.393-55.136 3.632-3.244 24.401 50.311 17.614.849-4.802-30.397-12.803a3.52 3.52 0 0 1-2.13-3.667z"/><path fill="#8CBA3B" d="m406.156 294.657-37.047 4.072-.812 6.73 33.962 14.304c2.425-6.696 3.515-18.026 3.897-25.106"/><path fill="#4C4C4C" d="M141.721 306.903a4.14 4.14 0 0 0-3.023 1.111c-3.271 3.028-3.907 18.366-4.024 22.996l-.032 1.205c-.122 4.672-.228 8.708 4.278 8.94q.17.008.334.009c4.692 0 5.038-5.361 5.318-9.686.216-3.348.426-6.313.608-8.871.812-11.426.897-12.62-.612-14.327a4.2 4.2 0 0 0-2.847-1.377"/><path fill="#4C4C4C" d="M259.439 210.106a2.8 2.8 0 0 0 1.024-.194c4.429-1.733 7.957-1.061 8.064-1.04 1.506.325 3-.626 3.338-2.135a2.813 2.813 0 0 0-2.131-3.357c-.207-.047-5.168-1.111-11.32 1.296a2.812 2.812 0 0 0 1.025 5.43"/><path fill="#4C4C4C" d="M229.45 270.187c-3.751-.95-7.278-1.958-11.175-2.401-.608-.039-1.136.209-1.656.432-1.848.792-3.526 2.472-3.978 5.278-.566 3.522.94 6.387 3.579 6.811q.308.05.615.049c1.372 0 2.69-.734 3.615-2.042.647-.915 1.097-2.075 1.302-3.353.057-.354.078-.696.094-1.035 2.105.402 4.219.861 6.294 1.355a2.63 2.63 0 0 0 1.31-5.094"/><path fill="#4C4C4C" d="M254.686 278.595c-3.751-.951-7.279-1.959-11.175-2.402-.615-.039-1.148.216-1.673.445-.959.418-1.952.913-2.658 1.912-.647.916-1.097 2.076-1.303 3.354-.566 3.522.94 6.386 3.579 6.81q.308.05.615.05c1.372 0 2.69-.734 3.615-2.042.647-.916 1.097-2.076 1.302-3.354q.082-.522.104-1.033c2.102.402 4.212.861 6.284 1.353a2.63 2.63 0 0 0 1.31-5.093"/><path fill="#4C4C4C" d="M222.96 212.084c.592 0 1.19-.186 1.698-.572 1.791-1.36 3.945-.583 4.087-.529a2.81 2.81 0 0 0 3.645-1.531 2.81 2.81 0 0 0-1.519-3.674c-1.911-.794-6.088-1.423-9.613 1.256a2.81 2.81 0 0 0 1.702 5.05"/><path fill="#423E3E" d="m377.483 119.76 151.477-2.222a10.48 10.48 0 0 0 7.408-3.197 10.47 10.47 0 0 0 2.978-7.499 10.47 10.47 0 0 0-3.196-7.408 10.47 10.47 0 0 0-7.34-2.979l-151.636 2.223c-5.812.085-10.471 4.883-10.386 10.696s4.866 10.442 10.695 10.386m139.641-17.863c4.371-7.157 15.055-5.95 18.022 1.812 2.333 6.938-3.17 14.067-10.493 13.391-7.25-.794-11.34-8.941-7.529-15.203m-22.216.097c4.547-6.996 15.067-5.93 18.022 1.906 2.361 7.009-3.137 13.917-10.468 13.427-7.318-.886-11.324-8.992-7.554-15.333"/><path fill="#4C4C4C" d="m377.322 126.805.264-.002 151.477-2.222c9.695-.143 17.468-8.146 17.326-17.842a17.47 17.47 0 0 0-5.332-12.358c-3.371-3.272-7.8-5.049-12.51-4.968l-151.476 2.222c-9.696.142-17.469 8.146-17.327 17.842a17.47 17.47 0 0 0 5.333 12.358 17.47 17.47 0 0 0 12.245 4.97m-.148-28.127 151.636-2.223a10.47 10.47 0 0 1 7.339 2.979 10.47 10.47 0 0 1 3.197 7.408 10.48 10.48 0 0 1-2.978 7.499 10.48 10.48 0 0 1-7.408 3.197l-151.477 2.222c-5.83.057-10.61-4.574-10.696-10.386-.085-5.813 4.574-10.61 10.387-10.696"/><path fill="#8CBA3B" d="M524.736 109.932c3.73 1.029 5.513-4.194 1.884-5.612-3.737-1.101-5.529 4.209-1.884 5.612"/><path fill="#4C4C4C" d="M524.653 117.1c7.323.676 12.826-6.453 10.493-13.391-2.967-7.762-13.651-8.969-18.023-1.812-3.81 6.262.28 14.409 7.53 15.203m1.967-12.781c3.629 1.419 1.845 6.641-1.884 5.613-3.645-1.403-1.853-6.713 1.884-5.613"/><path fill="#FFFBE8" d="M502.53 110.118c3.718 1.031 5.517-4.22 1.899-5.621-3.775-1.103-5.537 4.198-1.899 5.621"/><path fill="#4C4C4C" d="M502.462 117.327c7.331.49 12.83-6.418 10.468-13.427-2.955-7.837-13.475-8.902-18.022-1.906-3.77 6.341.236 14.447 7.554 15.333m1.967-12.83c3.619 1.401 1.819 6.652-1.899 5.621-3.638-1.423-1.876-6.724 1.899-5.621"/><path fill="#423E3E" d="M494.127 181.504c-.538-5.433-5.134-9.503-10.483-9.503h-.002l-151.801 14.985c-5.784.573-10.024 5.746-9.451 11.53.574 5.785 5.75 10.026 11.53 9.452l150.756-14.934c5.784-.573 10.024-5.746 9.451-11.53m-35.934 13.51c-7.322-.298-11.979-7.991-8.757-14.591 3.856-7.341 14.578-7.174 18.101.374 3.032 6.633-2.049 14.368-9.344 14.217m13.37-16.594c3.866-7.464 14.556-7.22 18.125.375 2.895 6.681-2.059 14.258-9.363 14.16-7.332-.178-11.972-7.967-8.762-14.535"/><path fill="#8CBA3B" d="M481.255 180.05c-3.799-.752-5.175 4.597-1.475 5.745 3.803.774 5.204-4.587 1.475-5.745"/><path fill="#4C4C4C" d="M489.688 178.795c-3.569-7.595-14.258-7.838-18.125-.375-3.21 6.568 1.43 14.357 8.762 14.535 7.304.098 12.258-7.478 9.363-14.16m-9.908 7c-3.7-1.148-2.323-6.497 1.475-5.745 3.729 1.158 2.328 6.519-1.475 5.745"/><path fill="#FFFBE8" d="M459.122 182.118c-3.847-.788-5.158 4.641-1.391 5.714 3.794.816 5.112-4.678 1.391-5.714"/><path fill="#4C4C4C" d="M449.436 180.423c-3.222 6.6 1.435 14.293 8.757 14.591 7.295.151 12.376-7.584 9.344-14.217-3.523-7.548-14.245-7.715-18.101-.374m8.295 7.409c-3.767-1.073-2.456-6.502 1.391-5.714 3.721 1.035 2.403 6.53-1.391 5.714"/><path fill="#423E3E" d="m348.411 178.319 150.755-14.934a10.47 10.47 0 0 0 7.113-3.808 10.47 10.47 0 0 0 2.338-7.722 10.48 10.48 0 0 0-3.807-7.113 10.46 10.46 0 0 0-6.663-2.39c-.352 0-151.815 14.986-151.815 14.986-5.784.573-10.024 5.745-9.451 11.529.573 5.785 5.741 10.024 11.53 9.452m137.642-29.634c4.067-7.342 14.44-7.153 18.116.421 2.878 6.729-1.994 14.246-9.353 14.198-7.39-.22-11.972-8.011-8.763-14.619m-22.099 2.134c3.701-7.454 14.631-7.216 18.071.332 3.073 6.572-2.122 14.416-9.363 14.211-7.301-.268-11.979-7.973-8.708-14.543"/><path fill="#8CBA3B" d="M494.277 156.126c3.775.836 5.2-4.66 1.474-5.701-3.786-.869-5.199 4.629-1.474 5.701"/><path fill="#4C4C4C" d="M494.816 163.304c7.359.048 12.231-7.469 9.353-14.198-3.676-7.574-14.049-7.763-18.115-.421-3.21 6.609 1.372 14.399 8.762 14.619m.936-12.879c3.726 1.041 2.301 6.537-1.475 5.701-3.725-1.072-2.312-6.57 1.475-5.701"/><path fill="#FFFBE8" d="M472.164 158.177c3.781.849 5.209-4.611 1.482-5.726-3.806-.822-5.213 4.644-1.482 5.726"/><path fill="#4C4C4C" d="M472.662 165.362c7.241.205 12.436-7.639 9.363-14.211-3.441-7.548-14.37-7.786-18.071-.332-3.271 6.571 1.407 14.275 8.708 14.543m.984-12.911c3.727 1.115 2.299 6.575-1.481 5.726-3.732-1.082-2.325-6.548 1.481-5.726"/><path fill="#5B5B5B" d="M596.153 102.41a6 6 0 0 0 2.566.579c.687 0 1.377-.12 2.043-.359a6 6 0 0 0 3.415-3.105 6 6 0 0 0 .22-4.61 6.04 6.04 0 0 0-7.714-3.634 6 6 0 0 0-3.415 3.105 6 6 0 0 0-.22 4.61 6 6 0 0 0 3.105 3.414"/><path fill="#5B5B5B" d="M600.125 84.7c.602-.022 5.971-.147 8.902 2.908 1.822 1.899 2.504 4.894 2.026 8.902a3.943 3.943 0 0 0 3.91 4.4q.065 0 .129-.003a3.96 3.96 0 0 0 3.774-3.465c.77-6.46-.631-11.601-4.162-15.281-5.851-6.1-15.115-5.312-15.193-5.304a3.9 3.9 0 0 0-2.684 1.362 3.9 3.9 0 0 0-.933 2.862 4 4 0 0 0 1.395 2.742 3.8 3.8 0 0 0 2.836.876"/><path fill="#5B5B5B" d="M597.916 68.789a3.9 3.9 0 0 0 2.946.601c.705-.111 7.054-.989 12.746 2.23 6.521 3.688 14.113 10.72 13.246 23.28a3.9 3.9 0 0 0 .958 2.854 3.9 3.9 0 0 0 2.975 1.35h.123l.001-.001a3.92 3.92 0 0 0 3.791-3.661c.898-12.99-5.218-23.881-17.221-30.669-8.587-4.857-17.718-3.182-18.101-3.109a3.9 3.9 0 0 0-2.514 1.655 3.9 3.9 0 0 0-.608 2.949 3.9 3.9 0 0 0 1.658 2.52"/><path fill="#5B5B5B" d="M333.732 122.684a5.22 5.22 0 1 0 4.325 9.502 5.22 5.22 0 0 0-4.325-9.502"/><path fill="#5B5B5B" d="M320.218 112.296c-5.304 5.997-3.849 14.702-3.835 14.775a3.76 3.76 0 0 0 4.3 3.111 3.82 3.82 0 0 0 2.499-1.542c.57-.805.787-1.788.611-2.764-.113-.924-.543-5.678 2.048-8.607 1.645-1.86 4.404-2.729 8.225-2.594 2.054.099 3.812-1.546 3.89-3.617a3.777 3.777 0 0 0-3.615-3.886c-6.168-.229-10.917 1.499-14.123 5.124"/><path fill="#5B5B5B" d="M303.413 129.562a3.73 3.73 0 0 0 2.851.347 3.73 3.73 0 0 0 2.268-1.773 3.72 3.72 0 0 0 .342-2.848c-.159-.656-1.478-6.574 1.116-12.187 2.971-6.434 9.014-14.138 20.923-14.294a3.73 3.73 0 0 0 2.639-1.133 3.73 3.73 0 0 0 1.04-3.052 3.74 3.74 0 0 0-3.724-3.32h-.054c-12.342.16-22.158 6.784-27.639 18.651-3.925 8.496-1.631 16.99-1.532 17.347a3.73 3.73 0 0 0 1.77 2.262"/><path fill="#FFFBE8" d="M572.257 204.926c-1.071-4.713-.535-8.406 1.829-12.62-4.711 1.071-8.405.536-12.62-1.83 1.071 4.713.535 8.406-1.83 12.62 1.537-.349 2.964-.527 4.337-.527 2.839 0 5.443.763 8.284 2.357"/><path fill="#4C4C4C" d="M556.519 210.246c7.424-2.841 10.387-2.409 16.696 2.42l.001.001a4 4 0 0 0 2.44.836c.841 0 1.683-.269 2.404-.808a3.98 3.98 0 0 0 1.346-4.652c-2.839-7.422-2.409-10.386 2.421-16.694a3.98 3.98 0 0 0 .03-4.844 3.984 3.984 0 0 0-4.653-1.349c-7.424 2.841-10.386 2.41-16.695-2.42a3.98 3.98 0 0 0-4.844-.03 3.98 3.98 0 0 0-1.348 4.653c2.84 7.422 2.41 10.386-2.421 16.695a3.98 3.98 0 0 0-.029 4.845 3.98 3.98 0 0 0 4.652 1.347m4.947-19.77c4.215 2.366 7.909 2.901 12.621 1.83-2.365 4.214-2.901 7.907-1.83 12.62-2.841-1.594-5.445-2.357-8.284-2.357-1.373 0-2.8.178-4.337.527 2.366-4.214 2.901-7.907 1.83-12.62"/><path fill="#FFFBE8" d="M471.761 23.018c4.707-2.289 8.665-2.588 13.663-1.032-2.287-4.707-2.586-8.666-1.031-13.663-4.707 2.288-8.666 2.587-13.663 1.031 2.288 4.707 2.586 8.666 1.031 13.664"/><path fill="#4C4C4C" d="M464.42 25.565a4.025 4.025 0 0 0 1.037 4.785 4.04 4.04 0 0 0 2.641.99c.775 0 1.555-.226 2.246-.683 6.944-4.597 10.073-4.833 17.627-1.33a4.03 4.03 0 0 0 4.786-1.036 4.02 4.02 0 0 0 .306-4.888c-4.596-6.943-4.832-10.073-1.33-17.626A4.024 4.024 0 0 0 490.697.99a4.02 4.02 0 0 0-4.887-.306c-6.944 4.597-10.073 4.833-17.627 1.33a4.02 4.02 0 0 0-4.785 1.036 4.02 4.02 0 0 0-.307 4.887c4.596 6.943 4.832 10.073 1.329 17.628m19.973-17.242c-1.555 4.997-1.256 8.956 1.031 13.664-4.998-1.557-8.956-1.258-13.664 1.03 1.556-4.997 1.257-8.956-1.03-13.663 4.997 1.556 8.956 1.257 13.663-1.031"/><path fill="#FFFBE8" d="M727.59 376.072a3.523 3.523 0 0 1-1.849-4.783c.837-1.748.638-3.055-.625-4.112-1.812-1.514-5.417-1.959-8.087-.038a3.523 3.523 0 0 1-4.71-.542c-1.297-1.485-3.279-2.123-5.359-2.123a11.5 11.5 0 0 0-5.476 1.426c-1.29.718-4.188 2.722-3.243 5.788a3.523 3.523 0 0 1-2.905 4.53c-3.41.451-4.716 2.737-4.801 4.727-.08 1.866.898 4.282 3.917 4.946a3.52 3.52 0 0 1 1.367 6.25c-1.641 1.24-1.425 2-1.354 2.249.459 1.615 3.347 3.712 6.382 3.996 2.646.244 3.277-1.026 3.487-1.444a3.52 3.52 0 0 1 3.087-1.947c1.297-.044 2.527.683 3.156 1.836.968 1.774 4.901 2.105 8.256.691 1.783-.751 4.628-2.483 3.656-5.642a3.524 3.524 0 0 1 2.472-4.443c3.607-.947 5.425-4.061 5.587-6.553.085-1.313-.186-3.685-2.958-4.812"/><path fill="#4C4C4C" d="M733.118 371.181c.62-3.568-.597-6.993-3.482-9.406-3.814-3.189-9.496-3.807-14.179-1.789-5.113-3.689-12.284-3.092-17.403-.239-4.349 2.424-6.871 6.256-7.033 10.351-4.942 1.951-7.348 6.412-7.524 10.547-.173 4.039 1.617 7.662 4.648 9.943a8.07 8.07 0 0 0-.456 5.73c1.502 5.28 7.563 8.62 12.503 9.082q.637.059 1.254.059c2.35 0 4.463-.641 6.161-1.83 3.882 2.464 9.507 2.262 13.962.385 5.241-2.209 8.207-6.291 8.175-10.904 4.474-2.283 7.504-6.705 7.833-11.769.269-4.143-1.393-7.811-4.459-10.16m-2.57 9.703c-.162 2.493-1.98 5.607-5.587 6.553a3.53 3.53 0 0 0-2.184 1.694 3.53 3.53 0 0 0-.288 2.749c.972 3.159-1.873 4.891-3.656 5.642-3.355 1.415-7.288 1.083-8.256-.691-.628-1.152-1.859-1.88-3.156-1.836a3.52 3.52 0 0 0-3.087 1.948c-.21.418-.841 1.687-3.487 1.443-3.035-.284-5.923-2.38-6.382-3.996-.071-.249-.287-1.008 1.354-2.249a3.52 3.52 0 0 0-1.367-6.25c-3.019-.664-3.997-3.079-3.917-4.946.085-1.99 1.391-4.276 4.801-4.727a3.52 3.52 0 0 0 2.905-4.529c-.945-3.067 1.953-5.07 3.243-5.789a11.5 11.5 0 0 1 5.476-1.426c2.08 0 4.062.638 5.359 2.123a3.523 3.523 0 0 0 4.71.542c2.67-1.92 6.275-1.476 8.087.038 1.263 1.057 1.462 2.364.625 4.113a3.523 3.523 0 0 0 1.85 4.782c2.771 1.128 3.042 3.499 2.957 4.812"/><path fill="#FFFBE8" d="M765.058 333.815a3.526 3.526 0 0 1-1.849-4.783c.294-.616.166-.723-.029-.886-.612-.512-2.133-.793-3.286.037a3.523 3.523 0 0 1-4.71-.543c-1.049-1.201-3.387-1.004-4.952-.133-.501.28-1.636 1.029-1.349 1.957a3.523 3.523 0 0 1-2.905 4.53c-1.406.185-1.734.974-1.76 1.604-.018.402.078 1.367 1.332 1.642a3.522 3.522 0 0 1 1.368 6.25q-.106.08-.179.145c.292.33.935.829 1.865 1.101.839.245 1.359.134 1.455.065.586-1.173 1.794-1.956 3.106-1.979 1.363-.021 2.546.652 3.175 1.804.343.329 2.358.474 3.936-.485 1.117-.68.96-1.191.866-1.497a3.53 3.53 0 0 1 .288-2.749 3.53 3.53 0 0 1 2.184-1.694c1.558-.409 2.342-1.731 2.41-2.787.077-1.175-.68-1.483-.966-1.599"/><path fill="#4C4C4C" d="M767.7 322.743c-2.534-2.12-6.213-2.656-9.397-1.573-3.533-2.13-8.159-1.679-11.501.185-2.811 1.566-4.55 3.979-4.938 6.628-2.764 1.404-4.546 4.075-4.685 7.315-.109 2.572.872 4.913 2.595 6.57-.312 1.11-.31 2.285.026 3.469 1.087 3.82 5.371 6.226 8.85 6.551q.46.043.909.043c1.404 0 2.697-.315 3.809-.908 2.706 1.3 6.217 1.103 9.041-.085 3.399-1.432 5.486-4.095 5.8-7.117 2.779-1.698 4.629-4.629 4.845-7.95.177-2.729-.799-5.175-2.644-6.883.176-2.371-.759-4.613-2.71-6.245m-4.087 15.458a3.52 3.52 0 0 0-2.471 4.443c.094.306.251.817-.866 1.497-1.578.959-3.593.814-3.937.485-.628-1.152-1.812-1.825-3.174-1.804-1.312.023-2.52.806-3.107 1.979-.095.069-.616.18-1.454-.065-.93-.272-1.573-.771-1.865-1.101q.072-.064.178-.145a3.52 3.52 0 0 0-1.367-6.25c-1.254-.275-1.35-1.24-1.333-1.642.027-.63.354-1.419 1.761-1.605a3.52 3.52 0 0 0 2.904-4.529c-.286-.928.849-1.677 1.349-1.957 1.565-.871 3.904-1.068 4.952.133a3.524 3.524 0 0 0 4.711.543c1.153-.83 2.674-.549 3.286-.037.195.163.323.27.029.886a3.523 3.523 0 0 0 1.849 4.783c.285.116 1.043.424.966 1.599-.068 1.056-.852 2.378-2.411 2.787"/><path fill="#5B5B5B" d="M460.802 306.768c9.748-.045 19.506-.932 29.262-.567 7.317.189 14.61.703 21.884 1.506 2.424.257 4.835.616 7.259.879 1.908.275 3.71-1.048 3.989-2.975a3.52 3.52 0 0 0-2.971-3.995c-4.985-.733-9.992-1.353-15.023-1.652-4.885-.323-10.225-.502-15.104-.425-10.113.349-20.262.517-29.975 3.895-1.831.668-1.258 3.426.679 3.334"/><path fill="#5B5B5B" d="M478.393 293.463c4.694-.65 9.814-1.153 14.536-1.357 2.427-.133 4.858-.173 7.288-.167 2.447-.098 4.807.448 7.367-.448 1.901-.516 2.267-3.309.52-4.277-2.416-1.441-5.043-1.376-7.599-1.659-7.8-.63-15.485-.434-23.237.96-4.41.984-3.375 7.412 1.125 6.948"/><path fill="#4C4C4C" d="m760.655 524.996 8.925 2.563q.49.138.974.137a3.521 3.521 0 0 0 .971-6.908l-8.926-2.563a3.523 3.523 0 0 0-1.944 6.771"/><path fill="#64862A" d="M444.937 648.191c15.39-.859 30.849-1.327 46.322-1.327 13.857 0 27.701.37 41.489 1.061 7.195-6.609 14.266-12.894 20.675-18.257-37.401-33.797-75.576-36.665-111.059-26.295.194 2.752 3.019 39.663 3.004 43.162a3.5 3.5 0 0 1-.431 1.656"/><path fill="#8CBA3B" d="M573.272 623.306c-7.617 5.005-18.731 14.396-30.643 25.169 140.319 8.606 273.811 49.968 355.659 80.477-4.96-14.211-13.443-30.736-26.707-34.208-5.892-1.542-11.907-2.045-18.275-2.577-21.777-1.821-46.461-3.884-79.521-47.287-68.995-90.58-143.4-59.109-200.513-21.574"/><path fill="#D2E6B0" d="M136.026 718.185c-31.479 10.472-58.496 20.623-79.539 29.02a2378 2378 0 0 1 84.577-14.953c-2.376-4.456-4.536-9.559-5.038-14.067"/><path fill="#D2E6B0" d="M388.882 682.545q6.063-.356 12.132-.667a20.1 20.1 0 0 1-6.337-5.153c-3.243-3.976-4.778-8.873-4.21-13.435a14 14 0 0 1 .787-3.166c-2.087.273-4.242.546-6.479.818.9.828 1.745 1.745 2.507 2.762 3.065 4.092 4.392 9.038 3.642 13.569a13.7 13.7 0 0 1-2.042 5.272"/><path fill="#D2E6B0" d="M360.114 680.298a13.8 13.8 0 0 1-1.447 4.262q3.853-.285 7.711-.558a20.2 20.2 0 0 1-3.249-3.419c-3.064-4.092-4.392-9.037-3.641-13.568a14 14 0 0 1 .929-3.172c-1.91.276-3.814.563-5.717.849a20 20 0 0 1 1.772 2.038c3.065 4.092 4.392 9.038 3.642 13.568"/><path fill="#D2E6B0" d="M449.723 654.981c2.464 3.665 3.58 7.917 3.083 11.912-.459 3.686-2.274 6.876-5.109 8.982-2.35 1.745-5.187 2.579-8.132 2.579-5.135 0-10.602-2.534-14.401-7.193-3.244-3.977-4.778-8.873-4.211-13.435.039-.313.101-.617.16-.922-1.507.125-3.014.246-4.518.378a20 20 0 0 1 1.514 1.641c3.243 3.976 4.778 8.873 4.211 13.435-.445 3.568-2.17 6.663-4.853 8.768 28.449-1.128 56.931-1.343 85.251.007 3.986.219 7.957.537 11.904 1.742a1.197 1.197 0 0 1-.245 2.339c-3.954.47-7.91.393-11.85.251-35.606-.999-71.223.979-106.755 3.229-17.071 1.171-42.246 3.077-59.223 4.706-3.945.362-7.9.588-11.93.053a2.583 2.583 0 0 1-.468-5.023c3.051-.995 6.871-1.563 10.779-1.962a20 20 0 0 1-2.611-2.859c-3.064-4.092-4.392-9.038-3.642-13.569.066-.397.155-.784.251-1.168-54.819 9.557-106.423 22.667-151.586 36.233-.118.733-.239 1.472-.368 2.235a362 362 0 0 1-1.503 8.275c3.734-4.691 5.655-4.705 6.636-4.711 1.757-.038 3.308.973 4.15 2.635 1.275 2.516 1.392 7.066 1.016 11.888 101.027-13.876 201.088-20.698 302.564-20.698 149.141 0 297.404 16.03 452.076 48.937-75.743-31.442-262.026-99.758-450.654-99.758-13.868 0-27.728.372-41.536 1.073"/><path fill="#8CBA3B" d="M186.418 732.652a154 154 0 0 1-1.811 9.7 3.522 3.522 0 1 1-6.879-1.517c1.544-7.004 2.71-15.27 2.733-20.213-2.815 3.936-6.874 11.111-10.005 17.507a3.522 3.522 0 0 1-6.582-2.4c.035-.138 3.467-13.972 5.981-28.549 4.058-23.53 2.417-29.785 1.75-31.223a7 7 0 0 0-1.116.692c-10.907 8.039-10.79 32.24-9.177 47.042q.09.397.089.792c.255 2.218.541 4.21.824 5.871.095.502.157.868.19 1.07a3.524 3.524 0 0 1-2.874 4.035 3.524 3.524 0 0 1-4.066-2.83 48 48 0 0 1-.154-.883c-1.11-6.054-4.127-15.636-8.119-17.93-.9-.517-1.742-.562-2.812-.152-.837.32-1.11.74-1.28 1.315-1.399 4.737 5.285 16.885 10.478 23.998a3.522 3.522 0 0 1-5.687 4.156 94 94 0 0 1-2.981-4.354c-40.44 6.346-81.088 13.815-122.098 22.444q-1.574.687-3.017 1.322h929.903c-157.544-34.149-308.249-50.772-459.871-50.772-101.757 0-202.092 6.878-303.419 20.879"/><path fill="#DB00F8" d="M186.147 626.63c2.48 3.869 1.646 9.506-2.287 15.464-3.089 4.679-1.592 10.358 1.107 13.656 1.299 1.586 4.909 5.037 10.389 2.82 5.82-2.355 6.071-5.622 6.487-11.035.281-3.651.599-7.789 3.146-11.598 3.853-5.763 10.138-4.828 15.682-4.005 5.117.761 9.95 1.479 14.232-1.633 4.349-3.16 6.258-9.537 4.44-14.832-1.733-5.046-6.388-7.707-13.082-7.48-5.919.199-9.953-.259-12.789-1.528-2.423 1.794-4.42 3.472-6.028 4.972 3.557-.258 7.419.127 10.647 2.037a3.522 3.522 0 1 1-3.588 6.062c-3.659-2.165-10.086-.753-13.604.408a3.5 3.5 0 0 1-.899.705c-.718.748-2.15 4.373-1.019 13.267a3.52 3.52 0 0 1-3.498 3.967 3.52 3.52 0 0 1-3.489-3.078c-1.013-7.959-.27-12.864.967-15.89-1.998-1.163-5.859-2.567-11.619-1.046a3.524 3.524 0 0 1-4.305-2.506 3.524 3.524 0 0 1 2.507-4.305c5.882-1.552 10.527-.876 13.87.344-.111-3.114.601-7.476 3.311-13.389a3.523 3.523 0 0 1 6.404 2.936c-1.383 3.017-2.087 5.379-2.42 7.206 1.958-2.001 4.513-4.304 7.806-6.795-1.182-3.096-.781-6.925-.304-11.47.264-2.518.563-5.371.658-8.549.084-2.823-1.02-5.047-3.109-6.262-2.67-1.552-6.392-1.262-9.713.761-3.051 1.857-3.576 5.321-4.178 10.822-.511 4.658-1.09 9.938-4.466 14.24-5.747 7.321-11.555 4.502-14.676 2.987-4.247-2.061-9.077-.074-12.915 5.316-1.979 2.78-2.131 6.879-.362 9.749 1.875 3.041 5.529 4.24 10.572 3.464q2.849-.44 5.254-.439c5.238 0 8.884 1.559 10.871 4.657"/><path fill="#FFB921" d="M249.487 593.121a3.28 3.28 0 0 0 .899-4.546 3.25 3.25 0 0 0-2.087-1.391 3.26 3.26 0 0 0-2.46.492 3.28 3.28 0 0 0-.898 4.546 3.28 3.28 0 0 0 4.546.899"/><path fill="#FFFBE8" d="M372.631 662.963c-1.353 0-2.627.343-3.689 1.069-1.696 1.16-2.298 2.888-2.505 4.134-.438 2.645.412 5.632 2.331 8.195 3.377 4.51 9.193 6.293 12.701 3.894 1.697-1.159 2.299-2.888 2.505-4.133.439-2.646-.411-5.633-2.33-8.196-2.354-3.144-5.895-4.963-9.013-4.963"/><path fill="#FFFBE8" d="M350.659 683.281c1.697-1.16 2.299-2.888 2.505-4.134.438-2.645-.411-5.632-2.33-8.195-2.354-3.143-5.895-4.963-9.012-4.963-1.354 0-2.627.343-3.69 1.069-1.696 1.16-2.299 2.888-2.505 4.134-.438 2.645.412 5.632 2.331 8.195 3.377 4.509 9.194 6.29 12.701 3.894"/><path fill="#FFFBE8" d="M413.01 675.684c1.636-1.215 2.164-2.953 2.319-4.196.331-2.662-.645-5.619-2.679-8.113-2.408-2.953-5.874-4.625-8.92-4.625-1.471 0-2.844.39-3.953 1.214-1.637 1.216-2.165 2.953-2.32 4.197-.331 2.662.645 5.618 2.679 8.112 3.572 4.379 9.468 5.941 12.874 3.411"/><path fill="#FFFBE8" d="M430.263 654.5c-1.636 1.215-2.165 2.953-2.319 4.196-.332 2.662.645 5.619 2.678 8.113 3.572 4.379 9.469 5.941 12.874 3.411 1.636-1.216 2.165-2.953 2.319-4.197.332-2.662-.645-5.618-2.678-8.112-2.409-2.953-5.875-4.625-8.92-4.625-1.472 0-2.845.39-3.954 1.214"/><path fill="#8CBA3B" d="M401.967 639.518a4.368 4.368 0 1 0-2.682-8.315 4.368 4.368 0 0 0 2.682 8.315"/><path fill="#8CBA3B" d="M416.968 636.334c.799-5.221-.209-9.441-2.994-12.543-4.425-4.93-11.433-4.771-12.213-4.734a3.513 3.513 0 0 0-3.354 3.652 3.534 3.534 0 0 0 3.643 3.386c1.247-.036 4.835.319 6.702 2.424 1.294 1.458 1.715 3.729 1.253 6.751a3.522 3.522 0 0 0 6.963 1.064"/><path fill="#8CBA3B" d="M425.706 638.292q.183.02.363.019a3.52 3.52 0 0 0 3.499-3.164c1.068-10.429-3.559-19.354-13.027-25.132-6.8-4.15-14.219-3.04-14.531-2.991a3.514 3.514 0 0 0-2.923 4.007 3.527 3.527 0 0 0 4.002 2.954c.052-.006 5.244-.726 9.783 2.043 4.968 3.032 10.683 8.686 9.689 18.402a3.52 3.52 0 0 0 3.145 3.862"/><path fill="#FFFBE8" d="M663.397 504.899c.228-.027.479-.044.745-.044.991 0 2.194.239 3.262 1.122 2.854 2.359 2.737 7.695-.256 11.652-1.705 2.256-4.024 3.706-6.362 3.98-1.08.126-2.652.042-4.007-1.078-2.855-2.359-2.738-7.695.255-11.652 1.706-2.256 4.025-3.707 6.363-3.98"/><path fill="#FFFBE8" d="M646.624 482.7c1.706-2.256 4.025-3.706 6.363-3.98.229-.026.479-.044.745-.044.991 0 2.194.24 3.263 1.122 2.854 2.359 2.737 7.695-.256 11.653-1.706 2.255-4.025 3.706-6.364 3.979-1.079.125-2.651.042-4.006-1.078-2.855-2.359-2.738-7.695.255-11.652"/><path fill="#FFFBE8" d="M641.047 452.469c1.065-.167 2.626-.147 4.012.91 2.94 2.242 3.029 7.592.193 11.684-1.619 2.336-3.881 3.886-6.207 4.254-1.065.168-2.627.147-4.013-.91-2.94-2.241-3.028-7.592-.193-11.684 1.619-2.336 3.882-3.886 6.208-4.254"/><path fill="#FFFBE8" d="M622.379 431.442c1.619-2.336 3.882-3.886 6.208-4.254 1.067-.168 2.626-.147 4.012.909 2.94 2.242 3.029 7.593.193 11.685-1.619 2.335-3.881 3.886-6.208 4.254-1.064.168-2.627.147-4.012-.91-2.94-2.241-3.029-7.592-.193-11.684"/></svg>