<svg xmlns="http://www.w3.org/2000/svg" width="890" height="766" fill="none" viewBox="0 0 890 766"><path fill="#6DB5C3" d="M36.273 402.798c-3.42 9.874-7.324 23.245-7.515 26.167l13.622 46.461 7.096-24.693z"/><path fill="#6DB5C3" d="M76.872 238.053c-9.47-21.778-8.324-25.25-7.766-26.922.63-1.891 1.726-3.722 2.997-5.843q.349-.582.712-1.195c-1.674-2.057-5.784-8.22-6.643-19.775l-5.17-17.654c-.685-1.885.555-4.11 2.778-4.916 1.055-.383 2.178-.395 3.164-.032a3.8 3.8 0 0 1 1.186.711c.857-3.796 2.014-7.885 3.52-12.274-1.157-.622-2.335-.786-3.462-.786-.622 0-1.228.048-1.808.095-13.416 1.072-32.762 10.941-40.622 25.016-2.85 5.101-2.262 16.976 3.654 27.265 2.786 4.845 9.063 13.003 19.807 13.195 8.784.157 15.305 11.289 20.928 25.276 2.1-.699 4.346-1.424 6.725-2.161M46.86 204.384c-.525.909-1.395 1.619-2.45 2.001a4.8 4.8 0 0 1-1.644.291c-1.649 0-3.128-.877-3.655-2.331l-7.006-23.919c-.332-.915-.22-1.965.329-2.915.525-.909 1.395-1.619 2.45-2.002 2.222-.805 4.6.112 5.3 2.04l7.005 23.92c.333.914.22 1.964-.329 2.915m12.01-5.643a4.9 4.9 0 0 1-1.654.295c-.52 0-1.03-.087-1.51-.263-1.03-.379-1.788-1.115-2.135-2.072l-7.006-23.919c-.684-1.887.556-4.111 2.78-4.916 1.054-.381 2.178-.393 3.163-.032 1.03.378 1.788 1.114 2.135 2.072l7.006 23.918c.684 1.887-.556 4.112-2.779 4.917"/><path fill="#4C4C4C" d="M54.643 169.906c-.347-.958-1.105-1.693-2.135-2.072-.985-.361-2.109-.349-3.164.032-2.223.806-3.463 3.03-2.78 4.917l7.007 23.918c.347.958 1.105 1.693 2.136 2.072.478.176.99.263 1.51.263.55 0 1.11-.098 1.653-.294 2.223-.806 3.464-3.031 2.78-4.918z"/><path fill="#4C4C4C" d="M40.183 177.55c-.699-1.928-3.077-2.846-5.299-2.04-1.054.382-1.925 1.092-2.45 2.001-.55.951-.661 2.001-.33 2.915l7.007 23.92c.527 1.454 2.006 2.331 3.655 2.331a4.8 4.8 0 0 0 1.644-.292c1.055-.382 1.925-1.092 2.45-2.001.55-.95.662-2 .33-2.915z"/><path fill="#6DB5C3" d="M90.25 201.364a3.19 3.19 0 0 1 2.418 2.884l1.933 28.855a259 259 0 0 1 8.632-1.966l-4.192-29.328a3.19 3.19 0 0 1 1.502-3.179c.06-.038 7.905-5.082 12.66-19.077 4.133-12.165 2.694-31.426-5.418-38.992-2.269-2.116-4.891-3.172-7.92-3.172-2.2 0-4.615.557-7.266 1.67-9.346 3.919-18.692 17.348-17.123 37.569 1.013 13.06 6.812 22.769 14.774 24.736"/><path fill="#DCEDF1" d="M101.022 362.402 86.929 312.61a9.94 9.94 0 0 1-.017-5.371 3.19 3.19 0 0 1-1.757-2.128l-2.918-12.004a3.19 3.19 0 0 1 1.515-3.523c.139-.08.851-.485 2.02-1.114l-2.076-8.535a3.19 3.19 0 0 1 1.772-3.655c.643-.295 15.952-7.255 34.026-11.397 4.38-1.003 8.42-1.83 12.096-2.515.163-.482.33-.961.517-1.432a1720 1720 0 0 1-4.777-27.074c-5.636.51-19.302 2.141-37.13 6.965-16.01 4.331-28.561 9.095-33.61 11.109 11.023 52.279 24.854 94.422 31.933 114.427a648 648 0 0 1 12.499-3.961"/><path fill="#6DB5C3" d="M654.312 547.466a177 177 0 0 0-4.153-1.069 10.95 10.95 0 0 1-6.877-5.07 10.96 10.96 0 0 1-1.192-8.464l6.525-24.79a11 11 0 0 1 5.781-7.105 10.98 10.98 0 0 1 10.336-2.886c3.875.919 8.103 2.08 12.566 3.451a358 358 0 0 1 11.817 3.845 10.96 10.96 0 0 1 6.341 5.633 10.97 10.97 0 0 1 .471 8.468l-8.462 24.04a11 11 0 0 1-5.522 6.248 10.98 10.98 0 0 1-11.057 2.687 1905 1905 0 0 0-10.179-3.148 251 251 0 0 0-3.785 6.342c29.724 9.546 55.719 19.334 67.145 23.747a2.56 2.56 0 0 0 3.269-1.362l24.5-55.498a2.54 2.54 0 0 0 0-2.071 2.56 2.56 0 0 0-1.544-1.408c-41.852-14.084-83.507-25.887-99.474-30.309a2.56 2.56 0 0 0-3.13 1.708l-17.128 54.398a2.56 2.56 0 0 0 .186 1.991c.326.609.87 1.051 1.53 1.243a911 911 0 0 1 18.384 5.571 253 253 0 0 1 3.652-6.192m67.138 1.676c.186.386.211.821.068 1.224l-1.215 3.453a1.59 1.59 0 0 1-1.501 1.068c-.159 0-3.05-.844-3.457-.943a1.6 1.6 0 0 1-.994-.734 1.58 1.58 0 0 1-.172-1.224l.937-3.56a1.587 1.587 0 0 1 1.915-1.147c.461.11 3.058.895 3.501 1.047.406.141.732.43.918.816m-10.544-15.933.937-3.56a1.594 1.594 0 0 1 1.915-1.148c.463.11 3.059.896 3.503 1.05.404.138.73.428.916.813.187.386.212.822.069 1.226l-1.215 3.452a1.59 1.59 0 0 1-1.502 1.068c-.159 0-3.049-.845-3.456-.944a1.58 1.58 0 0 1-.993-.732 1.6 1.6 0 0 1-.174-1.225m-12.826 7.358c.463.11 3.06.896 3.504 1.05.405.139.731.429.917.814.186.386.21.821.068 1.225l-1.215 3.452a1.59 1.59 0 0 1-1.502 1.068c-.158 0-3.049-.845-3.456-.944a1.58 1.58 0 0 1-.994-.732 1.58 1.58 0 0 1-.173-1.225l.937-3.559a1.594 1.594 0 0 1 1.914-1.149"/><path fill="#DCEDF1" d="m681.446 541.4 8.462-24.04a4.63 4.63 0 0 0-.198-3.574 4.64 4.64 0 0 0-2.677-2.377c-3.668-1.266-20.033-6.23-23.776-7.118a4.7 4.7 0 0 0-1.105-.131 4.63 4.63 0 0 0-4.488 3.474l-6.525 24.79a4.63 4.63 0 0 0 .502 3.573 4.62 4.62 0 0 0 2.901 2.138c3.489.847 18.422 5.321 21.125 6.166a4.64 4.64 0 0 0 5.779-2.901"/><path fill="#4C4C4C" d="M695.229 545.275c-.11.419-.049.854.173 1.225.221.37.574.631.994.732.407.099 3.297.944 3.456.944a1.59 1.59 0 0 0 1.502-1.068l1.215-3.452a1.6 1.6 0 0 0-.068-1.224 1.58 1.58 0 0 0-.917-.815c-.444-.154-3.041-.939-3.504-1.049a1.594 1.594 0 0 0-1.914 1.148z"/><path fill="#4C4C4C" d="M712.073 535.167c.407.099 3.297.944 3.456.944.66 0 1.271-.412 1.502-1.069l1.215-3.452a1.58 1.58 0 0 0-.069-1.226 1.58 1.58 0 0 0-.916-.813c-.444-.154-3.04-.939-3.503-1.049a1.593 1.593 0 0 0-1.915 1.146l-.937 3.561c-.11.419-.048.853.173 1.225.222.371.575.631.994.733"/><path fill="#4C4C4C" d="m715.116 548.426-.937 3.56c-.111.418-.05.853.172 1.224.22.371.574.631.994.734.407.099 3.298.943 3.457.943.66 0 1.27-.411 1.501-1.068l1.215-3.453a1.58 1.58 0 0 0-.068-1.224 1.6 1.6 0 0 0-.918-.816c-.443-.152-3.04-.937-3.501-1.047a1.587 1.587 0 0 0-1.915 1.147"/><path fill="#6DB5C3" d="m159.107 261.597 2.919 12.004c.101.416.106.841.041 1.253a9.9 9.9 0 0 1 2.726 4.873l13.087 59.778c.3 1.318.325 2.654.093 3.946 31.688-6.058 67.951-10.967 108.192-13.203 8.544-.475 16.676-.842 24.444-1.115.209-8.907.231-21.758-.646-35.848-.881-14.165-3.224-28.37-6.963-42.221-2.687-9.954-11.721-16.811-22.062-16.811q-.23 0-.462.005c-13.964.275-35.926 1.274-61.254 4.466-31.973 4.031-52.986 8.064-64.982 10.737-6.695 1.491-12.135 5.848-15.179 11.621 10.413-1.634 16.441-1.903 16.815-1.919 1.525-.078 2.872.957 3.231 2.434m107.521 27.999c.3-.3.62-.571.936-.849.276-.313.544-.63.842-.928a19.42 19.42 0 0 1 13.821-5.725c5.222 0 10.13 2.033 13.823 5.725a19.42 19.42 0 0 1 5.725 13.822 19.42 19.42 0 0 1-5.725 13.823c-.3.3-.62.571-.936.849-.275.313-.544.63-.842.928a19.42 19.42 0 0 1-13.821 5.725 19.42 19.42 0 0 1-13.823-5.725 19.42 19.42 0 0 1-5.725-13.822 19.42 19.42 0 0 1 5.725-13.823"/><path fill="#DCEDF1" d="M54.96 446.619c4.083-2.018 8.174-3.852 12.368-5.679 44.884-19.224 93.014-30.986 141.161-38.491 3.011-.543 10.104-1.345 13.198-1.77 3.937-.498 11.504-1.474 15.408-1.969 6.924-.625 21.887-1.999 28.723-2.601 5.913-.32 20.555-1.07 26.578-1.393 5.262-.333 12.462-.257 17.734-.376 4.897.011 12.844-.485 17.734.477a1.55 1.55 0 0 1 1.257 1.799 1.56 1.56 0 0 1-1.26 1.259c-4.935 1.133-12.526.945-17.635 1.13-3.21.085-10.19.232-13.222.31-8.058.407-22.795 1.413-30.797 1.882-5.399.54-20.671 2.068-26.307 2.637-4.889.51-12.51 1.687-17.466 2.333-3.12.452-10.106 1.326-13.077 1.885-44.729 7.291-89.363 18.32-131.409 35.319-7.161 2.909-14.351 6.061-21.254 9.542l67.407 244.745a20.67 20.67 0 0 0 7.499 11.496q3.903-1.266 7.891-2.532c75.04-23.806 188.333-52.149 303.15-52.534l16.457-118.865c-10.784-1.326-21.41-3.877-31.503-7.775l-40.192 71.454c-2.116 7.331-11.968 39.13-24.205 41.53-8.44 1.654-18.166 2.488-28.332 2.488a194 194 0 0 1-25.091-1.644 166 166 0 0 1-8.078-1.275c-11.375 2.763-23.36 4.246-35.737 4.246-50.62 0-94.709-24.727-117.101-60.998l-2.011 1.036a3.857 3.857 0 0 1-4.967-1.276c-1.122-1.666-27.288-41.332-11.873-87.647a3.85 3.85 0 0 1 4.589-2.526l4.829 1.198c3.925-10.693 9.598-20.714 16.732-29.806 23.565-31.513 64.47-52.404 110.898-52.404 27.586 0 53.22 7.379 74.43 19.975-1.019-6.962-1.539-13.997-1.66-20.972a162.5 162.5 0 0 1 1.798-26.931 19.7 19.7 0 0 1-5.651.833c-5.006 0-10.012-1.905-13.823-5.716-7.217-7.218-7.588-18.717-1.135-26.389a19.6 19.6 0 0 1 3.622-5.018 19.42 19.42 0 0 1 13.823-5.725c4.991 0 9.685 1.877 13.315 5.265a148 148 0 0 1 5.674-12.099c-20.091-.384-43.392.042-70.93 1.572-53.005 2.946-99.03 10.551-136.679 19.294-1.439.353-13.008 3.297-16.61 4.191-5.344 1.325-14.562 3.797-14.897 3.869-38.492 10.787-64.648 21.695-76.105 26.879a3.004 3.004 0 0 0-1.687 3.41zm7.347-51.368c47.44-22.15 114.98-32.464 115.657-32.566a3.18 3.18 0 0 1 2.371.59 3.2 3.2 0 0 1 1.258 2.094l3.937 26.391a3.19 3.19 0 0 1-2.637 3.619c-42.654 7.014-112.45 31.261-113.15 31.505a3.2 3.2 0 0 1-2.639-.244 3.2 3.2 0 0 1-1.543-2.155l-5.035-25.73a3.19 3.19 0 0 1 1.781-3.504"/><path fill="#DB00F8" d="M96.34 294.863c-1.421.787-2.099 2.446-1.648 4.036l15.808 55.856c.265.933 1.049 1.838 2.1 2.42 1.421.786 3.178.936 4.949.42 4.06-1.184 8.733-2.343 14.145-3.685 3.586-.889 7.65-1.897 12.073-3.048 8.429-2.193 15.236-3.609 20.207-4.643 1.897-.395 3.564-.741 5.005-1.064a3.52 3.52 0 0 0 2.221-1.567 3.5 3.5 0 0 0 .456-2.676l-.006-.029-13.084-59.762a3.524 3.524 0 0 0-3.818-2.706c-5.754.637-15.825 2.234-31.129 6.218-13.745 3.579-22.421 7.538-27.28 10.23m59.137-4.309 7.229 35.834a3.19 3.19 0 0 1-2.553 3.769l-.255.048-4.814 1.014c-7.381 1.65-21.986 5.293-38.17 11.402a3.2 3.2 0 0 1-2.586-.147 3.2 3.2 0 0 1-1.624-2.016l-8.992-33.73a3.19 3.19 0 0 1 1.404-3.535c.784-.485 19.502-11.906 46.855-15.177a3.19 3.19 0 0 1 3.506 2.538"/><path fill="#4C4C4C" d="M280.45 322.966a19.42 19.42 0 0 0 13.822-5.725c.298-.298.567-.615.842-.928.316-.278.636-.549.936-.849a19.42 19.42 0 0 0 5.725-13.823 19.42 19.42 0 0 0-5.725-13.822 19.42 19.42 0 0 0-13.823-5.725 19.42 19.42 0 0 0-13.821 5.725c-.298.298-.566.615-.842.928-.316.278-.636.549-.936.849a19.42 19.42 0 0 0-5.725 13.823 19.42 19.42 0 0 0 5.725 13.822 19.42 19.42 0 0 0 13.822 5.725m-8.196-31.298a14 14 0 0 1 9.973-4.132 14 14 0 0 1 9.974 4.132 14 14 0 0 1 4.132 9.973c0 3.768-1.468 7.31-4.132 9.974a14 14 0 0 1-9.974 4.132 14 14 0 0 1-9.973-4.132 14.02 14.02 0 0 1-4.132-9.974c0-3.767 1.468-7.309 4.132-9.973"/><path fill="#DCEDF1" d="M348.434 351.455a14 14 0 0 0-9.974-4.132 14 14 0 0 0-9.974 4.132 14 14 0 0 0-4.131 9.974c0 3.767 1.467 7.309 4.131 9.973a14 14 0 0 0 9.974 4.132c1.672 0 3.293-.305 4.819-.859a156.6 156.6 0 0 1 6.304-21.903 14 14 0 0 0-1.149-1.317"/><path fill="#6DB5C3" d="M267.056 634.67c4.613 0 9.167-.222 13.652-.64-2.924-1.342-5.397-2.885-6.999-4.656-2.589-2.861-2.288-5.567-1.878-6.926a66 66 0 0 1 1.77-5.067c-2.524.159-5.071.243-7.641.243-39.587 0-74.124-19.128-92.011-47.298l-16.78 8.642c21.498 33.196 62.694 55.702 109.887 55.702"/><path fill="#6DB5C3" d="m146.478 495.784 18.834 4.672c12.913-37.661 53.144-65.203 100.648-65.203 31.267 0 59.38 11.934 78.632 30.828l3.388-8.686c-2.118-5.574-3.764-11.319-4.998-17.162-21.111-13.814-47.423-22.027-75.926-22.027-56.959 0-105.184 32.781-120.578 77.578"/><path fill="#3F8C9B" d="M179.62 567.375c16.822 26.133 49.216 43.867 86.34 43.867 3.593 0 7.14-.17 10.634-.494 7.901-15.449 19.828-26.25 22.801-28.8l42.669-109.386c-18.102-18.876-45.497-30.928-76.104-30.928-44.805 0-82.722 25.83-94.685 61.082.21.253.398.525.539.829.564 1.208 13.749 29.942 9.487 61.145a3.86 3.86 0 0 1-1.681 2.685m117.454-82.948c-3.758-.543-6.908-2.251-10.46-3.004-6.866-1.767-14.056-2.251-21.13-1.751-3.446.265-7.188.746-10.51 1.57-4.06.88-5.592-4.942-1.612-6.17 11.393-2.921 23.575-2.593 34.809.808 3.719 1.121 7.49 2.441 10.513 5.044 1.523 1.264.322 3.843-1.61 3.503m-73.907-17.724c25.797-14.165 58.956-13.036 85.072-.168a48 48 0 0 1 2.636 1.45 3.19 3.19 0 0 1-3.211 5.512 43 43 0 0 0-2.329-1.236 86 86 0 0 0-7.294-3.193 100.3 100.3 0 0 0-31.317-6.513c-14.474-.835-28.548 2.527-42.305 6.964-1.721.555-2.863-1.873-1.252-2.816m-9.146 105.363c3.531 1.397 6.201 3.786 9.483 5.34 6.273 3.304 13.157 5.436 20.154 6.583 3.415.539 7.166.936 10.589.901 4.153.082 4.3 6.1.143 6.376-11.759.209-23.537-2.924-33.681-8.827-3.359-1.95-6.724-4.105-9.064-7.336-1.189-1.582.575-3.814 2.376-3.037"/><path fill="#4C4C4C" d="M234.226 193.863c-2.781-1.57-6.316-1.694-9.034-.136-2.088 1.199-3.319 3.143-3.52 5.394-2.027 1.268-3.359 3.388-3.645 5.969-.35 3.144.911 6.192 3.252 8.223-.242 2.872 1.252 5.713 4.192 7.616 2.453 1.587 5.727 2.352 8.468 1.547 1.135.917 2.601 1.489 4.284 1.628q.373.031.762.031c3.161 0 7.004-1.533 8.511-4.631.517-1.064.706-2.178.575-3.283 1.913-1.243 3.242-3.27 3.568-5.704.407-3.045-.833-5.831-3.205-7.577.109-2.543-1.105-5.099-3.479-7.036-2.82-2.299-7.084-3.486-10.729-2.041m7.69 9.292a3.19 3.19 0 0 0 1.873 4.5c1.498.475 1.598 1.467 1.525 2.016-.045.336-.301 1.435-1.715 1.492a3.192 3.192 0 0 0-2.208 5.358c.129.14.211.25.262.329-.418.435-1.714 1.026-2.962.889-.738-.075-.808-.312-.832-.391a3.191 3.191 0 0 0-5.55-1.088c-.169.21-1.729.376-3.371-.688-1.134-.734-1.52-1.472-1.15-2.194a3.19 3.19 0 0 0-1.502-4.354c-1.488-.687-2.037-2.155-1.918-3.229.14-1.258 1.035-1.45 1.329-1.512a3.193 3.193 0 0 0 2.407-3.973c-.214-.774.018-.907.264-1.048.734-.422 2.298-.441 3.328.619a3.19 3.19 0 0 0 4.286.262c1.267-1.018 3.55-.428 4.939.706.574.468 1.466 1.39.995 2.306"/><path fill="#4C4C4C" d="M373.362 170.946c1.861 1.204 4.31 1.811 6.468 1.344.902.623 2.01 1.011 3.258 1.114q.318.026.646.026c2.629 0 5.711-1.263 6.979-3.87a5.16 5.16 0 0 0 .529-2.344c1.381-1.052 2.331-2.63 2.579-4.492.315-2.351-.594-4.571-2.327-6.049-.047-1.978-1.04-3.927-2.869-5.42-2.176-1.774-5.429-2.72-8.311-1.769-2.232-1.131-4.942-1.151-7.116.098-1.631.936-2.66 2.457-2.942 4.204-1.503 1.089-2.505 2.777-2.725 4.756-.271 2.437.633 4.804 2.349 6.465-.041 2.261 1.186 4.451 3.482 5.937m.511-11.697c.034-.306.128-.326.3-.362a3.19 3.19 0 0 0 2.441-3.839c.308-.042.804.016 1.155.377a3.19 3.19 0 0 0 4.286.262c.392-.312 1.131-.195 1.645.002.915.35 1.38.971 1.398 1.143a3.193 3.193 0 0 0 1.873 4.5c.575.182.543.419.526.546-.044.334-.283.343-.441.35a3.19 3.19 0 0 0-2.663 4.728 2.4 2.4 0 0 1-.792.095 3.188 3.188 0 0 0-5.261-.977c-.606.05-1.796-.501-2.056-.975l.002-.004a3.19 3.19 0 0 0-1.501-4.354 1.515 1.515 0 0 1-.912-1.492"/><path fill="#4C4C4C" d="M805.072 152.635c10.232 0 18.555-8.324 18.555-18.555s-8.323-18.555-18.555-18.555-18.555 8.324-18.555 18.555 8.324 18.555 18.555 18.555"/><path fill="#6DB5C3" d="M805.072 159.713c14.134 0 25.633-11.498 25.633-25.633s-11.499-25.633-25.633-25.633-25.633 11.499-25.633 25.633c0 14.135 11.499 25.633 25.633 25.633m0-44.188c10.232 0 18.555 8.324 18.555 18.555s-8.323 18.555-18.555 18.555-18.555-8.323-18.555-18.555 8.324-18.555 18.555-18.555"/><path fill="#6DB5C3" d="M723.051 127.815c-3.164-2.804-5.171-6.885-5.171-11.435 0-8.434 6.861-15.296 15.295-15.296s15.297 6.862 15.297 15.296c0 4.258-1.753 8.112-4.57 10.888-.213 3.097-.584 6.184-1.019 9.261 7.485-3.621 12.659-11.292 12.659-20.149 0-12.333-10.033-22.367-22.367-22.367-12.333 0-22.366 10.034-22.366 22.367a22.26 22.26 0 0 0 5.279 14.411c2.34-.951 4.664-1.934 6.963-2.976"/><path fill="#6DB5C3" d="M740.965 168.447c-.013.373-.047.743-.071 1.115 35.425 7.2 76.846 16.423 113.219 26.643l1.929-6.629c-12.608-3.327-61.324-15.966-115.077-27.093.073 1.997.112 4.004 0 5.964"/><path fill="#5B5B5B" d="M207.298 183.788c3.325-3.724 6.162-7.758 8.914-11.847 4.844-7.202 11.695-17.457 16.329-24.65a723 723 0 0 0 7.941-12.467c2.098-3.591-3.025-6.835-5.379-3.431-5.385 8.254-10.587 16.625-15.751 25.018-4.413 7.491-11.282 17.785-14.652 25.72-.698 1.605 1.441 2.956 2.598 1.657"/><path fill="#5B5B5B" d="M235.682 153.046c-3.806 6.493-7.514 13.043-10.972 19.728-1.786 3.712 3.501 6.562 5.617 3.028 3.684-6.563 7.118-13.261 10.45-20.009 1.04-2.288 2.482-4.36 2.74-7.07a2.118 2.118 0 0 0-3.435-1.852c-2.122 1.705-3.06 4.049-4.4 6.175"/><path fill="#4C4C4C" d="M224.419 469.519c13.757-4.437 27.831-7.8 42.305-6.964a100.3 100.3 0 0 1 31.317 6.513 86 86 0 0 1 7.294 3.193c.811.401 1.65.844 2.329 1.236a3.19 3.19 0 0 0 3.211-5.512 47 47 0 0 0-2.636-1.45c-26.116-12.868-59.275-13.998-85.072.168-1.611.943-.469 3.371 1.252 2.816"/><path fill="#4C4C4C" d="M298.684 480.924c-3.022-2.603-6.794-3.923-10.513-5.044-11.233-3.401-23.416-3.729-34.809-.808-3.98 1.228-2.448 7.05 1.612 6.17 3.322-.824 7.064-1.305 10.51-1.57 7.074-.5 14.264-.016 21.13 1.751 3.552.753 6.703 2.461 10.46 3.004 1.932.34 3.133-2.239 1.61-3.503"/><path fill="#4C4C4C" d="M267.001 187.371c23.909 4.042 44.388 9.043 54.469 11.665.865.225 1.734.333 2.589.333 4.39 0 8.417-2.84 9.776-7.232 4.994-16.145 14.08-40.92 16.163-44.111 13.666-11.867 16.349-25.475 7.547-38.34-1.434-2.098-6.309-7.645-12.501-9.76-9.178-3.939-20.42-3.205-24.21-2.804-3.346-2.201-13.746-8.029-27.055-5.688-7.31 1.286-12.758 4.582-16.192 9.794-4.965 7.534-4.055 16.748-3.511 20.059-8.636 16.243-16.263 34.726-19.085 46.302a9.37 9.37 0 0 0 .835 6.598c2.804 5.777 5.985 12.308 11.175 13.184m-5.811-18.27c2.765-11.342 10.417-29.743 19.041-45.793.366-.681.47-1.48.297-2.234-.022-.094-2.122-9.53 2.408-16.367 2.432-3.671 6.452-6.022 11.949-6.989a29 29 0 0 1 5.051-.44c10.519 0 18.044 5.623 18.124 5.684a3.2 3.2 0 0 0 2.407.63c.208-.029 20.927-2.896 28.481 6.9 1.812 2.349 2.405 6.117 1.628 10.336-1.074 5.829-4.515 11.149-8.98 13.884-1.145.701-2.443 1.496-8.759 18.851-3.194 8.777-6.944 19.901-9.555 28.341a3.86 3.86 0 0 1-4.664 2.609c-10.192-2.649-30.891-7.703-55.01-11.779a2.98 2.98 0 0 1-2.016-1.31 2.92 2.92 0 0 1-.402-2.323"/><path fill="#D69200" d="M263.608 172.734c24.119 4.076 44.818 9.13 55.01 11.779a3.86 3.86 0 0 0 4.664-2.609c2.611-8.441 6.361-19.564 9.555-28.341 6.316-17.355 7.613-18.15 8.758-18.851 4.466-2.735 7.907-8.055 8.981-13.885.777-4.219.184-7.986-1.628-10.335-7.554-9.796-28.273-6.929-28.481-6.9a3.2 3.2 0 0 1-2.407-.63c-.08-.061-7.605-5.684-18.124-5.684-1.618 0-3.307.133-5.051.44-5.497.967-9.517 3.318-11.949 6.989-4.531 6.837-2.43 16.273-2.408 16.367a3.22 3.22 0 0 1-.297 2.234c-8.624 16.05-16.276 34.451-19.041 45.793a2.92 2.92 0 0 0 .402 2.323 2.98 2.98 0 0 0 2.016 1.31"/><path fill="#5B5B5B" d="M658.216 62.962c-5.065 4.554-4.798 12.077-4.775 12.4a2.9 2.9 0 0 0 3.027 2.768c1.599-.07 2.873-1.387 2.767-3.027.003-.04-.141-5.13 2.859-7.827 1.765-1.587 4.447-2.118 7.972-1.582a2.902 2.902 0 0 0 .873-5.736c-5.325-.81-9.605.201-12.723 3.004"/><path fill="#5B5B5B" d="M643.857 77.417a2.893 2.893 0 0 0 2.411-3.317c-.005-.06-.826-5.919 2.303-11.053 3.375-5.542 9.679-11.914 20.542-10.81a2.9 2.9 0 0 0 3.194-2.889 2.9 2.9 0 0 0-2.607-2.881c-10.821-1.102-20.085 3.716-26.083 13.56-4.274 7.017-3.128 14.657-3.078 14.98a2.9 2.9 0 0 0 3.318 2.41"/><path fill="#5B5B5B" d="M741.061 220.049c5.592 1.184 10.188.375 13.663-2.404 5.644-4.515 5.821-12.502 5.816-12.846a3.08 3.08 0 0 0-3.038-3.116c-1.698-.023-3.128 1.293-3.116 3.038-.006.042-.164 5.443-3.508 8.116-1.966 1.574-4.84 1.973-8.541 1.19a3.078 3.078 0 0 0-1.276 6.022"/><path fill="#5B5B5B" d="M741.55 234.418c11.396 1.829 21.505-2.708 28.46-12.772 4.958-7.172 4.211-15.336 4.177-15.681a3.077 3.077 0 0 0-3.368-2.756 3.07 3.07 0 0 0-2.757 3.368c.002.063.514 6.32-3.115 11.568-3.915 5.664-10.983 12.031-22.424 10.197a3.075 3.075 0 0 0-3.56 2.865 3.076 3.076 0 0 0 2.587 3.211"/><path fill="#DB00F8" d="M547.426 216.258c23.152 18.607 35.61 8.129 48.386-6.359 8.072-9.155 21.152-25.499 24.257-31.481l-53.958-38.369a2 2 0 0 0-.276.178c-4.235 3.277-15.286 17.809-21.223 25.617-16.142 21.23-15.327 35.835 2.814 50.414m47.459-40.071c1.274.902 1.704 2.063 1.841 2.878.381 2.278-.76 4.635-5.309 10.967l-.001.001c-9.637 13.41-13.542 18.324-16.831 18.324-.874 0-1.704-.347-2.586-.973-1.064-.751-1.694-1.746-1.871-2.953-.345-2.347.346-5.057 12.594-20.717 4.715-6.03 8.123-10.385 12.163-7.527m-33.738-6.468c4.716-6.03 8.123-10.386 12.163-7.527 1.275.904 1.705 2.065 1.842 2.881.381 2.277-.761 4.634-5.31 10.965-9.25 12.871-13.331 18.283-16.868 18.283-.859 0-1.686-.32-2.548-.929-1.065-.754-1.696-1.748-1.873-2.956-.344-2.346.347-5.057 12.594-20.717"/><path fill="#4C4C4C" d="M543.428 221.232c4.051 3.256 7.858 5.712 11.454 7.506 4.654 2.376 13.597 5.78 26.657 5.78 7.572 0 16.529-1.15 26.826-4.306 2.314 5 8.049 11.639 15.41 9.666 16.823-4.51 22.017-26.618 18.251-29.713a3.19 3.19 0 0 0-4.009-.584c-13.447 8.135-32.753 17.302-52.66 18.369 5.68-3.529 10.653-8.628 15.241-13.831 6.958-7.891 21.492-25.638 25.197-32.882 1.368-2.676.9-5.646-1.164-7.391a3 3 0 0 0-.211-.163l-54.632-38.849c-2.233-1.76-5.303-1.631-7.859.347-4.521 3.498-13.543 15.157-22.397 26.801-.328.432-.636.859-.953 1.287-6.024 8.167-9.765 15.664-11.211 22.667-2.707 13.107 2.611 24.487 16.06 35.296m1.184-55.388c5.937-7.808 16.988-22.34 21.223-25.617q.162-.123.276-.178l53.958 38.369c-3.105 5.981-16.186 22.326-24.257 31.481-12.776 14.488-25.234 24.965-48.386 6.359-18.141-14.579-18.956-29.185-2.814-50.414"/><path fill="#4C4C4C" d="M550.426 193.392c.862.609 1.689.929 2.549.929 3.536 0 7.617-5.412 16.867-18.284 4.549-6.33 5.691-8.687 5.31-10.964-.137-.816-.566-1.978-1.842-2.881-4.04-2.859-7.447 1.497-12.163 7.527-12.247 15.66-12.938 18.371-12.594 20.717.177 1.207.808 2.202 1.873 2.956"/><path fill="#4C4C4C" d="M570.128 204.431c.177 1.206.807 2.202 1.871 2.953.883.626 1.712.972 2.586.972 3.289 0 7.194-4.913 16.831-18.324l.001-.001c4.549-6.331 5.69-8.688 5.309-10.966-.137-.815-.567-1.977-1.841-2.878-4.04-2.858-7.448 1.497-12.163 7.527-12.248 15.66-12.939 18.37-12.594 20.717"/><path fill="#5B5B5B" d="m613.384 97.47.4-.05c3.075-.508 5.985-.827 8.984-.021 3.421.61 4.945-4.165 1.754-5.633-4.354-2.133-10.407-.763-12.442 3.925-.42.859.348 1.924 1.304 1.779"/><path fill="#5B5B5B" d="M659.513 110.904c-2.322-.583-3.864 2.505-1.952 4.005 2.278 1.715 4.579 3.722 6.444 5.822.831.955 2.13 1.455 3.393.932 3.059-1.437 1.524-4.636-.218-6.447-2.126-2.192-4.717-3.571-7.667-4.312"/><path fill="#6DB5C3" d="M692.578 230.183a3.19 3.19 0 0 1-.87-2.625l2.99-23.2c-1.403.197-2.978.476-4.051.728l-7.897 32.049 10.694.151a3.19 3.19 0 0 1 3.098 3.74l-5.087 29.087c1.492-.128 3.246-.383 4.356-.651l10.185-39.339-10.824 1.019a3.18 3.18 0 0 1-2.594-.959"/><path fill="#F295FF" d="M351.294 449.032c2.708 9.214 6.637 18.021 12.281 25.749 1.79 2.601 3.658 5.099 5.471 7.856a1.503 1.503 0 0 1-1.942 2.184c-6.203-3.334-10.223-9.348-13.582-15.301a94 94 0 0 1-1.947-3.784l-46.531 119.289c-.2.513-.529.966-.956 1.314-.194.158-19.577 16.185-26.148 37.953-.004.022.09.609 1.463 1.67 1.999 1.545 5.371 3.057 9.711 4.437l.839-1.838c1.16-2.041 2.396-4.183 3.734-6.118.086-.128 1.321-2.029 1.37-2.102 2.299-2.917 4.63-6.137 8.011-7.947 1.437-.861 3.203.736 2.513 2.24-1.595 3.328-3.462 6.271-5.435 9.394-.618 1.316-3.095 5.501-4.397 7.716l.22.526c17.567 4.14 44.345 6.146 66.001 1.9 6.302-1.236 15.303-23.037 19.401-37.383q.104-.361.287-.688l36.946-65.682c-6.652-3.918-17.064-15.811-20.46-19.8-.993-.947-1.839-2.036-2.37-3.458a1.677 1.677 0 0 1 1.864-2.252c.439.062.848.156 1.242.269 1.385.395 2.525 1.071 3.603 1.82.815.566 1.597 1.169 2.43 1.718 24.533 16.873 55.218 22.18 84.555 20.281 5.384-.361 10.76-.932 16.1-1.767 3.177-.49 6.335-1.146 9.521-1.462 2.261-.225 4.537-.285 6.846.029 1.126.097 1.559 1.687.618 2.327a199 199 0 0 1-2.707 1.943q-.75.594-1.449 1.128c-5.61 4.284-8.79 5.694-9.817 6.081l41.314 74.486q.049.089.092.178c.112.238 11.445 23.877 24.198 34.571.136.115 3.575 2.704 23.653-5.977 10.309-4.457 19.907-9.71 20.86-10.234 1.323-.835 2.92-1.775 4.764-2.861 3.046-1.794 7.75-4.563 12.057-7.608-2.091-2.852-3.908-5.749-6.008-8.594l-3.422-4.594a49 49 0 0 1-3.187-4.756c-.447-.762-.317-1.781.375-2.33a1.77 1.77 0 0 1 1.853-.226c1.945.839 3.616 2.15 5.154 3.516 4.016 3.816 7.47 8.279 10.369 12.987 3.732-3.273 6.094-6.521 4.772-8.958-11.385-20.979-31.452-27.573-31.654-27.637a3.2 3.2 0 0 1-1.955-1.749L577.548 500.1c-.851.192-1.646.017-2.017-1.019-.003-.019.001-.038-.001-.057-.158-1.762.903-3.387 1.863-4.697l.534-.724c.81-.995 2.331-3.02 3.072-4.063 21.444-30.737 32.648-68.972 29.247-106.448-.516-6.832-1.703-13.573-2.976-20.309-.913-5.309-2.257-10.543-2.738-16.046a44 44 0 0 1-.184-4.599 1.16 1.16 0 0 1 2.164-.562c2.364 4.049 4.678 11.739 5.656 15.214a11.2 11.2 0 0 0 1.687 3.511c4.323 6.027 20.088 26.37 43.478 37.827 0 0 8.275 3.408 16.798 4.275 17.617 2.307 33.899 1.215 47.729-10.987 14.191-11.167 16.841-34.053 12.869-50.774-.989-3.592-3.145-10.091-6.977-10.932l-2.221 2.283q.474.725.894 1.524c.093.177.172.371.261.553.178.367.359.729.52 1.117.096.232.176.483.265.722.136.362.277.718.398 1.098.085.27.154.56.233.839.096.341.201.671.286 1.026.004.02.003.04.008.06.012.051.028.097.04.149a3.18 3.18 0 0 1-1.136 3.201l-.01.009a3 3 0 0 1-.411.274 3 3 0 0 1-.539.241c-.054.019-.101.047-.156.062-.058.016-.116.017-.173.029s-.109.036-.167.046c-.056.009-.11.004-.165.01a3 3 0 0 1-.583.009 3 3 0 0 1-.473-.072l-.018-.004a3.18 3.18 0 0 1-2.388-2.377c-.071-.31-.157-.594-.237-.887-.064-.233-.122-.475-.191-.696-.08-.256-.172-.49-.26-.732-.075-.208-.145-.426-.226-.624-.096-.233-.203-.444-.307-.663-.086-.182-.167-.375-.259-.547-.112-.212-.238-.401-.359-.598-.097-.156-.186-.323-.288-.471-.132-.19-.277-.357-.417-.533-.105-.13-.203-.272-.313-.394-.154-.17-.321-.317-.484-.471-.111-.104-.215-.221-.33-.318-.188-.157-.39-.29-.59-.427-.104-.073-.202-.157-.31-.224a8 8 0 0 0-.985-.515c-5.269-2.29-13.274 1.08-16.162 2.7-6.983 5.49-10.455 11.341-10.321 17.392.254 11.409 12.959 20.554 13.087 20.646a3.19 3.19 0 0 1-3.681 5.211c-.363-.255-5.427-3.887-9.725-9.713l-10.021 10.297a6.78 6.78 0 0 1-4.961 2.162l-.129-.001a6.78 6.78 0 0 1-5.042-2.398l-6.094-7.2a6.8 6.8 0 0 1-.173-8.54c2.797-3.59 10.265-11.518 20.065-21.568-5.45-.556-10.513-1.957-13.889-4.323-11.093-7.612-21.67-15.923-31.914-24.637-5.992-5.149-11.897-10.458-17.344-16.23-2.145-2.067-4.285-4.1-6.666-5.896-.074-.055-.142-.115-.215-.17-2.536-1.879-5.442-3.539-8.362-4.688-1.91-.804-1.216-3.699.83-3.574 3.842.351 7.562 1.558 10.932 3.414a95 95 0 0 1 2.45-2.177c1.182-1.013 2.378-2.005 3.584-3.02 4.213-3.583 7.974-7.708 11.459-12.056 11.242-14.166 20.257-30.155 28.603-46.233 1.486-2.8 2.859-5.66 4.228-8.523 1.58-3.306 3.156-6.614 4.889-9.836a84 84 0 0 1 3.511-5.975c1.214-1.908 4.297-.692 3.807 1.559-1.064 4.722-2.79 9.197-4.758 13.578 2.187 1.127 4.558 1.809 7.057 2.092l3.141-12.747q.04-.16.095-.315c.689-1.917 2.457-2.538 7.095-3.327 3.356-.57 5.643-.724 6.797-.458 1.963.454 2.829 2.161 2.67 3.613l-1.264 9.808c10.902-4.612 21.183-12.902 26.285-20.257 4.788-6.826 8.077-14.5 8.389-22.869.248-4.4-.245-8.548-.176-13.118.154-4.665.776-9.07 1.389-13.465.612-4.99 1.683-9.886 1.917-14.788-12.456 6.806-25.841 11.855-39.414 15.832a263 263 0 0 1-19.385 4.877l-1.847.374c1.121 2.413 1.97 5 2.272 7.641.104 1.256.439 3.554-1.53 3.538-.796-.025-1.285-.629-1.502-1.315-.356-.889-.81-1.935-1.251-2.763-11.408-20.448-37.906-38.664-59.725-46.531-7.304-2.815-15.098-4.252-22.784-5.482q-1.638-.261-3.266-.515c-.999-.071-1.552-.877-1.571-1.687-.017-.718.385-1.44 1.286-1.654 2.187-.504 4.333-.669 6.454-.642.013-.016-1.01-5.083-1.01-5.083-1.774-7.653-6.156-28.689-11.568-33.456h-.005c-.496.432-1.162 1.587-1.516 2.398-7.322 18.034-50.846 49.611-50.25 72.572.024.896.206 1.781.536 2.614l1.191 3.002c5.697-6.07 11.499-12.066 18.06-17.231 2.446-1.926 4.992-3.743 7.685-5.396.946-.581 2.239-.399 2.875.511.607.867.45 2.008-.275 2.694a341 341 0 0 1-4.105 4.143c-6.752 6.72-13.727 13.268-20.074 20.368-7.656 8.544-14.738 17.6-20.91 27.211-5.852 9.511-11.901 19.299-14.265 30.328a52.7 52.7 0 0 0-1.021 16.401c.396 5.082 1.791 9.783 2.274 14.859.062.647.114 1.298.141 1.959a1.458 1.458 0 0 1-2.64.909c-1.802-2.49-3.086-5.259-3.935-8.165a58.4 58.4 0 0 1-2.163-17.283 60.7 60.7 0 0 1 1.771-13.124c-3.43-8.21-6.43-16.598-9.092-25.074-4.573-14.924-8.686-30.081-10.456-45.653-.197-2.304-.375-4.587-.186-7.175l1.494-13.198c.465-4.353.89-8.7 1.146-13.008.238-6.119.729-12.508-1.558-18.017a7.5 7.5 0 0 0-1.141-1.82 55 55 0 0 1-5.354 2.483c-3.164 2.4-21.164 24.436-31.984 39.177a10.76 10.76 0 0 1-8.695 4.413c-2.053 0-4.128-.587-5.963-1.81-.678-.451-1.413-.939-2.192-1.452-.054 7.277.824 14.724 1.461 21.996 1.553 15.241 3.022 37.279 3.987 52.801 1.097 16.645 3.897 59.473 5.128 77.372 6.437-2.628 12.945-5.071 19.453-7.497 5.034-1.924 10.061-3.595 15-5.468 4.084-1.549 8.109-3.235 12.018-5.341 2.832-1.526 5.699-3.132 8.113-5.058a1.211 1.211 0 0 1 1.764 1.618 33 33 0 0 1-3.223 3.748c-6.046 6.105-14.19 9.931-22.074 13.124-9.15 3.78-18.506 7.104-27.723 10.613-18.201 6.681-35.426 16.431-49.327 29.953-37.123 36.209-49.32 94.268-35.879 143.622m273.009-297.758a23 23 0 0 1 1.606.193c3.752.586 7.46 2.153 9.685 5.423.091.133.165.276.25.413.36.575.681 1.172.922 1.803.217.568.36 1.163.463 1.77.039.227.09.45.111.681.015.408-.037.775-.142 1.1a2.6 2.6 0 0 1-.195.457c-.697 1.284-2.331 1.711-3.605 1.203a2.6 2.6 0 0 1-1.356-1.207 3.1 3.1 0 0 1-.341-1.204 5 5 0 0 0-.178-.609 4.6 4.6 0 0 0-.655-1.182c-1.531-2.025-4.63-2.803-7.233-2.931-.738-.099-1.315-.381-1.739-.772a2.7 2.7 0 0 1-.374-.425c-1.294-1.821-.19-4.986 2.781-4.713m-29.207-16.725a3.2 3.2 0 0 1 .32-1.569c.404-.821 1.179-1.46 2.286-1.571q.332-.035.704-.001c3.734.321 7.631 1.519 10.25 4.317q.562.6 1.04 1.299c.147.215.271.441.402.664a9.8 9.8 0 0 1 1.345 4.004c.025.698-.146 1.277-.443 1.733-.395.608-1.014.996-1.69 1.155a3.2 3.2 0 0 1-1.034.064 2.8 2.8 0 0 1-1.436-.568 2.6 2.6 0 0 1-.695-.832 3.1 3.1 0 0 1-.342-1.204 4.6 4.6 0 0 0-.743-1.679 5.4 5.4 0 0 0-1.278-1.261 8 8 0 0 0-1.873-.969 11 11 0 0 0-1.211-.378 15 15 0 0 0-2.961-.434 3.5 3.5 0 0 1-.987-.277 2.8 2.8 0 0 1-.752-.496c-.017-.015-.028-.035-.045-.051a2.8 2.8 0 0 1-.781-1.391 3 3 0 0 1-.077-.526zm-67.728 51.387c1.447-7.002 5.187-14.499 11.211-22.666.317-.429.625-.855.954-1.288 8.853-11.643 17.875-23.302 22.396-26.801 2.557-1.978 5.626-2.107 7.859-.346l54.633 38.849q.109.076.21.163c2.064 1.744 2.532 4.714 1.164 7.39-3.705 7.244-18.239 24.991-25.197 32.883-4.588 5.203-9.56 10.302-15.24 13.831 19.906-1.067 39.212-10.235 52.659-18.37a3.19 3.19 0 0 1 4.01.584c3.765 3.095-1.429 25.203-18.252 29.713-7.361 1.974-13.096-4.665-15.409-9.665-10.298 3.155-19.255 4.306-26.827 4.306-13.06 0-22.003-3.405-26.657-5.781-3.596-1.793-7.403-4.25-11.453-7.505-13.45-10.809-18.768-22.19-16.061-35.297"/><path fill="#D69200" d="M432.709 102.582a635 635 0 0 1 8.812-11.683c-2.205-.679-4.068-2.148-5.401-4.418-2.738-4.665-13.661-6.142-23.298-7.444-12.75-1.724-25.934-3.506-26.534-13.418-.51-8.418 7.474-12.948 15.194-17.328 8.124-4.609 16.523-9.375 16.736-18.389.199-8.447 4.734-11.708 8.503-12.957 10.481-3.472 26.786 4.892 29.045 7.783 4.808 6.15 4.984 9.633 5.17 13.32.187 3.71.399 7.917 6.065 17.783.895 1.559 1.467 3.274 1.72 5.11 5.213-1.477 10.196-5.539 13.181-10.81 2.305-4.07 3.033-8.174 1.998-11.26-4.271-12.733-26.453-17.129-26.676-17.172a3.2 3.2 0 0 1-2.07-1.385c-.069-.104-7.65-11.295-21.849-13.571-5.991-.963-10.96.03-14.774 2.945-7.085 5.415-8.276 15.83-8.287 15.935a3.2 3.2 0 0 1-1.011 2.014c-14.411 13.28-28.663 29.295-35.465 39.854a3.38 3.38 0 0 0-.439 2.687 3.43 3.43 0 0 0 1.701 2.188c23.055 12.613 42.289 25.013 51.702 31.282a4.386 4.386 0 0 0 5.977-1.066"/><path fill="#6DB5C3" d="M719.185 326.548c.635.275 1.236.598 1.813.953l10.443-10.731c-.005-.058-.019-.111-.023-.17-.36-5.322 3.623-11.619 7.425-13.692.902-.492 1.855-.905 2.777-1.303 3.636-1.574 6.777-2.933 7.971-8.971 1.97-9.963 13.245-12.077 17.08-12.509l-.003-.046c-.157-2.039-.546-7.218 6.328-8.994a35 35 0 0 0-.794-8.319c-.015-.066-.049-.22-.265-.284a.5.5 0 0 0-.124-.018c-.145 0-.228.083-.264.119-3.228 3.23-8.929 8.865-16.145 15.998-12.898 12.75-30.994 30.637-47.426 47.123 3.593-.673 7.593-.722 11.207.844"/><path fill="#6DB5C3" d="M668.472 366.886a.39.39 0 0 0 .011.497l6.093 7.2a.38.38 0 0 0 .294.139.45.45 0 0 0 .297-.128q.033-.037.069-.072l11.196-11.505c-1.503-3.116-2.543-6.595-2.632-10.342-.02-.847.02-1.687.096-2.521-7.542 7.799-13.172 13.842-15.424 16.732"/><path fill="#DB00F8" d="M773.03 279.59c.112 1.47.456 5.943-4.438 6.762a3 3 0 0 1-.381.041c-.11.005-11.002.613-12.36 7.479-1.845 9.326-7.774 11.891-11.697 13.588-.828.359-1.609.697-2.256 1.049-1.682.918-4.302 4.878-4.113 7.66.056.835.323 1.689 1.881 2.284 7.572 2.888 12.188 3.812 17.942 1.257 6.117-2.716 21.113-23.293 21.113-28.971 0-1.405.103-2.936.202-4.416.21-3.126.527-7.848-.737-9.008-.538-.493-1.843-.378-2.574-.264-2.745.424-2.732.584-2.582 2.539"/><path fill="#DB00F8" d="M450.794 28.728c-.702-.648-4.392-2.85-9.455-4.528-3.418-1.13-6.491-1.704-9.019-1.704-1.569 0-2.928.22-4.029.666-1.531.62-3.579 2.008-3.694 6.89-.298 12.629-11.203 18.816-19.965 23.788-7.619 4.322-12.226 7.246-11.975 11.392.283 4.677 11.3 6.166 21.02 7.48 11.62 1.572 23.637 3.196 27.946 10.539 1.318 2.243 3.869 2.29 7.582.131 8.417-4.886 16.02-17.831 12.263-24.373-6.428-11.194-6.692-16.432-6.905-20.64-.161-3.196-.259-5.132-3.769-9.64"/><path fill="#DCEDF1" d="M135.751 329.619a14.2 14.2 0 0 1-.098-3.306c-2.04-.729-4.52-1.955-5.714-3.866-.728-1.167-.936-2.472-.6-3.772 1.063-4.125 4.969-5.815 7.326-6.472.403-1.845 1.481-4.596 4.359-6.542 1.577-1.067 3.31-1.3 5.008-.673 1.954.722 3.634 2.631 5.014 4.882a11.4 11.4 0 0 1 1.752-.326l-2.986-14.805c-19.443 2.824-34.109 9.936-39.298 12.731l7.453 27.957a295 295 0 0 1 17.784-5.808"/><path fill="#4C4C4C" d="m103.712 306.728 8.992 33.73a3.19 3.19 0 0 0 4.21 2.163c16.184-6.108 30.789-9.752 38.17-11.402l4.815-1.014.254-.048a3.19 3.19 0 0 0 2.553-3.769l-7.229-35.834a3.19 3.19 0 0 0-3.506-2.537c-27.353 3.27-46.071 14.691-46.854 15.176a3.19 3.19 0 0 0-1.405 3.535m33.409 15.126c-1.783-.659-3.128-1.491-3.239-2.008.704-2.732 5.128-3.363 5.163-3.367 1.173-.137 2.061-1.152 2.073-2.334 0-.118.056-2.922 2.534-4.597.239-.162.4-.21.523-.21.092 0 .163.027.23.051.833.308 1.784 1.446 2.72 3.033-.489.603-.906 1.266-1.307 1.961-.866 1.498-1.614 2.792-4.054 3.759-2.045.809-3.595 2.059-4.643 3.712m19.605 4.224-16.257 3.423c-.442-2.183-.486-5.609 3.021-6.997 3.96-1.567 5.365-3.998 6.39-5.774.921-1.594 1.424-2.464 3.942-2.586zm-6.914-31.339 2.986 14.805q-.964.108-1.752.326c-1.38-2.251-3.06-4.16-5.014-4.882-1.698-.627-3.431-.394-5.008.673-2.878 1.946-3.956 4.697-4.359 6.542-2.357.657-6.263 2.347-7.326 6.472-.336 1.3-.128 2.605.6 3.772 1.194 1.911 3.674 3.137 5.714 3.866a14.2 14.2 0 0 0 .098 3.306 295 295 0 0 0-17.784 5.808l-7.453-27.957c5.189-2.795 19.855-9.907 39.298-12.731"/><path fill="#6DB5C3" d="M145.818 314.383c.401-.695.818-1.357 1.307-1.961-.936-1.587-1.887-2.725-2.72-3.032-.067-.025-.138-.052-.23-.052-.123 0-.284.048-.523.21-2.478 1.675-2.534 4.479-2.535 4.598-.011 1.181-.899 2.196-2.072 2.334-.035.003-4.459.634-5.163 3.366.111.517 1.456 1.35 3.239 2.008 1.048-1.653 2.598-2.903 4.643-3.712 2.44-.967 3.188-2.261 4.054-3.759"/><path fill="#DB00F8" d="M149.88 316.729c-1.026 1.776-2.43 4.208-6.39 5.775-3.507 1.388-3.463 4.814-3.021 6.997l16.257-3.423-2.904-11.935c-2.519.123-3.021.993-3.942 2.586"/><path fill="#6DB5C3" d="M321.459 274.953a2.86 2.86 0 0 0 1.881-1.151 2.86 2.86 0 0 0 .516-2.143l-1.76-11.162a2.89 2.89 0 0 0-3.295-2.396l-6.209.98 2.658 16.852z"/><path fill="#DCEDF1" d="M282.227 315.747a14 14 0 0 0 9.974-4.132 14 14 0 0 0 4.132-9.974c0-3.767-1.467-7.309-4.132-9.973a14 14 0 0 0-9.974-4.132 14 14 0 0 0-9.973 4.132 14 14 0 0 0-4.132 9.973c0 3.768 1.468 7.31 4.132 9.974a14 14 0 0 0 9.973 4.132m-.588-24.932a2.906 2.906 0 0 1 3.214 2.557l.52 4.567a2.905 2.905 0 0 1-5.771.658l-.52-4.567a2.905 2.905 0 0 1 2.557-3.215"/><path fill="#4C4C4C" d="M279.602 298.597a2.904 2.904 0 0 0 5.771-.658l-.52-4.567a2.907 2.907 0 0 0-3.214-2.557 2.906 2.906 0 0 0-2.557 3.215z"/><path fill="#6DB5C3" d="m178.758 389.614-3-20.109c-5.32.889-16.939 2.949-31.544 6.235q.025.778.073 1.522c.22 3.551.469 7.576-5.539 11.915-4.93 3.561-16.882 6.194-29.064 8.508q-1.906.363-3.567.362c-3 0-5.392-.886-7.137-2.649-1.996-2.016-2.544-4.619-2.624-6.598-9.98 3.3-19.887 7.026-29.086 11.192l3.85 19.675c14.357-4.879 69.939-23.352 107.638-30.053"/><path fill="#DCEDF1" d="M108.492 391.417c6.034-1.147 22.061-4.192 26.52-7.412 3.158-2.281 3.094-3.306 2.906-6.349-.009-.143-.016-.309-.024-.459-10.818 2.555-22.881 5.72-35.044 9.517-.007.144-.011.289-.04.435-.154.847-.184 2.877.715 3.77.785.781 2.547.957 4.967.498"/><path fill="#4C4C4C" d="M65.56 424.485a3.194 3.194 0 0 0 4.183 2.399c.7-.244 70.496-24.491 113.15-31.505a3.19 3.19 0 0 0 2.637-3.619l-3.937-26.391a3.19 3.19 0 0 0-3.629-2.684c-.677.102-68.217 10.416-115.657 32.565a3.19 3.19 0 0 0-1.781 3.505zm37.25-37.336c.029-.146.033-.291.04-.436 12.163-3.796 24.226-6.962 35.044-9.516.008.149.015.316.024.459.188 3.042.252 4.068-2.906 6.349-4.459 3.22-20.486 6.265-26.52 7.411-2.42.459-4.182.284-4.967-.497-.899-.893-.869-2.923-.715-3.77m-6.454 1.651c.08 1.978.628 4.581 2.624 6.598 1.745 1.763 4.137 2.648 7.137 2.648q1.661 0 3.567-.362c12.182-2.313 24.135-4.946 29.064-8.507 6.008-4.339 5.759-8.364 5.539-11.915a48 48 0 0 1-.073-1.523c14.605-3.286 26.224-5.345 31.545-6.234l2.999 20.109c-37.699 6.7-93.28 25.174-107.638 30.053l-3.85-19.675c9.199-4.166 19.106-7.892 29.086-11.192"/><path fill="#4C4C4C" d="M220.709 582.439c10.144 5.904 21.922 9.036 33.681 8.827 4.157-.276 4.01-6.294-.143-6.376-3.423.035-7.174-.362-10.589-.901-6.997-1.147-13.881-3.278-20.154-6.583-3.282-1.553-5.952-3.943-9.483-5.34-1.801-.777-3.565 1.455-2.376 3.037 2.34 3.231 5.705 5.386 9.064 7.336"/><path fill="#4C4C4C" d="M595.953 136.495c.017.016.028.035.045.051q.318.296.752.496c.29.132.619.227.987.276.954.047 1.975.184 2.961.434q.198.05.393.107.417.12.818.271a8 8 0 0 1 1.873.97c.497.356.932.773 1.278 1.26.346.488.603 1.045.743 1.68.041.464.162.865.342 1.204.179.339.418.616.695.832.416.324.918.512 1.436.567a3 3 0 0 0 1.034-.064c.676-.158 1.295-.547 1.69-1.154.297-.456.468-1.035.443-1.733a9 9 0 0 0-.171-1.048 9.8 9.8 0 0 0-1.174-2.957c-.131-.222-.255-.449-.402-.663a11 11 0 0 0-1.04-1.299c-2.619-2.798-6.516-3.996-10.25-4.317a3.7 3.7 0 0 0-.704 0c-1.107.112-1.882.751-2.286 1.571a3.2 3.2 0 0 0-.32 1.57l-.001.029q.015.267.077.526c.122.518.381 1.003.781 1.391"/><path fill="#4C4C4C" d="M621.896 156.412c.424.391 1.001.673 1.739.772 2.603.128 5.702.905 7.233 2.931a4.6 4.6 0 0 1 .655 1.181q.107.292.178.61c.04.464.161.865.341 1.204.311.586.799.985 1.356 1.207 1.274.508 2.908.081 3.605-1.203q.116-.213.195-.457c.105-.326.157-.692.142-1.1-.021-.232-.072-.455-.111-.682a9.3 9.3 0 0 0-.463-1.769 10.4 10.4 0 0 0-.922-1.803c-.085-.137-.159-.28-.25-.413-2.225-3.27-5.933-4.837-9.685-5.423a23 23 0 0 0-1.606-.194c-2.971-.272-4.075 2.893-2.781 4.714q.161.228.374.425"/><path fill="#FFFBE8" d="M235.982 200.143a3.19 3.19 0 0 1-4.286-.262c-1.03-1.06-2.595-1.041-3.328-.619-.246.141-.478.274-.264 1.048a3.19 3.19 0 0 1-2.407 3.973c-.294.062-1.189.254-1.329 1.512-.119 1.074.43 2.542 1.918 3.229a3.19 3.19 0 0 1 1.502 4.354c-.37.722.016 1.46 1.15 2.194 1.642 1.064 3.202.898 3.371.688a3.191 3.191 0 0 1 5.55 1.088c.024.079.094.316.832.391 1.248.137 2.544-.454 2.962-.889a2.5 2.5 0 0 0-.262-.329 3.192 3.192 0 0 1 2.208-5.358c1.414-.058 1.67-1.156 1.715-1.492.073-.55-.027-1.541-1.525-2.016a3.192 3.192 0 0 1-1.873-4.5c.471-.916-.421-1.838-.995-2.307-1.389-1.133-3.672-1.723-4.939-.705"/><path fill="#FFFBE8" d="M374.785 160.741a3.19 3.19 0 0 1 1.501 4.354l-.002.004c.26.474 1.45 1.025 2.056.975a3.2 3.2 0 0 1 2.927-.935 3.19 3.19 0 0 1 2.335 1.912c.216.019.515-.019.791-.095a3.19 3.19 0 0 1 2.663-4.728c.158-.007.397-.016.441-.35.017-.127.049-.364-.525-.546a3.193 3.193 0 0 1-1.874-4.5c-.018-.172-.482-.793-1.397-1.143-.515-.197-1.254-.314-1.646-.001a3.19 3.19 0 0 1-4.286-.263c-.351-.361-.847-.419-1.155-.377a3.19 3.19 0 0 1-2.441 3.839c-.171.036-.266.056-.3.363a1.515 1.515 0 0 0 .912 1.491"/><path fill="#6DB5C3" d="M109.703 705.08c.914 3.722 2.849 6.971 5.443 9.527 3.116-1.055 6.276-2.113 9.488-3.174a26.95 26.95 0 0 1-6.721-12.217L52.725 462.53c-2.662 9.262-6.782 22.434-7.431 22.836 0 0 64.398 219.668 64.409 219.714"/><path fill="#6DB5C3" d="M504.295 686.937c-6.899 19.45-15.082 46.574-19.642 71.93h174.632c7.238-17.373 18.099-35.315 26.606-48.203-61.677-14.882-132.293-21.12-181.596-23.727"/><path fill="#6DB5C3" d="M119.019 744.034c4.154 4.952 7.699 10.009 9.957 14.833h173.149c-4.554-20.114-10.745-38.987-16.549-54.178-79.099 8.498-148.446 32.651-166.557 39.345"/><path fill="#6DB5C3" d="M701.827 698.847c-3.759 5.158-12.131 16.993-20.602 31.239 19.87 1.978 58.427 10.005 95.824 17.792 20.27 4.221 39.418 8.208 54.458 10.989h40.528c-21.079-9.269-65.624-27.82-123.564-46.197a1280 1280 0 0 0-46.644-13.823"/><path fill="#6DB5C3" d="M94.498 728.563c-34.893 12.517-61.604 23.739-76.533 30.304h103.829c-6.163-10.875-18.978-23.042-27.296-30.304"/><path fill="#6DB5C3" d="M300.855 729.405c21.318-3.488 114.509-5.744 184.663-3.297 7.185-27.024 16.233-51.791 21.301-63.062-20.423-1.656-41.101-2.586-61.819-2.586-56.488 0-112.693 6.881-164.166 16.707 6.066 12.616 13.562 31.154 20.021 52.238"/><path fill="#3F8C9B" d="M114.489 738.913c13.772-5.195 85.741-31.221 168.675-40.383-3.302-8.237-6.373-15.099-8.816-20.106-50.531 9.962-96.244 22.646-132.82 34.246a1334 1334 0 0 0-40.161 13.449c4.319 3.872 8.883 8.232 13.122 12.794"/><path fill="#3F8C9B" d="M302.686 735.549a381 381 0 0 1 5.975 23.318h169.512c1.533-8.703 3.5-17.638 5.709-26.432-72.286-2.449-161.18.082-181.196 3.114"/><path fill="#3F8C9B" d="M506.57 680.669c50.094 2.715 121.226 9.146 183.111 24.349a421 421 0 0 1 5.569-7.965c-52.605-14.2-115.656-27.546-181.672-33.433-1.743 3.589-4.206 9.516-7.008 17.049"/><path fill="#3F8C9B" d="M677.682 736.181c-4.135 7.296-8.131 15.028-11.462 22.686h132.398a9140 9140 0 0 1-22.87-4.741c-37.432-7.796-79.723-16.601-98.066-17.945"/><path fill="#4C4C4C" d="M888.188 759.18c-.549-.263-55.841-26.593-137.68-52.558-38.401-12.183-86.825-25.553-140.34-35.759 3.043-3.549 5.828-7.543 8.39-11.838 5.073-8.535 9.303-18.458 12.531-28.699 11.618-7.014 25.32-16.588 19.943-26.495a66 66 0 0 0-10.015-13.835c3.435-10.329 8.236-20.377 12.727-28.666 30.071 9.617 56.498 19.566 68.024 24.018 1.06.41 2.151.604 3.225.604a8.94 8.94 0 0 0 8.18-5.343l24.5-55.497a8.97 8.97 0 0 0 .002-7.222 9 9 0 0 0-5.347-4.882c-42.001-14.134-83.79-25.976-99.807-30.41a8.91 8.91 0 0 0-10.919 5.94l-17.128 54.398a8.9 8.9 0 0 0 .646 6.918 8.85 8.85 0 0 0 5.373 4.36 891 891 0 0 1 17.012 5.143c-4.043 7.551-8.271 16.457-11.577 25.769-8.031-6.917-15.732-10.295-18.833-11.476l-34.362-77.6c.35-.416.679-.806.964-1.11 7.402-8.884 13.407-18.919 18.157-29.427 11.57-25.033 16.969-53.046 14.527-80.572 9.84 6.028 20.065 11.338 30.65 16.025 7.456 3.19 15.342 6.192 23.646 7.427 2.614.32 5.476.722 8.097.909 19.98 2.039 36.958-2.144 51.373-16.862 10.396-11.286 13.261-27.466 12.481-42.291-.649-8.052-2.575-20.325-10.168-25.277l2.062-2.119c.816.672 1.764 1.24 2.87 1.662 4.556 1.737 8.89 3.179 13.506 3.178 2.942 0 5.998-.585 9.3-2.051 7.716-3.426 24.904-26.206 24.904-34.803 0-1.191.091-2.55.188-3.989.343-5.112.733-10.906-2.791-14.138-.881-.808-1.925-1.365-3.112-1.693a41.6 41.6 0 0 0-.955-9.534 6.76 6.76 0 0 0-4.71-5.029 6.77 6.77 0 0 0-6.686 1.717c-3.215 3.216-8.909 8.845-16.118 15.97-17.696 17.492-42.514 42.024-61.398 61.213-3.395.008-6.816-.305-10.101-.985-2.382-.52-4.41-1.128-6.246-2.495-13.744-9.504-26.858-19.994-39.362-31.068-2.676-2.387-8.247-8.245-8.609-8.675-1.302-1.51-3.721-3.921-1.68-5.43 19.043-12.886 35.089-41.469 45.316-61.839 1.095-2.305 2.23-4.598 3.345-6.901a24.2 24.2 0 0 0 5.043 2.189c.983.301 1.981.531 2.987.709l-4.619 18.745a3.19 3.19 0 0 0 3.053 3.953l10.964.154-5.024 28.732a3 3 0 0 0-.035.265c-.135 1.509.744 3.26 3.015 3.767.175.04 1.035.098 2.252.098 3.663 0 10.554-.527 11.707-3.687q.053-.145.092-.294l11.696-45.174a3.19 3.19 0 0 0-.661-2.869 3.17 3.17 0 0 0-2.727-1.107l-11.379 1.071.77-5.977c10.555-3.991 19.981-10.365 27.875-18.385 5.238-5.866 9.529-12.954 11.87-20.582 33.407 6.969 70.771 15.529 103.645 24.891a3.2 3.2 0 0 0 1.163.109l12.809-1.174c2.402-.309 2.674-2.262 2.676-2.268l3.727-12.806a3.19 3.19 0 0 0-2.233-3.971c-.297-.081-8.236-2.212-21.294-5.52l21.241-69.399a3.19 3.19 0 0 0-2.028-3.956c-64.17-21.709-160.763-37.662-161.731-37.82a3.193 3.193 0 0 0-3.638 2.49l-15.286 72.639-3.108.683-.083.017c-9.443-14.899-29.053-27.695-44.117-35.242-8.538-4.147-17.647-7.304-27.034-8.864a84 84 0 0 0-2.899-.436c-.083-.457-.177-.91-.257-1.356l-.999-5.13c-1.398-6.858-2.95-13.66-4.965-20.388-1.857-5.692-6.515-22.65-15.121-16.061-1.597 1.492-2.218 2.92-3.101 4.666-3.893 7.605-10.006 13.668-15.897 20.093-9.444 10.05-19.386 19.885-27.335 31.876-7.281 11.155-10.926 23.416-4.911 33.381-10.257 11.808-19.351 24.675-26.358 38.69a63 63 0 0 0-2.372 5.037c-6.654-18.165-12.054-36.915-15.333-55.955-.611-4.005-1.265-8.459-1.022-12.371l1.481-13.062c.783-10.107 3.86-28.05-2.473-36.932 9.986-7.418 13.614-17.808 10.249-30.12-.713-2.611-3.687-9.893-9.176-14.174-7.945-7.249-19.699-10.44-23.593-11.335C457.15 12.38 448.674 2.744 434.315.44c-7.81-1.252-14.436.165-19.701 4.21-7.685 5.902-9.956 15.612-10.539 19.066-14.485 13.456-28.738 29.556-35.671 40.317a9.82 9.82 0 0 0-1.435 6.833c.81 6.795 1.736 14.48 6.592 17.138 17.293 9.46 32.413 18.799 42.787 25.474-.294 4.507-.063 9.05.228 13.425 1.024 13.211 2.565 26.313 3.427 39.491 1.945 29.433 5.062 76.039 6.93 105.477l.036.46c-3.778 1.64-7.526 3.357-11.222 5.209-19.072 9.253-34.726 22.826-46.77 39.078-11.084-12.845-37.967-11.914-52.047-10.403a398 398 0 0 0-.598-13.327 216 216 0 0 0-.919-10.522l7.041-1.111a9.2 9.2 0 0 0 6.046-3.699 9.2 9.2 0 0 0 1.659-6.892l-1.76-11.162c-.796-5.044-5.55-8.504-10.592-7.705l-7.719 1.218c-.304-1.206-.603-2.413-.928-3.614-3.493-12.938-15.356-21.791-28.81-21.524-14.118.279-36.322 1.287-61.927 4.516-32.218 4.062-53.441 8.136-65.571 10.839a29.07 29.07 0 0 0-15.761 9.467c-2.47-13.7-3.899-22.494-3.94-22.746a3.194 3.194 0 0 0-3.293-2.679c-.462.021-8.05.393-20.354 2.635l-3.877-27.124c3.074-2.51 9.441-8.886 13.617-21.18 4.87-14.332 3.176-36.121-7.107-45.711-4.032-3.762-11.126-7.285-22.006-2.721-5.792 2.429-10.28 6.632-13.608 11.771a3.8 3.8 0 0 0-.993.049c-2.623-1.615-5.81-2.199-9.658-1.893-15.385 1.23-36.679 12.138-45.685 28.265-4.381 7.847-2.794 22.274 3.693 33.557 5.973 10.389 14.931 16.21 25.225 16.395 5.342.095 10.837 10.738 14.998 20.975-7.526 2.672-12.097 4.617-12.437 4.763a3.19 3.19 0 0 0-1.867 3.581 896 896 0 0 0 2.056 9.626l-.189.08a3.19 3.19 0 0 0-1.867 3.582c9.33 44.915 20.814 82.66 28.584 105.861-18.383 6.39-31.513 11.963-38.785 15.253a9.35 9.35 0 0 0-3.001 2.169c-1.36 1.009-3.528 4.345-8.786 20.812-2.78 8.708-5.958 19.635-5.317 22.247q.017.07.037.137l80.993 276.269a26.4 26.4 0 0 0 5.052 10.178C44.031 739.076 2.289 758.952 1.812 759.18a3.19 3.19 0 0 0 1.379 6.068h883.618a3.19 3.19 0 0 0 1.379-6.068M632.276 548.087a2.52 2.52 0 0 1-1.53-1.243 2.56 2.56 0 0 1-.186-1.991l17.128-54.398a2.56 2.56 0 0 1 3.13-1.708c15.967 4.421 57.622 16.225 99.474 30.309a2.56 2.56 0 0 1 1.544 1.408 2.54 2.54 0 0 1 0 2.071l-24.5 55.498a2.56 2.56 0 0 1-3.269 1.362c-11.426-4.413-37.421-14.201-67.145-23.747a249 249 0 0 1 3.785-6.342q6.194 1.9 10.179 3.148a10.98 10.98 0 0 0 11.057-2.687 11 11 0 0 0 5.522-6.248l8.462-24.04a10.97 10.97 0 0 0-.471-8.469 10.97 10.97 0 0 0-6.341-5.633 361 361 0 0 0-11.817-3.844c-4.463-1.371-8.691-2.532-12.566-3.451a10.98 10.98 0 0 0-10.336 2.886 11 11 0 0 0-5.781 7.104l-6.525 24.79a10.96 10.96 0 0 0 1.192 8.465 10.95 10.95 0 0 0 6.877 5.07c1.366.332 2.755.693 4.153 1.069a251 251 0 0 0-3.652 6.192 905 905 0 0 0-18.384-5.571m22.266-9.952a4.62 4.62 0 0 1-2.901-2.138 4.63 4.63 0 0 1-.502-3.573l6.525-24.79a4.63 4.63 0 0 1 4.488-3.474c.363 0 .734.042 1.105.131 3.743.888 20.108 5.852 23.776 7.118a4.63 4.63 0 0 1 2.677 2.377 4.63 4.63 0 0 1 .198 3.574l-8.462 24.04a4.64 4.64 0 0 1-5.779 2.901c-2.703-.845-17.636-5.319-21.125-6.166m40.708 158.918a418 418 0 0 0-5.569 7.964c-61.885-15.203-133.017-21.633-183.111-24.349 2.802-7.532 5.266-13.459 7.008-17.048 66.016 5.887 129.067 19.232 181.672 33.433m-239.642-90.095c8.473 9.036 10.8 19.773 13.226 30.976.205.947 2.793 12.192 4.507 16.704-8.07-.312-16.16-.497-24.259-.544zm51.211 56.088c-5.068 11.27-14.116 36.038-21.301 63.061-70.154-2.446-163.345-.19-184.663 3.297-6.459-21.084-13.955-39.621-20.021-52.237C332.307 667.341 388.512 660.46 445 660.46c20.718 0 41.396.93 61.819 2.586m106.916-8.261c-.815 1.417-2.492 4.084-2.492 4.084-2.639 4.077-5.422 7.617-8.34 10.631-38.92-7.148-80.376-12.542-122.52-14.556-2.036-4.516-5.025-17.033-5.312-18.361-2.7-12.464-5.709-26.315-18.386-37.401l8.767-63.32a152 152 0 0 0 24.506-.075c3.328-.257 6.642-.636 9.944-1.098.054.142.106.285.182.422l44.183 79.658c.92 1.921 12.278 25.276 25.817 36.629 1.531 1.284 3.661 1.935 6.486 1.935 5.296-.001 13.034-2.287 23.84-6.962 11.091-4.798 22.022-10.882 22.228-11.009-2.372 6.502-5.302 13.161-8.903 19.423m161.877-377.734c.731-.114 2.036-.229 2.574.264 1.264 1.16.947 5.882.737 9.008-.099 1.48-.202 3.011-.202 4.416 0 5.678-14.996 26.255-21.113 28.971-5.754 2.555-10.37 1.632-17.942-1.257-1.558-.595-1.825-1.449-1.881-2.284-.189-2.782 2.431-6.742 4.113-7.66.647-.352 1.428-.69 2.256-1.049 3.923-1.697 9.852-4.262 11.697-13.588 1.358-6.866 12.25-7.474 12.36-7.479q.192-.01.381-.041c4.894-.819 4.55-5.292 4.438-6.762-.15-1.955-.163-2.115 2.582-2.539m-20.208 1.53c7.216-7.133 12.917-12.768 16.145-15.998a.36.36 0 0 1 .264-.119q.055 0 .124.018c.216.064.25.218.265.284.492 2.222.867 5.043.794 8.319-6.874 1.776-6.485 6.955-6.328 8.994l.003.046c-3.835.432-15.11 2.546-17.08 12.509-1.194 6.038-4.335 7.397-7.971 8.971-.922.398-1.875.811-2.777 1.303-3.802 2.073-7.785 8.37-7.425 13.692.004.059.018.112.023.17l-10.443 10.731a14 14 0 0 0-1.813-.953c-3.614-1.566-7.614-1.517-11.207-.844 16.432-16.486 34.528-34.373 47.426-47.123m-68.972 84.436-11.196 11.505q-.036.035-.069.072a.46.46 0 0 1-.297.129.38.38 0 0 1-.294-.14l-6.093-7.2a.386.386 0 0 1-.011-.496c2.252-2.89 7.882-8.934 15.424-16.733a22 22 0 0 0-.096 2.521c.089 3.747 1.129 7.226 2.632 10.342m19.564-132.894-10.185 39.339c-1.11.268-2.864.523-4.356.651l5.087-29.088a3.188 3.188 0 0 0-3.098-3.739l-10.694-.151 7.897-32.049c1.073-.252 2.648-.531 4.051-.728l-2.99 23.2a3.19 3.19 0 0 0 3.464 3.584zm150.046-40.547-1.929 6.629c-36.373-10.22-77.794-19.443-113.219-26.643.024-.372.058-.742.071-1.115.112-1.96.073-3.967 0-5.964 53.753 11.127 102.469 23.766 115.077 27.093m-50.97-81.129c14.134 0 25.633 11.499 25.633 25.633s-11.499 25.633-25.633 25.633-25.633-11.499-25.633-25.633 11.499-25.633 25.633-25.633m-71.897-14.434c12.334 0 22.367 10.034 22.367 22.367 0 8.857-5.174 16.528-12.659 20.148.435-3.076.806-6.163 1.019-9.26a15.25 15.25 0 0 0 4.569-10.888c0-8.434-6.861-15.296-15.296-15.296s-15.295 6.862-15.295 15.296c0 4.55 2.007 8.63 5.171 11.435a192 192 0 0 1-6.963 2.976 22.26 22.26 0 0 1-5.279-14.411c0-12.333 10.033-22.367 22.366-22.367M375.03 72.365a3.43 3.43 0 0 1-1.701-2.187 3.38 3.38 0 0 1 .439-2.688c6.802-10.558 21.054-26.574 35.465-39.853a3.2 3.2 0 0 0 1.011-2.014c.011-.105 1.202-10.52 8.287-15.935 3.814-2.915 8.783-3.908 14.774-2.946 14.199 2.277 21.78 13.467 21.849 13.572a3.2 3.2 0 0 0 2.07 1.385c.223.043 22.405 4.439 26.676 17.17 1.035 3.088.307 7.192-1.998 11.261-2.985 5.272-7.968 9.334-13.181 10.811-.253-1.836-.825-3.552-1.72-5.11-5.666-9.867-5.878-14.073-6.065-17.784-.186-3.687-.362-7.169-5.17-13.32-2.259-2.89-18.564-11.255-29.045-7.782-3.769 1.249-8.304 4.51-8.503 12.957-.213 9.014-8.612 13.78-16.736 18.388-7.721 4.38-15.705 8.911-15.194 17.329.6 9.912 13.784 11.694 26.534 13.418 9.637 1.302 20.56 2.779 23.298 7.443 1.333 2.27 3.196 3.74 5.401 4.418a638 638 0 0 0-8.812 11.683 4.386 4.386 0 0 1-5.977 1.067c-9.413-6.27-28.647-18.67-51.702-31.283m74.175 11.017c-3.713 2.158-6.264 2.112-7.582-.131-4.309-7.343-16.326-8.967-27.946-10.538-9.72-1.314-20.737-2.803-21.02-7.48-.251-4.147 4.356-7.07 11.975-11.393 8.762-4.972 19.667-11.159 19.965-23.788.115-4.882 2.163-6.27 3.694-6.89 1.101-.445 2.46-.666 4.029-.666 2.528 0 5.601.574 9.019 1.704 5.063 1.677 8.753 3.88 9.455 4.528 3.51 4.509 3.608 6.445 3.769 9.64.213 4.21.477 9.447 6.905 20.641 3.757 6.542-3.846 19.487-12.263 24.373M387.173 305.41c13.901-13.522 31.125-23.272 49.327-29.953 9.217-3.509 18.573-6.833 27.723-10.613 7.884-3.193 16.028-7.019 22.074-13.124a33.4 33.4 0 0 0 3.223-3.748 1.211 1.211 0 0 0-1.764-1.618c-2.414 1.925-5.281 3.531-8.113 5.058-3.909 2.106-7.934 3.792-12.018 5.341-4.939 1.873-9.966 3.543-15 5.467-6.508 2.427-13.016 4.869-19.453 7.498-1.231-17.899-4.031-60.727-5.128-77.372-.965-15.522-2.434-37.561-3.987-52.801-.637-7.273-1.515-14.72-1.461-21.996.779.513 1.514 1 2.192 1.452a10.73 10.73 0 0 0 5.963 1.81c3.319 0 6.584-1.536 8.695-4.414 10.82-14.74 28.82-36.777 31.984-39.177a55 55 0 0 0 5.354-2.482 7.5 7.5 0 0 1 1.141 1.82c2.287 5.509 1.796 11.898 1.558 18.016-.256 4.308-.681 8.655-1.146 13.009l-1.494 13.198c-.189 2.588-.011 4.871.186 7.175 1.77 15.572 5.883 30.729 10.456 45.652 2.662 8.476 5.662 16.864 9.092 25.075a60.7 60.7 0 0 0-1.771 13.124 58.4 58.4 0 0 0 2.163 17.282c.849 2.907 2.133 5.675 3.935 8.166a1.459 1.459 0 0 0 2.64-.91 36 36 0 0 0-.141-1.958c-.483-5.076-1.878-9.777-2.274-14.859a52.7 52.7 0 0 1 1.021-16.401c2.364-11.029 8.413-20.817 14.265-30.328 6.172-9.612 13.254-18.667 20.91-27.211 6.347-7.1 13.322-13.648 20.074-20.368a348 348 0 0 0 4.105-4.143 2.07 2.07 0 0 0 .275-2.695c-.636-.909-1.929-1.091-2.875-.511-2.693 1.653-5.239 3.471-7.685 5.397-6.561 5.165-12.363 11.161-18.06 17.231l-1.191-3.002a7.6 7.6 0 0 1-.536-2.614c-.596-22.961 42.928-54.539 50.249-72.572.355-.81 1.021-1.966 1.517-2.398h.005c5.412 4.767 9.793 25.803 11.568 33.455 0 0 1.023 5.068 1.01 5.084-2.122-.027-4.267.138-6.454.642-.901.214-1.303.935-1.286 1.654.019.81.571 1.616 1.571 1.687q1.628.253 3.266.514c7.685 1.231 15.48 2.668 22.784 5.483 21.819 7.867 48.316 26.082 59.724 46.531.442.828.896 1.873 1.252 2.763.216.686.706 1.289 1.502 1.315 1.969.016 1.634-2.282 1.53-3.539-.302-2.641-1.151-5.227-2.272-7.641l1.847-.373a263 263 0 0 0 19.385-4.877c13.573-3.977 26.958-9.027 39.414-15.832-.234 4.902-1.305 9.798-1.917 14.787-.613 4.396-1.235 8.801-1.389 13.466-.069 4.57.424 8.718.176 13.118-.312 8.368-3.601 16.043-8.389 22.868-5.102 7.356-15.383 15.646-26.285 20.257l1.264-9.807c.159-1.453-.707-3.16-2.67-3.613-1.154-.266-3.441-.112-6.797.458-4.638.789-6.406 1.41-7.095 3.326a3 3 0 0 0-.095.315l-3.141 12.748c-2.499-.283-4.87-.966-7.057-2.092 1.968-4.381 3.694-8.856 4.758-13.578.49-2.251-2.593-3.467-3.807-1.559a84 84 0 0 0-3.511 5.974c-1.733 3.223-3.309 6.531-4.889 9.836-1.369 2.863-2.742 5.724-4.228 8.524-8.346 16.077-17.362 32.066-28.603 46.233-3.485 4.348-7.247 8.473-11.459 12.055-1.207 1.015-2.402 2.008-3.584 3.021a92 92 0 0 0-2.45 2.177c-3.37-1.856-7.091-3.064-10.932-3.414-2.046-.125-2.74 2.769-.83 3.573 2.92 1.15 5.826 2.809 8.362 4.689.073.055.141.114.215.17 2.381 1.796 4.521 3.828 6.666 5.896 5.447 5.771 11.351 11.081 17.344 16.23 10.244 8.714 20.821 17.025 31.914 24.637 3.376 2.366 8.439 3.767 13.889 4.322-9.801 10.051-17.268 17.979-20.065 21.568a6.804 6.804 0 0 0 .173 8.541l6.094 7.2a6.78 6.78 0 0 0 5.042 2.397l.129.001c1.88 0 3.679-.782 4.961-2.161l10.021-10.297c4.298 5.826 9.362 9.457 9.725 9.713a3.187 3.187 0 0 0 4.441-.766 3.19 3.19 0 0 0-.76-4.446c-.128-.091-12.833-9.237-13.087-20.646-.134-6.051 3.338-11.902 10.321-17.392 2.888-1.619 10.893-4.989 16.162-2.699q.514.224.985.515c.108.067.206.151.31.223.2.138.402.271.59.428.115.097.219.214.33.318.163.154.33.3.484.471.11.122.208.264.313.394.14.175.285.343.417.533.102.147.191.314.288.471.121.197.247.386.359.597.092.173.173.366.259.548.104.219.211.43.307.663.081.198.151.416.226.624.088.241.18.476.26.731.069.222.127.464.191.696.065.239.137.465.196.715.297 1.248 1.256 2.244 2.429 2.549l.018.005q.233.053.473.071a2.8 2.8 0 0 0 .583-.008c.055-.006.109-.001.165-.01.058-.01.11-.034.167-.046a3.3 3.3 0 0 0 .643-.215 3.4 3.4 0 0 0 .636-.392l.01-.008a3.18 3.18 0 0 0 1.136-3.201c-.012-.052-.028-.098-.04-.149-.088-.375-.193-.728-.294-1.086-.079-.279-.148-.569-.233-.839-.121-.38-.262-.736-.398-1.098-.089-.239-.169-.491-.265-.722-.161-.388-.342-.751-.521-1.117-.088-.182-.167-.377-.26-.553a19 19 0 0 0-.894-1.525l2.221-2.282c3.832.841 5.988 7.34 6.977 10.931 3.972 16.721 1.322 39.608-12.869 50.775-13.83 12.202-30.113 13.293-47.729 10.987-8.523-.868-16.798-4.275-16.798-4.275-23.39-11.458-39.155-31.801-43.478-37.827a11.2 11.2 0 0 1-1.687-3.512c-.978-3.474-3.292-11.165-5.656-15.213a1.16 1.16 0 0 0-2.164.562c-.028 1.56.052 3.087.184 4.599.481 5.503 1.825 10.737 2.738 16.045 1.273 6.736 2.46 13.477 2.976 20.31 3.401 37.475-7.803 75.711-29.247 106.447-.741 1.043-2.262 3.069-3.072 4.064l-.534.723c-.96 1.311-2.021 2.935-1.863 4.698.002.019-.002.037.001.056.371 1.037 1.166 1.212 2.017 1.019l34.267 77.388a3.2 3.2 0 0 0 1.955 1.75c.201.064 20.269 6.657 31.654 27.637 1.322 2.437-1.04 5.684-4.772 8.958-2.899-4.708-6.353-9.172-10.369-12.988-1.538-1.365-3.209-2.676-5.154-3.515a1.77 1.77 0 0 0-1.853.226c-.692.549-.822 1.567-.375 2.33a49 49 0 0 0 3.187 4.756l3.422 4.593c2.1 2.846 3.917 5.743 6.008 8.594-4.307 3.045-9.011 5.815-12.057 7.609-1.844 1.086-3.441 2.026-4.764 2.861-.953.524-10.551 5.776-20.86 10.234-20.078 8.681-23.517 6.092-23.653 5.976-12.753-10.693-24.086-34.333-24.198-34.57a3 3 0 0 0-.092-.178l-41.314-74.486c1.027-.388 4.207-1.797 9.817-6.081q.699-.534 1.449-1.129s1.571-1.106 2.707-1.942c.941-.64.508-2.231-.618-2.328-2.309-.313-4.585-.254-6.846-.029-3.186.317-6.344.972-9.521 1.462a183 183 0 0 1-16.1 1.767c-29.337 1.899-60.022-3.407-84.555-20.28-.833-.549-1.615-1.153-2.43-1.718-1.078-.749-2.218-1.426-3.603-1.821a9 9 0 0 0-1.242-.268 1.678 1.678 0 0 0-1.864 2.251c.531 1.422 1.377 2.511 2.37 3.459 3.396 3.989 13.808 15.881 20.46 19.8l-36.946 65.681a3.2 3.2 0 0 0-.287.688c-4.098 14.346-13.099 36.148-19.401 37.383-21.656 4.247-48.434 2.241-66.002-1.899l-.219-.526c1.302-2.216 3.779-6.4 4.397-7.717 1.973-3.122 3.84-6.066 5.435-9.393.69-1.505-1.076-3.101-2.513-2.24-3.381 1.81-5.712 5.03-8.011 7.947-.049.073-1.284 1.974-1.37 2.102-1.338 1.935-2.574 4.076-3.734 6.117l-.839 1.838c-4.34-1.379-7.712-2.892-9.711-4.437-1.373-1.06-1.468-1.647-1.463-1.669 6.571-21.768 25.954-37.796 26.148-37.953.427-.348.756-.801.956-1.314l46.531-119.29a95 95 0 0 0 1.947 3.785c3.359 5.952 7.379 11.966 13.581 15.3.47.252 1.061.246 1.538-.067.706-.461.89-1.428.405-2.117-1.813-2.756-3.681-5.254-5.472-7.855-5.643-7.728-9.573-16.535-12.28-25.749-13.441-49.355-1.244-107.413 35.879-143.622M347.98 457.395l-3.388 8.686c-19.252-18.894-47.365-30.829-78.632-30.829-47.504 0-87.735 27.542-100.648 65.203l-18.834-4.672c15.394-44.796 63.619-77.577 120.578-77.577 28.503 0 54.815 8.213 75.926 22.027 1.234 5.842 2.88 11.588 4.998 17.162m-9.52-81.861c-3.768 0-7.31-1.468-9.974-4.132a14 14 0 0 1-4.131-9.973 14 14 0 0 1 4.131-9.974 14 14 0 0 1 9.974-4.132 14 14 0 0 1 9.974 4.132c.416.416.792.86 1.149 1.317a156.6 156.6 0 0 0-6.304 21.903 14.1 14.1 0 0 1-4.819.859M171.814 503.545a3.8 3.8 0 0 0-.539-.829c11.963-35.252 49.88-61.082 94.685-61.082 30.607 0 58.002 12.052 76.104 30.928l-42.669 109.385c-2.973 2.551-14.9 13.352-22.801 28.801a115 115 0 0 1-10.634.494c-37.124 0-69.518-17.734-86.34-43.867a3.86 3.86 0 0 0 1.681-2.685c4.262-31.204-8.923-59.938-9.487-61.145m2.135 66.78c17.887 28.171 52.424 47.299 92.011 47.299 2.57 0 5.117-.085 7.641-.243a66 66 0 0 0-1.77 5.067c-.41 1.359-.711 4.065 1.878 6.926 1.602 1.77 4.075 3.314 6.999 4.655-4.485.419-9.039.641-13.652.641-47.193 0-88.389-22.506-109.887-55.702zm143.116-257.727c15.5-1.72 40.452-1.821 48.067 9.504a141 141 0 0 0-4.191 6.635c-13.166-.315-27.714-.281-43.945.19.103-4.572.156-10.131.069-16.329m1.736-54.497a2.89 2.89 0 0 1 3.295 2.396l1.76 11.162c.12.76-.063 1.521-.516 2.143a2.86 2.86 0 0 1-1.881 1.151l-6.209.98-2.658-16.852zm-164.561-8.64c11.996-2.673 33.009-6.706 64.982-10.737 25.328-3.192 47.29-4.191 61.254-4.466q.232-.005.462-.005c10.341 0 19.375 6.857 22.062 16.811 3.739 13.851 6.082 28.056 6.963 42.221.877 14.09.855 26.941.646 35.849-7.768.272-15.9.639-24.444 1.114-40.241 2.236-76.505 7.145-108.192 13.203a9.9 9.9 0 0 0-.093-3.946l-13.087-59.778a9.9 9.9 0 0 0-2.726-4.872c.065-.413.06-.838-.041-1.254l-2.919-12.004c-.359-1.477-1.706-2.512-3.231-2.434-.374.016-6.402.285-16.815 1.919 3.044-5.773 8.484-10.13 15.179-11.621m.508 28.954a3.524 3.524 0 0 1 3.818 2.706l13.084 59.762.006.029c.212.924.05 1.876-.456 2.677a3.52 3.52 0 0 1-2.221 1.566c-1.441.323-3.108.669-5.005 1.064-4.971 1.034-11.777 2.45-20.207 4.643a1049 1049 0 0 1-12.073 3.048c-5.412 1.342-10.085 2.501-14.144 3.685-1.772.516-3.529.366-4.95-.42-1.051-.582-1.835-1.487-2.1-2.42l-15.808-55.856c-.45-1.59.227-3.249 1.647-4.036 4.859-2.692 13.535-6.65 27.28-10.23 15.304-3.984 25.375-5.581 31.129-6.218M92.599 139.059c2.651-1.113 5.066-1.67 7.267-1.67 3.028 0 5.65 1.056 7.919 3.173 8.112 7.565 9.551 26.826 5.418 38.992-4.755 13.994-12.6 19.038-12.66 19.076a3.19 3.19 0 0 0-1.502 3.179l4.192 29.328c-2.713.568-5.6 1.222-8.632 1.966l-1.933-28.855a3.19 3.19 0 0 0-2.418-2.884c-7.962-1.967-13.761-11.676-14.774-24.736-1.569-20.22 7.777-33.65 17.123-37.569m-17.44 74.09c.41-1.229 1.34-2.783 2.418-4.583.918-1.533 1.945-3.252 2.959-5.234 1.806 1.507 3.778 2.705 5.91 3.517l1.868 27.878a341 341 0 0 0-5.307 1.488c-5.119-11.759-8.292-20.853-7.848-23.066m-25.94 1.789c-10.744-.192-17.021-8.349-19.807-13.195-5.916-10.289-6.503-22.164-3.654-27.265 7.86-14.075 27.205-23.943 40.622-25.016.58-.046 1.186-.095 1.808-.095 1.127 0 2.305.165 3.463.786-1.507 4.389-2.664 8.478-3.522 12.274a3.8 3.8 0 0 0-1.185-.711c-.986-.363-2.109-.351-3.164.032-2.223.806-3.463 3.031-2.779 4.917l5.17 17.653c.86 11.555 4.97 17.718 6.644 19.775q-.364.613-.712 1.195c-1.27 2.121-2.367 3.953-2.997 5.843-.558 1.672-1.703 5.144 7.766 26.922a338 338 0 0 0-6.725 2.161c-5.623-13.987-12.144-25.119-20.928-25.276m7.371 36.998c5.049-2.014 17.6-6.778 33.61-11.109 17.828-4.824 31.494-6.455 37.13-6.965.768 4.585 2.427 14.316 4.777 27.074-.187.471-.354.95-.517 1.432a302 302 0 0 0-12.096 2.515c-18.074 4.142-33.383 11.102-34.026 11.396a3.19 3.19 0 0 0-1.772 3.656l2.076 8.535a99 99 0 0 0-2.02 1.113 3.19 3.19 0 0 0-1.515 3.524l2.918 12.004c.23.942.88 1.719 1.757 2.128a9.94 9.94 0 0 0 .017 5.371l14.093 49.792a648 648 0 0 0-12.499 3.961c-7.08-20.005-20.91-62.149-31.933-114.427M42.228 390.852c11.457-5.185 37.613-16.092 76.105-26.879.334-.072 9.553-2.544 14.897-3.869 3.602-.894 15.171-3.839 16.61-4.191 37.649-8.743 83.674-16.348 136.679-19.295 27.538-1.53 50.839-1.955 70.929-1.571a148 148 0 0 0-5.673 12.098c-3.631-3.388-8.324-5.265-13.315-5.265a19.42 19.42 0 0 0-13.823 5.726 19.6 19.6 0 0 0-3.622 5.018c-6.453 7.672-6.082 19.171 1.135 26.389a19.5 19.5 0 0 0 13.823 5.716c1.906 0 3.81-.28 5.651-.833a162.5 162.5 0 0 0-1.798 26.931c.121 6.975.641 14.009 1.66 20.971-21.21-12.595-46.844-19.974-74.43-19.974-46.428 0-87.333 20.891-110.898 52.403-7.134 9.093-12.807 19.114-16.732 29.807l-4.829-1.198a3.85 3.85 0 0 0-4.589 2.525c-15.415 46.316 10.751 85.982 11.873 87.648a3.86 3.86 0 0 0 4.967 1.275l2.011-1.035c22.392 36.271 66.481 60.998 117.101 60.998 12.377 0 24.362-1.483 35.737-4.247 3.406.624 6.297 1.042 8.078 1.276a194 194 0 0 0 25.091 1.644c10.166 0 19.892-.834 28.332-2.488 12.237-2.4 22.089-34.2 24.205-41.531l40.192-71.453c10.093 3.898 20.719 6.449 31.503 7.775l-16.457 118.865c-114.817.384-228.11 28.727-303.15 52.534q-3.988 1.266-7.891 2.532a20.68 20.68 0 0 1-7.499-11.496L56.694 452.912c6.903-3.48 14.093-6.632 21.254-9.542 42.046-16.999 86.68-28.027 131.409-35.318 2.971-.56 9.957-1.433 13.077-1.885 4.956-.646 12.577-1.824 17.466-2.334 5.636-.568 20.908-2.097 26.307-2.637 8.002-.469 22.739-1.475 30.797-1.882 3.032-.078 10.012-.224 13.222-.309 5.109-.185 12.7.003 17.635-1.131a1.554 1.554 0 0 0 .003-3.058c-4.89-.961-12.837-.465-17.734-.476-5.272.119-12.472.043-17.734.376-6.022.322-20.665 1.073-26.578 1.393-6.836.602-21.799 1.976-28.723 2.6-3.904.496-11.471 1.471-15.408 1.97-3.094.424-10.187 1.227-13.198 1.77-48.147 7.504-96.277 19.267-141.161 38.49-4.194 1.828-8.285 3.662-12.367 5.679l-14.42-52.356a3.004 3.004 0 0 1 1.687-3.41m-13.47 38.113c.191-2.922 4.095-16.293 7.515-26.167l13.203 47.935-7.096 24.693zm16.536 56.401c.65-.403 4.77-13.574 7.43-22.836l65.189 236.686a26.96 26.96 0 0 0 6.721 12.217q-4.816 1.591-9.487 3.173c-2.595-2.555-4.529-5.804-5.444-9.526-.011-.046-64.41-219.714-64.41-219.714m96.234 227.304c36.576-11.6 82.289-24.284 132.82-34.246 2.443 5.007 5.514 11.868 8.816 20.105-82.934 9.163-154.903 35.188-168.675 40.384-4.239-4.563-8.803-8.922-13.122-12.795a1337 1337 0 0 1 40.161-13.448M17.965 758.867c14.93-6.565 41.64-17.787 76.533-30.304 8.318 7.262 21.134 19.429 27.296 30.304zm111.011 0c-2.258-4.824-5.803-9.882-9.957-14.833 18.111-6.694 87.458-30.847 166.557-39.346 5.804 15.192 11.995 34.065 16.549 54.179zm349.197 0H308.661a381 381 0 0 0-5.975-23.319c20.016-3.031 108.91-5.562 181.196-3.113-2.209 8.793-4.176 17.728-5.709 26.432m6.48 0c4.56-25.356 12.743-52.481 19.642-71.93 49.303 2.607 119.919 8.845 181.596 23.727-8.507 12.888-19.368 30.83-26.606 48.203zm181.567 0c3.331-7.659 7.327-15.39 11.462-22.686 18.343 1.344 60.634 10.149 98.066 17.944a8807 8807 0 0 0 22.869 4.742zm165.287 0c-15.04-2.781-34.188-6.768-54.458-10.989-37.397-7.787-75.954-15.815-95.825-17.792 8.471-14.246 16.844-26.081 20.603-31.24a1282 1282 0 0 1 46.644 13.824c57.94 18.377 102.485 36.928 123.564 46.197z"/></svg>