<svg
  xmlns="http://www.w3.org/2000/svg"
  width="1080"
  height="1080"
  fill="none"
  viewBox="0 0 1080 1080"
>
  <path
    fill="#8A1FD1"
    d="M211.326 435.403c-2.591.8-5.133 1.594-7.615 2.382l35.245 144.15q1.518-5.264 4.127-11.555z"
  />
  <path
    fill="#8A1FD1"
    d="M582.117 382.074 580.5 462.95a275 275 0 0 1 7.053-1.697l.802-78.985c-2.035-.069-4.118-.134-6.238-.194"
  />
  <path
    fill="#BE7AEB"
    d="M372.5 390.79c7.062-1.228 14.195-2.467 21.338-3.735 109.643-19.455 226.184-10.398 247.57-8.475l11.504-139.072c-72.677-8.773-148.379-9.79-225.068-3.025-62.29 5.497-125.367 16.112-187.479 31.551-81.216 20.188-145.205 45.163-170.613 56.816l59.985 133.415c22.234-10.689 82.705-33.76 175.117-54.668 20.045-4.535 43.167-8.554 67.646-12.807m-238.334 56.038L83.772 330.513l2.993-1.4c21.669-10.133 83.643-34.499 163.099-54.195 58.301-14.452 117.503-24.504 175.962-29.878 73.094-6.719 145.226-6.101 214.397 1.837l3.261.374-9.64 121.607-3.37-.245c-.788-.058-79.574-5.691-148.857-1.189-35.009 2.276-68.345 7.358-106.944 13.242l-6.804 1.037c-112.29 17.088-229.467 63.438-230.638 63.904z"
  />
  <path
    fill="#DFBDF5"
    d="M283.825 343.078a122 122 0 0 1-3.034 1.858l-1.999 1.255c-3.403 2.175-4.773 4.441-4.142 6.768.354 1.31 1.052 2.182 2.084 2.615q1.55.653 3.805.075 1.761-.45 3.491-1.656a11.8 11.8 0 0 0 2.931-2.902q1.202-1.696 1.339-3.595-.828-3.198-1.661-6.397a34 34 0 0 1-2.814 1.979"
  />
  <path
    fill="#DFBDF5"
    d="M554.13 303.701q.961 2.072 2.695 3.368 1.732 1.294 4.073 1.275c2.182-.015 3.882-.739 5.116-2.18 1.229-1.436 1.818-3.258 1.752-5.465-.071-2.566-.801-4.682-2.189-6.338-1.386-1.655-3.255-2.479-5.598-2.459-2.274.021-4.022.749-5.225 2.182-1.208 1.44-1.764 3.213-1.68 5.327q.091 2.221 1.056 4.29"
  />
  <path
    fill="#DFBDF5"
    d="M555.2 337.778c2.126.835 5.005 1.233 8.66 1.215 3.814-.019 6.566-.375 8.258-1.098 1.693-.72 2.532-1.787 2.51-3.21q-.025-1.72-1.454-2.449c-.949-.487-2.407-.82-4.36-1.002q-6.396-.538-12.789-1.006c-1.173.317-2.159.806-2.949 1.464-.795.661-1.17 1.472-1.14 2.44.055 1.601 1.143 2.812 3.264 3.646"
  />
  <path
    fill="#DFBDF5"
    d="M481.176 360.638c61.585-4.003 130.551-.055 146.422.966l8.588-108.341c-67.675-7.529-138.179-8.022-209.619-1.463-58.096 5.335-116.937 15.318-174.888 29.673-75.578 18.723-135.188 41.671-159.03 52.423l45.143 104.196c19.316-7.441 126.171-47.455 229.054-63.112l6.803-1.036c38.755-5.909 72.226-11.011 107.527-13.306M612.114 325.9c-6.197 9.438-23.553.721-17.159-9.78 6.188-9.535 23.701-.784 17.159 9.78m-16.513-60.252c1.883-1.415 4.475-2.079 7.765-1.994 3.286.09 5.894.89 7.795 2.389 1.905 1.5 2.859 3.691 2.864 6.564q0 1.679-.352 3.299-2.566 14.747-5.137 29.491-4.954-.159-9.901-.276a1959 1959 0 0 0-5.429-30.041q-.331-1.64-.355-3.001c-.051-2.871.858-5.018 2.75-6.431m-53.239 59.384c-1.054-1.065-1.622-2.38-1.693-3.948-.08-1.87.475-3.443 1.699-4.707 1.215-1.266 3.11-2.127 5.681-2.566a16.4 16.4 0 0 1-5.485-2.629 14.6 14.6 0 0 1-4.04-4.499c-1.038-1.788-1.607-3.748-1.724-5.893-.181-3.346.695-6.338 2.643-8.955 1.95-2.618 4.691-4.67 8.228-6.139 3.535-1.47 7.501-2.23 11.881-2.268 3.349-.028 6.453.316 9.3 1.022 2.843.708 5.315 1.751 7.407 3.121 1.377-.627 2.853-1.524 4.442-2.689q2.376-1.747 3.995-3.358 3.369 4.393 6.687 8.803-1.527 1.376-3.886 2.658a31 31 0 0 1-4.818 2.115c.727 1.732 1.099 3.624 1.137 5.678.048 2.872-.831 5.488-2.619 7.86-1.79 2.367-4.419 4.239-7.876 5.637-3.46 1.394-7.562 2.099-12.316 2.134l-1.94.016q-1.16.009-1.893.654c-.489.429-.719.944-.7 1.548.042 1.239 1.453 1.957 4.23 2.179q6.25.495 12.505 1.056c5.432.5 9.581 1.784 12.434 3.817 2.855 2.032 4.279 4.941 4.289 8.719.004 2.899-1.196 5.396-3.592 7.508-2.399 2.107-5.678 3.706-9.844 4.813-4.164 1.108-8.861 1.668-14.093 1.702-5.294.032-9.881-.446-13.773-1.462-3.893-1.017-6.887-2.438-8.985-4.286s-3.206-3.988-3.318-6.432c-.095-2.144.736-3.964 2.523-5.46 1.783-1.498 4.421-2.636 7.913-3.399-1.881-.508-3.342-1.287-4.399-2.35m-66.983-35.658a1179 1179 0 0 1 16.706-3.503q1.275.69 2.549 1.383.75 3.656 1.487 7.311c2.496-2.935 5.288-5.288 8.376-7.042q4.633-2.629 8.588-2.814 5.44-.248 9.347 1.822c2.604 1.38 4.622 3.404 6.052 6.06s2.248 5.829 2.46 9.509q.319 5.52.621 11.039c.117 2.143.305 3.863.569 5.171.259 1.307.659 2.444 1.19 3.41q.799 1.445 2.366 3.032l-.373 4.224q-11.266.33-22.485.876-.139-2.102-.281-4.203 1.183-1.69 1.731-3.212c.365-1.017.591-2.174.683-3.479.088-1.305.066-3.027-.081-5.167q-.233-3.435-.473-6.872c-.205-2.954-.973-5.191-2.288-6.716-1.32-1.526-3.223-2.226-5.695-2.096q-3.175.167-5.687 2.672-2.508 2.508-3.338 5.918.334 3.996.66 7.992c.174 2.14.41 3.855.703 5.153q.442 1.949 1.278 3.373.83 1.425 2.433 2.966l-.257 4.233q-11.197.645-22.342 1.502l-.392-4.194c.754-1.145 1.303-2.232 1.635-3.257q.505-1.54.588-3.496.082-1.957-.222-5.163-.471-4.96-.954-9.921-.365-3.696-.956-5.993c-.4-1.533-.927-2.77-1.6-3.718-.67-.952-1.552-1.787-2.643-2.523zm-4.526 27.273c.223 2.136.492 3.845.814 5.137q.484 1.935 1.347 3.344.86 1.403 2.488 2.909l-.163 4.238q-11.134.899-22.214 2.008-.24-2.092-.483-4.184 1.088-1.746 1.556-3.295.468-1.547.506-3.507.04-1.958-.333-5.156-.579-4.949-1.17-9.897-.444-3.688-1.084-5.97-.645-2.284-1.678-3.68-1.033-1.402-2.685-2.463l-.102-4.273a1183 1183 0 0 1 17.688-3.977q1.285.661 2.569 1.326a3531 3531 0 0 1 2.944 27.44m-23.401-43.671c.709-1.464 1.817-2.679 3.338-3.629q2.276-1.428 5.307-1.71c2.018-.185 3.852.038 5.483.667 1.632.628 2.951 1.586 3.95 2.866q1.5 1.921 1.781 4.397c.192 1.686-.053 3.235-.738 4.658q-1.023 2.134-3.221 3.507-2.196 1.377-5.232 1.655c-2.062.191-3.907-.018-5.551-.617q-2.464-.9-3.991-2.727-1.531-1.827-1.853-4.301-.336-2.561.727-4.766m-46.281.895q1.305.597 2.608 1.198a3571 3571 0 0 1 4.478 27.606 31.4 31.4 0 0 1 7.494-7.109c2.884-1.953 5.695-3.096 8.413-3.423q5.293-.636 9.288 1.148c2.66 1.186 4.803 3.066 6.415 5.626q2.418 3.843 3.117 9.28.703 5.482 1.387 10.965.402 3.238.902 5.141c.331 1.27.804 2.369 1.409 3.292q.907 1.382 2.517 2.855l-.069 4.24q-11.069 1.146-22.079 2.5l-.573-4.172c.693-1.209 1.191-2.33 1.498-3.352.308-1.027.456-2.201.453-3.523q-.007-1.982-.442-5.123-.471-3.41-.951-6.819-.612-4.35-2.749-6.51c-1.423-1.438-3.358-2.006-5.786-1.699-2.077.263-3.881 1.291-5.412 3.075a12.43 12.43 0 0 0-2.873 6.144q.613 3.96 1.216 7.922.481 3.18 1.059 5.09.573 1.91 1.495 3.273.92 1.359 2.605 2.782l.048 4.24q-10.982 1.452-21.902 3.107l-.684-4.155q.993-1.797 1.382-3.368t.328-3.527c-.039-1.308-.232-3.016-.582-5.134a3566 3566 0 0 0-5.148-30.235q-.662-3.793-1.442-6.084-.776-2.29-1.891-3.656c-.75-.91-1.698-1.706-2.854-2.383l-.266-4.222a1199 1199 0 0 1 17.591-4.99M192.924 388.292c-3.808 3.88-8.737 6.891-14.805 9.079-6.467 2.334-12.657 3.122-18.65 2.349-5.995-.776-11.263-2.889-15.836-6.377-4.57-3.49-8.016-7.995-10.29-13.553-2.424-5.92-3.076-11.916-1.874-17.996 1.194-6.079 3.943-11.543 8.263-16.363 4.321-4.816 9.709-8.404 16.122-10.719 5.867-2.116 11.753-2.862 17.587-2.241 5.841.627 10.96 2.464 15.34 5.495a1778 1778 0 0 0-3.006 14.577q-3.133 1.064-6.258 2.145c-2.148-3.438-4.95-5.776-8.397-6.999-3.445-1.22-7.262-1.086-11.417.417-3.349 1.211-6.063 3.014-8.128 5.39q-3.103 3.568-3.746 8.312c-.431 3.163.047 6.486 1.415 9.969 1.391 3.539 3.381 6.45 5.967 8.751 2.584 2.3 5.512 3.77 8.791 4.425 3.281.651 6.631.354 10.077-.887 3.675-1.327 6.431-3.38 8.262-6.181 1.832-2.798 2.813-6.26 2.928-10.385q3.114-1.074 6.235-2.129a1226 1226 0 0 1 9.903 10.142c-1.84 4.649-4.673 8.9-8.483 12.779m45.741-11.765-1.228-4.025c.465-1.303.768-2.488.898-3.547.126-1.063.082-2.242-.138-3.548-.222-1.302-.637-2.965-1.257-4.985a2940 2940 0 0 0-2.022-6.576q-1.293-4.197-3.702-5.984c-1.605-1.19-3.561-1.444-5.849-.752-1.961.592-3.533 1.896-4.717 3.9-1.185 2.009-1.768 4.184-1.768 6.52a4223 4223 0 0 1 2.459 7.624c.655 2.04 1.274 3.656 1.848 4.852q.865 1.794 1.973 2.99 1.106 1.197 2.96 2.33l.735 4.176a1133 1133 0 0 0-20.587 6.559l-1.335-3.99q.662-1.932.78-3.542.119-1.61-.259-3.533-.373-1.923-1.397-4.972a3501 3501 0 0 0-9.893-29.009q-1.257-3.64-2.382-5.774t-2.422-3.304q-1.3-1.17-3.141-1.896-.473-2.062-.948-4.123a1172 1172 0 0 1 16.16-7.731q1.356.381 2.71.765a3431 3431 0 0 1 8.811 26.524 31.2 31.2 0 0 1 6.067-8.213q3.7-3.583 7.551-4.723c3.323-.984 6.377-1.099 9.134-.353 2.755.747 5.122 2.254 7.088 4.524q2.953 3.404 4.504 8.658 1.564 5.297 3.11 10.597c.61 2.088 1.173 3.731 1.702 4.929q.786 1.802 1.886 3.023 1.102 1.219 2.884 2.413l.619 4.196a1131 1131 0 0 0-20.834 6m57.446-14.96q-1.287-.48-2.577-.957-1.324-2.867-2.657-5.732-.808 2.297-2.799 4.703c-1.323 1.605-2.981 3.066-4.963 4.377a21.3 21.3 0 0 1-6.45 2.879q-4.331 1.134-7.893.359c-2.38-.517-4.346-1.489-5.905-2.924-1.555-1.437-2.616-3.122-3.17-5.067-2.078-7.273 2.247-13.582 13.217-18.704q5.994-2.859 12.04-5.656-.978-3.161-3.29-4.737-2.317-1.569-5.641-.733-3.276.83-4.626 3.008-1.349 2.173-1.215 5.134-7.104 1.029-14.193 2.145l-1.489-1.564q.489-3.75 3.121-7.419c1.756-2.443 4.147-4.631 7.171-6.546s6.507-3.376 10.451-4.369c4.25-1.069 8.183-1.328 11.78-.784 3.595.545 6.597 1.838 8.98 3.869 2.388 2.028 3.99 4.703 4.812 8.012q1.136 4.572 2.259 9.145 1.308 5.32 2.875 7.907c1.044 1.724 2.402 2.955 4.079 3.685l.975 4.095a1118 1118 0 0 0-14.892 5.874m15.209-22.931-.841-.274q-1.111-5.459-2.235-10.915a1180 1180 0 0 1 24.856-5.401l.854.338q.967 5.51 1.92 11.021-12.323 2.488-24.554 5.231m44.935 7.212c-4.143-1.366-7.561-3.554-10.256-6.6-2.696-3.044-4.483-6.581-5.345-10.626-.855-4.015-.478-7.976 1.173-11.88 1.644-3.905 4.293-7.262 7.952-10.06 3.659-2.8 7.89-4.622 12.665-5.451 5.129-.892 9.678-.648 13.63.717s7.291 3.321 10.021 5.863a1110 1110 0 0 0-12.459 9.618q-1.817-2.454-4.313-3.891-2.499-1.439-5.481-.916-2.7.47-4.519 2.13c-1.215 1.107-2.042 2.517-2.477 4.241-.436 1.72-.441 3.618-.031 5.688.461 2.31 1.291 4.317 2.474 6.019 1.186 1.702 2.625 2.938 4.309 3.713q2.525 1.156 5.497.643 3.575-.618 6.053-2.708 2.474-2.088 4.187-5.441 5.566 2.259 11.087 4.569c-1.992 4.094-4.657 7.413-7.986 9.972s-7.472 4.255-12.439 5.121c-5.032.876-9.602.642-13.742-.721"
  />
  <path
    fill="#000"
    d="M374.673 380.666c38.599-5.884 71.935-10.966 106.944-13.242 69.283-4.502 148.069 1.131 148.857 1.189l3.37.245 9.64-121.607-3.261-.375c-69.171-7.938-141.303-8.555-214.397-1.836-58.459 5.373-117.661 15.426-175.962 29.878-79.456 19.696-141.43 44.062-163.1 54.195l-2.992 1.4 50.394 116.315 3.065-1.221c1.171-.466 118.348-46.816 230.638-63.905zm-236.882 57.426L92.648 333.896c23.842-10.752 83.452-33.7 159.031-52.423 57.95-14.355 116.791-24.338 174.887-29.673 71.44-6.559 141.945-6.066 209.619 1.464l-8.588 108.34c-15.87-1.021-84.836-4.969-146.421-.966-35.302 2.295-68.772 7.398-107.528 13.306l-6.802 1.036c-102.884 15.657-209.738 55.671-229.055 63.112"
  />
  <path
    fill="#000"
    d="M185.269 367.5c-.115 4.125-1.096 7.587-2.928 10.385-1.831 2.801-4.587 4.854-8.262 6.181-3.446 1.241-6.796 1.539-10.077.888-3.279-.656-6.207-2.126-8.791-4.426-2.586-2.3-4.576-5.212-5.967-8.75-1.368-3.484-1.846-6.807-1.415-9.97q.643-4.744 3.746-8.312c2.065-2.376 4.779-4.179 8.128-5.39 4.155-1.503 7.972-1.637 11.417-.417 3.447 1.223 6.249 3.561 8.397 6.999q3.125-1.08 6.258-2.145 1.472-7.29 3.006-14.577c-4.381-3.031-9.499-4.868-15.34-5.495-5.834-.621-11.72.125-17.587 2.241-6.413 2.315-11.801 5.903-16.122 10.719-4.32 4.82-7.069 10.284-8.263 16.363-1.202 6.08-.55 12.077 1.874 17.996 2.274 5.559 5.72 10.063 10.29 13.553 4.573 3.488 9.84 5.601 15.836 6.377 5.993.774 12.183-.015 18.65-2.348 6.068-2.189 10.997-5.199 14.805-9.08 3.81-3.879 6.643-8.129 8.483-12.779a1210 1210 0 0 0-9.903-10.141q-3.121 1.055-6.235 2.128"
  />
  <path
    fill="#000"
    d="M255.996 363.918q-1.1-1.221-1.886-3.023c-.529-1.198-1.092-2.841-1.702-4.929a3366 3366 0 0 0-3.11-10.597q-1.55-5.255-4.504-8.658c-1.967-2.27-4.334-3.777-7.088-4.524-2.757-.746-5.811-.631-9.134.353q-3.851 1.14-7.552 4.723a31.2 31.2 0 0 0-6.066 8.213 3534 3534 0 0 0-8.811-26.524q-1.354-.384-2.71-.764a1166 1166 0 0 0-16.161 7.73l.949 4.123q1.84.726 3.141 1.896 1.297 1.171 2.422 3.304 1.124 2.134 2.382 5.774a3538 3538 0 0 1 9.893 29.009q1.024 3.048 1.397 4.972.378 1.923.259 3.533-.118 1.61-.78 3.543.669 1.994 1.335 3.99 10.25-3.375 20.587-6.56l-.735-4.176q-1.854-1.134-2.96-2.33-1.108-1.197-1.974-2.989c-.573-1.197-1.193-2.813-1.847-4.853a4223 4223 0 0 0-2.459-7.624c0-2.336.583-4.511 1.768-6.52 1.184-2.004 2.756-3.308 4.717-3.9 2.288-.692 4.244-.438 5.849.752 1.607 1.191 2.838 3.187 3.702 5.984q1.015 3.286 2.022 6.576c.62 2.02 1.035 3.683 1.257 4.985q.328 1.957.137 3.548c-.129 1.059-.432 2.245-.897 3.547l1.228 4.025a1131 1131 0 0 1 20.834-6l-.619-4.196q-1.782-1.195-2.884-2.413"
  />
  <path
    fill="#000"
    d="M305.949 347.914q-1.567-2.588-2.875-7.907a4066 4066 0 0 0-2.259-9.145c-.822-3.309-2.424-5.984-4.812-8.013-2.383-2.031-5.385-3.324-8.98-3.868-3.598-.545-7.53-.286-11.78.783-3.944.993-7.426 2.454-10.451 4.369-3.024 1.916-5.415 4.103-7.171 6.546q-2.632 3.669-3.121 7.42.745.78 1.489 1.563 7.089-1.116 14.193-2.145-.134-2.96 1.215-5.134 1.349-2.176 4.626-3.008c2.214-.558 4.098-.311 5.641.733q2.311 1.575 3.289 4.738-6.045 2.796-12.039 5.655c-10.97 5.122-15.295 11.431-13.217 18.704.554 1.945 1.615 3.63 3.17 5.068q2.337 2.15 5.905 2.923 3.562.775 7.892-.358a21.4 21.4 0 0 0 6.451-2.879c1.981-1.311 3.639-2.773 4.963-4.377q1.99-2.408 2.798-4.703 1.334 2.864 2.657 5.731 1.29.477 2.578.958 7.411-2.986 14.891-5.875-.486-2.048-.974-4.095c-1.677-.729-3.036-1.961-4.079-3.684m-18.988 3.177a11.8 11.8 0 0 1-2.931 2.902q-1.73 1.207-3.491 1.656c-1.504.386-2.77.36-3.806-.075-1.032-.433-1.729-1.305-2.083-2.614-.631-2.328.739-4.594 4.142-6.769q.999-.628 1.999-1.254a127 127 0 0 0 3.034-1.859 34 34 0 0 0 2.814-1.979q.833 3.199 1.661 6.397-.137 1.899-1.339 3.595"
  />
  <path
    fill="#000"
    d="M333.099 322.046a1181 1181 0 0 0-24.856 5.401 4489 4489 0 0 1 2.236 10.915l.841.274a1173 1173 0 0 1 24.554-5.231 4616 4616 0 0 0-1.921-11.021z"
  />
  <path
    fill="#000"
    d="M390.422 331.477a1095 1095 0 0 0-11.087-4.57q-1.713 3.352-4.187 5.442-2.478 2.088-6.053 2.708-2.972.512-5.497-.644-2.528-1.16-4.309-3.713c-1.183-1.702-2.013-3.709-2.474-6.019-.41-2.07-.404-3.968.031-5.688.435-1.724 1.262-3.134 2.477-4.241q1.82-1.659 4.519-2.13 2.982-.522 5.481.917 2.496 1.437 4.313 3.89 6.18-4.84 12.459-9.617-4.095-3.816-10.021-5.864c-3.952-1.365-8.501-1.609-13.63-.717-4.775.829-9.006 2.651-12.665 5.451-3.659 2.798-6.308 6.155-7.952 10.06-1.651 3.904-2.028 7.865-1.173 11.88.862 4.045 2.649 7.582 5.345 10.626 2.695 3.046 6.113 5.234 10.256 6.6 4.14 1.363 8.71 1.597 13.742.721 4.967-.866 9.11-2.563 12.439-5.121s5.994-5.878 7.986-9.971"
  />
  <path
    fill="#000"
    d="M386.7 285.466q1.115 1.367 1.891 3.656.78 2.291 1.442 6.084a3566 3566 0 0 1 5.148 30.235c.35 2.118.543 3.826.582 5.134q.06 1.958-.328 3.527-.39 1.572-1.382 3.368l.684 4.155a1154 1154 0 0 1 21.902-3.106l-.048-4.241q-1.685-1.423-2.605-2.782-.922-1.363-1.495-3.273-.577-1.91-1.059-5.09a3095 3095 0 0 0-1.216-7.922 12.43 12.43 0 0 1 2.873-6.144c1.531-1.784 3.335-2.812 5.412-3.075 2.428-.307 4.363.261 5.786 1.699q2.137 2.16 2.749 6.51.48 3.41.951 6.819.435 3.141.442 5.124c.003 1.321-.145 2.495-.453 3.522-.307 1.022-.805 2.143-1.498 3.352l.573 4.172q11.01-1.353 22.079-2.5l.069-4.24q-1.61-1.473-2.517-2.855c-.605-.923-1.078-2.022-1.409-3.292q-.5-1.903-.902-5.141-.684-5.483-1.387-10.965-.699-5.437-3.117-9.28c-1.612-2.56-3.755-4.44-6.415-5.626-2.663-1.187-5.76-1.573-9.288-1.148-2.718.327-5.529 1.47-8.413 3.424a31.4 31.4 0 0 0-7.494 7.108 3571 3571 0 0 0-4.478-27.606q-1.303-.6-2.608-1.197a1187 1187 0 0 0-17.591 4.989l.266 4.222c1.156.677 2.104 1.473 2.854 2.383"
  />
  <path
    fill="#000"
    d="m447.652 291.858.102 4.273q1.652 1.061 2.685 2.463 1.034 1.396 1.677 3.68.642 2.282 1.084 5.97.592 4.948 1.171 9.897.372 3.198.333 5.156-.038 1.96-.506 3.507-.468 1.55-1.556 3.295l.483 4.184q11.08-1.109 22.214-2.008l.163-4.238q-1.629-1.506-2.488-2.909-.863-1.409-1.347-3.344c-.323-1.292-.591-3.001-.814-5.137a3580 3580 0 0 0-2.944-27.44q-1.284-.664-2.569-1.326a1183 1183 0 0 0-17.688 3.977"
  />
  <path
    fill="#000"
    d="M448.578 282.043c1.016 1.218 2.349 2.128 3.991 2.727 1.644.599 3.489.808 5.55.617q3.036-.278 5.233-1.655 2.196-1.373 3.221-3.507c.684-1.423.929-2.972.738-4.657-.189-1.651-.78-3.118-1.782-4.398q-1.499-1.921-3.95-2.866c-1.631-.629-3.464-.852-5.482-.667q-3.032.282-5.307 1.71c-1.521.95-2.629 2.165-3.339 3.63q-1.063 2.203-.727 4.765.322 2.474 1.854 4.301"
  />
  <path
    fill="#000"
    d="M477.977 296.175c.672.948 1.2 2.184 1.6 3.717q.591 2.298.956 5.993.483 4.96.954 9.921.304 3.206.221 5.163t-.588 3.496c-.331 1.025-.88 2.112-1.634 3.258q.197 2.096.392 4.193 11.145-.857 22.342-1.502l.256-4.232q-1.601-1.542-2.432-2.966-.835-1.426-1.278-3.373c-.294-1.299-.529-3.014-.703-5.154q-.326-3.995-.66-7.992.83-3.409 3.337-5.918 2.513-2.505 5.688-2.672c2.471-.129 4.375.571 5.695 2.096 1.315 1.525 2.083 3.763 2.288 6.717q.24 3.436.473 6.871c.147 2.141.169 3.863.081 5.167-.092 1.305-.318 2.462-.684 3.479q-.547 1.521-1.73 3.212.142 2.102.28 4.203 11.22-.545 22.486-.876l.373-4.224q-1.568-1.586-2.366-3.032-.8-1.45-1.191-3.409c-.263-1.309-.451-3.028-.569-5.172q-.302-5.519-.62-11.039-.316-5.522-2.461-9.509c-1.429-2.656-3.447-4.679-6.051-6.06q-3.908-2.07-9.348-1.821-3.954.184-8.588 2.813c-3.088 1.754-5.88 4.107-8.375 7.042q-.738-3.656-1.487-7.311l-2.55-1.383a1193 1193 0 0 0-16.705 3.503l-.046 4.277c1.091.736 1.974 1.571 2.644 2.524"
  />
  <path
    fill="#000"
    d="M536.325 336.241c.111 2.444 1.221 4.584 3.318 6.432s5.092 3.269 8.984 4.286 8.48 1.494 13.774 1.462c5.231-.034 9.929-.594 14.093-1.702 4.165-1.107 7.445-2.706 9.844-4.813 2.395-2.112 3.596-4.609 3.592-7.508-.01-3.778-1.435-6.687-4.289-8.718-2.853-2.034-7.003-3.318-12.435-3.818q-6.253-.56-12.505-1.056c-2.777-.222-4.188-.94-4.229-2.179q-.031-.905.699-1.548.734-.644 1.893-.654l1.94-.016c4.754-.035 8.857-.74 12.316-2.134 3.458-1.398 6.086-3.27 7.876-5.637 1.789-2.372 2.668-4.988 2.62-7.86-.038-2.054-.41-3.946-1.138-5.678a31 31 0 0 0 4.819-2.115q2.36-1.282 3.885-2.658-3.318-4.41-6.687-8.803-1.618 1.611-3.995 3.358c-1.588 1.165-3.065 2.062-4.442 2.69-2.092-1.371-4.564-2.414-7.407-3.122-2.847-.706-5.95-1.05-9.3-1.022-4.379.038-8.346.798-11.881 2.268-3.537 1.469-6.278 3.522-8.227 6.139s-2.825 5.609-2.644 8.955c.117 2.145.687 4.105 1.725 5.893a14.55 14.55 0 0 0 4.04 4.499 16.4 16.4 0 0 0 5.484 2.629c-2.571.439-4.466 1.3-5.681 2.566-1.223 1.264-1.778 2.837-1.698 4.707.07 1.569.639 2.883 1.693 3.948 1.056 1.063 2.517 1.842 4.398 2.35-3.492.763-6.129 1.901-7.913 3.399-1.786 1.496-2.618 3.316-2.522 5.46m18.429-42.157c1.203-1.433 2.951-2.161 5.224-2.182 2.344-.02 4.213.804 5.599 2.459 1.388 1.656 2.118 3.772 2.189 6.338.066 2.207-.523 4.029-1.752 5.465-1.234 1.441-2.935 2.164-5.116 2.18q-2.341.02-4.073-1.275-1.734-1.296-2.695-3.368a11.1 11.1 0 0 1-1.056-4.29c-.085-2.114.472-3.887 1.68-5.327m-1.678 37.608q1.186-.989 2.949-1.464 6.393.468 12.789 1.006c1.953.182 3.411.515 4.359 1.002q1.43.73 1.455 2.449c.022 1.423-.817 2.49-2.51 3.21-1.692.723-4.445 1.079-8.258 1.098-3.655.018-6.534-.38-8.66-1.215-2.121-.834-3.21-2.045-3.264-3.646-.03-.968.345-1.779 1.14-2.44"
  />
  <path
    fill="#000"
    d="M594.954 316.12c-6.393 10.502 10.963 19.218 17.16 9.78 6.541-10.564-10.972-19.315-17.16-9.78"
  />
  <path
    fill="#000"
    d="M598.635 305.121q4.947.117 9.901.276 2.571-14.744 5.136-29.491.353-1.62.353-3.299c-.005-2.873-.959-5.064-2.865-6.564-1.9-1.499-4.509-2.299-7.794-2.388-3.29-.086-5.883.578-7.765 1.993-1.892 1.413-2.801 3.56-2.75 6.431q.023 1.361.354 3.001 2.836 15.02 5.43 30.041"
  />
  <path
    fill="#8A1FD1"
    d="m803.461 571.371-3.705-14.65-29.828-4.252 4.373 16.352c10.194-.745 20.079.093 29.16 2.55"
  />
  <path
    fill="#BE7AEB"
    d="M746.007 557.134a132.3 132.3 0 0 1 17.208 13.104q2.127-.384 4.244-.68l-4.548-17.007z"
  />
  <path
    fill="#FFB921"
    d="M131.72 734.032c9.813-4.495 18.693-10.582 26.631-18.218l-4.977-11.775c-6.058 2.484-12.036 4.215-17.651 5.4-22.77 4.806-43.192 1.81-50.585.386-1.923 4.727-3.216 7.386-4.18 8.914.076.205.152.351.194.422 6.775 8.84 17.56 16.166 31.249 21.265a93.8 93.8 0 0 0 19.319-6.394"
  />
  <path
    fill="#FFB921"
    d="M97.196 772.125c.083-.012.164-.03.248-.037.279-.021 28.524-2.342 55.558-20.035a111 111 0 0 0 15.604-12.313l-9.191-15.768c-34.988 30.785-75.159 25.512-81.682 24.4q-.89-.15-1.699-.151c-.027 0-.05.005-.078.006-1.975 4.147-3.36 6.687-4.39 8.27.159.436.348.866.593 1.28 3.707 6.266 8.376 11.411 13.552 15.631 6.427.821 10.498-.988 10.54-1.007.033-.015.067-.023.1-.037a3 3 0 0 1 .288-.108l.127-.039a4 4 0 0 1 .43-.092"
  />
  <path
    fill="#FFB921"
    d="M184.542 801.626a118 118 0 0 0 13.285-5.009c-3.446-2.255-6.427-6.624-7.912-8.724-1.207-1.708-3.426-5.719-5.985-10.588-4.714 2.808-9.61 5.312-14.681 7.433-4.347 1.806-8.793 3.374-13.334 4.637-4.548 1.246-9.136 2.412-14.111 1.774-1.802-.26-2.041-2.792-.283-3.351 4.129-1.677 8.52-2.628 12.773-3.942 4.262-1.319 8.439-2.929 12.512-4.758a121 121 0 0 0 14.148-7.536c-4.873-9.512-10.027-20.032-11.628-23.311a119 119 0 0 1-12.839 9.647c-24.123 15.709-48.488 19.785-56.128 20.721-1.375 4.944-2.407 8.193-3.24 10.344.389.746.788 1.173.898 1.282 11.26 9.162 26.746 14.66 44.793 15.903 13.932.96 29.537-.731 41.732-4.522"
  />
  <path
    fill="#8A1FD1"
    d="M73.592 709.586a88 88 0 0 0 2.843 3.164 126 126 0 0 0 1.982-4.496 20.3 20.3 0 0 1-3.357-1.697z"
  />
  <path
    fill="#8A1FD1"
    d="M63.264 748.912a75 75 0 0 0 3.285 2.739 102 102 0 0 0 2.234-4.247 228 228 0 0 0-4.03-1.565z"
  />
  <path
    fill="#8A1FD1"
    d="m86.363 780.319-1.463 3.057c2.217 1.108 4.42 2.156 5.98 2.829.544-1.505 1.236-3.671 1.936-6.012a31.3 31.3 0 0 1-6.453.126"
  />
  <path
    fill="#DFBDF5"
    d="m253.793 679.961-9.746-38.203c-7.413 3.929-19.483 9.136-37.01 13.252-20.957 4.92-34.119 6.785-40.735 7.488-.762 3.671-2.395 10.243-5.307 16.446l-.346.727c-.879 1.834-1.876 3.912-1.87 6.048.012 4.011.81 8.821 2.16 14.125 9.966-.259 48.054-2.448 92.854-19.883"
  />
  <path
    fill="#DFBDF5"
    d="M213.18 792.333c29.979-1.066 50-7.808 65.461-14.971l-7.941-31.127c-18.835 9.12-45.905 18.562-77.253 18.562q-2.605-.002-5.247-.093a1365 1365 0 0 0 8.376 16.106c1.883 3.576 7.273 11.87 16.604 11.523"
  />
  <path
    fill="#8A1FD1"
    d="M237.985 626.591c-7.376.54-19.889 2.544-37.066 7.187-14.812 4.003-25.638 7.953-32.603 11.049 8.779-1.378 21.575-3.735 36.879-7.587 16.418-4.132 26.62-7.878 32.79-10.649"
  />
  <path
    fill="#8A1FD1"
    d="M205.482 648.39c13.723-3.222 23.947-7.156 31.029-10.495l-.926-2.914c-6.629 2.594-15.886 5.621-28.731 8.854-21.454 5.399-37.812 7.891-45.653 8.896l1.77 3.249c4.871-.411 18.55-1.965 42.511-7.59"
  />
  <path
    fill="#BE7AEB"
    d="M184.662 757.737c34.21 2.023 64.296-8.567 84.284-18.377l-13.457-52.751c-43.263 16.771-79.698 19.551-92.423 19.99 9.01 26.13 18.698 45.541 21.596 51.138"
  />
  <path
    fill="#BE7AEB"
    d="M903.015 570.851c-3.539-.509-6.709 2.699-7.741 6.094l-13.615 43.601c-1.555 5.115 2.596 9.041 7 11.001 45.005 20.023 67.154 37.108 80.387 47.315 5.816 4.486 10.018 7.728 13.529 9.202 2.123.89 8.951-.023 13.09-3.673 9.275-8.18 29.275-27.823 32.225-30.728 1.44-2.869 1.16-6.307-.75-8.872-9.93-13.301-66.188-65.6-124.125-73.94m115.375 84.115q-.225.412-.57.745c-.63.626-15.62 15.4-22.586 21.542-3.2 2.822-7.601 4.168-11.173 4.168-1.457 0-2.775-.223-3.819-.662-3.063-1.287-7.837-4.762-15.064-10.022-14.436-10.508-38.601-28.097-68.835-41.55-6.507-2.895-9.703-8.709-7.952-14.468l9.342-29.917c1.63-5.361 6.618-8.883 11.604-8.163 40.677 5.855 99.903 54.482 108.293 65.723 2.73 3.66 3.03 8.608.76 12.604"
  />
  <path
    fill="#000"
    d="M1032.59 640.725c-10.28-13.78-68.574-67.963-128.606-76.604-6.513-.944-13.052 3.726-15.208 10.821l-13.615 43.602c-2.349 7.727 1.865 15.269 10.734 19.216 11.689 5.2 21.794 10.194 30.595 14.917l-10.456 20.281c-12.039-9.097-25.762-16.992-40.657-23.276a199 199 0 0 0-12.055-4.63c-.499-6.015-1.273-12.155-2.391-18.082l21.65-67.658c13.64-6.897 33.156-19.258 49.336-30.856 41.416-29.687 50.284-44.533 50.43-51.76a9.6 9.6 0 0 0-.189-2.088v-.004l-.012-.053c-.026-.126-.05-.25-.083-.378-3.673-19.281-45.044-63.25-66.721-70.75-12.887-4.46-36.892 16.687-54.762 35.213a379 379 0 0 0-4.336 4.575l-2.05-17.775c-.616-5.337-5.457-9.177-10.797-8.563l-112.116 12.935a9.68 9.68 0 0 0-6.518 3.625 9.68 9.68 0 0 0-2.045 7.172l3.762 32.605c-2.005-.237-4.196.338-5.944 1.063-3.529 1.509-6.65 3.291-9.784 5.022-6.515 2.843-12.748 6.557-18.894 9.742-14.376 7.545-29.167 14.476-44.215 20.499l-.151.059c-.114-5.12-.832-10.281-2.321-15.115-.762-2.648-1.617-5.292-2.445-7.766-1.497-4.762-1.605-9.906-1.589-14.991-.203-4.347.839-9.968-2.328-13.892-1.189-1.368-3.164-2.046-4.923-1.92l-.265.017-1.024.067c-2.731.165-5.454.398-8.167.691-6.737.751-13.425 1.815-20.062 3.13l.784-77.296c29.703 1.187 48.521 3.099 49.007 3.15a3.396 3.396 0 0 0 3.743-3.101l12.057-145.758a3.4 3.4 0 0 0-2.97-3.654c-74.177-9.202-151.514-10.358-229.864-3.436-62.663 5.535-126.111 16.22-188.583 31.759-85.138 21.177-151.52 47.614-174.724 58.634a3.4 3.4 0 0 0-1.643 4.466l62.809 139.693a3.397 3.397 0 0 0 4.654 1.631c10.315-5.294 33.229-14.876 67.582-26.036l43.956 179.774c-2.35.02-5.15.231-8.498.636-5.035.609-10.892 1.626-17.203 2.973a42 42 0 0 0-3.115-1.141l-2.439-10.926a3.4 3.4 0 0 0-2.839-2.625l-.707-.1-.005-.036a3.4 3.4 0 0 0-2.9-2.91l-2.2-.306a3.4 3.4 0 0 0-1.657-.649l-11.182-1.135-.01.006a3.4 3.4 0 0 0-3.085 1.38 3.4 3.4 0 0 0-.305 3.486l9.329 20.25c-10.59 3.03-20.283 6.376-27.676 9.568-10.636 4.591-14.756 7.936-14.265 11.687-.023.602.1 1.209.397 1.755l5.226 9.591a3.4 3.4 0 0 0 1.301 1.323c-.787 3.464-2.216 8.711-4.504 13.585l-.322.677c-1.076 2.243-2.548 5.316-2.538 9.007.009 3.274.474 6.985 1.299 11.025-5.801 2.551-12.045 4.548-18.737 5.975-25.377 5.414-51.358-.232-51.382-.232-.133-.007-3.284-.214-7.043-3.675a3.404 3.404 0 0 0-5.362 1.019l-4.241 8.753a3.4 3.4 0 0 0 .43 3.638c3.442 4.201 5.689 6.532 7.316 7.765.333 1.365.887 2.467 1.416 3.187 5.719 7.5 13.912 13.983 24.038 19.109-10.645.867-18.47-.229-20.838-.633-1.752-.298-3.439-.327-5.015-.087-.306.047-.594.117-.887.181a231 231 0 0 0-8.772-3.38 3.4 3.4 0 0 0-4.221 1.714l-3.95 8.149a3.4 3.4 0 0 0 .75 3.978c4.26 3.944 6.788 5.843 8.448 6.7.296.793.639 1.573 1.078 2.315 3.831 6.475 8.575 11.866 13.827 16.346l-2.796 5.845a3.4 3.4 0 0 0 1.492 4.48c8.383 4.383 11.614 5.591 13.236 5.787.537.751 1.088 1.34 1.577 1.754 12.327 10.065 27.373 14.956 42.102 16.799-21.929 16.326-40.327 31.63-55.243 44.04-7.977 6.638-14.867 12.37-20.787 17.002a3.4 3.4 0 0 0-.656.706l-.032.019c-.487.694-11.957 17.391-15.013 52.287A3.4 3.4 0 0 0 47.41 930h795.348l.012.001.013-.001H989.05a3.4 3.4 0 0 0 3.4-3.4c0-19.639-2.098-31.555-6.8-38.635a3.4 3.4 0 0 0-.62-.702c-5.163-4.421-10.809-9.45-17.347-15.273-17.769-15.828-40.284-35.874-68.146-56.966 25.156-5.961 43.246-19.509 51.312-38.626 8.785-20.822 4.548-45.551-11.929-69.631-3.679-5.377-7.879-10.578-12.532-15.563l13.165-25.031c11.292 7.237 19.272 13.392 25.341 18.073 6.224 4.801 10.72 8.269 15.049 10.088 1.325.556 3.023.838 4.915.838 4.848 0 10.965-1.852 15.303-5.681 10.12-8.925 31.94-30.434 32.87-31.345q.33-.333.57-.744c3-5.289 2.6-11.835-1.01-16.677M76.436 712.75a88 88 0 0 1-2.844-3.164l1.469-3.029c1.206.752 2.341 1.3 3.356 1.697a126 126 0 0 1-1.981 4.496m774.575-26.917c.84.47 1.642 1.421 2.252 2.287 5.686 11.279 12.783 26.464 10.968 42.024a103 103 0 0 0-8.865-.386c-3.342-.172-6.527.518-9.153-.974a154.8 154.8 0 0 0-34.918-21.595c1.213-6.268 1.923-12.624 1.999-19.014.481-38.381-13.287-76.955-38.434-106.016-.519-1.866-.742-5.964 6.83-6.816 10.098.033 19.689 1.814 28.181 5.396 15.081 6.362 25.819 18.177 31.052 34.166 4.467 13.65 6.153 31.057 6.328 45.368-.093.245-4.157 21.574-5.589 31.566-.396 2.551 3.163 3.739 4.372 1.43a78 78 0 0 0 2.998-6.996.95.95 0 0 1 .421-.507c.408-.224.927-.287 1.558.067m-85.217-140.822a7 7 0 0 0-.766-.017c-.077.006-.48.067-.603.101l-26.583 7.207c-.274-.149-.552-.292-.827-.44 5.383-3.875 10.514-8.105 15.153-12.844.568-.577 2.106-2.241 2.614-2.818 6.222-6.279 5.828-15.75 2.313-23.116a60 60 0 0 0-2.415-4.525l51.077-5.893c-.904 24.428 31.06 51.851 35.136 55.245l.014-.016c.121.102.236.212.373.297a72 72 0 0 0 3.083 1.811l-9.481 30.491c-6.001-6.865-13.509-12.283-22.368-16.02-.46-.194-.928-.376-1.395-.56l-5.329-21.07a3.4 3.4 0 0 0-2.816-2.533zm1.666 24.547q-2.118.296-4.245.68a132 132 0 0 0-17.208-13.104l16.904-4.583zm32.297-12.837 3.705 14.65c-9.082-2.457-18.967-3.295-29.16-2.551l-4.373-16.351zm165.792-80.162c-.117 5.737-12.651 21.324-47.594 46.37-27.231 19.519-52.971 33.868-59.927 35.024-1.473.242-5.439-1.326-9.274-3.326 36.594-34.338 96.846-84.265 112.919-80.932 3.917.815 3.889 2.198 3.876 2.864m-110.075-33.202c16.678-17.291 39.161-36.439 47.644-33.508 16.525 5.718 48.157 37.417 58.839 56.983-5.227-.796-19.91.05-70.573 41.461-21.848 17.858-41.859 36.327-48.4 42.439-3.691-3.275-11.13-10.246-17.738-18.719-6.588-8.447-13.543-19.978-12.623-30.139l14.784-1.705q.537.523 1.111 1.096c-4.693 5.07-7.886 9.002-8.202 9.394a2.384 2.384 0 1 0 3.712 2.997c.076-.094 3.203-3.946 7.856-8.977 3.337 3.437 7.157 7.498 10.839 11.474-4.859 5.226-8.179 9.316-8.502 9.717a2.386 2.386 0 0 0 3.712 2.997c.078-.096 3.291-4.052 8.047-9.183 2.84 3.093 5.47 5.989 7.564 8.317.471.524 1.121.79 1.775.79a2.386 2.386 0 0 0 1.772-3.981 1196 1196 0 0 0-7.823-8.593c2.85-2.936 6.042-6.042 9.336-8.911a1124 1124 0 0 1 7.907 8.69 2.38 2.38 0 0 0 1.774.79 2.386 2.386 0 0 0 1.773-3.981c-.357-.396-3.543-3.934-7.783-8.548 3.052-2.415 6.115-4.513 9.007-5.972a2.385 2.385 0 1 0-2.149-4.259c-3.283 1.656-6.72 4.018-10.105 6.711a798 798 0 0 0-8.19-8.716c.5-1.374.706-2.877.527-4.426l-.086-.745c2.074-1.485 4.126-2.781 6.098-3.776a2.385 2.385 0 0 0-2.15-4.259c-1.496.755-3.025 1.66-4.567 2.672l-3.387-29.357a394 394 0 0 1 8.201-8.773m-7.384 52.689a819 819 0 0 1 7.274 7.75c-3.315 2.886-6.5 5.971-9.349 8.896-3.518-3.795-7.387-7.913-10.854-11.477.698-.721 1.419-1.453 2.155-2.19l5.486-.633a9.7 9.7 0 0 0 5.288-2.346m-126.029-59.483 112.115-12.935q.172-.02.343-.02c.661 0 1.299.221 1.825.638a2.93 2.93 0 0 1 1.095 1.97l7.171 62.159a2.95 2.95 0 0 1-2.588 3.263l-112.115 12.935a2.93 2.93 0 0 1-1.747-.348c2.902-2.4 5.644-5.101 7.656-8.371.589-.988 1.081-2.473 1.042-3.736.127-2.068-.231-4.152-.963-6.101l.586-.068a4.04 4.04 0 0 0 2.718-1.514 4.04 4.04 0 0 0 .855-2.99l-.437-3.795a4.073 4.073 0 0 0-4.505-3.572l-6.474.746a4.03 4.03 0 0 0-2.41 1.194 26 26 0 0 0-2.714-1.167l-4.041-35.025a2.95 2.95 0 0 1 2.588-3.263m9.088 42.708a26 26 0 0 0-1.376-1.07s5.783-.665 5.804-.665a.585.585 0 0 1 .578.514l.437 3.794a.57.57 0 0 1-.124.425.57.57 0 0 1-.386.218l-1.881.217a16 16 0 0 0-3.052-3.433m-131.857-14.456c8.281-1.413 16.619-2.449 25-2.77.211.414.457 1.29.481 1.965.405 4.998-.182 10.74.3 16.002.23 5.449 2.385 11.039 3.869 16.226 1.571 5.245 2.112 10.512 1.977 15.905-3.809 1.428-7.638 2.769-11.495 3.94-5.969 1.904-12.18 2.853-18.199 4.158-.644.1-1.211.494-1.483 1.136-1.371 4.213 8.815 3.629 11.561 3.026 9.917-1.813 19.426-5.162 28.77-8.679 15.41-6.039 30.358-12.976 44.972-20.679 3.62-1.922 7.468-4.078 11.393-6.104.071-.025.139-.036.211-.066 6.184-2.607 11.9-6.949 18.052-8.946.373-.068.527-.11.82-.09 1.432.089 2.881.39 4.332.826 5.32 1.541 10.831 5.509 10.321 11.433-.197.695-1.537 2.245-2.643 3.294-4.23 4.077-9.312 7.596-13.24 12.167-1.603 1.758.29 4.578 2.543 3.724 2.05-.768 3.912-1.777 5.695-2.912.308.321.631.63.985.911a9.67 9.67 0 0 0 6.037 2.111q.565 0 1.136-.065l16.539-1.909c4.988 7.217 8.465 15.871 2.467 22.278-5.727 6.141-12.35 11.68-19.558 16.716-12.57-5.85-26.032-9.784-39.781-11.54-8.511-1.079-17.169-1.723-25.765-1.425a4 4 0 0 0-.546-.58c-3.63-2.788-7.881-4.682-12.204-6.147-2.101-.683-3.836 2.038-2.281 3.656a55 55 0 0 0 4.351 3.976c-3.482.482-6.94 1.147-10.357 2.054a1.757 1.757 0 0 0 .371 3.453c4.862.153 9.604.003 14.412-.102 10.394-.214 20.852-.097 31.131 1.467 45.806 5.768 84.227 37.154 102.574 79.02 10.643 23.98 16.456 51.305 13.048 77.474-.36 1.749-.876 3.154-1.485 4.284-7.788-2.986-15.818-5.346-24.009-6.988-9.416-1.841-19.068-3.336-28.811-1.119-.7.16-1.27.727-1.396 1.479-.185 1.047.592 2.025 1.639 2.127 9.035 1.574 18.209 2.356 27.201 4.208 22.48 4.624 43.819 14.685 61.67 29.111l1.347 1.072c1.775 1.573 4.495 2.573 6.627 2.764 7.4.464 13.852.007 21.017 1.219 7.67 1.119 15.333 3.119 22.761 5.454q.057.162.106.368c.731 3.938.162 8.26-.345 12.316-5.687-2.861-12.275-4.199-18.567-3.17-1.114.26-2.289.615-3.313 1.14-.655.394-1.544.661-1.923 1.379a1.054 1.054 0 0 0 .586 1.373c2.167.878 4.101 1.351 6.019 1.877 5.386 1.176 10.754 2.961 15.994 4.666-1.281 6.717-2.99 13.422-4.922 20.023-3.776 12.086-8.383 26.713-15.793 35.508-.494.163-1.472.354-2.165.359-12.362.234-24.376-3.709-35.962-8.154-43.941-17.498-90.852-29.584-138.463-28.682-9.491.086-36.934.874-40.765.618-32.412-2.163-64.331-9.299-95.898-16.776-3.452-.846-6.933-1.719-10.435-2.551-.259-.061-.517-.134-.775-.193-7.495-1.789-14.847-4.366-21.724-7.771-.95-.362-2.529-1.118-3.489-1.32-.662 0-1.74-.218-2.337.181-1.764 1.06-1.088 2.928.339 4.731-9.093-.502-18.245-.1-27.264.532-24.346 2.078-48.501 2.101-72.643-1.577-12.778-1.379-23.489-9.461-27.901-21.613-8.608-24.726 2.543-53.156 13.652-75.612 1.158-2.196 2.311-4.65 3.657-6.727 1.217-1.706 2.957-3.092 5.014-4.148 10.674-4.99 25.537-3.336 37.861-.143-1.848 4.896-4.111 11.71-5.811 16.427-.306.735-.212 1.6.352 2.236 2.555 2.469 5.015-2.214 6.319-3.878 2.536-4.029 4.39-8.326 5.741-12.867.274.088.55.177.819.266 5.982 2.22 12.082 4.509 16.432 8.892-.127 2.695-1.08 5.6-1.804 8.522-1.415 5.221-2.908 10.549-4.12 15.998-1.01 5.537-2.503 11.312-.559 16.906.509 1.442 2.521 1.676 3.442.593q.198-.23.32-.54c1.975-5.145 2.13-10.277 3.424-15.543 1.059-5.211 2.517-10.377 3.962-15.668.02-.095.047-.202.07-.302 3.413-1.515 24.821-11.072 29.01-14.305l.025-.02a83.7 83.7 0 0 0 15.126-8.53c2.164-1.561.165-4.867-2.218-3.701-3.8 1.926-7.559 3.873-11.512 5.382-.515.21-1.039.398-1.558.6a102.4 102.4 0 0 1-17.263 5.018c-3.613.71-7.263 1.218-10.928 1.534-.028-.032-.047-.068-.076-.099-5.262-5.684-12.558-8.506-19.58-11.092-8.105-2.677-17.892-5.027-27.514-5.502-7.417-.366-14.732.387-21.105 2.965-6.664-6.253-11.934-13.933-15.084-22.724-1.377-3.415-2.63-6.896-4.077-10.421-.332-.811-.665-1.622-1.023-2.437l-.014-.034a1.881 1.881 0 0 0-3.614.677c-.099 3.537.351 7.055 1.201 10.487.34 1.374.737 2.736 1.199 4.078 3.662 10.017 8.755 17.869 15.069 24.169a18.6 18.6 0 0 0-2.992 3.236l-.024.032a30 30 0 0 0-1.207 1.935c-1.802 1.793-4.131 2.155-5.468 2.194-4.921-.653-9.429-2.817-13.945-5.331-9.348-5.248-17.729-12.644-25.974-19.656-3.187-2.497-7.74-5.393-11.188-7.573-2.026-1.357-4.495-2.875-5.438-4.509l.002-.005c.021-.046.057-.121.126-.217.074-.125.355-.454.425-.566 13.251-17.58 28.768-33.38 45.547-47.626.397-.144 6.843-5.675 17.667-13.443 22.944-16.466 69.483-45.934 138.217-70.993a3.4 3.4 0 0 0 1.58-1.226c.218-.303.404-.63.513-.997a3.4 3.4 0 0 0 .051-1.696c3.349-1.272 6.91-2.599 10.247-3.715 15.099-5.157 30.609-9.352 46.309-12.08m294.383 354.304a789 789 0 0 1 19.614 15.255c1.898 5.771 11.981 37.529 12.446 61.928a1410 1410 0 0 0-20.812-7.844c-2.649-30.463-8.094-56.197-11.248-69.339m-357.034-7.363v-41.993a69 69 0 0 0 6.671 1.626c.403.056 8.532.871 11.344 1.369 3.128.554 8.246 1.941 12.375 2.884v37.414a826 826 0 0 0-30.39-1.3m-71.155 1.547v-45.38c8.546-.167 17.072-.641 25.525-1.353a444 444 0 0 1 4.865-.31v45.599a831 831 0 0 0-30.39 1.444m-347.039 20.802a931 931 0 0 1 22.306-17.093c-3.205 13.692-8.844 41.13-10.863 72.048a1401 1401 0 0 0-21.423 8.112c1.265-23.75 8.5-56.553 9.98-63.067m372.658-346.806c-3.024-4.397-8.162-6.514-11.679-6.333-2.11.109-4.415.474-6.835 1.042-1.694-2.758-4.861-6.741-9.839-8.664-4.805-1.858-10.096-1.408-15.727 1.331-4.768 2.319-8.525 5.875-11.147 10.483.076-.985.209-1.82.32-2.32a3.4 3.4 0 0 0-6.037-2.792c-5.717 7.634-7.72 14.43-5.954 20.198 1.687 5.511 6.302 8.19 8.32 9.128a3.4 3.4 0 0 0 4.899.434c.047-.041 4.766-4.137 16.079-10.853 11.737-6.967 18.572-9.548 18.637-9.572.297-.11 5.591-1.518 7.634-1.624 1.128-.045 4.015.908 5.727 3.396 1.533 2.228 1.579 5.005.14 8.253a3.4 3.4 0 0 0-.189.576c-55.076 25.628-88.909 50.91-100.066 59.855-1.637-6.612-3.974-19.371-2.409-33.99 3.02-28.214 18.457-49.767 45.882-64.06 11.954-6.231 28.789-10.058 45.093-10.058 13.196 0 26.045 2.509 35.671 8.279 11.669 6.993 19.948 15.223 24.08 19.812a667 667 0 0 0-40.291 16.526c.291-3.29-.48-6.389-2.309-9.047m22.017-33.124c-24.239-14.528-64.241-10.491-87.403 1.581-33.405 17.411-45.092 42.983-48.653 63.351a97 97 0 0 0-2.699-2.727c-.041-.062-.076-.126-.121-.186-.02-.026-.045-.047-.066-.073l-5.59-10.501c-2.751-5.169-8.834-7.757-14.466-6.149l-98.987 28.225a10.45 10.45 0 0 0-6.643 5.698 10.46 10.46 0 0 0 .009 8.753l4.04 8.752a206 206 0 0 0-4.862 9.333l-29.838-126.819c24.932-7.526 54.535-15.496 88.512-23.184 19.878-4.497 42.917-8.501 67.31-12.74 7.069-1.228 14.211-2.47 21.362-3.739 64.783-11.494 132.016-12.953 180.292-11.851l-1.657 82.862c-10.168 2.834-20.194 6.191-30.056 9.919-1.145.519-2.575.937-3.907 1.518-.634-.98-1.43-1.763-2.307-2.44-4.755-5.081-12.973-12.811-24.27-19.583m-139.45 116.881a324 324 0 0 0-11.863 10.889l-2.813-16.735c-.018-.104-.057-.201-.085-.303 1.644-16.817 9.494-33.537 13.373-40.94a126 126 0 0 1 3.671 4.058c-.174 2.258-.265 4.46-.29 6.598-1.638 9.911-3.865 26.771-1.993 36.433m-80.156-19.373c4.268 0 9.302-.94 14.134-2.452 4.539-1.419 8.931-3.356 12.354-5.601l.118 5.326c-2.452 2.752-11.679 11.31-30.197 9.314l-.146-6.872c1.152.193 2.407.285 3.737.285m-3.609-7.165c1.321-1.708 5.948-5 13.924-7.495s13.655-2.426 15.713-1.777c-1.321 1.708-5.948 5-13.924 7.495s-13.654 2.427-15.713 1.777m11.894-13.985c-5.27 1.649-10.053 3.906-13.468 6.356-1.121.805-2.027 1.586-2.765 2.341l-27.34 7.761-3.551-7.693a3.62 3.62 0 0 1-.003-3.067 3.61 3.61 0 0 1 2.327-1.996l98.988-28.225a5.6 5.6 0 0 1 1.545-.216c2.068 0 4.048 1.133 5.053 3.021l3.955 7.43-44.646 12.673c-4.88-1.665-12.719-.691-20.095 1.615m-43.178 23.415 24.262-6.887.303 14.266a3.4 3.4 0 0 0 2.868 3.286c3.33.527 6.428.759 9.309.759 21.243 0 30.521-12.658 30.955-13.269a3.4 3.4 0 0 0 .628-2.044l-.317-14.415a5.7 5.7 0 0 0 .061-1.019l38.003-10.787c-4.16 8.376-10.363 22.884-12.298 38.145l-108.679 30.614c.921-11.6 10.254-30.392 14.905-38.649m94.295 16.126 2.98 17.73a284 284 0 0 0-8.917 9.528 260 260 0 0 0-12.813 15.486c-2.795 3.178-2.229 7.082.618 9.897 1.972 1.987 3.903 3.197 5.791 4.474 4.219 2.732 9.393 5.988 13.086 9.317 3.918 3.402 7.93 6.857 12.118 10.09l18.037 107.299c-11.401 2.38-50.491 10.626-74.141 16.715-11.233 2.891-17.763 4.522-21.207 5.368l-43.823-175.405zm21.243 85.354c3.037 3.392 9.659 10.66 16.569 17.402-3.863 9.179-7.044 18.661-8.867 28.414zm65.502 111.955c6.329.407 12.677.596 19.023.601v45.793a919 919 0 0 0-30.39 2.741v-50.111q1.89.204 3.783.38 3.786.352 7.584.596m-35.96-6.184q1.035.49 2.113.926a41 41 0 0 0 6.859 2.079c2.929.517 5.871.968 8.822 1.372v51.69a1014 1014 0 0 0-30.156 3.902v-62.532l4.79-2.195a37.8 37.8 0 0 0 7.572 4.758m-84.875 14.128c9.152-2.241 19.664-4.647 29.703-6.879-.37 17.653-.684 37.977-.705 59.912a1187 1187 0 0 0-30.295 6.034c-.78-16.091.053-38.419 1.297-59.067m36.536-8.388a3123 3123 0 0 1 27.829-5.966l1.348-.281v61.481a1102 1102 0 0 0-29.913 4.944c.032-22.084.359-42.512.736-60.178m-86.417-27.579c-19.988 9.81-50.074 20.4-84.284 18.377-2.899-5.596-12.587-25.008-21.596-51.138 12.725-.439 49.159-3.218 92.422-19.99zm-75.5 25.437c31.348 0 58.418-9.442 77.254-18.562l7.94 31.127c-15.461 7.163-35.482 13.905-65.461 14.971-9.331.347-14.721-7.947-16.604-11.523-2.285-4.34-5.194-9.87-8.376-16.106 1.761.059 3.511.093 5.247.093m-44.757 48.335c.654.01 1.311.028 1.959.028 7.316 0 14.267-.624 20.438-1.575-3.924 18.346-8.188 43.152-8.634 65.896a1427 1427 0 0 0-25.565 9.016c2.509-34.189 9.327-63.543 11.802-73.365m29.64-2.883c3.069-.662 5.844-1.388 8.231-2.129 6.766-2.104 12.901-4.607 18.484-7.404-3.382 17.945-6.436 40.664-6.707 65.02-1.915.598-3.815 1.195-5.686 1.788a1415 1415 0 0 0-23.339 7.629c.715-22.731 5.147-47.301 9.017-64.904m33.936-11.12c.124.002.245.014.369.014q.392-.001.787-.014c9.105-.324 17.322-1.156 24.802-2.354-1.768 16.613-3.161 36.407-3.282 58.079a1373 1373 0 0 0-29.774 8.767c.441-24.394 3.673-46.999 7.098-64.492m32.93-3.612c11.556-2.337 21.217-5.555 29.611-9.041-1.469 19.558-2.678 40.979-2.677 58.457a1337 1337 0 0 0-30.373 8.016c.197-21.535 1.648-41.123 3.439-57.432m36.667-12.153q.9-.42 1.781-.841a3.4 3.4 0 0 0 2.343.954q.382 0 .77-.088c.225-.053 5.743-1.336 24.615-6.194l.514-.132c-1.206 20.64-1.958 42.737-1.088 58.783a1272 1272 0 0 0-31.865 7.395c.077-18.078 1.398-40.138 2.93-59.877m236.362 28.166c-5.187 0-10.371.059-15.549.164v-45.757c3.408-.117 6.812-.159 10.213-.083 3.402.075 6.802.268 10.201.618 2.27.204 4.516.503 6.751.85v44.298q-5.805-.09-11.616-.09m55.606 1.967v-36.326c10.088 2.234 20.213 4.306 30.39 6.111v32.822a913 913 0 0 0-30.39-2.607m140.473-23.86c.788 15.529 1.165 31.309.545 43.9a1174 1174 0 0 0-30.155-5.899v-38.481c9.888-.164 19.723-.173 29.61.48m-67.021-.755c5.216.38 23.719.483 29.609.419q.591-.006 1.002-.015v37.136a1091 1091 0 0 0-30.717-4.953c.005-11.971.045-22.794.106-32.587m-36.262 27.946v-32.375q3.982.657 7.977 1.252c7.101.957 14.281 1.894 21.489 2.594-.061 9.682-.103 20.376-.11 32.197a1003 1003 0 0 0-29.356-3.668m110.561 18.136c.706-12.871.365-28.946-.415-44.765 10.345.916 20.63 2.443 30.834 4.44.894 15.958 1.576 32.887 1.601 47.648a1262 1262 0 0 0-32.02-7.323m37.307-38.903a372 372 0 0 1 16.731 4.036 412 412 0 0 1 12.445 3.531c1.438 13.753 2.528 29.982 2.696 48.241a1328 1328 0 0 0-30.36-7.914c.026-14.731-.628-31.748-1.512-47.894m36.227 9.745c9.404 2.994 18.717 6.299 27.942 9.848a319 319 0 0 1 4.294 46.768 1369 1369 0 0 0-29.776-8.671c-.101-18.004-1.096-34.121-2.46-47.945m35.342 12.73c8.34 3.237 17.006 5.877 26.037 7.308l.273.034c3.116 14.752 5.847 31.78 6.424 47.955a1421 1421 0 0 0-19.396-6.309c-3.143-.997-6.356-2.002-9.622-3.012a328 328 0 0 0-3.716-45.976m33.465 8.094c2.894.146 5.788-.034 8.608-1.047 1.223-.518 2.204-1.485 3.076-2.492.146-.167 2.655-3.598 3.539-5.047q3.59-.241 7.102-.667c2.769 11.054 8.639 36.982 11.612 68.503a1436 1436 0 0 0-27.799-9.739c-.36-16.715-3.006-34.237-6.138-49.511M580.5 462.949l1.617-80.875c2.12.06 4.203.125 6.238.194l-.802 78.985a279 279 0 0 0-7.053 1.696m-450.762-4.684L69.752 324.85c25.408-11.653 89.398-36.628 170.614-56.816 62.112-15.439 125.188-26.055 187.478-31.551 76.689-6.765 152.392-5.748 225.068 3.025L641.409 378.58c-21.387-1.923-137.927-10.98-247.57 8.475-7.143 1.268-14.277 2.507-21.339 3.734-24.479 4.254-47.601 8.272-67.646 12.808-92.412 20.908-152.882 43.979-175.116 54.668m109.218 123.67-35.245-144.15c2.482-.788 5.024-1.582 7.615-2.382l31.757 134.977q-2.61 6.291-4.127 11.555m-38.037 51.843c17.177-4.642 29.69-6.647 37.066-7.187-6.17 2.771-16.372 6.517-32.79 10.649-15.304 3.852-28.1 6.209-36.879 7.587 6.966-3.096 17.792-7.046 32.603-11.049m5.935 10.057c12.845-3.233 22.102-6.26 28.731-8.854l.926 2.914c-7.082 3.339-17.306 7.273-31.029 10.495-23.961 5.626-37.64 7.179-42.511 7.59l-1.77-3.249c7.84-1.005 24.199-3.497 45.653-8.896m-46.205 35.836.346-.727c2.912-6.203 4.545-12.775 5.307-16.446 6.616-.703 19.778-2.568 40.735-7.488 17.527-4.116 29.597-9.323 37.01-13.252l9.746 38.203c-44.8 17.435-82.888 19.624-92.854 19.884-1.35-5.305-2.149-10.115-2.16-14.126-.006-2.136.99-4.214 1.87-6.048m-79.497 39.49a2.7 2.7 0 0 1-.193-.422c.963-1.528 2.256-4.187 4.18-8.914 7.393 1.424 27.814 4.42 50.585-.386 5.614-1.185 11.592-2.916 17.65-5.4l4.977 11.774c-7.938 7.637-16.817 13.724-26.631 18.219a93.8 93.8 0 0 1-19.319 6.394c-13.688-5.099-24.473-12.425-31.249-21.265m-14.602 32.49a75 75 0 0 1-3.286-2.739l1.49-3.073c1.563.591 2.922 1.122 4.03 1.565a103 103 0 0 1-2.234 4.247m24.33 34.554c-1.56-.673-3.763-1.721-5.98-2.829l1.463-3.057c2.456.2 4.628.103 6.453-.126-.7 2.341-1.392 4.507-1.936 6.012m5.759-13.949a3 3 0 0 0-.289.108c-.032.014-.066.022-.099.037-.042.018-4.113 1.828-10.54 1.007-5.175-4.22-9.845-9.365-13.552-15.631a7.6 7.6 0 0 1-.593-1.28c1.03-1.583 2.415-4.124 4.39-8.271.027 0 .051-.005.079-.005q.808 0 1.698.151c6.523 1.112 46.694 6.384 81.682-24.4l9.191 15.767a111 111 0 0 1-15.604 12.314c-27.034 17.693-55.279 20.014-55.558 20.035-.084.006-.165.025-.248.037l-.027.004q-.204.033-.403.088zm.48 16.707c.833-2.151 1.865-5.4 3.24-10.344 7.64-.936 32.005-5.012 56.128-20.721a119.5 119.5 0 0 0 12.839-9.647c1.6 3.279 6.755 13.799 11.627 23.311a121 121 0 0 1-14.147 7.536c-4.073 1.829-8.25 3.439-12.512 4.758-4.253 1.314-8.644 2.265-12.773 3.942-1.758.559-1.519 3.091.283 3.351 4.974.638 9.563-.528 14.111-1.774 4.54-1.263 8.986-2.831 13.334-4.637 5.071-2.121 9.966-4.625 14.681-7.433 2.559 4.869 4.778 8.88 5.985 10.588 1.484 2.1 4.466 6.469 7.912 8.724a118 118 0 0 1-13.285 5.009c-12.195 3.791-27.8 5.482-41.732 4.522-18.047-1.243-33.533-6.741-44.793-15.903-.11-.109-.51-.536-.898-1.282m12.892 51.87c-2.898 13.744-7.844 39.659-8.467 59.049a1273 1273 0 0 0-21.545 8.725c1.76-24.307 9.218-47.36 10.803-52.036a1658 1658 0 0 1 19.209-15.738m-45.66 37.462c4.965-3.898 10.557-8.512 16.867-13.756-3.107 10.961-7.292 28.66-8.208 47.001-9.72 4.118-17.04 7.382-21.602 9.459 3.24-26.332 11.435-40.315 12.944-42.704M216.244 923.2c134.511-40.315 237.835-49.035 301.982-49.035 111.821 0 222.606 25.292 301.963 49.035zm627.048 0c-145.625-46.141-257.136-55.835-325.066-55.835-122.961 0-244.549 30.323-325.068 55.835H63.144c22.464-9.878 69.934-29.647 131.679-49.23 80.029-25.383 201.099-55.64 323.402-55.64s243.372 30.257 323.4 55.64c61.745 19.583 109.216 39.352 131.679 49.23zm119.869-46.132c6.405 5.705 11.957 10.651 17.066 15.035 4.317 6.945 5.197 20.621 5.376 29.151-4.809-2.195-13.037-5.871-24.202-10.575-1.422-15.705-3.878-30.737-5.596-40.154a5264 5264 0 0 1 7.356 6.543m-8.876 30.64a1288 1288 0 0 0-21.735-8.753c.203-19.318-5.777-43.187-9.742-56.825 8.91 7.362 17.115 14.423 24.652 21.032.956 4.647 4.715 23.629 6.825 44.546m-20.977-197.101c15.125 22.104 19.13 44.531 11.275 63.147-9.035 21.417-32.27 34.256-61.585 37.173 4.235-8.751 7.935-19.49 10.755-30.087 4.377.638 8.776.974 13.251.334 2.113-.355 2.323-3.4.294-4.061-3.794-1.269-7.977-1.94-11.973-2.542 2.132-9.081 3.547-17.734 4.01-24.555.072-4.566.501-11.437-4.868-13.419-7.694-2.409-15.505-4.442-23.505-5.659 2.131-18.555-6.72-36.217-12.595-47.795 24.383 14.086 45.033 34.99 60.945 58.056 1.305 1.974 4.127.192 3.105-1.8-8.989-16.101-21.244-29.997-34.839-42.336-10.139-9.171-21.461-17.165-33.619-23.5-.093-.338-.148-.622-.142-.823.142-2.624.222-5.518.242-8.575.077-.785-.119-9.03-.249-11.72a194 194 0 0 1 8.925 3.503c30.072 12.687 55.135 32.098 70.573 54.659m-41.073 32.904.031.01c.095.029.03.011-.031-.01m135.656-89.848c-2.95 2.905-22.95 22.548-32.225 30.728-4.139 3.65-10.967 4.563-13.09 3.673-3.511-1.474-7.713-4.715-13.529-9.202-13.233-10.207-35.382-27.292-80.387-47.315-4.404-1.96-8.555-5.885-7-11.001l13.615-43.601c1.032-3.395 4.202-6.603 7.741-6.094 57.937 8.34 114.195 60.639 124.125 73.94 1.91 2.565 2.19 6.003.75 8.872"
  />
  <path
    fill="#423E3E"
    d="M908.368 583.37a2.5 2.5 0 0 0-.354-.025c-1.697 0-3.255 1.722-3.783 3.459l-9.341 29.918c-1.116 3.668 3.316 5.852 4.216 6.252 30.894 13.746 55.42 31.598 70.074 42.265 6.347 4.621 11.361 8.27 13.695 9.251 1.024.423 5.267-.049 7.86-2.336 6.217-5.484 19.505-18.525 21.925-20.909a4.72 4.72 0 0 0-.49-4.817c-6.07-8.147-63.921-57.318-103.802-63.058"
  />
  <path
    fill="#000"
    d="M909.337 576.64c-4.986-.721-9.974 2.801-11.604 8.162l-9.342 29.917c-1.751 5.759 1.445 11.574 7.952 14.468 30.234 13.453 54.399 31.042 68.835 41.55 7.227 5.26 12.001 8.736 15.064 10.022 1.044.439 2.362.662 3.819.662 3.572 0 7.973-1.346 11.173-4.167 6.966-6.143 21.956-20.917 22.586-21.543q.345-.333.57-.745c2.27-3.996 1.97-8.943-.76-12.604-8.39-11.24-67.616-59.867-108.293-65.722m103.323 74.605c-2.42 2.384-15.708 15.425-21.924 20.909-2.594 2.287-6.836 2.759-7.861 2.336-2.334-.981-7.347-4.63-13.695-9.251-14.654-10.667-39.179-28.519-70.073-42.265-.9-.4-5.332-2.584-4.217-6.252l9.342-29.918c.528-1.737 2.085-3.459 3.782-3.459q.176 0 .354.025c39.881 5.74 97.732 54.911 103.812 63.058a4.75 4.75 0 0 1 .48 4.817"
  />
  <path
    fill="#8A1FD1"
    d="M375.955 528.025a124 124 0 0 0-3.672-4.057c-3.878 7.402-11.728 24.122-13.372 40.939.027.102.067.199.085.303l2.813 16.736a322 322 0 0 1 11.863-10.889c-1.872-9.663.354-26.523 1.993-36.434.025-2.138.116-4.34.29-6.598"
  />
  <path
    fill="#8A1FD1"
    d="m374.161 655.428 7.702 45.816c1.823-9.753 5.003-19.235 8.867-28.414-6.91-6.742-13.533-14.01-16.569-17.402"
  />
  <path
    fill="#BE7AEB"
    d="M309.677 770.61c23.65-6.089 62.74-14.335 74.141-16.714l-18.037-107.299c-4.188-3.234-8.2-6.689-12.118-10.091-3.693-3.329-8.867-6.585-13.086-9.316-1.888-1.278-3.819-2.488-5.791-4.475-2.847-2.815-3.413-6.719-.618-9.897a260 260 0 0 1 12.813-15.486 283 283 0 0 1 8.917-9.527l-2.98-17.731-108.271 30.499 43.823 175.405c3.444-.846 9.974-2.477 21.207-5.368"
  />
  <path
    fill="#BE7AEB"
    d="m364.695 523.838-38.003 10.787a5.7 5.7 0 0 1-.061 1.019l.317 14.415a3.4 3.4 0 0 1-.628 2.045c-.434.61-9.712 13.268-30.955 13.268-2.881 0-5.979-.232-9.309-.759a3.4 3.4 0 0 1-2.868-3.286l-.303-14.266-24.262 6.887c-4.651 8.257-13.984 27.049-14.905 38.649l108.679-30.614c1.935-15.261 8.139-29.769 12.298-38.145"
  />
  <path
    fill="#BE7AEB"
    d="m366.542 516.245-3.955-7.43c-1.005-1.888-2.985-3.021-5.053-3.021-.514 0-1.034.07-1.546.216L257 534.235a3.61 3.61 0 0 0-2.326 1.996 3.62 3.62 0 0 0 .003 3.067l3.551 7.693 27.34-7.761c.738-.755 1.644-1.536 2.765-2.341 3.415-2.45 8.198-4.707 13.468-6.356 7.376-2.306 15.215-3.28 20.094-1.615z"
  />
  <path
    fill="#DFBDF5"
    d="M289.925 558.27c18.518 1.996 27.745-6.562 30.196-9.314l-.117-5.326c-3.423 2.245-7.816 4.182-12.354 5.601-4.832 1.512-9.866 2.452-14.134 2.452-1.33 0-2.585-.092-3.737-.285z"
  />
  <path
    fill="#DFBDF5"
    d="M305.62 542.741c7.976-2.494 12.603-5.787 13.924-7.494-2.058-.65-7.737-.719-15.712 1.776-7.977 2.495-12.603 5.787-13.925 7.495 2.059.65 7.737.719 15.713-1.777"
  />
  <path
    fill="#DFBDF5"
    d="M855.227 478.815a2.385 2.385 0 1 1 2.15 4.259c-1.972.995-4.024 2.291-6.098 3.776l.086.745a9.66 9.66 0 0 1-.527 4.426 788 788 0 0 1 8.19 8.716c3.385-2.693 6.822-5.055 10.105-6.711a2.385 2.385 0 1 1 2.149 4.259c-2.891 1.459-5.955 3.557-9.007 5.971a1182 1182 0 0 1 7.783 8.549 2.386 2.386 0 0 1-3.547 3.191 1124 1124 0 0 0-7.907-8.69c-3.294 2.869-6.486 5.975-9.336 8.911a1196 1196 0 0 1 7.823 8.593 2.385 2.385 0 1 1-3.547 3.191 1127 1127 0 0 0-7.564-8.317c-4.756 5.131-7.969 9.087-8.047 9.183a2.38 2.38 0 0 1-1.857.886 2.384 2.384 0 0 1-1.854-3.883c.323-.401 3.642-4.491 8.501-9.717-3.682-3.976-7.502-8.037-10.839-11.474-4.653 5.031-7.78 8.883-7.856 8.977a2.38 2.38 0 0 1-1.858.886 2.384 2.384 0 0 1-1.854-3.883c.316-.392 3.509-4.324 8.202-9.394q-.574-.573-1.111-1.096l-14.784 1.705c-.92 10.161 6.035 21.692 12.623 30.139 6.608 8.473 14.047 15.444 17.738 18.719 6.541-6.112 26.552-24.581 48.4-42.439 50.663-41.411 65.346-42.257 70.573-41.461-10.682-19.566-42.314-51.265-58.839-56.984-8.483-2.93-30.966 16.218-47.644 33.509a391 391 0 0 0-8.2 8.773l3.387 29.357c1.541-1.012 3.07-1.917 4.566-2.672m-2.61-23.602 7.985-8.757c9.49-10.402 28.691-25.994 29.504-26.653a3.4 3.4 0 0 1 4.017-.194c31.466 20.824 45.774 42.3 46.367 43.204a3.4 3.4 0 0 1-1.013 4.732c-.164.105-16.596 10.618-34.452 24.564-5.386 4.207-11.817 9.248-11.818 9.248a3.398 3.398 0 0 1-5.018-.935c-9.285-15.582-35.14-40.206-35.4-40.453a3.4 3.4 0 0 1-.172-4.756"
  />
  <path
    fill="#DFBDF5"
    d="m842.801 498.393-5.485.632a190 190 0 0 0-2.155 2.19c3.467 3.564 7.336 7.682 10.854 11.477 2.849-2.925 6.033-6.01 9.348-8.896a807 807 0 0 0-7.273-7.75 9.7 9.7 0 0 1-5.289 2.347"
  />
  <path
    fill="#BE7AEB"
    d="M848.753 554.627c3.836 2 7.801 3.568 9.275 3.326 6.956-1.156 32.696-15.505 59.927-35.024 34.943-25.046 47.477-40.633 47.593-46.371.014-.665.042-2.048-3.876-2.863-16.072-3.333-76.324 46.594-112.919 80.932"
  />
  <path
    fill="#8A1FD1"
    d="M891.963 493.693c2.368-1.854 5.793-4.535 8.876-6.943 13.566-10.595 26.328-19.241 31.96-22.964-4.72-6.187-17.845-21.81-40.349-37.11-5.168 4.27-19.391 16.216-26.825 24.364l-5.757 6.313c6.275 6.124 23.134 23.029 32.095 36.34"
  />
  <path
    fill="#000"
    d="M888.189 500.422a3.4 3.4 0 0 0 5.018.935c.001 0 6.431-5.041 11.818-9.248 17.856-13.946 34.288-24.459 34.452-24.564a3.4 3.4 0 0 0 1.013-4.732c-.593-.904-14.901-22.38-46.367-43.204a3.4 3.4 0 0 0-4.017.194c-.813.659-20.014 16.251-29.504 26.653l-7.985 8.757a3.4 3.4 0 0 0 .172 4.756c.26.247 26.115 24.871 35.4 40.453m-22.564-49.383c7.434-8.148 21.657-20.093 26.825-24.363 22.504 15.299 35.629 30.923 40.349 37.11-5.631 3.723-18.394 12.369-31.96 22.964-3.083 2.408-6.508 5.089-8.876 6.943-8.961-13.311-25.82-30.216-32.095-36.341z"
  />
  <path
    fill="#8A1FD1"
    d="M862.733 655.948a193 193 0 0 0-8.924-3.503c.13 2.69.326 10.935.248 11.72a180 180 0 0 1-.242 8.575c-.005.201.049.485.143.823 12.157 6.335 23.48 14.329 33.619 23.5 13.594 12.339 25.849 26.235 34.839 42.336 1.022 1.992-1.8 3.774-3.105 1.8-15.912-23.066-36.562-43.97-60.945-58.056 5.875 11.578 14.726 29.24 12.595 47.795 8 1.217 15.81 3.25 23.505 5.659 5.368 1.982 4.94 8.853 4.867 13.419-.462 6.821-1.877 15.474-4.01 24.555 3.996.602 8.18 1.274 11.974 2.542 2.028.662 1.819 3.706-.294 4.061-4.475.64-8.874.304-13.252-.334-2.819 10.597-6.519 21.336-10.754 30.087 29.315-2.917 52.549-15.756 61.585-37.173 7.855-18.616 3.85-41.043-11.275-63.147-15.438-22.561-40.501-41.972-70.574-54.659"
  />
  <path
    fill="#F295FF"
    d="M849.453 685.766a.95.95 0 0 0-.421.507 78 78 0 0 1-2.998 6.996c-1.21 2.31-4.768 1.122-4.372-1.43 1.431-9.992 5.495-31.321 5.589-31.565-.175-14.311-1.861-31.719-6.328-45.369-5.233-15.989-15.971-27.803-31.052-34.166-8.492-3.582-18.083-5.363-28.182-5.396-7.571.852-7.348 4.95-6.829 6.817 25.147 29.06 38.915 67.634 38.434 106.016-.076 6.389-.786 12.745-1.999 19.013a154.8 154.8 0 0 1 34.918 21.595c2.626 1.492 5.811.802 9.153.974 2.93-.005 5.903.134 8.864.386 1.816-15.56-5.281-30.745-10.967-42.024-.61-.866-1.412-1.817-2.252-2.287-.631-.353-1.15-.291-1.558-.067"
  />
  <path
    fill="#000"
    d="M560.389 498.539c1.458.975 2.923 1.928 4.347 2.892 2.477 1.676 4.826 3.384 6.779 5.298 1.149 1.084 2.34 2.615 3.402 3.847 1.987 2.088 3.911 4.315 5.53 6.72 2.585 3.765 4.651 7.93 6.297 12.264.743 2.018 1.397 4.072 2.083 6.115.827 2.459 1.701 4.902 2.845 7.244.856 1.856 3.77 1.38 3.99-.667.475-3.775-.092-7.333-1.097-10.774a56 56 0 0 0-1.464-4.319c-2.912-7.743-7.268-15.13-13.135-21.076-4.059-5.178-9.928-8.675-16.065-10.865-.544-.194-1.088-.395-1.636-.568-2.367-.764-3.951 2.502-1.876 3.889"
  />
  <path
    fill="#F295FF"
    d="M542.736 480.61a3.4 3.4 0 0 1-.051 1.696 3.3 3.3 0 0 1-.513.997 3.4 3.4 0 0 1-1.58 1.226c-68.734 25.059-115.273 54.527-138.217 70.993-10.824 7.768-17.27 13.299-17.667 13.443-16.779 14.246-32.296 30.046-45.547 47.626-.07.112-.351.44-.425.566-.069.096-.106.17-.126.217l-.002.005c.943 1.634 3.412 3.152 5.438 4.509 3.448 2.18 8.001 5.076 11.188 7.573 8.245 7.011 16.626 14.408 25.974 19.656 4.516 2.514 9.024 4.678 13.945 5.331 1.337-.039 3.666-.401 5.468-2.194.38-.659.778-1.308 1.207-1.935l.024-.032a18.6 18.6 0 0 1 2.992-3.236c-6.314-6.3-11.407-14.152-15.069-24.169a48 48 0 0 1-1.2-4.078c-.849-3.432-1.299-6.95-1.2-10.487a1.88 1.88 0 0 1 3.614-.677l.014.034c.358.815.691 1.626 1.023 2.437 1.447 3.525 2.7 7.006 4.077 10.421 3.15 8.791 8.42 16.471 15.084 22.724 6.373-2.578 13.688-3.331 21.105-2.965 9.622.475 19.409 2.825 27.514 5.502 7.022 2.586 14.318 5.408 19.58 11.092.029.031.048.067.076.099 3.665-.316 7.315-.824 10.928-1.534a102.4 102.4 0 0 0 17.263-5.018c.519-.202 1.043-.39 1.558-.601 3.953-1.508 7.712-3.455 11.512-5.381 2.383-1.166 4.381 2.14 2.218 3.701a83.7 83.7 0 0 1-15.126 8.53l-.025.02c-4.189 3.233-25.597 12.79-29.01 14.305-.023.1-.05.207-.07.302-1.445 5.291-2.903 10.457-3.962 15.668-1.294 5.266-1.449 10.398-3.425 15.543a1.8 1.8 0 0 1-.319.54c-.921 1.083-2.933.849-3.442-.593-1.944-5.594-.451-11.369.559-16.906 1.212-5.449 2.705-10.778 4.12-15.998.724-2.922 1.677-5.827 1.804-8.522-4.35-4.383-10.45-6.672-16.432-8.892q-.406-.135-.82-.266c-1.35 4.541-3.204 8.838-5.74 12.867-1.304 1.664-3.764 6.347-6.319 3.878-.564-.636-.658-1.501-.353-2.236 1.701-4.717 3.964-11.531 5.812-16.427-12.324-3.193-27.187-4.847-37.861.143-2.057 1.056-3.797 2.442-5.014 4.148-1.346 2.077-2.499 4.531-3.657 6.727-11.109 22.456-22.26 50.886-13.652 75.612 4.412 12.152 15.123 20.234 27.901 21.613 24.142 3.678 48.297 3.655 72.643 1.577 9.019-.632 18.171-1.034 27.264-.532-1.427-1.803-2.103-3.671-.339-4.731.597-.399 1.675-.181 2.336-.181.961.202 2.54.958 3.49 1.32 6.877 3.405 14.229 5.982 21.724 7.771.258.059.516.132.775.193 3.502.832 6.983 1.705 10.435 2.551 31.567 7.477 63.486 14.613 95.898 16.776 3.831.256 31.274-.532 40.765-.618 47.611-.902 94.522 11.184 138.463 28.682 11.586 4.445 23.6 8.388 35.961 8.154.694-.005 1.672-.196 2.166-.359 7.41-8.795 12.017-23.423 15.793-35.509 1.932-6.6 3.641-13.305 4.922-20.022-5.24-1.705-10.608-3.49-15.994-4.666-1.918-.526-3.852-.999-6.019-1.877a1.055 1.055 0 0 1-.587-1.373c.38-.718 1.269-.985 1.924-1.379 1.023-.525 2.199-.88 3.313-1.14 6.292-1.029 12.88.309 18.567 3.169.507-4.055 1.076-8.377.345-12.315a4 4 0 0 0-.106-.368c-7.428-2.335-15.091-4.335-22.762-5.454-7.164-1.212-13.616-.755-21.016-1.22-2.132-.191-4.852-1.19-6.627-2.763l-1.347-1.072c-17.851-14.427-39.19-24.487-61.67-29.111-8.992-1.852-18.166-2.634-27.201-4.208-1.047-.102-1.824-1.08-1.64-2.127a1.83 1.83 0 0 1 1.397-1.479c9.743-2.217 19.395-.722 28.811 1.119 8.191 1.642 16.221 4.002 24.009 6.988.609-1.13 1.125-2.535 1.485-4.284 3.408-26.169-2.405-53.494-13.048-77.474-18.347-41.866-56.769-73.252-102.574-79.02-10.279-1.564-20.737-1.681-31.131-1.467-4.808.105-9.55.255-14.412.102a1.757 1.757 0 0 1-1.682-1.828 1.76 1.76 0 0 1 1.311-1.626c3.417-.906 6.875-1.571 10.357-2.053a55 55 0 0 1-4.351-3.976c-1.555-1.618.18-4.339 2.281-3.656 4.323 1.465 8.574 3.359 12.204 6.147.214.183.391.379.546.58 8.596-.298 17.254.346 25.765 1.425 13.749 1.756 27.211 5.69 39.781 11.54 7.208-5.036 13.831-10.575 19.558-16.716 5.998-6.407 2.521-15.061-2.467-22.278l-16.539 1.909q-.571.065-1.136.065a9.67 9.67 0 0 1-6.037-2.111 10 10 0 0 1-.985-.912c-1.783 1.136-3.645 2.145-5.695 2.913-2.253.854-4.146-1.966-2.543-3.724 3.928-4.571 9.01-8.09 13.24-12.167 1.105-1.049 2.446-2.599 2.643-3.294.51-5.924-5.001-9.892-10.321-11.433-1.451-.436-2.9-.737-4.332-.826-.293-.02-.448.022-.82.09-6.152 1.997-11.868 6.339-18.052 8.946-.072.03-.14.041-.211.066-3.926 2.026-7.773 4.182-11.393 6.104-14.614 7.703-29.562 14.64-44.972 20.679-9.344 3.517-18.854 6.866-28.77 8.679-2.746.603-12.932 1.187-11.561-3.026.272-.642.839-1.036 1.483-1.136 6.019-1.305 12.23-2.254 18.199-4.158 3.857-1.171 7.686-2.513 11.495-3.94.135-5.393-.406-10.66-1.977-15.905-1.484-5.187-3.639-10.777-3.869-16.226-.482-5.262.105-11.004-.3-16.002-.024-.675-.27-1.551-.481-1.965-8.381.321-16.719 1.357-25 2.77-15.7 2.728-31.21 6.923-46.309 12.08-3.337 1.116-6.898 2.443-10.247 3.715m-66.46 54.113c1.395-3.727 3.652-6.299 6.71-7.646 4.653-2.05 9.226-.321 9.731-.118a3.4 3.4 0 0 1-2.513 6.319c-.101-.038-2.47-.889-4.518.04-1.297.588-2.32 1.862-3.041 3.788a3.4 3.4 0 1 1-6.369-2.383m-32.473 15.897c1.395-3.726 3.652-6.298 6.71-7.645 4.653-2.051 9.225-.322 9.731-.118a3.4 3.4 0 0 1-2.512 6.319c-.099-.038-2.468-.889-4.519.04-1.297.588-2.321 1.862-3.041 3.787a3.4 3.4 0 1 1-6.369-2.383m102.549 3.517-.861.6c-.955.717-2.04 1.011-3.16 1.144a45 45 0 0 1-.649 6.119c-2.657 14.38-9.55 27.633-18.318 39.213-18.105 23.944-43.904 29.913-71.115 17.858-.374.844-.583 1.782-.696 2.487-.332 1.984-3.211 2.213-3.857.316-1.027-2.962-.341-8.435 3.374-9.181 1.187-.185 2.402.383 3.467.802 6.326 2.727 13.032 4.611 19.84 5.126-7.427-3.54-14.079-10.162-19.643-19.777-3.685-6.37-8.448-18.723-9.313-23.294-.534-2.827.711-5.437 3.104-6.539l49.994-25.316a3 3 0 0 1 .217-.1c2.331-.981 4.997-.183 6.637 1.986 3.165 4.191 10.913 14.885 14.475 23.653 2.763 6.802 4.159 13.121 4.237 18.878a89 89 0 0 0 2.602-4.743c4.701-9.376 8.872-19.955 9.612-30.322-.054-1.649 1.264-3.063 2.915-3.059 1.313.024 2.478-.023 3.75.297 1.292.172 4.942 2.422 3.388 3.852m15.913-59.487c.548.173 1.092.374 1.637.568 6.137 2.19 12.005 5.686 16.064 10.865 5.867 5.946 10.223 13.333 13.136 21.076a57 57 0 0 1 1.464 4.318c1.005 3.442 1.571 7 1.097 10.775-.221 2.047-3.134 2.523-3.991.667-1.143-2.342-2.018-4.785-2.844-7.244-.687-2.043-1.341-4.097-2.083-6.115-1.647-4.334-3.713-8.499-6.298-12.264-1.618-2.405-3.542-4.632-5.53-6.72-1.062-1.232-2.252-2.763-3.401-3.847-1.954-1.914-4.303-3.622-6.78-5.299-1.423-.963-2.888-1.916-4.347-2.891-2.074-1.387-.49-4.654 1.876-3.889"
  />
  <path
    fill="#000"
    d="M542.964 550.285c-1.272-.32-2.437-.273-3.75-.297-1.651-.004-2.969 1.41-2.915 3.059-.74 10.367-4.911 20.946-9.612 30.322a90 90 0 0 1-2.601 4.743c-.079-5.757-1.475-12.076-4.238-18.878-3.561-8.768-11.309-19.462-14.475-23.653-1.64-2.169-4.306-2.967-6.637-1.986q-.11.045-.217.1l-49.994 25.316c-2.393 1.102-3.638 3.712-3.104 6.539.865 4.571 5.628 16.924 9.313 23.294 5.564 9.615 12.216 16.237 19.643 19.777-6.808-.515-13.514-2.399-19.84-5.126-1.065-.419-2.28-.987-3.466-.802-3.715.746-4.402 6.219-3.375 9.181.646 1.897 3.525 1.668 3.857-.316.113-.705.322-1.643.696-2.487 27.211 12.055 53.01 6.086 71.115-17.858 8.769-11.58 15.661-24.833 18.319-39.213.347-1.998.573-4.036.648-6.119 1.12-.133 2.205-.427 3.161-1.144l.86-.6c1.554-1.43-2.096-3.68-3.388-3.852m-42.191 61.478c-20.142 9.048-32.954-3.883-40.153-16.325-3.109-5.373-7.408-16.279-8.413-20.67l48.237-24.426c2.809 3.764 9.962 13.715 13.104 21.451 7.912 19.478 3.734 32.552-12.775 39.97"
  />
  <path
    fill="#DB00F8"
    d="m500.444 550.342-48.237 24.427c1.005 4.39 5.304 15.296 8.413 20.669 7.199 12.442 20.011 25.373 40.153 16.325 16.509-7.418 20.687-20.492 12.775-39.97-3.142-7.735-10.295-17.687-13.104-21.451m-14.246 47.711c-.404 1-1.165 1.759-2.143 2.137a4.3 4.3 0 0 1-1.543.305c-3.747 0-6.35-5.622-9.088-11.534-3.315-7.16-5.934-12.816-1.79-15.309a3.9 3.9 0 0 1 3.2-.388c2.721.835 4.573 4.281 7.87 11.401 3.51 7.583 4.425 11.086 3.494 13.388m15.865-6.207c-.569.328-1.2.495-1.843.495-.391 0-.787-.062-1.178-.186-2.041-.647-4.004-2.712-8.003-11.349-3.167-6.838-4.768-10.534-3.648-13.273a4 4 0 0 1 2.317-2.259c4.616-1.746 7.074 3.579 10.185 10.316l.425.92q.449.966.878 1.877c2.772 5.892 5.166 10.981.867 13.459"
  />
  <path
    fill="#000"
    d="M482.703 584.665c-3.297-7.12-5.148-10.566-7.869-11.401a3.9 3.9 0 0 0-3.201.388c-4.143 2.493-1.525 8.149 1.791 15.309 2.737 5.912 5.34 11.534 9.088 11.534.493 0 1.007-.098 1.542-.305a3.77 3.77 0 0 0 2.144-2.137c.931-2.302.015-5.805-3.495-13.388"
  />
  <path
    fill="#000"
    d="m500.317 576.51-.425-.92c-3.11-6.738-5.568-12.062-10.185-10.316a4 4 0 0 0-2.316 2.259c-1.12 2.739.481 6.435 3.647 13.273 3.999 8.637 5.963 10.702 8.003 11.349.391.124.787.186 1.178.186.644 0 1.274-.167 1.843-.495 4.299-2.478 1.905-7.567-.867-13.459q-.43-.91-.878-1.877"
  />
  <path
    fill="#000"
    d="M478.269 539.099a3.4 3.4 0 0 0 4.376-1.993c.721-1.926 1.744-3.2 3.041-3.788 2.048-.929 4.417-.078 4.518-.04a3.4 3.4 0 0 0 2.513-6.319c-.506-.203-5.078-1.932-9.732.118-3.057 1.347-5.315 3.919-6.709 7.646a3.4 3.4 0 0 0 1.993 4.376"
  />
  <path
    fill="#000"
    d="M446.987 555.213a3.4 3.4 0 0 0 3.185-2.21c.721-1.925 1.744-3.199 3.041-3.787 2.051-.929 4.42-.078 4.519-.04a3.4 3.4 0 0 0 2.512-6.319c-.506-.204-5.077-1.933-9.731.118-3.058 1.347-5.315 3.919-6.71 7.646a3.402 3.402 0 0 0 3.184 4.592"
  />
  <path
    fill="#BE7AEB"
    d="M533.705 479.82c-4.133-4.589-12.412-12.819-24.08-19.812-9.626-5.77-22.476-8.279-35.672-8.279-16.304 0-33.138 3.827-45.092 10.058-27.425 14.293-42.862 35.846-45.882 64.06-1.565 14.619.772 27.378 2.408 33.99 11.157-8.945 44.991-34.227 100.067-59.855.047-.194.105-.387.189-.576 1.439-3.248 1.392-6.025-.141-8.253-1.711-2.487-4.599-3.441-5.726-3.396-2.043.106-7.337 1.514-7.635 1.624-.064.024-6.9 2.605-18.637 9.572-11.313 6.716-16.032 10.812-16.078 10.853a3.41 3.41 0 0 1-3.423.632 3.4 3.4 0 0 1-1.477-1.066c-2.017-.938-6.632-3.617-8.319-9.128-1.767-5.768.237-12.564 5.953-20.198a3.4 3.4 0 0 1 6.037 2.792c-.111.5-.243 1.335-.32 2.32 2.622-4.608 6.379-8.164 11.148-10.483 5.631-2.738 10.922-3.189 15.726-1.331 4.978 1.923 8.146 5.906 9.84 8.664 2.42-.568 4.725-.933 6.835-1.042 3.516-.181 8.654 1.936 11.679 6.333 1.828 2.658 2.599 5.757 2.309 9.047a667 667 0 0 1 40.291-16.526"
  />
  <path fill="#F295FF" d="m892.265 743.521-.032-.01c.062.022.127.039.032.01" />
  <path
    fill="#7A42C8"
    d="M797.684 455.537c-.803.093-1.241.799-1.122 1.824.118 1.026.705 1.613 1.508 1.52.802-.092 1.241-.798 1.122-1.823-.118-1.026-.705-1.613-1.508-1.521"
  />
  <path
    fill="#7A42C8"
    d="M753.007 465.784c.803-.092 1.241-.798 1.148-1.601-.092-.802-.68-1.39-1.482-1.297-.803.093-1.241.798-1.149 1.601s.68 1.39 1.483 1.297"
  />
  <path
    fill="#7A42C8"
    d="M723.514 474.851c.923.34 1.831.721 2.714 1.167a4.03 4.03 0 0 1 2.41-1.194l6.473-.746a4.07 4.07 0 0 1 4.505 3.572l.438 3.795a4.04 4.04 0 0 1-.856 2.99 4.04 4.04 0 0 1-2.717 1.514l-.587.068c.733 1.949 1.09 4.033.964 6.101.039 1.263-.454 2.748-1.042 3.736-2.013 3.27-4.754 5.972-7.656 8.371a2.93 2.93 0 0 0 1.747.348l112.115-12.935a2.95 2.95 0 0 0 2.588-3.263l-7.171-62.159a2.93 2.93 0 0 0-1.096-1.97 2.93 2.93 0 0 0-2.167-.618l-112.115 12.935a2.95 2.95 0 0 0-2.588 3.263zm41.445-16.103c-.758.087-1.251.709-1.164 1.467l.862 7.469-5.083.586-1.512-13.109 7.535-.869.499 4.325zm8.95 7.868c-3.969.458-6.883-1.894-7.348-5.929-.463-4.013 1.77-6.982 5.626-7.427 3.478-.401 6.028 1.926 6.422 5.337l-6.161 3.579 6.242-.72.525 4.548zm12.93-1.492-.895-7.758c-.072-.624-.475-.984-.943-.93s-.779.496-.707 1.12l.895 7.759-5.083.586-1.877-16.274 5.083-.587.365 3.166 2.452-.283c2.453-.283 4.489 1.312 4.772 3.764l1.021 8.851zm11.847-1.095c-3.634.419-6.477-2.099-6.943-6.134-.463-4.013 1.757-7.093 5.369-7.51s6.45 2.057 6.915 6.092c.466 4.035-1.707 7.133-5.341 7.552m33.516-17.692c3.478-.402 6.029 1.925 6.422 5.336l-6.161 3.579 6.242-.72.525 4.548-5.306.612c-3.968.458-6.883-1.894-7.348-5.929-.463-4.013 1.77-6.981 5.626-7.426m-13.94 7.03c-1.48-2.45-.185-5.13 2.646-5.456l4.593-.53.499 4.325-2.586.298 2.121 3.506c1.48 2.449.185 5.129-2.647 5.456l-4.993.576-.499-4.325 2.987-.345zm-1.081 8.257-7.535.869c-2.452.283-4.489-1.312-4.772-3.764l-1.021-8.851 5.083-.586.895 7.758c.072.624.475.985.943.931.469-.054.779-.497.707-1.121l-.895-7.758 5.083-.587zm-14.684-28.984.926 8.026c.059.513.466.714.845.67.38-.043.626-.253.669-.664l.971-8.426 5.284-.609-2.512 16.803-5.016.579.457-3.283-.936.108c-2.453.283-4.467-1.315-4.75-3.767l-1.021-8.851zm-9.305-2.134.365 3.165 3.054-.352.499 4.325-3.054.352.365 3.166a1.275 1.275 0 0 0 1.443 1.144l1.761-.203.499 4.325-3.879.447c-2.453.283-4.467-1.314-4.75-3.767l-1.386-12.016zm-4.008 16.953-5.083.587-1.214-10.523 5.083-.587zm-4.45-16.249a2.817 2.817 0 0 1 3.133 2.485 2.815 2.815 0 0 1-2.485 3.133 2.816 2.816 0 0 1-3.133-2.485 2.816 2.816 0 0 1 2.485-3.133m-3.402.664 1.877 16.274-5.083.587-1.877-16.275zm-4.098 16.964-5.083.586-1.214-10.523 5.083-.586zm-4.45-16.249a2.816 2.816 0 0 1 3.134 2.485 2.817 2.817 0 0 1-2.485 3.133 2.817 2.817 0 0 1-3.134-2.485 2.816 2.816 0 0 1 2.485-3.133m-6.345 1.003.365 3.166 3.055-.353.499 4.325-3.054.353.365 3.166a1.274 1.274 0 0 0 1.442 1.143l1.761-.203.499 4.325-3.879.448c-2.452.283-4.467-1.315-4.75-3.767l-1.386-12.017zm-13.755 1.587 1.142 9.898c.1.87.645 1.281 1.313 1.204.669-.077 1.106-.602 1.006-1.471l-1.143-9.899 5.44-.627 1.129 9.787c.443 3.834-1.928 6.977-5.83 7.427-3.901.45-6.925-2.07-7.368-5.904l-1.129-9.787zm.295 20.569c2.452-.283 4.488 1.312 4.771 3.764l1.021 8.851-8.182.944c-1.605.185-3.849-.867-4.143-3.408-.275-2.386 1.574-3.593 3.121-4.472l1.731-.996-5.188.598-.511-4.43zm-24.309-.404 1.152 9.988c.1.869.645 1.281 1.314 1.204.668-.077 1.105-.602 1.004-1.472l-1.152-9.987 5.44-.628 1.152 9.988c.1.869.645 1.281 1.314 1.204s1.105-.602 1.005-1.472l-1.152-9.987 5.439-.628 1.119 9.698c.422 3.656-2.318 6.932-5.907 7.346l-7.625.879c-3.589.414-7.002-2.151-7.424-5.807l-1.119-9.698z"
  />
  <path
    fill="#7A42C8"
    d="M833.834 450.689c-.26-.49-.717-.731-1.386-.653-1.092.126-1.619 1.045-1.282 2.203z"
  />
  <path
    fill="#7A42C8"
    d="M772.434 456.959c-1.093.127-1.619 1.046-1.282 2.204l2.667-1.55c-.26-.49-.717-.731-1.385-.654"
  />
  <path
    fill="#423E3E"
    d="m734.201 482.704 1.881-.217a.58.58 0 0 0 .386-.217.57.57 0 0 0 .124-.426l-.437-3.794a.58.58 0 0 0-.218-.386.58.58 0 0 0-.36-.128c-.021 0-5.805.665-5.805.665.465.341.926.69 1.377 1.07a16 16 0 0 1 3.052 3.433"
  />
  <path
    fill="#000"
    d="M880.213 392.122a2.24 2.24 0 0 0 3.126-.501c2.331-3.22 3.847-6.726 5.158-10.303 4.02-10.702 7.897-21.46 11.119-32.433 1.1-4.132-4.744-6.185-6.454-2.255-2.886 7.059-5.449 14.234-7.907 21.449-2.265 7.344-5.482 14.305-5.966 22.128-.028.722.294 1.46.924 1.915"
  />
  <path
    fill="#000"
    d="m830.577 396.335 13.093 4.008a2.815 2.815 0 0 0 3.521-1.871 2.82 2.82 0 0 0-1.871-3.521l-13.092-4.008a2.82 2.82 0 0 0-1.651 5.392"
  />
  <path
    fill="#000"
    d="m852.088 381.366 4.452 8.831c1.581 2.897 2.695 6.015 5.183 8.485a2.36 2.36 0 0 0 1.869.67c4.951-.863-.283-9.322-1.142-11.946-3.681-8.406-8.321-18.776-12.358-26.961-2.202-4.132-8.311-1.241-6.515 3.076 2.336 5.239 5.968 12.617 8.511 17.845"
  />
  <path
    fill="#000"
    d="M967.138 521.446a2.82 2.82 0 0 0 3.668 1.562l12.702-5.112a2.818 2.818 0 1 0-2.106-5.23l-12.701 5.112a2.82 2.82 0 0 0-1.563 3.668"
  />
  <path
    fill="#000"
    d="M953.829 531.072a2.345 2.345 0 0 0-.041 3.315c2.447 2.509 5.555 3.651 8.438 5.258l8.79 4.53c5.184 2.581 12.581 6.303 17.77 8.67 4.288 1.85 7.245-4.287 3.133-6.487-8.165-4.117-18.462-8.835-26.85-12.599-2.517-.888-8.867-4.829-11.24-2.687"
  />
  <path
    fill="#000"
    d="M194.279 534.504a3.417 3.417 0 0 0-3.801-2.985l-3.927.473c-1.889.219-3.911.753-5.78 1.09-11.832 2.87-22.997 7.933-33.564 13.834-4.424 2.477-8.702 5.16-12.551 8.611-1.408 1.253.09 3.534 1.797 2.77 9.108-3.827 17.691-8.723 26.873-12.306 8.926-3.576 18.259-6.581 27.757-7.662 1.958-.122 3.438-1.871 3.196-3.825"
  />
  <path
    fill="#000"
    d="M127.688 578.894a2.815 2.815 0 0 0 3.949.547l6.227-4.709a2.82 2.82 0 0 0-3.401-4.497l-6.227 4.709a2.82 2.82 0 0 0-.548 3.95"
  />
  <path
    fill="#000"
    d="M175.302 547.894c-10.289 3.372-19.985 8.198-28.946 14.276-3.757 2.765.041 8.411 4.014 5.98a171 171 0 0 1 8.756-5.274c5.901-3.358 12.037-6.342 18.344-8.816 3.137-1.318 6.407-1.885 9.437-3.787a2.32 2.32 0 0 0 1.17-1.786c.122-5.174-10.103-1.31-12.775-.593"
  />
  <path
    fill="#FFFBE8"
    d="M785.382 436.828a2.815 2.815 0 0 0 2.485-3.133 2.815 2.815 0 0 0-3.133-2.485 2.817 2.817 0 0 0-2.485 3.133 2.816 2.816 0 0 0 3.133 2.485"
  />
  <path fill="#FFFBE8" d="m781.332 431.874-5.083.586 1.877 16.275 5.083-.587z" />
  <path
    fill="#FFFBE8"
    d="M797.112 450.385c-3.612.417-5.832 3.496-5.369 7.509.466 4.036 3.309 6.554 6.943 6.135s5.807-3.517 5.341-7.552c-.465-4.035-3.303-6.509-6.915-6.092m.958 8.496c-.803.093-1.39-.494-1.509-1.52-.118-1.025.32-1.731 1.123-1.824s1.39.495 1.508 1.521-.32 1.731-1.122 1.823"
  />
  <path
    fill="#FFFBE8"
    d="m817.895 461.542 4.994-.576c2.831-.327 4.126-3.007 2.646-5.456l-2.121-3.506 2.586-.298-.499-4.325-4.593.53c-2.831.326-4.126 3.006-2.646 5.456l2.121 3.505-2.987.345z"
  />
  <path
    fill="#FFFBE8"
    d="m767.492 449.962 3.879-.448-.499-4.325-1.761.203a1.274 1.274 0 0 1-1.442-1.144l-.365-3.165 3.054-.353-.499-4.325-3.054.353-.366-3.166-5.083.586 1.387 12.017c.283 2.452 2.297 4.05 4.749 3.767"
  />
  <path fill="#FFFBE8" d="m776.02 438.315-5.082.586 1.214 10.523 5.082-.586z" />
  <path
    fill="#FFFBE8"
    d="M811.481 456.86c.072.624-.238 1.067-.707 1.121s-.871-.307-.943-.931l-.895-7.758-5.083.586 1.021 8.851c.283 2.452 2.32 4.047 4.772 3.764l7.535-.869-1.512-13.109-5.083.587z"
  />
  <path
    fill="#FFFBE8"
    d="M755.741 451.498c3.902-.45 6.273-3.593 5.83-7.427l-1.129-9.787-5.44.627 1.143 9.899c.1.869-.337 1.394-1.006 1.471-.668.077-1.213-.334-1.313-1.204l-1.142-9.898-5.44.627 1.129 9.787c.443 3.835 3.467 6.355 7.368 5.905"
  />
  <path
    fill="#FFFBE8"
    d="M773.433 438.207a2.817 2.817 0 0 0 2.485-3.133 2.816 2.816 0 0 0-3.133-2.485 2.817 2.817 0 0 0-2.486 3.133 2.817 2.817 0 0 0 3.134 2.485"
  />
  <path
    fill="#FFFBE8"
    d="m731.773 471.477 7.625-.879c3.589-.415 6.329-3.69 5.907-7.346l-1.119-9.698-5.439.628 1.152 9.987c.1.87-.337 1.394-1.005 1.472-.669.077-1.214-.335-1.314-1.204l-1.152-9.988-5.44.628 1.152 9.987c.101.87-.336 1.394-1.005 1.472-.668.077-1.213-.335-1.313-1.204l-1.152-9.988-5.44.628 1.119 9.697c.422 3.657 3.835 6.222 7.424 5.808"
  />
  <path fill="#FFFBE8" d="m787.97 436.936-5.083.587 1.214 10.522 5.083-.586z" />
  <path
    fill="#FFFBE8"
    d="m758.062 455.161 1.512 13.109 5.083-.587-.862-7.468c-.087-.758.406-1.38 1.164-1.467l1.137-.131-.499-4.325z"
  />
  <path
    fill="#FFFBE8"
    d="m794.245 446.875 3.879-.447-.499-4.325-1.761.203a1.275 1.275 0 0 1-1.443-1.144l-.365-3.166 3.054-.352-.499-4.325-3.054.352-.365-3.165-5.083.586 1.386 12.016c.283 2.453 2.297 4.05 4.75 3.767"
  />
  <path
    fill="#FFFBE8"
    d="m786.129 451.923-2.452.283-.365-3.166-5.083.586 1.877 16.275 5.083-.586-.895-7.759c-.072-.624.239-1.066.707-1.12s.871.306.943.93l.895 7.758 5.083-.586-1.021-8.851c-.283-2.452-2.319-4.047-4.772-3.764"
  />
  <path
    fill="#FFFBE8"
    d="m751.298 460.43-1.731.997c-1.547.879-3.396 2.086-3.121 4.472.293 2.541 2.538 3.593 4.143 3.407l8.182-.944-1.021-8.85c-.283-2.453-2.319-4.047-4.771-3.764l-7.38.851.511 4.43zm1.375 2.456c.802-.093 1.389.495 1.482 1.297.093.803-.345 1.509-1.148 1.601s-1.39-.495-1.483-1.297c-.092-.803.346-1.508 1.149-1.601"
  />
  <path
    fill="#FFFBE8"
    d="m803.185 445.844.936-.108-.457 3.283 5.016-.579 2.512-16.803-5.284.609-.971 8.426c-.043.411-.29.62-.669.664s-.786-.158-.845-.67l-.926-8.026-5.083.586 1.021 8.851c.283 2.452 2.297 4.05 4.75 3.767"
  />
  <path
    fill="#FFFBE8"
    d="m833.924 459.692 5.306-.612-.524-4.548-6.243.72 6.161-3.579c-.393-3.411-2.944-5.738-6.421-5.337-3.857.445-6.09 3.414-5.627 7.427.466 4.035 3.38 6.387 7.348 5.929m-1.475-9.657c.668-.077 1.125.164 1.385.654l-2.667 1.55c-.337-1.158.189-2.077 1.282-2.204"
  />
  <path
    fill="#FFFBE8"
    d="m772.448 462.176 6.161-3.58c-.394-3.411-2.944-5.737-6.421-5.336-3.857.445-6.09 3.414-5.627 7.427.465 4.035 3.38 6.387 7.348 5.929l5.306-.612-.525-4.548zm-.014-5.217c.668-.077 1.125.164 1.385.654l-2.667 1.55c-.337-1.158.189-2.078 1.282-2.204"
  />
  <path
    fill="#423E3E"
    d="M843.796 867.524a1421 1421 0 0 1 19.396 6.309c-.577-16.174-3.308-33.203-6.424-47.955l-.274-.034c-9.03-1.431-17.696-4.071-26.036-7.308a328 328 0 0 1 3.715 45.976c3.267 1.01 6.48 2.015 9.623 3.012"
  />
  <path
    fill="#423E3E"
    d="M897.859 885.88c-2.973-31.521-8.842-57.449-11.611-68.503q-3.514.426-7.102.667c-.885 1.449-3.394 4.88-3.539 5.047-.872 1.007-1.854 1.974-3.076 2.492-2.821 1.013-5.715 1.193-8.609 1.047 3.133 15.274 5.779 32.796 6.139 49.511 9.738 3.3 19.021 6.562 27.798 9.739"
  />
  <path
    fill="#423E3E"
    d="M752.001 794.639c-10.204-1.997-20.489-3.524-30.834-4.44.78 15.819 1.121 31.894.415 44.765a1262 1262 0 0 1 32.02 7.323c-.025-14.761-.707-31.69-1.601-47.648"
  />
  <path
    fill="#423E3E"
    d="M790.76 851.869c-.167-18.259-1.257-34.487-2.696-48.241a411 411 0 0 0-12.444-3.531 372 372 0 0 0-16.731-4.036c.883 16.146 1.538 33.163 1.512 47.894 10.441 2.59 20.576 5.24 30.359 7.914"
  />
  <path
    fill="#423E3E"
    d="M604.221 783.282c-10.177-1.804-20.301-3.877-30.39-6.111v36.326a913 913 0 0 1 30.39 2.607z"
  />
  <path
    fill="#423E3E"
    d="M640.486 788.299c-7.208-.701-14.387-1.637-21.488-2.594a519 519 0 0 1-7.977-1.252v32.375a1003 1003 0 0 1 29.356 3.668c.007-11.821.049-22.515.109-32.197"
  />
  <path
    fill="#423E3E"
    d="M684.694 789.157v38.481a1174 1174 0 0 1 30.154 5.899c.621-12.591.243-28.371-.544-43.9-9.888-.653-19.723-.644-29.61-.48"
  />
  <path
    fill="#423E3E"
    d="M529.841 767.322a106 106 0 0 0-6.751-.85 127 127 0 0 0-10.2-.618 180 180 0 0 0-10.214.083v45.757a767 767 0 0 1 15.549-.164q5.811 0 11.616.09z"
  />
  <path
    fill="#423E3E"
    d="M677.894 826.422v-37.136q-.411.009-1.002.015c-5.89.064-24.393-.039-29.609-.419-.061 9.793-.101 20.616-.106 32.587a1091 1091 0 0 1 30.717 4.953"
  />
  <path
    fill="#423E3E"
    d="M932.549 898.955a1291 1291 0 0 1 21.735 8.753c-2.111-20.917-5.869-39.899-6.826-44.546-7.537-6.609-15.741-13.67-24.651-21.032 3.964 13.638 9.944 37.507 9.742 56.825"
  />
  <path
    fill="#423E3E"
    d="M310.798 835.846c-.87-16.046-.118-38.143 1.088-58.783l-.513.132c-18.873 4.858-24.391 6.141-24.616 6.194a3.5 3.5 0 0 1-.77.088 3.4 3.4 0 0 1-2.343-.954q-.88.421-1.781.841c-1.532 19.739-2.853 41.8-2.93 59.877a1272 1272 0 0 1 31.865-7.395"
  />
  <path
    fill="#423E3E"
    d="M554.656 772.758c-2.813-.498-10.942-1.313-11.344-1.368a69 69 0 0 1-6.671-1.627v41.993c10.16.244 20.297.685 30.39 1.3v-37.413c-4.13-.944-9.247-2.33-12.375-2.885"
  />
  <path
    fill="#423E3E"
    d="M827.352 862.422a319 319 0 0 0-4.294-46.768c-9.225-3.549-18.538-6.854-27.942-9.848 1.364 13.824 2.359 29.941 2.46 47.945a1369 1369 0 0 1 29.776 8.671"
  />
  <path
    fill="#423E3E"
    d="M171.087 811.585a135 135 0 0 1-20.438 1.575c-.648 0-1.306-.018-1.959-.028-2.476 9.822-9.294 39.176-11.803 73.365 8.095-2.942 16.632-5.96 25.565-9.016.447-22.744 4.711-47.55 8.635-65.896"
  />
  <path
    fill="#423E3E"
    d="M985.602 921.255c-.18-8.531-1.059-22.207-5.376-29.152-5.109-4.384-10.662-9.33-17.066-15.035a4761 4761 0 0 0-7.357-6.543c1.719 9.417 4.175 24.449 5.596 40.154 11.166 4.704 19.394 8.38 24.203 10.576"
  />
  <path
    fill="#423E3E"
    d="M198.338 865.736c.271-24.357 3.325-47.075 6.706-65.02-5.582 2.797-11.717 5.3-18.484 7.403-2.386.742-5.162 1.468-8.23 2.13-3.87 17.603-8.302 42.173-9.017 64.904a1415 1415 0 0 1 23.339-7.629c1.871-.593 3.771-1.19 5.686-1.788"
  />
  <path
    fill="#423E3E"
    d="M925.734 896.302c-.464-24.399-10.547-56.157-12.445-61.928a787 787 0 0 0-19.615-15.255c3.155 13.142 8.599 38.876 11.249 69.339a1405 1405 0 0 1 20.811 7.844"
  />
  <path
    fill="#423E3E"
    d="M108.467 897.173a1387 1387 0 0 1 21.423-8.113c2.019-30.917 7.658-58.356 10.863-72.048a934 934 0 0 0-22.307 17.093c-1.479 6.514-8.715 39.317-9.979 63.068"
  />
  <path
    fill="#423E3E"
    d="M274.807 786.476c-8.395 3.487-18.055 6.704-29.611 9.041-1.792 16.309-3.242 35.897-3.439 57.432a1335 1335 0 0 1 30.373-8.015c-.002-17.479 1.208-38.9 2.677-58.458"
  />
  <path
    fill="#423E3E"
    d="M491.011 766.57c-8.453.712-16.979 1.187-25.525 1.353v45.38a832 832 0 0 1 30.39-1.444V766.26a444 444 0 0 0-4.865.31"
  />
  <path
    fill="#423E3E"
    d="M238.224 796.775c-7.48 1.198-15.697 2.03-24.802 2.354q-.395.014-.787.014c-.124 0-.245-.012-.369-.014-3.425 17.493-6.657 40.098-7.098 64.492 9.452-2.9 19.396-5.838 29.774-8.767.121-21.672 1.514-41.466 3.282-58.079"
  />
  <path
    fill="#423E3E"
    d="M428.296 813.828v2.69a922 922 0 0 1 30.39-2.741v-45.793a300 300 0 0 1-19.024-.601 267 267 0 0 1-11.366-.976z"
  />
  <path
    fill="#423E3E"
    d="M384.541 818.044v-57.352l-1.348.281a3123 3123 0 0 0-27.829 5.966c-.377 17.666-.704 38.094-.737 60.178a1106 1106 0 0 1 29.914-4.944z"
  />
  <path
    fill="#423E3E"
    d="M391.341 758.636v62.532c9.95-1.437 20.009-2.746 30.155-3.902v-51.69c-2.95-.404-5.892-.855-8.822-1.372a41 41 0 0 1-6.859-2.079 38 38 0 0 1-6.075-3.103 38 38 0 0 1-3.61-2.581z"
  />
  <path
    fill="#423E3E"
    d="M317.531 834.394a1191 1191 0 0 1 30.295-6.034c.021-21.935.335-42.259.705-59.912-10.039 2.232-20.551 4.638-29.703 6.879-1.244 20.648-2.076 42.976-1.297 59.067"
  />
  <path
    fill="#423E3E"
    d="M81.218 864.539c-6.31 5.244-11.903 9.859-16.866 13.756-1.509 2.389-9.705 16.372-12.944 42.704 4.562-2.077 11.882-5.341 21.602-9.459.915-18.341 5.1-36.04 8.208-47.001"
  />
  <path
    fill="#423E3E"
    d="M101.543 899.882c.623-19.39 5.57-45.305 8.467-59.049a1655 1655 0 0 0-19.209 15.738C89.217 861.247 81.758 884.3 80 908.606c6.39-2.657 13.6-5.589 21.544-8.724"
  />
  <path
    fill="#8A1FD1"
    d="M518.225 818.33c-122.303 0-243.373 30.257-323.402 55.64-61.745 19.583-109.215 39.352-131.678 49.23h130.012c80.519-25.511 202.108-55.835 325.068-55.835 67.93 0 179.441 9.694 325.066 55.835h130.013c-22.463-9.878-69.934-29.647-131.679-49.23-80.028-25.383-201.098-55.64-323.4-55.64"
  />
  <path
    fill="#BE7AEB"
    d="M216.243 923.2h603.945c-79.357-23.743-190.142-49.035-301.964-49.035-64.146 0-167.47 8.72-301.981 49.035"
  />
</svg>
