<svg xmlns="http://www.w3.org/2000/svg" width="922" height="767" fill="none" viewBox="0 0 922 767"><path fill="#4C4C4C" d="M702.893 209.376a6.5 6.5 0 0 0 4.014 3.002q.107.027.215.047c.227.042 23.131 4.262 59.083 13.696 28.938 7.593 54.625 17.587 54.881 17.687q.185.073.377.121c.459.118.952.166 1.454.166 1.892 0 3.924-.693 4.845-1.05 2.662-1.033 4.354-2.368 5.057-3.973a6.5 6.5 0 0 0 .801-1.761l33.519-99.2a3 3 0 0 0 .069-.235 6.5 6.5 0 0 0-.715-4.962 6.5 6.5 0 0 0-3.777-2.936c-2.374-.947-28.039-11.043-65.462-20.305-46.642-11.544-65.552-12.731-66.342-12.776a9 9 0 0 0-1.453.033c-3.772.132-9.711 3.86-10.496 6.941a3 3 0 0 0-.056.264L702.14 204.567a6.5 6.5 0 0 0 .753 4.809m9.797-5.666 16.723-100.172c.187-.113.61-.261 1.136-.227.187.011 19.249 1.234 65.161 12.599 38.631 9.56 64.511 19.987 64.768 20.091a3 3 0 0 0 .415.137c.046.012.086.066.092.116l-33.484 99.099a4 4 0 0 0-.07.234.12.12 0 0 1-.088.09c-3.045-1.173-27.702-10.561-55.276-17.797-34.505-9.055-57.121-13.346-59.374-13.767a.125.125 0 0 1-.059-.139q.034-.131.056-.264"/><path fill="#DB00F8" d="M69.33 139.401a14.84 14.84 0 0 1 2.396 6.682l3.947 38.637a163.7 163.7 0 0 0 9.12 39.602l.516 1.408c6.462-9.381 22.496-22.932 38.133-34 12.371-8.755 24.706-16.207 34.734-20.98 4.324-2.059 7.774-3.409 10.547-4.239l-1.99-1.435a3 3 0 0 1-.13-.099c-19.576-15.704-75.551-31.814-76.115-31.975a4 4 0 0 1-.174-.055 14.74 14.74 0 0 1-6.982-5.116l-8.25-11.049c-1.305-1.747-3.605-2.422-5.59-1.635a24.8 24.8 0 0 0-5.128 2.764l-.079.057-.09.063c-4.378 3.1-4.9 6.278-1.79 10.957z"/><path fill="#FF7B00" d="M151.143 186.497c-.545.846-1.107 1.678-1.817 2.417-.906.981-2.234.952-3.192.347l-5.112 7.409-.101.109c.027.026.06.045.087.072a3.213 3.213 0 0 1-.023 4.543c-9.432 9.334-21.933 14.475-35.203 14.475-.812 0-1.627-.028-2.439-.067-8.707 7.868-13.304 13.592-14.355 16.166 4.798-.178 21.864-7.114 47.398-25.187 24.573-17.393 36.397-30.66 38.166-34.992-2.853.105-10.044 2.6-20.772 8.405-.584 2.212-1.433 4.356-2.637 6.303"/><path fill="#FF7B00" d="M875.462 503.795c4.71 9.588 4.232 21.692-1.456 36.023l-31.117 79.927c1.235 22.713 5.021 48.695 8.192 67.54 3.2 2.585 4.303 3.124 6.46 2.277a19 19 0 0 1 3.679-1.048c10.099-23.893 23.868-63.222 27.644-107.062 1.883-21.857 1.814-43.062-4.604-75.304-2.826-1.093-5.85-1.845-8.798-2.353m4.377 87.676c-1.642 14.513-4.685 28.901-8.745 42.916-3.125 10.422-6.702 20.913-11.282 30.815-.852 1.786-3.619.692-2.928-1.226 5.755-16.941 10.212-34.413 13.508-52.001.881-5.119 1.803-10.771 2.48-15.892.399-3.092.757-7.593 1.29-10.631.36-1.778.872-3.559 1.832-5.305a1.826 1.826 0 0 1 3.332.278c1.21 3.656 1.028 7.338.513 11.046"/><path fill="#FF7B00" d="M878.652 439.641a3.22 3.22 0 0 1-3.618.263l-4.667-2.717-2.442 2.173a3.22 3.22 0 0 1-3.851.317l-4.131-2.611-1.131 1.528a3.21 3.21 0 0 1-3.964.989l-.322-.153-1.176 3.996c2.788 10.287 6.561 25.34 8.605 38.28 10.239-1.244 18.319.852 23.57 3.032 2.577-10.294 7.237-21.261 11.566-31.442 1.842-4.33 3.621-8.515 5.099-12.34l-2.725 1.238a3.21 3.21 0 0 1-3.817-.892l-2.272-2.781-3.564 2.19a3.21 3.21 0 0 1-3.311.03l-5.309-3.125z"/><path fill="#FF7B00" d="M859.891 695.542c-5.93 2.329-9.786-.784-12.882-3.288-.286-.23-.633-.317-1.006-.294l8.047 16.089.725.015 9.863-13.337c-1.13-.128-2.69.006-4.747.815"/><path fill="#FF7B00" d="M870.577 496.68c4.76.429 10.271 1.352 15.397 3.244l.969-7.349c-3.398-2.011-12.349-6.23-25.258-4.357l-.018 1.64c2.948 1.596 6.111 3.802 8.91 6.822"/><path fill="#4C4C4C" d="M878.471 579.414a1.827 1.827 0 0 0-2.477.733c-.96 1.746-1.473 3.527-1.833 5.305-.532 3.038-.89 7.539-1.289 10.631-.678 5.121-1.599 10.772-2.48 15.892-3.296 17.588-7.753 35.06-13.508 52-.691 1.919 2.076 3.013 2.928 1.227 4.58-9.902 8.157-20.393 11.282-30.815 4.06-14.015 7.103-28.403 8.745-42.916.515-3.708.696-7.39-.513-11.046a1.83 1.83 0 0 0-.855-1.011"/><path fill="#4C4C4C" d="M424.348 195.628a3.42 3.42 0 0 0 2.303.888 3.433 3.433 0 0 0 2.304-5.977l-23.606-21.371a3.432 3.432 0 1 0-4.607 5.089z"/><path fill="#FFB46D" d="M335.661 157.974a3.42 3.42 0 0 1-2.525 1.107c-.832 0-1.666-.3-2.326-.908l-9.86-9.087c-.117-.108-.211-.231-.31-.35q-2.514.275-4.765.536l1.629 9.814c9.432 10.616 22.476 28.515 32.567 54.619l5.858 5.398c.201.186.367.393.514.61 12.567-.752 25.736-1.265 39.481-1.538l-3.374-3.109a3.43 3.43 0 0 1-.197-4.85 3.43 3.43 0 0 1 4.85-.199l8.685 8.003c11.218-.126 22.797-.102 34.737.08v-53.68l-15.739-14.445a3.433 3.433 0 0 1 4.643-5.058l11.096 10.184v-12.243c-6.278-.024-12.39.004-18.337.073a1162 1162 0 0 0-44.424 1.354l3.879 3.512a3.433 3.433 0 0 1-4.608 5.089l-8.922-8.077c-15.035.883-27.984 1.957-38.527 2.991l5.777 5.324a3.43 3.43 0 0 1 .198 4.85m64.839 11.434a3.433 3.433 0 0 1 4.849-.24l23.606 21.371a3.433 3.433 0 0 1 .241 4.848 3.43 3.43 0 0 1-2.546 1.129 3.42 3.42 0 0 1-2.303-.888l-23.606-21.371a3.433 3.433 0 0 1-.241-4.849m-49.307 2.878a3.433 3.433 0 0 1 4.851-.198l21.075 19.421a3.43 3.43 0 0 1 .198 4.85 3.42 3.42 0 0 1-2.525 1.108 3.42 3.42 0 0 1-2.326-.909l-21.075-19.422a3.43 3.43 0 0 1-.198-4.85"/><path fill="#4C4C4C" d="M372.466 196.558c.66.608 1.494.909 2.326.909a3.433 3.433 0 0 0 2.327-5.958l-21.075-19.421a3.433 3.433 0 0 0-4.653 5.048z"/><path fill="#FFB46D" d="M374.748 94.635a3.433 3.433 0 0 1 .207 4.85 3.42 3.42 0 0 1-2.53 1.112 3.42 3.42 0 0 1-2.32-.904l-14.774-13.56c-3.858 8.366-8.527 16.677-14.007 24.875a206 206 0 0 1-2.039 2.982 212 212 0 0 1-6.224 8.503q6.992-.664 14.276-1.214c13.849-1.045 28.487-1.781 43.883-2.205l-2.855-2.62a3.432 3.432 0 1 1 4.643-5.058l8.117 7.45q19.03-.355 39.5-.1v-3.632l-.577-.545a3.43 3.43 0 0 1-.139-4.852 3.4 3.4 0 0 1 .716-.563v-49.48a3.4 3.4 0 0 1-1.754-.93l-9.52-9.44a3.433 3.433 0 1 1 4.834-4.876l6.44 6.386v-8.59c-27.706-.11-52.278.749-72.9 1.968-1.537 11.74-4.714 23.55-9.498 35.28zm28.388-19.64a3.43 3.43 0 0 1 4.853-.139l18.386 17.36a3.43 3.43 0 0 1 .139 4.853 3.42 3.42 0 0 1-2.496 1.077 3.42 3.42 0 0 1-2.357-.938l-18.386-17.36a3.43 3.43 0 0 1-.139-4.852m-27.703-26.157a3.434 3.434 0 0 1 4.853-.14l9.749 9.206a3.43 3.43 0 0 1 .14 4.852 3.43 3.43 0 0 1-4.853.14l-9.749-9.206a3.43 3.43 0 0 1-.14-4.852"/><path fill="#4C4C4C" d="M385.321 62.896a3.42 3.42 0 0 0 2.357.937 3.432 3.432 0 0 0 2.357-5.929l-9.749-9.205a3.434 3.434 0 0 0-4.714 4.992z"/><path fill="#4C4C4C" d="M518.306 179.02a3.433 3.433 0 0 0-4.714 4.991l18.386 17.36a3.426 3.426 0 0 0 4.853-.139 3.433 3.433 0 0 0-.139-4.852z"/><path fill="#4C4C4C" d="M421.662 97.209a3.42 3.42 0 0 0 2.356.937 3.432 3.432 0 0 0 2.357-5.929l-18.386-17.36a3.433 3.433 0 0 0-4.714 4.991z"/><path fill="#FFB46D" d="M551.499 160.777a3.433 3.433 0 0 1 .021 4.855 3.43 3.43 0 0 1-2.438 1.016 3.42 3.42 0 0 1-2.417-.996l-18.037-17.888a3.4 3.4 0 0 1-.867-1.495 1244 1244 0 0 0-47.21-2.606c.352.155.687.358.983.636l18.386 17.36a3.43 3.43 0 0 1 .139 4.852 3.42 3.42 0 0 1-2.496 1.077 3.42 3.42 0 0 1-2.357-.937L476.82 149.29a3.43 3.43 0 0 1-.139-4.852 3.4 3.4 0 0 1 1.336-.86l-2.329-.078c-3.929-.126-7.857-.241-11.785-.33v34.384a3.4 3.4 0 0 1 2.147.884l18.261 16.761a3.43 3.43 0 0 1 .208 4.85 3.43 3.43 0 0 1-2.53 1.112c-.83 0-1.661-.299-2.321-.904l-15.765-14.471v32.851c12.976.4 25.562.951 37.523 1.591l-6.934-6.364a3.433 3.433 0 0 1 4.643-5.058l9.878 9.067a3.4 3.4 0 0 1 1.084 2.84c9.037.528 17.663 1.1 25.763 1.687a204 204 0 0 1 6.431-16.012c5.847-12.917 12.285-23.456 18.284-31.775 3.529-4.892 6.906-9.033 9.912-12.417l1.957-11.789a1233 1233 0 0 0-34.789-3.361zm-14.668 40.455a3.43 3.43 0 0 1-2.497 1.077 3.42 3.42 0 0 1-2.356-.938l-18.386-17.36a3.433 3.433 0 0 1-.139-4.852 3.434 3.434 0 0 1 4.853-.139l18.386 17.36a3.433 3.433 0 0 1 .139 4.852"/><path fill="#FFB46D" d="M463.903 42.537V73.9l15.451 15.324a3.433 3.433 0 0 1 .02 4.855 3.43 3.43 0 0 1-2.437 1.016 3.43 3.43 0 0 1-2.418-.996L463.903 83.57v35.657c12.928.368 25.493.89 37.47 1.505l-8.817-8.745a3.432 3.432 0 1 1 4.834-4.875l14.297 14.18c15.389.88 29.619 1.893 42.159 2.899a210 210 0 0 1-7.179-10.073 198 198 0 0 1-3.248-5.039 3.4 3.4 0 0 1-1.178-.757l-23.777-23.489a3.433 3.433 0 0 1 4.825-4.884l9.339 9.226c-6.735-14.624-10.968-29.419-12.631-44.09a1242 1242 0 0 0-56.094-2.55m36.198 19.332a3.42 3.42 0 0 1-2.442 1.02c-.872 0-1.743-.33-2.413-.99l-9.539-9.424a3.433 3.433 0 0 1 4.825-4.884l9.54 9.423a3.433 3.433 0 0 1 .029 4.855"/><path fill="#4C4C4C" d="M490.533 47.591a3.433 3.433 0 0 0-4.826 4.884l9.539 9.423c.67.661 1.541.991 2.413.991a3.433 3.433 0 0 0 2.413-5.875z"/><path fill="#AD5400" d="M446.091 124.291c-.613.604-1.456.894-2.302.924-43.827-.65-82.818.791-116.364 4.293a215 215 0 0 1-12.189 13.376c23.812-2.746 69.334-6.786 128.621-6.435a3.213 3.213 0 0 1 3.192 3.213v81.704a3.21 3.21 0 0 1-3.268 3.211c-32.471-.568-62.319.001-89.314 1.692a219 219 0 0 1 3.387 11.871c20.86-1.334 46.138-2.341 74.926-2.341 29.286 0 62.205 1.045 97.783 3.845a219 219 0 0 1 3.184-10.956c-21.478-1.538-46.538-2.957-73.149-3.722a3.21 3.21 0 0 1-3.119-3.211v-81.867c0-.863.347-1.691.963-2.294.617-.605 1.462-.906 2.313-.918 36.699.735 73.485 3.108 109.793 7.062a217 217 0 0 1-11.262-12.656c-26.214-2.188-60.997-4.524-98.68-5.517a3.21 3.21 0 0 1-3.127-3.211V39.255c0-.863.347-1.69.963-2.294.617-.604 1.463-.917 2.313-.918a1248 1248 0 0 1 58.674 2.568 125 125 0 0 1-.238-7.5c-60.097-4.107-111.879-3.237-150.406-1.082a125 125 0 0 1-.38 7.713c21.334-1.24 46.782-2.098 75.452-1.926a3.213 3.213 0 0 1 3.192 3.212v82.975a3.2 3.2 0 0 1-.958 2.288"/><path fill="#AD5400" d="M519.353 24.685q.285-5.515 1.076-10.973c-43.957-2.762-99.463-4.665-152.716-2.049q.806 5.937 1.016 11.94c38.675-2.152 90.518-3.01 150.624 1.082"/><path fill="#AD5400" d="m665.421 39.292 7.178.68a17.3 17.3 0 0 1-.301-3.15c0-1.84.292-3.61.825-5.274l-7.703-1.188c.079 2.767.077 5.758.001 8.932"/><path fill="#AD5400" d="m222.521 29.994-1.216.188a17.2 17.2 0 0 1 1.241 4.963 179 179 0 0 1-.025-5.15"/><path fill="#FFB921" d="M205.275 25.89c-6.027 0-10.931 4.904-10.931 10.931 0 6.028 4.904 10.93 10.931 10.93 6.028 0 10.932-4.902 10.932-10.93s-4.904-10.93-10.932-10.93"/><path fill="#FFB921" d="M689.653 47.752c6.027 0 10.931-4.903 10.931-10.93 0-6.029-4.904-10.931-10.931-10.931s-10.931 4.903-10.931 10.93 4.904 10.93 10.931 10.93"/><path fill="#FF7B00" d="M339.391 257.181c3.938 2.679 7.248 5.834 9.937 9.434 4.34-3.411 6.437-7.041 5.821-10.524-6.58-37.204-20.868-63.462-31.696-78.938a155 155 0 0 0-9.915-12.736c-4.16 2.554-8.717 5.02-13.817 7.14 11.146 9.646 23.417 27.59 26.502 40.802.45 1.936-2.108 3.162-3.328 1.602-5.068-6.786-8.773-14.398-13.764-21.216-4.811-6.641-10.013-13.064-16.108-18.547-.055-.045-.093-.095-.143-.142-7.51 2.367-16.127 3.891-26.268 3.891-3.942.001-8.117-.229-12.539-.726l-.056-.011c-.045 5.655-.336 11.436-.639 17.329-.814 15.855-1.701 33.169 2.123 51.858 40.234-3.929 67.576-.313 83.89 10.784"/><path fill="#FF7B00" d="M251.266 151.046c8.054 1.439 18.179.557 27.784-1.142.037-.187.077-.374.147-.57 2.571-10.092 3.586-20.762 4.863-31.112.694-6.249 1.185-13.157 2.896-19.222.517-1.956 3.422-1.798 3.709.207 1.266 8.751.218 17.442-.54 26.169-.88 7.739-1.792 15.634-4.064 23.137a213 213 0 0 0 8.519-2.054c.04-.331.12-.661.271-.977 7.425-17.204 13.041-35.444 16.372-53.898 1.22-6.173 2.066-12.371 3.447-18.612a1.877 1.877 0 0 1 2.246-1.473 1.88 1.88 0 0 1 1.463 1.68c.189 2.324.213 4.964.231 7.314-.675 17.016-4.896 33.773-10.497 49.798-1.733 4.774-3.568 9.391-5.699 13.968 1.148-.344 2.202-.669 3.145-.966 6.423-5.99 18.941-18.639 30.527-36.008 14.998-22.487 31.464-57.74 24.77-98.042-.363-.427-3.815-3.487-27.292-2.675-11.536.398-26.095 1.632-44.507 3.774-38.535 4.484-55.003 9.87-59.79 11.716-2.19 26.871 5.915 85.334 20.2 123.374a62 62 0 0 1 1.799 5.614m-.992-68.513c.346-2.019 3.298-2.071 3.702-.061.978 4.964 1.378 10.134 1.805 15.156.634 7.478 1.546 14.936 2.946 22.302 1.469 7.03 3.094 14.23 6.282 20.673 2.124 3.55-2.841 6.817-5.239 3.44-8.736-14.289-12.221-45.03-9.496-61.51"/><path fill="#FFB921" d="m310.895 158.503-1.601-9.647c-9.882 3.234-37.511 11.422-57.092 8.836.315 6.323 1.466 12.057 2.763 13.164 26.361 2.926 42.579-4.027 55.93-12.353"/><path fill="#4C4C4C" d="M265.009 140.603c-3.188-6.443-4.813-13.643-6.281-20.673-1.401-7.366-2.313-14.824-2.946-22.302-.427-5.022-.828-10.192-1.805-15.156-.405-2.01-3.356-1.958-3.703.06-2.725 16.48.76 47.222 9.496 61.511 2.399 3.377 7.364.11 5.239-3.44"/><path fill="#FF7B00" d="M564.538 180.262c-10.828 15.477-25.117 41.737-31.696 78.939-.673 3.806 1.898 7.787 7.09 11.466 2.964-4.762 6.898-8.827 11.799-12.161 15.942-10.844 42.413-14.546 81.156-11.043 3.358-17.908 2.51-34.539 1.725-49.814-.302-5.893-.593-11.674-.638-17.328-.019.002-.036.008-.056.01-4.423.498-8.597.727-12.539.727q-2.087-.001-4.09-.086c3.098 7.719 4.735 18.72 2.277 25.222-.58 1.636-3.071 1.633-3.661.026-1.691-4.517-1.569-9.326-2.597-13.964-.825-4.062-1.916-8.045-3.411-11.894a82.7 82.7 0 0 1-14.507-3.103c-4.104 8.762-8.582 18.272-12.176 27.125-1.358 3.218-2.727 6.368-4.631 9.345a1.917 1.917 0 0 1-3.511-1.142c.078-1.812.311-3.601.709-5.329 2.08-8.576 5.751-16.691 9.514-24.635a128 128 0 0 1 3.994-7.532c-5.519-2.209-10.399-4.84-14.836-7.565a155 155 0 0 0-9.915 12.736"/><path fill="#FF7B00" d="M582.435 146.404c7.606 2.396 22.385 6.599 36.405 8.004a3.1 3.1 0 0 1-.026-1.569c4.9-24.065 6.505-48.971 6.277-73.526.012-8.309-.326-16.554-.037-24.88.099-2.158 3.279-2.426 3.697-.273 1.603 8.249 2.462 16.616 2.763 24.999.631 16.736-.006 33.679-2.08 50.295-1.038 8.45-2.414 16.643-4.554 24.96-.039.145-.099.277-.156.411 4.267.162 8.346-.016 12.001-.669a62 62 0 0 1 1.799-5.614c14.285-38.044 22.391-96.507 20.2-123.375-4.768-1.839-21.232-7.228-59.79-11.715-18.413-2.142-32.971-3.376-44.507-3.774-23.481-.815-26.929 2.249-27.292 2.675-6.694 40.302 9.771 75.555 24.771 98.042 11.586 17.371 24.106 30.02 30.529 36.009m8.798-66.218c.239-2.048 3.209-2.24 3.701-.239 2.356 10.102 2.685 20.543 3.906 30.802 1.083 10.014 2.236 20.609 3.643 30.572.53 3.989-5.171 5.087-6.157 1.172-2.138-10.292-3.354-20.643-4.306-31.08-.8-10.406-1.964-20.783-.787-31.227"/><path fill="#FFB921" d="M633.027 173.966c1.296-1.107 2.448-6.841 2.762-13.164-19.578 2.584-47.209-5.601-57.092-8.836l-1.601 9.646c13.351 8.327 29.569 15.284 55.931 12.354"/><path fill="#4C4C4C" d="M596.326 142.493c.986 3.915 6.687 2.817 6.157-1.172-1.407-9.962-2.56-20.558-3.643-30.572-1.221-10.259-1.55-20.7-3.906-30.801-.492-2.002-3.462-1.81-3.701.238-1.177 10.444-.013 20.822.787 31.227.952 10.437 2.169 20.788 4.306 31.08"/><path fill="#AD5400" d="M540.377 495.933c1.967-2.92 4.332-5.505 7.186-7.53 5.92-4.202 12.97-6.046 20.715-5.499q1.083-2.221 2.227-4.346c-5.32-.747-12.235-1.978-20.563-4.005-3.8-.925-7.321-1.977-10.62-3.188 1.158 6.719 1.594 13.508 1.191 20z"/><path fill="#AD5400" d="M555.345 263.818c-8.609 5.857-13.558 14.023-15.131 24.966l-9.831 81.684a20.5 20.5 0 0 1 2.329 5.419c.228.84.414 1.667.569 2.485 7.273 2.877 10.343 12.962 13.085 21.985 2.205 7.257 4.733 15.447 8.349 15.35 6.138-.229 16.501.324 24.321.846-3.528-4.518-6.059-9.828-7.644-15.339a30.2 30.2 0 0 1-3.868-5.57c-5.338-9.963-4.566-22-1.432-29.51.233-.56 1.237-2.288 1.465-2.631-4.351-4.773-7.877-10.271-10.028-16.425-3.784-12.52 2.433-25.865 9.643-35.67 2.051-2.819 4.243-5.496 6.493-8.085 1.893-2.124 3.197-4.839 4.226-7.822 1.286-3.417 1.579-6.702 3.291-10.149 1.128-2.187 3.952-3.092 6.042-1.515.12.074 2.185 1.76 2.371 1.917.976.798 1.942 1.61 2.909 2.421a9.8 9.8 0 0 1 1.81-1.958 10.05 10.05 0 0 1 8.147-2.082l94.461 17.163a14.15 14.15 0 0 1 5.467 2.236l22.606 15.389a595 595 0 0 0 13.956-6.353c3.455-1.612 7.079-3.394 10.52-5.049 7.128-2.455 7.211 8.687 8.183 12.994.842 4.831 1.555 9.332 3.647 13.477 3.432 6.574 6.051 13.781 6.367 21.272.201 8.848-1.566 18.196-7.669 24.662a39 39 0 0 1-2.573 2.539c-4.027 3.616-8.779 6.369-13.873 8.156a43 43 0 0 1-8.742 2.07 1.8 1.8 0 0 0-.575.181c-.079.038-.161.07-.232.122a6 6 0 0 0-.385.313 1.7 1.7 0 0 0-.362.462 2 2 0 0 0-.196.557l-.062.308a65 65 0 0 1-.728 3.321 71 71 0 0 1-3.154 9.473c2.09 1.684 4.295 3.786 6.555 6.235 19.113 13.977 69.529 49.04 103.257 56.018l31.324-106.463c3.47-10.938 2.738-20.481-2.219-29.236-13.307-23.51-57.536-43.501-139.191-62.912-91.829-21.829-148.582-24.201-173.498-7.252"/><path fill="#AD5400" d="M786.932 539.617c1.931-6.108 4.726-12.191 8.152-17.963-8.797-2.584-17.476-6.039-25.343-10.089-.885 15.972-4.119 33.421-11.734 50.169a635 635 0 0 1 18.157 7.814z"/><path fill="#AD5400" d="M342.998 469.833c2.9 4.91 5.385 9.73 7.469 14.457.088-8.02 1.344-16.318 3.605-24.242-7.724 2.618-12.309 3.632-14.765 4.022a101 101 0 0 1 3.691 5.763"/><path fill="#AD5400" d="m64.943 457.978.417-.093.427.019c29.725 1.35 75.406-25.711 97.724-40.291a76 76 0 0 1-2.002-2.061c-5.739-6.099-10.129-13.043-13.228-20.446a5.2 5.2 0 0 0-1.063-.538c-1.662.09-3.326.084-4.974-.021-11.446-.745-23.493-5.745-29.689-15.929-6.323-11.548-6.868-24.003-2.969-36.458 1.646-4.722 1.695-9.77 1.599-14.812.11-4.14-.733-8.564 1.264-12.603.632-1.145 1.991-2.231 3.378-2.438.797-.142 2.16-.399 2.972-.545 4.9-.912 10.978-1.842 15.902-2.453 12.759-1.587 25.575-2.369 38.419-2.491l.226.009c8.125-6.131 17.529-10.949 27.437-14.099a65 65 0 0 0-2.851-3.402c-.969-1.22.291-3.036 1.761-2.582 2.732.773 5.246 2.272 7.332 4.239a89 89 0 0 1 6.571-1.335c.04-.533.104-1.063.208-1.579.339-2.11 3.319-8.665 5.988-6.094.265.307.402.68.418 1.056.041 2.001-.04 3.892-.002 5.793a79 79 0 0 1 12.291-.092c.806-.663 1.879-1.075 2.79-1.565 2.885-1.339 6.059-2.464 9.121-3.277 13.698-3.675 28.118-4.121 42.197-3.655 3.371-.179 5.16 2.408 5.763 5.037 1.01 4.323 1.202 8.975 3.441 12.443 1.563 2.537 4.293 3.983 6.081 6.328 2.211 2.598 3.964 5.441 5.429 8.387 3.459 7.356 6.596 17.203 4.448 25.453 3.55 7.32 7.43 18.999 3.631 30.273-1.188 3.526-3.034 6.72-5.524 9.574-.667 3.817-1.787 7.555-3.481 11.126-1.854 3.962-4.411 7.52-7.45 10.612 10.278 1.862 35.774 6.306 43.881 6.094 4.815-.117 11.856-8.504 18.125-16.045.127-.904.371-1.714.743-2.436a6 6 0 0 1 1.032-1.428l-11.828-98.266c-1.563-10.871-6.512-19.037-15.121-24.894-10.911-7.423-27.93-11.14-51.325-11.14-30.026 0-70.558 6.123-122.173 18.393-81.655 19.411-125.884 39.401-139.192 62.91-4.956 8.756-5.688 18.299-2.238 29.172l32.884 111.763c2.683-13.211 10.095-15.364 11.21-15.613m163.509-186.427c2.487-.988 5.178-.389 7.474.678 1.835.845 4.079 2.403 2.557 4.661-.608.85-1.601 1.053-2.55.973-1.04-.041-2.309-.215-3.357-.266-.757-.05-2.023 0-2.736-.15l-.917-.211c-2.832-.621-3.121-4.628-.471-5.685"/><path fill="#F295FF" d="M383.942 382.065c-.331.738-.741 3.463-.288 5.716a23 23 0 0 1 2.905 2.826c-.408-3.648-.634-7.311-.74-10.753-.987.674-1.488 1.442-1.877 2.211"/><path fill="#FFB921" d="M373.527 382.36c-.056.386-.081.754-.12 1.13q1.891.2 3.662.739c.161-2.25.677-4.149 1.143-5.069 1.57-3.098 3.915-5.13 7.539-6.359q.015-1.405.047-2.686c-4.869 1.306-11.134 4.484-12.271 12.245"/><path fill="#FFB921" d="M392.451 364.668c-.188 3.392-.417 9.453-.166 16.17.214 5.721.725 10.78 1.514 15.096 4.196 1.54 28.993 9.681 53.431-2.774-.168-3.658-.233-7.833-.241-11.911-.863-7.983-2.072-16.461-2.641-20.325-1.417.554-3.119 1.047-5.055 1.531-5.4 1.349-12.427 2.402-19.788 2.964-3.727.286-7.494.429-11.121.429-3.551 0-6.967-.137-10.082-.411-2.355-.207-4.277-.457-5.851-.769"/><path fill="#FF7B00" d="M424.247 416.785c17.505-1.876 22.088-10.367 23.288-16.637-10.443 4.793-20.726 6.339-29.615 6.339-9.519 0-17.438-1.76-22.248-3.168.746 2.169 1.601 4.008 2.57 5.468 3.327 5.012 12.656 9.433 26.005 7.998"/><path fill="#AD5400" d="M398.321 358.991c5.007.467 12.36.66 20.694.023 2.361-.18 4.569-.405 6.626-.656-.1-.896-.022-1.715.026-2.191.047-.471.094-.966.092-1.487a76 76 0 0 0-6.951.214c-8.172.626-15.554 2.431-20.487 4.097"/><path fill="#AD5400" d="M114.855 568.275a445 445 0 0 1 39.542-15.517c-6.691-16.987-9.121-34.436-9.318-50.345-11.584 5.358-24.795 9.434-37.541 11.487-5.258.848-10.264 1.308-14.982 1.435 5.037 7.315 9.083 15.341 11.632 23.405z"/><path fill="#F295FF" d="m510.761 409.897-.02-.021-.007.011z"/><path fill="#F295FF" d="m502.061 418.657.023-.054-.073.044z"/><path fill="#F295FF" d="M849.118 477.328c-17.809-.216-44.208-11.072-78.49-32.277-21.258-13.148-39.188-26.449-44.789-30.683a81 81 0 0 1-1.182 2.124q-.607 1.053-1.248 2.084-.176.28-.394.519a3.42 3.42 0 0 1-2.066 1.106c-.044.006-.087.021-.132.025a3 3 0 0 1-.461.016 3 3 0 0 1-1.355-.382 3.21 3.21 0 0 1-1.155-4.505c3.63-5.829 6.388-12.174 8.07-18.787-3.206-1.268-12.614-5.308-17.965-10.963-1.991-1.646-3.77-3.531-5.247-5.631a1.915 1.915 0 0 1 2.846-2.531c2.87 2.511 5.937 4.634 9.273 6.135 13.244 6.129 30.445 2.784 40.321-8.002 2.37-2.651 4.165-5.7 4.891-8.992 1.87-7.427 1.697-14.748-.902-21.87-1.179-3.735-3.336-7.321-4.725-10.965-2.447-6.686-2.568-13.401-4.186-19.994-15.76 7.237-31.693 14.215-48.23 19.526-.192.05-.472.134-.807.24-.209.066-.441.141-.685.221a172 172 0 0 0-2.957 1.008 3.8 3.8 0 0 0-1.297.766 3.7 3.7 0 0 0-.886 1.215c-.439.98-.921 1.981-1.443 2.989-2.614 5.043-6.259 10.286-10.886 14.173a29.5 29.5 0 0 1-3.911 2.791q-.515.306-1.042.587-1.056.563-2.162 1.02c-1.107.457-2.252.83-3.435 1.107a21.4 21.4 0 0 1-4.933.57c-1.886 0-3.85-.242-5.896-.766-14.455-3.706-21.348-19.505-24.573-31.867-.844-.719-1.792-.493-2.596-.004-6.039 10.352-13.741 15.067-21.945 13.072-3.604-.876-6.855-2.785-9.692-5.631-1.324 0-2.775.603-3.764 1.116-3.735 3.377-7.069 7.381-9.876 12.137-1.737 2.928-3.491 5.835-4.62 9.066-.681 2.765-2.235 4.622-4.213 5.999l51.247 13.176c1.967.506 3.584 1.745 4.553 3.49 1.098 1.976 1.297 4.476.548 6.859-2.731 8.68-11.236 27.053-34.209 27.053-2.969 0-6.18-.308-9.651-.981-3.298-.641-6.194-1.539-8.77-2.599q-.262.017-.479.056c-.582.105-.939.324-1.158.561q-.082.09-.139.18a1.2 1.2 0 0 0-.116.237q-.023.056-.039.109l.001.001c7.666 11.739 22.364 15.643 35.64 16.61 2.11.052 2.39 3.09.338 3.531-11.131 2.012-22.846-1.193-31.92-7.858-6.5-.5-23.127-1.686-31.269-1.389-8.583.303-11.711-9.962-14.731-19.901-1.791-5.893-3.756-12.327-6.638-15.753a19.3 19.3 0 0 1-1.731 5.816c.367 2.927.29 5.824.127 8.246-.395 5.893-3.552 9.842-9.129 11.42-1.905.54-3.56.765-4.996.765-.34 0-.655-.025-.971-.049-2.644.287-9.936 1.484-14.228 6.149 16.828 4.513 29.571 23.646 35.052 44.988 4.124 1.797 8.652 3.261 13.757 4.504 1.054.256 2.079.497 3.086.727 4.162.255 16.109.511 24.294-4.07 7.442-11.084 13.977-19.362 14.05-19.454a3.213 3.213 0 0 1 5.037 3.988c-.08.1-8.042 10.188-16.333 22.951a133 133 0 0 0-6.685 11.463q1.09.254 2.193.566c9.018 2.559 17.91 7.959 23.993 14.121 6.781-5.548 15.528-8.499 24.83-8.269 13.869.242 27.036 6.003 37.393 14.961 7.006 6.406 13.138 13.544 18.157 21.617 1.127 1.953-1.4 3.91-3.001 2.375-7.899-7.386-14.824-15.91-23.499-22.362-19.59-14.297-50.934-15.386-59.122 11.692-1.995 7.795-2.993 15.816-3.622 23.896 13.789 2.867 39.535 6.941 58.831 6.058a9.7 9.7 0 0 1 3.525.49c.618-3.594 1.231-7.158 1.839-10.638.303-1.701.691-3.919 1.115-5.682.959-3.484 5.483-2.917 6.214-.081l3.5-.989c27.547 7.062 56.227 16.208 84.788 27.645 7.817-17.081 10.834-35.012 11.426-51.201a114 114 0 0 1-2.504-1.522l-.012-.009-.079-.049c-.085-.053-.151-.123-.229-.182-.055-.045-.113-.085-.165-.132a3.2 3.2 0 0 1-1.026-1.757q-.019-.071-.034-.141-.019-.137-.026-.275a3 3 0 0 1 .108-1.109c.013-.047.023-.094.039-.14.011-.033.015-.066.027-.098.035-.092.089-.167.131-.253.055-.116.106-.231.176-.342.071-.111.153-.208.234-.307.061-.075.105-.157.174-.229.023-.024.051-.042.076-.065.031-.031.065-.057.098-.086a3 3 0 0 1 .433-.325l.131-.076q.201-.11.416-.188.11-.045.226-.083c.069-.019.14-.03.21-.044a3.17 3.17 0 0 1 1.958.172c.071.029.139.067.208.1.084.043.173.071.254.122.701.441 1.427.858 2.142 1.286.63.376 1.248.764 1.888 1.13.723.414 1.467.804 2.202 1.205.639.347 1.267.707 1.913 1.044.758.395 1.532.766 2.299 1.146.643.319 1.277.65 1.926.959.776.369 1.565.712 2.348 1.066.655.296 1.304.605 1.964.89.813.352 1.635.676 2.454 1.012.641.262 1.278.539 1.922.791.888.348 1.782.668 2.675.997.582.214 1.161.443 1.745.649.992.351 1.987.672 2.982.998.487.159.973.334 1.461.488q2.224.702 4.443 1.32c13.498-19.517 34.123-33.89 52.634-30.072.15.026 1.355.252 3.174.817-1.383-6.85-4.405-8.985-5.349-9.495M619.807 362.709c-.041.065-.169.184-.35.328-.542.431-1.558 1.084-2.092 1.168a4 4 0 0 1-.599.047c-.71 0-1.422-.194-2.054-.565-.966-.567-1.632-1.509-1.784-2.52a2.85 2.85 0 0 1 .741-2.39c.756-.822 2.488-1.137 4.031-.437-.011-.132-.016-.268-.059-.376-.267-.684-1.211-.963-1.221-.966a1.76 1.76 0 0 1-1.238-2.136 1.744 1.744 0 0 1 2.105-1.259c.269.068 2.657.721 3.595 3.026.708 1.741.347 3.787-1.075 6.08m20.172 3.891a1.75 1.75 0 0 1-2.299 1.141c-2.681-1.013-6.072-2.086-6.895-2.086h-.018c-.958.129-1.814-.559-1.937-1.519-.122-.96.579-1.839 1.539-1.962 1.053-.131 3.264.466 5.374 1.16-1.036-.742-2.589-1.146-3.186-1.243a1.752 1.752 0 0 1 .556-3.46c.464.073 4.587.801 6.346 3.592.809 1.284.989 2.798.52 4.377m45.653 18.846c-2.326 9.373-16.94 22.886-27.059 20.526-2.645-.251-2.386-4.14.279-4.026-.02-.074.16-.138.261-.202l.373-.185c7.661-3.033 14.799-8.079 19.957-14.571.868-1.038 1.535-2.299 2.288-3.375 1.396-1.973 4.531-.478 3.901 1.833"/><path fill="#AD5400" d="M772.067 217.88c27.573 7.236 52.231 16.624 55.275 17.797a.13.13 0 0 0 .089-.09q.03-.118.07-.234l33.483-99.099c-.006-.05-.045-.104-.091-.116a3 3 0 0 1-.415-.137c-.257-.104-26.137-10.53-64.768-20.091-45.913-11.365-64.975-12.588-65.162-12.599-.525-.034-.949.114-1.135.227L712.689 203.71a3 3 0 0 1-.055.264.13.13 0 0 0 .058.139c2.253.421 24.869 4.712 59.375 13.767m-44.89-25.7 11.987-71.12q.022-.13.055-.259c.732-2.872 3.576-4.655 6.448-4.122 2.151.141 16.309 1.308 47.622 9.058 26.61 6.587 44.942 13.767 46.895 14.544a5.55 5.55 0 0 1 3.188 2.498 5.56 5.56 0 0 1 .612 4.241q-.017.07-.038.137l-21.124 69.822a5.55 5.55 0 0 1-2.545 3.348 5.56 5.56 0 0 1-4.328.588c-.212-.06-21.49-6.118-42.29-11.575-25.747-6.757-42.149-10.45-42.312-10.487-3.027-.77-4.831-3.733-4.17-6.673"/><path fill="#F295FF" d="M172.486 425.368a83 83 0 0 1-4.086-3.265c-7.377 4.864-17.568 11.278-28.982 17.588-30.66 16.952-55.29 25.236-73.27 24.657-1.438.697-7.61 4.764-6.902 22.719 10.32 3.892 20.33 11.909 28.518 21.895 18.819.573 43.622-5.6 63.26-16.809a3.214 3.214 0 0 1 4.382 1.198 3.21 3.21 0 0 1-1.197 4.382c-.475.271-.964.535-1.447.801-.131.654-.837 4.266-1.173 7.603.399 11.171 1.999 23.008 5.513 34.78 1.488 3.055 3.235 6.392 5.039 9.306 21.216-6.747 42.959-11.901 65.09-15.451-.238-3.668 5.224-4.855 6.306-.961 2.804 14.059 4.949 28.976 7.8 42.991 1.397 7.071 2.875 14.132 4.676 21.014 1.232 4.218 2.163 8.54 4.329 12.143 8.458-.369 16.94-1.051 25.371-1.879 6.134-.621 12.256-1.353 18.296-2.305-.97-2.091-2.344-4.376-3.454-6.295-1.059-1.905-2.329-5.561.873-6.089 3.601.028 8.149 6.72 9.334 11.202 3.812-.742 7.627-1.633 11.012-3.17.42-.201.809-.446 1.042-.617.149-2.848-1.628-6.137-2.955-8.835-3.289-6.655-8.369-12.738-10.402-20.119-.343-1.725-.411-4.175-.543-5.938-.467-8.949-.833-18.159-1.689-26.995-1.004-8.498-1.562-17.426-5.645-24.989-9.199-17.198-32.149-19.141-48.935-12.876-13.255 4.497-23.644 14.53-32.651 24.863a1.933 1.933 0 0 1-2.795.303 1.93 1.93 0 0 1-.484-2.285c1.676-3.528 3.782-6.571 6.148-9.519 11.969-14.902 30.997-23.695 50.133-23.227 6.918.072 14.025 1.89 20.21 5.292 4.496-4.326 11.36-8.038 19.458-10.34 14.786-4.201 29.025-2.593 39.066 4.421 2.717 1.897 4.987 4.299 6.883 7.018-2.422-7.82-6.134-15.989-11.149-24.481-7.711-13.058-20.428-25.843-20.555-25.97a3.213 3.213 0 0 1 0-4.543 3.21 3.21 0 0 1 4.542 0c.3.299 4.344 4.365 9.274 10.255 1.975.611 10.795 3.105 19.312 1.773 1.944-.633 4.14-1.387 6.611-2.287 5.62-14.701 14.785-27.18 26.3-32.748-7.999-.588-14.162-5.776-18.394-15.522-.978-2.252-1.752-4.257-2.34-6.058-6.477 7.576-12.741 13.828-19.233 13.987-9.096.219-36.557-4.621-46.218-6.384-2.657.948-9.561 2.827-12.126 3.517a44 44 0 0 1-6.698 2.204c-2.998.695-5.942 1.153-9.142 1.091a1.934 1.934 0 0 1-1.896-1.971c.017-.943.703-1.693 1.582-1.87 16.907-4.242 27.609-12.114 32.496-23.577h-.068c-2.671 1.572-5.659 2.969-8.981 4.175-4.428 1.607-8.816 2.406-13.097 2.406-7.093 0-13.894-2.194-20.101-6.545-8.92-6.251-14.549-15.397-17.112-20.293-1.168-2.231-1.415-4.748-.677-6.906.652-1.901 2.035-3.417 3.896-4.268l47.953-21.937c-2.505-.496-4.952-1.248-7.258-2.48-4.32-2.259-7.275-6.325-9.967-10.143-1.64-2.354-3.209-4.638-4.737-7.098a1.82 1.82 0 0 1 2.539-2.496c2.541 1.685 4.736 3.836 6.683 6.048 4.783 5.862 8.057 9.251 15.753 10.18 2.648.469 5.79.018 7.922 1.994.427.366 2.027 1.635 2.447 1.916-.495-5.041-2.408-10.299-4.328-14.419-1.274-2.583-2.791-5.034-4.58-7.145-2.075-2.484-5-4.216-6.583-7.096-1.951-3.176-2.755-6.661-3.286-9.808-.298-1.668-.51-3.67-.978-4.953l-.077-.002-4.568-.172c-10.489-.319-21.381.024-31.67 1.955a68 68 0 0 0-8.338 2.097c3.48.717 6.893 1.689 10.196 2.964 4.474 1.939 9.398 3.681 12.488 7.655 1.032 1.387-.28 3.36-1.945 2.966-4.534-.977-8.218-3.85-12.6-5.232a58 58 0 0 0-13.036-3.159c-17.824-1.765-36.962 2.664-52.648 12.163 1.9.43 3.141 1.184 2.721 2.502-.176.53-.606.898-1.113 1.02-4.208 1.12-8.417.76-12.629.928a357 357 0 0 0-12.629.561 309 309 0 0 0-37.562 4.589l-5.467 1.101c-.251.835-.315 1.884-.348 2.946-.078 6.142.708 13.215-.716 19.638-.339 1.481-.885 3.249-1.29 4.726-.616 2.418-1.138 4.936-1.452 7.38-.725 5.894-.123 11.686 2.034 17.294 1.242 3.574 2.936 6.929 5.796 9.513 8.456 7.887 21.605 10.332 32.655 7.439 7.67-1.958 14.22-6.508 19.114-12.803a1.916 1.916 0 0 1 3.249 1.989c-1.325 2.8-3.127 5.416-5.287 7.732a5 5 0 0 1-.482.964c-4.495 7.237-14.071 12.554-14.071 12.554s10.923 16.444 19.567 22.771c3.333 2.579-.326 7.612-3.827 5.161m79.282-94.554c.544-2.741 3.074-4.026 3.361-4.164a1.984 1.984 0 0 1 1.733 3.571 3 3 0 0 0-.184.111c1.283-.393 2.65-.283 3.565.411a3.62 3.62 0 0 1 1.458 2.82c.037 1.257-.557 2.535-1.588 3.418a4.82 4.82 0 0 1-3.02 1.169l-.09.001a4.08 4.08 0 0 1-2.92-1.22 7 7 0 0 1-.252-.251c-1.744-1.979-2.442-3.952-2.063-5.866m-18.898 6.937c.544-2.74 3.075-4.024 3.361-4.162a1.984 1.984 0 0 1 1.734 3.571 2 2 0 0 0-.187.112c1.283-.394 2.652-.285 3.567.41a3.62 3.62 0 0 1 1.458 2.818c.037 1.257-.556 2.535-1.587 3.419a4.8 4.8 0 0 1-3.021 1.17l-.09.001a4.08 4.08 0 0 1-2.92-1.22 7 7 0 0 1-.253-.252c-1.743-1.98-2.441-3.953-2.062-5.867m-23.587-18.407c1.861-1.921 8.268-5.473 9.272-1.221.192 1.028-.349 1.884-1.064 2.514-.75.721-1.755 1.516-2.518 2.236-.56.512-1.4 1.46-2.003 1.87l-.787.516a2.99 2.99 0 0 1-4.144-.861c-1.183-1.735.026-3.803 1.244-5.054m.651 64.726c3.024 3.975 7.259 7.163 11.952 8.895 3.401 1.253 7.259 1.607 10.93 1.255 1.243-.107 2.62-.284 3.851-.173 2.088-.034 3.17 2.34 1.54 3.731-5.042 3.608-13.056 3.458-18.678 1.169-5.905-2.513-10.938-6.983-13.574-12.88-1.011-2.582 2.497-4.307 3.979-1.997"/><path fill="#FF7B00" d="M401.172 319.855c1.551.692 3.458.719 4.979.068 1.529-.652 2.474-4.303 1.384-7.287-.687-1.879-1.892-2.81-3.658-2.81q-.952 0-2.124.36c-1.306.399-3.04 1.472-3.761 2.882-.456.892-.482 1.857-.081 3.037.611 1.795 1.708 3.057 3.261 3.75"/><path fill="#4C4C4C" d="M398.555 325.722a12.8 12.8 0 0 0 5.208 1.093c1.69 0 3.374-.327 4.911-.983 5.365-2.289 6.886-9.954 4.895-15.401-2.114-5.784-7.492-8.291-13.698-6.388-2.568.787-5.912 2.802-7.598 6.099-1.248 2.439-1.402 5.217-.444 8.032 1.175 3.456 3.564 6.137 6.726 7.548m-.563-12.654c.721-1.41 2.455-2.483 3.761-2.882q1.172-.36 2.124-.36c1.766 0 2.971.931 3.658 2.81 1.091 2.984.145 6.635-1.384 7.287-1.52.651-3.428.624-4.979-.068-1.553-.693-2.65-1.955-3.261-3.75-.401-1.18-.375-2.145.081-3.037"/><path fill="#FFB921" d="M526.512 377.571c-2.056-7.568-8.655-9.976-13.646-10.691q.185 1.267.368 2.662c3.745.787 6.317 2.524 8.245 5.414.459.687 1.023 1.996 1.452 3.625a14 14 0 0 1 4.334 3.057 24 24 0 0 0-.753-4.067"/><path fill="#FFB921" d="M507.707 378.301c-.554-6.699-1.505-12.688-2.097-16.034-1.525.499-3.404.976-5.717 1.463-6.184 1.302-13.661 2.195-21.053 2.515-2.269.099-4.513.148-6.692.148-4.905 0-9.485-.247-13.308-.727-1.981-.249-3.729-.536-5.202-.917-.159 5.982-.514 22.907.255 32.064 26.027 9.929 50.083-1.288 54.114-3.343.268-4.378.171-9.463-.3-15.169"/><path fill="#FF7B00" d="M505.131 406.762c.787-1.565 1.417-3.493 1.899-5.735-5.987 2.562-17.115 6.344-30.649 6.344-6.607 0-13.787-.905-21.22-3.29 1.915 5.994 7.352 13.734 24.364 13.734q.367 0 .743-.005c13.423-.174 22.159-5.674 24.863-11.048"/><path fill="#AD5400" d="M478.561 359.827c8.35-.362 15.629-1.433 20.545-2.495-5.097-1.064-12.642-1.975-20.831-1.62-4.369.19-8.213.719-11.478 1.39.192.365.411.713.63 1.058.291.457.663 1.059.909 1.754 3.016.088 6.439.078 10.225-.087"/><path fill="#FF7B00" d="M438.977 354.26c2.061-2.907 1.543-8.461-1.232-13.206-3.156-5.396-8.27-8.285-13.67-7.714-2.443.256-4.377 1.411-4.704 2.81-.362 1.547 1.213 3.646 4.11 5.477 9.107 5.758 8.911 11.692 8.616 14.797 2.512.284 5.346-.001 6.88-2.164"/><path fill="#FF7B00" d="M462.999 343.85c-.839-1.184-2.681-1.951-4.396-1.951-.461 0-.911.056-1.332.173-5.31 1.478-6.445 5.628-5.737 9.019.765 3.665 3.846 7.246 8.995 7.744-1.043-2.641-1.472-6.55 1.999-11.529 1.448-2.077.738-3.079.471-3.456"/><path fill="#F295FF" d="M367.34 390.2c-.177.666-.378 3.268 3.109 11.297 3.041 7.005 7.632 13.663 18.497 11.168-.797-4.884-3.227-15.38-9.821-20.28-3.266-2.426-7.122-3.142-11.785-2.185"/><path fill="#F295FF" d="M518.165 383.746c-2.917 7.726-5.465 18.658-2.746 21.737 1.108 1.255 3.7.849 5.679.29 2.96-.838 4.255-2.48 4.468-5.669.287-4.281.322-10.366-2.673-13.762-1.155-1.309-2.713-2.167-4.728-2.596"/><path fill="#F295FF" d="M590.733 294.237a331 331 0 0 0-5.072-4.112c-.23.779-.442 1.608-.623 2.275-1.403 5.269-2.996 10.497-6.791 14.892-6.224 7.219-12.323 15.488-14.698 24.62-1.565 5.887-1.408 12.081 1.689 17.416a50.6 50.6 0 0 0 7.811 10.765c1.489-.59 3.051-1.292 4.055-1.993.534-.379.809-.672 1.014-1.021.638-1.128 1.102-3.369 1.833-4.756a81 81 0 0 1 4.027-7.499c3.881-6.652 8.684-12.015 14.145-16.327a44 44 0 0 1-2.991-6.346c-3.014-7.925-4.56-17.811-4.399-27.914"/><path fill="#DB00F8" d="M594.086 406.38c24.337 4.73 33.319-11.563 36.506-21.693.259-.822.152-1.475-.036-1.811-.084-.152-.207-.303-.537-.388l-56.596-14.552a1.2 1.2 0 0 0-.308-.039c-.472 0-.913.273-1.095.709-2.548 6.109-3.176 15.9 1.166 24.004 3.853 7.191 10.885 11.825 20.9 13.77m7.097-16.425c.987-3.559 1.767-6.37 3.794-7.457.858-.458 1.826-.535 2.798-.219 3.937 1.287 2.742 5.564 1.688 9.338l-.165.59q-.171.62-.326 1.206c-.798 2.992-1.774 6.646-4.99 6.646q-.504.001-1.084-.125a3.2 3.2 0 0 1-2.103-1.514c-.954-1.582-.842-4.035.388-8.465m-18.307-5.078c1.113-4.012 2.373-8.56 6.377-7.734.987.204 1.775.749 2.279 1.575 1.147 1.877.53 4.549-.541 8.41-1.224 4.41-2.38 6.564-3.993 7.435a3.3 3.3 0 0 1-1.571.406 3.3 3.3 0 0 1-1.018-.162c-3.937-1.266-2.548-6.274-1.533-9.93"/><path fill="#4C4C4C" d="M620.882 356.629c-.938-2.305-3.326-2.958-3.595-3.026a1.744 1.744 0 0 0-2.105 1.259 1.76 1.76 0 0 0 1.238 2.136c.009.003.954.282 1.221.966.043.108.048.244.059.376-1.543-.7-3.275-.385-4.032.437a2.85 2.85 0 0 0-.74 2.39c.151 1.011.818 1.953 1.783 2.52a4.1 4.1 0 0 0 2.055.565q.301 0 .599-.047c.534-.084 1.549-.737 2.092-1.168.181-.144.309-.263.349-.328 1.422-2.293 1.783-4.339 1.076-6.08"/><path fill="#4C4C4C" d="M633.112 358.631a1.75 1.75 0 0 0-2.002 1.45 1.753 1.753 0 0 0 1.447 2.009c.597.098 2.149.501 3.186 1.244-2.11-.694-4.321-1.292-5.374-1.16-.96.123-1.662 1.002-1.539 1.962.122.959.978 1.648 1.937 1.519h.018c.823 0 4.214 1.073 6.895 2.086a1.74 1.74 0 0 0 1.398-.07c.437-.215.763-.604.901-1.071.469-1.579.289-3.093-.52-4.377-1.759-2.791-5.882-3.519-6.347-3.592"/><path fill="#4C4C4C" d="M584.409 394.807q.51.163 1.019.162c.538 0 1.069-.135 1.57-.407 1.613-.87 2.77-3.024 3.993-7.434 1.072-3.861 1.688-6.533.542-8.41-.505-.826-1.293-1.371-2.279-1.575-4.005-.827-5.265 3.722-6.377 7.734-1.015 3.656-2.405 8.664 1.532 9.93"/><path fill="#4C4C4C" d="M602.899 399.934q.58.126 1.084.125c3.216 0 4.191-3.654 4.989-6.646q.156-.587.326-1.206l.165-.59c1.054-3.774 2.249-8.051-1.688-9.338-.972-.316-1.939-.239-2.798.219-2.026 1.087-2.807 3.898-3.794 7.457-1.229 4.43-1.341 6.883-.387 8.465a3.2 3.2 0 0 0 2.103 1.514"/><path fill="#4C4C4C" d="M681.731 383.613c-.753 1.076-1.42 2.337-2.288 3.375-5.158 6.492-12.296 11.538-19.957 14.571l-.373.185c-.101.064-.281.127-.261.202-2.665-.114-2.924 3.774-.279 4.026 10.119 2.359 24.733-11.153 27.059-20.526.63-2.311-2.505-3.807-3.901-1.833"/><path fill="#FF7B00" d="M614.055 334.16c9.954 2.408 16.694-12.642 19.132-19.228a4.196 4.196 0 0 1 4.387-2.709 4.19 4.19 0 0 1 3.716 3.559c1.431 9.858 6.434 33.217 21.957 37.196 18.835 4.838 28.088-23.603 28.179-23.891a3.22 3.22 0 0 1 3.669-2.187l6.656 1.279c1.443-.494 2.896-.966 4.315-1.535a330 330 0 0 0 11.923-4.719l-19.215-13.081a7.8 7.8 0 0 0-3.001-1.225l-94.46-17.162a3.62 3.62 0 0 0-2.943.742c-.759.618-1.19 1.48-1.213 2.427-.441 17.995 5.221 37.696 16.898 40.534m33.54-28.767a1.2 1.2 0 0 1 1.017-.278l40.712 7.538a1.21 1.21 0 0 1 .963 1.457c-.318 1.418-7.601 33.123-22.899 33.123q-1.196.002-2.456-.266c-11.104-2.387-16.917-22.114-17.752-40.605-.017-.37.136-.727.415-.969m-45.259-7.981a1.214 1.214 0 0 1 1.448-1.044l27.134 5.562c.648.133 1.07.761.949 1.412-.154.817-3.845 20.079-11.509 25.072-1.267.825-2.581 1.239-3.924 1.239q-.777 0-1.565-.184c-7.346-1.724-15.037-11.153-12.533-32.057"/><path fill="#423E3E" d="M610.135 322.664c1.731 1.375 1.163-8.276 6.845-8.04 4.494.187 7.028-8.017 7.892-11.457l-5.883-1.206c-.823 2.231-3.309 7.929-6.782 6.476-3.926-1.642-6.533 4.4-6.951 5.448.246 1.138.545 2.232.896 3.273.73 1.753 1.964 3.903 3.983 5.506"/><path fill="#423E3E" d="M667.058 327.643c6.063.252 9.1-12.471 9.618-14.866l-4.49-.831-2.411-.235s-3.281 10.76-8.339 8.644c-5.059-2.115-8.259 6.601-8.259 6.601s1.051 6.372 5.818 10.158c2.039 1.619 1.371-9.749 8.063-9.471"/><path fill="#4C4C4C" d="M614.869 329.469a6.8 6.8 0 0 0 1.565.184c1.342 0 2.657-.414 3.924-1.239 7.663-4.993 11.355-24.255 11.508-25.072a1.213 1.213 0 0 0-.948-1.412l-27.135-5.563a1.214 1.214 0 0 0-1.447 1.045c-2.504 20.904 5.187 30.333 12.533 32.057m-9.613-15.584c.418-1.048 3.024-7.09 6.951-5.448 3.473 1.453 5.959-4.245 6.782-6.476l5.883 1.206c-.865 3.44-3.399 11.644-7.892 11.457-5.682-.236-5.114 9.415-6.845 8.04-2.019-1.604-3.253-3.754-3.983-5.506a30 30 0 0 1-.896-3.273"/><path fill="#4C4C4C" d="M664.932 346.966c.841.181 1.658.267 2.456.267 15.298 0 22.581-31.705 22.898-33.123a1.21 1.21 0 0 0-.962-1.457l-40.712-7.538a1.2 1.2 0 0 0-1.017.278 1.2 1.2 0 0 0-.415.968c.835 18.492 6.648 38.219 17.752 40.605m-11.755-20.01s3.2-8.716 8.258-6.601c5.059 2.116 8.34-8.644 8.34-8.644l2.411.235 4.49.831c-.518 2.395-3.555 15.117-9.618 14.866-6.692-.278-6.024 11.09-8.063 9.471-4.767-3.786-5.818-10.158-5.818-10.158"/><path fill="#AD5400" d="M156.944 651.33c48.533-15.141 117.079-31.929 197.396-38.658l-.361-11.864c-4.308.81-9.545 1.607-15.934 2.383-6.724.816-13.593 1.465-19.625 1.95-2.392 2.801-6.056 3.672-9.204 4.703-10.799 2.907-21.809 4.057-32.804 5.237-8.931.86-17.907 1.6-26.886 1.923-6.442.294-8.733-12.819-10.189-17.453-3.556-14.24-5.956-28.559-8.403-42.964-.739-4.286-1.655-10.273-2.561-15.491-38.556 6.174-75.916 17.309-111.331 33.236l28.777 79.685c3.705-.911 7.415-1.801 11.125-2.687"/><path fill="#AD5400" d="m98.124 540.861-.042-.125c-7.741-24.561-31.216-49.807-52.035-49.807-1.66 0-3.302.16-4.919.494-.21.039-13.214 2.532-19.185 13.309-4.443 8.02-4.059 18.733 1.144 31.842l47.922 122.638c2.707 6.858 10.776 17.071 34.345 8.305 11.37-4.23 27.569-9.244 34.419-11.327z"/><path fill="#DB00F8" d="M301.895 334.657c-.18 0-.363.038-.536.117l-53.847 24.633c-.266.122-.407.269-.489.508-.129.377-.12 1.06.291 1.845 14.597 27.889 34.532 24.238 42.425 21.371 10.46-3.797 17.045-9.525 19.573-17.027 4.422-13.125-4.54-28.04-6.381-30.897a1.23 1.23 0 0 0-1.036-.55m-20.015 37.16a3.25 3.25 0 0 1-1.827 1.886c-.635.263-1.216.381-1.748.381-2.758 0-4.242-3.169-5.474-5.798q-.26-.558-.542-1.146l-.271-.561c-1.726-3.574-3.681-7.627.015-9.613.913-.491 1.892-.588 2.83-.282 2.216.722 3.497 3.386 5.117 6.759 2.018 4.2 2.569 6.626 1.9 8.374m15.699-6.534a3.3 3.3 0 0 1-2.626.219c-1.765-.579-3.304-2.521-5.313-6.701-1.759-3.66-2.852-6.214-2.044-8.292.356-.914 1.044-1.598 1.992-1.977 3.848-1.537 5.916 2.771 7.743 6.572 1.666 3.466 3.948 8.213.248 10.179"/><path fill="#4C4C4C" d="M254.083 336.931a4.08 4.08 0 0 0 2.92 1.22l.09-.001a4.82 4.82 0 0 0 3.021-1.169c1.031-.883 1.624-2.161 1.587-3.418a3.61 3.61 0 0 0-1.458-2.82c-.915-.694-2.282-.804-3.565-.411.102-.066.173-.105.185-.111a1.985 1.985 0 0 0-1.734-3.571c-.287.138-2.817 1.423-3.361 4.164-.379 1.914.319 3.887 2.064 5.866.017.021.195.201.251.251"/><path fill="#4C4C4C" d="M235.185 343.87a4.08 4.08 0 0 0 2.92 1.22l.09-.001a4.82 4.82 0 0 0 3.021-1.17c1.031-.884 1.624-2.161 1.587-3.419a3.62 3.62 0 0 0-1.459-2.818c-.915-.695-2.283-.804-3.566-.41.103-.067.174-.106.186-.112a1.984 1.984 0 0 0-1.733-3.571c-.287.138-2.817 1.422-3.361 4.162-.379 1.914.318 3.887 2.062 5.867.018.021.196.202.253.252"/><path fill="#4C4C4C" d="M289.588 348.532c-.947.38-1.636 1.063-1.992 1.978-.807 2.077.285 4.631 2.044 8.291 2.009 4.18 3.548 6.122 5.313 6.701q.537.177 1.07.176c.535 0 1.061-.132 1.556-.395 3.7-1.966 1.418-6.713-.248-10.179-1.827-3.801-3.894-8.109-7.743-6.572"/><path fill="#4C4C4C" d="M274.863 356.684c-.938-.306-1.917-.209-2.83.282-3.696 1.987-1.74 6.039-.015 9.613l.271.561q.282.588.542 1.146c1.232 2.629 2.717 5.798 5.474 5.798.533 0 1.113-.118 1.748-.381a3.25 3.25 0 0 0 1.828-1.886c.668-1.748.118-4.174-1.901-8.374-1.62-3.373-2.901-6.037-5.117-6.759"/><path fill="#4C4C4C" d="M219.529 398.946c5.622 2.29 13.636 2.44 18.678-1.168 1.63-1.391.548-3.765-1.54-3.731-1.231-.111-2.609.066-3.852.173-3.671.352-7.528-.002-10.929-1.255-4.693-1.732-8.928-4.92-11.952-8.895-1.482-2.31-4.991-.585-3.979 1.997 2.636 5.897 7.669 10.366 13.574 12.879"/><path fill="#4C4C4C" d="m212.183 325.259.787-.516c.603-.41 1.443-1.359 2.004-1.87.762-.72 1.767-1.515 2.517-2.237.715-.629 1.256-1.486 1.064-2.513-1.004-4.252-7.411-.701-9.271 1.22-1.218 1.252-2.427 3.32-1.245 5.054a2.99 2.99 0 0 0 4.144.862"/><path fill="#4C4C4C" d="m228.922 277.237.918.21c.713.15 1.979.1 2.736.15 1.048.051 2.317.225 3.357.266.949.08 1.942-.123 2.55-.973 1.522-2.257-.722-3.816-2.558-4.661-2.295-1.067-4.986-1.666-7.473-.678-2.65 1.057-2.361 5.064.47 5.686"/><path fill="#AD5400" d="M396.985 610.84c10.793-.129 28.92-2.913 29.057-20.118l-.543-131.851c.138-14.147-3.357-24.28-10.388-30.164-5.903-4.941-13.206-5.876-17.886-5.876-2.81 0-4.674.337-4.723.346-22.137 3.671-37.221 38.765-35.478 66.515l.004.103 1.842 60.524c.219 2.532.481 5.022.785 7.274.326 2.414 3.11 7.148 5.803 11.726 4.705 8 9.57 16.271 8.189 22.324-.586 2.569-2.974 5.231-13.283 7.791l.402 13.223c7.123-.521 24.072-1.673 36.219-1.817"/><path fill="#F295FF" d="M358.571 593.27c6.67-1.608 8.438-2.887 8.859-3.302.555-3.68-4.094-11.585-7.51-17.392-3.291-5.595-6.133-10.428-6.632-14.123-.993-7.364-1.563-17.165-1.613-23.043-.23-27.301-9.602-36.775-13.621-39.581-8.327-5.815-20.901-7.127-33.631-3.508-6.356 1.807-11.96 4.668-15.704 7.836 3.574 2.855 6.618 6.351 8.798 10.476 2.901 5 4.258 11.103 5.167 16.605 1.771 10.883 2.365 21.94 2.965 32.861.097 1.775.345 6.341.481 8.05.101 1.492.225 2.711.906 4.17 2.609 6.586 11.589 17.652 12.745 26.264a490 490 0 0 0 15.704-1.558c6.68-.778 11.972-1.567 16.167-2.322-1.088-1.878-2.38-3.945-3.353-5.565a11 11 0 0 1-.735-1.592c-.748-1.774-.811-4.115 1.592-4.487 3.051.2 4.813 3.038 6.542 5.176 1.079 1.542 2.181 3.219 2.873 5.035"/><path fill="#AD5400" d="m661.122 559.449-10.983 55.633c.34.568.488 1.227.374 1.997l-1.73 11.52a3.15 3.15 0 0 1-.816 1.692q5.895 1.232 11.621 2.506l87.444 17.725 26.95-74.91c-37.067-16.677-74.924-29.295-110.749-38.348-1.008 5.558-1.949 11.23-2.882 16.921a9.56 9.56 0 0 1 .815 4.977q-.015.145-.044.287"/><path fill="#AD5400" d="m793.04 541.61-.041.122-41.654 115.781c6.848 2.083 23.05 7.098 34.422 11.328 6.495 2.417 11.816 3.391 16.169 3.391 11.443.002 16.216-6.73 18.181-11.706l47.91-123.059c5.211-13.128 5.595-23.84 1.152-31.861-5.971-10.776-18.975-13.269-19.106-13.293-21.973-4.54-48.674 22.778-57.033 49.297"/><path fill="#AD5400" d="M498.7 424.517c-.08-.015-1.974-.357-4.81-.357-4.7 0-11.986.94-17.879 5.871-7.032 5.885-10.527 16.018-10.389 30.121l-.543 134.634c.059 7.346 3.912 19.779 29.057 20.079 12.146.144 29.092 1.297 36.217 1.817l.056-1.881c-5.588-1.14-11.147-2.423-16.672-3.729l-6.674-1.705a3.187 3.187 0 0 1-2.367-3.524c-.006-.022 1.751-12.554 1.747-12.579a3.21 3.21 0 0 1 2.902-2.754c5.061-13.052 15.232-19.46 19.702-21.735l-1.24-25.564a3 3 0 0 1-.002-.272 9.36 9.36 0 0 1 3.126-6.655 25 25 0 0 1-.057-1.727c.052-4.978.505-13.375 2.578-21.923l.641-21.512.004-.106c1.743-27.75-13.341-62.843-35.397-66.499"/><path fill="#F295FF" d="M539.347 534.142c1.894.453 4.123 1.016 6.575 1.637 10.554 2.67 26.485 6.701 36.172 6.701.034 0 .073-.003.102-.001.56 0 1.078.156 1.537.408a9.3 9.3 0 0 1 1.601-.653c.403-4.759.907-9.513 1.609-14.236.806-5.17 1.802-10.649 3.898-15.613a35.8 35.8 0 0 1 5.648-9.252c-5.001-5.053-12.665-10.066-21.139-12.472-6.475-1.836-15.907-2.812-24.069 2.981-4.071 2.888-13.516 12.58-13.967 40.245a9.4 9.4 0 0 1 2.033.255"/><path fill="#FF7B00" d="M533.515 573.782c-.615.241-12.231 4.958-17.796 18.134 7.063 1.751 16.478 4.102 21.292 5.224 2.038.645 11.241 1.662 9.29 5.284a1.77 1.77 0 0 1-1.03.748c-3.263.865-6.298.099-9.363-.318-7.97-1.255-15.844-2.875-23.612-5.035l-.838 6.044c7.739 1.971 15.991 3.891 23.68 5.308 6.503 1.185 13.091 2.289 19.689 2.854.516-3.712 1.249-8.976 1.249-8.989a3.206 3.206 0 0 1 3.618-2.736c-.001-.004.641.109 1.717.302 4.553-13.323 13.983-19.769 18.18-22.067l-.865-27.351q-.003-.064-.002-.129a9.4 9.4 0 0 1 .305-2.26c-10.325-.632-24.241-4.146-34.683-6.788a526 526 0 0 0-6.492-1.616 2.9 2.9 0 0 0-2.459.517 2.96 2.96 0 0 0-1.163 2.152l1.337 27.568a3.21 3.21 0 0 1-2.054 3.154"/><path fill="#FF7B00" d="M651.36 554.988c-21.043.964-49.318-3.737-62.71-6.669a2.83 2.83 0 0 0-2.419.561 2.84 2.84 0 0 0-1.082 2.175l.929 29.341a3.21 3.21 0 0 1-1.998 3.076c-.558.233-11.232 4.861-16.241 18.286 8.706 1.57 21.272 3.844 21.295 3.84 9.761 1.953 19.631 3.016 29.283 5.539a1.783 1.783 0 0 1-.471 3.499c-5.034.025-9.978-.645-14.921-1.287-13.73-1.774-27.406-3.789-41.05-6.155l-.89 6.416c6.187 1.517 12.445 2.825 18.744 3.975 20.815 3.623 41.958 5.874 63.047 7.153l.852-5.676c-3.124-.629-6.455-1.139-9.582-2.008-2.285-.644-2.156-3.964.105-4.48 1.83-.51 6.154-.824 9.889-.276l10.647-53.926a3.08 3.08 0 0 0-.845-2.357 3.28 3.28 0 0 0-2.582-1.027"/><path fill="#FFB46D" d="M752.579 131.811c1.145-.219 2.362.027 3.473.184 6.063 1.139 12.399 3.26 16.8 7.778.454-.172.912-.335 1.371-.481 4.237-1.328 8.667-1.889 13.083-2.095 2.107-.096 2.459 1.938 2.073 3.411l-.287 1.368c-.714 2.655-.102 5.22-.319 7.887-.264 3.91-.84 7.833-3.185 11.214-.331.63-1.397 1.557-2.618 2.278.544.375 1.119.707 1.694.994l2.187.618q.055.016.111.036c1.115.4 1.767 1.537 1.623 2.827-.038.35-.142.838-.292 1.418l4.986-.493c.039-.004.075.001.113 0 .033-4.686 4.287-10.287 7.606-12.654.956-.759 2.192-1.071 3.09-1.913 1.227-1.14 1.781-2.988 2.636-4.627.299-.649 1.277-1.746 2.331-1.697.17-.036.472.045.594.056 2.643.602 5.285 1.213 7.879 2.062 4.417 1.462 8.896 3.241 12.571 6.207.303.306.645.521.89.808 1.029.188 2.047.432 3.051.721l3.501-11.574c-2.836-1.116-20.475-7.902-45.795-14.17-27.233-6.74-41.38-8.418-45.429-8.795.541.923 1.1 1.835 1.69 2.723 1.391 2.069 2.904 4.06 4.572 5.909"/><path fill="#F295FF" d="M790.088 189.2a19 19 0 0 1-.084-3.683 12.1 12.1 0 0 1-1.263-4.525c-.248-3.273.847-6.266 2.251-8.694l-3.762.372c-.776 2.238-1.753 4.688-2.582 6.355q-.33.664-.648 1.324c-2.106 4.339-4.444 9.153-10.278 9.153-1.125 0-2.389-.192-3.797-.588-3.706 1.454-7.758 2.17-11.709 1.783-.043 1.333-.307 2.676-.593 3.967a23.7 23.7 0 0 0-.112 3.895 1753 1753 0 0 1 17.778 4.566l1.212.319c.735-4.712 8.709-10.875 13.587-14.244"/><path fill="#F295FF" d="M822.664 159.696c-1.873.119-3.496.915-5.44.683-.811-.083-1.162-1.179-.561-1.719 1.532-1.393 3.686-1.544 5.634-1.898 1.219-.175 2.449-.233 3.68-.228-5.034-2.907-10.876-4.321-16.54-5.555-.837 1.639-1.56 3.905-3.2 5.439-.95 1.012-2.323 1.438-3.437 2.233-2.331 1.772-4.402 4.352-5.513 7.162l.051-.006a6 6 0 0 1 .504-.357c1.603-.776 3.616.242 5.189.05 2.306-.018 3.734-1.178 5.66-2.481.971-.523 3.968-2.796 4.586-1.07a.95.95 0 0 1-.229.936c-2.686 2.65-5.783 5.95-9.919 5.91-.078.001-.164-.001-.245-.001l16.512 13.312a3.34 3.34 0 0 1 1.252 2.349c.084 1.035-.305 2.114-1.065 2.962-1.956 2.178-7.563 7.619-14.677 7.62-2.713 0-5.644-.791-8.676-2.855a24 24 0 0 1-2.616-2.07c.195.928.48 1.84.89 2.72 1.751 4.026 5.586 6.883 9.47 9.229 1.031.51.487 2.111-.643 1.872-5.187-1.212-9.491-4.947-11.812-9.731a16 16 0 0 1-.621-1.53 72 72 0 0 0-4.647 3.593l-6.177 6.668c-.318.602-.43 1.051-.32 1.298l-.102.046a2483 2483 0 0 1 37.209 10.22l16.241-53.679c-3.375-1.057-6.885-1.541-10.438-1.122m-4.498 14.426a1.9 1.9 0 0 1-.659.789 2.14 2.14 0 0 1-1.791.297 2.4 2.4 0 0 1-1.33-.946c-.397-.563-.528-1.273-.349-1.896a1.94 1.94 0 0 1 1.116-1.257 1.8 1.8 0 0 1 .913-.107 1.2 1.2 0 0 1 .111-.552 1.225 1.225 0 0 1 1.626-.582c.66.309 1.458 1.024 1.533 2.022.062.81-.333 1.559-1.17 2.232m8.126 2.54c.061.81-.333 1.559-1.171 2.232a1.9 1.9 0 0 1-.66.79 2.1 2.1 0 0 1-1.203.377q-.294 0-.586-.08a2.43 2.43 0 0 1-1.33-.945c-.398-.565-.528-1.276-.349-1.899a1.94 1.94 0 0 1 1.115-1.255 1.8 1.8 0 0 1 .913-.107 1.2 1.2 0 0 1 .111-.553 1.225 1.225 0 0 1 1.626-.582c.66.309 1.458 1.024 1.534 2.022"/><path fill="#F295FF" d="M755.458 191.684c.196-.273.552-.798.961-1.236a19.4 19.4 0 0 1-3.234-.896c-1.276-.515-2.565-1.143-3.464-2.222-.536-.569.035-1.554.787-1.386.87.126 1.615.526 2.418.807 3.679 1.476 7.807 1.347 11.682.409-7.105-3.151-11.416-8.786-13.696-12.707a1.5 1.5 0 0 1-.423.168c-1.592.314-3.32-1.646-3.859-4.379s2.816-6.795 4.6-6.349c1.502.376-.229 1.51.215 4.46.214.18.389.413.491.695.048.133 3.728 9.973 13.165 14.681-.741-3.926.809-8.946 1.569-11.4.165-.533.335-1.094.509-1.667.993-3.273 2.02-6.659 3.097-8.41.638-1.04 1.778-1.502 2.851-1.157l4.359 1.229a7.4 7.4 0 0 1-.76-2.765c-.358-2.179-.828-4.53-1.026-6.74-.122-1.154 1.507-1.634 2.032-.612 1.338 2.436 1.963 5.08 2.513 7.768.111.4.291.77.501 1.125 3.643-1.757 4.577-7.739 4.864-11.418.203-2.761-.304-5.692.483-8.36.034-.189.142-.638.233-1.052a59 59 0 0 0-3.568.217c-2.744.25-5.49.632-8.129 1.402.856 1.262 1.987 3.47.204 3.978-.418.074-.769-.126-1.062-.381-1.537-1.243-2.644-2.997-4.247-4.202a24 24 0 0 0-5.11-3.292c-3.245-1.462-6.962-2.614-10.569-3.082a1 1 0 0 1-.726.349c-.644.033-.987-.234-1.289-.542a1.5 1.5 0 0 1-.54-.451 1.5 1.5 0 0 1-.146-.255 45 45 0 0 1-2.113-2.319c-1.522-1.794-2.904-3.698-4.188-5.668l-3.885 23.048c.117-.17.232-.341.341-.523.758-.99 3.378-6.08 5.016-3.977.23.428.115.95-.249 1.246-1.125.935-1.671 2.744-2.462 4.112-.762 1.652-1.995 3.09-3.493 4.168l-6.519 38.678c2.253.515 9.509 2.194 20.472 4.921.013-2.029.244-4.265 1.394-6.013m8.242-37.412c.816-3.517 2.615-4.065 2.966-4.139a1.238 1.238 0 0 1 .613 2.397c-.037.02-.154.096-.309.283.171.139.323.302.442.495.272.447.355.974.232 1.482a1.965 1.965 0 0 1-1.905 1.499q-.228 0-.458-.056a1.95 1.95 0 0 1-1.036-.65 1.23 1.23 0 0 1-.545-1.311m-6.39-3.202c1.062-3.251 2.834-3.773 3.178-3.844l.504 2.424s.032-.002.087-.023c-.006.002-.351.152-.761.785a1.955 1.955 0 0 1 1.226 2.287 1.964 1.964 0 0 1-2.363 1.444 1.94 1.94 0 0 1-1.213-.883 1.95 1.95 0 0 1-.272-.859 1.23 1.23 0 0 1-.386-1.331"/><path fill="#4C4C4C" d="M764.245 155.583a1.95 1.95 0 0 0 1.494.705c.883 0 1.688-.603 1.904-1.498a1.95 1.95 0 0 0-.232-1.482 2 2 0 0 0-.441-.495c.154-.187.272-.263.308-.283a1.24 1.24 0 0 0 .855-1.441 1.236 1.236 0 0 0-1.467-.956c-.352.073-2.15.622-2.966 4.139a1.23 1.23 0 0 0 .545 1.311"/><path fill="#4C4C4C" d="M757.968 153.261a1.94 1.94 0 0 0 1.671.937c.884 0 1.688-.603 1.904-1.498a1.955 1.955 0 0 0-1.225-2.288c.41-.633.755-.783.76-.785-.055.021-.087.023-.087.023l-.503-2.424c-.344.072-2.116.593-3.178 3.844a1.23 1.23 0 0 0 .386 1.331c.024.301.111.594.272.86"/><path fill="#DB00F8" d="M782.193 171.839a1.92 1.92 0 0 1 1.506.042c.096.043.181.091.264.14.589-1.658 1.066-3.19 1.259-4.083l-12.388-3.496c-.803 1.596-1.734 4.665-2.496 7.179-.176.579-.348 1.146-.515 1.685-2.252 7.279-2.135 11.278.346 12.228.137.025.264.071.384.129 4.41 1.326 6.518.106 8.417-2.891-1.849-.949-.99-2.997 1.032-7.78.819-1.937 1.304-2.804 2.191-3.153m-4.918 2.57c-1.928 5.139-2.518 5.838-3.404 6.208a1.9 1.9 0 0 1-1.542-.034c-2.046-.915-1.187-2.947.888-7.855.819-1.937 1.304-2.804 2.191-3.153a1.92 1.92 0 0 1 1.506.042c1.85.827 1.093 2.843.361 4.792"/><path fill="#4C4C4C" d="M776.914 169.617a1.92 1.92 0 0 0-1.506-.042c-.887.349-1.373 1.216-2.191 3.153-2.075 4.909-2.934 6.94-.888 7.855a1.9 1.9 0 0 0 1.542.034c.886-.37 1.475-1.069 3.404-6.208.732-1.949 1.488-3.965-.361-4.792"/><path fill="#F295FF" d="M809.04 150.892c-.07-.017-.001.005.019.005h.005z"/><path fill="#DB00F8" d="M798.087 189.453c8.534 5.808 16.157-1.032 19.039-4.241.221-.246.243-.466.23-.506l-19.348-15.601a.23.23 0 0 0-.146-.053.2.2 0 0 0-.139.053c-1.025.952-6.117 5.99-5.69 11.638.243 3.211 2.28 6.141 6.054 8.71m8.552-9.755a2.3 2.3 0 0 1 1.719.617c1.866 1.714.125 3.784-.916 5.021l-.5.602c-.665.809-1.755 2.137-3.111 2.137-.468 0-.967-.158-1.492-.551a2.18 2.18 0 0 1-.865-1.508c-.139-1.197.628-2.391 1.822-3.815 1.086-1.297 2.024-2.417 3.343-2.503m-9.526-2.678c1.158-1.382 2.908-3.469 4.919-2.001.523.381.854.936.93 1.564.165 1.344-.869 2.578-1.87 3.772-1.188 1.418-2.223 2.378-3.415 2.458a2.2 2.2 0 0 1-1.643-.57c-1.873-1.701.047-3.992 1.079-5.223"/><path fill="#4C4C4C" d="M817.803 169.868a1.225 1.225 0 0 0-1.626.582 1.2 1.2 0 0 0-.111.552 1.8 1.8 0 0 0-.913.107c-.547.231-.954.69-1.116 1.257-.179.623-.048 1.333.349 1.896.324.464.797.799 1.33.946a2.14 2.14 0 0 0 1.791-.297c.305-.215.526-.486.659-.789.837-.673 1.232-1.422 1.17-2.232-.075-.998-.873-1.713-1.533-2.022"/><path fill="#4C4C4C" d="M823.132 175.222a1.2 1.2 0 0 0-.111.553 1.8 1.8 0 0 0-.913.107 1.94 1.94 0 0 0-1.115 1.255c-.179.623-.049 1.333.349 1.899.325.462.797.797 1.33.945q.292.08.586.08c.43 0 .848-.129 1.203-.377a1.9 1.9 0 0 0 .66-.79c.838-.673 1.232-1.423 1.171-2.232-.076-.998-.874-1.713-1.534-2.022a1.225 1.225 0 0 0-1.626.582"/><path fill="#4C4C4C" d="M797.522 182.819q.077 0 .155-.005c1.192-.081 2.228-1.041 3.415-2.459 1.001-1.194 2.035-2.428 1.871-3.772a2.27 2.27 0 0 0-.93-1.564c-2.012-1.468-3.762.619-4.92 2.001-1.031 1.231-2.951 3.522-1.078 5.223a2.2 2.2 0 0 0 1.487.576"/><path fill="#4C4C4C" d="M801.474 186.016c.071.609.378 1.145.865 1.508.524.394 1.024.551 1.492.551 1.355 0 2.446-1.327 3.11-2.137l.501-.602c1.04-1.236 2.782-3.307.915-5.021a2.3 2.3 0 0 0-1.718-.617c-1.319.087-2.257 1.207-3.344 2.503-1.194 1.424-1.96 2.618-1.821 3.815"/><path fill="#4C4C4C" d="M731.347 198.853c.163.037 16.565 3.73 42.312 10.487 20.8 5.457 42.077 11.515 42.29 11.575l.086.024a5.57 5.57 0 0 0 4.242-.611 5.57 5.57 0 0 0 2.545-3.349l21.124-69.822q.02-.068.038-.137a5.56 5.56 0 0 0-.612-4.241 5.56 5.56 0 0 0-3.188-2.498c-1.953-.777-20.286-7.957-46.895-14.544-31.314-7.75-45.471-8.917-47.622-9.058a5.61 5.61 0 0 0-6.448 4.122 3 3 0 0 0-.055.259l-11.987 71.12c-.661 2.94 1.143 5.903 4.17 6.673m43.942 4.272a1726 1726 0 0 0-17.778-4.566 23.7 23.7 0 0 1 .112-3.895c.286-1.291.55-2.634.593-3.967 3.951.387 8.003-.329 11.709-1.783 1.408.396 2.672.588 3.796.588 5.835 0 8.173-4.814 10.279-9.153q.319-.66.648-1.324c.829-1.667 1.806-4.117 2.582-6.356l3.762-.371c-1.404 2.427-2.499 5.42-2.251 8.694a12 12 0 0 0 1.263 4.524 19 19 0 0 0 .084 3.684c-4.878 3.369-12.852 9.532-13.587 14.244zm3.68-20.353c-1.898 2.997-4.006 4.217-8.416 2.891a1.5 1.5 0 0 0-.384-.129c-2.482-.95-2.598-4.949-.346-12.228.167-.539.338-1.106.514-1.685.763-2.514 1.694-5.583 2.496-7.179l12.389 3.496c-.193.893-.67 2.425-1.26 4.083a3 3 0 0 0-.263-.14 1.92 1.92 0 0 0-1.506-.042c-.887.349-1.373 1.216-2.192 3.153-2.021 4.783-2.88 6.831-1.032 7.78m37.892 31.724c-3.847-1.09-20.183-5.701-37.21-10.22l.103-.046c-.11-.246.001-.695.319-1.297l6.177-6.668a72 72 0 0 1 4.648-3.593c.181.515.381 1.027.621 1.529 2.32 4.785 6.624 8.52 11.811 9.732 1.131.239 1.674-1.362.644-1.872-3.885-2.347-7.72-5.203-9.471-9.23a12.5 12.5 0 0 1-.889-2.72 24 24 0 0 0 2.615 2.071c3.033 2.064 5.964 2.854 8.676 2.854 7.115-.001 12.722-5.441 14.677-7.619.761-.848 1.15-1.927 1.066-2.962a3.34 3.34 0 0 0-1.252-2.349l-16.513-13.312c.082 0 .168.002.245.001 4.137.039 7.233-3.26 9.919-5.91a.95.95 0 0 0 .23-.936c-.618-1.726-3.616.547-4.587 1.069-1.926 1.304-3.354 2.464-5.66 2.482-1.572.192-3.585-.826-5.188-.051a6 6 0 0 0-.505.358l-.051.006c1.112-2.81 3.183-5.39 5.513-7.162 1.114-.795 2.487-1.221 3.438-2.233 1.64-1.534 2.363-3.8 3.2-5.44 5.663 1.235 11.506 2.649 16.539 5.556-1.23-.006-2.46.053-3.68.228-1.948.353-4.101.505-5.634 1.898-.601.54-.25 1.636.561 1.719 1.944.232 3.567-.564 5.441-.683 3.552-.419 7.063.065 10.437 1.122zm-19.138-45.391a.2.2 0 0 1 .138-.053c.051 0 .103.018.146.053l19.348 15.601c.014.04-.009.26-.229.506-2.882 3.209-10.506 10.049-19.04 4.241-3.773-2.569-5.81-5.499-6.053-8.71-.428-5.648 4.665-10.686 5.69-11.638m11.316-18.214.024.005h-.005c-.02 0-.088-.021-.019-.005m-17.293-18.917c25.319 6.268 42.959 13.054 45.795 14.17l-3.502 11.574a31 31 0 0 0-3.05-.721c-.246-.287-.587-.501-.89-.808-3.676-2.966-8.155-4.745-12.572-6.207-2.594-.849-5.235-1.46-7.879-2.062-.121-.011-.424-.091-.594-.055-1.053-.05-2.031 1.047-2.33 1.696-.855 1.639-1.409 3.487-2.637 4.627-.897.842-2.133 1.154-3.089 1.913-3.319 2.367-7.573 7.968-7.606 12.654-.038.001-.075-.004-.113 0l-4.986.493c.15-.58.253-1.068.292-1.418.144-1.29-.509-2.427-1.624-2.827a1 1 0 0 0-.11-.036l-2.188-.618a14 14 0 0 1-1.693-.994c1.22-.721 2.286-1.648 2.618-2.277 2.344-3.382 2.921-7.305 3.185-11.215.216-2.667-.395-5.232.319-7.887l.287-1.368c.385-1.473.033-3.507-2.073-3.411-4.417.206-8.846.767-13.083 2.096-.46.145-.917.308-1.372.48-4.401-4.518-10.736-6.638-16.799-7.778-1.112-.157-2.328-.403-3.473-.184-1.669-1.849-3.181-3.84-4.573-5.908a59 59 0 0 1-1.69-2.723c4.05.376 18.197 2.054 45.43 8.794m-51.635 22.124c1.497-1.078 2.731-2.516 3.493-4.168.79-1.368 1.337-3.177 2.461-4.112a.996.996 0 0 0 .249-1.246c-1.637-2.103-4.257 2.987-5.015 3.976-.109.183-.225.354-.341.524l3.884-23.048c1.284 1.969 2.666 3.874 4.188 5.668a46 46 0 0 0 2.113 2.319c.041.088.086.174.147.255.145.199.333.347.54.451.302.308.644.575 1.288.542a1 1 0 0 0 .726-.349c3.608.468 7.324 1.62 10.57 3.081a24 24 0 0 1 5.11 3.293c1.602 1.205 2.71 2.958 4.247 4.202.293.255.644.455 1.061.381 1.784-.508.652-2.716-.203-3.978 2.639-.77 5.385-1.152 8.128-1.402a58 58 0 0 1 3.569-.217c-.091.414-.2.863-.233 1.052-.787 2.668-.281 5.599-.483 8.36-.287 3.679-1.222 9.661-4.864 11.417a4.7 4.7 0 0 1-.502-1.124c-.549-2.688-1.174-5.332-2.513-7.768-.525-1.022-2.154-.542-2.031.612.197 2.21.667 4.561 1.026 6.74a7.4 7.4 0 0 0 .759 2.765l-4.358-1.23c-1.074-.344-2.213.118-2.852 1.157-1.077 1.752-2.104 5.138-3.097 8.411-.174.573-.344 1.134-.509 1.667-.759 2.454-2.31 7.474-1.569 11.399-9.437-4.707-13.116-14.547-13.165-14.68a1.6 1.6 0 0 0-.49-.695c-.444-2.95 1.287-4.085-.215-4.46-1.784-.446-5.14 3.616-4.6 6.349.538 2.733 2.266 4.693 3.859 4.379.158-.031.292-.097.422-.168 2.281 3.921 6.592 9.555 13.697 12.707-3.875.937-8.003 1.067-11.682-.409-.803-.282-1.548-.681-2.419-.807-.751-.168-1.322.817-.787 1.386.9 1.079 2.189 1.707 3.465 2.222 1.058.395 2.139.691 3.233.896-.409.438-.765.963-.96 1.236-1.15 1.748-1.382 3.984-1.395 6.013-10.963-2.727-18.219-4.406-20.471-4.921z"/><path fill="#FFB921" d="M146.134 189.261c-.818-.516-1.368-1.452-1.145-2.553.083-.412.183-.827.289-1.242q.093-.377.196-.753c-5.476 3.434-11.604 7.508-18.32 12.262-6.189 4.38-11.636 8.448-16.348 12.169a43 43 0 0 0 3.212-.494c.14-.026.281-.048.421-.076.406-.081.808-.175 1.211-.267.229-.053.459-.103.687-.16a39 39 0 0 0 1.121-.297q.379-.103.756-.213a49 49 0 0 0 1.851-.594q.513-.177 1.024-.365.407-.154.81-.316c.325-.129.651-.256.972-.393.296-.126.588-.261.881-.393.291-.132.585-.259.874-.397a43 43 0 0 0 1.645-.832c.239-.127.474-.265.711-.397.333-.186.667-.371.995-.565q.367-.22.73-.449.475-.291.942-.596.357-.235.709-.478.468-.32.929-.652.338-.245.673-.496.473-.358.937-.729.31-.243.615-.492.508-.423 1.005-.862c.165-.145.333-.286.497-.434q.739-.666 1.452-1.37a3.21 3.21 0 0 1 4.455-.048l.101-.109z"/><path fill="#4C4C4C" d="M913.443 330.364c-4.329-4.875-9.964-7.358-15.864-7.05-11.324.632-16.907 10.585-19.274 20.521-.758-4.499-2.307-8.827-4.68-13.018-8.966-15.84-33.575-39.914-143.297-65.997-35.541-8.449-65.727-14.016-90.999-16.72 3.365-18.331 2.498-35.236 1.699-50.78-.445-8.671-.857-16.756-.537-24.387.554-1.892.901-3.895 1.143-5.693.474-3.502.61-6.923.648-8.811a58 58 0 0 1 2.257-7.628c11.516-30.668 19.078-74.439 20.639-105.079l10.216.968c3.137 4.518 8.355 7.487 14.259 7.487 9.57 0 17.355-7.786 17.355-17.356s-7.785-17.356-17.355-17.356c-5.274 0-9.998 2.373-13.184 6.099l-11.426-1.762c-.036-.393-.066-.804-.106-1.183a3.21 3.21 0 0 0-1.734-2.523c-.584-.297-14.862-7.363-63.527-13.025-19.638-2.285-35.016-3.551-47.015-3.874-16.54-.445-25.814.814-29.716 4.243-44.854-2.868-102.129-4.89-156.961-2.117C362.779 1.143 353.377-.4 335.33.086c-11.999.323-27.378 1.59-47.016 3.875-48.664 5.662-62.942 12.727-63.526 13.025a3.21 3.21 0 0 0-1.734 2.523 90 90 0 0 0-.314 3.95l-5.474.845c-3.119-2.99-7.34-4.839-11.991-4.839-9.57 0-17.355 7.787-17.355 17.356s7.785 17.356 17.355 17.356c6.379 0 11.95-3.47 14.966-8.61l2.714-.308c1.849 30.473 9.311 72.641 20.497 102.431a58 58 0 0 1 2.257 7.628c.038 1.888.174 5.309.647 8.812.243 1.798.59 3.801 1.144 5.694.32 7.63-.092 15.715-.538 24.386-.828 16.132-1.726 33.731 2.105 52.867-24.709 2.804-54.002 8.271-88.274 16.419-61.558 14.633-96.323 28.633-116.568 40.903L25.52 215.95c-4.747-21.774 3.737-44.855 22.141-60.277l16.721-12.022c.51.957.843 2.006.953 3.085l3.947 38.638a170 170 0 0 0 9.48 41.156s3.6 8.307 4.153 8.858c.31.31 2.944 2.966 5.652 2.966 3.231 0 8.35-1.327 16.798-5.348 10.027-4.774 22.363-12.225 34.734-20.981 19.683-13.932 40.013-31.806 41.061-40.332.107-.866-.035-1.684-.124-2.237-.127-.79-.341-2.229-1.304-2.924l-9.173-6.619c-20.409-16.314-74.752-32.069-78.21-33.061a8.3 8.3 0 0 1-2.537-1.484l17.263-12.412a4.724 4.724 0 0 0-5.515-7.671l-17.597 12.652-3.733-4.999c-3.036-4.065-8.423-5.613-13.097-3.766a31.2 31.2 0 0 0-6.445 3.472l-.19.135c-7.166 5.073-8.42 12.277-3.442 19.766l2.131 3.205-17.182 12.354q-.136.097-.267.207c-21.208 17.685-30.96 44.374-25.455 69.622l19.475 92.085c-10.023 7.327-15.111 13.909-18.26 19.474-5.886 10.396-6.792 21.609-2.792 34.215l35.472 120.559-1.523.359c-2.942-.237-5.866-.105-8.738.489-.652.117-16.062 2.994-23.555 16.437-5.46 9.794-5.206 22.374.748 37.376l47.92 122.634c4.065 10.294 12.683 15.665 24.251 15.665.624 0 1.26-.02 1.9-.051a7.9 7.9 0 0 0-.547 5.389 7.94 7.94 0 0 0 7.689 5.988c.646 0 1.302-.08 1.958-.247.744-.188 1.276-.403 3.829-1.433a627 627 0 0 1 3.672-1.467l1.231 7.53s3.933 23.649 4.079 23.937C45.961 739.766 2.314 760.55 1.825 760.784a3.212 3.212 0 0 0 1.387 6.109h889.649a3.211 3.211 0 0 0 1.388-6.109c-.279-.134-14.587-6.946-39.27-17.02l5.294-31.911c.025-.152.022-.303.025-.454l11.763-15.904a3.21 3.21 0 0 0-.101-3.949c-.748-.911-2.089-1.942-3.962-2.603 10.199-24.532 23.53-63.568 27.266-106.939 1.894-21.982 1.865-43.307-4.338-75.257a3.2 3.2 0 0 0 .861-1.767l1.788-13.561a3.21 3.21 0 0 0-1.227-2.966c-.076-.06-.408-.308-.965-.673 2.345-10.158 7.169-21.501 11.62-31.969 3.112-7.319 6.052-14.23 7.776-19.966a3.211 3.211 0 0 0-4.406-3.849l-7.315 3.327-2.483-3.04a3.21 3.21 0 0 0-4.169-.706l-4.311 2.648-3.067-1.805 3.794-76.096.007-.255c.039-4.279 1.752-20.349 9.418-20.776 2.191-.118 4.351.928 6.225 3.038 2.604 2.932 8.217 12.272 4.109 35.609a6 6 0 0 0 4.868 6.947 6 6 0 0 0 6.948-4.868c3.583-20.356 1.114-36.569-6.954-45.655M689.653 25.891c6.027 0 10.931 4.903 10.931 10.93s-4.904 10.93-10.931 10.93-10.931-4.902-10.931-10.93 4.904-10.93 10.931-10.93m-16.53 5.657a17.3 17.3 0 0 0-.825 5.273c0 1.077.112 2.127.301 3.15l-7.178-.68c.076-3.172.078-6.164-.001-8.93zM205.275 47.752c-6.027 0-10.931-4.903-10.931-10.93 0-6.029 4.904-10.931 10.931-10.931 6.028 0 10.931 4.903 10.931 10.93s-4.903 10.93-10.931 10.93m16.03-17.57 1.216-.188q-.025 2.479.025 5.15a17.2 17.2 0 0 0-1.241-4.962m-46.753 141.607c-1.769 4.331-13.593 17.599-38.166 34.992-25.534 18.073-42.6 25.008-47.398 25.187 1.05-2.574 5.647-8.298 14.355-16.166.811.039 1.626.066 2.439.066 13.27 0 25.771-5.14 35.202-14.474a3.21 3.21 0 0 0 .024-4.543c-.027-.027-.06-.046-.088-.072a3.21 3.21 0 0 0-4.455.048q-.712.704-1.451 1.37c-.164.148-.332.289-.497.434a45 45 0 0 1-1.005.861q-.305.25-.615.493-.465.371-.937.729a45 45 0 0 1-1.602 1.148q-.352.242-.709.478c-.311.204-.626.4-.942.596q-.363.228-.73.449c-.328.194-.662.379-.995.565-.238.132-.472.27-.712.397a42 42 0 0 1-1.644.832c-.289.138-.583.265-.875.396-.293.133-.584.268-.88.394-.322.136-.647.264-.972.393q-.404.161-.81.316a52 52 0 0 1-1.808.628 43 43 0 0 1-1.823.544q-.558.156-1.121.297c-.228.057-.458.107-.688.16-.402.092-.804.186-1.21.267-.14.028-.281.05-.421.076a44 44 0 0 1-3.212.494c4.712-3.721 10.159-7.789 16.348-12.169 6.716-4.754 12.844-8.828 18.32-12.262a35 35 0 0 0-.197.753c-.105.415-.205.83-.288 1.242-.223 1.101.327 2.037 1.145 2.553.958.605 2.285.634 3.192-.348.71-.738 1.271-1.57 1.817-2.416 1.204-1.947 2.053-4.092 2.636-6.303 10.729-5.805 17.92-8.3 20.773-8.405M64.195 118.031l.09-.063.08-.057a24.8 24.8 0 0 1 5.127-2.764c1.985-.787 4.284-.112 5.59 1.635l8.25 11.049a14.74 14.74 0 0 0 6.982 5.116q.087.03.174.055c.563.161 56.539 16.271 76.115 31.975q.064.051.13.099l1.99 1.435c-2.773.83-6.223 2.18-10.548 4.239-10.027 4.774-22.362 12.225-34.733 20.981-15.637 11.067-31.672 24.618-38.133 33.999l-.516-1.408a163.7 163.7 0 0 1-9.12-39.602l-3.948-38.637a14.84 14.84 0 0 0-2.396-6.682l-6.924-10.413c-3.111-4.679-2.588-7.857 1.79-10.957m812.172 247.164-3.297 66.131-1.482-.863a3.215 3.215 0 0 0-3.752.377l-2.375 2.113-4.61-2.912a3.2 3.2 0 0 0-3.602.133zM728.843 271.07c81.655 19.411 125.884 39.402 139.191 62.911 4.957 8.756 5.689 18.299 2.219 29.237l-31.324 106.463c-33.728-6.979-84.144-42.041-103.258-56.018-2.259-2.45-4.464-4.552-6.555-6.235a71 71 0 0 0 3.155-9.473 66 66 0 0 0 .727-3.321l.063-.308c.037-.195.102-.384.195-.557s.214-.33.363-.463q.176-.158.385-.312c.071-.052.153-.084.231-.122.182-.089.374-.155.575-.181a42.8 42.8 0 0 0 8.742-2.07c5.095-1.788 9.847-4.54 13.874-8.157a39 39 0 0 0 2.573-2.538c6.103-6.467 7.87-15.814 7.669-24.662-.316-7.491-2.935-14.698-6.367-21.272-2.093-4.145-2.805-8.646-3.647-13.477-.973-4.307-1.055-15.449-8.183-12.994-3.441 1.655-7.065 3.437-10.52 5.049a602 602 0 0 1-13.957 6.353l-22.605-15.389a14.15 14.15 0 0 0-5.467-2.236l-94.461-17.163a10.04 10.04 0 0 0-8.147 2.082 9.8 9.8 0 0 0-1.81 1.958 289 289 0 0 0-2.909-2.421c-.187-.157-2.251-1.843-2.372-1.917-2.089-1.577-4.914-.673-6.041 1.515-1.712 3.446-2.006 6.732-3.291 10.149-1.029 2.983-2.333 5.698-4.226 7.822-2.25 2.589-4.442 5.266-6.493 8.085-7.21 9.805-13.428 23.15-9.643 35.669 2.151 6.155 5.676 11.653 10.028 16.426-.228.343-1.232 2.071-1.466 2.63-3.133 7.51-3.905 19.548 1.432 29.511a30 30 0 0 0 3.869 5.569c1.585 5.511 4.116 10.822 7.644 15.34-7.821-.522-18.183-1.075-24.322-.847-3.615.098-6.143-8.092-8.349-15.349-2.741-9.024-5.811-19.108-13.084-21.985a33 33 0 0 0-.569-2.486 20.5 20.5 0 0 0-2.329-5.418l9.831-81.684c1.572-10.943 6.521-19.109 15.131-24.966 24.916-16.949 81.668-14.577 173.498 7.252m140.335 234.536c4.444 8.021 4.059 18.733-1.151 31.861l-47.911 123.059c-1.964 4.976-6.737 11.708-18.18 11.706-4.353 0-9.674-.974-16.169-3.391-11.371-4.23-27.574-9.245-34.423-11.328l41.655-115.781.041-.122c8.358-26.519 35.06-53.837 57.033-49.297.13.024 13.135 2.517 19.105 13.293m-7.511-15.748.018-1.64c12.909-1.873 21.86 2.346 25.258 4.357l-.969 7.349c-5.126-1.892-10.637-2.815-15.397-3.244-2.799-3.02-5.963-5.226-8.91-6.822M761.051 696.889l-.418 12.578c-1.658-.534-3.323-1.067-5.003-1.6-65.769-20.865-160.724-45.192-260.469-51.398l5.785-15.06 5.202-13.545c112.23 5.542 204.412 32.414 255.511 50.71zm-353.049-71.17c.669-.015 1.333-.034 2.003-.048a7.937 7.937 0 0 0 7.781-8.091 7.9 7.9 0 0 0-1.148-3.94c10.066-4.29 15.744-12.219 15.829-22.905l-.543-131.846c.158-16.156-4.131-27.985-12.748-35.158-.111-.093-.225-.177-.337-.267.174.002.345.011.52.011 1.821 0 3.684-.1 5.573-.302 12.461-1.335 21.117-5.924 25.683-13.47 4.01 8.135 11.725 12.948 22.828 14.195-.504.367-1.004.747-1.497 1.157-8.617 7.174-12.906 19.003-12.748 35.115l-.544 134.629c.083 10.324 5.413 18.075 14.891 22.448a7.937 7.937 0 0 0 7.571 9.748c.67.013 1.335.033 2.003.048 0 0-1.114 4.62-2.459 10.218l-.018-.003-4.428 18.256a738 738 0 0 0-28.177-.549c-11.004 0-21.997.258-32.946.744.03-.339-7.089-29.99-7.089-29.99m-231.69-205.512c-8.643-6.327-19.567-22.771-19.567-22.771s9.577-5.317 14.072-12.554c.24-.387.388-.698.482-.964 2.16-2.316 3.961-4.932 5.286-7.732a1.916 1.916 0 0 0-3.248-1.99c-4.894 6.296-11.444 10.846-19.115 12.804-11.049 2.893-24.198.448-32.655-7.439-2.859-2.584-4.553-5.94-5.795-9.513-2.157-5.608-2.759-11.4-2.034-17.294.314-2.444.836-4.962 1.452-7.38.404-1.477.951-3.245 1.29-4.726 1.423-6.423.638-13.496.716-19.638.033-1.063.097-2.111.348-2.946l5.467-1.101a309 309 0 0 1 37.562-4.589 357 357 0 0 1 12.629-.561c4.212-.168 8.421.192 12.629-.928a1.55 1.55 0 0 0 1.113-1.02c.419-1.318-.821-2.073-2.721-2.502 15.686-9.499 34.823-13.929 52.648-12.163a58 58 0 0 1 13.036 3.158c4.382 1.383 8.066 4.256 12.6 5.233 1.665.394 2.977-1.58 1.945-2.967-3.09-3.973-8.014-5.715-12.488-7.654-3.303-1.275-6.716-2.247-10.197-2.964a68 68 0 0 1 8.339-2.097c10.289-1.931 21.181-2.274 31.67-1.956l4.567.172.078.003c.467 1.283.679 3.285.978 4.952.531 3.148 1.334 6.633 3.286 9.809 1.583 2.879 4.508 4.612 6.583 7.096 1.788 2.111 3.306 4.561 4.58 7.145 1.92 4.12 3.833 9.378 4.328 14.419-.42-.281-2.02-1.55-2.447-1.916-2.132-1.976-5.274-1.525-7.922-1.994-7.697-.929-10.971-4.318-15.753-10.18-1.947-2.212-4.142-4.363-6.683-6.048a1.82 1.82 0 0 0-2.539 2.496c1.528 2.46 3.097 4.744 4.736 7.098 2.693 3.818 5.648 7.884 9.968 10.142 2.306 1.233 4.753 1.985 7.258 2.48l-47.954 21.938c-1.86.851-3.244 2.367-3.895 4.268-.738 2.157-.491 4.674.677 6.906 2.562 4.896 8.192 14.042 17.111 20.293 6.208 4.351 13.009 6.545 20.102 6.545 4.281 0 8.669-.799 13.097-2.406 3.321-1.206 6.309-2.603 8.981-4.175h.067c-4.886 11.463-15.588 19.335-32.495 23.577-.88.177-1.565.927-1.582 1.87a1.934 1.934 0 0 0 1.896 1.971c3.2.062 6.144-.396 9.142-1.091a44 44 0 0 0 6.698-2.204c2.565-.69 9.469-2.569 12.126-3.517 9.661 1.763 37.122 6.603 46.217 6.383 6.492-.158 12.756-6.41 19.234-13.987.587 1.802 1.362 3.806 2.34 6.058 4.231 9.747 10.395 14.935 18.394 15.523-11.515 5.568-20.68 18.047-26.301 32.748-2.471.9-4.666 1.654-6.61 2.287-8.517 1.332-17.337-1.162-19.312-1.773-4.93-5.891-8.974-9.956-9.274-10.255a3.21 3.21 0 0 0-4.542 0 3.213 3.213 0 0 0 0 4.543c.127.127 12.844 12.912 20.555 25.97 5.015 8.492 8.727 16.661 11.149 24.481-1.896-2.719-4.166-5.121-6.883-7.018-10.041-7.014-24.28-8.622-39.067-4.421-8.097 2.302-14.961 6.014-19.457 10.339-6.185-3.401-13.293-5.219-20.21-5.291-19.136-.468-38.164 8.325-50.133 23.227-2.366 2.948-4.472 5.99-6.148 9.519a1.924 1.924 0 0 0 .484 2.284c.839.726 2.127.58 2.795-.302 9.007-10.333 19.396-20.366 32.651-24.863 16.786-6.265 39.735-4.322 48.935 12.876 4.083 7.563 4.641 16.491 5.645 24.989.856 8.835 1.222 18.045 1.689 26.994.132 1.764.2 4.213.543 5.938 2.033 7.382 7.113 13.465 10.402 20.12 1.326 2.698 3.103 5.987 2.955 8.835a7 7 0 0 1-1.042.617c-3.385 1.537-7.2 2.427-11.013 3.17-1.184-4.482-5.733-11.174-9.334-11.203-3.201.529-1.931 4.185-.873 6.09 1.111 1.919 2.484 4.204 3.455 6.295-6.04.952-12.162 1.684-18.297 2.305-8.43.828-16.912 1.51-25.37 1.879-2.167-3.603-3.098-7.925-4.329-12.143-1.802-6.883-3.279-13.943-4.676-21.014-2.851-14.016-4.996-28.932-7.8-42.991-1.083-3.894-6.544-2.708-6.307.961-22.13 3.55-43.874 8.704-65.09 15.451-1.803-2.914-3.55-6.251-5.038-9.306-3.514-11.772-5.114-23.609-5.513-34.78.335-3.337 1.042-6.949 1.173-7.603.483-.266.972-.53 1.447-.801a3.213 3.213 0 0 0-3.185-5.58c-19.638 11.208-44.441 17.382-63.26 16.809-8.187-9.987-18.197-18.003-28.519-21.896-.707-17.954 5.464-22.021 6.903-22.718 17.979.579 42.61-7.705 73.27-24.657 11.413-6.31 21.605-12.724 28.982-17.588a83 83 0 0 0 4.086 3.265c3.501 2.451 7.159-2.582 3.826-5.161m133-54.103c-2.528 7.502-9.113 13.23-19.573 17.027-7.893 2.867-27.828 6.518-42.425-21.371-.411-.785-.42-1.468-.291-1.845.082-.239.224-.386.489-.508l53.847-24.633c.174-.079.356-.117.537-.117.412 0 .807.197 1.035.55 1.841 2.857 10.803 17.772 6.381 30.897m-55.934-171.565c.303-5.894.594-11.674.639-17.329l.056.011c4.422.497 8.597.727 12.539.726 10.141 0 18.758-1.524 26.267-3.891.051.047.089.097.144.142 6.095 5.483 11.297 11.906 16.108 18.547 4.991 6.818 8.696 14.43 13.764 21.216 1.22 1.56 3.778.334 3.328-1.602-3.085-13.212-15.356-31.156-26.502-40.802 5.099-2.12 9.657-4.586 13.817-7.14a155 155 0 0 1 9.915 12.736c10.828 15.476 25.116 41.734 31.696 78.938.616 3.483-1.481 7.113-5.821 10.524-2.689-3.6-5.999-6.755-9.937-9.434-16.314-11.097-43.656-14.713-83.89-10.784-3.824-18.689-2.937-36.003-2.123-51.858m-1.176-36.847c19.581 2.586 47.21-5.602 57.092-8.836l1.601 9.647c-13.351 8.326-29.57 15.279-55.931 12.353-1.296-1.107-2.447-6.841-2.762-13.164M443.857 35.815c-28.67-.171-54.118.686-75.452 1.927.205-2.576.335-5.148.38-7.713 38.527-2.155 90.309-3.025 150.406 1.081q.005 3.743.238 7.5a1248 1248 0 0 0-58.674-2.567c-.85.001-1.696.314-2.313.918a3.2 3.2 0 0 0-.963 2.294v83.099a3.21 3.21 0 0 0 3.127 3.211c37.683.993 72.466 3.329 98.68 5.517a217 217 0 0 0 11.262 12.656 1247 1247 0 0 0-109.793-7.062c-.851.012-1.696.313-2.313.918a3.2 3.2 0 0 0-.963 2.294v81.867a3.21 3.21 0 0 0 3.119 3.211c26.611.765 51.671 2.184 73.149 3.722a218 218 0 0 0-3.184 10.956 1249 1249 0 0 0-97.783-3.845c-28.788 0-54.066 1.007-74.926 2.341a219 219 0 0 0-3.387-11.871c26.995-1.691 56.843-2.26 89.314-1.692a3.21 3.21 0 0 0 3.268-3.211v-81.704a3.213 3.213 0 0 0-3.192-3.213c-59.287-.351-104.809 3.689-128.621 6.435a215 215 0 0 0 12.189-13.376c33.546-3.502 72.537-4.943 116.364-4.293.846-.03 1.689-.32 2.302-.924a3.2 3.2 0 0 0 .958-2.288V39.028c0-1.766-1.425-3.2-3.192-3.213m145.432 139.276a128 128 0 0 0-3.994 7.532c-3.763 7.944-7.434 16.059-9.514 24.635a29.4 29.4 0 0 0-.709 5.329 1.917 1.917 0 0 0 3.511 1.142c1.904-2.977 3.273-6.127 4.631-9.345 3.594-8.853 8.072-18.363 12.176-27.125a82.7 82.7 0 0 0 14.507 3.103c1.495 3.849 2.586 7.832 3.41 11.893 1.029 4.639.907 9.448 2.597 13.965.591 1.607 3.082 1.61 3.661-.026 2.459-6.502.822-17.503-2.276-25.222q2.003.085 4.09.086c3.942 0 8.116-.229 12.539-.727.02-.002.037-.008.056-.01.045 5.654.336 11.435.638 17.328.785 15.275 1.633 31.906-1.725 49.814-38.743-3.503-65.214.199-81.156 11.043-4.901 3.334-8.835 7.399-11.799 12.161-5.192-3.679-7.763-7.66-7.09-11.466 6.579-37.203 20.868-63.462 31.696-78.939a155 155 0 0 1 9.915-12.736c4.437 2.725 9.317 5.356 14.836 7.565m-12.193-13.479 1.601-9.646c9.882 3.235 37.514 11.42 57.092 8.836-.315 6.323-1.466 12.057-2.763 13.164-26.361 2.929-42.579-4.027-55.93-12.354m-6.61.584c-3.006 3.384-6.382 7.525-9.911 12.417-5.999 8.319-12.437 18.858-18.284 31.775a204 204 0 0 0-6.431 16.012c-8.1-.588-16.727-1.159-25.763-1.687a3.41 3.41 0 0 0-1.084-2.841l-9.878-9.066a3.432 3.432 0 1 0-4.643 5.058l6.934 6.364a1662 1662 0 0 0-37.523-1.591v-32.851l15.765 14.471c.66.605 1.491.904 2.321.904a3.432 3.432 0 0 0 2.322-5.962l-18.261-16.761a3.4 3.4 0 0 0-2.147-.884V143.17c3.928.089 7.856.203 11.785.33l2.329.078a3.4 3.4 0 0 0-1.336.86 3.43 3.43 0 0 0 .139 4.852l18.386 17.361a3.42 3.42 0 0 0 2.356.937 3.433 3.433 0 0 0 2.358-5.929l-18.387-17.36a3.4 3.4 0 0 0-.982-.636c15.755.57 31.506 1.439 47.21 2.606.156.547.435 1.066.867 1.495l18.036 17.888c.67.664 1.544.996 2.418.996a3.433 3.433 0 0 0 2.417-5.871l-13.844-13.731c11.634.959 23.236 2.078 34.789 3.361zm-235.023-9.072-5.777-5.324c10.543-1.034 23.492-2.108 38.527-2.991l8.922 8.077a3.42 3.42 0 0 0 2.303.888 3.434 3.434 0 0 0 2.305-5.978l-3.879-3.511c13.43-.671 28.303-1.168 44.424-1.354 5.947-.069 12.059-.097 18.337-.073v12.243l-11.096-10.184a3.433 3.433 0 0 0-4.643 5.058l15.739 14.445v53.68q-17.91-.272-34.737-.08l-8.685-8.003a3.433 3.433 0 0 0-4.653 5.049l3.374 3.109c-13.745.273-26.914.786-39.481 1.538a3.5 3.5 0 0 0-.514-.61l-5.858-5.398c-10.091-26.104-23.135-44.003-32.567-54.619l-1.629-9.814q2.251-.261 4.765-.536c.099.119.193.241.31.349l9.86 9.087c.66.608 1.494.909 2.326.909a3.432 3.432 0 0 0 2.327-5.957m26.012 101.849a235 235 0 0 0-2.113-10.497c41.538-2.613 100.485-3.892 169.632 1.491a235 235 0 0 0-2.479 12.116c-1.176 6.654 2.531 12.966 10.454 18.338-1.48 3.536-2.528 7.375-3.124 11.523l-9.217 76.584c-4.011-2.689-8.744-3.893-12.845-4.254-.218-1.18-.371-1.929-.41-2.118-.008-.041-1.085-3.955-6.217-5.894-4.627-1.749-12.319-3.538-25.734-3.03-.374.015-1.62.075-1.717.08-3.401.171-6.533.456-9.387.858 2.049-3.439 2.036-7.053-.079-10.037-2.628-3.707-8.084-5.534-12.692-4.25-4.666 1.3-8.052 4.338-9.632 8.23a25.3 25.3 0 0 0-2.625-6.303c-4.465-7.636-11.904-11.693-19.883-10.86-5.283.553-9.322 3.589-10.292 7.736-.49 2.093-.794 7.487 6.933 12.372.667.422 1.246.83 1.77 1.23-1.039.045-4.55.279-4.922.31-13.373 1.097-20.796 3.79-25.183 6.078-4.87 2.541-5.471 6.556-5.475 6.599-.016.192-.079.954-.154 2.151-6.678 1.405-14.799 5.327-17.89 13.904l-10.927-90.784c-.765-5.324-2.282-10.15-4.521-14.472 6.729-5.093 9.817-10.951 8.729-17.101m161.456 123.608c-.429-1.629-.993-2.939-1.452-3.625-1.929-2.89-4.5-4.627-8.246-5.414q-.182-1.395-.367-2.662c4.991.715 11.59 3.122 13.646 10.691q.573 2.117.753 4.066a14 14 0 0 0-4.334-3.056m2.636 21.523c-.214 3.188-1.509 4.831-4.469 5.668-1.979.56-4.57.966-5.679-.289-2.719-3.079-.171-14.011 2.746-21.738 2.015.429 3.574 1.288 4.728 2.597 2.996 3.396 2.96 9.481 2.674 13.762m-14.807 9.793-.026-.01.006-.011zm23.471 133.163a2.97 2.97 0 0 1 1.164-2.152 2.9 2.9 0 0 1 2.459-.518c1.871.448 4.071 1.004 6.492 1.617 10.442 2.642 24.358 6.156 34.683 6.788a9.3 9.3 0 0 0-.305 2.26q0 .065.002.128l.865 27.352c-4.197 2.298-13.627 8.744-18.18 22.067a139 139 0 0 0-1.717-.303 3.21 3.21 0 0 0-3.618 2.737c0 .012-.733 5.276-1.249 8.989-6.598-.565-13.186-1.669-19.689-2.854-7.689-1.417-15.941-3.338-23.68-5.308l.838-6.044c7.768 2.16 15.641 3.779 23.612 5.035 3.065.417 6.1 1.183 9.363.318a1.77 1.77 0 0 0 1.03-.748c1.951-3.622-7.252-4.64-9.29-5.284-4.814-1.122-14.229-3.473-21.292-5.224 5.565-13.176 17.181-17.893 17.796-18.135a3.21 3.21 0 0 0 2.054-3.153zm5.091-71.695c3.299 1.211 6.82 2.263 10.62 3.188 8.328 2.027 15.243 3.258 20.563 4.005a121 121 0 0 0-2.227 4.346c-7.745-.547-14.795 1.297-20.715 5.499-2.854 2.024-5.219 4.609-7.186 7.53l.136-4.568c.403-6.492-.033-13.281-1.191-20m11.959 22.276c8.162-5.792 17.594-4.816 24.069-2.98 8.474 2.405 16.138 7.419 21.139 12.472a35.8 35.8 0 0 0-5.648 9.252c-2.096 4.964-3.092 10.443-3.898 15.612-.702 4.724-1.206 9.477-1.609 14.237a9 9 0 0 0-1.601.653 3.2 3.2 0 0 0-1.537-.408c-.029-.002-.068.001-.102.001-9.687 0-25.618-4.031-36.172-6.701a522 522 0 0 0-6.575-1.637 9.4 9.4 0 0 0-2.033-.255c.451-27.665 9.896-37.357 13.967-40.246m109.07 60.544c.933-5.692 1.874-11.363 2.882-16.921 35.825 9.053 73.682 21.671 110.749 38.348l-26.95 74.91-87.444-17.725a924 924 0 0 0-11.621-2.506 3.15 3.15 0 0 0 .816-1.692l1.73-11.52c.114-.77-.034-1.429-.374-1.997l10.983-55.633q.029-.142.044-.287a9.56 9.56 0 0 0-.815-4.977m97.656 7.548c7.615-16.747 10.849-34.196 11.734-50.168 7.867 4.049 16.546 7.505 25.343 10.089-3.426 5.772-6.221 11.855-8.152 17.962l-10.768 29.932a638 638 0 0 0-18.157-7.815M644.14 612.298c-3.735-.548-8.059-.234-9.889.276-2.261.515-2.391 3.835-.105 4.48 3.127.868 6.458 1.379 9.582 2.008l-.852 5.676c-21.089-1.279-42.232-3.53-63.047-7.153-6.299-1.151-12.558-2.458-18.745-3.975l.891-6.416c13.644 2.366 27.319 4.381 41.05 6.155 4.942.642 9.887 1.312 14.921 1.287a1.783 1.783 0 0 0 .471-3.499c-9.652-2.523-19.522-3.586-29.283-5.54-.023.005-12.589-2.269-21.295-3.839 5.009-13.425 15.683-18.053 16.241-18.286a3.215 3.215 0 0 0 1.998-3.076l-.929-29.341a2.84 2.84 0 0 1 1.082-2.175 2.83 2.83 0 0 1 2.419-.561c13.392 2.932 41.667 7.632 62.709 6.669a3.29 3.29 0 0 1 2.583 1.027c.607.644.905 1.476.845 2.357zM534.097 491.017l-.004.105-.641 21.512c-2.073 8.548-2.527 16.945-2.578 21.923-.005.49.016 1.07.057 1.727a9.36 9.36 0 0 0-3.126 6.655q-.005.135.002.272l1.24 25.564c-4.47 2.275-14.641 8.683-19.702 21.735a3.21 3.21 0 0 0-2.902 2.754c.004.025-1.753 12.557-1.747 12.58a3.186 3.186 0 0 0 2.367 3.523l6.674 1.705c5.525 1.306 11.084 2.589 16.672 3.729l-.056 1.881c-7.125-.52-24.071-1.673-36.217-1.817-25.145-.3-28.998-12.733-29.057-20.079l.543-134.634c-.138-14.103 3.357-24.236 10.389-30.121 5.892-4.931 13.178-5.871 17.879-5.871 2.836 0 4.73.342 4.81.357 22.056 3.656 37.14 38.749 35.397 66.5m-32.036-72.36-.05-.01.073-.044zm-21.793-.847q-.376.005-.744.005c-17.011 0-22.449-7.74-24.364-13.734 7.434 2.384 14.614 3.289 21.221 3.289 13.534 0 24.661-3.781 30.648-6.344-.481 2.243-1.111 4.171-1.898 5.736-2.704 5.374-11.44 10.874-24.863 11.048m-26.375-20.997c-.769-9.157-.414-26.082-.255-32.064 1.473.381 3.221.668 5.201.917 3.823.48 8.404.727 13.309.727 2.179 0 4.423-.049 6.691-.148 7.393-.32 14.87-1.213 21.054-2.515 2.313-.487 4.192-.964 5.717-1.463.592 3.345 1.543 9.335 2.096 16.034.471 5.706.568 10.79.3 15.169-4.031 2.055-28.086 13.272-54.113 3.343m6.636-37.978c-5.149-.498-8.23-4.079-8.995-7.744-.708-3.391.427-7.541 5.737-9.019.42-.117.871-.173 1.331-.173 1.715 0 3.558.767 4.396 1.951.268.377.978 1.379-.47 3.456-3.472 4.979-3.042 8.888-1.999 11.529m6.268-1.733c3.265-.671 7.108-1.2 11.477-1.39 8.19-.355 15.734.556 20.831 1.62-4.916 1.062-12.194 2.132-20.544 2.495-3.787.165-7.209.175-10.225.087-.246-.695-.619-1.297-.909-1.754a15 15 0 0 1-.63-1.058m-43.316-15.475c-2.898-1.831-4.473-3.93-4.11-5.477.327-1.399 2.261-2.554 4.704-2.81 5.4-.571 10.513 2.318 13.669 7.713 2.776 4.745 3.294 10.3 1.233 13.207-1.534 2.163-4.368 2.448-6.88 2.163.295-3.104.491-9.039-8.616-14.796m2.278 13.053c.002.521-.045 1.016-.092 1.487-.048.476-.126 1.295-.026 2.191-2.057.251-4.265.475-6.626.656-8.334.637-15.687.444-20.694-.023 4.932-1.666 12.314-3.471 20.487-4.097a76 76 0 0 1 6.951-.214m-17.375 11.168c3.627 0 7.394-.143 11.121-.429 7.361-.563 14.388-1.615 19.788-2.964 1.936-.484 3.638-.977 5.055-1.531.569 3.864 1.778 12.342 2.641 20.325.008 4.078.073 8.253.241 11.911-24.438 12.455-49.235 4.314-53.431 2.773-.789-4.315-1.3-9.374-1.514-15.096-.251-6.717-.022-12.777.166-16.17 1.574.313 3.496.563 5.851.77 3.115.274 6.531.411 10.082.411m9.536 40.639c8.889 0 19.172-1.546 29.615-6.339-1.2 6.27-5.783 14.761-23.288 16.637-13.35 1.435-22.678-2.987-26.005-7.998-.969-1.46-1.824-3.299-2.57-5.468 4.81 1.407 12.729 3.168 22.248 3.168m-32.169-33.686c-3.624 1.229-5.969 3.261-7.539 6.359-.467.92-.982 2.819-1.144 5.069a19.5 19.5 0 0 0-3.661-.739c.038-.376.063-.744.12-1.13 1.137-7.761 7.401-10.939 12.271-12.245a193 193 0 0 0-.047 2.686m.069 7.053c.105 3.442.331 7.105.739 10.753a23 23 0 0 0-2.905-2.826c-.452-2.253-.043-4.979.288-5.717.389-.768.89-1.536 1.878-2.21m-6.694 12.531c6.593 4.9 9.023 15.396 9.821 20.28-10.866 2.494-15.457-4.163-18.498-11.168-3.486-8.029-3.286-10.632-3.109-11.297 4.663-.957 8.52-.242 11.786 2.185m-25.054 67.662c-2.261 7.925-3.517 16.222-3.605 24.243-2.084-4.728-4.569-9.547-7.469-14.457a101 101 0 0 0-3.691-5.763c2.456-.39 7.041-1.405 14.765-4.023M107.538 513.9c12.746-2.054 25.957-6.13 37.541-11.487.197 15.908 2.627 33.358 9.318 50.345a445 445 0 0 0-39.542 15.517l-10.667-29.535c-2.549-8.064-6.595-16.09-11.632-23.405 4.718-.127 9.724-.588 14.982-1.435m120.835 27.196c.906 5.218 1.822 11.205 2.561 15.49 2.447 14.405 4.847 28.725 8.403 42.965 1.456 4.634 3.747 17.747 10.189 17.452 8.979-.322 17.954-1.063 26.885-1.923 10.996-1.18 22.006-2.329 32.805-5.236 3.148-1.031 6.812-1.902 9.204-4.704 6.032-.484 12.901-1.133 19.625-1.95 6.388-.775 11.626-1.572 15.933-2.382l.361 11.863c-80.316 6.73-148.862 23.518-197.395 38.659-3.711.886-7.42 1.776-11.125 2.687l-28.777-79.685c35.415-15.927 72.775-27.063 111.331-33.236m120.783 41.963c-2.403.372-2.34 2.713-1.592 4.487.211.564.449 1.095.735 1.592.973 1.62 2.265 3.687 3.353 5.565-4.195.755-9.488 1.543-16.167 2.322a491 491 0 0 1-15.704 1.558c-1.157-8.613-10.136-19.678-12.745-26.264-.682-1.46-.805-2.678-.906-4.17-.136-1.709-.384-6.276-.481-8.05-.6-10.921-1.195-21.978-2.965-32.861-.909-5.502-2.267-11.606-5.167-16.605-2.18-4.125-5.224-7.621-8.799-10.476 3.744-3.168 9.349-6.029 15.705-7.836 12.73-3.619 25.303-2.307 33.631 3.508 4.019 2.806 13.391 12.28 13.621 39.581.05 5.878.62 15.679 1.613 23.043.499 3.695 3.341 8.528 6.632 14.123 3.416 5.807 8.065 13.712 7.509 17.392-.42.415-2.188 1.694-8.858 3.302-.693-1.816-1.794-3.493-2.873-5.035-1.729-2.138-3.491-4.976-6.542-5.176m24.491 8.584c1.381-6.053-3.484-14.324-8.189-22.324-2.693-4.578-5.477-9.312-5.803-11.726a156 156 0 0 1-.785-7.274l-1.841-60.524-.005-.103c-1.742-27.75 13.341-62.844 35.478-66.515.049-.009 1.913-.346 4.723-.346 4.68 0 11.983.935 17.886 5.875 7.031 5.885 10.527 16.018 10.389 30.165l.543 131.851c-.138 17.204-18.264 19.989-29.057 20.118-12.148.144-29.097 1.296-36.219 1.817l-.403-13.224c10.309-2.56 12.697-5.222 13.283-7.79m477.646-105.637c-18.511-3.818-39.137 10.555-52.634 30.072a136 136 0 0 1-4.444-1.32c-.487-.154-.973-.329-1.46-.488-.995-.326-1.99-.647-2.982-.998-.584-.206-1.163-.435-1.746-.649-.892-.329-1.786-.649-2.674-.997-.645-.253-1.281-.529-1.923-.792-.818-.335-1.64-.66-2.453-1.011-.66-.285-1.309-.594-1.964-.89-.783-.354-1.573-.698-2.348-1.066-.649-.309-1.283-.64-1.926-.959-.767-.381-1.542-.751-2.299-1.146-.646-.337-1.275-.697-1.913-1.045-.735-.4-1.479-.79-2.202-1.204-.64-.366-1.258-.754-1.888-1.13-.687-.411-1.385-.81-2.059-1.233-.108-.068-.223-.12-.337-.175-.069-.033-.137-.071-.208-.1a3.4 3.4 0 0 0-1.958-.172c-.07.014-.141.025-.21.044q-.115.038-.227.083a3 3 0 0 0-.416.188q-.066.036-.13.076a3 3 0 0 0-.433.325l-.099.085c-.024.024-.052.042-.076.066-.068.072-.113.153-.173.229-.081.099-.164.196-.234.307s-.122.226-.176.342c-.056.116-.118.231-.158.351-.016.046-.026.093-.039.14a3 3 0 0 0-.117.686q-.011.212.008.423c.007.092.012.183.027.275.008.047.023.093.034.14.139.67.487 1.287 1.026 1.758.051.047.11.087.164.131.078.06.145.13.229.183l.08.049q1.236.775 2.516 1.531c-.592 16.189-3.61 34.119-11.426 51.201-28.561-11.437-57.241-20.583-84.789-27.645l-3.499.988c-.731-2.835-5.255-3.402-6.215.082-.423 1.763-.811 3.981-1.114 5.681-.609 3.481-1.221 7.045-1.84 10.639a9.7 9.7 0 0 0-3.524-.491c-19.296.884-45.043-3.19-58.831-6.057.629-8.08 1.627-16.101 3.621-23.896 8.189-27.078 39.533-25.989 59.123-11.692 8.674 6.452 15.6 14.976 23.499 22.361 1.601 1.536 4.128-.421 3.001-2.374-5.02-8.073-11.152-15.211-18.157-21.617-10.357-8.958-23.524-14.719-37.393-14.961-9.302-.23-18.05 2.721-24.83 8.269-6.083-6.162-14.975-11.562-23.993-14.121a48 48 0 0 0-2.193-.566 133 133 0 0 1 6.684-11.463c8.292-12.764 16.254-22.851 16.334-22.951a3.214 3.214 0 0 0-.525-4.513 3.214 3.214 0 0 0-4.512.525c-.073.092-6.609 8.37-14.05 19.454-8.185 4.581-20.132 4.324-24.295 4.07q-1.507-.344-3.085-.728c-5.106-1.242-9.633-2.707-13.757-4.503-5.481-21.343-18.224-40.476-35.052-44.988 4.292-4.665 11.583-5.862 14.227-6.149.316.024.632.049.972.049 1.436 0 3.091-.225 4.996-.765 5.577-1.579 8.734-5.527 9.129-11.42.162-2.422.24-5.319-.128-8.246a19.3 19.3 0 0 0 1.732-5.816c2.882 3.426 4.847 9.86 6.637 15.753 3.021 9.939 6.149 20.204 14.731 19.901 8.143-.297 24.769.889 31.27 1.389 9.074 6.665 20.789 9.869 31.92 7.858 2.052-.441 1.772-3.479-.339-3.531-13.276-.968-27.973-4.871-35.64-16.61v-.001q.015-.053.038-.109a1.3 1.3 0 0 1 .256-.417c.218-.237.576-.456 1.157-.561a4 4 0 0 1 .48-.056c2.576 1.06 5.471 1.958 8.77 2.599 3.471.673 6.681.98 9.65.98 22.974 0 31.479-18.372 34.209-27.052.75-2.383.55-4.883-.547-6.859-.969-1.745-2.586-2.984-4.553-3.49l-51.247-13.176c1.978-1.378 3.531-3.235 4.213-5.999 1.129-3.231 2.883-6.138 4.62-9.066 2.807-4.757 6.141-8.76 9.876-12.137.989-.513 2.439-1.116 3.764-1.116 2.837 2.846 6.088 4.755 9.692 5.631 8.204 1.995 15.905-2.72 21.944-13.072.805-.489 1.753-.715 2.596.004 3.226 12.362 10.119 28.161 24.573 31.867 2.046.524 4.011.766 5.897.766q.641 0 1.27-.037a21.4 21.4 0 0 0 3.663-.533 22.4 22.4 0 0 0 3.434-1.107 24 24 0 0 0 2.162-1.021q.527-.281 1.043-.586a29.5 29.5 0 0 0 3.91-2.791c4.628-3.887 8.273-9.13 10.886-14.173a59 59 0 0 0 1.444-2.989c.21-.468.513-.879.886-1.215a3.8 3.8 0 0 1 1.296-.767l.594-.206c.77-.266 1.629-.559 2.363-.801q.37-.121.686-.222c.335-.106.615-.189.807-.239 16.537-5.311 32.47-12.289 48.23-19.526 1.618 6.593 1.739 13.308 4.186 19.994 1.389 3.644 3.546 7.23 4.725 10.965 2.599 7.121 2.772 14.443.901 21.87-.725 3.292-2.52 6.341-4.89 8.992-9.876 10.786-27.078 14.131-40.321 8.001-3.336-1.5-6.403-3.623-9.273-6.134a1.916 1.916 0 0 0-2.846 2.531c1.476 2.1 3.256 3.984 5.247 5.631 5.351 5.655 14.759 9.695 17.965 10.963-1.683 6.612-4.44 12.958-8.071 18.787a3.2 3.2 0 0 0-.391 2.493A3.2 3.2 0 0 0 719 419.86a3 3 0 0 0 1.817.366c.045-.005.088-.019.132-.026a3.4 3.4 0 0 0 1.06-.334 3.6 3.6 0 0 0 1.399-1.291q.642-1.03 1.249-2.083a85 85 0 0 0 1.182-2.124c5.6 4.234 23.531 17.534 44.788 30.683 34.282 21.205 60.682 32.06 78.49 32.276.945.511 3.966 2.646 5.35 9.496-1.82-.565-3.024-.791-3.174-.817m-253.17-157.509c-5.462 4.312-10.264 9.675-14.145 16.327a82 82 0 0 0-4.028 7.499c-.73 1.387-1.194 3.627-1.832 4.756-.206.349-.481.642-1.014 1.021-1.005.701-2.567 1.403-4.055 1.993a50.6 50.6 0 0 1-7.811-10.765c-3.097-5.336-3.254-11.529-1.689-17.416 2.375-9.132 8.474-17.401 14.698-24.62 3.795-4.395 5.387-9.623 6.791-14.892.181-.668.393-1.496.623-2.275a326 326 0 0 1 5.071 4.112c-.16 10.103 1.386 19.989 4.4 27.913a44 44 0 0 0 2.991 6.347m-.966-34.871c.023-.947.454-1.809 1.213-2.427a3.62 3.62 0 0 1 2.942-.742l94.461 17.162a7.8 7.8 0 0 1 3.001 1.225l19.215 13.081a328 328 0 0 1-11.923 4.718c-1.419.57-2.872 1.042-4.315 1.536l-6.656-1.279a3.22 3.22 0 0 0-3.669 2.187c-.091.288-9.344 28.729-28.179 23.89-15.523-3.978-20.526-27.337-21.957-37.196a4.19 4.19 0 0 0-4.165-3.582 4.2 4.2 0 0 0-3.938 2.733c-2.438 6.586-9.179 21.635-19.132 19.228-11.677-2.838-17.339-22.539-16.898-40.534m-25.137 74.98a1.18 1.18 0 0 1 1.095-.709q.153 0 .307.039l56.597 14.552c.33.085.453.236.537.387.188.337.295.99.036 1.812-3.187 10.13-12.169 26.423-36.506 21.693-10.015-1.945-17.047-6.579-20.9-13.77-4.341-8.104-3.714-17.895-1.166-24.004m278.576 102.41s-3.777-.193-5.264-.339l4.496-15.279c1.397 5.599 2.776 11.53 3.95 17.27-1.522-1.135-2.777-1.544-3.182-1.652M527.135 12.353c.363-.426 3.811-3.49 27.292-2.675 11.536.398 26.094 1.632 44.507 3.774 38.558 4.487 55.022 9.876 59.789 11.715 2.192 26.868-5.914 85.331-20.199 123.375a62 62 0 0 0-1.799 5.614c-3.655.653-7.734.831-12.001.669.057-.134.117-.267.156-.411 2.14-8.317 3.516-16.51 4.554-24.96 2.074-16.616 2.711-33.56 2.08-50.295-.301-8.383-1.16-16.75-2.763-24.999-.418-2.153-3.598-1.885-3.697.273-.289 8.326.049 16.571.037 24.88.228 24.555-1.377 49.461-6.277 73.526a3.1 3.1 0 0 0 .026 1.569c-14.02-1.405-28.8-5.608-36.405-8.004-6.423-5.989-18.943-18.638-30.53-36.009-14.999-22.487-31.464-57.74-24.77-98.042m5.493 76.823-9.339-9.226a3.433 3.433 0 0 0-4.825 4.884l23.776 23.488c.348.343.751.593 1.179.758a196 196 0 0 0 3.248 5.038 209 209 0 0 0 7.179 10.073 1855 1855 0 0 0-42.159-2.898l-14.297-14.18a3.433 3.433 0 1 0-4.834 4.875l8.817 8.745a1644 1644 0 0 0-37.47-1.505V83.571l10.616 10.53c.67.662 1.544.995 2.417.995a3.433 3.433 0 0 0 2.418-5.87L463.903 73.9V42.537c18.706.424 37.429 1.28 56.094 2.549 1.663 14.671 5.896 29.465 12.631 44.09m-12.199-75.464a120 120 0 0 0-1.076 10.973c-60.106-4.091-111.949-3.234-150.624-1.082q-.21-6.003-1.016-11.94c53.253-2.616 108.759-.713 152.716 2.049m-152.704 30.48c20.622-1.22 45.194-2.078 72.9-1.968v8.59l-6.44-6.386a3.433 3.433 0 1 0-4.834 4.875l9.52 9.442a3.4 3.4 0 0 0 1.754.93v49.479a3.4 3.4 0 0 0-.716.563 3.43 3.43 0 0 0 .139 4.852l.577.545v3.632q-20.47-.255-39.5.1l-8.117-7.45a3.432 3.432 0 1 0-4.643 5.058l2.855 2.62c-15.396.424-30.034 1.16-43.883 2.205q-7.284.55-14.276 1.214a212 212 0 0 0 6.224-8.503 206 206 0 0 0 2.039-2.982c5.48-8.198 10.149-16.509 14.007-24.875l14.774 13.56a3.42 3.42 0 0 0 2.32.904 3.433 3.433 0 0 0 2.323-5.962l-16.521-15.163c4.784-11.73 7.961-23.54 9.498-35.28M229.267 22.058c4.787-1.846 21.255-7.232 59.79-11.716 18.412-2.142 32.971-3.376 44.507-3.774 23.477-.812 26.929 2.248 27.292 2.675 6.694 40.302-9.772 75.555-24.77 98.042-11.586 17.369-24.104 30.018-30.527 36.008-.943.297-1.997.622-3.145.966 2.131-4.578 3.966-9.194 5.699-13.968 5.601-16.025 9.822-32.782 10.497-49.798-.018-2.35-.042-4.99-.231-7.315a1.88 1.88 0 0 0-1.463-1.68 1.877 1.877 0 0 0-2.246 1.474c-1.381 6.24-2.227 12.44-3.447 18.612-3.331 18.454-8.947 36.694-16.372 53.898a3.1 3.1 0 0 0-.271.977 215 215 0 0 1-8.519 2.054c2.272-7.503 3.184-15.398 4.064-23.137.758-8.727 1.806-17.418.54-26.17-.287-2.004-3.192-2.162-3.709-.206-1.711 6.065-2.202 12.973-2.896 19.222-1.277 10.35-2.292 21.02-4.863 31.112a4 4 0 0 0-.147.57c-9.605 1.699-19.73 2.581-27.784 1.142a62 62 0 0 0-1.799-5.614c-14.285-38.04-22.39-96.503-20.2-123.374M20.849 361.828c-3.45-10.873-2.718-20.416 2.238-29.172 13.308-23.509 57.537-43.499 139.191-62.91 51.616-12.27 92.148-18.393 122.174-18.393 23.395 0 40.414 3.717 51.325 11.14 8.609 5.857 13.558 14.023 15.121 24.894l11.827 98.266a6 6 0 0 0-1.032 1.428c-.372.722-.615 1.532-.742 2.436-6.269 7.541-13.31 15.928-18.125 16.045-8.108.212-33.604-4.232-43.881-6.094 3.038-3.092 5.596-6.65 7.449-10.613 1.695-3.57 2.815-7.308 3.482-11.125 2.49-2.854 4.336-6.048 5.524-9.574 3.799-11.274-.082-22.953-3.631-30.273 2.148-8.25-.989-18.097-4.448-25.453-1.466-2.946-3.218-5.789-5.429-8.387-1.789-2.345-4.518-3.791-6.082-6.328-2.238-3.468-2.43-8.12-3.44-12.443-.603-2.629-2.393-5.216-5.764-5.037-14.078-.466-28.498-.02-42.196 3.655-3.062.813-6.236 1.938-9.121 3.277-.911.49-1.984.902-2.79 1.565a79 79 0 0 0-12.292.092c-.037-1.901.044-3.793.003-5.793a1.73 1.73 0 0 0-.418-1.056c-2.669-2.571-5.649 3.984-5.988 6.094a13 13 0 0 0-.208 1.579 90 90 0 0 0-6.571 1.334c-2.086-1.966-4.6-3.465-7.332-4.238-1.47-.454-2.73 1.362-1.761 2.582a65 65 0 0 1 2.851 3.402c-9.908 3.15-19.312 7.968-27.437 14.099l-.226-.009c-12.844.122-25.66.904-38.419 2.491-4.924.611-11.002 1.541-15.902 2.453-.812.146-2.175.403-2.972.545-1.387.207-2.747 1.293-3.379 2.438-1.996 4.039-1.154 8.463-1.263 12.603.096 5.042.046 10.09-1.6 14.812-3.898 12.455-3.353 24.91 2.97 36.457 6.196 10.185 18.243 15.185 29.689 15.93 1.648.105 3.312.111 4.974.021.411.156.767.338 1.062.538 3.099 7.403 7.49 14.347 13.229 20.446a76 76 0 0 0 2.002 2.061c-22.318 14.58-68 41.641-97.724 40.291l-.427-.019-.417.093c-1.116.249-8.527 2.402-11.21 15.613zm84.505 305.689c-23.569 8.765-31.638-1.447-34.345-8.305L23.087 536.573c-5.203-13.108-5.587-23.821-1.144-31.841 5.97-10.777 18.975-13.27 19.185-13.309a24.3 24.3 0 0 1 4.919-.494c20.819 0 44.294 25.246 52.034 49.806l.043.126 41.649 115.329c-6.85 2.083-23.049 7.097-34.419 11.327m24.108 9.732c51.1-18.295 143.285-45.167 255.511-50.709l5.34 13.902 6.265 16.308c-98.158 6.63-191.32 30.554-256.134 51.117a1297 1297 0 0 0-9.859 3.172l-.798-23.996zM18.088 760.468c13.187-5.799 35.503-15.207 64.503-25.938a1343 1343 0 0 1 59.904-20.574c75.609-23.98 189.993-52.566 305.542-52.566s229.933 28.586 305.542 52.566a1342 1342 0 0 1 66.2 22.923c-3.325.237-6.652.472-9.988.562-7.479.335-15.691.447-23.167.352-77.696-1.675-154.249-17.791-231.651-24.235-46.583-4.3-93.278-7.027-140.092-6.782-101.296.91-200.473 27.467-301.754 27.227-6.418.025-16.37-.534-22.745.704-.171.033-.35.062-.515.098a1.728 1.728 0 0 0-.145 3.364c1.928.535 3.87.856 5.814 1.127 9.71 1.129 19.526.657 29.284.741 81.901-.605 162.375-18.499 243.749-24.668 30.939-2.457 61.864-2.686 92.889-1.426 62.114 2 123.878 8.641 185.478 16.789 30.886 3.945 61.747 8.221 92.82 10.761 21.375 1.773 42.956 2.618 64.431 1.895a474 474 0 0 0 17.59-1.01c2.97-.221 5.956-.437 8.855-1.366 20.705 7.993 36.901 14.86 47.354 19.456zm760.566-45.065 2.217-13.564-.027-.007c1.265-7.637 2.496-15.102 2.496-15.102 1.274.505 2.507.997 3.676 1.468 2.549 1.029 3.08 1.243 3.823 1.432a8 8 0 0 0 1.96.247 7.944 7.944 0 0 0 7.688-5.986 7.9 7.9 0 0 0-.546-5.391c.639.031 1.274.051 1.896.051 11.569 0 20.192-5.376 24.261-15.68l11.343-29.136c.916 10.286 2.275 21.694 4.087 34.222a877 877 0 0 0 2.762 17.754 11.7 11.7 0 0 0-4.639 2.13 3.21 3.21 0 0 0-.904 3.974l9.981 19.956-2.163 28.597c-18.369-7.337-41.389-16.02-67.911-24.965m76.121-7.339-.726-.015-8.046-16.089c.373-.023.72.064 1.006.294 3.096 2.504 6.951 5.617 12.882 3.288 2.057-.809 3.616-.943 4.747-.815zm34.089-126.612c-3.777 43.84-17.545 83.169-27.644 107.061-1.15.205-2.373.536-3.679 1.049-2.157.847-3.26.307-6.461-2.278-3.171-18.844-6.957-44.826-8.192-67.539l31.118-79.928c5.688-14.33 6.166-26.434 1.456-36.022 2.948.508 5.972 1.26 8.798 2.353 6.418 32.241 6.487 53.447 4.604 75.304m-2.363-140.711a3.21 3.21 0 0 0 3.311-.03l3.564-2.19 2.272 2.781a3.21 3.21 0 0 0 3.817.892l2.725-1.238c-1.478 3.825-3.257 8.01-5.099 12.34-4.329 10.181-8.989 21.148-11.566 31.442-5.251-2.18-13.331-4.276-23.57-3.032-2.044-12.94-5.817-27.993-8.605-38.28l1.176-3.996.322.153a3.21 3.21 0 0 0 3.964-.989l1.131-1.528 4.131 2.611a3.22 3.22 0 0 0 3.851-.317l2.442-2.173 4.667 2.717a3.22 3.22 0 0 0 3.618-.263l2.539-2.025z"/><path fill="#FFB46D" d="M821.777 742.378c-5.584.423-11.944.803-17.59 1.01-21.474.724-43.056-.122-64.431-1.895-31.072-2.539-61.934-6.816-92.82-10.761-61.6-8.148-123.364-14.789-185.478-16.789-31.025-1.259-61.95-1.031-92.889 1.426-81.374 6.169-161.848 24.063-243.749 24.669-9.758-.085-19.574.387-29.284-.742-1.945-.271-3.886-.592-5.814-1.127a1.728 1.728 0 0 1 .145-3.364c.165-.036.344-.065.515-.098-2.924-.047-5.51-.107-7.79-.177-29.001 10.731-51.316 20.139-64.504 25.938h859.898c-10.453-4.596-26.649-11.462-47.354-19.456-2.899.929-5.885 1.145-8.855 1.366"/><path fill="#FF7B00" d="M113.127 734.003c101.281.24 200.458-26.316 301.754-27.227 46.814-.244 93.509 2.482 140.092 6.782 77.402 6.444 153.955 22.56 231.651 24.235 7.476.095 15.688-.017 23.167-.352 3.336-.09 6.663-.325 9.988-.562a1342 1342 0 0 0-66.2-22.922c-75.609-23.981-189.993-52.567-305.542-52.567s-229.933 28.586-305.542 52.567a1342 1342 0 0 0-59.904 20.573c2.28.07 4.867.13 7.79.177 6.375-1.237 16.328-.679 22.746-.704"/></svg>