<svg
  xmlns="http://www.w3.org/2000/svg"
  width="1080"
  height="1080"
  fill="none"
  viewBox="0 0 1080 1080"
>
  <path
    fill="#000"
    d="M795.977 339.894a6.9 6.9 0 0 0 4.248 3.178q.114.029.228.049c.241.044 24.483 4.511 62.537 14.497 30.629 8.037 57.817 18.615 58.088 18.721q.197.077.399.128a6.3 6.3 0 0 0 1.539.176c2.003 0 4.154-.734 5.128-1.111 2.819-1.094 4.609-2.507 5.353-4.206.362-.567.66-1.185.848-1.864l35.478-104.999q.041-.122.073-.248a6.88 6.88 0 0 0-.757-5.252 6.88 6.88 0 0 0-3.997-3.108c-2.513-1.002-29.678-11.688-69.289-21.491-49.367-12.219-69.384-13.476-70.22-13.524a10 10 0 0 0-1.537.036c-3.993.139-10.279 4.086-11.11 7.346a4 4 0 0 0-.059.28L795.18 334.804a6.88 6.88 0 0 0 .797 5.09m10.369-5.997 17.702-106.027c.197-.12.645-.276 1.201-.241.198.012 20.374 1.307 68.97 13.336 40.89 10.119 68.282 21.155 68.554 21.266q.215.086.439.144c.049.013.091.071.097.123l-35.441 104.891a4 4 0 0 0-.073.248.14.14 0 0 1-.094.096c-3.223-1.242-29.321-11.179-58.506-18.838-36.523-9.584-60.461-14.126-62.846-14.571a.135.135 0 0 1-.061-.148q.035-.138.058-.279"
  />
  <path
    fill="#DB00F8"
    d="M125.382 265.83a15.7 15.7 0 0 1 2.536 7.072l4.178 40.895a173.3 173.3 0 0 0 9.654 41.916l.545 1.491c6.84-9.929 23.811-24.272 40.362-35.987 13.094-9.267 26.15-17.154 36.764-22.207 4.577-2.179 8.229-3.608 11.164-4.486l-2.106-1.52a3 3 0 0 1-.138-.104c-20.72-16.622-79.967-33.674-80.564-33.844a3 3 0 0 1-.184-.058 15.6 15.6 0 0 1-7.391-5.415l-8.732-11.695c-1.381-1.849-3.815-2.563-5.916-1.73a26.3 26.3 0 0 0-5.428 2.925l-.083.06-.096.067c-4.634 3.282-5.187 6.645-1.894 11.597z"
  />
  <path
    fill="#FF7B00"
    d="M211.977 315.678c-.577.895-1.172 1.776-1.923 2.558-.959 1.039-2.365 1.008-3.379.368l-5.411 7.841-.107.116c.03.028.064.047.093.076a3.4 3.4 0 0 1-.025 4.809c-9.982 9.879-23.215 15.32-37.26 15.32-.86 0-1.723-.029-2.582-.07-9.216 8.327-14.081 14.386-15.194 17.11 5.079-.188 23.142-7.529 50.169-26.659 26.009-18.409 38.524-32.452 40.396-37.037-3.019.111-10.63 2.753-21.986 8.897-.618 2.34-1.517 4.61-2.791 6.671"
  />
  <path
    fill="#FF7B00"
    d="M978.633 651.522c4.985 10.148 4.479 22.96-1.541 38.128l-32.937 84.599c1.308 24.041 5.315 51.542 8.671 71.487 3.388 2.736 4.555 3.307 6.839 2.411a20.3 20.3 0 0 1 3.893-1.11c10.689-25.288 25.263-66.917 29.26-113.319 1.993-23.134 1.92-45.58-4.873-79.705-2.991-1.157-6.192-1.954-9.312-2.491m4.633 92.8c-1.738 15.362-4.959 30.591-9.256 45.425-3.308 11.031-7.094 22.135-11.942 32.616-.901 1.89-3.83.733-3.099-1.298 6.091-17.931 10.809-36.424 14.298-55.04.932-5.419 1.907-11.4 2.625-16.821.422-3.272.801-8.036 1.364-11.253.381-1.881.924-3.766 1.94-5.614a1.934 1.934 0 0 1 3.527.294c1.28 3.869 1.088 7.767.543 11.691"
  />
  <path
    fill="#FF7B00"
    d="M982.01 583.618a3.405 3.405 0 0 1-3.831.279l-4.939-2.876-2.584 2.3a3.41 3.41 0 0 1-4.077.335l-4.373-2.763-1.197 1.617a3.4 3.4 0 0 1-4.195 1.047l-.341-.162-1.245 4.23c2.951 10.888 6.945 26.82 9.109 40.517 10.837-1.317 19.389.901 24.947 3.209 2.727-10.896 7.66-22.504 12.246-33.279 1.95-4.584 3.83-9.013 5.39-13.062l-2.88 1.311c-1.41.64-3.06.252-4.042-.945l-2.404-2.943-3.773 2.317a3.4 3.4 0 0 1-3.504.033l-5.62-3.308z"
  />
  <path
    fill="#FF7B00"
    d="M962.151 854.476c-6.276 2.466-10.358-.829-13.634-3.48-.303-.244-.67-.335-1.065-.311l8.517 17.029.767.017 10.44-14.117c-1.197-.136-2.847.007-5.025.862"
  />
  <path
    fill="#FF7B00"
    d="M973.462 643.991c5.038.454 10.871 1.431 16.297 3.433l1.026-7.778c-3.597-2.128-13.071-6.594-26.735-4.612l-.018 1.736c3.119 1.689 6.468 4.025 9.43 7.221"
  />
  <path
    fill="#000"
    d="M981.818 731.561a1.933 1.933 0 0 0-2.622.776c-1.017 1.848-1.559 3.732-1.94 5.614-.564 3.217-.942 7.98-1.365 11.253-.717 5.42-1.693 11.402-2.625 16.821-3.488 18.616-8.206 37.109-14.298 55.04-.73 2.03 2.198 3.188 3.1 1.298 4.847-10.481 8.634-21.585 11.942-32.616 4.297-14.834 7.518-30.064 9.255-45.425.546-3.924.738-7.822-.543-11.692a1.94 1.94 0 0 0-.904-1.069"
  />
  <path
    fill="#000"
    d="M501.15 325.342a3.627 3.627 0 0 0 5.133-.255 3.63 3.63 0 0 0-.256-5.131l-24.985-22.621a3.633 3.633 0 1 0-4.877 5.387z"
  />
  <path
    fill="#FFB46D"
    d="M407.281 285.488a3.63 3.63 0 0 1-2.673 1.172 3.63 3.63 0 0 1-2.462-.962l-10.436-9.618c-.124-.115-.224-.244-.328-.37-1.776.194-3.454.383-5.044.567l1.724 10.388c9.983 11.236 23.79 30.181 34.471 57.812l6.2 5.713a3.6 3.6 0 0 1 .544.646c13.301-.796 27.24-1.339 41.789-1.629l-3.571-3.29a3.633 3.633 0 0 1-.209-5.134 3.63 3.63 0 0 1 5.134-.21l9.192 8.471q17.81-.203 36.767.084v-56.817l-16.658-15.29a3.633 3.633 0 1 1 4.914-5.353l11.744 10.779v-12.959c-6.644-.025-13.113.004-19.408.077-17.064.197-32.806.724-47.021 1.433l4.106 3.717a3.634 3.634 0 0 1-4.877 5.387l-9.444-8.549c-15.914.934-29.62 2.071-40.779 3.166l6.115 5.635a3.634 3.634 0 0 1 .21 5.134m68.628 12.102a3.634 3.634 0 0 1 5.132-.254l24.986 22.62a3.63 3.63 0 0 1 .256 5.131 3.627 3.627 0 0 1-5.133.255l-24.986-22.62a3.634 3.634 0 0 1-.255-5.132m-52.189 3.047a3.634 3.634 0 0 1 5.134-.211l22.307 20.557a3.633 3.633 0 0 1 .21 5.134 3.63 3.63 0 0 1-2.673 1.172c-.88 0-1.763-.319-2.461-.962L423.93 305.77a3.63 3.63 0 0 1-.21-5.133"
  />
  <path
    fill="#000"
    d="M446.237 326.327a3.62 3.62 0 0 0 2.461.962 3.634 3.634 0 0 0 2.464-6.306l-22.307-20.557a3.634 3.634 0 1 0-4.925 5.344z"
  />
  <path
    fill="#FFB46D"
    d="M448.652 218.447a3.633 3.633 0 0 1 .219 5.133 3.62 3.62 0 0 1-2.677 1.177 3.62 3.62 0 0 1-2.456-.957L428.1 209.447c-4.083 8.856-9.025 17.652-14.826 26.33a211 211 0 0 1-2.158 3.155 223 223 0 0 1-6.587 9q7.4-.702 15.11-1.284c14.658-1.106 30.152-1.885 46.448-2.334l-3.022-2.774a3.634 3.634 0 0 1 4.914-5.353l8.592 7.886a1344 1344 0 0 1 41.808-.106v-3.845l-.611-.577a3.633 3.633 0 0 1-.147-5.135 3.6 3.6 0 0 1 .758-.596v-52.371a3.6 3.6 0 0 1-1.856-.985l-10.077-9.993a3.633 3.633 0 0 1 5.117-5.16l6.816 6.76v-9.093c-29.325-.117-55.333.792-77.16 2.083-1.627 12.427-4.99 24.927-10.054 37.342zm30.047-20.787a3.63 3.63 0 0 1 5.137-.148l19.461 18.375a3.633 3.633 0 0 1 .147 5.136 3.62 3.62 0 0 1-2.642 1.139 3.63 3.63 0 0 1-2.495-.992l-19.46-18.375a3.633 3.633 0 0 1-.148-5.135m-29.322-27.687a3.635 3.635 0 0 1 5.137-.147l10.319 9.743a3.63 3.63 0 0 1 .147 5.135 3.63 3.63 0 0 1-2.642 1.14 3.62 3.62 0 0 1-2.494-.992l-10.319-9.743a3.634 3.634 0 0 1-.148-5.136"
  />
  <path
    fill="#000"
    d="M459.844 184.852a3.62 3.62 0 0 0 2.494.992 3.633 3.633 0 0 0 2.495-6.275l-10.319-9.743a3.634 3.634 0 1 0-4.989 5.283z"
  />
  <path
    fill="#000"
    d="M600.601 307.763a3.632 3.632 0 1 0-4.989 5.283l19.46 18.375a3.62 3.62 0 0 0 2.494.993 3.634 3.634 0 0 0 2.495-6.276z"
  />
  <path
    fill="#000"
    d="M498.308 221.171a3.62 3.62 0 0 0 2.494.992 3.634 3.634 0 0 0 2.495-6.276l-19.461-18.375a3.634 3.634 0 0 0-4.989 5.284z"
  />
  <path
    fill="#FFB46D"
    d="M635.734 288.455a3.633 3.633 0 0 1 .022 5.138 3.62 3.62 0 0 1-2.58 1.075c-.925 0-1.85-.351-2.559-1.053l-19.09-18.934a3.6 3.6 0 0 1-.919-1.583 1317 1317 0 0 0-49.969-2.758c.372.164.728.379 1.04.673l19.461 18.375a3.634 3.634 0 0 1 .148 5.136 3.63 3.63 0 0 1-2.643 1.14c-.895 0-1.792-.33-2.494-.993l-19.461-18.375a3.63 3.63 0 0 1-.148-5.135c.406-.43.895-.724 1.415-.911q-1.233-.043-2.465-.082c-4.159-.134-8.317-.256-12.474-.35v36.394a3.6 3.6 0 0 1 2.273.936l19.328 17.74a3.633 3.633 0 0 1 .22 5.134 3.63 3.63 0 0 1-2.678 1.177 3.62 3.62 0 0 1-2.456-.957l-16.687-15.316v34.771c13.735.423 27.056 1.006 39.717 1.683l-7.339-6.736a3.633 3.633 0 1 1 4.914-5.353l10.455 9.596a3.62 3.62 0 0 1 1.148 3.007c9.564.559 18.695 1.163 27.268 1.785a215 215 0 0 1 6.807-16.947c6.189-13.673 13.003-24.828 19.353-33.633 3.735-5.178 7.309-9.561 10.49-13.142l2.072-12.478a1301 1301 0 0 0-36.822-3.558zm-15.525 42.819a3.63 3.63 0 0 1-2.643 1.14c-.895 0-1.792-.33-2.494-.993l-19.46-18.375a3.63 3.63 0 0 1-.148-5.135 3.635 3.635 0 0 1 5.137-.148l19.46 18.375a3.634 3.634 0 0 1 .148 5.136"
  />
  <path
    fill="#FFB46D"
    d="M543.018 163.303v33.198l16.354 16.219a3.634 3.634 0 0 1 .022 5.139 3.63 3.63 0 0 1-2.581 1.075 3.62 3.62 0 0 1-2.558-1.054l-11.237-11.144v37.741c13.684.389 26.983.942 39.66 1.593l-9.332-9.256a3.634 3.634 0 1 1 5.117-5.16l15.133 15.008c16.287.932 31.35 2.004 44.623 3.069a221 221 0 0 1-7.599-10.662 208 208 0 0 1-3.438-5.333 3.6 3.6 0 0 1-1.248-.802l-25.166-24.861a3.633 3.633 0 1 1 5.107-5.17l9.885 9.765c-7.129-15.479-11.609-31.138-13.369-46.667a1316 1316 0 0 0-59.373-2.698m38.314 20.462a3.62 3.62 0 0 1-2.585 1.08 3.62 3.62 0 0 1-2.554-1.049l-10.096-9.973a3.634 3.634 0 1 1 5.107-5.17l10.097 9.973a3.635 3.635 0 0 1 .031 5.139"
  />
  <path
    fill="#000"
    d="M571.204 168.653a3.633 3.633 0 1 0-5.107 5.17l10.096 9.973a3.62 3.62 0 0 0 2.554 1.049 3.634 3.634 0 0 0 2.554-6.218z"
  />
  <path
    fill="#AD5400"
    d="M524.165 249.836c-.649.639-1.541.946-2.437.978-46.388-.688-87.659.837-123.166 4.544a228 228 0 0 1-12.9 14.157c25.203-2.906 73.386-7.182 136.139-6.811a3.4 3.4 0 0 1 3.378 3.401v86.479a3.4 3.4 0 0 1-3.459 3.4c-34.368-.601-65.962 0-94.535 1.79a232 232 0 0 1 3.586 12.565c22.079-1.411 48.834-2.477 79.305-2.477 30.997 0 65.841 1.106 103.499 4.069a231 231 0 0 1 3.369-11.597c-22.733-1.627-49.258-3.129-77.424-3.939a3.4 3.4 0 0 1-3.302-3.399v-86.652c0-.913.368-1.789 1.02-2.428.653-.64 1.547-.959 2.448-.971 38.844.777 77.781 3.289 116.211 7.474a230 230 0 0 1-11.921-13.395c-27.746-2.316-64.562-4.788-104.447-5.84a3.4 3.4 0 0 1-3.311-3.399v-87.956c0-.913.368-1.789 1.02-2.427.653-.64 1.548-.971 2.448-.972 20.707.415 41.438 1.328 62.104 2.717q-.247-3.978-.253-7.938c-63.609-4.347-118.418-3.426-159.197-1.145a132 132 0 0 1-.402 8.164c22.581-1.313 49.517-2.221 79.863-2.039a3.4 3.4 0 0 1 3.378 3.4v87.825c0 .911-.365 1.784-1.014 2.422"
  />
  <path
    fill="#AD5400"
    d="M601.709 144.408q.303-5.838 1.139-11.615c-46.526-2.923-105.276-4.937-161.642-2.168q.853 6.284 1.075 12.637c40.936-2.277 95.809-3.185 159.428 1.146"
  />
  <path
    fill="#AD5400"
    d="m756.315 159.868 7.597.72a18.3 18.3 0 0 1-.318-3.335c0-1.946.309-3.819.873-5.581l-8.154-1.257c.084 2.928.082 6.095.002 9.453"
  />
  <path
    fill="#AD5400"
    d="m287.527 150.027-1.287.199a18.2 18.2 0 0 1 1.314 5.253 189 189 0 0 1-.027-5.452"
  />
  <path
    fill="#FFB921"
    d="M269.273 145.684c-6.379 0-11.569 5.19-11.569 11.569s5.19 11.57 11.569 11.57 11.571-5.19 11.571-11.57c0-6.379-5.191-11.569-11.571-11.569"
  />
  <path
    fill="#FFB921"
    d="M781.963 168.823c6.38 0 11.57-5.19 11.57-11.57 0-6.379-5.19-11.569-11.57-11.569-6.379 0-11.569 5.19-11.569 11.569s5.19 11.57 11.569 11.57"
  />
  <path
    fill="#FF7B00"
    d="M411.228 390.494c4.169 2.835 7.672 6.174 10.518 9.984 4.594-3.61 6.813-7.452 6.161-11.139-6.964-39.378-22.087-67.171-33.548-83.552a164 164 0 0 0-10.494-13.48c-4.404 2.703-9.228 5.314-14.626 7.557 11.798 10.21 24.786 29.203 28.051 43.188.477 2.048-2.231 3.347-3.522 1.695-5.364-7.183-9.286-15.239-14.568-22.456-5.092-7.029-10.598-13.828-17.05-19.631-.058-.048-.098-.101-.152-.15-7.948 2.505-17.068 4.118-27.803 4.118-4.172.001-8.591-.242-13.272-.768l-.059-.012c-.048 5.986-.355 12.104-.676 18.342-.861 16.782-1.8 35.108 2.247 54.889 42.586-4.159 71.526-.331 88.793 11.415"
  />
  <path
    fill="#FF7B00"
    d="M317.952 278.155c8.525 1.523 19.242.589 29.409-1.209.039-.198.081-.396.155-.603 2.721-10.682 3.795-21.976 5.147-32.931.734-6.614 1.254-13.926 3.066-20.345.547-2.071 3.621-1.903 3.926.219 1.339 9.262.23 18.461-.572 27.698-.932 8.192-1.897 16.548-4.302 24.49a228 228 0 0 0 9.017-2.174 3.3 3.3 0 0 1 .287-1.034c7.859-18.21 13.804-37.516 17.329-57.049 1.291-6.533 2.187-13.094 3.649-19.7a1.986 1.986 0 0 1 2.377-1.559c.87.192 1.48.933 1.548 1.777.201 2.462.226 5.255.244 7.743-.714 18.01-5.182 35.747-11.11 52.708-1.834 5.053-3.776 9.94-6.032 14.785a253 253 0 0 0 3.328-1.022c6.799-6.341 20.049-19.729 32.312-38.113 15.875-23.801 33.303-61.115 26.218-103.773-.384-.451-4.038-3.69-28.887-2.831-12.211.421-27.62 1.728-47.109 3.994-40.787 4.746-58.218 10.447-63.284 12.402-2.319 28.441 6.261 90.321 21.38 130.584a65 65 0 0 1 1.904 5.943m-1.05-72.518c.367-2.136 3.491-2.192 3.919-.065 1.035 5.254 1.459 10.726 1.911 16.043.67 7.914 1.636 15.809 3.118 23.605 1.554 7.441 3.275 15.062 6.649 21.881 2.248 3.757-3.007 7.216-5.546 3.641-9.246-15.124-12.935-47.663-10.051-65.105"
  />
  <path
    fill="#FFB921"
    d="m381.067 286.047-1.695-10.211c-10.459 3.424-39.704 12.09-60.429 9.353.333 6.692 1.552 12.762 2.924 13.934 27.902 3.096 45.068-4.263 59.2-13.076"
  />
  <path
    fill="#000"
    d="M332.499 267.101c-3.374-6.819-5.095-14.44-6.649-21.882-1.482-7.795-2.448-15.69-3.118-23.604-.452-5.317-.876-10.789-1.91-16.043-.428-2.127-3.553-2.072-3.92.065-2.883 17.442.805 49.981 10.052 65.105 2.538 3.575 7.794.116 5.545-3.641"
  />
  <path
    fill="#FF7B00"
    d="M649.535 309.079c-11.461 16.381-26.585 44.175-33.548 83.552-.713 4.029 2.008 8.242 7.504 12.136 3.137-5.04 7.301-9.342 12.489-12.871 16.873-11.478 44.891-15.396 85.899-11.688 3.555-18.955 2.657-36.558 1.826-52.726-.32-6.238-.628-12.356-.675-18.342-.02.003-.038.01-.059.012-4.682.526-9.1.768-13.272.768q-2.21 0-4.33-.09c3.279 8.17 5.013 19.814 2.41 26.696-.613 1.732-3.249 1.728-3.875.028-1.789-4.781-1.66-9.872-2.749-14.781-.873-4.299-2.027-8.515-3.61-12.589a87.5 87.5 0 0 1-15.354-3.284c-4.344 9.275-9.084 19.34-12.888 28.71-1.438 3.406-2.886 6.74-4.902 9.891a2.027 2.027 0 0 1-3.716-1.208c.082-1.919.329-3.812.751-5.641 2.201-9.077 6.086-17.666 10.069-26.074a135 135 0 0 1 4.228-7.973c-5.841-2.338-11.006-5.123-15.704-8.007a164 164 0 0 0-10.494 13.481"
  />
  <path
    fill="#FF7B00"
    d="M668.478 273.242c8.05 2.536 23.694 6.984 38.533 8.471a3.3 3.3 0 0 1-.028-1.661c5.187-25.472 6.886-51.833 6.645-77.823.012-8.794-.346-17.522-.039-26.335.104-2.284 3.47-2.567 3.912-.288 1.697 8.73 2.606 17.586 2.925 26.459.668 17.715-.006 35.648-2.202 53.235-1.098 8.944-2.555 17.616-4.82 26.419-.041.153-.104.293-.165.435 4.516.172 8.834-.016 12.703-.707a65 65 0 0 1 1.904-5.943c15.12-40.267 23.7-102.147 21.38-130.586-5.046-1.946-22.472-7.651-63.285-12.4-19.489-2.267-34.898-3.573-47.108-3.994-24.853-.863-28.503 2.38-28.887 2.831-7.085 42.658 10.342 79.972 26.218 103.772 12.264 18.386 25.516 31.775 32.314 38.115m9.312-70.089c.254-2.168 3.397-2.371 3.918-.253 2.493 10.692 2.841 21.743 4.134 32.602 1.146 10.6 2.366 21.814 3.856 32.359.561 4.222-5.473 5.385-6.517 1.24-2.262-10.893-3.55-21.849-4.558-32.896-.846-11.014-2.079-21.997-.833-33.052"
  />
  <path
    fill="#FFB921"
    d="M722.027 302.415c1.372-1.172 2.591-7.242 2.924-13.934-20.722 2.735-49.969-5.929-60.429-9.353l-1.695 10.21c14.131 8.814 31.298 16.177 59.2 13.077"
  />
  <path
    fill="#000"
    d="M683.182 269.102c1.043 4.144 7.077 2.982 6.516-1.241-1.489-10.545-2.709-21.759-3.855-32.359-1.293-10.858-1.641-21.909-4.135-32.602-.521-2.118-3.664-1.915-3.918.253-1.246 11.055-.013 22.038.834 33.052 1.007 11.047 2.295 22.004 4.558 32.897"
  />
  <path
    fill="#AD5400"
    d="M623.962 643.201c2.082-3.092 4.586-5.828 7.606-7.971 6.266-4.447 13.728-6.399 21.925-5.82a130 130 0 0 1 2.358-4.6c-5.631-.791-12.95-2.093-21.765-4.239-4.022-.979-7.748-2.093-11.24-3.375 1.226 7.112 1.686 14.298 1.26 21.17z"
  />
  <path
    fill="#AD5400"
    d="M639.805 397.518c-9.113 6.199-14.351 14.843-16.015 26.426l-10.406 86.458a21.6 21.6 0 0 1 2.465 5.735c.242.89.438 1.765.602 2.631 7.699 3.046 10.948 13.719 13.85 23.27 2.334 7.681 5.01 16.35 8.837 16.247 6.497-.242 17.465.343 25.743.896-3.734-4.783-6.413-10.403-8.091-16.236a32 32 0 0 1-4.095-5.896c-5.649-10.545-4.832-23.286-1.515-31.235.247-.592 1.309-2.421 1.551-2.784-4.606-5.052-8.338-10.871-10.614-17.386-4.006-13.251 2.575-27.376 10.206-37.754 2.171-2.984 4.491-5.817 6.873-8.557 2.003-2.249 3.383-5.122 4.473-8.28 1.361-3.617 1.671-7.094 3.483-10.742 1.194-2.315 4.183-3.273 6.395-1.604.127.079 2.313 1.864 2.51 2.03 1.033.844 2.056 1.703 3.079 2.562a10.3 10.3 0 0 1 1.916-2.073 10.63 10.63 0 0 1 8.623-2.203l99.982 18.166a15 15 0 0 1 5.786 2.366l23.928 16.289a635 635 0 0 0 14.772-6.724c3.657-1.706 7.493-3.592 11.134-5.345 7.545-2.598 7.633 9.196 8.662 13.754.891 5.114 1.645 9.878 3.86 14.265 3.632 6.958 6.405 14.587 6.739 22.515.213 9.366-1.657 19.259-8.117 26.104a41 41 0 0 1-2.723 2.687c-4.263 3.828-9.293 6.741-14.685 8.633a45.3 45.3 0 0 1-9.253 2.191 2 2 0 0 0-.608.191c-.084.041-.17.075-.245.13a6 6 0 0 0-.408.33 1.8 1.8 0 0 0-.384.49 2.1 2.1 0 0 0-.207.59q-.031.162-.066.325a68 68 0 0 1-.77 3.516c-.87 3.422-2 6.769-3.339 10.026 2.213 1.782 4.547 4.007 6.939 6.6 20.23 14.794 73.593 51.906 109.292 59.292l33.155-112.686c3.673-11.577 2.898-21.678-2.348-30.945-14.085-24.884-60.899-46.043-147.327-66.589-97.197-23.105-157.266-25.615-183.639-7.676"
  />
  <path
    fill="#AD5400"
    d="M884.928 689.437c2.044-6.464 5.002-12.903 8.629-19.012-9.312-2.735-18.498-6.393-26.825-10.679-.937 16.906-4.359 35.374-12.42 53.101a670 670 0 0 1 19.219 8.271z"
  />
  <path
    fill="#AD5400"
    d="M415.046 615.575c3.069 5.197 5.7 10.298 7.906 15.301.092-8.489 1.422-17.271 3.815-25.659-8.175 2.771-13.028 3.845-15.628 4.258a106 106 0 0 1 3.907 6.1"
  />
  <path
    fill="#AD5400"
    d="m120.739 603.027.442-.099.451.021c31.463 1.428 79.813-27.215 103.437-42.647a79 79 0 0 1-2.12-2.181c-6.074-6.455-10.721-13.805-14.001-21.641a5.6 5.6 0 0 0-1.125-.57c-1.759.096-3.521.09-5.265-.021-12.115-.789-24.866-6.082-31.424-16.861-6.692-12.223-7.27-25.406-3.143-38.589 1.742-4.998 1.795-10.341 1.693-15.678.116-4.381-.776-9.064 1.337-13.339.669-1.212 2.108-2.362 3.576-2.581.844-.15 2.286-.422 3.146-.577 5.186-.964 11.62-1.95 16.831-2.596 13.505-1.68 27.07-2.507 40.665-2.636l.239.009c8.6-6.489 18.554-11.589 29.041-14.923a69 69 0 0 0-3.017-3.601c-1.027-1.291.307-3.213 1.863-2.733 2.892.819 5.552 2.405 7.761 4.487a95 95 0 0 1 6.955-1.413c.042-.564.109-1.125.22-1.671.359-2.234 3.513-9.172 6.338-6.451.28.325.426.72.443 1.118.043 2.118-.043 4.12-.003 6.132a83.5 83.5 0 0 1 13.01-.097c.853-.702 1.988-1.138 2.953-1.657 3.053-1.417 6.413-2.608 9.654-3.469 14.499-3.89 29.761-4.361 44.663-3.868 3.568-.189 5.462 2.548 6.1 5.331 1.069 4.576 1.272 9.5 3.642 13.171 1.655 2.685 4.544 4.215 6.436 6.697 2.341 2.75 4.196 5.76 5.747 8.877 3.661 7.787 6.982 18.21 4.708 26.942 3.757 7.747 7.865 20.109 3.843 32.042-1.257 3.732-3.211 7.113-5.847 10.133-.706 4.041-1.891 7.997-3.685 11.776-1.961 4.195-4.669 7.96-7.885 11.233 10.879 1.971 37.865 6.674 46.446 6.45 5.096-.124 12.549-9.001 19.185-16.983.134-.957.392-1.814.785-2.578a6.3 6.3 0 0 1 1.093-1.511l-12.519-104.011c-1.654-11.506-6.892-20.149-16.005-26.348-11.549-7.857-29.562-11.791-54.324-11.791-31.782 0-74.683 6.48-129.315 19.467-86.428 20.546-133.242 41.705-147.328 66.588-5.246 9.268-6.02 19.368-2.369 30.877l34.806 118.295c2.841-13.982 10.685-16.262 11.866-16.525m173.066-197.324c2.633-1.045 5.481-.411 7.91.718 1.943.895 4.319 2.544 2.707 4.933-.644.9-1.694 1.115-2.698 1.031-1.101-.044-2.445-.228-3.554-.283-.801-.053-2.141.001-2.896-.159l-.971-.222c-2.997-.658-3.303-4.898-.498-6.018"
  />
  <path
    fill="#F295FF"
    d="M458.384 522.676c-.351.781-.784 3.667-.305 6.051a24.4 24.4 0 0 1 3.074 2.991c-.431-3.862-.671-7.738-.782-11.382-1.045.714-1.575 1.527-1.987 2.34"
  />
  <path
    fill="#FFB921"
    d="M447.36 522.989c-.06.408-.086.798-.128 1.197 1.334.141 2.628.399 3.876.782.171-2.382.717-4.392 1.21-5.366 1.662-3.279 4.144-5.43 7.981-6.73q.015-1.489.049-2.843c-5.154 1.382-11.785 4.746-12.988 12.96"
  />
  <path
    fill="#FFB921"
    d="M467.39 504.262c-.199 3.591-.441 10.006-.176 17.115.226 6.056.767 11.411 1.603 15.979 4.441 1.63 30.688 10.247 56.553-2.936-.178-3.871-.246-8.291-.254-12.607-.914-8.449-2.194-17.423-2.796-21.513-1.5.586-3.301 1.109-5.35 1.62-5.716 1.428-13.154 2.542-20.945 3.138-3.945.303-7.932.454-11.771.454-3.759 0-7.375-.145-10.671-.435-2.493-.219-4.527-.483-6.193-.815"
  />
  <path
    fill="#FF7B00"
    d="M501.044 559.426c18.528-1.985 23.379-10.973 24.65-17.609-11.054 5.073-21.938 6.709-31.346 6.709-10.076 0-18.457-1.863-23.549-3.353.789 2.296 1.695 4.242 2.72 5.787 3.522 5.305 13.395 9.985 27.525 8.466"
  />
  <path
    fill="#AD5400"
    d="M473.603 498.254c5.299.494 13.083.699 21.903.025 2.499-.192 4.837-.429 7.013-.695-.105-.949-.023-1.815.028-2.319.05-.498.099-1.023.097-1.574a80 80 0 0 0-7.356.226c-8.651.664-16.464 2.574-21.685 4.337"
  />
  <path
    fill="#AD5400"
    d="M173.568 719.771a472 472 0 0 1 41.853-16.425c-7.081-17.98-9.654-36.449-9.862-53.287-12.261 5.671-26.244 9.985-39.735 12.158-5.565.898-10.865 1.385-15.858 1.519 5.332 7.743 9.613 16.238 12.312 24.773z"
  />
  <path fill="#F295FF" d="m592.615 552.135-.021-.021-.007.011z" />
  <path fill="#F295FF" d="m583.407 561.408.024-.058-.077.047z" />
  <path
    fill="#F295FF"
    d="M950.748 623.507c-18.849-.228-46.792-11.718-83.077-34.163-22.501-13.917-41.479-27.995-47.407-32.476a88 88 0 0 1-1.251 2.248 74 74 0 0 1-1.321 2.205 3.8 3.8 0 0 1-1.481 1.366 3.6 3.6 0 0 1-1.122.354c-.047.007-.092.023-.14.028a3 3 0 0 1-.489.016 3.16 3.16 0 0 1-1.434-.404 3.4 3.4 0 0 1-1.222-4.769c3.843-6.169 6.761-12.886 8.542-19.884-3.393-1.343-13.351-5.619-19.015-11.604-2.107-1.743-3.991-3.738-5.554-5.96a2.027 2.027 0 0 1 3.012-2.679c3.038 2.657 6.284 4.905 9.816 6.493 14.017 6.487 32.224 2.947 42.677-8.469 2.509-2.807 4.409-6.033 5.177-9.519 1.979-7.861 1.797-15.61-.955-23.147-1.247-3.954-3.53-7.749-5.001-11.606-2.589-7.077-2.718-14.185-4.431-21.163-16.681 7.66-33.545 15.046-51.049 20.667-.203.053-.499.142-.854.254q-.335.106-.725.234a188 188 0 0 0-3.13 1.067 4 4 0 0 0-1.372.811 3.85 3.85 0 0 0-.938 1.286 63 63 0 0 1-1.528 3.164c-2.766 5.337-6.624 10.887-11.522 15.001a31 31 0 0 1-4.14 2.954 26.6 26.6 0 0 1-3.391 1.701 24 24 0 0 1-3.635 1.172 22.8 22.8 0 0 1-5.222.604c-1.996 0-4.075-.257-6.241-.812-15.3-3.923-22.595-20.645-26.009-33.729-.893-.761-1.897-.522-2.748-.004-6.392 10.957-14.544 15.947-23.227 13.836-3.815-.927-7.256-2.948-10.258-5.961-1.402 0-2.938.639-3.984 1.182-3.954 3.574-7.483 7.811-10.453 12.846-1.839 3.099-3.696 6.176-4.891 9.596-.721 2.926-2.366 4.892-4.459 6.349l54.242 13.947c2.082.536 3.794 1.847 4.819 3.694 1.162 2.092 1.373 4.737.58 7.26-2.89 9.187-11.892 28.633-36.208 28.633-3.143 0-6.541-.325-10.215-1.038-3.492-.678-6.556-1.628-9.283-2.75a4 4 0 0 0-.507.059c-.616.111-.994.343-1.226.594a1.3 1.3 0 0 0-.27.441q-.024.06-.04.115v.002c8.114 12.424 23.671 16.556 37.723 17.581 2.234.054 2.53 3.27.359 3.737-11.783 2.129-24.182-1.263-33.786-8.318-6.881-.529-24.479-1.784-33.098-1.469-9.084.32-12.395-10.545-15.592-21.065-1.895-6.237-3.975-13.048-7.025-16.674a20.4 20.4 0 0 1-1.833 6.156c.389 3.099.307 6.165.135 8.728-.418 6.237-3.759 10.417-9.662 12.088-2.017.571-3.768.809-5.288.809-.361 0-.694-.026-1.029-.052-2.798.305-10.516 1.572-15.059 6.509 17.812 4.776 31.3 25.028 37.101 47.617 4.365 1.902 9.157 3.452 14.561 4.767 1.115.272 2.2.526 3.266.771 4.405.269 17.051.54 25.714-4.309 7.877-11.731 14.794-20.493 14.871-20.591a3.4 3.4 0 0 1 5.332 4.221c-.085.107-8.512 10.783-17.288 24.293-2.667 4.105-5.022 8.15-7.075 12.133q1.153.269 2.321.599c9.545 2.708 18.957 8.424 25.395 14.946 7.177-5.872 16.436-8.996 26.282-8.752 14.679.256 28.616 6.354 39.578 15.835 7.415 6.781 13.906 14.336 19.218 22.881 1.193 2.068-1.481 4.138-3.176 2.513-8.361-7.817-15.691-16.839-24.873-23.668-20.735-15.133-53.911-16.286-62.578 12.375-2.11 8.251-3.167 16.74-3.833 25.293 14.595 3.035 41.846 7.347 62.27 6.411a10.3 10.3 0 0 1 3.73.52c.655-3.804 1.303-7.577 1.947-11.261.321-1.8.731-4.147 1.18-6.013 1.015-3.688 5.804-3.088 6.578-.087l3.704-1.046c29.158 7.475 59.513 17.156 89.744 29.261 8.273-18.08 11.467-37.058 12.094-54.193a119 119 0 0 1-2.65-1.612l-.013-.01-.084-.051c-.09-.056-.16-.13-.243-.193-.058-.047-.119-.09-.174-.14a3.37 3.37 0 0 1-1.086-1.86c-.011-.05-.027-.098-.035-.148-.016-.097-.022-.194-.029-.292a3.2 3.2 0 0 1 .115-1.173c.014-.05.025-.099.041-.149.012-.034.016-.069.029-.103.037-.097.094-.177.138-.268.058-.123.113-.245.187-.362.074-.118.162-.22.247-.325.065-.08.112-.166.184-.242.025-.026.055-.045.08-.07.034-.032.07-.059.105-.09q.216-.195.458-.344.069-.042.138-.08.214-.116.441-.2c.079-.03.157-.062.239-.087.073-.021.148-.032.223-.047a3.36 3.36 0 0 1 2.072.182c.075.03.147.071.22.106.089.046.183.075.269.129.742.467 1.511.908 2.267 1.361.667.398 1.321.809 1.998 1.197.766.438 1.553.85 2.331 1.274.676.368 1.341.749 2.025 1.106.802.418 1.621.81 2.433 1.213.681.337 1.352.688 2.039 1.015.821.39 1.656.753 2.485 1.128.694.313 1.381.64 2.079.942.86.372 1.73.716 2.597 1.071.679.278 1.353.57 2.035.838.94.368 1.886.707 2.831 1.054.616.227 1.229.47 1.847.688 1.05.371 2.104.711 3.156 1.056.516.169 1.031.354 1.546.517q2.354.743 4.703 1.397c14.287-20.658 36.118-35.871 55.711-31.83.159.028 1.434.267 3.36.865-1.465-7.25-4.663-9.51-5.663-10.051M708.034 502.189c-.043.069-.178.195-.37.347-.574.457-1.648 1.148-2.214 1.237q-.316.05-.634.05a4.3 4.3 0 0 1-2.174-.599c-1.022-.6-1.728-1.597-1.888-2.667a3.01 3.01 0 0 1 .784-2.529c.8-.87 2.634-1.204 4.266-.463-.011-.14-.017-.284-.062-.399-.283-.723-1.282-1.018-1.292-1.021a1.866 1.866 0 0 1-1.31-2.262 1.846 1.846 0 0 1 2.227-1.332c.285.071 2.813.763 3.805 3.203.749 1.843.367 4.009-1.138 6.435m21.352 4.119a1.854 1.854 0 0 1-2.433 1.207c-2.838-1.072-6.428-2.208-7.298-2.208h-.02c-1.014.137-1.92-.592-2.05-1.607s.613-1.947 1.629-2.077c1.115-.139 3.455.494 5.688 1.228-1.097-.786-2.74-1.213-3.372-1.316a1.855 1.855 0 0 1 .588-3.663c.491.079 4.856.849 6.717 3.803.857 1.359 1.047 2.961.551 4.633m48.321 19.948c-2.462 9.92-17.93 24.222-28.641 21.725-2.799-.266-2.525-4.382.296-4.261-.021-.079.169-.147.276-.214l.395-.196c8.109-3.21 15.663-8.551 21.123-15.423.919-1.098 1.625-2.433 2.422-3.572 1.478-2.089 4.796-.505 4.129 1.941"
  />
  <path
    fill="#AD5400"
    d="M869.194 348.895c29.185 7.659 55.284 17.596 58.507 18.838a.13.13 0 0 0 .093-.096q.033-.126.074-.248l35.441-104.891c-.006-.052-.048-.11-.097-.123a4 4 0 0 1-.439-.144c-.272-.11-27.665-11.147-68.554-21.266-48.596-12.029-68.772-13.324-68.97-13.336-.556-.035-1.005.121-1.202.241l-17.701 106.027a3 3 0 0 1-.059.279.134.134 0 0 0 .062.148c2.385.445 26.323 4.987 62.845 14.571m-47.514-27.202 12.688-75.277a4 4 0 0 1 .058-.274c.775-3.04 3.785-4.927 6.825-4.363 2.277.149 17.262 1.384 50.406 9.588 28.165 6.971 47.568 14.571 49.636 15.393a5.88 5.88 0 0 1 3.374 2.645 5.88 5.88 0 0 1 .608 4.633l-22.359 73.904a5.9 5.9 0 0 1-2.694 3.544 5.88 5.88 0 0 1-4.581.622c-.225-.064-22.746-6.476-44.762-12.252-27.251-7.152-44.612-11.061-44.784-11.1-3.205-.815-5.114-3.951-4.415-7.063"
  />
  <path
    fill="#F295FF"
    d="M234.568 568.511a88 88 0 0 1-4.325-3.456c-7.808 5.148-18.595 11.937-30.676 18.616-32.452 17.943-58.523 26.711-77.552 26.098-1.523.738-8.055 5.042-7.307 24.047 10.925 4.119 21.52 12.605 30.186 23.175 19.919.606 46.172-5.928 66.957-17.791a3.4 3.4 0 0 1 4.639 1.267 3.4 3.4 0 0 1-1.268 4.639c-.502.287-1.02.566-1.531.847-.139.693-.886 4.516-1.242 8.048.423 11.824 2.116 24.352 5.836 36.813 1.574 3.233 3.423 6.765 5.333 9.849 22.456-7.141 45.471-12.596 68.894-16.354-.252-3.883 5.53-5.138 6.676-1.017 2.967 14.881 5.237 30.669 8.255 45.504 1.479 7.484 3.043 14.958 4.95 22.242 1.303 4.465 2.288 9.039 4.582 12.853 8.952-.391 17.929-1.112 26.853-1.989 6.493-.657 12.973-1.432 19.366-2.439-1.027-2.213-2.481-4.632-3.656-6.663-1.121-2.017-2.465-5.886.924-6.446 3.811.031 8.626 7.113 9.879 11.857 4.035-.786 8.073-1.728 11.656-3.355a7.4 7.4 0 0 0 1.103-.653c.157-3.015-1.724-6.495-3.128-9.351-3.481-7.045-8.858-13.483-11.01-21.296-.363-1.826-.435-4.418-.574-6.285-.495-9.472-.882-19.22-1.788-28.573-1.062-8.994-1.653-18.443-5.975-26.449-9.737-18.203-34.028-20.26-51.795-13.628-14.03 4.759-25.026 15.379-34.559 26.316a2.046 2.046 0 0 1-2.959.32 2.04 2.04 0 0 1-.512-2.418c1.774-3.735 4.002-6.955 6.507-10.076 12.668-15.772 32.809-25.079 53.063-24.584 7.322.076 14.845 2.001 21.392 5.601 4.758-4.579 12.024-8.507 20.594-10.944 15.651-4.447 30.722-2.745 41.351 4.679 2.875 2.008 5.278 4.551 7.285 7.428-2.564-8.277-6.493-16.923-11.801-25.911-8.162-13.822-21.622-27.354-21.757-27.489a3.4 3.4 0 0 1 4.808-4.808c.318.317 4.598 4.62 9.816 10.855 2.091.646 11.426 3.286 20.441 1.876a212 212 0 0 0 6.997-2.421c5.949-15.559 15.649-28.768 27.838-34.661-8.467-.623-14.991-6.114-19.47-16.43-1.035-2.384-1.855-4.506-2.476-6.413-6.857 8.02-13.487 14.637-20.358 14.805-9.627.232-38.693-4.89-48.919-6.756-2.812 1.002-10.12 2.992-12.835 3.722a47 47 0 0 1-7.089 2.333c-3.174.735-6.29 1.22-9.677 1.154a2.046 2.046 0 0 1-2.006-2.086c.017-.998.743-1.792 1.674-1.979 17.895-4.49 29.223-12.822 34.395-24.955h-.072c-2.827 1.664-5.99 3.143-9.506 4.419-4.686 1.701-9.331 2.547-13.862 2.547-7.507 0-14.706-2.323-21.277-6.928-9.44-6.616-15.399-16.297-18.111-21.479-1.237-2.362-1.498-5.026-.717-7.309.69-2.013 2.154-3.617 4.123-4.518l50.757-23.22c-2.651-.524-5.242-1.32-7.682-2.625-4.573-2.391-7.701-6.694-10.55-10.735-1.736-2.492-3.397-4.909-5.014-7.513a1.925 1.925 0 0 1 2.688-2.642c2.689 1.784 5.012 4.06 7.073 6.402 5.062 6.204 8.528 9.792 16.674 10.775 2.803.496 6.129.019 8.385 2.11.452.388 2.146 1.731 2.59 2.028-.524-5.336-2.549-10.901-4.581-15.262-1.348-2.734-2.955-5.328-4.848-7.563-2.196-2.628-5.292-4.462-6.968-7.51-2.065-3.362-2.916-7.05-3.478-10.382-.315-1.765-.54-3.884-1.034-5.241l-.083-.004-4.834-.182c-11.102-.336-22.631.027-33.521 2.07a72 72 0 0 0-8.826 2.22c3.684.759 7.297 1.788 10.793 3.137 4.735 2.053 9.947 3.896 13.218 8.102 1.092 1.468-.297 3.557-2.059 3.14-4.8-1.034-8.699-4.075-13.337-5.538a61.4 61.4 0 0 0-13.798-3.343c-18.866-1.869-39.123 2.819-55.725 12.873 2.011.455 3.324 1.254 2.88 2.649a1.64 1.64 0 0 1-1.178 1.079c-4.454 1.186-8.909.804-13.367.982-4.458.122-8.916.315-13.367.594a327 327 0 0 0-39.758 4.858l-5.786 1.165c-.266.884-.334 1.993-.369 3.118-.082 6.501.749 13.987-.758 20.786-.358 1.568-.937 3.439-1.365 5.002-.652 2.559-1.204 5.224-1.537 7.812-.768 6.238-.13 12.369 2.153 18.304 1.315 3.783 3.108 7.334 6.134 10.069 8.951 8.349 22.869 10.937 34.564 7.875 8.118-2.073 15.051-6.889 20.232-13.553a2.028 2.028 0 0 1 3.438 2.106c-1.403 2.963-3.309 5.732-5.596 8.184a5.2 5.2 0 0 1-.51 1.02c-4.757 7.66-14.894 13.288-14.894 13.288s11.562 17.405 20.711 24.102c3.528 2.73-.344 8.057-4.05 5.463m83.916-100.081c.575-2.901 3.253-4.262 3.557-4.407a2.105 2.105 0 0 1 2.802.986 2.1 2.1 0 0 1-.967 2.793c-.012.007-.087.047-.195.117 1.358-.416 2.805-.298 3.773.436a3.83 3.83 0 0 1 1.544 2.984c.038 1.331-.59 2.684-1.681 3.618a5.1 5.1 0 0 1-3.197 1.238l-.096.001a4.32 4.32 0 0 1-3.09-1.292 6 6 0 0 1-.266-.265c-1.847-2.095-2.586-4.183-2.184-6.209m-20.002 7.343c.575-2.901 3.253-4.26 3.557-4.405a2.1 2.1 0 0 1 1.835 3.779 2 2 0 0 0-.198.119c1.358-.418 2.807-.302 3.775.434a3.82 3.82 0 0 1 1.544 2.982c.039 1.331-.589 2.684-1.68 3.619a5.1 5.1 0 0 1-3.197 1.238l-.096.001a4.32 4.32 0 0 1-3.09-1.291 6 6 0 0 1-.268-.267c-1.846-2.095-2.584-4.183-2.182-6.209m-24.966-19.484c1.969-2.033 8.75-5.792 9.814-1.291.202 1.087-.37 1.994-1.127 2.66-.794.763-1.857 1.605-2.664 2.367-.593.541-1.483 1.545-2.121 1.98l-.833.546a3.17 3.17 0 0 1-4.386-.912c-1.252-1.836.028-4.025 1.317-5.35m.688 68.51c3.201 4.207 7.684 7.581 12.651 9.414 3.6 1.327 7.683 1.701 11.569 1.329 1.315-.114 2.774-.3 4.076-.183 2.21-.036 3.356 2.477 1.631 3.949-5.337 3.819-13.82 3.66-19.77 1.237-6.25-2.66-11.578-7.39-14.368-13.632-1.07-2.734 2.643-4.559 4.211-2.114"
  />
  <path
    fill="#FF7B00"
    d="M476.621 456.831c1.641.732 3.66.76 5.27.072 1.618-.691 2.619-4.555 1.464-7.713-.727-1.989-2.002-2.975-3.871-2.975q-1.008 0-2.248.381c-1.382.423-3.218 1.559-3.981 3.051-.483.944-.51 1.966-.086 3.215.646 1.899 1.808 3.235 3.452 3.969"
  />
  <path
    fill="#000"
    d="M473.85 463.041a13.6 13.6 0 0 0 5.513 1.157c1.789 0 3.571-.347 5.197-1.041 5.679-2.423 7.289-10.535 5.182-16.301-2.237-6.122-7.93-8.776-14.498-6.762-2.718.833-6.258 2.966-8.043 6.455-1.321 2.582-1.483 5.523-.47 8.502 1.244 3.659 3.773 6.496 7.119 7.99m-.595-13.394c.763-1.492 2.598-2.628 3.981-3.051q1.24-.381 2.248-.381c1.869 0 3.144.986 3.871 2.975 1.155 3.158.154 7.022-1.464 7.713-1.61.688-3.629.66-5.27-.072-1.645-.734-2.806-2.07-3.452-3.969-.424-1.249-.397-2.271.086-3.215"
  />
  <path
    fill="#FFB921"
    d="M609.287 517.92c-2.177-8.011-9.161-10.559-14.444-11.316q.196 1.342.389 2.818c3.965.833 6.686 2.672 8.727 5.73.486.727 1.084 2.113 1.537 3.838a14.8 14.8 0 0 1 4.587 3.234 25.4 25.4 0 0 0-.796-4.304"
  />
  <path
    fill="#FFB921"
    d="M589.382 518.693c-.586-7.091-1.592-13.43-2.219-16.971-1.614.528-3.603 1.033-6.051 1.548-6.545 1.378-14.46 2.323-22.284 2.662a163 163 0 0 1-7.083.156c-5.192 0-10.04-.26-14.086-.769-2.096-.264-3.946-.567-5.505-.971-.169 6.333-.545 24.247.269 33.938 27.548 10.51 53.01-1.363 57.277-3.537.283-4.635.181-10.017-.318-16.056"
  />
  <path
    fill="#FF7B00"
    d="M586.656 548.817c.833-1.656 1.5-3.697 2.009-6.07-6.337 2.711-18.114 6.714-32.439 6.714-6.994 0-14.594-.958-22.461-3.482 2.027 6.345 7.782 14.537 25.788 14.537q.39 0 .786-.005c14.208-.184 23.455-6.006 26.317-11.694"
  />
  <path
    fill="#AD5400"
    d="M558.533 499.139c8.838-.384 16.542-1.516 21.745-2.641-5.395-1.126-13.38-2.09-22.048-1.714-4.625.2-8.693.76-12.148 1.471.202.386.434.754.666 1.119.308.484.702 1.121.962 1.857 3.192.094 6.815.082 10.823-.092"
  />
  <path
    fill="#FF7B00"
    d="M516.635 493.247c2.181-3.078 1.633-8.956-1.304-13.979-3.341-5.711-8.753-8.769-14.469-8.164-2.586.27-4.633 1.493-4.979 2.974-.383 1.637 1.284 3.859 4.35 5.797 9.64 6.094 9.433 12.375 9.12 15.662 2.659.3 5.659-.001 7.282-2.29"
  />
  <path
    fill="#FF7B00"
    d="M542.061 482.228c-.888-1.253-2.838-2.064-4.653-2.064a5.3 5.3 0 0 0-1.409.182c-5.62 1.565-6.822 5.957-6.073 9.546.81 3.88 4.071 7.67 9.521 8.197-1.104-2.796-1.559-6.933 2.116-12.203 1.533-2.198.781-3.259.498-3.658"
  />
  <path
    fill="#F295FF"
    d="M440.811 531.288c-.187.704-.399 3.459 3.29 11.957 3.219 7.414 8.079 14.461 19.58 11.82-.845-5.169-3.417-16.278-10.395-21.465-3.457-2.568-7.539-3.326-12.475-2.312"
  />
  <path
    fill="#F295FF"
    d="M600.452 524.456c-3.087 8.177-5.785 19.749-2.907 23.007 1.174 1.328 3.917.899 6.012.307 3.133-.887 4.503-2.625 4.729-6 .304-4.531.341-10.972-2.83-14.566-1.222-1.386-2.871-2.294-5.004-2.748"
  />
  <path
    fill="#F295FF"
    d="M677.261 429.715a348 348 0 0 0-5.368-4.352c-.244.825-.468 1.701-.659 2.408-1.486 5.576-3.171 11.111-7.188 15.763-6.588 7.64-13.043 16.393-15.558 26.059-1.656 6.23-1.49 12.786 1.788 18.434a53.6 53.6 0 0 0 8.268 11.394c1.575-.625 3.229-1.368 4.291-2.11.565-.401.856-.712 1.074-1.08.675-1.195 1.166-3.567 1.94-5.035a86 86 0 0 1 4.263-7.937c4.107-7.041 9.191-12.717 14.971-17.281a46.4 46.4 0 0 1-3.166-6.718c-3.189-8.387-4.826-18.852-4.656-29.545"
  />
  <path
    fill="#DB00F8"
    d="M680.811 548.413c25.758 5.006 35.266-12.239 38.639-22.961.274-.87.16-1.561-.038-1.917-.089-.16-.219-.321-.568-.41l-59.905-15.403a1.3 1.3 0 0 0-.326-.041c-.499 0-.965.288-1.158.75-2.697 6.466-3.362 16.829 1.234 25.407 4.078 7.612 11.521 12.516 22.122 14.575m7.511-17.385c1.045-3.767 1.871-6.742 4.016-7.893.908-.485 1.932-.566 2.961-.231 4.167 1.361 2.902 5.888 1.787 9.884l-.175.624q-.18.655-.345 1.276c-.845 3.167-1.877 7.034-5.281 7.034q-.534.001-1.147-.132a3.4 3.4 0 0 1-2.226-1.602c-1.01-1.675-.891-4.271.41-8.96m-19.377-5.375c1.178-4.246 2.512-9.061 6.75-8.186 1.044.216 1.878.793 2.413 1.667 1.213 1.987.56 4.815-.574 8.902-1.295 4.668-2.519 6.948-4.226 7.869a3.5 3.5 0 0 1-1.662.43q-.54 0-1.079-.171c-4.166-1.34-2.696-6.641-1.622-10.511"
  />
  <path
    fill="#000"
    d="M709.172 495.754c-.993-2.44-3.52-3.131-3.805-3.203a1.847 1.847 0 0 0-2.228 1.332 1.866 1.866 0 0 0 1.31 2.262c.011.003 1.01.298 1.293 1.022.045.115.051.258.062.398-1.632-.741-3.466-.407-4.267.463a3.02 3.02 0 0 0-.783 2.529c.16 1.07.865 2.068 1.887 2.667.67.394 1.423.599 2.175.599q.318 0 .634-.05c.565-.089 1.64-.78 2.214-1.237.191-.152.327-.278.37-.347 1.504-2.427 1.887-4.592 1.138-6.435"
  />
  <path
    fill="#000"
    d="M722.118 497.873a1.854 1.854 0 0 0-.588 3.662c.632.103 2.275.53 3.372 1.316-2.233-.734-4.574-1.367-5.688-1.227-1.016.129-1.759 1.06-1.629 2.076.129 1.015 1.036 1.744 2.05 1.607h.019c.871 0 4.46 1.136 7.298 2.208a1.857 1.857 0 0 0 2.434-1.207c.496-1.672.306-3.274-.551-4.633-1.862-2.954-6.226-3.724-6.717-3.802"
  />
  <path
    fill="#000"
    d="M670.568 536.164c.358.115.72.171 1.078.171.569 0 1.131-.143 1.662-.43 1.707-.921 2.932-3.201 4.227-7.869 1.134-4.087 1.786-6.915.573-8.902-.534-.874-1.368-1.451-2.413-1.667-4.238-.875-5.571 3.94-6.749 8.186-1.074 3.87-2.545 9.171 1.622 10.511"
  />
  <path
    fill="#000"
    d="M690.138 541.59q.614.134 1.147.132c3.405 0 4.437-3.867 5.281-7.034q.165-.62.346-1.276l.174-.624c1.116-3.996 2.381-8.523-1.786-9.884-1.029-.335-2.053-.254-2.962.231-2.145 1.151-2.971 4.126-4.016 7.893-1.301 4.689-1.42 7.285-.41 8.96a3.4 3.4 0 0 0 2.226 1.602"
  />
  <path
    fill="#000"
    d="M773.578 524.315c-.797 1.139-1.503 2.474-2.422 3.572-5.459 6.872-13.014 12.213-21.123 15.423l-.395.196c-.107.067-.297.135-.276.214-2.821-.121-3.095 3.995-.296 4.261 10.711 2.498 26.179-11.805 28.642-21.725.666-2.446-2.652-4.03-4.13-1.941"
  />
  <path
    fill="#FF7B00"
    d="M701.946 471.972c10.536 2.548 17.67-13.382 20.251-20.352a4.44 4.44 0 0 1 4.643-2.868 4.434 4.434 0 0 1 3.934 3.767c1.514 10.435 6.81 35.159 23.24 39.37 19.936 5.121 29.73-24.982 29.826-25.287a3.41 3.41 0 0 1 3.884-2.314l7.045 1.353c1.526-.523 3.065-1.022 4.567-1.625a349 349 0 0 0 12.619-4.994l-20.338-13.846a8.2 8.2 0 0 0-3.176-1.297l-99.982-18.165a3.83 3.83 0 0 0-3.114.786c-.804.654-1.26 1.566-1.284 2.569-.467 19.047 5.526 39.899 17.885 42.903m35.501-30.449a1.28 1.28 0 0 1 1.076-.294l43.092 7.979a1.28 1.28 0 0 1 1.019 1.542c-.336 1.501-8.045 35.059-24.238 35.059a12.4 12.4 0 0 1-2.599-.282c-11.753-2.527-17.906-23.406-18.79-42.979-.017-.39.144-.768.44-1.025m-47.905-8.447a1.285 1.285 0 0 1 1.533-1.106l28.72 5.888a1.284 1.284 0 0 1 1.004 1.494c-.162.865-4.07 21.253-12.181 26.538-1.341.873-2.732 1.312-4.154 1.312a7.2 7.2 0 0 1-1.655-.196c-7.776-1.824-15.916-11.804-13.267-33.93"
  />
  <path
    fill="#423E3E"
    d="M697.797 459.804c1.832 1.455 1.232-8.76 7.245-8.51 4.757.197 7.439-8.485 8.354-12.127l-6.227-1.276c-.871 2.361-3.502 8.392-7.179 6.854-4.156-1.738-6.914 4.658-7.357 5.767.261 1.204.577 2.362.949 3.464.772 1.855 2.078 4.131 4.215 5.828"
  />
  <path
    fill="#423E3E"
    d="M758.048 465.073c6.417.267 9.632-13.199 10.18-15.734l-4.753-.88-2.552-.248s-3.473 11.388-8.827 9.149c-5.353-2.239-8.741 6.987-8.741 6.987s1.113 6.744 6.159 10.751c2.157 1.714 1.45-10.319 8.534-10.025"
  />
  <path
    fill="#000"
    d="M702.808 467.006q.834.196 1.656.196c1.421 0 2.813-.439 4.153-1.312 8.112-5.285 12.019-25.673 12.182-26.538a1.284 1.284 0 0 0-1.004-1.494l-28.721-5.888a1.284 1.284 0 0 0-1.532 1.106c-2.65 22.126 5.491 32.106 13.266 33.93m-10.175-16.494c.442-1.109 3.201-7.505 7.357-5.767 3.676 1.538 6.307-4.493 7.179-6.854l6.226 1.276c-.914 3.642-3.596 12.324-8.353 12.127-6.013-.25-5.413 9.965-7.245 8.51-2.137-1.697-3.443-3.973-4.215-5.828a32 32 0 0 1-.949-3.464"
  />
  <path
    fill="#000"
    d="M755.797 485.527c.89.191 1.755.282 2.599.282 16.193 0 23.902-33.559 24.238-35.06a1.284 1.284 0 0 0-1.019-1.542l-43.092-7.978a1.283 1.283 0 0 0-1.516 1.319c.884 19.572 7.037 40.452 18.79 42.979m-12.442-21.18s3.388-9.226 8.741-6.987c5.354 2.239 8.827-9.149 8.827-9.149l2.552.248 4.753.88c-.548 2.535-3.763 16.001-10.18 15.734-7.084-.294-6.377 11.739-8.534 10.025-5.046-4.007-6.159-10.751-6.159-10.751"
  />
  <path
    fill="#AD5400"
    d="M218.117 807.681c51.37-16.027 123.922-33.796 208.934-40.919l-.382-12.557c-4.559.858-10.103 1.701-16.865 2.522-7.117.864-14.388 1.551-20.772 2.064-2.532 2.965-6.41 3.887-9.742 4.979-11.431 3.076-23.084 4.293-34.722 5.542-9.453.91-18.954 1.694-28.457 2.035-6.818.312-9.244-13.567-10.784-18.472-3.764-15.073-6.305-30.229-8.895-45.476-.782-4.536-1.752-10.873-2.711-16.396-40.809 6.534-80.353 18.32-117.838 35.178l30.459 84.343c3.922-.964 7.848-1.906 11.775-2.843"
  />
  <path
    fill="#AD5400"
    d="m155.859 690.754-.045-.132c-8.193-25.997-33.04-52.718-55.076-52.718-1.757 0-3.494.169-5.206.523-.222.041-13.987 2.68-20.306 14.086-4.704 8.489-4.296 19.828 1.21 33.703l50.724 129.807c2.865 7.259 11.405 18.068 36.352 8.79 12.035-4.477 29.18-9.784 36.431-11.988z"
  />
  <path
    fill="#DB00F8"
    d="M371.542 472.498c-.191 0-.385.04-.568.124l-56.994 26.073c-.282.129-.432.284-.518.537-.137.399-.128 1.122.308 1.953 15.45 29.52 36.55 25.654 44.905 22.62 11.071-4.018 18.041-10.082 20.717-18.022 4.68-13.892-4.806-29.679-6.755-32.703a1.3 1.3 0 0 0-1.095-.582m-21.186 39.332a3.43 3.43 0 0 1-1.934 1.996c-.672.278-1.286.403-1.85.403-2.919 0-4.49-3.354-5.794-6.137q-.276-.59-.574-1.213l-.286-.593c-1.827-3.784-3.897-8.073.016-10.175.966-.52 2.002-.622 2.995-.299 2.345.765 3.701 3.584 5.416 7.154 2.136 4.446 2.719 7.014 2.011 8.864m16.617-6.916a3.5 3.5 0 0 1-2.78.232c-1.868-.613-3.497-2.669-5.624-7.093-1.861-3.874-3.018-6.577-2.163-8.776.377-.968 1.106-1.692 2.108-2.093 4.074-1.627 6.262 2.933 8.196 6.956 1.763 3.668 4.179 8.693.263 10.774"
  />
  <path
    fill="#000"
    d="M320.934 474.905a4.32 4.32 0 0 0 3.09 1.291l.096-.001a5.1 5.1 0 0 0 3.197-1.237c1.091-.935 1.719-2.288 1.681-3.619a3.83 3.83 0 0 0-1.544-2.984c-.968-.734-2.415-.851-3.773-.436.107-.069.183-.11.195-.117a2.101 2.101 0 0 0-1.835-3.779c-.304.146-2.982 1.506-3.557 4.407-.402 2.026.337 4.115 2.184 6.209.018.022.206.213.266.266"
  />
  <path
    fill="#000"
    d="M300.932 482.249a4.32 4.32 0 0 0 3.09 1.292l.096-.001a5.1 5.1 0 0 0 3.197-1.239c1.091-.935 1.719-2.288 1.68-3.619a3.83 3.83 0 0 0-1.544-2.982c-.968-.736-2.417-.852-3.775-.434.109-.071.185-.112.197-.119a2.1 2.1 0 0 0-1.834-3.779c-.304.145-2.982 1.505-3.558 4.405-.401 2.026.337 4.114 2.183 6.209.019.023.208.214.268.267"
  />
  <path
    fill="#000"
    d="M358.514 487.184c-1.002.401-1.731 1.125-2.108 2.093-.855 2.199.302 4.902 2.163 8.776 2.127 4.424 3.756 6.48 5.624 7.093q.567.186 1.133.186c.566 0 1.122-.14 1.647-.418 3.916-2.082 1.5-7.106-.263-10.774-1.934-4.023-4.122-8.583-8.196-6.956"
  />
  <path
    fill="#000"
    d="M342.929 495.812c-.993-.323-2.029-.221-2.995.299-3.913 2.102-1.843 6.391-.016 10.175l.286.593c.199.414.39.821.574 1.213 1.304 2.783 2.875 6.137 5.794 6.137.564 0 1.178-.125 1.85-.403a3.43 3.43 0 0 0 1.934-1.996c.708-1.85.125-4.418-2.011-8.864-1.715-3.57-3.071-6.389-5.416-7.154"
  />
  <path
    fill="#000"
    d="M284.36 540.545c5.951 2.423 14.433 2.582 19.77-1.237 1.725-1.472.58-3.985-1.63-3.949-1.302-.117-2.761.069-4.077.183-3.885.372-7.968-.002-11.568-1.329-4.968-1.833-9.45-5.207-12.651-9.414-1.568-2.445-5.282-.62-4.211 2.113 2.79 6.243 8.117 10.973 14.367 13.633"
  />
  <path
    fill="#000"
    d="m276.585 462.55.833-.546c.638-.434 1.528-1.438 2.121-1.979.807-.762 1.87-1.604 2.664-2.367.757-.666 1.329-1.573 1.127-2.66-1.064-4.501-7.845-.742-9.814 1.291-1.289 1.325-2.569 3.514-1.317 5.35a3.167 3.167 0 0 0 4.386.911"
  />
  <path
    fill="#000"
    d="m294.303 411.721.971.222c.755.16 2.095.106 2.896.159 1.109.055 2.453.239 3.553.282 1.005.085 2.055-.13 2.699-1.03 1.611-2.389-.764-4.038-2.707-4.933-2.43-1.13-5.278-1.763-7.91-.718-2.805 1.119-2.499 5.36.498 6.018"
  />
  <path
    fill="#AD5400"
    d="M472.189 764.824c11.424-.137 30.61-3.084 30.756-21.294l-.575-139.558c.146-14.973-3.554-25.699-10.996-31.928-6.248-5.229-13.978-6.218-18.931-6.218-2.974 0-4.947.356-4.999.366-23.431 3.886-39.396 41.03-37.552 70.402l.005.11 1.949 64.061c.232 2.68.51 5.315.831 7.699.345 2.555 3.292 7.566 6.142 12.411 4.98 8.468 10.129 17.223 8.668 23.629-.621 2.719-3.148 5.537-14.059 8.246l.425 13.997c7.54-.551 25.479-1.771 38.336-1.923"
  />
  <path
    fill="#F295FF"
    d="M431.53 746.227c7.06-1.702 8.931-3.056 9.376-3.495.588-3.896-4.333-12.263-7.948-18.409-3.484-5.922-6.492-11.037-7.02-14.949-1.051-7.793-1.655-18.167-1.707-24.389-.244-28.897-10.164-38.925-14.417-41.895-8.815-6.155-22.123-7.544-35.598-3.713-6.727 1.913-12.659 4.941-16.622 8.294 3.783 3.022 7.005 6.722 9.313 11.089 3.07 5.291 4.507 11.751 5.469 17.575 1.874 11.519 2.503 23.223 3.138 34.782.103 1.878.366 6.712.509 8.52.108 1.58.238 2.869.96 4.414 2.761 6.971 12.265 18.683 13.489 27.799a520 520 0 0 0 16.622-1.648c7.07-.825 12.672-1.659 17.112-2.458-1.151-1.989-2.519-4.177-3.549-5.891a11 11 0 0 1-.777-1.685c-.792-1.877-.859-4.355 1.684-4.75 3.229.213 5.095 3.217 6.924 5.479 1.143 1.632 2.309 3.407 3.042 5.33"
  />
  <path
    fill="#AD5400"
    d="m751.765 710.429-11.626 58.884c.36.602.517 1.3.396 2.114l-1.831 12.194a3.33 3.33 0 0 1-.863 1.79q6.24 1.305 12.299 2.653l92.556 18.761 28.525-79.288c-39.234-17.652-79.304-31.008-117.222-40.59-1.067 5.883-2.063 11.886-3.051 17.91a10.1 10.1 0 0 1 .863 5.268 3 3 0 0 1-.046.304"
  />
  <path
    fill="#AD5400"
    d="m891.393 691.547-.043.129-44.089 122.549c7.249 2.204 24.398 7.513 36.434 11.99 6.875 2.558 12.507 3.589 17.114 3.589 12.112.002 17.164-7.123 19.243-12.391l50.711-130.251c5.515-13.895 5.923-25.234 1.219-33.723-6.319-11.406-20.084-14.045-20.222-14.07-23.258-4.805-51.52 24.109-60.367 52.178"
  />
  <path
    fill="#AD5400"
    d="M579.849 567.61c-.084-.016-2.09-.378-5.091-.378-4.975 0-12.687.995-18.925 6.215-7.442 6.228-11.142 16.954-10.995 31.881l-.575 142.504c.062 7.775 4.141 20.934 30.755 21.251 12.856.154 30.792 1.374 38.334 1.924l.06-1.99c-5.916-1.207-11.799-2.565-17.647-3.948l-7.064-1.805a3.37 3.37 0 0 1-2.505-3.729c-.007-.024 1.852-13.288 1.849-13.315a3.395 3.395 0 0 1 3.071-2.915c5.357-13.815 16.123-20.597 20.854-23.005l-1.313-27.058a4 4 0 0 1-.002-.288 9.9 9.9 0 0 1 3.309-7.044 26 26 0 0 1-.06-1.828c.054-5.269.534-14.156 2.728-23.204l.678-22.77.005-.111c1.845-29.373-14.12-66.517-37.466-70.387"
  />
  <path
    fill="#F295FF"
    d="M622.871 683.643c2.006.479 4.365 1.075 6.96 1.732 11.171 2.827 28.034 7.093 38.286 7.093.037 0 .078-.004.108-.001.593 0 1.142.165 1.627.432a10 10 0 0 1 1.695-.691c.426-5.038.96-10.07 1.703-15.069.853-5.472 1.907-11.271 4.125-16.526a38 38 0 0 1 5.979-9.792c-5.294-5.348-13.406-10.655-22.375-13.2-6.853-1.944-16.836-2.977-25.476 3.154-4.308 3.057-14.306 13.316-14.783 42.597a10 10 0 0 1 2.151.271"
  />
  <path
    fill="#FF7B00"
    d="M616.698 725.599c-.65.256-12.945 5.248-18.835 19.195 7.476 1.852 17.441 4.341 22.536 5.528 2.157.683 11.898 1.76 9.834 5.594a1.87 1.87 0 0 1-1.091.791c-3.453.916-6.666.105-9.91-.336-8.437-1.329-16.77-3.044-24.992-5.33l-.887 6.398c8.191 2.085 16.925 4.118 25.064 5.618 6.883 1.255 13.856 2.422 20.84 3.021.546-3.93 1.321-9.501 1.321-9.514a3.396 3.396 0 0 1 3.83-2.897c-.002-.004.679.116 1.818.32 4.819-14.101 14.8-20.925 19.242-23.357l-.916-28.95-.001-.136a9.8 9.8 0 0 1 .322-2.392c-10.928-.669-25.658-4.388-36.71-7.185a585 585 0 0 0-6.872-1.711 3.06 3.06 0 0 0-2.602.548 3.14 3.14 0 0 0-1.232 2.278l1.416 29.179a3.4 3.4 0 0 1-2.175 3.338"
  />
  <path
    fill="#FF7B00"
    d="M741.432 705.707c-22.273 1.02-52.201-3.956-66.376-7.059a3 3 0 0 0-2.56.594 3 3 0 0 0-1.145 2.302l.983 31.056a3.4 3.4 0 0 1-2.115 3.256c-.59.246-11.888 5.145-17.19 19.355 9.215 1.661 22.516 4.069 22.54 4.064 10.331 2.067 20.778 3.193 30.994 5.863a1.888 1.888 0 0 1-.498 3.704c-5.328.026-10.562-.683-15.793-1.363-14.533-1.877-29.009-4.01-43.449-6.514l-.943 6.79c6.548 1.606 13.172 2.99 19.84 4.208 22.031 3.835 44.411 6.217 66.732 7.571l.902-6.008c-3.307-.665-6.832-1.206-10.143-2.125-2.418-.682-2.281-4.196.112-4.742 1.937-.54 6.513-.872 10.467-.293l11.269-57.077a3.26 3.26 0 0 0-.894-2.495 3.48 3.48 0 0 0-2.733-1.087"
  />
  <path
    fill="#FFB46D"
    d="M848.567 257.796c1.212-.233 2.5.028 3.676.195 6.418 1.205 13.124 3.45 17.782 8.232a27 27 0 0 1 1.452-.509c4.484-1.406 9.172-2 13.847-2.217 2.23-.102 2.602 2.051 2.195 3.61l-.304 1.448c-.756 2.81-.109 5.524-.338 8.348-.28 4.138-.89 8.29-3.371 11.87-.351.666-1.48 1.648-2.771 2.41.576.397 1.183.749 1.792 1.053l2.316.653q.059.017.116.038c1.181.424 1.872 1.627 1.719 2.992-.041.371-.151.888-.309 1.501l5.277-.521c.041-.004.08.001.12 0 .035-4.96 4.538-10.888 8.05-13.394 1.013-.803 2.321-1.133 3.27-2.025 1.3-1.206 1.886-3.163 2.791-4.897.317-.687 1.352-1.848 2.467-1.796.18-.038.5.048.629.059 2.798.637 5.593 1.284 8.339 2.183 4.675 1.547 9.416 3.43 13.307 6.569.32.325.682.552.942.856 1.088.199 2.166.457 3.228.763l3.706-12.251c-3.001-1.181-21.672-8.364-48.472-14.998-28.824-7.134-43.798-8.91-48.084-9.309a61 61 0 0 0 1.789 2.883c1.472 2.189 3.073 4.296 4.839 6.254"
  />
  <path
    fill="#F295FF"
    d="M888.268 318.539a20.3 20.3 0 0 1-.089-3.899 12.8 12.8 0 0 1-1.336-4.789c-.262-3.465.896-6.633 2.382-9.202l-3.981.393c-.821 2.369-1.856 4.963-2.734 6.727q-.348.703-.686 1.402c-2.229 4.592-4.703 9.687-10.878 9.687-1.191 0-2.529-.203-4.019-.621-3.923 1.538-8.211 2.296-12.393 1.887-.045 1.41-.325 2.831-.628 4.199-.162 1.373-.183 2.747-.118 4.122a1826 1826 0 0 1 18.817 4.833l1.282.337c.778-4.987 9.219-11.51 14.381-15.076"
  />
  <path
    fill="#F295FF"
    d="M922.749 287.311c-1.983.125-3.701.968-5.759.723-.858-.088-1.23-1.248-.594-1.82 1.623-1.474 3.902-1.635 5.964-2.009 1.291-.186 2.593-.247 3.895-.241-5.328-3.078-11.512-4.574-17.506-5.881-.886 1.736-1.651 4.135-3.387 5.758-1.007 1.071-2.46 1.522-3.639 2.363-2.467 1.876-4.659 4.607-5.835 7.581l.054-.006a6 6 0 0 1 .534-.379c1.697-.821 3.827.257 5.492.053 2.441-.018 3.952-1.247 5.99-2.626 1.028-.553 4.201-2.959 4.855-1.132.109.362.004.737-.243.99-2.843 2.805-6.12 6.298-10.499 6.256-.081.001-.173 0-.259-.001l17.478 14.09a3.54 3.54 0 0 1 1.325 2.486c.089 1.096-.323 2.239-1.128 3.136-2.07 2.305-8.005 8.063-15.535 8.064-2.871 0-5.973-.836-9.183-3.021a25 25 0 0 1-2.768-2.191c.206.983.507 1.948.941 2.879 1.854 4.261 5.913 7.285 10.024 9.768 1.091.54.516 2.235-.681 1.982-5.49-1.283-10.045-5.236-12.501-10.3a16 16 0 0 1-.658-1.62 77 77 0 0 0-4.919 3.804l-6.538 7.058c-.336.637-.455 1.112-.338 1.373l-.109.049a2625 2625 0 0 1 39.385 10.817l17.189-56.816c-3.571-1.119-7.287-1.631-11.047-1.187m-4.762 15.269c-.14.32-.374.607-.697.835a2.2 2.2 0 0 1-1.275.399 2.3 2.3 0 0 1-.621-.085 2.56 2.56 0 0 1-1.408-1.001c-.42-.597-.558-1.348-.369-2.008a2.06 2.06 0 0 1 1.181-1.33 1.9 1.9 0 0 1 .967-.113 1.26 1.26 0 0 1 .117-.584 1.297 1.297 0 0 1 1.722-.616c.698.327 1.542 1.084 1.623 2.14.065.857-.353 1.65-1.24 2.363m8.601 2.688c.065.857-.352 1.65-1.239 2.363-.141.32-.374.608-.699.835a2.2 2.2 0 0 1-1.273.4q-.31 0-.62-.085a2.56 2.56 0 0 1-1.407-1c-.422-.599-.559-1.351-.371-2.01a2.06 2.06 0 0 1 1.181-1.329c.298-.125.632-.154.967-.113a1.3 1.3 0 0 1 .117-.585 1.296 1.296 0 0 1 1.721-.616c.699.327 1.543 1.084 1.623 2.14"
  />
  <path
    fill="#F295FF"
    d="M851.615 321.168c.207-.289.583-.845 1.016-1.308a20.7 20.7 0 0 1-3.422-.948c-1.351-.546-2.715-1.211-3.667-2.352-.567-.603.038-1.645.833-1.468.921.133 1.71.557 2.56.855 3.894 1.562 8.263 1.425 12.364.433-7.52-3.336-12.083-9.3-14.497-13.45a1.5 1.5 0 0 1-.447.178c-1.686.332-3.514-1.743-4.084-4.635-.571-2.893 2.98-7.192 4.869-6.72 1.589.397-.243 1.598.227 4.72.226.191.412.437.519.736.052.141 3.946 10.556 13.935 15.539-.784-4.155.857-9.468 1.66-12.066.175-.564.355-1.158.539-1.764 1.051-3.465 2.138-7.049 3.278-8.903.676-1.1 1.882-1.589 3.018-1.224l4.614 1.301a7.8 7.8 0 0 1-.804-2.927c-.38-2.306-.877-4.795-1.086-7.134-.13-1.221 1.594-1.729 2.15-.647 1.416 2.578 2.079 5.377 2.66 8.221.118.425.308.816.531 1.191 3.855-1.86 4.844-8.191 5.148-12.085.214-2.923-.321-6.025.511-8.848.036-.201.15-.676.247-1.114-1.265.047-2.556.108-3.777.229-2.904.265-5.811.669-8.604 1.484.906 1.336 2.103 3.674.216 4.211-.442.078-.814-.133-1.124-.403-1.627-1.316-2.799-3.172-4.495-4.448a25.5 25.5 0 0 0-5.409-3.485c-3.435-1.547-7.369-2.766-11.187-3.261a1.05 1.05 0 0 1-.769.369c-.681.035-1.044-.247-1.364-.574a1.5 1.5 0 0 1-.726-.747 48 48 0 0 1-2.236-2.454c-1.611-1.9-3.074-3.915-4.433-6l-4.112 24.396c.124-.18.246-.362.361-.555.802-1.047 3.576-6.435 5.309-4.208a1.054 1.054 0 0 1-.264 1.318c-1.19.99-1.769 2.905-2.605 4.353-.807 1.748-2.112 3.27-3.697 4.412l-6.9 40.938c2.384.545 10.064 2.322 21.667 5.209.014-2.148.26-4.515 1.477-6.365m8.723-39.599c.864-3.723 2.767-4.303 3.14-4.381a1.31 1.31 0 0 1 .648 2.537 1.3 1.3 0 0 0-.327.3c.181.147.343.319.468.524.288.473.376 1.031.245 1.569a2.08 2.08 0 0 1-2.501 1.527 2.06 2.06 0 0 1-1.096-.688 1.3 1.3 0 0 1-.577-1.388m-6.763-3.389c1.124-3.441 2.999-3.993 3.363-4.069l.534 2.566s.033-.002.091-.024c-.005.002-.37.161-.804.831a2.07 2.07 0 0 1 1.297 2.421 2.08 2.08 0 0 1-2.501 1.527 2.06 2.06 0 0 1-1.284-.933 2.1 2.1 0 0 1-.288-.91 1.3 1.3 0 0 1-.408-1.409"
  />
  <path
    fill="#000"
    d="M860.915 282.957a2.06 2.06 0 0 0 1.581.747 2.08 2.08 0 0 0 2.016-1.586 2.06 2.06 0 0 0-.246-1.569 2 2 0 0 0-.467-.524c.164-.197.288-.279.327-.3a1.31 1.31 0 0 0-.648-2.537c-.373.078-2.276.658-3.14 4.381a1.3 1.3 0 0 0 .577 1.388"
  />
  <path
    fill="#000"
    d="M854.271 280.499c.289.472.745.804 1.283.933q.245.06.486.059c.935 0 1.786-.639 2.015-1.586a2.07 2.07 0 0 0-1.297-2.421c.435-.67.8-.829.805-.831a.4.4 0 0 1-.092.024l-.533-2.566c-.364.076-2.239.628-3.364 4.069-.171.525.01 1.076.409 1.409.026.318.117.629.288.91"
  />
  <path
    fill="#DB00F8"
    d="M879.913 300.163a2.02 2.02 0 0 1 1.593.045c.102.045.192.096.279.148.624-1.755 1.129-3.377 1.333-4.322l-13.112-3.701c-.85 1.69-1.835 4.938-2.642 7.599-.186.613-.368 1.213-.545 1.783-2.383 7.705-2.26 11.938.367 12.943q.215.042.406.137c4.668 1.403 6.899.112 8.909-3.06-1.957-1.004-1.048-3.172 1.092-8.235.867-2.05 1.381-2.967 2.32-3.337m-5.206 2.72c-2.041 5.44-2.665 6.179-3.603 6.571a2 2 0 0 1-1.632-.036c-2.166-.968-1.257-3.119.939-8.314.867-2.051 1.381-2.968 2.32-3.338a2.04 2.04 0 0 1 1.594.045c1.957.875 1.156 3.009.382 5.072"
  />
  <path
    fill="#000"
    d="M874.325 297.811a2.04 2.04 0 0 0-1.594-.045c-.939.37-1.453 1.287-2.32 3.338-2.196 5.195-3.105 7.346-.939 8.315a2 2 0 0 0 1.632.035c.937-.392 1.561-1.131 3.603-6.571.774-2.063 1.575-4.197-.382-5.072"
  />
  <path fill="#F295FF" d="M908.328 277.991c-.073-.017-.001.005.02.006h.005z" />
  <path
    fill="#DB00F8"
    d="M896.735 318.806c9.033 6.148 17.101-1.092 20.152-4.488.234-.261.257-.493.243-.536l-20.479-16.513a.25.25 0 0 0-.154-.056.2.2 0 0 0-.147.056c-1.085 1.008-6.475 6.341-6.022 12.318.257 3.399 2.413 6.5 6.407 9.219m9.052-10.325a2.43 2.43 0 0 1 1.819.653c1.976 1.815.132 4.006-.969 5.315l-.53.637c-.703.857-1.857 2.262-3.292 2.262-.495 0-1.024-.167-1.579-.583a2.3 2.3 0 0 1-.916-1.597c-.147-1.266.664-2.53 1.928-4.038 1.15-1.372 2.143-2.557 3.539-2.649m-10.083-2.834c1.226-1.463 3.078-3.672 5.207-2.118.553.403.904.991.985 1.655.174 1.423-.921 2.729-1.98 3.992-1.257 1.501-2.353 2.518-3.615 2.603q-.083.006-.164.006a2.32 2.32 0 0 1-1.574-.61c-1.983-1.801.049-4.225 1.141-5.528"
  />
  <path
    fill="#000"
    d="M917.603 298.077a1.297 1.297 0 0 0-1.721.616c-.092.188-.12.387-.117.584a1.9 1.9 0 0 0-.967.113 2.06 2.06 0 0 0-1.181 1.33c-.189.66-.051 1.411.369 2.008.344.49.844.846 1.408 1.001q.31.086.621.085c.456 0 .9-.136 1.275-.399.323-.228.557-.515.697-.835.887-.713 1.304-1.506 1.24-2.363-.081-1.056-.925-1.813-1.624-2.14"
  />
  <path
    fill="#000"
    d="M923.244 303.744a1.3 1.3 0 0 0-.117.585 1.9 1.9 0 0 0-.967.113 2.05 2.05 0 0 0-1.18 1.329c-.189.659-.052 1.411.37 2.01.343.489.843.844 1.407 1q.31.084.62.085a2.2 2.2 0 0 0 1.273-.4c.325-.227.558-.515.699-.835.887-.713 1.304-1.506 1.239-2.363-.08-1.057-.924-1.813-1.623-2.141a1.3 1.3 0 0 0-1.721.617"
  />
  <path
    fill="#000"
    d="M896.137 311.785q.082 0 .164-.006c1.262-.085 2.358-1.102 3.615-2.603 1.059-1.263 2.154-2.569 1.98-3.992a2.4 2.4 0 0 0-.985-1.655c-2.129-1.554-3.981.655-5.207 2.118-1.092 1.303-3.124 3.728-1.141 5.528.435.397.989.61 1.574.61"
  />
  <path
    fill="#000"
    d="M900.32 315.169c.075.644.4 1.211.916 1.596.555.416 1.083.583 1.579.583 1.434 0 2.588-1.405 3.292-2.261l.53-.638c1.101-1.309 2.944-3.5.969-5.315a2.44 2.44 0 0 0-1.819-.653c-1.396.092-2.389 1.277-3.539 2.649-1.264 1.508-2.075 2.772-1.928 4.039"
  />
  <path
    fill="#000"
    d="M826.094 328.756c.173.039 17.533 3.948 44.785 11.1 22.016 5.776 44.537 12.188 44.762 12.252l.091.025a5.9 5.9 0 0 0 4.49-.647 5.9 5.9 0 0 0 2.694-3.544l22.358-73.904q.022-.071.041-.145a5.88 5.88 0 0 0-.648-4.488 5.88 5.88 0 0 0-3.374-2.645c-2.068-.822-21.472-8.422-49.636-15.393-33.144-8.204-48.129-9.439-50.406-9.588-3.041-.564-6.05 1.323-6.825 4.363a3 3 0 0 0-.058.274l-12.688 75.277c-.699 3.112 1.21 6.248 4.414 7.063m46.511 4.522a1833 1833 0 0 0-18.817-4.833c-.065-1.375-.044-2.749.118-4.123.303-1.367.582-2.788.628-4.198 4.181.409 8.47-.349 12.393-1.888 1.49.419 2.828.622 4.018.622 6.176 0 8.65-5.095 10.879-9.688q.338-.697.686-1.401c.878-1.764 1.912-4.358 2.734-6.727l3.981-.393c-1.486 2.569-2.644 5.737-2.382 9.202a12.8 12.8 0 0 0 1.336 4.789 20 20 0 0 0 .089 3.899c-5.162 3.566-13.603 10.089-14.381 15.076zm3.895-21.543c-2.009 3.172-4.241 4.463-8.909 3.06a1.6 1.6 0 0 0-.406-.137c-2.626-1.005-2.75-5.238-.366-12.943.177-.57.358-1.17.544-1.783.807-2.661 1.793-5.909 2.642-7.598l13.113 3.7c-.204.945-.709 2.567-1.333 4.322a3 3 0 0 0-.279-.148 2.02 2.02 0 0 0-1.594-.045c-.939.37-1.453 1.287-2.32 3.337-2.139 5.063-3.048 7.231-1.092 8.235m40.106 33.579a2627 2627 0 0 0-39.384-10.817l.109-.049c-.117-.261.001-.736.338-1.374l6.538-7.057a76 76 0 0 1 4.919-3.804c.192.546.403 1.088.657 1.62 2.456 5.064 7.011 9.017 12.502 10.3 1.196.253 1.772-1.442.681-1.982-4.111-2.483-8.171-5.507-10.024-9.768a13.2 13.2 0 0 1-.941-2.879c.831.755 1.738 1.49 2.768 2.191 3.21 2.184 6.312 3.021 9.183 3.021 7.53-.001 13.465-5.759 15.535-8.064.805-.898 1.216-2.04 1.128-3.136a3.54 3.54 0 0 0-1.325-2.486l-17.478-14.09c.086 0 .177.002.259.001 4.378.042 7.656-3.451 10.499-6.256.247-.253.352-.628.243-.99-.654-1.827-3.827.579-4.855 1.132-2.039 1.379-3.55 2.608-5.991 2.626-1.664.204-3.795-.874-5.491-.053a6 6 0 0 0-.535.378l-.053.007c1.176-2.974 3.368-5.705 5.835-7.581 1.179-.841 2.632-1.292 3.638-2.363 1.736-1.624 2.501-4.022 3.387-5.758 5.995 1.307 12.179 2.803 17.506 5.881-1.302-.006-2.604.055-3.895.241-2.062.374-4.341.535-5.963 2.009-.636.572-.265 1.732.594 1.82 2.057.244 3.775-.598 5.759-.723 3.76-.444 7.475.068 11.047 1.187zm-20.256-48.045a.2.2 0 0 1 .146-.056c.054 0 .109.019.155.056l20.478 16.513c.015.043-.009.275-.242.536-3.051 3.396-11.12 10.636-20.153 4.488-3.994-2.719-6.15-5.82-6.407-9.219-.452-5.977 4.938-11.31 6.023-12.318m11.977-19.278.025.005h-.005c-.021 0-.093-.022-.02-.005m-18.304-20.023c26.8 6.634 45.47 13.817 48.472 14.998l-3.706 12.251a33 33 0 0 0-3.229-.763c-.26-.304-.621-.531-.942-.856-3.89-3.139-8.631-5.022-13.306-6.569-2.746-.899-5.542-1.546-8.34-2.183-.129-.011-.449-.097-.629-.059-1.115-.052-2.15 1.109-2.466 1.796-.905 1.734-1.492 3.691-2.791 4.897-.95.892-2.258 1.222-3.27 2.025-3.513 2.506-8.016 8.434-8.051 13.394-.04.001-.078-.004-.119 0l-5.278.521c.159-.613.269-1.13.31-1.501.152-1.365-.539-2.568-1.719-2.992q-.058-.02-.117-.038l-2.315-.653a15 15 0 0 1-1.793-1.053c1.292-.762 2.42-1.744 2.771-2.41 2.482-3.58 3.092-7.732 3.372-11.87.229-2.824-.418-5.538.337-8.348l.304-1.448c.408-1.559.035-3.712-2.194-3.61-4.675.217-9.363.811-13.848 2.217q-.73.233-1.452.509c-4.658-4.782-11.364-7.027-17.781-8.232-1.177-.167-2.464-.428-3.676-.195-1.766-1.958-3.367-4.065-4.84-6.254a62 62 0 0 1-1.788-2.883c4.285.399 19.26 2.175 48.084 9.309m-54.653 23.418c1.585-1.142 2.891-2.664 3.697-4.412.837-1.448 1.415-3.363 2.606-4.353.386-.313.507-.865.263-1.318-1.733-2.227-4.506 3.16-5.309 4.208-.115.193-.237.375-.36.555l4.111-24.396c1.359 2.085 2.822 4.1 4.433 6a48 48 0 0 0 2.236 2.454c.044.093.092.184.156.27.153.211.352.367.571.477.32.327.682.609 1.364.574.344-.022.595-.164.768-.369 3.819.495 7.752 1.714 11.188 3.261a25.5 25.5 0 0 1 5.408 3.485c1.696 1.276 2.869 3.132 4.496 4.448.31.27.681.481 1.123.403 1.888-.538.69-2.875-.215-4.211 2.793-.815 5.7-1.219 8.603-1.484 1.222-.121 2.513-.182 3.778-.229-.097.438-.212.913-.247 1.114-.833 2.823-.297 5.925-.511 8.848-.304 3.894-1.293 10.225-5.149 12.085a5 5 0 0 1-.53-1.191c-.582-2.844-1.244-5.643-2.661-8.221-.555-1.082-2.279-.575-2.149.647.209 2.339.706 4.828 1.086 7.134a7.8 7.8 0 0 0 .803 2.927l-4.613-1.301c-1.136-.365-2.342.124-3.018 1.224-1.14 1.854-2.227 5.438-3.278 8.902-.185.607-.364 1.201-.539 1.765-.804 2.598-2.445 7.911-1.661 12.065-9.988-4.982-13.883-15.398-13.934-15.538a1.73 1.73 0 0 0-.519-.736c-.47-3.123 1.362-4.323-.228-4.72-1.888-.473-5.44 3.827-4.869 6.72.57 2.892 2.399 4.967 4.085 4.635.168-.033.309-.103.447-.178 2.414 4.15 6.977 10.114 14.497 13.45-4.101.992-8.471 1.129-12.365-.433-.849-.298-1.638-.722-2.559-.855-.796-.177-1.4.865-.833 1.468.952 1.141 2.315 1.806 3.667 2.352 1.119.418 2.263.731 3.422.948-.433.463-.81 1.019-1.017 1.308-1.217 1.85-1.462 4.217-1.476 6.365-11.604-2.887-19.284-4.664-21.668-5.209z"
  />
  <path
    fill="#FFB921"
    d="M206.675 318.604c-.866-.547-1.447-1.537-1.211-2.703.088-.436.193-.875.305-1.315q.099-.398.208-.797c-5.796 3.636-12.282 7.948-19.391 12.979-6.55 4.636-12.316 8.942-17.304 12.88a46 46 0 0 0 3.401-.522c.148-.028.297-.051.445-.081.429-.086.855-.185 1.281-.283.243-.056.486-.109.728-.169q.596-.149 1.186-.314a43 43 0 0 0 1.93-.576q.417-.136.829-.279a47 47 0 0 0 1.085-.386q.43-.162.857-.335c.344-.136.689-.271 1.029-.415.313-.133.622-.276.932-.417.309-.139.62-.273.926-.419a46 46 0 0 0 1.74-.881c.254-.135.502-.28.753-.42.353-.197.706-.392 1.053-.598.26-.154.516-.316.773-.475q.502-.31.997-.631a55 55 0 0 0 1.734-1.197q.357-.259.712-.524.5-.379.992-.771.328-.258.65-.522.538-.447 1.065-.912c.175-.154.352-.303.525-.459a47 47 0 0 0 1.537-1.45 3.394 3.394 0 0 1 4.715-.051l.107-.116z"
  />
  <path
    fill="#000"
    d="M1018.83 467.954c-4.58-5.161-10.54-7.789-16.79-7.462-11.983.668-17.893 11.203-20.399 21.72-.801-4.762-2.441-9.342-4.953-13.779-9.49-16.766-35.537-42.247-151.672-69.854-37.618-8.943-69.57-14.836-96.319-17.697 3.562-19.403 2.644-37.296 1.799-53.749-.471-9.178-.907-17.735-.568-25.812.586-2.002.953-4.123 1.21-6.026.501-3.706.645-7.327.685-9.326a61 61 0 0 1 2.389-8.074c12.189-32.46 20.193-78.79 21.846-111.221l10.813 1.025c3.32 4.782 8.843 7.924 15.092 7.924 10.129 0 18.37-8.241 18.37-18.37s-8.241-18.37-18.37-18.37c-5.582 0-10.582 2.512-13.954 6.455l-12.095-1.865c-.037-.416-.069-.851-.112-1.252a3.4 3.4 0 0 0-1.835-2.67c-.618-.315-15.73-7.794-67.24-13.787-20.785-2.418-37.063-3.759-49.763-4.101-17.506-.47-27.322.862-31.453 4.492-47.475-3.035-108.098-5.176-166.136-2.241-3.392-4.425-13.343-6.057-32.445-5.543-12.701.342-28.978 1.683-49.764 4.101-51.509 5.993-66.621 13.472-67.239 13.787a3.4 3.4 0 0 0-1.836 2.67 96 96 0 0 0-.332 4.181l-5.794.895c-3.302-3.165-7.769-5.122-12.692-5.122-10.129 0-18.369 8.241-18.369 18.37s8.24 18.37 18.369 18.37c6.752 0 12.649-3.671 15.841-9.113l2.873-.326c1.957 32.255 9.855 76.887 21.695 108.419a61 61 0 0 1 2.389 8.074c.04 1.998.184 5.619.685 9.326.257 1.904.624 4.024 1.21 6.027.339 8.076-.097 16.633-.569 25.811-.877 17.076-1.827 35.703 2.228 55.957-26.153 2.968-57.158 8.755-93.434 17.379-65.156 15.488-101.952 30.307-123.381 43.294l-19.8-93.619c-5.024-23.046 3.956-47.477 23.436-63.8l17.698-12.724a8.9 8.9 0 0 1 1.009 3.265l4.178 40.896a180 180 0 0 0 10.033 43.562s3.812 8.792 4.396 9.375c.329.328 3.117 3.14 5.983 3.14 3.42 0 8.838-1.404 17.78-5.661 10.613-5.053 23.669-12.94 36.763-22.207 20.834-14.746 42.353-33.665 43.462-42.69.113-.916-.037-1.782-.131-2.368-.135-.836-.362-2.359-1.38-3.094l-9.71-7.006c-21.601-17.267-79.121-33.944-82.781-34.994a8.8 8.8 0 0 1-2.686-1.57l18.273-13.138a5 5 0 0 0 1.14-6.978 5 5 0 0 0-6.978-1.141l-18.626 13.392-3.951-5.291c-3.213-4.303-8.915-5.942-13.863-3.987a33 33 0 0 0-6.821 3.675l-.202.143c-7.584 5.37-8.912 12.995-3.642 20.922l2.256 3.392-18.187 13.075q-.145.105-.283.22c-22.448 18.719-32.769 46.967-26.942 73.692l20.613 97.466c-10.609 7.756-15.994 14.723-19.328 20.613-6.23 11.004-7.189 22.872-2.954 36.214l37.545 127.606-1.612.381c-3.114-.252-6.21-.112-9.249.517-.69.123-17 3.169-24.932 17.398-5.78 10.366-5.51 23.681.792 39.56l50.721 129.802c4.302 10.896 13.425 16.581 25.669 16.581.66 0 1.333-.021 2.011-.054a8.36 8.36 0 0 0-.579 5.704 8.41 8.41 0 0 0 8.138 6.338c.684 0 1.379-.084 2.072-.261.788-.199 1.351-.427 4.054-1.518a646 646 0 0 1 3.886-1.552l1.303 7.97s4.162 25.032 4.317 25.336c-71.053 24.232-117.252 46.231-117.77 46.479a3.399 3.399 0 0 0 1.47 6.466h941.648a3.39 3.39 0 0 0 3.311-2.647 3.386 3.386 0 0 0-1.843-3.819c-.295-.142-15.439-7.353-41.564-18.015l5.602-33.776c.027-.161.024-.32.028-.481l12.449-16.834a3.4 3.4 0 0 0-.106-4.18c-.792-.964-2.211-2.055-4.193-2.754 10.795-25.966 24.905-67.284 28.859-113.19 2.008-23.267 1.978-45.838-4.592-79.656a3.37 3.37 0 0 0 .912-1.87l1.892-14.354a3.4 3.4 0 0 0-1.298-3.139 18 18 0 0 0-1.022-.712c2.482-10.752 7.586-22.758 12.296-33.838 3.3-7.746 6.41-15.062 8.23-21.133a3.38 3.38 0 0 0-1.02-3.539 3.39 3.39 0 0 0-3.64-.534l-7.74 3.52-2.63-3.218a3.4 3.4 0 0 0-4.413-.747l-4.563 2.803-3.246-1.911 4.015-80.543.008-.27c.041-4.529 1.854-21.538 9.969-21.99 2.32-.125 4.61.982 6.59 3.215 2.75 3.104 8.7 12.989 4.35 37.691a6.35 6.35 0 0 0 5.15 7.353c3.45.604 6.75-1.699 7.35-5.152 3.8-21.546 1.18-38.707-7.36-48.324m-236.867-322.27c6.379 0 11.57 5.189 11.57 11.569s-5.191 11.57-11.57 11.57-11.57-5.19-11.57-11.57 5.191-11.569 11.57-11.569m-17.497 5.988a18.3 18.3 0 0 0-.873 5.581c0 1.14.119 2.252.319 3.335l-7.597-.72c.08-3.358.082-6.525-.002-9.453zm-495.193 17.151c-6.379 0-11.57-5.19-11.57-11.57s5.191-11.569 11.57-11.569 11.571 5.189 11.571 11.569-5.191 11.57-11.571 11.57m16.967-18.597 1.287-.199q-.026 2.624.026 5.452a18.2 18.2 0 0 0-1.313-5.253M236.754 300.11c-1.872 4.585-14.387 18.628-40.396 37.037-27.027 19.13-45.091 26.471-50.169 26.659 1.112-2.724 5.978-8.783 15.194-17.111.859.042 1.722.071 2.582.071 14.045 0 27.278-5.441 37.26-15.32a3.4 3.4 0 0 0 .025-4.809c-.029-.029-.063-.048-.093-.076a3.394 3.394 0 0 0-4.715.051q-.755.744-1.537 1.45c-.173.156-.351.305-.526.459-.351.308-.704.615-1.064.912-.214.177-.433.348-.65.522q-.492.392-.992.771a52 52 0 0 1-2.446 1.72q-.495.323-.997.632c-.257.159-.513.321-.773.475-.347.206-.7.401-1.053.598-.251.14-.5.285-.753.42q-.861.46-1.741.881c-.305.146-.617.28-.925.419-.31.141-.619.283-.932.417-.341.144-.685.279-1.029.415q-.427.173-.858.335-.539.2-1.084.386-.413.143-.829.279-.563.182-1.13.35-.4.116-.8.226-.59.165-1.186.314c-.242.06-.485.113-.728.169-.426.098-.852.197-1.281.283-.148.03-.297.053-.445.081a46 46 0 0 1-3.401.522c4.988-3.938 10.753-8.244 17.304-12.88 7.109-5.032 13.594-9.344 19.391-12.979q-.11.4-.208.797c-.112.44-.218.879-.305 1.315-.236 1.166.345 2.156 1.211 2.703 1.014.64 2.42.671 3.379-.368.751-.782 1.346-1.663 1.923-2.558 1.274-2.061 2.173-4.331 2.791-6.671 11.355-6.145 18.967-8.786 21.986-8.897m-116.807-56.9.096-.067.083-.06a26.2 26.2 0 0 1 5.428-2.925c2.101-.833 4.535-.12 5.916 1.73l8.732 11.694a15.6 15.6 0 0 0 7.391 5.415q.092.032.184.059c.596.17 59.844 17.222 80.564 33.844q.067.054.138.104l2.105 1.519c-2.935.879-6.586 2.308-11.163 4.487-10.614 5.053-23.67 12.94-36.764 22.207-16.551 11.715-33.523 26.058-40.362 35.987l-.546-1.491a173.2 173.2 0 0 1-9.653-41.916l-4.178-40.895a15.7 15.7 0 0 0-2.536-7.073l-7.329-11.022c-3.293-4.952-2.74-8.315 1.894-11.597m859.644 261.61-3.49 69.997-1.569-.913a3.4 3.4 0 0 0-3.971.398l-2.514 2.237-4.879-3.082a3.39 3.39 0 0 0-3.813.141zm-156.147-99.626c86.427 20.546 133.241 41.705 147.327 66.589 5.246 9.267 6.021 19.368 2.348 30.945l-33.155 112.685c-35.699-7.386-89.062-44.497-109.293-59.292-2.391-2.592-4.725-4.817-6.938-6.599a75 75 0 0 0 3.339-10.026c.29-1.164.54-2.338.77-3.516l.066-.326c.04-.206.109-.406.207-.589a1.8 1.8 0 0 1 .383-.49q.188-.167.408-.33c.075-.056.162-.089.245-.13.192-.094.395-.164.609-.191a45.4 45.4 0 0 0 9.253-2.191c5.392-1.892 10.422-4.806 14.684-8.634a41 41 0 0 0 2.724-2.686c6.46-6.845 8.33-16.738 8.117-26.104-.335-7.929-3.107-15.557-6.739-22.515-2.215-4.387-2.969-9.152-3.86-14.265-1.03-4.559-1.117-16.352-8.662-13.754-3.642 1.752-7.477 3.639-11.134 5.344a631 631 0 0 1-14.773 6.725l-23.927-16.289a15 15 0 0 0-5.786-2.366l-99.982-18.166a10.63 10.63 0 0 0-8.624 2.203 10.3 10.3 0 0 0-1.915 2.073c-1.024-.859-2.046-1.718-3.08-2.563-.197-.166-2.382-1.95-2.509-2.029-2.212-1.669-5.202-.712-6.395 1.603-1.812 3.649-2.123 7.126-3.483 10.743-1.09 3.157-2.47 6.031-4.474 8.279-2.381 2.741-4.701 5.574-6.872 8.557-7.631 10.379-14.212 24.504-10.207 37.755 2.277 6.514 6.009 12.333 10.615 17.386-.242.362-1.305 2.192-1.552 2.784-3.316 7.949-4.133 20.69 1.516 31.235 1 1.867 2.341 3.888 4.095 5.895 1.677 5.833 4.356 11.454 8.091 16.237-8.278-.553-19.246-1.139-25.744-.897-3.827.104-6.503-8.565-8.837-16.247-2.902-9.55-6.151-20.224-13.849-23.269a34 34 0 0 0-.602-2.631 21.7 21.7 0 0 0-2.466-5.735l10.406-86.458c1.665-11.583 6.903-20.227 16.015-26.426 26.373-17.94 86.443-15.429 183.64 7.676m148.538 248.245c4.703 8.489 4.296 19.828-1.219 33.723l-50.711 130.251c-2.079 5.268-7.131 12.393-19.243 12.391-4.608 0-10.239-1.031-17.114-3.589-12.036-4.477-29.186-9.786-36.435-11.99l44.089-122.549q.024-.064.044-.129c8.847-28.069 37.109-56.983 60.366-52.178.139.025 13.903 2.664 20.223 14.07m-7.951-16.669.019-1.735c13.664-1.983 23.138 2.483 26.734 4.611l-1.025 7.778c-5.426-2.002-11.259-2.979-16.297-3.433-2.963-3.196-6.311-5.532-9.431-7.221M857.534 855.902l-.443 13.313c-1.754-.564-3.516-1.129-5.295-1.693-69.612-22.085-170.118-47.833-275.693-54.403l6.123-15.94 5.506-14.336c118.791 5.866 216.36 34.308 270.446 53.673zm-373.684-75.33c.707-.015 1.411-.036 2.12-.05a8.403 8.403 0 0 0 8.236-8.565 8.34 8.34 0 0 0-1.216-4.17c10.655-4.54 16.664-12.933 16.754-24.244l-.574-139.551c.167-17.101-4.373-29.622-13.493-37.214-.118-.098-.239-.187-.357-.283.184.002.365.012.55.012 1.928 0 3.899-.105 5.899-.319 13.19-1.414 22.352-6.271 27.184-14.258 4.245 8.611 12.41 13.705 24.163 15.025-.533.388-1.063.791-1.585 1.225-9.121 7.593-13.661 20.113-13.493 37.167l-.575 142.498c.087 10.928 5.728 19.132 15.761 23.76a8.4 8.4 0 0 0-.223 1.754 8.4 8.4 0 0 0 8.237 8.564c.709.014 1.412.035 2.119.05 0 0-1.179 4.89-2.603 10.816l-.019-.004-4.687 19.323a781 781 0 0 0-29.824-.58c-11.647 0-23.282.273-34.871.787.031-.358-7.503-31.743-7.503-31.743M238.618 563.048c-9.149-6.697-20.711-24.102-20.711-24.102s10.136-5.628 14.894-13.288c.254-.409.411-.738.51-1.02 2.287-2.452 4.193-5.221 5.596-8.184a2.028 2.028 0 0 0-3.438-2.106c-5.181 6.664-12.114 11.48-20.232 13.552-11.695 3.062-25.613.475-34.564-7.874-3.027-2.735-4.82-6.286-6.134-10.069-2.283-5.935-2.921-12.066-2.154-18.305.333-2.587.886-5.252 1.537-7.811.429-1.563 1.008-3.434 1.366-5.002 1.507-6.799.675-14.285.758-20.786.035-1.125.102-2.234.368-3.118l5.787-1.165a327 327 0 0 1 39.758-4.858 380 380 0 0 1 13.367-.594c4.458-.178 8.913.204 13.367-.982a1.64 1.64 0 0 0 1.178-1.079c.444-1.395-.869-2.194-2.88-2.649 16.602-10.054 36.859-14.742 55.725-12.873a61.4 61.4 0 0 1 13.798 3.343c4.638 1.463 8.537 4.504 13.337 5.538 1.762.417 3.151-1.672 2.058-3.14-3.27-4.206-8.482-6.049-13.218-8.102-3.496-1.349-7.109-2.378-10.792-3.138a72 72 0 0 1 8.825-2.219c10.891-2.043 22.42-2.406 33.521-2.07l4.835.182.083.003c.494 1.358.718 3.477 1.034 5.242.562 3.331 1.413 7.02 3.478 10.382 1.676 3.048 4.772 4.882 6.968 7.51 1.893 2.235 3.5 4.829 4.847 7.563 2.033 4.361 4.058 9.926 4.582 15.262-.445-.297-2.138-1.641-2.59-2.028-2.257-2.091-5.582-1.614-8.386-2.11-8.146-.983-11.611-4.571-16.673-10.775-2.061-2.342-4.384-4.618-7.074-6.402a1.925 1.925 0 0 0-2.687 2.642c1.617 2.604 3.278 5.021 5.013 7.513 2.85 4.041 5.978 8.344 10.551 10.735 2.44 1.305 5.03 2.101 7.682 2.625l-50.757 23.22c-1.969.9-3.433 2.505-4.123 4.518-.781 2.283-.52 4.947.717 7.309 2.712 5.182 8.671 14.863 18.111 21.479 6.571 4.605 13.769 6.927 21.277 6.927 4.531 0 9.175-.845 13.862-2.546 3.516-1.277 6.679-2.755 9.506-4.419.023.001.05-.002.072 0-5.172 12.133-16.5 20.465-34.396 24.955-.93.187-1.656.981-1.674 1.979a2.05 2.05 0 0 0 2.007 2.086c3.387.066 6.503-.419 9.677-1.154a47 47 0 0 0 7.089-2.333c2.715-.73 10.023-2.72 12.835-3.723 10.226 1.866 39.292 6.989 48.919 6.757 6.871-.168 13.501-6.785 20.357-14.805.622 1.907 1.442 4.029 2.477 6.412 4.479 10.317 11.003 15.808 19.469 16.431-12.188 5.893-21.888 19.101-27.838 34.661a214 214 0 0 1-6.996 2.421c-9.015 1.41-18.351-1.23-20.441-1.877-5.218-6.234-9.499-10.537-9.816-10.854a3.4 3.4 0 1 0-4.808 4.808c.135.135 13.595 13.667 21.757 27.489 5.308 8.988 9.236 17.634 11.801 25.911-2.007-2.877-4.41-5.42-7.286-7.428-10.628-7.424-25.699-9.126-41.35-4.679-8.57 2.437-15.836 6.365-20.595 10.944-6.546-3.6-14.069-5.525-21.391-5.601-20.255-.496-40.395 8.812-53.063 24.584-2.505 3.121-4.733 6.341-6.507 10.076-.384.809-.2 1.806.512 2.418.887.768 2.251.614 2.958-.32 9.534-10.937 20.53-21.557 34.559-26.316 17.767-6.632 42.059-4.575 51.796 13.628 4.322 8.006 4.912 17.455 5.975 26.449.906 9.353 1.293 19.101 1.788 28.573.139 1.867.211 4.459.574 6.285 2.152 7.813 7.529 14.251 11.01 21.295 1.404 2.857 3.285 6.337 3.128 9.352-.247.181-.658.44-1.103.653-3.583 1.627-7.621 2.569-11.656 3.355-1.254-4.744-6.068-11.826-9.88-11.857-3.388.56-2.044 4.429-.924 6.446 1.175 2.031 2.629 4.45 3.656 6.663-6.392 1.007-12.872 1.782-19.365 2.439-8.924.877-17.902 1.598-26.854 1.989-2.293-3.814-3.278-8.388-4.582-12.853-1.906-7.284-3.47-14.758-4.949-22.242-3.018-14.835-5.288-30.623-8.256-45.504-1.146-4.121-6.927-2.866-6.675 1.017-23.424 3.758-46.439 9.213-68.895 16.354-1.909-3.084-3.758-6.616-5.333-9.849-3.719-12.461-5.413-24.989-5.835-36.813.355-3.532 1.103-7.355 1.242-8.048.511-.281 1.029-.561 1.531-.847a3.4 3.4 0 0 0 1.268-4.639 3.4 3.4 0 0 0-4.639-1.267c-20.785 11.863-47.038 18.397-66.957 17.791-8.666-10.57-19.261-19.056-30.186-23.175-.748-19.005 5.784-23.31 7.306-24.047 19.03.613 45.101-8.155 77.553-26.098 12.08-6.679 22.868-13.468 30.676-18.616a88 88 0 0 0 4.325 3.456c3.705 2.594 7.578-2.733 4.05-5.463m140.773-57.265c-2.675 7.94-9.646 14.003-20.716 18.022-8.355 3.034-29.455 6.899-44.906-22.62-.435-.831-.444-1.554-.307-1.953.086-.253.236-.408.517-.537l56.994-26.074c.184-.084.377-.124.568-.124.436 0 .855.209 1.096.582 1.949 3.025 11.435 18.812 6.754 32.704M320.188 324.19c.321-6.238.628-12.356.676-18.342l.059.012c4.681.526 9.1.769 13.272.768 10.734 0 19.855-1.613 27.803-4.118.054.049.094.102.152.15 6.451 5.803 11.958 12.602 17.05 19.631 5.282 7.217 9.204 15.273 14.568 22.456 1.291 1.652 3.999.353 3.522-1.695-3.265-13.985-16.253-32.978-28.051-43.188 5.398-2.243 10.222-4.854 14.625-7.557a164 164 0 0 1 10.495 13.48c11.461 16.381 26.584 44.174 33.548 83.552.652 3.687-1.567 7.529-6.161 11.139-2.846-3.81-6.349-7.149-10.518-9.984-17.267-11.746-46.207-15.574-88.793-11.415-4.047-19.781-3.108-38.107-2.247-54.889m-1.245-39.001c20.725 2.737 49.969-5.929 60.429-9.353l1.695 10.211c-14.132 8.813-31.298 16.172-59.2 13.075-1.372-1.171-2.591-7.241-2.924-13.933m202.858-129c-30.346-.182-57.282.726-79.863 2.039.217-2.727.354-5.449.402-8.164 40.779-2.281 95.588-3.202 159.197 1.145q.006 3.96.253 7.938a1322 1322 0 0 0-62.104-2.717c-.9.001-1.796.332-2.448.972a3.4 3.4 0 0 0-1.02 2.427v87.957a3.4 3.4 0 0 0 3.311 3.398c39.885 1.052 76.701 3.524 104.447 5.84a230 230 0 0 0 11.921 13.395 1320 1320 0 0 0-116.211-7.474c-.901.012-1.795.331-2.448.971a3.4 3.4 0 0 0-1.02 2.428v86.652a3.4 3.4 0 0 0 3.302 3.399c28.166.81 54.691 2.312 77.424 3.939a231 231 0 0 0-3.369 11.597 1322 1322 0 0 0-103.499-4.069c-30.471 0-57.226 1.066-79.305 2.477a232 232 0 0 0-3.586-12.565c28.573-1.79 60.167-2.391 94.535-1.79a3.4 3.4 0 0 0 3.459-3.4v-86.479a3.4 3.4 0 0 0-3.378-3.401c-62.753-.371-110.936 3.905-136.139 6.811a228 228 0 0 0 12.9-14.157c35.507-3.707 76.778-5.232 123.166-4.544.896-.032 1.788-.339 2.437-.978a3.4 3.4 0 0 0 1.014-2.422v-87.825a3.4 3.4 0 0 0-3.378-3.4m153.932 147.416a135 135 0 0 0-4.228 7.973c-3.983 8.408-7.868 16.997-10.07 26.074a31 31 0 0 0-.75 5.641 2.028 2.028 0 0 0 3.716 1.208c2.015-3.151 3.464-6.485 4.901-9.891 3.805-9.37 8.545-19.436 12.889-28.711a87.4 87.4 0 0 0 15.354 3.285c1.583 4.074 2.737 8.29 3.61 12.589 1.089 4.909.96 10 2.749 14.781.625 1.7 3.261 1.704 3.875-.028 2.603-6.882.869-18.526-2.41-26.696q2.12.09 4.329.09c4.173 0 8.591-.242 13.273-.768l.059-.012c.047 5.986.355 12.104.675 18.342.831 16.168 1.729 33.771-1.826 52.725-41.008-3.707-69.026.211-85.899 11.689-5.188 3.529-9.352 7.831-12.489 12.871-5.496-3.894-8.217-8.107-7.504-12.136 6.963-39.377 22.087-67.171 33.548-83.552a164 164 0 0 1 10.494-13.481c4.698 2.884 9.863 5.669 15.704 8.007m-12.906-14.267 1.695-10.21c10.46 3.424 39.707 12.088 60.429 9.353-.333 6.692-1.552 12.762-2.924 13.933-27.902 3.101-45.069-4.262-59.2-13.076m-6.996.619c-3.181 3.581-6.756 7.964-10.49 13.142-6.35 8.805-13.165 19.96-19.353 33.632a216 216 0 0 0-6.807 16.948 1934 1934 0 0 0-27.269-1.785 3.61 3.61 0 0 0-1.147-3.007l-10.456-9.597a3.634 3.634 0 0 0-4.914 5.354l7.34 6.736a1760 1760 0 0 0-39.717-1.683v-34.772l16.687 15.317a3.63 3.63 0 0 0 5.134-.22 3.635 3.635 0 0 0-.22-5.134l-19.328-17.74a3.6 3.6 0 0 0-2.273-.936v-36.394a1300 1300 0 0 1 14.939.432 3.6 3.6 0 0 0-1.414.91 3.633 3.633 0 0 0 .147 5.136l19.461 18.375a3.62 3.62 0 0 0 2.494.992 3.634 3.634 0 0 0 2.495-6.275l-19.461-18.375a3.6 3.6 0 0 0-1.04-.673c16.676.603 33.348 1.523 49.969 2.758a3.6 3.6 0 0 0 .919 1.583l19.09 18.934a3.62 3.62 0 0 0 2.558 1.053 3.634 3.634 0 0 0 2.559-6.213l-14.653-14.534a1301 1301 0 0 1 36.822 3.557zm-248.76-9.603-6.115-5.635c11.159-1.095 24.865-2.232 40.779-3.166l9.444 8.549c.695.63 1.567.94 2.437.94a3.635 3.635 0 0 0 2.44-6.327l-4.106-3.717a1230 1230 0 0 1 47.021-1.433c6.295-.073 12.764-.102 19.408-.077v12.959l-11.744-10.78a3.634 3.634 0 0 0-4.914 5.354l16.658 15.29v56.817a1390 1390 0 0 0-36.767-.085l-9.192-8.47a3.633 3.633 0 1 0-4.925 5.343l3.571 3.291c-14.549.289-28.488.832-41.789 1.629a3.6 3.6 0 0 0-.544-.646l-6.2-5.714c-10.681-27.63-24.488-46.575-34.471-57.811l-1.724-10.388c1.59-.184 3.268-.373 5.044-.567.104.126.204.255.328.369l10.436 9.619a3.63 3.63 0 0 0 2.462.962 3.634 3.634 0 0 0 2.463-6.306m27.532 107.802a248 248 0 0 0-2.237-11.111c43.967-2.765 106.359-4.119 179.548 1.578-.96 4.14-1.843 8.408-2.624 12.825-1.245 7.043 2.679 13.724 11.065 19.409-1.566 3.743-2.676 7.807-3.306 12.197l-9.757 81.06c-4.245-2.846-9.254-4.12-13.595-4.502a119 119 0 0 0-.434-2.242c-.009-.043-1.149-4.186-6.58-6.239-4.898-1.85-13.04-3.744-27.239-3.206-.395.015-1.714.079-1.817.084-3.6.181-6.915.483-9.936.908 2.169-3.64 2.156-7.465-.084-10.623-2.781-3.924-8.556-5.858-13.433-4.499-4.939 1.376-8.523 4.592-10.196 8.712a26.7 26.7 0 0 0-2.778-6.672c-4.726-8.083-12.6-12.377-21.045-11.495-5.591.585-9.867 3.799-10.894 8.189-.518 2.214-.84 7.924 7.338 13.094.707.447 1.32.879 1.874 1.302a317 317 0 0 0-5.21.328c-14.154 1.162-22.011 4.012-26.654 6.434-5.155 2.689-5.791 6.939-5.795 6.984-.018.203-.084 1.01-.164 2.277-7.068 1.488-15.663 5.639-18.935 14.717l-11.566-96.09c-.81-5.636-2.416-10.744-4.785-15.318 7.123-5.391 10.391-11.591 9.239-18.101m170.893 130.833c-.454-1.724-1.051-3.11-1.537-3.837-2.041-3.058-4.763-4.898-8.727-5.73a201 201 0 0 0-.389-2.818c5.283.757 12.267 3.305 14.443 11.316q.608 2.24.797 4.304a14.9 14.9 0 0 0-4.587-3.235m2.79 22.781c-.226 3.375-1.596 5.113-4.73 6-2.094.592-4.837 1.021-6.011-.307-2.878-3.259-.18-14.83 2.906-23.008 2.134.455 3.783 1.363 5.005 2.748 3.171 3.595 3.134 10.036 2.83 14.567m-15.672 10.365-.027-.01.006-.012zm24.843 140.946a3.13 3.13 0 0 1 1.232-2.277 3.06 3.06 0 0 1 2.602-.548c1.981.474 4.31 1.063 6.872 1.711 11.052 2.797 25.782 6.516 36.71 7.185a10 10 0 0 0-.323 2.392l.002.136.916 28.95c-4.442 2.432-14.423 9.256-19.242 23.357-1.139-.204-1.82-.324-1.818-.32a3.395 3.395 0 0 0-3.83 2.897c0 .013-.775 5.584-1.321 9.514-6.984-.599-13.957-1.766-20.84-3.021-8.139-1.5-16.873-3.533-25.065-5.618l.888-6.398c8.222 2.286 16.555 4.001 24.992 5.329 3.244.442 6.457 1.253 9.91.337a1.87 1.87 0 0 0 1.091-.791c2.064-3.834-7.677-4.911-9.834-5.594-5.095-1.187-15.06-3.676-22.537-5.528 5.891-13.947 18.186-18.939 18.836-19.195a3.4 3.4 0 0 0 2.175-3.338zm5.389-75.885c3.492 1.282 7.218 2.395 11.24 3.375 8.815 2.145 16.134 3.448 21.765 4.238a131 131 0 0 0-2.358 4.601c-8.197-.58-15.659 1.373-21.925 5.82-3.02 2.143-5.524 4.879-7.606 7.971l.144-4.835c.426-6.872-.035-14.058-1.26-21.17m12.657 23.579c8.64-6.131 18.623-5.098 25.476-3.155 8.969 2.546 17.081 7.853 22.375 13.201a38 38 0 0 0-5.979 9.792c-2.218 5.255-3.272 11.054-4.125 16.526-.743 4.999-1.277 10.031-1.703 15.069a10 10 0 0 0-1.695.691 3.36 3.36 0 0 0-1.627-.432c-.03-.003-.071.001-.108.001-10.253 0-27.115-4.266-38.286-7.093a543 543 0 0 0-6.96-1.732 10 10 0 0 0-2.151-.271c.477-29.282 10.475-39.54 14.783-42.597m115.445 64.082c.988-6.024 1.984-12.027 3.051-17.91 37.918 9.582 77.988 22.938 117.222 40.589l-28.525 79.289-92.556-18.761a984 984 0 0 0-12.299-2.653 3.33 3.33 0 0 0 .863-1.791l1.831-12.193c.121-.815-.036-1.513-.396-2.114l11.626-58.884q.03-.15.046-.304a10.1 10.1 0 0 0-.863-5.268m103.364 7.99c8.061-17.727 11.483-36.195 12.42-53.101 8.327 4.286 17.513 7.944 26.825 10.679-3.627 6.109-6.585 12.548-8.629 19.012l-11.398 31.681a669 669 0 0 0-19.218-8.271M733.79 766.366c-3.954-.58-8.531-.247-10.467.293-2.393.545-2.53 4.06-.112 4.742 3.311.919 6.836 1.46 10.143 2.125l-.902 6.008c-22.321-1.354-44.701-3.737-66.732-7.571-6.668-1.218-13.292-2.602-19.84-4.208l.942-6.791c14.441 2.505 28.917 4.638 43.45 6.515 5.231.68 10.465 1.389 15.793 1.363a1.888 1.888 0 0 0 .498-3.704c-10.216-2.67-20.663-3.796-30.994-5.864-.024.006-13.325-2.402-22.54-4.063 5.302-14.21 16.6-19.109 17.19-19.355a3.4 3.4 0 0 0 2.115-3.256l-.983-31.056a3 3 0 0 1 1.145-2.302 3 3 0 0 1 2.56-.594c14.175 3.103 44.102 8.079 66.375 7.059a3.48 3.48 0 0 1 2.734 1.087c.643.682.958 1.563.894 2.494zm-116.475-128.37-.005.112-.678 22.77c-2.194 9.047-2.674 17.935-2.728 23.203-.006.519.016 1.133.06 1.829a9.9 9.9 0 0 0-3.309 7.043q-.005.145.002.289l1.313 27.058c-4.731 2.408-15.497 9.19-20.854 23.005a3.4 3.4 0 0 0-3.072 2.915c.004.026-1.855 13.291-1.848 13.315a3.37 3.37 0 0 0 2.505 3.729l7.063 1.805c5.849 1.383 11.732 2.741 17.648 3.947l-.06 1.991c-7.542-.551-25.478-1.77-38.334-1.924-26.614-.317-30.693-13.476-30.755-21.252l.575-142.504c-.147-14.926 3.553-25.652 10.995-31.88 6.238-5.22 13.95-6.215 18.925-6.215 3.001 0 5.006.362 5.09.378 23.347 3.87 39.311 41.014 37.467 70.386m-33.908-76.588-.054-.011.078-.047zm-23.068-.897q-.397.005-.786.005c-18.007 0-23.762-8.192-25.789-14.537 7.868 2.524 15.468 3.482 22.461 3.482 14.326 0 26.103-4.003 32.44-6.715-.509 2.374-1.176 4.414-2.009 6.071-2.862 5.688-12.109 11.51-26.317 11.694m-27.916-22.225c-.814-9.691-.438-27.605-.27-33.938 1.559.404 3.409.707 5.506.971 4.046.508 8.894.769 14.085.769 2.307 0 4.682-.052 7.083-.156 7.825-.339 15.739-1.284 22.285-2.662 2.448-.516 4.436-1.021 6.051-1.548.626 3.541 1.633 9.88 2.219 16.971.498 6.039.601 11.421.317 16.056-4.266 2.174-29.728 14.047-57.276 3.537m7.024-40.197c-5.451-.527-8.711-4.317-9.521-8.197-.749-3.589.452-7.982 6.072-9.546a5.3 5.3 0 0 1 1.41-.183c1.815 0 3.765.812 4.652 2.065.284.399 1.036 1.46-.497 3.658-3.675 5.27-3.22 9.407-2.116 12.203m6.634-1.834c3.456-.711 7.524-1.271 12.148-1.471 8.669-.376 16.654.587 22.049 1.714-5.203 1.124-12.907 2.257-21.745 2.641-4.008.174-7.631.185-10.823.092-.26-.736-.654-1.373-.962-1.857a16 16 0 0 1-.667-1.119m-45.848-16.38c-3.067-1.938-4.734-4.16-4.35-5.798.346-1.48 2.393-2.703 4.979-2.973 5.715-.605 11.128 2.453 14.468 8.164 2.938 5.022 3.486 10.901 1.305 13.978-1.623 2.289-4.623 2.591-7.282 2.29.312-3.286.519-9.567-9.12-15.661m2.411 13.816a15 15 0 0 1-.097 1.574c-.051.504-.133 1.37-.028 2.319-2.177.266-4.514.503-7.013.695-8.821.673-16.604.469-21.904-.025 5.222-1.763 13.035-3.674 21.685-4.337 2.623-.2 5.077-.261 7.357-.226m-18.39 11.821c3.839 0 7.826-.151 11.771-.454 7.791-.596 15.229-1.71 20.945-3.138 2.049-.511 3.85-1.034 5.35-1.62.602 4.09 1.882 13.063 2.796 21.513.008 4.316.076 8.736.254 12.607-25.865 13.183-52.112 4.566-56.553 2.936-.836-4.568-1.377-9.923-1.603-15.979-.265-7.109-.023-13.524.176-17.115 1.666.331 3.7.596 6.193.815 3.296.29 6.912.435 10.671.435m10.094 43.014c9.408 0 20.292-1.636 31.346-6.709-1.271 6.636-6.122 15.624-24.65 17.609-14.13 1.519-24.003-3.161-27.525-8.466-1.025-1.545-1.931-3.491-2.72-5.787 5.092 1.49 13.473 3.353 23.549 3.353m-34.05-35.654c-3.836 1.3-6.318 3.45-7.98 6.73-.493.974-1.039 2.984-1.21 5.366a20.6 20.6 0 0 0-3.876-.783c.041-.398.068-.788.128-1.196 1.203-8.215 7.834-11.578 12.988-12.961-.022.905-.04 1.85-.05 2.844m.073 7.464c.111 3.644.351 7.52.782 11.382a24.4 24.4 0 0 0-3.074-2.991c-.479-2.385-.046-5.27.305-6.051.412-.813.942-1.626 1.987-2.34m-7.086 13.264c6.979 5.186 9.551 16.296 10.396 21.465-11.501 2.64-16.361-4.406-19.58-11.821-3.69-8.498-3.477-11.252-3.29-11.957 4.935-1.013 9.017-.255 12.474 2.313m-26.518 71.617c-2.393 8.388-3.723 17.17-3.815 25.659-2.206-5.003-4.837-10.104-7.906-15.301a107 107 0 0 0-3.907-6.101c2.599-.412 7.453-1.486 15.628-4.257m-260.943 57c13.491-2.173 27.474-6.487 39.735-12.158.208 16.838 2.781 35.307 9.862 53.287a472 472 0 0 0-41.853 16.425l-11.29-31.262c-2.699-8.535-6.98-17.03-12.312-24.773 4.993-.134 10.293-.622 15.858-1.519m127.897 28.786c.959 5.523 1.928 11.86 2.711 16.396 2.59 15.247 5.13 30.403 8.894 45.475 1.541 4.905 3.966 18.785 10.785 18.473 9.503-.341 19.004-1.125 28.457-2.035 11.638-1.249 23.291-2.466 34.722-5.543 3.331-1.091 7.209-2.013 9.742-4.978 6.384-.513 13.655-1.2 20.772-2.064 6.762-.821 12.306-1.664 16.864-2.522l.383 12.557c-85.012 7.123-157.564 24.892-208.934 40.919-3.927.937-7.853 1.879-11.775 2.843l-30.459-84.343c37.485-16.858 77.029-28.644 117.838-35.178m127.843 44.415c-2.544.395-2.477 2.873-1.685 4.75.224.597.475 1.159.778 1.685 1.03 1.714 2.397 3.902 3.549 5.891-4.441.799-10.042 1.633-17.112 2.458a521 521 0 0 1-16.622 1.648c-1.224-9.116-10.729-20.828-13.49-27.799-.721-1.545-.852-2.835-.959-4.414-.143-1.809-.406-6.642-.509-8.52-.635-11.559-1.264-23.263-3.138-34.782-.962-5.824-2.399-12.284-5.47-17.575-2.307-4.367-5.529-8.067-9.312-11.089 3.963-3.353 9.895-6.381 16.622-8.294 13.475-3.831 26.783-2.442 35.597 3.713 4.254 2.97 14.174 12.998 14.417 41.895.053 6.221.657 16.595 1.708 24.389.528 3.912 3.536 9.027 7.019 14.949 3.616 6.146 8.536 14.513 7.949 18.409-.445.439-2.317 1.793-9.377 3.495-.733-1.923-1.899-3.698-3.041-5.33-1.83-2.262-3.695-5.267-6.924-5.479m25.923 9.086c1.461-6.406-3.688-15.161-8.668-23.629-2.85-4.845-5.797-9.856-6.142-12.411-.322-2.384-.6-5.02-.831-7.699l-1.949-64.062-.005-.109c-1.844-29.372 14.121-66.517 37.552-70.402.051-.01 2.025-.366 4.999-.366 4.953 0 12.683.989 18.931 6.218 7.442 6.229 11.142 16.954 10.996 31.928l.575 139.558c-.146 18.21-19.332 21.157-30.756 21.294-12.857.152-30.797 1.372-38.336 1.922l-.426-13.996c10.912-2.709 13.439-5.527 14.06-8.246m505.564-111.811c-19.593-4.041-41.424 11.172-55.711 31.83a145 145 0 0 1-4.703-1.397c-.516-.163-1.03-.348-1.546-.517-1.053-.345-2.106-.685-3.156-1.056-.618-.218-1.231-.461-1.847-.688-.945-.348-1.892-.686-2.831-1.054-.683-.268-1.356-.56-2.035-.838-.867-.355-1.737-.699-2.597-1.071-.699-.302-1.385-.629-2.079-.942-.829-.375-1.664-.738-2.485-1.128-.687-.327-1.358-.678-2.039-1.015-.812-.403-1.631-.795-2.433-1.213-.684-.357-1.349-.738-2.025-1.106-.778-.424-1.565-.837-2.331-1.274-.677-.388-1.331-.799-1.998-1.197-.727-.435-1.466-.858-2.179-1.305-.115-.072-.236-.127-.357-.185-.073-.035-.145-.076-.22-.106a3.6 3.6 0 0 0-2.073-.182c-.074.015-.149.026-.222.047-.082.025-.16.057-.24.087a3.3 3.3 0 0 0-.578.28q-.242.15-.459.344c-.034.031-.07.058-.104.09-.025.025-.055.044-.08.07-.072.076-.12.162-.184.242-.086.105-.173.207-.247.325-.075.117-.129.239-.187.362s-.125.244-.167.371c-.017.049-.027.099-.041.149a3.2 3.2 0 0 0-.115 1.173c.007.098.013.195.028.291.009.051.025.099.036.149a3.36 3.36 0 0 0 1.086 1.86c.055.05.116.093.174.14.083.063.153.137.242.193l.084.051q1.31.822 2.664 1.622c-.627 17.135-3.821 36.113-12.094 54.193-30.231-12.106-60.587-21.786-89.744-29.261l-3.705 1.046c-.773-3.001-5.562-3.601-6.577.087-.449 1.866-.859 4.213-1.18 6.013-.644 3.684-1.293 7.457-1.947 11.261a10.3 10.3 0 0 0-3.731-.52c-20.423.935-47.675-3.376-62.269-6.411.666-8.553 1.722-17.042 3.833-25.293 8.667-28.661 41.843-27.508 62.578-12.375 9.182 6.829 16.512 15.851 24.873 23.668 1.695 1.625 4.369-.446 3.176-2.513-5.313-8.545-11.803-16.1-19.218-22.881-10.963-9.481-24.899-15.579-39.579-15.835-9.846-.244-19.104 2.88-26.281 8.752-6.439-6.522-15.851-12.238-25.395-14.947a53 53 0 0 0-2.321-.598c2.053-3.983 4.408-8.028 7.075-12.133 8.775-13.51 17.203-24.187 17.288-24.293a3.4 3.4 0 0 0-5.332-4.221c-.077.097-6.995 8.859-14.871 20.591-8.663 4.849-21.309 4.578-25.714 4.308a234 234 0 0 1-3.266-.77c-5.404-1.315-10.196-2.865-14.561-4.767-5.802-22.589-19.29-42.841-37.101-47.617 4.543-4.938 12.26-6.204 15.059-6.509.334.026.668.052 1.028.052 1.52 0 3.272-.238 5.288-.809 5.903-1.671 9.245-5.851 9.663-12.088.172-2.563.254-5.629-.135-8.728a20.4 20.4 0 0 0 1.832-6.156c3.051 3.626 5.131 10.437 7.026 16.674 3.197 10.52 6.508 21.385 15.592 21.064 8.619-.314 26.217.941 33.098 1.47 9.604 7.055 22.003 10.447 33.785 8.318 2.172-.467 1.875-3.683-.358-3.738-14.052-1.024-29.609-5.156-37.724-17.58v-.002q.017-.055.041-.115a1.2 1.2 0 0 1 .27-.441c.231-.251.61-.483 1.225-.594q.23-.042.508-.059c2.727 1.122 5.791 2.072 9.283 2.75 3.674.713 7.072 1.038 10.214 1.038 24.317 0 33.319-19.446 36.209-28.633.793-2.523.582-5.168-.58-7.26-1.026-1.847-2.737-3.158-4.819-3.695l-54.242-13.946c2.093-1.457 3.738-3.423 4.459-6.349 1.195-3.42 3.051-6.497 4.89-9.596 2.971-5.035 6.5-9.272 10.453-12.846 1.047-.543 2.582-1.182 3.984-1.182 3.003 3.012 6.444 5.033 10.259 5.96 8.683 2.112 16.835-2.878 23.227-13.835.851-.518 1.855-.758 2.748.004 3.413 13.084 10.709 29.806 26.009 33.729 2.165.555 4.245.811 6.241.811q.678 0 1.345-.039a23 23 0 0 0 3.876-.564 24 24 0 0 0 3.636-1.172 26 26 0 0 0 3.391-1.701 31 31 0 0 0 4.139-2.954c4.898-4.114 8.757-9.664 11.523-15.001a63 63 0 0 0 1.528-3.165c.222-.494.543-.929.937-1.285a4 4 0 0 1 1.373-.811l.628-.218c.815-.283 1.724-.593 2.501-.849q.391-.128.726-.234c.355-.112.651-.201.854-.254 17.504-5.621 34.368-13.007 51.049-20.667 1.713 6.978 1.841 14.086 4.431 21.163 1.47 3.857 3.753 7.652 5.001 11.605 2.751 7.538 2.934 15.287.954 23.148-.767 3.485-2.667 6.712-5.176 9.518-10.453 11.417-28.66 14.957-42.678 8.469-3.531-1.587-6.777-3.835-9.815-6.492a2.028 2.028 0 0 0-3.013 2.679c1.564 2.222 3.447 4.217 5.554 5.96 5.664 5.985 15.623 10.261 19.015 11.603-1.78 6.999-4.699 13.716-8.542 19.885a3.38 3.38 0 0 0-.414 2.639 3.4 3.4 0 0 0 1.637 2.13 3.17 3.17 0 0 0 1.923.387c.047-.005.093-.02.14-.027a3.6 3.6 0 0 0 1.122-.354 3.8 3.8 0 0 0 1.481-1.366q.679-1.09 1.321-2.205t1.251-2.248c5.928 4.481 24.906 18.559 47.407 32.476 36.285 22.444 64.228 33.935 83.077 34.163 1 .541 4.198 2.8 5.662 10.051-1.925-.598-3.2-.837-3.359-.865M685.083 465.977c-5.781 4.565-10.864 10.241-14.971 17.282a86 86 0 0 0-4.264 7.937c-.773 1.468-1.264 3.84-1.939 5.035-.218.368-.509.679-1.074 1.08-1.063.742-2.716 1.485-4.291 2.11a53.6 53.6 0 0 1-8.268-11.395c-3.278-5.647-3.444-12.203-1.788-18.433 2.514-9.667 8.969-18.419 15.558-26.06 4.016-4.651 5.702-10.186 7.188-15.763.191-.706.415-1.582.659-2.407a353 353 0 0 1 5.368 4.352c-.17 10.693 1.466 21.157 4.656 29.545a46.4 46.4 0 0 0 3.166 6.717m-1.022-36.908c.024-1.003.48-1.915 1.283-2.57.863-.701 2-.989 3.115-.785l99.982 18.165c1.151.21 2.22.647 3.176 1.297l20.338 13.846a349 349 0 0 1-12.619 4.994c-1.502.603-3.041 1.102-4.568 1.625l-7.045-1.353a3.41 3.41 0 0 0-3.883 2.314c-.097.305-9.891 30.408-29.827 25.287-16.429-4.211-21.725-28.935-23.239-39.37a4.435 4.435 0 0 0-4.409-3.792 4.44 4.44 0 0 0-4.168 2.893c-2.581 6.97-9.715 22.9-20.251 20.352-12.359-3.004-18.353-23.856-17.885-42.903m-26.606 79.362c.193-.462.659-.75 1.158-.75q.162 0 .326.041l59.905 15.402c.349.09.479.25.568.411.199.356.312 1.046.038 1.917-3.373 10.722-12.88 27.967-38.639 22.96-10.601-2.058-18.044-6.962-22.122-14.574-4.596-8.578-3.931-18.941-1.234-25.407m294.858 108.396s-3.998-.204-5.571-.359l4.758-16.172c1.479 5.927 2.939 12.204 4.181 18.28-1.611-1.202-2.939-1.635-3.368-1.749M609.945 131.355c.385-.451 4.035-3.694 28.888-2.831 12.21.421 27.619 1.727 47.108 3.994 40.813 4.749 58.239 10.454 63.285 12.4 2.32 28.439-6.26 90.319-21.38 130.586a65 65 0 0 0-1.904 5.943c-3.869.691-8.187.879-12.703.707.06-.142.124-.282.165-.435 2.265-8.803 3.722-17.475 4.82-26.419 2.196-17.587 2.87-35.52 2.202-53.235-.319-8.873-1.228-17.729-2.925-26.459-.442-2.279-3.808-1.996-3.912.288-.307 8.813.051 17.541.039 26.335.241 25.99-1.458 52.351-6.645 77.823a3.3 3.3 0 0 0 .028 1.661c-14.839-1.487-30.483-5.935-38.533-8.471-6.798-6.34-20.05-19.729-32.314-38.115-15.876-23.8-33.303-61.114-26.219-103.772m5.815 81.313-9.885-9.765a3.633 3.633 0 1 0-5.107 5.17l25.166 24.861c.368.363.795.627 1.248.802a212 212 0 0 0 3.437 5.333 222 222 0 0 0 7.599 10.661 1965 1965 0 0 0-44.623-3.068l-15.132-15.008a3.634 3.634 0 1 0-5.117 5.16l9.332 9.256a1737 1737 0 0 0-39.66-1.593v-37.741l11.237 11.144a3.63 3.63 0 0 0 2.558 1.054 3.634 3.634 0 0 0 2.559-6.214l-16.354-16.22v-33.197c19.8.449 39.617 1.355 59.372 2.698 1.761 15.529 6.241 31.188 13.37 46.667m-12.912-79.875a127 127 0 0 0-1.139 11.615c-63.619-4.331-118.492-3.423-159.428-1.146a127 127 0 0 0-1.075-12.637c56.366-2.769 115.116-.755 161.642 2.168m-161.629 32.262c21.827-1.291 47.835-2.2 77.16-2.083v9.093l-6.816-6.76a3.635 3.635 0 0 0-5.117 5.16l10.077 9.993a3.6 3.6 0 0 0 1.856.985v52.371a3.6 3.6 0 0 0-.758.596 3.633 3.633 0 0 0 .147 5.135l.611.577v3.845a1344 1344 0 0 0-41.808.106l-8.592-7.886a3.633 3.633 0 0 0-4.914 5.353l3.022 2.774c-16.296.449-31.79 1.228-46.448 2.334q-7.71.582-15.11 1.285a225 225 0 0 0 6.587-9 217 217 0 0 0 2.158-3.156c5.801-8.678 10.743-17.474 14.826-26.33l15.638 14.353a3.62 3.62 0 0 0 2.456.957 3.634 3.634 0 0 0 2.458-6.31l-17.487-16.05c5.064-12.415 8.427-24.915 10.054-37.342m-146.551-23.428c5.066-1.954 22.497-7.655 63.284-12.401 19.489-2.267 34.898-3.573 47.109-3.994 24.849-.86 28.503 2.38 28.887 2.831 7.085 42.658-10.343 79.972-26.218 103.772-12.263 18.385-25.513 31.773-32.312 38.114-.998.314-2.113.658-3.328 1.022 2.256-4.845 4.198-9.732 6.032-14.785 5.928-16.961 10.396-34.698 11.11-52.708-.018-2.488-.043-5.282-.244-7.743a1.985 1.985 0 0 0-3.925-.218c-1.462 6.606-2.358 13.166-3.649 19.7-3.525 19.533-9.47 38.839-17.329 57.049-.16.333-.245.683-.287 1.033a225 225 0 0 1-9.017 2.174c2.405-7.941 3.37-16.298 4.302-24.489.802-9.237 1.911-18.436.572-27.699-.305-2.121-3.379-2.289-3.926-.218-1.812 6.419-2.332 13.731-3.066 20.345-1.352 10.955-2.426 22.249-5.147 32.93a4 4 0 0 0-.155.604c-10.167 1.798-20.884 2.732-29.409 1.209a65 65 0 0 0-1.904-5.943c-15.119-40.263-23.699-102.143-21.38-130.585m-220.6 359.63c-3.653-11.509-2.878-21.609 2.368-30.877 14.086-24.884 60.9-46.042 147.328-66.588 54.632-12.987 97.533-19.467 129.314-19.467 24.763 0 42.776 3.934 54.325 11.791 9.112 6.199 14.351 14.842 16.005 26.348l12.519 104.011a6.3 6.3 0 0 0-1.093 1.511c-.393.764-.651 1.621-.785 2.578-6.636 7.982-14.089 16.859-19.185 16.983-8.581.224-35.568-4.48-46.446-6.45 3.216-3.273 5.924-7.038 7.885-11.233 1.793-3.779 2.979-7.735 3.685-11.776 2.636-3.021 4.59-6.401 5.847-10.134 4.021-11.932-.086-24.294-3.843-32.041 2.274-8.733-1.047-19.155-4.709-26.942-1.55-3.118-3.405-6.127-5.746-8.877-1.892-2.482-4.782-4.012-6.436-6.697-2.37-3.671-2.573-8.595-3.643-13.171-.637-2.783-2.531-5.521-6.1-5.331-14.901-.493-30.163-.022-44.662 3.868-3.241.861-6.601 2.052-9.655 3.469-.964.519-2.099.954-2.952 1.657a83.5 83.5 0 0 0-13.011.097c-.039-2.012.046-4.014.003-6.132a1.83 1.83 0 0 0-.442-1.118c-2.826-2.721-5.979 4.217-6.339 6.451-.11.546-.177 1.107-.219 1.671a95 95 0 0 0-6.956 1.412c-2.208-2.081-4.868-3.667-7.76-4.486-1.556-.48-2.89 1.442-1.864 2.733a70 70 0 0 1 3.018 3.6c-10.487 3.335-20.442 8.435-29.041 14.924l-.239-.009c-13.595.129-27.16.956-40.665 2.636-5.211.646-11.645 1.631-16.831 2.596-.86.155-2.302.427-3.146.577-1.468.219-2.907 1.369-3.576 2.581-2.113 4.274-1.221 8.958-1.337 13.339.102 5.337.049 10.68-1.693 15.678-4.127 13.183-3.55 26.366 3.143 38.589 6.558 10.779 19.309 16.072 31.424 16.861a45 45 0 0 0 5.265.021 5.5 5.5 0 0 1 1.124.57c3.28 7.836 7.927 15.186 14.002 21.641a79 79 0 0 0 2.119 2.181c-23.623 15.432-71.974 44.075-103.436 42.647l-.451-.021-.442.099c-1.181.263-9.025 2.543-11.866 16.525zm89.444 323.556c-24.947 9.278-33.487-1.531-36.352-8.79L76.436 686.216c-5.507-13.875-5.914-25.214-1.21-33.703 6.32-11.406 20.083-14.045 20.306-14.086a25.7 25.7 0 0 1 5.206-.523c22.036 0 46.883 26.721 55.076 52.717q.021.067.045.133l44.084 122.071c-7.251 2.204-24.396 7.511-36.431 11.988m25.517 10.301c54.087-19.364 151.66-47.807 270.446-53.672l5.652 14.713 6.631 17.262c-103.895 7.018-202.502 32.34-271.105 54.105a1392 1392 0 0 0-10.436 3.357l-.844-25.398zM71.145 923.198c13.959-6.138 37.578-16.097 68.273-27.455a1422 1422 0 0 1 63.406-21.776c80.028-25.382 201.098-55.639 323.4-55.639 122.303 0 243.373 30.257 323.401 55.639a1421 1421 0 0 1 70.07 24.262c-3.52.251-7.041.5-10.572.595-7.916.355-16.608.473-24.521.373-82.237-1.773-163.264-18.831-245.191-25.651-49.305-4.552-98.73-7.438-148.28-7.179-107.217.964-212.191 29.072-319.391 28.819-6.794.026-17.328-.565-24.075.745-.181.035-.37.065-.546.103a1.83 1.83 0 0 0-.153 3.561c2.041.566 4.096.906 6.154 1.193 10.278 1.195 20.667.695 30.995.785 86.689-.641 171.866-19.581 257.997-26.11 32.747-2.602 65.48-2.843 98.318-1.51 65.745 2.116 131.118 9.146 196.319 17.77 32.692 4.176 65.357 8.702 98.246 11.39 22.624 1.877 45.467 2.772 68.196 2.006 5.977-.22 12.708-.621 18.619-1.069 3.144-.234 6.303-.463 9.372-1.446 21.916 8.461 39.058 15.728 50.122 20.594zm805.021-47.7 2.347-14.357-.029-.007c1.339-8.083 2.642-15.985 2.642-15.985 1.349.534 2.654 1.055 3.891 1.554 2.699 1.089 3.26 1.316 4.047 1.516a8.4 8.4 0 0 0 2.074.261 8.41 8.41 0 0 0 8.138-6.336 8.36 8.36 0 0 0-.579-5.706c.677.033 1.349.055 2.008.055 12.244 0 21.372-5.691 25.678-16.597l12.007-30.839c.969 10.887 2.407 22.962 4.326 36.222a923 923 0 0 0 2.923 18.792 12.4 12.4 0 0 0-4.911 2.255 3.4 3.4 0 0 0-.956 4.206l10.564 21.122-2.289 30.268c-19.443-7.765-43.809-16.956-71.881-26.424m80.57-7.767-.768-.017-8.517-17.029c.395-.024.763.067 1.065.311 3.277 2.651 7.358 5.946 13.635 3.48 2.177-.856 3.828-.998 5.025-.862zm36.082-134.013c-3.998 46.402-18.571 88.03-29.26 113.319a20.3 20.3 0 0 0-3.894 1.11c-2.283.896-3.45.325-6.838-2.411-3.357-19.946-7.364-47.446-8.671-71.487l32.936-84.599c6.021-15.168 6.527-27.98 1.542-38.128 3.12.537 6.32 1.334 9.312 2.491 6.793 34.125 6.866 56.571 4.873 79.705m-2.501-148.935a3.4 3.4 0 0 0 3.504-.033l3.772-2.317 2.405 2.943a3.4 3.4 0 0 0 4.042.945l2.88-1.311c-1.56 4.049-3.44 8.478-5.39 13.062-4.586 10.775-9.519 22.383-12.246 33.278-5.558-2.307-14.11-4.525-24.947-3.208-2.164-13.697-6.158-29.629-9.109-40.517l1.245-4.231.341.163c1.467.7 3.227.262 4.195-1.047l1.197-1.617 4.373 2.763a3.406 3.406 0 0 0 4.076-.335l2.585-2.3 4.939 2.876a3.4 3.4 0 0 0 3.83-.279l2.688-2.143z"
  />
  <path
    fill="#FFB46D"
    d="M921.81 904.05c-5.911.448-12.642.849-18.618 1.069-22.73.766-45.572-.129-68.197-2.006-32.889-2.688-65.554-7.214-98.246-11.39-65.201-8.624-130.574-15.653-196.318-17.77-32.839-1.333-65.572-1.091-98.319 1.51-86.13 6.529-171.308 25.469-257.996 26.11-10.329-.09-20.718.41-30.996-.785-2.058-.287-4.113-.627-6.154-1.193a1.83 1.83 0 0 1 .154-3.56c.175-.038.364-.069.545-.104-3.095-.05-5.833-.113-8.246-.188-30.696 11.359-54.315 21.317-68.274 27.455h910.159c-11.064-4.866-28.206-12.133-50.122-20.594-3.068.983-6.228 1.212-9.372 1.446"
  />
  <path
    fill="#FF7B00"
    d="M171.74 895.186c107.2.253 212.174-27.855 319.391-28.819 49.55-.259 98.975 2.627 148.28 7.179 81.927 6.82 162.954 23.878 245.191 25.651 7.913.1 16.605-.018 24.522-.373 3.53-.095 7.052-.344 10.571-.595a1421 1421 0 0 0-70.07-24.262c-80.028-25.382-201.098-55.638-323.401-55.638s-243.372 30.256-323.4 55.638a1422 1422 0 0 0-63.406 21.776c2.414.075 5.152.138 8.247.188 6.747-1.31 17.281-.719 24.075-.745"
  />
</svg>
