<svg xmlns="http://www.w3.org/2000/svg" width="836" height="764" fill="none" viewBox="0 0 836 764"><path fill="#FAD0E9" d="M428.108 41.19v90.046l69.079-68.72c-20.519-12.474-44.198-19.881-69.079-21.326"/><path fill="#FAD0E9" d="M522.04 135.341c3.456-11.324 12.151-20.449 23.341-24.413a143 143 0 0 0-13.772-19.154 141.4 141.4 0 0 0-15.601-15.617l-59.6 59.204zm.35-40.92a2.997 2.997 0 0 1 4.16.811l7.469 11.09a2.998 2.998 0 0 1-4.972 3.348l-7.468-11.09a2.996 2.996 0 0 1 .811-4.16m-9.467 15.168a3 3 0 0 1 4.22-.401l6.506 5.376a3 3 0 0 1 .401 4.22 3 3 0 0 1-2.312 1.087 3 3 0 0 1-1.908-.686l-6.505-5.376a3 3 0 0 1-.402-4.22m-9.239 9.974 12.321 5.191a2.998 2.998 0 0 1-2.327 5.524l-12.322-5.192a2.996 2.996 0 0 1-1.597-3.925 2.994 2.994 0 0 1 3.925-1.598"/><path fill="#FAD0E9" d="M544.018 303.409a44 44 0 0 1-4.503 6.839q3.115.978 6.4 2.014c4.113 1.296 8.78 2.766 13.488 4.218l.754-28.04c-1.153 3.397-3.01 6.543-5.523 9.117-2.997 3.07-6.63 5.039-10.616 5.852"/><path fill="#FAD0E9" d="M362.529 296.158c8.14 2.411 16.748 6.291 25.883 11.968a375 375 0 0 1 10.948 7.072c8.038.264 16.08 1.596 24.162 4.003-17.571-14.169-27.268-24.601-29.465-31.645-2.652-8.501 2.783-22.113 9.415-28.604 2.311-2.263 5.421-2.997 8.761-2.07 5.883 1.635 12.027 8.295 15.281 13.984.164-7.705-3.182-12.922-5.647-16.749-1.821-2.827-3.259-5.06-2.381-7.521.509-1.43 1.677-2.45 3.467-3.03 25.587-8.296 49.232-7.13 52.331-6.933 16.139-8.077 34.179-4.931 48.595 5.565 4.918-.811 13.664-.935 27.883 2.807 5.61 1.476 5.531 5.485 5.455 9.361-.07 3.6-.177 9.039 2.875 17.472.176.486.328.978.471 1.472l2.418-89.971a38 38 0 0 1-5.135.35c-16.328 0-30.399-10.574-35.446-25.403H266.864l2.558 46.904a107 107 0 0 1 8.79 12.479 107 107 0 0 1 5.016 9.562c5.62 9.276 11.18 19.117 12.655 23.993 3.763 12.449-.462 18.156-4.234 20.699-2.736 2.696-8.636 7.791-8.63 7.955-.084 8.784-1.265 17.66-4.953 25.69a149 149 0 0 1 6.486 4.996 181 181 0 0 1 4.098 3.577c1.493-1.164 3.272-2.007 4.543-3.412 6.819-7.539 4.309-22.528 3.71-32.897-.342-5.923-.611-10.601.181-13.652 1.528-5.877 9.937-10.338 14.814-12.474a67 67 0 0 1 4.885-1.893l-5.971-53.884c-.289-2.9 1.675-7.349 4.413-10.788.624-3.153 3.157-5.721 6.401-6.149l8.695-1.15a7.14 7.14 0 0 1 5.411 1.496c1.599 1.267 2.594 3.109 2.802 5.185l1.248 12.49c13.339-6.914 14.809-11.392 16.677-24.255a2.994 2.994 0 0 1 2.572-2.54 2.99 2.99 0 0 1 3.144 1.783c1.235 2.86 2.176 5.369 3.007 7.582 3.774 10.06 4.789 12.764 21.281 14.704a2.996 2.996 0 0 1 .778 5.753q-14.488 5.888-17.96 25.896l-.178 1.018a2.996 2.996 0 0 1-5.701.682c-4.74-10.896-8.602-16.325-22.234-16.748l3.738 37.415c1.514.76 2.652 1.678 3.505 2.638 3.542.291 7.185 1.717 9.718 3.579 2.296 1.564 4.637 4.249 5.347 7.438 2.828 11.075-.651 22.566-.938 33.588-.005.199-.005.409-.009.612m186.645-104.175a2.99 2.99 0 0 1 3.271-2.693 2.997 2.997 0 0 1 2.694 3.272l-.777 8a2.995 2.995 0 0 1-3.272 2.693 2.997 2.997 0 0 1-2.693-3.272zm-15.514-5.118a2.997 2.997 0 1 1 5.436 2.522l-5.625 12.129a2.997 2.997 0 0 1-5.437-2.522zm-5.682-8.251a2.996 2.996 0 0 1 .25 4.23l-5.604 6.312a3 3 0 0 1-2.241 1.007 2.998 2.998 0 0 1-2.24-4.987l5.604-6.311a2.997 2.997 0 0 1 4.231-.251m-23.448-3.335 11.348-7.07a2.997 2.997 0 1 1 3.169 5.087l-11.348 7.07a2.995 2.995 0 0 1-4.128-.959 2.997 2.997 0 0 1 .959-4.128"/><path fill="#FAD0E9" d="M279.001 274.887q-.435-.07-.873-.179c-.044.297-.086.599-.122.926.336-.243.662-.499.995-.747"/><path fill="#FAD0E9" d="M317.803 76.996a154 154 0 0 0-15.563 15.07c-11.595 12.927-20.842 27.442-27.637 43.349l101.896-.03z"/><path fill="#FAD0E9" d="m405.233 131.59-.069-90.09c-24.825 2.044-48.102 9.545-68.524 21.956z"/><path fill="#EE6DBB" d="m707.985 416.491-.67 9.868h7.621l.809-11.02a862 862 0 0 1-7.76 1.152"/><path fill="#EE6DBB" d="m726.781 139.735-8.797 129.531a216 216 0 0 1 8.157 4.52l9.668-131.647z"/><path fill="#C0167C" d="M605.786 224.623c21.091 4.799 32.055 10.852 37.537 15.068a90 90 0 0 1 11.056-.813c21.839-.448 41.893 8.414 54.71 26.046.261.113 1.343.587 3.085 1.42l8.621-126.939-116.433 17.009-3.525 68.135c1.337-.36 2.941-.383 4.949.074"/><path fill="#C0167C" d="m678.338 420.309 23.017 5.333.564-8.298a1105 1105 0 0 1-23.581 2.965"/><path fill="#EE6DBB" d="m118.691 421.389-5.793-85.313a57 57 0 0 0-8.344-3.421l6.517 88.734z"/><path fill="#EE6DBB" d="M106.739 264.741c.391-.579.801-1.144 1.197-1.719l-8.71-128.258-9.03 2.405 10.119 137.771a202 202 0 0 1 6.424-10.199"/><path fill="#C0167C" d="M163.164 341.913c-3.257 4.598-7.8 8.332-13.272 9.926-8.578 2.677-18.066-.539-24.384-6.582a46 46 0 0 0-6.345-5.402l5.488 80.817 49.09-11.373c.816-8.133 1.441-16.281 1.722-24.462.222-6.663.305-13.334-.018-19.992-.362-5.81-.647-11.629-.145-17.437a51 51 0 0 1-12.136-5.495"/><path fill="#C0167C" d="M130.259 234.949c.322-3.452 2.685-5.888 4.431-8.66 5.711-7.952 12.983-14.768 21.244-20.058a62.5 62.5 0 0 1 8.146-4.366c-1.766-1.654-3.465-3.229-5.139-5.123-.921-.889-.144-2.55 1.117-2.419 3.942.417 7.567 2.348 10.455 5.074a68 68 0 0 1 4.2-1.218 12.4 12.4 0 0 0-.875-2.12c-.238-.481-.608-1.067-.813-1.67-.666-3.157 3.695-1.86 5.101-.644 1.127.819 1.962 1.946 2.501 3.21 15.84-2.589 32.638.146 47.22 6.976l-2.091-49.945c-.011-.262.329-1.894.329-1.894l-120.874-17.658 8.217 120.985a188 188 0 0 1 7.862-9.682c1.788-1.991 3.392-4.118 6.013-5.416.828-.412 1.676-.282 2.325.146a84 84 0 0 1 1.868-3.4c-.765-.394-1.328-1.188-1.237-2.118"/><path fill="#C0167C" d="M362.736 321.342a108 108 0 0 1 5.505-1.869c6.878-2.107 13.723-3.439 20.561-4.009-1.175-.749-2.347-1.497-3.555-2.248-7.94-4.935-15.434-8.425-22.541-10.716.294 6.257.398 12.566.03 18.842"/><path fill="#FAD0E9" d="M336.037 375.1c2.19 3.95 4.288 7.964 6.291 12.029h42.189c2.054-12.309 8.117-25.383 14.784-31.504.036-.036.062-.081.099-.116 4.564-4.23 10.299-6.056 14.951-6.828a79 79 0 0 1 6.925-9.765c3.161-3.664 6.734-7.224 10.651-10.347-26.545-10.9-49.636-8.558-69.772-.617-.432 3.661-1.053 7.3-1.935 10.898-3.959 14.337-12.806 26.823-24.183 36.25"/><path fill="#FFB921" d="M558.952 177.676a31 31 0 0 0 4.193-.435l.508-18.93-.005-.025h-34.843c4.884 11.753 16.673 19.853 30.147 19.39"/><path fill="#FFB921" d="M548.407 116.241c-9.3 2.936-16.696 10.064-20.046 19.099l28.728-.009a146.5 146.5 0 0 0-8.682-19.09"/><path fill="#000" d="m501.356 125.087 12.322 5.191a2.996 2.996 0 1 0 2.327-5.523l-12.321-5.192a2.997 2.997 0 0 0-2.328 5.524"/><path fill="#000" d="M519.83 119.185a3 3 0 0 0 1.908.686c.863 0 1.719-.37 2.312-1.087a3 3 0 0 0-.401-4.22l-6.506-5.376a3 3 0 0 0-4.22.401 3 3 0 0 0 .401 4.22z"/><path fill="#000" d="M529.046 109.67a2.997 2.997 0 1 0 4.972-3.348l-7.468-11.09a2.997 2.997 0 1 0-4.972 3.348z"/><path fill="#000" d="M551.09 203.255q.149.015.293.015a2.996 2.996 0 0 0 2.979-2.708l.777-8a2.997 2.997 0 0 0-2.694-3.272 2.99 2.99 0 0 0-3.271 2.693l-.777 8a2.997 2.997 0 0 0 2.693 3.272"/><path fill="#000" d="M529.492 202.973a2.997 2.997 0 0 0 3.979-1.457l5.625-12.129a2.997 2.997 0 0 0-5.436-2.522l-5.625 12.128a2.997 2.997 0 0 0 1.457 3.98"/><path fill="#000" d="M518.394 189.407a3 3 0 0 0 1.989.756c.826 0 1.65-.34 2.241-1.007l5.604-6.312a2.997 2.997 0 0 0-4.481-3.979l-5.604 6.311a3 3 0 0 0 .251 4.231"/><path fill="#000" d="M506.117 180.82c.542 0 1.089-.147 1.582-.454l11.348-7.07a2.997 2.997 0 1 0-3.169-5.087l-11.348 7.07a2.996 2.996 0 0 0 1.587 5.541"/><path fill="#C0167C" d="M509.595 50.174c-24.096-15.279-52.128-24.04-81.487-25.464v10.474c26.506 1.48 51.722 9.472 73.456 22.98z"/><path fill="#C0167C" d="M428.078 431.94a63 63 0 0 1-6.771-5.63h-63.235q.886 2.813 1.707 5.63z"/><path fill="#C0167C" d="M297.778 88.064a160.5 160.5 0 0 1 15.755-15.315l-7.674-7.633a170 170 0 0 0-15.211 14.642c-14.866 16.233-26.301 34.943-34.026 55.663l11.501-.004c7.132-17.429 17.049-33.298 29.655-47.353"/><path fill="#C0167C" d="m405.16 35.484-.008-10.433c-29.185 2.215-56.933 11.274-80.667 26.33l7.785 7.733c21.645-13.438 46.425-21.53 72.89-23.63"/><path fill="#C0167C" d="m257.336 211.706-.056.019.039-.006z"/><path fill="#C0167C" d="M260.861 158.286h-10.3l2.189 48.92c3.7-1.026 7.273-2.564 10.542-4.354z"/><path fill="#C0167C" d="M544.277 80.51a158 158 0 0 0-16.171-16.37l-7.833 7.78a147.4 147.4 0 0 1 15.897 15.965c11.928 13.986 21.048 29.885 27.278 47.444l11.457-.003c-.078-.248-.164-.492-.243-.74-6.671-19.942-16.855-38.212-30.385-54.077"/><path fill="#C0167C" d="M565.35 318.295q1.9.572 3.747 1.117c.974-7.468 1.98-15.153 3.013-23.006a29.1 29.1 0 0 1-3.69-7.85c-3.302-10.974-.509-23.43 6.925-32.255l.604-7.66 3.87-90.355H569.65z"/><path fill="#EE6DBB" d="M277.005 67.262c-22.241 24.284-37.88 54.315-45.244 86.87l2.211 52.777c4.114 1.575 8.483 1.949 12.831 1.463l-2.37-52.95a2.995 2.995 0 0 1 2.994-3.13h335.52a3 3 0 0 1 2.994 3.125l-4.006 93.534-.006.107-.052.65c7.101-7.343 10.069-13.299 12.121-17.425q.247-.499.492-.985l.071-1.462 3.925-75.85c-5.731-32.672-19.823-62.64-40.765-86.687-33.929-38.96-84.272-61.305-138.12-61.305-55.768 0-106.41 21.758-142.596 61.268m109.525 72.26a3 3 0 0 1-2.77 1.854l-131.398.039a2.996 2.996 0 0 1-2.833-3.976c7.982-23.087 20.33-43.856 36.699-61.73a176 176 0 0 1 17.904-16.96 2.997 2.997 0 0 1 4.016.189l77.724 77.317a3 3 0 0 1 .658 3.267m23.825.968a3 3 0 0 1-2.12.879h-.427c-.791 0-1.55-.313-2.112-.871l-88.069-87.48a2.998 2.998 0 0 1 .45-4.62c26.128-17.409 57.213-27.625 89.894-29.543a3 3 0 0 1 3.173 2.99l.088 116.525c0 .795-.315 1.558-.877 2.12m137.934-64.978c15.498 17.796 26.778 38.647 33.53 61.976a2.994 2.994 0 0 1-2.877 3.83l-129.805.039a3 3 0 0 1-2.772-1.854 3 3 0 0 1 .659-3.269l78.944-78.42a3 3 0 0 1 4.031-.175 161 161 0 0 1 18.29 17.873m-30.969-26.12a3 3 0 0 1-.869 2.416l-89.149 88.684a3 3 0 0 1-2.114.872c-1.655 0-3.074-1.341-3.074-2.997V21.592a2.997 2.997 0 0 1 3.089-2.995C458.067 19.61 489.464 29.498 516 47.189a3 3 0 0 1 1.32 2.203"/><path fill="#000" d="M308.148 58.938a2.997 2.997 0 0 0-4.016-.19 176 176 0 0 0-17.904 16.962c-16.369 17.873-28.717 38.642-36.699 61.729a2.996 2.996 0 0 0 2.833 3.976l131.398-.039a2.996 2.996 0 0 0 2.112-5.121zm-17.5 20.82a170 170 0 0 1 15.211-14.643l7.674 7.634a160.5 160.5 0 0 0-15.755 15.315c-12.606 14.055-22.523 29.924-29.655 47.353l-11.501.003c7.725-20.719 19.16-39.429 34.026-55.662m11.593 12.308a154 154 0 0 1 15.562-15.07l58.696 58.389-101.896.03c6.795-15.907 16.042-30.422 27.638-43.35"/><path fill="#000" d="m525.968 57.815-78.944 78.419a3 3 0 0 0-.659 3.269 3 3 0 0 0 2.772 1.854l129.805-.039a2.996 2.996 0 0 0 2.878-3.83c-6.752-23.329-18.033-44.18-33.53-61.976a161 161 0 0 0-18.291-17.873 3 3 0 0 0-4.031.176m48.937 77.511-11.457.003c-6.23-17.559-15.35-33.458-27.278-47.444a147.5 147.5 0 0 0-15.897-15.964l7.833-7.781a158 158 0 0 1 16.171 16.37c13.53 15.864 23.714 34.134 30.385 54.076.079.248.165.492.243.74m-43.296-43.552a143 143 0 0 1 13.772 19.154c-11.19 3.964-19.885 13.089-23.34 24.414l-65.633.019 59.6-59.204a141.4 141.4 0 0 1 15.601 15.617m16.799 24.467a146.5 146.5 0 0 1 8.681 19.09l-28.728.009c3.35-9.035 10.746-16.163 20.047-19.099"/><path fill="#000" d="M425.203 18.597a2.996 2.996 0 0 0-3.089 2.996v116.775c0 1.655 1.419 2.996 3.074 2.996.792 0 1.552-.313 2.114-.872l89.149-88.684a2.994 2.994 0 0 0-.451-4.619c-26.536-17.69-57.933-27.578-90.797-28.592m2.905 22.594c24.881 1.444 48.56 8.851 69.079 21.326l-69.079 68.719zm0-6.007V24.711c29.359 1.423 57.391 10.185 81.487 25.463l-8.031 7.99c-21.734-13.508-46.95-21.5-73.456-22.98"/><path fill="#000" d="M411.144 21.844a3 3 0 0 0-3.173-2.99c-32.681 1.92-63.766 12.135-89.894 29.544a2.998 2.998 0 0 0-.45 4.62l88.069 87.48a3 3 0 0 0 2.112.871h.427a3 3 0 0 0 2.998-2.999zm-5.911 109.746L336.64 63.455c20.422-12.41 43.699-19.91 68.524-21.954zm-80.748-80.209c23.734-15.056 51.482-24.115 80.667-26.33l.008 10.433c-26.465 2.1-51.245 10.192-72.89 23.63z"/><path fill="#EE6DBB" d="M356.106 420.317h59.718a56 56 0 0 1-4.403-6.499 11 11 0 0 1-1.664 1.616c-1.842 1.424-4.006 2.136-6.476 2.136-3.21.001-6.937-1.201-11.154-3.602-5.474-3.117-8.363-9.517-8.353-18.508 0-.768.029-1.549.071-2.337h-38.653a279 279 0 0 1 10.914 27.194"/><path fill="#DB00F8" d="m685.808 603.597 4.018-12.242-13.694-4.17-4.018 12.242z"/><path fill="#FAD0E9" d="M610.473 680.544a13.14 13.14 0 0 0 4.735 3.351c28.732 6.68 55.188 14.027 78.327 21.117a13 13 0 0 0 1.686-.739 13.16 13.16 0 0 0 6.439-7.829 13.16 13.16 0 0 0-.982-10.089 13.16 13.16 0 0 0-7.829-6.439l-34.36-10.463-23.557-7.174-10.803-3.29c-4.295-1.307-8.749-.31-12.04 2.272z"/><path fill="#EE6DBB" d="m636.678 656.545 47.113 14.347a13.16 13.16 0 0 0 10.089-.982 13.16 13.16 0 0 0 6.439-7.829 13.16 13.16 0 0 0-.982-10.089 13.16 13.16 0 0 0-7.829-6.439l-23.557-7.174-12.952-3.944-.008-.002-10.596-3.227a13.3 13.3 0 0 0-3.876-.581c-2.144 0-4.268.527-6.214 1.564a13.15 13.15 0 0 0-6.438 7.828 13.15 13.15 0 0 0 .982 10.089 13.15 13.15 0 0 0 7.829 6.439"/><path fill="#C0167C" d="m656.745 628.702 25.904 7.888a13.16 13.16 0 0 0 10.088-.983 13.16 13.16 0 0 0 6.439-7.829 13.16 13.16 0 0 0-.982-10.089 13.16 13.16 0 0 0-7.829-6.439l-25.903-7.888a13.2 13.2 0 0 0-3.851-.575c-5.676 0-10.94 3.682-12.677 9.387-2.127 6.986 1.825 14.4 8.811 16.528"/><path fill="#EE6DBB" d="M453.977 635.78a30.2 30.2 0 0 0-7.268-.889c-14.651 0-26.897 10.479-29.648 24.334.313 0 .626-.004.939-.004 11.484 0 22.954.304 34.369.867z"/><path fill="#C0167C" d="M416.197 733.17c-101.831 0-205.02-3.773-306.715-11.212-42.942 14.562-75.758 28.284-92.607 35.693h802.25c-17.186-7.557-50.986-21.684-95.2-36.57-102.255 8.021-205.784 12.089-307.728 12.089"/><path fill="#EE6DBB" d="M132.942 714.258a1204 1204 0 0 0-8.551 2.749c96.858 6.745 194.946 10.17 291.806 10.17 97.026 0 195.488-3.698 292.917-10.979-2.003-.647-4.018-1.293-6.056-1.94-26.581-8.431-58.3-17.471-93.277-25.465l-.804 9.594c.003 1.208-.335 2.405-.912 3.492 2.612.391 5.12.91 7.159 1.698 2.112.781 1.768 4.011-.515 4.261-5.352.694-13.061-.853-18.43-1.394-37.109-4.454-82.034-10.188-119.132-14.404-3.056-.332-6.108-.736-9.1-1.724a1.027 1.027 0 0 1-.658-1.293c.216-1.608 8.69-.737 10.122-.654 1.57.138 3.146.282 4.719.422-1.335-2.051-1.865-4.47-1.471-6.881.732-4.492 1.96-9.168 3.382-13.571-21.797-1.991-43.945-3.124-66.141-3.124-23.798 0-47.542 1.301-70.856 3.568.303 2.741.477 5.765.483 9.112a11.04 11.04 0 0 1-2.421 6.982c.636-.018 1.276-.045 1.911-.062 6.314-.034 12.641-.974 19.029 1.669a1.06 1.06 0 0 1-.049 1.979c-6.107 2.533-12.374 2.082-18.748 2.496-6.271.294-12.546.665-18.82 1.049-30.743 1.923-63.475 4.004-94.173 6.272-5.459.294-13.453 1.442-18.905.629-2.234-.303-2.553-3.565-.345-4.23 2.863-.917 6.567-1.381 10.234-1.712a8.46 8.46 0 0 1-1.081-3.723h-.001l.009.115-.018-.113c-34.197 7.882-65.226 16.74-91.307 25.012"/><path fill="#000" d="M834.297 757.946c-.515-.247-52.452-24.981-129.325-49.369q-1.839-.583-3.711-1.171a19.1 19.1 0 0 0 6.133-9.216 19.1 19.1 0 0 0-1.428-14.655 19.08 19.08 0 0 0-9.054-8.463 19.1 19.1 0 0 0 9.141-11.245 19.1 19.1 0 0 0-1.427-14.655 19.08 19.08 0 0 0-8.889-8.384c4.44-2.428 7.697-6.415 9.173-11.264a19.1 19.1 0 0 0-1.427-14.655 19.12 19.12 0 0 0-11.373-9.353l-.567-.172 4.933-15.029a2.995 2.995 0 0 0-1.974-3.801l-19.43-5.917a2.997 2.997 0 0 0-3.72 1.932l-4.974 15.152-.17-.052c-10.146-3.091-20.917 2.652-24.008 12.799-1.524 5.002-.897 10.155 1.342 14.466a19.08 19.08 0 0 0-12.056 2.006 19.1 19.1 0 0 0-9.354 11.371c-1.471 4.832-.996 9.94 1.316 14.419a19.16 19.16 0 0 0-10.749 1.297c.255-3.049 2.781-34.028 4.087-50.178 4.692-1.414 9.234-3.468 13.361-6.162 5.848-3.731 10.554-8.676 15.196-13.522 27.361-27.411 25.49-67.453 22.228-103.08-1.648-19.204-3.507-38.396-3.155-57.621l39.028 8.854q.327.074.663.074h13.613a2.997 2.997 0 0 0 2.989-2.777l1.116-15.192c34.284-5.534 67.501-13.383 77.215-23.806 7.771-8.337 16.631-26.96 12.325-38.822-1.807-4.975-4.906-8.322-9.211-9.948-7.31-2.762-17.691-.372-31.729 7.296-2.343 1.169-17.265 3.09-33.607 4.991 4.204-4.118 7.646-8.857 10.09-14.058 5.121-10.895 13.713-15.786 19.398-19.022 4.068-2.316 7.008-3.989 7.44-7.085.243-1.745-.447-3.458-2.051-5.091-13.595-13.846-28.141-24.33-39.799-31.584l10.072-137.152a2.996 2.996 0 0 0-2.217-3.116l-14.943-3.979a6 6 0 0 0-.603-.088 6 6 0 0 0-.601.019L603.926 150.42c-6.193-32.764-20.569-62.811-41.685-87.057C527.173 23.094 475.182 0 419.601 0 362.132 0 309.92 22.45 272.586 63.214c-21.441 23.41-36.929 51.992-45.064 83.031l-125.119-18.278c-.091-.013-.182-.004-.273-.009-.109-.006-.217-.016-.327-.01-.118.006-.232.03-.348.051-.085.015-.173.015-.257.037l-14.944 3.98a2.996 2.996 0 0 0-2.217 3.115l10.975 149.433c-5.319 10.362-9.652 21.228-12.644 32.488-3.781 11.247 8.247 11.978 16.053 13.919l6.876 93.634a2.997 2.997 0 0 0 2.989 2.777h13.613q.336 0 .663-.074l50.482-11.453c-1.833 16.373-4.292 32.7-6.191 49.116-3.041 26.944-4.496 55.614 6.813 81.144a117 117 0 0 0 1.513 3.174 21.5 21.5 0 0 0-4.735 4.781c-3.017 3.916-4.943 9.225-3.89 14.242.712 4.536 3.354 8.786 7.127 11.407-1.844 1.358-5.056 3.07-8.883 4.28-4.505 1.424-6.755 5.382-5.732 10.082.963 4.422 4.821 8.791 9.234 8.791q.406 0 .816-.05c21.116-2.598 28.5-18.869 30.353-24.135a74 74 0 0 0 8.38 4.988c4.123 27.051 11.196 72.48 15.466 99.637-34.579 7.955-65.944 16.907-92.287 25.265-76.873 24.388-128.81 49.122-129.326 49.369a2.996 2.996 0 0 0 1.295 5.699h830.006a2.995 2.995 0 0 0 1.294-5.699m-817.422-.294c16.849-7.41 49.665-21.132 92.607-35.694 101.695 7.439 204.884 11.212 306.715 11.212 101.944 0 205.473-4.068 307.728-12.088 44.214 14.886 78.014 29.012 95.2 36.57zm148.048-164.846c-.46-2.111.593-2.748 1.683-3.093 1.803-.57 9.668-3.246 13.093-7.473 4.048.848 8.38.116 12.223-1.11-3.045 5.718-9.772 14.049-23.538 15.743-.943.12-2.945-1.692-3.461-4.067m22.282-40.606c3.134.923 6.182 2.527 8.341 4.965a32.4 32.4 0 0 1-4.752 2.165 2.7 2.7 0 0 0-.738-.587c-3.65-2.177-10.378.709-9.842 5.318.192 1.473 1.686 2.711 3.014 2.855 1.452.19 2.137-.067 3.234-.299a41 41 0 0 0 3.293-.9c3.993-1.244 7.762-3.178 11.055-5.781.333-.183.942-.762.984-.798 2.322-2.133 4.828-4.328 5.467-7.605.3-1.379-1.35-2.542-2.551-1.768l-.488.291c-1.384 1.013-2.529 2.36-3.783 3.576q-.548-.664-1.154-1.276c-2.452-2.476-5.552-4.316-8.766-5.489-3.417-1.41-6.916-1.344-10.141-.288a107 107 0 0 1-1.32-2.837c-10.73-24.421-9.116-52.005-6.224-78.095 3.096-26.766 7.704-53.524 8.623-80.595.265-6.797.211-13.61.075-20.427-.025-1.842-.209-3.679-.239-5.519-.02-1.238.155-2.319.298-3.259 1.053-6.915 4.009-6.4 4.009-6.4 2.046.119 4.097-.017 6.115-.627.388-.116.73-.395.909-.792a1.454 1.454 0 0 0-.814-1.952 22 22 0 0 0-1.475-.553c-3.324-1.117-6.802-1.475-10.173-2.412-3.795-1.018-10.55-4.342-10.55-4.342s1.445-9.266.53-20.476a80 80 0 0 0-.53-4.778s-1.312-8.094-2.427-12.317c-1.404-5.198-3.281-10.248-5.488-15.145-1.117-2.431-2.277-4.842-3.543-7.19-1.261-2.391-2.495-4.77-4.648-6.531-.609-.537-1.429-.47-2.017-.069-.526.36-.868.986-.7 1.698.482 2.728 1.878 4.879 3.051 7.173 1.205 2.273 2.299 4.597 3.353 6.934 5.91 13.549 10.018 29.492 5.137 43.885-2.355 6.726-7.15 12.616-13.993 14.636-7.453 2.25-15.151-1.245-20.37-6.813-7.368-7.231-17.178-11.901-27.075-14.248-3.757-.985-7.577-1.573-11.105-2.797-1.02-.365-1.852-.878-2.044-1.164-.279-.392-.2-.665-.114-1.281.94-3.664 2.014-7.349 3.243-10.926 6.658-19.511 17.163-37.63 29.982-53.749a170 170 0 0 1 4.95-5.935c1.602-1.871 3.415-3.583 4.509-5.821.05-.101.106-.197.152-.3.63-1.194.112-2.463-.837-3.088-.649-.428-1.497-.558-2.325-.146-2.621 1.298-4.225 3.425-6.013 5.416a188 188 0 0 0-7.862 9.682l-8.217-120.984 120.874 17.657s-.352 1.316-.329 1.894l2.091 49.945c-14.582-6.83-31.38-9.564-47.22-6.976-.539-1.264-1.374-2.391-2.501-3.21-1.406-1.216-5.767-2.513-5.101.644.205.603.575 1.189.813 1.67.37.703.654 1.407.875 2.12a68 68 0 0 0-4.2 1.218c-2.888-2.726-6.513-4.657-10.455-5.074-1.261-.131-2.038 1.53-1.117 2.419 1.674 1.894 3.373 3.469 5.139 5.123a62.5 62.5 0 0 0-8.146 4.366c-8.26 5.29-15.533 12.106-21.244 20.058-1.746 2.772-4.109 5.208-4.431 8.66-.091.93.472 1.724 1.237 2.118.677.349 1.511.386 2.199-.085 1.5-.923 2.371-2.213 3.198-3.518 2.526-3.791 5.196-7.505 8.184-10.938 6.252-7.383 14.352-13.12 23.325-16.691.924.822 1.84 1.6 2.64 2.177 2.001 1.708 4.966-.478 3.834-2.9a22 22 0 0 0-.714-1.23c.497-.141.99-.294 1.495-.409l.01.002c.485.532 1.843 2.063 2.022 2.127a1.655 1.655 0 0 0 2.284-.511 7.8 7.8 0 0 0 1.163-2.749c15.922-2.621 32.869.487 47.038 8.003 2.993 1.685 6.355 2.905 9.756 3.427 6.559 1.008 13.146.079 19.35-2.047l.056-.019-.017.014-10.814 8.775c-1.737 1.245-2.285 3.524-1.389 5.866 1.943 5.095 15.352 31.107 20.902 38.337 4.872 6.349 8.592 9.141 12.11 10.01q.438.109.873.179c-.333.248-.659.504-.995.747a88.8 88.8 0 0 1-36.23 15.375c-15.3 2.801-37.563 2.211-51.015-6.111-1.991-1.482-5.032.189-5.11 2.614-.084 1.028.312 2.006.692 2.853.592 1.389 1.2 2.802 1.866 4.16 1.523 3.319 3.255 6.358 5.159 9.015l-.013.008.153.192a38 38 0 0 0 2.649 3.265l.173.189c1.23 1.333 2.514 2.516 3.85 3.513 2.846 2.174 6.76 4.31 11.165 4.31q.593 0 1.197-.053c9.149-.815 15.949-10.713 16.234-11.134 0 0 3.661-5.356 3.945-5.746 15.543-1.187 30.794-6.069 43.962-14.344-.358 3.775-.832 7.6-1.545 11.293-.095.49-.189.981-.292 1.465-.765 3.547-1.7 7.046-3.432 10.13-.207.368-.419.733-.65 1.088-.719.981-3.093 4.597-.992 5.42.132.052.276.106.446.123 2.679.276 4.5-1.956 5.891-4.141 6.483 5.592 12.709 11.626 18.644 18.034-4.286 2.918-9.038 5.157-14.037 6.55a54 54 0 0 1-6.482 1.401 59 59 0 0 1-4.184.515c-3.736.286-7.338.241-11.045 1.29-1.48.368-1.616 2.48-.237 3.081.217.095.437.166.655.249 3.557 1.368 7.345 1.357 11.087 1.049 14.016-.934 27.685-7.08 37.187-17.54 4.273-4.689 6.323-11.138 7.209-17.135 1.462-9.935.415-19.375.064-29.003-.15-3.592-.053-6.376 1.853-9.349 1.911-3.169 4.455-6.978 7.967-8.165 3.159-.81 5.657 7.176 6.682 9.667.614 1.52.934 3.053 2.011 4.545.833 1.152 2.968 1.824 4.472.737.897-.682.927-.891 1.346-1.633 1.93-4.654 3.23-9.983 4.732-14.797 1.62-2.814 8.238-.436 10.31 1.217 1.624 1.189 2.45 2.268 2.799 3.855 2.328 10.446-.999 20.974-1.179 31.645a56 56 0 0 0 .119 6.033c.565 12.806.832 26.009-2.932 38.316-8.056 25.125-31.171 41.276-55.751 48.247a123 123 0 0 1-10.807 2.651c-3.706.752-7.404 1.028-10.808 2.946a2 2 0 0 0-.323.209 1.7 1.7 0 0 0-.58.813c-.866 3.118 5.175 2.93 7.085 2.841q2.393-.321 4.77-.74c2.352-.412 32.189-5.406 47.141-14.111 17.864 33.686 28.637 71.157 29.375 107.348.032 16.307-2.555 32.9-10.447 47.324-4.423 8.668-8.887 17.468-15.819 24.37-2.81 2.862-5.961 5.38-9.237 7.702-2.11 1.469-4.238 2.915-5.301 5.424-.377 1.008.307 2.147 1.377 2.281 1.079.147 1.925-.112 2.761-.388 1.764-.485 3.274-1.444 4.739-2.489l-3.12 63.798a10.43 10.43 0 0 0 1.49 6.145c.63 1.036 1.436 2.013 2.369 3.144 3.798 4.605 9.537 11.564 9.568 30.71.006 3.631-3.388 5.474-5.735 5.851l-53.29 3.647q-.113.009-.225.024c-1.052.152-2.092-.157-2.928-.874-.935-.801-1.479-2-1.492-3.29a3 3 0 0 0-.02-.318l-10.351-88.701a81 81 0 0 0 11.485-3.272 1.39 1.39 0 0 0 .993-1.268 1.39 1.39 0 0 0-1.367-1.452c-5.742-.123-14.213.237-20.001.336-18.736.322-38.266-3.011-54.172-13.279 2.088-1.287 4.079-2.733 5.879-4.399 2.576-2.442 5.279-5.195 5.835-8.881.197-1.044-.885-1.985-1.895-1.627l-.397.129c-.73.237-1.386.66-1.901 1.229-.852.94-2.204 2.409-2.987 3.142-.18.172-.373.329-.557.497-4.206 3.836-9.313 6.521-14.654 8.671-1.598.566-4.018 1.541-5.632 1.885-7.274 2.01-14.278-.881-15.581-8.682-1.502-7.182 7.093-17.09 14.566-15.073m-11.761-187.355c.324 6.658.241 13.329.019 19.992-.282 8.181-.906 16.329-1.722 24.462l-49.09 11.373-5.488-80.817a46 46 0 0 1 6.345 5.402c6.318 6.043 15.806 9.259 24.384 6.582 5.472-1.594 10.015-5.328 13.272-9.926a51 51 0 0 0 12.136 5.495c-.502 5.808-.217 11.627.144 17.437m-62.546-28.769 5.793 85.313h-7.62l-6.517-88.734a57 57 0 0 1 8.344 3.421M99.226 134.765l8.71 128.257c-.396.575-.806 1.14-1.197 1.719a202 202 0 0 0-6.424 10.199L90.197 137.169zM557.72 67.299c20.942 24.046 35.035 54.016 40.766 86.687l-3.925 75.85-.071 1.462-.492.985c-2.052 4.126-5.02 10.082-12.121 17.425l.052-.65.006-.107 4.006-93.534a2.995 2.995 0 0 0-2.994-3.125h-335.52a2.995 2.995 0 0 0-2.994 3.13l2.37 52.95c-4.348.487-8.717.112-12.831-1.463l-2.211-52.777c7.364-32.555 23.003-62.585 45.244-86.87 36.186-39.51 86.828-61.268 142.596-61.268 53.848 0 104.191 22.345 138.119 61.305m209.829 245.876c-.812.696-2.667 1.753-4.208 2.63-5.958 3.391-15.929 9.068-21.857 21.682-5.217 11.098-15.604 19.891-28.499 24.123-6.93 2.276-13.865 2.939-19.488 2.006 9.793-7.473 16.545-18.594 19.145-31.591 1.039-4.782 1.595-9.693 1.753-14.564l.059-1.459c.145-2.503-.769-4.869-1.814-7.194-.493-1.141-2.284-1.044-2.66.143-1.118 2.823-1.698 5.423-1.575 8.316l-.118 2.731c-.251 3.63-.721 7.232-1.48 10.757-3.585 18.096-16.391 32.433-34.522 36.568-3.564.885-7.244 1.107-10.66 2.627a1.48 1.48 0 0 0-.845.891c-.108.354-.094.661.009.93.351.912 1.79 1.367 3.481 1.559 2.393.271 5.284.017 6.275-.21a50.5 50.5 0 0 0 11.787-3.145c1.801.2 16.114.057 16.392.057 5.073 0 10.586-.907 16.131-2.727a58.3 58.3 0 0 0 13.058-6.161c28.235-3.202 42.181-5.03 45.374-6.774 12.078-6.599 21.325-9.004 26.749-6.956 2.632.994 4.495 3.084 5.694 6.387 3.268 9.002-4.501 25.637-11.075 32.69-11.885 12.753-69.244 22.233-115.639 27.69-11.068.474-13.66-4.712-13.789-5.953-.732-7.041 1.76-14.052 1.201-21.156a1.386 1.386 0 0 0-2.614-.517c-1.265 2.456-2.113 5.024-2.785 7.624a61 61 0 0 0-1.102 5.824 96 96 0 0 0-.637 5.848c-.328 4.073-.473 8.168-.725 12.225-.854 21.23 1.208 42.42 3.012 63.476 1.652 20.642 3.442 41.781-1.062 62.04-3.018 13.723-9.616 26.46-19.302 36.591-4.329 4.624-8.896 9.507-14.084 12.861-6.226 4.21-13.531 6.564-20.953 7.683-2.331.436-4.675.894-7.069 1.645-.166.053-.331.094-.498.15a1.43 1.43 0 0 0-.955 1 1.4 1.4 0 0 0-.034.219 1.424 1.424 0 0 0 1.053 1.525c1.746.455 3.565.228 5.264.685.901.242 4.909 3.137 5.55 10.945-2.437 27.801-5.365 61.943-7.128 81.856-.239.565-.75.973-1.405 1.104-.238.053-30.807-3.51-43.188-4.949.251-3.285.671-6.735 1.429-9.924.813-3.469 2.23-6.325 3.645-9.608.292-.589.348-1.277.005-1.896-2.094-3.159-6.152 2.09-7.293 3.927-2.814 5.175-4.009 10.963-3.876 16.797-1.419-.164-2.758-.317-3.989-.457-2.986-.29-7.407-1.252-6.844-5.03.207-1.857.432-3.843.786-5.675 1.149-6.442 3.181-12.756 6.047-18.639 1.115-2.479 3.138-4.797 2.814-7.841.127-12.178.321-38.405.442-52.289 1.422.092 7.68.435 15.702-.021.266-.015 3.246-.093 4.75-.269.805-.086 1.206-.763 1.183-1.426-.018-.535-.308-1.061-.929-1.253-4.252-1.352-8.624-1.866-12.926-2.741a228 228 0 0 1-7.718-1.668 181 181 0 0 1-8.187-2.114c-5.666-1.528-11.268-3.63-16.631-5.986-1.55-.546-2.909-1.248-4.552-1.663-.562-.19-1.193-.112-1.662.318a1.6 1.6 0 0 0-.103 2.259 21.6 21.6 0 0 0 5.516 4.304c.675.349 12.577 7.127 19.744 9.275-.036 2.705-.072 5.718-.102 7.087-.144 9.83-.517 36.225-.665 46.367.024.866.009.737-.536 1.744-4.962 8.824-8.042 18.669-9.204 28.714-.322 1.736-.232 3.343.175 4.798l-33.503-3.495c.259-2.928.662-5.943 1.331-8.756.813-3.469 2.23-6.324 3.645-9.608.291-.589.347-1.276.005-1.895-2.095-3.159-6.153 2.09-7.293 3.927-2.636 4.845-3.858 10.23-3.895 15.685l-5.078-.53a4.05 4.05 0 0 1-2.634-1.622 3.75 3.75 0 0 1-.691-2.829c2.008-12.326 8.136-26.473 10.859-30.6a9.86 9.86 0 0 0 1.617-6.032l-3.915-67.611c1.124.851 2.259 1.687 3.412 2.494 2.565 1.771 5.306 3.268 8.402 4.139.427.117.91.038 1.282-.26.636-.503.72-1.445.192-2.057-1.001-1.252-2.14-2.275-3.276-3.288-3.423-2.92-7.216-5.379-10.575-8.342-4.491-3.879-8.557-8.163-11.952-12.97-18.602-25.741-18.001-55.768-9.53-85.268a200 200 0 0 1 4.347-13.04c.504-.285 2.395-.269 2.611 4.418.104 2.259-.661 4.491-.917 6.813-.121 1.236-.283 2.938.047 4.484.168.697.493 1.444.989 1.992.538.625 1.297 1.005 2.051 1.269 4.234 1.345 8.355 2.053 12.632 2.89 7.988 1.347 15.847 2.85 24.043 2.569a16 16 0 0 0 1.802-.23c.313-.08.752-.12 1.055-.263 1.461-.326 2.99-1.869 3.37-3.029 1.163-2.942.708-5.876.411-8.793-.526-4.056-1.354-7.895-1.935-11.652-.295-2.132-.634-4.078-.371-5.859.018-.129.022-.07.041-.177l.213-.528c1.682-5.474 1.252-11.312.193-16.782-1.702-8.213-6.132-15.87-12.51-21.322-2.313-1.978-4.835-3.671-7.474-5.111 11.003-15.422 24.004-29.425 38.53-41.474 8.992-7.34 18.574-13.685 28.094-20.547.382-.275 1.189-.869 1.213-.89.4-.337.593-.886.43-1.419a1.347 1.347 0 0 0-1.683-.892c-5.978 1.882-11.428 4.974-16.782 8.159a192 192 0 0 0-12.269 8.84 92 92 0 0 0-.036-1.71c-.471-8.979-3.108-17.677-6.697-25.869 21.611-4.762 40.679-.509 40.955-.445a3 3 0 0 0 1.716-.11c.313.597.65 1.22.967 1.64.698.877 1.705 1.812 3.001 2.103a1.7 1.7 0 0 0 1.897-1.474c.361-2.459-.861-3.951-1.631-5.687-2.364-5.016-3.867-10.466-4.285-15.979-1.579-18.768 9.649-36.801 25.187-46.75 1.366-.877 3.441-2.096 4.865-2.799 1.669-1.104 3.068-2.409 4.427-3.96.217-.251.357-.556.377-.91a1.475 1.475 0 0 0-1.391-1.554c-2.152-.077-4.266.254-6.247 1.036-1.546.834-3.791 2.24-5.298 3.166-10.439 6.684-18.746 16.363-23.509 27.321a24 24 0 0 1-1.46-3.696c-3.013-10.01.35-22.019 8.176-29.202 10.586-9.715 14.464-17.514 17.03-22.674 2.52-5.069 2.665-5.036 5.092-4.484 15.029 3.419 24.5 7.483 30.316 10.818-1.314.316-2.605.736-3.799 1.719-1.402 1.074-.756 3.519 1.01 3.748 1.982.394 3.858-.269 5.746-.606a81 81 0 0 1 5.516-.873c22.107-2.92 45.266 3.543 59.471 21.414 1.214 1.377 2.231 2.919 3.319 4.403 1.225 1.797 2.299 3.788 4.769 4.239a2.09 2.09 0 0 0 2.268-1.824c10.921 5.599 34 18.81 54.345 39.531q.072.074.131.138m-89.211 107.134c7.461-.859 15.425-1.846 23.581-2.965l-.564 8.298zm28.977 6.05.67-9.868a862 862 0 0 0 7.76-1.152l-.809 11.02zm-79.448 213.658a13.15 13.15 0 0 1 6.438-7.828 13.2 13.2 0 0 1 6.214-1.564c1.297 0 2.6.193 3.876.581l10.596 3.227.008.003 12.952 3.944 23.557 7.173a13.16 13.16 0 0 1 7.829 6.439 13.16 13.16 0 0 1 .982 10.089 13.16 13.16 0 0 1-6.439 7.829 13.16 13.16 0 0 1-10.089.982l-47.113-14.346a13.16 13.16 0 0 1-7.829-6.439 13.16 13.16 0 0 1-.982-10.09m20.067-27.843c1.737-5.705 7.001-9.387 12.677-9.387 1.275 0 2.57.185 3.851.575l25.903 7.888a13.16 13.16 0 0 1 7.828 6.439 13.15 13.15 0 0 1 .983 10.089 13.16 13.16 0 0 1-6.439 7.829 13.16 13.16 0 0 1-10.088.983l-25.904-7.888c-6.986-2.128-10.939-9.542-8.811-16.528m41.892-20.819-4.018 12.242-13.695-4.17 4.019-12.242zm-65.698 67.634 10.804 3.29 23.557 7.174 34.36 10.463a13.16 13.16 0 0 1 7.829 6.439 13.16 13.16 0 0 1 .982 10.089 13.16 13.16 0 0 1-6.439 7.829c-.547.292-1.113.528-1.686.739-23.139-7.09-49.595-14.437-78.327-21.117a13.1 13.1 0 0 1-4.735-3.351l1.616-19.283c3.291-2.582 7.745-3.58 12.039-2.272m-399.87 30.255a8.46 8.46 0 0 0 1.081 3.723c-3.667.331-7.371.795-10.234 1.712-2.209.665-1.889 3.927.345 4.23 5.452.813 13.446-.335 18.905-.629 30.698-2.268 63.43-4.349 94.173-6.273 6.274-.383 12.549-.754 18.82-1.048 6.374-.414 12.641.037 18.748-2.496a1.06 1.06 0 0 0 .049-1.979c-6.388-2.643-12.715-1.703-19.029-1.669-.635.017-1.275.044-1.911.062a11.04 11.04 0 0 0 2.421-6.982c-.006-3.347-.18-6.371-.484-9.112 23.315-2.267 47.059-3.568 70.857-3.568 22.196 0 44.344 1.133 66.141 3.124-1.422 4.403-2.65 9.079-3.382 13.571-.394 2.411.136 4.83 1.471 6.881-1.573-.14-3.149-.284-4.719-.422-1.433-.083-9.906-.954-10.122.654-.175.539.12 1.118.658 1.293 2.992.988 6.044 1.392 9.1 1.724 37.098 4.216 82.023 9.95 119.132 14.404 5.369.54 13.078 2.088 18.429 1.394 2.284-.25 2.628-3.48.516-4.261-2.04-.788-4.547-1.307-7.159-1.698.577-1.087.915-2.284.912-3.493l.804-9.593c34.977 7.994 66.696 17.034 93.277 25.465 2.038.647 4.053 1.293 6.056 1.94-97.429 7.281-195.892 10.979-292.917 10.979-96.86 0-194.948-3.425-291.806-10.17a1204 1204 0 0 1 8.551-2.749c26.081-8.272 57.11-17.13 91.307-25.012l.018.113zm496.537-549.839-8.621 126.939a96 96 0 0 0-3.085-1.42c-12.817-17.632-32.871-26.495-54.71-26.046a90 90 0 0 0-11.056.813c-5.482-4.216-16.446-10.27-37.537-15.068-2.008-.457-3.612-.434-4.949-.074l3.525-68.135zm-358.64 188.547c20.135-7.941 43.227-10.283 69.771.617-3.917 3.123-7.489 6.684-10.65 10.347a79 79 0 0 0-6.925 9.765c-4.652.772-10.387 2.598-14.951 6.828-.037.035-.063.08-.099.116-6.667 6.121-12.73 19.195-14.784 31.504h-42.19a279 279 0 0 0-6.29-12.028c11.377-9.428 20.223-21.914 24.183-36.251.882-3.598 1.503-7.237 1.935-10.898m1.321-65.994c-.71-3.19-3.051-5.874-5.347-7.438-2.533-1.862-6.176-3.288-9.718-3.579-.853-.96-1.991-1.878-3.505-2.638l-3.738-37.415c13.632.423 17.494 5.851 22.234 16.748a3 3 0 0 0 3.105 1.781 3 3 0 0 0 2.596-2.463l.178-1.018q3.472-20.008 17.96-25.896a2.998 2.998 0 0 0-.778-5.753c-16.492-1.94-17.507-4.644-21.281-14.704-.831-2.213-1.772-4.722-3.007-7.582a2.995 2.995 0 0 0-5.717.757c-1.867 12.863-3.337 17.341-16.676 24.255l-1.248-12.49c-.208-2.076-1.203-3.918-2.802-5.185a7.14 7.14 0 0 0-5.411-1.496l-8.695 1.15c-3.244.428-5.777 2.996-6.401 6.149-2.738 3.439-4.703 7.888-4.413 10.788l5.971 53.884a67 67 0 0 0-4.885 1.893c-4.877 2.136-13.287 6.597-14.814 12.474-.792 3.051-.523 7.729-.181 13.652.599 10.369 3.109 25.358-3.71 32.897-1.271 1.405-3.05 2.248-4.543 3.412a181 181 0 0 0-4.098-3.577 149 149 0 0 0-6.487-4.996c3.689-8.03 4.869-16.906 4.954-25.69-.006-.164 5.894-5.259 8.63-7.955 3.772-2.543 7.997-8.25 4.234-20.699-1.475-4.876-7.035-14.717-12.655-23.993a107 107 0 0 0-5.016-9.562 107 107 0 0 0-8.79-12.479l-2.558-46.905H522.4c5.047 14.829 19.118 25.404 35.446 25.404q.654 0 1.312-.023a38 38 0 0 0 3.823-.327l-2.418 89.971a23 23 0 0 0-.472-1.472c-3.051-8.433-2.944-13.872-2.874-17.472.076-3.876.154-7.885-5.455-9.361-14.22-3.742-22.965-3.619-27.883-2.807-14.416-10.496-32.456-13.642-48.595-5.565-3.099-.197-26.744-1.363-52.331 6.933-1.791.58-2.958 1.6-3.467 3.03-.878 2.461.56 4.694 2.381 7.521 2.465 3.827 5.811 9.044 5.647 16.749-3.254-5.689-9.398-12.349-15.281-13.984-3.34-.927-6.45-.193-8.761 2.07-6.632 6.491-12.068 20.103-9.415 28.604 2.197 7.044 11.894 17.476 29.464 31.645-8.081-2.407-16.123-3.739-24.161-4.003a375 375 0 0 0-10.949-7.072c-9.134-5.677-17.742-9.557-25.882-11.968.004-.203.004-.413.009-.612.287-11.022 3.766-22.514.938-33.588m-27.579 1.549c-1.087-2.568-2.401-5.035-4.391-7.154-1.213-1.186-2.46-1.938-3.715-2.343l-6.712-67.179c-.092-.921.518-1.79 1.332-1.897 0 0 8.806-1.161 8.858-1.161.333 0 .582.138.742.264.315.25.514.634.559 1.082L339.452 254c-.646.768-1.182 1.691-1.573 2.795-.672 2.199-1.312 4.462-1.982 6.712m-24.547 1.686c-3.576 5.498-2.599 12.311-2.285 18.386.464 7.563.871 15.025-.141 22.149-.778 5.191-2.238 10.172-5.654 14.042a48 48 0 0 1-4.417 4.257 198 198 0 0 0-4.783-4.815c.344-.336.685-.673 1.012-1.021 9.568-10.151 8.549-27.811 7.805-40.705-.287-4.967-.557-9.659-.001-11.799.51-1.96 4.237-5.346 11.417-8.491a61 61 0 0 1 3.158-1.266l.139 1.26c-2.63 2.303-4.846 5.354-6.25 8.003m-40.577-4.144c-4.969-6.473-17.615-30.937-19.884-36.392l15.646-12.698a729 729 0 0 1 7.261 11.393c-3.026 2.034-1 5.556.63 8.386 4.757 8.266 6.397 9.908 8.085 10.303.245.057.476.081.693.081.673 0 1.197-.232 1.528-.42 2.651 4.77 4.684 8.845 5.413 11.257 1.551 5.129 2.364 11.746-2.452 14.362-.7.21-1.368.427-2.011.635-5.442 1.765-7.694 2.494-14.909-6.907m69.646-57.651c12.429-6.156 17.286-10.803 19.926-19.676 3.087 7.924 5.812 12.292 15.728 14.832-7.096 3.931-9.174 8.078-11.28 18.597-5.03-8.145-11.47-11.999-24.222-12.232zm239.4-45.113-3.87 90.356-.604 7.66c-7.434 8.825-10.227 21.281-6.925 32.255a29.1 29.1 0 0 0 3.69 7.85c-1.033 7.853-2.039 15.538-3.013 23.006a732 732 0 0 1-3.747-1.117l4.3-160.01zM407.431 363.597c-.029.007-.058.007-.088.015a2.997 2.997 0 0 0-2.114 3.672c3.794 14.108 7.384 38.367.862 43.408-2.667 2.06-7.453.086-10.997-1.932-4.412-2.512-5.332-8.616-5.327-13.294.016-14.881 8.706-33.036 15.545-36.911.295-.167 3.721-2.243 5.24-2.774a74 74 0 0 0-3.121 7.816m151.972-47.117c-4.708-1.451-9.375-2.922-13.488-4.218q-3.286-1.036-6.4-2.014a44 44 0 0 0 4.503-6.839c3.986-.813 7.619-2.782 10.616-5.852 2.513-2.574 4.369-5.72 5.523-9.117zm4.25-158.169-.508 18.93c-1.37.232-2.767.385-4.193.435-13.474.462-25.263-7.637-30.147-19.391h34.843zM385.247 313.216c1.207.751 2.38 1.499 3.555 2.248-6.838.57-13.684 1.902-20.561 4.009-1.861.57-3.691 1.205-5.505 1.869.368-6.276.264-12.585-.03-18.842 7.107 2.291 14.601 5.781 22.541 10.716m-1.402 79.907a44 44 0 0 0-.071 2.337c-.01 8.991 2.879 15.391 8.353 18.508 4.217 2.401 7.944 3.603 11.154 3.602 2.47 0 4.634-.712 6.476-2.136a11 11 0 0 0 1.664-1.616 56 56 0 0 0 4.403 6.499h-59.718a279 279 0 0 0-10.914-27.194zm37.462 33.187a63 63 0 0 0 6.771 5.63h-68.299a269 269 0 0 0-1.707-5.63zm16.242 11.624c4.082 2.131 8.329 3.636 10.568 2.305q.136-.148.235-.295c.544-.803.286-1.594-.409-2.345-1.853-2.005-6.834-3.725-8.138-4.614a57 57 0 0 1-8.018-5.284c-7.066-5.544-13.395-12.367-17.17-20.584 1.279-5.05 1.388-11.926.335-20.745-.787-6.588-2.053-12.726-2.937-16.572 2.562-9.882 7.427-19.249 13.908-26.99 4.113-4.94 8.939-9.28 14.302-12.76 5.314-3.493 11.127-5.809 16.667-8.915.14-.079.282-.152.422-.232a1.402 1.402 0 0 0-.61-2.593c-1.802-.151-3.565.058-5.277.444-4.538.977-8.838 2.805-12.857 5.19.087-.15-36.257-30.05-38.791-38.173-1.605-5.141 1.555-16.34 7.885-22.536.551-.539 1.334-1.031 2.964-.577 5.132 1.425 12.067 10.212 13.182 14.505.362 1.391 1.775 3.057 5.353 5.777a28 28 0 0 0 6.405 10.274c2.24 2.299 4.89 4.237 7.745 5.747 5.283 4.645 12.848 6.473 14.289 6.787a33.7 33.7 0 0 0 6.054 4.399c1.319.531 3.027 1.249 4.548.731a1.564 1.564 0 0 0 .655-2.114c-1.202-2.359-3.201-3.451-5.087-4.997-1.681-1.466-3.302-2.976-4.602-4.689-5.801-6.935-5.813-16.16-2.876-24.465 1.526-4.478 4.392-8.379 4.472-13.299a1.52 1.52 0 0 0-.231-.895c-1.637-2.395-5.132 2.284-6.142 3.617-1.725 2.658-2.609 5.705-3.77 8.652-1.594 4.826-2.609 10.045-2.157 15.417.184 2.548.799 4.985 1.74 7.283-3.843-1.256-7.537-3.476-10.346-6.357-4.447-4.563-6.648-10.576-6.363-17.39.412-9.897-3.972-16.703-6.591-20.77a55 55 0 0 1-1.187-1.897c18.499-5.835 36.176-6.541 44.489-6.489a2.49 2.49 0 0 0 1.722 1.469c1.698.558 2.637-.115 3.933-.804 1.12-.542 2.214-1.142 3.372-1.578 4.528-1.948 9.385-2.962 14.287-3.169 7.467-.184 14.739 1.718 21.486 5.043a57 57 0 0 1 6.558 3.797c2.133 1.469 4.161 3.008 6.692 3.826.397.15.824.186 1.242.005a1.535 1.535 0 0 0 .808-2.013 11 11 0 0 0-.682-1.317c4.522-.057 11.197.58 20.61 3.057.636.168.841.308.856.304.187.393.157 1.917.133 3.144-.075 3.796-.199 10.15 3.23 19.628 2.376 6.565.686 14.581-4.109 19.493a15.2 15.2 0 0 1-3.233 2.528c1.824-6.081 2.174-12.559.532-18.847-1.745-5.142-3.292-11.666-9.014-13.69-3.274-.564-1.802 4.187-1.062 5.557.89 2.22 2.289 4.086 3.198 6.287l1.076 3.33c2.748 10.464-1.344 21.515-8.128 29.643-.668.772-1.675 2.047-2.404 2.742-.87.857-1.679 1.779-2.598 2.592-1.116.957-2.04 1.589-2.056 3.379a2.067 2.067 0 0 0 1.661 2.186c1.785.367 2.713-.599 3.914-1.529.956-.758 1.834-1.616 2.741-2.439 2.98.929 6.072 1.903 9.141 2.87 13.435 4.234 22.981 7.153 29.837 9.054.132.369.26.739.402 1.108-6.282-1.102-23.299-3.267-42.317 1.216-1.388-2.763-3.105-5.294-6.051-6.857-1.015-.552-2.321.299-2.234 1.452.023.99.177 1.931.418 2.84.774 2.919 2.474 5.498 3.846 8.211q.585 1.202 1.128 2.426a79 79 0 0 1 3.171 8.338 83.5 83.5 0 0 1 2.593 10.813c.025.145.156 1.46.142 1.791-.156 3.578-1.403 10.778-8.32 16.598-.91.767-20.302 21.363-28.611 33.104-2.897-1.171-5.895-2.105-9.033-2.253-1.674-.107-2.49 1.821-1.704 3.011.166.252.4.473.717.632 2.569 1.322 5.391 2.009 8.035 3.122 9.394 3.637 17.49 10.831 20.909 20.416 1.839 5.078 2.578 10.736 1.963 16.055-.17 1.339-.41 2.521-.916 3.683-.592 1.747-.479 3.836-.343 5.525.535 5.886 2.066 11.595 2.36 17.293.031 1.025.031 2.006-.213 2.833a8 8 0 0 1-1.309.171 59 59 0 0 1-4.877-.117c.148-1.803-.281-3.717-.95-5.248-.945-2.272-4.082-3.526-5.285-.684-.742 1.678-.152 3.593-.156 5.298-3.783-.509-7.558-1.202-11.256-1.852-3.396-.64-7.715-1.54-10.805-2.426.171-4.34 1.308-8.949 1.482-13.418.139-2.9.158-6.766-1.657-9.591-4.153-6.898-12.338-10.33-19.752-11.938a60 60 0 0 0-6.088-1.003c-1.054-.13-2.11-.245-3.178-.16a7.06 7.06 0 0 0-3.034.925c-.958.523-1.258 1.721-.867 2.654.143.341.372.649.705.872 1.779 1.349 3.779 1.479 5.684 1.667 5.643.753 11.986 2.107 16.735 5.431-5.582 13.225-9.723 26.89-12.117 40.651-4.28 25.919-.94 50.395 15.01 72.014 3.141 4.335 6.792 8.236 10.751 11.794l2.376 41.015-15.233-1.484a3 3 0 0 0-.618.007 6 6 0 0 0-.664.159c-.029.01-18.039 6.967-18.039 6.967a2.99 2.99 0 0 0-1.909 2.597l-.465 7.031a36.2 36.2 0 0 0-7.668-.825c-17.98 0-32.935 13.169-35.743 30.366-21.761.23-43.441 1.509-64.758 3.591-2.225-10.626-6.584-15.913-9.52-19.473-.786-.953-1.465-1.776-1.872-2.446-.475-.78-.693-1.689-.628-2.683l3.371-68.936a64 64 0 0 0 3.735-3.441c7.5-7.305 12.431-16.72 16.864-26.032 7.963-15.339 10.976-32.822 10.809-49.973-.242-16.78-2.879-34.375-7.524-51.936zm55.617 208.654a3.9 3.9 0 0 1-.637 2.386c-1.413 2.142-3.573 6.498-5.702 11.881l-12.293-1.197 3.94-40.44 13.181 1.284zm-24.617 12.692-10.097-.355 2.244-33.931 11.632-4.5zM418 659.221c-.313 0-.626.004-.939.004 2.75-13.855 14.997-24.334 29.648-24.334 2.505 0 4.938.312 7.268.889l-1.608 24.308a698 698 0 0 0-34.369-.867M250.561 158.285h10.3l2.431 44.567c-3.269 1.79-6.842 3.328-10.542 4.354zm467.423 110.981 8.797-129.531 9.028 2.404-9.668 131.647a215 215 0 0 0-8.157-4.52m-497.593 35.142c-2.275 2.168-5.299 4.311-8.381 4.586-3.441.315-6.761-1.792-9.011-3.695 5.149-1.494 12.174-1.365 17.392-.891m-5.202 286.77c6.517 2.05 25.337 7.026 46.488 4.092l10.295 88.225c.034 1.289.313 2.538.786 3.698-12.79 1.106-29.398 2.618-40.175 3.519-1.324-.057-1.904-1.179-1.872-2.363.002-.004-8.821-55.704-8.818-55.707z"/><path fill="#FAD0E9" d="m458.452 658.925 10.097.355 3.779-38.786-11.632 4.5z"/><path fill="#FAD0E9" d="m478.474 619.217-3.94 40.441 12.294 1.197c2.128-5.383 4.288-9.739 5.701-11.881a3.9 3.9 0 0 0 .637-2.386l-1.511-26.087z"/><path fill="#F295FF" d="M405.312 358.555c-6.839 3.875-15.529 22.03-15.545 36.911-.005 4.678.915 10.782 5.327 13.294 3.545 2.018 8.33 3.992 10.997 1.932 6.522-5.041 2.932-29.3-.862-43.408a2.996 2.996 0 0 1 2.115-3.672c.029-.008.058-.008.087-.015a74 74 0 0 1 3.121-7.816c-1.519.531-4.945 2.607-5.24 2.774"/><path fill="#DB00F8" d="M520.487 267.998c-.139-2.801-1.516-5.511-4.337-8.53-.095-.102-.175-.197-.262-.278-18.474-5.519-29.599-2.341-30.634-2.019a3.6 3.6 0 0 0-.594.399c-1.106 1.994-1.691 3.209-1.01 6.691 1.223 6.259 7.351 13.978 20.596 15.14 5.88.517 10.653-.684 13.45-3.375 2.019-1.944 2.958-4.645 2.791-8.028m-22.689 1.448c-.486.504-1.319 1.074-2.605 1.074q-.177 0-.366-.014c-3.81-.306-3.928-4.481-4.023-7.836-.047-1.628.013-3.468 1.308-4.698a3.47 3.47 0 0 1 2.708-.946c3.334.268 3.787 4.114 3.936 5.378.411 3.494.381 5.652-.958 7.042m12.965 1.049c-.491.511-1.337 1.091-2.65 1.091q-.18 0-.372-.015c-3.884-.31-3.996-4.489-4.086-7.846-.041-1.528.084-3.096 1.261-4.213.528-.5 1.459-1.068 2.894-.957 3.352.268 3.746 3.519 3.914 4.908.423 3.471.395 5.62-.961 7.032"/><path fill="#000" d="M520.531 255.377c-.576-.617-1.365-1.463-2.856-1.909-21.418-6.418-33.971-2.11-34.495-1.924l-.12.046c-1.002.406-2.764 1.499-3.516 2.846-1.36 2.446-2.902 5.219-1.777 10.975 1.623 8.301 9.394 18.509 25.956 19.961q1.574.137 3.076.137c6.278 0 11.549-1.792 15.053-5.165 3.276-3.154 4.874-7.525 4.621-12.642-.208-4.237-2.153-8.269-5.942-12.325m-16.285 24.024c-13.245-1.162-19.373-8.882-20.596-15.14-.681-3.482-.096-4.697 1.011-6.692.158-.134.427-.316.593-.398 1.035-.322 12.16-3.5 30.634 2.018.087.082.167.177.262.279 2.821 3.019 4.199 5.729 4.337 8.53.167 3.383-.772 6.084-2.791 8.027-2.797 2.692-7.57 3.892-13.45 3.376"/><path fill="#000" d="M507.81 258.555c-1.435-.111-2.366.457-2.894.957-1.177 1.117-1.302 2.685-1.261 4.212.09 3.358.202 7.537 4.086 7.847q.192.015.372.015c1.313 0 2.159-.58 2.65-1.091 1.356-1.413 1.384-3.562.961-7.032-.167-1.389-.562-4.64-3.914-4.908"/><path fill="#000" d="M494.82 257.026a3.47 3.47 0 0 0-2.708.946c-1.295 1.23-1.355 3.07-1.308 4.698.095 3.355.213 7.53 4.023 7.836q.189.014.366.014c1.286 0 2.119-.57 2.605-1.074 1.339-1.39 1.369-3.547.958-7.042-.149-1.264-.602-5.11-3.936-5.378"/><path fill="#000" d="M484.772 246.013a2.6 2.6 0 0 0 3.425 1.342c2.403-1.052 4.823-.764 4.898-.754a2.603 2.603 0 0 0 .733-5.152c-.392-.057-3.95-.51-7.715 1.138a2.6 2.6 0 0 0-1.341 3.426"/><path fill="#000" d="M502.357 247.437c2.98.332 5.675 1.556 5.725 1.58a2.604 2.604 0 0 0 3.454-1.264 2.6 2.6 0 0 0-1.262-3.456c-.14-.066-3.475-1.601-7.34-2.032a2.602 2.602 0 0 0-.577 5.172"/><path fill="#000" d="M462.103 293.322c.744 2.444 2.247 4.876 4.865 7.048 1.577 1.308 3.312 2.265 5.111 2.953 2.812 1.242 5.634 1.756 7.919 1.936q1.112.087 2.269.087c10.394-.001 22.932-5.132 24.225-10.256.44-1.743.781-3.583-.264-5.23-1.115-1.756-2.997-2.121-5.38-2.585-1.981-.385-4.975-.967-9.182-2.486-9.39-3.388-10.634-4.374-16.648-13.182-3.262-4.78-6.527-4.498-8.185-3.904-2.458.882-4.418 3.487-5.822 7.741-.955 2.891-1.507 6.186-1.342 8.014.356 3.954 1.225 7.198 2.434 9.864m6.276-8.362c4.695 2.037 11.801 8.248 17.17 13.621-4.33.599-10.569.648-14.754-2.824-4.426-3.672-3.482-8.239-2.416-10.797"/><path fill="#DB00F8" d="M485.549 298.581c-5.369-5.373-12.475-11.584-17.17-13.621-1.066 2.558-2.01 7.125 2.416 10.797 4.185 3.472 10.424 3.423 14.754 2.824"/><path fill="#DB00F8" d="M641.639 304.415c15.113 8.37 31.437 3.337 38.488-6.365 3.861-5.312 5.729-12.343 6.155-16.75.026-.275.023-.593.003-.846-.134-.117-4.651-4.293-18.511-11.234-10.913-5.464-25.018-7.721-25.154-7.763-2.725 2.569-8.228 8.989-10.347 13.6-2.078 4.519-7.541 19.992 9.366 29.358m22.403-21.797c1.982-2.605 4.979-6.539 8.387-4.501a3.63 3.63 0 0 1 1.682 2.33c.432 1.918-.617 3.98-2.703 7.113h-.001c-3.508 5.266-6.049 9.079-8.952 9.079-.669 0-1.356-.202-2.079-.635-1.038-.623-1.67-1.492-1.88-2.586-.366-1.901.371-4.002 5.546-10.8m-16.24-9.666c1.861-2.432 4.409-5.764 7.843-3.705 1.259.754 1.72 1.784 1.885 2.514.409 1.81-.464 3.585-2.218 6.224-3.673 5.528-6.184 9.056-8.983 9.056-.684 0-1.385-.21-2.125-.654-1.063-.638-1.711-1.526-1.923-2.639-.363-1.902.391-4.094 5.521-10.796"/><path fill="#000" d="M638.735 309.658c6.891 3.816 13.36 5.021 18.785 5.021 3.12 0 5.894-.399 8.202-.929 7.936-1.822 14.954-6.259 19.253-12.176 4.565-6.28 6.75-14.293 7.272-19.697.121-1.238.177-4.101-1.58-5.682-2.157-2.512-9.236-6.84-20.209-12.334-10.734-5.375-23.436-7.714-26.039-8.155-1.848-.784-3.999-.368-5.645 1.141-2.849 2.61-9.278 9.898-11.947 15.707-5.404 11.755-5.113 27.676 11.908 37.104m-6.462-34.601c2.119-4.611 7.622-11.031 10.347-13.6.136.042 14.241 2.299 25.154 7.763 13.86 6.941 18.377 11.117 18.511 11.234.02.253.023.571-.003.846-.426 4.407-2.294 11.438-6.155 16.75-7.051 9.702-23.375 14.735-38.488 6.365-16.907-9.366-11.444-24.839-9.366-29.358"/><path fill="#000" d="M644.204 286.387c.74.443 1.441.654 2.125.654 2.799 0 5.31-3.528 8.983-9.056 1.754-2.64 2.627-4.414 2.218-6.224-.165-.73-.626-1.76-1.885-2.514-3.434-2.06-5.981 1.273-7.843 3.705-5.13 6.702-5.884 8.894-5.521 10.796.212 1.113.86 2.001 1.923 2.639"/><path fill="#000" d="M660.376 296.004c.723.433 1.41.635 2.079.635 2.903 0 5.444-3.813 8.952-9.079l.001-.001c2.086-3.132 3.135-5.194 2.703-7.113a3.62 3.62 0 0 0-1.682-2.329c-3.408-2.038-6.404 1.896-8.387 4.501-5.175 6.798-5.912 8.899-5.546 10.8.21 1.094.842 1.963 1.88 2.586"/><path fill="#000" d="M684.566 266.259c.024.01 2.406.996 4.243 3.532a2.99 2.99 0 0 0 4.185.67 2.997 2.997 0 0 0 .669-4.185c-2.871-3.966-6.519-5.447-6.926-5.604a2.985 2.985 0 0 0-3.847 1.705c-.604 1.529.152 3.265 1.676 3.882"/><path fill="#000" d="m662.227 255.984.038-.001c.028 0 2.852-.009 6.537 2.006a2.999 2.999 0 0 0 2.875-5.26c-5.134-2.806-9.153-2.753-9.589-2.737a2.98 2.98 0 0 0-2.873 3.067c.039 1.628 1.387 2.925 3.012 2.925"/><path fill="#000" d="M675.892 343.385c4.591-2.726 9.719-7.563 13.717-12.939 3.283-4.415 6.78-10.533 4.801-14.61-1.72-3.542-5.989-4.03-12.69-1.444-13.376 5.16-24.544 5.123-38.23 3.389-8.451-1.072-13.944-1.145-17.024 1.646-2.323 2.104-2.514 5.186-2.455 7.321.164 6.068 3.88 17.01 13.441 22.282 3.858 2.127 8 2.998 12.2 2.998 9.298 0 18.874-4.271 26.24-8.643m-41.181-13.254c7.063 2.176 18.26 6.422 23.069 11.437-2.157 2.402-6.964 6.06-14.076 2.037-6.563-3.713-8.473-9.641-8.993-13.474"/><path fill="#DB00F8" d="M643.704 343.605c7.112 4.023 11.919.365 14.076-2.037-4.809-5.015-16.005-9.261-23.069-11.437.52 3.833 2.43 9.761 8.993 13.474"/><path fill="#F295FF" d="M805.73 353.801c-1.199-3.303-3.062-5.393-5.694-6.387-5.424-2.048-14.671.357-26.749 6.955-3.193 1.745-17.139 3.573-45.374 6.775a58.3 58.3 0 0 1-13.058 6.161c-5.545 1.82-11.058 2.727-16.13 2.727-.279 0-14.592.143-16.393-.057a50.5 50.5 0 0 1-11.787 3.145c-.991.227-3.881.481-6.275.21-1.691-.192-3.13-.647-3.48-1.559-.104-.27-.118-.576-.009-.93.145-.426.458-.728.844-.891 3.416-1.52 7.096-1.742 10.66-2.627 18.131-4.135 30.937-18.472 34.522-36.568.759-3.525 1.229-7.127 1.48-10.757l.118-2.731c-.123-2.893.457-5.493 1.575-8.316.376-1.188 2.167-1.284 2.66-.143 1.045 2.325 1.959 4.691 1.814 7.194l-.059 1.459c-.158 4.871-.714 9.782-1.753 14.564-2.6 12.997-9.352 24.117-19.145 31.591 5.623.933 12.558.27 19.488-2.006 12.895-4.233 23.283-13.025 28.499-24.123 5.928-12.614 15.899-18.291 21.857-21.682 1.542-.877 3.396-1.934 4.208-2.63a4 4 0 0 0-.131-.138c-20.345-20.721-43.424-33.932-54.345-39.531a2.09 2.09 0 0 1-2.267 1.824c-2.471-.451-3.545-2.442-4.769-4.239-1.089-1.485-2.106-3.026-3.32-4.403-14.205-17.871-37.363-24.334-59.471-21.415a82 82 0 0 0-5.515.874c-1.889.337-3.765 1-5.747.606-1.765-.229-2.412-2.674-1.01-3.748 1.194-.983 2.485-1.403 3.799-1.719-5.815-3.335-15.287-7.399-30.316-10.819-2.427-.551-2.572-.584-5.092 4.485-2.566 5.16-6.444 12.959-17.03 22.674-7.826 7.183-11.188 19.191-8.176 29.202a24 24 0 0 0 1.46 3.696c4.763-10.958 13.07-20.637 23.509-27.321 1.507-.926 3.752-2.332 5.298-3.166 1.982-.782 4.095-1.113 6.247-1.036a1.475 1.475 0 0 1 1.391 1.554c-.019.354-.16.659-.377.91-1.358 1.551-2.758 2.855-4.427 3.96-1.424.702-3.498 1.922-4.865 2.799-15.538 9.948-26.766 27.982-25.187 46.75.419 5.513 1.921 10.963 4.286 15.979.769 1.736 1.991 3.228 1.63 5.687a1.7 1.7 0 0 1-1.897 1.474c-1.296-.291-2.302-1.226-3.001-2.103-.317-.42-.654-1.043-.967-1.64a3 3 0 0 1-1.715.11c-.277-.064-19.345-4.317-40.956.445 3.589 8.192 6.226 16.89 6.697 25.869.018.552.029 1.129.037 1.71 4-3.125 8.093-6.079 12.268-8.841 5.354-3.184 10.805-6.276 16.782-8.158a1.346 1.346 0 0 1 1.683.892 1.34 1.34 0 0 1-.43 1.419c-.024.021-.831.615-1.213.89-9.52 6.862-19.102 13.207-28.093 20.547-14.527 12.048-27.528 26.052-38.531 41.474 2.64 1.44 5.162 3.133 7.474 5.111 6.378 5.452 10.808 13.109 12.51 21.322 1.059 5.47 1.489 11.308-.192 16.782l-.214.528c-.019.107-.023.048-.04.176-.264 1.781.075 3.728.371 5.86.58 3.757 1.409 7.596 1.934 11.652.297 2.917.753 5.851-.41 8.793-.381 1.16-1.91 2.703-3.371 3.029-.303.143-.742.183-1.055.263-.573.103-1.234.198-1.802.229-8.196.282-16.055-1.222-24.043-2.568-4.277-.837-8.398-1.545-12.632-2.89-.754-.264-1.513-.644-2.051-1.269-.496-.548-.821-1.295-.988-1.993-.331-1.545-.169-3.247-.047-4.484.255-2.321 1.02-4.553.916-6.813-.215-4.686-2.106-4.702-2.611-4.417a199 199 0 0 0-4.347 13.04c-8.471 29.5-9.072 59.527 9.53 85.268 3.395 4.806 7.461 9.091 11.952 12.97 3.359 2.963 7.152 5.422 10.575 8.341 1.136 1.014 2.275 2.037 3.276 3.289a1.437 1.437 0 0 1-.191 2.057 1.45 1.45 0 0 1-1.283.26c-3.095-.871-5.837-2.368-8.402-4.139a113 113 0 0 1-3.412-2.494l3.915 67.611a9.85 9.85 0 0 1-1.617 6.032c-2.723 4.127-8.851 18.273-10.859 30.6a3.75 3.75 0 0 0 .691 2.829 4.06 4.06 0 0 0 2.634 1.622l5.078.53c.037-5.456 1.259-10.84 3.895-15.686 1.14-1.836 5.199-7.085 7.293-3.926.342.619.287 1.306-.005 1.895-1.415 3.284-2.832 6.139-3.645 9.608-.669 2.813-1.072 5.828-1.331 8.756l33.503 3.494c-.407-1.454-.496-3.062-.175-4.797 1.163-10.045 4.243-19.89 9.204-28.715.545-1.006.56-.877.536-1.743.148-10.142.522-36.537.665-46.367.03-1.369.067-4.382.102-7.087-7.167-2.148-19.069-8.926-19.743-9.275a21.6 21.6 0 0 1-5.516-4.304 1.6 1.6 0 0 1 .103-2.259c.469-.431 1.099-.508 1.662-.318 1.642.415 3.001 1.117 4.551 1.662 5.363 2.357 10.965 4.459 16.632 5.987 2.712.772 5.441 1.47 8.187 2.114q3.835.899 7.717 1.668c4.302.875 8.674 1.389 12.927 2.741.621.192.91.718.928 1.253.023.662-.378 1.34-1.183 1.426-1.504.176-4.484.254-4.75.269-8.022.456-14.28.113-15.701.021-.122 13.884-.315 40.111-.443 52.289.324 3.044-1.699 5.362-2.814 7.841-2.866 5.883-4.898 12.197-6.046 18.639-.355 1.832-.58 3.818-.787 5.675-.563 3.777 3.858 4.74 6.844 5.03l3.99.456c-.133-5.833 1.061-11.621 3.875-16.796 1.141-1.837 5.199-7.086 7.293-3.927.343.619.287 1.306-.005 1.895-1.415 3.284-2.831 6.139-3.644 9.608-.759 3.189-1.179 6.639-1.429 9.925 12.38 1.439 42.949 5.002 43.187 4.949.656-.131 1.166-.54 1.405-1.104 1.763-19.913 4.691-54.055 7.128-81.857-.641-7.807-4.649-10.702-5.55-10.944-1.699-.457-3.518-.23-5.263-.685a1.424 1.424 0 0 1-1.054-1.525c.007-.073.015-.146.034-.219.13-.493.501-.857.955-1.001.167-.055.332-.097.498-.149 2.394-.751 4.739-1.209 7.07-1.645 7.422-1.119 14.726-3.473 20.953-7.683 5.188-3.354 9.754-8.237 14.083-12.861 9.687-10.131 16.284-22.868 19.302-36.591 4.504-20.259 2.715-41.398 1.062-62.04-1.804-21.056-3.865-42.247-3.012-63.476.252-4.057.397-8.152.726-12.225.158-1.956.358-3.908.636-5.848a61 61 0 0 1 1.102-5.824c.673-2.6 1.521-5.168 2.785-7.624a1.386 1.386 0 0 1 2.614.517c.559 7.104-1.933 14.114-1.201 21.156.129 1.241 2.721 6.427 13.789 5.953 46.395-5.457 103.754-14.937 115.639-27.69 6.574-7.053 14.343-23.688 11.075-32.69m-116.121-23.355c-3.998 5.376-9.126 10.213-13.717 12.939-7.366 4.372-16.942 8.643-26.24 8.643-4.2 0-8.342-.871-12.2-2.998-9.561-5.272-13.277-16.214-13.441-22.282-.059-2.135.132-5.217 2.455-7.321 3.08-2.791 8.573-2.718 17.024-1.646 13.686 1.734 24.854 1.771 38.23-3.389 6.701-2.586 10.97-2.098 12.69 1.444 1.979 4.077-1.518 10.195-4.801 14.61m-6.719-68.069a2.984 2.984 0 0 1 3.847-1.705c.407.156 4.055 1.638 6.926 5.604a2.997 2.997 0 1 1-4.855 3.515c-1.836-2.536-4.218-3.522-4.242-3.532-1.524-.618-2.28-2.353-1.676-3.882m-20.802-12.384c.437-.017 4.455-.07 9.589 2.736a2.998 2.998 0 0 1-2.875 5.26c-3.685-2.015-6.509-2.006-6.537-2.005h-.038c-1.625 0-2.973-1.296-3.012-2.925a2.98 2.98 0 0 1 2.873-3.066m-35.261 22.561c2.669-5.809 9.098-13.097 11.947-15.708 1.646-1.508 3.797-1.924 5.645-1.14 2.603.441 15.305 2.78 26.039 8.155 10.973 5.494 18.052 9.821 20.209 12.334 1.757 1.58 1.701 4.443 1.58 5.682-.522 5.404-2.707 13.417-7.272 19.697-4.299 5.917-11.317 10.354-19.253 12.176-2.308.53-5.082.929-8.202.929-5.425 0-11.894-1.205-18.785-5.021-17.021-9.428-17.312-25.349-11.908-37.104"/><path fill="#F295FF" d="M525.985 322.5c2.946 1.563 4.663 4.094 6.051 6.857 19.018-4.483 36.035-2.318 42.317-1.216-.142-.368-.27-.739-.402-1.108-6.856-1.901-16.402-4.82-29.837-9.054-3.069-.967-6.161-1.941-9.141-2.87-.907.823-1.785 1.681-2.741 2.439-1.2.93-2.129 1.896-3.914 1.529a2.067 2.067 0 0 1-1.661-2.186c.016-1.79.94-2.422 2.056-3.379.919-.813 1.728-1.735 2.598-2.592.729-.695 1.736-1.97 2.404-2.742 6.784-8.128 10.876-19.179 8.128-29.643l-1.076-3.33c-.909-2.201-2.308-4.067-3.198-6.287-.74-1.37-2.212-6.121 1.062-5.557 5.722 2.024 7.269 8.548 9.014 13.69 1.642 6.288 1.292 12.766-.532 18.847a15.2 15.2 0 0 0 3.233-2.528c4.795-4.912 6.485-12.928 4.109-19.493-3.429-9.478-3.305-15.832-3.23-19.628.024-1.226.054-2.75-.133-3.144-.015.004-.219-.136-.856-.304-9.413-2.477-16.088-3.114-20.61-3.057.247.416.481.848.682 1.317.332.779-.03 1.68-.808 2.013-.418.181-.845.145-1.242-.005-2.531-.818-4.559-2.357-6.692-3.826a57 57 0 0 0-6.558-3.797c-6.747-3.325-14.019-5.227-21.486-5.043-4.902.207-9.759 1.221-14.287 3.169-1.158.436-2.252 1.036-3.372 1.578-1.296.689-2.235 1.362-3.933.804a2.49 2.49 0 0 1-1.722-1.469c-8.313-.052-25.99.654-44.49 6.489.34.58.791 1.282 1.188 1.897 2.619 4.067 7.003 10.873 6.591 20.77-.285 6.814 1.916 12.827 6.363 17.39 2.809 2.881 6.503 5.101 10.346 6.357-.941-2.298-1.556-4.735-1.74-7.282-.452-5.373.563-10.592 2.157-15.418 1.161-2.947 2.045-5.994 3.77-8.652 1.01-1.333 4.505-6.012 6.142-3.617.177.279.244.584.231.895-.08 4.92-2.946 8.821-4.472 13.299-2.937 8.305-2.925 17.53 2.876 24.465 1.3 1.713 2.921 3.223 4.602 4.689 1.886 1.546 3.885 2.638 5.087 4.997.403.765.11 1.711-.655 2.114-1.521.518-3.229-.2-4.548-.731a33.7 33.7 0 0 1-6.054-4.399c-1.441-.314-9.006-2.142-14.289-6.787-2.855-1.51-5.505-3.448-7.745-5.746a28 28 0 0 1-6.405-10.275c-3.578-2.72-4.991-4.386-5.353-5.777-1.115-4.293-8.05-13.08-13.182-14.505-1.63-.454-2.413.038-2.964.577-6.33 6.196-9.49 17.395-7.885 22.536 2.534 8.123 38.878 38.023 38.791 38.173 4.019-2.385 8.319-4.213 12.857-5.19 1.712-.386 3.475-.595 5.277-.444a1.4 1.4 0 0 1 .61 2.593c-.14.08-.282.154-.422.232-5.54 3.106-11.353 5.422-16.667 8.915-5.363 3.48-10.189 7.82-14.302 12.76-6.481 7.741-11.346 17.108-13.908 26.99.884 3.846 2.15 9.984 2.937 16.573 1.054 8.818.944 15.694-.335 20.744 3.775 8.217 10.104 15.04 17.17 20.584a57 57 0 0 0 8.018 5.284c1.304.889 6.285 2.609 8.138 4.614.695.751.953 1.542.409 2.345 1.209.39 2.484.739 3.809 1.057-.391-.933-.091-2.131.867-2.654a7.04 7.04 0 0 1 3.034-.924c1.068-.086 2.124.029 3.178.159a60 60 0 0 1 6.088 1.003c7.415 1.608 15.599 5.04 19.753 11.938 1.814 2.825 1.795 6.691 1.656 9.591-.174 4.469-1.311 9.078-1.482 13.418 3.09.886 7.409 1.786 10.805 2.426 3.699.65 7.473 1.343 11.256 1.852.004-1.705-.586-3.62.156-5.298 1.203-2.842 4.34-1.588 5.285.684.669 1.531 1.099 3.445.951 5.248 1.632.1 3.26.152 4.876.117.45-.025.885-.074 1.309-.171.245-.827.245-1.808.213-2.833-.294-5.698-1.825-11.407-2.36-17.293-.136-1.689-.249-3.778.343-5.525.506-1.162.746-2.344.916-3.683.615-5.319-.124-10.977-1.963-16.055-3.419-9.585-11.514-16.779-20.909-20.416-2.643-1.113-5.466-1.8-8.035-3.122a1.83 1.83 0 0 1-.717-.632c-.786-1.19.03-3.118 1.704-3.011 3.138.148 6.136 1.081 9.033 2.253 8.309-11.741 27.701-32.337 28.611-33.104 6.917-5.82 8.164-13.02 8.32-16.598a32 32 0 0 0-.142-1.791 83.5 83.5 0 0 0-2.593-10.813 79 79 0 0 0-3.171-8.338 76 76 0 0 0-1.128-2.426c-1.372-2.713-3.072-5.292-3.846-8.211a12 12 0 0 1-.418-2.84c-.087-1.153 1.219-2.004 2.234-1.452m-25.925-77.937a2.604 2.604 0 0 1 2.874-2.298c3.865.431 7.2 1.966 7.34 2.032a2.602 2.602 0 0 1-2.192 4.72c-.051-.024-2.745-1.248-5.725-1.58a2.6 2.6 0 0 1-2.297-2.874m-13.947-1.976c3.765-1.648 7.323-1.195 7.715-1.138a2.603 2.603 0 0 1-.733 5.153c-.075-.011-2.495-.299-4.898.753a2.602 2.602 0 1 1-2.084-4.768m-19.145 57.783c-2.618-2.172-4.121-4.604-4.866-7.047-1.208-2.667-2.077-5.911-2.433-9.865-.165-1.827.387-5.123 1.341-8.014 1.405-4.254 3.364-6.859 5.823-7.741 1.658-.594 4.923-.876 8.185 3.904 6.013 8.809 7.258 9.794 16.647 13.183 4.208 1.518 7.202 2.1 9.182 2.486 2.384.463 4.266.829 5.381 2.585 1.045 1.646.703 3.486.264 5.229-1.293 5.124-13.831 10.256-24.225 10.256q-1.157 0-2.269-.087c-2.285-.18-5.107-.694-7.92-1.935-1.799-.689-3.533-1.646-5.11-2.954m54.884-20.026c-3.504 3.373-8.775 5.165-15.053 5.165q-1.502 0-3.077-.137c-16.561-1.452-24.332-11.66-25.955-19.961-1.125-5.756.417-8.529 1.777-10.975.751-1.347 2.514-2.439 3.516-2.846q.06-.024.12-.045c.524-.187 13.077-4.495 34.495 1.923 1.491.446 2.28 1.292 2.856 1.91 3.789 4.055 5.734 8.087 5.942 12.324.253 5.117-1.345 9.488-4.621 12.642"/><path fill="#FFFBE8" d="M364.793 217.151c2.106-10.519 4.184-14.666 11.28-18.596-9.916-2.541-12.641-6.909-15.728-14.833-2.64 8.873-7.497 13.52-19.925 19.676l.151 1.521c12.752.233 19.192 4.087 24.222 12.232"/><path fill="#F295FF" d="M230.711 688.349c-.031 1.184.548 2.306 1.872 2.363 10.777-.901 27.385-2.413 40.175-3.519a10.5 10.5 0 0 1-.786-3.699l-10.295-88.224c-21.151 2.934-39.971-2.042-46.488-4.092l6.704 41.464c-.002.003 8.82 55.703 8.818 55.707"/><path fill="#F295FF" d="m317.6 257.19-.139-1.26a60 60 0 0 0-3.158 1.266c-7.18 3.145-10.907 6.531-11.417 8.491-.556 2.14-.286 6.832.001 11.799.744 12.894 1.763 30.554-7.805 40.705-.327.347-.668.685-1.012 1.021a198 198 0 0 1 4.783 4.815 48 48 0 0 0 4.417-4.257c3.416-3.87 4.876-8.851 5.654-14.042 1.012-7.125.605-14.586.141-22.149-.314-6.075-1.291-12.889 2.285-18.386 1.404-2.649 3.62-5.7 6.25-8.003"/><path fill="#EE6DBB" d="m339.452 254-6.882-68.881c-.045-.447-.244-.832-.56-1.082a1.18 1.18 0 0 0-.741-.264c-.052 0-8.858 1.161-8.858 1.161-.814.107-1.425.976-1.332 1.897l6.712 67.179c1.254.405 2.502 1.157 3.715 2.343 1.99 2.119 3.304 4.586 4.391 7.154.67-2.25 1.31-4.513 1.982-6.712.391-1.104.927-2.027 1.573-2.795m-12.83-41.209-1.038-10.382c-.105-1.054.641-2.021 1.664-2.156l1.933-.256a1.82 1.82 0 0 1 1.381.382c.409.324.663.794.716 1.324l1.037 10.384c.106 1.053-.639 2.02-1.663 2.156 0 0-2.098.272-2.178.272-.412 0-.809-.138-1.138-.399a1.9 1.9 0 0 1-.714-1.325"/><path fill="#000" d="M328.474 214.514c.081 0 2.178-.272 2.178-.272 1.024-.135 1.769-1.102 1.663-2.155l-1.037-10.384a1.9 1.9 0 0 0-.716-1.324 1.82 1.82 0 0 0-1.381-.382l-1.933.256c-1.023.135-1.769 1.102-1.664 2.155l1.038 10.383c.053.53.306 1.001.715 1.325.328.261.725.398 1.137.398"/><path fill="#000" d="M197.797 220.185c2.227-1.186 5.125-1.409 7.664-1.527.79.006 1.55-.41 1.875-1.191a1.93 1.93 0 0 0-1.029-2.525c-2.655-1.065-5.332-1.617-8.218-1.19-2.335.334-5.553 2.038-4.257 4.98a2.987 2.987 0 0 0 3.965 1.453"/><path fill="#000" d="M165.316 223.894c-1.095 1.187-2.13 3.107-1.018 4.679a2.794 2.794 0 0 0 3.882.735c.545-.352 1.14-.771 1.574-1.274.923-1.026 2.144-2.076 3.136-3.05.639-.613 1.144-1.411.946-2.366-.999-3.928-6.848-.566-8.52 1.276"/><path fill="#000" d="M190.489 246.867a2.22 2.22 0 0 0 1.362-.466 257 257 0 0 1 3.586-2.72c.288.487.667.93 1.139 1.295a4.36 4.36 0 0 0 3.35.875 4.42 4.42 0 0 0 2.976-1.872c1.421-2.043 1.005-4.827-.947-6.336a4.36 4.36 0 0 0-3.349-.875 4.4 4.4 0 0 0-.987.282c-.79.164-3.839 2.303-4.788 3.01-1.868 1.39-3.707 2.812-3.707 2.812a2.23 2.23 0 0 0 1.365 3.995"/><path fill="#000" d="M205.607 234.042a2.225 2.225 0 0 0 3.128.401 265 265 0 0 1 3.586-2.721c.289.487.667.93 1.14 1.296a4.34 4.34 0 0 0 3.349.874 4.42 4.42 0 0 0 2.976-1.87c1.422-2.043 1.007-4.828-.947-6.339a4.35 4.35 0 0 0-3.35-.873 4.4 4.4 0 0 0-.983.281c-.791.163-3.841 2.303-4.791 3.01a294 294 0 0 0-3.707 2.813 2.23 2.23 0 0 0-.401 3.128"/><path fill="#DB00F8" d="M212.01 308.994c3.082-.275 6.106-2.418 8.381-4.586-5.218-.474-12.243-.603-17.392.891 2.25 1.903 5.57 4.01 9.011 3.695"/><path fill="#DB00F8" d="M285.683 267.956c.642-.208 1.31-.425 2.01-.635 4.816-2.616 4.003-9.233 2.452-14.362-.729-2.412-2.762-6.487-5.413-11.257-.331.188-.855.42-1.528.42-.217 0-.448-.024-.693-.081-1.688-.395-3.328-2.037-8.085-10.303-1.63-2.83-3.656-6.352-.63-8.386a729 729 0 0 0-7.261-11.393l-15.646 12.698c2.269 5.455 14.916 29.919 19.884 36.392 7.215 9.401 9.467 8.672 14.91 6.907m-9.015-19.22c-.238.159-.869.58-1.767.58-.212 0-.44-.024-.681-.08-1.68-.392-3.243-1.978-8.067-10.336-1.882-3.261-4.224-7.319-1.343-9.242a2.95 2.95 0 0 1 2.24-.433c1.589.321 3.043 1.782 5.556 5.586 5.626 8.52 7.086 11.904 4.062 13.925"/><path fill="#000" d="M267.05 229.225a2.95 2.95 0 0 0-2.24.432c-2.881 1.924-.538 5.982 1.343 9.243 4.824 8.358 6.387 9.944 8.067 10.336.241.056.469.08.681.08.898 0 1.529-.421 1.768-.58 3.023-2.021 1.564-5.405-4.063-13.925-2.513-3.804-3.967-5.265-5.556-5.586"/><path fill="#F295FF" d="M327.749 569.28c3.276-2.322 6.427-4.841 9.237-7.702 6.932-6.903 11.396-15.702 15.819-24.37 7.892-14.425 10.479-31.017 10.447-47.324-.737-36.191-11.51-73.662-29.375-107.348-14.952 8.705-44.789 13.699-47.141 14.111q-2.377.419-4.77.74c-1.909.089-7.951.277-7.084-2.841a1.7 1.7 0 0 1 .579-.813q.15-.12.323-.209c3.404-1.918 7.102-2.194 10.808-2.946a123 123 0 0 0 10.808-2.651c24.579-6.971 47.695-23.122 55.75-48.247 3.764-12.307 3.497-25.51 2.932-38.316a56 56 0 0 1-.119-6.034c.18-10.67 3.507-21.198 1.179-31.644-.349-1.587-1.175-2.666-2.799-3.855-2.072-1.653-8.69-4.031-10.31-1.217-1.501 4.814-2.802 10.143-4.732 14.797-.419.742-.449.951-1.346 1.633-1.504 1.087-3.639.415-4.472-.737-1.077-1.492-1.397-3.026-2.011-4.545-1.025-2.491-3.522-10.477-6.682-9.668-3.512 1.188-6.056 4.997-7.966 8.166-1.907 2.973-2.004 5.756-1.854 9.349.351 9.628 1.399 19.068-.063 29.002-.887 5.997-2.937 12.447-7.21 17.135-9.502 10.461-23.171 16.607-37.186 17.541-3.743.308-7.531.318-11.088-1.049-.218-.084-.438-.154-.654-.249-1.38-.602-1.244-2.713.236-3.081 3.707-1.049 7.309-1.004 11.045-1.29a59 59 0 0 0 4.184-.515 54 54 0 0 0 6.482-1.401c4.999-1.393 9.751-3.632 14.037-6.551-5.935-6.407-12.161-12.441-18.644-18.033-1.391 2.185-3.212 4.417-5.891 4.141a1.6 1.6 0 0 1-.446-.123c-2.101-.824.273-4.439.992-5.42.231-.355.443-.72.65-1.088 1.732-3.084 2.667-6.583 3.432-10.13.104-.484.197-.975.292-1.465.713-3.693 1.188-7.518 1.545-11.293-13.168 8.275-28.419 13.157-43.962 14.344-.284.39-3.945 5.746-3.945 5.746-.285.421-7.085 10.319-16.234 11.134q-.604.053-1.196.053c-4.405 0-8.32-2.136-11.166-4.31-1.336-.997-2.62-2.18-3.85-3.513l-.172-.189a38 38 0 0 1-2.65-3.265l-.153-.192.013-.008c-1.904-2.657-3.636-5.696-5.158-9.015-.667-1.358-1.274-2.771-1.867-4.16-.38-.847-.776-1.825-.692-2.853.078-2.425 3.119-4.096 5.11-2.614 13.452 8.321 35.715 8.911 51.015 6.111a88.8 88.8 0 0 0 36.23-15.375l.995-.747-.873-.179c-3.518-.87-7.237-3.661-12.11-10.01-5.55-7.23-18.959-33.242-20.902-38.337-.895-2.342-.348-4.621 1.389-5.866l10.814-8.776-.003-.006c-6.215 2.134-12.814 3.069-19.386 2.059-3.401-.522-6.763-1.742-9.756-3.427-14.169-7.517-31.116-10.624-47.038-8.003a7.8 7.8 0 0 1-1.163 2.749c-.49.772-1.512 1-2.283.511-.18-.064-1.538-1.595-2.023-2.127l-.009-.002c-.505.115-.999.268-1.496.409.251.404.492.814.714 1.23 1.132 2.422-1.833 4.608-3.834 2.9-.8-.577-1.716-1.355-2.64-2.177-8.973 3.571-17.073 9.308-23.325 16.691-2.987 3.433-5.658 7.147-8.184 10.938-.827 1.304-1.698 2.595-3.198 3.517-.688.472-1.522.435-2.199.086a85 85 0 0 0-1.868 3.4c.949.625 1.467 1.894.837 3.088-.046.103-.102.199-.152.3-1.094 2.238-2.907 3.95-4.509 5.821a170 170 0 0 0-4.95 5.935c-12.818 16.119-23.324 34.238-29.981 53.749-1.23 3.577-2.305 7.262-3.244 10.925-.086.617-.165.89.114 1.282.192.286 1.024.799 2.044 1.164 3.528 1.224 7.348 1.812 11.105 2.797 9.897 2.347 19.708 7.017 27.075 14.248 5.219 5.568 12.917 9.062 20.37 6.813 6.843-2.02 11.638-7.91 13.994-14.636 4.88-14.393.772-30.336-5.138-43.885-1.054-2.338-2.148-4.661-3.353-6.935-1.173-2.293-2.569-4.444-3.051-7.172-.168-.712.174-1.339.7-1.698.588-.401 1.408-.468 2.017.069 2.153 1.761 3.387 4.14 4.648 6.531 1.266 2.348 2.426 4.759 3.543 7.189 2.207 4.898 4.084 9.948 5.488 15.146 1.116 4.223 2.427 12.317 2.427 12.317.23 1.617.403 3.216.53 4.778.916 11.21-.53 20.476-.53 20.476s6.755 3.324 10.55 4.341c3.371.938 6.849 1.296 10.173 2.413q.744.249 1.475.553a1.454 1.454 0 0 1 .814 1.952 1.45 1.45 0 0 1-.909.792c-2.018.61-4.068.746-6.114.627 0 0-2.956-.515-4.01 6.4-.143.94-.318 2.021-.298 3.259.031 1.84.214 3.677.239 5.519.136 6.817.19 13.63-.075 20.427-.919 27.071-5.527 53.828-8.623 80.595-2.892 26.09-4.506 53.674 6.224 78.095.424.951.867 1.895 1.32 2.837 3.226-1.056 6.725-1.122 10.141.288 3.215 1.173 6.314 3.012 8.766 5.489q.606.612 1.154 1.276c1.254-1.216 2.399-2.564 3.783-3.576l.488-.291c1.201-.774 2.852.389 2.552 1.768-.64 3.277-3.146 5.472-5.468 7.605-.042.036-.65.614-.984.798-3.293 2.602-7.062 4.537-11.055 5.781a40 40 0 0 1-3.293.899c-1.097.233-1.782.489-3.234.3-1.328-.144-2.822-1.383-3.014-2.855-.536-4.61 6.192-7.495 9.842-5.318.296.161.541.361.738.586a32 32 0 0 0 4.752-2.165c-2.159-2.437-5.207-4.041-8.341-4.964-7.472-2.017-16.068 7.891-14.566 15.073 1.303 7.801 8.307 10.692 15.581 8.682 1.614-.344 4.034-1.319 5.632-1.885 5.342-2.15 10.449-4.835 14.654-8.671.184-.168.377-.325.557-.497.783-.733 2.135-2.202 2.987-3.143a4.4 4.4 0 0 1 1.901-1.228l.397-.129c1.01-.358 2.092.583 1.895 1.627-.556 3.686-3.259 6.439-5.835 8.881-1.8 1.666-3.791 3.111-5.878 4.399 15.905 10.268 35.435 13.601 54.171 13.278 5.788-.099 14.259-.458 20.001-.335a1.39 1.39 0 0 1 1.367 1.451 1.39 1.39 0 0 1-.993 1.269 81 81 0 0 1-11.484 3.272l10.35 88.701q.019.159.02.318c.013 1.29.557 2.489 1.492 3.29.836.716 1.876 1.026 2.928.874q.113-.016.225-.024l53.29-3.647c2.347-.377 5.742-2.22 5.736-5.851-.032-19.146-5.771-26.105-9.569-30.71-.933-1.132-1.739-2.109-2.369-3.145a10.4 10.4 0 0 1-1.49-6.144l3.12-63.798c-1.465 1.045-2.975 2.004-4.739 2.488-.836.276-1.682.536-2.761.389-1.069-.135-1.754-1.273-1.377-2.281 1.063-2.509 3.191-3.955 5.301-5.424M214.506 225.09c.314-.127.64-.227.983-.28a4.35 4.35 0 0 1 3.35.873c1.954 1.511 2.369 4.295.947 6.339a4.42 4.42 0 0 1-3.647 1.921 4.34 4.34 0 0 1-2.678-.925 4.6 4.6 0 0 1-1.14-1.296 257 257 0 0 0-3.586 2.721 2.225 2.225 0 0 1-3.128-.401 2.23 2.23 0 0 1 .401-3.128s1.839-1.422 3.707-2.813c.95-.707 4-2.847 4.791-3.011m-16.416-11.338c2.885-.428 5.562.125 8.217 1.19a1.93 1.93 0 0 1 1.03 2.525c-.325.781-1.086 1.197-1.876 1.191-2.539.118-5.436.341-7.664 1.527a2.987 2.987 0 0 1-3.965-1.453c-1.296-2.942 1.922-4.647 4.258-4.98m-8.966 29.12s1.839-1.422 3.707-2.812c.95-.707 3.998-2.846 4.788-3.01.316-.128.643-.229.987-.282a4.36 4.36 0 0 1 3.349.874c1.952 1.51 2.368 4.294.947 6.337a4.42 4.42 0 0 1-3.647 1.923 4.36 4.36 0 0 1-2.679-.926 4.6 4.6 0 0 1-1.139-1.295 257 257 0 0 0-3.586 2.72 2.227 2.227 0 0 1-3.128-.4 2.23 2.23 0 0 1 .401-3.129m-19.37-14.838c-.433.503-1.029.922-1.574 1.274a2.794 2.794 0 0 1-3.882-.735c-1.111-1.572-.077-3.492 1.019-4.679 1.671-1.842 7.52-5.204 8.519-1.276.198.955-.307 1.753-.946 2.366-.991.974-2.213 2.024-3.136 3.05"/><path fill="#F295FF" d="M191.922 581.13c-3.843 1.226-8.175 1.958-12.223 1.11-3.425 4.227-11.29 6.903-13.093 7.473-1.09.345-2.143.982-1.683 3.093.516 2.375 2.518 4.187 3.461 4.067 13.766-1.694 20.493-10.025 23.538-15.743"/><path fill="#000" d="M387.817 537.542a6.8 6.8 0 0 0 3.9 1.213c1.9 0 3.785-.776 5.118-2.254.105-.085 7.27-10.376 7.27-10.376l10.022 7.149-3.248 4.681a7 7 0 0 0-1.389-1.14 6.865 6.865 0 0 0-8.994 1.535 6.8 6.8 0 0 0-1.44 5.293 6.9 6.9 0 0 0 2.883 4.655 6.8 6.8 0 0 0 3.899 1.213 6.9 6.9 0 0 0 5.123-2.256c.105-.087 11.086-15.878 11.086-15.878.18-.258.267-.565.261-.875a1.48 1.48 0 0 0-.537-1.626l-15.356-11.113a2.52 2.52 0 0 0-1.912-.415 2.54 2.54 0 0 0-1.645 1.057l-6.102 8.793a7 7 0 0 0-1.389-1.139 6.86 6.86 0 0 0-8.993 1.534 6.82 6.82 0 0 0-1.441 5.292 6.9 6.9 0 0 0 2.884 4.657"/><path fill="#000" d="M752.506 488.341a8.515 8.515 0 0 0-7.242 8.697 8.46 8.46 0 0 0 2.908 6.154 8.56 8.56 0 0 0 6.473 2.066c4.26-.431 7.571-4.042 7.667-8.29.029-.145-2.371-24.127-2.371-24.127l-.091-1.219a1.486 1.486 0 0 0-1.571-1.376l-25.033 1.78a2.87 2.87 0 0 0-1.944 1.046 2.86 2.86 0 0 0-.636 2.114l1.465 14.501a8.6 8.6 0 0 0-2.794-.037 8.516 8.516 0 0 0-7.242 8.697 8.46 8.46 0 0 0 2.908 6.153 8.56 8.56 0 0 0 6.473 2.067c4.261-.431 7.572-4.041 7.667-8.291.03-.145-1.635-16.84-1.635-16.84l16.964-1.248.828 8.19a8.6 8.6 0 0 0-2.794-.037"/><path fill="#FAD0E9" d="m129.214 542.578-32.626-73.845-7.835-4.164c-13.504 4.142-42.339 13.694-68.208 26.932l-2.657 8.231c2.414 5.29 6.09 12.761 9.694 20.084 8.474 17.219 18.67 37.947 24.7 53.872l8.317 4.421a869 869 0 0 0 3.66-1.698c6.533-3.044 15.48-7.213 28.18-12.495 13.245-5.509 26.206-10.443 34.254-13.437zm-14.833 9.264c-3.628-8.423-8.667-15.89-15.193-22.34a2.9 2.9 0 0 1-.517-.706l-.569.635c-4.589 5.09-9.91 9.706-15.935 13.025a45.1 45.1 0 0 1-13.046 4.723c-.55 6.976-.406 13.934.588 20.87.504 3.515-4.87 5.02-5.376 1.482-1.035-7.223-1.348-14.39-.834-21.652-6.795.365-13.586-1.057-19.212-5.005-9.216-6.466-7.118-19.507-2.06-28.614-.42-.439-.71-1.031-.742-1.797l-.524-12.453c-.05-1.189.903-2.409 2.046-2.688 5.076-1.238 10.16-.477 14.508 2.039a40.5 40.5 0 0 1 14.328-8.081l.004-5.515c.002-2.111.235-4.488 2.7-5.086 2.622-.635 4.3 1.867 5.724 3.589l5.775 6.98c.118.142.21.289.295.437 12.151-1.416 25.246 6.829 22.33 20.563-.989 4.658-3.636 8.843-6.658 12.625.385.123.765.338 1.118.686 6.839 6.76 12.259 14.634 16.065 23.469 1.405 3.263-3.399 6.1-4.815 2.814"/><path fill="#FAD0E9" d="M101.906 503.077c-3.055-5.044-9.1-6.744-14.68-5.945-1.178.168-2.123-.329-2.735-1.076-.796.207-1.671 0-2.387-.865l-4.043-4.886-.641-.776-.005 5.387c-.002 2.723-3.2 3.375-4.75 1.971a34 34 0 0 0-10.897 6.149c.421 1.26-.347 2.596-1.512 3.21.448.514.675 1.199.683 1.888a8.4 8.4 0 0 1 2.32-2.282c3.858-2.521 8.655-.779 12.912-1.346 3.551-.472 3.504 5.109 0 5.576-2.364.314-4.6-.073-6.958-.058-4.36.029-5.084 4.45-5.41 8.035-.428 4.682-.519 14.56 6.159 14.347 5.132-.164 10.502-4.491 13.808-8.051.698-.752 1.582-1.989 2.394-3.434-.298.11-.626.183-1.003.183-3.593 0-3.587-5.575 0-5.575 1.437 0 2.289.894 2.576 1.964 1.31-3.725 1.199-7.479-3.59-7.803-3.567-.242-3.582-5.818 0-5.575 9.554.647 11.754 11.104 7.845 18.427-3.962 7.421-13.292 15.165-22.03 15.439-10.897.342-12.533-12.387-11.646-20.732.232-2.181.56-4.558 1.369-6.678a2.7 2.7 0 0 1-1.435.392c-3.07 0-3.504-4.058-1.331-5.244-2.894-2.542-6.549-3.706-10.285-3.371l.26 6.157c2.142-.454 4.411 2.595 2.559 4.834-3.539 4.277-5.68 9.592-5.8 15.172-.13 6.072 2.369 9.724 7.98 11.935 9.042 3.563 19.39 1.787 27.72-2.804 8.188-4.513 15.587-11.726 20.669-19.563 2.936-4.527 4.922-9.988 1.884-15.002m-31.565 26.218c-3.594 0-3.588-5.576 0-5.576 3.593 0 3.587 5.576 0 5.576m11.31-26.522c-3.593 0-3.587-5.575 0-5.575 3.594 0 3.588 5.575 0 5.575"/><path fill="#C0167C" d="m13.504 484.72-5.337 16.528 2.656.858 5.337-16.528z"/><path fill="#000" d="m3.473 506.031 8.36 2.699a2.98 2.98 0 0 0 3.218-.93c2.024 4.236 4.458 9.185 7.153 14.662 6.95 14.124 15.77 32.053 21.908 46.908a2.99 2.99 0 0 0-3.859 1.319l-4.123 7.757a2.994 2.994 0 0 0 1.24 4.053L58 593.464a3 3 0 0 0 4.052-1.24l4.123-7.758a3 3 0 0 0 .22-2.283c-.014-.045-.039-.085-.055-.129l.451-.21c6.484-3.022 15.365-7.159 27.949-12.393 10.976-4.565 21.752-8.731 29.666-11.715a2.99 2.99 0 0 0 2.001 3.5l8.369 2.67a3 3 0 0 0 2.286-.193 3 3 0 0 0 1.48-1.752l7.101-22.257a3 3 0 0 0-1.945-3.766l-8.369-2.67a2.99 2.99 0 0 0-3.241.983l-27.475-62.185c.027-.008.054-.01.08-.018a3 3 0 0 0 1.77-1.46l4.123-7.757a2.995 2.995 0 0 0-1.24-4.053l-20.63-10.965a2.997 2.997 0 0 0-4.052 1.24l-4.123 7.757a3 3 0 0 0-.22 2.283 3 3 0 0 0 1.064 1.507c-14.013 4.488-36.826 12.47-58.47 23.016a2.99 2.99 0 0 0-2.062-2.822l-8.36-2.699a2.994 2.994 0 0 0-3.773 1.931l-7.178 22.232a2.997 2.997 0 0 0 1.931 3.773m10.03-21.311 2.656.857-5.336 16.529-2.656-.858zm73.737-27.743 1.31-2.464 15.337 8.151-1.31 2.465zm51.782 83.761-5.279 16.547-2.659-.849 5.279-16.547zM59.476 584.3l-1.31 2.464-15.337-8.151 1.31-2.465zm4.784-7.889c-1.28.596-2.507 1.167-3.66 1.698l-8.318-4.421c-6.03-15.925-16.226-36.653-24.7-53.872-3.604-7.323-7.28-14.794-9.694-20.084l2.657-8.231c25.869-13.238 54.704-22.79 68.208-26.932l7.835 4.165 32.626 73.844-2.521 7.901c-8.048 2.994-21.009 7.928-34.255 13.438-12.7 5.281-21.646 9.45-28.178 12.494"/><path fill="#C0167C" d="m44.14 576.147-1.31 2.465 15.336 8.153 1.31-2.465z"/><path fill="#C0167C" d="m88.55 454.512-1.31 2.464 15.337 8.153 1.31-2.464z"/><path fill="#C0167C" d="m136.363 539.889-5.279 16.548 2.659.848 5.279-16.547z"/><path fill="#C0167C" d="M70.34 523.719c-3.587 0-3.593 5.575 0 5.575 3.588 0 3.594-5.575 0-5.575"/><path fill="#C0167C" d="M81.651 497.197c-3.587 0-3.593 5.576 0 5.576 3.588 0 3.594-5.576 0-5.576"/><path fill="#C0167C" d="M119.195 549.028c-3.805-8.834-9.225-16.709-16.064-23.468a2.8 2.8 0 0 0-1.118-.687c3.022-3.782 5.669-7.967 6.658-12.625 2.916-13.734-10.179-21.979-22.33-20.563a3 3 0 0 0-.295-.437l-5.775-6.98c-1.425-1.721-3.102-4.224-5.724-3.589-2.465.598-2.698 2.975-2.7 5.086l-.004 5.515a40.5 40.5 0 0 0-14.328 8.082c-4.348-2.517-9.432-3.278-14.508-2.04-1.143.279-2.096 1.499-2.046 2.688l.524 12.453c.032.766.322 1.359.742 1.797-5.058 9.107-7.156 22.148 2.06 28.615 5.626 3.947 12.417 5.369 19.212 5.004-.514 7.263-.201 14.43.834 21.652.507 3.538 5.88 2.034 5.376-1.482-.994-6.936-1.137-13.894-.588-20.87a45.1 45.1 0 0 0 13.046-4.723c6.025-3.319 11.346-7.935 15.936-13.025l.568-.635c.13.242.29.481.517.706 6.526 6.45 11.565 13.917 15.193 22.34 1.416 3.286 6.22.45 4.814-2.814m-39.842-11.386c-8.33 4.591-18.678 6.366-27.72 2.804-5.611-2.211-8.11-5.864-7.98-11.936.12-5.579 2.261-10.894 5.8-15.171 1.852-2.24-.417-5.288-2.56-4.834l-.259-6.157c3.736-.335 7.39.829 10.284 3.371-2.172 1.186-1.738 5.244 1.332 5.244a2.7 2.7 0 0 0 1.435-.392c-.808 2.12-1.137 4.497-1.37 6.678-.886 8.345.75 21.074 11.647 20.732 8.738-.274 18.068-8.019 22.03-15.44 3.91-7.322 1.709-17.779-7.845-18.427-3.582-.242-3.567 5.334 0 5.576 4.789.324 4.9 4.078 3.59 7.803-.287-1.07-1.139-1.965-2.576-1.965-3.587 0-3.593 5.576 0 5.576.377 0 .705-.073 1.003-.183-.812 1.445-1.696 2.682-2.394 3.434-3.306 3.56-8.676 7.887-13.808 8.051-6.678.213-6.587-9.666-6.16-14.347.327-3.585 1.05-8.007 5.411-8.035 2.358-.015 4.594.372 6.958.058 3.504-.467 3.55-6.048 0-5.576-4.257.567-9.055-1.175-12.912 1.346a8.4 8.4 0 0 0-2.32 2.282c-.008-.689-.235-1.374-.683-1.888 1.165-.614 1.933-1.95 1.511-3.21a33.9 33.9 0 0 1 10.897-6.149c1.55 1.403 4.749.752 4.751-1.971l.004-5.387.642.776 4.043 4.886c.716.865 1.591 1.072 2.387.864.612.748 1.556 1.245 2.735 1.076 5.58-.798 11.624.902 14.68 5.946 3.038 5.014 1.052 10.475-1.884 15.001-5.082 7.838-12.48 15.051-20.669 19.564"/></svg>