<svg xmlns="http://www.w3.org/2000/svg" width="61" height="61" fill="none" viewBox="0 0 61 61"><path fill="url(#a)" d="M30.5 61C47.345 61 61 47.345 61 30.5S47.345 0 30.5 0 0 13.655 0 30.5 13.655 61 30.5 61"/><path fill="url(#b)" d="M30.5 61C47.345 61 61 47.345 61 30.5S47.345 0 30.5 0 0 13.655 0 30.5 13.655 61 30.5 61"/><path fill="url(#c)" d="M20.53 29.509c1.622 0 2.936-1.989 2.936-4.442s-1.314-4.441-2.936-4.441c-1.62 0-2.935 1.988-2.935 4.441s1.314 4.442 2.935 4.442"/><path fill="url(#d)" d="M20.53 22.132c1.259 0 2.364 1.105 2.936 2.726-.038-2.402-1.334-4.328-2.936-4.328-1.6 0-2.897 1.926-2.935 4.328.572-1.62 1.677-2.726 2.935-2.726"/><path fill="#643800" d="M43.977 39.421a.81.81 0 0 0-.686.21c-3.279 3.069-8.33 4.727-12.143 4.727h-1.296c-3.813 0-8.864-1.658-12.143-4.727a.83.83 0 0 0-.686-.21.387.387 0 0 0-.267.572 15.69 15.69 0 0 0 13.591 7.835h.343a15.69 15.69 0 0 0 13.592-7.835.425.425 0 0 0-.305-.572"/><path fill="url(#e)" d="M40.45 29.509c1.622 0 2.936-1.989 2.936-4.442s-1.314-4.441-2.936-4.441c-1.62 0-2.935 1.988-2.935 4.441s1.314 4.442 2.935 4.442"/><path fill="url(#f)" d="M40.45 22.132c-1.258 0-2.363 1.105-2.935 2.726.038-2.402 1.334-4.328 2.935-4.328 1.602 0 2.898 1.926 2.936 4.328-.572-1.62-1.677-2.726-2.936-2.726"/><path fill="url(#g)" d="M43.977 39.421a.81.81 0 0 0-.686.21c-3.279 3.069-8.33 4.727-12.143 4.727h-1.296c-3.813 0-8.864-1.658-12.143-4.727a.83.83 0 0 0-.686-.21.387.387 0 0 0-.267.572c.019.057.057.095.095.133.267-.152.553-.304.839.02 3.107 3.488 7.72 5.585 12.657 5.585h.343c4.976 0 9.608-2.116 12.715-5.662.286-.324.553-.171.8 0 .02-.038.039-.057.058-.095.114-.21-.02-.496-.286-.553"/><defs><radialGradient id="a" cx="0" cy="0" r="1" gradientTransform="translate(24.491 18.14)scale(36.7943)" gradientUnits="userSpaceOnUse"><stop stop-color="#FFE030"/><stop offset="1" stop-color="#FFB92E"/></radialGradient><radialGradient id="b" cx="0" cy="0" r="1" gradientTransform="translate(24.491 18.14)scale(28.9477)" gradientUnits="userSpaceOnUse"><stop stop-color="#FFEA5F"/><stop offset="1" stop-color="#FFBC47" stop-opacity="0"/></radialGradient><radialGradient id="c" cx="0" cy="0" r="1" gradientTransform="matrix(1.1984 4.13944 -2.67816 .77535 19.654 25.193)" gradientUnits="userSpaceOnUse"><stop offset=".001" stop-color="#7A4400"/><stop offset="1" stop-color="#643800"/></radialGradient><radialGradient id="e" cx="0" cy="0" r="1" gradientTransform="matrix(1.1984 4.13944 -2.67816 .77535 39.57 25.194)" gradientUnits="userSpaceOnUse"><stop offset=".001" stop-color="#7A4400"/><stop offset="1" stop-color="#643800"/></radialGradient><linearGradient id="d" x1="20.535" x2="20.535" y1="20.608" y2="24.748" gradientUnits="userSpaceOnUse"><stop offset=".001" stop-color="#3C2200"/><stop offset="1" stop-color="#512D00"/></linearGradient><linearGradient id="f" x1="40.45" x2="40.45" y1="20.608" y2="24.748" gradientUnits="userSpaceOnUse"><stop offset=".001" stop-color="#3C2200"/><stop offset="1" stop-color="#512D00"/></linearGradient><linearGradient id="g" x1="30.492" x2="30.492" y1="41.577" y2="46.13" gradientUnits="userSpaceOnUse"><stop offset=".001" stop-color="#3C2200"/><stop offset="1" stop-color="#512D00"/></linearGradient></defs></svg>