<svg xmlns="http://www.w3.org/2000/svg" width="61" height="61" fill="none" viewBox="0 0 61 61"><path fill="url(#a)" d="M61 30.5C61 47.345 47.345 61 30.5 61S0 47.345 0 30.5 13.655 0 30.5 0 61 13.655 61 30.5"/><path fill="url(#b)" d="M61 30.5C61 47.345 47.345 61 30.5 61S0 47.345 0 30.5 13.655 0 30.5 0 61 13.655 61 30.5"/><path fill="url(#c)" d="M21.038 29.01c1.62 0 2.934-1.988 2.934-4.439s-1.314-4.438-2.934-4.438-2.933 1.987-2.933 4.439c0 2.45 1.313 4.438 2.933 4.438"/><path fill="#1C1C1C" d="M21.038 21.638c1.258 0 2.362 1.105 2.934 2.724-.038-2.4-1.334-4.324-2.934-4.324s-2.895 1.924-2.933 4.324c.571-1.62 1.676-2.724 2.933-2.724"/><path fill="url(#d)" d="M44.467 38.914a.81.81 0 0 0-.686.21c-3.276 3.066-8.324 4.724-12.133 4.724h-1.296c-3.81 0-8.857-1.657-12.133-4.724a.83.83 0 0 0-.686-.21c-.266.057-.4.343-.266.572a15.68 15.68 0 0 0 13.58 7.828h.343c5.62 0 10.781-2.99 13.581-7.828a.424.424 0 0 0-.304-.572"/><path fill="url(#e)" d="M40.943 29.01c1.62 0 2.933-1.988 2.933-4.439s-1.313-4.438-2.933-4.438-2.933 1.987-2.933 4.439c0 2.45 1.313 4.438 2.933 4.438"/><path fill="#1C1C1C" d="M40.943 21.638c-1.257 0-2.362 1.105-2.933 2.724.038-2.4 1.333-4.324 2.933-4.324s2.895 1.924 2.933 4.324c-.571-1.62-1.676-2.724-2.933-2.724"/><path fill="#1C1C1C" d="M44.467 38.914a.81.81 0 0 0-.686.21c-3.276 3.066-8.324 4.724-12.133 4.724h-1.296c-3.81 0-8.857-1.657-12.133-4.724a.83.83 0 0 0-.686-.21c-.266.057-.4.343-.266.572a.34.34 0 0 0 .095.133c.267-.152.552-.305.838.02 3.105 3.485 7.714 5.58 12.648 5.58h.343c4.97 0 9.6-2.114 12.704-5.657.286-.324.553-.171.8 0 .02-.038.038-.057.057-.095.115-.21-.019-.496-.285-.553"/><defs><radialGradient id="b" cx="0" cy="0" r="1" gradientTransform="rotate(90 0 30.5)scale(30.5)" gradientUnits="userSpaceOnUse"><stop stop-color="#757575" stop-opacity="0"/><stop offset=".9" stop-color="#757575" stop-opacity=".25"/><stop offset=".94" stop-color="#757575" stop-opacity=".5"/><stop offset="1" stop-color="#757575" stop-opacity=".7"/></radialGradient><radialGradient id="c" cx="0" cy="0" r="1" gradientTransform="matrix(10.1385 0 0 1.82392 31 41.859)" gradientUnits="userSpaceOnUse"><stop offset=".001" stop-color="#686868"/><stop offset="1" stop-color="#404040"/></radialGradient><radialGradient id="d" cx="0" cy="0" r="1" gradientTransform="matrix(10.1385 0 0 1.82392 31 41.859)" gradientUnits="userSpaceOnUse"><stop offset=".001" stop-color="#686868"/><stop offset="1" stop-color="#404040"/></radialGradient><radialGradient id="e" cx="0" cy="0" r="1" gradientTransform="matrix(10.1385 0 0 1.82392 31 41.859)" gradientUnits="userSpaceOnUse"><stop offset=".001" stop-color="#686868"/><stop offset="1" stop-color="#404040"/></radialGradient><linearGradient id="a" x1="30.5" x2="30.5" y1="0" y2="61" gradientUnits="userSpaceOnUse"><stop stop-color="#fff"/><stop offset="1" stop-color="#C5C5C5"/></linearGradient></defs></svg>