<svg xmlns="http://www.w3.org/2000/svg" width="282" height="413" fill="none" viewBox="0 0 282 413"><path fill="#000" d="M253.679 396.642c0-9.034-43.803-16.358-97.84-16.358s-97.84 7.324-97.84 16.358 43.802 16.359 97.84 16.359c54.037 0 97.84-7.324 97.84-16.359"/><path fill="#000" d="m195.829 12.247-.06-.24a10.01 10.01 0 0 0-9.715-7.514l-44.473.13c-5.522.02-9.995 4.512-9.975 10.035s4.513 10.005 10.035 9.975l16.889-.05L113.707 59.3 97.539 35.028a10.005 10.005 0 0 0-12.466-.32l-76.6 59.47c-4.412 3.332-5.282 9.605-1.95 14.018a10 10 0 0 0 8.364 3.972 9.9 9.9 0 0 0 5.643-2.011l70.236-54.668 16.238 24.332a10 10 0 0 0 12.556.25l53.427-41.381-2.401 18.9c-.7 5.482 3.182 10.495 8.665 11.185.26.03.51.06.77.07 5.173.26 9.755-3.511 10.415-8.734l5.613-44.113c.16-1.25.08-2.53-.24-3.751z"/><path fill="#000" d="M14.517 114.679a12.48 12.48 0 0 1-9.985-4.973 12.4 12.4 0 0 1-2.402-9.265 12.4 12.4 0 0 1 4.853-8.254l76.569-59.45c4.712-3.552 11.115-3.392 15.608.38l.27.23.2.3 14.678 22.031 36.898-28.564-9.544.03h-.07c-3.302 0-6.414-1.28-8.775-3.622a12.42 12.42 0 0 1-3.702-8.844c-.02-6.894 5.573-12.527 12.466-12.547l44.473-.13h.04a12.49 12.49 0 0 1 12.106 9.395l.06.23c.401 1.54.501 3.112.291 4.692l-5.613 44.113c-.821 6.443-6.554 11.236-13.027 10.915-.32-.02-.63-.04-.95-.08-6.844-.87-11.706-7.143-10.836-13.987l1.641-12.906-48.655 37.679c-4.622 3.582-11.226 3.452-15.698-.31l-.27-.23L90.195 59.12l-68.114 53.017a12.5 12.5 0 0 1-7.084 2.542zm76.589-79.501a7.55 7.55 0 0 0-4.523 1.52L10.014 96.15c-1.62 1.23-2.661 2.992-2.931 4.973a7.48 7.48 0 0 0 1.44 5.562c1.481 1.961 3.853 3.062 6.284 2.982a7.45 7.45 0 0 0 4.232-1.511l72.337-56.299 17.519 26.254c2.681 2.05 6.473 2.06 9.164-.02l58.21-45.073-3.161 24.893c-.521 4.102 2.391 7.874 6.493 8.394.19.02.38.04.58.05 3.922.21 7.324-2.681 7.814-6.544l5.613-44.112c.12-.95.06-1.891-.17-2.811l-.06-.23a7.5 7.5 0 0 0-7.264-5.643h-.02l-44.472.13c-4.133.01-7.494 3.391-7.484 7.524a7.43 7.43 0 0 0 2.221 5.312 7.42 7.42 0 0 0 5.253 2.171h.04l24.252-.07-52.767 40.861L95.698 36.76a7.45 7.45 0 0 0-4.562-1.561z"/><path fill="#83B944" d="m193.828 10.246-.06-.24a10.01 10.01 0 0 0-9.715-7.514l-44.473.13c-5.522.02-9.995 4.512-9.975 10.035s4.513 10.005 10.036 9.975l16.888-.05L111.706 57.3 95.538 33.027a10.005 10.005 0 0 0-12.466-.32l-76.6 59.47c-4.412 3.332-5.282 9.605-1.95 14.017a10 10 0 0 0 8.364 3.973 9.9 9.9 0 0 0 5.643-2.012l70.236-54.667 16.238 24.332a10 10 0 0 0 12.556.25l53.428-41.381-2.402 18.9c-.7 5.482 3.182 10.495 8.665 11.185.26.03.51.06.77.07 5.173.26 9.755-3.511 10.415-8.734l5.613-44.113c.16-1.25.08-2.53-.24-3.751z"/><path fill="#000" d="M12.516 112.678a12.53 12.53 0 0 1-9.996-4.973c-4.152-5.503-3.061-13.357 2.442-17.519l76.569-59.45c4.712-3.552 11.115-3.392 15.608.38l.27.23.2.3 14.678 22.031 36.888-28.564-9.545.03h-.07a12.36 12.36 0 0 1-8.774-3.622 12.42 12.42 0 0 1-3.702-8.844c0-3.342 1.281-6.484 3.642-8.855A12.42 12.42 0 0 1 139.56.13L184.033 0h.04a12.49 12.49 0 0 1 12.106 9.395l.06.23c.401 1.54.501 3.121.301 4.692l-5.613 44.113c-.821 6.443-6.554 11.236-13.027 10.915-.32-.02-.63-.04-.96-.08a12.4 12.4 0 0 1-8.315-4.752 12.4 12.4 0 0 1-2.511-9.235l1.641-12.906L119.1 80.05c-4.622 3.582-11.226 3.452-15.698-.31l-.27-.23-.2-.3-14.748-22.092-68.115 53.017a12.5 12.5 0 0 1-7.083 2.542zm76.589-79.501a7.55 7.55 0 0 0-4.523 1.52L8.013 94.149c-1.62 1.23-2.661 2.992-2.941 4.973a7.45 7.45 0 0 0 1.44 5.552c1.481 1.961 3.843 3.052 6.284 2.982a7.5 7.5 0 0 0 4.232-1.511l72.337-56.299L106.884 76.1c2.681 2.05 6.473 2.06 9.164-.02l58.21-45.073-3.161 24.893a7.46 7.46 0 0 0 1.51 5.542 7.44 7.44 0 0 0 4.983 2.852c.19.02.38.04.58.05 3.912.22 7.324-2.682 7.814-6.544l5.613-44.112a7.4 7.4 0 0 0-.18-2.811l-.06-.23a7.49 7.49 0 0 0-7.264-5.633h-.02l-44.473.13c-2.001 0-3.881.79-5.302 2.21a7.4 7.4 0 0 0-2.181 5.313 7.43 7.43 0 0 0 2.221 5.313 7.42 7.42 0 0 0 5.252 2.171h.04l24.253-.07-52.767 40.861-17.439-26.183a7.45 7.45 0 0 0-4.562-1.561z"/><path fill="#000" d="M251.588 284.425c0-16.488-14.268-29.645-31.136-27.794-13.027 1.431-23.442 12.036-24.673 25.083-.46 4.882.34 9.535 2.101 13.667-7.033 2.971-15.638 2.901-27.014 3.091-3.011.05-9.534.51-13.426.711-2.582.13-6.464.61-9.195 1.02.05-1.621-.22-3.252-.35-5.032-1.741-24.183-18.82-45.164-36.229-58.45-19.13-14.598-37.539-30.886-38.99-53.698-1.33-20.93 23.172-36.759 40.911-41.131 4.532-1.12 9.675-1.571 14.578-1.04 4.462.48 7.143 5.032 5.502 9.214a27.85 27.85 0 0 0-1.861 11.866c.821 13.968 12.177 25.363 26.144 26.224 9.995.62 19.82-4.472 25.223-12.887 9.735-15.177 2.811-38.679-8.014-51.506-7.714-9.145-18.49-15.168-29.836-18.59-35.528-10.685-73.357 6.924-96.649 33.848-11.346 13.106-17.189 28.835-16.328 46.253 1.41 28.515 26.623 65.484 55.318 83.203 8.124 5.022 19.59 19.14 20.25 29.685s-2.911 18.289-7.984 26.944c-2.581 3.021-6.433 7.173-7.974 10.635-4.312 9.635-3.162 19.27 5.493 25.663 8.654 6.394 17.829 5.083 26.393-2.101 1.051-.88 5.753-6.623 6.934-8.434 9.085-7.564 17.619-10.375 29.485-11.746 3.522-.4 8.424-.24 12.696-.67 15.208-1.511 28.205-.531 43.353-7.414 14.007-6.363 25.012-15.548 31.926-30.966 2.261-4.032 3.342-10.695 3.342-15.648z"/><path fill="#000" d="M109.015 367.999c-4.482 0-8.895-1.531-13.047-4.593-9.135-6.743-11.426-17.209-6.293-28.704 1.48-3.312 4.662-6.974 7.214-9.916.35-.4.68-.79 1-1.16 5.223-8.925 8.124-15.958 7.534-25.323-.47-7.504-9.085-21.541-19.07-27.714-29.735-18.36-55.078-56.589-56.499-85.204-.87-17.609 4.983-34.207 16.93-48.014 12.185-14.087 28.073-25.353 44.732-31.726 18.459-7.064 37.309-8.065 54.528-2.882 12.876 3.872 23.602 10.575 31.026 19.37 5.883 6.984 10.355 16.448 12.256 25.993 1.541 7.714 2.081 18.92-4.052 28.475-5.893 9.194-16.669 14.687-27.484 14.037-15.338-.951-27.584-13.227-28.485-28.565-.26-4.462.42-8.814 2.031-12.926.501-1.291.39-2.692-.31-3.842a4.2 4.2 0 0 0-3.131-1.981c-4.373-.47-9.235-.12-13.718.98-16.458 4.062-40.24 19.12-39.01 38.55 1.411 22.161 20.361 38.39 38.01 51.866 31.386 23.963 36.469 50.126 37.199 60.261.04.571.1 1.111.15 1.651.02.24.05.47.07.71 2.231-.29 4.763-.56 6.694-.66 1.32-.07 2.951-.17 4.642-.27 3.362-.2 6.833-.41 8.874-.45l2.192-.03c8.744-.13 15.878-.25 21.641-2.041a31 31 0 0 1-1.371-12.417c1.351-14.277 12.656-25.763 26.894-27.334 8.654-.95 17.328 1.811 23.762 7.584a30.5 30.5 0 0 1 10.135 22.692c0 4.732-.941 11.946-3.602 16.768-6.593 14.638-17.119 24.843-33.137 32.117-12.036 5.473-22.671 6.143-33.917 6.853-3.312.21-6.724.431-10.225.771-2.222.22-4.543.29-6.794.35-2.161.06-4.212.12-5.863.31-12.326 1.421-19.93 4.392-27.904 10.956-1.461 2.091-5.893 7.563-7.194 8.654-5.383 4.522-10.965 6.794-16.438 6.794zm14.587-263.485c-9.955 0-20.17 1.941-30.285 5.813-15.908 6.083-31.086 16.859-42.742 30.325-11.246 12.997-16.538 27.965-15.718 44.493 1.35 27.174 25.633 63.593 54.128 81.202 8.444 5.212 20.69 19.78 21.431 31.656.74 11.816-3.712 20.49-8.325 28.364l-.26.36q-.555.646-1.17 1.351c-2.342 2.692-5.253 6.043-6.424 8.675-2.4 5.382-4.992 15.477 4.693 22.631 7.383 5.453 15.217 4.773 23.292-2.001.81-.7 5.322-6.163 6.443-7.884l.21-.32.29-.24c10.145-8.445 19.65-11.026 30.806-12.307 1.871-.21 4.022-.28 6.293-.34 2.161-.06 4.402-.13 6.443-.33 3.582-.35 7.044-.57 10.396-.79 10.785-.681 20.96-1.321 32.166-6.414 14.868-6.753 24.623-16.188 30.686-29.705l.1-.2c2.071-3.702 3.021-10.075 3.021-14.427a25.53 25.53 0 0 0-8.474-18.97c-5.463-4.892-12.526-7.144-19.88-6.333-11.886 1.301-21.331 10.905-22.462 22.832-.41 4.332.231 8.524 1.911 12.456l.981 2.311-2.311.981c-7.024 2.961-15.288 3.091-25.763 3.251l-2.182.04c-1.931.03-5.502.25-8.654.441-1.711.1-3.352.2-4.682.27-2.452.13-6.264.59-8.945.99l-2.961.44.09-2.991c.03-.931-.07-1.931-.18-2.992a48 48 0 0 1-.161-1.791c-.68-9.454-5.482-33.917-35.248-56.639-18.529-14.147-38.43-31.266-39.97-55.528-1.43-22.521 24.162-39.12 42.802-43.722 5.022-1.241 10.515-1.631 15.448-1.101 2.881.31 5.383 1.901 6.873 4.352 1.511 2.502 1.771 5.503.691 8.255a25.4 25.4 0 0 0-1.691 10.805c.74 12.607 11.195 23.092 23.802 23.872 9.025.551 18.029-4.052 22.962-11.746 6.883-10.735 5.853-32.346-7.814-48.544-6.794-8.055-16.699-14.208-28.645-17.8-6.773-2.041-13.827-3.051-21.011-3.051"/><path fill="#000" d="M128.054 263.516c-6.363 2.371-13.066 4.062-19.93 5.283-5.433.97-10.575 2.641-15.628 5.563-4.912 2.841-8.154 6.883-13.146 9.614-5.463 2.982-11.696 2.772-17.23.081-10.254-4.973-14.957-15.338-9.284-26.384 10.095-19.67 29.135-27.214 51.726-28.685 8.045-.53 18.99-8.004 24.983-13.256 8.705-7.624 20.331-8.445 28.004.21 7.674 8.654 9.085 17.859-.62 28.554-8.144 8.975-18.029 14.978-28.875 19.02"/><path fill="#000" d="M70.855 288.638c-3.281 0-6.633-.77-9.825-2.321-5.983-2.901-10.295-7.524-12.126-13.026-1.78-5.313-1.18-11.106 1.71-16.749 9.486-18.469 27.075-28.294 53.788-30.045 6.724-.441 16.899-6.864 23.502-12.647 10.326-9.034 23.282-8.854 31.526.43 9.275 10.466 9.065 21.201-.64 31.897-7.894 8.704-17.659 15.138-29.855 19.68-6.163 2.291-12.817 4.062-20.36 5.403-5.623 1-10.326 2.671-14.818 5.262-2.191 1.261-4.042 2.812-5.993 4.443-2.171 1.81-4.412 3.681-7.204 5.202a20.1 20.1 0 0 1-9.695 2.461zm73.138-76.439c-4.002 0-8.415 1.581-12.797 5.423-6.913 6.053-17.989 13.317-26.473 13.877-24.803 1.621-41.051 10.566-49.666 27.334-2.271 4.412-2.751 8.865-1.42 12.877 1.41 4.212 4.802 7.804 9.564 10.115 5.083 2.471 10.396 2.461 14.938-.03 2.361-1.291 4.322-2.922 6.393-4.652 2.031-1.691 4.132-3.452 6.704-4.933 4.942-2.851 10.315-4.762 16.438-5.853 7.244-1.291 13.617-2.981 19.49-5.173 11.426-4.252 20.55-10.255 27.894-18.349 8.024-8.854 8.214-16.628.601-25.223-2.872-3.241-7.004-5.403-11.686-5.403z"/><path fill="#8044C5" d="M218.451 252.629c-13.027 1.431-23.442 12.036-24.673 25.083-.46 4.882.34 9.534 2.101 13.667-7.033 2.971-15.638 2.901-27.014 3.091-3.011.05-9.535.51-13.427.711-2.581.13-6.463.61-9.194 1.02.05-1.621-.22-3.252-.35-5.033-.911-12.586-5.973-24.292-13.067-34.507 8.184-3.872 15.678-9.085 22.091-16.158 9.705-10.696 8.294-19.901.621-28.555-7.674-8.654-19.3-7.834-28.005-.21-6.003 5.253-16.938 12.736-24.983 13.257-.8.05-1.6.12-2.401.18-15.328-12.727-28.264-27.184-29.475-46.154-1.33-20.93 23.172-36.759 40.911-41.131 4.532-1.12 9.675-1.571 14.578-1.04 4.462.48 7.143 5.032 5.502 9.214a27.85 27.85 0 0 0-1.861 11.866c.821 13.968 12.177 25.363 26.144 26.224 9.995.62 19.82-4.472 25.223-12.887 9.735-15.177 2.811-38.68-8.014-51.506-7.714-9.145-18.49-15.168-29.836-18.59-35.528-10.685-73.357 6.924-96.65 33.848-11.345 13.106-17.188 28.834-16.327 46.253.95 19.17 12.666 42.152 28.944 60.541-3.261 3.352-6.113 7.274-8.474 11.866-5.673 11.036-.97 21.401 9.285 26.384 5.533 2.681 11.766 2.901 17.229-.08 4.982-2.722 8.234-6.774 13.146-9.615.49-.28.99-.55 1.481-.811 6.743 6.584 13.447 16.609 13.947 24.593.661 10.545-2.911 18.289-7.984 26.944-2.581 3.021-6.433 7.173-7.974 10.635-4.312 9.635-3.162 19.27 5.493 25.663 8.654 6.394 17.829 5.083 26.393-2.101 1.051-.88 5.753-6.623 6.934-8.434 9.085-7.564 17.619-10.375 29.485-11.746 3.522-.4 8.424-.24 12.696-.67 15.208-1.511 28.205-.531 43.353-7.414 14.007-6.363 25.012-15.548 31.926-30.966 2.261-4.032 3.342-10.695 3.342-15.648 0-16.488-14.268-29.645-31.136-27.794z"/><path fill="#000" d="M107.014 363.996c-4.482 0-8.895-1.531-13.047-4.592-9.135-6.744-11.426-17.209-6.293-28.705 1.48-3.301 4.652-6.963 7.204-9.905.35-.4.69-.79 1.01-1.16 5.223-8.925 8.124-15.959 7.534-25.323-.43-6.864-6.243-15.718-11.896-21.651-2.101 1.24-3.892 2.731-5.783 4.312-2.171 1.811-4.412 3.682-7.194 5.202-5.913 3.232-13.036 3.282-19.52.141-5.983-2.902-10.295-7.534-12.126-13.027-1.77-5.313-1.18-11.106 1.711-16.749 2.031-3.962 4.492-7.574 7.334-10.775-16.709-19.46-27.164-41.892-28.085-60.371-.87-17.599 4.983-34.208 16.929-48.015 12.186-14.087 28.074-25.352 44.733-31.726 18.459-7.063 37.309-8.064 54.528-2.881 12.876 3.872 23.602 10.565 31.026 19.37 5.883 6.973 10.355 16.448 12.256 25.993 1.541 7.714 2.081 18.92-4.052 28.474-5.893 9.195-16.679 14.688-27.484 14.038-15.338-.951-27.584-13.227-28.485-28.565-.26-4.462.42-8.814 2.031-12.927.5-1.29.39-2.691-.31-3.841a4.2 4.2 0 0 0-3.132-1.982c-4.372-.47-9.244-.12-13.717.981-16.458 4.062-40.24 19.12-39.01 38.55 1.201 18.929 15.318 33.277 27.795 43.732.47-.04.95-.07 1.42-.1 6.724-.44 16.899-6.864 23.502-12.646 10.326-9.035 23.282-8.855 31.527.43 9.274 10.465 9.064 21.201-.641 31.896-5.623 6.203-12.436 11.386-20.27 15.448 7.084 10.895 11.076 22.101 11.886 33.357.04.57.1 1.111.15 1.651.02.24.05.47.07.71 2.231-.29 4.763-.56 6.694-.66 1.33-.07 2.961-.17 4.662-.27 3.352-.2 6.823-.411 8.854-.451l2.182-.03c8.754-.13 15.888-.24 21.651-2.041a31 31 0 0 1-1.371-12.416c1.351-14.277 12.656-25.763 26.894-27.334 8.664-.95 17.328 1.811 23.762 7.584a30.5 30.5 0 0 1 10.135 22.692c0 4.732-.941 11.946-3.602 16.768-6.593 14.638-17.129 24.843-33.137 32.116-12.036 5.473-22.671 6.144-33.917 6.854-3.312.21-6.724.43-10.225.77-2.212.221-4.543.291-6.784.351-2.171.06-4.212.12-5.873.31-12.326 1.41-19.93 4.392-27.904 10.955-1.461 2.091-5.893 7.564-7.194 8.655-5.383 4.522-10.965 6.793-16.438 6.793zm-14.588-97.51 1.301 1.271c6.413 6.253 14.107 16.869 14.698 26.233.74 11.817-3.712 20.491-8.325 28.365l-.26.36c-.37.43-.76.891-1.18 1.361-2.332 2.691-5.243 6.043-6.424 8.664-2.4 5.383-4.992 15.478 4.693 22.632 7.383 5.453 15.217 4.772 23.292-2.001.81-.701 5.322-6.163 6.443-7.884l.21-.32.29-.24c10.145-8.445 19.65-11.026 30.806-12.307 1.871-.21 4.022-.28 6.293-.34 2.161-.06 4.392-.13 6.443-.33 3.582-.35 7.044-.57 10.396-.791 10.775-.68 20.96-1.32 32.166-6.413 14.868-6.753 24.623-16.188 30.686-29.705l.1-.2c2.071-3.702 3.021-10.075 3.021-14.427a25.52 25.52 0 0 0-8.474-18.97c-5.463-4.893-12.516-7.144-19.88-6.333-11.886 1.3-21.331 10.905-22.462 22.831-.41 4.332.231 8.525 1.911 12.457l.981 2.311-2.311.98c-7.024 2.962-15.298 3.092-25.773 3.252l-2.182.04c-1.921.03-5.492.25-8.634.44-1.711.1-3.362.2-4.702.27-2.452.13-6.264.591-8.945.991l-2.961.44.09-2.991c.03-.931-.07-1.931-.181-2.992-.06-.58-.12-1.181-.16-1.791-.8-11.166-5.052-22.361-12.626-33.257l-1.681-2.421 2.671-1.261c8.465-4.002 15.438-9.094 21.311-15.578 8.034-8.854 8.215-16.628.601-25.223-5.323-6.003-14.958-8.334-24.483.01-6.913 6.054-17.999 13.317-26.473 13.878-.791.05-1.571.11-2.352.18l-1.02.09-.79-.661c-25.573-21.241-29.666-36.768-30.376-47.924-1.43-22.522 24.172-39.12 42.802-43.722 5.022-1.241 10.515-1.631 15.448-1.101 2.881.31 5.383 1.901 6.873 4.352 1.511 2.501 1.761 5.503.691 8.264a25.4 25.4 0 0 0-1.691 10.806c.74 12.606 11.195 23.092 23.802 23.872 9.025.57 18.029-4.052 22.962-11.746 6.883-10.735 5.853-32.346-7.814-48.545-6.794-8.054-16.699-14.207-28.645-17.799-16.138-4.852-33.887-3.902-51.296 2.762-15.908 6.083-31.086 16.858-42.742 30.325-11.246 12.997-16.538 27.964-15.718 44.493.87 17.659 11.726 40.27 28.324 59.01l1.541 1.741-1.62 1.661c-3.162 3.241-5.874 7.033-8.045 11.265-2.26 4.413-2.751 8.865-1.42 12.877 1.41 4.212 4.802 7.804 9.564 10.115 5.093 2.461 10.396 2.451 14.938-.03 2.361-1.29 4.322-2.921 6.393-4.652 2.031-1.701 4.132-3.452 6.704-4.933.52-.3 1.04-.58 1.57-.85l1.611-.851z"/><path fill="#fff" d="M237.31 235.379s2.422-4.843 6.193-9.795z"/><path fill="#000" d="M235.069 234.259a72.7 72.7 0 0 1 5.903-10.595c2.431-3.412 7.524.01 5.273 3.552-2.441 2.911-4.803 6.073-6.744 9.345-1.65 2.651-5.662.55-4.432-2.302"/><path fill="#000" d="M266.585 255.851a72.7 72.7 0 0 1 10.045-6.804c3.702-1.951 6.714 3.402 3.112 5.543-3.492 1.501-7.024 3.262-10.235 5.313-2.672 1.631-5.303-2.051-2.922-4.052"/><path fill="#fff" d="M253.449 247.315s12.066-11.146 24.162-23.482z"/><path fill="#000" d="M251.758 245.485c7.363-8.464 15.428-16.228 23.492-23.992 3.151-2.822 7.504 1.491 4.742 4.672a169 169 0 0 1-5.853 6.123c-6.013 5.983-12.146 11.786-18.99 16.869-2.401 1.751-5.322-1.441-3.391-3.672"/><path fill="#fff" d="M72.226 365.138s-4.592 2.871-10.395 5.132z"/><path fill="#000" d="M73.547 367.259a72.7 72.7 0 0 1-10.565 5.963c-3.852 1.65-6.414-3.932-2.652-5.773 3.602-1.211 7.264-2.682 10.626-4.463 2.791-1.4 5.122 2.472 2.58 4.283"/><path fill="#fff" d="M68.234 354.662s-16.108 3.221-32.867 7.453z"/><path fill="#000" d="M68.724 357.113c-10.695 3.382-21.62 5.813-32.556 8.235-4.162.76-5.633-5.183-1.611-6.464 2.711-.8 5.443-1.52 8.194-2.171 8.254-1.971 16.509-3.732 25.003-4.492 2.961-.24 3.792 4.002.98 4.902"/><path fill="#8044C5" d="M59.31 241.814s5.192-5.063 9.714-5.633z"/><path fill="#000" d="M59.31 244.315c-.651 0-1.301-.25-1.791-.761a2.495 2.495 0 0 1 .05-3.531c.59-.581 5.942-5.673 11.145-6.324a2.49 2.49 0 0 1 2.792 2.171 2.5 2.5 0 0 1-2.171 2.792c-3.002.38-6.994 3.692-8.285 4.942a2.5 2.5 0 0 1-1.74.711"/><path fill="#8044C5" d="M122.872 262.155s1.521-1.671 9.715-5.633z"/><path fill="#000" d="M122.872 264.655a2.501 2.501 0 0 1-1.851-4.182c.43-.48 2.471-2.331 10.475-6.203a2.503 2.503 0 0 1 3.342 1.16c.6 1.241.08 2.742-1.161 3.342-7.073 3.412-8.854 4.983-9.014 5.123a2.5 2.5 0 0 1-1.791.75z"/></svg>