<svg xmlns="http://www.w3.org/2000/svg" width="401" height="406" fill="none" viewBox="0 0 401 406"><path fill="#000" d="M364.625 16.28c-.991.05-.541.11-.671.09l-.05.02.01-.01a724 724 0 0 1 8.814-7.244c3.802-2.941 7.944-6.763 12.516-8.454 4.122-1.84 8.244.11 6.693 5.043-1.88 4.952-5.312 8.904-8.364 12.876-.62.75-2.201 2.671-2.811 3.381-.6.67-.91 1.18-1.14 1.641.05-.23-.29-.81-.491-.89 1.631.34 3.972-.17 6.033-.62 2.501-.51 4.822-1.551 7.414-1.751 1.941-.23 4.322 1.01 4.302 3.391-.01 2.041-.981 3.542-1.871 5.083-1.291 2.24-3.282 4.352-4.562 6.462 0-.03-.04-.23-.15-.35-.1-.11-.14-.1-.08-.07.11.08.49.16.87.19.79.07 1.721 0 2.631-.09 1.791-.18 2.181 2.462.41 2.812-2.311.52-6.883.94-6.943-2.591.12-1.641.861-2.382 1.551-3.502 1.501-2.391 3.662-5.183 4.072-7.774-.07.03.22.53.41.59.18.07-.06 0-.36.05-.751.08-1.521.34-2.301.6-3.542 1.151-6.633 2.212-10.565 2.392-1.051 0-2.271-.11-3.332-.75-3.191-1.941-1.57-5.833.38-7.944.571-.71 2.111-2.611 2.692-3.352 2.761-3.661 5.822-7.223 7.453-11.305.26-.87-.04-.32.43.22.261.32.611.45.711.47.22.03-.05-.01-.33.06-2.882.75-5.613 2.472-8.064 4.182-4.742 3.182-9.495 6.383-14.517 9.145l-.18.1-.11.06-.06.03-.09.04c-.14-.01.29.05-.711.1-1.52-.27-1.17-2.562.381-2.331"/><path fill="#000" d="M30.669 230.079c.93.33.54.11.66.18h.05-.02a776 776 0 0 1-10.905 3.362c-4.632 1.27-9.915 3.251-14.787 3.081-4.512.14-7.584-3.231-4.282-7.203 3.611-3.872 8.294-6.223 12.626-8.744.86-.461 3.051-1.641 3.892-2.061.81-.4 1.29-.751 1.68-1.091-.13.19-.04.861.12 1.011-1.38-.931-3.741-1.351-5.822-1.711-2.501-.48-5.053-.39-7.524-1.191-1.88-.52-3.622-2.571-2.691-4.772.79-1.881 2.25-2.911 3.652-3.992 2.04-1.581 4.682-2.781 6.663-4.252-.01.02-.05.23 0 .37s.09.14.05.09c-.08-.11-.39-.34-.73-.51-.701-.36-1.591-.66-2.472-.91-1.72-.51-1.08-3.112.69-2.751 2.342.4 6.724 1.74 5.443 5.032-.74 1.471-1.69 1.881-2.761 2.651-2.291 1.641-5.353 3.402-6.713 5.653.08 0 0-.571-.16-.701-.14-.14.06.02.35.09.72.211 1.53.261 2.36.311 3.723.28 6.974.47 10.686 1.79.97.401 2.06.961 2.801 1.961 2.221 3.012-.75 5.993-3.361 7.214-.8.44-2.942 1.62-3.762 2.091-3.942 2.341-8.134 4.482-11.185 7.633-.57.711-.09.31-.32-.37-.12-.39-.39-.65-.48-.71-.19-.11.04.03.33.07 2.95.4 6.132-.16 9.044-.821 5.602-1.15 11.205-2.311 16.898-2.951l.21-.02h.13l.07-.02h.1c.13.06-.25-.17.7.17 1.3.82.11 2.811-1.23 2.021"/><path fill="#000" d="M355.14 392.776c0 7.043-70.153 12.766-156.683 12.766-86.531 0-156.683-5.713-156.683-12.766 0-7.054 70.152-12.766 156.683-12.766s156.683 5.712 156.683 12.766"/><path fill="#DCEDF1" d="m392.007 284.295-50.603-57.967c-8.224-9.415-65.781-16.018-122.397-17.219l-28.374 6.413-1.51-4.392c-56.137 7.564-112.633 20.59-119.786 30.875l-44.021 63.309c-4.442 6.393 1.03 15.057 8.564 13.547 38.008-7.654 109.991-13.557 134.133-15.467 17.118-1.351 34.306-2.592 51.494-3.652l-.05-.13c10.174-.44 20.349-.831 30.494-1.171 24.201-.82 96.385-3.051 134.993.28 7.654.661 12.156-8.574 7.043-14.426z"/><path fill="#000" d="M32.16 321.542c-3.622 0-6.964-1.791-9.045-4.982-2.551-3.892-2.491-8.864.16-12.676l44.02-63.31c8.204-11.795 68.733-24.821 121.507-31.924l2.031-.271 1.441 4.212 26.482-5.992h.311c53.214 1.13 114.793 7.273 124.228 18.078l50.593 57.967c3.042 3.482 3.652 8.414 1.541 12.556-2.081 4.092-6.173 6.403-10.685 6.003-33.266-2.872-91.603-1.731-134.683-.28-8.984.3-18.098.65-27.123 1.03l.02.07-3.281.2c-16.008.981-32.836 2.181-51.454 3.652-42.98 3.402-101.098 8.834-133.843 15.417-.75.15-1.49.22-2.22.22zm155.272-107.65c-59.348 8.124-110.112 21.03-116.034 29.544l-44.021 63.309c-1.79 2.582-1.22 5.343-.09 7.074 1.39 2.111 3.672 3.081 6.103 2.591 32.985-6.643 91.312-12.096 134.433-15.507 17.378-1.371 33.205-2.502 48.262-3.452l-.07-.19 3.352-.14c10.134-.44 20.409-.831 30.524-1.181 43.22-1.46 101.778-2.601 135.283.29 2.481.211 4.652-1.01 5.803-3.281.93-1.841 1.2-4.652-.851-7.003l-50.593-57.967c-6.873-7.874-59.668-15.048-120.256-16.348l-30.265 6.843-1.57-4.572z"/><path fill="#DCEDF1" d="m396.269 279.292-51.604-57.967c-8.384-9.414-67.091-16.017-124.828-17.218l-28.944 6.413-1.54-4.392c-57.247 7.564-114.874 20.59-122.167 30.875l-44.901 63.309c-4.532 6.393 1.05 15.057 8.734 13.546 38.758-7.653 112.182-13.556 136.804-15.467 17.458-1.35 34.986-2.591 52.524-3.652l-.05-.13c10.375-.44 20.75-.83 31.105-1.17 24.681-.82 98.306-3.052 137.674.28 7.804.66 12.396-8.574 7.183-14.427z"/><path fill="#000" d="M29.258 316.54c-3.732 0-7.143-1.841-9.264-5.112-2.542-3.932-2.442-8.745.26-12.556l44.9-63.31c8.365-11.785 70.073-24.802 123.879-31.905l2.02-.27 1.471 4.212 27.063-6.003h.3c54.255 1.131 117.035 7.264 126.639 18.059l51.604 57.967c3.112 3.491 3.742 8.264 1.651 12.456-2.091 4.171-6.273 6.523-10.915 6.122-33.926-2.871-93.434-1.73-137.374-.28-9.185.3-18.489.651-27.703 1.031l.03.07-3.312.2c-16.317.98-33.485 2.181-52.474 3.652-43.841 3.401-103.108 8.834-136.504 15.427-.76.15-1.52.22-2.261.22zm158.414-107.66c-60.568 8.123-112.393 21.039-118.435 29.573l-44.901 63.31c-1.791 2.521-1.251 5.242-.14 6.943 1.1 1.691 3.351 3.292 6.352 2.702 33.636-6.644 93.114-12.096 137.095-15.508 17.738-1.37 33.895-2.511 49.253-3.451l-.07-.19 3.371-.14a3586 3586 0 0 1 31.125-1.181c44.08-1.461 103.798-2.601 137.964.29 3.062.26 5.113-1.581 6.013-3.381.91-1.811 1.15-4.583-.91-6.894l-51.605-57.977c-7.013-7.883-60.888-15.067-122.707-16.367l-30.814 6.833-1.601-4.572z"/><path fill="#DCEDF1" d="M70.227 234.471a18.64 18.64 0 0 1-14.097-6.443c-2.28-2.631-3.751-6.013-4.262-9.764L30.498 61.25a18.45 18.45 0 0 1 1.961-13.876c2.521-4.352 6.593-7.434 11.466-8.684 25.652-6.613 94.124-22 175.872-22 44.871 0 87.031 4.692 125.308 13.956 8.965 2.171 14.717 11.325 13.157 20.89l-19.48 151.05c0 .08-.02.15-.03.23a18.585 18.585 0 0 1-18.358 15.508h-.47c-4.843-.12-13.056-.27-24.722-.27-36.997 0-132.692 1.58-221.924 16.187-1 .16-2.02.25-3.031.25z"/><path fill="#000" d="M70.227 236.973a21.1 21.1 0 0 1-15.988-7.314c-2.59-3.001-4.271-6.823-4.852-11.065L28.037 61.711a21 21 0 0 1 2.251-15.598c2.862-4.932 7.474-8.434 13.006-9.854 25.742-6.643 94.465-22.08 176.493-22.08 45.061 0 87.421 4.722 125.899 14.026 10.204 2.471 16.808 12.886 15.037 23.721l-19.459 150.961c-.01.11-.03.22-.05.32-1.761 10.375-10.755 17.868-21.36 17.588-4.813-.12-13.006-.27-24.662-.27-36.937 0-132.472 1.571-221.523 16.158-1.131.19-2.291.28-3.432.28zm149.56-217.792c-81.458 0-149.69 15.327-175.242 21.92a16.04 16.04 0 0 0-9.925 7.524 16.06 16.06 0 0 0-1.7 12.015l.05.27 21.37 157.014c.44 3.271 1.71 6.203 3.671 8.464a16.13 16.13 0 0 0 12.206 5.582c.88 0 1.76-.07 2.631-.21 89.412-14.637 185.267-16.217 222.334-16.217 11.716 0 19.949.15 24.792.27h.41a16.074 16.074 0 0 0 15.887-13.427l.02-.13 19.479-151.05c1.361-8.344-3.591-16.278-11.265-18.139-38.088-9.214-80.057-13.886-124.728-13.886z"/><path fill="#000" d="M194.215 48.915a4.592 4.592 0 1 0 0-9.185 4.592 4.592 0 0 0 0 9.185"/><path fill="#DCEDF1" d="M46.606 45.883c43-11.125 172.33-37.877 295.828-7.563 6.243 1.53 9.895 8.173 8.824 14.557L332.95 199.925c-1.061 6.353-6.583 10.935-12.966 10.755-33.026-.89-144.368-.94-245.535 15.608a12.84 12.84 0 0 1-11.826-4.332c-1.64-1.911-2.57-4.322-2.911-6.824L37.452 61.821c-1.901-6.984 2.22-14.157 9.154-15.948"/><path fill="#000" d="M72.338 228.969c-4.432 0-8.644-1.921-11.615-5.373-1.861-2.171-3.072-4.972-3.502-8.113L34.99 62.331c-1.051-4.002-.49-8.164 1.58-11.726a15.2 15.2 0 0 1 9.405-7.143c37.458-9.684 169.57-38.858 297.049-7.562 7.314 1.79 12.006 9.404 10.705 17.338l-18.318 147.108c-1.261 7.524-7.974 13.067-15.507 12.846-5.253-.14-129.981-3.251-245.065 15.578-.84.14-1.68.2-2.511.2zM47.236 48.304a10.23 10.23 0 0 0-6.333 4.813 10.45 10.45 0 0 0-1.04 8.053l.06.3 22.26 153.312c.3 2.201 1.11 4.112 2.341 5.553 2.381 2.771 5.943 4.082 9.525 3.491 115.554-18.908 240.732-15.787 246.005-15.637 5.042.12 9.554-3.562 10.425-8.624l18.308-147.099c.891-5.302-2.231-10.555-6.953-11.715C215.485 9.736 84.394 38.69 47.226 48.304z"/><path fill="#DCEDF1" d="m169.133 256.412 74.115-4.222a4.87 4.87 0 0 1 3.842 1.55l13.406 10.335c2.771 3.002.82 7.874-3.252 8.134l-99.686 6.513c-3.822.25-6.413-3.812-4.572-7.173l12.165-12.616a4.86 4.86 0 0 1 3.982-2.521"/><path fill="#000" d="M157.218 281.233c-2.522 0-4.803-1.25-6.173-3.401-1.461-2.291-1.561-5.093-.25-7.484l.16-.29 12.185-12.646a7.32 7.32 0 0 1 5.853-3.502l74.115-4.222a7.34 7.34 0 0 1 5.662 2.191l13.567 10.505c1.941 2.101 2.491 5.063 1.42 7.714-1.06 2.661-3.491 4.422-6.353 4.612l-99.686 6.513c-.17.01-.34.02-.5.02zm-2.161-8.234c-.411.991 0 1.811.2 2.141.22.351.87 1.171 2.131 1.081l99.686-6.513c1.371-.09 1.901-1.151 2.031-1.471.12-.31.45-1.361-.34-2.331l-13.526-10.465c-.48-.52-1.161-.8-1.861-.75l-74.115 4.222c-.82.05-1.54.5-1.931 1.22l-.16.29-12.125 12.576z"/><path fill="#DCEDF1" d="M76.25 246.777c22.32-9.855 190.749-27.273 261.932-16.018z"/><path fill="#000" d="m77.26 249.068-2.02-4.572c11.645-5.143 59.367-11.936 113.462-16.138 64.05-4.972 118.676-5.002 149.88-.07l-.78 4.943c-71.543-11.306-239.152 6.393-260.532 15.837z"/><path fill="#DCEDF1" d="M65.285 257.702c24.121-9.935 206.626-27.933 283.892-16.928z"/><path fill="#000" d="m66.235 260.013-1.9-4.622c12.555-5.173 64.199-12.116 122.777-16.498 69.382-5.192 128.58-5.412 162.416-.59l-.711 4.952c-77.716-11.065-259.451 7.234-282.582 16.768z"/><path fill="#000" d="M398.49 41.841c-1.3 0-2.541 1.14-2.481 2.481s1.091 2.482 2.481 2.482c1.301 0 2.542-1.14 2.482-2.482-.06-1.34-1.091-2.48-2.482-2.48"/><path fill="#6DB5C3" d="M244.989 110.424c.06.3.1.88.09 1.19-.04 2.051-1.431 4.152-3.282 5.013-4.202 1.96-6.823-1.551-9.854-3.732-22.811-16.468-54.396-14.237-74.665 5.292-1.511 1.451-2.822 3.152-4.282 4.572-4.182 4.052-11.096-.15-9.415-5.802.541-1.831 3.252-4.482 4.652-5.883 23.972-24.201 62.18-27.503 89.942-7.744 2.262 1.611 6.273 4.272 6.804 7.094z"/><path fill="#000" d="M149.124 126.871c-1.461 0-2.942-.4-4.282-1.22-3.262-1.981-4.722-5.763-3.632-9.415.64-2.151 2.831-4.472 5.012-6.673l.251-.26c12.015-12.126 28.033-19.62 45.111-21.09 17.088-1.48 34.146 3.172 48.062 13.066l.46.32c2.662 1.881 6.674 4.713 7.354 8.354.09.471.15 1.211.14 1.701-.07 2.992-2.011 5.973-4.722 7.233-4.813 2.242-8.244-.6-10.755-2.681-.561-.47-1.091-.91-1.621-1.29-21.93-15.828-51.984-13.697-71.464 5.062-.7.67-1.36 1.421-2.06 2.201-.701.79-1.431 1.601-2.212 2.361a8.04 8.04 0 0 1-5.632 2.311zm48.683-33.916c-1.931 0-3.862.08-5.793.25-15.898 1.371-30.804 8.344-41.99 19.63l-.26.26c-.94.94-3.431 3.451-3.772 4.572-.53 1.771.391 3.081 1.431 3.702 1.021.62 2.561.83 3.842-.411.65-.63 1.29-1.34 1.961-2.101.73-.82 1.49-1.67 2.331-2.481 21.22-20.44 53.965-22.76 77.856-5.512.661.48 1.291.99 1.891 1.49 2.541 2.111 3.672 2.832 5.443 2.001.99-.46 1.811-1.72 1.841-2.801 0-.14-.03-.54-.05-.68-.311-1.641-3.692-4.032-5.323-5.183l-.47-.33c-11.366-8.094-25.012-12.406-38.938-12.406"/><path fill="#6DB5C3" d="M198.177 160.277c-.22.04-.57.07-.791.06-6.192-.09-6.293-9.425 0-9.525 5.673-.08 6.503 8.454.791 9.455z"/><path fill="#000" d="M197.416 162.838h-.07c-4.692-.07-7.143-3.722-7.143-7.294 0-3.541 2.461-7.163 7.153-7.233h.12c4.232 0 6.754 3.282 7.064 6.563.31 3.332-1.621 7.103-5.933 7.864-.35.06-.82.1-1.191.1m.321-5.023c1.87-.33 1.86-1.97 1.82-2.461-.04-.48-.33-2.031-2.091-2.031h-.04c-2.061.03-2.221 1.721-2.221 2.231 0 .381.11 2.251 2.211 2.291.08 0 .231-.01.321-.03"/><path fill="#6DB5C3" d="m191.764 110.994 4.032-.351c12.536-.55 26.722 3.982 36.087 12.406 4.141 3.722 1.67 10.205-3.912 10.145-2.481-.02-4.592-2.441-6.543-3.792-16.038-11.185-37.928-9.414-51.955 4.202-1.28 1.241-2.851 3.452-4.372 4.202-4.392 2.171-9.254-1.721-8.123-6.483.48-2.021 3.271-4.682 4.792-6.143a52.27 52.27 0 0 1 30.004-14.196z"/><path fill="#000" d="M162.51 140.928a8.15 8.15 0 0 1-5.102-1.801c-2.521-2.011-3.622-5.223-2.862-8.374.591-2.501 3.012-4.982 5.443-7.313 8.584-8.244 19.749-13.527 31.485-14.927h.08l4.132-.361c13.716-.61 28.243 4.392 37.867 13.046 2.682 2.412 3.602 6.053 2.341 9.285-1.24 3.181-4.322 5.232-7.863 5.232h-.09c-2.732-.03-4.863-1.771-6.573-3.171-.491-.4-.951-.781-1.371-1.071-15.077-10.515-35.597-8.854-48.783 3.952-.33.32-.73.77-1.14 1.241-1.111 1.25-2.381 2.671-3.862 3.411a8.36 8.36 0 0 1-3.692.871zm29.514-27.443c-10.645 1.27-20.78 6.073-28.523 13.506-.971.931-3.782 3.632-4.092 4.912-.3 1.271.11 2.512 1.12 3.312 1.001.8 2.301.93 3.462.35.61-.3 1.611-1.42 2.331-2.241.48-.54.93-1.05 1.401-1.501 14.897-14.466 38.087-16.347 55.125-4.462.581.401 1.141.861 1.681 1.301 1.161.95 2.481 2.031 3.462 2.041h.04c1.51 0 2.701-.76 3.201-2.041.51-1.311.13-2.711-1.02-3.742-8.544-7.683-21.991-12.296-34.256-11.775z"/><path fill="#6DB5C3" d="M193.565 131.563c8.434-1.1 16.727.931 23.521 5.983 1.52 1.131 2.971 2.241 3.491 4.162 1.181 4.312-2.781 8.264-7.103 7.023-1.391-.4-2.111-1.25-3.222-2.04-8.534-6.093-19.589-5.183-27.002 2.221-.3.3-.54.68-.841.99-5.522 5.583-13.896-1.671-8.083-8.154 4.852-5.412 12.015-9.234 19.249-10.175z"/><path fill="#000" d="M178.007 154.374a8.3 8.3 0 0 1-5.622-2.211c-2.812-2.641-3.992-7.553.07-12.085 5.252-5.863 13.026-9.975 20.789-10.995 9.135-1.191 18.139 1.1 25.342 6.453 1.631 1.21 3.652 2.711 4.412 5.502.801 2.921-.01 5.933-2.161 8.044-2.141 2.111-5.152 2.871-8.053 2.041-1.501-.43-2.472-1.211-3.252-1.841-.23-.19-.47-.38-.73-.56-7.484-5.343-17.268-4.542-23.791 1.961-.08.08-.16.19-.23.28-.191.24-.381.48-.591.69-1.901 1.921-4.092 2.721-6.173 2.721zm15.878-20.329c-6.613.86-13.226 4.372-17.708 9.364-1.951 2.181-1.471 4.062-.371 5.103 1.141 1.08 3.082 1.38 4.813-.371.08-.08.16-.18.23-.28.2-.25.4-.5.62-.72 8.284-8.264 20.71-9.284 30.224-2.491.34.25.66.5.961.74.66.53.99.79 1.5.931 1.641.47 2.752-.401 3.162-.791.84-.83 1.16-2.021.84-3.171-.29-1.051-1.16-1.761-2.571-2.812-6.153-4.582-13.857-6.543-21.7-5.512z"/><path fill="#FF5F4A" d="M194.215 56.859c-37.788 0-68.532 30.744-68.532 68.532s30.744 68.532 68.532 68.532 68.532-30.745 68.532-68.532c0-37.788-30.744-68.532-68.532-68.532M134.277 125.4c0-14.827 5.422-28.404 14.377-38.878l84.439 84.439c-10.475 8.954-24.051 14.377-38.878 14.377-33.046 0-59.938-26.893-59.938-59.938m105.499 38.878-84.439-84.44c10.475-8.954 24.051-14.376 38.878-14.376 33.055 0 59.938 26.892 59.938 59.938 0 14.827-5.423 28.403-14.377 38.878"/><path fill="#000" d="M194.215 196.434c-39.168 0-71.033-31.865-71.033-71.034 0-39.168 31.865-71.033 71.033-71.033s71.033 31.865 71.033 71.033-31.865 71.034-71.033 71.034m0-137.074c-36.407 0-66.031 29.623-66.031 66.03s29.624 66.031 66.031 66.031 66.031-29.624 66.031-66.031-29.624-66.03-66.031-66.03m0 128.48c-34.426 0-62.439-28.013-62.439-62.44 0-14.817 5.322-29.203 14.977-40.499l1.761-2.06 88.271 88.271-2.061 1.761c-11.295 9.654-25.682 14.977-40.509 14.977zm-45.371-97.596c-7.794 10.045-12.066 22.43-12.066 35.156 0 31.675 25.762 57.437 57.437 57.437 12.726 0 25.102-4.262 35.156-12.065zm91.082 77.716-88.271-88.271 2.061-1.76c11.295-9.655 25.682-14.978 40.509-14.978 34.426 0 62.439 28.013 62.439 62.439 0 14.817-5.322 29.204-14.977 40.499l-1.761 2.061zm-80.868-87.94 80.528 80.527c7.794-10.045 12.066-22.431 12.066-35.157 0-31.674-25.762-57.436-57.437-57.436-12.726 0-25.102 4.262-35.157 12.065"/></svg>