<svg xmlns="http://www.w3.org/2000/svg" width="315" height="441" fill="none" viewBox="0 0 315 441"><path fill="#4C4C4C" d="M157.511 440.303c69.634 0 126.084-6.83 126.084-15.256s-56.45-15.255-126.084-15.255c-69.635 0-126.084 6.83-126.084 15.255s56.45 15.256 126.084 15.256"/><path fill="#4C4C4C" d="M282.695 344.291a65 65 0 0 0 8.883 6.302c3.281 1.83 6.092-2.921 2.901-4.912-3.101-1.411-6.242-3.061-9.073-4.972-2.361-1.51-4.802 1.741-2.701 3.582"/><path fill="#4C4C4C" d="M287.756 336.917c5.882 1.481 11.925 2.351 17.927 3.191 2 .281 4.011.541 6.032.731a2.99 2.99 0 0 0 3.271-2.691 3.003 3.003 0 0 0-2.381-3.221c-8.063-1.491-16.146-2.641-24.399-2.481-2.61.1-2.971 3.861-.45 4.461"/><path fill="#4C4C4C" d="M29.136 88.732c-5.892-3.321-12.124-6.022-18.337-8.683a150 150 0 0 0-6.272-2.551 3.343 3.343 0 0 0-4.311 1.93 3.35 3.35 0 0 0 1.62 4.162c8.233 3.962 16.576 7.563 25.5 9.804 2.83.66 4.32-3.282 1.79-4.672"/><path fill="#4C4C4C" d="M13.04 60.321c.84-.75 2.08-.94 3.121-.44.66.33 1.09.86 1.58 1.38.34.37.681.731 1.021 1.101.65.7 1.3 1.41 1.95 2.11 1.301 1.411 2.602 2.812 3.912 4.222 1.3 1.41 2.601 2.811 3.912 4.222 1.42 1.53 2.9 3.02 4.181 4.682.65.84 1.28 1.71 1.97 2.51l2.091 2.431c.45.53.23 1.41-.24 1.83a1.4 1.4 0 0 1-1.84.02c-.75-.66-1.5-1.31-2.241-1.97-.72-.63-1.48-1.21-2.23-1.8a32 32 0 0 1-2.182-1.851l-2.08-1.96c-2.801-2.652-5.612-5.293-8.413-7.944-.78-.74-1.57-1.48-2.351-2.22l-1.13-1.07c-.2-.18-.39-.37-.59-.56-.09-.091-.18-.171-.27-.261-.461-.45-.681-.82-.961-1.39l-.15-.72c.01-.25.03-.51.04-.761.12-.62.45-1.16.92-1.57z"/><path fill="#4C4C4C" d="M30.066 56.16c.94-1.96 4.302-2.47 5.462-.39.07.13.14.26.22.39 1.64 2.931 2.05 6.843 3.171 10.044.74 2.12 1.36 4.281 2.01 6.432.361 1.21.731 2.411 1.091 3.621.09.29.08.56-.01.81-.02.19-.04.38-.07.57-.07.591-.8.741-1.21.421-.11-.09-.22-.18-.34-.26-.23-.09-.43-.24-.53-.44-1.05-1.95-2.111-3.892-3.162-5.842-2.14-3.952-4.991-8.333-6.522-12.515-.24-.65-.41-1.33-.33-2.02.03-.29.11-.56.23-.81z"/><path fill="#4C4C4C" d="m140.545 376.111 98.744-23.489c18.607-4.421 30.101-23.098 25.669-41.694l-54.299-229.34c-4.421-18.607-23.098-30.101-41.694-25.67L70.22 79.408c-18.606 4.421-30.1 23.098-25.669 41.694l54.31 229.341c4.421 18.606 23.097 30.1 41.694 25.669"/><path fill="#4C4C4C" d="M132.462 379.662c-6.812 0-13.505-1.881-19.447-5.542-8.463-5.212-14.395-13.415-16.696-23.088L42.01 121.682c-4.751-19.967 7.633-40.074 27.6-44.826l98.745-23.488c9.673-2.301 19.666-.7 28.129 4.511s14.395 13.415 16.696 23.088l54.309 229.351c4.752 19.967-7.632 40.074-27.599 44.826l-98.745 23.488a37.2 37.2 0 0 1-8.683 1.02zm44.566-322.103c-2.491 0-4.992.29-7.473.88L70.81 81.929c-17.176 4.081-27.83 21.387-23.738 38.563l54.309 229.351c1.981 8.323 7.083 15.375 14.365 19.857 7.283 4.481 15.876 5.862 24.199 3.881l98.744-23.488c17.176-4.082 27.83-21.388 23.738-38.564l-54.309-229.35c-1.98-8.323-7.082-15.376-14.365-19.857-5.111-3.151-10.873-4.762-16.725-4.762"/><path fill="#4C4C4C" d="m141.365 361.426 90.582-21.547c12.674-3.011 20.507-15.736 17.486-28.41L196.544 88.08c-3.011-12.674-15.735-20.507-28.41-17.486L77.553 92.142c-12.675 3.01-20.507 15.735-17.486 28.41l52.888 223.388c3.011 12.674 15.736 20.507 28.41 17.486"/><path fill="#4C4C4C" d="M135.853 364.677c-4.792 0-9.503-1.32-13.685-3.901-5.962-3.671-10.133-9.433-11.744-16.236L57.536 121.152c-3.342-14.045 5.372-28.2 19.417-31.541l90.581-21.548c6.803-1.62 13.835-.49 19.797 3.182 5.962 3.67 10.134 9.433 11.744 16.245l52.889 223.388c3.341 14.045-5.372 28.2-19.417 31.542l-90.582 21.547c-2.03.48-4.081.72-6.112.72zm37.783-292.132c-1.63 0-3.271.19-4.901.58L78.153 94.673c-11.254 2.68-18.237 14.015-15.566 25.279l52.889 223.388a20.88 20.88 0 0 0 9.413 13.014c4.772 2.941 10.404 3.842 15.866 2.551l90.582-21.547c11.254-2.681 18.236-14.015 15.565-25.279L194.013 88.691a20.87 20.87 0 0 0-9.413-13.015 20.86 20.86 0 0 0-10.964-3.121z"/><path fill="#F2BA48" d="m143.036 371.07 98.744-23.488c18.607-4.422 30.101-23.098 25.669-41.695L213.15 76.547c-4.421-18.607-23.098-30.1-41.694-25.67l-98.745 23.49c-18.606 4.421-30.1 23.098-25.669 41.695l54.309 229.34c4.422 18.606 23.098 30.1 41.695 25.669"/><path fill="#5CB3C1" d="m143.036 371.07 98.744-23.488c18.607-4.422 30.101-23.098 25.669-41.695L213.15 76.547c-4.421-18.607-23.098-30.1-41.694-25.67l-98.745 23.49c-18.606 4.421-30.1 23.098-25.669 41.695l54.309 229.34c4.422 18.606 23.098 30.1 41.695 25.669z"/><path fill="#4C4C4C" d="M134.953 374.52c-6.793 0-13.465-1.87-19.397-5.521-8.443-5.202-14.355-13.375-16.656-23.019L44.591 116.63c-4.742-19.917 7.613-39.964 27.53-44.705l98.744-23.489c19.907-4.741 39.974 7.613 44.706 27.53l54.309 229.35c2.291 9.644.7 19.607-4.502 28.05-5.201 8.443-13.374 14.355-23.018 16.656l-98.744 23.488a37.6 37.6 0 0 1-8.663 1.02zm44.505-322.102c-2.45 0-4.941.28-7.432.88L73.281 76.786c-8.343 1.98-15.425 7.103-19.917 14.405-4.491 7.303-5.882 15.926-3.891 24.279l54.309 229.35c1.981 8.343 7.102 15.415 14.405 19.917s15.925 5.882 24.278 3.901l98.745-23.488c8.343-1.981 15.425-7.102 19.917-14.405 4.502-7.302 5.882-15.925 3.891-24.278l-54.299-229.35c-3.511-14.746-16.716-24.69-31.251-24.69z"/><path fill="#FCF9E8" d="m143.856 356.383 90.582-21.547c12.674-3.011 20.507-15.736 17.486-28.41L199.035 83.038c-3.011-12.675-15.735-20.508-28.41-17.486L80.044 87.099c-12.675 3.011-20.508 15.736-17.486 28.41l52.888 223.388c3.011 12.675 15.736 20.507 28.41 17.486"/><path fill="#4C4C4C" d="M138.344 359.536c-4.772 0-9.463-1.32-13.625-3.881-5.932-3.652-10.093-9.404-11.704-16.176L60.127 116.091c-3.332-13.995 5.351-28.09 19.346-31.421l90.582-21.548c6.782-1.61 13.785-.49 19.717 3.161 5.932 3.652 10.094 9.404 11.704 16.176l52.889 223.388c3.331 13.995-5.352 28.09-19.347 31.421l-90.582 21.548c-2.021.48-4.061.72-6.082.72zm37.783-292.132c-1.64 0-3.291.19-4.921.58L80.624 89.532c-11.314 2.69-18.327 14.084-15.636 25.398l52.889 223.389c1.3 5.482 4.661 10.123 9.463 13.074s10.454 3.862 15.936 2.561l90.581-21.547c11.314-2.691 18.327-14.085 15.636-25.399L196.604 83.619c-1.3-5.481-4.661-10.123-9.463-13.074-3.371-2.07-7.162-3.141-11.014-3.141"/><path fill="#7DB2BF" d="m142.957 93.632-21.868 5.201.382 1.606 21.868-5.201z"/><path fill="#4C4C4C" d="M121.478 105.426a4.99 4.99 0 0 1-4.862-3.841l-.38-1.6a5 5 0 0 1 3.712-6.023l21.867-5.202a4.97 4.97 0 0 1 3.782.61 4.98 4.98 0 0 1 2.24 3.102l.38 1.6a4.996 4.996 0 0 1-3.711 6.022l-21.867 5.202c-.381.09-.771.14-1.161.14z"/><path fill="#C67FE8" d="m118.707 149.792 69.785-137.738-7.783-5.312 28.28-4.071 13.645 7.573 9.193 37.453-14.875-9.044 6.782 5.272-81.719 152.904-19.677.66z"/><path fill="#4C4C4C" d="M122.338 199.991c-1.3 0-2.39-1.001-2.49-2.311l-3.632-47.687c-.03-.46.06-.91.26-1.32L185.27 12.895l-5.972-4.081a2.51 2.51 0 0 1-1.03-2.631c.23-1 1.06-1.76 2.081-1.91L208.639.2c.54-.08 1.09.02 1.57.29l13.645 7.572c.61.34 1.05.91 1.21 1.591l9.194 37.453c.24.98-.13 2.01-.951 2.611-.82.6-1.91.65-2.781.12l-5.372-3.261-80.938 151.443c-.42.79-1.23 1.29-2.121 1.32l-19.677.661h-.08zm-1.08-49.688 3.391 44.606 15.836-.53 80.048-149.773-5.112-3.981a2.486 2.486 0 0 1-.52-3.391 2.505 2.505 0 0 1 3.361-.72l9.703 5.901-7.492-30.52-11.954-6.633-21.088 3.032 2.481 1.69c1.04.71 1.391 2.07.82 3.191l-69.464 137.118z"/><path fill="#C67FE8" d="M108.704 145.791 178.488 8.053l-7.783-5.312 37.964-.24 9.093 36.863-7.073-6.242-88.201 164.547z"/><path fill="#4C4C4C" d="M122.498 200.17c-.1 0-.19 0-.29-.02a2.51 2.51 0 0 1-2.13-1.841l-13.795-51.878c-.16-.59-.09-1.22.19-1.77L175.267 8.883l-5.972-4.081a2.5 2.5 0 0 1-.981-2.791 2.5 2.5 0 0 1 2.381-1.77L208.659 0h.02c1.15 0 2.15.78 2.43 1.9l9.084 36.864c.26 1.06-.2 2.17-1.131 2.74a2.5 2.5 0 0 1-2.951-.26l-4.691-4.151-86.711 161.757a2.5 2.5 0 0 1-2.201 1.32zm-11.133-54.099 11.914 44.826 85.21-158.956c.36-.67 1.01-1.14 1.76-1.28s1.521.08 2.101.59l1.06.94-6.702-27.18-27.99.17 1.171.801a2.49 2.49 0 0 1 .82 3.191l-69.354 136.888z"/><path fill="#8044C5" d="m137.534 214.196 69.784-137.738-7.783-5.322 28.29-4.062 13.645 7.563 9.193 37.453-15.635-9.413 6.972 5.462-79.087 149.702-21.748 4.042z"/><path fill="#4C4C4C" d="M141.165 264.384c-.55 0-1.08-.18-1.521-.52-.56-.43-.92-1.08-.97-1.79l-3.631-47.687c-.03-.46.06-.911.26-1.321l68.794-135.777-5.972-4.082a2.51 2.51 0 0 1-1.03-2.63 2.51 2.51 0 0 1 2.08-1.911l28.28-4.072c.54-.08 1.091.02 1.571.29l13.645 7.573c.61.34 1.05.91 1.21 1.59l9.193 37.454c.24.98-.13 2.01-.95 2.611-.81.6-1.911.65-2.771.13l-5.892-3.552-78.358 148.322c-.36.671-1 1.151-1.75 1.291l-21.748 4.051c-.15.03-.31.04-.46.04zm-1.08-49.677 3.361 44.215 17.816-3.321 77.547-146.781-5.322-4.172a2.505 2.505 0 0 1-.52-3.391 2.5 2.5 0 0 1 3.351-.72l10.474 6.312-7.503-30.55-11.954-6.633-21.087 3.031 2.471 1.69a2.49 2.49 0 0 1 .82 3.192l-69.464 137.118z"/><path fill="#8044C5" d="m126.57 204.362 70.745-131.906-7.783-5.322 37.973-.23 9.083 36.863-7.062-6.242-88.201 164.548z"/><path fill="#4C4C4C" d="M141.325 264.574c-.1 0-.2 0-.3-.02a2.49 2.49 0 0 1-2.121-1.861l-14.755-57.71a2.45 2.45 0 0 1 .22-1.801l69.685-129.925-5.923-4.052c-.9-.62-1.3-1.75-.98-2.79a2.5 2.5 0 0 1 2.381-1.772l37.963-.24h.02c1.151 0 2.151.78 2.431 1.901l9.083 36.863c.26 1.06-.2 2.171-1.13 2.741a2.5 2.5 0 0 1-2.951-.26l-4.692-4.152-86.71 161.757a2.5 2.5 0 0 1-2.201 1.321zm-12.094-59.891 12.914 50.537 85.17-158.875a2.52 2.52 0 0 1 1.761-1.28c.75-.14 1.52.08 2.101.59l1.06.94-6.702-27.18-27.99.17 1.17.8a2.5 2.5 0 0 1 .79 3.252l-70.284 131.046z"/><path fill="#5CB3C1" d="m154.48 281.608 69.784-137.738-7.783-5.322 28.29-4.071 14.745 6.992 8.093 38.034-14.125-8.093 3.772 2.821-79.088 150.262-19.397 4.902z"/><path fill="#4C4C4C" d="M158.771 331.896c-.51 0-1.02-.16-1.45-.46a2.47 2.47 0 0 1-1.041-1.821l-4.291-47.787c-.04-.47.05-.94.26-1.35L221.043 144.7l-5.972-4.081a2.51 2.51 0 0 1-1.03-2.631 2.51 2.51 0 0 1 2.08-1.911l28.29-4.071c.49-.07.981 0 1.431.22l14.745 6.982c.7.331 1.21.981 1.38 1.741l8.093 38.033c.21.961-.18 1.961-.97 2.541-.8.58-1.861.641-2.721.15l-7.833-4.491-78.147 148.482c-.33.63-.911 1.09-1.601 1.26l-19.397 4.892c-.2.05-.41.08-.61.08zm-1.73-49.797 3.961 44.155 15.475-3.901 77.578-147.392-2.061-1.541a2.497 2.497 0 0 1-.59-3.371 2.5 2.5 0 0 1 3.331-.79l9.263 5.312-6.672-31.351-12.945-6.132-21.177 3.041 2.481 1.69a2.49 2.49 0 0 1 .82 3.191l-69.464 137.099z"/><path fill="#5CB3C1" d="m143.516 271.775 70.745-131.906-7.783-5.322 37.973-.24 9.083 36.873-7.062-6.242-88.201 164.537z"/><path fill="#4C4C4C" d="M158.271 331.976c-.1 0-.2 0-.3-.02a2.49 2.49 0 0 1-2.121-1.861l-14.755-57.71a2.45 2.45 0 0 1 .22-1.8l69.684-129.926-5.922-4.051a2.5 2.5 0 0 1 1.401-4.562l37.963-.24c1.131.02 2.171.78 2.441 1.901l9.083 36.863c.26 1.06-.2 2.17-1.13 2.74a2.5 2.5 0 0 1-2.951-.26l-4.692-4.151-86.71 161.757a2.5 2.5 0 0 1-2.201 1.32zm-12.084-59.881 12.914 50.538 85.17-158.876c.36-.67 1.01-1.14 1.761-1.28s1.52.08 2.1.59l1.061.94-6.703-27.179-27.989.17 1.17.8a2.5 2.5 0 0 1 .79 3.251l-70.284 131.046z"/><path fill="#4C4C4C" d="M211.31 143.97c-.791 0-1.561-.37-2.041-1.06l-4.522-6.402a2.49 2.49 0 0 1 .6-3.482 2.49 2.49 0 0 1 3.482.601l4.521 6.402a2.49 2.49 0 0 1-.6 3.481c-.44.31-.94.46-1.44.46"/><path fill="#4C4C4C" d="M195.114 76.556c-.79 0-1.561-.37-2.041-1.06l-4.521-6.403a2.49 2.49 0 0 1 .6-3.48 2.49 2.49 0 0 1 3.481.6l4.522 6.402c.8 1.13.53 2.69-.601 3.48-.44.31-.94.46-1.44.46"/><path fill="#4C4C4C" d="M175.907 12.534c-.79 0-1.56-.37-2.041-1.06l-4.521-6.403a2.49 2.49 0 0 1 .6-3.481 2.49 2.49 0 0 1 3.481.6l4.522 6.402a2.49 2.49 0 0 1-.6 3.481c-.44.31-.941.46-1.441.46"/></svg>