<svg xmlns="http://www.w3.org/2000/svg" width="250" height="260" fill="none" viewBox="0 0 250 260"><path fill="#000" d="M179.05 53.808c-24.334-2.525-103.208-15.112-166.49-3.881-3.477.618-10.75 6.173-10.398 9.986l7.9 193.047c1.099 3.365 4.482 5.4 7.95 4.782 17.912-3.194 102.591-8.672 159.054-7.959 2.542.034 11.36-8.441 12.64-10.476.017 1.383.738-1.168 0 0l-4.354-177.574c.464-3.95-2.37-7.513-6.302-7.917z"/><path fill="#000" d="M16.794 260c-3.907 0-7.522-2.533-8.776-6.371a2.3 2.3 0 0 1-.103-.576L.015 60.058c-.257-3.237 2.697-6.363 4.491-7.934 2.542-2.232 5.556-3.924 7.685-4.293 55.108-9.78 122.278-1.563 154.555 2.387 4.98.61 9.281 1.133 12.527 1.468a9.18 9.18 0 0 1 6.234 3.4 9.2 9.2 0 0 1 1.992 6.74l4.319 176.012c.335.515.489 1.228.24 2.138-.3 1.065-.936 1.606-1.597 1.812-2.851 3.237-10.037 10.149-13.386 10.149h-.034c-57.254-.721-141.52 4.877-158.65 7.925a9 9 0 0 1-1.589.138zm-4.603-7.453c.85 2.181 3.143 3.494 5.435 3.082 17.25-3.074 101.877-8.706 159.372-7.994 1.863-.455 8.62-6.568 10.535-8.99l-4.336-176.861c0-.103 0-.206.017-.3a5 5 0 0 0-1.064-3.719 4.88 4.88 0 0 0-3.323-1.82c-3.28-.343-7.608-.867-12.605-1.486-32.07-3.924-98.812-12.09-153.284-2.42-3.426.609-8.818 5.752-8.638 7.675v.112z"/><path fill="#FFD885" d="M187.224 45.323C162.263 42.747 81.371 29.911 16.467 41.34c-3.572.627-10.784 12.201-10.424 16.074l7.9 190.685a7.254 7.254 0 0 0 8.148 4.878c18.375-3.246 105.217-8.81 163.132-8.08 2.602.034 11.652-8.595 12.966-10.664.017 1.408.755-1.194 0 0l-4.5-180.838a7.26 7.26 0 0 0-6.465-8.07"/><path fill="#000" d="M20.855 255.226c-3.984 0-7.668-2.576-8.947-6.457a2.3 2.3 0 0 1-.103-.584l-7.9-190.634c-.369-4.826 7.367-17.474 12.193-18.324 56.507-9.951 125.395-1.571 158.495 2.465 5.109.618 9.523 1.159 12.854 1.502a9.32 9.32 0 0 1 6.371 3.469 9.33 9.33 0 0 1 2.018 6.818l4.465 179.257c.343.515.507 1.236.249 2.155-.301 1.073-.953 1.623-1.623 1.82-2.902 3.28-10.269 10.33-13.695 10.33h-.034c-58.731-.739-145.153 4.937-162.729 8.045a9.4 9.4 0 0 1-1.614.146zm-4.783-7.548c.876 2.241 3.254 3.598 5.65 3.177 17.697-3.125 104.496-8.844 163.45-8.114 1.897-.438 8.878-6.706 10.853-9.187l-4.482-180.116c0-.103 0-.206.017-.3a5.05 5.05 0 0 0-1.09-3.796 5.1 5.1 0 0 0-3.461-1.89c-3.366-.343-7.796-.883-12.931-1.51-32.903-4.001-101.353-12.33-157.233-2.49-2.456.558-8.93 10.844-8.655 13.764v.111l7.882 190.36z"/><path fill="#FFFBE8" d="M193.947 38.043c-24.96-2.576-112.576-8.123-177.48 3.297-3.572.627-4.061 4.911-3.7 8.792l9.582 187.878a7.25 7.25 0 0 0 8.148 4.877c18.375-3.245 103.534-6.01 161.449-5.28a7.27 7.27 0 0 0 6.243-3.383c.755-1.194 1.073-2.611 1.056-4.019l1.168-184.1a7.263 7.263 0 0 0-6.466-8.07z"/><path fill="#000" d="M29.26 245.145c-3.983 0-7.667-2.568-8.946-6.457a2 2 0 0 1-.103-.558L10.637 50.295c-.79-8.647 3.082-10.639 5.47-11.06 63.702-11.213 150.141-6.199 178.072-3.323a9.3 9.3 0 0 1 6.371 3.478 9.3 9.3 0 0 1 2.009 6.852l-1.168 183.988c.026 1.881-.455 3.675-1.382 5.152a9.36 9.36 0 0 1-7.96 4.388h-.12c-58.421-.739-142.713 2.009-161.045 5.246a9.5 9.5 0 0 1-1.615.146zm-4.782-7.556c.876 2.249 3.255 3.615 5.65 3.185 18.52-3.271 103.217-6.053 161.853-5.306a5.07 5.07 0 0 0 4.396-2.387c.489-.773.738-1.752.721-2.842l1.168-184.143c0-.077 0-.163.017-.24a5.05 5.05 0 0 0-1.09-3.796 5.1 5.1 0 0 0-3.461-1.889c-27.759-2.859-113.666-7.848-176.887 3.28-2.172.387-2.147 4.225-1.932 6.483v.086z"/><path fill="#FFD885" d="M140.214 77.925c-8.896-1.287-33.676-1.227-55.829 1.855-1.314.18-1.477 2.713-1.365 4.843l2.49 103.053c.386 1.872 1.614 2.997 2.885 2.636 6.577-1.872 27.76-2.979 48.436-2.859.927 0 1.768-.738 2.249-1.889.275-.661.395-1.434.395-2.207L142.48 82.33c.189-2.206-.832-4.19-2.266-4.396z"/><path fill="#000" d="M87.923 192.527a3.93 3.93 0 0 1-2.052-.584c-1.237-.747-2.113-2.112-2.465-3.829a2 2 0 0 1-.043-.378l-2.49-103.053c-.223-4.31.859-6.69 3.212-7.024 22.719-3.168 47.783-3.108 56.429-1.855 2.568.37 4.362 3.28 4.104 6.638l-3.005 100.975c0 1.048-.197 2.095-.558 2.971-.824 1.983-2.438 3.203-4.216 3.203h-.017c-21.277-.112-41.841 1.073-47.835 2.782a3.8 3.8 0 0 1-1.064.146zm-.266-5.117c.111.421.266.661.36.781 7.814-2.121 30.619-2.988 48.719-2.885.077-.069.232-.24.361-.567.146-.352.232-.841.232-1.382l3.005-101.096v-.12c.094-1.142-.301-1.915-.515-2.095-8.389-1.193-32.44-1.236-54.54 1.786-.095.395-.207 1.202-.13 2.688l2.49 102.89z"/><path fill="#FFD885" d="M109.131 179.27c-5.727 3.04-21.998 11.403-20.727 11.042 6.577-1.871 27.759-2.979 48.435-2.859.928 0 4.319-1.623 6.002-2.284 4.027-1.58 17.43-7.109 22.565-8.921"/><path fill="#000" d="M88.387 192.46c-.876 0-1.726-.516-2.053-1.349-.72-1.811.833-2.67 2.207-3.434a179 179 0 0 1 3.323-1.786c2.696-1.425 6.2-3.254 9.419-4.937 2.705-1.408 5.203-2.714 6.843-3.581a2.147 2.147 0 1 1 2.01 3.795c-1.64.868-4.156 2.181-6.869 3.598-1.022.532-2.147 1.116-3.298 1.726 10.433-.884 24.678-1.245 36.793-1.185.592-.12 2.456-.927 3.469-1.365a61 61 0 0 1 1.829-.773 699 699 0 0 0 5.469-2.198c5.693-2.301 13.489-5.452 17.173-6.749a2.148 2.148 0 1 1 1.425 4.053c-3.589 1.262-11.334 4.396-16.992 6.68-2.344.945-4.328 1.752-5.504 2.215-.464.181-1.065.438-1.7.722-2.756 1.193-4.079 1.717-5.083 1.717h-.017c-21.277-.112-41.842 1.073-47.835 2.782a2 2 0 0 1-.601.086z"/><path fill="#FFFBE8" d="M140.214 77.925c-8.827-1.709-33.676-1.228-55.829 1.855-1.314.18-1.477 2.713-1.365 4.842l23.784 91.849c.387 1.871 1.614 2.996 2.885 2.636 6.577-1.872 34.483-2.98 55.159-2.86.927 0 1.769-.738 2.25-1.889.274-.661.395-1.433.395-2.206l-26.026-93.506c-.309-.463-.36-.55-1.245-.712z"/><path fill="#000" d="M109.208 181.323a3.94 3.94 0 0 1-2.052-.584c-1.219-.738-2.086-2.078-2.455-3.778L80.934 85.156a2.4 2.4 0 0 1-.07-.43c-.222-4.37.86-6.748 3.212-7.083 22.969-3.203 47.775-3.538 56.533-1.838 1.365.266 1.949.627 2.618 1.632q.194.284.284.618l26.025 93.505q.077.281.077.575c0 1.108-.189 2.156-.558 3.04-.824 1.983-2.438 3.203-4.216 3.203h-.017c-20.762-.112-48.289.996-54.558 2.782a3.8 3.8 0 0 1-1.064.146zm-24.05-97.017 23.724 91.633.026.103c.103.515.292.816.403.945 7.642-2.044 36.93-2.997 55.442-2.894.078-.069.232-.24.361-.567.12-.292.198-.686.223-1.116l-25.724-92.423c-8.363-1.537-32.448-1.168-54.318 1.829-.085.377-.189 1.124-.137 2.481z"/><path fill="#000" d="M223.974 29.653c5.426-2.06 11.059-3.563 16.674-5.023 1.872-.49 3.753-.953 5.65-1.365a2.866 2.866 0 0 1 3.409 2.19 2.88 2.88 0 0 1-1.906 3.322c-7.496 2.31-15.035 4.302-22.892 5.058-2.49.197-3.254-3.34-.927-4.19"/><path fill="#000" d="M241.275 7.604a2.445 2.445 0 0 0-2.593-.773c-.61.189-1.03.584-1.511.97-.335.267-.67.533-1.005.807l-1.932 1.546-3.855 3.082-3.855 3.083c-1.4 1.116-2.851 2.198-4.148 3.435-.661.626-1.305 1.287-1.992 1.88l-2.086 1.794c-.455.387-.378 1.168-.034 1.58a1.2 1.2 0 0 0 1.562.25l2.156-1.383c.686-.438 1.408-.833 2.12-1.245a32 32 0 0 0 2.087-1.288l2.018-1.4q4.085-2.833 8.157-5.667c.764-.523 1.519-1.056 2.284-1.58l1.099-.764c.189-.128.378-.266.566-.395.086-.06.181-.12.267-.18.446-.318.686-.61.996-1.065l.223-.592c.017-.215.043-.43.06-.653a2.4 2.4 0 0 0-.575-1.45z"/><path fill="#000" d="M227.357 1.885c-.55-1.786-3.332-2.645-4.586-1.03-.077.103-.154.197-.231.3-1.769 2.284-2.619 5.547-3.976 8.114-.901 1.709-1.7 3.46-2.533 5.203q-.695 1.471-1.391 2.928a1.1 1.1 0 0 0-.094.687c0 .163-.009.327-.017.49-.018.506.583.73.97.506.103-.06.215-.12.318-.18.206-.051.395-.146.506-.3 1.142-1.52 2.293-3.04 3.435-4.551 2.318-3.074 5.297-6.431 7.144-9.78.283-.515.515-1.082.54-1.674a2.2 2.2 0 0 0-.094-.722z"/></svg>