<svg xmlns="http://www.w3.org/2000/svg" width="299" height="290" fill="none" viewBox="0 0 299 290"><path fill="#4C4C4C" d="M290.764 266.085c-.133-2.539-.343-5.94-.463-7.846.1-4.2-4.48-10.54-43.02-17.596a410 410 0 0 0-4.563-.807l22.722-90.596c1.599-2.035 7.937-10.83 2.928-16.59-.8-.919-1.866-1.633-3.169-2.121-3.35-1.253-20.268-7.575-24.331-8.975l-73.325-25.859a10 10 0 0 0 .177-4.325c-.42-2.31-1.619-4.377-3.453-6.105.921-1.955 1.234-4.097.829-6.23-.675-3.56-3.2-6.512-7.051-8.442a30 30 0 0 0 1.198-3.8c1.718-7.199-1.326-14.885-4.882-18.978-4.691-5.401-12.691-7.874-18.211-5.633-1.269.516-2.337 1.293-3.37 2.045-.822.598-1.587 1.151-2.412 1.569 1.102-20.571-3.219-34.5-12.888-41.393-8.65-6.168-19.565-4.968-26.897-1.788-2.515 1.09-7.03 4.013-6.11 7.267.916 3.239 5.69 2.988 9.75 2.41a2.207 2.207 0 0 0-.624-4.37c-1.821.26-3.05.321-3.866.307a11.5 11.5 0 0 1 2.606-1.566c6.226-2.7 15.427-3.768 22.579 1.333 8.369 5.967 12.143 19.24 10.991 38.424-.825-.122-1.696-.318-2.646-.541-4.169-.978-9.358-2.196-15.768 2.576-4.791 3.567-7.816 9.215-8.094 15.107-.08 1.713.027 3.359.31 4.93-1.577.573-3.255 1.317-4.448 2.21a9.8 9.8 0 0 0-1.486 1.386 34 34 0 0 0-5.974-1.069c-7.269-.663-13.722 1.949-18.119 5.732-1.27-.257-2.617-.439-4.12-.577-6.548-.6-12.328 1.382-16.606 4.502a35 35 0 0 0-2.936-.407c-6.585-.602-13.275 1.187-18.193 4.484-10.497-.856-19.262 5.097-22.51 11.489-2.643 5.199-2.008 10.625 1.753 14.896.404.454 2.652 2.606 9.216 3.452L46.31 230.5c-.594.047-1.19.093-1.776.141C6.173 233.812.498 239.523.014 243.695l-.007.067c-.01.101-.01.683.017 1.271l.539 10.007c-.064 2.352 1.336 5.378 9.353 8.826 3.029 3.89 12.808 8.79 41.78 14.094 26.916 4.927 62.82 8.681 101.098 10.569 17.365.857 34.279 1.283 50.127 1.283 19.084 0 36.622-.619 51.52-1.85 39.502-3.265 44.346-9.224 44.553-13.422.111-2.256-1.064-5.151-8.229-8.455M4.974 255.13l.006-.114-.234-4.333c5.313 3.297 16.246 7.093 38.252 11.121 26.916 4.927 62.82 8.681 101.098 10.57 17.366.856 34.279 1.282 50.127 1.282 19.085 0 36.622-.618 51.52-1.85 24.192-1.999 35.383-5.009 40.473-8.006.148 2.567.264 4.792.256 5.226-.106 1.654-7.572 6.51-40.508 9.233-27.084 2.238-62.975 2.436-101.067.557-38.09-1.879-73.789-5.609-100.52-10.503-32.564-5.961-39.484-11.537-39.403-13.183M20.35 112.635a2.2 2.2 0 0 0-2.011-2.261c-5.795-.488-7.795-2.037-8.018-2.225-3.347-3.859-2.109-7.86-1.067-9.908 2.599-5.115 9.75-9.88 18.415-9.08 6.176.567 11.096 2.729 13.496 5.932a2.207 2.207 0 0 0 3.531-2.647c-2.117-2.825-5.556-5.012-9.836-6.352a24.5 24.5 0 0 1 10.76-1.43c5.211.479 9.714 2.178 12.354 4.663a2.207 2.207 0 0 0 3.025-3.213c-1.635-1.54-3.726-2.811-6.147-3.788a20.15 20.15 0 0 1 10.31-1.757c4.744.436 7 1.189 9.654 3.225a2.206 2.206 0 1 0 2.686-3.502 19.7 19.7 0 0 0-2.82-1.82c3.387-2.173 7.81-3.51 12.718-3.058a30 30 0 0 1 4.143.668c-.494 1.539-.678 3.187-.481 4.794.048.388.13.833.252 1.311-.07.048-.148.094-.217.143-3.212 2.29-5.052 6.507-4.58 10.493.297 2.496 1.79 7.084 8.46 9.772 12.226 4.927 24.689 6.701 35.604 6.701 14.269 0 25.893-3.032 30.884-6.018 1.674-1.002 3.05-2.232 4.097-3.603l73.854 26.047c4.027 1.387 20.897 7.691 24.237 8.94.607.228 1.073.525 1.386.884 2.303 2.648-.856 8.032-2.731 10.534-35.777 1.854-74.936 1.257-116.413-1.775l-6.668-.508c-4.057-.291-6.875 1.788-9.355 3.623-2.512 1.856-4.684 3.453-8.162 3.161-2.241-.192-4.426-2.321-6.539-4.38-2.15-2.095-4.18-4.074-6.652-4.349-6.004-.665-8.351 2.257-13.48 8.668l-.336.419c-1.556 1.944-3.58 2.879-5.688 2.639-3.28-.376-6.522-3.438-8.898-8.399-3.89-8.125-12.029-9.379-15.84-8.906-5.386.455-9.736 2.516-12.583 5.963-3.022 3.66-4.218 8.623-3.554 14.754.291 2.698 1.96 16.59 6.15 25.127 4.22 8.597 50.893 17.073 111.63 10.259 52.853-5.929 77.811-6.978 85.627-7.16l-1.978 7.865c-1.248.021-3.164.062-5.714.143l-2.936.138c-15.894.294-17.711 9.234-18.913 15.151-.873 4.296-1.327 5.395-3.462 5.468-3.358.105-4.172-1.713-5.685-5.86-2.113-5.79-5.007-13.715-20.727-11.275l-2.598.271a875 875 0 0 0-16.15 1.865c-36.19 4.521-63.109 2.655-80.922 1.421-16.7-1.158-25.898-1.795-30.246 3.205-2.454 2.823-2.933 6.986-1.555 13.497 3.068 14.486 6.709 26.038 8.371 31.003-1.611-.281-3.22-.571-4.825-.879-1.33-.286-2.714-.563-4.114-.849-2.783-.64-4.528-1.151-5.488-1.463l-34.21-132.059c-.015-.076-.02-.147-.03-.222zm77.56-38.4c.733-.55 1.883-1.067 3.07-1.506a19 19 0 0 0 1.241 2.439c-.373 1.102.195 2.326 1.284 2.767 2.543 1.029 12.863 4.79 27.694 4.79a89.6 89.6 0 0 0 20.887-2.485 2.205 2.205 0 0 0 1.689-2.239 26 26 0 0 0 2.371-3.428c2.559 1.297 4.207 3.133 4.615 5.284.489 2.578-.942 5.272-3.736 7.03-6.434 4.05-31.833 9.563-56.51-.825-3.014-1.268-4.768-3.248-5.073-5.724-.314-2.557 1.004-5.006 2.468-6.103m5.9-10.465c.213-4.519 2.635-9.03 6.322-11.775 2.66-1.982 4.95-2.595 7.114-2.595 1.709 0 3.339.383 5.01.775 1.895.445 3.858.902 5.884.754 3.268-.244 5.47-1.847 7.239-3.135.892-.65 1.663-1.21 2.432-1.523 3.753-1.525 9.806.508 13.219 4.437 2.93 3.374 5.218 9.63 3.921 15.06-1.006 4.217-2.911 7.758-5.542 10.552-20.465 4.47-36.671.136-42.294-1.762-2.24-2.816-3.513-6.372-3.305-10.788m55.389 35.72c-7.12 4.261-35.238 10.027-62.572-.988-3.43-1.382-5.41-3.526-5.727-6.2-.267-2.252.73-4.693 2.436-6.11 1.163 1.444 2.89 2.853 5.467 3.938 11.038 4.646 22.295 6.323 32.185 6.323 13.104-.001 23.804-2.946 28.388-5.83a14.4 14.4 0 0 0 2.267-1.76c.918.987 1.518 2.095 1.735 3.295.495 2.73-1.067 5.47-4.179 7.332m93.784 81.281c-5.832.065-30.004.763-87.555 7.22-35.35 3.966-61.366 2.47-76.965.516-20.731-2.596-29.427-6.811-30.211-8.334-2.997-6.106-4.957-16.561-5.725-23.658-.53-4.903.334-8.762 2.57-11.468 2.628-3.183 6.666-4.139 9.592-4.38l.091-.01c.063-.007.405-.045.941-.045 2.191 0 7.616.626 10.416 6.473 3.09 6.453 7.485 10.316 12.375 10.877 3.623.415 7.134-1.14 9.636-4.265l.336-.419c5.01-6.261 6.063-7.428 9.547-7.04.965.108 2.61 1.71 4.061 3.124 2.544 2.479 5.427 5.288 9.241 5.616 5.145.446 8.481-2.027 11.163-4.01 2.224-1.645 3.99-2.94 6.406-2.77l6.666.507c40.897 2.991 79.567 3.623 114.985 1.882zm-18.533 73.896c-1.712.197-3.432.37-5.162.54l-8.291.732q-2.133.192-4.272.407c-14.466.611-38.84.696-78.4-1.435-30.115-1.621-50.104-3.808-63.055-5.751l-1.284-.213c-.734-2.067-5.291-15.208-9.007-32.756-1.05-4.957-.87-8.034.568-9.688.294-.338.673-.625 1.1-.886.328-.2.686-.384 1.092-.543 4.261-1.661 12.704-1.08 24.418-.269 17.983 1.246 45.159 3.13 81.774-1.445a869 869 0 0 1 16.065-1.854l2.65-.277.112-.014c.324-.051.636-.094.945-.136 1.733-.231 3.238-.317 4.557-.278 7.3.212 8.786 4.263 10.454 8.833 1.461 4.004 3.28 8.992 9.982 8.757 5.846-.201 6.838-5.079 7.634-9 1.191-5.856 2.315-11.389 14.733-11.619l2.965-.139c1.968-.062 3.566-.1 4.757-.123zM49.743 243.75c-1.594-.557-3.115-1.199-4.506-1.969-.739-.556-1.796-.541-2.454.176a1.78 1.78 0 0 0 .1 2.514c3.104 2.87 6.625 4.029 10.058 5.111 5.74 1.606 11.579 2.611 17.46 3.306 12.899 2.124 34.01 4.617 67.686 6.43 25.409 1.368 44.572 1.838 58.92 1.838 16.602 0 26.739-.63 32.625-1.226 6.673-.374 14.267-1.385 17.291-4.904 1.343-1.43-.428-3.68-2.14-2.687-.955.595-1.921.962-3.511 1.291-.7.142-1.404.258-2.108.376l2.478-9.878q2.468.422 4.844.856c32.564 5.961 39.484 11.538 39.403 13.184s-7.517 6.513-40.509 9.241c-27.083 2.238-62.976 2.436-101.067.557s-73.789-5.609-100.52-10.503C11.228 251.502 4.308 245.926 4.39 244.28s7.517-6.514 40.51-9.241a500 500 0 0 1 2.535-.201z"/><path fill="#A17AD8" d="M44.376 268.313c26.732 4.894 62.431 8.624 100.521 10.503 38.092 1.879 73.983 1.68 101.067-.557 32.935-2.723 40.402-7.579 40.508-9.233.008-.434-.108-2.659-.256-5.226-5.09 2.997-16.281 6.007-40.473 8.006-14.898 1.232-32.435 1.85-51.52 1.85-15.848 0-32.761-.426-50.127-1.283-38.278-1.888-74.182-5.642-101.098-10.569-22.006-4.029-32.939-7.824-38.252-11.121l.234 4.333-.006.114c-.081 1.646 6.84 7.222 39.402 13.183"/><path fill="#D5C3EE" d="M4.39 244.28c-.081 1.646 6.84 7.222 39.403 13.183 26.731 4.894 62.43 8.624 100.52 10.503 38.091 1.879 73.984 1.681 101.067-.557 32.992-2.727 40.428-7.596 40.509-9.241.081-1.646-6.839-7.223-39.403-13.184q-2.376-.434-4.844-.856l-2.478 9.878c.704-.118 1.408-.234 2.108-.376 1.59-.329 2.556-.696 3.511-1.291 1.712-.993 3.483 1.257 2.14 2.687-3.024 3.519-10.618 4.53-17.291 4.904-5.886.596-16.023 1.226-32.625 1.226-14.348 0-33.511-.47-58.92-1.838-33.676-1.812-54.787-4.306-67.686-6.43-5.881-.695-11.72-1.7-17.46-3.306-3.433-1.082-6.954-2.241-10.059-5.111a1.78 1.78 0 0 1-.099-2.514c.658-.717 1.715-.732 2.454-.176 1.391.77 2.912 1.412 4.506 1.969l-2.308-8.911q-1.28.097-2.536.2c-32.992 2.727-40.428 7.595-40.509 9.241"/><path fill="#EE6DBB" d="m193.701 201.079 4.558-.279c-1.319-.038-2.825.048-4.558.279"/><path fill="#EE6DBB" d="m66.645 205.617 1.093-.542a7 7 0 0 0-1.093.542"/><path fill="#FAD0E9" d="M248.784 197.51c-1.191.023-2.789.061-4.757.123l-2.966.139c-12.417.23-13.541 5.763-14.732 11.619-.796 3.921-1.788 8.799-7.634 9-6.703.235-8.522-4.753-9.983-8.757-1.667-4.57-3.153-8.621-10.453-8.834l-4.558.279q-.46.061-.944.136l-.112.014-2.65.277a869 869 0 0 0-16.065 1.854c-36.615 4.575-63.791 2.691-81.774 1.445-11.714-.811-20.157-1.392-24.418.269l-1.093.543c-.426.261-.805.548-1.1.886-1.436 1.654-1.617 4.731-.567 9.688 3.716 17.548 8.273 30.689 9.007 32.756l1.284.213c12.95 1.943 32.94 4.13 63.055 5.751 39.559 2.131 63.934 2.046 78.4 1.435q2.138-.215 4.272-.407l8.291-.732c1.73-.17 3.45-.343 5.162-.54zm-87.997 26.611a3.55 3.55 0 0 1 3.546-3.546 3.55 3.55 0 0 1 3.546 3.546 3.55 3.55 0 0 1-3.546 3.546 3.55 3.55 0 0 1-3.546-3.546m-8.811 11.684a4.91 4.91 0 0 1-4.905 4.905 4.91 4.91 0 0 1-4.905-4.905 4.91 4.91 0 0 1 4.905-4.905 4.91 4.91 0 0 1 4.905 4.905"/><path fill="#FAD0E9" d="m145.566 148.705-6.665-.507c-2.416-.17-4.182 1.125-6.406 2.77-2.682 1.983-6.018 4.456-11.163 4.01-3.814-.328-6.697-3.137-9.241-5.616-1.451-1.414-3.096-3.016-4.061-3.124-3.485-.388-4.537.779-9.547 7.04l-.336.419c-2.502 3.125-6.013 4.68-9.636 4.265-4.89-.561-9.285-4.424-12.375-10.877-2.8-5.847-8.225-6.473-10.416-6.473-.536 0-.878.038-.941.045l-.091.01c-2.926.241-6.965 1.197-9.593 4.38-2.235 2.707-3.1 6.565-2.57 11.468.77 7.097 2.729 17.552 5.726 23.658.784 1.523 9.48 5.738 30.211 8.334 15.599 1.954 41.615 3.451 76.964-.516 57.551-6.457 81.724-7.155 87.556-7.22l7.57-30.184c-35.418 1.741-74.088 1.109-114.986-1.882m-43.985 10.622a3.55 3.55 0 0 1 3.545 3.546 3.55 3.55 0 0 1-3.545 3.545 3.55 3.55 0 0 1-3.546-3.545 3.55 3.55 0 0 1 3.546-3.546"/><path fill="#FFFBE8" d="M159.375 90.622c-4.584 2.885-15.285 5.83-28.388 5.83-9.89.001-21.147-1.676-32.185-6.322-2.577-1.085-4.304-2.494-5.467-3.937-1.706 1.416-2.704 3.857-2.436 6.11.317 2.673 2.298 4.817 5.727 6.199 27.334 11.015 55.452 5.249 62.572.989 3.112-1.862 4.674-4.603 4.179-7.333-.217-1.2-.817-2.308-1.735-3.296a14.4 14.4 0 0 1-2.267 1.76"/><path fill="#FFFBE8" d="M95.44 80.338c.306 2.476 2.06 4.456 5.074 5.725 24.677 10.388 50.076 4.873 56.51.825 2.794-1.759 4.225-4.452 3.736-7.03-.408-2.152-2.056-3.988-4.615-5.285a26 26 0 0 1-2.371 3.428 2.205 2.205 0 0 1-1.689 2.24 89.6 89.6 0 0 1-20.887 2.485c-14.832 0-25.152-3.762-27.694-4.79-1.089-.442-1.657-1.666-1.284-2.768a19 19 0 0 1-1.241-2.44c-1.187.44-2.337.958-3.07 1.507-1.464 1.097-2.782 3.546-2.468 6.103"/><path fill="#C0167C" d="M107.114 74.558c5.623 1.898 21.829 6.232 42.294 1.762 2.631-2.793 4.536-6.335 5.542-10.551 1.297-5.43-.991-11.687-3.921-15.06-3.413-3.93-9.466-5.962-13.219-4.438-.769.312-1.54.874-2.432 1.523-1.769 1.289-3.971 2.892-7.239 3.135-2.026.148-3.989-.31-5.884-.754-1.671-.392-3.301-.774-5.01-.774-2.164 0-4.454.612-7.114 2.594-3.687 2.745-6.109 7.257-6.322 11.775-.208 4.416 1.065 7.972 3.305 10.788"/><path fill="#5B5B5B" d="M149.012 23.273c1.615-2.723 3.566-5.363 5.563-7.81 1.932-3.156-2.622-6.098-4.708-3.046a64.5 64.5 0 0 0-4.77 8.83c-1.063 2.518 2.46 4.358 3.915 2.026"/><path fill="#5B5B5B" d="M163.215 31.981c3.007-2.101 5.651-4.527 8.264-7.059 2.584-2.513 5.091-5.101 7.424-7.85 2.326-2.839-1.537-6.52-4.263-4.045-5.117 4.971-10.126 10.102-14.473 15.763a2.234 2.234 0 0 0 3.048 3.191"/><path fill="#5B5B5B" d="M94.398 36.48a2.21 2.21 0 0 0 2.96-.602c1.434-2.268-1.031-3.45-2.613-4.49-2.173-1.392-4.382-2.686-6.73-3.798-3.273-1.17-5.104 3.58-1.898 4.912a60 60 0 0 1 8.281 3.977"/><path fill="#5B5B5B" d="M65.476 45.992c1.711.56 3.442 1.056 5.175 1.544 5.241 1.409 10.48 2.685 15.842 3.609 2.67.406 3.618-3.394 1.055-4.285a911 911 0 0 0-10.174-3.304l-5.114-1.589c-1.71-.507-3.42-1.023-5.146-1.482a2.874 2.874 0 0 0-1.638 5.507"/><path fill="#4C4C4C" d="M101.581 166.419a3.55 3.55 0 0 0 3.545-3.546 3.55 3.55 0 0 0-3.545-3.546 3.55 3.55 0 0 0-3.546 3.546 3.55 3.55 0 0 0 3.546 3.546"/><path fill="#4C4C4C" d="M164.333 227.667a3.547 3.547 0 1 0-.001-7.093 3.547 3.547 0 0 0 .001 7.093"/><path fill="#4C4C4C" d="M147.071 240.71a4.905 4.905 0 1 0 0-9.81 4.905 4.905 0 0 0 0 9.81"/><path fill="#EE6DBB" d="M64.276 136.273c3.811-.473 11.949.781 15.84 8.906 2.376 4.961 5.619 8.023 8.898 8.399 2.107.24 4.132-.695 5.688-2.639l.335-.419c5.13-6.411 7.477-9.333 13.481-8.668 2.471.275 4.502 2.254 6.652 4.349 2.113 2.059 4.298 4.188 6.539 4.38 3.478.292 5.65-1.305 8.162-3.162 2.48-1.834 5.297-3.913 9.355-3.622l6.668.508c41.476 3.032 80.636 3.629 116.413 1.775 1.875-2.502 5.034-7.886 2.73-10.534-.312-.359-.778-.656-1.385-.884-3.34-1.249-20.21-7.553-24.237-8.941l-73.854-26.046c-1.047 1.371-2.423 2.601-4.097 3.602-4.991 2.987-16.615 6.019-30.884 6.019-10.915 0-23.378-1.774-35.603-6.701-6.671-2.688-8.164-7.276-8.46-9.772-.473-3.986 1.367-8.203 4.58-10.493.068-.049.145-.095.216-.143a10 10 0 0 1-.252-1.31c-.198-1.608-.013-3.256.48-4.795a30 30 0 0 0-4.142-.668c-4.909-.452-9.331.885-12.718 3.057a19.7 19.7 0 0 1 2.82 1.82 2.206 2.206 0 1 1-2.686 3.503c-2.654-2.036-4.91-2.79-9.654-3.225a20.15 20.15 0 0 0-10.31 1.757c2.42.977 4.512 2.248 6.147 3.788a2.206 2.206 0 0 1-3.025 3.213c-2.64-2.485-7.143-4.184-12.355-4.663a24.5 24.5 0 0 0-10.76 1.43c4.28 1.34 7.72 3.527 9.837 6.352a2.207 2.207 0 0 1-3.531 2.647c-2.4-3.203-7.32-5.365-13.497-5.933-8.663-.8-15.815 3.966-18.414 9.081-1.042 2.048-2.28 6.049 1.067 9.908.223.188 2.223 1.737 8.018 2.225a2.2 2.2 0 0 1 2.011 2.261c.005 0 34.255 132.282 34.255 132.282.96.311 2.705.822 5.488 1.463 1.4.286 2.784.563 4.114.849 1.604.308 3.213.598 4.825.879-1.663-4.965-5.303-16.517-8.37-31.003-1.38-6.512-.9-10.674 1.554-13.497 4.348-5 13.545-4.363 30.246-3.205 17.813 1.234 44.732 3.1 80.922-1.422a882 882 0 0 1 16.15-1.864l2.598-.271c15.72-2.44 18.614 5.485 20.727 11.275 1.513 4.147 2.327 5.965 5.685 5.86 2.135-.073 2.589-1.172 3.462-5.469 1.202-5.916 3.019-14.856 18.913-15.15l2.936-.138c2.55-.081 4.466-.122 5.714-.143l1.978-7.865c-7.816.182-32.774 1.23-85.627 7.16-60.737 6.814-107.41-1.662-111.63-10.259-4.19-8.538-5.859-22.429-6.15-25.127-.664-6.131.532-11.094 3.554-14.754 2.846-3.447 7.197-5.508 12.583-5.963m-19.51-19.3c-1.253-.598-4.126-1.169-3.211-3.183.409-.777 1.384-1.018 2.126-.574 4.56 2.085 9.65 3.242 14.532 4.426 21.955 4.767 44.63 6.837 67.002 8.553 27.68 2.05 55.618 2.309 83.343 3.529 2.207.102 2.435 3.519-.05 3.651-13.945.181-27.886-.14-41.817-.758-31.357-1.426-62.779-3.411-93.782-8.606-6.783-1.254-13.922-2.677-20.552-4.536-2.55-.758-5.105-1.496-7.59-2.502"/><path fill="#4C4C4C" d="M208.508 133.375c-13.945.181-27.886-.14-41.817-.758-31.357-1.426-62.779-3.411-93.782-8.606-6.783-1.254-13.922-2.677-20.552-4.536-2.55-.758-5.105-1.496-7.59-2.502-1.254-.598-4.127-1.169-3.212-3.183.409-.777 1.384-1.018 2.126-.574 4.56 2.085 9.65 3.242 14.532 4.426 21.955 4.767 44.63 6.837 67.002 8.553 27.68 2.05 55.618 2.31 83.343 3.529 2.207.102 2.435 3.519-.05 3.651"/></svg>