<svg xmlns="http://www.w3.org/2000/svg" width="426" height="352" fill="none" viewBox="0 0 426 352"><path fill="#3F3F3F" d="M214.856 352c57.115 0 103.415-6.833 103.415-15.261 0-8.429-46.3-15.261-103.415-15.261S111.44 328.31 111.44 336.739 157.741 352 214.856 352"/><path fill="#D9ECF0" d="m107.827 224.385 34.546-206.381c1.13-4.524 11.478-7.646 15.761-7.075C197.153 22.347 297.186 55.3 353.948 73.274c.99.31 6.374 2.092 9.767 3.503 2.822 1.41-46.344 198.075-51.428 213.336-4.523 6.315-9.987 6.315-12.619 6.685-51.988-10.077-165.021-47.455-191.841-65.278-2.251-1.571-.96-4.153 0-7.135"/><path fill="#101010" d="M299.658 299.301c-.16 0-.32-.02-.48-.05-51.178-9.918-165.462-47.515-192.752-65.648-3.552-2.482-2.241-6.335-1.371-8.877.1-.31.211-.62.311-.931l34.515-206.2c.01-.06.02-.13.04-.19 1.591-6.385 13.84-9.588 18.523-8.947.121.02.251.04.371.08 25.198 7.375 75.275 23.547 123.7 39.188 26.75 8.637 52.008 16.793 72.163 23.177 1.141.36 6.505 2.132 9.967 3.583.05.02.111.05.161.07 2.051 1.02 1.901 2.702.15 11.669-1.041 5.334-2.712 13.04-4.954 22.906-5.024 22.107-11.819 50.117-16.632 69.731-12.799 52.159-26.229 104.517-28.731 112.053-.08.24-.19.46-.34.67-4.714 6.585-10.438 7.255-13.51 7.606-.291.03-.561.06-.801.1-.12.02-.24.03-.35.03zM144.814 18.545l-34.525 206.261c-.02.12-.05.24-.08.35-.13.411-.27.801-.4 1.191-.31.911-.891 2.602-.711 2.982 0 0 .03.05.16.141 12.049 8.005 44.163 21.185 85.853 35.225 39.89 13.43 79.919 24.738 104.637 29.572l.49-.06c2.572-.3 6.415-.751 9.797-5.254 6.125-18.984 49.106-192.611 51.218-210.464-3.232-1.251-7.275-2.582-8.056-2.822-20.165-6.385-45.433-14.55-72.183-23.187-48.265-15.591-98.172-31.703-123.37-39.089-3.843-.39-12.029 2.572-12.82 5.154z"/><path fill="#D9ECF0" d="m95.388 231.171 46.294-208.723c.951-2.972 2.812-4.253 7.095-3.683 39.019 11.419 135.98 43.322 192.742 61.295.99.31 6.374 2.092 9.767 3.503 2.822 1.41-46.344 198.075-51.428 213.336-31.583-2.242-171.966-36.997-204.46-58.593-2.251-1.571-.96-4.153 0-7.135z"/><path fill="#101010" d="M299.848 299.401h-.18c-16.222-1.15-59.264-10.447-102.365-22.116-24.248-6.565-82.861-23.297-103.306-36.887-3.552-2.482-2.241-6.334-1.37-8.876l.33-.991L139.22 21.918c.02-.08.04-.15.06-.22 1.391-4.333 4.594-6.094 9.808-5.404.12.02.25.04.37.08 25.388 7.436 74.815 23.377 122.62 38.799 25.869 8.346 50.307 16.231 70.171 22.516 1.141.36 6.505 2.132 9.967 3.583.05.02.111.05.161.07 2.051 1.02 1.901 2.702.15 11.668-1.041 5.334-2.712 13.04-4.954 22.907-5.024 22.106-11.819 50.117-16.632 69.731-12.8 52.158-26.229 104.517-28.731 112.052a2.49 2.49 0 0 1-2.372 1.711zM144.104 23.099 97.84 231.712c-.02.08-.04.15-.06.22-.13.41-.27.801-.4 1.191-.31.911-.89 2.612-.71 2.992 0 0 .03.05.16.14 13.92 9.247 51.037 22.447 101.794 36.187 40.49 10.958 82.32 20.104 99.443 21.786 7.565-25.179 48.685-191.501 50.747-208.963-3.232-1.251-7.275-2.582-8.056-2.823-19.875-6.294-44.322-14.18-70.201-22.526-47.645-15.371-96.911-31.263-122.3-38.698-3.332-.41-3.743.59-4.163 1.881z"/><path fill="#D9ECF0" d="m291.942 268.547-45.593 21.846-8.286-65.928 54.61 38.518z"/><path fill="#101010" d="M246.349 292.896c-.41 0-.821-.1-1.201-.31a2.47 2.47 0 0 1-1.281-1.881l-8.286-65.929c-.12-.98.34-1.951 1.191-2.462.85-.51 1.921-.47 2.732.101l54.61 38.518a2.51 2.51 0 0 1 1.041 2.371l-.731 5.565c-.11.84-.64 1.561-1.401 1.931l-45.583 21.856c-.341.16-.711.25-1.081.25zm-5.094-63.116 7.145 56.862 41.231-19.765.36-2.722-48.746-34.375z"/><path fill="#101010" d="M243.757 290.895c-.26 0-.53-.04-.781-.13L68.138 233.023a2.51 2.51 0 0 1-1.59-3.163 2.507 2.507 0 0 1 3.161-1.591l172.987 57.132 14.03-22.106a8.13 8.13 0 0 1 8.447-3.643l23.907 4.604 58.383-180.142a2.515 2.515 0 0 1 3.152-1.612 2.51 2.51 0 0 1 1.611 3.153l-59.063 182.243a2.496 2.496 0 0 1-2.852 1.681l-26.079-5.013a3.15 3.15 0 0 0-3.272 1.411l-15.082 23.747a2.49 2.49 0 0 1-2.111 1.161z"/><path fill="#FFFAE9" d="m66.107 225.577 75.065-205.33c.951-2.972 2.812-4.253 7.095-3.683 39.699 11.619 142.554 45.534 198.736 63.267 4.473 1.44 4.663 4.133 3.722 7.125l-59.063 182.243-26.079-5.023a5.67 5.67 0 0 0-5.864 2.532s-3.463 23.357-15.081 23.747c-30.673-5.714-139.172-44.142-174.838-57.742-2.252-1.571-4.634-4.153-3.683-7.136z"/><path fill="#101010" d="M244.628 292.716c-.141 0-.281-.01-.411-.04-30.332-5.644-136.58-43.112-175.228-57.852-.17-.07-.34-.151-.49-.261-3.963-2.772-5.614-6.294-4.534-9.677 0-.03.02-.06.03-.09l75.065-205.33c1.331-4.173 4.373-5.834 9.507-5.144.11.01.23.04.33.07 25.189 7.376 75.256 23.537 123.671 39.179 28.041 9.057 54.53 17.613 75.105 24.108 3.463 1.11 7.155 3.742 5.194 9.957l-59.073 182.253a2.27 2.27 0 0 1-2.572 1.521l-26.079-5.023a3.4 3.4 0 0 0-3.293 1.191c-.28 1.631-1.231 6.604-3.232 11.678-4.283 10.878-9.927 13.32-13.92 13.45h-.08zM70.86 230.711c38.649 14.72 143.575 51.727 173.918 57.482 7.815-.561 11.808-15.892 12.689-21.816.05-.311.16-.611.33-.881 1.761-2.772 4.974-4.153 8.196-3.543l24.128 4.644 58.453-180.342c.75-2.372.52-3.383-2.262-4.283-20.575-6.495-47.064-15.051-75.115-24.108-48.275-15.591-98.202-31.713-123.38-39.089-3.403-.42-3.963.54-4.474 2.162l-75.075 205.37c-.54 1.802 1.492 3.583 2.612 4.404z"/><path fill="#101010" d="M351.276 85.825c-.891 0-1.732-.53-2.092-1.401a2.26 2.26 0 0 1 1.231-2.943l12.429-5.083a2.254 2.254 0 1 1 1.711 4.173l-12.429 5.084c-.28.11-.57.17-.85.17"/><path fill="#101010" d="M306.633 295.069c-.08 0-.16 0-.24-.03a.996.996 0 0 1-.731-1.211L357.61 81.792l-.2-2.001-206.491-66.479c-.53-.17-.811-.73-.651-1.26a1.01 1.01 0 0 1 1.261-.651L358.641 78.08c.38.12.651.46.691.85l.28 2.822c.01.11 0 .23-.02.34l-51.988 212.206a.994.994 0 0 1-.971.761z"/><path fill="#101010" d="M328.759 108.162c-.21 0-.42-.03-.62-.1l-.381-.121a2 2 0 0 1 1.241-3.802l.381.12a2 2 0 0 1 1.281 2.522 2.015 2.015 0 0 1-1.902 1.381m-8.026-2.592c-.2 0-.41-.03-.61-.09l-.39-.12a1.995 1.995 0 0 1-1.291-2.512 1.994 1.994 0 0 1 2.511-1.291l.381.12a2.005 2.005 0 0 1 1.301 2.512 2.01 2.01 0 0 1-1.912 1.401zm-8.046-2.532q-.3 0-.6-.09l-.38-.12a2.005 2.005 0 0 1-1.311-2.512 2 2 0 0 1 2.512-1.311l.39.12a2.01 2.01 0 0 1 1.311 2.512 2.01 2.01 0 0 1-1.912 1.401zm-8.046-2.512q-.3 0-.6-.09l-.38-.12a2.006 2.006 0 0 1-1.311-2.512 2 2 0 0 1 2.512-1.31l.39.12a2.01 2.01 0 0 1 1.311 2.511 2.01 2.01 0 0 1-1.911 1.401zm-8.055-2.492c-.201 0-.411-.03-.611-.09l-.36-.11a2 2 0 0 1-1.331-2.502 2 2 0 0 1 2.502-1.33l.4.12a2.004 2.004 0 0 1-.61 3.912zm-8.046-2.472c-.2 0-.391-.03-.591-.09l-.38-.12a2 2 0 0 1-1.331-2.502 2 2 0 0 1 2.502-1.33l.39.12a1.99 1.99 0 0 1 1.321 2.501 2 2 0 0 1-1.911 1.411zm-8.056-2.461c-.2 0-.391-.03-.591-.09l-.38-.12a2 2 0 0 1-1.331-2.502 2 2 0 0 1 2.502-1.331l.39.12a1.99 1.99 0 0 1 1.321 2.502 2 2 0 0 1-1.911 1.41zm-8.056-2.462c-.19 0-.38-.03-.581-.08l-.39-.12a2 2 0 0 1-1.331-2.502 2 2 0 0 1 2.502-1.331l.37.11a1.996 1.996 0 0 1 1.341 2.492 2 2 0 0 1-1.921 1.43zm-8.056-2.452c-.19 0-.38-.03-.58-.08l-.391-.12a2.003 2.003 0 1 1 1.171-3.833l.37.11a1.996 1.996 0 0 1 1.341 2.492 2 2 0 0 1-1.921 1.431zm-8.066-2.452c-.19 0-.38-.03-.58-.08l-.391-.12a2.003 2.003 0 1 1 1.171-3.833l.371.11a2 2 0 0 1 1.341 2.492 2 2 0 0 1-1.922 1.431zm-8.056-2.442c-.19 0-.38-.03-.58-.08l-.391-.12a2 2 0 0 1-1.33-2.502 2 2 0 0 1 2.501-1.33l.371.11a2 2 0 0 1 1.341 2.491 2 2 0 0 1-1.922 1.431zm-8.056-2.441c-.19 0-.38-.03-.58-.08l-.39-.12a2 2 0 0 1-1.331-2.502 2 2 0 0 1 2.501-1.331l.371.11a1.997 1.997 0 0 1 1.341 2.492 2 2 0 0 1-1.922 1.43zm-8.066-2.442c-.19 0-.38-.03-.58-.08l-.39-.12a2 2 0 0 1-1.331-2.502 2 2 0 0 1 2.502-1.331l.37.11a1.997 1.997 0 0 1 1.341 2.492 2 2 0 0 1-1.922 1.43zm-8.066-2.432c-.2 0-.39-.03-.59-.09l-.37-.11a2.01 2.01 0 0 1-1.351-2.492 2.01 2.01 0 0 1 2.492-1.35l.4.12a1.99 1.99 0 0 1 1.321 2.501 2 2 0 0 1-1.912 1.411zm-8.055-2.442c-.201 0-.391-.03-.591-.09l-.37-.11a2.01 2.01 0 0 1-1.351-2.492 2.01 2.01 0 0 1 2.492-1.35l.4.12a1.99 1.99 0 0 1 1.321 2.501 2 2 0 0 1-1.911 1.411zm-8.066-2.431c-.2 0-.391-.03-.591-.09l-.37-.11a2.01 2.01 0 0 1-1.351-2.493 2.01 2.01 0 0 1 2.492-1.35l.4.12a1.99 1.99 0 0 1 1.321 2.501 2 2 0 0 1-1.911 1.411zm-8.066-2.432c-.2 0-.391-.03-.591-.09l-.37-.11a2.01 2.01 0 0 1-1.351-2.492 2.01 2.01 0 0 1 2.492-1.351l.4.12a1.99 1.99 0 0 1 1.321 2.502 2 2 0 0 1-1.911 1.41zm-8.066-2.432c-.2 0-.39-.03-.591-.09l-.37-.11a2.01 2.01 0 0 1-1.351-2.492 2.01 2.01 0 0 1 2.492-1.351l.4.12a1.99 1.99 0 0 1 1.321 2.502 2 2 0 0 1-1.911 1.41zm-8.056-2.442c-.19 0-.39-.03-.58-.09l-.371-.11a2.01 2.01 0 0 1-1.351-2.492 2.01 2.01 0 0 1 2.492-1.35l.4.12a2 2 0 0 1 1.331 2.501 2.01 2.01 0 0 1-1.911 1.421zm-8.066-2.432c-.19 0-.38-.03-.57-.08l-.391-.12a2.002 2.002 0 0 1 1.151-3.833l.38.11a2.01 2.01 0 0 1 1.351 2.492 2 2 0 0 1-1.921 1.431m-8.076-2.441c-.19 0-.38-.03-.57-.08l-.401-.12a1.99 1.99 0 0 1-1.321-2.502 1.994 1.994 0 0 1 2.502-1.321l.371.11a2.01 2.01 0 0 1 1.351 2.492 2 2 0 0 1-1.922 1.43zm-8.066-2.452c-.19 0-.38-.03-.57-.08l-.4-.12a1.99 1.99 0 0 1-1.321-2.502 1.99 1.99 0 0 1 2.501-1.321l.371.11a2.01 2.01 0 0 1 1.351 2.492 2 2 0 0 1-1.922 1.43zm-8.066-2.472c-.19 0-.39-.03-.58-.09l-.39-.12a1.99 1.99 0 0 1-1.321-2.502 1.99 1.99 0 0 1 2.501-1.321l.381.12a2 2 0 0 1 1.331 2.502 2.01 2.01 0 0 1-1.912 1.421zm-8.066-2.502c-.2 0-.41-.03-.61-.1l-.38-.12a2.004 2.004 0 0 1-1.301-2.512 2.004 2.004 0 0 1 2.512-1.3l.38.12a2.004 2.004 0 0 1 1.301 2.511 2 2 0 0 1-1.902 1.391z"/><path fill="#101010" d="M297.226 220.764c-.24 0-.49-.04-.73-.14-13.981-5.504-81.39-28.131-130.616-44.643-27.65-9.276-51.528-17.292-59.003-19.944a2 2 0 0 1-1.221-2.552 2.01 2.01 0 0 1 2.552-1.221c7.455 2.642 31.313 10.648 58.943 19.925 52.008 17.452 116.725 39.168 130.806 44.712a2.005 2.005 0 0 1 1.13 2.592 1.99 1.99 0 0 1-1.861 1.271"/><path fill="#101010" d="M274.7 237.496c-.331 0-.661-.05-.991-.17l-4.724-1.642a3 3 0 0 1-1.861-3.812 3 3 0 0 1 3.813-1.862c1.691.581 3.282 1.131 4.753 1.651a3.004 3.004 0 0 1 1.842 3.823 2.99 2.99 0 0 1-2.832 2.012m-19.945-6.795c-.32 0-.64-.05-.951-.16l-4.753-1.592a3 3 0 0 1-1.902-3.792 3.004 3.004 0 0 1 3.793-1.902l4.764 1.591a3.004 3.004 0 0 1 1.891 3.803 3.01 3.01 0 0 1-2.842 2.052m-19.985-6.645c-.31 0-.63-.05-.94-.15l-4.754-1.571a3.004 3.004 0 0 1 1.882-5.705l4.763 1.572a3.006 3.006 0 0 1 1.911 3.792 3.01 3.01 0 0 1-2.852 2.062zm-19.994-6.565q-.466 0-.931-.15l-4.763-1.561a3 3 0 0 1-1.922-3.783 2.99 2.99 0 0 1 3.783-1.921l4.763 1.561a3 3 0 0 1 1.922 3.783 3.01 3.01 0 0 1-2.852 2.071m-20.015-6.545q-.465 0-.931-.15l-4.703-1.531c-1.581-.51-2.472-2.222-1.951-3.793.51-1.581 2.171-2.452 3.752-1.931l.06.02 4.704 1.531a2.986 2.986 0 0 1 1.921 3.783 2.995 2.995 0 0 1-2.852 2.071m-20.015-6.514q-.465 0-.93-.151l-4.764-1.551a2.99 2.99 0 0 1-1.921-3.782 2.99 2.99 0 0 1 3.783-1.922l4.763 1.551a2.99 2.99 0 0 1 1.921 3.783 3 3 0 0 1-2.852 2.072m-20.014-6.515q-.465 0-.931-.15l-4.763-1.551a2.99 2.99 0 0 1-1.922-3.783 2.99 2.99 0 0 1 3.783-1.922l4.763 1.551a2.99 2.99 0 0 1 1.922 3.783 3 3 0 0 1-2.852 2.072m-20.015-6.545c-.31 0-.62-.05-.941-.15l-4.773-1.561a3.004 3.004 0 0 1 1.881-5.704l4.764 1.561a3.016 3.016 0 0 1 1.921 3.792 3.01 3.01 0 0 1-2.852 2.072zm-20.015-6.625c-.32 0-.64-.05-.96-.16a316 316 0 0 1-4.794-1.651 3.004 3.004 0 0 1 2.002-5.664c1.211.43 2.802.97 4.723 1.621a3.002 3.002 0 0 1-.961 5.844z"/><path fill="#101010" d="M266.243 255.329c-.33 0-.67-.05-.99-.17-1.471-.52-3.053-1.061-4.724-1.641a3 3 0 0 1-1.861-3.813 3 3 0 0 1 3.813-1.861c1.691.58 3.282 1.13 4.763 1.651a3 3 0 0 1 1.841 3.823 2.99 2.99 0 0 1-2.832 2.011zm-19.944-6.795c-.32 0-.641-.05-.951-.16l-4.753-1.591a3.003 3.003 0 0 1-1.902-3.793 3.006 3.006 0 0 1 3.793-1.901l4.763 1.591a3.003 3.003 0 0 1 1.892 3.803 3.01 3.01 0 0 1-2.842 2.051m-19.985-6.645c-.31 0-.63-.05-.941-.15l-4.753-1.571a3.003 3.003 0 0 1 1.881-5.704l4.764 1.571a3.007 3.007 0 0 1 1.911 3.793 3.01 3.01 0 0 1-2.852 2.061zm-20.005-6.565q-.465 0-.93-.15l-4.764-1.561a3 3 0 0 1-1.921-3.783 2.99 2.99 0 0 1 3.783-1.921l4.763 1.561a3.004 3.004 0 0 1 1.922 3.783 3.01 3.01 0 0 1-2.853 2.071m-20.004-6.544q-.466 0-.931-.15l-4.703-1.532c-1.581-.51-2.472-2.221-1.952-3.792a2.97 2.97 0 0 1 3.753-1.932l.06.02 4.704 1.531a2.987 2.987 0 0 1 1.921 3.783 3 3 0 0 1-2.852 2.072m-20.015-6.515q-.465 0-.93-.15l-4.764-1.551a2.99 2.99 0 0 1-1.921-3.783 2.99 2.99 0 0 1 3.782-1.922l4.764 1.552a2.99 2.99 0 0 1 1.921 3.782 3 3 0 0 1-2.852 2.072m-20.024-6.515q-.466 0-.931-.15l-4.764-1.551a2.99 2.99 0 0 1-1.921-3.783 2.99 2.99 0 0 1 3.783-1.921l4.763 1.551a2.99 2.99 0 0 1 1.922 3.783 3 3 0 0 1-2.852 2.071m-20.015-6.545q-.463 0-.941-.15l-4.773-1.561a3.005 3.005 0 0 1-1.912-3.793 3.01 3.01 0 0 1 3.793-1.911l4.764 1.561a3.02 3.02 0 0 1 1.921 3.793 3.01 3.01 0 0 1-2.852 2.071zm-20.015-6.625c-.32 0-.64-.05-.96-.16a316 316 0 0 1-4.794-1.651 3.01 3.01 0 0 1-1.831-3.833 3.01 3.01 0 0 1 3.832-1.831c1.211.43 2.803.971 4.724 1.621a3.002 3.002 0 0 1-.961 5.844z"/><path fill="#101010" d="M238.693 266.787c-.32 0-.64-.05-.95-.16l-4.754-1.591a3.004 3.004 0 0 1 1.911-5.694l4.754 1.591a3.003 3.003 0 0 1 1.891 3.803 3.01 3.01 0 0 1-2.842 2.051zm-19.954-6.665a3.2 3.2 0 0 1-.951-.15l-4.754-1.581a3.003 3.003 0 0 1-1.901-3.793 3 3 0 0 1 3.793-1.901l4.753 1.581a3.003 3.003 0 0 1 1.902 3.793 3 3 0 0 1-2.852 2.051zm-19.975-6.625c-.31 0-.63-.05-.941-.15l-4.753-1.571a3.01 3.01 0 0 1-1.912-3.793 3.004 3.004 0 0 1 3.793-1.911l4.754 1.571a3.01 3.01 0 0 1 1.911 3.793 3.01 3.01 0 0 1-2.852 2.061m-19.975-6.594c-.31 0-.63-.05-.94-.151l-4.744-1.561a3.002 3.002 0 1 1 1.882-5.704l4.743 1.561a3.004 3.004 0 0 1-.941 5.855m-19.964-6.585c-.311 0-.631-.05-.941-.15l-4.753-1.572a3.003 3.003 0 1 1 1.881-5.704l4.753 1.571a3.004 3.004 0 0 1 1.912 3.793 3.01 3.01 0 0 1-2.852 2.062m-19.985-6.595c-.31 0-.63-.05-.941-.15l-4.763-1.571a3.01 3.01 0 0 1-1.911-3.793 3.01 3.01 0 0 1 3.792-1.912l4.754 1.572a3.002 3.002 0 0 1-.941 5.854zm-19.985-6.605c-.31 0-.63-.05-.94-.15l-4.764-1.581a3 3 0 0 1-1.901-3.793 3 3 0 0 1 3.793-1.901l4.753 1.581a3.01 3.01 0 0 1 1.912 3.793 3.01 3.01 0 0 1-2.853 2.061zm-19.964-6.675c-.32 0-.65-.05-.97-.16a385 385 0 0 1-4.774-1.651 3.01 3.01 0 0 1-1.832-3.833 3.01 3.01 0 0 1 3.833-1.831c1.191.42 2.772.97 4.714 1.631a2.996 2.996 0 0 1 1.871 3.813 2.99 2.99 0 0 1-2.842 2.031"/><path fill="#FFFAE9" d="M161.747 39.602c.83-7.876-1.932-14.741 4.113-22.206 5.244-6.485 15.711-9.327 24.798-7.006 5.274 1.351 10.808 5.775 12.849 10.948 1.452 3.663 5.595.911 5.635-2.071.05-3.783-5.224-8.857-7.876-10.998-7.796-6.305-16.202-6.785-25.539-5.254-1.951.32-3.142.61-4.673 1.451-14.671 8.016-15.712 19.564-13.8 34.876.42 3.372 4.103 3.933 4.493.26"/><path fill="#101010" d="M159.685 44.375c-2.371 0-4.333-1.992-4.673-4.764-1.711-13.72-1.962-27.88 14.951-37.127 1.801-.98 3.232-1.341 5.394-1.701 8.316-1.361 18.073-1.752 27.32 5.724 2.061 1.671 8.776 7.515 8.716 12.78-.03 2.801-2.231 5.483-4.903 5.974-1.742.32-3.993-.33-5.094-3.113-1.711-4.323-6.465-8.356-11.308-9.587-8.367-2.141-17.833.48-22.487 6.235-3.753 4.643-3.633 9.006-3.492 14.05.06 2.222.13 4.524-.131 6.975-.33 3.113-2.381 4.524-4.263 4.544h-.04zm24.048-39.82c-2.342 0-4.884.23-7.646.68-1.761.291-2.702.521-3.963 1.212-13.149 7.185-14.58 17.002-12.639 32.614 0 .05.01.1.02.15.21-2.092.15-4.193.09-6.215-.16-5.444-.32-11.088 4.494-17.022 5.714-7.055 17.112-10.328 27.109-7.776 6.245 1.591 12.159 6.655 14.391 12.31.06.15.11.25.15.31.38-.13 1.111-.841 1.121-1.572.03-2.271-3.603-6.444-7.035-9.216-4.594-3.713-9.637-5.465-16.102-5.465z"/><path fill="#FFFAE9" d="M199.284 51.17c.831-7.875-1.931-14.74 4.113-22.206 5.244-6.484 15.712-9.326 24.798-7.005 4.174 1.06 8.086 3.773 10.688 7.195 1.221 1.612 1.431 3.423 3.583 3.613 8.866.8-1.521-11.198-3.653-12.92-7.795-6.304-16.202-6.784-25.538-5.253-1.952.32-3.143.61-4.674 1.45-14.671 8.017-15.711 19.565-13.8 34.876.42 3.373 4.103 3.933 4.493.26"/><path fill="#101010" d="M197.223 55.944c-2.372 0-4.333-1.992-4.674-4.764-1.711-13.72-1.971-27.88 14.951-37.127 1.802-.98 3.233-1.341 5.394-1.701 8.316-1.361 18.064-1.752 27.32 5.724.1.08 9.817 9.177 7.716 14.36-.55 1.351-1.982 2.903-5.674 2.562-2.722-.25-3.783-2.131-4.484-3.382-.23-.4-.44-.78-.69-1.121-2.332-3.072-5.864-5.454-9.447-6.375-8.376-2.141-17.833.48-22.486 6.235-3.753 4.643-3.633 9.006-3.493 14.05.06 2.222.13 4.523-.13 6.975-.33 3.113-2.382 4.524-4.263 4.544h-.04zm24.047-39.82c-2.341 0-4.873.23-7.645.681-1.761.29-2.702.52-3.963 1.21-13.15 7.186-14.581 17.003-12.639 32.615 0 .05.01.1.02.15.21-2.092.15-4.193.09-6.215-.16-5.454-.321-11.088 4.493-17.022 5.714-7.055 17.113-10.328 27.11-7.776 4.603 1.181 8.956 4.103 11.929 8.016.44.58.75 1.14 1.03 1.631.601 1.061.651 1.071.951 1.091.5.04.831.03 1.041 0-.33-1.561-3.423-6.585-6.325-8.926-4.593-3.713-9.637-5.465-16.102-5.465z"/><path fill="#FFFAE9" d="M233.7 62.208c.83-7.876-1.932-14.74 4.113-22.206 5.243-6.485 15.711-9.327 24.798-7.005 5.274 1.35 10.808 5.774 12.849 10.948 1.361 3.442 6.115.48 5.514-2.512-.8-3.983-4.733-8.116-7.756-10.558-7.795-6.304-16.201-6.785-25.538-5.254-1.952.32-3.143.61-4.674 1.451-14.67 8.016-15.711 19.565-13.8 34.876.421 3.372 4.103 3.933 4.494.26"/><path fill="#101010" d="M231.648 66.981c-2.372 0-4.333-1.991-4.673-4.763-1.712-13.72-1.972-27.88 14.951-37.137 1.801-.991 3.232-1.341 5.393-1.702 8.317-1.36 18.064-1.751 27.32 5.724 2.212 1.792 7.486 6.525 8.557 11.87.62 3.081-1.731 5.803-4.253 6.544-2.402.71-4.644-.4-5.574-2.762-1.712-4.323-6.465-8.356-11.309-9.587-8.376-2.142-17.833.48-22.486 6.235-3.753 4.643-3.633 9.006-3.493 14.05.06 2.221.13 4.523-.13 6.975-.33 3.112-2.382 4.523-4.263 4.543h-.04zm24.048-39.819c-2.342 0-4.884.23-7.646.68-1.761.29-2.702.521-3.963 1.212-13.15 7.185-14.591 17.002-12.639 32.613 0 .05.01.1.02.15.21-2.091.15-4.193.09-6.214-.16-5.454-.32-11.088 4.493-17.023 5.714-7.055 17.113-10.327 27.11-7.775 6.245 1.59 12.159 6.655 14.391 12.309.02.04.03.08.05.1.18-.04.52-.2.81-.54.25-.28.381-.591.341-.801-.641-3.182-4.013-6.865-6.966-9.247-4.593-3.713-9.637-5.464-16.101-5.464z"/><path fill="#FFFAE9" d="M271.237 73.777c.831-7.876-1.931-14.74 4.113-22.206 5.244-6.485 15.712-9.327 24.798-7.005 5.274 1.35 10.808 5.774 12.85 10.948.9 2.281 2.712 2.471 4.493.42 3.522-4.073-3.773-11.088-6.735-13.48-7.796-6.305-16.202-6.785-25.539-5.254-1.951.32-3.142.61-4.673 1.451-14.671 8.016-15.712 19.565-13.8 34.876.42 3.372 4.103 3.933 4.493.26"/><path fill="#101010" d="M269.186 78.55c-2.372 0-4.334-1.991-4.674-4.763-1.711-13.72-1.971-27.88 14.951-37.137 1.801-.981 3.232-1.341 5.394-1.702 8.316-1.36 18.073-1.75 27.32 5.724 1.871 1.512 8.026 6.856 8.486 12.07.16 1.76-.35 3.372-1.461 4.653-1.951 2.251-3.833 2.311-4.783 2.151-.901-.15-2.552-.77-3.513-3.212-1.711-4.323-6.465-8.356-11.308-9.587-8.376-2.142-17.833.48-22.487 6.234-3.752 4.644-3.632 9.007-3.492 14.05.06 2.222.13 4.524-.13 6.976-.331 3.112-2.382 4.523-4.263 4.543zm24.047-39.819c-2.342 0-4.883.23-7.645.68-1.762.29-2.702.521-3.963 1.212-13.15 7.185-14.591 17.002-12.64 32.613 0 .05.01.1.02.15.211-2.091.151-4.193.09-6.214-.16-5.454-.32-11.088 4.494-17.022 5.714-7.056 17.112-10.328 27.11-7.776 6.244 1.59 12.159 6.655 14.39 12.309.05.12.09.22.13.29.14-.1.33-.26.551-.52.31-.36.43-.75.38-1.301-.22-2.432-3.603-6.345-6.825-8.957-4.593-3.713-9.637-5.464-16.102-5.464z"/><path fill="#FFFAE9" d="M305.662 84.435c.831-7.876-1.931-14.74 4.113-22.206 5.244-6.485 15.712-9.327 24.798-7.005 5.274 1.35 10.808 5.774 12.85 10.948.84 2.141.77 2.522 1.691 4.403.59 1.19 5.364 2.402 5.304.51-.19-6.935-3.673-13.47-9.247-17.973-7.796-6.304-16.202-6.785-25.539-5.254-1.951.32-3.142.61-4.673 1.451-14.671 8.016-15.711 19.565-13.8 34.876.42 3.372 4.103 3.933 4.493.26"/><path fill="#101010" d="M303.601 89.208c-2.372 0-4.333-1.991-4.674-4.763-1.711-13.72-1.971-27.88 14.951-37.127 1.802-.981 3.233-1.341 5.394-1.702 8.316-1.36 18.063-1.751 27.32 5.724 6.205 5.014 9.877 12.18 10.078 19.665.04 1.531-.951 2.772-2.532 3.172-2.032.5-6.005-.47-7.065-2.612a18 18 0 0 1-1.111-2.752c-.16-.47-.33-1.01-.651-1.821-1.701-4.313-6.464-8.346-11.308-9.587-8.376-2.142-17.833.49-22.486 6.234-3.753 4.644-3.633 9.007-3.493 14.05.06 2.222.13 4.524-.13 6.976-.33 3.112-2.382 4.523-4.263 4.543h-.04zm24.047-39.819c-2.341 0-4.883.23-7.645.68-1.762.29-2.702.52-3.963 1.212-13.15 7.185-14.591 17.002-12.639 32.613 0 .05.01.1.02.15.21-2.091.15-4.193.09-6.214-.16-5.444-.321-11.088 4.493-17.023 5.714-7.055 17.113-10.317 27.11-7.775 6.244 1.59 12.159 6.655 14.39 12.309.361.91.561 1.53.741 2.061.21.65.36 1.101.75 1.902.251.15.661.29 1.061.39-.57-5.644-3.542-10.978-8.316-14.83-4.593-3.714-9.637-5.465-16.102-5.465z"/><path fill="#FFBD3E" d="M217.628 146.008c10.766 0 19.494-8.728 19.494-19.494s-8.728-19.494-19.494-19.494-19.494 8.728-19.494 19.494 8.727 19.494 19.494 19.494"/><path fill="#101010" d="M217.628 148.51c-12.129 0-21.996-9.867-21.996-21.996s9.867-21.996 21.996-21.996 21.996 9.867 21.996 21.996-9.867 21.996-21.996 21.996m0-38.988c-9.367 0-16.993 7.625-16.993 16.992s7.626 16.993 16.993 16.993 16.992-7.626 16.992-16.993-7.625-16.992-16.992-16.992"/><path fill="#5CB3C1" d="M180.05 156.466c8.136-4.883 16.272-9.767 24.408-14.64 12.709-7.626 17.913-2.832 30.813-10.008 1.201-.66 9.246-6.314 10.537-6.775 4.053-1.451 14.281-4.353 18.364-1.831 1.441.891 2.712 13.13 3.613 14.571 6.744 10.768 15.111 28.751 21.335 40.169 6.225 11.419 6.935 12.529 18.083 19.775"/><path fill="#101010" d="M307.193 200.219c-.47 0-.94-.13-1.361-.4-11.568-7.525-12.349-8.616-18.913-20.675-2.302-4.233-4.864-9.287-7.586-14.641-4.653-9.187-9.467-18.684-13.68-25.398-.58-.931-.891-2.472-1.641-6.675-.381-2.142-1.071-5.975-1.571-7.296-2.772-1.151-10.028.19-15.802 2.262-.731.32-4.503 2.862-6.535 4.223-2.041 1.371-3.122 2.092-3.632 2.382-6.715 3.733-11.459 4.413-16.042 5.084-4.443.64-8.637 1.25-14.701 4.883l-24.408 14.641a2.5 2.5 0 0 1-3.432-.861 2.495 2.495 0 0 1 .86-3.432l24.408-14.641c6.925-4.153 11.819-4.864 16.562-5.544 4.333-.631 8.416-1.221 14.321-4.503.35-.201 1.901-1.241 3.272-2.162 4.814-3.232 6.695-4.443 7.636-4.783 2.442-.881 14.911-5.074 20.525-1.612 1.571.971 2.151 3.113 3.462 10.478.331 1.831.771 4.313 1.021 4.994 4.313 6.895 9.147 16.452 13.83 25.688 2.692 5.314 5.244 10.338 7.516 14.511 6.224 11.418 6.464 11.859 17.252 18.884a2.493 2.493 0 0 1 .731 3.462 2.5 2.5 0 0 1-2.102 1.141zm-37.287-63.776s0 .01.01.02c0 0 0-.01-.01-.02"/><path fill="#83B944" d="M113.361 138.384c8.136-4.884 16.272-9.768 24.408-14.641 12.71-7.626 19.274-15.612 33.235-20.395 1.291-.44 10.217-4.583 11.568-4.803 4.243-.721 14.831-1.772 18.394 1.44 1.261 1.131.35 13.4.99 14.982 4.734 11.798 5.644 24.197 11.859 35.606 6.355 11.668 15.541 21.816 26.69 29.071"/><path fill="#101010" d="M240.515 182.135c-.471 0-.941-.13-1.361-.4-11.339-7.375-20.856-17.743-27.531-29.972-3.772-6.925-5.664-14.18-7.495-21.205-1.271-4.864-2.572-9.888-4.493-14.661-.411-1.011-.441-2.592-.441-6.855 0-2.182 0-6.075-.26-7.466-2.522-1.62-9.907-1.58-15.962-.56-.77.19-4.943 2.021-7.185 3.012-2.241.981-3.432 1.511-3.983 1.701-8.556 2.933-14.11 7.046-20.555 11.799-3.693 2.732-7.515 5.554-12.209 8.376l-24.408 14.641a2.5 2.5 0 0 1-3.432-.861 2.496 2.496 0 0 1 .86-3.432l24.408-14.641c4.494-2.692 8.206-5.444 11.809-8.106 6.485-4.793 12.619-9.327 21.906-12.509.38-.13 2.092-.881 3.593-1.541 5.324-2.342 7.385-3.203 8.366-3.363 2.562-.43 15.571-2.361 20.485 2.042 1.381 1.24 1.571 3.442 1.561 10.928 0 1.861 0 4.383.12 5.094 2.012 5.033 3.352 10.177 4.643 15.161 1.832 7.045 3.573 13.7 7.046 20.074 6.264 11.509 15.211 21.246 25.859 28.171a2.494 2.494 0 0 1 .73 3.463 2.5 2.5 0 0 1-2.101 1.14zm-36.237-68.12v.02z"/><path fill="#fff" d="M92.596 262.724s-2.191 4.943-5.734 10.077z"/><path fill="#F1EFE4" d="M94.878 263.734a72 72 0 0 1-5.414 10.858c-2.262 3.523-7.516.341-5.434-3.302 2.302-3.022 4.513-6.295 6.305-9.657 1.53-2.732 5.624-.821 4.533 2.101"/><path fill="#F1EFE4" d="M62.394 243.631a74 74 0 0 1-9.717 7.265c-3.613 2.121-6.865-3.082-3.362-5.394 3.422-1.661 6.865-3.583 9.977-5.784 2.592-1.752 5.394 1.801 3.112 3.913"/><path fill="#fff" d="M75.904 251.546s-11.538 11.698-23.057 24.588z"/><path fill="#F1EFE4" d="M77.685 253.298c-6.965 8.796-14.66 16.932-22.356 25.058-3.012 2.962-7.566-1.14-4.964-4.453a161 161 0 0 1 5.564-6.395c5.735-6.264 11.589-12.339 18.194-17.733 2.311-1.861 5.384 1.191 3.562 3.513"/><path fill="#8B2BC9" d="M25.167 262.164c-6.115 5.073-7.426 8.316-7.536 18.623-4.753-9.146-7.385-11.448-15.13-13.219 6.114-5.074 7.425-8.316 7.545-18.624 4.753 9.147 7.385 11.448 15.13 13.22z"/><path fill="#F1EFE4" d="M17.631 283.289a2.51 2.51 0 0 1-2.221-1.35C10.966 273.392 8.955 271.601 1.94 270a2.49 2.49 0 0 1-1.872-1.862c-.22-.92.1-1.901.831-2.501 5.534-4.594 6.525-7.096 6.635-16.723a2.48 2.48 0 0 1 1.921-2.401 2.51 2.51 0 0 1 2.802 1.28c4.444 8.547 6.455 10.338 13.47 11.939.93.21 1.651.931 1.882 1.862.23.93-.1 1.901-.831 2.501-5.534 4.594-6.525 7.096-6.635 16.733a2.48 2.48 0 0 1-1.921 2.401c-.19.05-.39.07-.58.07zM7.444 266.387c3.472 1.281 5.884 3.092 8.256 6.305.66-3.933 2.001-6.635 4.523-9.347-3.472-1.281-5.884-3.082-8.256-6.295-.66 3.933-2.001 6.635-4.523 9.347z"/><path fill="#FFBD3E" d="M36.995 231.272c-4.623 1.501-6.114 3.052-8.516 8.886-.63-6.285-1.611-8.186-5.614-10.948 4.624-1.501 6.105-3.052 8.516-8.887.63 6.285 1.611 8.186 5.614 10.949"/><path fill="#F1EFE4" d="M28.48 242.661c-.12 0-.241 0-.361-.03a2.52 2.52 0 0 1-2.132-2.222c-.59-5.864-1.38-6.965-4.543-9.137a2.5 2.5 0 0 1-1.05-2.421c.14-.941.8-1.722 1.7-2.022 3.653-1.181 4.734-2.011 6.966-7.455a2.515 2.515 0 0 1 2.672-1.521 2.52 2.52 0 0 1 2.131 2.221c.59 5.864 1.391 6.965 4.544 9.137.78.54 1.19 1.481 1.05 2.422-.14.94-.8 1.721-1.701 2.021-3.653 1.181-4.733 2.012-6.965 7.456a2.5 2.5 0 0 1-2.312 1.551m-.951-12.77c.87.961 1.51 1.972 2.001 3.123a10.8 10.8 0 0 1 2.812-2.422 11 11 0 0 1-2.001-3.122 10.8 10.8 0 0 1-2.812 2.421"/><path fill="#fff" d="M366.737 50.858s2.232-4.934 5.804-10.027z"/><path fill="#F1EFE4" d="M364.455 49.828a72 72 0 0 1 5.494-10.818c2.292-3.503 7.526-.28 5.404 3.342-2.321 3.002-4.563 6.255-6.374 9.607-1.551 2.712-5.635.77-4.524-2.131"/><path fill="#fff" d="M383.329 62.166s11.629-11.618 23.237-24.418z"/><path fill="#F1EFE4" d="M381.568 60.396c7.025-8.747 14.781-16.823 22.546-24.899 3.043-2.942 7.556 1.191 4.924 4.483a161 161 0 0 1-5.614 6.355c-5.774 6.215-11.679 12.25-18.324 17.603-2.331 1.841-5.373-1.23-3.532-3.543"/><path fill="#9B4C0E" d="M400.211 75.656c6.155-5.023 7.486-8.256 7.676-18.573 4.684 9.187 7.305 11.508 15.031 13.33-6.154 5.023-7.485 8.256-7.676 18.563-4.683-9.186-7.305-11.508-15.031-13.33z"/><path fill="#F1EFE4" d="M415.242 91.489c-.92 0-1.791-.51-2.231-1.361-4.383-8.586-6.375-10.378-13.38-12.039a2.48 2.48 0 0 1-1.861-1.871c-.21-.93.12-1.902.85-2.502 5.574-4.553 6.585-7.045 6.755-16.682a2.5 2.5 0 0 1 1.942-2.392 2.51 2.51 0 0 1 2.792 1.3c4.383 8.587 6.374 10.378 13.38 12.04.93.22 1.651.94 1.861 1.871.21.93-.12 1.901-.851 2.502-5.574 4.553-6.585 7.045-6.765 16.672a2.5 2.5 0 0 1-1.941 2.392c-.19.04-.38.06-.56.06zm-10.067-16.982c3.463 1.3 5.864 3.132 8.206 6.364.691-3.933 2.052-6.625 4.594-9.307-3.463-1.31-5.865-3.132-8.206-6.364-.691 3.933-2.052 6.624-4.594 9.307"/><path fill="#8B2BC9" d="M373.742 108.231c4.644-1.461 6.135-3.002 8.576-8.826.581 6.284 1.542 8.206 5.534 10.998-4.633 1.461-6.134 3.002-8.576 8.826-.58-6.284-1.551-8.206-5.534-10.998"/><path fill="#F1EFE4" d="M379.266 121.721c-.13 0-.25 0-.38-.03a2.51 2.51 0 0 1-2.112-2.241c-.54-5.865-1.331-6.975-4.473-9.177a2.52 2.52 0 0 1-1.041-2.432 2.48 2.48 0 0 1 1.722-2.001c3.652-1.151 4.743-1.982 7.025-7.406a2.49 2.49 0 0 1 2.682-1.5c1.13.17 2.001 1.1 2.111 2.24.541 5.865 1.331 6.976 4.473 9.178a2.52 2.52 0 0 1 1.041 2.431 2.48 2.48 0 0 1-1.721 2.002c-3.653 1.151-4.744 1.981-7.025 7.405a2.49 2.49 0 0 1-2.302 1.531m-.87-12.779c.86.971 1.501 1.991 1.971 3.142a10.8 10.8 0 0 1 2.832-2.401 10.8 10.8 0 0 1-1.971-3.143 10.8 10.8 0 0 1-2.832 2.402"/><path fill="#FF6C57" d="M156.303 180.393c-9.377-1.251-22.497-3.262-30.572 2.042-3.723 2.601-4.884 8.576-3.643 12.659.941 2.552 3.172 3.542 5.934 3.552 12.289-.6 14.791-17.903 12.199-27.56-.81-3.162 3.573-4.823 5.074-1.951 3.552 7.015 4.373 15.511 2.251 23.197-1.531 5.594-4.833 10.948-10.087 14.05-8.756 5.384-21.786 2.982-25.619-7.405-2.151-6.425-1.461-12.259 1.411-18.214 2.802-5.624 8.967-9.337 14.831-10.367 10.648-1.802 20.465.66 29.952 4.853 2.902 1.421 1.411 5.775-1.731 5.154z"/></svg>