<svg xmlns="http://www.w3.org/2000/svg" width="405" height="421" fill="none" viewBox="0 0 405 421"><path fill="#000" d="M319.279 408.237c0 7.041-60.501 12.763-135.135 12.763s-135.135-5.712-135.135-12.763 60.501-12.762 135.135-12.762 135.135 5.711 135.135 12.762"/><path fill="#6DB5C3" d="m309.407 235.656 5.711 3.66 8.411-3.37 27.956-101.669-31.346-5.371z"/><path fill="#000" d="M315.118 241.816c-.47 0-.94-.13-1.35-.39l-5.711-3.66a2.52 2.52 0 0 1-1.141-2.361l10.732-106.75a2.487 2.487 0 0 1 2.911-2.21l31.346 5.371c.7.12 1.31.53 1.69 1.12s.49 1.32.3 2L325.94 236.605c-.21.75-.75 1.371-1.48 1.661l-8.402 3.38c-.3.12-.62.18-.93.18zm-3.071-7.431 3.341 2.14 6.061-2.43 26.895-97.808-25.985-4.451-10.312 102.559z"/><path fill="#6DB5C3" d="m371.539 142.748 8.981-3.841-47.429-43.548 16.243-60.601 6.072 1.76 2.4-8.712-42.978-12.422-2.4 8.712 5.421 1.57-11.893 44.408-72.553-67.582-11.952 3.48 50.679 68.153z"/><path fill="#000" d="M371.539 145.248c-.501 0-1.001-.15-1.421-.44L270.71 76.186a2.7 2.7 0 0 1-.59-.57L219.45 7.472c-.49-.66-.62-1.51-.36-2.29s.88-1.38 1.671-1.6L232.713.101a2.48 2.48 0 0 1 2.4.57l69.503 64.742 10.192-38.027-3.071-.89a2.51 2.51 0 0 1-1.72-3.061l2.401-8.712c.18-.64.61-1.19 1.19-1.52s1.27-.41 1.92-.22l42.968 12.412a2.507 2.507 0 0 1 1.72 3.06l-2.4 8.712a2.55 2.55 0 0 1-1.19 1.52c-.58.33-1.27.41-1.921.22l-3.62-1.05-15.183 56.671 46.309 42.518c.63.57.92 1.43.77 2.26-.14.84-.7 1.541-1.481 1.881l-8.991 3.84c-.32.13-.65.2-.98.2zM273.89 72.295l97.929 67.602 4.16-1.78-44.578-40.927c-.69-.63-.97-1.59-.72-2.49l16.233-60.592c.17-.65.6-1.2 1.19-1.53.58-.33 1.28-.41 1.921-.22l3.64 1.05 1.07-3.891-38.167-11.032-1.07 3.89 3.051.88a2.5 2.5 0 0 1 1.72 3.051l-11.902 44.409c-.23.85-.88 1.51-1.731 1.76-.84.24-1.75.03-2.39-.57L232.733 5.292l-7.132 2.08 48.279 64.933z"/><path fill="#04663A" d="M294.874 235.205c-.89-.23-1.72.38-1.69 1.22.11 3.091 1.58 5.991 1.2 10.322-.52 5.801-7.421 8.942-13.552 7.632l-.02.02c-.08-.02-.15-.05-.23-.07s-.16-.03-.23-.05c-.12-.03-.23-.07-.34-.13-5.842-1.891-10.202-7.822-7.942-13.063 1.7-3.951 4.351-5.871 5.931-8.501.43-.721-.01-1.661-.91-1.881-5.071-1.25-7.611-1.87-12.692-3.07-.59-.14-1.201.09-1.491.57-2.48 4.23-7.761 6.871-12.752 4.961-4.351-1.671-6.591-4.151-9.542-5.641-.81-.411-1.79 0-1.97.81-3.331 15.153-6.651 30.305-9.982 45.458-.15.68-.85 1.1-1.57.95a1851 1851 0 0 0-45.399-9.151c-.94-.17-1.74.63-1.52 1.52.58 2.29 1.46 4.661 1.39 7.931-.13 5.821-6.581 9.492-12.562 8.672 0 0 0 .01-.01.02-.08-.01-.15-.04-.22-.05-1.05 5.891-1.57 8.842-2.621 14.743-.14.81-1.03 1.25-1.8.92-3.051-1.29-5.261-3.821-9.682-5.271-5.581-1.83-11.232 2.56-12.532 8.091-.04.1-.07.21-.09.32-.01.071-.01.151-.02.221s-.03.14-.05.22c0 0 .01 0 .02.01-.68 5.761 3.25 11.902 9.152 11.992 4.63.07 7.451-1.621 10.772-1.771.83-.04 1.5.681 1.35 1.481l-3.051 17.183c-.12.68.34 1.34 1.02 1.46a1493 1493 0 0 1 119.303 26.955c.67.18 1.37-.21 1.55-.88 10.782-39.197 21.574-78.394 32.356-117.602.18-.67-.26-1.38-1-1.58a1212 1212 0 0 0-18.584-4.961z"/><path fill="#000" d="M280.882 362.769c-.33 0-.66-.04-.991-.13a1498 1498 0 0 0-119.092-26.905c-2.03-.36-3.39-2.32-3.03-4.361l2.76-15.543c-.68.13-1.38.31-2.14.51-2 .521-4.321 1.101-7.261 1.071-3.141-.05-6.082-1.451-8.262-3.941-2.46-2.811-3.711-6.711-3.371-10.482 0-.16 0-.32.03-.47.01-.08.03-.15.04-.22q0-.105.03-.21c.03-.21.09-.43.17-.65.911-3.671 3.381-6.942 6.642-8.762 2.87-1.61 6.091-1.96 9.071-.98 2.921.96 4.941 2.3 6.722 3.49.64.431 1.23.821 1.81 1.161l2.33-13.113c.12-.66.491-1.25 1.051-1.62.54-.37 1.2-.51 1.85-.4.05 0 .09 0 .14.02 2.75.38 5.661-.42 7.601-2.09.941-.801 2.071-2.171 2.111-4.161.05-2.271-.43-4.021-.94-5.881-.13-.47-.26-.931-.37-1.391-.311-1.23.02-2.53.89-3.45.89-.95 2.2-1.38 3.5-1.13a1859 1859 0 0 1 44.339 8.921l9.721-44.248a3.73 3.73 0 0 1 2.051-2.56 3.96 3.96 0 0 1 3.49.06c1.321.67 2.491 1.49 3.621 2.29 1.64 1.15 3.331 2.35 5.691 3.251 3.931 1.5 7.932-.881 9.702-3.891.83-1.42 2.57-2.131 4.221-1.73 5.091 1.21 7.631 1.82 12.712 3.08 1.21.3 2.221 1.15 2.691 2.281.46 1.09.37 2.3-.24 3.31-.711 1.18-1.581 2.211-2.421 3.211-1.21 1.43-2.46 2.91-3.361 5.001-.74 1.71-.32 3.33.16 4.4 1.071 2.371 3.471 4.401 6.252 5.301l.24.09.11.02s.04.01.07.02c.05 0 .1.02.14.03 2.88.611 6.111 0 8.221-1.56.96-.71 2.141-1.95 2.311-3.851.2-2.25-.18-4.03-.59-5.921-.28-1.3-.57-2.65-.621-4.08a3.67 3.67 0 0 1 1.381-3.011c.95-.76 2.23-1.03 3.44-.72 7.522 1.96 11.172 2.93 18.614 4.971.96.26 1.77.86 2.3 1.69.56.89.72 1.971.45 2.961l-32.356 117.602a3.766 3.766 0 0 1-3.63 2.76zM162.9 331.033a1500 1500 0 0 1 117.112 26.465l31.695-115.211a1159 1159 0 0 0-15.823-4.231c.09.47.19.97.301 1.49.44 2.071.95 4.411.68 7.412-.26 2.92-1.801 5.561-4.321 7.431-3.181 2.35-7.702 3.291-11.882 2.5-.15 0-.31-.03-.46-.07-.08-.02-.16-.04-.23-.07-.071-.01-.151-.03-.231-.05a4.4 4.4 0 0 1-.64-.22c-4.08-1.36-7.491-4.33-9.131-7.951-1.271-2.801-1.331-5.801-.19-8.442 1.19-2.77 2.75-4.611 4.13-6.241.33-.39.651-.77.941-1.13-3.791-.93-6.232-1.52-10.252-2.481-3.071 4.501-9.092 7.632-15.313 5.251-2.941-1.13-4.981-2.56-6.781-3.83a49 49 0 0 0-1.751-1.201l-9.632 43.849c-.44 2.02-2.48 3.3-4.54 2.85a1815 1815 0 0 0-43.438-8.781c.51 1.87 1.01 3.99.95 6.691-.07 3-1.441 5.791-3.871 7.861-2.52 2.151-5.901 3.351-9.362 3.371l-2.23 12.532c-.2 1.13-.9 2.081-1.901 2.631a3.84 3.84 0 0 1-3.34.16c-1.48-.62-2.751-1.471-3.981-2.291-1.59-1.06-3.24-2.16-5.501-2.9-2.1-.69-3.911-.06-5.061.59-2.07 1.16-3.701 3.35-4.251 5.711-.02.08-.04.15-.06.22v.14c0 .04 0 .09-.01.13-.29 2.47.53 5.131 2.131 6.961.88 1 2.38 2.201 4.581 2.241 2.31.04 4.14-.44 5.921-.91 1.48-.381 3.01-.781 4.691-.861 1.17-.04 2.29.42 3.05 1.301.75.86 1.07 2 .87 3.12l-2.84 15.963zm-1.22-.22h.01z"/><path fill="#7A42C8" d="M264.119 225.304s-.02 0-.02-.01c1.08-5.701-2.831-12.222-9.212-12.772-4.761-.411-7.812.93-11.182 1.02-.91.02-1.641-.75-1.461-1.571l9.152-41.647c.15-.68-.36-1.371-1.13-1.541a1973 1973 0 0 0-49.989-10.061c-.79-.14-1.341-.831-1.181-1.521.921-3.99 4.531-5.961 6.422-10.982 2.02-5.361-3.031-11.102-9.412-12.652a2.3 2.3 0 0 0-.37-.11l-.25-.03-.25-.06s0 .01-.01.02c-6.631-.93-13.613 2.75-13.563 8.581.04 5.411 2.821 8.382 2.251 12.533-.1.69-.851 1.15-1.631 1.01a1942 1942 0 0 0-50.399-7.781c-.78-.111-1.49.36-1.59 1.05l-5.761 42.218c-.11.83-1.071 1.31-1.921.96-3.1-1.251-5.581-3.531-10.142-4.781-6.071-1.66-11.882 2.91-12.992 8.491-.04.1-.07.21-.08.33 0 .07 0 .15-.01.221-.01.07-.03.14-.04.22 0 0 .02 0 .02.01-.43 5.791 4.101 11.812 10.422 11.722 4.711-.07 7.601-1.671 10.912-2.041.9-.1 1.68.61 1.57 1.441-2.1 15.382-4.201 30.765-6.291 46.138-.09.69.42 1.33 1.15 1.43a1809 1809 0 0 1 45.739 7.042c.95.16 1.42 1.19.9 1.94-1.32 1.95-2.961 3.911-4.011 6.981-1.85 5.401 2.731 10.962 8.472 12.393.11.04.22.08.33.1l.23.03c.08.01.15.04.22.05 0 0 0-.01.01-.02 5.981.82 12.432-2.851 12.562-8.672.07-3.27-.82-5.651-1.39-7.931-.22-.891.57-1.691 1.52-1.521a1851 1851 0 0 1 45.399 9.152c.72.16 1.42-.27 1.57-.95 3.331-15.153 6.651-30.306 9.982-45.459.18-.82 1.16-1.22 1.97-.81 2.951 1.501 5.191 3.971 9.542 5.641 5.791 2.221 11.992-1.68 13.723-7.101.05-.1.09-.2.12-.31.02-.07.02-.15.04-.22s.05-.14.06-.21z"/><path fill="#000" d="m170.121 286.445-1.56-.28c-.07-.01-.15-.03-.22-.05-.07 0-.15-.02-.23-.03-.2-.04-.41-.09-.63-.17-3.951-1.021-7.412-3.641-9.252-7.042-1.49-2.74-1.79-5.771-.84-8.551.87-2.541 2.06-4.371 3.18-5.961a1870 1870 0 0 0-43.788-6.722c-2.08-.29-3.55-2.19-3.27-4.24l6.071-44.519c-.67.15-1.371.34-2.121.54-2.1.581-4.48 1.231-7.631 1.271-3.441.09-6.721-1.361-9.182-3.981-2.22-2.36-3.57-5.501-3.77-8.672l-.21-.1.21-1.77c0-.07.02-.15.03-.22 0-.06 0-.14.02-.22.03-.23.08-.45.15-.68.75-3.541 3.08-6.811 6.241-8.762 3.02-1.87 6.511-2.4 9.832-1.49 3.13.85 5.341 2.13 7.301 3.25.63.361 1.24.721 1.85 1.031l5.541-40.608c.28-2.06 2.271-3.49 4.401-3.19 16.373 2.31 32.936 4.86 49.239 7.591-.09-1.1-.45-2.22-.88-3.531-.65-2.02-1.4-4.31-1.42-7.321-.02-2.861 1.24-5.561 3.57-7.601 2.861-2.501 7.082-3.841 11.293-3.621l.09-.13 1.58.27.26.06c.04 0 .14.01.25.03.19.03.41.09.63.17 4.481 1.12 8.452 4.061 10.372 7.701 1.42 2.671 1.65 5.601.66 8.232-1.06 2.81-2.55 4.741-3.861 6.431-.83 1.08-1.54 2-2.01 2.971a1988 1988 0 0 1 48.809 9.831c2.12.471 3.491 2.491 3.041 4.511l-8.802 40.068c.68-.08 1.38-.21 2.15-.35 2.191-.39 4.691-.83 7.912-.55 3.511.3 6.651 2.06 8.852 4.961 2.02 2.66 3.02 6.031 2.8 9.271l.17.15-.37 1.501c-.02.06-.03.13-.05.19-.01.07-.03.15-.05.23-.04.2-.12.42-.22.64-1.15 3.44-3.811 6.441-7.151 8.041-3.161 1.52-6.642 1.681-9.802.47-2.941-1.13-4.981-2.56-6.781-3.83a48 48 0 0 0-1.751-1.201l-9.632 43.849c-.44 2.02-2.48 3.3-4.54 2.85a1815 1815 0 0 0-43.438-8.782c.51 1.871 1.01 3.991.95 6.692-.07 3-1.441 5.791-3.871 7.861-2.67 2.281-6.311 3.481-9.982 3.371l-.11.16zm-1.08-5.281.31.04c2.75.38 5.661-.42 7.601-2.081.941-.8 2.071-2.17 2.111-4.16.05-2.271-.43-4.021-.94-5.881-.13-.471-.26-.931-.37-1.391-.311-1.23.02-2.53.89-3.45a3.8 3.8 0 0 1 3.5-1.131 1859 1859 0 0 1 44.339 8.922l9.721-44.248a3.74 3.74 0 0 1 2.051-2.561c1.09-.52 2.4-.5 3.49.06 1.321.671 2.491 1.491 3.621 2.291 1.64 1.15 3.331 2.35 5.691 3.25 2.381.911 4.501.33 5.841-.31 2.171-1.04 3.891-2.99 4.611-5.211l.12-.46c.44-2.3-.19-4.851-1.68-6.811-1.33-1.76-3.211-2.82-5.291-3-2.581-.221-4.631.14-6.621.5-1.371.24-2.791.49-4.291.53-1.19.05-2.421-.51-3.191-1.441-.74-.9-1.02-2.05-.78-3.16l8.882-40.428a1955 1955 0 0 0-48.869-9.821 4.08 4.08 0 0 1-2.641-1.731c-.56-.84-.74-1.84-.52-2.8.59-2.581 2.01-4.411 3.381-6.181 1.15-1.481 2.34-3.021 3.13-5.131.49-1.311.36-2.701-.4-4.131-1.27-2.401-4.121-4.451-7.261-5.211l-.26-.08a1 1 0 0 1-.17-.02l-.22-.03c-3.261-.46-6.742.44-8.852 2.29-1.25 1.09-1.88 2.371-1.86 3.801.02 2.24.58 3.981 1.18 5.821.7 2.15 1.42 4.371 1.04 7.081a3.6 3.6 0 0 1-1.47 2.431c-.86.63-1.981.89-3.061.7a1979 1979 0 0 0-49.249-7.621l-5.591 40.977a3.73 3.73 0 0 1-1.83 2.711c-1.05.61-2.361.7-3.501.24-1.34-.54-2.56-1.241-3.741-1.921-1.78-1.02-3.61-2.08-6.121-2.76-1.96-.54-4.05-.21-5.881.92-2.05 1.27-3.54 3.381-4.001 5.651l-.07.47c-.17 2.361.731 4.831 2.421 6.621 1.49 1.581 3.421 2.481 5.471 2.411 2.51-.04 4.481-.58 6.381-1.1 1.36-.37 2.771-.761 4.291-.931 1.2-.14 2.44.3 3.28 1.161a3.72 3.72 0 0 1 1.041 3.1l-6.131 44.919c14.882 2.11 29.895 4.42 44.648 6.891 1.31.22 2.39 1.07 2.9 2.27.5 1.17.37 2.491-.34 3.541q-.375.555-.78 1.11c-1.08 1.53-2.19 3.111-2.93 5.271-.631 1.84-.08 3.491.5 4.541 1.19 2.19 3.57 3.961 6.211 4.611l.22.07z"/><path fill="#EE6DBB" d="M151.188 314.7c-5.902-.09-9.832-6.232-9.152-11.993 0 0-.01 0-.02-.01.01-.07.03-.14.05-.22.01-.07.01-.15.02-.22.02-.11.05-.22.09-.32 1.3-5.541 6.951-9.922 12.532-8.091 4.421 1.45 6.631 3.97 9.682 5.271.78.33 1.66-.11 1.81-.92 1.031-5.812 1.551-8.722 2.581-14.533l-.23-.03c-.12-.02-.23-.06-.33-.1-5.741-1.42-10.322-6.981-8.472-12.392 1.05-3.061 2.681-5.021 4.011-6.982.51-.76.04-1.78-.9-1.94a1805 1805 0 0 0-45.739-7.041c-.73-.1-1.24-.741-1.15-1.431 2.1-15.383 4.201-30.765 6.291-46.138.11-.83-.67-1.541-1.57-1.441-3.321.371-6.201 1.971-10.912 2.041-5.351.08-9.392-4.221-10.262-9.052-.1-.55-.6-.97-1.2-1.05-5.371-.64-8.052-.95-13.433-1.54-.93-.1-1.49-1.001-1.13-1.781 1.25-2.68 3.51-4.921 4.66-8.901 1.581-5.491-3.66-10.832-9.891-11.893-.12-.04-.24-.06-.36-.08-.08 0-.16 0-.25-.01-.08 0-.16-.03-.24-.04 0 0 0 .01-.01.02-6.441-.42-12.913 3.781-12.482 9.592.31 4.191 2.12 6.781 2.78 9.692.19.83-.56 1.58-1.48 1.49a1139 1139 0 0 0-18.534-1.68c-.76-.06-1.42.45-1.48 1.14L36.326 315.66c-.06.69.46 1.3 1.15 1.36a1490 1490 0 0 1 121.283 15.803c.69.12 1.34-.33 1.46-1.02 1.24-6.962 1.851-10.432 3.091-17.393.14-.811-.52-1.521-1.35-1.481-3.321.15-6.142 1.841-10.772 1.771"/><path fill="#000" d="M158.979 335.344q-.33 0-.66-.06a1492 1492 0 0 0-121.063-15.773 3.75 3.75 0 0 1-3.42-4.061l10.142-121.552a3.7 3.7 0 0 1 1.44-2.631c.78-.6 1.74-.88 2.74-.8 6.822.58 10.452.9 16.834 1.52q-.21-.555-.45-1.17c-.77-1.96-1.63-4.181-1.86-7.171-.22-2.911.88-5.751 3.09-7.972 2.61-2.63 6.58-4.231 10.612-4.321l.1-.14 1.45.16c.08 0 .15.02.23.03.1 0 .18.01.26.02.21.02.42.06.65.12 4.321.771 8.302 3.331 10.432 6.712 1.63 2.6 2.1 5.551 1.3 8.301-.83 2.881-2.13 4.901-3.28 6.681-.22.341-.44.681-.64 1.011 4.29.47 6.95.78 11.722 1.35 1.72.21 3.07 1.44 3.36 3.081.611 3.41 3.501 6.991 7.662 6.991h.1c2.51-.04 4.481-.58 6.381-1.1 1.36-.37 2.771-.761 4.291-.931 1.2-.14 2.44.3 3.28 1.161a3.72 3.72 0 0 1 1.041 3.1l-6.132 44.919c14.883 2.11 29.896 4.42 44.649 6.891 1.31.22 2.39 1.07 2.9 2.27.5 1.17.37 2.491-.34 3.541q-.375.555-.78 1.11c-1.08 1.53-2.19 3.111-2.93 5.271-.631 1.84-.08 3.491.5 4.541 1.19 2.19 3.57 3.961 6.211 4.611l.34.08 2.53.39-3.03 17.053c-.2 1.12-.89 2.08-1.901 2.631a3.84 3.84 0 0 1-3.34.16c-1.48-.631-2.751-1.471-3.981-2.291-1.59-1.06-3.241-2.16-5.511-2.9-2.09-.691-3.911-.06-5.061.59-2.07 1.16-3.701 3.35-4.261 5.711l-.09.49c-.29 2.47.53 5.131 2.131 6.961.88 1 2.38 2.201 4.581 2.241 2.29.05 4.14-.441 5.921-.911 1.48-.39 3.01-.78 4.701-.86 1.17-.03 2.29.42 3.05 1.3.75.861 1.07 2.001.87 3.121l-3.09 17.393a3.76 3.76 0 0 1-3.701 3.101zM38.917 314.64a1503 1503 0 0 1 119.062 15.513l2.58-14.533c-.68.13-1.38.31-2.14.51-2 .52-4.281 1.1-7.261 1.07-3.151-.05-6.082-1.45-8.262-3.94-2.21-2.521-3.441-5.921-3.421-9.312l-.16-.11.24-1.53c.01-.08.03-.15.04-.22 0-.05.01-.13.03-.21.04-.22.09-.44.17-.65.911-3.671 3.381-6.942 6.642-8.772 2.87-1.61 6.081-1.95 9.071-.98 2.921.96 4.941 2.3 6.722 3.49.64.43 1.23.821 1.81 1.161l1.9-10.692c-3.3-1.241-6.101-3.601-7.711-6.542-1.49-2.74-1.79-5.771-.84-8.551.87-2.541 2.06-4.371 3.18-5.961a1870 1870 0 0 0-43.788-6.722c-2.08-.29-3.551-2.19-3.27-4.24l6.071-44.519c-.67.15-1.371.34-2.121.541-2.1.58-4.481 1.23-7.631 1.27-6.651.11-11.232-4.921-12.562-10.202-4.861-.58-7.532-.88-12.643-1.44a3.93 3.93 0 0 1-2.99-1.951 3.73 3.73 0 0 1-.13-3.38c.53-1.131 1.2-2.171 1.84-3.171 1.01-1.57 2.06-3.191 2.68-5.361.51-1.75-.12-3.281-.73-4.261-1.42-2.25-4.17-3.961-7.171-4.471l-.61-.08c-3.06-.2-6.271.911-8.172 2.831-.83.84-1.79 2.23-1.65 4.081.17 2.24.83 3.93 1.53 5.731.45 1.14.91 2.33 1.2 3.6a3.65 3.65 0 0 1-.83 3.241 3.93 3.93 0 0 1-3.32 1.29c-7.092-.69-10.722-1.02-17.383-1.58L38.947 314.67zm-1.23-.11h.01z"/><path fill="#04663A" d="m281.102 360.479 8.631-5.301a4.06 4.06 0 0 0 1.791-2.37c3.06-11.142 31.936-116.862 31.936-116.862l-8.982 3.751-33.376 120.792z"/><path fill="#000" d="M281.102 362.979c-.53 0-1.06-.17-1.501-.5a2.505 2.505 0 0 1-.91-2.66l33.376-120.793c.211-.74.741-1.34 1.451-1.64l8.981-3.751a2.49 2.49 0 0 1 2.611.43c.71.63 1.01 1.621.76 2.541-.29 1.06-28.905 105.859-31.936 116.871a6.53 6.53 0 0 1-2.89 3.841l-8.642 5.301c-.4.25-.86.37-1.31.37zm35.456-121.452-31.356 113.501 3.231-1.981c.34-.21.58-.53.68-.91 2.651-9.622 24.845-90.897 30.586-111.921z"/><path fill="#FF7B00" d="M214.119 104.441c-5.081-.27-8.241 1.161-11.822 1.341-.97.05-1.79-.711-1.64-1.531 1.07-6.04 20.974-90.747 22.044-96.788.12-.68-1.25-1.5-1.25-1.5L27.045 76.916l27.835 3.69c-2.73 32.767-5.471 78.225-8.202 110.991-.06.691.51 1.311 1.27 1.371 7.422.63 11.133.96 18.544 1.68.94.09 1.68-.68 1.47-1.53-.7-2.811-2.42-5.371-2.72-9.432-.43-5.811 6.04-10.012 12.482-9.592 0 0 0-.01.01-.02.08 0 .16.03.24.04.08 0 .16 0 .25.01.13.01.25.04.36.08 6.241 1.05 11.472 6.391 9.892 11.892-1.12 3.871-3.29 6.092-4.56 8.672-.391.78.18 1.7 1.12 1.8 5.12.561 7.67.851 12.782 1.461.8.09 1.5-.45 1.52-1.181 0-.13.01-.26.02-.38 0 0-.02 0-.02-.01 0-.07.03-.14.04-.22 0-.07 0-.15.01-.22.01-.11.04-.22.08-.33 1.11-5.581 6.921-10.152 12.992-8.491 4.561 1.25 7.052 3.52 10.142 4.781.85.34 1.811-.14 1.921-.961l5.761-42.217c.09-.691.8-1.161 1.59-1.051a1990 1990 0 0 1 50.399 7.782c.78.13 1.531-.32 1.631-1.01.57-4.151-2.201-7.122-2.251-12.533-.05-5.831 6.932-9.522 13.563-8.581 0 0 0-.01.01-.02.08.01.17.04.25.06.9-5.081 1.36-7.622 2.26-12.713.15-.82 1.17-1.26 2.051-.87 3.22 1.41 5.731 3.831 10.452 5.381 6.281 2.061 12.652-2.02 14.192-7.501.05-.1.09-.21.11-.32l.03-.22.06-.21s-.02 0-.02-.01c.83-5.741-3.671-12.173-10.482-12.533z"/><path fill="#000" d="M97.998 200.549c-.16 0-.32 0-.47-.03-5.101-.61-7.652-.9-12.763-1.46-1.28-.14-2.41-.88-3.01-1.991a3.68 3.68 0 0 1-.08-3.4c.51-1.03 1.12-1.981 1.72-2.911 1.01-1.57 2.06-3.19 2.68-5.361.51-1.75-.12-3.28-.73-4.26-1.42-2.251-4.16-3.961-7.171-4.471-.08-.01-.17-.03-.25-.05h-.36c-3.06-.2-6.261.91-8.162 2.82-.83.84-1.79 2.231-1.65 4.081.17 2.24.83 3.931 1.53 5.721.41 1.05.84 2.13 1.13 3.291.29 1.16 0 2.39-.79 3.3-.82.95-2.08 1.441-3.35 1.32-7.452-.72-11.082-1.05-18.514-1.68-2.13-.18-3.72-2-3.55-4.071 1.37-16.363 2.75-36.236 4.1-55.46 1.28-18.313 2.601-37.227 3.911-53.15l-25.475-3.37a2.51 2.51 0 0 1-2.16-2.21 2.51 2.51 0 0 1 1.63-2.621L220.62 3.633a2.5 2.5 0 0 1 2.131.2c.86.51 2.82 1.93 2.44 4.08-.55 3.09-5.651 25.155-11.052 48.52-4.621 19.983-9.382 40.577-10.692 46.738.8-.11 1.621-.27 2.521-.44 2.29-.45 4.891-.96 8.301-.78 3.831.2 7.302 1.98 9.782 5.001 2.371 2.89 3.491 6.511 3.101 10.002 0 .18-.01.36-.05.54-.01.07-.03.13-.05.2 0 .07-.02.15-.04.24-.04.21-.11.44-.2.67-1.001 3.381-3.451 6.321-6.742 8.071-3.32 1.771-7.081 2.111-10.582.961-3.15-1.031-5.381-2.401-7.341-3.611-.75-.46-1.48-.91-2.2-1.29l-1.981 11.162c-.12.66-.49 1.24-1.04 1.62s-1.23.52-1.88.4c-.05 0-.11 0-.16-.02-3.261-.46-6.742.44-8.852 2.291-1.25 1.09-1.88 2.37-1.86 3.8.02 2.241.58 3.981 1.18 5.821.7 2.151 1.42 4.371 1.04 7.082a3.6 3.6 0 0 1-1.47 2.43c-.86.63-1.981.89-3.061.7a1983 1983 0 0 0-49.249-7.621l-5.591 40.977c-.15 1.131-.82 2.121-1.83 2.711-1.05.61-2.361.7-3.501.24-1.34-.54-2.56-1.24-3.741-1.92-1.78-1.021-3.61-2.081-6.121-2.761-1.96-.54-4.05-.21-5.881.92-2.05 1.271-3.54 3.381-4.001 5.651-.02.07-.03.15-.05.22v.26c0 .08-.01.17-.01.25a3.7 3.7 0 0 1-1.28 2.691c-.71.61-1.62.94-2.56.94zm-10.932-6.261c3.66.41 6.08.68 9.882 1.13.03-.12.06-.24.09-.37.75-3.541 3.08-6.811 6.241-8.762 3.02-1.87 6.511-2.4 9.831-1.49 3.131.85 5.341 2.131 7.302 3.251.63.36 1.24.71 1.85 1.03l5.541-40.608c.28-2.06 2.271-3.49 4.401-3.19a1943 1943 0 0 1 49.239 7.591c-.09-1.1-.45-2.22-.88-3.53-.66-2.021-1.4-4.311-1.42-7.322-.02-2.86 1.24-5.561 3.57-7.601 2.721-2.381 6.672-3.681 10.692-3.641l1.861-10.472c.2-1.11.9-2.05 1.92-2.6 1.1-.58 2.451-.63 3.611-.12 1.42.62 2.7 1.41 3.941 2.17 1.82 1.12 3.7 2.271 6.291 3.121 2.2.72 4.571.5 6.671-.62 2.11-1.131 3.731-3.061 4.331-5.181.02-.07.04-.14.07-.21v-.1c0-.04 0-.09.02-.13.32-2.191-.42-4.621-1.961-6.502-1.57-1.92-3.77-3.04-6.181-3.17-2.8-.15-4.971.28-7.071.69-1.43.28-2.911.57-4.481.65-1.25.08-2.52-.45-3.341-1.38a3.68 3.68 0 0 1-.89-3.081c.55-3.08 5.651-25.154 11.052-48.519 4.461-19.303 9.052-39.177 10.542-46.058L37.467 75.806l17.743 2.35a2.5 2.5 0 0 1 2.16 2.69c-1.37 16.364-2.75 36.238-4.1 55.461-1.31 18.754-2.671 38.137-4.001 54.29 6.14.52 9.712.84 15.693 1.421-.12-.311-.24-.621-.36-.941-.77-1.96-1.64-4.18-1.86-7.171-.22-2.91.88-5.751 3.09-7.981 2.84-2.871 7.311-4.521 11.692-4.311.15-.01.31-.01.47 0 .08 0 .16.02.24.03.08 0 .17 0 .25.02.21.02.43.06.65.12 4.321.77 8.312 3.33 10.442 6.721 1.63 2.601 2.1 5.551 1.3 8.302-.83 2.88-2.14 4.9-3.29 6.681-.18.27-.35.54-.52.81z"/><path fill="#6DB5C3" d="M371.298 142.858 324.09 99.36l16.233-60.59 6.071 1.75 2.4-8.712-42.968-12.412-2.4 8.711 5.421 1.57-11.902 44.409-72.554-67.583s-1.57.29-1.69.98c-1.06 5.961-20.944 90.617-22.004 96.578-.15.82.67 1.581 1.64 1.531 3.571-.18 6.741-1.611 11.822-1.341 6.812.36 11.322 6.792 10.482 12.533 0 0 .02 0 .02.01-.01.07-.04.14-.06.21l-.03.22c-.02.11-.06.22-.11.32-1.54 5.481-7.921 9.562-14.192 7.501-4.721-1.55-7.242-3.961-10.452-5.381-.881-.39-1.911.04-2.051.87l-2.3 12.923.25.03c.13.02.25.06.37.11 6.371 1.54 11.422 7.291 9.412 12.652-1.891 5.021-5.501 6.991-6.422 10.982-.16.69.391 1.37 1.181 1.52a1977 1977 0 0 1 49.989 10.062c.77.17 1.28.86 1.13 1.541l-9.152 41.647c-.18.81.551 1.591 1.461 1.571 3.37-.09 6.411-1.431 11.182-1.021 6.391.54 10.292 7.062 9.212 12.773 0 0 .02 0 .02.01l-.06.21c-.02.07-.02.15-.04.22-.03.11-.07.21-.121.31v.01c-.23.71.211 1.49 1.011 1.68a1122 1122 0 0 1 12.722 3.091c.89.22 1.34 1.16.9 1.88-1.58 2.631-4.231 4.551-5.941 8.502-2.27 5.251 2.09 11.172 7.932 13.072.11.05.22.1.34.13.08.02.16.03.23.05.08.02.15.05.23.07l.02-.02c6.131 1.31 13.032-1.83 13.552-7.631.39-4.331-1.08-7.222-1.19-10.322-.03-.84.81-1.45 1.69-1.22 7.232 1.88 10.842 2.85 18.054 4.831.74.2 1.48-.181 1.66-.851 8.732-31.726 18.593-72.753 27.325-104.479l28.855 8.021z"/><path fill="#000" d="M284.142 257.289c-.99 0-1.99-.09-2.96-.28-.15 0-.31-.03-.46-.07-.08-.02-.16-.04-.23-.07-.08-.02-.17-.03-.25-.06a4 4 0 0 1-.611-.21c-4.08-1.37-7.491-4.331-9.131-7.951-1.271-2.801-1.331-5.801-.19-8.442 1.2-2.77 2.76-4.611 4.13-6.241.331-.39.651-.77.941-1.13a1052 1052 0 0 0-11.042-2.671 3.9 3.9 0 0 1-2.501-1.87 3.8 3.8 0 0 1-.31-3.001c0-.03.02-.06.03-.09.02-.04.03-.09.05-.13v-.05c0-.02 0-.04.01-.06 0-.05.01-.09.02-.14.44-2.3-.19-4.851-1.68-6.811-1.331-1.76-3.211-2.821-5.291-3.001-2.581-.22-4.631.14-6.621.5-1.371.241-2.791.491-4.291.531-1.18.01-2.421-.511-3.191-1.441-.74-.9-1.02-2.05-.78-3.16l8.882-40.428a1960 1960 0 0 0-48.869-9.822 4.07 4.07 0 0 1-2.641-1.73c-.56-.84-.74-1.84-.52-2.8.59-2.581 2.01-4.411 3.381-6.182 1.15-1.48 2.34-3.02 3.13-5.131.49-1.31.36-2.7-.4-4.13-1.27-2.401-4.121-4.451-7.261-5.211-.09-.02-.17-.05-.26-.08-.07 0-.12-.02-.18-.03a2.55 2.55 0 0 1-1.641-1.02 2.47 2.47 0 0 1-.42-1.881l2.301-12.922c.2-1.11.9-2.051 1.92-2.601 1.1-.59 2.451-.63 3.611-.12 1.42.62 2.7 1.411 3.941 2.171 1.82 1.12 3.7 2.27 6.291 3.12 2.2.72 4.571.5 6.681-.62 2.12-1.13 3.731-3.06 4.331-5.181.02-.07.04-.14.07-.21 0-.03 0-.05.01-.08v-.02c0-.05 0-.1.02-.14.32-2.18-.42-4.621-1.961-6.501-1.57-1.92-3.77-3.051-6.181-3.171-2.79-.15-4.971.28-7.081.69-1.43.28-2.911.571-4.481.651-1.27.05-2.52-.451-3.341-1.381a3.68 3.68 0 0 1-.89-3.08c.54-3.041 5.641-25.105 11.042-48.47 5.131-22.223 10.452-45.198 10.962-48.108.38-2.16 2.711-2.81 3.701-3 .78-.15 1.58.09 2.16.63l69.503 64.741 10.192-38.027-3.07-.89a2.507 2.507 0 0 1-1.721-3.06l2.401-8.712c.18-.64.61-1.19 1.19-1.52s1.27-.41 1.92-.22l42.968 12.412a2.51 2.51 0 0 1 1.721 3.06l-2.401 8.712a2.55 2.55 0 0 1-1.19 1.52c-.58.33-1.27.41-1.92.22l-3.621-1.05-15.183 56.67 46.089 42.479a2.494 2.494 0 0 1-2.361 4.24l-26.435-7.341c-4.17 15.293-8.651 32.806-12.992 49.779-4.571 17.894-9.302 36.397-13.673 52.28-.55 2-2.67 3.171-4.74 2.59-6.622-1.81-10.142-2.76-16.383-4.39.09.47.19.97.3 1.49.44 2.07.94 4.411.67 7.411-.26 2.921-1.801 5.561-4.331 7.422-2.441 1.8-5.671 2.77-8.922 2.77zm-2.41-5.261.15.03c2.88.61 6.111 0 8.221-1.56.961-.71 2.141-1.95 2.311-3.851.2-2.25-.18-4.04-.58-5.921-.28-1.3-.57-2.65-.62-4.081-.04-1.17.46-2.27 1.38-3.01.95-.76 2.23-1.03 3.44-.72 6.952 1.81 10.502 2.76 17.004 4.541 4.27-15.573 8.871-33.567 13.322-50.99 4.571-17.893 9.302-36.397 13.673-52.29.18-.64.6-1.18 1.18-1.51s1.26-.41 1.9-.23l18.864 5.241-39.588-36.477c-.68-.63-.96-1.59-.72-2.49l16.233-60.591c.17-.65.6-1.2 1.19-1.53a2.47 2.47 0 0 1 1.921-.22l3.64 1.05 1.071-3.891-38.167-11.032-1.071 3.89 3.051.88a2.5 2.5 0 0 1 1.72 3.051l-11.902 44.408c-.23.85-.88 1.51-1.73 1.76-.84.24-1.751.03-2.391-.57l-70.543-65.712c-1.48 6.832-5.901 25.975-10.552 46.079-4.611 19.964-9.371 40.547-10.682 46.689.8-.11 1.621-.27 2.521-.441 2.29-.45 4.901-.96 8.301-.78 3.831.2 7.302 1.981 9.782 5.001 2.371 2.891 3.491 6.511 3.101 10.002 0 .17-.01.33-.04.5-.02.08-.03.16-.05.24 0 .05-.02.12-.03.2a4 4 0 0 1-.21.7c-1.001 3.381-3.451 6.322-6.742 8.072-3.32 1.77-7.081 2.11-10.592.96-3.15-1.03-5.381-2.4-7.351-3.611-.75-.46-1.47-.91-2.2-1.29l-1.621 9.132c3.851 1.35 7.152 4.021 8.862 7.241 1.42 2.671 1.65 5.601.66 8.232-1.06 2.81-2.55 4.741-3.861 6.431-.83 1.08-1.54 2-2.01 2.971a1988 1988 0 0 1 48.809 9.831c2.12.47 3.491 2.491 3.041 4.511l-8.802 40.068c.68-.08 1.38-.21 2.15-.35 2.191-.391 4.681-.831 7.912-.551 3.511.301 6.651 2.061 8.851 4.961 2.251 2.961 3.241 6.822 2.671 10.392 0 .06 0 .13-.01.19 4.381 1.041 6.921 1.661 11.622 2.821 1.21.3 2.221 1.15 2.691 2.29.45 1.09.37 2.301-.24 3.311-.711 1.19-1.581 2.21-2.421 3.2-1.21 1.431-2.46 2.911-3.36 5.001-.741 1.711-.321 3.331.16 4.401 1.07 2.371 3.46 4.401 6.251 5.301l.24.09.11.02s.05.01.07.02z"/><path fill="#000" d="M305.736 21.746c-.97 0-1.9-.57-2.3-1.53-.54-1.27.05-2.74 1.33-3.281l9.092-3.85c1.27-.54 2.74.05 3.28 1.33s-.05 2.74-1.33 3.28l-9.092 3.85c-.32.13-.65.2-.97.2z"/><path fill="#000" d="M348.474 35.678c-.94 0-1.84-.53-2.26-1.44a2.504 2.504 0 0 1 1.2-3.33l7.401-3.481a2.504 2.504 0 0 1 2.131 4.53l-7.402 3.481c-.34.16-.71.24-1.06.24z"/><path fill="#000" d="M347.534 43.02c-.94 0-1.84-.53-2.26-1.44a2.504 2.504 0 0 1 1.2-3.331l7.401-3.481a2.504 2.504 0 0 1 2.131 4.53l-7.402 3.481c-.34.16-.71.24-1.06.24z"/><path fill="#000" d="M326.01 101.28c-.94 0-1.84-.53-2.26-1.44a2.504 2.504 0 0 1 1.2-3.33l7.401-3.481a2.504 2.504 0 0 1 2.131 4.53l-7.402 3.481c-.34.16-.71.24-1.06.24z"/><path fill="#fff" d="M18.233 332.883S7.86 341.215 3.25 345.395z"/><path fill="#000" d="M19.803 334.824c-2.45 2.12-4.9 4.26-7.311 6.411s-4.841 4.321-7.101 6.511a3.18 3.18 0 0 1-4.501-.06c-1.28-1.31-1.16-3.461.24-4.631 2.58-2.17 5.15-4.171 7.741-6.181 2.59-2 5.181-3.971 7.802-5.941 1.1-.83 2.67-.61 3.5.5.8 1.06.62 2.551-.37 3.401"/><path fill="#000" d="M26.445 338.834c-4.721 7.892-10.593 14.833-16.764 21.564-2.93 2.971-7.531-.96-5.07-4.321 1.38-1.8 2.81-3.55 4.27-5.281 4.351-5.181 8.752-10.372 13.633-15.062 2.1-1.991 5.36.61 3.92 3.09"/><path fill="#000" d="M374.699 83.567c6.411-2.15 13.032-3.64 19.634-5.091 2.2-.49 4.411-.94 6.631-1.33 1.81-.32 3.551.89 3.871 2.71.3 1.69-.75 3.32-2.371 3.78-8.831 2.351-17.693 4.332-26.875 4.862-2.91.12-3.63-4.041-.89-4.921"/><path fill="#000" d="M395.833 58.683c-.69-.89-1.87-1.32-2.981-1.02-.71.19-1.23.64-1.81 1.06-.4.3-.8.59-1.21.89l-2.311 1.71c-1.54 1.14-3.09 2.28-4.63 3.41-1.541 1.14-3.091 2.281-4.631 3.411-1.681 1.24-3.421 2.43-4.991 3.811-.8.7-1.571 1.44-2.411 2.1l-2.51 2c-.54.43-.49 1.341-.11 1.841.42.55 1.2.72 1.81.36.86-.5 1.721-1.01 2.571-1.51.82-.48 1.68-.91 2.52-1.35.85-.44 1.68-.89 2.491-1.41.8-.51 1.61-1.03 2.41-1.541 3.251-2.08 6.501-4.15 9.752-6.231l2.73-1.74c.44-.28.871-.56 1.311-.84l.68-.44c.1-.07.21-.13.31-.2.54-.35.82-.67 1.2-1.19l.29-.681c.03-.25.07-.5.1-.75 0-.63-.23-1.22-.61-1.72z"/><path fill="#000" d="M379.89 51.401c-.56-2.11-3.761-3.23-5.291-1.4l-.28.34c-2.16 2.57-3.301 6.331-4.991 9.262-1.13 1.95-2.14 3.95-3.181 5.94-.58 1.121-1.17 2.231-1.75 3.351-.14.27-.18.54-.14.79-.01.19-.03.38-.04.57-.04.59.65.87 1.11.64.13-.07.25-.13.38-.2.24-.05.47-.16.61-.33 1.401-1.72 2.801-3.43 4.201-5.15 2.841-3.48 6.461-7.251 8.752-11.062.35-.59.65-1.24.7-1.92.02-.29 0-.57-.08-.84z"/></svg>