<svg xmlns="http://www.w3.org/2000/svg" width="398" height="320" fill="none" viewBox="0 0 398 320"><path fill="#D8C4EC" d="M353.628 136.82c3.321 2.731 4.042 4.481 4.142 10.073 2.55-4.972 3.971-6.222 8.162-7.202-3.321-2.731-4.041-4.482-4.141-10.074-2.551 4.972-3.971 6.222-8.163 7.203"/><path fill="#4C4C4C" d="M357.77 149.394c-.191 0-.381-.02-.571-.07a2.5 2.5 0 0 1-1.93-2.391c-.08-5.122-.641-6.062-3.221-8.183a2.5 2.5 0 0 1-.851-2.501 2.5 2.5 0 0 1 1.871-1.871c3.251-.76 4.171-1.35 6.502-5.912a2.5 2.5 0 0 1 4.722 1.101c.08 5.122.64 6.062 3.221 8.183a2.5 2.5 0 0 1 .85 2.501c-.21.93-.94 1.65-1.87 1.87-3.252.76-4.172 1.351-6.503 5.912a2.5 2.5 0 0 1-2.22 1.361m.35-11.524c.52.72.92 1.47 1.22 2.27a9.8 9.8 0 0 1 2.091-1.5 9.7 9.7 0 0 1-1.221-2.271 9.8 9.8 0 0 1-2.09 1.501"/><path fill="#C67FE8" d="M376.446 132.088c4.512 5.512 5.112 8.593 3.451 17.696 5.752-7.242 8.473-8.823 15.596-9.053-4.512-5.512-5.112-8.593-3.452-17.696-5.752 7.242-8.472 8.823-15.595 9.053"/><path fill="#4C4C4C" d="M379.887 152.285c-.35 0-.7-.07-1.03-.22a2.5 2.5 0 0 1-1.421-2.731c1.541-8.403 1.101-10.744-2.921-15.666-.6-.74-.74-1.75-.34-2.62a2.48 2.48 0 0 1 2.201-1.461c6.352-.21 8.403-1.42 13.715-8.103.71-.9 1.95-1.2 2.991-.72a2.52 2.52 0 0 1 1.43 2.731c-1.54 8.403-1.1 10.744 2.921 15.665.601.741.741 1.751.34 2.621a2.48 2.48 0 0 1-2.2 1.461c-6.352.21-8.403 1.42-13.715 8.103-.49.61-1.21.94-1.961.94zm1.111-18.136c1.54 2.591 2.22 5.071 2.23 8.282 2.421-2.11 4.742-3.231 7.703-3.771-1.54-2.591-2.221-5.072-2.231-8.283-2.421 2.111-4.741 3.231-7.702 3.772"/><path fill="#4C4C4C" d="M354.959 107.52a64.3 64.3 0 0 1 3.621-10.264c1.63-3.391 6.662-1.13 5.202 2.34-1.721 2.942-3.331 6.103-4.552 9.294-1.06 2.601-4.922 1.351-4.271-1.37"/><path fill="#4C4C4C" d="M363.351 110.611c3.952-4.601 8.383-8.803 12.805-12.944 1.47-1.39 2.971-2.751 4.501-4.072a3.006 3.006 0 0 1 4.232.31c1.01 1.17.94 2.901-.09 4.012-5.732 5.872-11.664 11.464-18.497 16.095-2.19 1.431-4.651-1.44-2.941-3.391"/><path fill="#4C4C4C" d="M261.316 272.144a66.4 66.4 0 0 1-4.551 9.884c-1.941 3.221-6.733.51-4.962-2.811 1.981-2.771 3.881-5.772 5.392-8.833 1.29-2.491 5.022-.881 4.121 1.76"/><path fill="#4C4C4C" d="M253.253 268.284c-4.361 4.221-9.153 7.983-13.944 11.704a158 158 0 0 1-4.862 3.641 2.994 2.994 0 0 1-4.181-.7 3.01 3.01 0 0 1 .46-3.981c6.252-5.312 12.674-10.334 19.907-14.305 2.31-1.221 4.501 1.87 2.62 3.641"/><path fill="#4C4C4C" d="m19.012 120.675 52.278 21.177 147.572-84.54-203.741 59.411a7 7 0 0 0 3.891 3.942z"/><path fill="#4C4C4C" d="M71.29 144.363c-.32 0-.64-.06-.94-.18l-52.278-21.178a9.53 9.53 0 0 1-5.282-5.361 2.52 2.52 0 0 1 .09-2.011c.31-.63.87-1.101 1.54-1.291l203.741-59.41a2.504 2.504 0 0 1 3.001 1.42 2.497 2.497 0 0 1-1.06 3.151l-147.571 84.54c-.38.22-.81.33-1.24.33zm-51.898-26.269c.18.1.36.19.55.27L71.1 139.091l128.245-73.465-179.953 52.478z"/><path fill="#4C4C4C" d="m71.29 141.862 12.425 53.099L219.232 57.513z"/><path fill="#4C4C4C" d="M83.715 197.461c-.23 0-.45-.03-.68-.09a2.51 2.51 0 0 1-1.761-1.841L68.85 142.432a2.49 2.49 0 0 1 1.2-2.741l147.941-84.35a2.5 2.5 0 0 1 3.221.651 2.51 2.51 0 0 1-.2 3.281L85.495 196.721c-.48.48-1.12.75-1.78.75zm-9.564-54.359 10.974 46.866L204.737 68.656z"/><path fill="#4C4C4C" d="m98.41 154.606 65.533 32.441a6.9 6.9 0 0 0 7.502-3.771L215.48 60.893 98.42 154.606z"/><path fill="#4C4C4C" d="M165.223 189.668c-.58 0-1.17-.05-1.751-.17-.22-.04-.44-.12-.64-.22L97.3 156.837a2.51 2.51 0 0 1-1.381-1.971c-.1-.85.26-1.691.92-2.221L213.9 58.933c.88-.7 2.111-.73 3.021-.08s1.28 1.83.9 2.88l-44.035 122.373c-.03.08-.06.16-.1.24a9.43 9.43 0 0 1-8.463 5.302zm-.52-5.032c1.81.22 3.581-.71 4.431-2.351l40.985-113.909-107.088 85.72 61.672 30.53z"/><path fill="#4C4C4C" d="M83.715 197.461c-.29 0-.58-.05-.87-.16a2.5 2.5 0 0 1-1.471-3.211l14.685-39.544a2.5 2.5 0 0 1 3.211-1.47 2.5 2.5 0 0 1 1.471 3.211l-14.685 39.544a2.49 2.49 0 0 1-2.341 1.63"/><path fill="#D9ECF0" d="M15.211 116.543 70.29 138.86l148.761-81.728z"/><path fill="#4C4C4C" d="M70.29 141.361c-.32 0-.64-.06-.94-.18l-55.08-22.318c-.99-.4-1.61-1.38-1.56-2.441s.78-1.98 1.8-2.27l203.831-59.41a2.503 2.503 0 0 1 3.011 1.44 2.5 2.5 0 0 1-1.11 3.15L71.48 141.052c-.37.21-.79.31-1.2.31zm-47.466-24.428 47.306 19.166 127.754-70.184z"/><path fill="#FFFAE9" d="m70.29 138.86 12.424 53.099L219.052 57.132z"/><path fill="#4C4C4C" d="M82.714 194.22a2.26 2.26 0 0 1-2.19-1.741l-12.425-53.098a2.25 2.25 0 0 1 1.11-2.491l148.762-81.718a2.259 2.259 0 0 1 2.681 3.58L84.325 193.58c-.43.421-1 .651-1.59.651zm-9.833-54.209 11.124 47.506L205.977 66.896 72.891 140.01z"/><path fill="#D9ECF0" d="m97.41 151.605 65.532 32.441a6.9 6.9 0 0 0 7.503-3.771l48.606-123.143z"/><path fill="#4C4C4C" d="M164.223 186.667c-.581 0-1.171-.05-1.751-.17-.22-.04-.44-.12-.64-.22l-65.523-32.441a2.5 2.5 0 0 1-1.38-1.991c-.09-.86.27-1.701.95-2.221L217.52 55.152c.89-.69 2.131-.7 3.031-.03s1.24 1.87.83 2.92l-48.607 123.143c-.02.06-.05.12-.08.17a9.43 9.43 0 0 1-8.462 5.302zm-.521-5.032a4.43 4.43 0 0 0 4.452-2.38l45.216-114.55-111.279 86.42 61.611 30.5z"/><path fill="#4C4C4C" d="M83.945 197.281c-.25 0-.5-.04-.75-.11a2.497 2.497 0 0 1-1.641-3.131l13.465-43.125a2.5 2.5 0 0 1 3.13-1.641 2.497 2.497 0 0 1 1.641 3.131L86.325 195.53a2.5 2.5 0 0 1-2.39 1.761z"/><path fill="#4C4C4C" d="M2.507 218.188c-.73 0-1.45-.32-1.951-.93a2.5 2.5 0 0 1 .38-3.521l52.538-42.365a2.5 2.5 0 0 1 3.522.38 2.5 2.5 0 0 1-.38 3.521l-52.54 42.365c-.46.37-1.02.55-1.57.55"/><path fill="#4C4C4C" d="M39.44 207.584c-.73 0-1.451-.32-1.951-.93a2.5 2.5 0 0 1 .38-3.521l21.527-17.366a2.5 2.5 0 0 1 3.521.38 2.5 2.5 0 0 1-.38 3.521L41.01 207.034c-.46.37-1.02.55-1.57.55"/><path fill="#4C4C4C" d="M6.398 195.721a2.5 2.5 0 0 1-1.57-4.452l21.527-17.366a2.5 2.5 0 0 1 3.521.38 2.5 2.5 0 0 1-.38 3.521L7.968 195.17a2.5 2.5 0 0 1-1.57.551"/><path fill="#FFFAE9" d="m336.931 160.332-82.692 24.338a5.67 5.67 0 0 0-3.84 7.043l19.223 65.313a5.67 5.67 0 0 0 7.042 3.84l82.693-24.338a5.67 5.67 0 0 0 3.84-7.042l-19.223-65.314a5.673 5.673 0 0 0-7.043-3.84"/><path fill="#4C4C4C" d="M275.081 263.323c-3.421 0-6.592-2.241-7.613-5.692l-19.226-65.313c-.6-2.02-.37-4.171.65-6.032a7.85 7.85 0 0 1 4.712-3.811l82.688-24.338c4.192-1.231 8.613 1.17 9.844 5.361l19.226 65.313c.6 2.021.37 4.172-.65 6.032a7.85 7.85 0 0 1-4.712 3.812l-82.688 24.338c-.74.22-1.501.32-2.231.32zm63.452-100.985c-.32 0-.64.05-.96.14l-82.689 24.339c-.87.25-1.59.84-2.031 1.64-.44.8-.54 1.731-.28 2.591l19.227 65.313c.25.87.84 1.59 1.64 2.03a3.35 3.35 0 0 0 2.591.28l82.689-24.338c.87-.25 1.591-.84 2.031-1.641.44-.8.54-1.73.28-2.59l-19.227-65.313a3.4 3.4 0 0 0-1.64-2.031 3.4 3.4 0 0 0-1.641-.42z"/><path fill="#FFFAE9" d="M336.123 161.354 254.39 185.41a5.67 5.67 0 0 0-3.84 7.042l18.036 61.283a5.673 5.673 0 0 0 7.043 3.84l81.733-24.055a5.673 5.673 0 0 0 3.84-7.043l-18.037-61.283a5.67 5.67 0 0 0-7.042-3.84"/><path fill="#4C4C4C" d="M274.041 260.042a7.84 7.84 0 0 1-3.792-.981c-1.86-1.02-3.221-2.69-3.811-4.711l-18.036-61.281a7.84 7.84 0 0 1 .65-6.032c1.02-1.861 2.691-3.222 4.712-3.812l81.728-24.058a7.9 7.9 0 0 1 6.032.65 7.85 7.85 0 0 1 3.811 4.712l18.037 61.281c1.23 4.191-1.171 8.613-5.372 9.843l-81.729 24.059c-.74.22-1.49.32-2.24.32zm63.682-96.684c-.32 0-.64.05-.961.14l-81.728 24.059c-.87.25-1.59.84-2.031 1.64a3.36 3.36 0 0 0-.28 2.591l18.037 61.281c.25.871.84 1.591 1.64 2.031s1.731.54 2.591.28l81.728-24.058a3.42 3.42 0 0 0 2.031-1.641c.44-.8.54-1.72.28-2.591l-18.036-61.281c-.25-.87-.84-1.59-1.641-2.03a3.4 3.4 0 0 0-1.64-.421z"/><path fill="#FFFAE9" d="m359.77 228.961-51.317-25.939a9.69 9.69 0 0 0-11.094 3.361L271 255.96"/><path fill="#4C4C4C" d="M271 258.221a2.245 2.245 0 0 1-1.991-3.311l26.359-49.577c.05-.1.11-.19.17-.28 3.121-4.232 8.743-5.942 13.685-4.142.09.03.17.07.25.11l51.318 25.939a2.26 2.26 0 0 1 1 3.031 2.26 2.26 0 0 1-3.031 1.001l-51.188-25.879c-2.991-1.031-6.372 0-8.293 2.501l-26.269 49.427c-.41.76-1.19 1.2-1.99 1.2z"/><path fill="#FFFAE9" d="m251.503 189.728 51.318 25.938a9.69 9.69 0 0 0 11.094-3.361l26.359-49.577"/><path fill="#4C4C4C" d="M306.082 218.497c-1.351 0-2.711-.23-4.032-.71-.08-.03-.17-.07-.25-.11l-51.317-25.939a2.26 2.26 0 0 1-1.001-3.031 2.26 2.26 0 0 1 3.031-1l51.188 25.879c3.001 1.03 6.372.01 8.293-2.501l26.279-49.427a2.25 2.25 0 0 1 3.051-.931c1.1.58 1.521 1.951.93 3.051l-26.359 49.577c-.05.101-.11.191-.17.281-2.291 3.111-5.922 4.851-9.653 4.851z"/><path fill="#4C4C4C" d="M299.129 164.219c-.38 0-.76-.11-1.1-.33l-.37-.25a1.994 1.994 0 0 1-.51-2.781 1.993 1.993 0 0 1 2.78-.51l.301.2a2.001 2.001 0 0 1-1.101 3.671m-6.952-7.633c-.67 0-1.331-.34-1.711-.96l-.22-.37a2.003 2.003 0 0 1 .7-2.741 1.994 1.994 0 0 1 2.741.7l.19.32a2 2 0 0 1-.66 2.751c-.33.2-.69.29-1.04.29zm-4.232-9.473c-.85 0-1.64-.55-1.91-1.401l-.12-.4c-.32-1.06.27-2.17 1.33-2.501a2.007 2.007 0 0 1 2.501 1.331l.11.36a2.002 2.002 0 0 1-1.911 2.601zm-2.16-10.174a2 2 0 0 1-1.981-1.76l-.05-.43a2 2 0 0 1 1.78-2.191 1.99 1.99 0 0 1 2.191 1.781l.04.37c.13 1.1-.65 2.09-1.75 2.22-.08 0-.16.01-.24.01zm.06-10.373c-.09 0-.19 0-.281-.02a1.993 1.993 0 0 1-1.7-2.261l.06-.43a2.013 2.013 0 0 1 2.281-1.671 2 2 0 0 1 1.67 2.281l-.05.37a2 2 0 0 1-1.98 1.721zm3.521-9.693c-.37 0-.73-.101-1.071-.311a2.006 2.006 0 0 1-.62-2.761l.23-.36a2.003 2.003 0 1 1 3.361 2.181l-.2.31c-.38.6-1.03.931-1.69.931zm6.532-8.063c-.51 0-1.02-.2-1.41-.59a2.003 2.003 0 0 1 0-2.831l.29-.291c.79-.78 2.05-.77 2.831.01.78.791.77 2.051-.01 2.831l-.28.271c-.391.39-.901.59-1.411.59zm7.923-6.733a2 2 0 0 1-1.611-.81 2.01 2.01 0 0 1 .42-2.8l.321-.24a2.006 2.006 0 0 1 2.8.42c.661.89.461 2.14-.42 2.8l-.32.24c-.36.26-.77.39-1.18.39zm8.653-5.782c-.68 0-1.341-.34-1.711-.96-.57-.94-.27-2.17.67-2.75l.321-.201c.94-.58 2.17-.29 2.751.64.58.94.29 2.171-.641 2.751l-.36.22c-.32.2-.68.29-1.04.29zm8.933-5.321a2.02 2.02 0 0 1-1.721-.97 1.99 1.99 0 0 1 .691-2.742l.36-.21c.96-.56 2.18-.24 2.741.72a2 2 0 0 1-.721 2.741l-.33.19c-.32.19-.67.28-1.02.28zm8.873-5.452a2.002 2.002 0 0 1-1.09-3.681l.32-.21a2 2 0 1 1 2.2 3.34l-.34.23c-.34.22-.71.32-1.09.32m-49.097-1.13h-.21a2.007 2.007 0 0 1-1.971-2.031c.02-1.1.931-1.961 2.031-1.971h.37c1.09 0 1.981.88 2.001 1.97a2.014 2.014 0 0 1-1.971 2.031zm-9.963-1.841c-.221 0-.441-.04-.661-.11l-.39-.14a2.005 2.005 0 0 1-1.21-2.561 2.005 2.005 0 0 1 2.561-1.21l.36.13c1.04.36 1.59 1.5 1.23 2.55-.29.82-1.06 1.34-1.89 1.34m19.826-.53a2.004 2.004 0 0 1-.9-3.791l.35-.17a1.996 1.996 0 0 1 2.691.88 2 2 0 0 1-.88 2.69l-.37.19c-.29.14-.59.21-.891.21zm47.647-2.601a2.002 2.002 0 0 1-1.251-3.561l.281-.23a2 2 0 0 1 2.821.26 2 2 0 0 1-.261 2.82l-.33.27c-.37.3-.81.44-1.25.44zm-76.537-1.881c-.45 0-.9-.15-1.27-.45l-.33-.28a2 2 0 0 1-.23-2.821c.71-.84 1.97-.95 2.821-.23l.28.24a2 2 0 0 1 .28 2.81c-.4.48-.97.73-1.551.73m37.003-1.9c-.45 0-.89-.15-1.27-.45a2 2 0 0 1-.28-2.812l.24-.29c.69-.86 1.95-1 2.811-.31a2 2 0 0 1 .31 2.81l-.26.331c-.39.48-.971.73-1.551.73zm47.016-3.432c-.46 0-.93-.16-1.31-.49-.84-.72-.93-1.99-.21-2.821l.25-.29c.71-.84 1.971-.95 2.821-.23.84.71.95 1.97.23 2.82l-.27.32c-.4.461-.95.691-1.511.691m-90.411-2.76c-.75 0-1.46-.421-1.8-1.131l-.18-.39a2 2 0 0 1 .98-2.651c1-.46 2.191-.02 2.651.98l.16.33c.48 1 .06 2.19-.94 2.671-.281.13-.571.2-.861.2zm47.837-3.092c-.12 0-.25-.01-.37-.03a2.006 2.006 0 0 1-1.601-2.33l.06-.33a2.007 2.007 0 0 1 2.281-1.672 2 2 0 0 1 1.67 2.281c-.02.15-.05.3-.08.45a2 2 0 0 1-1.96 1.631m48.356-2.75a2 2 0 0 1-1.79-2.891l.17-.351c.49-.99 1.691-1.4 2.671-.92.99.48 1.41 1.68.92 2.67l-.18.37a2.01 2.01 0 0 1-1.791 1.111zm-98.524-4.212c-1.07 0-1.96-.85-2-1.931v-.41c-.04-1.1.82-2.03 1.93-2.06 1.151-.04 2.031.84 2.061 1.94v.38c.05 1.1-.81 2.03-1.911 2.07h-.07zm49.017-3.232c-.79 0-1.54-.47-1.85-1.25l-.14-.34a2 2 0 0 1 1.07-2.621 2 2 0 0 1 2.621 1.07l.16.39a1.993 1.993 0 0 1-1.1 2.601q-.375.15-.751.15zm52.709-2.42c-.11 0-.21 0-.321-.03a2 2 0 0 1-1.65-2.291l.06-.38a2.007 2.007 0 0 1 2.281-1.67 2 2 0 0 1 1.67 2.28l-.07.41c-.16.98-1.01 1.68-1.97 1.68m-127.334-4.052c-.671 0-1.311-.33-1.691-.93a2 2 0 0 1 .63-2.761l.34-.21c.941-.59 2.171-.3 2.761.63s.3 2.17-.63 2.761l-.33.21c-.33.21-.7.31-1.06.31zm26.379-.66c-.11 0-.22 0-.32-.03a2 2 0 0 1-1.651-2.29l.07-.41a2.01 2.01 0 0 1 2.311-1.642c1.09.19 1.82 1.22 1.64 2.311l-.06.38a2.005 2.005 0 0 1-1.97 1.681zm42.354-1.35c-.5 0-.99-.18-1.38-.55l-.26-.24a1.996 1.996 0 0 1-.13-2.832c.74-.82 2.01-.88 2.831-.13l.32.3a2.001 2.001 0 0 1-1.381 3.451m-59.67-3.062c-.741 0-1.451-.41-1.801-1.12a2 2 0 0 1 .92-2.67l.37-.18a1.997 1.997 0 0 1 2.671.94c.481 1 .06 2.19-.94 2.67l-.35.17c-.28.14-.58.2-.88.2zm118.501-1.25a2 2 0 0 1-1.981-1.78l-.04-.38a2 2 0 0 1 1.751-2.221c1.09-.14 2.09.66 2.22 1.75l.05.41c.12 1.1-.67 2.091-1.77 2.211-.08 0-.15.01-.22.01zm-67.514-1.32c-.26 0-.53-.05-.79-.17l-.35-.15a2 2 0 0 1-1.07-2.621c.43-1.02 1.6-1.5 2.62-1.07l.391.16a2.004 2.004 0 0 1-.801 3.84zm-41.314-1.22a2.002 2.002 0 0 1-.57-3.921l.4-.121a2.001 2.001 0 0 1 1.12 3.841l-.37.11c-.19.06-.38.08-.57.08zm31.331-1.611c-.1 0-.21 0-.31-.02l-.4-.06a2 2 0 0 1-1.671-2.281 2.007 2.007 0 0 1 2.281-1.67l.4.06a2 2 0 0 1 1.671 2.28 1.99 1.99 0 0 1-1.971 1.69m-21.318-.31c-.19 0-.39-.03-.58-.09a2 2 0 0 1-1.33-2.501l.12-.38a2 2 0 0 1 2.501-1.331c.22.07.42.17.59.3.68.26 1.19.89 1.26 1.66a2 2 0 0 1-1.78 2.191h-.04c-.23.1-.48.15-.741.15m10.954-.53h-.43a2.01 2.01 0 0 1-1.971-2.041 2.01 2.01 0 0 1 2.001-1.971h.44c1.101.03 1.981.95 1.961 2.05a2.005 2.005 0 0 1-2.001 1.961m85.45-5.102c-.81 0-1.581-.5-1.881-1.31l-.13-.351a2 2 0 0 1 1.151-2.58 2 2 0 0 1 2.58 1.15l.15.4a2 2 0 0 1-1.88 2.69zm-92.742-4.102c-.28 0-.56-.06-.831-.18-1-.46-1.44-1.65-.98-2.65l.18-.39a2.005 2.005 0 0 1 3.621 1.719l-.16.34a2.01 2.01 0 0 1-1.82 1.171zm88.05-5.152c-.65 0-1.29-.32-1.67-.9l-.21-.32a2.006 2.006 0 0 1 .54-2.781c.92-.62 2.161-.37 2.781.54l.23.35a2.002 2.002 0 0 1-1.671 3.101zm-82.808-3.82c-.421 0-.851-.131-1.211-.411a1.996 1.996 0 0 1-.38-2.801l.26-.34a2.004 2.004 0 0 1 2.811-.34c.87.68 1.02 1.94.34 2.81l-.23.29c-.39.521-.99.791-1.59.791m76.116-4.122c-.48 0-.97-.17-1.351-.53l-.29-.26a2 2 0 0 1-.13-2.832 1.997 1.997 0 0 1 2.831-.13l.3.28a2.005 2.005 0 0 1-1.35 3.481zm-68.544-2.961c-.63 0-1.25-.3-1.64-.86a1.99 1.99 0 0 1 .5-2.782l.34-.23c.91-.62 2.161-.39 2.781.52s.39 2.161-.52 2.781l-.32.22c-.351.24-.751.36-1.141.36zm60.121-3.092c-.32 0-.63-.07-.93-.23l-.34-.18a2.003 2.003 0 0 1 1.85-3.55l.37.19c.981.52 1.351 1.73.831 2.7a1.99 1.99 0 0 1-1.771 1.06zm-50.948-1.77a2.005 2.005 0 0 1-.75-3.861l.38-.15c1.031-.4 2.191.1 2.591 1.13s-.1 2.19-1.13 2.59l-.36.14c-.24.1-.501.15-.741.15zm41.275-2.01c-.18 0-.36-.02-.541-.08l-.37-.1a2 2 0 0 1-1.4-2.462 2.006 2.006 0 0 1 2.461-1.4l.4.11c1.06.3 1.68 1.4 1.39 2.47a2.004 2.004 0 0 1-1.92 1.461zm-31.321-.931c-.931 0-1.771-.65-1.961-1.6a2.004 2.004 0 0 1 1.561-2.361l.39-.08c1.08-.22 2.141.48 2.361 1.56a2.005 2.005 0 0 1-1.561 2.36l-.39.08c-.13.03-.27.04-.4.04m21.107-.99c-.07 0-.14 0-.21-.01l-.4-.04a1.99 1.99 0 0 1-1.781-2.191 1.973 1.973 0 0 1 2.191-1.78l.4.04a2 2 0 0 1-.2 3.99zm-10.794-.3c-1.06 0-1.94-.83-2-1.901a2 2 0 0 1 1.89-2.1l.41-.02a2.02 2.02 0 0 1 2.091 1.91c.05 1.1-.81 2.04-1.91 2.09l-.381.02z"/><path fill="#4C4C4C" d="M273.991 318.693c.67.73.43.35.5.46l.05.02h-.02c-3.141-.58-8.033-1.52-11.204-2.17-4.692-1.061-10.274-1.811-14.485-4.252-4.042-2.001-5.172-6.422-.38-8.373 5.011-1.71 10.253-1.58 15.255-1.77.97 0 3.461 0 4.402.01.9.03 1.49-.05 1.99-.171-.2.111-.44.741-.37.941-.78-1.471-2.661-2.951-4.321-4.252-1.981-1.6-4.262-2.721-6.083-4.591-1.42-1.351-1.98-3.972-.13-5.472 1.581-1.291 3.362-1.511 5.102-1.801 2.551-.43 5.442-.24 7.883-.61-.02.02-.16.18-.17.33-.02.15.01.17 0 .11-.01-.14-.19-.48-.4-.79-.45-.65-1.091-1.331-1.751-1.971-1.28-1.26.51-3.251 1.901-2.111 1.87 1.451 5.112 4.702 2.431 7.003-1.351.95-2.381.86-3.682 1.04-2.801.37-6.322.48-8.583 1.821.07.03.27-.51.19-.69-.06-.18.04.05.271.24.54.52 1.23.95 1.94 1.39 3.141 2.001 5.932 3.702 8.583 6.613.66.81 1.361 1.81 1.551 3.051.54 3.701-3.492 4.931-6.362 4.771-.911.01-3.362.04-4.302.07-4.582.21-9.283.12-13.465 1.461-.83.36-.22.23-.11-.47.08-.401-.04-.761-.09-.851-.12-.19.02.05.25.22 2.411 1.741 5.482 2.741 8.363 3.542 5.482 1.63 10.974 3.241 16.296 5.351l.19.08.12.05.07.03.09.041c.08.12-.14-.261.54.48.761 1.34-1.22 2.531-2.04 1.2"/></svg>