<svg xmlns="http://www.w3.org/2000/svg" width="265" height="350" fill="none" viewBox="0 0 265 350"><path fill="#F295FF" d="M195.854 314.635c.036.284.072.567.119.85 2.299 3.562 3.981 7.225 5.287 11.227 1.062 3.325 1.739 6.821 1.853 10.376 4.203-.485 8.206-1.177 11.62-1.866l-.12-.089a25.8 25.8 0 0 1-1.375-5.667 1.593 1.593 0 0 1 1.428-1.743c2.072-.146 4.036 4.537 4.176 6.615a147 147 0 0 0 4.621-1.134c-.117-10.466-6.426-17.636-6.493-17.71a2.2 2.2 0 0 1-.507-.992c-.766-3.521-.753-6.86-.521-9.442-6.209 3.883-12.98 7.055-20.088 9.575"/><path fill="#F295FF" d="M91.241 313.166q-.633-.225-1.264-.457c.021 1.081.057 2.157.132 3.224l.016.138.004.008c.052.136.228.503.402.827 3.063 5.484 6.033 11.627 6.119 18.054 9.418 1.304 16.366 1.074 21.125.441a37 37 0 0 1-1.347-5.944c-.199-1.485 1.729-2.36 2.721-1.269 1.089 1.056 2.825 4.172 2.902 6.435a26 26 0 0 0 2.895-.85c.254-3.997-1.359-9.977-2.79-13.183-10.523-1.435-20.934-3.754-30.915-7.424"/><path fill="#000" d="M117.06 38.929c.283.296.603.556.974.765.084.047.178.088.269.131.677.424 1.631.97 3.019 1.728l.262.144c.665.375 1.38.55 2.133.55 5.01 0 11.692-7.75 16.316-15.945 5.237-9.278 8.634-20.655 3.718-23.704-.623-.387-3.263-1.849-3.626-2.05l-.018-.01-.037-.016c-5.092-2.784-13.095 6.027-18.396 15.42-4.697 8.324-7.899 18.222-5.084 22.403.108.191.243.373.47.584m20.809-34.603q.064 0 .117.01c.83.917.466 7.636-5.286 17.828-5.799 10.276-11.41 14.04-12.508 13.762-.856-.829-.533-7.573 5.265-17.848 5.585-9.897 10.991-13.752 12.412-13.752"/><path fill="#F295FF" d="M31.837 174.79c-4.3-10.917-14.917-12.45-18.723-12.635a197 197 0 0 0-1.578 7.891c-.091.518-.012.903.264 1.286.955 1.321 3.672 1.985 4.549 2.114q.24.037.46.123c5.22-1.248 10.345-.504 15.028 1.221"/><path fill="#F295FF" d="M20.719 201.59c-1.464.086-2.931-.343-4.203-1.275-2.13-1.562-3.221-4.177-2.779-6.661.496-2.779 2.321-6.176 8.208-6.573 1.08-.074 2.212.116 3.38.496a88 88 0 0 1 3.663-7.597c.255-.47.532-.919.794-1.382-7.168-2.447-13.713-1.505-19.52 2.855-4.478 3.362-6.522 8.354-5.755 14.058.933 6.938 5.749 13.432 11.712 15.791.797.315 1.703.587 2.695.751a85 85 0 0 1 1.804-10.463"/><path fill="#F295FF" d="M243.525 263.833a37 37 0 0 1-3.502.584c-.208.024-.408.033-.615.054-16.46 2.881-33.701-1.553-46.596-12.382-1.974-1.631-3.849-3.491-5.142-5.751a1.574 1.574 0 0 1 2.262-2.079c3.948 2.83 7.291 6.153 11.461 8.619 5.783 3.599 12.223 6.048 18.904 7.303a26 26 0 0 1-2.366-1.825c-11.789-10.272-13.467-30.48-13.642-38.691a7.16 7.16 0 0 1 5.699-7.164l35.453-7.369a17.5 17.5 0 0 1-3.716-2.963c-1.244-1.327-2.239-2.716-2.983-4.409a1.817 1.817 0 0 1 .948-2.388c.91-.4 1.886.03 2.363.834.217.322.455.632.694.939 6.808-6.217 4.116-13.88.179-22.497a84 84 0 0 1-1.362-3.079c-3.579-8.751-5.72-13.799-6.692-16.061-2.359.353-7.584 1.531-14.602 5.357 5.986 5.865 11.118 12.602 15.11 20.004 1.678 3.053 3.844 6.179 3.648 9.819a1.41 1.41 0 0 1-2.299.94c-1.53-1.194-2.175-2.721-2.957-4.202-4.717-10.681-11.945-20.186-20.903-27.668-16.998-14.11-38.693-20.336-60.451-22.957a23 23 0 0 1-1.242 4.606c2.545.31 5.152.685 7.833 1.137a2.171 2.171 0 0 1 .699 4.038l-5.507 3.079a2.17 2.17 0 0 1-1.318.261c-.205-.025-17.177-2.008-38.822-1.317-.689.034-1.246.048-1.326.044-4.198.154-8.559.41-13 .802-.97.091-1.902-.5-2.236-1.43a2.174 2.174 0 0 1 .818-2.526l5.617-3.845a2.17 2.17 0 0 1 1.074-.374l.529-.037a23.3 23.3 0 0 1-1.149-4.076c-38.922 6.227-72.82 27.861-80.304 68.631-1.956 10.688-2.525 21.665-2.064 32.565.841 17.261 3.975 34.682 11.323 50.375 1.158 2.409 2.698 5.687 3.638 8.13 5.289 13.309 9.745 26.897 14.143 40.5 3.253.556 6.514 1.07 9.802 1.361 7.384.734 14.854.788 22.242.076-.341-2.084-.646-4.241-1.038-6.274-.375-1.596 1.716-2.592 2.715-1.316 1.55 1.994 2.345 4.345 2.748 6.77l.047.295c.271-.038.544-.067.816-.107a74 74 0 0 0 3.98-.72c.436-7.189-3.496-13.534-6.52-19.936-.082-.2-.201-.768-.212-1.068-.174-2.012-.109-3.985-.03-5.887.171-3.356.519-6.663 1.25-9.957a1.375 1.375 0 0 1 2.714.181c.26 2.439.296 4.901.304 7.356.919.351 1.837.7 2.761 1.026 12.672 4.674 26.056 7.102 39.487 8.309 4.045.354 8.187.569 12.379.645-.237-3.49-.401-7.188.632-10.489a1.112 1.112 0 0 1 2.105-.07c.502 1.349.78 2.699 1 4.043.368 2.288.651 5.631.921 7.965.859 6.184 1.73 12.518 4.28 18.239 7.128 2.779 15.283 2.959 22.942 2.735 4.571-.189 9.176-.612 13.748-1.226-.329-2.319-.611-4.741-1.058-6.973a1.539 1.539 0 0 1 2.715-1.316c1.649 2.29 2.502 4.911 2.768 7.639 1.533-.25 3.057-.527 4.575-.818-.034-3.334-.654-6.694-1.691-9.936-1.175-3.667-2.93-7.419-5.03-10.591-.668-1.353-.792-2.967-.977-4.442-.278-2.266-.341-13.456 3.588-11.805.629.311.954.951.931 1.607-.085 2.574-.338 5.174-.373 7.767 17.758-6.455 33.274-17.429 42.885-34.622 1.996-3.655 3.658-7.702 4.995-11.992m-35.464-65.744a2.173 2.173 0 0 1 3.005-.389c.125.084 1.544.976 4.688.679 3.187-.297 4.336-1.466 4.383-1.516.764-.925 2.108-1.029 3.034-.266s1.033 2.16.27 3.086c-.214.26-2.237 2.551-7.283 3.022q-.852.078-1.605.077c-3.941 0-5.904-1.455-6.138-1.641a2.17 2.17 0 0 1-.354-3.052m-22.445 1.857a2.17 2.17 0 0 1 3.005-.39c.125.084 1.544.973 4.688.679 3.188-.298 4.337-1.466 4.384-1.516.764-.924 2.109-1.029 3.033-.266.926.763 1.033 2.161.271 3.086-.215.26-2.237 2.551-7.284 3.022q-.85.077-1.604.076c-3.941 0-5.904-1.454-6.139-1.639a2.173 2.173 0 0 1-.354-3.052m-59.197 12.247c-3.886-6.939-4.488-15.251-2.779-22.578.915-5.055.411-10.526-.572-15.623a57 57 0 0 0-1.314-5.182c-.365-1.542 1.048-2.758 2.095-3.287 9.957-4.161 27.561-1.375 37.219 3.024 3.996 1.781 7.797 4.128 11.046 7.155a1.557 1.557 0 0 1-2.107 2.294c-9.249-8.145-22.251-10.914-34.324-10.734-3.313.16-6.821.319-9.839 1.642.374 1.47.67 2.901.937 4.374 1.013 5.621 1.53 11.272.475 17.015-.742 3.472-.986 6.821-.538 10.315 2.024 15.831 15.124 21.808 29.426 16.428 2.854-1.382 5.482-3.669 7.313-6.414.975-1.454 3.24-.24 2.6 1.367-1.868 4.713-5.977 8.573-10.926 10.034-10.921 3.087-22.913.698-28.712-9.83"/><path fill="#000" d="M185.97 202.998c.235.185 2.198 1.639 6.139 1.639q.753.002 1.604-.076c5.047-.471 7.069-2.762 7.284-3.022.762-.925.655-2.323-.271-3.086-.924-.763-2.269-.658-3.033.267-.047.049-1.196 1.218-4.384 1.515-3.144.294-4.562-.595-4.688-.679a2.172 2.172 0 0 0-2.651 3.442"/><path fill="#000" d="M208.415 201.141c.234.186 2.197 1.64 6.138 1.64q.753.002 1.605-.076c5.046-.471 7.069-2.763 7.283-3.022.763-.926.655-2.323-.27-3.086-.926-.763-2.27-.659-3.034.266-.047.05-1.196 1.219-4.383 1.516-3.144.297-4.563-.595-4.688-.679a2.173 2.173 0 0 0-2.651 3.441"/><path fill="#DB00F8" d="M260.58 228.505c-.412-8.226-2.275-15.925-3.349-19.783a1.694 1.694 0 0 0-1.977-1.193l-44.382 9.226a2.815 2.815 0 0 0-2.24 2.818c.162 7.633 1.671 26.374 12.153 35.508 4.84 4.216 11.144 5.909 18.735 5.02 7.395-.861 12.911-3.927 16.395-9.112 3.575-5.322 5.144-12.887 4.665-22.484m-29.585-5.888c1.414-.177 2.67.976 3.714 3.433.812 1.911 1.45 4.484 1.797 7.244s.365 5.41.052 7.463c-.403 2.638-1.328 4.067-2.749 4.245q-.143.018-.284.018c-1.304 0-2.456-1.159-3.431-3.451-.811-1.911-1.449-4.483-1.796-7.243-.144-1.146-1.292-11.207 2.697-11.709m21.855 15.211c-.403 2.639-1.328 4.067-2.749 4.246a2 2 0 0 1-.283.018c-1.304 0-2.457-1.16-3.431-3.451-.812-1.911-1.45-4.484-1.797-7.244-.144-1.145-1.292-11.206 2.697-11.709 3.985-.51 5.368 9.532 5.512 10.677.347 2.76.365 5.411.051 7.463"/><path fill="#000" d="M261.416 207.557c-.848-3.046-3.941-4.925-7.046-4.281l-.266.055c-.109-.009-.22-.009-.329-.022-.674-.122-1.37-.145-2.022-.34-2.159-.452-4.166-1.437-5.916-2.767 9.492-8.854 4.23-20.377 1.04-27.359a84 84 0 0 1-1.292-2.918c-5.148-12.588-7.343-17.568-7.364-17.617a2.17 2.17 0 0 0-1.988-1.295l-.031.001c-.363.005-7.885.206-19.273 6.734a85 85 0 0 0-18.944-12.627c-14.189-6.969-29.629-10.678-45.27-12.555a24 24 0 0 0-.059-1.301c-.878-11.729-10.297-20.811-21.693-21.626a23.6 23.6 0 0 0-5.31-.206c-12.351.925-21.768 11.315-21.682 23.523-27.022 4.252-53.024 15.911-69.155 37.867-6.134-11.897-19.073-12.95-21.915-13.034-1.444-.042-3.076-.091-3.603 1.56q-.045.14-.07.281c-.175.762-1.176 5.14-1.971 9.664-.294 1.673.063 3.262 1.032 4.596.642.883 1.497 1.568 2.397 2.103a28 28 0 0 0-3.031 1.986c-5.792 4.348-8.439 10.78-7.453 18.111 1.132 8.424 7.061 16.341 14.42 19.251 1.305.517 2.623.85 3.942 1.038a83 83 0 0 0-.096 2.231c-2.199 25.788 1.709 52.753 13.16 75.757 1.741 3.983 3.306 8.039 4.81 12.136 3.142 8.575 6.09 17.253 8.931 25.957-9.196 1.649-14.478 3.571-14.478 5.624 0 6.121 46.9 11.083 104.753 11.083s104.754-4.962 104.754-11.083c0-1.909-4.563-3.705-12.596-5.273-.221-10.464-5.641-17.84-7.201-19.751-.99-5.129-.095-9.845.239-11.305 12.948-9.391 22.884-22.296 27.421-39.354 4.719-1.871 8.493-4.872 11.259-8.99 9.357-13.926 4.443-36.706 1.896-45.854m-146.601-86.999a18.97 18.97 0 0 1 13.045-6.584 18.97 18.97 0 0 1 13.88 4.569 18.97 18.97 0 0 1 6.584 13.046 18.97 18.97 0 0 1-3.797 12.923c-2.37-.174-8.168-.531-15.99-.555l-.949-.001c-6.581 0-11.582.204-13.731.309a18.97 18.97 0 0 1-3.611-9.827 18.97 18.97 0 0 1 4.569-13.88M11.536 170.045a197 197 0 0 1 1.578-7.89c3.806.185 14.423 1.718 18.722 12.635-4.682-1.725-9.807-2.469-15.027-1.221a2 2 0 0 0-.46-.123c-.877-.129-3.594-.793-4.549-2.115-.276-.382-.355-.767-.264-1.286m7.378 42.008a13.2 13.2 0 0 1-2.695-.751c-5.963-2.359-10.779-8.853-11.712-15.791-.767-5.704 1.277-10.696 5.756-14.057 5.806-4.36 12.35-5.303 19.52-2.856-.264.463-.54.912-.795 1.382a88 88 0 0 0-3.663 7.597c-1.168-.38-2.3-.57-3.38-.495-5.887.396-7.712 3.793-8.208 6.572-.442 2.484.648 5.099 2.78 6.661 1.271.932 2.738 1.361 4.201 1.275a85 85 0 0 0-1.804 10.463m2.438-15.054c-.969.508-1.768.178-2.267-.188-.793-.581-1.222-1.543-1.07-2.395.286-1.608 1.082-2.733 3.992-2.983.353.836.713 2.149.628 3.325q-.245.756-.474 1.517a2.2 2.2 0 0 1-.81.724m68.777 119.08-.004-.008-.016-.138a64 64 0 0 1-.132-3.224q.631.232 1.264.457c9.981 3.67 20.392 5.989 30.915 7.425 1.431 3.205 3.043 9.185 2.79 13.182-.641.234-1.604.542-2.895.851-.077-2.263-1.813-5.38-2.902-6.436-.992-1.091-2.92-.216-2.721 1.269a37 37 0 0 0 1.347 5.945c-4.759.632-11.707.862-21.125-.441-.086-6.428-3.056-12.571-6.12-18.055a10 10 0 0 1-.401-.827m45.515 10.922q-3.528 0-6.998.026a45 45 0 0 0-1.59-5.83q2.382.266 4.767.478c4.285.427 8.68.682 13.135.756.186 1.545.422 3.108.699 4.621a1000 1000 0 0 0-10.013-.051m87.819 6.203c-1.069.282-2.66.685-4.621 1.134-.14-2.078-2.104-6.761-4.176-6.615a1.594 1.594 0 0 0-1.429 1.743 25.8 25.8 0 0 0 1.376 5.667l.12.089c-3.414.689-7.417 1.381-11.62 1.865-.114-3.554-.791-7.05-1.853-10.375-1.306-4.002-2.988-7.665-5.287-11.227a20 20 0 0 1-.119-.85c7.108-2.52 13.879-5.692 20.088-9.575-.232 2.582-.245 5.921.521 9.442.079.367.257.712.507.992.067.074 6.376 7.244 6.493 17.71m15.067-57.379c-9.61 17.193-25.127 28.167-42.885 34.622.035-2.593.288-5.193.373-7.767.023-.656-.302-1.296-.931-1.607-3.929-1.651-3.866 9.539-3.588 11.805.185 1.475.309 3.089.977 4.442 2.1 3.172 3.855 6.924 5.03 10.591 1.037 3.242 1.657 6.602 1.691 9.936-1.518.291-3.042.568-4.575.818-.265-2.728-1.119-5.349-2.768-7.639a1.539 1.539 0 0 0-2.715 1.316c.447 2.232.729 4.654 1.058 6.973a150 150 0 0 1-13.748 1.226c-7.659.224-15.814.044-22.942-2.735-2.55-5.721-3.421-12.055-4.28-18.239-.27-2.333-.553-5.677-.921-7.965-.22-1.344-.498-2.694-1-4.043a1.11 1.11 0 0 0-2.105.07c-1.033 3.302-.869 6.999-.632 10.489a180 180 0 0 1-12.379-.645c-13.431-1.207-26.815-3.635-39.487-8.309a112 112 0 0 1-2.76-1.026c-.009-2.455-.045-4.917-.305-7.356a1.374 1.374 0 0 0-2.714-.181c-.731 3.294-1.079 6.601-1.25 9.957-.079 1.902-.144 3.875.03 5.887.011.3.13.868.213 1.068 3.023 6.402 6.956 12.747 6.519 19.936a74 74 0 0 1-3.98.72c-.272.041-.544.069-.816.107q-.022-.15-.047-.295c-.403-2.425-1.199-4.776-2.748-6.77-1-1.276-3.09-.28-2.715 1.316.392 2.033.697 4.19 1.038 6.274-7.388.712-14.858.658-22.242-.076-3.288-.29-6.55-.805-9.802-1.361-4.398-13.603-8.854-27.191-14.143-40.5-.94-2.443-2.48-5.721-3.638-8.13-7.348-15.693-10.482-33.114-11.323-50.375-.46-10.9.108-21.876 2.064-32.565 7.483-40.77 41.382-62.404 80.304-68.631a23.3 23.3 0 0 0 1.149 4.076l-.529.037a2.17 2.17 0 0 0-1.074.374l-5.617 3.845a2.174 2.174 0 0 0-.818 2.526 2.18 2.18 0 0 0 2.236 1.43c4.441-.392 8.802-.648 13-.802.08.004.637-.01 1.326-.044 21.645-.691 38.617 1.292 38.822 1.317q.129.015.258.015c.37 0 .735-.094 1.06-.276l5.507-3.078a2.173 2.173 0 0 0-.699-4.038 171 171 0 0 0-7.833-1.138 23 23 0 0 0 1.242-4.606c21.759 2.621 43.453 8.847 60.451 22.957 8.958 7.483 16.186 16.987 20.903 27.669.782 1.48 1.427 3.008 2.957 4.201a1.41 1.41 0 0 0 2.299-.94c.196-3.64-1.97-6.766-3.648-9.818-3.992-7.403-9.124-14.14-15.11-20.004 7.018-3.827 12.243-5.005 14.602-5.358.972 2.262 3.113 7.31 6.692 16.061.39.954.862 1.987 1.362 3.08 3.937 8.616 6.629 16.279-.179 22.496a17 17 0 0 1-.694-.939c-.477-.804-1.453-1.234-2.363-.834a1.82 1.82 0 0 0-.948 2.388c.744 1.693 1.739 3.082 2.983 4.409a17.5 17.5 0 0 0 3.716 2.963l-35.453 7.369a7.16 7.16 0 0 0-5.699 7.164c.175 8.211 1.853 28.419 13.642 38.691.76.662 1.551 1.266 2.366 1.825-6.681-1.255-13.121-3.704-18.904-7.303-4.17-2.466-7.513-5.789-11.461-8.619a1.574 1.574 0 0 0-2.262 2.079c1.293 2.261 3.168 4.12 5.142 5.751 12.895 10.829 30.136 15.263 46.596 12.382.207-.021.407-.03.615-.054a36 36 0 0 0 3.502-.584c-1.337 4.29-2.999 8.337-4.995 11.992m17.385-24.836c-3.484 5.185-9 8.251-16.395 9.112-7.591.889-13.895-.804-18.735-5.02-10.482-9.133-11.991-27.875-12.153-35.508a2.815 2.815 0 0 1 2.24-2.818l44.382-9.226a1.694 1.694 0 0 1 1.977 1.193c1.074 3.858 2.937 11.557 3.349 19.783.479 9.597-1.09 17.162-4.665 22.484"/><path fill="#000" d="M166.057 211.989c.64-1.607-1.625-2.821-2.6-1.367-1.831 2.745-4.459 5.032-7.313 6.414-14.301 5.38-27.402-.597-29.426-16.428-.448-3.494-.204-6.843.538-10.315 1.055-5.743.538-11.394-.475-17.015a63 63 0 0 0-.937-4.374c3.018-1.323 6.526-1.482 9.839-1.642 12.073-.18 25.075 2.589 34.324 10.734a1.558 1.558 0 0 0 2.107-2.294c-3.249-3.027-7.05-5.374-11.046-7.155-9.658-4.399-27.262-7.185-37.219-3.024-1.047.529-2.46 1.745-2.095 3.287.507 1.64.952 3.43 1.314 5.182.983 5.097 1.487 10.568.572 15.623-1.709 7.327-1.107 15.639 2.779 22.578 5.799 10.528 17.791 12.916 28.712 9.83 4.949-1.461 9.058-5.321 10.926-10.034"/><path fill="#000" d="M230.094 241.569c.975 2.292 2.127 3.451 3.431 3.451q.141 0 .284-.018c1.421-.178 2.346-1.607 2.749-4.245.313-2.053.295-4.703-.052-7.463s-.985-5.333-1.797-7.244c-1.044-2.456-2.3-3.609-3.714-3.433-3.989.502-2.841 10.563-2.697 11.709.347 2.76.985 5.333 1.796 7.243"/><path fill="#000" d="M247.287 219.688c-3.989.503-2.841 10.564-2.697 11.709.347 2.76.985 5.333 1.797 7.244.974 2.292 2.127 3.451 3.431 3.451q.14 0 .283-.018c1.421-.179 2.346-1.607 2.749-4.246.314-2.052.296-4.702-.052-7.463-.143-1.145-1.526-11.187-5.511-10.677"/><path fill="#FFB921" d="M125.457 18.078c-5.798 10.275-6.121 17.02-5.265 17.849 1.098.277 6.709-3.486 12.508-13.762 5.752-10.193 6.116-16.911 5.286-17.828a.6.6 0 0 0-.117-.01c-1.421 0-6.827 3.855-12.412 13.75"/><path fill="#FFB921" d="M127.86 113.974a18.97 18.97 0 0 0-13.045 6.584 18.97 18.97 0 0 0-4.569 13.88 18.97 18.97 0 0 0 3.611 9.827 289 289 0 0 1 14.68-.308c7.822.024 13.62.381 15.99.555a18.97 18.97 0 0 0 3.797-12.923 18.97 18.97 0 0 0-6.584-13.046 18.97 18.97 0 0 0-13.88-4.569"/><path fill="#FFB921" d="M184.562 82.812c-.596-4.853-2.829-9.199-6.287-12.236-2.918-2.562-6.413-3.924-9.992-3.924q-.864 0-1.732.107c-8.712 1.07-14.808 10.014-13.588 19.936.596 4.853 2.829 9.198 6.287 12.235 3.388 2.974 7.553 4.333 11.724 3.817 8.712-1.071 14.808-10.014 13.588-19.936"/><path fill="#000" d="M188.874 82.281c-.727-5.912-3.473-11.228-7.733-14.969-4.3-3.777-9.621-5.501-15.007-4.876-.242.017-.959.104-2.931.355l-.459.059c-11.089 1.363-18.881 12.478-17.37 24.778 1.41 11.466 10.523 19.911 21.119 19.911q.818 0 1.648-.068l1.056-.081c2.275-.172 2.683-.209 2.906-.247a16 16 0 0 0 4.127-1.323c8.481-3.474 13.93-13.076 12.644-23.539m-17.9 20.466c-4.171.516-8.337-.843-11.724-3.817-3.458-3.037-5.691-7.382-6.287-12.235-1.22-9.922 4.876-18.865 13.588-19.936a14 14 0 0 1 1.732-.107c3.579 0 7.074 1.362 9.992 3.924 3.458 3.038 5.691 7.383 6.287 12.236 1.22 9.921-4.876 18.865-13.588 19.935"/><path fill="#D5C3EE" d="M103.265 75.849c-.576 3.415-1.737 5.762-3.926 8.113 3.014 1.111 5.11 2.682 7.165 5.47.576-3.416 1.737-5.763 3.926-8.114-3.014-1.11-5.11-2.681-7.165-5.47"/><path fill="#000" d="M115.21 78.177c-6.089-1.39-7.837-2.94-11.694-10.363a2.17 2.17 0 0 0-4.1.978c-.092 8.363-.954 10.535-5.76 14.523a2.171 2.171 0 0 0 .903 3.79c6.089 1.39 7.837 2.94 11.694 10.361a2.17 2.17 0 0 0 2.43 1.112 2.17 2.17 0 0 0 1.669-2.089c.093-8.363.955-10.535 5.761-14.523a2.17 2.17 0 0 0-.903-3.789m-15.871 5.786c2.189-2.352 3.35-4.699 3.926-8.114 2.055 2.788 4.151 4.359 7.165 5.47-2.189 2.35-3.35 4.697-3.926 8.113-2.055-2.788-4.151-4.359-7.165-5.47"/><path fill="#D5C3EE" d="M166.268 39.527a9.4 9.4 0 0 1 2.44-2.103 9.4 9.4 0 0 1-1.736-2.714 9.5 9.5 0 0 1-2.44 2.103 9.5 9.5 0 0 1 1.736 2.714"/><path fill="#000" d="M159.255 38.01c2.741 1.89 3.434 2.849 3.945 7.937a2.172 2.172 0 0 0 4.17.61c1.946-4.73 2.884-5.45 6.051-6.476a2.172 2.172 0 0 0 .563-3.855c-2.741-1.89-3.433-2.849-3.944-7.937a2.173 2.173 0 0 0-4.17-.61c-1.946 4.73-2.884 5.45-6.051 6.477a2.174 2.174 0 0 0-.564 3.854m7.717-3.3a9.4 9.4 0 0 0 1.736 2.713 9.4 9.4 0 0 0-2.44 2.104 9.5 9.5 0 0 0-1.736-2.714 9.5 9.5 0 0 0 2.44-2.104"/></svg>