<svg xmlns="http://www.w3.org/2000/svg" width="265" height="350" fill="none" viewBox="0 0 265 350"><path fill="#000" d="M135.318 349.003c57.715 0 104.502-4.952 104.502-11.061 0-6.108-46.787-11.06-104.502-11.06s-104.502 4.952-104.502 11.06 46.787 11.061 104.502 11.061"/><path fill="#F295FF" d="M218.34 300.643s-1.794 6.328-.277 13.314c0 0 7.602 8.4 7.004 20.778 0 0-32.566 9.526-48.905 2.349 0 0-4.837-1.084-5.236-25.51"/><path fill="#000" d="M192.301 341.93c-6.145 0-12.109-.746-16.876-2.809-2.453-.797-6.311-5.591-6.657-27.512a2.17 2.17 0 0 1 2.132-2.202c1.196-.043 2.184.936 2.202 2.132.312 19.512 3.528 23.179 3.935 23.56 13.47 5.92 39.353-.295 45.897-2.02-.121-10.445-6.414-17.596-6.475-17.665a2.15 2.15 0 0 1-.502-.988c-1.613-7.429.234-14.086.312-14.372a2.165 2.165 0 0 1 2.678-1.491 2.16 2.16 0 0 1 1.491 2.67c-.026.087-1.534 5.634-.356 11.754 1.665 2.037 7.715 10.289 7.152 21.861a2.17 2.17 0 0 1-1.561 1.976c-.97.286-17.734 5.114-33.372 5.114z"/><path fill="#F295FF" d="M123.694 319.271c1.664 3.554 3.796 11.251 2.956 15.889 0 0-10.766 5.738-36.753.797 0 0-4.143-13.089-8.703-26.047"/><path fill="#000" d="M109.34 340.127c-5.323 0-11.902-.529-19.859-2.046a2.18 2.18 0 0 1-1.664-1.474c-.043-.13-4.178-13.21-8.677-25.987a2.17 2.17 0 0 1 1.326-2.765 2.17 2.17 0 0 1 2.765 1.327c3.71 10.549 7.178 21.297 8.322 24.877 19.642 3.536 30.009.711 33.086-.416.26-4.109-1.457-10.341-2.921-13.453a2.157 2.157 0 0 1 1.04-2.878 2.16 2.16 0 0 1 2.878 1.04c1.811 3.875 4.065 12.014 3.129 17.189a2.19 2.19 0 0 1-1.11 1.526c-.329.173-5.937 3.06-18.324 3.06z"/><path fill="#000" d="M142.261 5.09c2.964 1.837 1.04 10.999-4.456 20.742-5.495 9.743-12.412 16.252-15.455 14.536-.381-.217-3.952-2.124-4.178-2.557-1.577-3.06 3.823-9.656 8.634-18.185 4.992-8.85 11.363-16.73 11.91-16.53 0 0 2.938 1.62 3.545 2.002z"/><path fill="#000" d="M123.416 42.804a4.3 4.3 0 0 1-2.132-.546l-.26-.148c-3.909-2.132-4.412-2.6-4.776-3.31-1.716-3.32 1.023-7.724 4.811-13.818 1.265-2.037 2.574-4.143 3.857-6.423 3.008-5.322 6.163-9.734 7.775-11.892 4.352-5.808 5.262-6.146 6.744-5.617.113.043.225.087.329.147.304.174 3.008 1.665 3.632 2.055 4.906 3.042 1.517 14.389-3.71 23.646-4.611 8.174-11.277 15.906-16.278 15.906zm-3.38-6.267c.399.26 1.248.771 3.077 1.768l.312.174c1.118.286 6.718-3.459 12.499-13.713 5.851-10.376 6.094-17.042 5.193-17.84a81 81 0 0 0-2.115-1.204c-1.907 2.15-6.415 8.07-10.307 14.961-1.335 2.358-2.721 4.603-3.952 6.58-1.942 3.12-4.811 7.74-4.707 9.265z"/><path fill="#F295FF" d="M211.935 163.428c14.128-9.812 23.733-9.951 23.733-9.951s2.141 4.846 7.324 17.518c2.878 7.03 10.87 19.581-.182 28.64"/><path fill="#000" d="M242.819 201.81a2.17 2.17 0 0 1-1.682-.797 2.163 2.163 0 0 1 .304-3.051c7.697-6.311 4.966-14.181.901-23.075a86 86 0 0 1-1.361-3.068c-3.571-8.729-5.703-13.765-6.674-16.027-3.043.45-10.853 2.262-21.142 9.413a2.16 2.16 0 0 1-3.016-.546 2.163 2.163 0 0 1 .546-3.017c14.502-10.072 24.522-10.332 24.938-10.332h.035c.858 0 1.638.503 1.985 1.292.017.052 2.21 5.019 7.35 17.579.355.866.806 1.863 1.292 2.912 3.294 7.212 8.815 19.286-2.098 28.223a2.16 2.16 0 0 1-1.37.494z"/><path fill="#FFFBE8" d="M20.709 197.442c1.8 0 3.259-1.789 3.259-3.996s-1.46-3.996-3.26-3.996-3.258 1.789-3.258 3.996 1.459 3.996 3.259 3.996"/><path fill="#F295FF" d="M15.993 175.841s-7.48-1.058-6.63-5.912c.849-4.854 1.967-9.63 1.967-9.63-.243-.156 18.801-1.153 23.438 17.041"/><path fill="#000" d="M34.777 179.507c-.97 0-1.846-.65-2.098-1.629-3.432-13.479-15.49-15.239-19.598-15.438a200 200 0 0 0-1.578 7.871c-.086.52-.008.901.26 1.282.954 1.318 3.667 1.985 4.534 2.107a2.18 2.18 0 0 1 1.837 2.453 2.173 2.173 0 0 1-2.444 1.838c-.529-.078-5.227-.815-7.428-3.849-.971-1.335-1.327-2.913-1.032-4.585a209 209 0 0 1 1.968-9.639 3 3 0 0 1 .069-.278c.529-1.647 2.15-1.595 3.597-1.56 3.233.095 19.607 1.448 24.01 18.723a2.17 2.17 0 0 1-2.097 2.704"/><path fill="#F295FF" d="M51.402 191.998s-22.225-27.244-42.464-12.049c-18.021 13.531 3.675 45.542 21.774 30.789"/><path fill="#000" d="M20.804 216.711c-2.071 0-4.16-.399-6.215-1.214-7.342-2.904-13.253-10.8-14.389-19.208-.98-7.316 1.656-13.731 7.437-18.065 21.653-16.252 45.213 12.127 45.447 12.413a2.172 2.172 0 0 1-3.363 2.748c-.052-.069-5.478-6.64-13.176-11.295-9.864-5.963-18.714-6.093-26.307-.398-4.464 3.354-6.51 8.33-5.738 14.025.927 6.925 5.738 13.4 11.684 15.749 3.138 1.24 7.966 1.838 13.158-2.401a2.17 2.17 0 0 1 3.051.312 2.173 2.173 0 0 1-.312 3.052c-3.484 2.843-7.35 4.29-11.277 4.29z"/><path fill="#FFFBE8" d="M39.718 201.412c-.902-.355-11.407-12.378-17.683-11.953-2.34.156-5.504.866-6.198 4.776-.589 3.32 3.017 6.683 6.467 4.88 2.99-1.569 2.895-5.409 1.62-8.365"/><path fill="#000" d="M39.718 203.579a2.2 2.2 0 0 1-.806-.156c-.598-.234-1.006-.633-2.531-2.115-1.89-1.838-5.903-5.73-9.526-7.983.372 3.068-.53 6.119-3.554 7.705-2.228 1.171-4.785.971-6.83-.528-2.124-1.561-3.217-4.17-2.775-6.649.495-2.773 2.315-6.163 8.192-6.553 5.148-.355 11.467 5.036 17.51 10.896.563.546 1.187 1.153 1.43 1.352.9.538 1.3 1.664.9 2.661a2.16 2.16 0 0 1-2.01 1.361zm-17.77-11.936c-2.903.251-3.7 1.369-3.987 2.973-.147.85.277 1.812 1.066 2.392.494.365 1.292.694 2.263.191 1.941-1.023 1.283-4.056.65-5.556z"/><path fill="#F295FF" d="M239.924 197.979c10.722 16.47 10.783 44.025 6.093 62.714-12.438 49.512-72.075 67.307-132.101 56.385-62.332-11.338-103.973-62.921-91.014-115.38 13.92-56.377 75.013-75.845 137.518-65.496 40.48 6.701 64.699 25.32 76.903 55.164"/><path fill="#000" d="M240.877 197.364c3.034 2.193 4.091 5.807 5.452 9.075 5.869 16.504 5.756 34.603 2.375 51.627-10.679 52.503-70.419 68.174-117.192 63.511-13.756-1.222-27.486-3.71-40.488-8.486-38.928-13.67-73.176-49.547-72.638-92.653.121-14.016 3.848-27.911 10.54-40.219 20.656-38.123 67.689-50.761 108.316-48.594 20.665 1.11 41.563 4.621 60.286 13.817 15.741 7.663 28.986 20.232 37.308 35.661 1.672 3.042 3.831 6.163 3.64 9.795a1.397 1.397 0 0 1-1.543 1.248 1.34 1.34 0 0 1-.745-.312c-1.526-1.188-2.167-2.713-2.947-4.196-4.707-10.653-11.919-20.136-20.856-27.599-20.881-17.336-48.861-22.745-75.325-24.192-55.597-2.991-112.433 22.32-114.349 84.617-.442 41.234 32.514 75.482 69.795 88.631 12.638 4.663 25.996 7.082 39.396 8.287 38.547 3.371 85.675-5.028 106.089-41.546 10.271-18.801 11.78-47.9 4.602-67.992-1.048-3.251-3.042-5.825-3.606-9.293-.208-1.031 1.11-1.811 1.925-1.178z"/><path fill="#000" d="M191.651 204.81c-3.935 0-5.894-1.448-6.128-1.639a2.173 2.173 0 0 1-.355-3.042 2.17 2.17 0 0 1 2.999-.39c.121.086 1.543.971 4.681.676 3.181-.295 4.325-1.465 4.377-1.508.763-.919 2.106-1.023 3.025-.269.927.763 1.031 2.158.269 3.077-.217.26-2.228 2.549-7.264 3.017q-.848.078-1.604.078"/><path fill="#000" d="M214.041 202.963c-3.935 0-5.886-1.447-6.12-1.638a2.174 2.174 0 0 1-.355-3.043 2.173 2.173 0 0 1 2.999-.39c.121.087 1.543.971 4.681.676 3.181-.294 4.325-1.465 4.377-1.508a2.14 2.14 0 0 1 3.025-.269c.928.763 1.032 2.159.269 3.078-.217.26-2.228 2.548-7.264 3.016-.563.052-1.101.078-1.603.078z"/><path fill="#000" d="M189.476 244.344c3.935 2.826 7.272 6.137 11.433 8.599 6.059 3.77 12.846 6.293 19.876 7.48 7.09 1.153 14.302.833 21.375-.546 2.427-.424 3.216 3.112.815 3.754-17.622 4.455-36.666.234-50.622-11.477-1.967-1.63-3.84-3.484-5.131-5.738a1.56 1.56 0 0 1 .581-2.15 1.57 1.57 0 0 1 1.681.078z"/><path fill="#000" d="M104.91 143.76c17.111-1.204 32.817-2.219 53.361 1.24l-5.496 3.068s-24.964-2.99-53.473-.476l5.6-3.84z"/><path fill="#000" d="M152.775 150.244c-.087 0-.173 0-.26-.017-.251-.026-25.085-2.938-53.022-.468a2.172 2.172 0 0 1-1.413-3.953l5.599-3.84a2.2 2.2 0 0 1 1.075-.372c16.088-1.136 32.722-2.297 53.872 1.265.91.156 1.621.858 1.777 1.768a2.17 2.17 0 0 1-1.075 2.263l-5.495 3.068a2.14 2.14 0 0 1-1.058.278z"/><path fill="#F295FF" d="M88.068 300.643s-.823 12.422-.346 15.759c.277 1.924 8.173 12.282 6.319 22.519 0 0-18.567 4.993-44.563.061 0 0-11.494-36.345-17.275-47.874-12.23-24.417-15.23-60.65-9.778-87.469"/><path fill="#000" d="M89.42 300.73c.538 5.028.122 10.159.468 15.117l.026.226c0-.061-.034-.148 0-.078.052.138.226.502.4.823 3.753 6.726 7.367 14.441 5.677 22.45a1.9 1.9 0 0 1-1.43 1.561c-11.217 2.548-22.771 2.765-34.17 1.69-3.788-.338-7.532-.954-11.277-1.604a1.89 1.89 0 0 1-1.5-1.291c-3.562-11.121-7.255-22.243-11.268-33.19-1.5-4.083-3.06-8.131-4.802-12.11-13.748-27.625-16.608-60.971-11.052-91.101.58-2.479 4.317-1.863 3.875.789-2.254 11.277-2.904 22.901-2.41 34.438.84 17.224 3.961 34.603 11.295 50.258 1.152 2.401 2.695 5.677 3.631 8.113 5.427 13.652 9.977 27.599 14.485 41.554l-1.517-1.343c3.623.633 7.255 1.231 10.922 1.552 9.127.91 18.393.797 27.46-.555 1.785-.278 3.64-.607 5.287-1.023l-1.43 1.56c1.014-7.697-3.198-14.389-6.388-21.141-.078-.2-.2-.763-.208-1.066-.174-2.011-.104-3.979-.026-5.877.173-3.346.52-6.649 1.248-9.934a1.375 1.375 0 0 1 1.638-1.04 1.36 1.36 0 0 1 1.066 1.222"/><path fill="#F295FF" d="m235.087 252.293-36.406-31.638 39.656-26.386 21.02 24.297z"/><path fill="#000" d="M241.475 196.401c2.237 3.329 5.712 5.921 9.674 6.744.65.191 1.343.217 2.019.338.781.096 1.578.078 2.367.139a2.162 2.162 0 0 1-.217 4.317c-1.725-.018-3.458-.07-5.14-.503a17.74 17.74 0 0 1-9.023-5.088c-1.24-1.327-2.237-2.713-2.974-4.395a1.814 1.814 0 0 1 .945-2.384c.91-.398 1.881.026 2.358.832z"/><path fill="#DB00F8" d="m209.932 214.778 44.277-9.206a3.85 3.85 0 0 1 4.498 2.731c3.303 11.849 11.546 50.37-19.503 53.993-29.636 3.458-32.973-30.477-33.233-42.543a4.964 4.964 0 0 1 3.961-4.975"/><path fill="#000" d="M235.113 264.714c-6.943 0-12.881-2.115-17.7-6.301-11.763-10.246-13.436-30.408-13.609-38.599a7.15 7.15 0 0 1 5.686-7.151l44.277-9.206c3.094-.641 6.18 1.231 7.029 4.274 2.54 9.127 7.446 31.855-1.889 45.75-4.213 6.275-10.757 9.968-19.451 10.982q-2.237.26-4.343.26zm-24.747-47.813a2.81 2.81 0 0 0-2.237 2.809c.165 7.619 1.665 26.316 12.127 35.426 4.828 4.204 11.121 5.894 18.688 5.01 7.377-.858 12.881-3.918 16.357-9.092 3.571-5.305 5.131-12.855 4.654-22.433-.407-8.209-2.271-15.889-3.337-19.738a1.68 1.68 0 0 0-1.967-1.187l-44.277 9.205z"/><path fill="#F295FF" d="M193.974 302.195s-1.863 6.917-.346 13.903c0 0 7.627 10.861 7.038 23.239 0 0-32.6 7.065-48.931-.113 0 0-5.426-7.255-5.816-31.681"/><path fill="#000" d="M195.552 302.628c-.147 4.334-.78 8.738 0 13.054l-.312-.711c2.436 3.693 4.195 7.481 5.547 11.633 1.309 4.091 2.046 8.434 1.847 12.829a1.95 1.95 0 0 1-1.543 1.829c-12.378 2.401-24.929 3.883-37.541 2.756-4.222-.442-8.495-1.231-12.595-2.99-.338-.113-.59-.347-.78-.624-2.549-3.632-3.676-7.949-4.612-12.205-.546-2.644-.944-5.574-1.187-8.252-.269-4.013-.72-8.477.503-12.387a1.096 1.096 0 0 1 1.378-.736c.347.104.598.355.719.667.503 1.344.78 2.696.997 4.031.364 2.279.65 5.616.919 7.948.875 6.302 1.751 12.768 4.429 18.576 0 0-.789-.624-.78-.624 7.255 3.008 15.646 3.198 23.508 2.973 8.087-.33 16.296-1.378 24.218-2.982l-1.543 1.829c.174-3.823-.468-7.715-1.664-11.45-1.17-3.658-2.921-7.403-5.019-10.567-.667-1.352-.788-2.956-.97-4.429-.278-2.263-.339-13.427 3.579-11.78.625.312.954.945.928 1.604z"/><path fill="#F295FF" d="M170.649 177.089c-16.045-14.736-46.14-12.378-47.293-8.512 0 0 3.84 12.404 1.638 22.398-3.233 14.727 4.733 35.253 28.969 29.159 4.195-1.057 8.39-4.637 10.367-8.642"/><path fill="#000" d="M169.6 178.233c-9.232-8.122-22.199-10.887-34.248-10.705-3.354.165-6.917.321-9.959 1.691a1.6 1.6 0 0 0-.304.199c-.052.035.026.035.139-.286v-1.136c.52 1.89.902 3.676 1.24 5.531 1.014 5.608 1.525 11.242.476 16.972-.736 3.467-.988 6.804-.537 10.289 2.02 15.793 15.091 21.756 29.359 16.391 2.843-1.378 5.469-3.658 7.298-6.397.971-1.448 3.233-.243 2.592 1.361-1.864 4.698-5.964 8.555-10.905 10.011-10.895 3.077-22.857.694-28.647-9.803-3.875-6.926-4.482-15.213-2.774-22.52.91-5.045.407-10.505-.572-15.585a59 59 0 0 0-1.309-5.175c-.364-1.534 1.049-2.748 2.089-3.276 9.933-4.152 27.495-1.37 37.134 3.016 3.987 1.777 7.775 4.118 11.017 7.134.624.581.659 1.569.078 2.193a1.553 1.553 0 0 1-2.176.095z"/><path fill="#000" d="M233.111 243.758c1.549-.195 2.248-4.773 1.562-10.226s-2.497-9.715-4.046-9.52c-1.548.195-2.247 4.773-1.562 10.226.686 5.452 2.498 9.715 4.046 9.52"/><path fill="#000" d="M232.972 245.098c-1.3 0-2.453-1.153-3.424-3.441-.806-1.907-1.448-4.473-1.794-7.229-.148-1.144-1.292-11.182 2.687-11.685 1.413-.173 2.661.971 3.701 3.424.806 1.907 1.448 4.473 1.794 7.229s.364 5.401.052 7.446c-.398 2.635-1.326 4.057-2.739 4.239q-.142.015-.286.017zm-2.184-19.616c-.521.928-1.023 4.109-.451 8.625s1.846 7.472 2.574 8.243c.52-.927 1.023-4.108.451-8.624-.563-4.516-1.846-7.472-2.574-8.244"/><path fill="#000" d="M249.357 240.833c1.549-.195 2.248-4.773 1.562-10.226-.686-5.452-2.497-9.715-4.046-9.52-1.548.195-2.247 4.773-1.561 10.226.686 5.452 2.497 9.715 4.045 9.52"/><path fill="#000" d="M249.224 242.177c-1.3 0-2.453-1.153-3.423-3.441-.807-1.907-1.448-4.473-1.795-7.229-.147-1.144-1.291-11.182 2.687-11.685 3.979-.511 5.357 9.509 5.496 10.653.347 2.757.364 5.401.052 7.446-.399 2.635-1.326 4.057-2.739 4.239a3 3 0 0 1-.286.017zm-2.184-19.616c-.52.928-1.023 4.109-.451 8.625s1.847 7.472 2.575 8.243c.52-.927 1.023-4.108.451-8.624-.564-4.516-1.847-7.472-2.575-8.244"/><path fill="#FFB921" d="M134.291 23.853c5.499-9.743 7.493-19.032 4.454-20.747s-9.961 4.792-15.46 14.536-7.493 19.031-4.454 20.747c3.04 1.715 9.961-4.793 15.46-14.536"/><path fill="#000" d="M119.906 40.81a4.3 4.3 0 0 1-2.15-.555c-5.071-2.86-1.673-14.293 3.632-23.698s13.332-18.23 18.402-15.36c5.071 2.86 1.673 14.294-3.632 23.698-2.765 4.898-5.98 9.189-9.049 12.075-3.112 2.93-5.478 3.831-7.203 3.831zm17.631-35.834c-1.422 0-6.813 3.849-12.378 13.722-5.782 10.254-6.103 16.98-5.253 17.804 1.092.277 6.692-3.476 12.482-13.73 5.738-10.168 6.102-16.868 5.27-17.787-.035 0-.078-.009-.113-.009z"/><path fill="#000" d="M83.292 340.517c-.485-2.627-.85-5.479-1.36-8.122-.374-1.595 1.715-2.583 2.704-1.318 1.543 1.994 2.34 4.334 2.739 6.752.303 1.812.52 4.473-2.055 4.508-1.057-.035-1.88-.841-2.037-1.829z"/><path fill="#000" d="M117.522 335.359a36 36 0 0 1-1.369-6.024c-.2-1.483 1.725-2.358 2.713-1.266 1.725 1.673 5.079 8.512.867 8.928-1.093.043-1.708-.841-2.211-1.638"/><path fill="#000" d="M214.102 335.004a25.8 25.8 0 0 1-1.37-5.652 1.594 1.594 0 0 1 1.422-1.742c2.175-.156 4.238 5.036 4.178 6.908.095 1.465-1.743 2.401-2.87 1.5l-1.352-1.014z"/><path fill="#000" d="M190.004 340.906c-.459-2.808-.754-5.903-1.317-8.694-.208-.858.338-1.733 1.213-1.889a1.53 1.53 0 0 1 1.491.581c2.089 2.903 2.913 6.336 2.861 9.846-.182 2.592-3.884 2.705-4.256.156z"/><path fill="#fff" d="M148.25 131.564a21.15 21.15 0 0 1-4.975 15.308s-6.796-.607-16.929-.633c-9.37-.026-15.654.364-15.654.364a21.1 21.1 0 0 1-4.75-11.866c-.876-11.685 7.888-21.861 19.572-22.736 11.685-.876 21.861 7.887 22.736 19.572z"/><path fill="#000" d="M143.275 149.039h-.191c-.069 0-6.83-.598-16.746-.624-9.189-.026-15.456.355-15.516.364a2.17 2.17 0 0 1-1.812-.789 23.27 23.27 0 0 1-5.235-13.08c-.962-12.855 8.711-24.097 21.574-25.059 6.224-.468 12.266 1.517 16.998 5.599 4.733 4.074 7.594 9.752 8.062 15.976.459 6.163-1.482 12.152-5.487 16.868a2.18 2.18 0 0 1-1.656.762zm-17.874-4.975h.945c7.802.026 13.592.381 15.949.554 2.8-3.692 4.135-8.234 3.788-12.889-.381-5.071-2.713-9.7-6.57-13.011a18.98 18.98 0 0 0-13.843-4.559c-10.471.78-18.359 9.942-17.57 20.413a18.9 18.9 0 0 0 3.606 9.804c2.141-.104 7.134-.312 13.695-.312"/><path fill="#FFB921" d="M150.131 131.772a21.15 21.15 0 0 1-4.975 15.308s-6.796-.607-16.929-.633c-9.37-.026-15.654.364-15.654.364a21.1 21.1 0 0 1-4.75-11.866c-.876-11.685 7.888-21.861 19.572-22.736 11.685-.876 21.861 7.887 22.736 19.572z"/><path fill="#000" d="M145.156 149.247h-.191c-.069 0-6.83-.598-16.746-.632-9.189-.026-15.456.355-15.516.364a2.17 2.17 0 0 1-1.812-.789 23.27 23.27 0 0 1-5.235-13.08c-.468-6.232 1.517-12.265 5.599-16.998 4.074-4.733 9.752-7.593 15.975-8.061 12.846-.954 24.098 8.711 25.06 21.574a23.27 23.27 0 0 1-5.487 16.868 2.18 2.18 0 0 1-1.656.763zm-17.874-4.975h.945c7.801.026 13.592.381 15.949.555a18.9 18.9 0 0 0 3.788-12.89c-.381-5.07-2.713-9.699-6.57-13.01s-8.781-4.941-13.843-4.56c-5.071.382-9.699 2.713-13.011 6.571a18.92 18.92 0 0 0-4.559 13.851 18.9 18.9 0 0 0 3.606 9.804c2.141-.104 7.134-.312 13.695-.312z"/><path fill="#fff" d="M167.563 105.717c-9.934.814-19.018-6.796-20.387-17.9-1.361-11.104 5.547-21.09 15.446-22.303.312-.034 2.964-.381 3.268-.398 9.535-.625 15.793 7.55 17.119 18.306 1.326 10.8-2.219 20.362-11.684 22-.26.043-3.069.243-3.762.303z"/><path fill="#000" d="M166.098 107.944c-10.575 0-19.659-8.425-21.072-19.867-1.508-12.274 6.267-23.36 17.327-24.721l.46-.061c1.985-.251 2.695-.338 2.93-.355 10.046-.668 17.838 7.463 19.407 20.196 1.613 13.124-3.666 22.702-13.461 24.401-.226.034-.633.078-2.895.242l-1.058.078c-.555.044-1.101.07-1.647.07zm.823-40.705q-.44 0-.892.026c-.252.017-2.072.251-2.67.33l-.477.06c-8.694 1.066-14.77 9.994-13.557 19.885 1.196 9.708 9.128 16.746 18.056 16.009l1.083-.086c.798-.061 2.289-.174 2.54-.208 8.833-1.535 10.887-11.13 9.847-19.59-.945-7.697-5.158-16.435-13.93-16.435z"/><path fill="#FFB921" d="M170.845 105.305c9.892-1.216 16.805-11.204 15.439-22.308s-10.491-19.12-20.384-17.903c-9.892 1.216-16.805 11.204-15.44 22.308s10.492 19.12 20.385 17.903"/><path fill="#000" d="M168.82 107.606c-4.62 0-9.102-1.733-12.812-4.993-4.247-3.736-6.986-9.032-7.714-14.935-1.508-12.273 6.267-23.36 17.327-24.72 5.409-.66 10.766 1.057 15.083 4.853 4.247 3.736 6.986 9.032 7.714 14.935 1.508 12.274-6.267 23.361-17.327 24.722a18 18 0 0 1-2.271.138m-.936-40.453c-.573 0-1.153.034-1.725.103-8.694 1.067-14.771 9.995-13.557 19.885.598 4.845 2.826 9.18 6.275 12.205 3.381 2.964 7.533 4.325 11.694 3.805 8.694-1.066 14.77-9.994 13.556-19.885-.598-4.845-2.825-9.18-6.275-12.204-2.913-2.557-6.397-3.918-9.968-3.918z"/><path fill="#D5C3EE" d="M114.454 80.761c-5.296 4.395-6.432 7.203-6.527 16.131-4.118-7.922-6.397-9.916-13.106-11.45 5.296-4.395 6.431-7.203 6.527-16.131 4.117 7.922 6.397 9.916 13.106 11.45"/><path fill="#000" d="M107.918 99.06a2.17 2.17 0 0 1-1.924-1.171c-3.849-7.403-5.591-8.954-11.668-10.341a2.18 2.18 0 0 1-1.63-1.612 2.15 2.15 0 0 1 .73-2.167c4.793-3.979 5.65-6.146 5.746-14.493a2.15 2.15 0 0 1 1.664-2.08 2.166 2.166 0 0 1 2.427 1.109c3.849 7.402 5.591 8.954 11.667 10.34a2.17 2.17 0 0 1 1.63 1.613 2.15 2.15 0 0 1-.728 2.167c-4.793 3.979-5.652 6.146-5.747 14.493a2.15 2.15 0 0 1-1.664 2.08 2 2 0 0 1-.503.061m-8.815-14.633c3.007 1.11 5.096 2.679 7.151 5.453.572-3.407 1.733-5.747 3.918-8.096-3.008-1.11-5.097-2.679-7.151-5.461-.573 3.406-1.734 5.747-3.918 8.096z"/><path fill="#D5C3EE" d="M172.339 38.582c-4.005 1.3-5.288 2.635-7.377 7.697-.546-5.443-1.395-7.09-4.862-9.482 4.004-1.3 5.287-2.636 7.376-7.698.546 5.444 1.396 7.09 4.863 9.483"/><path fill="#000" d="M164.971 48.447c-.104 0-.208 0-.312-.026a2.17 2.17 0 0 1-1.846-1.925c-.512-5.08-1.205-6.033-3.936-7.922a2.17 2.17 0 0 1-.91-2.098 2.19 2.19 0 0 1 1.474-1.75c3.164-1.024 4.1-1.743 6.033-6.459a2.16 2.16 0 0 1 2.314-1.317 2.17 2.17 0 0 1 1.846 1.924c.512 5.08 1.205 6.033 3.936 7.923a2.17 2.17 0 0 1 .91 2.097 2.19 2.19 0 0 1-1.474 1.751c-3.163 1.023-4.1 1.743-6.033 6.458a2.16 2.16 0 0 1-2.002 1.344m-.832-11.06a9.5 9.5 0 0 1 1.734 2.704 9.3 9.3 0 0 1 2.435-2.098 9.5 9.5 0 0 1-1.733-2.705 9.4 9.4 0 0 1-2.436 2.098"/></svg>