<svg xmlns="http://www.w3.org/2000/svg" width="314" height="385" fill="none" viewBox="0 0 314 385"><path fill="#AD5400" d="m226.895 90.287 4.811-4.986c-11.867-10.117-19.142-14.572-22.965-16.493 2.063 3.943 7.813 11.501 18.154 21.48"/><path fill="#AD5400" d="m246.471 98.644-4.692 4.862c12.04 9.873 21.082 15.297 26.019 17.376-3.006-3.889-7.538-9.267-21.327-22.238"/><path fill="#AD5400" d="M96.077 76.638c-8 4.34-13.638 8.24-18.452 12.01 4.474-1.12 11.382-3.399 20.499-7.243z"/><path fill="#AD5400" d="M137.222 60.299c-4.054.72-11.933 3.07-23.16 7.794l2.12 4.93c10.936-5.555 17.861-10.081 21.04-12.724"/><path fill="#7A42C8" d="M106.344 87.86a105 105 0 0 1 8.966-4.18l-5.875-13.668a340 340 0 0 0-4.601 2.166c-1.511.725-2.93 1.433-4.309 2.133z"/><path fill="#7A42C8" d="M96.025 38.81a4.95 4.95 0 0 0-6.475-2.651 4.9 4.9 0 0 0-2.653 2.686 4.9 4.9 0 0 0 .022 3.778l.788 1.836c3.082-1.356 6.226-2.863 8.88-4.34z"/><path fill="#7A42C8" d="M267.203 55.728c2.292 1.762 5.039 3.632 8.199 5.721l1.821-1.887a4.943 4.943 0 0 0-.125-6.98 4.95 4.95 0 0 0-3.515-1.384 4.9 4.9 0 0 0-3.465 1.508z"/><path fill="#7A42C8" d="M80.87 263.048a107 107 0 0 1-6.582-7.396l-13.565 14.057a4.94 4.94 0 0 0 .125 6.98 4.9 4.9 0 0 0 3.426 1.384 4.9 4.9 0 0 0 3.553-1.508z"/><path fill="#7A42C8" d="M242.813 95.224c-.39-.361-.775-.72-1.178-1.092a353 353 0 0 0-6.139-5.545l-12.15 12.592a106 106 0 0 1 7.327 6.627z"/><path fill="#7A42C8" d="M222.195 106.767c29.012 32.872 32.192 84.654 4.802 125.18-20.739 30.683-54.003 47.517-86.87 47.517-17.598 0-35.073-4.839-50.462-14.946a100.1 100.1 0 0 0 42.398 22.331 100.55 100.55 0 0 0 52.91-1.17l-1.784-4.237a2.504 2.504 0 0 1 4.615-1.943l4.196 9.966 12.979 30.827a4.93 4.93 0 0 0 6.466 2.634 4.945 4.945 0 0 0 2.634-6.467l-12.613-29.956c-.013-.028-.035-.049-.047-.078l-4.197-9.966a2.503 2.503 0 1 1 4.615-1.943l1.55 3.681c25.943-13.633 44.823-37.69 51.954-66.34 6.642-26.681 2.586-54.635-11.419-78.711-5.907-10.155-13.254-19.02-21.727-26.379"/><path fill="#5B5B5B" d="M38.2 118.056c-10.05 7.776-15.929 22.351-18.18 34.515-.56 2.466-.833 6.196-1.116 8.736-.254 4.762-.039 9.512.43 14.244.314 1.993.912 5.503 1.273 7.536.619 3.14 5.223 2.479 4.947-.694-.156-1.438-.287-2.879-.46-4.31-.06-.521-.18-1.522-.274-2.305l-.089-.759c-.025-.607-.15-4.463-.173-5.126-.138-2.678.109-5.495.198-8.171.184-1.408.488-4.719.722-6.074.197-.996.577-3.002.759-4.002 1.985-9.948 6.52-19.246 11.853-27.843q1.11-1.788 2.26-3.535c1.128-1.433-.698-3.3-2.15-2.212"/><path fill="#5B5B5B" d="M38.242 89.993c-4.388 3.133-8.152 6.738-11.764 10.67C.944 128.492-6.349 168.936 5.586 204.445c.771 2.245 4.067 1.294 3.599-.968-.547-2.511-1.165-5.001-1.67-7.51-.929-4.811-1.71-10.156-2.012-15.04-2.823-33.28 11.28-65.129 34.81-88.28a1.684 1.684 0 0 0-2.07-2.655"/><path fill="#5B5B5B" d="M293.96 203.487c.265-1.207.395-3.139.55-4.375.359-2.553.304-6.197.378-8.804-.207-5.842-.909-11.728-2.882-17.256-.479-1.379-.965-2.75-1.531-4.088a1.774 1.774 0 0 0-3.404.785c.084 2.083.391 4.117.653 6.16.097.754.189 1.508.26 2.267.493 5.367 1.068 10.908.82 16.315-.409 11.979-3.641 24.081-9.704 34.476a65 65 0 0 1-2.383 3.794c-1.635 2.071 1.312 4.582 3.098 2.669 7.746-9.014 12.215-20.328 14.145-31.943"/><path fill="#5B5B5B" d="M309.066 160.103c-.924-2.896-1.915-6.585-3.214-9.326-.904-1.522-1.439-4.915-3.751-4.528a1.92 1.92 0 0 0-1.532 2.24c.991 4.952 2.906 9.874 3.974 14.793 6.12 24.406 2.828 50.817-8.924 73.032-2.309 4.442-4.913 8.739-7.824 12.81-2.857 4.038-6.17 7.899-8.871 12.002-1.699 2.204 1.015 5.083 3.314 3.55 4.648-3.168 7.847-7.397 10.94-11.737a113 113 0 0 0 8.26-13.612c12.779-24.21 15.176-53.011 7.628-79.224"/><path fill="#FF7B00" d="M283.406 89.25c-1.144-10.321-7.548-19.557-19.035-27.45-23.042-15.833-45.302-3.451-53.587 2.404 5.43 2.677 16.022 9.4 34.25 26.253 19.958 18.451 24.326 24.195 27.834 28.81l.376.493c3.748-4.889 11.661-17.001 10.162-30.51"/><path fill="#4C4C4C" d="M288.385 88.734c-.707-6.44-3.15-12.464-7.267-18.032a2.503 2.503 0 0 0 1.372-4.592c-.973-.643-1.911-1.259-2.83-1.862l1.167-1.21c3.806-3.946 3.693-10.254-.252-14.06a9.88 9.88 0 0 0-7.082-2.787 9.88 9.88 0 0 0-6.979 3.037l-3.12 3.233c-1.651-1.633-2.848-3.235-3.528-4.91C245.697 12.664 202.175-6.49 156.371 2.002c-25.064 4.649-44.862 20.094-53.364 33.34-.403.627-1.147 1.327-2.134 2.07l-.242-.563c-2.124-5.049-7.966-7.432-13.024-5.305a9.88 9.88 0 0 0-5.349 5.412 9.88 9.88 0 0 0 .052 7.627l.781 1.82a132 132 0 0 1-3.209 1.242 2.503 2.503 0 0 0-1.476 3.218c.226.608.667 1.07 1.202 1.346-16.99 14.926-12.536 36.01-11.692 39.355q.04.207.108.411l.013.042c.005.017.015.031.02.048.035.094.063.189.106.282.029.063.067.116.099.176q.026.049.054.096c.709 1.242 2.044 1.872 4.26 1.872 2.406 0 5.842-.734 10.61-2.202 4.885-1.504 10.703-3.677 16.909-6.292l1.85 4.308c-13.826 8.122-25.89 19.431-35.257 33.291-15.523 22.967-21.804 50.189-17.685 76.652 1.823 11.712 5.588 22.655 11.067 32.474a108 108 0 0 0 11.126 18.921L57.12 266.23c-3.807 3.946-3.695 10.253.25 14.061a9.9 9.9 0 0 0 6.904 2.788 9.86 9.86 0 0 0 7.157-3.039l13.023-13.495a105.1 105.1 0 0 0 46.398 25.162 105.8 105.8 0 0 0 25.569 3.138c10.296 0 20.57-1.525 30.503-4.528l13.439 31.918a9.93 9.93 0 0 0 9.168 6.086 9.9 9.9 0 0 0 3.855-.782c5.053-2.127 7.434-7.969 5.306-13.023l-13.346-31.698c27.396-14.262 47.341-39.578 54.852-69.752 6.959-27.953 2.714-57.23-11.95-82.439a111 111 0 0 0-14.105-19.209l4.155-4.306c7.147 5.87 14.094 10.901 20.006 14.445 5.961 3.574 10.234 5.321 13.169 5.321 1.397 0 2.475-.418 3.304-1.202.084-.069.172-.135.247-.216.636-.681 15.535-16.928 13.361-36.726m-33.046 123.122c-7.131 28.65-26.011 52.708-51.954 66.34l-1.551-3.681a2.503 2.503 0 1 0-4.614 1.943l4.197 9.966c.012.029.034.05.047.078l12.613 29.956a4.945 4.945 0 0 1-4.547 6.856 4.93 4.93 0 0 1-4.553-3.023l-12.98-30.827-4.195-9.966a2.503 2.503 0 1 0-4.615 1.943l1.784 4.237a100.55 100.55 0 0 1-52.91 1.17 100.1 100.1 0 0 1-42.398-22.331c15.388 10.107 32.864 14.946 50.462 14.946 32.866 0 66.131-16.834 86.87-47.517 27.39-40.525 24.21-92.308-4.802-125.18 8.473 7.359 15.82 16.224 21.727 26.379 14.005 24.076 18.061 52.03 11.419 78.711m-194.49 64.832a4.94 4.94 0 0 1-.126-6.98l13.565-14.058a107 107 0 0 0 6.583 7.396l-13.044 13.518a4.9 4.9 0 0 1-3.553 1.508 4.9 4.9 0 0 1-3.426-1.384M86.916 42.623a4.9 4.9 0 0 1-.021-3.777 4.9 4.9 0 0 1 2.652-2.687 4.95 4.95 0 0 1 6.476 2.65l.562 1.31c-2.655 1.477-5.798 2.984-8.88 4.34zm190.18 9.958a4.944 4.944 0 0 1 .126 6.98l-1.822 1.888c-3.16-2.09-5.907-3.96-8.199-5.722l2.915-3.021a4.9 4.9 0 0 1 3.465-1.509 4.95 4.95 0 0 1 3.515 1.384m-3.856 67.177-.376-.492c-3.508-4.616-7.876-10.359-27.833-28.81-18.229-16.853-28.821-23.577-34.251-26.254 8.285-5.855 30.545-18.237 53.587-2.403 11.487 7.892 17.891 17.128 19.036 27.449 1.498 13.509-6.414 25.622-10.163 30.51m-41.535-34.457-4.811 4.986c-10.341-9.978-16.091-17.536-18.154-21.48 3.823 1.922 11.098 6.377 22.965 16.494M70.836 126.4c14.813-21.916 36.659-37.157 61.514-42.915 7.11-1.647 14.22-2.46 21.227-2.46 17.42 0 34.19 5.033 48.648 14.804 41.909 28.326 51.16 88.13 20.621 133.313-30.54 45.177-89.481 58.895-131.389 30.571-20.273-13.702-33.593-35.094-37.506-60.235-3.924-25.209 2.073-51.162 16.886-73.078m66.384-66.101c-3.179 2.643-10.103 7.169-21.04 12.724l-2.119-4.93c11.227-4.725 19.106-7.075 23.159-7.794M96.678 47.91c6.196-2.4 11.63-3.357 16.36-3.357 12.113 0 19.599 6.28 23.361 10.688-6.913.839-18.295 5.015-33.731 12.421-15.1 7.246-23.519 13.23-30.631 19.037-1.22-8.528-1.102-28.817 24.641-38.79m-.602 28.727 2.047 4.766c-9.117 3.845-16.025 6.124-20.5 7.243 4.815-3.77 10.454-7.668 18.453-12.009m4.449-2.328c1.379-.7 2.798-1.407 4.309-2.133a345 345 0 0 1 4.601-2.165l5.875 13.668a105 105 0 0 0-8.966 4.18zm122.818 26.869 12.15-12.592a354 354 0 0 1 7.317 6.637l-12.14 12.582a106 106 0 0 0-7.327-6.627m23.128-2.536c13.789 12.971 18.32 18.349 21.326 22.238-4.936-2.079-13.979-7.503-26.019-17.376zM107.22 38.047c7.92-12.338 26.472-26.746 50.064-31.121 43.473-8.062 84.664 9.815 97.942 42.51.37.912.84 1.786 1.387 2.64-25.612-9.725-48.474 7.672-52.029 10.575a4 4 0 0 0-.416.347l-.065.055c-.015.014-.024.032-.039.046-.061.062-.128.116-.187.182-.071.082-.126.173-.19.258q-.032.04-.061.082c-2.048 2.874-.079 7.765 6.334 15.759 3.542 4.415 8.168 9.386 13.464 14.504l-4.045 4.191a102.9 102.9 0 0 0-36.366-17.288 91 91 0 0 0-10.111-2.758l1.557-8.026c.459.075.899.144 1.296.202.525.076 1.312.19 2.178.19 1.984 0 4.38-.599 4.969-3.627.848-4.358-3.65-5.453-5.344-5.865-1.363-.332-3.171-.72-5.091-1.092-7.775-1.507-8.767-1.424-10.372-.335a4.55 4.55 0 0 0-1.904 2.883c-.848 4.358 3.65 5.453 5.343 5.865.39.095.824.195 1.278.297l-1.592 8.212c-11.073-1.381-22.542-.78-34.001 1.874a104 104 0 0 0-11.227 3.286l-1.835-4.268c6.096-3.091 11.596-6.173 15.954-8.969 8.001-5.132 10.832-8.29 9.876-11.077l-.029-.075c-.034-.095-.061-.19-.105-.283l-.033-.06c-.008-.016-.012-.032-.02-.047-.127-.244-11.724-21.68-38.582-16.837.845-.75 1.532-1.497 2.002-2.23"/><path fill="#FF7B00" d="M72.037 86.702c7.112-5.808 15.531-11.792 30.631-19.037 15.436-7.407 26.819-11.583 33.731-12.42-3.761-4.41-11.247-10.69-23.361-10.69-4.73 0-10.164.958-16.36 3.357-25.742 9.973-25.86 30.262-24.64 38.79"/><path fill="#A17AD8" d="M91.46 259.713c41.907 28.324 100.848 14.606 131.388-30.57 30.539-45.184 21.288-104.988-20.621-133.314-14.458-9.771-31.228-14.804-48.648-14.804-7.007 0-14.117.813-21.227 2.46-24.855 5.758-46.701 20.999-61.513 42.915-14.813 21.916-20.81 47.869-16.886 73.078 3.913 25.141 17.233 46.533 37.506 60.235M226.16 158.334c3.396 21.819-1.781 44.262-14.578 63.195-17.096 25.295-44.524 39.172-71.627 39.172-14.836 0-29.573-4.156-42.47-12.873-17.69-11.957-29.308-30.595-32.715-52.482-3.396-21.818 1.781-44.261 14.578-63.194s31.69-32.104 53.202-37.087c21.578-5 43.204-1.168 60.895 10.788 17.689 11.957 29.307 30.595 32.715 52.481"/><path fill="#FFFBE8" d="M150.991 97.936c-5.713 0-11.51.663-17.308 2.007-20.276 4.697-38.098 17.131-50.184 35.013-12.087 17.882-16.98 39.055-13.779 59.62 3.192 20.496 14.049 37.935 30.572 49.103 34.168 23.094 82.235 11.9 107.144-24.955 12.086-17.881 16.98-39.055 13.778-59.62-3.191-20.496-14.048-37.934-30.572-49.102-11.782-7.964-25.451-12.066-39.651-12.066m-44.728 84.183 32.113-9.61c1.841-5.696 16.026-48.908 16.057-49.05 1.058-3.018 5.547-1.716 4.803 1.415l-13.213 50.316a4 4 0 0 1-.663 1.373c-.335 1.104-1.205 2.07-2.731 2.473l-35.096 7.926c-3.127.637-4.312-3.856-1.27-4.843"/><path fill="#4C4C4C" d="M132.55 95.065c-21.511 4.983-40.406 18.155-53.202 37.088-12.797 18.932-17.974 41.375-14.578 63.194 3.408 21.886 15.026 40.525 32.715 52.481 12.897 8.717 27.634 12.873 42.47 12.873 27.103 0 54.531-13.876 71.628-39.172 12.796-18.933 17.973-41.375 14.577-63.194-3.407-21.887-15.025-40.525-32.715-52.481s-39.317-15.789-60.895-10.79m88.662 64.04c3.201 20.565-1.692 41.738-13.778 59.62-24.91 36.854-72.977 48.048-107.144 24.954-16.524-11.168-27.38-28.606-30.572-49.102-3.201-20.565 1.692-41.739 13.778-59.62 12.087-17.882 29.908-30.317 50.185-35.014 5.798-1.343 11.594-2.007 17.308-2.007 14.2 0 27.869 4.103 39.651 12.066 16.524 11.168 27.381 28.607 30.572 49.103"/><path fill="#4C4C4C" d="m107.531 186.963 35.096-7.927c1.526-.402 2.396-1.369 2.73-2.473.297-.402.53-.86.664-1.373l13.213-50.316c.744-3.131-3.745-4.433-4.803-1.415-.031.143-14.216 43.354-16.057 49.05l-32.113 9.61c-3.042.987-1.857 5.481 1.27 4.844"/><path fill="#4C4C4C" d="M141.33 385c49.754 0 90.087-5.72 90.087-12.775s-40.333-12.775-90.087-12.775c-49.753 0-90.086 5.72-90.086 12.775S91.577 385 141.33 385"/></svg>