<svg xmlns="http://www.w3.org/2000/svg" width="480" height="480" fill="none" viewBox="0 0 480 480">
  <path
    fill="#8CBA3B"
    d="M420.675 232.627c5.302-5.468 8.156-12.642 8.038-20.199l-.173-11.134c-.241-15.52-12.946-27.981-28.414-27.981q-.223 0-.448.003l-6.64.104c.06 3.896.101 7.822.104 11.759l3.355-.053.304-.002c10.461 0 19.051 8.426 19.215 18.922l.094 6.021c.164 10.598-8.324 19.353-18.921 19.518l-6.956.108a137 137 0 0 1-2.491 11.799l12.994-.202c7.557-.118 14.638-3.194 19.939-8.663"
  />
  <path
    fill="#000"
    d="M433.54 201.217c-.285-18.251-15.223-32.904-33.414-32.904q-.262 0-.527.005l-6.645.103-.085-4.562c-.102-5.333-.198-10.369-.241-15.386-.044-5.183-5.314-9.867-15.664-13.922a78 78 0 0 0-2.737-1.009c-15.776-5.989-45.069-8.001-66.894-7.662-13.647.212-30.185 1.434-44.473 3.903 1.243-2.955 1.978-6.327 1.171-9.638-.981-4.026-3.982-7.223-8.919-9.5-5.237-2.418-11.558-.99-16.901 3.818-6.124 5.51-11.133 15.854-9.514 27.046-4.04 3.471-5.817 7.585-5.594 12.536.066 1.473.125 2.912.184 4.358-6.015-1.179-13.79-1.454-23.565-.899l-.04.006c-13.951.682-31.005 3.29-48.673 7.478-18.325 4.344-35.301 9.91-48.263 15.797-5.313 2.175-11.653 5.237-17.211 8.829-9.24 5.972-13.301 11.553-12.07 16.588 1.325 5.42 2.596 10.949 3.942 16.802l.985 4.281-6.39 1.515c-8.654 2.052-16.007 7.378-20.707 14.997s-6.157 16.581-4.105 25.235l2.568 10.834c2.052 8.654 7.377 16.008 14.996 20.707 5.369 3.31 11.4 5.012 17.524 5.012 2.568 0 5.154-.3 7.712-.906l13.718-3.252c6.342 10.427 14.156 19.11 24.107 24.923 7.824 4.571 22.423 8.448 39.86 8.448 4.111 0 8.384-.216 12.758-.689 18.367-1.986 44.197-9.194 62.947-32.25 5.062-6.225 8.292-13.125 10.138-20.742l.735.484c1.121.773 3.709 2.435 3.716 2.439 15.954 9.882 33.355 13.704 49.737 13.704 27.187 0 51.561-10.505 61.819-21.205 7.928-8.269 13.247-18.55 16.798-30.024l14.49-.225c18.428-.287 33.186-15.512 32.899-33.939zm-62.937 66.261a56 56 0 0 1-4.686 5.601c-7.492 7.813-22.579 14.738-38.673 17.798a26.05 26.05 0 0 1-8.55-19.322c0-14.401 11.716-26.117 26.117-26.117 12.894 0 23.815 9.409 25.792 22.04m-25.792-27.04c-17.158 0-31.117 13.959-31.117 31.117a31.02 31.02 0 0 0 7.524 20.288q-.86.113-1.73.213c-15.172 1.724-36.77.888-57.477-11.408 1.791-13.191.136-28.342-3.14-45.918 4.505 4.581 10.767 7.428 17.684 7.428 13.684 0 24.816-11.133 24.816-24.816s-11.132-24.816-24.816-24.816c-10.533 0-19.549 6.6-23.145 15.879l-1.085-4.942c-1.802-8.189-3.664-16.657-5.517-25.638-1.072-5.197-3.964-8.731-9.064-11.064-.096-.159-.201-.313-.303-.468-1.894-2.89-4.874-5.058-9.093-6.545-.078-1.954-.16-3.924-.251-5.928-.094-2.092.258-4.287 1.894-6.485 2.737 12.302 43.18 16.589 73.212 16.589a303 303 0 0 0 6.088-.062 36 36 0 0 0-.32 4.705c0 19.663 15.997 35.661 35.661 35.661s35.66-15.998 35.66-35.661c0-5.518-1.26-10.748-3.508-15.416 4.824-2.328 7.942-5.074 8.527-8.276 1.476 1.295 2.308 2.542 2.317 3.641.043 5.043.14 10.092.242 15.438.65 34.147 1.36 72.208-13.527 97.812-4.13-12.501-15.903-21.328-29.532-21.328m-164.915 88.7c-21.673 2.345-40.888-2.039-49.56-7.106-7.526-4.397-13.773-10.657-19.069-18.184 3.569 1.045 8.354 2.099 14.096 2.531 3.764.283 7.678.422 11.7.422 19.365 0 41.203-3.223 60.527-9.071 16.95-5.13 38.934-14.305 52.727-29.68-.694 11.909-3.856 22.097-10.816 30.655-17.677 21.737-42.17 28.547-59.605 30.433M67.379 296.317c-6.482-3.998-11.012-10.25-12.755-17.604l-2.569-10.835c-1.744-7.354-.502-14.974 3.496-21.456 3.998-6.483 10.25-11.013 17.604-12.756l6.368-1.51a836 836 0 0 0 2.748 11.433l-3.13.742c-10.312 2.445-16.714 12.824-14.27 23.137l1.39 5.859c1.179 4.977 4.242 9.207 8.623 11.909 3.086 1.903 6.555 2.882 10.076 2.882a19.2 19.2 0 0 0 4.437-.522l6.441-1.527a135 135 0 0 0 5.263 10.838l-12.265 2.907c-7.355 1.744-14.974.502-21.457-3.497m189.36-78.975c0-10.927 8.889-19.816 19.816-19.816s19.816 8.889 19.816 19.816-8.889 19.816-19.816 19.816-19.816-8.889-19.816-19.816m-174.46 4.542c-1.35-5.871-2.624-11.416-3.957-16.869-.243-.994.244-2.289 1.35-3.77.012.06.012.121.026.181 1.292 5.45 9.51 8.209 24.441 8.209q1.074 0 2.195-.019c14.736-.251 33.715-2.964 53.443-7.64 29.463-6.985 71.745-21.886 71.476-35.142 1.124.863 1.854 1.765 2.348 2.631q.06.194.152.38c.41.808.712 1.708.928 2.753a1507 1507 0 0 0 3.684 17.28c-.049.059-.103.11-.147.175-9.415 13.86-30.574 26.08-59.581 34.411-25.11 7.211-53.935 10.697-75.225 9.094-10.556-.795-18.038-3.9-19.488-4.542a3065 3065 0 0 1-1.645-7.132m24.591 75.072c-4.663-8.053-8.497-17.164-11.781-26.808 3.733 1.302 9.684 2.946 17.151 3.508 3.513.264 7.221.394 11.076.394 20.032 0 44.019-3.493 65.232-9.661 26.998-7.851 47.554-19.261 58.635-32.434.097.543.197 1.09.291 1.628l.071.414c1.61 9.345 2.678 17.974 2.89 25.917-22.286 31.515-86.495 44.353-124.697 41.479-10.132-.762-17.13-3.654-18.868-4.437m-3.833-58.412c3.53.266 7.259.395 11.141.395 20.134 0 44.342-3.495 65.84-9.669 27.776-7.978 48.753-19.592 59.752-32.974l.428 1.946c1.33 6.047 2.607 11.856 3.784 17.438.035.168.709 3.405 1.001 4.837q.145.705.287 1.406c.233 1.153.455 2.287.676 3.42-21.257 30.981-93.092 46.357-133.331 43.327-11.095-.835-18.705-4.308-19.534-4.701-2.95-9.463-5.455-19.302-7.77-29.049 3.712 1.296 9.912 3.036 17.726 3.624m-9.136 42.846-5.657 1.341c-3.677.872-7.49.25-10.736-1.751-3.244-2-5.51-5.128-6.382-8.807l-1.39-5.858c-1.808-7.63 2.929-15.31 10.558-17.119l3.204-.759c2.928 11.334 6.261 22.547 10.403 32.953m64.723-84.28a334 334 0 0 1-14.357 3.074c8.336-3.766 15.819-9.01 23.675-16.715 6.941-6.81 15.787-8.88 23.979-8.88 8.635 0 16.543 2.301 20.724 3.776-12.817 6.778-32.638 13.677-54.021 18.745m45.923-34.766q1.06-.017 2.057-.017c14.635 0 19.251 2.811 19.619 4.364.284 1.197-1.356 4.194-8.102 8.511-.098-.062-.188-.134-.295-.182-.336-.153-8.35-3.759-18.876-5.034-14.214-1.722-26.145 1.707-34.51 9.913-17.225 16.896-32.025 21.145-60.716 24.734-14.253-.053-18.796-2.824-19.161-4.361-.385-1.624 2.76-6.56 17.417-13.614 12.961-6.238 30.782-12.206 50.183-16.804 19.398-4.599 38.003-7.266 52.384-7.51m37.008-44.164c3.867-3.481 8.045-4.573 11.463-2.995 3.483 1.607 5.554 3.673 6.155 6.143 1.256 5.156-3.704 11.538-5.333 13.635-3.145 4.047-2.736 7.464-1.838 9.617 2.028 4.863 8.993 8.962 21.098 12.363-34.215-3.537-38.076-10.851-38.301-11.361a2.4 2.4 0 0 0-.087-.33c-3.732-11.012.931-21.753 6.843-27.072m118.629 16.655c15.942 3.236 20.204 7.248 20.23 8.917s-4.112 5.81-19.955 9.54c-13.076 3.081-30.233 5.016-48.667 5.511-.671-.138-1.448-.239-2.341-.347-42.368-5.11-51.288-12.093-52.834-15.8-.364-.871-.637-2.299 1.171-4.625a54 54 0 0 0 1.934-2.622c13.319-2.658 30.01-4.255 47.69-4.53 19.923-.305 38.675 1.096 52.772 3.956m-15.552 64.393c-16.906 0-30.661-13.755-30.661-30.661 0-1.65.135-3.269.387-4.849 19.716-.719 43.368-3.397 57.799-8.641a30.5 30.5 0 0 1 3.135 13.49c0 16.906-13.753 30.661-30.66 30.661m48.492-9.048 3.451-.054.224-.001c7.739 0 14.095 6.234 14.216 14l.094 6.02c.122 7.841-6.158 14.319-13.999 14.441l-6.124.096c1.514-11.135 2.04-22.818 2.138-34.502m-2.892 39.514 6.956-.109c10.597-.164 19.085-8.92 18.921-19.518l-.094-6.02c-.164-10.497-8.754-18.922-19.215-18.922l-.303.002-3.355.052a818 818 0 0 0-.105-11.759l6.64-.103q.225-.004.448-.004c15.468 0 28.173 12.462 28.415 27.982l.172 11.134c.119 7.557-2.736 14.73-8.038 20.199-5.3 5.468-12.382 8.545-19.939 8.663l-12.994.202a137 137 0 0 0 2.491-11.799"
  />
  <path
    fill="#8CBA3B"
    d="M387.87 163.956c-.102-5.346-.198-10.396-.241-15.439-.01-1.098-.842-2.345-2.318-3.64-.585 3.202-3.702 5.948-8.526 8.276a35.45 35.45 0 0 1 3.508 15.416c0 19.663-15.997 35.66-35.66 35.66s-35.661-15.997-35.661-35.66c0-1.596.116-3.164.32-4.705q-.689.015-1.367.025c-1.538.024-3.118.037-4.722.037-30.032 0-70.474-4.287-73.211-16.589-1.637 2.198-1.988 4.393-1.894 6.485.09 2.004.172 3.974.251 5.928 4.218 1.487 7.198 3.655 9.092 6.545.102.155.207.308.303.468 5.1 2.333 7.993 5.866 9.064 11.063 1.853 8.981 3.715 17.45 5.517 25.639l1.086 4.942c3.595-9.28 12.611-15.879 23.145-15.879 13.683 0 24.815 11.132 24.815 24.816s-11.132 24.816-24.815 24.816c-6.917 0-13.18-2.848-17.685-7.428 3.277 17.576 4.931 32.727 3.141 45.918 20.706 12.295 42.305 13.132 57.476 11.408q.87-.1 1.73-.213a31.02 31.02 0 0 1-7.524-20.288c0-17.158 13.959-31.117 31.117-31.117 13.629 0 25.403 8.827 29.533 21.328 14.886-25.605 14.176-63.665 13.526-97.812"
  />
  <path
    fill="#8CBA3B"
    d="m95.839 286.069-6.441 1.527a19.2 19.2 0 0 1-4.438.522c-3.52 0-6.99-.979-10.075-2.882-4.382-2.702-7.444-6.932-8.624-11.91l-1.389-5.858c-2.444-10.313 3.957-20.692 14.27-23.137l3.13-.742a838 838 0 0 1-2.748-11.433l-6.369 1.509c-7.353 1.744-13.605 6.274-17.603 12.757s-5.24 14.102-3.496 21.456l2.568 10.835c1.743 7.354 6.274 13.606 12.756 17.604 6.483 3.999 14.102 5.24 21.457 3.497l12.265-2.908a135 135 0 0 1-5.263-10.837"
  />
  <path
    fill="#D2E6B0"
    d="M250.318 268.052c-13.793 15.374-35.777 24.549-52.727 29.679-19.324 5.849-41.162 9.072-60.527 9.072-4.023 0-7.936-.139-11.701-.422-5.742-.432-10.526-1.487-14.095-2.531 5.295 7.527 11.543 13.787 19.069 18.184 8.672 5.066 27.887 9.451 49.56 7.105 17.434-1.885 41.927-8.695 59.605-30.433 6.96-8.558 10.122-18.746 10.816-30.654"
  />
  <path
    fill="#D2E6B0"
    d="M93.08 263.97c.83.392 8.439 3.866 19.534 4.701 40.239 3.03 112.075-12.346 133.332-43.327-.222-1.133-.444-2.267-.677-3.42q-.14-.7-.286-1.406a3720 3720 0 0 0-4.786-22.275l-.427-1.947c-10.999 13.383-31.976 24.997-59.752 32.974-21.498 6.175-45.706 9.67-65.84 9.67-3.882 0-7.611-.13-11.142-.395-7.814-.588-14.013-2.328-17.725-3.624 2.315 9.747 4.82 19.586 7.77 29.049"
  />
  <path
    fill="#8CBA3B"
    d="M125.738 301.392c38.202 2.874 102.411-9.964 124.696-41.479-.211-7.943-1.279-16.572-2.889-25.917l-.071-.414c-.094-.538-.194-1.085-.291-1.628-11.081 13.173-31.637 24.583-58.635 32.434-21.213 6.168-45.2 9.661-65.232 9.661-3.855 0-7.563-.13-11.076-.394-7.467-.562-13.418-2.206-17.151-3.508 3.284 9.644 7.117 18.755 11.781 26.808 1.738.783 8.736 3.675 18.868 4.437"
  />
  <path
    fill="#8CBA3B"
    d="M83.925 229.017c1.45.641 8.932 3.747 19.487 4.541 21.29 1.604 50.115-1.882 75.226-9.093 29.007-8.331 50.166-20.552 59.581-34.412.043-.064.098-.115.146-.174a1534 1534 0 0 1-3.683-17.28c-.216-1.045-.519-1.945-.928-2.754a2.5 2.5 0 0 1-.153-.379c-.493-.866-1.223-1.768-2.348-2.631.269 13.256-42.012 28.157-71.476 35.141-19.727 4.677-38.707 7.39-53.442 7.641q-1.121.02-2.195.019c-14.931 0-23.15-2.759-24.442-8.21-.014-.059-.014-.121-.026-.181-1.105 1.482-1.593 2.776-1.35 3.77 1.333 5.454 2.608 10.999 3.957 16.87.543 2.36 1.09 4.741 1.645 7.132"
  />
  <path
    fill="#A17AD8"
    d="M101.98 186.658c-14.657 7.054-17.802 11.99-17.417 13.614.365 1.537 4.908 4.308 19.161 4.361 28.691-3.589 43.491-7.838 60.716-24.734 8.365-8.206 20.296-11.635 34.509-9.913 10.527 1.275 18.541 4.881 18.876 5.034.108.048.198.12.296.182 6.745-4.317 8.386-7.314 8.102-8.511-.368-1.553-4.984-4.364-19.619-4.364q-.997 0-2.057.017c-14.382.244-32.986 2.911-52.385 7.51-19.4 4.598-37.221 10.566-50.182 16.804"
  />
  <path
    fill="#000"
    d="M245.399 391.309c74.464 0 134.83-5.711 134.83-12.756s-60.366-12.756-134.83-12.756-134.831 5.711-134.831 12.756 60.366 12.756 134.831 12.756"
  />
  <path
    fill="#AD5400"
    d="M167.942 183.47c-7.856 7.706-15.339 12.95-23.675 16.715a334 334 0 0 0 14.356-3.073c21.384-5.069 41.205-11.967 54.022-18.746-4.181-1.474-12.089-3.775-20.724-3.775-8.192 0-17.038 2.07-23.979 8.879"
  />
  <path
    fill="#D2E6B0"
    d="M276.556 237.159c10.927 0 19.815-8.889 19.815-19.816s-8.888-19.816-19.815-19.816-19.816 8.889-19.816 19.816 8.889 19.816 19.816 19.816"
  />
  <path
    fill="#D2E6B0"
    d="M314.358 163.72a31 31 0 0 0-.387 4.849c0 16.906 13.755 30.661 30.661 30.661s30.66-13.755 30.66-30.661c0-4.838-1.13-9.416-3.135-13.49-14.432 5.244-38.083 7.922-57.799 8.641"
  />
  <path
    fill="#A17AD8"
    d="M259.723 135.411a54 54 0 0 1-1.935 2.622c-1.807 2.326-1.534 3.754-1.171 4.625 1.546 3.707 10.466 10.69 52.834 15.8.894.108 1.671.209 2.341.347 18.434-.495 35.592-2.43 48.668-5.511 15.843-3.731 19.981-7.872 19.954-9.54-.025-1.669-4.287-5.681-20.229-8.917-14.097-2.86-32.85-4.261-52.773-3.956-17.679.275-34.371 1.872-47.689 4.53"
  />
  <path
    fill="#AD5400"
    d="M272.317 105.062c1.482 3.359 6.911 4.357 11.856 2.179 2.558-1.128 4.621-2.9 5.805-4.988 1.049-1.849 1.256-3.707.584-5.233-1.481-3.36-6.908-4.36-11.856-2.18-4.943 2.18-7.87 6.86-6.389 10.222"
  />
  <path
    fill="#000"
    d="M267.742 107.079c1.779 4.037 6.169 6.312 11.17 6.312 2.359 0 4.855-.507 7.276-1.574 3.537-1.558 6.427-4.078 8.139-7.095 1.848-3.258 2.136-6.709.81-9.717-2.62-5.942-10.894-8.067-18.448-4.74-7.552 3.33-11.566 10.872-8.948 16.813zm22.82-10.058c.672 1.526.465 3.385-.584 5.233-1.185 2.089-3.247 3.86-5.806 4.988-4.945 2.178-10.374 1.181-11.855-2.179-1.482-3.362 1.445-8.042 6.389-10.222 4.948-2.18 10.374-1.18 11.856 2.18"
  />
  <path
    fill="#AD5400"
    d="M234.712 145.252q.055.162.087.329c.225.511 4.086 7.824 38.301 11.362-12.106-3.402-19.071-7.501-21.098-12.364-.898-2.153-1.307-5.569 1.838-9.617 1.629-2.097 6.589-8.479 5.333-13.635-.602-2.469-2.673-4.536-6.155-6.143-3.418-1.577-7.596-.485-11.463 2.995-5.912 5.319-10.575 16.06-6.843 27.073"
  />
  <path
    fill="#D2E6B0"
    d="M344.81 245.438c-14.401 0-26.117 11.716-26.117 26.117 0 7.392 3.102 14.37 8.55 19.322 16.095-3.06 31.182-9.985 38.673-17.799a56 56 0 0 0 4.686-5.601c-1.976-12.63-12.898-22.039-25.792-22.039"
  />
</svg>
