<svg xmlns="http://www.w3.org/2000/svg" width="480" height="480" fill="none" viewBox="0 0 480 480">
  <path
    fill="#000"
    d="M400.444 377.482c-.15-2.876-.388-6.73-.524-8.89.113-4.758-5.076-11.942-48.743-19.936a496 496 0 0 0-5.17-.915l25.744-102.648c1.813-2.305 8.994-12.271 3.317-18.796-.905-1.042-2.113-1.851-3.59-2.404-3.795-1.419-22.963-8.582-27.567-10.168l-83.079-29.3a11.3 11.3 0 0 0 .199-4.9c-.475-2.618-1.833-4.959-3.911-6.917 1.043-2.215 1.397-4.642.939-7.06-.765-4.033-3.626-7.377-7.989-9.564a34 34 0 0 0 1.357-4.305c1.946-8.157-1.503-16.865-5.532-21.503-5.314-6.12-14.379-8.922-20.633-6.383-1.438.585-2.648 1.465-3.818 2.317-.931.678-1.798 1.305-2.734 1.778 1.25-23.307-3.647-39.089-14.602-46.9-9.8-6.988-22.167-5.628-30.474-2.025-2.85 1.236-7.965 4.547-6.923 8.233 1.037 3.67 6.447 3.386 11.046 2.73a2.5 2.5 0 0 0-.707-4.95c-2.063.295-3.455.364-4.38.347a13 13 0 0 1 2.953-1.773c7.054-3.06 17.479-4.27 25.583 1.51 9.481 6.76 13.758 21.8 12.452 43.535-.934-.138-1.921-.36-2.997-.613-4.724-1.108-10.604-2.488-17.866 2.919-5.428 4.042-8.856 10.44-9.17 17.117a24.8 24.8 0 0 0 .351 5.587c-1.787.648-3.689 1.491-5.04 2.503-.612.459-1.174.988-1.684 1.57-2.091-.58-4.357-.989-6.769-1.211-8.235-.752-15.547 2.208-20.529 6.494-1.439-.291-2.965-.497-4.667-.653-7.42-.68-13.969 1.566-18.816 5.1a40 40 0 0 0-3.326-.46c-7.462-.683-15.042 1.344-20.614 5.08-11.893-.971-21.824 5.775-25.505 13.017-2.994 5.89-2.274 12.038 1.986 16.878.459.514 3.006 2.952 10.442 3.911l34.018 131.33c-.673.052-1.348.105-2.012.16-43.466 3.592-49.895 10.063-50.445 14.79l-.008.076c-.012.114-.01.774.02 1.44l.61 11.338c-.073 2.665 1.513 6.093 10.597 10 3.432 4.408 14.512 9.959 47.337 15.968 30.497 5.583 71.178 9.836 114.548 11.976 19.676.971 38.839 1.454 56.795 1.454 21.624 0 41.494-.702 58.374-2.097 44.757-3.699 50.245-10.45 50.48-15.207.126-2.556-1.206-5.837-9.324-9.58M76.636 365.07l.006-.129-.264-4.91c6.02 3.736 18.407 8.036 43.34 12.601 30.497 5.583 71.177 9.836 114.547 11.975 19.676.971 38.84 1.454 56.796 1.454 21.623 0 41.493-.701 58.374-2.096 27.409-2.266 40.089-5.676 45.856-9.072.168 2.908.3 5.43.291 5.921-.121 1.874-8.58 7.376-45.898 10.461-30.686 2.536-71.352 2.761-114.511.632-43.157-2.129-83.606-6.355-113.893-11.9-36.895-6.754-44.737-13.073-44.644-14.937m17.42-161.451a2.494 2.494 0 0 0-2.279-2.562c-6.565-.553-8.832-2.308-9.084-2.52-3.792-4.373-2.39-8.906-1.21-11.227 2.945-5.795 11.049-11.195 20.865-10.289 6.999.643 12.572 3.093 15.292 6.723a2.5 2.5 0 0 0 4.001-2.999c-2.399-3.201-6.296-5.68-11.145-7.198a27.74 27.74 0 0 1 12.191-1.62c5.905.542 11.007 2.468 13.999 5.283a2.5 2.5 0 1 0 3.426-3.641c-1.852-1.744-4.222-3.185-6.964-4.292a22.85 22.85 0 0 1 11.682-1.99c5.375.494 7.93 1.347 10.938 3.654a2.5 2.5 0 0 0 3.043-3.968 22.3 22.3 0 0 0-3.195-2.063c3.837-2.461 8.848-3.976 14.41-3.463 1.653.152 3.22.411 4.694.756-.56 1.744-.769 3.611-.545 5.432.054.44.147.944.286 1.485-.081.055-.169.107-.246.162-3.64 2.595-5.725 7.373-5.189 11.889.336 2.828 2.027 8.026 9.585 11.072 13.852 5.582 27.973 7.592 40.34 7.592 16.167 0 29.338-3.435 34.992-6.818 1.897-1.136 3.456-2.529 4.643-4.082l83.679 29.511c4.562 1.572 23.676 8.715 27.461 10.131.688.257 1.215.594 1.57 1.001 2.609 3-.97 9.101-3.095 11.935-40.535 2.101-84.905 1.424-131.898-2.012l-7.556-.574c-4.597-.331-7.789 2.026-10.599 4.104-2.846 2.104-5.307 3.913-9.248 3.582-2.539-.218-5.015-2.63-7.409-4.963-2.436-2.374-4.737-4.615-7.537-4.927-6.802-.754-9.461 2.557-15.274 9.821l-.38.475c-1.763 2.202-4.057 3.262-6.444 2.989-3.716-.426-7.39-3.895-10.082-9.516-4.409-9.206-13.629-10.627-17.948-10.091-6.102.515-11.031 2.851-14.257 6.757-3.423 4.146-4.778 9.77-4.026 16.716.33 3.057 2.221 18.797 6.969 28.47 4.781 9.74 57.662 19.344 126.479 11.624 59.885-6.719 88.163-7.907 97.018-8.113l-2.241 8.912c-1.414.023-3.585.07-6.474.162l-3.327.156c-18.008.333-20.067 10.463-21.428 17.166-.99 4.868-1.504 6.113-3.923 6.196-3.805.119-4.727-1.941-6.442-6.639-2.393-6.56-5.672-15.54-23.483-12.775l-2.944.307a985 985 0 0 0-18.299 2.112c-41.004 5.123-71.504 3.009-91.687 1.61-18.922-1.312-29.343-2.033-34.269 3.632-2.78 3.199-3.324 7.915-1.762 15.293 3.476 16.413 7.6 29.501 9.484 35.127a333 333 0 0 1-5.467-.996c-1.507-.324-3.075-.638-4.66-.962-3.154-.726-5.132-1.305-6.219-1.658l-38.76-149.626c-.017-.087-.022-.168-.034-.252zm87.878-43.509c.831-.622 2.134-1.209 3.478-1.706a22 22 0 0 0 1.407 2.763c-.423 1.249.22 2.636 1.454 3.136 2.881 1.165 14.574 5.427 31.378 5.427 7.075 0 15.057-.755 23.666-2.816a2.5 2.5 0 0 0 1.914-2.536 29.4 29.4 0 0 0 2.686-3.885c2.899 1.47 4.767 3.55 5.229 5.987.554 2.922-1.068 5.974-4.233 7.966-7.29 4.588-36.068 10.835-64.028-.935-3.415-1.437-5.403-3.681-5.748-6.486-.356-2.897 1.138-5.672 2.797-6.915m6.685-11.857c.241-5.119 2.986-10.232 7.162-13.341 3.015-2.246 5.61-2.94 8.061-2.94 1.936 0 3.784.434 5.677.878 2.147.503 4.371 1.021 6.667.854 3.702-.276 6.197-2.092 8.201-3.552 1.011-.736 1.885-1.372 2.756-1.726 4.253-1.727 11.11.576 14.978 5.028 3.319 3.822 5.911 10.911 4.443 17.064-1.141 4.777-3.299 8.79-6.28 11.954-23.188 5.065-41.549.155-47.921-1.996-2.538-3.191-3.98-7.22-3.744-12.223m62.757 40.473c-8.067 4.827-39.925 11.36-70.895-1.121-3.886-1.566-6.13-3.994-6.49-7.023-.303-2.553.827-5.318 2.76-6.923 1.318 1.635 3.275 3.231 6.195 4.461 12.506 5.264 25.261 7.164 36.466 7.164 14.847-.001 26.971-3.338 32.164-6.606a16.2 16.2 0 0 0 2.569-1.995c1.04 1.12 1.72 2.375 1.966 3.735.561 3.092-1.209 6.198-4.735 8.308m106.26 92.093c-6.608.074-33.996.865-99.203 8.18-40.052 4.495-69.529 2.799-87.202.585-23.49-2.941-33.343-7.717-34.231-9.443-3.395-6.918-5.616-18.764-6.487-26.805-.601-5.555.379-9.927 2.912-12.994 2.977-3.606 7.554-4.689 10.868-4.962l.104-.011a9 9 0 0 1 1.066-.051c2.482 0 8.629.709 11.801 7.333 3.501 7.312 8.481 11.689 14.021 12.325 4.106.47 8.083-1.292 10.919-4.833l.38-.475c5.676-7.093 6.869-8.416 10.817-7.976 1.094.122 2.957 1.937 4.601 3.539 2.883 2.809 6.15 5.993 10.471 6.364 5.829.505 9.609-2.297 12.648-4.544 2.52-1.863 4.521-3.331 7.258-3.138l7.552.574c46.338 3.389 90.152 4.105 130.282 2.133zm-20.998 83.727c-1.94.223-3.889.418-5.849.611l-9.394.83q-2.417.218-4.84.461c-16.39.692-44.008.788-88.83-1.626-34.121-1.836-56.769-4.314-71.443-6.516l-1.455-.241c-.831-2.342-5.995-17.231-10.205-37.114-1.189-5.616-.985-9.103.643-10.976.334-.384.763-.71 1.246-1.004a8 8 0 0 1 1.238-.616c4.828-1.882 14.394-1.223 27.667-.304 20.375 1.411 51.166 3.545 92.652-1.638a995 995 0 0 1 18.202-2.101l3.003-.313.127-.017q.547-.084 1.07-.153c1.963-.263 3.669-.359 5.163-.316 8.272.241 9.955 4.831 11.845 10.008 1.655 4.537 3.716 10.189 11.31 9.923 6.624-.228 7.748-5.756 8.65-10.198 1.349-6.635 2.623-12.903 16.692-13.165l3.36-.157c2.23-.07 4.04-.113 5.389-.139zm-209.277-12.37c-1.806-.631-3.53-1.359-5.106-2.231-.837-.63-2.035-.613-2.78.199a2.016 2.016 0 0 0 .112 2.849c3.518 3.252 7.507 4.565 11.396 5.791 6.503 1.819 13.12 2.958 19.783 3.745 14.615 2.407 38.535 5.232 76.691 7.286 28.789 1.55 50.502 2.082 66.758 2.082 18.81 0 30.296-.713 36.965-1.388 7.561-.424 16.165-1.57 19.591-5.557 1.522-1.62-.485-4.169-2.425-3.045-1.082.675-2.176 1.091-3.978 1.463-.792.162-1.59.292-2.388.426l2.807-11.192q2.798.478 5.489.971c36.895 6.754 44.737 13.072 44.644 14.937-.091 1.864-8.516 7.38-45.897 10.47-30.687 2.536-71.354 2.761-114.512.631-43.157-2.129-83.605-6.355-113.893-11.9-36.895-6.754-44.736-13.072-44.644-14.937.092-1.864 8.517-7.38 45.898-10.469a427 427 0 0 1 2.873-.228z"
  />
  <path
    fill="#A17AD8"
    d="M121.28 380.007c30.287 5.545 70.736 9.771 113.893 11.9 43.158 2.129 83.825 1.904 114.511-.632 37.317-3.085 45.777-8.586 45.897-10.46.01-.492-.122-3.014-.29-5.922-5.767 3.396-18.447 6.806-45.856 9.072-16.881 1.395-36.751 2.096-58.375 2.096-17.956 0-37.119-.483-56.795-1.454-43.37-2.139-84.05-6.392-114.547-11.975-24.933-4.564-37.32-8.865-43.34-12.601l.264 4.91-.006.129c-.093 1.865 7.749 8.183 44.644 14.937"
  />
  <path
    fill="#D5C3EE"
    d="M75.974 352.776c-.092 1.865 7.75 8.183 44.644 14.937 30.288 5.545 70.736 9.771 113.893 11.9 43.158 2.13 83.825 1.905 114.512-.631 37.381-3.09 45.806-8.606 45.897-10.47.093-1.865-7.749-8.183-44.644-14.937a466 466 0 0 0-5.489-.971l-2.807 11.192c.798-.134 1.596-.264 2.388-.426 1.802-.372 2.896-.788 3.978-1.462 1.94-1.125 3.947 1.424 2.425 3.044-3.426 3.987-12.03 5.133-19.591 5.557-6.669.675-18.155 1.388-36.965 1.388-16.256 0-37.969-.532-66.758-2.082-38.156-2.054-62.076-4.879-76.691-7.286-6.663-.787-13.28-1.926-19.783-3.745-3.889-1.226-7.878-2.539-11.396-5.791a2.016 2.016 0 0 1-.112-2.849c.745-.812 1.943-.829 2.78-.199 1.576.872 3.3 1.6 5.106 2.231l-2.616-10.097q-1.45.11-2.873.228c-37.381 3.089-45.806 8.605-45.898 10.469"
  />
  <path fill="#EE6DBB" d="m290.469 303.829 5.164-.316c-1.494-.044-3.2.053-5.164.316" />
  <path fill="#EE6DBB" d="m146.511 308.971 1.238-.616a8 8 0 0 0-1.238.616" />
  <path
    fill="#FAD0E9"
    d="M352.879 299.785c-1.349.026-3.159.069-5.389.139l-3.36.158c-14.069.261-15.343 6.529-16.692 13.165-.902 4.441-2.026 9.969-8.65 10.197-7.594.266-9.655-5.385-11.311-9.923-1.889-5.177-3.573-9.767-11.844-10.008l-5.164.316q-.522.069-1.069.153l-.127.017-3.004.314a987 987 0 0 0-18.201 2.1c-41.486 5.183-72.278 3.049-92.653 1.638-13.272-.919-22.838-1.578-27.666.305l-1.238.615c-.483.295-.912.62-1.246 1.004-1.628 1.873-1.832 5.36-.643 10.976 4.21 19.883 9.374 34.772 10.205 37.114l1.454.241c14.675 2.202 37.323 4.68 71.444 6.516 44.822 2.414 72.44 2.318 88.83 1.626q2.423-.243 4.84-.461l9.394-.83c1.96-.193 3.909-.388 5.848-.611zm-99.702 30.151a4.02 4.02 0 0 1 4.017-4.018 4.02 4.02 0 0 1 4.018 4.018 4.02 4.02 0 0 1-4.018 4.017 4.02 4.02 0 0 1-4.017-4.017m-9.984 13.238a5.563 5.563 0 0 1-5.557 5.557 5.564 5.564 0 0 1-5.558-5.557 5.564 5.564 0 0 1 5.558-5.558 5.564 5.564 0 0 1 5.557 5.558"
  />
  <path
    fill="#FAD0E9"
    d="m235.931 244.487-7.552-.574c-2.737-.193-4.738 1.275-7.258 3.138-3.039 2.247-6.819 5.049-12.648 4.544-4.321-.371-7.588-3.555-10.471-6.364-1.644-1.602-3.507-3.417-4.601-3.539-3.948-.44-5.141.883-10.817 7.976l-.38.476c-2.836 3.541-6.813 5.302-10.919 4.832-5.54-.636-10.52-5.013-14.021-12.325-3.172-6.624-9.319-7.333-11.801-7.333-.608 0-.995.042-1.067.051l-.103.011c-3.314.273-7.891 1.356-10.868 4.962-2.533 3.067-3.513 7.439-2.912 12.994.871 8.041 3.091 19.887 6.487 26.805.888 1.726 10.741 6.502 34.23 9.443 17.674 2.214 47.151 3.91 87.203-.584 65.207-7.316 92.595-8.107 99.203-8.181l8.577-34.199c-40.13 1.972-83.944 1.256-130.282-2.133m-49.837 12.035a4.02 4.02 0 0 1 4.017 4.018 4.02 4.02 0 0 1-4.017 4.017 4.02 4.02 0 0 1-4.018-4.017 4.023 4.023 0 0 1 4.018-4.018"
  />
  <path
    fill="#FFFBE8"
    d="M251.576 178.678c-5.193 3.268-17.317 6.605-32.164 6.606-11.205 0-23.96-1.9-36.466-7.164-2.92-1.229-4.877-2.826-6.195-4.461-1.933 1.605-3.063 4.37-2.76 6.923.36 3.029 2.604 5.458 6.489 7.023 30.971 12.481 62.829 5.948 70.896 1.121 3.526-2.11 5.296-5.216 4.735-8.308-.246-1.359-.926-2.615-1.966-3.734a16.3 16.3 0 0 1-2.569 1.994"
  />
  <path
    fill="#FFFBE8"
    d="M179.137 167.025c.345 2.806 2.333 5.049 5.748 6.486 27.96 11.77 56.738 5.523 64.028.935 3.165-1.992 4.787-5.044 4.233-7.966-.462-2.437-2.33-4.517-5.229-5.987a29.4 29.4 0 0 1-2.686 3.885 2.5 2.5 0 0 1-1.914 2.537 101.6 101.6 0 0 1-23.666 2.815c-16.804 0-28.497-4.262-31.378-5.427-1.234-.5-1.878-1.887-1.454-3.136a22 22 0 0 1-1.407-2.763c-1.345.497-2.647 1.084-3.478 1.706-1.659 1.244-3.153 4.018-2.797 6.915"
  />
  <path
    fill="#C0167C"
    d="M192.363 160.476c6.372 2.151 24.733 7.061 47.921 1.996 2.981-3.164 5.139-7.177 6.279-11.954 1.469-6.153-1.123-13.242-4.442-17.064-3.868-4.452-10.725-6.755-14.978-5.028-.871.354-1.745.99-2.756 1.726-2.004 1.46-4.499 3.276-8.201 3.552-2.296.168-4.52-.351-6.667-.854-1.894-.444-3.741-.878-5.677-.878-2.451 0-5.046.694-8.061 2.94-4.177 3.109-6.921 8.222-7.162 13.341-.236 5.003 1.206 9.032 3.744 12.223"
  />
  <path
    fill="#000"
    d="M239.835 102.369c1.83-3.086 4.04-6.077 6.303-8.848 2.189-3.577-2.971-6.91-5.334-3.453a73 73 0 0 0-5.405 10.005c-1.204 2.853 2.787 4.938 4.436 2.296"
  />
  <path
    fill="#000"
    d="M255.927 112.236c3.408-2.381 6.403-5.129 9.364-7.998 2.928-2.848 5.768-5.78 8.411-8.894 2.636-3.217-1.741-7.389-4.83-4.584-5.797 5.632-11.473 11.446-16.398 17.86a2.531 2.531 0 0 0 3.453 3.616"
  />
  <path
    fill="#000"
    d="M177.956 117.332a2.503 2.503 0 0 0 3.354-.681c1.624-2.57-1.169-3.908-2.961-5.087-2.462-1.577-4.965-3.044-7.626-4.304-3.708-1.326-5.782 4.057-2.15 5.566a68 68 0 0 1 9.383 4.506"
  />
  <path
    fill="#000"
    d="M145.187 128.11c1.938.634 3.899 1.197 5.862 1.749 5.939 1.597 11.875 3.043 17.95 4.089 3.025.46 4.099-3.844 1.196-4.854a1054 1054 0 0 0-11.528-3.744l-5.794-1.8c-1.939-.575-3.875-1.159-5.831-1.679a3.256 3.256 0 0 0-1.855 6.239"
  />
  <path
    fill="#000"
    d="M186.094 264.557a4.02 4.02 0 0 0 4.017-4.017 4.02 4.02 0 0 0-4.017-4.018 4.023 4.023 0 0 0-4.018 4.018 4.02 4.02 0 0 0 4.018 4.017"
  />
  <path fill="#000" d="M257.194 333.953a4.018 4.018 0 1 0 0-8.036 4.018 4.018 0 0 0 0 8.036" />
  <path fill="#000" d="M237.636 348.731a5.557 5.557 0 1 0 0-11.114 5.557 5.557 0 0 0 0 11.114" />
  <path
    fill="#EE6DBB"
    d="M143.826 230.401c4.319-.536 13.539.885 17.948 10.091 2.692 5.621 6.366 9.09 10.081 9.516 2.388.273 4.682-.787 6.445-2.99l.38-.474c5.813-7.264 8.472-10.575 15.274-9.821 2.8.312 5.101 2.553 7.537 4.927 2.394 2.333 4.87 4.745 7.409 4.963 3.941.331 6.402-1.478 9.248-3.582 2.81-2.078 6.002-4.435 10.599-4.104l7.556.574c46.993 3.436 91.363 4.113 131.898 2.012 2.125-2.834 5.704-8.935 3.094-11.935-.354-.407-.881-.744-1.569-1.001-3.785-1.416-22.899-8.559-27.461-10.131l-83.679-29.511c-1.187 1.553-2.746 2.946-4.643 4.082-5.654 3.383-18.825 6.818-34.992 6.818-12.367 0-26.488-2.01-40.34-7.592-7.558-3.046-9.249-8.244-9.585-11.072-.536-4.516 1.549-9.294 5.189-11.889.077-.055.165-.107.246-.162a12 12 0 0 1-.286-1.485c-.224-1.821-.015-3.688.544-5.432a34 34 0 0 0-4.693-.756c-5.562-.513-10.573 1.002-14.41 3.463a22.3 22.3 0 0 1 3.195 2.063 2.5 2.5 0 0 1-3.043 3.968c-3.008-2.307-5.563-3.16-10.938-3.654a22.84 22.84 0 0 0-11.682 1.99c2.742 1.107 5.112 2.548 6.964 4.292a2.499 2.499 0 1 1-3.426 3.641c-2.992-2.815-8.094-4.741-13.999-5.283-4.418-.406-8.6.282-12.191 1.62 4.849 1.518 8.746 3.996 11.145 7.198a2.5 2.5 0 0 1-4.001 2.999c-2.72-3.63-8.293-6.08-15.292-6.723-9.816-.906-17.92 4.494-20.865 10.289-1.18 2.321-2.582 6.854 1.21 11.227.252.212 2.518 1.967 9.084 2.52a2.493 2.493 0 0 1 2.28 2.561c.005.001 38.811 149.88 38.811 149.88 1.087.353 3.065.932 6.218 1.658 1.586.324 3.154.638 4.661.962 1.818.349 3.641.677 5.467.996-1.884-5.626-6.008-18.714-9.484-35.127-1.562-7.378-1.019-12.095 1.762-15.293 4.925-5.665 15.347-4.944 34.269-3.632 20.183 1.399 50.683 3.513 91.687-1.61a984 984 0 0 1 18.299-2.112l2.943-.307c17.811-2.765 21.091 6.214 23.484 12.774 1.715 4.699 2.637 6.759 6.442 6.64 2.419-.083 2.933-1.328 3.923-6.196 1.361-6.703 3.42-16.833 21.428-17.166l3.327-.156a423 423 0 0 1 6.474-.162l2.241-8.912c-8.855.206-37.134 1.394-97.018 8.113-68.817 7.72-121.699-1.884-126.479-11.624-4.748-9.673-6.639-25.413-6.97-28.47-.751-6.946.603-12.57 4.027-16.716 3.226-3.906 8.155-6.242 14.257-6.757m-22.105-21.868c-1.419-.676-4.674-1.324-3.638-3.606.463-.88 1.568-1.153 2.408-.649 5.168 2.362 10.934 3.672 16.466 5.014 24.876 5.401 50.567 7.746 75.916 9.691 31.361 2.323 63.017 2.616 94.429 3.998 2.501.115 2.759 3.987-.056 4.136-15.8.206-31.595-.158-47.38-.858-35.529-1.616-71.131-3.865-106.258-9.751-7.685-1.42-15.774-3.033-23.286-5.14-2.89-.858-5.785-1.694-8.601-2.835"
  />
  <path
    fill="#000"
    d="M307.246 227.118c-15.8.206-31.595-.159-47.38-.859-35.529-1.616-71.131-3.865-106.258-9.751-7.685-1.42-15.774-3.033-23.286-5.14-2.89-.858-5.785-1.694-8.601-2.834-1.419-.677-4.674-1.325-3.638-3.607.463-.88 1.568-1.153 2.408-.649 5.168 2.362 10.934 3.672 16.466 5.014 24.876 5.401 50.567 7.746 75.916 9.691 31.361 2.323 63.017 2.617 94.429 3.998 2.501.116 2.759 3.987-.056 4.137"
  />
</svg>
