<svg xmlns="http://www.w3.org/2000/svg" width="295" height="325" fill="none" viewBox="0 0 295 325"><path fill="#7A42C8" d="M86.156 152.676c-.811-.03-1.603.081-2.374.391-1.914.792-3.768 3.367-5.24 4.83-6.394 6.383-10.642 18.457-10.562 31.683.08 13.578 4.419 30.331 9.309 42.986 6.994 18.107 18.346 34.399 32.184 48.016 2.936 2.896 6.874 5.882 10.792 4.59 3.567-1.183 5.1-5.281 6.152-8.888 1.303-4.479 2.595-8.958 3.848-13.447 2.735-9.73 5.42-19.78 5.751-29.93.461-13.998-3.767-28.557-11.924-40.24 1.824.761 3.648 1.523 5.471 2.274-6.713-18.116-21.042-33.266-38.757-40.972-1.473-.641-3.087-1.232-4.67-1.293z"/><path fill="#000" d="M118.351 287.997c-4.92 0-9.098-4.118-10.631-5.621-14.64-14.399-25.972-31.313-32.766-48.898-5.862-15.16-9.399-31.563-9.469-43.878-.08-13.607 4.249-26.433 11.293-33.477.36-.361.741-.791 1.152-1.252 1.393-1.564 2.966-3.327 4.91-4.129 1.042-.431 2.184-.621 3.416-.581 2.065.08 4.059.842 5.572 1.503 18.206 7.936 33.196 23.788 40.1 42.405l2.004 5.401-3.657-1.523c5.691 10.671 8.657 23.076 8.266 35.04-.33 10.17-2.956 20.24-5.842 30.531a1491 1491 0 0 1-3.857 13.467c-.842 2.876-2.585 8.858-7.776 10.571a8.7 8.7 0 0 1-2.705.431zM85.886 155.171c-.431 0-.812.07-1.152.211-.872.36-2.145 1.783-3.067 2.825a35 35 0 0 1-1.352 1.463c-6.042 6.042-9.9 17.776-9.83 29.9.08 13.818 4.77 30.812 9.138 42.104 6.543 16.934 17.475 33.227 31.604 47.135 3.446 3.386 6.142 4.699 8.246 3.998 2.365-.782 3.617-4.089 4.539-7.215 1.313-4.509 2.615-9.028 3.848-13.417 2.916-10.36 5.341-19.709 5.661-29.338.451-13.517-3.737-27.636-11.473-38.728l-4.92-7.054 7.746 3.226c-7.154-14.939-19.91-27.414-35.05-34.008-1.112-.481-2.535-1.042-3.758-1.092h-.17z"/><path fill="#000" d="M188.962 288.818c-65.371 9.168-125.792-36.403-134.96-101.774C45.305 125 72.068 67.134 132.108 53.597c-9.058-.6-4.479 0-13.827 1.313C44.754 65.22-6.499 133.177 3.811 206.704s78.267 124.78 151.794 114.469c39.8-5.581 73.067-28.056 93.588-59.159-16.594 13.948-37.185 23.568-60.231 26.794z"/><path fill="#000" d="M136.858 325C69.704 325 10.916 275.421 1.337 207.054-9.144 132.275 43.16 62.916 117.94 52.424c3.397-.48 4.87-.851 5.852-1.102 2.124-.54 2.865-.6 8.487-.23a2.506 2.506 0 0 1 2.334 2.305 2.49 2.49 0 0 1-1.944 2.635c-27.815 6.273-49.659 22.625-63.186 47.295-12.675 23.116-17.285 52.725-12.996 83.356 4.339 30.952 20.471 58.367 45.431 77.185s55.752 26.794 86.703 22.455c21.804-3.056 42.195-12.124 58.968-26.233a2.5 2.5 0 0 1 3.277.05 2.49 2.49 0 0 1 .421 3.247c-21.663 32.846-56.403 54.81-95.331 60.261a137 137 0 0 1-19.098 1.332zM108.291 59.268C41.838 74.008-3.313 137.826 6.297 206.373c10.1 72.044 76.924 122.435 148.968 112.335 31.974-4.479 61.022-20.531 81.823-44.78-14.448 9.048-30.701 14.98-47.785 17.375-32.275 4.529-64.389-3.788-90.411-23.417s-42.846-48.207-47.375-80.491c-4.439-31.694.37-62.405 13.567-86.463 10.21-18.617 24.91-32.736 43.207-41.664"/><path fill="#DCEDF1" d="M192.97 284.81c-65.371 9.168-125.791-36.403-134.96-101.774-8.697-62.044 31.904-119.62 91.944-133.156a134.7 134.7 0 0 0-27.665 1.022C48.762 61.212-2.491 129.168 7.819 202.696c10.311 73.527 78.267 124.779 151.794 114.469 39.8-5.582 73.067-28.057 93.588-59.159-16.593 13.948-37.185 23.567-60.231 26.794z"/><path fill="#000" d="M140.866 320.992c-67.155 0-125.942-49.579-135.521-117.946-10.481-74.779 41.823-144.138 116.603-154.63a137.4 137.4 0 0 1 28.176-1.041l17.255 1.142-16.864 3.798c-28.537 6.433-53.487 23.256-70.24 47.375-16.854 24.248-23.878 53.727-19.77 82.986 4.339 30.951 20.471 58.366 45.431 77.184s55.752 26.794 86.704 22.455c21.803-3.056 42.194-12.124 58.968-26.233l13.196-11.092-9.489 14.389c-21.663 32.846-56.403 54.81-95.331 60.261a137 137 0 0 1-19.098 1.332zM133.08 52.345c-3.487.21-6.974.56-10.441 1.042C50.595 63.487.204 130.31 10.305 202.355S87.239 324.79 159.273 314.69c31.974-4.479 61.022-20.531 81.824-44.78-14.449 9.048-30.702 14.98-47.786 17.375-32.275 4.529-64.389-3.788-90.411-23.417s-42.846-48.206-47.375-80.491c-4.278-30.521 3.046-61.253 20.621-86.543 14.199-20.431 34.029-35.842 56.924-44.5z"/><path fill="#000" d="M252.199 245.321a73.4 73.4 0 0 1 3.667-11.583c1.693-3.838 7.385-1.503 5.882 2.425-1.814 3.346-3.487 6.924-4.74 10.531-1.092 2.936-5.44 1.683-4.809-1.373"/><path fill="#000" d="M270.415 239.439c4.239-5.28 9.028-10.12 13.818-14.899a153 153 0 0 1 4.88-4.71 3.344 3.344 0 0 1 4.729.191c1.162 1.262 1.152 3.206.04 4.469-6.182 6.753-12.595 13.216-20.05 18.617-2.385 1.673-5.24-1.443-3.407-3.678"/><path fill="#D69200" d="m172.88 52.184 10.13-.18 2.956-9.69 3.297 9.58 10.13-.181-8.086 6.102 3.296 9.57-8.296-5.802-8.086 6.092 2.956-9.69z"/><path fill="#000" d="m173.571 74.318 4.68-15.32-13.117-9.189 16.012-.28 4.68-15.32 5.22 15.14 16.012-.281-12.785 9.64 5.22 15.14-13.116-9.189-12.786 9.64zm7.064-19.77 3.477 2.436-1.242 4.048 3.387-2.555 3.467 2.435-1.383-4.008 3.387-2.556-4.239.07-1.383-4.008-1.242 4.049-4.239.07z"/><path fill="#FFB921" d="m142.499 16.202 14.058-.25 4.108-13.447 4.58 13.297 14.058-.25-11.233 8.466 4.579 13.287-11.513-8.056-11.232 8.457 4.108-13.447z"/><path fill="#000" d="M149.904 40.21c-.501 0-1.002-.15-1.433-.45a2.51 2.51 0 0 1-.962-2.786l3.577-11.703-10.03-7.024a2.51 2.51 0 0 1-.962-2.786 2.5 2.5 0 0 1 2.355-1.774l12.234-.21 3.578-11.703A2.5 2.5 0 0 1 160.615 0c1.072.02 2.054.661 2.415 1.693l3.988 11.574 12.235-.22h.04a2.49 2.49 0 0 1 2.364 1.692 2.52 2.52 0 0 1-.861 2.816l-9.77 7.365 3.988 11.573a2.52 2.52 0 0 1-.862 2.816 2.51 2.51 0 0 1-2.945.05l-10.031-7.024-9.779 7.365c-.451.34-.972.5-1.503.5zm.341-21.643 5.2 3.637a2.51 2.51 0 0 1 .962 2.786l-1.854 6.072 5.07-3.818a2.51 2.51 0 0 1 2.946-.05l5.201 3.638-2.064-6.002a2.52 2.52 0 0 1 .861-2.816l5.07-3.828-6.352.11h-.04a2.49 2.49 0 0 1-2.365-1.693l-2.074-6.002-1.854 6.072a2.5 2.5 0 0 1-2.355 1.774l-6.352.11z"/><path fill="#D5C3EE" d="M211.948 22.926c-4.138 2.435-5.24 4.239-6.313 10.38-1.943-5.92-3.296-7.554-7.745-9.368 4.138-2.425 5.24-4.238 6.313-10.38 1.943 5.921 3.296 7.555 7.735 9.368z"/><path fill="#000" d="M205.635 35.812a2.495 2.495 0 0 1-2.374-1.723c-1.814-5.511-2.806-6.403-6.303-7.826a2.52 2.52 0 0 1-1.553-2.144 2.52 2.52 0 0 1 1.232-2.345c3.257-1.914 4.119-2.936 5.121-8.647a2.5 2.5 0 0 1 2.284-2.064 2.47 2.47 0 0 1 2.555 1.713c1.814 5.511 2.806 6.403 6.303 7.826a2.52 2.52 0 0 1 1.553 2.144 2.52 2.52 0 0 1-1.232 2.345c-3.257 1.913-4.119 2.936-5.121 8.647a2.5 2.5 0 0 1-2.284 2.064h-.181zm-3.056-12.204a10.8 10.8 0 0 1 2.535 2.525 10.7 10.7 0 0 1 2.145-2.866 10.8 10.8 0 0 1-2.535-2.525 10.7 10.7 0 0 1-2.145 2.866"/><path fill="#D5C3EE" d="M87.409 271.443c-4.138 2.435-5.24 4.238-6.313 10.381-1.944-5.922-3.296-7.555-7.745-9.369 4.138-2.425 5.24-4.238 6.312-10.381 1.944 5.922 3.297 7.555 7.736 9.369z"/><path fill="#000" d="M81.096 284.319a2.5 2.5 0 0 1-2.374-1.723c-1.814-5.511-2.806-6.403-6.303-7.826a2.52 2.52 0 0 1-1.553-2.144 2.52 2.52 0 0 1 1.232-2.345c3.257-1.914 4.118-2.936 5.12-8.647a2.5 2.5 0 0 1 2.285-2.064 2.465 2.465 0 0 1 2.555 1.713c1.814 5.511 2.806 6.403 6.303 7.826a2.52 2.52 0 0 1 1.553 2.144c.07.952-.41 1.854-1.233 2.345-3.256 1.914-4.118 2.936-5.12 8.647a2.5 2.5 0 0 1-2.284 2.064h-.18zm-3.046-12.204a10.8 10.8 0 0 1 2.535 2.525 10.7 10.7 0 0 1 2.145-2.866 10.8 10.8 0 0 1-2.536-2.525 10.9 10.9 0 0 1-2.144 2.866"/><path fill="#D5C3EE" d="M169.704 275.782c18.597 1.904 24.188-10.741 24.188-10.741 2.896 3.216 8.317 3.737 11.764 1.122-1.844-2.565-3.698-5.12-5.541-7.685l.961 1.473c4.399 3.176 11.093 2.585 14.87-1.293-15.481-8.196-27.745-18.236-36.463-33.437l-22.565 12.425 12.776 38.136z"/><path fill="#000" d="M173.481 278.488c-1.282 0-2.625-.07-4.038-.21l-1.603-.171-13.958-41.653 26.553-14.619 1.223 2.134c7.795 13.597 18.727 23.607 35.461 32.465l2.955 1.563-2.334 2.395c-2.615 2.685-6.353 4.078-10.09 4.078h-.121l1.584 2.194-1.944 1.473c-3.588 2.726-8.778 2.826-12.626.591-2.675 3.668-8.928 9.73-21.062 9.73zm-1.934-5.07c15.171.872 19.86-8.978 20.05-9.409l1.594-3.467 2.555 2.826c1.473 1.643 3.938 2.294 6.112 1.823l-2.375-3.296-.25-.181-1.213-1.863 4.129-2.836.891 1.232c2.355 1.433 5.471 1.604 8.087.622-14.58-8.307-25.031-18.036-32.546-30.281l-18.607 10.241 11.583 34.589z"/><path fill="#FFFBE8" d="M165.395 280.402c-3.617-1.874-11.002-.461-14.89-.351-6.062.18-11.793-.15-17.815.431-4.85-15.812-22.846-22.806-32.495-35.331-22.225-28.828-34.59-72.074-15.541-95.541 4.579-5.631 3.747-14.038 6.362-20.812 3.066-7.966 8.688-16.012 17.255-18.557 9.158-2.725 20.962-2.505 29.729 1.503 8.668 3.968 13.437 13.207 15.07 21.613 1.383 7.115-.02 17.375 1.363 24.489l10.982 122.536z"/><path fill="#000" d="M132.68 282.757a2.28 2.28 0 0 1-2.165-1.594c-2.775-9.028-10.19-15.01-18.046-21.342-5.01-4.038-10.18-8.207-14.078-13.267-22.515-29.198-35.601-73.597-15.511-98.347 2.435-2.996 3.136-7.084 3.888-11.423.5-2.925 1.022-5.941 2.114-8.777 2.335-6.052 7.866-16.684 18.717-19.91 10.231-3.046 22.515-2.415 31.313 1.613 8.126 3.718 14.239 12.405 16.353 23.237.731 3.777.731 8.296.721 12.685 0 4.168-.01 8.467.641 11.814.011.08.031.15.031.23l10.511 117.275q.561 6.262-.111 6.994a2.26 2.26 0 0 1-2.705.481c-2.124-1.102-6.784-.671-10.19-.361-1.313.12-2.556.231-3.598.261-2.184.06-4.348.07-6.433.06-3.837 0-7.464 0-11.232.361-.07 0-.15.01-.22.01m-11.443-172.065c-4.189 0-8.427.571-12.345 1.744-8.998 2.675-13.758 11.924-15.792 17.204-.931 2.415-1.392 5.09-1.883 7.926-.812 4.719-1.654 9.589-4.83 13.497-5.882 7.234-11.904 20.731-7.245 43.888 3.327 16.543 11.644 34.349 22.826 48.848 3.577 4.639 8.317 8.456 13.337 12.505 7.585 6.112 15.411 12.414 18.938 21.803 3.376-.24 6.683-.24 9.889-.24 2.055 0 4.179 0 6.293-.06.902-.03 2.074-.131 3.317-.251 2.865-.26 6.212-.571 9.098-.19l-10.681-119.179c-.712-3.747-.712-8.226-.702-12.565 0-4.168.01-8.467-.641-11.814-1.834-9.398-6.984-16.873-13.798-19.99-4.529-2.074-10.11-3.126-15.801-3.126z"/><path fill="#000" d="M133.722 141.484a6.102 6.102 0 1 0 0-12.205 6.102 6.102 0 0 0 0 12.205"/><path fill="#FFB921" d="M119.653 127.505c-4.458 7.355-4.468 18.056-.02 25.271l-.14-.992c3.527-6.583 3.928-15.321 1.032-22.225z"/><path fill="#000" d="M119.633 155.281a2.5 2.5 0 0 1-2.134-1.192c-4.93-8.006-4.93-19.74.01-27.886a2.53 2.53 0 0 1 2.325-1.203 2.51 2.51 0 0 1 2.124 1.514l.872 2.054c3.076 7.334 2.765 16.513-.752 23.647l.03.21a2.516 2.516 0 0 1-2.485 2.856zm-.17-20.671a24.5 24.5 0 0 0-.15 10.521c.791-3.427.851-7.084.15-10.521"/><path fill="#D5C3EE" d="M100.966 118.016c11.263.451 15.541 8.326 17.786 12.374 3.196-4.308 5.581-9.048 15.3-11.022s12.906 1.393 10.301-1.964c-6.844-8.827-14.609-9.138-26.162-9.098-3.868.01-10.211.531-13.828 2.455-3.818 2.034-8.447 7.054-3.397 7.255"/><path fill="#000" d="m118.451 135-1.944-3.497c-2.194-3.968-5.882-10.601-15.641-10.982-3.487-.14-4.329-2.174-4.53-3.046-.88-3.858 4.65-7.756 6.855-8.928 4.729-2.525 12.675-2.746 15-2.746 10.891-.04 20.29-.06 28.146 10.071.882 1.132 1.984 2.555 1.062 4.208-.902 1.623-2.615 1.443-3.868 1.313-1.583-.161-4.529-.471-8.978.431-7.705 1.573-10.04 4.839-12.745 8.627-.341.481-.692.962-1.042 1.443l-2.315 3.116zm-16.313-19.429c9.169.732 14.039 6.012 16.824 10.261 2.686-3.578 6.283-7.225 14.589-8.918 2.505-.511 4.63-.692 6.353-.712-5.461-5.15-11.854-5.39-21.703-5.39-3.998.01-9.71.591-12.656 2.164a13.8 13.8 0 0 0-3.397 2.605z"/><path fill="#000" d="M106.377 131.603c-1.814.301-3.487.972-5.15 1.754l-.962.451c-.071.03-.151.06-.221.1-.27.12.591-.241.201-.09-.181.07-.351.14-.532.21-.861.311-1.743.531-2.645.682-.58.1-1.212.661-1.493 1.152-.31.541-.45 1.333-.25 1.934.45 1.403 1.693 1.984 3.086 1.753 1.814-.3 3.487-.972 5.15-1.753l.962-.451c.07-.03.15-.06.221-.1.27-.121-.592.24-.201.09.181-.07.351-.14.531-.211a15 15 0 0 1 2.646-.681c.581-.1 1.212-.661 1.493-1.152.31-.541.45-1.333.25-1.934-.451-1.403-1.693-1.984-3.086-1.754"/><path fill="#000" d="M113.01 136.313c.1-2.756-1.904-4.7-4.519-5.111-2.264-.35-4.539-.11-6.803-.34-.081 0-.161-.02-.241-.03-.301-.02.601.1.311.04-.131-.03-.271-.04-.411-.07a7 7 0 0 1-.772-.191c-.12-.04-.24-.09-.36-.13-.22-.06.38.17.35.15-.06-.05-.16-.08-.23-.11a9 9 0 0 1-.311-.18c-.04-.03-.08-.06-.13-.091-.21-.11.531.431.23.171l.642 1.102q-.15-.466 0 .331l-.341 1.262.02-.04-1.493 1.152H97.81s.09.04.14.051c.1.07 1.393.11.822.12.58 0 1.052-.171 1.573-.401 1.192-.541 1.583-2.375.902-3.427-.802-1.232-2.145-1.483-3.427-.902l.761-.1c.782-.01 1.002-.06.662-.13-.04-.02-.09-.02-.13-.03a3.15 3.15 0 0 0-1.433-.02c-1.123.29-1.884 1.332-1.904 2.465-.03 1.322.861 2.324 1.944 2.936 1.282.721 2.715.961 4.158 1.082 1.182.1 2.375.08 3.557.09.581 0 1.162.02 1.744.07.13.01.26.04.39.04.06 0-.651-.11-.4-.05l.21.03c.23.04.461.09.681.16.111.03.571.221.09.02-.48-.2-.06 0 .051.051.43.21-.161-.131-.171-.151.05.08.381.441.06.01-.37-.481-.04.02 0 .06.091.061-.16-.35-.16-.4 0 .07.06.14.07.21 0 .04.02.1.03.13.12.311-.02-.511-.04-.33-.01.16.01.33 0 .491-.05 1.312 1.183 2.565 2.505 2.505 1.403-.061 2.455-1.103 2.505-2.505z"/><path fill="#000" d="M115.245 165.732c-.582-.872-1.203-1.703-1.734-2.605-.05-.1-.1-.191-.15-.291.1.261.11.261 0-.01-.06-.22-.13-.441-.17-.661.1.491 0-.201 0-.321 0-.431 0-.461.06-.781.2-1.113-.131-2.235-1.153-2.826-.881-.521-2.354-.461-3.036.391-1.132 1.423-2.214 2.886-3.517 4.168-.711.702-.972.922-1.693 1.343-.181.11-.361.2-.551.3l-.231.111c.171-.071.181-.081.02-.01-.2.07-.401.14-.611.19-.08.02-.781.16-.361.1l2.415 3.167c.241-1.063.361-2.155.431-3.237.03-.521-.15.441.02-.1.06-.201.1-.401.17-.591-.12.36 0 0 .091-.161.17-.3.36-.591.561-.871 1.633-2.305-2.084-5.191-3.938-3.036-1.012 1.182-1.844 1.863-3.217 2.555-.53.27-.992.441-1.743.631s-1.233.27-1.834.311l2.505 2.505c.03-1.714.872-3.377 2.225-4.65.982-.932.942-2.605 0-3.547s-2.555-.932-3.547 0c-2.245 2.124-3.638 5.09-3.688 8.187-.02 1.282 1.173 2.595 2.505 2.505 3.968-.271 7.716-1.924 10.331-4.97l-3.938-3.037c-.671.952-1.202 2.035-1.393 3.197a19 19 0 0 0-.18 1.653c-.02.221-.03.441-.06.662.06-.491-.12.551-.14.641-.321 1.403.711 3.397 2.414 3.166 2.485-.331 4.519-1.312 6.403-2.976 1.553-1.383 2.796-3.076 4.078-4.699l-4.188-2.435c-.311 1.773-.301 3.457.411 5.14.531 1.243 1.352 2.275 2.094 3.397s2.204 1.613 3.427.902c1.112-.652 1.653-2.295.902-3.427z"/><path fill="#7A42C8" d="M147.459 154.941c-.811-.03-1.603.08-2.375.391-1.913.791-3.106 2.675-4.128 4.479-6.473 11.503-10.14 22.024-10.06 35.26.08 13.577 2.806 27.114 7.695 39.77 6.994 18.106 18.347 34.399 32.185 48.016 2.936 2.896 6.874 5.882 10.791 4.589 3.568-1.182 5.101-5.281 6.153-8.888 1.302-4.479 2.595-8.958 3.847-13.447 2.736-9.729 5.421-19.779 5.752-29.93.461-13.998-3.768-28.557-11.924-40.24 1.824.761 3.647 1.523 5.471 2.274-6.713-18.116-21.042-33.266-38.758-40.972-1.473-.641-3.086-1.232-4.669-1.292z"/><path fill="#000" d="M179.644 290.261c-4.92 0-9.099-4.118-10.632-5.621-14.639-14.399-25.972-31.312-32.765-48.898-5.131-13.286-7.776-26.964-7.856-40.651-.08-12.525 3.026-23.437 10.381-36.503 1.192-2.114 2.685-4.469 5.36-5.571 1.043-.431 2.185-.631 3.417-.581 2.054.08 4.058.841 5.571 1.503 18.207 7.936 33.197 23.777 40.101 42.404l2.004 5.401-3.658-1.523c5.692 10.672 8.658 23.076 8.267 35.04-.341 10.171-2.956 20.241-5.852 30.531a1433 1433 0 0 1-3.857 13.467c-.842 2.876-2.586 8.848-7.776 10.562-.922.3-1.824.43-2.705.43zm-32.455-132.825a3 3 0 0 0-1.153.21c-1.182.491-2.114 2.004-2.896 3.397-6.984 12.415-9.809 22.264-9.739 34.018.08 13.076 2.605 26.162 7.525 38.878 6.543 16.934 17.465 33.226 31.603 47.134 3.437 3.387 6.143 4.699 8.247 3.998 2.365-.782 3.617-4.088 4.539-7.214a1464 1464 0 0 0 3.848-13.427c2.915-10.361 5.34-19.71 5.661-29.339.451-13.517-3.738-27.635-11.473-38.727l-4.92-7.055 7.746 3.227c-7.155-14.94-19.91-27.415-35.051-34.008-1.112-.481-2.535-1.042-3.757-1.092z"/><path fill="#000" d="M132.118 161.343c4.88.552 9.77-1.372 13.738-4.088 3.126-2.144 6.062-4.779 8.236-7.906.772-1.112.201-2.785-.901-3.426-1.243-.732-2.656-.221-3.427.901-.131.181-.692.842-.201.291-.21.23-.391.491-.601.721a32 32 0 0 1-1.603 1.714c-1.373 1.363-2.635 2.415-4.038 3.377-3.487 2.394-7.044 3.877-11.203 3.406-1.342-.15-2.505 1.263-2.505 2.505 0 1.483 1.153 2.355 2.505 2.505"/><path fill="#000" d="M145.816 166.213c-3.958 6.823-7.004 14.258-8.477 22.024-1.473 7.765-1.433 15.902.14 23.767 1.363 6.774 3.758 13.387 6.363 19.78 2.775 6.824 5.932 13.497 9.559 19.92s8.046 13.206 13.267 18.868c2.194 2.374 5.721-1.173 3.547-3.548-4.309-4.669-7.866-9.98-11.093-15.44-3.567-6.053-6.713-12.365-9.479-18.828-5.481-12.786-9.849-26.423-7.915-40.491 1.152-8.347 4.218-16.263 8.416-23.527 1.624-2.796-2.705-5.321-4.328-2.525"/><path fill="#D69200" d="M122.98 281.082s2.926-6.984 9.93-7.245c6.693-.25 8.317 2.135 9.509 5.491 1.243 3.518-19.439 1.754-19.439 1.754"/><path fill="#000" d="M132.98 284.078c-2.695 0-6.042-.14-10.22-.501l-3.427-.29 1.333-3.176c.14-.341 3.637-8.457 12.144-8.778 7.715-.281 10.371 2.655 11.964 7.154a3.3 3.3 0 0 1-.491 3.137c-.531.681-1.894 2.454-11.303 2.454m-5.481-5.2c4.85.241 9.64.2 11.944-.22-.771-1.473-2.154-2.465-6.443-2.315-2.435.09-4.248 1.262-5.501 2.535"/><path fill="#000" d="M145.315 281.303a14 14 0 0 0-.992-2.485c-.16-.301-.371-.621-.702-.682-.29-.05-.561.131-.801.291-.922.641-1.854 1.283-2.776 1.914s-1.723.531-2.805.551c-2.145.05-4.299 0-6.443-.12a75 75 0 0 1-6.864-.722c-2.094-.32-2.645-.521-3.878 1.383-.15.24-.24.501-.25.782-.291 1.252.34 2.775 1.703 3.016.902.16 1.804-.161 2.645-.521.842-.361 1.694-.752 2.606-.772 1.703-.03 3.266 1.253 4.869 1.754.351.11.722.15 1.073.19 1.563.18 2.905.12 4.188-.922.802-.641 1.663-1.393 2.685-1.343 1.573.081 2.716 2.004 4.269 1.794 2.044-.281 1.994-2.295 1.473-4.118z"/><path fill="#D69200" d="M143.631 283.257s2.926-6.984 9.93-7.244c6.694-.251 8.317 2.134 9.509 5.491 1.243 3.517-19.439 1.753-19.439 1.753"/><path fill="#000" d="M153.631 286.253c-2.695 0-6.042-.14-10.22-.501l-3.427-.291 1.333-3.176c.14-.341 3.637-8.457 12.144-8.778 7.705-.29 10.371 2.656 11.964 7.155a3.3 3.3 0 0 1-.491 3.136c-.531.681-1.894 2.455-11.303 2.455m-5.481-5.2c4.85.24 9.64.2 11.944-.221-.771-1.473-2.174-2.465-6.443-2.315-2.434.091-4.248 1.263-5.501 2.536"/><path fill="#000" d="M165.976 283.477a14 14 0 0 0-.992-2.485c-.16-.301-.371-.621-.701-.681-.291-.05-.561.13-.802.29-.922.642-1.854 1.283-2.775 1.914-.922.631-1.724.531-2.806.551-2.144.05-4.299 0-6.443-.12a75 75 0 0 1-6.864-.721c-2.094-.321-2.645-.522-3.877 1.382a1.56 1.56 0 0 0-.251.782c-.291 1.252.341 2.775 1.703 3.016.902.16 1.804-.16 2.646-.521s1.693-.752 2.605-.772c1.703-.03 3.266 1.253 4.87 1.754.35.11.721.15 1.072.19 1.563.181 2.906.12 4.188-.922.802-.641 1.664-1.392 2.686-1.342 1.573.08 2.715 2.004 4.268 1.793 2.044-.28 1.994-2.294 1.473-4.118z"/><path fill="#BE7AEB" d="M69.092 252.024c-7.024 3.718-8.978 6.634-11.192 16.714-2.786-9.94-4.9-12.736-12.134-16.052 7.024-3.718 8.978-6.634 11.192-16.714 2.786 9.94 4.9 12.736 12.134 16.052"/><path fill="#000" d="M57.89 271.243a2.51 2.51 0 0 1-2.415-1.824c-2.605-9.288-4.218-11.443-10.761-14.449a2.52 2.52 0 0 1-1.463-2.204 2.51 2.51 0 0 1 1.332-2.285c6.363-3.366 7.846-5.621 9.92-15.04a2.5 2.5 0 0 1 2.375-1.964c1.132-.06 2.174.722 2.485 1.824 2.605 9.289 4.218 11.443 10.761 14.449a2.51 2.51 0 0 1 1.463 2.204 2.51 2.51 0 0 1-1.332 2.285c-6.363 3.377-7.846 5.621-9.92 15.04a2.5 2.5 0 0 1-2.375 1.964zm-7.034-18.708c3.136 1.964 5.14 4.229 6.803 7.866 1.453-3.717 3.317-6.092 6.343-8.236-3.136-1.964-5.14-4.229-6.803-7.866-1.453 3.717-3.317 6.092-6.343 8.236"/></svg>