<svg xmlns="http://www.w3.org/2000/svg" width="343" height="364" fill="none" viewBox="0 0 343 364"><path fill="#000" d="M177.451 262.686c36.675 0 66.406-22.302 66.406-49.812s-29.731-49.811-66.406-49.811c-36.674 0-66.405 22.301-66.405 49.811s29.731 49.812 66.405 49.812"/><path fill="#000" d="M177.441 265.182c-37.99 0-68.901-23.463-68.901-52.308s30.911-52.317 68.901-52.317 68.902 23.463 68.902 52.317c0 28.855-30.912 52.308-68.902 52.308m0-99.633c-35.244 0-63.909 21.227-63.909 47.325s28.665 47.316 63.909 47.316 63.91-21.227 63.91-47.316c0-26.088-28.675-47.325-63.91-47.325"/><path fill="#3F3F3F" d="M171.034 361.539c94.347-1.005 170.74-10.298 170.629-20.758s-76.685-18.125-171.033-17.12S-.11 333.959.001 344.419s76.685 18.124 171.033 17.12"/><path fill="#AD5400" d="m229.879 342.859-77.438-20.337-1.698-125.822s26.718-10.204 84.847-14.188"/><path fill="#000" d="M229.879 345.356c-.21 0-.42-.03-.639-.08l-77.438-20.338a2.505 2.505 0 0 1-1.867-2.376l-1.698-125.822a2.51 2.51 0 0 1 1.608-2.366c1.108-.42 27.726-10.384 85.575-14.348a2.5 2.5 0 0 1 2.666 2.317c.099 1.367-.949 2.566-2.317 2.665-49.132 3.365-75.89 11.283-82.5 13.469l1.648 122.118 75.601 19.848a2.49 2.49 0 0 1 1.777 3.045 2.5 2.5 0 0 1-2.416 1.868"/><path fill="#FF7B00" d="m320.895 195.552-14.387 136.505-76.629 10.803 5.711-160.338s48.593 2.986 85.305 13.03"/><path fill="#000" d="M229.879 345.356c-.609 0-1.209-.23-1.668-.639a2.54 2.54 0 0 1-.829-1.947l5.711-160.337a2.48 2.48 0 0 1 .819-1.758 2.5 2.5 0 0 1 1.827-.639c.49.03 49.273 3.115 85.815 13.12a2.51 2.51 0 0 1 1.827 2.665l-14.387 136.505a2.49 2.49 0 0 1-2.137 2.207l-76.629 10.803c-.12.02-.23.02-.349.02m8.117-160.168-5.522 154.786 71.757-10.114 13.958-132.441c-30.971-8.157-69.949-11.462-80.193-12.221z"/><path fill="#F295FF" d="M206.605 94.461c22.426 0 40.606-18.18 40.606-40.606s-18.18-40.606-40.606-40.606-40.606 18.18-40.606 40.606 18.18 40.606 40.606 40.606"/><path fill="#F295FF" d="M215.272 6.03s7.837-5.89 33.297-3.114c2.716.3.09 7.837 4.822 12.16 6.021 5.492 8.567 18.78 5.442 22.605-3.794 4.642-4.842 3.914-15.616 5.72"/><path fill="#000" d="M214.583 5.112c.209-1.388 1.447-1.617 2.486-2.107l1.408-.529C228.141-.579 238.455-.28 248.409.6c1.049 0 2.287.59 2.836 1.428.669.958.769 1.647.908 2.226.45 2.606.4 5.382 1.568 7.469.859 1.537 2.416 2.506 3.385 3.963 1.278 1.688 2.236 3.505 3.035 5.352 2.027 5.282 3.624 11.412 1.358 16.923-1.957 3.525-5.552 6.09-9.535 6.57-2.786.639-5.591.539-8.357 1.058a2.225 2.225 0 0 1-2.646-1.697c-.279-1.268.619-2.536 1.907-2.676 1.867-.22 3.684-.809 5.511-1.128 3.485-.54 6.251-.7 8.327-3.605.569-.629.559-.768.789-1.507.819-3.954-.23-8.267-1.737-12.101-.659-1.567-1.458-3.065-2.426-4.353-1.179-1.578-2.876-2.776-3.735-4.583-1.617-2.915-1.607-6.62-2.036-9.165.07.13.429.369.669.409-8.637-.909-18.501-1.538-27.287.629a37 37 0 0 0-2.476.769c-.919.25-1.458 1.018-2.507.37l-.888-.57a1.18 1.18 0 0 1-.509-1.278z"/><path fill="#F295FF" d="M233.643 13.429c-8.467-6.32-18.312-8.926-31.032-7.119-42.552 6.06-55.342 52.647-26.987 76.47"/><path fill="#000" d="M232.814 14.527c-2.776-.48-4.833-2.446-7.408-3.394a34.6 34.6 0 0 0-7.618-2.317c-27.577-4.153-56.042 14.737-54.674 44.33.529 10.733 5.9 20.847 14.128 27.727 2.456 2.146-.639 5.88-3.215 3.823-14.368-11.611-19.899-31.68-13.479-49.012C168.625 12.6 195.223-.31 218.686 4.214a39.2 39.2 0 0 1 12.53 4.992c1.288.758 2.476 1.707 3.245 3.135.619 1.098-.429 2.476-1.647 2.206z"/><path fill="#F295FF" d="M232.784 78.826s29.673-.62 24.252-33.877c-.529-3.265 1.358-13.359-2.676-13.868-10.543-1.328-9.954-5.411-15.845-12.19"/><path fill="#000" d="M232.754 77.328c17.403-3.744 24.431-13.638 21.895-31.18-.818-4.054.699-8.987-.788-12.68 0 .02.159.09.189.09-1.887-.26-3.744-.59-5.571-1.239-5.741-1.797-8.526-7.648-11.002-12.53a1.434 1.434 0 0 1 .698-1.927c1.448-.53 2.536 1.108 3.525 1.887 2.915 2.796 4.443 6.66 8.427 7.868 1.437.509 3.135.798 4.672.998 6.71 1.518 4.104 11.292 4.763 16.105 1.607 9.405.689 20.178-6.21 27.466-3.984 4.234-9.266 6.99-14.907 7.938-1.867.29-3.664.42-5.641.2a1.5 1.5 0 0 1-1.328-1.668c.08-.699.619-1.208 1.268-1.328z"/><path fill="#DB00F8" d="m254.54 32.658-33.298 12.85c-1.607.62-1.977 2.436-1.278 4.004 3.205 7.139 11.752 19.998 27.057 15.475 21.167-6.26 14.587-24.47 10.833-31.16-.649-1.158-2.066-1.658-3.314-1.178z"/><path fill="#000" d="M240.871 68.422c-4.862 0-9.435-1.627-13.469-4.832-5.231-4.164-8.336-9.955-9.714-13.05-.689-1.527-.739-3.215-.16-4.622a4.9 4.9 0 0 1 2.816-2.736l33.297-12.85c2.396-.928 5.142.06 6.39 2.287 1.657 2.945 6.759 13.289 2.955 22.664-2.326 5.73-7.458 9.804-15.246 12.11-2.336.69-4.622 1.03-6.859 1.03zm14.647-33.447s-.05 0-.08.01l-33.297 12.85s-.07.28.1.659c7.578 16.913 19.359 15.495 24.072 14.097 6.26-1.847 10.313-4.952 12.041-9.205 3.045-7.498-1.698-16.594-2.676-18.341-.03-.05-.09-.08-.16-.08z"/><path fill="#000" d="M227.552 33.198c.479.639 1.428.619 2.067.14.639-.48.859-1.369.25-1.888-.3-.26-1.119-.29-1.758.19s-1.038.919-.549 1.558z"/><path fill="#000" d="M228.591 35.584h-.14c-.969-.04-1.847-.49-2.406-1.238-.659-.869-.779-1.887-.35-2.796.3-.629.809-1.068 1.268-1.418 1.278-.968 3.095-1.018 4.144-.12a2.94 2.94 0 0 1 1.018 2.297c-.03.969-.539 1.917-1.358 2.536a3.6 3.6 0 0 1-2.176.739m0-3.794c-.07 0-.1.02-.12.03-.08.06-.14.21-.14.37 0 .259.11.528.299.698.2.17.39.24.51.26.139-.32.139-.819-.07-1.099a.66.66 0 0 0-.46-.26z"/><path fill="#000" d="M227.552 35.095c-.559 0-1.108-.25-1.488-.72-1.447-1.816-1.447-3.334-1.198-4.282.51-1.957 2.377-2.766 2.586-2.856a1.9 1.9 0 0 1 2.476 1.038 1.89 1.89 0 0 1-1.008 2.457c-.17.08-.359.24-.379.31-.01.049.04.378.499.958a1.9 1.9 0 0 1-.3 2.665 1.88 1.88 0 0 1-1.178.41z"/><path fill="#000" d="M215.931 36.682c.479.64 1.427.62 2.066.14s.859-1.368.25-1.887c-.3-.26-1.118-.29-1.757.19-.639.479-1.039.918-.549 1.557z"/><path fill="#000" d="M216.979 39.059c-.989 0-1.947-.42-2.566-1.238-.659-.87-.779-1.888-.34-2.796.3-.63.809-1.068 1.268-1.418 1.278-.968 3.096-1.018 4.144-.12a2.88 2.88 0 0 1 1.018 2.307c-.03.968-.539 1.917-1.358 2.536a3.57 3.57 0 0 1-2.166.739zm-.01-3.784s-.09.01-.12.03c-.09.06-.14.21-.15.369 0 .26.11.529.3.689.2.17.389.24.509.27.14-.32.14-.82-.07-1.099a.63.63 0 0 0-.479-.26z"/><path fill="#000" d="M215.93 38.58a1.91 1.91 0 0 1-1.487-.72c-1.448-1.817-1.448-3.334-1.198-4.283.509-1.957 2.376-2.766 2.586-2.855a1.9 1.9 0 0 1 2.476 1.038 1.893 1.893 0 0 1-1.009 2.456c-.169.08-.359.25-.379.31-.01.05.04.379.499.958a1.9 1.9 0 0 1-.299 2.666c-.35.28-.769.41-1.179.41z"/><path fill="#000" d="M248.429 48.034c.919 2.247 1.897 4.014 2.916 3.545 1.148-.52.519-2.327-.4-4.573-.918-2.246-1.647-3.964-2.915-3.544-1.238.409-.519 2.326.399 4.572"/><path fill="#000" d="M251.015 54.155q-.629 0-1.228-.24c-1.637-.649-2.646-2.446-3.664-4.932-.859-2.097-1.737-4.264-.909-6.08a3.35 3.35 0 0 1 2.037-1.798c3.515-1.168 5.072 2.676 6.011 4.972.888 2.177 2.536 6.23-.879 7.788-.439.2-.899.3-1.368.3z"/><path fill="#000" d="M237.686 52.417c.919 2.247 1.428 4.054 2.916 3.545 1.048-.36.519-2.327-.4-4.573-.918-2.246-1.687-4.114-2.915-3.544-1.308.609-.519 2.326.399 4.572"/><path fill="#000" d="M240.013 58.578c-2.576 0-3.715-2.866-4.364-4.523l-.419-1.049c-.899-2.186-2.396-5.86 1.008-7.438a3.4 3.4 0 0 1 2.726-.09c1.817.72 2.616 2.686 3.555 4.962 1.018 2.507 1.547 4.503.818 6.12a3.24 3.24 0 0 1-1.917 1.748c-.509.17-.968.25-1.397.25z"/><path fill="#F295FF" d="M186.697 14.977s-20.388-2.137-42.064.978c-2.706.39-.709 9.765-2.985 15.765-3.555 9.395-2.307 14.807-.55 19.799 4.074 11.562 35.025 16.843 42.164-3.624"/><path fill="#000" d="M186.577 16.125c-2.746.768-5.412.27-8.107.26-2.696-.09-5.392-.1-8.088-.09-8.496.09-16.973.678-25.36 1.946h-.05.07l.14-.05c.2-.06.379-.19.469-.28.18-.189.11-.169.07-.02-.349 1.319-.319 2.787-.389 4.384-.11 3.025-.17 6.53-1.228 9.765-2.157 5.55-3.165 11.691-1.059 17.392 1.638 5.91 8.337 8.277 13.889 9.355 7.318 1.228 15.216-.24 20.607-5.401 1.757-1.668 3.175-3.724 4.333-6.02a1.49 1.49 0 0 1 2.007-.66c.619.31.929.999.779 1.648-.629 2.855-1.977 5.621-3.914 7.967-1.947 2.347-4.473 4.214-7.219 5.472-10.174 4.602-25.989 2.755-33.187-6.43-1.837-2.596-2.516-5.651-3.115-8.706-.879-5.202.139-10.424 1.957-15.246 1.178-2.916 1.258-5.881 1.417-9.296.19-2.875-.1-8.087 4.024-8.496 8.546-1.099 17.173-1.498 25.769-1.388 2.746.05 5.492.12 8.237.27 2.736.229 5.512.03 8.187 1.327 1.019.46.849 2.077-.239 2.307z"/><path fill="#000" d="M254.06 65.447s-.01-1.408-2.705-.47c-2.686.93 5.281-4.413 5.281-4.413l.2 3.245-2.786 1.638z"/><path fill="#000" d="M197.32 18.291c-.34.4-1.029.939-1.428 1.318-.449.41-.749.749-1.128.889l-1.128.39a2.23 2.23 0 0 1-2.846-1.379c-1.288-3.294 6.869-7.088 7.379-3.045.079.739-.42 1.318-.849 1.837z"/><path fill="#000" d="M222.151 17.063c-.529.03-1.388-.09-1.937-.12-.599-.04-1.059-.02-1.418-.2l-1.058-.538a2.237 2.237 0 0 1-.979-3.006c1.478-3.205 9.865.03 7.299 3.215-.48.57-1.238.62-1.907.66z"/><path fill="#AD5400" d="m120.581 186.856-50.92 7.048-15.206-113.34 55.333-24.932"/><path fill="#000" d="M69.661 196.4a2.5 2.5 0 0 1-1.507-.509 2.45 2.45 0 0 1-.959-1.657L51.99 80.892a2.49 2.49 0 0 1 1.448-2.605l55.333-24.931c1.258-.57 2.735 0 3.304 1.248a2.505 2.505 0 0 1-1.248 3.305L57.191 82.08l14.627 109.018 48.433-6.71a2.507 2.507 0 0 1 2.816 2.127 2.5 2.5 0 0 1-2.127 2.816l-50.91 7.048c-.11.02-.229.02-.339.02z"/><path fill="#FF7B00" d="m109.788 55.632 10.793 131.223s3.974-2.965 162.614-4.353l1.058-114.27s-66.615-13.558-174.465-12.61z"/><path fill="#000" d="M120.581 189.351c-.35 0-.699-.069-1.028-.219a2.48 2.48 0 0 1-1.458-2.067L107.302 55.842a2.48 2.48 0 0 1 .649-1.887 2.48 2.48 0 0 1 1.817-.809c106.841-.928 174.315 12.53 174.984 12.66a2.5 2.5 0 0 1 1.997 2.466l-1.058 114.27c-.01 1.358-1.119 2.456-2.477 2.476-144.671 1.268-160.257 3.824-161.754 4.184-.28.11-.58.159-.879.159zm-8.087-131.243 10.353 125.852c3.026-.359 8.667-.779 19.44-1.248 18.83-.829 58.098-1.957 138.431-2.676l1.019-109.727c-11.482-2.117-71.188-12.23-161.336-12.23-2.616 0-5.232 0-7.897.03z"/><mask id="b" width="176" height="132" x="109" y="55" maskUnits="userSpaceOnUse" style="mask-type:luminance"><mask id="a" width="176" height="132" x="109" y="55" maskUnits="userSpaceOnUse" style="mask-type:luminance"><path fill="#fff" d="m109.788 55.632 10.793 131.223s3.974-2.965 162.614-4.353l1.058-114.27s-66.615-13.558-174.465-12.61z"/></mask><g mask="url(#a)"><path fill="#fff" d="M120.581 189.351c-.35 0-.699-.069-1.028-.219a2.48 2.48 0 0 1-1.458-2.067L107.302 55.842a2.48 2.48 0 0 1 .649-1.887 2.48 2.48 0 0 1 1.817-.809c106.841-.928 174.315 12.53 174.984 12.66a2.5 2.5 0 0 1 1.997 2.466l-1.058 114.27c-.01 1.358-1.119 2.456-2.477 2.476-144.671 1.268-160.257 3.824-161.754 4.184-.28.11-.58.159-.879.159zm-8.087-131.243 10.353 125.852c3.026-.359 8.667-.779 19.44-1.248 18.83-.829 58.098-1.957 138.431-2.676l1.019-109.727c-11.482-2.117-71.188-12.23-161.336-12.23-2.616 0-5.232 0-7.897.03z"/></g></mask><g fill="#000" mask="url(#b)"><path d="m340.844 134.169-103.038 18.71-7.468-32.678 103.037-18.711z"/><path d="M237.796 155.375a2.504 2.504 0 0 1-2.436-1.937l-7.468-32.678a2.48 2.48 0 0 1 .349-1.927c.38-.569.969-.959 1.638-1.079l103.037-18.71a2.486 2.486 0 0 1 2.876 1.897l7.468 32.678c.15.669.03 1.358-.35 1.927a2.5 2.5 0 0 1-1.637 1.079l-103.038 18.71c-.149.03-.299.04-.449.04zm-4.443-33.188 6.36 27.807 98.125-17.822-6.36-27.806z"/></g><path fill="#FF7B00" d="m283.115 144.652-45.309 8.227-7.468-32.678 52.797-10.933z"/><path fill="#000" d="M237.796 155.375a2.494 2.494 0 0 1-2.426-1.937l-7.468-32.678a2.496 2.496 0 0 1 1.927-3.006l52.806-10.922c.739-.15 1.498.04 2.087.509.579.479.919 1.188.919 1.937l-.03 35.384a2.505 2.505 0 0 1-2.047 2.456l-45.309 8.227c-.149.03-.299.04-.449.04zm-4.463-33.247 6.37 27.866 40.916-7.429.02-30.232-47.306 9.785z"/><path fill="#000" d="M283.085 123.366c-12.8 3.095-25.75 5.581-38.839 7.118-1.977.19-2.636-2.615-.789-3.324 12.53-4.483 25.76-6.7 38.989-7.838 2.466-.14 3.025 3.435.639 4.044"/><path fill="#000" d="M269.087 137.613c-7.758 1.378-15.546 3.175-23.463 3.505a1.757 1.757 0 0 1-1.777-1.728c0-.699.399-1.318.988-1.597 1.877-.899 3.814-1.568 5.781-2.157 4.952-1.398 10.084-2.256 15.256-2.296 1.797.07 5.281-.31 5.032 2.486-.12.968-.899 1.667-1.807 1.797z"/><path fill="#FF7B00" d="m93.773 353.203 101.42-15.066-1.358-141.946s-45.228-7.448-100.531-6.78"/><path fill="#000" d="M93.773 355.699a2.495 2.495 0 0 1-.36-4.962l99.274-14.747-1.308-137.653c-9.465-1.407-50.171-6.999-98.025-6.419h-.03a2.498 2.498 0 0 1-.03-4.993c54.873-.649 100.511 6.73 100.971 6.81a2.49 2.49 0 0 1 2.086 2.436l1.358 141.946a2.506 2.506 0 0 1-2.126 2.496l-101.42 15.066a2.3 2.3 0 0 1-.37.03z"/><path fill="#AD5400" d="m20.948 208.471 10.823 130.535 62.002 14.207-.47-163.782s-19.768 2.656-72.355 19.05z"/><path fill="#000" d="M93.773 355.699c-.19 0-.37-.02-.559-.06l-62.002-14.207a2.49 2.49 0 0 1-1.927-2.227L18.462 208.671a2.48 2.48 0 0 1 1.747-2.586c52.198-16.264 71.957-19.03 72.765-19.14a2.55 2.55 0 0 1 1.977.589c.54.47.859 1.159.859 1.877l.47 163.782a2.5 2.5 0 0 1-2.497 2.506zm-59.666-18.72 57.16 13.099-.45-157.701c-7.008 1.288-27.566 5.601-67.213 17.882l10.513 126.72z"/><path fill="#AD5400" d="m54.455 80.563-13.798 24.082s55.492-21.276 57.43-22.744c1.936-1.468 11.701-26.279 11.701-26.279L54.455 80.553z"/><path fill="#000" d="M40.657 107.141a2.5 2.5 0 0 1-1.897-.869 2.485 2.485 0 0 1-.27-2.865l13.8-24.082c.26-.46.658-.819 1.138-1.038l55.333-24.931a2.497 2.497 0 0 1 3.344 3.195c-6.649 16.903-10.863 26.099-12.52 27.357-1.927 1.457-37.191 15.086-58.039 23.083a2.5 2.5 0 0 1-.888.17zM56.222 82.51l-9.904 17.293c20.597-7.928 46.876-18.182 50.19-19.859 1.229-1.737 4.983-10.374 8.677-19.5L56.232 82.51z"/><path fill="#FF7B00" d="m112.983 55.612 13.738 22.255s61.873.1 82.38 1.498c53.556 3.644 90.238 10.024 90.238 10.024l-15.086-21.146s-87.722-14.088-171.27-12.64z"/><path fill="#000" d="M299.339 91.885c-.14 0-.289-.01-.429-.04-.37-.06-37.192-6.41-89.978-9.994-20.199-1.378-81.602-1.488-82.211-1.498a2.47 2.47 0 0 1-2.116-1.188L110.866 56.91a2.5 2.5 0 0 1-.07-2.506 2.48 2.48 0 0 1 2.147-1.298c82.829-1.427 170.831 12.53 171.709 12.67.659.11 1.248.47 1.638 1.019l15.086 21.146a2.49 2.49 0 0 1 .08 2.776 2.51 2.51 0 0 1-2.117 1.168m-171.23-16.514c9.295.03 62.512.23 81.152 1.498 40.756 2.766 72.066 7.179 84.567 9.106l-11.013-15.426c-9.894-1.528-89.209-13.34-165.409-12.51l10.693 17.332z"/><path fill="#FFB46D" d="m135.188 190.35-.27 19.07 25.55.489.859-17.622s-10.584-1.568-26.149-1.927z"/><path fill="#000" d="M160.468 212.395h-.05l-25.55-.489a2.496 2.496 0 0 1-2.446-2.536l.27-19.07c0-.669.289-1.298.769-1.757a2.5 2.5 0 0 1 1.787-.699c15.535.359 26.019 1.887 26.458 1.957a2.5 2.5 0 0 1 2.127 2.586l-.859 17.622a2.507 2.507 0 0 1-2.496 2.376zm-23.024-5.431 20.648.389.629-12.899c-3.575-.43-11.193-1.219-21.077-1.538z"/><path fill="#FFB46D" d="M139.371 345.795v-17.572l24.372-8.417 2.246 22.125z"/><path fill="#000" d="M139.371 348.291c-.599 0-1.178-.21-1.637-.609a2.5 2.5 0 0 1-.859-1.887v-17.573c0-1.068.679-2.006 1.678-2.356l24.371-8.417a2.498 2.498 0 0 1 3.295 2.107l2.246 22.135a2.5 2.5 0 0 1-2.126 2.726l-26.618 3.854q-.18.03-.36.03zM141.867 330v12.909l21.397-3.095-1.688-16.614-19.709 6.81z"/><path fill="#000" d="m55.454 271.662.828 9.734c.07.859.37 1.568.889 2.137q.782.854 1.847.839 1.079-.03 1.737-.929c.44-.599.63-1.358.56-2.246l-.83-10.024 2.597 2.635c.539.549 1.188.789 1.956.729.77-.06 1.388-.409 1.848-1.038.459-.629.659-1.428.579-2.356-.08-.929-.39-1.668-.949-2.207l-7.608-7.418c-.559-.549-1.178-.769-1.847-.659s-1.218.509-1.657 1.208l-5.472 8.666q-.554.883-.449 2.127c.07.829.34 1.497.799 2.007q.703.764 1.677.689c.65-.05 1.188-.37 1.578-.959l1.927-2.925z"/><path fill="#000" d="M58.958 284.871c-.829 0-1.547-.34-2.157-.999-.589-.648-.938-1.467-1.018-2.436l-.709-8.297-1.138 1.718c-.47.719-1.128 1.108-1.947 1.178-.809.06-1.517-.22-2.087-.839-.539-.589-.848-1.358-.928-2.296-.08-.939.09-1.757.519-2.436l5.471-8.667c.52-.818 1.189-1.298 1.997-1.437.839-.14 1.598.129 2.277.788l7.608 7.419c.649.629 1.018 1.477 1.098 2.526.08 1.038-.14 1.947-.669 2.685-.55.759-1.288 1.179-2.217 1.248-.918.08-1.707-.219-2.346-.878l-1.627-1.648.719 8.657c.08 1.008-.14 1.877-.65 2.576q-.808 1.108-2.126 1.138zm-3.125-14.677.949 11.162c.06.749.31 1.358.758 1.848.42.459.859.668 1.468.668.56-.01.999-.249 1.338-.728.38-.52.53-1.139.46-1.907l-.95-11.402 3.565 3.614c.43.439.939.629 1.558.579.629-.05 1.108-.32 1.487-.839.39-.549.55-1.208.49-2.016-.07-.809-.33-1.428-.8-1.888l-7.607-7.418c-.45-.429-.909-.609-1.418-.519-.52.09-.949.409-1.318.978l-5.471 8.667c-.31.489-.43 1.088-.37 1.817s.28 1.288.67 1.707c.369.4.768.559 1.277.529.51-.04.899-.279 1.198-.728l2.726-4.124z"/><path fill="#000" d="M59.637 298.11c-.998 0-1.997-.08-3.005-.25-10.504-1.727-18.7-12.58-19.07-25.25-.38-13.139 7.518-24.242 18.37-25.829 5.522-.799 11.043.898 15.556 4.802 5.781 4.992 9.086 12.81 9.086 21.427 0 8.326-3.175 15.785-8.686 20.457-3.585 3.035-7.848 4.643-12.25 4.643m-1.048-46.527c-.65 0-1.288.05-1.937.14-8.207 1.198-14.407 10.314-14.098 20.747.3 10.324 6.7 19.12 14.886 20.468 3.974.659 7.958-.509 11.223-3.275 4.393-3.724 6.919-9.794 6.919-16.653 0-7.169-2.676-13.599-7.358-17.643-2.856-2.476-6.22-3.784-9.635-3.784"/><path fill="#FFB46D" d="M275.387 186.586c1.308.459-9.485 151.191-9.485 151.191l19.219-2.705 10.684-144.722-20.428-3.754z"/><path fill="#000" d="M265.902 340.273a2.54 2.54 0 0 1-1.708-.668 2.52 2.52 0 0 1-.788-2.007c4.103-57.31 9.994-143.943 9.575-150.313-.12-.42-.14-.889-.02-1.338a2.5 2.5 0 0 1 2.865-1.817l20.428 3.754a2.5 2.5 0 0 1 2.037 2.636l-10.693 144.721a2.5 2.5 0 0 1-2.137 2.287l-19.22 2.706c-.12.02-.229.02-.349.02zm12.081-150.672c-.03 3.624-.39 9.894-1.039 20.947-.728 12.57-1.847 30.053-3.324 51.978-2.097 31.141-4.324 62.591-5.012 72.356l14.177-1.997 10.374-140.488z"/></svg>