<svg xmlns="http://www.w3.org/2000/svg" width="480" height="480" fill="none" viewBox="0 0 480 480">
  <path
    fill="#FFB921"
    d="m339.412 138.2-4.68-.621a84 84 0 0 1-3.593 11.284l6.36.843c4.134.549 7.877 2.694 10.264 5.888 2.2 2.941 3.107 6.517 2.553 10.067-1.192 7.639-8.851 12.966-17.043 11.882l-17.191-2.279a23 23 0 0 0-1.858-.159 92 92 0 0 1-13.195 11.388 105 105 0 0 1-8.134 5.225c-.282 1.907-.429 3.656.462 4.778 1.002 1.263 3.478 2.075 7.16 2.351 4.652.238 4.785-.799 5.266-4.644.067-.545.137-1.102.225-1.663.532-3.399 4.946-8.345 9.203-7.775l17.161 2.275c15.819 2.103 28.823-6.22 30.937-19.772.991-6.354-.648-12.776-4.617-18.082-4.447-5.947-11.475-9.952-19.28-10.986"
  />
  <path
    fill="#000"
    d="m340.068 133.242-4.29-.568c1.257-6.832 1.824-14.308 1.492-22.489a6.4 6.4 0 0 0 2.268-.756c4.164-2.278 7.201-8.875 5.086-15.065C340.907 83.478 312.994 61 250.441 61c-44.8 0-76.866 11.785-87.702 22.734-5.511 5.569-4.714 12.595-1.641 16.767.959 1.302 2.073 2.209 3.211 2.703a73 73 0 0 0 .11 5.72c-14.148-.233-28.467 8.093-33.593 21.629-4.923 12.213-.758 27.283 10.263 34.661 6.617 4.671 14.617 6.614 22.518 6.593 2.838.004 10.421.005 13.352.01l4.451.004c.531.001.309-.001.454.019 1.406.52 2.66 2.471 3.029 3.794.238 2.206-.239 4.207.254 6.511.842 5.414 7.137 6.767 11.669 6.586 3.047.059 6.665-.591 9.185-2.581a138 138 0 0 0 13.883 9.841 7.6 7.6 0 0 0-1.115 2.384c-1.391 5.255 2.57 9.063 5.729 10.877.005 4.757-2.29 23.395-35.707 43.388l-24.708 4.674a2.5 2.5 0 0 0-1.931 1.743l-17.287 58.041-4.987.69a2.5 2.5 0 0 0-2.055 1.773l-5.889 20.064a2.5 2.5 0 0 0 .492 2.323 2.5 2.5 0 0 0 1.637.852v.015l157.729 17.133q.135.014.27.014.344 0 .676-.093c.232-.065 27.674-7.818 27.69-7.825.344-.106.667-.277.94-.524.539-.487.84-1.184.823-1.91l-.458-20.969a2.5 2.5 0 0 0-2.192-2.427l-4.895-.604-1.89-60.748a2.5 2.5 0 0 0-2.182-2.403l-24.651-3.141c-22.923-15.27-23.652-40.35-23.441-46.689 2.418-1.153 6.728-3.759 7.221-7.877.11-.923.004-1.832-.273-2.729a116.6 116.6 0 0 0 18.271-7.469c.068 1.719.497 3.486 1.74 5.051 1.949 2.456 5.461 3.839 10.734 4.23l.054.003q.566.03 1.091.03c8.294 0 8.971-5.414 9.424-9.046.062-.495.125-1.001.204-1.51.221-1.411 2.661-3.702 3.606-3.59l17.161 2.275c18.606 2.465 33.983-7.608 36.534-23.959 1.201-7.695-.771-15.454-5.552-21.847-5.249-7.019-13.497-11.738-22.629-12.949m23.241 34.026c-2.114 13.552-15.118 21.875-30.937 19.772l-17.162-2.275c-4.256-.571-8.67 4.376-9.202 7.775a50 50 0 0 0-.225 1.663c-.481 3.845-.615 4.881-5.266 4.644-3.683-.276-6.158-1.089-7.16-2.351-.891-1.122-.744-2.871-.462-4.778a105 105 0 0 0 8.134-5.225 92 92 0 0 0 13.194-11.389c.617.031 1.236.077 1.859.16l17.191 2.278c8.192 1.084 15.851-4.242 17.043-11.881.554-3.551-.353-7.126-2.553-10.068-2.388-3.193-6.13-5.339-10.264-5.887l-6.361-.843a84 84 0 0 0 3.593-11.284l4.681.62c7.805 1.035 14.833 5.039 19.28 10.987 3.969 5.306 5.608 11.728 4.617 18.082m-98.57 36.887c-.138 1.167-1.674 2.444-3.307 3.386a7 7 0 0 0-.495-.574c-3.624-3.804-13.836-6.744-22.493-6.744-1.148 0-2.27.052-3.344.16-4.721.476-7.837 1.655-9.487 3.595-1.264-1.003-2.493-2.499-2.01-4.325.327-1.236 1.781-2.4 4.095-3.277 8.743-3.315 25.918-1.543 33.414 3.447 2.437 1.623 3.76 3.202 3.627 4.332m43.086 62.995 1.798 57.801-112.028-14.277 6.848-34.111 4.421-22.024zm-157.308 48.489 15.991-53.695 37.181-7.034-11.169 55.639a2.4 2.4 0 0 0-.349.009c-.021.002-.041-.002-.062.001l-2.35.325zm38.967.331-2.301 15.336-49.381 6.077 4.363-14.863zm-33.427 24.205 33.316-4.101 117.745 14.556c-6.493 1.83-13.431 3.779-15.267 4.295zm36.17-8.786 2.336-15.574 122.219 15.097.347 15.917zm14.865-82.108c-.064-.005-.127-.004-.192-.005a2.5 2.5 0 0 0-.38.024c-.038.006-4.907.914-4.907.914 26.123-18.867 28.042-35.826 27.899-41.231 13.955-8.299 25.092.317 28.007 2.968-.174 5.623.296 29.167 18.765 46.139 0 0-69.16-8.806-69.192-8.809m-37.066-112.938a104 104 0 0 0 6.632 14.951c-4.132-.001-10.471.113-13.881-.03-8.67-.703-13.348-10.939-6.358-16.988 2.349-2.096 5.643-2.941 8.785-2.78.69-.003 1.962-.004 3.249-.006.472 1.582.991 3.2 1.573 4.853m96.438 61.33a21 21 0 0 0-2.581-2.012c-8.864-5.902-27.667-7.863-37.958-3.96a18 18 0 0 0-1.997.898c-5.608-3.4-10.636-6.965-15.134-10.628.601-1.918.613-3.858.618-5.799.108-8.787-5.339-17.109-12.85-21.233-4.258-2.417-9.129-3.647-14.007-3.647h-.169a99.7 99.7 0 0 1-7.561-16.375 99 99 0 0 1-1.142-3.438c2.366.005 4.733.002 7.099-.621a1.769 1.769 0 0 0 0-3.42c-2.967-.782-5.935-.588-8.902-.625-2.62.024-6.486-.077-9.068.03-9.039.399-16.719 9.224-14.064 18.33 1.648 6.054 7.43 10.357 13.531 10.923 1.732.194 5.202.05 6.922.106l8.902.018 4.449.009c4.021.016 8.057 1.049 11.539 3.047 6.468 3.608 10.677 10.602 10.228 17.967.003 1.563-.216 3.621-1.157 4.595-2.411 2.214-7.133 1.916-10.223 1.397-1.764-.499-2.362-.683-2.697-2.111-.259-1.498-.043-3.43-.054-5.051-.272-4.075-3.131-8.066-7.023-9.288-1.236-.346-4.911-.121-6.206-.178l-13.352.01c-6.879.052-13.986-1.671-19.546-5.614-9.187-6.134-12.511-18.504-8.478-28.622 4.412-11.729 17.134-18.879 29.45-18.428 2.69-.005 9.611-.005 12.835-.01 3.77 1.685 4.681 4.66 4.51 8.693-.017.614.239 1.219.779 1.595 2.67 1.521 3.777-2.59 3.932-4.627.204-3.125-1.617-6.325-3.973-8.226-1.426-1.07-2.896-2.223-4.731-2.446l-8.931-.007c-.176-2.915-.159-5.11-.113-6.397l.225-.117c17.988-9.358 36.573-19.027 77.973-19.027q1.61 0 3.266.02c35.144.42 56.237 6.672 68.907 14.091 6.455 4.859 10.845 8.871 12.437 10.378 2.017 31.916-9.377 56.958-33.874 74.442-12.018 8.579-24.45 13.17-31.811 15.358M250.441 66c65.117 0 87.42 24.031 89.451 29.98 1.095 3.202-.066 6.236-1.393 7.863-.927 1.137-1.741 1.427-1.964 1.342-9.438-11.864-31.962-26.14-85.669-26.78q-1.703-.02-3.359-.02c-42.589 0-61.727 9.955-80.249 19.59l-1.116.58c-.558-.342-1.673-1.552-2.193-3.523-.515-1.948-.527-4.88 2.344-7.781C174.747 78.708 204.132 66 250.441 66m78.618 87.631 7.783 1.032c2.809.372 5.33 1.803 6.917 3.925 1.387 1.855 1.961 4.093 1.617 6.302-.777 4.977-5.896 8.431-11.447 7.695l-15.626-2.071a81.2 81.2 0 0 0 10.756-16.883"
  />
  <path
    fill="#FFB921"
    d="M298.275 182.315c24.497-17.484 35.891-42.526 33.874-74.442-1.592-1.507-5.982-5.519-12.437-10.378-12.669-7.419-33.763-13.672-68.907-14.09a273 273 0 0 0-3.266-.02c-41.4 0-59.985 9.668-77.973 19.026l-.225.117c-.046 1.288-.063 3.482.113 6.397l8.932.007c1.834.223 3.304 1.376 4.73 2.446 2.356 1.901 4.177 5.101 3.973 8.226-.155 2.037-1.262 6.148-3.932 4.627-.54-.376-.796-.981-.779-1.595.171-4.033-.74-7.008-4.51-8.693-3.224.005-10.145.005-12.835.01-12.316-.451-25.038 6.699-29.45 18.428-4.033 10.118-.709 22.488 8.478 28.622 5.56 3.943 12.667 5.666 19.546 5.614l13.352-.01c1.295.057 4.97-.168 6.206.178 3.892 1.222 6.752 5.213 7.023 9.288.011 1.621-.205 3.553.054 5.051.335 1.428.933 1.612 2.697 2.111 3.09.519 7.812.817 10.223-1.397.941-.974 1.16-3.032 1.157-4.595.449-7.365-3.76-14.359-10.228-17.967-3.482-1.998-7.518-3.031-11.539-3.047l-4.449-.009-8.902-.018c-1.72-.056-5.19.088-6.922-.106-6.101-.566-11.883-4.869-13.531-10.923-2.655-9.106 5.025-17.931 14.064-18.33 2.582-.107 6.448-.006 9.068-.03 2.967.037 5.935-.157 8.902.625a1.77 1.77 0 0 1 0 3.42c-2.366.623-4.733.626-7.099.621a99 99 0 0 0 1.142 3.438 99.7 99.7 0 0 0 7.561 16.375h.169c4.878 0 9.749 1.23 14.007 3.647 7.511 4.124 12.958 12.446 12.85 21.233-.005 1.941-.016 3.881-.618 5.8 4.498 3.662 9.526 7.227 15.134 10.627a18 18 0 0 1 1.997-.898c10.291-3.903 29.094-1.942 37.958 3.96a21 21 0 0 1 2.581 2.012c7.361-2.188 19.793-6.779 31.811-15.358m8.722-44.131a2.5 2.5 0 0 1 1.548 2.625c-.915 7.44-.147 9.04 3.536 12.653a2.502 2.502 0 0 1-1.52 4.274c-5.763.536-7.55 1.664-11.948 7.548a2.5 2.5 0 0 1-4.484-1.803c.916-7.439.149-9.039-3.534-12.653a2.5 2.5 0 0 1 1.52-4.273c5.763-.536 7.55-1.664 11.946-7.548a2.504 2.504 0 0 1 2.936-.823m-20.098-1.157a2.5 2.5 0 0 1-2.365-1.693c-1.187-3.48-2.185-5.915-3.37-7.761a10.7 10.7 0 0 1-1.966-2.374c-1.594-1.476-3.628-2.516-6.602-3.673a2.502 2.502 0 0 1-.256-4.543c2.76-1.45 4.626-2.689 6.008-4.293a10.4 10.4 0 0 1 1.734-2.701c.917-1.946 1.584-4.449 2.303-7.978a2.5 2.5 0 0 1 2.29-1.995 2.49 2.49 0 0 1 2.526 1.688c1.187 3.479 2.184 5.914 3.369 7.76.74.664 1.406 1.461 1.967 2.375 1.593 1.476 3.627 2.516 6.601 3.672a2.502 2.502 0 0 1 .256 4.544c-2.759 1.449-4.625 2.688-6.007 4.292a10.4 10.4 0 0 1-1.735 2.701c-.917 1.947-1.583 4.45-2.303 7.978a2.5 2.5 0 0 1-2.45 2.001"
  />
  <path
    fill="#D69200"
    d="M163.949 95.032c.52 1.971 1.636 3.181 2.193 3.524l1.116-.58c18.522-9.636 37.661-19.592 80.249-19.592q1.656 0 3.359.02c53.707.64 76.231 14.917 85.669 26.781.223.085 1.037-.205 1.965-1.342 1.326-1.627 2.487-4.661 1.392-7.863C337.861 90.031 315.558 66 250.441 66c-46.309 0-75.694 12.709-84.147 21.25-2.872 2.901-2.86 5.834-2.345 7.782"
  />
  <path
    fill="#D69200"
    d="M227.698 196.376c-2.314.877-3.768 2.041-4.095 3.278-.483 1.826.746 3.321 2.01 4.324 1.65-1.94 4.766-3.119 9.487-3.594a33 33 0 0 1 3.344-.161c8.657 0 18.869 2.94 22.493 6.745q.276.288.495.573c1.633-.942 3.169-2.218 3.307-3.385.133-1.131-1.19-2.71-3.627-4.333-7.496-4.99-24.671-6.762-33.414-3.447"
  />
  <path
    fill="#FFB921"
    d="M257.519 211.951c-2.915-2.651-14.052-11.267-28.007-2.968.143 5.406-1.776 22.364-27.899 41.232 0 0 4.869-.909 4.907-.914q.187-.027.38-.025c.065.001.128 0 .193.006.031.002 69.191 8.808 69.191 8.808-18.469-16.971-18.939-40.516-18.765-46.139"
  />
  <path
    fill="#7A42C8"
    d="m208.864 254.539-4.421 22.024-6.848 34.111 112.028 14.277-1.798-57.801zm87.221 53.857a2.5 2.5 0 0 1-1.935.632l-77.596-8.077a2.498 2.498 0 0 1-2.179-3.037l6.344-28.078a2.5 2.5 0 0 1 1.705-1.838c.654-.2 1.759-.538 72.171 7.599a2.5 2.5 0 0 1 2.213 2.474l.101 28.462a2.5 2.5 0 0 1-.824 1.863"
  />
  <path
    fill="#7A42C8"
    d="M192.171 310.558c.115-.013.231-.013.349-.009l11.169-55.639-37.181 7.034-15.991 53.695 39.242-4.755 2.35-.325c.021-.003.041.001.062-.001"
  />
  <path fill="#A17AD8" d="m194.563 315.815-2.336 15.574 124.902 15.44-.347-15.917z" />
  <path fill="#A17AD8" d="m187.183 331.306 2.301-15.336-47.319 6.55-4.363 14.863z" />
  <path
    fill="#7A42C8"
    d="m189.373 336.074-33.316 4.101 135.794 14.75c1.836-.516 8.774-2.465 15.267-4.295z"
  />
  <path
    fill="#D5C3EE"
    d="m291.899 303.767-.083-23.458c-24.262-2.797-58.294-6.624-66.683-7.323l-5.261 23.284zm-10.432-5.799c-7.141-.054-14.29-.84-21.25-2.429-.186-.061-.819-.193-.99-.262-.128-.06-.929-.487-1.068-.555-1.979-1.009-1.27-4.053.919-4.115 7.733-.225 15.473.974 22.971 2.806 2.566.708 2.058 4.524-.582 4.555m-43.445-18.496c7.736-.577 15.426.499 23.118 1.126 3.831.364 7.645.86 11.453 1.408 3.815.488 7.615 1.093 11.287 2.713a1.49 1.49 0 0 1 .762 1.963c-1.475 3.024-20.447-.373-24.17-.785-7.607-1.302-15.323-2.168-22.674-4.648-.911-.307-.738-1.71.224-1.777"
  />
  <path
    fill="#000"
    d="M294.595 275.597c-70.412-8.137-71.517-7.799-72.171-7.599a2.5 2.5 0 0 0-1.705 1.838l-6.344 28.078a2.498 2.498 0 0 0 2.179 3.037l77.596 8.077q.13.014.259.014a2.5 2.5 0 0 0 2.5-2.509l-.101-28.462a2.5 2.5 0 0 0-2.213-2.474m-2.779 4.712.083 23.458-72.027-7.497 5.261-23.284c8.389.699 42.421 4.526 66.683 7.323"
  />
  <path
    fill="#000"
    d="M237.798 281.25c7.351 2.479 15.067 3.346 22.674 4.648 3.723.411 22.695 3.808 24.17.784a1.49 1.49 0 0 0-.761-1.963c-3.673-1.62-7.473-2.224-11.288-2.713-3.808-.548-7.622-1.044-11.453-1.408-7.691-.627-15.382-1.703-23.118-1.126-.962.067-1.135 1.47-.224 1.778"
  />
  <path
    fill="#000"
    d="M282.049 293.413c-7.498-1.832-15.238-3.031-22.971-2.806-2.189.062-2.898 3.106-.919 4.115.139.068.94.495 1.068.555.171.069.804.201.99.262 6.96 1.589 14.109 2.375 21.25 2.429 2.64-.031 3.148-3.847.582-4.555"
  />
  <path
    fill="#FFFBE8"
    d="M278.765 124.676c1.179 1.557 1.552 2.003 2.832 3.419-1.197-1.561-1.556-1.994-2.832-3.419"
  />
  <path
    fill="#FFFBE8"
    d="M286.643 130.342c.326-9.381 1.395-10.779 9.325-12.359-8.086-.727-9.328-2-10.876-11.288-.327 9.381-1.396 10.779-9.325 12.359 8.085.727 9.328 2 10.876 11.288"
  />
  <path
    fill="#FFFBE8"
    d="M277.967 113.284c1.143-1.629 1.46-2.12 2.496-3.889-1.148 1.62-1.478 2.128-2.496 3.889"
  />
  <path
    fill="#FFFBE8"
    d="M293.768 123.753c-1.143 1.63-1.46 2.121-2.497 3.89 1.148-1.62 1.479-2.128 2.497-3.89"
  />
  <path
    fill="#FFFBE8"
    d="M292.97 112.362c-1.18-1.557-1.553-2.003-2.833-3.42 1.197 1.561 1.557 1.994 2.833 3.42"
  />
  <path
    fill="#000"
    d="M289.349 135.026c.72-3.528 1.386-6.031 2.303-7.977a11.7 11.7 0 0 1 1.735-2.702c1.382-1.604 3.248-2.843 6.007-4.292a2.5 2.5 0 0 0-.256-4.544c-2.974-1.156-5.008-2.196-6.601-3.672a12 12 0 0 1-1.967-2.374c-1.185-1.847-2.182-4.281-3.369-7.761a2.49 2.49 0 0 0-2.526-1.688 2.5 2.5 0 0 0-2.29 1.995c-.719 3.529-1.386 6.032-2.303 7.978a11.7 11.7 0 0 1-1.734 2.701c-1.382 1.605-3.248 2.844-6.008 4.293a2.5 2.5 0 0 0 .256 4.543c2.974 1.157 5.008 2.197 6.602 3.673a12 12 0 0 1 1.966 2.374c1.185 1.846 2.183 4.281 3.37 7.761a2.499 2.499 0 0 0 4.815-.308m-10.496-16.135c3.138-2.238 5.046-4.734 6.476-8.583 1.918 3.683 4.136 5.957 7.552 7.839-3.137 2.237-5.046 4.734-6.475 8.583-1.918-3.684-4.137-5.957-7.553-7.839"
  />
  <path
    fill="#FFFBE8"
    d="M307.35 154.106c-4.39-2.236-4.777-3.279-3.182-8.711-2.79 5.072-3.846 5.637-8.842 4.789 4.39 2.236 4.777 3.279 3.182 8.712 2.79-5.072 3.846-5.638 8.842-4.79"
  />
  <path
    fill="#000"
    d="M292.115 146.555a2.498 2.498 0 0 0-1.52 4.273c3.683 3.614 4.451 5.214 3.534 12.653a2.503 2.503 0 0 0 2.481 2.806 2.5 2.5 0 0 0 2.003-1.003c4.398-5.884 6.185-7.012 11.948-7.548a2.5 2.5 0 0 0 1.52-4.274c-3.683-3.613-4.451-5.214-3.535-12.653a2.502 2.502 0 0 0-4.485-1.802c-4.396 5.884-6.182 7.012-11.946 7.548m11.188.902c.241 2.335.931 4.197 2.21 6.05-2.36.626-4.246 1.635-6.14 3.326-.241-2.334-.932-4.197-2.21-6.05 2.36-.625 4.246-1.635 6.14-3.326"
  />
  <path
    fill="#000"
    d="M356.061 100.417c3.725-.582 7.62-.793 11.383-.814 4.154-.571 3.466-6.674-.706-6.313a77 77 0 0 0-11.722 2.242c-2.98.877-2.05 5.299 1.045 4.885"
  />
  <path
    fill="#000"
    d="M390.344 115.701c-8.86-.878-17.786-1.556-26.692-1.27a2.523 2.523 0 0 0-.534 4.971c6.649 1.619 13.318 2.207 20.081 2.669 2.24.152 4.483.251 6.73.276 4.172-.043 4.568-6.085.415-6.646"
  />
  <path
    fill="#000"
    d="M116.217 119.861c-.97-.169-1.857-.3-2.784-.424-2.861-.368-5.713-.635-8.617-.662-3.922.361-3.534 6.117.396 5.954a73 73 0 0 1 10.312.084 2.5 2.5 0 0 0 .693-4.952"
  />
  <path
    fill="#000"
    d="M113.486 137.061c-3.44.309-8.423.89-11.915 1.274-3.488.426-8.471 1.001-11.886 1.576-4.096.776-3.271 6.804.887 6.449a191 191 0 0 0 23.781-4.377c2.934-.811 2.184-5.156-.867-4.922"
  />
  <path
    fill="#000"
    d="M229.566 418.703c49.775 0 90.126-5.711 90.126-12.756s-40.351-12.756-90.126-12.756-90.126 5.711-90.126 12.756 40.351 12.756 90.126 12.756"
  />
</svg>
