<svg xmlns="http://www.w3.org/2000/svg" width="299" height="294" fill="none" viewBox="0 0 299 294"><path fill="#000" d="M296.782 274.36c.515-10.462-63.065-22.095-142.011-25.984-78.945-3.888-143.361 1.44-143.877 11.901-.515 10.462 63.065 22.095 142.011 25.984s143.362-1.44 143.877-11.901"/><path fill="#000" d="M202.932 289.782c-15.85 0-32.759-.423-50.127-1.279-38.275-1.889-74.175-5.639-101.092-10.573-38.99-7.139-43.217-13.546-43.014-17.738.203-4.201 5.048-10.158 44.55-13.423 27.27-2.251 63.364-2.454 101.639-.565s74.175 5.639 101.092 10.572c38.989 7.14 43.216 13.547 43.013 17.739-.203 4.201-5.048 10.158-44.549 13.423-14.897 1.236-32.432 1.853-51.512 1.853zm-98.171-40.445c-18.956 0-36.36.618-51.142 1.836-32.988 2.726-40.428 7.598-40.507 9.239s6.84 7.219 39.395 13.185c26.732 4.889 62.429 8.622 100.51 10.502 38.089 1.88 73.981 1.677 101.056-.556 32.989-2.727 40.428-7.598 40.508-9.24.079-1.641-6.84-7.219-39.396-13.185-26.731-4.889-62.429-8.622-100.509-10.501-17.297-.857-34.145-1.28-49.915-1.28"/><path fill="#000" d="M127.998 50.93h-.177a2.206 2.206 0 0 1-2.03-2.374c1.58-20.342-2.18-34.374-10.855-40.56-7.148-5.101-16.353-4.033-22.574-1.333a11.4 11.4 0 0 0-2.604 1.562c.82.018 2.048-.044 3.866-.309a2.214 2.214 0 0 1 2.497 1.871 2.21 2.21 0 0 1-1.87 2.498c-4.06.582-8.835.83-9.753-2.41-.917-3.256 3.592-6.177 6.107-7.263 7.334-3.177 18.242-4.377 26.891 1.792 10.149 7.237 14.42 22.204 12.69 44.496a2.21 2.21 0 0 1-2.197 2.039z"/><path fill="#fff" d="M147.086 22.23s2.039-4.077 5.048-8.154z"/><path fill="#000" d="M145.118 21.242a63.6 63.6 0 0 1 4.775-8.834c2.082-3.053 6.636-.106 4.703 3.045-1.994 2.444-3.944 5.083-5.559 7.81-1.457 2.33-4.978.494-3.919-2.03z"/><path fill="#fff" d="M161.71 30.385s5.63-5.383 15.082-15.338z"/><path fill="#000" d="M160.183 28.787c4.351-5.657 9.354-10.793 14.473-15.761 2.727-2.48 6.592 1.209 4.263 4.041-2.33 2.745-4.837 5.34-7.422 7.846-2.613 2.533-5.26 4.96-8.261 7.06a2.236 2.236 0 0 1-3.106-.573 2.25 2.25 0 0 1 .062-2.621z"/><path fill="#fff" d="M95.636 34.639s-3.795-2.516-8.446-4.545z"/><path fill="#000" d="M94.418 36.475a60.4 60.4 0 0 0-8.278-3.98c-3.204-1.333-1.377-6.081 1.897-4.916 2.348 1.112 4.554 2.409 6.734 3.795 1.58 1.04 4.05 2.223 2.612 4.492a2.207 2.207 0 0 1-2.956.6z"/><path fill="#fff" d="M87.04 48.997s-7.563-1.853-20.721-5.763z"/><path fill="#000" d="M86.51 51.142c-5.356-.927-10.598-2.198-15.84-3.61-1.73-.485-3.46-.98-5.172-1.544a2.874 2.874 0 0 1 1.641-5.507c1.73.46 3.433.97 5.145 1.483l5.11 1.588c2.542.803 7.643 2.462 10.176 3.3 2.559.892 1.615 4.687-1.06 4.281z"/><path fill="#A17AD8" d="M288.686 269.105c-.512 10.466-64.936 15.788-143.877 11.896-78.94-3.892-142.525-15.532-142.005-25.999l-.582-10.846c.406-11.323 72.013-4.616 144.458-1.041 72.199 3.565 132.201 5.454 141.423 15.144 0 0 .627 9.954.583 10.846"/><path fill="#000" d="M194.821 284.478c-15.849 0-32.758-.423-50.126-1.279-38.275-1.889-74.175-5.64-101.092-10.573C5.01 265.557.474 259.212.589 255.011l-.582-10.846v-.097c.035-.944.37-2.347 1.782-3.627 7.643-6.963 43.129-5.278 105.196-1.712 12.955.741 26.352 1.518 39.792 2.18 6.919.344 13.732.67 20.395.988 72.534 3.477 113.986 5.878 122.52 14.844l.556.582.053.803c.194 3.028.626 10.176.582 11.094-.203 4.2-5.048 10.157-44.549 13.423-14.897 1.235-32.433 1.853-51.513 1.853zM4.428 244.174l.583 10.82v.114c-.089 1.642 6.83 7.219 39.395 13.185 26.731 4.889 62.429 8.622 100.509 10.502 38.09 1.88 73.981 1.677 101.057-.556 32.935-2.718 40.401-7.581 40.507-9.231.009-.688-.282-5.825-.529-9.734-9.372-7.722-60.258-10.158-118.989-12.973-6.663-.318-13.476-.644-20.395-.989-13.459-.661-26.864-1.438-39.828-2.179-49.024-2.816-95.33-5.481-101.975.573-.256.238-.317.389-.335.468"/><path fill="#D5C3EE" d="M288.078 258.216c.515-10.461-63.065-22.094-142.011-25.983S2.705 233.672 2.19 244.134s63.065 22.095 142.011 25.983 143.362-1.439 143.877-11.901"/><path fill="#000" d="M194.239 273.632c-15.85 0-32.759-.424-50.127-1.28-38.274-1.888-74.175-5.639-101.092-10.572C4.03 254.64-.196 248.233.007 244.041c.203-4.2 5.048-10.157 44.549-13.423 27.27-2.25 63.364-2.453 101.639-.564s74.175 5.639 101.092 10.572c38.989 7.14 43.217 13.547 43.014 17.739-.203 4.2-5.048 10.157-44.55 13.423-14.897 1.235-32.432 1.853-51.512 1.853zm-98.17-40.454c-18.957 0-36.36.617-51.142 1.835-32.989 2.727-40.428 7.599-40.508 9.24s6.84 7.219 39.396 13.185c26.73 4.889 62.429 8.622 100.509 10.502 38.089 1.88 73.981 1.677 101.057-.556 32.988-2.727 40.428-7.599 40.507-9.24s-6.839-7.219-39.395-13.185c-26.732-4.889-62.429-8.622-100.51-10.502-17.297-.856-34.144-1.279-49.915-1.279"/><path fill="#EE6DBB" d="m52.649 249.055 19.388.909-10.59-42.891 66.489.724 119.607 11.976 4.898-36.889-20.395-1.942-175.753.186-5.939-27.385 5.71-12.205 9.62-3.151 100.006 9.382 97.738.45 4.925-12.382-12.153-6.866-109.158-38.054-133.03 19.733 6.495 8.666z"/><path fill="#EE6DBB" d="M143.847 140.399c0 3.804-12.161 11.182-20.509 11.182s-15.682-7.184-15.682-10.987 6.768-6.884 15.117-6.884 21.074 2.886 21.074 6.681z"/><path fill="#EE6DBB" d="M107.117 138.387c0 3.804-10.308 16.327-18.656 16.327-8.349 0-12.726-16.953-29.123-22.531-3.6-1.226 27.517-.317 35.874-.317s11.914 2.727 11.914 6.521z"/><path fill="#FAD0E9" d="m72.946 252.081 21.33 3.151 51.998 3.671 59.058 1.501 30.879-3.672 13.432-61.484-18.939 3.212-12.072 17.703-7.987-7.731-5.498-8.075-85.922 5.26-46.34-3.106-7.202 3.574-3.512 4.801z"/><path fill="#FAD0E9" d="m55.164 182.884 32.035 7.669 46.05 2.93 94.958-10.732 24.234.133 8.719-33.253-123.49-3.619-16.671 7.987-13.882-10.034-19.362 12.699-15.77-17.421-13.503-.644-9.063 9.628z"/><path fill="#EE6DBB" d="M102.193 94.747c7.492-13.282-2.63-20.439-14.57-21.542-15.224-1.403-27.711 12.973-19.151 22.707 0 0 3.918-.627 11.323 0"/><path fill="#000" d="M79.795 98.118h-.186c-6.98-.591-10.757-.026-10.793-.017a2.21 2.21 0 0 1-1.994-.724c-3.751-4.263-4.386-9.681-1.748-14.888 3.274-6.442 12.144-12.443 22.752-11.473 8.533.786 15.002 4.219 17.729 9.426 1.589 3.035 2.639 8.18-1.438 15.39a2.21 2.21 0 0 1-3.848-2.171c2.489-4.403 2.948-8.171 1.368-11.18-1.995-3.796-7.307-6.443-14.226-7.079-8.658-.794-15.815 3.963-18.41 9.082-.97 1.906-2.109 5.498.433 9.098 1.783-.15 5.348-.309 10.537.124a2.205 2.205 0 0 1-.185 4.403z"/><path fill="#000" d="M45.262 241.756c5.41 2.992 12.726 4.104 18.965 5.445 6.795 1.307 13.661 2.321 20.5 3.495 2.057.389 1.73 3.416-.37 3.345-10.572-.627-21.136-1.615-31.4-4.492-3.432-1.086-6.954-2.242-10.06-5.11a1.775 1.775 0 0 1-.097-2.515c.653-.715 1.712-.732 2.453-.176z"/><path fill="#000" d="M246.934 255.002c-4.483 5.225-19.036 4.925-25.708 5.207-2.806.027-5.613 0-8.41-.088a1.686 1.686 0 0 1-.141-3.362c2.78-.336 5.568-.6 8.339-.848l8.287-.732c4.051-.397 8.049-.777 11.985-1.58 1.588-.326 2.559-.697 3.512-1.288 1.712-.989 3.486 1.253 2.136 2.683z"/><path fill="#000" d="M197.019 261.136c-14.35 0-33.509-.468-58.917-1.836-69.665-3.75-85.56-10.413-86.204-10.696l-.98-.432L16.114 113.8a8.5 8.5 0 0 1 1.323-6.601c1.404-2.047 3.645-3.442 6.151-3.848l114.021-18.232.53.185L240.88 121.54c4.059 1.403 20.977 7.722 24.331 8.975 1.306.486 2.365 1.2 3.168 2.118 5.013 5.763-1.324 14.553-2.93 16.591l-27.42 109.317-1.262.327c-.503.132-9.204 2.259-39.748 2.259zM74.014 248.94c12.903 1.994 33.209 4.271 64.327 5.948 67.503 3.636 90.801.82 96.07-.053l14.385-57.346c-1.191.027-2.789.062-4.757.124l-2.965.141c-12.417.229-13.538 5.763-14.729 11.623-.794 3.918-1.792 8.798-7.634 9.001-6.698.238-8.525-4.757-9.981-8.754-2.021-5.543-3.768-10.326-15.956-8.42l-.115.018-2.647.274a895 895 0 0 0-16.062 1.853c-36.615 4.571-63.788 2.692-81.765 1.447-14.27-.988-23.704-1.641-26.608 1.695-1.438 1.65-1.615 4.73-.564 9.69 3.724 17.588 8.295 30.755 9.01 32.767zm-19.389-4.042c1.739.565 6.028 1.782 14.438 3.239-1.659-4.943-5.312-16.521-8.384-31.047-1.376-6.513-.9-10.67 1.554-13.494 4.35-5.004 13.546-4.36 30.243-3.203 17.81 1.235 44.726 3.097 80.918-1.421a813 813 0 0 1 16.15-1.862l2.595-.274c15.717-2.436 18.612 5.48 20.721 11.27 1.509 4.148 2.33 5.965 5.683 5.86 2.136-.071 2.586-1.174 3.46-5.472 1.2-5.913 3.018-14.853 18.912-15.153l2.939-.141a355 355 0 0 1 5.71-.141l1.977-7.863c-7.811.185-32.768 1.226-85.622 7.157-60.734 6.813-107.402-1.659-111.62-10.255-4.192-8.534-5.86-22.425-6.151-25.125-.662-6.134.53-11.093 3.556-14.756 2.85-3.45 7.193-5.507 12.585-5.966 3.812-.476 11.95.777 15.841 8.905 2.374 4.96 5.622 8.022 8.896 8.402 2.109.238 4.13-.698 5.683-2.639l.335-.415c5.128-6.407 7.475-9.337 13.476-8.666 2.472.273 4.501 2.25 6.655 4.351 2.109 2.056 4.297 4.183 6.539 4.377 3.477.291 5.648-1.306 8.163-3.16 2.48-1.835 5.295-3.909 9.355-3.618l6.672.503c41.469 3.036 80.626 3.627 116.403 1.774 1.871-2.498 5.031-7.89 2.727-10.537-.309-.362-.776-.653-1.385-.883-3.336-1.253-20.21-7.554-24.234-8.94l-102.23-36.05-112.91 18.056c-1.314.212-2.48.935-3.212 1.986a4.03 4.03 0 0 0-.653 3.15l34.207 132.051zm11.12-104.296c-.538 0-.882.036-.944.044h-.088c-2.922.247-6.963 1.209-9.593 4.386-2.233 2.71-3.098 6.566-2.568 11.464.767 7.096 2.727 17.554 5.727 23.661.785 1.526 9.478 5.736 30.208 8.33 15.594 1.951 41.611 3.451 76.956-.511 57.548-6.46 81.72-7.158 87.545-7.219l7.572-30.182c-35.415 1.738-74.078 1.112-114.974-1.88l-6.663-.503c-2.418-.168-4.183 1.121-6.407 2.771-2.683 1.986-6.019 4.457-11.164 4.007-3.812-.327-6.698-3.133-9.24-5.613-1.447-1.412-3.097-3.018-4.059-3.124-3.486-.389-4.536.776-9.549 7.042l-.335.424c-2.507 3.124-6.01 4.677-9.637 4.262-4.89-.565-9.284-4.421-12.373-10.872-2.798-5.843-8.225-6.469-10.414-6.469z"/><path fill="#000" d="M208.518 133.366c-13.944.185-27.887-.141-41.813-.759-31.356-1.43-62.774-3.407-93.776-8.605-6.778-1.253-13.918-2.674-20.554-4.536-2.55-.759-5.11-1.491-7.59-2.497-1.253-.6-4.121-1.165-3.212-3.186.406-.777 1.386-1.015 2.127-.574 4.563 2.083 9.646 3.239 14.535 4.422 21.957 4.765 44.629 6.839 67 8.551 27.676 2.048 55.616 2.312 83.336 3.53 2.206.106 2.436 3.521-.053 3.654"/><path fill="#EE6DBB" d="M95 95.912c0 5.312-21.912 14.561-28.681 14.561s-48.124 5.375-52.307.168c-3.327-4.139 48.168-27.879 54.937-27.879S95 90.6 95 95.902z"/><path fill="#EE6DBB" d="M76.176 82.03c-3.194-2.444-5.948-3.23-10.793-3.671-9.513-.874-17.959 4.413-20.871 10.873"/><path fill="#000" d="M44.52 91.446a2.207 2.207 0 0 1-2.003-3.115c3.063-6.822 11.994-13.185 23.087-12.17 4.836.442 8.172 1.236 11.932 4.122a2.207 2.207 0 0 1 .405 3.097 2.207 2.207 0 0 1-3.097.406c-2.657-2.038-4.907-2.788-9.655-3.221-8.949-.83-16.291 4.324-18.656 9.584a2.21 2.21 0 0 1-2.012 1.306z"/><path fill="#FFFBE8" d="M101.196 80.856s-6.063 1.306-8.799 3.256c-4.563 3.257-6.478 12.426 3.424 16.424 27.914 11.252 56.525 5.622 64.521.838 8.587-5.136 7.254-16.22-7.175-18.85"/><path fill="#000" d="M130.601 109.282c-10.917 0-23.378-1.774-35.6-6.699-6.672-2.691-8.164-7.272-8.464-9.769-.477-3.989 1.368-8.198 4.58-10.493 3.018-2.153 8.949-3.477 9.62-3.618l.926 4.315c-1.562.335-6.054 1.518-7.986 2.895-1.907 1.359-3.045 3.98-2.763 6.38.318 2.674 2.295 4.819 5.728 6.196 27.331 11.013 55.448 5.251 62.57.988 3.115-1.862 4.677-4.607 4.183-7.334-.644-3.574-4.615-6.363-10.616-7.457l.794-4.342c7.881 1.439 13.185 5.551 14.173 11.005.821 4.545-1.571 9.108-6.257 11.905-4.986 2.983-16.618 6.019-30.879 6.019z"/><path fill="#FFFBE8" d="M104.593 69.34s-5.507 1.252-7.986 3.123c-4.148 3.107-5.904 11.844 3.07 15.63 25.302 10.652 51.266 5.233 58.538.662 7.801-4.907 6.619-15.453-6.469-17.933"/><path fill="#000" d="M131.007 96.441c-9.893 0-21.145-1.677-32.185-6.318-6.063-2.55-7.449-6.893-7.74-9.25-.476-3.847 1.218-7.933 4.2-10.175 2.78-2.082 8.208-3.362 8.826-3.503l.988 4.298c-1.403.326-5.436 1.447-7.157 2.735-1.465 1.095-2.78 3.548-2.47 6.107.308 2.48 2.055 4.457 5.074 5.728 24.675 10.387 50.073 4.871 56.507.83 2.797-1.757 4.227-4.448 3.733-7.034-.627-3.3-4.157-5.869-9.443-6.866l.821-4.333c7.139 1.35 11.984 5.233 12.955 10.378.838 4.404-1.359 8.843-5.719 11.588-4.58 2.885-15.285 5.824-28.381 5.833z"/><path fill="#C0167C" d="M157.112 66.277c-2.824 11.844-12.647 20.104-27.967 19.38-15.321-.723-28.179-7.898-27.517-22 .247-5.172 2.939-10.264 7.21-13.441 8.137-6.063 13.767-1.095 19.16-1.5 4.156-.31 6.212-3.372 9.001-4.501 4.739-1.924 11.702.414 15.718 5.039 3.397 3.918 5.877 10.82 4.404 17.015z"/><path fill="#000" d="M130.928 87.907a44 44 0 0 1-1.889-.044c-18.648-.882-30.27-10.422-29.617-24.304.273-5.895 3.3-11.535 8.092-15.109 6.407-4.774 11.597-3.556 15.771-2.577 1.712.406 3.195.75 4.545.653 2.012-.15 3.38-1.147 4.968-2.303 1.033-.75 2.101-1.527 3.372-2.047 5.515-2.242 13.52.229 18.206 5.63 3.556 4.095 6.601 11.782 4.88 18.974-3.142 13.15-13.908 21.118-28.328 21.118zm-13.662-38.512c-2.162 0-4.456.608-7.113 2.594-3.689 2.745-6.107 7.254-6.319 11.773-.644 13.6 12.709 19.089 25.417 19.689 13.299.617 22.927-5.984 25.725-17.695 1.297-5.427-.988-11.684-3.918-15.055-3.416-3.928-9.47-5.957-13.22-4.44-.768.31-1.536.874-2.436 1.527-1.765 1.289-3.971 2.895-7.237 3.133-2.03.15-3.989-.309-5.886-.75-1.668-.388-3.301-.776-5.013-.776"/><path fill="#FFFBE8" d="m144.006 88.913-34.577-1.826-5.912-9.805 49.332 2.33z"/><path fill="#000" d="M131.219 82.719c-14.826 0-25.152-3.76-27.694-4.793-1.12-.459-1.703-1.738-1.253-2.868a2.18 2.18 0 0 1 2.816-1.262c.008 0 .088.036.097.036 2.082.838 21.039 8.048 45.89 2.1a2.21 2.21 0 0 1 2.657 1.633 2.207 2.207 0 0 1-1.633 2.656 89.7 89.7 0 0 1-20.889 2.489z"/><path fill="#EE6DBB" d="M59.515 87.713c-3.195-3.01-8.243-4.757-13.662-5.251-15.223-1.403-29.237 10.802-20.677 20.536"/><path fill="#000" d="M25.167 105.196a2.23 2.23 0 0 1-1.659-.75c-3.415-3.884-4.086-8.64-1.836-13.062 3.698-7.28 14.174-12.055 24.375-11.128 6.266.573 11.579 2.647 14.977 5.842.891.838.926 2.233.097 3.115a2.21 2.21 0 0 1-3.116.097c-2.638-2.48-7.14-4.183-12.355-4.66-9.328-.855-17.509 3.77-20.033 8.729-1.447 2.85-1.041 5.586 1.218 8.145a2.215 2.215 0 0 1-.194 3.116 2.2 2.2 0 0 1-1.456.547z"/><path fill="#EE6DBB" d="M18.178 112.565c-7.396-.627-9.434-2.904-9.434-2.904-8.56-9.725 3.927-24.101 19.15-22.707 6.301.583 12.09 2.842 15.056 6.804"/><path fill="#000" d="M18.186 114.771h-.185c-7.872-.662-10.458-3.142-10.899-3.636-3.76-4.272-4.395-9.699-1.756-14.897 3.274-6.442 12.143-12.443 22.751-11.473 7.413.68 13.476 3.477 16.627 7.678a2.21 2.21 0 0 1-.442 3.089c-.98.733-2.356.53-3.088-.441-2.4-3.204-7.317-5.366-13.494-5.93-8.666-.804-15.815 3.962-18.41 9.08-1.04 2.048-2.276 6.046 1.069 9.911.22.185 2.223 1.738 8.013 2.224a2.205 2.205 0 0 1-.186 4.404z"/><path fill="#000" d="M101.602 166.407a3.548 3.548 0 1 1 0-7.097 3.548 3.548 0 0 1 0 7.097m0-4.413a.866.866 0 0 0 0 1.73.866.866 0 0 0 0-1.73"/><path fill="#000" d="M164.348 227.644a3.547 3.547 0 1 1 0-7.094 3.547 3.547 0 0 1 0 7.094m0-4.412a.867.867 0 0 0-.865.865.866.866 0 1 0 .865-.865"/><path fill="#000" d="M147.086 240.688a4.913 4.913 0 0 1-4.906-4.907 4.907 4.907 0 1 1 4.906 4.907m0-6.23c-.732 0-1.323.591-1.323 1.323 0 .733.591 1.324 1.323 1.324.733 0 1.324-.591 1.324-1.324 0-.732-.591-1.323-1.324-1.323"/></svg>