<svg xmlns="http://www.w3.org/2000/svg" width="352" height="410" fill="none" viewBox="0 0 352 410"><path fill="#000" d="M175.93 410c81.027 0 146.713-6.828 146.713-15.251s-65.686-15.252-146.713-15.252c-81.028 0-146.714 6.829-146.714 15.252S94.902 410 175.93 410"/><path fill="#000" d="M78.25 354.055a66 66 0 0 1-1.01 10.841c-.75 3.681-6.18 2.721-5.61-1 .95-3.27 1.74-6.73 2.14-10.121.39-2.78 4.44-2.5 4.47.28"/><path fill="#000" d="M69.36 353.095c-2.71 5.43-5.98 10.571-9.261 15.671-1.09 1.7-2.21 3.391-3.37 5.051a2.99 2.99 0 0 1-4.17.73 3.016 3.016 0 0 1-.89-3.911c4.13-7.09 8.51-13.961 14.01-20.111 1.77-1.921 4.87.27 3.68 2.57"/><path fill="#D8C4EC" d="M41.287 342.883c3.32 2.731 4.04 4.481 4.14 10.071 2.55-4.97 3.971-6.22 8.161-7.2-3.32-2.731-4.04-4.481-4.14-10.071-2.55 4.97-3.97 6.22-8.16 7.2"/><path fill="#000" d="M45.418 355.454c-.19 0-.38-.02-.57-.07a2.5 2.5 0 0 1-1.93-2.39c-.08-5.12-.64-6.061-3.22-8.181a2.5 2.5 0 0 1-.85-2.5c.21-.93.94-1.65 1.87-1.87 3.25-.76 4.17-1.35 6.5-5.911a2.497 2.497 0 0 1 4.72 1.1c.08 5.121.64 6.061 3.22 8.181a2.5 2.5 0 0 1 .85 2.5 2.5 2.5 0 0 1-1.87 1.871c-3.25.76-4.17 1.35-6.51 5.91-.44.85-1.3 1.36-2.22 1.36zm.36-11.521c.52.72.91 1.47 1.22 2.27a9.6 9.6 0 0 1 2.1-1.5 9.6 9.6 0 0 1-1.22-2.27c-.63.59-1.31 1.08-2.09 1.5z"/><path fill="#000" d="M282.339 27.355c.73-3.6 1.73-7.02 3.05-10.451 1.44-3.47 6.581-1.49 5.321 2.05-1.55 3.03-2.99 6.27-4.031 9.531-.91 2.65-4.84 1.61-4.34-1.13"/><path fill="#000" d="M290.88 29.986c3.69-4.81 7.881-9.241 12.071-13.631 1.4-1.46 2.81-2.91 4.27-4.32a2.99 2.99 0 0 1 4.241.08 3 3 0 0 1 .13 4c-5.401 6.17-11.011 12.09-17.582 17.081-2.11 1.55-4.73-1.19-3.13-3.22"/><path fill="#8044C5" d="M59.409 120.014 3.494 146.557 67.88 344.225s32.103-29.583 71.726-46.314c25.413-10.731 54.785-16.382 58.736-16.382 3.95 0 14.121-5.65 14.121-5.65s28.262-18.122 72.106-32.333c38.704-12.541 64.806-10.011 64.806-10.011L283.309 46.438 189.871 68.05l-44.054 35.583z"/><path fill="#000" d="M67.88 346.725a2.495 2.495 0 0 1-2.37-1.721L1.124 147.337a2.5 2.5 0 0 1 1.3-3.031l55.915-26.542c.19-.09.4-.16.61-.2l85.788-16.262 43.564-35.183c.29-.24.64-.41 1.01-.49l93.438-21.612c1.24-.29 2.5.4 2.92 1.6l66.066 187.097c.28.8.14 1.7-.39 2.371-.53.67-1.35 1.04-2.21.95-.26-.03-26.122-2.311-63.796 9.901-42.993 13.941-71.246 31.882-71.526 32.062-.04.03-.09.06-.13.08-1.79 1-10.951 5.961-15.331 5.961-3.281 0-32.303 5.43-57.766 16.181-38.743 16.362-70.686 45.555-71.006 45.845-.47.43-1.07.66-1.69.66zM6.554 147.877 69.08 339.834c8.83-7.601 36.783-30.393 69.546-44.224 24.902-10.511 54.775-16.572 59.706-16.572 2.26 0 8.85-3.09 12.841-5.3 1.64-1.04 30.042-18.762 72.606-32.563 30.633-9.931 53.295-10.551 61.976-10.321L281.679 49.388 190.981 70.36l-43.604 35.223c-.32.26-.7.43-1.11.51l-86.088 16.321-53.635 25.463z"/><path fill="#8044C5" d="M58.409 118.014 2.494 144.557 66.88 342.225s32.103-29.583 71.726-46.315c25.412-10.731 54.785-16.381 58.735-16.381s14.122-5.651 14.122-5.651 28.262-18.121 72.106-32.333c38.704-12.541 64.806-10.01 64.806-10.01L282.309 44.438 188.871 66.05l-44.054 35.583z"/><path fill="#000" d="M66.88 344.724a2.5 2.5 0 0 1-2.37-1.72L.123 145.336c-.39-1.2.17-2.49 1.3-3.03l55.915-26.542c.19-.09.4-.16.61-.2l85.788-16.262L187.3 64.119c.29-.24.64-.41 1.01-.49l93.428-21.612c1.24-.29 2.5.4 2.92 1.6l66.066 187.097c.28.8.14 1.7-.39 2.37s-1.36 1.04-2.21.95c-.26-.03-26.122-2.32-63.796 9.901-42.994 13.942-71.246 31.883-71.526 32.063-.04.03-.09.06-.13.08-1.79 1-10.951 5.961-15.332 5.961-3.28 0-32.302 5.43-57.765 16.181-38.743 16.362-70.686 45.554-71.006 45.844-.47.43-1.07.66-1.69.66M5.554 145.876 68.08 337.834c8.83-7.601 36.783-30.393 69.546-44.224 24.902-10.511 54.775-16.572 59.705-16.572 2.261 0 8.851-3.09 12.842-5.3 1.64-1.04 30.042-18.762 72.606-32.563 30.633-9.931 53.295-10.561 61.976-10.321L280.679 47.388l-90.698 20.971-43.604 35.224c-.32.26-.7.43-1.11.51l-86.088 16.321-53.635 25.462z"/><path fill="#FFFAE9" d="m69.42 315.96 2.73 6.491s19.912-17.412 43.204-29.183c27.202-13.741 55.155-21.932 85.088-24.472-16.192-12.421-48.195-32.753-48.195-32.753l-74.926 34.643-7.911 45.274z"/><path fill="#000" d="M72.15 324.711q-.255 0-.51-.06a2.25 2.25 0 0 1-1.57-1.32l-2.73-6.491c-.17-.4-.22-.84-.14-1.26l7.91-45.274c.13-.73.6-1.35 1.28-1.66l74.927-34.633c.7-.32 1.51-.27 2.16.14.32.2 32.273 20.532 48.355 32.873.74.57 1.05 1.53.79 2.42s-1.05 1.54-1.97 1.61c-29.353 2.49-56.915 10.421-84.258 24.242-22.762 11.501-42.544 28.693-42.734 28.863-.42.36-.94.56-1.49.56zm-.39-9.011 1.29 3.06c6.01-4.96 22.662-18.081 41.294-27.492 26.062-13.171 52.315-21.082 80.087-24.142-14.861-10.851-37.283-25.273-42.344-28.513l-72.726 33.623-7.59 43.464z"/><path fill="#C67FE8" d="m154.418 92.602 63.815 193.717 2.831-5.09 4.51 2.83-64.756-197.098z"/><path fill="#000" d="M218.233 288.819c-.08 0-.16 0-.24-.01-.99-.09-1.83-.76-2.14-1.71L152.037 93.392c-.31-.95-.03-2 .72-2.66l6.401-5.651c.63-.55 1.5-.76 2.31-.54s1.46.83 1.72 1.63l64.756 197.098a2.497 2.497 0 0 1-3.7 2.9l-2.29-1.43-1.54 2.78c-.44.8-1.281 1.29-2.181 1.29zM157.308 93.392l61.515 186.717.05-.09c.33-.6.901-1.041 1.561-1.211.25-.06.51-.09.76-.08L159.628 91.332l-2.32 2.05z"/><path fill="#FFFAE9" d="m142.556 93.172 58.736 175.075s-29.133-2.83-74.547 13.552C92.292 294.22 68.01 319.072 68.01 319.072L11.535 131.575s20.891-24.282 57.605-36.143c40.303-13.022 60.995-5.65 73.416-2.26"/><path fill="#000" d="M68.01 321.322q-.27 0-.54-.06c-.78-.19-1.39-.78-1.62-1.54L9.374 132.225a2.26 2.26 0 0 1 .45-2.12c.87-1.01 21.732-24.902 58.626-36.823 38.523-12.441 59.715-6.49 72.376-2.94.81.23 1.58.44 2.331.65.73.2 1.31.75 1.55 1.46l58.735 175.075c.24.721.1 1.521-.37 2.121-.48.6-1.23.92-1.98.84-.07 0-7.331-.67-19.972.65-11.671 1.22-30.433 4.43-53.595 12.781-33.533 12.091-57.645 36.483-57.885 36.723-.43.44-1.01.68-1.61.68zM14.065 132.145 69.1 314.882c7.29-6.791 28.552-24.993 56.875-35.203 37.033-13.352 63.126-14.102 72.117-13.862L140.796 95.022c-.39-.11-.79-.22-1.19-.33-12.171-3.42-32.543-9.141-69.776 2.89-31.673 10.231-51.595 30.113-55.765 34.573z"/><path fill="#FFFAE9" d="M273.298 46.635s-42.753 3.05-72.006 13.571c-36.143 12.992 15.811 83.038 15.811 83.038l-16.561 126.131s35.113-21.102 77.807-36.983c31.593-11.761 55.185-10.991 55.185-10.991L273.298 46.645z"/><path fill="#000" d="M200.542 271.626c-.43 0-.86-.12-1.24-.37a2.26 2.26 0 0 1-1-2.18l16.451-125.231c-4.61-6.361-34.523-48.915-27.402-72.437 1.94-6.4 6.37-10.88 13.181-13.33 29.202-10.502 72.176-13.662 72.606-13.692 1.03-.08 1.961.55 2.291 1.52l60.235 174.756c.24.7.12 1.48-.32 2.07s-1.16.94-1.89.92c-.24 0-23.582-.59-54.325 10.851-41.984 15.631-77.077 36.593-77.427 36.803-.36.21-.76.32-1.16.32m71.196-222.6c-8.261.7-44.354 4.2-69.676 13.301-5.471 1.96-8.861 5.361-10.381 10.391-6.891 22.772 26.912 68.727 27.252 69.187.35.47.5 1.06.42 1.64l-15.971 121.581c10.431-5.941 40.054-22.142 74.177-34.853 25.242-9.391 45.254-10.911 52.815-11.121z"/><path fill="#FFFAE9" d="M273.208 40.637s-42.664 3.05-71.916 13.56c-36.143 12.992-58.736 38.964-58.736 38.964l58.736 175.076s34.273-25.972 76.957-41.854c31.593-11.761 55.185-10.991 55.185-10.991L273.198 40.637z"/><path fill="#000" d="M201.292 270.497a2.25 2.25 0 0 1-2.14-1.54L140.416 93.881c-.25-.76-.09-1.59.44-2.2.94-1.08 23.392-26.572 59.676-39.614 29.202-10.5 72.086-13.661 72.516-13.691 1.02-.07 1.96.55 2.291 1.52l60.235 174.756c.24.7.12 1.48-.32 2.07-.44.6-1.16.96-1.89.92-.24 0-23.582-.59-54.325 10.851-41.864 15.582-76.047 41.284-76.387 41.544-.4.3-.88.46-1.36.46M145.117 93.711l57.335 170.895c8.731-6.24 39.073-26.962 75.017-40.333 25.242-9.391 45.254-10.911 52.814-11.121L271.648 43.026c-8.251.7-44.264 4.2-69.586 13.302-31.283 11.24-52.505 32.653-56.935 37.383z"/><path fill="#FFFAE9" d="M38.317 146.027c30.243-20.892 64.086-29.593 98.599-24.343z"/><path fill="#000" d="M38.317 148.286c-.72 0-1.42-.34-1.86-.97a2.26 2.26 0 0 1 .57-3.14c31.013-21.422 65.676-29.973 100.219-24.713 1.23.19 2.08 1.34 1.89 2.571a2.263 2.263 0 0 1-2.57 1.89c-33.383-5.081-66.926 3.2-96.979 23.962-.39.27-.84.4-1.28.4z"/><path fill="#FFFAE9" d="M49.268 183.06c30.573-21.312 65.346-30.453 100.149-25.872z"/><path fill="#000" d="M49.268 185.32a2.259 2.259 0 0 1-1.29-4.11c31.283-21.812 66.466-30.893 101.729-26.263 1.24.16 2.11 1.3 1.94 2.531-.17 1.23-1.3 2.1-2.53 1.94-34.123-4.491-68.216 4.33-98.559 25.482-.39.27-.84.41-1.29.41z"/><path fill="#FFFAE9" d="M61.37 219.303c30.622-21.172 65.895-30.453 100.558-26.613z"/><path fill="#000" d="M61.37 221.562c-.72 0-1.421-.34-1.861-.97a2.26 2.26 0 0 1 .57-3.14c30.793-21.292 67.046-30.873 102.089-27.003a2.266 2.266 0 0 1 2 2.491c-.14 1.24-1.27 2.12-2.49 2-33.963-3.761-69.126 5.55-99.019 26.232-.39.27-.84.4-1.28.4z"/><path fill="#FFFAE9" d="M75.19 254.375c30.293-20.222 65.356-29.243 99.239-26.193z"/><path fill="#000" d="M75.19 256.636c-.73 0-1.44-.35-1.88-1a2.264 2.264 0 0 1 .62-3.131c30.333-20.241 66.096-29.682 100.689-26.562a2.25 2.25 0 0 1 2.041 2.45c-.11 1.24-1.221 2.17-2.451 2.04-33.573-3.02-68.306 6.141-97.779 25.823-.38.26-.82.38-1.25.38z"/><path fill="#FFFAE9" d="M165.189 108.984C194.311 83.151 232.455 68 266.708 72.84z"/><path fill="#000" d="M165.189 111.243c-.621 0-1.241-.26-1.691-.76a2.25 2.25 0 0 1 .19-3.181c31.223-27.702 69.857-41.423 103.33-36.693 1.23.17 2.09 1.32 1.92 2.55a2.263 2.263 0 0 1-2.55 1.92c-32.183-4.54-69.457 8.761-99.709 35.594-.43.38-.96.57-1.5.57z"/><path fill="#FFFAE9" d="M178.75 143.435c27.112-22.592 64.726-35.864 99.979-35.183z"/><path fill="#000" d="M178.75 145.686a2.256 2.256 0 0 1-1.44-3.991c27.652-23.042 65.596-36.393 101.469-35.703 1.25.02 2.24 1.05 2.21 2.3a2.25 2.25 0 0 1-2.25 2.211h-.04c-34.843-.671-71.647 12.291-98.489 34.663-.42.35-.93.52-1.44.52z"/><path fill="#FFFAE9" d="M188.911 181.269c29.932-24.282 65.676-36.323 101.819-37.613z"/><path fill="#000" d="M188.911 183.529c-.66 0-1.31-.29-1.75-.83a2.243 2.243 0 0 1 .33-3.17c29.052-23.572 64.725-36.753 103.169-38.114 1.27-.02 2.29.931 2.33 2.171s-.93 2.29-2.17 2.33c-37.453 1.33-72.197 14.171-100.479 37.113-.42.34-.92.5-1.42.5z"/><path fill="#FFFAE9" d="M196.011 219.073c5.151-4.231 10.261-8.021 15.372-11.421 27.702-18.422 55.585-25.453 91.368-28.583"/><path fill="#000" d="M196.011 221.322a2.265 2.265 0 0 1-1.44-4.01c5.161-4.231 10.391-8.121 15.552-11.551 25.662-17.062 52.434-25.453 92.418-28.953 1.24-.11 2.34.81 2.45 2.05a2.263 2.263 0 0 1-2.05 2.451c-39.174 3.43-65.336 11.601-90.308 28.212-5.041 3.35-10.151 7.151-15.192 11.281-.42.34-.93.51-1.43.51z"/><path fill="#FF634A" d="M55.069 194.811c1.76-.08 3.52-.31 5.24-.7 1.37-.31 2.72-.72 4.04-1.22 1.44-.55 2.84-1.19 4.2-1.911 1.31-.69 2.581-1.46 3.811-2.3 1.32-.9 2.59-1.87 3.82-2.89q1.77-1.47 3.39-3.09a56 56 0 0 0 3.131-3.381c1.05-1.23 2.04-2.51 2.98-3.82a52 52 0 0 0 2.48-3.77 48.3 48.3 0 0 0 3.88-8.021c.471-1.26.881-2.54 1.211-3.84.31-1.23.55-2.471.7-3.731.15-1.28.24-2.55.19-3.84-.04-1.21-.2-2.42-.47-3.59-.26-1.13-.66-2.221-1.17-3.261-.5-1.03-1.15-1.97-1.89-2.84-.77-.9-1.67-1.66-2.64-2.33-1.06-.73-2.22-1.29-3.42-1.75-1.27-.49-2.601-.84-3.951-1.07-1.67-.29-3.36-.43-5.05-.45-1.81-.03-3.62.08-5.431.28-.31.03-.58.12-.81.35-.2.2-.34.53-.32.82.02.3.12.6.35.81.22.19.52.35.82.32 1.22-.13 2.44-.22 3.67-.26 1.1-.03 2.21-.02 3.31.04.53.03 1.06.08 1.59.14 1.47.18 2.921.47 4.331.93.34.11.67.23 1 .36q1.32.54 2.52 1.32c.17.11.34.24.51.36.63.48 1.22 1.01 1.75 1.6.12.13.24.27.35.41.48.61.9 1.27 1.26 1.97.08.16.16.33.24.5.38.881.67 1.801.86 2.741.05.24.09.48.13.72.09.64.15 1.29.18 1.94.03.73.01 1.46-.03 2.19-.02.37-.06.73-.1 1.1a31 31 0 0 1-.56 3.151 35.5 35.5 0 0 1-1.66 5.21c-.6 1.48-1.28 2.92-2.03 4.33a55 55 0 0 1-2.64 4.411c-.51.76-1.04 1.51-1.58 2.25-1.05 1.4-2.16 2.76-3.33 4.05a54 54 0 0 1-3.79 3.791 47 47 0 0 1-5.441 4.23c-1.15.76-2.33 1.46-3.55 2.1-.62.32-1.25.63-1.89.92-.91.4-1.85.77-2.79 1.08-.96.321-1.94.591-2.931.811-.5.11-1 .2-1.51.28-1.78.26-3.6.38-5.4.29a17.3 17.3 0 0 1-4.58-.83 9 9 0 0 1-.741-.271c-.77-.32-1.51-.7-2.21-1.16-.15-.1-.3-.21-.45-.31-.62-.47-1.2-1-1.73-1.59l-.36-.42a13.6 13.6 0 0 1-1.71-2.84 18.2 18.2 0 0 1-1.27-4.47c-.13-.921-.22-1.841-.25-2.771-.04-1.01-.02-2.03.05-3.04.04-.55.09-1.1.15-1.64q.255-2.055.72-4.081a44 44 0 0 1 2-6.37c.49-1.2 1.02-2.38 1.61-3.53a40 40 0 0 1 1.93-3.361c.48-.75 1-1.49 1.53-2.21 1.14-1.52 2.38-2.96 3.79-4.24.34-.31.68-.6 1.04-.89 1.04-.82 2.15-1.541 3.33-2.151.3-.15.6-.29.9-.43 1.52-.66 3.121-1.14 4.751-1.47.45-.09.91-.17 1.37-.24 1.9-.28 3.82-.38 5.74-.48 1.6-.08 3.201-.18 4.801-.17.85 0 1.71.05 2.56.14.9.11 1.79.3 2.64.62.41.18.81.39 1.18.65.24.19.45.4.65.62.17.23.31.46.43.72.14.35.24.71.31 1.091.08.62.07 1.25 0 1.88 0 .05-.01.1-.02.15-.05.31-.04.6.13.88.14.24.42.46.701.52.29.06.62.04.88-.13.23-.16.47-.41.52-.7.28-1.9.21-4.031-1-5.631-.53-.7-1.18-1.28-1.95-1.71-.73-.41-1.55-.7-2.36-.9-1.76-.43-3.6-.5-5.4-.48-1.741.02-3.471.14-5.211.22-2.36.1-4.73.34-7.041.85-2.04.45-4.03 1.14-5.88 2.11-1.86.97-3.55 2.24-5.071 3.681-1.76 1.67-3.26 3.59-4.64 5.58-.93 1.35-1.76 2.75-2.52 4.2a47 47 0 0 0-2.13 4.791 45 45 0 0 0-1.531 4.8c-.41 1.6-.73 3.231-.94 4.881-.21 1.67-.34 3.36-.31 5.05.03 1.6.2 3.201.52 4.761.3 1.48.78 2.91 1.42 4.28.62 1.31 1.43 2.52 2.4 3.59.98 1.08 2.16 2.001 3.44 2.711 1.41.78 2.97 1.33 4.551 1.65 1.88.38 3.82.49 5.74.4z"/><path fill="#FF634A" d="M53.808 198.341c-1.8 0-3.54-.17-5.17-.5-2-.41-3.87-1.08-5.56-2.02-1.65-.91-3.11-2.06-4.34-3.42a18.3 18.3 0 0 1-2.971-4.451c-.76-1.62-1.33-3.33-1.69-5.07s-.55-3.55-.59-5.401c-.03-1.72.08-3.54.34-5.55.22-1.74.57-3.52 1.03-5.301.45-1.73 1-3.48 1.65-5.18.71-1.87 1.46-3.55 2.29-5.16a43 43 0 0 1 2.74-4.581c1.73-2.52 3.36-4.46 5.11-6.13 1.841-1.751 3.811-3.181 5.871-4.251 2.08-1.08 4.35-1.9 6.75-2.42 1.901-.42 3.961-.7 6.261-.85.08-1.05.54-2.1 1.29-2.88.77-.8 1.76-1.27 2.95-1.4a50 50 0 0 1 5.851-.291c1.95.03 3.83.201 5.6.501 1.651.29 3.201.71 4.611 1.25 1.61.62 2.96 1.32 4.14 2.14 1.31.91 2.39 1.87 3.311 2.93.98 1.14 1.78 2.34 2.38 3.58a18.7 18.7 0 0 1 1.43 4.011c.32 1.37.5 2.8.56 4.25.05 1.35-.02 2.74-.22 4.381-.16 1.36-.43 2.76-.79 4.18a41 41 0 0 1-1.32 4.21 52 52 0 0 1-1.91 4.461c-.67 1.38-1.43 2.77-2.25 4.14s-1.71 2.71-2.64 4.01a66 66 0 0 1-3.16 4.051 63 63 0 0 1-3.331 3.6 55.4 55.4 0 0 1-7.71 6.381c-1.36.92-2.751 1.76-4.141 2.5-1.51.8-3.05 1.5-4.59 2.08-1.5.57-3.02 1.03-4.51 1.37-1.881.42-3.851.69-5.841.78-.48.02-.96.03-1.43.03zm-7.1-11.211a9 9 0 0 0 1.92 1.05c.11.04.31.12.5.18.77.25 1.64.441 2.58.561.31.03.69.07 1.06.09 1.48.07 3.07-.02 4.72-.261.4-.06.84-.15 1.27-.24a26.2 26.2 0 0 0 5.071-1.68c.55-.25 1.12-.52 1.68-.81a38 38 0 0 0 3.24-1.91c1-.66 2.031-1.41 3.051-2.22a47 47 0 0 0 5.51-5.231 51 51 0 0 0 3.12-3.8c.52-.7 1.02-1.41 1.471-2.1.89-1.34 1.72-2.73 2.46-4.12a47 47 0 0 0 1.88-4.001c.21-.52.42-1.08.61-1.64.36-1.03.65-2.06.89-3.06.21-.91.38-1.84.49-2.761a19 19 0 0 0 .11-2.74c-.02-.51-.07-1.04-.14-1.58-.02-.12-.05-.31-.09-.5-.15-.72-.37-1.42-.65-2.07a8 8 0 0 0-.96-1.59c.15 1.17.12 2.43-.08 3.79-.18 1.24-.9 2.34-2.02 3.09-1.02.69-2.28.92-3.55.65-1.21-.25-2.31-1.04-2.97-2.12-.58-.95-.78-2.03-.61-3.21v-.03c.04-.36.04-.68.02-.97a1 1 0 0 0-.04-.15c-.11-.07-.23-.13-.37-.19-.49-.18-1.08-.31-1.78-.4-.62-.07-1.34-.1-2.14-.11-1.34-.02-2.701.06-4.131.14l-.61.03c-1.84.1-3.58.19-5.28.44-.37.06-.77.13-1.18.21-1.461.3-2.831.72-4.051 1.25-.2.09-.45.21-.7.33-.94.48-1.87 1.08-2.76 1.78-.26.21-.55.46-.84.72-1.13 1.03-2.22 2.26-3.35 3.761-.52.7-.971 1.36-1.381 2-.62.96-1.21 1.99-1.75 3.06-.52 1.02-1.02 2.12-1.48 3.25-.25.64-.5 1.3-.73 1.97-.43 1.281-.8 2.581-1.1 3.881-.28 1.23-.5 2.48-.65 3.71-.05.46-.1.96-.13 1.45-.06.92-.07 1.82-.04 2.681.03.79.1 1.6.21 2.39.04.21.08.48.13.74.21 1.02.51 1.98.89 2.85.04.08.11.23.18.38.31.61.67 1.17 1.08 1.7.03.03.12.14.21.25q.525.585 1.2 1.11zm37.513-37.273v.03z"/><path fill="#D3C4E8" d="M98.803 140.715 68.81 156.227c-.58.29-1.21-.26-.98-.86l11.83-31.053"/><path fill="#000" d="M68.47 158.686c-.74 0-1.47-.27-2.05-.79a3.05 3.05 0 0 1-.82-3.37l11.83-31.053a2.373 2.373 0 0 1 3.07-1.37 2.37 2.37 0 0 1 1.371 3.07l-10.27 26.943 26.101-13.491c1.16-.6 2.601-.15 3.201 1.02s.15 2.6-1.02 3.2L69.89 158.356c-.46.23-.95.35-1.43.35z"/><path fill="#000" d="m68.07 157.146 2.67-14.211 9.02 8.751z"/><path fill="#7846BD" d="M201.842 19.565 100.103 138.976l-19.302-15.922L182.54 3.644c1.39-1.63 3.48-1.24 5.481-.5 6.96 2.6 11.071 7.26 13.361 11.02 1.1 1.81 1.84 3.77.46 5.39"/><path fill="#000" d="m100.393 142.296-22.962-18.942L180.73 2.114c2.72-3.2 6.781-1.68 8.121-1.18 7.75 2.89 12.201 8.13 14.561 12.01 1.99 3.27 2.07 6.02.24 8.171L100.403 142.296zm-16.222-19.542 15.632 12.901 100.219-117.63c.16-.19.53-.62-.68-2.62-1.971-3.24-5.681-7.611-12.161-10.031-2.271-.85-2.671-.39-2.841-.19z"/><path fill="#FCF9EA" d="m184.84 4.194-8.83 10.67 18.511 13.212 8.521-11.061-11.471-12.241z"/><path fill="#9E7FCE" d="M174.779 13.183c15.602 4.66 19.742 14.891 19.742 14.891l-7.991 9.321s-7.34-11.111-20.871-13.961z"/><path fill="#000" d="m186.27 41.536-1.83-2.77c-.07-.1-6.99-10.301-19.291-12.891l-4.221-.89 13.041-14.662 1.53.46c16.562 4.95 21.152 15.882 21.342 16.352l.57 1.41-11.131 12.991zm-16.071-19.442c8.141 2.8 13.671 8.151 16.421 11.351l4.901-5.72c-1.54-2.55-5.941-8.271-15.952-11.671z"/><path fill="#000" d="m100.413 142.465-23.162-19.101L180.63 2.023c2.78-3.26 6.901-1.72 8.261-1.22 7.78 2.91 12.251 8.16 14.621 12.06 2.02 3.321 2.1 6.121.23 8.321zm-16.062-19.721 15.442 12.741 100.139-117.53c.13-.15.47-.56-.69-2.471-1.961-3.22-5.661-7.57-12.101-9.981-2.201-.82-2.561-.39-2.701-.22L84.351 122.754z"/><path fill="#000" d="M321.893 12.214c-.3-.95-.24-.5-.25-.63l-.03-.04h.02c2.6 1.85 6.63 4.77 9.231 6.69 3.8 2.941 8.55 5.981 11.331 9.972 2.82 3.52 1.97 8-3.191 7.75-5.26-.57-9.961-2.89-14.571-4.84-.88-.41-3.14-1.46-3.98-1.87-.8-.41-1.37-.58-1.881-.69.23-.01.71-.48.731-.7.08 1.67 1.16 3.8 2.12 5.68 1.12 2.29 2.71 4.27 3.57 6.73.72 1.821.11 4.441-2.2 5.021-1.98.5-3.681-.05-5.381-.53-2.49-.68-5.03-2.08-7.4-2.78.03 0 .22-.1.3-.23.08-.12.06-.16.04-.1-.05.13-.03.52.03.89.13.78.43 1.66.75 2.52.62 1.69-1.84 2.73-2.62 1.1-1.081-2.11-2.651-6.41.76-7.37 1.62-.29 2.52.23 3.77.61 2.69.85 5.93 2.24 8.551 1.98-.05-.06-.46.34-.47.55-.03.19-.02-.06-.14-.33-.27-.7-.71-1.38-1.17-2.08-2.001-3.14-3.811-5.86-4.981-9.621-.26-1.02-.47-2.22-.12-3.41 1.07-3.58 5.241-2.99 7.781-1.64.83.37 3.06 1.38 3.92 1.75 4.231 1.75 8.461 3.81 12.811 4.36.91.03.3-.12-.1.47-.24.33-.29.7-.28.81.03.22 0-.05-.14-.31-1.45-2.6-3.81-4.8-6.08-6.74-4.281-3.79-8.571-7.571-12.501-11.732l-.14-.15-.08-.09-.05-.05-.06-.07c-.02-.14.02.3-.28-.66-.12-1.54 2.18-1.78 2.35-.22"/></svg>