<svg xmlns="http://www.w3.org/2000/svg" width="480" height="480" fill="none" viewBox="0 0 480 480">
  <path
    fill="#000"
    d="m383.704 124.305-1.014-.279a7.33 7.33 0 0 0-.683-5.417 7.34 7.34 0 0 0-4.421-3.52L190.431 61.292a7.33 7.33 0 0 0-5.615.636 7.34 7.34 0 0 0-3.521 4.42l-.796 2.768-19.297-4.44a7.34 7.34 0 0 0-5.574.936 7.34 7.34 0 0 0-3.279 4.604l-22.753 98.883-69.799 84.084c-4.048 4.877-5.896 10.863-5.661 16.747a25 25 0 0 0-.028 4.928c.613 6.596 3.757 12.559 8.854 16.79l32.271 26.789-8.203 35.651c-.912 3.967 1.572 7.938 5.54 8.852l.822.189A7.43 7.43 0 0 0 94.529 368a7.44 7.44 0 0 0 4.702 3.271l134.535 29.394 25.05 6.902a14.5 14.5 0 0 0 3.287 2.852 14.6 14.6 0 0 0 2.749 2.523 14.4 14.4 0 0 0 8.3 2.631c.846 0 1.699-.073 2.55-.224l6.929-1.22 19.725 5.434a7.43 7.43 0 0 0 5.685-.708 7.44 7.44 0 0 0 3.519-4.519l1.535-5.573 60.193-10.603a14.43 14.43 0 0 0 9.375-5.97 14.43 14.43 0 0 0 2.407-10.85l-17.189-97.586a14.42 14.42 0 0 0-5.971-9.375 15 15 0 0 0-1.162-.733 14.46 14.46 0 0 0-9.186-4.501l37.37-135.636c1.096-3.978-1.25-8.107-5.228-9.204m-291.8 230.904 7.637-33.196 6.672 5.539-5.39 18.75c-1.124 3.914 1.144 8.012 5.057 9.136l94.746 27.235-106.934-24.606a2.387 2.387 0 0 1-1.789-2.858m65.318-283.872a2.37 2.37 0 0 1 1.059-1.487 2.36 2.36 0 0 1 1.799-.301l19.036 4.38-15.617 54.328-26.804 32.291zm30.015-5.035a2.37 2.37 0 0 1 1.814-.206l187.154 53.797c.612.176 1.119.58 1.427 1.138s.381 1.2.206 1.813L335.104 271.51l-84.965 14.966c-7.832 1.38-13.081 8.873-11.701 16.704l15.8 89.702-146.977-42.248a2.387 2.387 0 0 1-1.632-2.951l4.784-16.644 2.624 2.178c4.493 3.729 10.028 5.719 15.796 5.719q1.163 0 2.337-.108c6.595-.613 12.558-3.757 16.789-8.854l22.354-26.928c.199-.091.4-.175.594-.282l89.354-49.435c3.667-2.029 5.24-6.385 3.915-10.218a8.2 8.2 0 0 0-.986-3.123l-16.21-29.3 4.884-5.883c4.407-5.31 6.217-11.93 5.579-18.308.335-7.471-2.701-15.01-8.885-20.144l-50.075-41.567c-5.076-4.214-11.492-6.2-18.059-5.59a24.6 24.6 0 0 0-10.03 3.174L186.1 67.73c.176-.613.58-1.12 1.137-1.428m163.01 207.763c1.916 0 3.783.585 5.385 1.707a9.37 9.37 0 0 1 3.874 6.083l17.189 97.586a9.36 9.36 0 0 1-1.562 7.04 9.36 9.36 0 0 1-6.082 3.873l-97.586 17.19c-5.12.901-10.012-2.528-10.914-7.644l-17.189-97.587c-.901-5.116 2.528-10.011 7.644-10.913l97.586-17.189a9.6 9.6 0 0 1 1.655-.146m-91.153-29.192a3.22 3.22 0 0 1-1.546 1.94l-75 41.494 61.003-73.488 15.264 27.589c.419.758.518 1.633.279 2.465m-195.45 11.504 103.904-125.169a19.57 19.57 0 0 1 13.338-7.032q.932-.087 1.856-.087c4.581 0 8.979 1.582 12.548 4.545l50.075 41.567c8.357 6.937 9.512 19.383 2.574 27.741L144.035 323.11a19.57 19.57 0 0 1-13.337 7.033 19.58 19.58 0 0 1-14.404-4.458L66.22 284.118c-8.358-6.939-9.514-19.383-2.576-27.741"
  />
  <path
    fill="#FFB921"
    d="m200.626 382.673-94.746-27.235c-3.913-1.124-6.181-5.222-5.057-9.135l5.39-18.751-6.672-5.538-7.638 33.195a2.387 2.387 0 0 0 1.79 2.858z"
  />
  <path
    fill="#FFB921"
    d="m163.499 128.258 15.617-54.329-19.036-4.38a2.36 2.36 0 0 0-1.799.302 2.37 2.37 0 0 0-1.059 1.486l-20.527 89.211z"
  />
  <path
    fill="#FFD885"
    d="M170.394 122.37a24.6 24.6 0 0 1 10.03-3.174c6.566-.61 12.982 1.376 18.059 5.59l50.075 41.568c6.184 5.134 9.22 12.672 8.885 20.143.638 6.379-1.172 12.999-5.579 18.309l-4.884 5.883 16.21 29.299c.543.981.872 2.041.986 3.123 1.324 3.833-.248 8.188-3.915 10.217l-89.355 49.437c-.193.107-.394.19-.593.281l-22.354 26.929a24.64 24.64 0 0 1-16.789 8.853q-1.174.109-2.337.109c-5.768 0-11.303-1.991-15.796-5.72l-2.624-2.178-4.784 16.645a2.386 2.386 0 0 0 1.632 2.95l146.977 42.248-15.8-89.701c-1.38-7.831 3.869-15.325 11.701-16.704l84.965-14.967 42.734-148.666a2.37 2.37 0 0 0-.206-1.813 2.37 2.37 0 0 0-1.427-1.137L189.051 66.097a2.37 2.37 0 0 0-1.814.206 2.37 2.37 0 0 0-1.137 1.427zm-14.982 210.352c2.97-.371 5.557-.009 8.367.574a174 174 0 0 1 15.642 4.329c2.567.832 5.11 1.738 7.625 2.732a1.999 1.999 0 0 1-1.089 3.824c-5.278-.939-10.489-2.142-15.701-3.34-4.572-1.137-11.319-2.211-15.482-4.354-1.741-.841-1.258-3.55.638-3.765m65.812 37.394a1177 1177 0 0 1-18.075-4.677c-16.663-4.77-37.561-9.456-53.673-15.688-2.109-.857-1.28-4.088.996-3.792 12.379 1.759 24.261 5.694 36.249 9.093 11.943 3.517 23.829 7.23 35.615 11.248 2.336.853 1.341 4.354-1.112 3.816M357.51 137.46l-10.28 35.762a4.85 4.85 0 0 1-2.327 2.922 4.85 4.85 0 0 1-3.712.419l-99.21-28.517a4.85 4.85 0 0 1-2.922-2.326 4.85 4.85 0 0 1-.42-3.712l10.28-35.762a4.85 4.85 0 0 1 2.327-2.922 4.85 4.85 0 0 1 3.712-.42l99.209 28.518a4.84 4.84 0 0 1 2.922 2.326 4.85 4.85 0 0 1 .421 3.712"
  />
  <path
    fill="#FFD885"
    d="m352.672 136.194-98.981-28.452-10.214 35.532 98.981 28.452zm-90.888-15.188c13.753 1.557 27.04 5.487 40.383 8.984 13.291 3.646 26.508 7.571 39.575 11.959 2.361.842 1.362 4.384-1.126 3.813-13.27-3.41-47.03-12.071-59.878-15.231-6.651-1.678-13.29-3.456-19.795-5.698-2.175-.756-1.464-4.059.841-3.827m76.276 37.712c-14.474-2.784-28.607-6.826-42.798-10.728-4.718-1.33-9.453-2.684-14.12-4.136-2.363-.75-1.592-4.317.876-4.007 19.498 2.959 38.826 8.031 57.048 15.595 1.847.813.987 3.648-1.006 3.276"
  />
  <path
    fill="#000"
    d="M357.089 133.748a4.85 4.85 0 0 0-2.922-2.326l-99.209-28.518a4.85 4.85 0 0 0-3.712.42 4.85 4.85 0 0 0-2.327 2.922l-10.28 35.762a4.85 4.85 0 0 0 .42 3.712 4.84 4.84 0 0 0 2.922 2.326l99.21 28.518a4.85 4.85 0 0 0 3.712-.42 4.85 4.85 0 0 0 2.327-2.922l10.28-35.762a4.85 4.85 0 0 0-.421-3.712m-14.631 37.978-98.981-28.451 10.214-35.533 98.981 28.453z"
  />
  <path
    fill="#D69200"
    d="M251.006 291.4c-5.116.902-8.545 5.797-7.644 10.913l17.189 97.587c.902 5.117 5.793 8.545 10.914 7.644l97.586-17.19a9.36 9.36 0 0 0 6.082-3.873 9.36 9.36 0 0 0 1.562-7.04l-17.189-97.586a9.37 9.37 0 0 0-3.874-6.083 9.35 9.35 0 0 0-7.04-1.561zm75.028 45.169a5.107 5.107 0 0 1-4.138 5.908l-21.785 3.836a5 5 0 0 1-.887.079 5.11 5.11 0 0 1-5.021-4.216l-1.839-10.446a5.06 5.06 0 0 1 .845-3.81 5.07 5.07 0 0 1 3.293-2.097l21.784-3.838a5.107 5.107 0 0 1 5.908 4.138zm2.21 12.545 1.84 10.447a5.06 5.06 0 0 1-.846 3.81 5.07 5.07 0 0 1-3.292 2.097l-21.785 3.837a5.07 5.07 0 0 1-3.811-.845 5.07 5.07 0 0 1-2.097-3.292l-1.84-10.446a5.07 5.07 0 0 1 .846-3.811 5.07 5.07 0 0 1 3.293-2.097l21.784-3.837c2.766-.497 5.419 1.369 5.908 4.137m-33.795 16.646a5.06 5.06 0 0 1-.845 3.81 5.06 5.06 0 0 1-3.293 2.097l-21.784 3.838a5.11 5.11 0 0 1-5.908-4.138l-1.84-10.446a5.105 5.105 0 0 1 4.138-5.907l21.785-3.837a5.06 5.06 0 0 1 3.811.844 5.08 5.08 0 0 1 2.097 3.292zm-36.875-31.641a5.07 5.07 0 0 1 3.293-2.097l21.785-3.837c2.769-.496 5.419 1.369 5.908 4.137l1.84 10.447a5.06 5.06 0 0 1-.846 3.81 5.07 5.07 0 0 1-3.293 2.097l-21.784 3.837q-.45.079-.897.079a5.07 5.07 0 0 1-2.914-.924 5.07 5.07 0 0 1-2.097-3.293l-1.84-10.445a5.07 5.07 0 0 1 .845-3.811m4.397-6.934q-.68.119-1.349.118c-3.697 0-6.983-2.656-7.645-6.419l-2.742-15.565c-.743-4.216 2.084-8.252 6.3-8.995l88.543-15.595a7.72 7.72 0 0 1 5.803 1.287 7.72 7.72 0 0 1 3.192 5.013l2.741 15.564c.743 4.217-2.083 8.252-6.3 8.995zm32.657 67.739h-.002l-21.784 3.837a5.11 5.11 0 0 1-5.908-4.138l-1.84-10.445a5.105 5.105 0 0 1 4.138-5.908l21.785-3.837a5.107 5.107 0 0 1 5.908 4.136l1.839 10.447a5.107 5.107 0 0 1-4.136 5.908m38.925-8.297a5.07 5.07 0 0 1-3.293 2.097l-21.784 3.838a5.07 5.07 0 0 1-3.811-.846 5.06 5.06 0 0 1-2.097-3.293l-1.84-10.444a5.107 5.107 0 0 1 4.138-5.909l21.785-3.837a5.105 5.105 0 0 1 5.908 4.137l1.84 10.446a5.07 5.07 0 0 1-.846 3.811m26.004-65.606 9.608 54.544c.699 3.973-1.963 7.776-5.936 8.476l-17.42 3.067a7.26 7.26 0 0 1-5.466-1.212 7.27 7.27 0 0 1-3.008-4.723l-9.608-54.545c-.7-3.973 1.963-7.774 5.935-8.475l17.42-3.068a7.25 7.25 0 0 1 5.467 1.213 7.27 7.27 0 0 1 3.008 4.723"
  />
  <path
    fill="#FFD885"
    d="M349.646 306.664a2.77 2.77 0 0 0 2.244-3.204l-2.741-15.564a2.77 2.77 0 0 0-3.203-2.244l-88.543 15.596a2.77 2.77 0 0 0-2.244 3.204l2.742 15.565a2.77 2.77 0 0 0 3.204 2.244z"
  />
  <path
    fill="#000"
    d="M350.513 311.588c4.217-.743 7.044-4.778 6.301-8.995l-2.741-15.564a7.72 7.72 0 0 0-3.192-5.013 7.72 7.72 0 0 0-5.803-1.287l-88.543 15.595c-4.216.743-7.043 4.779-6.3 8.995l2.742 15.565c.662 3.763 3.948 6.419 7.645 6.419q.668.001 1.349-.118zm-92.612 8.429-2.742-15.565a2.77 2.77 0 0 1 2.244-3.204l88.543-15.596q.242-.042.481-.042c1.316 0 2.486.947 2.722 2.287l2.741 15.563a2.77 2.77 0 0 1-2.244 3.204l-88.541 15.597a2.77 2.77 0 0 1-3.204-2.244"
  />
  <path
    fill="#FFB921"
    d="m319.171 326.908-.017.001-21.785 3.838c-.046.009-.089.069-.082.116l1.84 10.446c.01.053.063.092.117.081l21.785-3.837c.046-.009.089-.07.081-.116l-1.84-10.446a.1.1 0 0 0-.099-.083"
  />
  <path
    fill="#000"
    d="m318.286 321.985-21.784 3.838a5.07 5.07 0 0 0-3.293 2.097 5.06 5.06 0 0 0-.845 3.811l1.839 10.445a5.11 5.11 0 0 0 5.908 4.138l21.785-3.837a5.107 5.107 0 0 0 4.138-5.908l-1.84-10.446a5.11 5.11 0 0 0-5.908-4.138m2.824 15.452c.008.046-.035.107-.081.116l-21.785 3.837a.1.1 0 0 1-.117-.081l-1.84-10.446c-.007-.047.036-.107.082-.116l21.785-3.838.017-.001a.1.1 0 0 1 .099.083z"
  />
  <path
    fill="#FFB921"
    d="M323.32 349.982a.1.1 0 0 0-.1-.083l-.017.001-21.784 3.838c-.047.009-.09.07-.082.116l1.84 10.446c.009.046.067.099.115.081l21.786-3.837a.1.1 0 0 0 .082-.116z"
  />
  <path
    fill="#000"
    d="m322.336 344.976-21.785 3.838a5.07 5.07 0 0 0-3.292 2.097 5.07 5.07 0 0 0-.846 3.811l1.84 10.446a5.07 5.07 0 0 0 2.097 3.292 5.07 5.07 0 0 0 3.811.845l21.785-3.837a5.07 5.07 0 0 0 3.292-2.097 5.07 5.07 0 0 0 .846-3.811l-1.84-10.446c-.489-2.768-3.142-4.634-5.908-4.138m2.824 15.452a.1.1 0 0 1-.082.116l-21.786 3.837c-.048.018-.106-.035-.115-.081l-1.84-10.446c-.008-.047.035-.107.082-.116l21.784-3.838.017-.001a.1.1 0 0 1 .1.083z"
  />
  <path
    fill="#FFB921"
    d="m327.536 373.156-.018.001-21.784 3.837a.1.1 0 0 0-.081.117l1.839 10.445c.008.047.067.075.117.082l21.784-3.838c.047-.009.09-.07.082-.116l-1.84-10.446a.1.1 0 0 0-.099-.082"
  />
  <path
    fill="#000"
    d="M332.559 372.37a5.105 5.105 0 0 0-5.908-4.137l-21.785 3.837a5.107 5.107 0 0 0-4.138 5.909l1.84 10.444a5.06 5.06 0 0 0 2.097 3.293 5.07 5.07 0 0 0 3.811.846l21.785-3.838a5.07 5.07 0 0 0 3.292-2.097 5.07 5.07 0 0 0 .846-3.811zm-3.166 11.43-21.784 3.838c-.05-.007-.109-.035-.117-.082l-1.839-10.445a.1.1 0 0 1 .081-.117l21.784-3.837.018-.001a.1.1 0 0 1 .099.082l1.84 10.446c.008.047-.035.107-.082.116"
  />
  <path
    fill="#FFB921"
    d="m263.608 347.589 21.786-3.837c.047-.009.09-.069.082-.116l-1.84-10.446a.1.1 0 0 0-.1-.083l-.017.001-21.784 3.838c-.047.009-.09.07-.082.116l1.84 10.446c.009.046.07.094.115.081"
  />
  <path
    fill="#000"
    d="M260.666 351.668a5.07 5.07 0 0 0 3.811.845l21.784-3.837a5.07 5.07 0 0 0 3.293-2.097 5.06 5.06 0 0 0 .846-3.81l-1.84-10.447c-.489-2.768-3.139-4.632-5.908-4.137l-21.785 3.838a5.07 5.07 0 0 0-3.293 2.096 5.07 5.07 0 0 0-.845 3.811l1.84 10.445a5.07 5.07 0 0 0 2.097 3.293m1.069-14.722 21.784-3.837.017-.001a.1.1 0 0 1 .1.083l1.84 10.445c.008.047-.035.107-.082.116l-21.786 3.837c-.045.013-.106-.035-.115-.081l-1.84-10.445c-.008-.047.035-.108.082-.117"
  />
  <path
    fill="#FFB921"
    d="m287.582 356.1-.011.001-21.787 3.837c-.046.008-.089.069-.081.116l1.84 10.445a.1.1 0 0 0 .116.082l21.785-3.838c.046-.009.089-.069.082-.116l-1.84-10.445c-.008-.042-.059-.082-.104-.082"
  />
  <path
    fill="#000"
    d="M290.513 352.021a5.07 5.07 0 0 0-3.811-.845l-21.785 3.837a5.106 5.106 0 0 0-4.138 5.908l1.84 10.446a5.11 5.11 0 0 0 5.908 4.138l21.784-3.838a5.07 5.07 0 0 0 3.293-2.097 5.06 5.06 0 0 0 .845-3.81l-1.839-10.447a5.07 5.07 0 0 0-2.097-3.292m-1.069 14.722-21.785 3.838a.1.1 0 0 1-.116-.082l-1.84-10.446c-.008-.046.035-.107.081-.116l21.787-3.837.011-.001c.045 0 .096.04.104.082l1.84 10.446c.007.047-.036.107-.082.116"
  />
  <path
    fill="#FFB921"
    d="M292.001 379.438a.1.1 0 0 0-.099-.083l-.018.001-21.785 3.837a.103.103 0 0 0-.081.118l1.84 10.445c.01.054.065.094.116.081L293.758 390a.1.1 0 0 0 .082-.117z"
  />
  <path
    fill="#000"
    d="m298.764 389.016-1.839-10.447a5.107 5.107 0 0 0-5.908-4.136l-21.785 3.837a5.105 5.105 0 0 0-4.138 5.908l1.84 10.445a5.11 5.11 0 0 0 5.908 4.138l21.784-3.837h.002a5.107 5.107 0 0 0 4.136-5.908m-4.924.867a.1.1 0 0 1-.082.117l-21.784 3.837c-.051.013-.106-.027-.116-.081l-1.84-10.445a.103.103 0 0 1 .081-.118l21.785-3.836.018-.001c.047 0 .09.034.099.082z"
  />
  <path
    fill="#FFB921"
    d="M354.633 321.889a2.3 2.3 0 0 0-.953-1.496 2.3 2.3 0 0 0-1.73-.384l-17.42 3.068a2.32 2.32 0 0 0-1.879 2.684l9.608 54.545a2.32 2.32 0 0 0 2.683 1.879l17.419-3.068a2.32 2.32 0 0 0 1.88-2.684z"
  />
  <path
    fill="#000"
    d="M356.549 316.298a7.25 7.25 0 0 0-5.467-1.213l-17.42 3.068c-3.972.701-6.635 4.502-5.935 8.475l9.608 54.545a7.27 7.27 0 0 0 3.008 4.723 7.26 7.26 0 0 0 5.466 1.213l17.419-3.068c3.973-.7 6.636-4.503 5.937-8.475l-9.608-54.544a7.27 7.27 0 0 0-3.008-4.724m5.812 62.819-17.419 3.068a2.32 2.32 0 0 1-2.683-1.879l-9.608-54.545a2.32 2.32 0 0 1 1.879-2.684l17.42-3.068a2.3 2.3 0 0 1 1.73.384 2.3 2.3 0 0 1 .953 1.496l9.608 54.544a2.32 2.32 0 0 1-1.88 2.684"
  />
  <path
    fill="#000"
    d="M339.066 155.443c-18.222-7.565-37.55-12.637-57.048-15.596-2.468-.31-3.239 3.258-.876 4.007 4.667 1.452 9.402 2.806 14.12 4.136 14.191 3.902 28.324 7.945 42.798 10.729 1.993.371 2.853-2.464 1.006-3.276"
  />
  <path
    fill="#000"
    d="M340.616 145.762c2.488.571 3.487-2.971 1.126-3.812-13.067-4.389-26.284-8.314-39.575-11.96-13.343-3.497-26.63-7.427-40.383-8.984-2.305-.232-3.016 3.071-.841 3.827 6.505 2.242 13.144 4.02 19.795 5.698 12.848 3.16 46.608 11.821 59.878 15.231"
  />
  <path
    fill="#000"
    d="M222.336 366.3c-11.786-4.018-23.672-7.731-35.615-11.248-11.987-3.399-23.87-7.335-36.249-9.093-2.276-.297-3.105 2.935-.996 3.792 16.112 6.232 37.01 10.918 53.673 15.688a1177 1177 0 0 0 18.075 4.677c2.453.538 3.448-2.963 1.112-3.816"
  />
  <path
    fill="#000"
    d="M154.774 336.487c4.163 2.142 10.91 3.217 15.482 4.354 5.212 1.197 10.423 2.4 15.702 3.34a1.997 1.997 0 0 0 1.088-3.824 129 129 0 0 0-7.625-2.733 174 174 0 0 0-15.642-4.328c-2.81-.583-5.396-.945-8.367-.575-1.896.215-2.379 2.924-.638 3.766"
  />
  <path
    fill="#7A42C8"
    d="m258.815 242.408-15.264-27.589-61.003 73.488 75-41.493a3.23 3.23 0 0 0 1.546-1.941 3.22 3.22 0 0 0-.279-2.465m-26.899-6.095 6.803-3.763a5.28 5.28 0 0 1 7.165 2.06l2.206 3.988a5.24 5.24 0 0 1 .45 4.008 5.24 5.24 0 0 1-2.511 3.156l-6.803 3.764a5.24 5.24 0 0 1-4.008.45 5.24 5.24 0 0 1-3.156-2.51l-2.206-3.988a5.28 5.28 0 0 1 2.06-7.165"
  />
  <path
    fill="#D5C3EE"
    d="M243.735 241.224a.27.27 0 0 0-.02-.206l-2.206-3.988a.28.28 0 0 0-.37-.105l-6.802 3.763a.28.28 0 0 0-.106.37l2.206 3.987a.27.27 0 0 0 .163.126.27.27 0 0 0 .205-.021l6.803-3.763a.27.27 0 0 0 .127-.163"
  />
  <path
    fill="#000"
    d="m229.856 243.477 2.206 3.989a5.24 5.24 0 0 0 3.156 2.51 5.23 5.23 0 0 0 4.008-.451l6.803-3.763a5.24 5.24 0 0 0 2.511-3.157 5.24 5.24 0 0 0-.45-4.007l-2.206-3.989a5.28 5.28 0 0 0-7.165-2.059l-6.803 3.762a5.28 5.28 0 0 0-2.06 7.165m13.753-2.09-6.804 3.763a.27.27 0 0 1-.205.021.27.27 0 0 1-.163-.126l-2.206-3.987a.28.28 0 0 1 .106-.371l6.802-3.762a.28.28 0 0 1 .37.105l2.206 3.988a.27.27 0 0 1 .02.206.27.27 0 0 1-.126.163"
  />
  <path
    fill="#FFB921"
    d="m66.22 284.118 50.074 41.568a19.6 19.6 0 0 0 14.404 4.458 19.57 19.57 0 0 0 13.337-7.034l103.904-125.168c6.938-8.358 5.783-20.803-2.575-27.741l-50.074-41.567c-3.57-2.963-7.968-4.545-12.549-4.545q-.923 0-1.855.087a19.57 19.57 0 0 0-13.338 7.032L63.644 256.377c-6.938 8.358-5.782 20.803 2.575 27.741m103.74-148.356c6.207-7.479 17.341-8.512 24.819-2.304l45.937 38.133a17.5 17.5 0 0 1 6.292 11.932 17.5 17.5 0 0 1-3.988 12.887L141.624 318.557c-3.481 4.193-8.511 6.36-13.577 6.36a17.54 17.54 0 0 1-11.242-4.056l-45.937-38.132c-7.478-6.208-8.51-17.342-2.304-24.82z"
  />
  <path
    fill="#FFFBE8"
    d="M242.03 183.985a12.54 12.54 0 0 0-4.508-8.546l-45.936-38.133c-5.356-4.446-13.332-3.707-17.779 1.649L72.411 261.103c-4.446 5.356-3.706 13.332 1.65 17.778l45.937 38.133c5.356 4.448 13.332 3.706 17.779-1.651l101.395-122.146a12.55 12.55 0 0 0 2.858-9.232m-56.76 40.796-13.872 16.711c-1.207 1.454-1.037 2.919.082 3.848s2.59.826 3.798-.628l13.871-16.711 9.101 7.555-13.469 16.226c-5.078 6.117-14.281 6.73-20.287 1.745l-12.756-10.589c-6.005-4.985-7.097-14.144-2.019-20.262l13.469-16.225 9.101 7.555-13.871 16.71c-1.208 1.455-1.037 2.92.082 3.849 1.119.928 2.59.826 3.797-.628l13.872-16.711zm-59.434-21.679 13.592-16.374 9.101 7.555-13.747 16.561c-1.208 1.454-1.037 2.919.082 3.848s2.589.827 3.797-.628l13.748-16.561 9.101 7.555-13.593 16.374c-5.326 6.416-13.771 7.406-20.299 1.988-6.527-5.419-7.108-13.902-1.782-20.318m89.71-34.36-.674.813a2.5 2.5 0 0 1-3.521.327l-11.09-9.206a2.5 2.5 0 0 1-.327-3.521l.675-.812a2.5 2.5 0 0 1 3.52-.327l11.09 9.206a2.5 2.5 0 0 1 .327 3.52"
  />
  <path
    fill="#000"
    d="M68.564 257.909c-6.207 7.478-5.174 18.612 2.304 24.82l45.937 38.132a17.54 17.54 0 0 0 11.242 4.056c5.066 0 10.096-2.167 13.577-6.36L243.02 196.41a17.5 17.5 0 0 0 3.988-12.887 17.5 17.5 0 0 0-6.292-11.932l-45.937-38.133c-7.477-6.208-18.612-5.175-24.819 2.304zm170.608-64.692L137.777 315.363c-4.447 5.357-12.423 6.099-17.779 1.651l-45.937-38.133c-5.356-4.446-6.096-12.422-1.65-17.778l101.396-122.148c4.447-5.356 12.423-6.095 17.779-1.649l45.936 38.133a12.54 12.54 0 0 1 4.508 8.546 12.55 12.55 0 0 1-2.858 9.232"
  />
  <path
    fill="#000"
    d="M204.129 156.015a2.5 2.5 0 0 0-3.52.327l-.675.813a2.5 2.5 0 0 0 .327 3.52l11.09 9.207a2.5 2.5 0 0 0 3.521-.328l.674-.812a2.5 2.5 0 0 0-.327-3.521z"
  />
  <path
    fill="#7A42C8"
    d="m176.169 217.226-13.872 16.711c-1.207 1.454-2.678 1.556-3.797.628-1.119-.929-1.29-2.394-.082-3.848l13.872-16.711-9.102-7.555-13.469 16.226c-5.078 6.117-3.986 15.276 2.019 20.261l12.756 10.59c6.006 4.984 15.209 4.371 20.287-1.746l13.469-16.226-9.101-7.555-13.871 16.711c-1.208 1.455-2.679 1.557-3.798.628s-1.289-2.393-.082-3.848l13.872-16.711z"
  />
  <path
    fill="#7A42C8"
    d="M127.618 223.42c6.528 5.418 14.973 4.428 20.299-1.988l13.593-16.374-9.101-7.555-13.748 16.561c-1.208 1.455-2.678 1.557-3.797.628s-1.29-2.394-.082-3.848l13.747-16.562-9.101-7.554-13.592 16.374c-5.326 6.416-4.745 14.899 1.782 20.318"
  />
</svg>
