<svg xmlns="http://www.w3.org/2000/svg" width="387" height="347" fill="none" viewBox="0 0 387 347"><path fill="#EE6DBB" d="M183.003 99.154s30.62-69.98 87.05-57.23c72.17 16.3 65.531 107.22 26.211 168.63-23.86 37.27-63.601 63.92-68.471 64.72 0 0-75.91-10.73-120.35-43.33-39.8-29.2-83.31-90.07-43.33-137.67 55.1-65.59 125.35 10.69 125.35 10.69"/><path fill="#4C4C4C" d="m227.823 277.804-.38-.05c-.19-.03-19.42-2.78-43.83-9.5-22.59-6.22-54.39-17.22-77.66-34.28-24.8-18.19-55.31-52.35-59.68-88.75-2.34-19.5 3.01-37.18 15.92-52.55 14.95-17.8 32.42-27.05 51.92-27.49 29.02-.65 55.08 18.11 68.23 29.56 3-5.95 10.09-18.68 21.19-30.68 8.77-9.48 18.23-16.5 28.1-20.86 12.45-5.5 25.56-6.75 38.97-3.72 24.15 5.45 41.591 19.73 50.45 41.3 14.32 34.87 5.2 87.56-22.68 131.12-23.8 37.18-63.9 64.81-70.17 65.84zm-112.24-207.64c-.46 0-.91 0-1.37.02-17.99.42-34.21 9.07-48.19 25.71-11.98 14.26-16.96 30.66-14.78 48.73 4.18 34.81 33.68 67.72 57.67 85.31 41.61 30.52 112.3 41.82 118.75 42.8 5.82-1.88 43.52-27.66 66.48-63.53 27.05-42.24 36.001-93.09 22.271-126.52-8.321-20.27-24.111-33.17-46.921-38.32-22.43-5.06-43.37 2.67-62.21 23-11.48 12.38-18.66 25.92-21.08 30.86 3 2.81 4.79 4.72 5.09 5.05l-3.68 3.39c-.34-.37-34.11-36.51-72.04-36.51z"/><path fill="#4C4C4C" d="M198.624 346.225c59.486 0 107.71-5.055 107.71-11.29 0-6.236-48.224-11.29-107.71-11.29-59.487 0-107.71 5.054-107.71 11.29s48.223 11.29 107.71 11.29"/><path fill="#4C4C4C" d="M71.663 124.324c-.55 16.57 5.4 32.75 13.52 46.98 2.38 3.99 5.17 8.1 7.8 11.92.76 1.15.44 2.7-.71 3.46-1.09.72-2.55.46-3.34-.55-1.72-2.2-3.45-4.4-5.1-6.67-4.81-6.91-8.87-14.42-11.9-22.27-3.36-9.29-5.61-19.17-5.3-29.12.24-2.25-.4-6.7 3.05-6.39 1.28.19 2.14 1.38 1.99 2.64z"/><path fill="#4C4C4C" d="M101.213 194.915c6.59 6.85 13.71 13.27 20.96 19.43 0 0 3.12 2.63 3.13 2.64 2.33 2-.33 5.64-2.94 4.05-9.48-6.23-18.02-14-24.8-23.13-1.65-2.38 1.65-5.07 3.65-2.98z"/><path fill="#4C4C4C" d="M314.294 24.724c3.78-8.09 7.44-16.21 12.45-23.66 1.62-2.29 5.25-.56 4.53 2.12-2.51 8.61-6.41 16.63-10.21 24.7-2.27 4.28-8.6 1.31-6.77-3.17z"/><path fill="#4C4C4C" d="M360.194 77.765c6.45-.61 12.81.54 19.05 2.03 2.07.53 4.13 1.12 6.15 1.93 1.31.53 1.95 2.02 1.42 3.34-.38.94-1.25 1.53-2.2 1.6-6.43.31-12.82-.47-19.07-1.92-2.07-.53-4.13-1.13-6.14-2.05a2.604 2.604 0 0 1-1.29-3.44 2.58 2.58 0 0 1 2.06-1.5z"/><path fill="#4C4C4C" d="M341.934 50.645c1.99-2.57 4.39-4.51 6.9-6.27 5.08-3.44 10.21-6.8 15.48-9.94 2.63-1.58 5.3-3.1 8.03-4.53 1.23-.64 2.75-.16 3.39 1.07.57 1.09.26 2.41-.68 3.14-4.85 3.78-9.93 7.22-15.09 10.55-5.3 3.24-10.16 7.04-16.36 8.58-1.46.38-2.61-1.42-1.67-2.59z"/><path fill="#4C4C4C" d="M58.424 240.864c-1.82 5.51-5.77 9.79-9.39 14.15-2.21 2.49-4.65 5.16-7.17 7.35-1.57 1.41-4.04-.44-3.15-2.33 1.82-4.06 4.34-8.15 6.76-11.87 2.56-3.81 5.08-7.57 8.93-10.27 2.01-1.46 4.82.65 4.02 2.97"/><path fill="#4C4C4C" d="M25.004 182.634c-8.28-1.81-16.28-4.89-23.59-9.2a2.56 2.56 0 0 1-.8-3.54c.53-.85 1.49-1.27 2.42-1.19 2.16.21 4.25.6 6.32 1.06 4.13.92 8.18 2.13 12.14 3.6 1.98.73 3.93 1.53 5.83 2.5 1.78.91 2.47 3.09 1.56 4.87a3.63 3.63 0 0 1-3.87 1.9z"/><path fill="#4C4C4C" d="M37.574 211.194c-3.65 3.32-7.83 5.23-12.21 7.11-7.14 3.12-14.37 6.03-21.85 8.27-2.88.8-4.51-3.16-1.92-4.62 5.49-2.99 11.18-5.51 16.95-7.9 5.88-2.32 11.5-5.03 18-5.36 1.31-.11 2.03 1.66 1.04 2.5z"/></svg>