<svg xmlns="http://www.w3.org/2000/svg" width="326" height="228" fill="none" viewBox="0 0 326 228"><path fill="#000" d="M259.712 35.812H70.936C35.956 35.812 7.6 64.17 7.6 99.15v63.282c0 34.98 28.356 63.336 63.336 63.336h188.776c34.98 0 63.336-28.356 63.336-63.336V99.148c0-34.979-28.356-63.336-63.336-63.336"/><path fill="#000" d="M259.721 228H70.936c-36.151 0-65.569-29.409-65.569-65.569V99.14c0-36.151 29.409-65.57 65.57-65.57H259.72c36.151 0 65.569 29.41 65.569 65.57v63.291c0 36.151-29.409 65.569-65.569 65.569M70.936 38.045c-33.695 0-61.103 27.408-61.103 61.104v63.291c0 33.687 27.408 61.104 61.103 61.104h188.785c33.686 0 61.103-27.409 61.103-61.104V99.149c0-33.687-27.408-61.104-61.103-61.104z"/><path fill="#000" d="M253.461 31.508H64.685c-34.98 0-63.336 28.356-63.336 63.336v63.282c0 34.98 28.356 63.337 63.336 63.337H253.46c34.979 0 63.336-28.357 63.336-63.337V94.844c0-34.98-28.357-63.336-63.336-63.336"/><path fill="#000" d="M253.461 222.811H64.676C29.016 222.811 0 193.796 0 158.135V94.844c0-35.66 29.016-64.676 64.676-64.676H253.46c35.66 0 64.675 29.016 64.675 64.676v63.291c0 35.661-29.015 64.676-64.675 64.676M64.676 32.847c-34.187 0-61.997 27.81-61.997 61.997v63.291c0 34.187 27.81 61.997 61.997 61.997H253.46c34.186 0 61.996-27.81 61.996-61.997V94.844c0-34.186-27.81-61.997-61.996-61.997z"/><path fill="#7A42C8" d="M202.368 143.945c1.992 11.279 13.075 18.62 24.149 16.664l23.532-4.153c11.074-1.955 18.978-12.636 16.995-23.925l-5.278-29.926-16.789 2.956 5.438 30.819c.474 2.679-.786 4.394-2.849 4.76s-3.831-.812-4.304-3.501l-5.439-30.819-16.79 2.956 5.439 30.82c.474 2.679-.786 4.393-2.849 4.76-2.063.366-3.831-.813-4.304-3.501l-5.439-30.82-16.79 2.956 5.278 29.927zm-19.781 24.979c12.039-2.126 18.826-12.325 16.736-24.158L194 114.563l-16.789 2.956 5.385 30.543c.473 2.679-.786 4.393-2.849 4.76-2.063.366-3.831-.813-4.304-3.501l-5.386-30.543-16.789 2.956 5.322 30.203c2.09 11.834 11.95 19.103 23.988 16.978"/><path fill="#6DB5C3" d="m124.725 86.547-5.26-29.882c-3.197-18.156 8.922-35.472 27.078-38.67l86.475-15.244c18.156-3.197 35.473 8.922 38.67 27.078l4.51 25.622"/><path fill="#000" d="M124.725 88.78a2.23 2.23 0 0 1-2.197-1.849l-5.26-29.882c-3.411-19.335 9.547-37.848 28.891-41.26L232.634.546c19.344-3.411 37.848 9.547 41.26 28.89l4.51 25.623a2.237 2.237 0 0 1-1.813 2.59 2.23 2.23 0 0 1-2.59-1.813l-4.51-25.622c-2.983-16.915-19.165-28.248-36.08-25.265l-86.475 15.244c-16.915 2.983-28.248 19.175-25.265 36.08l5.26 29.882a2.236 2.236 0 0 1-2.206 2.626"/><path fill="#FFFBE8" d="m262.32 66.293-5.752-31.749c-1.911-10.833-12.243-18.067-23.076-16.155l-82.564 14.556c-10.833 1.912-18.067 12.244-16.156 23.077l5.895 32.544"/><path fill="#000" d="m138.47 88.959-5.895-32.544c-2.125-12.038 5.939-23.55 17.969-25.666l82.564-14.557c12.029-2.126 23.541 5.939 25.657 17.968l5.752 31.74-4.394.794-5.751-31.748c-1.697-9.618-10.887-16.048-20.487-14.36l-82.564 14.557c-9.601 1.696-16.04 10.886-14.343 20.486l5.894 32.535-4.393.795z"/><path fill="#000" d="m203.85 34.018-19.191 3.384a4.162 4.162 0 0 0 1.446 8.197l19.19-3.384a4.162 4.162 0 1 0-1.445-8.197"/><path fill="#000" d="M185.364 46.6a5.1 5.1 0 0 1-2.92-.928 5.1 5.1 0 0 1-2.099-3.296 5.04 5.04 0 0 1 .849-3.813 5.1 5.1 0 0 1 3.295-2.099l19.192-3.384a5.11 5.11 0 0 1 5.912 4.143 5.04 5.04 0 0 1-.848 3.814 5.1 5.1 0 0 1-3.296 2.098l-19.192 3.385c-.303.054-.598.08-.902.08zm19.21-11.708a4 4 0 0 0-.562.045l-19.192 3.385a3.18 3.18 0 0 0-2.072 1.322 3.23 3.23 0 0 0-.536 2.402c.143.848.616 1.58 1.322 2.072a3.23 3.23 0 0 0 2.402.536l19.192-3.385a3.18 3.18 0 0 0 2.072-1.322 3.23 3.23 0 0 0 .536-2.402 3.23 3.23 0 0 0-3.171-2.662z"/><path fill="#3F8C9B" d="M314.564 94.236c0-19.54-9.234-36.963-23.559-48.154a62 62 0 0 0-10.172-4.885l25.774 146.436a60.75 60.75 0 0 0 7.966-30.105V94.236z"/><path fill="#3F8C9B" d="M68.695 218.623c16.959-10.324 28.81-20.693 37.767-29.356 3.635-4.117 21.871-24.371 29.623-24.961L116.974 55.728c-1.376-7.815.759-15.674 4.367-22.595H64.667c-22.095 0-41.492 11.789-52.218 29.409 11.217 10.341 28.632 13.717 65.266 6.894.178-.036.357-.036.535-.027.947-.089 1.724.125 2.108.232 2.33.67 3.376 3.68 4.492 9.011 1.68 8.02 7.118 37.849 8.449 47.092 3.652 25.407 5.563 44.26-3.189 55.557-4.403 5.689-11.574 8.056-11.877 8.154-.76.25-1.519.429-2.269.572-16.155 6.671-32.213 9.305-47.922 8.743-.018 0-.035.018-.062.026a73 73 0 0 1-3.153 3.055 62 62 0 0 0 8.565 8.127 60.7 60.7 0 0 0 31.275 8.636h4.019z"/><path fill="#F295FF" d="M15.138 193.224c16.86 2.652 34.293 1.732 52.092-3.992a17.2 17.2 0 0 1-3.054-1.59c-13.37-8.654-22.818-37.803-28.096-86.609l-.045-.402c-.321-3 2.054-6.225 3.912-7.234L67.534 75.68c-8.44 1.241-15.897 1.893-22.497 1.893-15.378 0-26.247-3.492-34.793-11.03A60.7 60.7 0 0 0 3.58 94.238v63.291c0 13.316 4.296 25.64 11.557 35.696"/><path fill="#F295FF" d="M145.123 218.623c-.08-1.233-.161-2.465-.232-3.68-.018-.348-.045-.687-.063-1.027l-2.643-15.039a39 39 0 0 1-4.448 3.894 2.25 2.25 0 0 1-1.33.446 2.26 2.26 0 0 1-1.795-.893 2.23 2.23 0 0 1 .455-3.126c5.198-3.875 8.627-8.903 10.217-11.556a4.3 4.3 0 0 0 .571-2.929c-1.33-7.957-4.956-15.959-9.323-15.959h-.081c-2.929.062-13.422 8.6-26.05 22.827l.08.026c-8.154 7.958-18.719 17.424-33.392 27.025h68.034z"/><path fill="#F295FF" d="m28.007 198.779-.027.026c.017 0 .035-.017.062-.026z"/><path fill="#DB00F8" d="M78.804 73.857h-.107a.3.3 0 0 0-.143.035l-36.285 23.31c-.072.044-.143.089-.215.125-.544.294-1.687 1.929-1.59 2.822l.045.402c2.885 26.684 10.11 72.999 26.087 83.349 3.224 2.09 6.582 2.519 10.27 1.322.063-.018 6.18-2.063 9.725-6.644 7.663-9.887 5.68-28.668 2.305-52.191-1.322-9.19-6.725-38.84-8.395-46.815-.804-3.83-1.367-5.215-1.68-5.706zM57.21 132.906c-1.224-6.912-2.09-12.851-2.51-17.164-.545-5.6-.687-9.306 2.215-9.815s4.028 2.983 5.42 8.359c1.073 4.153 2.278 9.993 3.502 16.888 1.384 7.841 2.143 12.654 2.536 16.111.464 4.072.947 8.287-2.17 8.841a2.6 2.6 0 0 1-.518.045c-2.51 0-3.76-3.457-4.912-7.315-1.188-3.983-2.411-9.502-3.554-15.959zm26.506 7.448c.464 4.073.947 8.288-2.17 8.842a4 4 0 0 1-.742.08c-1.866 0-4.518-2.206-8.243-23.309-1.223-6.912-2.09-12.851-2.509-17.165-.545-5.599-.688-9.305 2.215-9.814 2.884-.51 4.028 2.974 5.412 8.359 1.071 4.152 2.277 9.984 3.5 16.888 1.385 7.841 2.144 12.654 2.537 16.11z"/><path fill="#000" d="M65.667 156.171c.17 0 .34-.018.518-.045 3.126-.554 2.643-4.769 2.17-8.841-.393-3.457-1.152-8.279-2.536-16.111-1.215-6.895-2.43-12.735-3.501-16.888-1.393-5.385-2.518-8.868-5.42-8.359s-2.76 4.215-2.216 9.815c.42 4.313 1.286 10.252 2.51 17.164 1.134 6.457 2.366 11.976 3.554 15.959 1.152 3.858 2.394 7.314 4.912 7.314z"/><path fill="#000" d="M72.267 98.997c-2.903.509-2.76 4.215-2.215 9.814.42 4.314 1.286 10.253 2.51 17.165 3.724 21.103 6.367 23.309 8.243 23.309.258 0 .509-.045.74-.08 3.126-.554 2.644-4.769 2.17-8.842-.392-3.456-1.151-8.278-2.535-16.111-1.215-6.894-2.43-12.735-3.501-16.887-1.393-5.386-2.528-8.868-5.412-8.36z"/><path fill="#FFFBE8" d="M166.449 218.623h87.012a60.7 60.7 0 0 0 32.436-9.36l-31.534-174.05c-.822-4.66-3.403-8.715-7.279-11.421a17.58 17.58 0 0 0-13.217-2.93L151.303 35.42a17.56 17.56 0 0 0-11.413 7.27 17.6 17.6 0 0 0-2.93 13.217l5.895 32.535 23.585 130.182zm16.138-50.307c-12.039 2.126-21.907-5.144-23.988-16.977l-5.322-30.203 16.789-2.956 5.385 30.542c.474 2.68 2.242 3.858 4.305 3.501 2.063-.366 3.322-2.072 2.849-4.76l-5.385-30.543 16.789-2.956 5.323 30.204c2.09 11.833-4.698 22.041-16.736 24.157zm84.457-36.383c1.992 11.279-5.912 21.969-16.995 23.925l-23.532 4.153c-11.074 1.956-22.157-5.385-24.149-16.665l-5.278-29.926 16.79-2.956 5.439 30.819c.473 2.679 2.241 3.858 4.304 3.501 2.063-.366 3.323-2.072 2.849-4.76l-5.439-30.82 16.79-2.956 5.439 30.82c.473 2.679 2.241 3.858 4.304 3.501 2.063-.366 3.323-2.072 2.849-4.76l-5.439-30.82 16.79-2.956 5.278 29.927zm-59.549-97.72a5.1 5.1 0 0 1 2.098 3.296 5.04 5.04 0 0 1-.848 3.813 5.1 5.1 0 0 1-3.296 2.1l-19.192 3.384c-.294.053-.598.08-.884.08a5.115 5.115 0 0 1-5.028-4.215 5.04 5.04 0 0 1 .849-3.813 5.1 5.1 0 0 1 3.295-2.1l19.192-3.384a5.04 5.04 0 0 1 3.814.849z"/><path fill="#7A42C8" d="m194 113.956-16.789 2.956 5.385 30.543c.473 2.679-.786 4.393-2.849 4.76-2.063.366-3.831-.813-4.304-3.501l-5.386-30.543-16.789 2.956 5.322 30.203c2.09 11.834 11.95 19.103 23.988 16.978s18.826-12.325 16.736-24.158l-5.323-30.203z"/><path fill="#7A42C8" d="M250.415 135.782c.474 2.679-.786 4.394-2.849 4.76s-3.831-.813-4.304-3.501l-5.439-30.819-16.789 2.956 5.438 30.819c.474 2.679-.786 4.394-2.849 4.76s-3.831-.812-4.304-3.5l-5.439-30.82-16.79 2.956 5.278 29.926c1.992 11.28 13.075 18.621 24.149 16.665l23.532-4.153c11.074-1.956 18.978-12.637 16.995-23.925l-5.278-29.926-16.789 2.956 5.438 30.819z"/><path fill="#6DB5C3" d="M146.936 20.478c-8.189 1.447-15.334 5.993-20.103 12.807s-6.609 15.084-5.162 23.273l5.26 29.882v.08l13.887 78.929c5.064 2.939 8.145 10.914 9.413 18.514a8.8 8.8 0 0 1-1.143 5.956 50 50 0 0 1-3.152 4.626l4.233 24.077h11.735L138.461 89.244l-5.894-32.543c-1.028-5.84.276-11.717 3.67-16.557a22 22 0 0 1 14.298-9.11l82.564-14.557a22 22 0 0 1 16.548 3.67 22 22 0 0 1 9.11 14.299l4.34 23.979 26.827 148.096a61 61 0 0 0 9.065-8.314L273.992 56.183h.018s-.018-.045-.018-.062l-4.51-25.623c-1.447-8.189-5.992-15.333-12.806-20.102s-15.084-6.6-23.274-5.162l-86.475 15.244z"/><path fill="#000" d="M181.203 38.849a5.08 5.08 0 0 0-.849 3.813 5.115 5.115 0 0 0 5.028 4.215q.442 0 .885-.08l19.191-3.385a5.07 5.07 0 0 0 3.296-2.098 5.08 5.08 0 0 0 .848-3.814 5.107 5.107 0 0 0-5.912-4.144l-19.192 3.385a5.07 5.07 0 0 0-3.295 2.099z"/></svg>