<svg xmlns="http://www.w3.org/2000/svg" width="405" height="421" fill="none" viewBox="0 0 405 421"><path fill="#4C4C4C" d="M319.409 408.161c0 7.04-60.49 12.76-135.11 12.76s-135.11-5.71-135.11-12.76 60.49-12.76 135.11-12.76 135.11 5.71 135.11 12.76"/><path fill="#6DB5C3" d="m309.539 235.612 5.71 3.66 8.41-3.37 27.95-101.65-31.34-5.37z"/><path fill="#4C4C4C" d="M315.249 241.771c-.47 0-.94-.13-1.35-.39l-5.71-3.66a2.52 2.52 0 0 1-1.14-2.36l10.73-106.73a2.486 2.486 0 0 1 2.91-2.21l31.34 5.37c.7.12 1.31.53 1.69 1.12s.49 1.32.3 2l-27.95 101.65c-.21.75-.75 1.37-1.48 1.66l-8.4 3.38c-.3.12-.62.18-.93.18zm-3.07-7.43 3.34 2.14 6.06-2.43 26.89-97.79-25.98-4.45-10.31 102.54z"/><path fill="#6DB5C3" d="m371.659 142.721 8.98-3.84-47.42-43.54 16.24-60.59 6.07 1.76 2.4-8.71-42.97-12.42-2.4 8.71 5.42 1.57-11.89 44.4-72.54-67.57-11.95 3.48 50.67 68.14z"/><path fill="#4C4C4C" d="M371.659 145.221c-.5 0-1-.15-1.42-.44l-99.39-68.61a2.7 2.7 0 0 1-.59-.57l-50.66-68.13a2.5 2.5 0 0 1-.36-2.29c.26-.78.88-1.38 1.67-1.6l11.95-3.48a2.48 2.48 0 0 1 2.4.57l69.49 64.73 10.19-38.02-3.07-.89a2.507 2.507 0 0 1-1.72-3.06l2.4-8.71c.18-.64.61-1.19 1.19-1.52s1.27-.41 1.92-.22l42.96 12.41c1.31.38 2.08 1.75 1.72 3.06l-2.4 8.71a2.55 2.55 0 0 1-1.19 1.52c-.58.33-1.27.41-1.92.22l-3.62-1.05-15.18 56.66 46.3 42.51c.63.57.92 1.43.77 2.26-.14.84-.7 1.54-1.48 1.88l-8.99 3.84c-.32.13-.65.2-.98.2zm-97.63-72.94 97.91 67.59 4.16-1.78-44.57-40.92c-.69-.63-.97-1.59-.72-2.49l16.23-60.58c.17-.65.6-1.2 1.19-1.53.58-.33 1.28-.41 1.92-.22l3.64 1.05 1.07-3.89-38.16-11.03-1.07 3.89 3.05.88a2.5 2.5 0 0 1 1.72 3.05l-11.9 44.4c-.23.85-.88 1.51-1.73 1.76-.84.24-1.75.03-2.39-.57l-71.5-66.6-7.13 2.08 48.27 64.92z"/><path fill="#04663A" d="M295.009 235.161c-.89-.23-1.72.38-1.69 1.22.11 3.09 1.58 5.99 1.2 10.32-.52 5.8-7.42 8.94-13.55 7.63l-.02.02c-.08-.02-.15-.05-.23-.07s-.16-.03-.23-.05c-.12-.03-.23-.07-.34-.13-5.84-1.89-10.2-7.82-7.94-13.06 1.7-3.95 4.35-5.87 5.93-8.5.43-.72-.01-1.66-.91-1.88-5.07-1.25-7.61-1.87-12.69-3.07-.59-.14-1.2.09-1.49.57-2.48 4.23-7.76 6.87-12.75 4.96-4.35-1.67-6.59-4.15-9.54-5.64-.81-.41-1.79 0-1.97.81-3.33 15.15-6.65 30.3-9.98 45.45-.15.68-.85 1.1-1.57.95-15.1-3.24-30.22-6.29-45.39-9.15-.94-.17-1.74.63-1.52 1.52.58 2.29 1.46 4.66 1.39 7.93-.13 5.82-6.58 9.49-12.56 8.67 0 0 0 .01-.01.02-.08-.01-.15-.04-.22-.05-1.05 5.89-1.57 8.84-2.62 14.74-.14.81-1.03 1.25-1.8.92-3.05-1.29-5.26-3.82-9.68-5.27-5.58-1.83-11.23 2.56-12.53 8.09-.04.1-.07.21-.09.32-.01.07-.01.15-.02.22s-.03.14-.05.22c0 0 .01 0 .02.01-.68 5.76 3.25 11.9 9.15 11.99 4.63.07 7.45-1.62 10.77-1.77.83-.04 1.5.68 1.35 1.48l-3.05 17.18c-.12.68.34 1.34 1.02 1.46 40.15 7.36 79.86 16.33 119.28 26.95.67.18 1.37-.21 1.55-.88 10.78-39.19 21.57-78.38 32.35-117.58.18-.67-.26-1.38-1-1.58-7.42-2.03-11.14-3.03-18.58-4.96z"/><path fill="#4C4C4C" d="M281.019 362.702c-.33 0-.66-.04-.99-.13a1498 1498 0 0 0-119.07-26.9c-2.03-.36-3.39-2.32-3.03-4.36l2.76-15.54c-.68.13-1.38.31-2.14.51-2 .52-4.32 1.1-7.26 1.07-3.14-.05-6.08-1.45-8.26-3.94-2.46-2.81-3.71-6.71-3.37-10.48 0-.16 0-.32.03-.47.01-.08.03-.15.04-.22q0-.105.03-.21c.03-.21.09-.43.17-.65.91-3.67 3.38-6.94 6.64-8.76 2.87-1.61 6.09-1.96 9.07-.98 2.92.96 4.94 2.3 6.72 3.49.64.43 1.23.82 1.81 1.16l2.33-13.11c.12-.66.49-1.25 1.05-1.62.54-.37 1.2-.51 1.85-.4.05 0 .09 0 .14.02 2.75.38 5.66-.42 7.6-2.09.94-.8 2.07-2.17 2.11-4.16.05-2.27-.43-4.02-.94-5.88-.13-.47-.26-.93-.37-1.39-.31-1.23.02-2.53.89-3.45.89-.95 2.2-1.38 3.5-1.13 14.75 2.78 29.65 5.78 44.33 8.92l9.72-44.24c.25-1.12 1-2.06 2.05-2.56 1.09-.52 2.4-.5 3.49.06 1.32.67 2.49 1.49 3.62 2.29 1.64 1.15 3.33 2.35 5.69 3.25 3.93 1.5 7.93-.88 9.7-3.89.83-1.42 2.57-2.13 4.22-1.73 5.09 1.21 7.63 1.82 12.71 3.08 1.21.3 2.22 1.15 2.69 2.28.46 1.09.37 2.3-.24 3.31-.71 1.18-1.58 2.21-2.42 3.21-1.21 1.43-2.46 2.91-3.36 5-.74 1.71-.32 3.33.16 4.4 1.07 2.37 3.47 4.4 6.25 5.3l.24.09.11.02s.04.01.07.02c.05 0 .1.02.14.03 2.88.61 6.11 0 8.22-1.56.96-.71 2.14-1.95 2.31-3.85.2-2.25-.18-4.03-.59-5.92-.28-1.3-.57-2.65-.62-4.08-.04-1.17.46-2.27 1.38-3.01.95-.76 2.23-1.03 3.44-.72 7.52 1.96 11.17 2.93 18.61 4.97.96.26 1.77.86 2.3 1.69.56.89.72 1.97.45 2.96l-32.35 117.58a3.766 3.766 0 0 1-3.63 2.76zm-117.96-31.73c39.22 7.22 78.6 16.12 117.09 26.46l31.69-115.19c-6.16-1.69-9.74-2.64-15.82-4.23.09.47.19.97.3 1.49.44 2.07.95 4.41.68 7.41-.26 2.92-1.8 5.56-4.32 7.43-3.18 2.35-7.7 3.29-11.88 2.5-.15 0-.31-.03-.46-.07-.08-.02-.16-.04-.23-.07-.07-.01-.15-.03-.23-.05a4.4 4.4 0 0 1-.64-.22c-4.08-1.36-7.49-4.33-9.13-7.95-1.27-2.8-1.33-5.8-.19-8.44 1.19-2.77 2.75-4.61 4.13-6.24.33-.39.65-.77.94-1.13-3.79-.93-6.23-1.52-10.25-2.48-3.07 4.5-9.09 7.63-15.31 5.25-2.94-1.13-4.98-2.56-6.78-3.83-.62-.44-1.19-.84-1.75-1.2l-9.63 43.84c-.44 2.02-2.48 3.3-4.54 2.85-14.37-3.09-28.97-6.04-43.43-8.78.51 1.87 1.01 3.99.95 6.69-.07 3-1.44 5.79-3.87 7.86-2.52 2.15-5.9 3.35-9.36 3.37l-2.23 12.53c-.2 1.13-.9 2.08-1.9 2.63a3.84 3.84 0 0 1-3.34.16c-1.48-.62-2.75-1.47-3.98-2.29-1.59-1.06-3.24-2.16-5.5-2.9-2.1-.69-3.91-.06-5.06.59-2.07 1.16-3.7 3.35-4.25 5.71-.02.08-.04.15-.06.22v.14c0 .04 0 .09-.01.13-.29 2.47.53 5.13 2.13 6.96.88 1 2.38 2.2 4.58 2.24 2.31.04 4.14-.44 5.92-.91 1.48-.38 3.01-.78 4.69-.86 1.17-.04 2.29.42 3.05 1.3.75.86 1.07 2 .87 3.12l-2.84 15.96zm-1.22-.22h.01z"/><path fill="#7A42C8" d="M264.259 225.262s-.02 0-.02-.01c1.08-5.7-2.83-12.22-9.21-12.77-4.76-.41-7.81.93-11.18 1.02-.91.02-1.64-.75-1.46-1.57l9.15-41.64c.15-.68-.36-1.37-1.13-1.54-16.62-3.57-33.27-6.92-49.98-10.06-.79-.14-1.34-.83-1.18-1.52.92-3.99 4.53-5.96 6.42-10.98 2.02-5.36-3.03-11.1-9.41-12.65a2.3 2.3 0 0 0-.37-.11l-.25-.03-.25-.06s0 .01-.01.02c-6.63-.93-13.61 2.75-13.56 8.58.04 5.41 2.82 8.38 2.25 12.53-.1.69-.85 1.15-1.63 1.01-16.77-2.81-33.55-5.41-50.39-7.78-.78-.11-1.49.36-1.59 1.05l-5.76 42.21c-.11.83-1.07 1.31-1.92.96-3.1-1.25-5.58-3.53-10.14-4.78-6.07-1.66-11.88 2.91-12.99 8.49-.04.1-.07.21-.08.33 0 .07 0 .15-.01.22s-.03.14-.04.22c0 0 .02 0 .02.01-.43 5.79 4.1 11.81 10.42 11.72 4.71-.07 7.6-1.67 10.91-2.04.9-.1 1.68.61 1.57 1.44-2.1 15.38-4.2 30.76-6.29 46.13-.09.69.42 1.33 1.15 1.43 15.28 2.15 30.51 4.5 45.73 7.04.95.16 1.42 1.19.9 1.94-1.32 1.95-2.96 3.91-4.01 6.98-1.85 5.4 2.73 10.96 8.47 12.39.11.04.22.08.33.1l.23.03c.08.01.15.04.22.05 0 0 0-.01.01-.02 5.98.82 12.43-2.85 12.56-8.67.07-3.27-.82-5.65-1.39-7.93-.22-.89.57-1.69 1.52-1.52 15.17 2.86 30.29 5.91 45.39 9.15.72.16 1.42-.27 1.57-.95 3.33-15.15 6.65-30.3 9.98-45.45.18-.82 1.16-1.22 1.97-.81 2.95 1.5 5.19 3.97 9.54 5.64 5.79 2.22 11.99-1.68 13.72-7.1.05-.1.09-.2.12-.31.02-.07.02-.15.04-.22s.05-.14.06-.21z"/><path fill="#4C4C4C" d="m170.279 286.391-1.56-.28a2 2 0 0 1-.22-.049c-.07 0-.15-.02-.23-.03-.2-.04-.41-.091-.63-.171-3.95-1.02-7.41-3.64-9.25-7.04-1.49-2.74-1.79-5.769-.84-8.549.87-2.54 2.06-4.37 3.18-5.96-14.48-2.4-29.21-4.66-43.78-6.72-2.08-.29-3.55-2.191-3.27-4.241l6.07-44.509c-.67.15-1.37.34-2.12.54-2.1.58-4.48 1.23-7.63 1.27-3.44.09-6.72-1.36-9.18-3.98-2.22-2.36-3.57-5.5-3.77-8.67l-.21-.1.21-1.77c0-.07.02-.15.03-.22 0-.06 0-.14.02-.22.03-.23.08-.45.15-.68.75-3.54 3.08-6.81 6.24-8.76 3.02-1.87 6.51-2.4 9.83-1.49 3.13.85 5.34 2.13 7.3 3.25.63.36 1.24.72 1.85 1.03l5.54-40.6c.28-2.06 2.27-3.49 4.4-3.19 16.37 2.31 32.93 4.86 49.23 7.59-.09-1.1-.45-2.22-.88-3.53-.65-2.02-1.4-4.31-1.42-7.32-.02-2.86 1.24-5.56 3.57-7.6 2.86-2.5 7.08-3.84 11.29-3.62l.09-.13 1.58.27.26.06c.04 0 .14.01.25.03.19.03.41.09.63.17 4.48 1.12 8.45 4.06 10.37 7.7 1.42 2.67 1.65 5.6.66 8.23-1.06 2.81-2.55 4.74-3.86 6.43-.83 1.08-1.54 2-2.01 2.97 16.23 3.06 32.64 6.36 48.8 9.83 2.12.47 3.49 2.49 3.04 4.51l-8.8 40.06c.68-.08 1.38-.21 2.15-.35 2.19-.39 4.69-.83 7.91-.55 3.51.3 6.65 2.06 8.85 4.96 2.02 2.66 3.02 6.03 2.8 9.27l.17.15-.37 1.5c-.02.06-.03.13-.05.19-.01.07-.03.15-.05.23-.04.2-.12.42-.22.64-1.15 3.44-3.81 6.44-7.15 8.04-3.16 1.52-6.64 1.68-9.8.47-2.94-1.13-4.98-2.56-6.78-3.83-.62-.44-1.19-.84-1.75-1.2l-9.63 43.839c-.44 2.02-2.48 3.3-4.54 2.85a1818 1818 0 0 0-43.43-8.779c.51 1.869 1.01 3.99.95 6.69-.07 3-1.44 5.789-3.87 7.859-2.67 2.28-6.31 3.48-9.98 3.37l-.11.16zm-1.08-5.28.31.041c2.75.38 5.66-.421 7.6-2.081.94-.8 2.07-2.17 2.11-4.16.05-2.27-.43-4.019-.94-5.879-.13-.47-.26-.93-.37-1.39-.31-1.23.02-2.531.89-3.451a3.8 3.8 0 0 1 3.5-1.129 1859 1859 0 0 1 44.33 8.919l9.72-44.239c.25-1.12 1-2.06 2.05-2.56 1.09-.52 2.4-.5 3.49.06 1.32.67 2.49 1.49 3.62 2.29 1.64 1.15 3.33 2.35 5.69 3.25 2.38.91 4.5.33 5.84-.31 2.17-1.04 3.89-2.99 4.61-5.21l.12-.46c.44-2.3-.19-4.85-1.68-6.81-1.33-1.76-3.21-2.82-5.29-3-2.58-.22-4.63.14-6.62.5-1.37.24-2.79.49-4.29.53-1.19.05-2.42-.51-3.19-1.44-.74-.9-1.02-2.05-.78-3.16l8.88-40.42c-16.18-3.47-32.62-6.77-48.86-9.82-1.08-.2-2.04-.83-2.64-1.73-.56-.84-.74-1.84-.52-2.8.59-2.58 2.01-4.41 3.38-6.18 1.15-1.48 2.34-3.02 3.13-5.13.49-1.31.36-2.7-.4-4.13-1.27-2.4-4.12-4.45-7.26-5.21l-.26-.08a1 1 0 0 1-.17-.02l-.22-.03c-3.26-.46-6.74.44-8.85 2.29-1.25 1.09-1.88 2.37-1.86 3.8.02 2.24.58 3.98 1.18 5.82.7 2.15 1.42 4.37 1.04 7.08a3.6 3.6 0 0 1-1.47 2.43c-.86.63-1.98.89-3.06.7-16.3-2.73-32.86-5.3-49.24-7.62l-5.59 40.97a3.73 3.73 0 0 1-1.83 2.71c-1.05.61-2.36.7-3.5.24-1.34-.54-2.56-1.24-3.74-1.92-1.78-1.02-3.61-2.08-6.12-2.76-1.96-.54-4.05-.21-5.88.92-2.05 1.27-3.54 3.38-4 5.65l-.07.47c-.17 2.36.73 4.83 2.42 6.62 1.49 1.58 3.42 2.48 5.47 2.41 2.51-.04 4.48-.58 6.38-1.1 1.36-.37 2.77-.76 4.29-.93 1.2-.14 2.44.3 3.28 1.16.81.83 1.19 1.96 1.04 3.1l-6.13 44.909c14.88 2.11 29.89 4.421 44.64 6.891 1.31.22 2.39 1.07 2.9 2.269.5 1.17.37 2.491-.34 3.541q-.375.555-.78 1.109c-1.08 1.53-2.19 3.111-2.93 5.271-.63 1.84-.08 3.489.5 4.539 1.19 2.19 3.57 3.961 6.21 4.61l.22.071z"/><path fill="#EE6DBB" d="M151.349 314.641c-5.9-.09-9.83-6.23-9.15-11.99 0 0-.01 0-.02-.01.01-.07.03-.14.05-.22.01-.07.01-.15.02-.22.02-.11.05-.22.09-.32 1.3-5.54 6.95-9.92 12.53-8.09 4.42 1.45 6.63 3.97 9.68 5.27.78.33 1.66-.11 1.81-.92 1.03-5.81 1.55-8.72 2.58-14.53l-.23-.03c-.12-.02-.23-.06-.33-.1-5.74-1.42-10.32-6.98-8.47-12.39 1.05-3.06 2.68-5.02 4.01-6.98.51-.76.04-1.78-.9-1.94-15.22-2.54-30.45-4.89-45.73-7.04-.73-.1-1.24-.74-1.15-1.43 2.1-15.38 4.2-30.76 6.29-46.13.11-.83-.67-1.54-1.57-1.44-3.32.37-6.2 1.97-10.91 2.04-5.35.08-9.39-4.22-10.26-9.05-.1-.55-.6-.97-1.2-1.05-5.37-.64-8.05-.95-13.43-1.54-.93-.1-1.49-1-1.13-1.78 1.25-2.68 3.51-4.92 4.66-8.9 1.58-5.49-3.66-10.83-9.89-11.89-.12-.04-.24-.06-.36-.08-.08 0-.16 0-.25-.01-.08 0-.16-.03-.24-.04 0 0 0 .01-.01.02-6.44-.42-12.91 3.78-12.48 9.59.31 4.19 2.12 6.78 2.78 9.69.19.83-.56 1.58-1.48 1.49-7.4-.72-11.11-1.06-18.53-1.68-.76-.06-1.42.45-1.48 1.14l-10.14 121.52c-.06.69.46 1.3 1.15 1.36 40.66 3.61 81.03 8.87 121.26 15.8.69.12 1.34-.33 1.46-1.02 1.24-6.96 1.85-10.43 3.09-17.39.14-.81-.52-1.52-1.35-1.48-3.32.15-6.14 1.84-10.77 1.77"/><path fill="#4C4C4C" d="M159.139 335.282q-.33 0-.66-.061a1492 1492 0 0 0-121.04-15.769 3.75 3.75 0 0 1-3.42-4.06l10.14-121.53c.08-1.03.61-1.99 1.44-2.63.78-.6 1.74-.88 2.74-.8 6.82.58 10.45.9 16.83 1.52q-.21-.555-.45-1.17c-.77-1.96-1.63-4.18-1.86-7.17-.22-2.91.88-5.75 3.09-7.97 2.61-2.63 6.58-4.23 10.61-4.32l.1-.14 1.45.16c.08 0 .15.02.23.03.1 0 .18.01.26.02.21.02.42.06.65.12 4.32.77 8.3 3.33 10.43 6.71 1.63 2.6 2.1 5.55 1.3 8.3-.83 2.88-2.13 4.9-3.28 6.68-.22.34-.44.68-.64 1.01 4.29.47 6.95.78 11.72 1.35 1.72.21 3.07 1.44 3.36 3.08.61 3.41 3.5 6.99 7.66 6.99h.1c2.51-.04 4.48-.58 6.38-1.1 1.36-.37 2.77-.76 4.29-.93 1.2-.14 2.44.3 3.28 1.16.81.83 1.19 1.96 1.04 3.1l-6.13 44.91a1811 1811 0 0 1 44.64 6.89c1.31.22 2.39 1.07 2.9 2.27.5 1.17.37 2.49-.34 3.54q-.375.555-.78 1.11c-1.08 1.53-2.19 3.11-2.93 5.27-.63 1.84-.08 3.49.5 4.54 1.19 2.19 3.57 3.96 6.21 4.61l.34.08 2.53.39-3.03 17.05c-.2 1.12-.89 2.08-1.9 2.63a3.84 3.84 0 0 1-3.34.16c-1.48-.63-2.75-1.47-3.98-2.29-1.59-1.06-3.24-2.16-5.51-2.9-2.09-.69-3.91-.06-5.06.59-2.07 1.16-3.7 3.35-4.26 5.71l-.09.49c-.29 2.47.53 5.13 2.13 6.96.88 1 2.38 2.2 4.58 2.24 2.29.05 4.14-.44 5.92-.91 1.48-.39 3.01-.78 4.7-.86 1.17-.03 2.29.42 3.05 1.3.75.86 1.07 2 .87 3.12l-3.09 17.39a3.76 3.76 0 0 1-3.7 3.099zm-120.04-20.7c39.72 3.56 79.75 8.78 119.04 15.51l2.58-14.53c-.68.13-1.38.31-2.14.51-2 .52-4.28 1.1-7.26 1.07-3.15-.05-6.08-1.45-8.26-3.94-2.21-2.52-3.44-5.92-3.42-9.31l-.16-.11.24-1.53c.01-.08.03-.15.04-.22 0-.05.01-.13.03-.21.04-.22.09-.44.17-.65.91-3.67 3.38-6.94 6.64-8.77 2.87-1.61 6.08-1.95 9.07-.98 2.92.96 4.94 2.3 6.72 3.49.64.43 1.23.82 1.81 1.16l1.9-10.69c-3.3-1.24-6.1-3.6-7.71-6.54-1.49-2.74-1.79-5.77-.84-8.55.87-2.54 2.06-4.37 3.18-5.96-14.48-2.4-29.21-4.66-43.78-6.72-2.08-.29-3.55-2.19-3.27-4.24l6.07-44.51c-.67.15-1.37.34-2.12.54-2.1.58-4.48 1.23-7.63 1.27-6.65.11-11.23-4.92-12.56-10.2-4.86-.58-7.53-.88-12.64-1.44a3.93 3.93 0 0 1-2.99-1.95c-.58-1.04-.63-2.3-.13-3.38.53-1.13 1.2-2.17 1.84-3.17 1.01-1.57 2.06-3.19 2.68-5.36.51-1.75-.12-3.28-.73-4.26-1.42-2.25-4.17-3.96-7.17-4.47l-.61-.08c-3.06-.2-6.27.91-8.17 2.83-.83.84-1.79 2.23-1.65 4.08.17 2.24.83 3.93 1.53 5.73.45 1.14.91 2.33 1.2 3.6a3.65 3.65 0 0 1-.83 3.24c-.82.93-2.06 1.41-3.32 1.29-7.09-.69-10.72-1.02-17.38-1.58l-9.94 119.06zm-1.23-.11h.01z"/><path fill="#04663A" d="m281.239 360.412 8.63-5.3c.88-.54 1.51-1.38 1.79-2.37 3.06-11.14 31.93-116.84 31.93-116.84l-8.98 3.75-33.37 120.77z"/><path fill="#4C4C4C" d="M281.239 362.912c-.53 0-1.06-.17-1.5-.5a2.505 2.505 0 0 1-.91-2.66l33.37-120.77c.21-.74.74-1.34 1.45-1.64l8.98-3.75c.88-.37 1.9-.2 2.61.43s1.01 1.62.76 2.54c-.29 1.06-28.9 105.84-31.93 116.85a6.53 6.53 0 0 1-2.89 3.84l-8.64 5.3c-.4.25-.86.37-1.31.37zm35.45-121.43-31.35 113.48 3.23-1.98c.34-.21.58-.53.68-.91 2.65-9.62 24.84-90.88 30.58-111.9z"/><path fill="#FF7B00" d="M214.269 104.422c-5.08-.27-8.24 1.16-11.82 1.34-.97.05-1.79-.71-1.64-1.53 1.07-6.04 20.97-90.73 22.04-96.77.12-.68-1.25-1.5-1.25-1.5l-194.37 70.94 27.83 3.69c-2.73 32.76-5.47 78.21-8.2 110.97-.06.69.51 1.31 1.27 1.37 7.42.63 11.13.96 18.54 1.68.94.09 1.68-.68 1.47-1.53-.7-2.81-2.42-5.37-2.72-9.43-.43-5.81 6.04-10.01 12.48-9.59 0 0 0-.01.01-.02.08 0 .16.03.24.04.08 0 .16 0 .25.01.13.01.25.04.36.08 6.24 1.05 11.47 6.39 9.89 11.89-1.12 3.87-3.29 6.09-4.56 8.67-.39.78.18 1.7 1.12 1.8 5.12.56 7.67.85 12.78 1.46.8.09 1.5-.45 1.52-1.18 0-.13.01-.26.02-.38 0 0-.02 0-.02-.01 0-.07.03-.14.04-.22 0-.07 0-.15.01-.22.01-.11.04-.22.08-.33 1.11-5.58 6.92-10.15 12.99-8.49 4.56 1.25 7.05 3.52 10.14 4.78.85.34 1.81-.14 1.92-.96l5.76-42.21c.09-.69.8-1.16 1.59-1.05 16.84 2.38 33.62 4.97 50.39 7.78.78.13 1.53-.32 1.63-1.01.57-4.15-2.2-7.12-2.25-12.53-.05-5.83 6.93-9.52 13.56-8.58 0 0 0-.01.01-.02.08.01.17.04.25.06.9-5.08 1.36-7.62 2.26-12.71.15-.82 1.17-1.26 2.05-.87 3.22 1.41 5.73 3.83 10.45 5.38 6.28 2.06 12.65-2.02 14.19-7.5.05-.1.09-.21.11-.32l.03-.22.06-.21s-.02 0-.02-.01c.83-5.74-3.67-12.17-10.48-12.53z"/><path fill="#4C4C4C" d="M98.169 200.512c-.16 0-.32 0-.47-.03-5.1-.61-7.65-.9-12.76-1.46-1.28-.14-2.41-.88-3.01-1.99a3.68 3.68 0 0 1-.08-3.4c.51-1.03 1.12-1.98 1.72-2.91 1.01-1.57 2.06-3.19 2.68-5.36.51-1.75-.12-3.28-.73-4.26-1.42-2.25-4.16-3.96-7.17-4.47-.08-.01-.17-.03-.25-.05h-.36c-3.06-.2-6.26.91-8.16 2.82-.83.84-1.79 2.23-1.65 4.08.17 2.24.83 3.93 1.53 5.72.41 1.05.84 2.13 1.13 3.29s0 2.39-.79 3.3c-.82.95-2.08 1.44-3.35 1.32-7.45-.72-11.08-1.05-18.51-1.68-2.13-.18-3.72-2-3.55-4.07 1.37-16.36 2.75-36.23 4.1-55.45 1.28-18.31 2.6-37.22 3.91-53.14l-25.47-3.37a2.506 2.506 0 0 1-2.16-2.21c-.12-1.14.55-2.23 1.63-2.62l194.37-70.94a2.49 2.49 0 0 1 2.13.2c.86.51 2.82 1.93 2.44 4.08-.55 3.09-5.65 25.15-11.05 48.51-4.62 19.98-9.38 40.57-10.69 46.73.8-.11 1.62-.27 2.52-.44 2.29-.45 4.89-.96 8.3-.78 3.83.2 7.3 1.98 9.78 5 2.37 2.89 3.49 6.51 3.1 10 0 .18-.01.36-.05.54-.01.07-.03.13-.05.2 0 .07-.02.15-.04.24-.04.21-.11.44-.2.67-1 3.38-3.45 6.32-6.74 8.07-3.32 1.77-7.08 2.11-10.58.96-3.15-1.03-5.38-2.4-7.34-3.61-.75-.46-1.48-.91-2.2-1.29l-1.98 11.16c-.12.66-.49 1.24-1.04 1.62s-1.23.52-1.88.4c-.05 0-.11 0-.16-.02-3.26-.46-6.74.44-8.85 2.29-1.25 1.09-1.88 2.37-1.86 3.8.02 2.24.58 3.98 1.18 5.82.7 2.15 1.42 4.37 1.04 7.08a3.6 3.6 0 0 1-1.47 2.43c-.86.63-1.98.89-3.06.7-16.3-2.73-32.86-5.3-49.24-7.62l-5.59 40.97c-.15 1.13-.82 2.12-1.83 2.71-1.05.61-2.36.7-3.5.24-1.34-.54-2.56-1.24-3.74-1.92-1.78-1.02-3.61-2.08-6.12-2.76-1.96-.54-4.05-.21-5.88.92-2.05 1.27-3.54 3.38-4 5.65-.02.07-.03.15-.05.22v.26c0 .08-.01.17-.01.25-.03 1.04-.5 2.01-1.28 2.69-.71.61-1.62.94-2.56.94zm-10.93-6.26c3.66.41 6.08.68 9.88 1.13.03-.12.06-.24.09-.37.75-3.54 3.08-6.81 6.24-8.76 3.02-1.87 6.51-2.4 9.83-1.49 3.13.85 5.34 2.13 7.3 3.25.63.36 1.24.71 1.85 1.03l5.54-40.6c.28-2.06 2.27-3.49 4.4-3.19 16.37 2.31 32.93 4.86 49.23 7.59-.09-1.1-.45-2.22-.88-3.53-.66-2.02-1.4-4.31-1.42-7.32-.02-2.86 1.24-5.56 3.57-7.6 2.72-2.38 6.67-3.68 10.69-3.64l1.86-10.47c.2-1.11.9-2.05 1.92-2.6a4.19 4.19 0 0 1 3.61-.12c1.42.62 2.7 1.41 3.94 2.17 1.82 1.12 3.7 2.27 6.29 3.12 2.2.72 4.57.5 6.67-.62 2.11-1.13 3.73-3.06 4.33-5.18.02-.07.04-.14.07-.21v-.1c0-.04 0-.09.02-.13.32-2.19-.42-4.62-1.96-6.5-1.57-1.92-3.77-3.04-6.18-3.17-2.8-.15-4.97.28-7.07.69-1.43.28-2.91.57-4.48.65-1.25.08-2.52-.45-3.34-1.38a3.68 3.68 0 0 1-.89-3.08c.55-3.08 5.65-25.15 11.05-48.51 4.46-19.3 9.05-39.17 10.54-46.05l-182.29 66.53 17.74 2.35a2.5 2.5 0 0 1 2.16 2.69c-1.37 16.36-2.75 36.23-4.1 55.45-1.31 18.75-2.67 38.13-4 54.28 6.14.52 9.71.84 15.69 1.42-.12-.31-.24-.62-.36-.94-.77-1.96-1.64-4.18-1.86-7.17-.22-2.91.88-5.75 3.09-7.98 2.84-2.87 7.31-4.52 11.69-4.31.15-.01.31-.01.47 0 .08 0 .16.02.24.03.08 0 .17 0 .25.02.21.02.43.06.65.12 4.32.77 8.31 3.33 10.44 6.72 1.63 2.6 2.1 5.55 1.3 8.3-.83 2.88-2.14 4.9-3.29 6.68-.18.27-.35.54-.52.81z"/><path fill="#6DB5C3" d="m371.419 142.832-47.2-43.49 16.23-60.58 6.07 1.75 2.4-8.71-42.96-12.41-2.4 8.71 5.42 1.57-11.9 44.4-72.54-67.57s-1.57.29-1.69.98c-1.06 5.96-20.94 90.6-22 96.56-.15.82.67 1.58 1.64 1.53 3.57-.18 6.74-1.61 11.82-1.34 6.81.36 11.32 6.79 10.48 12.53 0 0 .02 0 .02.01-.01.07-.04.14-.06.21l-.03.22c-.02.11-.06.22-.11.32-1.54 5.48-7.92 9.56-14.19 7.5-4.72-1.55-7.24-3.96-10.45-5.38-.88-.39-1.91.04-2.05.87l-2.3 12.92.25.03c.13.02.25.06.37.11 6.37 1.54 11.42 7.29 9.41 12.65-1.89 5.02-5.5 6.99-6.42 10.98-.16.69.39 1.37 1.18 1.52 16.71 3.14 33.36 6.49 49.98 10.06.77.17 1.28.86 1.13 1.54l-9.15 41.64c-.18.81.55 1.59 1.46 1.57 3.37-.09 6.41-1.43 11.18-1.02 6.39.54 10.29 7.06 9.21 12.77 0 0 .02 0 .02.01l-.06.21c-.02.07-.02.15-.04.22-.03.11-.07.21-.12.31v.01c-.23.71.21 1.49 1.01 1.68 5.09 1.21 7.64 1.83 12.72 3.09.89.22 1.34 1.16.9 1.88-1.58 2.63-4.23 4.55-5.94 8.5-2.27 5.25 2.09 11.17 7.93 13.07.11.05.22.1.34.13.08.02.16.03.23.05.08.02.15.05.23.07l.02-.02c6.13 1.31 13.03-1.83 13.55-7.63.39-4.33-1.08-7.22-1.19-10.32-.03-.84.81-1.45 1.69-1.22 7.23 1.88 10.84 2.85 18.05 4.83.74.2 1.48-.18 1.66-.85 8.73-31.72 18.59-72.74 27.32-104.46l28.85 8.02z"/><path fill="#4C4C4C" d="M284.279 257.241c-.99 0-1.99-.09-2.96-.28-.15 0-.31-.03-.46-.07-.08-.02-.16-.04-.23-.07-.08-.02-.17-.03-.25-.06-.2-.05-.4-.12-.61-.21-4.08-1.37-7.49-4.33-9.13-7.95-1.27-2.8-1.33-5.8-.19-8.44 1.2-2.77 2.76-4.61 4.13-6.24.33-.39.65-.77.94-1.13-4.04-1-6.54-1.6-11.04-2.67a3.9 3.9 0 0 1-2.5-1.87c-.51-.91-.63-2-.31-3 0-.03.02-.06.03-.09.02-.04.03-.09.05-.13v-.05c0-.02 0-.04.01-.06 0-.05.01-.09.02-.14.44-2.3-.19-4.85-1.68-6.81-1.33-1.76-3.21-2.82-5.29-3-2.58-.22-4.63.14-6.62.5-1.37.24-2.79.49-4.29.53-1.18.01-2.42-.51-3.19-1.44-.74-.9-1.02-2.05-.78-3.16l8.88-40.42c-16.18-3.47-32.62-6.77-48.86-9.82-1.08-.2-2.04-.83-2.64-1.73-.56-.84-.74-1.84-.52-2.8.59-2.58 2.01-4.41 3.38-6.18 1.15-1.48 2.34-3.02 3.13-5.13.49-1.31.36-2.7-.4-4.13-1.27-2.4-4.12-4.45-7.26-5.21-.09-.02-.17-.05-.26-.08-.07 0-.12-.02-.18-.03-.66-.11-1.25-.48-1.64-1.02-.39-.55-.54-1.22-.42-1.88l2.3-12.92c.2-1.11.9-2.05 1.92-2.6 1.1-.59 2.45-.63 3.61-.12 1.42.62 2.7 1.41 3.94 2.17 1.82 1.12 3.7 2.27 6.29 3.12 2.2.72 4.57.5 6.68-.62 2.12-1.13 3.73-3.06 4.33-5.18.02-.07.04-.14.07-.21 0-.03 0-.05.01-.08v-.02c0-.05 0-.1.02-.14.32-2.18-.42-4.62-1.96-6.5-1.57-1.92-3.77-3.05-6.18-3.17-2.79-.15-4.97.28-7.08.69-1.43.28-2.91.57-4.48.65-1.27.05-2.52-.45-3.34-1.38a3.68 3.68 0 0 1-.89-3.08c.54-3.04 5.64-25.1 11.04-48.46 5.13-22.22 10.45-45.19 10.96-48.1.38-2.16 2.71-2.81 3.7-3 .78-.15 1.58.09 2.16.63l69.49 64.73 10.19-38.02-3.07-.89a2.507 2.507 0 0 1-1.72-3.06l2.4-8.71c.18-.64.61-1.19 1.19-1.52s1.27-.41 1.92-.22l42.96 12.41c1.31.38 2.08 1.75 1.72 3.06l-2.4 8.71a2.55 2.55 0 0 1-1.19 1.52c-.58.33-1.27.41-1.92.22l-3.62-1.05-15.18 56.66 46.08 42.47a2.494 2.494 0 0 1-2.36 4.24l-26.43-7.34c-4.17 15.29-8.65 32.8-12.99 49.77-4.57 17.89-9.3 36.39-13.67 52.27-.55 2-2.67 3.17-4.74 2.59-6.62-1.81-10.14-2.76-16.38-4.39.09.47.19.97.3 1.49.44 2.07.94 4.41.67 7.41-.26 2.92-1.8 5.56-4.33 7.42-2.44 1.8-5.67 2.77-8.92 2.77zm-2.41-5.26.15.03c2.88.61 6.11 0 8.22-1.56.96-.71 2.14-1.95 2.31-3.85.2-2.25-.18-4.04-.58-5.92-.28-1.3-.57-2.65-.62-4.08-.04-1.17.46-2.27 1.38-3.01.95-.76 2.23-1.03 3.44-.72 6.95 1.81 10.5 2.76 17 4.54 4.27-15.57 8.87-33.56 13.32-50.98 4.57-17.89 9.3-36.39 13.67-52.28.18-.64.6-1.18 1.18-1.51s1.26-.41 1.9-.23l18.86 5.24-39.58-36.47c-.68-.63-.96-1.59-.72-2.49l16.23-60.58c.17-.65.6-1.2 1.19-1.53.58-.33 1.27-.41 1.92-.22l3.64 1.05 1.07-3.89-38.16-11.03-1.07 3.89 3.05.88a2.5 2.5 0 0 1 1.72 3.05l-11.9 44.4c-.23.85-.88 1.51-1.73 1.76-.84.24-1.75.03-2.39-.57l-70.53-65.7c-1.48 6.83-5.9 25.97-10.55 46.07-4.61 19.96-9.37 40.54-10.68 46.68.8-.11 1.62-.27 2.52-.44 2.29-.45 4.9-.96 8.3-.78 3.83.2 7.3 1.98 9.78 5 2.37 2.89 3.49 6.51 3.1 10 0 .17-.01.33-.04.5-.02.08-.03.16-.05.24 0 .05-.02.12-.03.2a4 4 0 0 1-.21.7c-1 3.38-3.45 6.32-6.74 8.07-3.32 1.77-7.08 2.11-10.59.96-3.15-1.03-5.38-2.4-7.35-3.61-.75-.46-1.47-.91-2.2-1.29l-1.62 9.13c3.85 1.35 7.15 4.02 8.86 7.24 1.42 2.67 1.65 5.6.66 8.23-1.06 2.81-2.55 4.74-3.86 6.43-.83 1.08-1.54 2-2.01 2.97 16.23 3.06 32.64 6.36 48.8 9.83 2.12.47 3.49 2.49 3.04 4.51l-8.8 40.06c.68-.08 1.38-.21 2.15-.35 2.19-.39 4.68-.83 7.91-.55 3.51.3 6.65 2.06 8.85 4.96 2.25 2.96 3.24 6.82 2.67 10.39 0 .06 0 .13-.01.19 4.38 1.04 6.92 1.66 11.62 2.82 1.21.3 2.22 1.15 2.69 2.29.45 1.09.37 2.3-.24 3.31-.71 1.19-1.58 2.21-2.42 3.2-1.21 1.43-2.46 2.91-3.36 5-.74 1.71-.32 3.33.16 4.4 1.07 2.37 3.46 4.4 6.25 5.3l.24.09.11.02s.05.01.07.02z"/><path fill="#4C4C4C" d="M305.869 21.742c-.97 0-1.9-.57-2.3-1.53-.54-1.27.05-2.74 1.33-3.28l9.09-3.85c1.27-.54 2.74.05 3.28 1.33s-.05 2.74-1.33 3.28l-9.09 3.85c-.32.13-.65.2-.97.2z"/><path fill="#4C4C4C" d="M348.599 35.672c-.94 0-1.84-.53-2.26-1.44a2.503 2.503 0 0 1 1.2-3.33l7.4-3.48a2.503 2.503 0 0 1 2.13 4.53l-7.4 3.48c-.34.16-.71.24-1.06.24z"/><path fill="#4C4C4C" d="M347.659 43.012c-.94 0-1.84-.53-2.26-1.44a2.503 2.503 0 0 1 1.2-3.33l7.4-3.48a2.503 2.503 0 0 1 2.13 4.53l-7.4 3.48c-.34.16-.71.24-1.06.24z"/><path fill="#4C4C4C" d="M326.139 101.262c-.94 0-1.84-.53-2.26-1.44a2.503 2.503 0 0 1 1.2-3.33l7.4-3.48a2.503 2.503 0 0 1 2.13 4.53l-7.4 3.48c-.34.16-.71.24-1.06.24z"/><path fill="#fff" d="M18.419 332.821s-10.37 8.33-14.98 12.51z"/><path fill="#4C4C4C" d="M19.989 334.761c-2.45 2.12-4.9 4.26-7.31 6.41s-4.84 4.32-7.1 6.51a3.18 3.18 0 0 1-4.5-.06c-1.28-1.31-1.16-3.46.24-4.63 2.58-2.17 5.15-4.17 7.74-6.18 2.59-2 5.18-3.97 7.8-5.94 1.1-.83 2.67-.61 3.5.5.8 1.06.62 2.55-.37 3.4"/><path fill="#4C4C4C" d="M26.629 338.771c-4.72 7.89-10.59 14.83-16.76 21.56-2.93 2.97-7.53-.96-5.07-4.32 1.38-1.8 2.81-3.55 4.27-5.28 4.35-5.18 8.75-10.37 13.63-15.06 2.1-1.99 5.36.61 3.92 3.09"/><path fill="#4C4C4C" d="M374.819 83.551c6.41-2.15 13.03-3.64 19.63-5.09 2.2-.49 4.41-.94 6.63-1.33 1.81-.32 3.55.89 3.87 2.71.3 1.69-.75 3.32-2.37 3.78-8.83 2.35-17.69 4.33-26.87 4.86-2.91.12-3.63-4.04-.89-4.92"/><path fill="#4C4C4C" d="M395.949 58.672c-.69-.89-1.87-1.32-2.98-1.02-.71.19-1.23.64-1.81 1.06-.4.3-.8.59-1.21.89l-2.31 1.71c-1.54 1.14-3.09 2.28-4.63 3.41-1.54 1.14-3.09 2.28-4.63 3.41-1.68 1.24-3.42 2.43-4.99 3.81-.8.7-1.57 1.44-2.41 2.1l-2.51 2c-.54.43-.49 1.34-.11 1.84.42.55 1.2.72 1.81.36.86-.5 1.72-1.01 2.57-1.51.82-.48 1.68-.91 2.52-1.35.85-.44 1.68-.89 2.49-1.41.8-.51 1.61-1.03 2.41-1.54 3.25-2.08 6.5-4.15 9.75-6.23l2.73-1.74c.44-.28.87-.56 1.31-.84l.68-.44c.1-.07.21-.13.31-.2.54-.35.82-.67 1.2-1.19l.29-.68c.03-.25.07-.5.1-.75 0-.63-.23-1.22-.61-1.72z"/><path fill="#4C4C4C" d="M380.009 51.392c-.56-2.11-3.76-3.23-5.29-1.4l-.28.34c-2.16 2.57-3.3 6.33-4.99 9.26-1.13 1.95-2.14 3.95-3.18 5.94-.58 1.12-1.17 2.23-1.75 3.35-.14.27-.18.54-.14.79-.01.19-.03.38-.04.57-.04.59.65.87 1.11.64.13-.07.25-.13.38-.2.24-.05.47-.16.61-.33 1.4-1.72 2.8-3.43 4.2-5.15 2.84-3.48 6.46-7.25 8.75-11.06.35-.59.65-1.24.7-1.92.02-.29 0-.57-.08-.84z"/></svg>