<svg xmlns="http://www.w3.org/2000/svg" width="480" height="480" fill="none" viewBox="0 0 480 480">
  <path
    fill="#A17AD8"
    d="M420.479 353.883c-9.11 4.79-25.17 9.502-53.25 12.362-11.939 1.216-22.375 1.83-31.596 1.83-14.764 0-26.411-1.575-36.126-4.775-16.54-5.45-27.707-15.879-35.142-32.821-9.142-20.835-14.091-59.315-15.584-89.174l-.35-.473a608 608 0 0 1-1.686 8.8c.293 4.935 1.146 16.005 3.615 36.891 4.288 36.257 16.015 84.67 68.151 86.499 54.401 1.907 88.571-4.528 101.968-19.139"
  />
  <path
    fill="#000"
    d="m431.84 338.889-.012.004c-.031-.105-.058-.21-.104-.313-2.94-6.531-10.622-6.875-20.35-7.309-3.859-.173-8.113-.369-12.631-.94 4.166-3.245 8.189-7.166 11.906-11.943 6.586-8.465 9.895-17.459 8.047-21.873a4.66 4.66 0 0 0-1.596-2.029c.038-1.184-.224-2.221-.776-3.138-3.09-5.133-13.134-3.04-27.038-.144-4.271.89-8.687 1.81-13.002 2.522-18.453 3.048-35.225-1.261-50.041-12.817-11.495-19.161-20.588-46.903-26.549-89.639-3.424-24.562-12.352-35.783-19.239-40.872-3.86-2.851-8.095-4.531-12.304-4.942 9.556-18.5 23.832-27.018 23.986-27.109.031-.018.057-.042.088-.061a3.7 3.7 0 0 0 1.322-.861c3.733-3.843-2.902-13.344-3.672-14.414-3.087-4.298-7.733-6.771-10.727-6.993-1.662-.122-2.7.401-3.319.939-20.848 14.075-27.751 40.487-29.213 47.235-8.05-.802-31.579 2.428-52.703 59.979-14.544 39.624-48.05 86.02-83.946 98.03-4.576 1.532-8.716 2.232-12.318 2.119-10.796-18.783-19.467-33.388-28.787-35.063-3.107-.559-6.07.318-8.818 2.603-10.092 8.396-21.958 47.732-2.974 78.396 4.002 6.463 9.754 11.809 17.22 16.025-10.502 1.6-16.349 3.377-16.349 5.247 0 7.045 82.937 12.756 185.244 12.756s185.243-5.711 185.243-12.756c0-1.886-5.949-3.676-16.616-5.287 10.505-5.373 16.96-12.555 19.228-21.451.036-.142.05-.286.061-.43 1.363-2.915.873-5.02.739-5.471m-25.137-23.571c-4.572 5.876-9.662 10.371-14.921 13.829a67 67 0 0 1-4.985-1.298c7.437-4.129 14.905-9.946 21.694-18.122 2.087-2.514 3.767-4.741 5.081-6.739-.947 3.054-3.004 7.362-6.869 12.33m-29.604-16.658c4.418-.73 8.885-1.661 13.207-2.561 7.155-1.49 20.477-4.264 21.734-2.173.013.022 1.192 2.265-7.395 12.607-7.544 9.084-16.081 15.042-24.411 18.927a59 59 0 0 1-1.967-.881c-16.771-7.933-31.947-16.624-44.741-33.018 13.348 7.212 28.064 9.66 43.573 7.099m-91.284-192.732c2.32 3.23 3.449 6.001 3.779 7.488-1.431-.467-3.984-1.885-6.014-4.71-2.343-3.263-3.546-6.025-3.941-7.53 1.559.501 4.233 2.048 6.176 4.752M61.322 347.624c-17.284-27.918-6.922-64.565 1.92-71.92 1.304-1.085 2.543-1.608 3.836-1.608q.445 0 .9.082c7.357 1.322 16.65 17.505 26.487 34.638 9.464 16.482 20.19 35.162 33.145 48.635 6.711 6.98 13.456 11.969 20.309 14.995-28.289 1.766-71.268-.062-86.597-24.822m181.863 11.148c-14.033 0-27.698.108-40.838.312 12.135-12.468 22.678-32.233 31.514-59.157 3.649-11.116 6.703-22.512 9.265-33.512.543 5.479 1.275 12.286 2.27 20.695 3.064 25.926 8.954 45.553 18.004 60.002 2.766 4.418 5.862 8.342 9.246 11.821-9.596-.105-19.434-.161-29.461-.161m75.326 14.25c-52.136-1.829-63.863-50.242-68.151-86.499-2.469-20.886-3.322-31.956-3.615-36.891a608 608 0 0 0 1.686-8.8l.35.473c1.493 29.859 6.442 68.339 15.584 89.174 7.435 16.942 18.602 27.371 35.142 32.821 9.715 3.2 21.362 4.775 36.126 4.775 9.221 0 19.657-.614 31.596-1.83 28.08-2.861 44.14-7.572 53.25-12.362-13.397 14.611-47.567 21.046-101.968 19.139M425.69 343.7c-3.493 4.675-15.796 13.173-58.967 17.57-58.933 6.005-84.518-2.581-97.78-32.8-14.04-31.995-18.085-110.358-14.361-124.957a2.5 2.5 0 0 0-1.805-3.04 2.5 2.5 0 0 0-.744-.063 2.485 2.485 0 0 0-2.576 2.127l-.395 2.753c-2.675 18.63-8.242 57.397-19.952 93.078-14.29 43.543-32.747 67.466-54.858 71.106-12.808 2.111-24.858-1.81-35.62-8.648-14.998-12.012-27.353-32.806-38.155-51.583 3.424-.225 7.127-.978 11.077-2.3 14.818-4.958 31.375-16.903 46.619-33.635 17.188-18.865 31.17-42.177 40.434-67.414 23.519-64.077 48.944-56.503 49.172-56.427a2.503 2.503 0 0 0 3.195-1.515c.109-.306.15-.62.139-.926.045-.128.087-.258.112-.396.051-.291 5.076-27.565 23.949-42.953 1.118 3.242 3.334 6.538 4.346 7.946 1.741 2.424 3.849 4.177 5.865 5.329-6.099 4.658-17.366 15.022-24.501 32.289a2.5 2.5 0 0 0 4.621 1.909c.109-.264.225-.519.336-.78 3.879-.074 7.944 1.316 11.643 4.05 6.115 4.518 14.073 14.699 17.259 37.541 6.199 44.449 15.926 75.206 30.612 96.793 13.592 19.98 30.128 30.579 50.773 40.344 13.078 6.187 25.246 6.731 35.023 7.168 8.936.399 14.149.802 15.882 4.124.017.425-.073 1.61-1.343 3.31"
  />
  <path
    fill="#A17AD8"
    d="M406.703 315.318c3.865-4.968 5.922-9.276 6.869-12.33-1.314 1.998-2.994 4.225-5.081 6.739-6.789 8.176-14.257 13.993-21.694 18.122q2.526.76 4.985 1.298c5.259-3.458 10.349-7.953 14.921-13.829"
  />
  <path
    fill="#FFB921"
    d="M333.526 291.561c12.794 16.394 27.97 25.085 44.741 33.018.657.311 1.313.6 1.967.881 8.33-3.885 16.867-9.843 24.411-18.928 8.587-10.341 7.408-12.584 7.395-12.606-1.257-2.091-14.579.683-21.734 2.173-4.322.9-8.789 1.831-13.207 2.561-15.509 2.561-30.225.113-43.573-7.099"
  />
  <path
    fill="#FFB921"
    d="m249.062 205.29.395-2.753a2.485 2.485 0 0 1 2.576-2.127 2.5 2.5 0 0 1 .744.063 2.5 2.5 0 0 1 1.805 3.04c-3.724 14.598.321 92.962 14.361 124.957 13.262 30.219 38.847 38.804 97.78 32.8 43.171-4.397 55.474-12.895 58.967-17.57 1.27-1.701 1.36-2.886 1.343-3.31-1.733-3.322-6.946-3.725-15.882-4.124-9.777-.437-21.945-.981-35.023-7.168-20.645-9.765-37.181-20.364-50.773-40.344-14.686-21.587-24.413-52.344-30.612-96.793-3.186-22.842-11.144-33.023-17.259-37.542-3.699-2.733-7.764-4.124-11.643-4.049-.111.261-.227.515-.336.78a2.5 2.5 0 1 1-4.621-1.909c7.135-17.267 18.402-27.631 24.501-32.289-2.016-1.152-4.124-2.905-5.865-5.329-1.012-1.409-3.228-4.704-4.346-7.946-18.873 15.388-23.898 42.662-23.949 42.953a2.6 2.6 0 0 1-.112.396c.011.306-.03.619-.139.926a2.5 2.5 0 0 1-3.195 1.514c-.228-.075-25.653-7.649-49.172 56.428-9.264 25.237-23.246 48.549-40.434 67.414-15.244 16.732-31.801 28.677-46.619 33.635-3.95 1.322-7.653 2.075-11.077 2.3 10.802 18.776 23.157 39.571 38.155 51.583 10.762 6.838 22.812 10.759 35.62 8.648 22.111-3.64 40.568-27.563 54.858-71.106 11.71-35.681 17.277-74.448 19.952-93.078m22.256 87.438a1.865 1.865 0 0 1-2.143-1.029l-1.309-2.637c-.468-.982-1.008-1.923-1.35-3.046-1.303-3.803 4.543-5.053 4.887-1.059.011.57.389 1.941.541 2.576l.731 2.937a1.863 1.863 0 0 1-1.357 2.258m45.189 8.679c-5.436-3.021-7.984-9.24-10.113-14.685-1.033-2.627 2.451-4.692 4.264-2.574 3.532 4.514 4.934 10.024 8.234 14.814.938 1.515-.871 3.338-2.385 2.445m10.493 7.22c5.749 5.955 12.15 11.564 18.926 16.369 2.26 1.696 4.635 3.192 6.96 4.886 1.633 1.185.316 3.781-1.595 3.177-8.599-2.673-15.958-8.275-22.316-14.499-2.104-2.13-4.056-4.288-5.88-6.811-1.793-2.592 1.778-5.435 3.905-3.122m-59.912-52.859c1.224 5.081 1.504 9.948 1.682 15.135-.013 2.865-4.012 3.499-4.932.822-1.61-4.964-2.16-10.333-1.732-15.532a2.541 2.541 0 0 1 4.982-.425m-6.209-21.87c.407-3.067 4.862-2.854 4.995.214l.124 4.277a2.814 2.814 0 0 1-2.731 2.893c-1.696.063-3.081-1.451-2.876-3.133zm-126.326 74.206c2.027-2.043 4.716-3.986 7.004-5.77.843-.625 1.677-1.266 2.586-1.835a2.539 2.539 0 0 1 3.448 3.588c-1.98 2.799-4.604 5.024-7.527 6.752-.995.57-1.975 1.046-3.17 1.432-2.518.809-4.301-2.456-2.341-4.167m79.841-17.205c-3.921 11.918-10.053 23.217-17.754 33.122-7.757 9.952-16.74 18.863-27.292 25.87-2.603 1.58-5.086-2.126-2.598-3.926 15.391-11.863 28.317-27.229 37.365-44.433.624-1.336 2.342-4.747 2.941-6.071.584-1.409 2.016-4.8 2.621-6.223 1.184-3.035 5.701-1.475 4.717 1.661m1.211-14.158c.92-2.961 1.974-5.871 2.928-8.821 2.63-7.809 6.12-18.527 8.591-26.387.523-1.718 3.112-1.197 2.919.593-1.615 12.478-4.879 24.73-9.745 36.328-1.291 2.836-5.535 1.282-4.693-1.713"
  />
  <path
    fill="#000"
    d="M271.944 287.533c-.152-.635-.53-2.006-.541-2.575-.344-3.995-6.19-2.745-4.887 1.058.342 1.124.882 2.064 1.35 3.047l1.309 2.637a1.865 1.865 0 0 0 2.143 1.028 1.86 1.86 0 0 0 1.357-2.257z"
  />
  <path
    fill="#000"
    d="M262.106 256.193c-.428 5.2.122 10.568 1.732 15.532.92 2.677 4.919 2.044 4.932-.822-.178-5.187-.458-10.054-1.682-15.135a2.55 2.55 0 0 0-2.188-1.862 2.54 2.54 0 0 0-2.794 2.287"
  />
  <path
    fill="#000"
    d="M263.267 241.282a2.814 2.814 0 0 0 2.731-2.893l-.124-4.277c-.133-3.068-4.588-3.281-4.995-.214l-.488 4.251c-.205 1.682 1.18 3.196 2.876 3.133"
  />
  <path
    fill="#000"
    d="M328.975 318.56c6.358 6.224 13.717 11.826 22.316 14.499 1.911.604 3.228-1.992 1.595-3.177-2.325-1.694-4.7-3.19-6.96-4.886-6.776-4.804-13.177-10.414-18.926-16.369-2.127-2.313-5.698.53-3.905 3.122 1.824 2.523 3.776 4.681 5.88 6.811"
  />
  <path
    fill="#A17AD8"
    d="M285.815 105.927c-1.943-2.703-4.617-4.25-6.176-4.751.395 1.505 1.598 4.267 3.941 7.53 2.029 2.825 4.583 4.242 6.014 4.71-.33-1.487-1.459-4.258-3.779-7.489"
  />
  <path
    fill="#000"
    d="M209.678 289.238c-.606 1.423-2.037 4.815-2.622 6.223-.599 1.324-2.317 4.735-2.941 6.071-9.048 17.204-21.973 32.57-37.365 44.433-2.488 1.8-.004 5.507 2.599 3.926 10.551-7.007 19.534-15.917 27.291-25.87 7.701-9.905 13.833-21.204 17.754-33.122.984-3.136-3.533-4.696-4.716-1.661"
  />
  <path
    fill="#000"
    d="M227.124 241.533a1537 1537 0 0 1-8.591 26.387c-.954 2.95-2.007 5.86-2.928 8.821-.842 2.996 3.402 4.549 4.693 1.713 4.866-11.597 8.13-23.85 9.745-36.328.193-1.789-2.396-2.311-2.919-.593"
  />
  <path
    fill="#000"
    d="M147.591 304.087a2.54 2.54 0 0 0-3.448-3.588c-.909.569-1.743 1.21-2.586 1.835-2.288 1.784-4.977 3.728-7.004 5.77-1.96 1.712-.177 4.976 2.341 4.168 1.195-.387 2.175-.863 3.17-1.433 2.923-1.727 5.547-3.953 7.527-6.752"
  />
  <path
    fill="#D5C3EE"
    d="M61.322 347.624c15.33 24.76 58.308 26.588 86.597 24.822-6.853-3.026-13.598-8.015-20.309-14.995-12.955-13.473-23.681-32.153-33.145-48.635-9.838-17.133-19.13-33.316-26.487-34.639a5 5 0 0 0-.9-.082c-1.293 0-2.532.524-3.837 1.609-8.841 7.355-19.203 44.002-1.919 71.92m13.592-50.732a1.49 1.49 0 0 1 1.693 1.156c5.119 18.927 12.763 38.133 26.051 52.791 4.367 4.745 9.487 8.74 15.251 11.598 2.818 1.493.846 5.745-2.133 4.52-19.526-8.783-30.463-29.099-37.1-48.454-2.156-6.512-3.904-13.086-4.997-19.904a1.49 1.49 0 0 1 1.235-1.707"
  />
  <path
    fill="#000"
    d="M78.675 318.503c6.638 19.356 17.575 39.671 37.101 48.454 2.979 1.225 4.951-3.027 2.133-4.52-5.764-2.858-10.884-6.853-15.251-11.598-13.288-14.658-20.932-33.864-26.051-52.79a1.49 1.49 0 0 0-2.928.55c1.093 6.818 2.841 13.392 4.996 19.904"
  />
  <path
    fill="#000"
    d="M310.658 284.148c-1.813-2.118-5.297-.052-4.264 2.574 2.129 5.445 4.677 11.664 10.113 14.686 1.514.892 3.323-.931 2.385-2.446-3.3-4.79-4.702-10.3-8.234-14.814"
  />
</svg>
