<svg xmlns="http://www.w3.org/2000/svg" width="272" height="344" fill="none" viewBox="0 0 272 344"><path fill="#3F3F3F" d="M192.502 330.769c0 7.046-39.923 12.771-89.163 12.771s-89.163-5.715-89.163-12.771c0-7.055 39.923-12.77 89.163-12.77s89.163 5.715 89.163 12.77"/><path fill="#101010" d="M155.462 295.15c-14.622 1.972-27.833.501-42.195-1.031-.62-.07-.991-.72-1.171-1.271s-.14-1.081.341-1.551c1.341-1.311 1.841-1.721 4.023-1.681 4.794.09 9.858.81 14.922.95 18.395.521 34.598-2.171 50.622-11.079 4.493-2.492 5.654-5.054 8.617-8.697-.12.04-.04.02-.04.06s0-.03.02.06c.02.08.06.211.09.351s.11.54.13.67.04.31.04.37c-.09 2.352-.561 4.404-1.381 6.596-.441 1.161-.991 2.272-1.592 3.413-9.978 6.315-20.837 11.279-32.426 12.84"/><path fill="#3F3F3F" d="M87.546 97.348q-.33 0-.66-.09a2.496 2.496 0 0 1-1.752-3.072c12.54-45.848 33.227-82.588 50.301-89.354 4.274-1.69 8.347-1.48 11.77.621a2.504 2.504 0 1 1-2.612 4.273c-2.082-1.28-4.474-1.35-7.306-.23-13.251 5.245-33.758 36.48-47.309 86.01a2.5 2.5 0 0 1-2.412 1.842z"/><path fill="#DCEDF1" d="m227.851 138.442-43.876 151.404s-13.801 29.184-91.034 13.281c-57.648-11.869-67.115-39.862-66.695-43.796.08-.78 26.302-162.623 26.302-162.623"/><path fill="#101010" d="M134.375 310.383c-11.41 0-25.231-1.361-41.945-4.804-59.539-12.26-69.236-41.304-68.676-46.518.08-.791 20.166-124.772 26.312-162.754l4.944.801c-.26 1.601-25.982 160.382-26.292 162.553-.05.981 1.641 8.237 11.059 17.014 8.147 7.586 24.07 17.915 53.654 24.01 71.098 14.632 86.991-9.688 88.202-11.78l43.796-151.144 4.804 1.392-43.926 151.594-.09.18c-.47.991-9.818 19.466-51.862 19.466z"/><path fill="#F1EFE4" d="M235.858 117.905a73 73 0 0 1 9.758-7.216c3.623-2.111 6.855 3.123 3.332 5.415-3.422 1.641-6.885 3.553-10.008 5.735-2.602 1.731-5.384-1.832-3.092-3.934"/><path fill="#F1EFE4" d="M241.663 126.012c6.525-1.782 13.23-2.883 19.906-3.954 2.222-.36 4.464-.68 6.705-.94a3.326 3.326 0 0 1 3.703 2.932c.201 1.711-.95 3.273-2.582 3.643-8.957 1.831-17.934 3.293-27.132 3.293-2.912-.05-3.393-4.244-.6-4.964"/><path fill="#FFFBE8" d="M210.077 198.761c-14.602.63-36.19.63-54.405-6.686-8.647-3.473-19.636 37.881-20.537 56.016-.28 5.595 3.993 10.368 9.578 10.699 0 0 29.804 10.448 47.689 2.802 3.063-6.966 15.763-55.846 17.665-62.831z"/><path fill="#101010" d="M176.209 266.657c-14.742 0-29.564-4.824-31.946-5.635-6.636-.56-11.72-6.345-11.38-13.041.781-15.663 9.358-51.462 18.576-57.367 2.111-1.351 3.913-1.091 5.054-.63 17.814 7.156 39.042 7.156 53.464 6.525.72-.03 1.411.28 1.861.851.45.56.601 1.311.41 2.001-.33 1.211-.99 3.683-1.861 6.986-4.324 16.314-13.311 50.251-15.923 56.166-.23.521-.651.941-1.181 1.171-5.124 2.192-11.099 2.983-17.094 2.983zm-21.578-72.53c-.15 0-.38.06-.73.29-5.635 3.613-15.473 33.088-16.504 53.784-.22 4.344 3.133 8.077 7.456 8.327.21.01.421.05.611.12.29.1 28.243 9.738 45.207 3.203 2.872-7.576 11.559-40.343 15.352-54.675.411-1.541.771-2.912 1.071-4.043-14.682.49-34.898.02-52.273-6.966a.4.4 0 0 0-.2-.04z"/><path fill="#7A42C8" d="M194.614 147.66c.45 2.131-.27 3.452-.991 5.504-1.721 4.894-3.583 10.058-5.875 14.832-3.252 6.746-7.296 13.271-11.539 19.336-1.962 2.802-4.023 5.134-6.165 7.576-1.191 1.361-2.412 2.222-3.773 3.223-.811.6-1.682.911-2.532 1.251-.841.34-1.722.43-2.522.52-.791.09-1.532-.05-2.192-.16s-1.121-.34-1.632-.58-.79-.491-1.171-.821c-.38-.33-.66-.7-.93-1.131-.27-.43-.531-.911-.651-1.421-.19-.841-.4-1.681-.33-2.542.26-2.943 1.101-5.775 1.871-8.587.381-1.411.721-2.692.821-4.134.1-1.441.11-2.872-.38-4.263-.481-1.391-1.081-2.632-2.432-3.473-1.341-.841-2.802-1.411-4.504-.901-6.465 1.942-9.137 10.229-15.092 12.331-5.955 2.101-7.917-5.045-14.102-3.033-3.102 1.011-6.575 3.863-9.438 6.115-2.872 2.252-5.944 5.194-8.737 7.586-1.311 1.121-2.542 2.062-3.923 2.933-.88.56-1.811.87-2.722 1.231-.59.23-1.231.3-1.752.35-.53.05-.84-.01-1.27-.09s-.721-.2-1.091-.39a3.7 3.7 0 0 1-.991-.691c-.32-.31-.59-.56-.841-1.011-.26-.46-.54-.921-.71-1.531-.17-.611-.38-1.321-.4-2.062-.01-.75-.091-1.601.16-2.382.43-1.321.77-2.452 1.59-3.703.831-1.251 1.952-2.472 3.033-3.713s2.562-2.622 3.653-3.923c2.202-2.632 4.714-5.434 6.435-8.297 3.453-5.765 5.975-11.529 7.637-17.945.61-2.351.67-4.383.02-6.765-.651-2.382-2.052-4.163-4.214-5.655-1.261-.86-2.962-1.281-4.694-1.541s-3.993-.13-5.814.18c-1.822.3-3.473.801-5.205 1.431a50 50 0 0 0-5.184 2.252c-3.223 1.642-6.485 3.323-9.638 4.944-2.692 1.381-5.204 2.662-7.967 3.763-.6.241-1.18.441-1.76.601-1.252.35-2.543.64-3.784.81-.76.101-1.521.091-2.202.031a6.2 6.2 0 0 1-1.731-.431 5.5 5.5 0 0 1-1.492-.851c-.47-.37-.79-.67-1.16-1.191-.37-.52-.701-.97-.961-1.691-.26-.71-.5-1.461-.58-2.382s-.14-2.142.02-3.152.4-2.202.88-3.103c.63-1.201 1.501-2.302 2.412-3.183 2.982-2.892 6.615-4.583 9.258-7.846 2.382-2.942 2.612-6.025 2.742-9.878.07-1.952-.86-4.474-1.561-6.405.54 0 .95-.08 1.52.04 1.012.23 1.612.26 2.693.71 1.451.601 1.611.881 3.283 1.772 4.924 2.632 2.702 2.632 10.238 6.085s32.947 11.599 41.164 13.761 6.215 1.992 12.45 3.093 6.035 1.14 14.562 2.642c8.527 1.501 26.932 3.853 37.441 3.853 1.951 0 2.422.69 2.732 2.112z"/><path fill="#101010" d="M160.706 202.434c-.791 0-1.481-.12-2.011-.21-1.041-.17-1.732-.5-2.292-.77-.911-.431-1.402-.871-1.832-1.251a7.2 7.2 0 0 1-1.381-1.672c-.34-.55-.761-1.291-.971-2.192l-.04-.19c-.21-.911-.44-1.931-.34-3.122.25-2.843.991-5.525 1.701-8.117l.25-.911c.391-1.451.661-2.492.741-3.653.08-1.101.1-2.252-.25-3.262-.42-1.221-.791-1.792-1.391-2.172-1.211-.761-1.862-.791-2.452-.621-2.652.801-4.664 3.143-6.806 5.625-2.302 2.672-4.674 5.434-8.177 6.675-4.123 1.452-7.015-.38-9.127-1.721-2.012-1.271-3.143-1.912-5.034-1.291-2.452.801-5.545 3.233-8.027 5.194l-.65.511c-1.742 1.371-3.613 3.042-5.415 4.663a182 182 0 0 1-3.232 2.863c-1.482 1.271-2.823 2.272-4.214 3.152-.94.591-1.861.951-2.682 1.261l-.45.181c-.921.36-1.792.45-2.432.51a6.3 6.3 0 0 1-1.912-.11c-.78-.14-1.291-.36-1.841-.641a6.3 6.3 0 0 1-1.592-1.111c-.41-.4-.86-.83-1.28-1.581l-.06-.1c-.271-.48-.651-1.141-.892-2.012l-.04-.16c-.18-.64-.42-1.521-.44-2.522v-.33c-.03-.761-.06-1.792.29-2.872l.09-.271c.41-1.271.841-2.582 1.792-4.023.82-1.241 1.841-2.402 2.832-3.523l.41-.47c.51-.581 1.101-1.191 1.702-1.812.67-.69 1.361-1.411 1.911-2.071l1.091-1.291c1.852-2.192 3.773-4.454 5.115-6.676 3.462-5.785 5.804-11.279 7.356-17.284.53-2.042.53-3.623.03-5.485-.481-1.741-1.472-3.052-3.223-4.253-.731-.5-1.922-.871-3.643-1.131-1.301-.19-3.273-.12-5.034.17-1.511.25-2.973.661-4.754 1.311a49 49 0 0 0-4.914 2.132c-2.172 1.111-4.374 2.232-6.546 3.353l-3.092 1.581c-2.582 1.321-5.254 2.692-8.177 3.863-.7.28-1.36.511-2.021.691a31 31 0 0 1-4.114.88c-.87.121-1.811.131-2.782.04-.94-.09-1.621-.3-2.372-.58a7.8 7.8 0 0 1-2.162-1.241c-.62-.5-1.12-.961-1.641-1.701-.45-.631-.9-1.271-1.261-2.272-.31-.861-.62-1.822-.72-3.013-.13-1.491-.12-2.762.04-3.773.18-1.141.47-2.622 1.14-3.883a15.4 15.4 0 0 1 2.883-3.813c1.38-1.341 2.842-2.412 4.263-3.453 1.782-1.311 3.473-2.542 4.794-4.173 1.852-2.282 2.062-4.694 2.192-8.397.05-1.431-.78-3.703-1.381-5.365l-1.281-3.513 3.633.05h.34c.41-.02.98-.04 1.691.111.23.05.44.09.64.13.711.14 1.432.28 2.473.71 1.05.441 1.571.751 2.172 1.111.33.2.72.441 1.33.761 2.233 1.191 3.173 1.931 4.014 2.582 1 .791 1.952 1.531 6.095 3.433 7.366 3.373 32.597 11.469 40.763 13.621 3.013.791 4.654 1.271 5.855 1.621 2.012.591 2.562.751 6.395 1.421 2.833.501 4.334.781 5.935 1.081 1.922.361 3.964.741 8.627 1.562 9.098 1.601 27.023 3.813 37.001 3.813h.01c3.853 0 4.804 2.332 5.174 4.093.54 2.512-.12 4.274-.761 5.985-.1.28-.21.57-.32.871-1.831 5.204-3.663 10.268-5.985 15.082-2.982 6.185-6.926 12.801-11.739 19.686-1.962 2.802-3.954 5.074-6.065 7.486l-.271.311c-1.291 1.471-2.602 2.442-3.873 3.372l-.29.21c-.981.731-1.952 1.111-2.812 1.462l-.271.11c-1.161.47-2.271.59-3.172.68-.28.03-.551.04-.811.04zm-9.688-33.237c1.892 0 3.433.791 4.524 1.481 2.042 1.281 2.892 3.133 3.463 4.774.65 1.872.62 3.713.51 5.265-.12 1.731-.54 3.262-.901 4.613l-.25.921c-.68 2.482-1.331 4.834-1.541 7.226-.04.41.09.951.23 1.581l.04.2c.02.071.08.251.33.641.171.28.311.44.471.59.34.301.4.351.57.431.491.23.691.33.971.37.591.1 1.091.18 1.521.14.691-.08 1.331-.14 1.852-.35l.28-.11c.661-.26 1.231-.491 1.691-.831l.301-.22c1.201-.881 2.151-1.581 3.082-2.642l.27-.31c2.022-2.302 3.924-4.484 5.725-7.056 4.654-6.666 8.467-13.051 11.329-18.996 2.212-4.584 3.994-9.508 5.775-14.572.12-.34.24-.65.35-.96.561-1.502.781-2.152.551-3.193l-.03-.13h-.27c-10.269 0-28.584-2.262-37.861-3.893-4.684-.821-6.746-1.211-8.677-1.572-1.582-.3-3.083-.58-5.885-1.071-4.104-.72-4.814-.93-6.926-1.551-1.171-.34-2.782-.81-5.725-1.591-8.246-2.172-33.727-10.319-41.574-13.912-4.684-2.141-5.915-3.112-7.105-4.043-.741-.58-1.432-1.121-3.283-2.112a46 46 0 0 1-1.551-.88c-.4-.24-.671-.401-1.091-.601.26 1.091.43 2.192.39 3.243-.15 4.313-.49 7.896-3.303 11.359-1.731 2.142-3.763 3.623-5.724 5.064-1.342.981-2.603 1.902-3.733 3.003a10.6 10.6 0 0 0-1.942 2.552c-.36.68-.56 1.921-.62 2.322-.07.42-.12 1.201 0 2.542.05.58.2 1.081.44 1.741.13.351.28.571.6 1.031.23.33.36.451.72.751.281.22.501.35.822.47.43.16.69.24 1.09.28.58.06 1.121.05 1.612-.02 1.01-.14 2.182-.39 3.453-.75.48-.13.97-.301 1.5-.521 2.713-1.081 5.275-2.392 7.757-3.663l3.083-1.581c2.171-1.121 4.383-2.252 6.555-3.363a50 50 0 0 1 5.465-2.372c2.051-.75 3.853-1.251 5.654-1.551 2.302-.39 4.764-.46 6.596-.18 1.591.24 3.913.69 5.744 1.951 2.712 1.872 4.424 4.174 5.215 7.056.74 2.692.74 5.175 0 8.057-1.682 6.485-4.194 12.39-7.917 18.595-1.541 2.582-3.603 5.004-5.585 7.346l-1.07 1.271c-.661.791-1.422 1.571-2.152 2.332-.54.561-1.081 1.121-1.541 1.641l-.42.481c-.922 1.041-1.782 2.021-2.413 2.962-.58.881-.84 1.692-1.21 2.813l-.09.29c-.08.24-.07.73-.05 1.161v.4c.02.36.14.821.27 1.261l.05.18c.07.25.19.481.41.851l.06.11c.06.11.1.16.37.41.13.131.2.181.43.301.27.14.31.14.41.16.411.07.441.08.581.06.38-.04.82-.08 1.081-.18l.49-.19c.691-.271 1.282-.501 1.812-.831 1.201-.761 2.322-1.601 3.633-2.722a171 171 0 0 0 3.153-2.783c1.871-1.671 3.793-3.402 5.664-4.874l.641-.5c2.942-2.322 6.275-4.954 9.578-6.025 4.223-1.371 7.135.48 9.267 1.821 1.992 1.262 3.023 1.842 4.774 1.231 2.242-.79 4.093-2.942 6.045-5.214 2.392-2.782 5.104-5.935 9.158-7.146.71-.21 1.391-.31 2.031-.31z"/><path fill="#7A42C8" d="M43.46 179.605c.6-.621 1.11-1.341 1.571-2.062.38-.59.71-1.211.991-1.851.35-.801.66-1.642.89-2.482.191-.681.311-1.381.441-2.072.37-1.912.83-3.393 1.652-5.094.41-.841 1.27-3.913-.53-3.643-3.214.47-6.086 1.261-9.148 2.292-2.072.7-3.984 1.721-5.575 3.232-2.432 2.302-3.343 5.965-2.502 9.178.42 1.601 1.371 3.032 2.722 3.983.73.521 1.551.891 2.442 1.071 1.001.2 1.932.16 2.923-.04.77-.16 1.53-.51 2.191-.921.701-.43 1.352-.991 1.922-1.581z"/><path fill="#101010" d="M37.735 184.78c-.61 0-1.21-.06-1.811-.181a8.7 8.7 0 0 1-3.393-1.481c-1.811-1.271-3.122-3.192-3.703-5.394-1.1-4.184.16-8.747 3.203-11.63 1.751-1.661 3.873-2.892 6.495-3.783 3.563-1.211 6.515-1.951 9.578-2.402 1.3-.19 2.512.29 3.252 1.281 1.652 2.242-.08 5.885-.1 5.925-.7 1.451-1.1 2.702-1.44 4.484l-.06.3c-.12.631-.241 1.281-.431 1.952-.25.92-.59 1.871-1.011 2.832a16 16 0 0 1-1.18 2.212c-.662 1.031-1.242 1.781-1.873 2.442-.77.8-1.58 1.471-2.422 1.991-1.01.621-2.021 1.041-3.002 1.241-.73.151-1.421.221-2.102.221zm8.868-19.526c-2.012.41-4.094.99-6.466 1.801-1.921.651-3.453 1.531-4.663 2.682-1.712 1.622-2.432 4.324-1.802 6.726.28 1.061.9 1.981 1.742 2.572.47.33.97.56 1.48.66.621.121 1.202.111 1.942-.04.4-.08.881-.29 1.381-.6.47-.29.961-.701 1.432-1.181.4-.42.79-.941 1.28-1.691.3-.461.571-.971.801-1.502.32-.74.58-1.461.77-2.141.131-.481.231-1.011.341-1.562l.06-.32c.4-2.082.901-3.673 1.702-5.404"/><path fill="#7A42C8" d="M73.925 180.697c.45-2.052 1.581-3.994 2.993-5.535.82-.901 8.306-5.624 10.378-7.016.24-.16.56 0 .57.291.28 4.593.03 9.548-1.981 13.731-1.541 3.193-5.865 8.367-9.818 5.625-.66-.461-1.171-1.101-1.531-1.812-.871-1.721-.991-3.533-.611-5.264z"/><path fill="#101010" d="M78.429 191.055c-1.331 0-2.622-.41-3.783-1.221-.961-.661-1.762-1.611-2.342-2.732-1.071-2.112-1.351-4.504-.821-6.936.51-2.322 1.781-4.704 3.583-6.686.64-.71 2.422-1.941 8.297-5.754 1.07-.701 1.991-1.291 2.532-1.662a2.87 2.87 0 0 1 2.872-.19 2.89 2.89 0 0 1 1.602 2.402c.38 6.265-.32 11.019-2.232 14.972-1.121 2.332-4.074 6.556-7.967 7.577-.59.15-1.17.23-1.751.23zm7.025-18.725c-2.311 1.501-6.104 3.973-6.735 4.563-1.171 1.291-2.022 2.853-2.342 4.334-.29 1.311-.15 2.522.39 3.603.2.39.45.7.73.891.471.33.882.4 1.412.26 1.691-.451 3.733-2.853 4.734-4.914 1.12-2.332 1.721-5.205 1.822-8.737z"/><path fill="#7A42C8" d="M5.67 155.575c1.56-.991 3.482-1.481 5.334-1.561 1.07-.05 8.687 1.711 10.848 2.142.25.05.35.35.18.54-2.702 3.033-5.964 5.955-9.837 7.286-2.953 1.021-8.888 1.521-9.628-2.662-.12-.691-.04-1.421.18-2.092.53-1.611 1.601-2.812 2.922-3.653"/><path fill="#101010" d="M7.9 167.185c-1.67 0-3.402-.3-4.843-1.141-1.611-.951-2.632-2.432-2.962-4.283-.19-1.061-.09-2.202.27-3.313.68-2.042 2.041-3.763 3.953-4.974 1.821-1.151 4.143-1.842 6.565-1.952.891-.05 2.703.301 8.818 1.632 1.11.24 2.061.45 2.632.56a2.837 2.837 0 0 1 1.551 4.664c-3.723 4.173-7.186 6.705-10.889 7.986-1.2.411-3.102.831-5.094.831zm3.114-10.669c-1.462.07-2.913.481-4.004 1.181-.94.591-1.571 1.381-1.891 2.332-.11.321-.14.621-.1.861.07.41.23.65.57.851 1.241.73 3.963.51 5.775-.11 1.991-.681 3.993-1.952 6.085-3.844-2.362-.51-5.725-1.221-6.446-1.261z"/><path fill="#DCEDF1" d="M229.643 135.35c-1.872 12.41-43.026 13.821-91.926 3.152-48.9-10.668-87.031-29.374-85.17-41.784 1.872-12.41 43.026-13.821 91.926-3.152 48.9 10.668 87.031 29.384 85.17 41.794z"/><path fill="#101010" d="M196.155 148.21c-16.273 0-36.84-2.432-58.978-7.266-44.036-9.608-89.533-28.503-87.111-44.606.39-2.562 1.911-4.784 4.533-6.586 12.1-8.336 48.43-7.786 90.404 1.372 44.036 9.607 89.534 28.503 87.112 44.606-.391 2.562-1.912 4.784-4.534 6.585-5.715 3.944-16.854 5.895-31.426 5.895M86.205 88.912c-14.272 0-24.3 1.881-28.763 4.964-1.442.99-2.252 2.072-2.422 3.212-.55 3.623 4.994 10.499 22.168 18.926 15.913 7.806 37.59 14.922 61.05 20.046 44.676 9.748 77.333 8.457 86.501 2.142 1.441-.991 2.251-2.072 2.422-3.213.54-3.623-4.995-10.498-22.169-18.925-15.913-7.806-37.59-14.922-61.05-20.046-22.928-5.005-42.685-7.096-57.737-7.096z"/><path fill="#DCEDF1" d="M196.235 137.151c-15.973 0-36.109-2.473-56.706-6.966-48.56-10.599-73.47-25.761-77.934-31.836 2.622-1.371 9.718-3.443 24.36-3.443 15.973 0 36.109 2.472 56.706 6.966 43.616 9.517 68.156 22.718 75.933 29.714 1.08.971.69 2.762-.701 3.193-3.763 1.181-10.529 2.372-21.668 2.372z"/><path fill="#101010" d="M196.235 139.653c-16.143 0-36.47-2.492-57.237-7.026-47.999-10.469-74.19-25.681-79.415-32.797l-1.721-2.352 2.582-1.351c2.142-1.121 8.917-3.723 25.52-3.723s36.471 2.492 57.238 7.026c55.675 12.15 75.051 28.473 77.073 30.294a4.38 4.38 0 0 1 1.341 4.184 4.38 4.38 0 0 1-2.972 3.253c-3.623 1.13-10.459 2.482-22.409 2.482zM66.109 99.37c7.996 6.675 31.666 19.145 73.96 28.373 20.427 4.453 40.373 6.915 56.166 6.915 10.529 0 16.674-1.1 19.827-1.941-7.937-6.535-31.406-19.106-73.931-28.383-20.427-4.454-40.373-6.916-56.166-6.916-10.339 0-16.484 1.05-19.856 1.962z"/><path fill="#7A42C8" d="M198.117 135.55c3.323 0 6.235-.11 8.817-.29 19.386-.831 2.502-11.88-32.326-19.486-20.597-4.494-77.574-12.301-93.547-12.301-3.323 0-6.235.111-8.817.291 11.68 7.266 34.338 17.214 69.176 24.81 20.597 4.494 40.734 6.966 56.707 6.966z"/><path fill="#101010" d="M198.117 138.052c-16.143 0-36.47-2.492-57.237-7.026-41.084-8.967-62.611-20.557-69.957-25.131l-6.566-4.083 7.707-.54c2.822-.2 5.844-.301 8.997-.301 16.163 0 73.07 7.767 94.077 12.351 7.226 1.581 43.255 9.928 42.445 19.325-.401 4.664-7.767 4.974-10.539 5.095-2.752.19-5.775.29-8.927.29zM81.341 105.986c10.739 5.454 30.135 13.511 60.61 20.156 24.35 5.314 48.059 7.806 64.813 6.625 3.122-.13 4.704-.52 5.454-.8-2.472-2.672-14.722-8.627-38.141-13.741-20.196-4.404-76.773-12.15-92.736-12.24"/><path fill="#101010" d="M52.738 275.494c13.12 7.977 26.101 11.24 40.723 14.692.64.151 1.201-.36 1.571-.77s.45-.981.23-1.592c-.61-1.691-1.05-2.301-3.112-3.022-4.514-1.591-10.098-2.672-14.862-4.263-17.284-5.765-32.977-15.243-42.595-30.706C32 245.5 31.8 242.407 31.13 237.794c.06.06 0 .02 0 .05-.01.03.02-.03-.03.03s-.15.16-.24.27-.36.46-.44.57-.17.26-.2.31c-1.082 2.172-1.522 4.264-1.772 6.656a36 36 0 0 0-.16 3.903c5.594 11.009 14.071 19.566 24.47 25.891z"/><path fill="#101010" d="M162.488 7.535c-.09-.05-5.125-3.013-6.596-3.784-1.881-.99-4.093-3.002-6.655-3.542-5.094-1.071-9.418 2.081-10.689 7.175-1.201 4.854 3.163 7.777 6.685 10.059 1.902 1.23 3.954 2.091 5.905 3.232 1.562.911 3.083 1.892 4.624 2.833 13.831 8.477 24.63 12.21 38.342 20.757 3.232 2.021 8.086 1.22 10.668-1.612 2.943-3.222 2.602-10.088-.91-12.76-3.383-2.572-10.319-5.775-13.582-7.806m11.89 14.832c0 .08.01.16.02.24.06 1.741-1.361 2.822-2.902 3.122-1.652.33-2.332-.27-3.633-1.12-17.745-11.65-33.608-17.635-51.853-28.504-1.531-.91-.3-3.623.711-4.484 1.011-.87 2.052-1.791 3.333-1.15 3.613 1.811 5.924 3.292 9.738 5.504 5.304 3.073 10.808 5.835 16.243 8.677 5.915 3.103 11.84 6.195 17.714 9.368 3.133 1.681 10.209 4.083 10.619 8.347z"/><path fill="#3F3F3F" d="M167.542 144.276a2.504 2.504 0 0 1-1.902-4.123c34.218-40.033 44.977-81.126 39.593-95.398-.831-2.212-1.982-3.433-3.423-3.643a2.5 2.5 0 0 1-2.122-2.833 2.487 2.487 0 0 1 2.832-2.121c2.322.33 5.495 1.791 7.396 6.825 5.605 14.853-3.382 57.027-40.463 100.413-.49.58-1.201.88-1.901.88z"/><path fill="#D5C3EE" d="M202.17 36.919c0 .08.01.16.02.24.06 1.741-1.361 2.822-2.902 3.122-1.652.33-2.332-.27-3.633-1.12-17.745-11.65-33.608-17.635-51.853-28.504-1.531-.91-.3-3.623.711-4.484 1.011-.87 2.052-1.791 3.333-1.15 3.613 1.81 5.924 3.292 9.738 5.504 5.304 3.073 10.808 5.835 16.243 8.677 5.915 3.103 11.84 6.195 17.714 9.368 3.133 1.681 10.209 4.083 10.619 8.347z"/><path fill="#FF7B00" d="m220.895 130.175 34.729-46.088c3.463-4.594 3.122-11.19-1.121-15.062-4.844-4.424-12.39-3.623-16.243 1.49l-48.09 63.813s0 .08.04.08h22.209c3.332 0 6.475-1.561 8.486-4.233z"/><path fill="#101010" d="M212.419 136.901H190.21c-.95 0-1.851-.561-2.282-1.412-.42-.85-.33-1.911.241-2.672l48.089-63.822a13.56 13.56 0 0 1 9.558-5.314c3.793-.35 7.566.92 10.378 3.483 5.085 4.643 5.715 12.74 1.432 18.425l-34.729 46.087a13.18 13.18 0 0 1-10.478 5.225m-17.285-5.004h17.285a8.17 8.17 0 0 0 6.485-3.233l34.728-46.088c2.743-3.643 2.392-8.787-.81-11.71a8.4 8.4 0 0 0-6.536-2.191 8.54 8.54 0 0 0-6.025 3.342z"/><path fill="#DCEDF1" d="M248.418 77.282c-.05-.4-.28-.85-.611-1.09-.35-.261-.8-.431-1.241-.351-.41.07-.84.26-1.09.61a158 158 0 0 1-5.875 7.677 122 122 0 0 1-1.752 2.101c-.27.32-.4.821-.35 1.241.05.4.28.851.611 1.091.35.26.8.43 1.241.35.43-.07.81-.27 1.09-.61a151 151 0 0 0 7.627-9.788c.26-.36.41-.79.35-1.241z"/><path fill="#101010" d="M239.13 91.433c-.86 0-1.731-.29-2.502-.85-.86-.631-1.481-1.702-1.621-2.813-.14-1.13.21-2.312.931-3.162a155 155 0 0 0 7.506-9.628c.61-.851 1.571-1.431 2.712-1.622 1.071-.18 2.182.11 3.133.801.86.63 1.481 1.701 1.621 2.802.13 1.041-.16 2.112-.801 3.013-.54.75-1.081 1.501-1.641 2.242a161 161 0 0 1-6.105 7.696 4.27 4.27 0 0 1-2.592 1.461c-.21.04-.42.05-.631.05z"/></svg>