<svg xmlns="http://www.w3.org/2000/svg" width="278" height="394" fill="none" viewBox="0 0 278 394"><path fill="#3F3F3F" d="M257.395 382.795c0 6.183-53.11 11.205-118.636 11.205s-118.636-5.012-118.636-11.205c0-6.192 53.11-11.204 118.636-11.204s118.636 5.012 118.636 11.204"/><path fill="#fff" d="M19.392 306.556S8.258 313.838 3.266 317.55z"/><path fill="#F1EFE4" d="M20.763 308.646a754 754 0 0 0-7.903 5.663c-2.611 1.9-5.242 3.831-7.703 5.782a3.17 3.17 0 0 1-4.472-.5c-1.14-1.431-.82-3.562.69-4.592 2.781-1.911 5.532-3.652 8.303-5.392a706 706 0 0 1 8.344-5.152 2.505 2.505 0 0 1 2.74 4.191"/><path fill="#F1EFE4" d="M26.995 313.288c-5.472 7.393-11.984 13.726-18.787 19.828-3.211 2.671-7.413-1.691-4.632-4.792 1.55-1.65 3.151-3.261 4.762-4.842 4.832-4.732 9.724-9.473 15.046-13.665 2.28-1.781 5.282 1.13 3.601 3.461"/><path fill="#F1EFE4" d="M247.482 34.549c6.322-2.401 12.885-4.152 19.427-5.853 2.181-.57 4.372-1.11 6.583-1.59 1.8-.39 3.581.75 3.971 2.55.36 1.681-.63 3.342-2.221 3.872-8.733 2.691-17.516 5.012-26.67 5.892-2.901.23-3.791-3.891-1.08-4.881"/><path fill="#F1EFE4" d="M267.639 8.859a2.85 2.85 0 0 0-3.021-.9c-.71.22-1.2.68-1.76 1.13-.391.31-.781.62-1.171.94l-2.251 1.8c-1.5 1.201-2.991 2.392-4.492 3.592l-4.491 3.592c-1.631 1.3-3.322 2.56-4.832 4.001-.77.73-1.521 1.5-2.321 2.191l-2.431 2.09c-.53.451-.44 1.361-.04 1.842.44.53 1.23.67 1.821.29.84-.54 1.67-1.07 2.511-1.61.8-.511 1.64-.971 2.471-1.451a38 38 0 0 0 2.431-1.501l2.35-1.63c3.172-2.201 6.343-4.402 9.504-6.603.891-.61 1.771-1.23 2.661-1.841.43-.3.851-.59 1.281-.89.22-.15.44-.31.66-.46.1-.07.21-.14.31-.21.52-.37.8-.71 1.161-1.241l.26-.69c.02-.25.05-.5.07-.76-.02-.63-.27-1.211-.671-1.691z"/><path fill="#F1EFE4" d="M251.413 2.196c-.64-2.08-3.881-3.081-5.342-1.2-.09.12-.18.23-.27.35-2.061 2.66-3.051 6.462-4.632 9.453-1.05 1.991-1.981 4.032-2.951 6.063-.54 1.14-1.081 2.28-1.621 3.411-.13.27-.16.54-.11.8 0 .19-.01.38-.02.57-.02.59.68.851 1.131.59.12-.07.25-.14.37-.21.24-.06.46-.17.59-.35 1.331-1.77 2.671-3.54 4.002-5.301 2.701-3.582 6.172-7.493 8.323-11.395.33-.6.6-1.26.63-1.95.01-.29-.03-.57-.11-.841z"/><path fill="#D69200" d="M183.747 16.692c-23.3-3.491-40.206 7.093-45.588 11.064a5.27 5.27 0 0 0-2.091 3.582l-31.863 251.088a5.3 5.3 0 0 0 3.992 5.812l36.244 8.924a5.28 5.28 0 0 0 6.113-3.011l10.584-24.05a5.286 5.286 0 0 1 6.032-3.031l25.53 5.852a5.3 5.3 0 0 1 4.112 5.173l-.03 27.28a5.3 5.3 0 0 0 4.141 5.172l37.515 8.403c3.441.771 6.663-1.98 6.443-5.502L228.214 47.154c-.05-.88-.32-1.72-.79-2.47-3.102-4.983-16.537-23.94-43.677-28.002zm18.907 54.992L155.576 61.65a5.3 5.3 0 0 1-4.172-5.682l1.37-14.326c.151-1.55.941-2.981 2.241-3.842 16.377-10.854 47.599-3.36 53.751 11.925.801-.77.551 9.824.29 16.977-.12 3.291-3.181 5.672-6.402 4.982"/><path fill="#101010" d="M239.618 321.601c-.57 0-1.15-.06-1.73-.19l-37.515-8.403c-3.591-.801-6.092-3.942-6.092-7.623l.03-27.281c0-1.31-.891-2.431-2.171-2.731l-25.53-5.852a2.794 2.794 0 0 0-3.181 1.6l-10.585 24.05a7.785 7.785 0 0 1-9.003 4.431l-36.244-8.923a7.79 7.79 0 0 1-5.873-8.553l31.863-251.089a7.8 7.8 0 0 1 3.091-5.282c6.313-4.652 23.579-15.096 47.439-11.524 27.931 4.181 41.836 23.369 45.438 29.151a7.8 7.8 0 0 1 1.16 3.632l16.666 266.294c.161 2.471-.84 4.812-2.721 6.422a7.75 7.75 0 0 1-5.042 1.871m-73.628-57.152c.58 0 1.16.06 1.74.2l25.53 5.852a7.754 7.754 0 0 1 6.053 7.613l-.03 27.281c0 1.32.9 2.441 2.181 2.731l37.514 8.403a2.79 2.79 0 0 0 3.402-2.901L225.713 47.334c-.03-.47-.17-.91-.42-1.3-3.311-5.323-16.116-22.99-41.927-26.851-22.638-3.392-39.195 7.253-43.727 10.604-.6.44-1 1.13-1.1 1.89l-31.863 251.099a2.803 2.803 0 0 0 2.101 3.071l36.244 8.924a2.785 2.785 0 0 0 3.232-1.591l10.584-24.049a7.81 7.81 0 0 1 7.143-4.662zm37.774-190.145c-.54 0-1.09-.06-1.63-.17L155.045 64.1a7.793 7.793 0 0 1-6.132-8.363l1.37-14.326c.221-2.35 1.441-4.421 3.342-5.682 9.043-5.992 23.389-7.233 36.544-3.141 9.964 3.091 17.357 8.623 20.488 15.256 1.151.93 1.441 3.611.89 18.957a7.75 7.75 0 0 1-2.991 5.863 7.77 7.77 0 0 1-4.792 1.65zM174.463 35.17c-6.943 0-13.375 1.61-18.077 4.722-.63.42-1.051 1.16-1.131 1.99l-1.37 14.326a2.805 2.805 0 0 0 2.201 3.001l47.088 10.034a2.79 2.79 0 0 0 2.301-.53 2.76 2.76 0 0 0 1.071-2.1c.37-10.285.25-14.006.14-15.327l-.251-.62c-2.25-5.582-8.883-10.554-17.746-13.315a48.2 48.2 0 0 0-14.226-2.181"/><path fill="#D69200" d="M181.746 14.691c-23.299-3.491-40.206 7.093-45.588 11.065a5.27 5.27 0 0 0-2.091 3.581l-31.862 251.088a5.3 5.3 0 0 0 3.991 5.813l36.244 8.923a5.28 5.28 0 0 0 6.113-3.011l10.584-24.049a5.286 5.286 0 0 1 6.032-3.032l25.53 5.853a5.3 5.3 0 0 1 4.112 5.172l-.03 27.28a5.3 5.3 0 0 0 4.142 5.172l37.514 8.404c3.442.77 6.663-1.981 6.443-5.502L226.213 45.153c-.05-.88-.32-1.72-.79-2.47-3.101-4.983-16.537-23.94-43.677-28.002zm18.907 54.992-47.078-10.034a5.3 5.3 0 0 1-4.172-5.682l1.371-14.326c.15-1.55.94-2.981 2.241-3.841 16.376-10.855 47.598-3.362 53.751 11.924.8-.77.55 9.824.29 16.977-.12 3.291-3.182 5.672-6.403 4.982"/><path fill="#101010" d="M237.618 319.6c-.571 0-1.151-.06-1.731-.19l-37.515-8.403c-3.591-.8-6.092-3.942-6.092-7.623l.03-27.281c0-1.31-.89-2.431-2.171-2.731l-25.53-5.852c-1.3-.3-2.641.37-3.181 1.601l-10.584 24.049a7.79 7.79 0 0 1-9.004 4.432l-36.244-8.924a7.8 7.8 0 0 1-5.872-8.553l31.862-251.088a7.82 7.82 0 0 1 3.091-5.283c6.313-4.651 23.58-15.095 47.439-11.524 27.931 4.182 41.836 23.37 45.438 29.151a7.8 7.8 0 0 1 1.16 3.632l16.667 266.294a7.77 7.77 0 0 1-2.721 6.423 7.73 7.73 0 0 1-5.032 1.87zm-73.629-57.152c.58 0 1.16.06 1.74.2l25.531 5.852a7.755 7.755 0 0 1 6.052 7.613l-.03 27.281c0 1.32.9 2.441 2.181 2.731l37.514 8.403c.861.19 1.751-.02 2.421-.6a2.82 2.82 0 0 0 .981-2.301L223.712 45.333c-.03-.47-.17-.91-.42-1.3-3.311-5.323-16.116-22.99-41.926-26.851-22.639-3.391-39.196 7.253-43.727 10.604a2.8 2.8 0 0 0-1.101 1.89l-31.862 251.099a2.8 2.8 0 0 0 2.1 3.071l36.245 8.924c1.32.33 2.681-.34 3.231-1.591l10.584-24.049a7.81 7.81 0 0 1 7.143-4.662zm37.775-190.144c-.541 0-1.091-.06-1.631-.17l-47.078-10.035a7.793 7.793 0 0 1-6.133-8.363l1.371-14.325c.22-2.351 1.44-4.422 3.341-5.683 9.054-6.002 23.399-7.233 36.544-3.14 9.964 3.09 17.357 8.623 20.488 15.255 1.151.93 1.441 3.611.891 18.957a7.75 7.75 0 0 1-2.992 5.863 7.77 7.77 0 0 1-4.791 1.65zm-29.302-39.136c-6.943 0-13.375 1.61-18.077 4.722-.63.42-1.05 1.16-1.13 1.99l-1.371 14.326a2.805 2.805 0 0 0 2.201 3.002l47.078 10.034a2.82 2.82 0 0 0 2.311-.53 2.75 2.75 0 0 0 1.071-2.102c.37-10.284.25-14.005.14-15.326l-.25-.62c-2.251-5.582-8.884-10.554-17.747-13.315a48.2 48.2 0 0 0-14.226-2.18"/><path fill="#101010" d="M217.97 261.017c-.56 0-1.13-.06-1.691-.18l-92.646-20.288a7.75 7.75 0 0 1-6.062-8.603l18.947-148.438a7.84 7.84 0 0 1 3.231-5.382 7.8 7.8 0 0 1 6.153-1.25l66.446 14.385a7.816 7.816 0 0 1 6.142 7.253l7.253 154.35a7.7 7.7 0 0 1-2.761 6.322 7.7 7.7 0 0 1-5.012 1.841zm-.62-5.072c.85.19 1.73-.03 2.401-.59.67-.57 1.03-1.391.99-2.271l-7.253-154.35a2.8 2.8 0 0 0-2.201-2.601l-66.446-14.386c-.77-.17-1.56 0-2.201.45-.65.46-1.06 1.14-1.16 1.93l-18.947 148.439a2.776 2.776 0 0 0 2.18 3.081l92.647 20.288z"/><path fill="#FFB921" d="M183.747 16.692c-24.37-3.651-41.747 8.093-46.249 11.565a5.2 5.2 0 0 0-1.67 2.21l-101.54 253.8c-1.19 2.991.53 6.342 3.652 7.113l34.913 8.603a5.28 5.28 0 0 0 6.113-3.011l10.574-24.02a5.3 5.3 0 0 1 6.072-3.021l34.424 8.143a5.3 5.3 0 0 1 3.831 6.743l-6.943 22.129c-.93 2.961.871 6.082 3.892 6.752l37.615 8.424a5.29 5.29 0 0 0 6.352-4.152l52.961-270.066a5.27 5.27 0 0 0-.77-3.921c-3.822-5.862-17.237-23.4-43.227-27.29m11.694 61.894-50.83-10.474c-3.191-.66-5.042-4.021-3.881-7.072l7.863-20.689a5.35 5.35 0 0 1 1.941-2.49c16.406-11.455 51.98-3.612 58.222 11.864.901-.88-4.511 16.677-7.182 25.25a5.29 5.29 0 0 1-6.123 3.601z"/><path fill="#101010" d="M169.601 324.763c-.57 0-1.15-.06-1.721-.191l-37.614-8.423a7.86 7.86 0 0 1-5.052-3.711 7.77 7.77 0 0 1-.681-6.233l6.943-22.128c.24-.751.15-1.541-.24-2.221a2.77 2.77 0 0 0-1.791-1.341l-34.423-8.143a2.79 2.79 0 0 0-3.201 1.591l-10.575 24.019a7.79 7.79 0 0 1-9.003 4.432l-34.914-8.604a7.802 7.802 0 0 1-5.372-10.474l101.54-253.8c.52-1.3 1.37-2.43 2.461-3.27 4.922-3.782 22.929-15.837 48.149-12.055 27.2 4.071 41.286 22.769 44.947 28.401a7.8 7.8 0 0 1 1.131 5.772L177.224 318.45a7.74 7.74 0 0 1-3.391 5.032 7.7 7.7 0 0 1-4.242 1.271zm-75.22-57.473c.59 0 1.201.07 1.801.21l34.424 8.143a7.83 7.83 0 0 1 4.982 3.732 7.84 7.84 0 0 1 .66 6.192l-6.943 22.129c-.24.76-.15 1.55.24 2.231a2.76 2.76 0 0 0 1.811 1.33l37.615 8.424c.74.17 1.5.03 2.141-.391.64-.42 1.07-1.06 1.21-1.8l52.961-270.066c.14-.72 0-1.46-.41-2.08-3.382-5.193-16.367-22.42-41.497-26.181-23.269-3.482-39.835 7.593-44.357 11.074-.38.29-.68.7-.87 1.16l-101.54 253.8c-.3.76-.27 1.581.11 2.311s1.02 1.24 1.82 1.44l34.914 8.604a2.79 2.79 0 0 0 3.232-1.591l10.574-24.019a7.8 7.8 0 0 1 7.133-4.662zM196.533 81.197a7.8 7.8 0 0 1-1.591-.16l-50.83-10.474a7.8 7.8 0 0 1-5.722-10.404l7.863-20.688a7.83 7.83 0 0 1 2.851-3.652c9.244-6.452 24.86-7.763 39.766-3.32 10.874 3.23 18.787 8.872 21.868 15.535 1.211 1.18.6 3.251-2.001 12.025-1.54 5.232-3.461 11.414-4.791 15.676a7.78 7.78 0 0 1-7.423 5.472zm-25.17-46.288c-7.693 0-14.676 1.71-19.398 5.002-.47.33-.83.79-1.04 1.33l-7.863 20.689c-.29.78-.24 1.61.16 2.34s1.07 1.221 1.89 1.391l50.83 10.474a2.79 2.79 0 0 0 3.232-1.9c4.591-14.686 6.632-21.85 7.082-23.97-2.391-5.342-9.383-10.174-18.817-12.975-5.362-1.6-10.884-2.381-16.076-2.381"/><path fill="#FFB921" d="M181.746 14.691c-24.37-3.651-41.747 8.094-46.248 11.565a5.2 5.2 0 0 0-1.671 2.21l-101.54 253.8c-1.19 2.991.53 6.343 3.652 7.113l34.913 8.603a5.28 5.28 0 0 0 6.113-3.011l10.574-24.019a5.295 5.295 0 0 1 6.072-3.021l34.424 8.143a5.3 5.3 0 0 1 3.831 6.742l-6.942 22.129c-.931 2.961.87 6.082 3.891 6.753l37.615 8.423a5.29 5.29 0 0 0 6.352-4.152l52.961-270.065a5.27 5.27 0 0 0-.77-3.922c-3.822-5.862-17.237-23.4-43.227-27.29m11.694 61.895-50.83-10.474c-3.191-.66-5.042-4.022-3.881-7.073l7.863-20.688a5.35 5.35 0 0 1 1.941-2.491c16.406-11.455 51.98-3.612 58.223 11.864.9-.88-4.512 16.677-7.183 25.25a5.29 5.29 0 0 1-6.123 3.602z"/><path fill="#101010" d="M167.6 322.762c-.57 0-1.15-.06-1.72-.19l-37.615-8.424a7.86 7.86 0 0 1-5.052-3.711 7.8 7.8 0 0 1-.69-6.233l6.942-22.128c.24-.75.15-1.541-.24-2.221a2.77 2.77 0 0 0-1.79-1.341l-34.424-8.143a2.79 2.79 0 0 0-3.201 1.591l-10.574 24.019a7.79 7.79 0 0 1-9.004 4.432l-34.914-8.603a7.8 7.8 0 0 1-5.372-10.474l101.54-253.8a7.77 7.77 0 0 1 2.461-3.271c4.922-3.782 22.929-15.836 48.149-12.055 27.201 4.072 41.286 22.769 44.948 28.401a7.8 7.8 0 0 1 1.13 5.773l-52.961 270.065a7.74 7.74 0 0 1-3.391 5.032 7.7 7.7 0 0 1-4.242 1.271zm-75.22-57.473c.591 0 1.201.07 1.802.21l34.423 8.144a7.83 7.83 0 0 1 4.982 3.731 7.84 7.84 0 0 1 .66 6.192l-6.943 22.129c-.24.75-.15 1.551.251 2.231.4.68 1.04 1.16 1.81 1.33l37.615 8.424c.74.16 1.501.03 2.141-.39a2.76 2.76 0 0 0 1.21-1.801l52.961-270.066c.14-.72 0-1.46-.41-2.08-3.381-5.193-16.367-22.42-41.496-26.18-23.279-3.492-39.836 7.592-44.358 11.073-.38.29-.68.7-.87 1.16l-101.54 253.8c-.3.761-.27 1.581.11 2.311s1.02 1.241 1.82 1.441l34.915 8.603a2.8 2.8 0 0 0 3.23-1.591l10.575-24.019a7.8 7.8 0 0 1 7.133-4.662zM194.532 79.196c-.53 0-1.061-.05-1.591-.16l-50.83-10.474a7.8 7.8 0 0 1-5.262-3.881 7.77 7.77 0 0 1-.45-6.523l7.863-20.688a7.83 7.83 0 0 1 2.851-3.651c9.244-6.453 24.86-7.764 39.766-3.322 10.874 3.231 18.787 8.874 21.878 15.536 1.211 1.18.601 3.252-2 12.025-1.541 5.232-3.462 11.414-4.792 15.676a7.78 7.78 0 0 1-7.423 5.472zm-25.17-46.288c-7.693 0-14.676 1.71-19.398 5.002-.47.33-.83.79-1.04 1.33l-7.864 20.69c-.3.78-.24 1.61.16 2.34a2.75 2.75 0 0 0 1.891 1.391l50.83 10.474a2.79 2.79 0 0 0 3.231-1.9c4.592-14.686 6.632-21.849 7.083-23.97-2.391-5.342-9.384-10.174-18.818-12.975-5.362-1.59-10.884-2.38-16.076-2.38"/><path fill="#FF5F4A" d="M111.298 151.915c-7.373 17.166.4 35.484 17.337 40.836s36.714-4.252 44.087-21.419c7.373-17.166-.4-35.484-17.337-40.836-16.936-5.352-36.714 4.252-44.087 21.419m54.822 2.861c.89 4.542.34 9.403-1.621 13.955-5.402 12.565-19.888 19.608-32.293 15.686-4.491-1.42-8.273-4.181-10.894-7.883l44.798-21.758zm-48.219 13.695c-.891-4.542-.34-9.404 1.62-13.955 5.403-12.565 19.888-19.608 32.293-15.686 4.492 1.42 8.283 4.181 10.894 7.883l-44.797 21.758z"/><path fill="#101010" d="M138.329 196.723c-3.522 0-7.033-.511-10.454-1.591-8.584-2.711-15.326-8.613-18.988-16.607-3.911-8.543-3.871-18.347.1-27.6 7.873-18.308 29.012-28.542 47.139-22.809 8.583 2.711 15.326 8.613 18.987 16.606 3.912 8.544 3.872 18.347-.1 27.601-6.382 14.866-21.528 24.4-36.694 24.4zm-24.73-43.818c-3.411 7.944-3.461 16.307-.15 23.55 3.061 6.692 8.723 11.634 15.946 13.915 15.746 4.972 34.154-4.002 41.036-20.018 3.412-7.943 3.462-16.306.15-23.549-3.061-6.693-8.723-11.635-15.946-13.915-15.746-4.982-34.153 4.001-41.036 20.017m25.71 35.094c-2.641 0-5.282-.38-7.843-1.19-5.012-1.591-9.224-4.642-12.175-8.824l-1.7-2.401 50.359-24.459.621 3.191c1 5.082.38 10.414-1.771 15.426-4.782 11.134-16.126 18.277-27.501 18.277zm-14.015-10.604c2.101 2.121 4.702 3.701 7.683 4.642 11.214 3.541 24.329-2.861 29.241-14.286 1.291-2.991 1.901-6.112 1.821-9.173l-38.735 18.817zm-9.224-5.252-.62-3.191c-1.001-5.082-.38-10.414 1.771-15.426 5.892-13.716 21.748-21.379 35.343-17.077 5.012 1.581 9.224 4.642 12.185 8.823l1.691 2.401-50.36 24.46zm28.571-31.903c-9.413 0-18.827 5.973-22.819 15.266-1.29 2.992-1.9 6.113-1.82 9.174l38.735-18.817c-2.101-2.121-4.712-3.702-7.683-4.642a21.3 21.3 0 0 0-6.413-.981"/><path fill="#101010" d="M165.669 261.228c-.6 0-1.21-.07-1.82-.21l-94.157-22.349a7.8 7.8 0 0 1-5.112-3.982 7.76 7.76 0 0 1-.34-6.462l58.353-148.188a7.785 7.785 0 0 1 8.773-4.792l68.337 13.595a7.8 7.8 0 0 1 4.982 3.342 7.72 7.72 0 0 1 1.13 5.892l-32.523 156.941a7.73 7.73 0 0 1-3.451 4.992 7.7 7.7 0 0 1-4.172 1.221m-.67-5.082c.741.18 1.501.05 2.151-.36a2.8 2.8 0 0 0 1.241-1.791l32.522-156.942c.15-.74 0-1.48-.41-2.11a2.77 2.77 0 0 0-1.791-1.2l-68.336-13.606a2.806 2.806 0 0 0-3.152 1.72L68.872 230.046c-.3.77-.26 1.59.12 2.32a2.76 2.76 0 0 0 1.83 1.431l94.157 22.349z"/></svg>