<svg xmlns="http://www.w3.org/2000/svg" width="370" height="231" fill="none" viewBox="0 0 370 231"><path fill="#000" d="M348.385 81.204c-32.27-10.23-88.059-25-153.121-29.831-14.681-1.093-27.628 9.598-29.452 24.206l-8.514 68.132c-1.788 14.284 7.656 27.547 21.732 30.545 22.103 4.704 56.304 11.8 91.58 18.446.009.027.018.045.027.072 10.889 26.057 36.811 35.546 36.811 35.546s-8.117-10.202-7.909-30.328c2.004.353 4.008.705 5.995 1.057 12.351 2.149 24.603-4.271 29.885-15.638l29.759-64.114c7.043-15.169-.848-33.046-16.784-38.093z"/><path fill="#000" d="M307.439 230.577c-.262 0-.524-.045-.777-.135-1.083-.397-26.292-9.878-37.668-35.736-34.725-6.555-68.294-13.525-90.442-18.238-15.34-3.269-25.443-17.462-23.502-33.037l8.514-68.132c1.986-15.863 15.99-27.357 31.863-26.183 63.897 4.749 118.82 18.897 153.635 29.93a30.02 30.02 0 0 1 18.401 16.514 30 30 0 0 1-.244 24.685l-29.759 64.114c-5.698 12.27-18.988 19.222-32.315 16.911-1.11-.19-2.221-.388-3.331-.578.487 17.218 7.322 26.138 7.394 26.229.623.794.641 1.905.055 2.726a2.26 2.26 0 0 1-1.824.93M193.197 53.549c-12.686 0-23.538 9.471-25.146 22.31l-8.514 68.132c-1.652 13.218 6.925 25.281 19.963 28.052 22.382 4.759 56.421 11.819 91.525 18.437.768.145 1.4.668 1.68 1.391 7.142 17.1 21.181 26.879 29.298 31.348-2.32-5.255-4.848-13.679-4.731-25.254a2.257 2.257 0 0 1 2.646-2.203c2.004.352 3.999.704 5.995 1.048 11.322 1.968 22.608-3.946 27.448-14.365l29.759-64.114a25.42 25.42 0 0 0 .207-20.965 25.54 25.54 0 0 0-15.629-14.031c-34.589-10.961-89.141-25.019-152.605-29.732a27 27 0 0 0-1.896-.072z"/><path fill="#A17AD8" d="M343.184 73.972c-32.269-10.23-88.058-25-153.12-29.831-14.681-1.093-27.629 9.598-29.452 24.206l-8.515 68.132c-1.787 14.284 7.657 27.547 21.733 30.544 22.102 4.705 56.304 11.801 91.579 18.446.009.028.019.046.028.073 10.888 26.057 36.81 35.546 36.81 35.546s-8.117-10.202-7.909-30.328c2.004.352 4.009.705 5.995 1.057 12.352 2.149 24.604-4.271 29.886-15.638l29.759-64.114c7.042-15.169-.849-33.046-16.785-38.093z"/><path fill="#000" d="M302.238 223.346c-.262 0-.524-.046-.776-.136-1.084-.397-26.301-9.877-37.669-35.736-34.734-6.564-68.294-13.525-90.442-18.238-15.34-3.26-25.443-17.462-23.493-33.037l8.514-68.132c1.987-15.863 15.972-27.348 31.854-26.183 63.906 4.749 118.82 18.897 153.635 29.93a30.02 30.02 0 0 1 18.401 16.514 30 30 0 0 1-.244 24.685l-29.759 64.114c-5.697 12.27-18.988 19.222-32.314 16.911-1.111-.19-2.221-.388-3.332-.578.488 17.218 7.323 26.139 7.395 26.229.623.794.641 1.905.054 2.727-.433.595-1.12.93-1.824.93M187.996 46.316c-12.685 0-23.538 9.472-25.145 22.311l-8.514 68.132c-1.653 13.227 6.925 25.281 19.953 28.053 22.374 4.758 56.422 11.818 91.526 18.436a2.24 2.24 0 0 1 1.679 1.391c7.142 17.091 21.182 26.879 29.299 31.348-2.321-5.255-4.849-13.679-4.731-25.254 0-.659.307-1.291.812-1.715a2.25 2.25 0 0 1 1.833-.488c2.004.352 4 .705 5.995 1.048 11.322 1.959 22.608-3.937 27.448-14.365l29.759-64.114a25.43 25.43 0 0 0 .208-20.965 25.55 25.55 0 0 0-15.629-14.03c-34.581-10.962-89.133-25.02-152.606-29.733a27 27 0 0 0-1.896-.072z"/><path fill="#A17AD8" d="M343.184 73.972c-32.269-10.23-88.058-25-153.12-29.831-14.681-1.093-27.629 9.598-29.452 24.206l-8.515 68.132c-1.787 14.284 7.657 27.547 21.733 30.544 22.102 4.705 56.304 11.801 91.579 18.446.009.028.019.046.028.073 10.888 26.057 36.81 35.546 36.81 35.546s-8.117-10.202-7.909-30.328c2.004.352 4.009.705 5.995 1.057 12.352 2.149 24.604-4.271 29.886-15.638l29.759-64.114c7.042-15.169-.849-33.046-16.785-38.093z"/><path fill="#000" d="M302.238 223.346c-.262 0-.524-.046-.776-.136-1.084-.397-26.301-9.877-37.669-35.736-34.734-6.564-68.294-13.525-90.442-18.238-15.34-3.26-25.443-17.462-23.493-33.037l8.514-68.132c1.987-15.863 15.972-27.348 31.854-26.183 63.906 4.749 118.82 18.897 153.635 29.93a30.02 30.02 0 0 1 18.401 16.514 30 30 0 0 1-.244 24.685l-29.759 64.114c-5.697 12.27-18.988 19.222-32.314 16.911-1.111-.19-2.221-.388-3.332-.578.488 17.218 7.323 26.139 7.395 26.229.623.794.641 1.905.054 2.727-.433.595-1.12.93-1.824.93M187.996 46.316c-12.685 0-23.538 9.472-25.145 22.311l-8.514 68.132c-1.653 13.227 6.925 25.281 19.953 28.053 22.374 4.758 56.422 11.818 91.526 18.436a2.24 2.24 0 0 1 1.679 1.391c7.142 17.091 21.182 26.879 29.299 31.348-2.321-5.255-4.849-13.679-4.731-25.254 0-.659.307-1.291.812-1.715a2.25 2.25 0 0 1 1.833-.488c2.004.352 4 .705 5.995 1.048 11.322 1.959 22.608-3.937 27.448-14.365l29.759-64.114a25.43 25.43 0 0 0 .208-20.965 25.55 25.55 0 0 0-15.629-14.03c-34.581-10.962-89.133-25.02-152.606-29.733a27 27 0 0 0-1.896-.072z"/><path fill="#000" d="m160.612 68.347-8.515 68.132a27.56 27.56 0 0 0 1.31 12.487c32.684-14.519 53.983-42.183 51.681-72.195-.912-11.945-5.472-22.942-12.794-32.459-.74-.054-1.481-.117-2.221-.18-14.681-1.093-27.628 9.598-29.452 24.206z"/><path fill="#000" d="M153.398 151.223c-.307 0-.614-.063-.903-.19a2.25 2.25 0 0 1-1.237-1.336 29.65 29.65 0 0 1-1.409-13.498l8.514-68.132c1.987-15.863 16-27.357 31.854-26.183l2.23.18c.641.045 1.228.37 1.617.876 7.864 10.22 12.324 21.543 13.254 33.66 2.293 29.894-18.518 59.111-53.008 74.433-.289.127-.605.19-.912.19m9.453-82.596-8.514 68.132c-.38 3.07-.217 6.103.496 9.065 31.321-14.79 50.092-41.596 47.998-68.881-.84-10.916-4.786-21.155-11.729-30.464l-1.201-.1c-13.48-1.01-25.362 8.768-27.041 22.239z"/><path fill="#D5C3EE" d="M199.833 72.347c-3.169-41.352-49.93-71.481-104.437-67.3S-.724 46.136 2.444 87.488c1.914 24.991 19.764 45.884 45.614 57.586-2.998 21.29-15.629 31.303-15.629 31.303 22.996-2.213 38.644-15.151 41.713-23.241 10.356 1.896 21.38 2.519 32.73 1.653 54.507-4.181 96.121-41.091 92.952-82.443z"/><path fill="#000" d="M32.43 178.626a2.26 2.26 0 0 1-1.41-4.027c.028-.018 3.025-2.456 6.339-7.341 2.88-4.252 6.564-11.249 8.198-20.865-26.59-12.559-43.51-34.418-45.379-58.742-1.59-20.721 7.503-40.973 25.597-57.017 17.922-15.9 42.58-25.787 69.432-27.845 26.851-2.059 52.728 3.955 72.862 16.929 20.333 13.1 32.405 31.727 33.994 52.449 1.589 20.72-7.503 40.973-25.597 57.017-17.922 15.9-42.58 25.786-69.432 27.845-10.69.821-21.299.361-31.583-1.373-2.329 4.425-7.232 9.246-13.507 13.201-5.923 3.728-15.81 8.46-29.316 9.751-.072 0-.145.009-.217.009zm73.106-171.72c-3.305 0-6.627.126-9.977.388C69.682 9.281 45.972 18.77 28.78 34.011 11.762 49.098 3.211 68.03 4.683 87.308c1.77 23.132 18.338 43.952 44.296 55.699a2.27 2.27 0 0 1 1.31 2.375c-1.915 13.561-7.549 22.716-11.693 27.826 19.358-3.737 31.204-14.987 33.434-20.874a2.26 2.26 0 0 1 2.519-1.418c10.428 1.914 21.254 2.456 32.151 1.616 25.877-1.986 49.587-11.475 66.778-26.716 17.019-15.087 25.569-34.02 24.089-53.297s-12.821-36.685-31.935-49c-16.821-10.834-37.858-16.604-60.105-16.604z"/><path fill="#000" d="M48.076 51.364c2.78-2.266 5.977-2.98 9.228-3.982a154 154 0 0 1 9.615-2.519 162 162 0 0 1 6.465-1.4c22.617-4.496 46.056-5.092 68.98-2.916 3.16.38 6.709.587 9.751 1.67a1.9 1.9 0 0 1-.388 3.685c-3.756.487-7.701-.217-11.421-.533-3.052-.172-8.271-.497-11.295-.632a3047 3047 0 0 0-9.688-.154l-6.456.145c-15.024.406-30.084 2.13-44.756 5.345a152 152 0 0 0-9.354 2.338c-3.115.813-6.067 2.086-9.354 2.167-1.742.18-2.727-2.094-1.327-3.214"/><path fill="#000" d="M230.287 148.252c19.936 1.427 39.61 5.291 58.742 10.998a188 188 0 0 1 18.78 6.771 1.56 1.56 0 0 1 .831 2.032 1.554 1.554 0 0 1-1.833.894c-15.783-4.091-31.926-8.144-47.898-11.449-9.327-1.905-19.701-3.946-29.01-5.553-2.293-.388-1.959-3.783.397-3.684z"/><path fill="#000" d="M215.074 127.378c8.613.054 17.073 1.074 25.551 2.383 16.857 2.7 33.561 6.321 50.002 10.916 8.234 2.221 16.36 4.849 24.432 7.575a1.794 1.794 0 0 1-1.083 3.422l-6.122-1.688c-22.382-6.248-45.126-11.268-68.077-14.952-7.278-1.192-17.814-2.853-24.974-4.117-2.113-.352-1.923-3.503.271-3.53z"/><path fill="#000" d="M76.237 65.016c7.16-3.115 14.88-4.163 22.5-5.345 22.915-3.08 46.453-2.005 69.016 2.97a1.766 1.766 0 0 1 1.364 2.077 1.766 1.766 0 0 1-1.987 1.381c-3.774-.415-7.521-.993-11.286-1.354-18.753-2.167-37.722-2.393-56.466-.109-7.53.74-14.925 2.61-22.5 3.052-1.517.109-2.077-2.058-.65-2.663z"/><path fill="#000" d="M140.866 78.315c7.647-.822 15.322.434 22.689 2.456a1.885 1.885 0 0 1 1.273 2.347 1.896 1.896 0 0 1-2.086 1.337c-3.656-.497-7.286-1.02-10.943-1.436-3.232-.38-7.846-.822-10.997-1.381-1.878-.325-1.805-3.07.064-3.323"/><path fill="#fff" d="M2.426 14.716s9.03-8.478 16.216-12.406z"/><path fill="#000" d="M1.207 13.416C6.327 8.558 11.428 4.008 17.56.324c2.6-1.445 4.821 2.32 2.284 3.891-2.871 1.508-5.67 3.413-8.397 5.436a129 129 0 0 0-7.828 6.365c-1.734 1.49-4.036-.993-2.42-2.61z"/><path fill="#fff" d="M3.32 30.94S16.44 16.369 34.045 7.873z"/><path fill="#000" d="M2.083 29.83c6.33-7.611 13.95-13.95 22.301-19.231 2.772-1.788 5.716-3.305 8.704-4.722a2.22 2.22 0 0 1 2.953 1.047 2.22 2.22 0 0 1-1.03 2.943c-8.388 4.343-16.161 9.806-23.366 15.918a172 172 0 0 0-7.133 6.311C3.004 33.478.8 31.42 2.083 29.83"/><path fill="#000" d="M345.54 193.108a5.1 5.1 0 0 1 2.799-.542c1.003.09 2.005.433 2.998 1.038s1.761 1.337 2.293 2.194c.533.858.804 1.77.795 2.745q0 1.462-.867 2.871c-.578.939-1.3 1.635-2.158 2.077a5.13 5.13 0 0 1-2.799.542c-1.002-.091-2.004-.434-2.997-1.039q-1.493-.907-2.294-2.194c-.532-.857-.803-1.769-.794-2.744q0-1.463.867-2.872c.577-.939 1.291-1.634 2.157-2.076m9.372-17.814c.65-1.056 1.436-1.797 2.366-2.203s1.914-.524 2.961-.352c1.039.171 2.077.578 3.115 1.21 1.607.984 2.691 2.185 3.26 3.611s.352 2.953-.632 4.569a10 10 0 0 1-1.49 1.851l-9.137 9.227-5.49-3.359 4.172-12.64a8.8 8.8 0 0 1 .875-1.923z"/></svg>