<svg xmlns="http://www.w3.org/2000/svg" width="480" height="480" fill="none" viewBox="0 0 480 480">
  <path
    fill="#AD5400"
    d="M304.312 249.591q-2.798.038-5.503.077c-19.604 1.624-35.266 3.947-47.16 6.207 8.663 1.062 13.712 1.879 13.862 1.903a2.5 2.5 0 0 1 2.094 2.443l1.295 135.854 29.91 7.854z"
  />
  <path
    fill="#FF7B00"
    d="M344.394 252.92a620 620 0 0 0-31.733-3.439l-3.344.043-5.516 154.725 31.13-4.389c3.891-54.432 9.27-133.552 9.463-146.94"
  />
  <path
    fill="#FF7B00"
    d="M389.653 261.463c-6.462-1.702-13.272-3.19-20.097-4.491l-10.299 139.46 16.412-2.314z"
  />
  <path
    fill="#DB00F8"
    d="M327.039 98.854a.18.18 0 0 0-.16-.085.2.2 0 0 0-.08.015l-33.353 12.871c-.016.018-.067.276.105.659 1.951 4.351 4.179 7.484 6.494 9.724a879 879 0 0 1 22.431 2.495c3.567-1.828 6.01-4.268 7.246-7.311 3.05-7.51-1.699-16.618-2.683-18.368m-12.366 21.547a3.26 3.26 0 0 1-1.922 1.755 4.3 4.3 0 0 1-1.398.254c-2.578 0-3.717-2.874-4.372-4.526l-.423-1.048c-.9-2.194-2.404-5.868 1.014-7.445a3.44 3.44 0 0 1 2.726-.095c1.82.718 2.625 2.689 3.556 4.972 1.023 2.509 1.554 4.511.819 6.133m9.061-2.723a3.3 3.3 0 0 1-2.599.061c-1.64-.652-2.654-2.447-3.672-4.943-.857-2.1-1.744-4.273-.905-6.094a3.38 3.38 0 0 1 2.035-1.803c3.52-1.165 5.085 2.682 6.022 4.979.89 2.181 2.545 6.24-.881 7.8"
  />
  <path
    fill="#000"
    d="M301.321 93.253a1.9 1.9 0 0 0-.075-1.186 1.896 1.896 0 0 0-2.475-1.044c-.211.085-2.078.894-2.592 2.856-.248.943-.239 2.44 1.167 4.238l.01.017.008.01.019.025c.037.047.083.08.123.123a3.16 3.16 0 0 0 2.401 1.086c.777 0 1.544-.26 2.176-.738.822-.621 1.331-1.57 1.361-2.541a2.9 2.9 0 0 0-1.017-2.303 2.64 2.64 0 0 0-1.106-.543"
  />
  <path
    fill="#000"
    d="M289.678 96.741a1.88 1.88 0 0 0-.074-1.188 1.9 1.9 0 0 0-2.475-1.043c-.211.085-2.078.895-2.592 2.857-.248.943-.239 2.441 1.168 4.239l.008.013.007.007.021.03c.066.083.143.149.219.218a3.2 3.2 0 0 0 2.318.988c.745 0 1.51-.24 2.165-.735.82-.622 1.329-1.572 1.36-2.54a2.92 2.92 0 0 0-1.021-2.307 2.64 2.64 0 0 0-1.104-.539"
  />
  <path
    fill="#000"
    d="M318.596 104.898a3.38 3.38 0 0 0-2.035 1.803c-.839 1.821.047 3.994.905 6.094 1.017 2.496 2.032 4.291 3.672 4.943a3.3 3.3 0 0 0 2.598-.061c3.427-1.56 1.772-5.619.882-7.8-.937-2.297-2.503-6.144-6.022-4.979"
  />
  <path
    fill="#000"
    d="M310.299 109.297a3.43 3.43 0 0 0-2.725.095c-3.419 1.577-1.914 5.251-1.015 7.445l.423 1.048c.655 1.651 1.794 4.525 4.372 4.525.425 0 .89-.079 1.398-.254a3.26 3.26 0 0 0 1.922-1.755c.736-1.622.204-3.624-.819-6.132-.931-2.284-1.735-4.254-3.556-4.972"
  />
  <path
    fill="#F295FF"
    d="M229.639 117.522q9.282.3 17.977.719c.399-.325.789-.662 1.165-1.022 1.755-1.672 3.18-3.727 4.341-6.026a1.493 1.493 0 0 1 2.79.993c-.485 2.215-1.415 4.378-2.712 6.335 14.685.777 28.007 1.774 39.83 2.851a40 40 0 0 1-4.041-7.014c-.685-1.528-.744-3.216-.162-4.63a4.93 4.93 0 0 1 2.819-2.738l28.185-10.877-.005-.001c-5.754-1.8-8.545-7.661-11.021-12.547a1.44 1.44 0 0 1 .704-1.932c1.445-.53 2.544 1.11 3.533 1.894 2.924 2.8 4.452 6.672 8.444 7.876 1.437.51 3.144.797 4.682 1.004 1.261.285 2.194.862 2.881 1.642-.255-2.52-1.002-5.052-1.928-7.403-.664-1.566-1.462-3.07-2.434-4.357-1.184-1.584-2.883-2.78-3.743-4.592-1.555-2.792-1.612-6.294-1.987-8.824-7.828-.806-16.597-1.332-24.642.243a39.5 39.5 0 0 1 8.23 3.823c1.29.76 2.483 1.709 3.248 3.141.621 1.103-.432 2.483-1.651 2.213-2.779-.481-4.835-2.45-7.424-3.405a34.5 34.5 0 0 0-7.634-2.32c-10.825-1.631-21.778.296-31.023 5.011l.007.003c1.025.461.851 2.076-.242 2.307-2.747.772-5.418.27-8.12.26-2.698-.09-5.4-.1-8.099-.087-8.29.084-16.56.653-24.752 1.859-.287 1.255-.272 2.638-.342 4.143-.106 3.031-.168 6.542-1.227 9.782-2.163 5.564-3.175 11.708-1.059 17.418a9.6 9.6 0 0 0 2.104 3.827c4.461.112 8.901.257 13.308.431m38.952-35.467c-.342.4-1.028.94-1.431 1.317-.446.408-.746.752-1.133.886l-1.126.39a2.24 2.24 0 0 1-2.851-1.382c-1.294-3.296 6.879-7.102 7.386-3.049.081.74-.415 1.322-.845 1.838m21.852 20.072a3.6 3.6 0 0 1-2.165.735 3.2 3.2 0 0 1-2.318-.988c-.076-.068-.153-.135-.219-.218l-.021-.03-.007-.007-.008-.013c-1.407-1.798-1.416-3.296-1.168-4.239.514-1.962 2.381-2.771 2.592-2.857a1.9 1.9 0 0 1 2.475 1.044c.16.393.173.806.074 1.187.412.1.794.273 1.104.54a2.92 2.92 0 0 1 1.021 2.306c-.031.969-.539 1.918-1.36 2.54m11.641-3.489a3.62 3.62 0 0 1-2.314.736 3.16 3.16 0 0 1-2.263-1.084c-.041-.042-.086-.076-.123-.122l-.019-.026-.009-.01-.009-.016c-1.406-1.798-1.415-3.295-1.167-4.238.514-1.962 2.38-2.772 2.591-2.857a1.897 1.897 0 0 1 2.476 1.044c.16.393.172.806.074 1.187.413.1.796.275 1.107.543a2.9 2.9 0 0 1 1.017 2.302c-.03.971-.539 1.92-1.361 2.541"
  />
  <path
    fill="#000"
    d="M262.049 83.266a2.24 2.24 0 0 0 2.851 1.383l1.125-.39c.388-.135.688-.479 1.133-.887.404-.376 1.09-.917 1.432-1.317.43-.515.926-1.098.845-1.838-.507-4.053-8.681-.247-7.386 3.049"
  />
  <path
    fill="#000"
    d="M289.031 59.267c1.699.891 5.056 1.484 6.338.202 2.773-2.773-5.831-6.428-7.315-3.216a2.24 2.24 0 0 0 .977 3.014"
  />
  <path
    fill="#AD5400"
    d="M164.209 250.98c.058-.005.114-.019.172-.02q4.49-.052 8.89-.036l15.77-2.184-9.748-118.537c-4.398 10.672-7.283 16.585-8.585 17.569-1.44 1.087-21.364 8.922-40.07 16.159l12.237 91.201 3.357-.465c12.067-2.876 17.43-3.629 17.847-3.684.043-.006.087 0 .13-.003"
  />
  <path
    fill="#FF7B00"
    d="m311.042 213.972 41.426-7.523.173-18.713c-12.22 2.898-24.575 5.233-37.054 6.694-1.98.19-2.64-2.625-.788-3.334 12.182-4.359 25.025-6.566 37.883-7.737l.055-5.966-48.06 8.727zm5.144-12.233c1.877-.904 3.821-1.575 5.788-2.165 4.964-1.403 10.099-2.261 15.276-2.3 1.802.067 5.291-.307 5.039 2.493-.121.974-.896 1.671-1.814 1.799-7.771 1.385-15.567 3.182-23.505 3.505a1.753 1.753 0 0 1-.784-3.332"
  />
  <path
    fill="#FF7B00"
    d="M280.214 145.72c-20.227-1.376-81.726-1.495-82.345-1.496-.866 0-1.668-.45-2.124-1.187l-11.977-19.408 10.227 124.36c3.03-.359 8.677-.776 19.474-1.25 18.859-.827 58.193-1.96 138.649-2.68l.301-32.519-42.838 7.779q-.225.041-.449.04a2.5 2.5 0 0 1-2.434-1.943l-7.481-32.732a2.503 2.503 0 0 1 1.991-3.016l51.574-9.366.178-19.187c-15.84-2.184-41.496-5.271-72.746-7.395"
  />
  <path
    fill="#000"
    d="M316.967 205.071c7.939-.323 15.735-2.121 23.505-3.505.918-.128 1.693-.825 1.814-1.799.252-2.8-3.236-2.426-5.038-2.493-5.177.039-10.313.896-15.276 2.3-1.968.589-3.912 1.261-5.789 2.164a1.753 1.753 0 0 0 .784 3.333"
  />
  <path
    fill="#FF7B00"
    d="M262.626 262.393c-4.081-.609-13.968-1.992-27.717-3.325l-.733 15.02a2.5 2.5 0 0 1-2.497 2.378h-.048l-25.594-.485a2.5 2.5 0 0 1-2.452-2.535l.236-16.678c-11.406-.583-23.869-.928-36.902-.828l.453 158.663 40.679-6.042v-16.084c0-1.066.675-2.015 1.683-2.363l24.412-8.43a2.504 2.504 0 0 1 3.304 2.11l2.04 20.097 24.45-3.632z"
  />
  <path
    fill="#AD5400"
    d="M128.49 357.142c3.983.655 7.973-.509 11.238-3.279 4.4-3.732 6.926-9.812 6.931-16.683.005-7.177-2.679-13.618-7.367-17.673-2.864-2.478-6.23-3.787-9.647-3.787q-.97 0-1.941.141c-8.224 1.204-14.429 10.33-14.124 20.778.301 10.339 6.711 19.153 14.91 20.503m-7.965-22.513 5.48-8.679c.518-.821 1.191-1.304 2-1.437.836-.137 1.602.131 2.282.794l7.62 7.425c.647.631 1.017 1.482 1.102 2.531.085 1.044-.142 1.948-.674 2.687-.549.759-1.295 1.18-2.221 1.25-.924.075-1.706-.224-2.349-.877l-1.629-1.653.72 8.669c.083 1.006-.135 1.875-.651 2.582-.535.737-1.252 1.12-2.131 1.14l-.067.001c-.828 0-1.555-.336-2.161-1-.593-.65-.936-1.47-1.018-2.438l-.705-8.312-1.14 1.725c-.473.718-1.13 1.114-1.953 1.178-.812.062-1.516-.22-2.092-.845-.538-.586-.851-1.36-.933-2.303s.094-1.762.52-2.438"
  />
  <path
    fill="#AD5400"
    d="m105.123 401.245 57.248 13.116-.451-157.945c-7.021 1.288-27.613 5.606-67.324 17.914zm21.855-90.331c5.525-.805 11.06.898 15.583 4.811 5.787 5.005 9.102 12.826 9.096 21.458-.005 8.341-3.176 15.81-8.698 20.493-3.59 3.045-7.862 4.646-12.274 4.646q-1.498.001-3.009-.247c-10.517-1.731-18.727-12.604-19.096-25.29-.382-13.159 7.527-24.281 18.398-25.871"
  />
  <path
    fill="#000"
    d="m380.682 394.257 14.168-134.394a2.5 2.5 0 0 0-1.826-2.673c-12.807-3.505-27.113-6.161-40.323-8.135l1.918-.018a2.5 2.5 0 0 0 2.478-2.476l.859-92.743c7.853 1.132 12.257 1.891 12.382 1.913a2.5 2.5 0 0 0 2.545-1.131 2.5 2.5 0 0 0-.081-2.784l-15.11-21.178c-.014-.019-.031-.033-.045-.051a3 3 0 0 0-.204-.233q-.052-.057-.106-.111a2.6 2.6 0 0 0-.332-.254l-.034-.025a2.6 2.6 0 0 0-.419-.206c-.044-.017-.091-.026-.136-.04-.086-.028-.171-.059-.261-.078-.242-.049-9.252-1.846-25.715-4.074.075-.274.156-.547.223-.824a17.5 17.5 0 0 0 3.694-5.639c2.75-6.774.858-14.034-1.033-18.671 1.546-5.162.048-10.754-1.823-15.625-.797-1.859-1.756-3.675-3.036-5.364-.973-1.457-2.526-2.426-3.388-3.968-1.173-2.082-1.119-4.862-1.574-7.476-.137-.581-.238-1.275-.905-2.231-.552-.834-1.786-1.433-2.838-1.426-9.964-.882-20.297-1.187-29.976 1.877l-1.414.529c-.516.241-1.078.42-1.541.707-12.708-1.595-26.028 1.715-36.652 8.82l-.306-.02c-2.75-.154-5.501-.226-8.253-.273-8.611-.103-17.256.297-25.813 1.392-4.128.416-3.838 5.627-4.029 8.512-.16 3.422-.245 6.39-1.42 9.314-1.819 4.839-2.836 10.068-1.956 15.275.441 2.224.926 4.442 1.857 6.487a747 747 0 0 0-26.181-.028l-.023.003c-1.05.007-2.097.012-3.155.021l-.017.002c-.063.001-.124.014-.187.019a2 2 0 0 0-.16.02l-.026.003c-.043.007-.087.007-.129.016-.089.019-.175.056-.263.086-.073.025-.149.042-.22.074l-.004.001-55.418 24.973c-.238.107-.449.25-.636.417l-.021.017c-.187.17-.343.368-.469.583q-.007.01-.016.019l-13.819 24.122a2.499 2.499 0 0 0 3.064 3.577c4.003-1.535 8.539-3.278 13.267-5.102l12.199 90.909c-11.282 2.884-26.624 7.156-46.846 13.457a2.5 2.5 0 0 0-1.747 2.594l10.375 125.074c-18.315 3.228-28.948 6.992-28.823 10.916.333 10.477 77.207 18.128 171.702 17.09s170.829-10.372 170.496-20.849c-.132-4.133-12.181-7.825-32.518-10.719m8.972-132.795-13.985 132.655-16.412 2.314 10.299-139.46c6.826 1.301 13.636 2.789 20.098 4.491m-25.072-5.024-10.391 140.707-14.196 2.002c.697-9.781 2.928-41.276 5.024-72.47 1.475-21.955 2.594-39.47 3.328-52.056.646-11.073 1.012-17.353 1.038-20.979zm-60.779 147.811 5.516-154.724 3.343-.043c6.639.541 18.272 1.62 31.734 3.438-.193 13.388-5.572 92.509-9.463 146.94zm-34.901-8.174-1.295-135.853a2.5 2.5 0 0 0-2.094-2.443c-.15-.025-5.199-.842-13.862-1.904 11.894-2.26 27.556-4.583 47.16-6.206q2.705-.04 5.502-.077l-5.501 154.338zm-62.864-120.094 25.594.485h.049a2.5 2.5 0 0 0 2.496-2.378l.734-15.02c13.749 1.333 23.636 2.716 27.716 3.325l1.315 137.866-24.451 3.632-2.039-20.097a2.5 2.5 0 0 0-3.304-2.11l-24.412 8.43a2.5 2.5 0 0 0-1.684 2.363v16.084l-40.678 6.042-.453-158.663c13.032-.101 25.495.244 36.902.828l-.237 16.678a2.5 2.5 0 0 0 2.452 2.535m2.583-4.952.2-14.075c9.902.32 17.53 1.113 21.112 1.543l-.632 12.923zm25.864 133.054-21.433 3.105v-12.93l19.744-6.817zm118.197-220.725c-12.858 1.172-25.701 3.378-37.884 7.738-1.852.709-1.192 3.524.789 3.333 12.479-1.461 24.834-3.796 37.054-6.694l-.173 18.714-41.427 7.523-6.365-27.852 48.061-8.728zm-22.958-66.136c-1.236 3.043-3.679 5.482-7.246 7.31a879 879 0 0 0-22.431-2.494c-2.315-2.24-4.543-5.373-6.494-9.724-.172-.383-.121-.641-.104-.659l33.352-12.871a.2.2 0 0 1 .08-.015.18.18 0 0 1 .16.085c.984 1.75 5.733 10.858 2.683 18.368M215.287 95.846c1.059-3.24 1.121-6.75 1.227-9.781.07-1.506.055-2.888.343-4.144 8.192-1.205 16.461-1.775 24.752-1.858 2.699-.014 5.4-.004 8.098.086 2.703.01 5.373.512 8.121-.26 1.093-.23 1.267-1.845.242-2.307l-.008-.002c9.246-4.716 20.199-6.643 31.024-5.012a34.6 34.6 0 0 1 7.634 2.32c2.588.955 4.644 2.924 7.424 3.405 1.219.27 2.272-1.11 1.651-2.212-.765-1.433-1.958-2.381-3.249-3.142a39.5 39.5 0 0 0-8.23-3.823c8.046-1.574 16.814-1.048 24.643-.243.375 2.53.432 6.032 1.986 8.825.861 1.811 2.559 3.007 3.744 4.591.972 1.287 1.769 2.791 2.433 4.358.926 2.35 1.673 4.883 1.929 7.403-.688-.78-1.62-1.357-2.882-1.642-1.538-.208-3.245-.495-4.681-1.004-3.992-1.205-5.52-5.076-8.444-7.876-.99-.785-2.088-2.424-3.533-1.895a1.44 1.44 0 0 0-.705 1.933c2.477 4.885 5.268 10.747 11.021 12.546l.005.002-28.184 10.877a4.93 4.93 0 0 0-2.82 2.738c-.582 1.414-.523 3.101.163 4.63a40.2 40.2 0 0 0 4.041 7.014 1051 1051 0 0 0-39.831-2.852c1.297-1.956 2.227-4.12 2.713-6.334a1.494 1.494 0 0 0-2.791-.994c-1.16 2.3-2.585 4.354-4.34 6.026q-.566.538-1.166 1.022c-5.795-.277-11.79-.519-17.977-.718a900 900 0 0 0-13.307-.431 9.55 9.55 0 0 1-2.104-3.828c-2.116-5.709-1.104-11.853 1.058-17.418m138.945 38.552 11.025 15.453c-12.525-1.931-43.883-6.346-84.701-9.12-18.676-1.271-71.969-1.477-81.283-1.503l-10.711-17.357c76.318-.831 155.761 10.999 165.67 12.527m-158.485 8.638a2.5 2.5 0 0 0 2.124 1.188c.619.001 62.118.119 82.345 1.495 31.25 2.124 56.906 5.212 72.746 7.395l-.178 19.188-51.574 9.365a2.5 2.5 0 0 0-1.991 3.017l7.481 32.731a2.5 2.5 0 0 0 2.883 1.904l42.838-7.78-.301 32.52c-80.456.72-119.79 1.853-138.649 2.68-10.797.473-16.444.89-19.474 1.25l-10.227-124.36zM117.343 163.7l9.925-17.323 49.033-22.095c-3.704 9.139-7.466 17.787-8.692 19.528-3.313 1.681-29.634 11.949-50.266 19.89m13.297.232c18.706-7.238 38.63-15.073 40.069-16.16 1.303-.984 4.188-6.897 8.586-17.569l9.748 118.538-15.77 2.183q-4.4-.016-8.89.036c-.059.001-.114.015-.172.02-.043.003-.087-.003-.131.003-.416.055-5.779.808-17.846 3.684l-3.357.465zM94.598 274.329c39.711-12.307 60.303-16.625 67.324-17.914l.451 157.946-57.248-13.116z"
  />
  <path
    fill="#AD5400"
    d="M167.607 143.809c1.226-1.741 4.988-10.388 8.692-19.528l-49.033 22.096-9.925 17.322c20.632-7.94 46.953-18.209 50.266-19.89"
  />
  <path
    fill="#FF7B00"
    d="m365.257 149.85-11.025-15.453c-9.909-1.527-89.352-13.357-165.67-12.526l10.711 17.356c9.314.027 62.607.233 81.283 1.503 40.819 2.775 72.176 7.19 84.701 9.12"
  />
  <path
    fill="#FFB46D"
    d="m208.819 256.954-.2 14.074 20.68.391.632-12.922c-3.582-.431-11.21-1.224-21.112-1.543"
  />
  <path fill="#FFB46D" d="m213.051 407.187 21.432-3.104-1.688-16.643-19.744 6.818z" />
  <path
    fill="#000"
    d="M123.03 340.214c.823-.063 1.48-.46 1.953-1.177l1.14-1.725.705 8.312c.082.967.425 1.788 1.018 2.438.606.663 1.333.999 2.161.999l.067-.001c.879-.019 1.596-.402 2.131-1.14.516-.707.735-1.576.652-2.582l-.721-8.669 1.629 1.654c.643.652 1.426.952 2.349.877.926-.071 1.672-.491 2.221-1.25.532-.74.759-1.644.674-2.688-.085-1.049-.455-1.899-1.102-2.53l-7.62-7.426c-.68-.663-1.446-.93-2.282-.794-.809.133-1.481.616-2 1.438l-5.48 8.678c-.426.676-.602 1.497-.52 2.439s.395 1.717.934 2.303c.575.625 1.279.907 2.091.844"
  />
  <path
    fill="#000"
    d="M127.676 362.075q1.51.248 3.009.247c4.412 0 8.684-1.6 12.274-4.645 5.522-4.684 8.693-12.153 8.698-20.494.006-8.631-3.309-16.453-9.096-21.458-4.523-3.913-10.058-5.616-15.583-4.811-10.871 1.591-18.781 12.713-18.398 25.871.369 12.687 8.579 23.56 19.096 25.29m.026-46.214a13 13 0 0 1 1.941-.141c3.417 0 6.783 1.309 9.647 3.787 4.688 4.054 7.372 10.496 7.367 17.673-.005 6.871-2.531 12.951-6.931 16.683-3.265 2.77-7.255 3.934-11.238 3.278-8.199-1.349-14.609-10.163-14.91-20.503-.304-10.447 5.9-19.573 14.124-20.777"
  />
  <path
    fill="#FFB46D"
    d="m354.189 397.144 10.392-140.707-15.197-2.796c-.027 3.626-.393 9.907-1.039 20.98-.734 12.586-1.853 30.1-3.328 52.055a19672 19672 0 0 1-5.023 72.47z"
  />
</svg>
