<svg xmlns="http://www.w3.org/2000/svg" width="241" height="381" fill="none" viewBox="0 0 241 381"><path fill="#3F3F3F" d="M180.066 368.228c0 7.047-40.307 12.772-90.033 12.772S0 375.285 0 368.228c0-7.056 40.307-12.772 90.033-12.772s90.033 5.716 90.033 12.772"/><path fill="#BE7AEB" d="m76.28 236.828 11.13-21.34 3.574-7.427 3.153-6.306c1.01-2.012 1.942-3.883 2.952-5.865l3.013-5.906 3.714-7.056 11.71-21.76 3.694-6.596 3.213-5.715 2.942-5.255 3.093-5.285 3.293-5.565 3.073-5.285c1.021-1.752 2.072-3.453 3.083-5.135l3.583-5.985c.921-1.532 1.582-2.883 2.583-4.324 2.422-3.494 3.983-6.797 6.456-10.29 1.191-1.691 2.122-3.533 3.213-5.175l3.373-5.074 2.862-4.564 3.363-4.945 3.103-4.764 3.073-4.244 3.263-4.785 2.793-3.873c1.151-1.592 2.432-3.093 3.523-4.735 1.021-1.551 2.042-2.892 3.153-4.334l2.732-3.563 3.614-4.554 3.093-4.064 3.153-3.813 2.922-3.454 8.528-9.638c6.286-7.097 12.932-13.443 20.119-19.549 1.591-1.35 3.102-2.762 4.974-3.773 1.582-.86 3.864.34 5.035 1.431 3.433 3.213-.32 7.707-1.271 9.459l-10.22 18.867c-9.959 18.397-18.897 37.015-26.925 56.362-10.049 24.223-19.758 48.625-28.656 73.338l-47.784 132.642c-2.693 7.487-5.145 14.544-8.508 21.51-4.214 8.728-13.362 12.912-22.73 13.663-6.227.5-12.222-.771-17.967-3.083-10.75-4.314-15.184-14.644-19.568-24.903-4.745-11.1-8.548-22.411-12.702-33.841l-1.321-3.644-10.02-27.966c-1.731-4.844-3.533-9.388-4.724-14.483-.64-2.722-.36-5.865 1.552-8.217s5.745-3.043 8.998-2.793c8.358.631 15.935 3.663 22.74 8.618 7.848 5.715 14.624 12.021 20.96 19.208l11.79 13.372"/><path fill="#101010" d="M87.56 332.706c-5.214 0-10.53-1.111-16.154-3.373-11.731-4.714-16.405-15.654-20.94-26.234-3.673-8.588-6.846-17.456-9.909-26.034-.94-2.633-1.881-5.275-2.852-7.927l-1.322-3.644-10.019-27.976q-.45-1.26-.9-2.492c-1.422-3.883-2.883-7.907-3.904-12.271-.911-3.874-.16-7.647 2.042-10.36 3.143-3.873 8.828-3.883 11.13-3.713 8.538.641 16.625 3.703 24.022 9.088 6.016 4.374 11.59 9.239 16.926 14.774l9.508-18.227 3.534-7.347 3.393-6.806c.92-1.842 1.791-3.583 2.732-5.425l3.013-5.905 3.724-7.087 11.72-21.78 9.869-17.606 9.479-16.175a349 349 0 0 1 2.052-3.443l4.624-7.707c.311-.521.591-1.021.871-1.512.531-.951 1.091-1.932 1.802-2.963 1.121-1.611 2.042-3.182 3.013-4.834 1.041-1.762 2.122-3.593 3.453-5.475.6-.86 1.141-1.772 1.711-2.733.461-.79.941-1.601 1.462-2.382l3.373-5.074 2.832-4.515 3.414-5.024 3.142-4.825 3.073-4.243 3.223-4.725 2.833-3.933c.48-.661.981-1.312 1.481-1.962.711-.921 1.382-1.782 1.982-2.683 1.111-1.681 2.252-3.163 3.253-4.474l2.733-3.563 3.643-4.584 3.063-4.024 6.155-7.367 8.568-9.679c5.996-6.776 12.662-13.252 20.369-19.798l.721-.62c1.411-1.212 2.862-2.463 4.674-3.454 2.612-1.421 5.946-.06 7.947 1.802 4.444 4.164.991 9.639-.31 11.7-.19.3-.36.561-.47.781l-10.22 18.868c-10.139 18.727-18.907 37.084-26.814 56.131-11.561 27.866-20.66 51.138-28.617 73.228l-48.495 134.624c-2.462 6.846-4.774 13.302-7.897 19.778-4.174 8.648-13.202 14.133-24.783 15.074-.98.08-1.961.12-2.952.12zm-54.3-119.07c-2.191 0-4.614.501-5.765 1.922-1.731 2.132-1.31 4.955-1.05 6.066.95 4.064 2.302 7.767 3.733 11.691.3.83.61 1.671.91 2.512l11.341 31.599c.97 2.663 1.912 5.315 2.863 7.957 3.183 8.899 6.185 17.306 9.799 25.754 4.314 10.089 8.387 19.628 18.196 23.562 5.956 2.392 11.461 3.343 16.836 2.902 9.759-.79 17.306-5.254 20.679-12.251 3.003-6.236 5.285-12.581 7.697-19.288l.711-1.981 47.784-132.643c7.987-22.17 17.106-45.502 28.696-73.447 7.968-19.208 16.816-37.715 27.035-56.592l10.22-18.868c.16-.29.38-.65.64-1.06 1.912-3.034 2.192-4.385 1.121-5.386-.76-.71-1.841-1.12-2.172-1.05-1.301.72-2.502 1.74-3.763 2.832l-.751.64c-7.527 6.386-14.023 12.692-19.858 19.298l-8.528 9.64-2.883 3.412-3.133 3.794-3.032 3.983-3.644 4.595-2.712 3.533c-1.191 1.561-2.112 2.773-3.053 4.194-.701 1.06-1.461 2.042-2.202 2.992a79 79 0 0 0-1.381 1.822l-2.793 3.874-3.223 4.724-3.073 4.244-3.073 4.704-3.383 4.985-2.812 4.494-3.413 5.125c-.441.67-.871 1.391-1.312 2.152-.59 1.011-1.211 2.052-1.931 3.083-1.212 1.711-2.192 3.373-3.223 5.134-.981 1.662-1.992 3.374-3.213 5.145-.581.841-1.051 1.682-1.552 2.563-.3.53-.6 1.06-.931 1.621l-4.634 7.727c-.671 1.111-1.351 2.232-2.012 3.363l-9.459 16.135-9.829 17.526-11.69 21.72-3.704 7.037-3.002 5.875c-.931 1.832-1.792 3.553-2.713 5.385l-3.383 6.766-3.553 7.387-10.36 19.868c.27.301.54.611.82.921l11.792 13.373a2.51 2.51 0 0 1-.22 3.533 2.51 2.51 0 0 1-3.534-.22l-11.79-13.373a98 98 0 0 0-1.882-2.092c-.03-.03-.06-.07-.09-.1-5.836-6.346-11.931-11.811-18.578-16.645-6.636-4.834-13.852-7.577-21.46-8.147-.35-.031-.72-.041-1.09-.041z"/></svg>