<svg xmlns="http://www.w3.org/2000/svg" width="464" height="412" fill="none" viewBox="0 0 464 412"><path fill="#3F3F3F" d="M425.204 401.095c0 6.018-59.008 10.905-131.793 10.905-72.786 0-131.793-4.887-131.793-10.905s59.007-10.904 131.793-10.904c72.785 0 131.793 4.886 131.793 10.904"/><path fill="#F1EFE4" d="M422.23 38.31a65 65 0 0 1 8.451-6.81c3.154-2.022 6.238 2.534 3.184 4.706-3.004 1.593-6.018 3.425-8.721 5.498-2.263 1.652-4.877-1.442-2.904-3.395"/><path fill="#F1EFE4" d="M437.77 51.156c5.287-2.944 10.865-5.347 16.432-7.7a137 137 0 0 1 5.617-2.263c1.542-.58 3.265.2 3.845 1.742a2.993 2.993 0 0 1-1.461 3.715 106 106 0 0 1-5.538 2.554c-5.647 2.423-11.265 4.696-17.302 6.128a2.258 2.258 0 0 1-1.583-4.186"/><path fill="#F1EFE4" d="M141.692 312.649a65 65 0 0 1-7.35 7.981c-2.824 2.463-6.539-1.582-3.845-4.186 2.734-2.022 5.447-4.285 7.82-6.728 1.993-1.963 5.037.701 3.375 2.933"/><path fill="#F1EFE4" d="M124.429 302.236c-4.786 3.694-9.953 6.889-15.11 10.053a152 152 0 0 1-5.217 3.064 2.99 2.99 0 0 1-4.065-1.162c-.751-1.341-.33-3.024.901-3.895a107 107 0 0 1 5.107-3.344c5.227-3.224 10.454-6.309 16.201-8.622a2.247 2.247 0 0 1 2.924 1.272c.38.961.05 2.033-.741 2.634"/><path fill="#DCEDF1" d="M386.573 339.675c-4.305-.882-7.049-5.528-6.088-10.314l1.362-6.769c.961-4.786 5.277-7.98 9.583-7.099 4.305.881 7.049 5.527 6.088 10.313l-1.362 6.769c-.961 4.787-5.277 7.981-9.583 7.1"/><path fill="#101010" d="M388.025 342.328a10 10 0 0 1-1.952-.2c-5.668-1.161-9.273-7.109-8.041-13.257l1.362-6.769c.621-3.104 2.433-5.848 4.976-7.53 2.293-1.522 4.977-2.063 7.57-1.532 5.668 1.162 9.272 7.109 8.041 13.257l-1.362 6.769c-.621 3.104-2.433 5.848-4.976 7.53-1.723 1.142-3.665 1.732-5.618 1.732m1.963-24.482c-.982 0-1.973.311-2.864.891-1.432.952-2.463 2.534-2.824 4.336l-1.362 6.769c-.69 3.455 1.162 6.759 4.136 7.37 1.272.26 2.623-.02 3.795-.801 1.432-.952 2.463-2.534 2.834-4.336l1.361-6.769c.691-3.454-1.161-6.759-4.135-7.37q-.466-.09-.931-.09z"/><path fill="#FFFBE8" d="M419.587 140.894c-.321-22.34 2.423-46.892-5.848-68.18-2.353-6.048-6.368-12.626-10.444-17.603-4.406-5.397-7.239-8.841-11.435-14.399-3.444-4.566-8.12-10.584-12.907-13.868-7.65-5.267-17.202-5.808-26.004-7.75-18.144-4.005-32.503-5.928-50.907-6.369-15.57-.37-31.171.34-46.731 2.053v344.793c15.39.13 29.168-.08 33.474-.391 31.752-2.273 54.211-3.154 74.057-7.229 2.503-.511 25.474-16.932 29.979-21.919 5.117-5.667 7.21-12.516 8.692-19.846 4.926-18.524 8.491-44.699 10.233-57.876h-.09c5.357-36.768 8.451-73.887 7.921-111.426z"/><path fill="#101010" d="M264.673 361.864c-2.964 0-6.108-.01-9.372-.04a2.26 2.26 0 0 1-2.243-2.263V14.779c0-1.152.871-2.123 2.013-2.243 15.81-1.743 31.631-2.434 47.031-2.063 17.964.43 32.363 2.233 51.338 6.418 2.002.441 4.105.822 6.138 1.192 7.069 1.272 14.379 2.593 20.657 6.909 4.946 3.404 9.532 9.202 13.438 14.369 4.015 5.327 6.758 8.671 10.904 13.748l.481.58c4.435 5.438 8.481 12.247 10.794 18.215 6.638 17.092 6.358 35.997 6.078 54.281-.07 4.856-.15 9.893-.08 14.689.5 34.906-2.073 71.284-7.851 111.176q.045.283 0 .581c-1.542 11.625-5.156 38.831-10.273 58.096-1.442 7.13-3.565 14.589-9.212 20.838-4.536 5.026-27.867 21.928-31.201 22.609-16.342 3.345-34.596 4.576-57.716 6.128-5.257.351-10.794.721-16.642 1.142-3.284.23-12.396.43-24.282.43zm-7.089-4.536c14.699.091 27.176-.12 31.061-.4a3150 3150 0 0 1 16.662-1.142c22.91-1.532 41.013-2.753 57.034-6.027 2.814-1.032 24.533-16.472 28.828-21.228 4.937-5.468 6.839-12.256 8.151-18.775 0-.04.02-.09.03-.13 4.957-18.645 8.511-45.069 10.093-56.955-.03-.22-.04-.451 0-.671 5.808-39.892 8.391-76.23 7.891-111.066-.07-4.866 0-9.923.08-14.819.27-17.844.54-36.298-5.778-52.57-2.153-5.556-5.928-11.905-10.083-16.992l-.481-.58c-4.175-5.117-6.939-8.491-11.014-13.879-2.664-3.524-7.63-10.103-12.386-13.367-5.478-3.765-11.996-4.936-18.905-6.188-2.073-.37-4.226-.761-6.309-1.222-18.664-4.115-32.823-5.887-50.466-6.308-14.549-.35-29.468.27-44.418 1.822v340.517zm104.818-7.59h-.01z"/><path fill="#DCEDF1" d="M195.713 365.168c-4.336.741-8.582-2.583-9.423-7.39l-1.201-6.799c-.851-4.806 2.002-9.352 6.338-10.103 4.336-.741 8.581 2.583 9.422 7.39l1.202 6.799c.851 4.806-2.003 9.352-6.338 10.103"/><path fill="#101010" d="M194.491 367.772c-5.087 0-9.683-3.986-10.664-9.563l-1.202-6.799c-.55-3.114.141-6.328 1.893-8.821 1.582-2.253 3.885-3.735 6.488-4.186 5.688-.981 11.225 3.244 12.317 9.422l1.201 6.799c.551 3.114-.14 6.329-1.892 8.822-1.582 2.253-3.885 3.735-6.489 4.186-.551.09-1.101.14-1.652.14m-1.832-24.492c-.271 0-.541.02-.811.07-1.282.22-2.434.971-3.245 2.122-.991 1.412-1.372 3.255-1.051 5.067l1.201 6.799c.611 3.475 3.545 5.868 6.539 5.357 1.282-.22 2.433-.971 3.244-2.123.992-1.412 1.372-3.254 1.052-5.066l-1.202-6.799c-.561-3.154-3.034-5.427-5.727-5.427"/><path fill="#DCEDF1" d="M346.23 364.438c-4.305-.882-7.049-5.528-6.088-10.314l1.362-6.769c.961-4.786 5.277-7.98 9.583-7.099 4.305.881 7.049 5.527 6.088 10.313l-1.362 6.769c-.961 4.787-5.277 7.981-9.583 7.1"/><path fill="#101010" d="M347.682 367.091a10 10 0 0 1-1.952-.2c-5.668-1.161-9.273-7.109-8.041-13.257l1.362-6.769c.621-3.104 2.433-5.848 4.976-7.53 2.293-1.522 4.977-2.063 7.57-1.532 5.668 1.162 9.272 7.109 8.041 13.257l-1.362 6.769c-.621 3.104-2.433 5.848-4.977 7.53-1.722 1.142-3.664 1.732-5.617 1.732m1.963-24.482c-.982 0-1.973.311-2.864.891-1.432.952-2.463 2.534-2.824 4.336l-1.362 6.769c-.69 3.455 1.162 6.759 4.136 7.37 1.272.26 2.623-.02 3.795-.801 1.432-.952 2.463-2.534 2.824-4.336l1.361-6.769c.691-3.454-1.161-6.759-4.135-7.37a5 5 0 0 0-.941-.09z"/><path fill="#FFFBE8" d="M189.985 356.107c-13.978-6.519-16.842-29.719-19.375-44.028-14.94-84.361-26.976-182.93-5.097-266.96 4.416-16.963 14.219-17.904 25.754-20.838 32.542-8.28 65.776-12.336 98.85-11.545 18.404.44 32.763 2.363 50.906 6.368 9.573 2.113 22.46 2.694 30.26 11.495 17.133 19.336 13.718 70.012 14.069 94.605 1.021 71.624-8.882 142.006-23.201 211.447-3.705 17.964-10.404 13.117-23.21 12.817-39.602-.951-79.385.791-118.836 6.148-10.544 1.432-21.559 4.506-30.14.511z"/><path fill="#101010" d="M200.198 360.333c-3.915 0-7.7-.561-11.164-2.183-13.959-6.509-17.473-27.116-20.036-42.166-.211-1.221-.411-2.393-.611-3.514-5.908-33.334-14.029-83.48-16.392-133.896-2.423-51.618 1.292-95.465 11.335-134.036 4.386-16.862 14.189-19.245 24.572-21.769.932-.23 1.873-.45 2.824-.7 33.354-8.492 66.818-12.407 99.461-11.616 17.963.43 32.362 2.233 51.337 6.419 1.762.39 3.645.72 5.627 1.081 8.902 1.592 18.985 3.395 25.834 11.125 15.14 17.092 14.85 57.075 14.65 83.529-.03 4.576-.07 8.892-.01 12.547.901 63.273-6.479 130.611-23.241 211.938-3.254 15.811-9.382 16.031-19.115 15.07-1.993-.2-4.065-.401-6.358-.461-41.375-.991-81.247 1.072-118.476 6.128-1.973.271-4.015.601-5.988.932-4.756.781-9.592 1.572-14.239 1.572zm-9.262-6.279c6.319 2.944 14.309 1.633 22.77.241 2.003-.331 4.076-.671 6.118-.941 37.469-5.087 77.572-7.16 119.197-6.169 2.463.06 4.706.281 6.689.481 8.471.831 11.645 1.152 14.248-11.485 16.692-80.996 24.052-148.024 23.151-210.967-.05-3.705-.02-8.041.01-12.647.19-25.763.48-64.695-13.518-80.495-5.808-6.549-15.07-8.211-23.251-9.673-2.032-.36-3.955-.711-5.807-1.111-18.665-4.116-32.823-5.888-50.467-6.309-32.232-.77-65.285 3.094-98.239 11.485-.971.25-1.922.48-2.863.711-10.194 2.473-17.553 4.266-21.258 18.515-22.139 85.041-8.892 186.825 5.137 265.999.2 1.131.4 2.313.61 3.544 2.404 14.059 5.688 33.324 17.493 38.831z"/><path fill="#6DB5C3" d="M199.468 350.459c-2.754-.07-4.987-.511-6.829-1.372-9.483-4.426-12.487-22.039-14.69-34.896-.21-1.241-.42-2.433-.62-3.574-5.848-33.044-13.899-82.739-16.242-132.534-2.363-50.527 1.232-93.333 10.995-130.852 2.913-11.205 7.89-12.406 17.793-14.82.961-.23 1.923-.47 2.904-.72 32.613-8.301 65.306-12.126 97.177-11.355 18.695.45 32.753 2.473 49.716 6.218 1.932.43 3.895.78 5.968 1.151 7.86 1.402 15.991 2.854 20.747 8.221 12.576 14.199 12.286 53.27 12.116 76.611-.03 4.636-.07 9.011-.01 12.776.971 67.809-7.11 132.384-23.031 209.636-1.141 5.517-2.283 6.979-2.603 7.299-.31.311-1.212.451-2.663.411-1.172-.03-2.544-.16-4.126-.321-2.053-.2-4.376-.43-6.979-.49-41.825-1.002-82.138 1.081-119.817 6.198-2.093.28-4.196.631-6.219.961-4.876.801-9.492 1.562-13.607 1.462z"/><path fill="#101010" d="M200.209 352.973h-.801c-3.105-.07-5.668-.601-7.821-1.602-10.674-4.977-13.808-23.341-16.091-36.749-.21-1.231-.41-2.423-.611-3.564-5.867-33.114-13.928-82.909-16.271-132.845-2.383-50.787 1.242-93.833 11.074-131.603 3.295-12.646 9.443-14.148 19.626-16.621.952-.23 1.913-.461 2.884-.711 32.833-8.361 65.746-12.206 97.849-11.435 17.553.42 31.631 2.183 50.195 6.278 1.873.41 3.805.76 5.848 1.121 8.301 1.482 16.872 3.014 22.199 9.032 13.218 14.92 12.917 54.582 12.747 78.283-.03 4.396-.07 8.932-.01 12.727.921 64.374-5.978 127.227-23.08 210.176-.912 4.435-2.023 7.329-3.305 8.581-.871.861-2.183 1.181-4.476 1.131-1.281-.03-2.753-.18-4.315-.33-2.023-.2-4.286-.421-6.799-.481-41.695-.991-81.878 1.082-119.417 6.178-2.013.271-4.065.611-6.038.932l-.12.02c-4.686.771-9.142 1.502-13.267 1.502zm-.681-5.017c3.885.1 8.381-.641 13.137-1.422l.12-.02c2.013-.33 4.085-.671 6.178-.951 37.81-5.127 78.253-7.23 120.208-6.218 2.694.06 5.057.3 7.149.5 1.552.151 2.874.281 3.966.311.48.01.811 0 1.041-.02.32-.601.991-2.183 1.722-5.698 17.023-82.568 23.892-145.1 22.97-209.094-.05-3.845-.02-8.411.01-12.827.171-22.98.461-61.45-11.485-74.928-4.175-4.717-11.875-6.088-19.315-7.42-2.113-.38-4.095-.731-6.068-1.172-18.224-4.025-32.032-5.747-49.235-6.158-31.641-.76-64.114 3.044-96.496 11.285-.992.25-1.973.49-2.934.72-9.773 2.374-13.428 3.265-15.971 13.018-9.703 37.269-13.278 79.825-10.925 130.101 2.324 49.645 10.364 99.23 16.202 132.213.2 1.152.41 2.354.621 3.595 1.982 11.625 4.976 29.179 13.277 33.054 1.522.711 3.425 1.081 5.828 1.141z"/><path fill="#DCEDF1" d="M211.333 209.925c-7.65-.811 1.362 25.924-6.278 24.973-10.374-1.292-30.35 26.244-34.215 23.881-5.177-3.154-9.012-65.226-9.743-80.706-2.363-50.526 1.232-93.333 10.995-130.852 2.913-11.205 7.89-12.406 17.793-14.82.961-.23 1.923-.47 2.904-.72 32.613-8.301 65.306-12.126 97.177-11.355 18.695.45 32.753 2.473 49.716 6.218 1.932.43 3.895.781 5.968 1.151 7.86 1.402 15.991 2.854 20.747 8.221 12.576 14.199 12.286 53.27 12.116 76.611-.03 4.636-.07 9.012-.01 12.777.27 19.335-.201 38.69-1.372 57.986-1.292 21.188 1.782 29.348-16.812 32.933-33.474 6.469-73.857-.29-107.632-2.663a1192 1192 0 0 1-41.344-3.635z"/><path fill="#101010" d="M171.371 261.443c-.641 0-1.252-.17-1.833-.521-1.652-1.001-4.406-2.683-7.73-37.629-1.712-17.964-2.844-37.349-3.214-45.09-2.383-50.786 1.242-93.833 11.074-131.602 3.295-12.647 9.443-14.149 19.626-16.622.951-.23 1.913-.46 2.884-.711 32.833-8.361 65.746-12.206 97.848-11.435 17.554.42 31.632 2.183 50.196 6.278 1.873.41 3.805.761 5.848 1.122 8.301 1.482 16.872 3.014 22.199 9.031 13.218 14.92 12.917 54.582 12.747 78.283-.03 4.396-.07 8.932-.01 12.727.27 19.155-.19 38.731-1.382 58.176-.2 3.215-.29 6.168-.38 8.782-.481 14.859-.751 23.04-18.465 26.465-26.134 5.046-55.633 2.223-84.17-.511-8.421-.811-16.382-1.572-24.112-2.113a1192 1192 0 0 1-41.414-3.645c-.861 1.252-.571 6.869-.411 9.933.321 6.108.601 11.375-2.042 13.839-.731.68-1.993 1.431-3.896 1.191-4.816-.591-14.268 8.531-20.547 14.579-6.037 5.818-9.842 9.483-12.826 9.483zM282.006 22.739c-29.128 0-58.887 3.815-88.586 11.375-.992.25-1.973.49-2.934.721-9.773 2.373-13.428 3.264-15.971 13.017-9.703 37.27-13.278 79.825-10.925 130.101 1.332 28.437 4.997 71.134 8.341 78.163 1.893-1.132 5.818-4.907 8.782-7.76 8.171-7.871 17.453-16.793 24.592-15.951.821-1.292.531-6.799.371-9.793-.321-6.128-.601-11.415 2.042-13.919 1.032-.981 2.363-1.411 3.865-1.251a1209 1209 0 0 0 41.265 3.635c7.8.55 15.78 1.311 24.241 2.122 28.177 2.694 57.316 5.488 82.749.581 13.788-2.663 13.938-7.079 14.409-21.708.09-2.644.18-5.638.381-8.922a771 771 0 0 0 1.371-57.796c-.05-3.845-.02-8.411.01-12.827.171-22.98.461-61.45-11.485-74.928-4.175-4.716-11.875-6.088-19.315-7.42-2.113-.38-4.095-.73-6.068-1.171-18.224-4.026-32.032-5.748-49.235-6.159a348 348 0 0 0-7.91-.09z"/><path fill="#FFFBE8" d="M375.889 260.02c-3.414 25.734-12.536 92.481-25.123 95.065-19.856 4.065-42.135 1.832-73.887 4.105-10.594.761-78.313.921-86.894-3.074-13.978-6.519-16.842-29.719-19.375-44.028-2.984-16.862-5.858-34.305-8.361-52.078 17.823-2.704 170.393-1.062 213.64.01"/><path fill="#101010" d="M252.607 361.864c-6.368 0-13.277-.06-19.976-.18-24.913-.471-39.582-1.663-43.597-3.535-13.959-6.509-17.473-27.116-20.036-42.165-.211-1.222-.411-2.394-.611-3.515-3.375-19.075-6.118-36.127-8.381-52.148a2.263 2.263 0 0 1 1.902-2.554c17.723-2.683 169.623-1.121 214.041-.01.641.02 1.242.301 1.662.791.421.491.611 1.132.521 1.763-8.641 65.025-16.942 94.934-26.915 96.977-11.976 2.453-24.843 2.653-39.742 2.884-10.114.16-21.569.33-34.436 1.251-3.624.261-13.177.431-24.432.431zm-87.795-99.881c2.193 15.3 4.816 31.591 8.031 49.705.2 1.131.4 2.313.61 3.545 2.404 14.058 5.688 33.323 17.493 38.831 7.54 3.514 73.607 3.745 85.773 2.873 12.997-.931 24.522-1.111 34.686-1.261 14.679-.231 27.345-.431 38.911-2.794 3.354-.691 12.266-10.954 23.01-90.649-45.62-1.061-183.601-2.483-208.504-.23z"/><path fill="#FFFBE8" d="M373.236 198.95c2.022.05 2.513 1.813 2.213 3.775-3.345 21.909-2.073 46.281-13.979 48.414-19.846 3.554-51.137.12-86.093.46-10.614.1-78.303.601-86.894-2.964-13.998-5.817-5.667-40.953-19.455-42.035-1.122-8.08-2.864-10.644.58-10.303 17.333-2.283 155.955 1.452 203.618 2.653z"/><path fill="#101010" d="M337.018 255.024c-7.64 0-15.961-.26-24.832-.54-11.756-.371-23.902-.751-36.779-.631-18.394.18-79.084.48-87.785-3.134-8.121-3.375-9.653-14.009-11.135-24.302-1.492-10.364-2.833-17.193-7.63-17.573a2.26 2.26 0 0 1-2.062-1.943c-.291-2.113-.631-3.845-.902-5.247-.62-3.164-.991-5.077.341-6.538 1.051-1.152 2.583-1.152 3.344-1.102 17.353-2.093 136.299.941 193.615 2.413l10.103.261c1.762.04 2.803.861 3.374 1.542.971 1.161 1.332 2.833 1.022 4.836-.791 5.207-1.332 10.574-1.843 15.761-1.742 17.503-3.244 32.623-13.968 34.535-7.039 1.262-15.42 1.662-24.853 1.662zm-56.544-5.707c11.084 0 21.618.33 31.852.651 19.575.61 36.478 1.141 48.744-1.052 7.369-1.322 8.781-15.51 10.273-30.54.521-5.247 1.062-10.674 1.873-15.991.09-.611.05-.991 0-1.171h-.04l-10.104-.261c-52.989-1.352-177.062-4.536-193.153-2.413.09.631.26 1.482.41 2.263.211 1.081.461 2.353.701 3.855 7.16 1.933 8.571 11.675 9.933 21.118 1.302 9.042 2.654 18.384 8.401 20.777 5.888 2.443 47.443 3.164 86.003 2.794 1.712-.02 3.425-.02 5.117-.02z"/><path fill="#101010" d="M351.127 324.055c-.881 0-1.743-.331-2.484-.962-1.091-.931-1.742-2.403-1.752-3.915-.02-3.094 0-6.198.08-9.242.13-5.557.431-11.255.871-16.932a307 307 0 0 1 1.713-16.201c.29-2.133 1.612-3.705 3.554-4.196 2.123-.54 4.526.371 5.848 2.193.401.551.691 1.172.861 1.832.311 1.222.16 2.424.04 3.305l-.23 1.782c-1.512 11.706-2.263 17.573-4.136 37.329-.26 2.764-1.742 4.676-3.865 4.987-.17.02-.34.04-.5.04zm3.224-47.092c-.05 0-.1 0-.14.02-.03 0-.13.03-.18.41a298 298 0 0 0-1.693 15.961 307 307 0 0 0-.861 16.692c-.03 1.382-.06 2.774-.07 4.166 1.582-16.432 2.383-22.59 3.735-33.084l.23-1.782c.07-.551.16-1.232.06-1.612-.03-.1-.07-.19-.13-.28a1.26 1.26 0 0 0-.951-.491"/><path fill="#101010" d="M345.99 227.157c-.291 0-.561-.01-.801-.02l-1.592-.07c-10.634-.491-15.971-.731-33.865-.811-2.603-.01-4.586-1.442-5.046-3.635-.361-1.682.5-4.355 1.522-5.797.891-1.252 1.902-1.612 2.583-1.693 1.582-.19 5.888-.04 12.797.231 4.225.17 8.591.34 10.774.31 4.876-.08 9.833.01 14.729.26 1.863.101 3.405 1.192 4.116 2.934.881 2.143.4 4.937-1.152 6.639a4.8 4.8 0 0 1-1.662 1.202c-.841.37-1.682.45-2.413.45zm-36.879-5.527c.111.04.311.1.631.1 17.984.08 23.691.341 34.045.811l1.592.07c.361.02.981.05 1.192-.05.04-.02.08-.05.13-.1.27-.3.44-.871.42-1.392-.02-.4-.14-.591-.17-.611 0 0-.03 0-.1-.01a217 217 0 0 0-14.429-.26c-2.323.04-6.539-.13-11.024-.31-4.356-.171-9.683-.381-11.616-.301-.31.511-.64 1.532-.671 2.063z"/><path fill="#101010" d="M238.188 225.014c-.29 0-.55-.01-.801-.02l-1.592-.07c-10.634-.49-15.971-.731-33.864-.811-2.604-.01-4.586-1.442-5.047-3.635-.36-1.692.501-4.365 1.532-5.797.891-1.252 1.893-1.612 2.584-1.692 1.582-.191 5.887-.04 12.796.24 4.226.17 8.592.34 10.774.31 4.887-.08 9.833.01 14.73.261 1.862.1 3.404 1.191 4.115 2.934.881 2.142.401 4.936-1.151 6.648a4.9 4.9 0 0 1-1.652 1.202c-.852.37-1.693.45-2.414.45zm-36.868-5.527c.1.04.31.1.631.1 17.973.08 23.691.341 34.044.811l1.593.07c.36.02.981.041 1.191-.05.03-.01.08-.05.13-.11.191-.21.401-.681.421-1.221.01-.471-.12-.741-.17-.791 0 0-.04 0-.1-.01a217 217 0 0 0-14.429-.261c-2.323.04-6.549-.13-11.025-.31-4.356-.17-9.683-.381-11.615-.301-.311.511-.641 1.532-.671 2.063z"/><path fill="#101010" d="M169.308 142.376a2.306 2.306 0 0 1-.631-4.525l20.337-5.818c.2-.06.41-.09.611-.09.751-.01 4.546.02 10.834.07 23.431.18 78.303.591 121.069.3 12.867-.09 41.454-.06 55.483 0a2.3 2.3 0 0 1 2.293 2.313 2.3 2.3 0 0 1-2.303 2.293c-14.019-.06-42.586-.09-55.433 0-42.806.291-97.688-.13-121.129-.3-5.457-.04-9.242-.07-10.454-.07l-20.026 5.727q-.315.09-.631.09z"/><path fill="#FFFBE8" d="M377.752 146.802c-61.201-.801-117.975.341-178.615 0-7.089-.04-25.473.401-29.959.07l.13-6.808c4.486.32 22.87.02 29.959-.071 61.641-.801 118.416.341 178.615 0z"/><path fill="#101010" d="M175.456 149.256c-2.844 0-5.147-.031-6.438-.131a2.247 2.247 0 0 1-2.093-2.293l.13-6.809c.01-.62.28-1.211.731-1.622a2.23 2.23 0 0 1 1.682-.58c3.875.28 18.845.07 26.895-.041l2.884-.04c35.036-.45 69.021-.28 101.884-.11 24.953.13 50.757.261 76.741.11.581-.02 1.191.241 1.622.671.43.431.661 1.022.651 1.632l-.13 6.809a2.255 2.255 0 0 1-2.253 2.213h-.03c-34.676-.45-68.54-.28-101.293-.11-25.093.13-51.037.26-77.312.11-2.563-.01-6.669.04-11.014.09-4.456.05-9.002.111-12.657.111zm-3.985-4.546c3.795.08 10.514 0 16.572-.081 4.365-.05 8.481-.1 11.094-.09 26.255.151 52.179.02 77.262-.11 32.062-.16 65.195-.33 99.13.08l.04-2.253c-25.233.131-50.256 0-74.478-.12-32.843-.17-66.808-.34-101.804.11l-2.873.04c-7.43.101-19.126.271-24.903.131z"/><path fill="#101010" d="M168.226 197.999a2.304 2.304 0 0 1-.941-4.406l24.783-11.105c.29-.13.601-.2.921-.2 3.545-.03 9.182 0 12.316.07 11.515.24 21.098.471 29.589.671 30.58.721 47.432 1.112 89.998.831 12.366-.08 34.916-.06 49.866 0a2.297 2.297 0 0 1 2.293 2.313 2.3 2.3 0 0 1-2.303 2.293c-14.93-.06-37.46-.08-49.816 0-42.646.291-59.518-.11-90.138-.831-8.481-.2-18.064-.42-29.579-.671-2.954-.06-8.181-.09-11.695-.07l-24.342 10.904a2.2 2.2 0 0 1-.942.201z"/><path fill="#101010" d="M376.51 97.637c-6.458-.03-15.14-.31-23.541-.59-9.562-.32-19.455-.651-26.264-.601-10.254.07-18.995.14-26.776.21-33.904.28-49.374.41-92.942-.51-3.084-.07-8.661-.1-12.176-.07-.29 0-.56-.05-.831-.15l-23.38-8.732a2.3 2.3 0 0 1-1.352-2.964 2.31 2.31 0 0 1 2.964-1.352l22.98 8.581c3.565-.02 8.882 0 11.886.07 43.497.922 58.947.791 92.801.511 7.791-.06 16.532-.14 26.786-.21 6.909-.05 16.842.28 26.454.6 8.371.28 17.023.561 23.411.591a2.297 2.297 0 0 1 2.293 2.313 2.3 2.3 0 0 1-2.303 2.293z"/><path fill="#101010" d="M194.511 135.026h-.07a2.307 2.307 0 0 1-2.233-2.383l1.212-38.03a2.3 2.3 0 0 1 2.303-2.233h.07a2.307 2.307 0 0 1 2.233 2.383l-1.212 38.03a2.3 2.3 0 0 1-2.303 2.233"/><path fill="#101010" d="M196.273 79.433h-.07a2.307 2.307 0 0 1-2.233-2.383l.811-25.394L176.167 39.4a2.307 2.307 0 0 1 2.533-3.855l19.696 12.967a2.33 2.33 0 0 1 1.042 2.003l-.852 26.675a2.3 2.3 0 0 1-2.303 2.233z"/><path fill="#101010" d="M197.125 52.749a2.33 2.33 0 0 1-2.023-1.182 2.303 2.303 0 0 1 .891-3.134c10.914-6.068 53.16-9.092 86.013-9.833 34.756-.781 76.701.52 90.228 6.519a2.307 2.307 0 0 1-1.872 4.215c-10.564-4.696-45.209-7.1-88.256-6.128-41.264.931-75.759 4.736-83.88 9.252-.351.2-.741.29-1.122.29z"/><path fill="#101010" d="M194.531 186.704a2.303 2.303 0 0 1-2.303-2.303l-.05-36.908a2.31 2.31 0 0 1 2.303-2.313 2.303 2.303 0 0 1 2.303 2.303l.05 36.908a2.31 2.31 0 0 1-2.303 2.313"/><path fill="#FFFBE8" d="M376.931 85.592c-63.784-1.281-117.435 1.943-176.572 0-7.09-.23-25.474.32-29.96 0l.131-6.808c4.485.32 22.88-.21 29.959 0 60.279 1.822 115.211-1.282 176.572 0z"/><path fill="#101010" d="M242.714 88.496c-13.958 0-27.976-.17-42.435-.641-3.335-.11-9.293-.04-15.05.03-6.469.07-12.567.15-15.01-.03a2.25 2.25 0 0 1-2.093-2.293l.131-6.809c.01-.62.28-1.212.74-1.622a2.23 2.23 0 0 1 1.683-.58c2.283.17 8.701.09 14.909.02 5.698-.061 11.585-.131 14.96-.03 31.762.96 62.692.54 92.602.14 27.005-.371 54.932-.752 83.94-.14a2.266 2.266 0 0 1 2.213 2.302l-.131 6.81a2.24 2.24 0 0 1-.69 1.581 2.3 2.3 0 0 1-1.613.631c-29.949-.6-57.825-.21-84.781.17-16.762.24-33.023.47-49.375.47zm-47.222-5.227c1.923 0 3.615.02 4.937.06 31.281 1.031 60.579.61 91.6.17 26.315-.37 53.51-.76 82.679-.22l.04-2.293c-28.127-.54-55.263-.17-81.537.18-29.96.41-60.94.821-92.802-.14-3.285-.1-9.122-.03-14.77.03-5.006.06-9.803.11-12.907.05l-.04 2.293c2.994.05 7.801 0 12.487-.06 3.574-.04 7.229-.08 10.303-.08z"/><path fill="#101010" d="M273.835 254.614a2.26 2.26 0 0 1-2.253-2.173l-1.732-42.626a2.26 2.26 0 0 1 2.163-2.353c1.221-.05 2.303.921 2.353 2.163l1.732 42.626a2.26 2.26 0 0 1-2.163 2.353h-.09z"/><path fill="#101010" d="M6.464 243.178c-.75 0-1.502-.24-2.183-.711-1.181-.811-2.002-2.193-2.173-3.695-.36-3.084-.68-6.188-.93-9.202a310 310 0 0 1-.992-16.922 295 295 0 0 1-.07-16.291c.05-2.153 1.201-3.856 3.074-4.556 2.052-.761 4.536-.131 6.058 1.542.46.5.81 1.081 1.051 1.722.44 1.181.42 2.393.4 3.284l-.03 1.722c-.22 11.816-.33 17.754-.02 37.63.04 2.783-1.221 4.836-3.294 5.377-.29.08-.58.11-.88.11zm-1.472-47.182c-.09 0-.17.01-.24.04-.03.01-.13.05-.13.431-.12 5.327-.1 10.724.07 16.051.18 5.607.51 11.225.981 16.682.12 1.371.25 2.753.39 4.155-.23-16.502-.12-22.419.08-33.364l.03-1.722c0-.551.02-1.242-.12-1.612a.9.9 0 0 0-.16-.27c-.24-.271-.62-.381-.9-.381z"/><path fill="#FFFBE8" d="M158.634 255.154c-4.616-64.014-11.295-117.024-3.505-173.868.952-6.95 6.849-37.15 6.959-44.088.091-5.958-22.99-16.111-30.049-19.526C112.123 8.03 51.283-.28 39.938 2.952 33.96 4.666 25.489 7.93 20.412 16.4 9.268 35.005 9.97 85.781 9.067 110.334c-1.662 45.209-.6 90.098 2.153 134.687z"/><path fill="#101010" d="M158.634 257.417h-.15L11.07 247.284a2.26 2.26 0 0 1-2.103-2.113c-2.994-48.574-3.705-92.702-2.152-134.907.13-3.655.23-7.981.34-12.557.61-26.334 1.542-66.126 11.325-82.448C23.997 6.057 33.019 2.602 39.327.8c6.99-1.993 27.957.08 43.788 2.463 22.109 3.325 40.763 7.96 49.915 12.387.761.37 1.713.82 2.804 1.331 18.134 8.552 28.608 14.61 28.517 20.267-.08 4.816-2.693 19.626-4.796 31.531-1.001 5.668-1.872 10.564-2.183 12.827-6.458 47.182-2.944 91.32 1.132 142.417.801 10.013 1.622 20.377 2.393 30.981.05.651-.19 1.292-.651 1.762a2.23 2.23 0 0 1-1.602.661zm-145.28-14.509 142.837 9.813a3924 3924 0 0 0-2.203-28.357c-4.096-51.358-7.63-95.716-1.102-143.389.321-2.353 1.192-7.29 2.203-13.007 1.963-11.124 4.656-26.354 4.726-30.81.02-1.162-2.473-5.047-25.924-16.111a340 340 0 0 1-2.843-1.352c-19.957-9.663-80.246-17.493-90.49-14.58-5.566 1.593-13.517 4.607-18.203 12.437-9.172 15.31-10.073 54.382-10.684 80.235-.11 4.596-.21 8.932-.34 12.617-1.523 41.484-.862 84.841 2.022 132.484z"/><path fill="#DCEDF1" d="M56.92 239.373c-6.628-.511-11.945-9.032-12.296-19.776-1.201-36.368-1.232-70.313-.11-103.066.13-3.785.23-8.171.34-12.817.491-21.398 1.402-61.24 7.73-73.756 3.055-6.038 9.763-8.341 11.966-9.102.18-.06 1.943-.601 7.66-.431 18.785.58 53.34 7.46 65.386 14.379.661.38 1.492.841 2.433 1.372a267 267 0 0 1 5.838 3.344c6.559 3.865 10.244 15.12 8.581 26.164l-.731 4.837c-.931 6.108-1.662 10.944-1.972 13.578-5.838 49.284-2.974 94.374.35 146.582 0 .05 0 .11.01.16.531 8.401-3.705 15.651-8.911 15.25l-86.284-6.708z"/><path fill="#101010" d="M143.624 248.595c-.21 0-.41 0-.621-.02l-86.283-6.709c-7.93-.621-14.209-10.153-14.6-22.189-1.2-36.488-1.23-70.252-.11-103.225.13-3.775.231-8.161.341-12.787.5-21.609 1.422-61.811 8-74.828 3.505-6.94 10.945-9.493 13.388-10.334.671-.23 2.834-.741 8.562-.56 19.055.59 54.221 7.63 66.557 14.708.651.371 1.472.832 2.403 1.352a237 237 0 0 1 5.888 3.375c7.51 4.416 11.625 16.481 9.783 28.687l-.731 4.837c-.922 6.078-1.652 10.884-1.963 13.487-5.808 49.055-2.954 94.034.361 146.112v.191c.4 6.037-1.452 11.865-4.807 15.179-1.812 1.793-3.935 2.724-6.158 2.724zM57.111 236.87l86.283 6.708c.961.071 1.942-.35 2.884-1.271 2.323-2.293 3.634-6.729 3.344-11.315v-.18c-3.334-52.319-6.208-97.508-.34-147.013.32-2.694 1.051-7.53 1.982-13.658l.731-4.827c1.492-9.933-1.742-20.316-7.38-23.63a287 287 0 0 0-5.787-3.315c-.951-.53-1.792-1.001-2.453-1.382-11.766-6.749-45.71-13.478-64.215-14.048-5.156-.16-6.748.29-6.809.3-1.932.661-7.92 2.724-10.513 7.85-6.068 12.006-7.01 52.98-7.46 72.676-.11 4.666-.21 9.052-.34 12.857-1.122 32.863-1.092 66.517.11 102.895.31 9.322 4.696 16.942 9.993 17.353z"/><path fill="#FFFBE8" d="M154.739 150.437c-1.312 1.171-2.784 1.221-4.206 1.231-24.061.23-47.983-2.513-71.934-4.536-4.887-.41-11.706-1.432-16.592-2.493-7.16-1.562-5.567-7.47-5.948-19.396-.08-2.373.971-4.455 2.203-4.385 27.466 1.552 54.942 2.994 82.408 4.656 5.137.31 10.274.551 15.411.791.771.04 1.612.11 2.182 1.051.811 1.332.781 3.775.681 5.898-.3 6.428-1.011 14.068-4.055 17.032-.05.05-.1.1-.15.141z"/><path fill="#101010" d="M147.71 153.941c-18.595 0-37.309-1.692-55.443-3.334a2958 2958 0 0 0-13.858-1.232c-5.017-.421-11.956-1.472-16.883-2.543-7.63-1.663-7.63-7.52-7.65-15.631 0-1.752 0-3.745-.08-5.898-.07-2.273.651-4.436 1.883-5.637.77-.751 1.752-1.132 2.713-1.071 9.162.52 18.314 1.021 27.476 1.532 18.004.991 36.628 2.022 54.942 3.134 5.017.3 10.134.54 15.08.771h.301c.831.05 2.783.14 4.005 2.142 1.151 1.883 1.121 4.697 1.011 7.19-.35 7.58-1.171 15.08-4.736 18.544-.08.07-.15.14-.23.211-1.983 1.772-4.206 1.792-5.688 1.802-.951 0-1.902.01-2.853.01zM58.693 123.14c-.18.351-.4 1.062-.37 2.023.07 2.223.08 4.246.08 6.028.01 8.641.34 10.404 4.085 11.225 4.756 1.031 11.455 2.042 16.301 2.453 4.626.391 9.252.811 13.878 1.232 18.945 1.712 38.531 3.484 57.846 3.304 1.362-.01 2.073-.08 2.724-.661l.08-.07c2.774-2.704 3.214-12.006 3.374-15.51.04-.912.171-3.645-.32-4.566-.13-.02-.321-.03-.401-.03h-.3c-4.967-.251-10.093-.491-15.14-.791-18.304-1.112-36.918-2.133-54.912-3.135-8.972-.49-17.954-.991-26.925-1.502"/><path fill="#FFFBE8" d="M155.45 203.997c-1.162 1.061-2.484 1.642-3.755 2.032-4.556 1.412-9.162 1.172-13.738.932-15.33-.821-30.661-1.642-45.98-2.453l-22.99-1.232c-9.774-.521-13.348-11.425-12.497-20.817.41-4.486 2.163-4.647 4.255-4.526 32.904 1.882 62.973 3.444 95.876 5.327.891.05 1.873.19 2.433 1.431.501 1.132.481 2.794.431 4.306-.14 4.156-.371 8.641-1.842 11.896-.601 1.342-1.362 2.343-2.193 3.104"/><path fill="#101010" d="M143.234 209.414c-1.813 0-3.615-.1-5.387-.19l-68.971-3.685c-3.875-.211-7.25-1.863-9.783-4.787-3.695-4.275-5.507-11.184-4.846-18.494.56-6.128 3.825-6.729 6.639-6.578 16.451.941 32.192 1.802 47.932 2.663s31.492 1.722 47.943 2.664c.791.05 3.215.18 4.366 2.763.691 1.542.681 3.465.621 5.297-.16 4.686-.431 9.182-2.043 12.747-.691 1.522-1.612 2.824-2.733 3.845-1.252 1.131-2.714 1.932-4.596 2.523-3.094.961-6.138 1.222-9.132 1.222zm-83.19-29.239c-.91 0-1.101.331-1.301 2.494-.551 6.018.89 11.815 3.765 15.13 1.732 2.002 3.955 3.084 6.598 3.224l68.971 3.685c4.306.23 8.751.47 12.947-.831 1.242-.381 2.163-.882 2.904-1.552.671-.611 1.211-1.382 1.652-2.354 1.272-2.813 1.502-6.999 1.642-11.044.03-.901.09-2.583-.23-3.304a.3.3 0 0 0-.05-.091c.02.041-.11 0-.451 0-16.452-.941-32.192-1.802-47.933-2.663s-31.491-1.722-47.943-2.663c-.22-.011-.41-.021-.58-.021z"/><path fill="#101010" d="M374.457 211.287h-.03l-205.419-2.424a2.26 2.26 0 0 1-2.233-2.283 2.25 2.25 0 0 1 2.253-2.233h.03l205.419 2.424a2.26 2.26 0 0 1 2.233 2.283 2.25 2.25 0 0 1-2.253 2.233"/></svg>