<svg xmlns="http://www.w3.org/2000/svg" width="343" height="371" fill="none" viewBox="0 0 343 371"><path fill="#AD5400" d="M233.361 194.634q-2.798.038-5.503.077c-19.609 1.624-35.274 3.947-47.171 6.207 8.665 1.063 13.715 1.88 13.865 1.904a2.5 2.5 0 0 1 2.094 2.444l1.296 135.883 29.916 7.856z"/><path fill="#FF7B00" d="M273.452 197.963a619 619 0 0 0-31.74-3.439l-3.345.043-5.516 154.758 31.136-4.39c3.892-54.444 9.272-133.581 9.465-146.972"/><path fill="#FF7B00" d="M318.721 206.508c-6.463-1.702-13.275-3.191-20.102-4.492l-10.301 139.49 16.415-2.315z"/><path fill="#DB00F8" d="M256.094 43.864a.18.18 0 0 0-.161-.085.2.2 0 0 0-.08.015l-33.36 12.874c-.016.018-.067.276.105.659 1.951 4.352 4.18 7.486 6.495 9.726a877 877 0 0 1 22.437 2.495c3.567-1.828 6.011-4.268 7.247-7.312 3.05-7.511-1.7-16.622-2.683-18.372m-12.369 21.551a3.26 3.26 0 0 1-1.923 1.756 4.3 4.3 0 0 1-1.398.254c-2.579 0-3.718-2.875-4.373-4.527l-.423-1.048c-.9-2.195-2.405-5.87 1.015-7.447a3.43 3.43 0 0 1 2.726-.094c1.82.718 2.625 2.689 3.556 4.972 1.024 2.51 1.555 4.512.82 6.134m9.062-2.723a3.3 3.3 0 0 1-2.599.06c-1.64-.65-2.655-2.446-3.673-4.943-.857-2.1-1.744-4.274-.905-6.096a3.38 3.38 0 0 1 2.035-1.803c3.521-1.165 5.086 2.682 6.024 4.98.89 2.182 2.546 6.241-.882 7.802"/><path fill="#4C4C4C" d="M230.369 38.262a1.9 1.9 0 0 0-.074-1.187 1.897 1.897 0 0 0-2.476-1.044c-.211.085-2.078.895-2.593 2.857-.247.943-.238 2.441 1.168 4.24l.009.016.009.009.019.026c.037.046.083.08.123.122a3.16 3.16 0 0 0 2.402 1.087 3.62 3.62 0 0 0 2.176-.738c.822-.621 1.331-1.57 1.362-2.542a2.91 2.91 0 0 0-1.018-2.303 2.64 2.64 0 0 0-1.107-.543"/><path fill="#4C4C4C" d="M218.724 41.75a1.88 1.88 0 0 0-.074-1.187 1.9 1.9 0 0 0-2.476-1.044c-.211.086-2.078.895-2.592 2.858-.248.943-.239 2.441 1.168 4.24q.005.006.008.013l.007.007.021.03c.066.082.143.15.219.218.612.64 1.445.988 2.319.988.745 0 1.51-.24 2.166-.736.82-.622 1.329-1.571 1.359-2.54a2.91 2.91 0 0 0-1.021-2.307 2.6 2.6 0 0 0-1.104-.54"/><path fill="#4C4C4C" d="M247.648 49.91a3.38 3.38 0 0 0-2.035 1.803c-.84 1.821.047 3.995.905 6.096 1.018 2.496 2.033 4.291 3.673 4.943a3.3 3.3 0 0 0 2.599-.06c3.427-1.561 1.772-5.62.882-7.802-.938-2.298-2.504-6.146-6.024-4.98"/><path fill="#4C4C4C" d="M239.35 54.31a3.43 3.43 0 0 0-2.726.094c-3.42 1.577-1.915 5.252-1.015 7.447l.423 1.048c.655 1.652 1.794 4.526 4.373 4.526.425 0 .89-.079 1.399-.254a3.26 3.26 0 0 0 1.922-1.755c.735-1.622.204-3.625-.82-6.134-.931-2.284-1.735-4.255-3.556-4.973"/><path fill="#F295FF" d="M158.672 62.536q9.284.3 17.981.72c.399-.325.79-.663 1.166-1.023 1.755-1.672 3.18-3.727 4.341-6.027a1.493 1.493 0 0 1 2.791.993c-.485 2.215-1.416 4.38-2.713 6.336a1053 1053 0 0 1 39.839 2.852 40.3 40.3 0 0 1-4.042-7.015c-.685-1.529-.744-3.217-.162-4.631a4.93 4.93 0 0 1 2.82-2.739l28.191-10.879-.005-.002c-5.755-1.8-8.547-7.663-11.024-12.549a1.44 1.44 0 0 1 .705-1.932c1.445-.53 2.544 1.109 3.534 1.894 2.924 2.8 4.452 6.673 8.446 7.878 1.436.51 3.143.797 4.682 1.004 1.261.285 2.194.862 2.882 1.643-.256-2.52-1.003-5.054-1.929-7.405-.664-1.567-1.462-3.072-2.434-4.359-1.185-1.584-2.884-2.78-3.745-4.592-1.554-2.793-1.611-6.295-1.986-8.827-7.831-.805-16.601-1.331-24.648.244a39.5 39.5 0 0 1 8.232 3.823c1.29.761 2.484 1.71 3.249 3.143.621 1.103-.432 2.482-1.651 2.213-2.78-.481-4.837-2.451-7.426-3.406a34.5 34.5 0 0 0-7.636-2.321c-10.827-1.631-21.782.297-31.03 5.013l.008.002c1.025.462.851 2.077-.242 2.308-2.748.772-5.42.27-8.123.26-2.698-.09-5.4-.1-8.1-.087-8.292.084-16.563.654-24.757 1.86-.288 1.255-.273 2.638-.343 4.144-.106 3.031-.168 6.543-1.227 9.783-2.163 5.566-3.175 11.711-1.059 17.422a9.6 9.6 0 0 0 2.105 3.828c4.461.112 8.902.257 13.31.431m38.96-35.474c-.341.4-1.028.94-1.431 1.317-.446.408-.745.752-1.133.887l-1.126.39a2.24 2.24 0 0 1-2.851-1.384c-1.296-3.296 6.879-7.103 7.387-3.049.081.74-.415 1.323-.846 1.839m21.858 20.076a3.6 3.6 0 0 1-2.166.735 3.2 3.2 0 0 1-2.319-.988c-.075-.069-.153-.135-.219-.218l-.021-.03-.007-.007q-.003-.008-.008-.014c-1.407-1.797-1.416-3.296-1.168-4.24.514-1.961 2.381-2.771 2.592-2.857a1.9 1.9 0 0 1 2.477 1.044c.16.393.172.806.073 1.188.412.1.794.273 1.105.539a2.92 2.92 0 0 1 1.02 2.307c-.03.97-.539 1.919-1.359 2.54m11.643-3.49a3.62 3.62 0 0 1-2.314.736 3.16 3.16 0 0 1-2.264-1.084c-.041-.041-.087-.076-.123-.122l-.019-.026-.009-.01-.009-.016c-1.406-1.798-1.415-3.296-1.168-4.24.515-1.961 2.382-2.771 2.593-2.856a1.89 1.89 0 0 1 2.55 2.231c.413.1.796.275 1.107.543a2.9 2.9 0 0 1 1.017 2.303c-.03.971-.539 1.92-1.361 2.542"/><path fill="#4C4C4C" d="M191.09 28.273a2.24 2.24 0 0 0 2.851 1.383l1.125-.39c.388-.135.688-.479 1.134-.887.403-.376 1.089-.918 1.431-1.317.43-.516.926-1.099.846-1.838-.508-4.055-8.683-.248-7.387 3.049"/><path fill="#5B5B5B" d="M218.077 4.268c1.699.892 5.057 1.485 6.339.203 2.774-2.774-5.832-6.43-7.316-3.218a2.24 2.24 0 0 0 .977 3.015"/><path fill="#AD5400" d="M93.229 196.023c.058-.005.113-.019.171-.02a576 576 0 0 1 8.892-.036l15.773-2.184-9.75-118.563c-4.398 10.674-7.284 16.588-8.587 17.572-1.44 1.088-21.368 8.925-40.078 16.163l12.24 91.221 3.357-.465c12.07-2.877 17.434-3.63 17.85-3.685.044-.006.088 0 .132-.003"/><path fill="#FF7B00" d="m240.093 159.007 41.435-7.524.173-18.718c-12.223 2.899-24.581 5.234-37.062 6.695-1.981.191-2.641-2.625-.789-3.334 12.185-4.36 25.031-6.567 37.892-7.739l.055-5.967-48.071 8.729zm5.144-12.236c1.878-.904 3.823-1.576 5.791-2.165 4.964-1.404 10.101-2.261 15.279-2.3 1.802.066 5.291-.308 5.039 2.493-.121.974-.896 1.671-1.814 1.799-7.772 1.385-15.57 3.183-23.51 3.506a1.753 1.753 0 0 1-.785-3.333"/><path fill="#FF7B00" d="M209.258 90.74c-20.232-1.376-81.744-1.495-82.362-1.496a2.5 2.5 0 0 1-2.125-1.187l-11.979-19.412 10.229 124.386c3.03-.359 8.679-.776 19.478-1.25 18.863-.827 58.206-1.96 138.678-2.68l.301-32.527-42.846 7.781q-.227.041-.449.04a2.5 2.5 0 0 1-2.436-1.943l-7.482-32.739a2.504 2.504 0 0 1 1.992-3.017l51.585-9.368.177-19.191c-15.843-2.185-41.504-5.273-72.761-7.397"/><path fill="#4C4C4C" d="M246.019 150.104c7.941-.323 15.738-2.121 23.51-3.506.918-.128 1.694-.825 1.815-1.799.252-2.801-3.237-2.427-5.04-2.494-5.178.039-10.315.897-15.279 2.301-1.968.589-3.912 1.261-5.79 2.165a1.754 1.754 0 0 0 .784 3.333"/><path fill="#FF7B00" d="M191.666 207.438c-4.081-.608-13.97-1.992-27.722-3.325l-.734 15.023a2.5 2.5 0 0 1-2.497 2.379h-.049l-25.599-.486a2.5 2.5 0 0 1-2.453-2.535l.237-16.682c-11.409-.583-23.875-.928-36.91-.828l.453 158.697 40.687-6.043V337.55a2.5 2.5 0 0 1 1.684-2.363l24.417-8.432a2.5 2.5 0 0 1 2.163.257 2.5 2.5 0 0 1 1.142 1.854l2.04 20.101 24.456-3.633z"/><path fill="#AD5400" d="M57.502 302.207c3.983.656 7.974-.509 11.24-3.279 4.4-3.733 6.928-9.814 6.932-16.687.005-7.178-2.68-13.621-7.368-17.677-2.865-2.478-6.232-3.788-9.65-3.788q-.97 0-1.94.142c-8.227 1.204-14.433 10.332-14.128 20.782.301 10.342 6.713 19.157 14.914 20.507m-7.967-22.517 5.48-8.681c.52-.821 1.192-1.305 2.001-1.438.836-.136 1.603.131 2.283.794l7.622 7.428c.646.631 1.016 1.482 1.101 2.531.085 1.044-.141 1.948-.674 2.688-.548.759-1.295 1.18-2.22 1.25-.925.075-1.707-.225-2.35-.877l-1.63-1.654.72 8.671c.084 1.006-.135 1.875-.65 2.583-.536.737-1.253 1.12-2.132 1.139l-.067.001c-.829 0-1.555-.336-2.162-.999-.593-.65-.936-1.471-1.018-2.439l-.705-8.313-1.14 1.725c-.474.718-1.131 1.114-1.953 1.178-.813.062-1.517-.22-2.093-.845-.538-.586-.852-1.361-.934-2.303-.082-.943.094-1.763.521-2.439"/><path fill="#AD5400" d="m34.13 346.32 57.26 13.119-.451-157.98c-7.023 1.289-27.62 5.608-67.339 17.918zm21.859-90.351c5.527-.805 11.063.899 15.586 4.813 5.789 5.006 9.105 12.829 9.099 21.462-.006 8.343-3.178 15.813-8.7 20.498-3.59 3.046-7.864 4.646-12.277 4.646a18.5 18.5 0 0 1-3.01-.247c-10.519-1.73-18.73-12.606-19.1-25.295-.382-13.161 7.528-24.286 18.402-25.877"/><path fill="#4C4C4C" d="m309.748 339.331 14.171-134.424a2.5 2.5 0 0 0-1.827-2.673c-12.809-3.505-27.118-6.162-40.331-8.137l1.918-.017a2.5 2.5 0 0 0 2.479-2.477l.859-92.763c7.854 1.132 12.26 1.891 12.385 1.913q.215.038.429.037a2.502 2.502 0 0 0 2.035-3.953l-15.113-21.182c-.014-.019-.032-.033-.046-.052a2 2 0 0 0-.203-.232c-.036-.037-.069-.077-.107-.11a2.4 2.4 0 0 0-.331-.255l-.035-.025a2.5 2.5 0 0 0-.418-.206c-.044-.017-.091-.026-.136-.04-.087-.028-.171-.06-.262-.078-.242-.05-9.253-1.846-25.72-4.075.075-.275.156-.547.223-.824a17.5 17.5 0 0 0 3.695-5.64c2.751-6.776.858-14.038-1.033-18.675 1.546-5.164.048-10.757-1.824-15.629-.797-1.859-1.756-3.676-3.036-5.365-.974-1.458-2.527-2.427-3.389-3.969-1.174-2.083-1.12-4.863-1.574-7.478-.137-.581-.238-1.275-.906-2.231-.552-.834-1.786-1.434-2.839-1.427-9.965-.881-20.301-1.186-29.982 1.878l-1.414.53c-.516.24-1.078.42-1.541.706-12.711-1.595-26.034 1.715-36.661 8.822l-.306-.02c-2.75-.154-5.501-.226-8.255-.273-8.612-.103-17.259.297-25.818 1.392-4.129.417-3.839 5.629-4.03 8.514-.16 3.423-.245 6.392-1.42 9.316-1.819 4.84-2.837 10.07-1.956 15.278.441 2.225.926 4.443 1.857 6.488a748 748 0 0 0-26.187-.027l-.022.003c-1.051.007-2.098.012-3.156.021l-.018.002c-.062.001-.124.014-.186.02a3 3 0 0 0-.161.019l-.026.003c-.042.007-.086.007-.128.016-.089.02-.176.056-.263.086-.074.025-.15.042-.221.074l-.004.001-55.43 24.978a2.5 2.5 0 0 0-.636.417q-.01.01-.021.017a2.5 2.5 0 0 0-.469.583l-.015.02-13.823 24.126a2.5 2.5 0 0 0 3.064 3.578 6832 6832 0 0 0 13.271-5.104l12.201 90.93c-11.284 2.884-26.63 7.156-46.856 13.459a2.5 2.5 0 0 0-1.747 2.594L28.83 342.893C10.512 346.122-.124 349.887 0 353.812c.333 10.479 77.224 18.132 171.739 17.094 94.516-1.039 170.866-10.375 170.533-20.854-.132-4.134-12.184-7.827-32.525-10.721m8.973-132.824L304.734 339.19l-16.416 2.315 10.302-139.49c6.827 1.302 13.638 2.79 20.101 4.492m-25.076-5.025-10.394 140.737-14.199 2.003c.697-9.784 2.929-41.285 5.025-72.486 1.475-21.96 2.594-39.478 3.329-52.067.646-11.075 1.012-17.357 1.038-20.984zm-60.793 147.843 5.517-154.758 3.344-.043a619 619 0 0 1 31.741 3.44c-.194 13.39-5.573 92.528-9.465 146.971zm-34.908-8.176-1.296-135.882a2.5 2.5 0 0 0-2.094-2.444c-.15-.024-5.2-.841-13.865-1.904 11.897-2.26 27.562-4.584 47.171-6.208l5.503-.077-5.503 154.371zm-62.877-120.12 25.599.486h.049a2.5 2.5 0 0 0 2.496-2.379l.734-15.023c13.752 1.333 23.641 2.717 27.723 3.325l1.314 137.896-24.455 3.633-2.041-20.101a2.5 2.5 0 0 0-1.141-1.854 2.5 2.5 0 0 0-2.163-.257l-24.417 8.431a2.5 2.5 0 0 0-1.684 2.364v16.088l-40.687 6.043-.454-158.697c13.036-.101 25.501.244 36.91.828l-.236 16.681a2.5 2.5 0 0 0 2.453 2.536m2.583-4.953.199-14.077c9.905.319 17.534 1.112 21.117 1.543l-.632 12.926zm25.869 133.083-21.437 3.105v-12.932l19.748-6.819zm118.222-220.772c-12.86 1.171-25.706 3.378-37.891 7.739-1.853.709-1.192 3.525.788 3.334 12.482-1.462 24.84-3.797 37.063-6.695l-.174 18.717-41.435 7.525-6.366-27.859 48.07-8.729zm-22.962-66.15c-1.236 3.043-3.68 5.483-7.247 7.311a877 877 0 0 0-22.437-2.495c-2.315-2.24-4.544-5.374-6.495-9.726-.172-.383-.121-.641-.104-.66l33.359-12.873a.2.2 0 0 1 .08-.015c.068 0 .13.031.161.085.983 1.75 5.733 10.86 2.683 18.372M144.318 40.855c1.059-3.24 1.121-6.753 1.226-9.784.07-1.506.055-2.889.343-4.144 8.194-1.206 16.465-1.776 24.757-1.86 2.7-.013 5.402-.003 8.101.087 2.703.01 5.374.512 8.122-.26 1.093-.23 1.267-1.846.242-2.307l-.007-.003c9.247-4.716 20.202-6.644 31.03-5.013a34.6 34.6 0 0 1 7.636 2.322c2.588.954 4.645 2.924 7.425 3.405 1.219.27 2.273-1.11 1.651-2.213-.765-1.433-1.958-2.381-3.249-3.142a39.5 39.5 0 0 0-8.231-3.824c8.047-1.575 16.817-1.049 24.647-.243.375 2.531.432 6.033 1.987 8.826.861 1.812 2.56 3.009 3.744 4.593.973 1.287 1.77 2.791 2.434 4.358.926 2.352 1.674 4.885 1.929 7.405-.687-.78-1.62-1.357-2.882-1.642-1.538-.208-3.246-.495-4.682-1.005-3.993-1.205-5.521-5.077-8.446-7.878-.99-.785-2.088-2.424-3.534-1.894a1.44 1.44 0 0 0-.705 1.933c2.477 4.886 5.269 10.749 11.024 12.549l.005.001-28.191 10.88a4.93 4.93 0 0 0-2.82 2.738c-.582 1.415-.523 3.102.163 4.631a40 40 0 0 0 4.041 7.016 1052 1052 0 0 0-39.838-2.853c1.297-1.957 2.227-4.12 2.713-6.335a1.493 1.493 0 0 0-2.791-.993c-1.161 2.299-2.586 4.354-4.342 6.026-.376.36-.767.698-1.166 1.023q-8.696-.419-17.981-.72a913 913 0 0 0-13.31-.43 9.55 9.55 0 0 1-2.104-3.829c-2.117-5.71-1.104-11.856 1.059-17.421m138.974 38.56 11.028 15.456c-12.528-1.931-43.893-6.347-84.72-9.122-18.68-1.27-71.984-1.477-81.301-1.503l-10.713-17.36c76.335-.832 155.795 11 165.706 12.529m-158.519 8.64a2.5 2.5 0 0 0 2.125 1.188c.618 0 62.13.119 82.362 1.495 31.257 2.125 56.918 5.213 72.761 7.397l-.177 19.192-51.585 9.367a2.5 2.5 0 0 0-1.992 3.018l7.482 32.738a2.5 2.5 0 0 0 2.885 1.904l42.846-7.781-.301 32.526c-80.472.72-119.815 1.853-138.678 2.681-10.799.473-16.448.89-19.478 1.25L112.794 68.644zm-78.42 20.668 9.926-17.326 49.044-22.1c-3.705 9.14-7.468 17.79-8.694 19.532-3.314 1.68-29.64 11.951-50.277 19.894m13.3.232C78.361 101.717 98.29 93.88 99.73 92.793c1.302-.985 4.188-6.899 8.587-17.573l9.75 118.563-15.773 2.184q-4.401-.016-8.892.036c-.058.001-.114.015-.172.02-.043.003-.087-.003-.13.003-.417.055-5.781.808-17.85 3.685l-3.358.465zm-36.05 110.421c39.719-12.31 60.315-16.629 67.338-17.918l.451 157.98-57.26-13.119z"/><path fill="#AD5400" d="M96.627 88.83c1.227-1.742 4.989-10.392 8.694-19.533l-49.044 22.1-9.927 17.326c20.637-7.942 46.964-18.213 50.277-19.894"/><path fill="#FF7B00" d="m294.32 94.872-11.028-15.457c-9.911-1.528-89.371-13.36-165.706-12.529l10.714 17.36c9.316.027 62.621.233 81.3 1.504 40.828 2.775 72.192 7.19 84.72 9.121"/><path fill="#FFB46D" d="m137.847 201.998-.199 14.077 20.684.392.632-12.926c-3.583-.431-11.212-1.224-21.117-1.543"/><path fill="#FFB46D" d="m142.08 352.264 21.437-3.105-1.688-16.647-19.749 6.819z"/><path fill="#4C4C4C" d="M52.04 285.276c.823-.063 1.48-.46 1.954-1.177l1.14-1.725.705 8.313c.082.968.425 1.788 1.018 2.439.607.663 1.333.999 2.162.999l.067-.001c.88-.019 1.596-.402 2.131-1.14.516-.707.735-1.576.652-2.582l-.721-8.671 1.63 1.653c.643.653 1.425.953 2.35.878.925-.071 1.672-.492 2.22-1.251.533-.739.76-1.644.674-2.688-.084-1.049-.455-1.9-1.101-2.531l-7.622-7.427c-.68-.663-1.447-.931-2.283-.794-.808.133-1.481.616-2 1.438l-5.48 8.68c-.428.676-.604 1.497-.522 2.439.083.943.396 1.718.934 2.304.576.625 1.28.907 2.093.844"/><path fill="#4C4C4C" d="M56.687 307.142a18.5 18.5 0 0 0 3.01.247c4.413 0 8.686-1.601 12.277-4.647 5.522-4.684 8.694-12.155 8.7-20.497.006-8.634-3.31-16.457-9.099-21.463-4.523-3.914-10.06-5.617-15.586-4.812-10.874 1.591-18.785 12.715-18.402 25.876.37 12.69 8.581 23.565 19.1 25.296m.027-46.224a13 13 0 0 1 1.94-.142c3.418 0 6.785 1.31 9.65 3.788 4.688 4.056 7.374 10.499 7.369 17.677-.005 6.873-2.532 12.954-6.933 16.687-3.266 2.77-7.257 3.935-11.24 3.279-8.201-1.35-14.613-10.165-14.913-20.507-.305-10.45 5.9-19.578 14.127-20.782"/><path fill="#FFB46D" d="m283.249 342.219 10.394-140.738-15.2-2.796c-.027 3.627-.393 9.908-1.039 20.984-.734 12.588-1.854 30.107-3.329 52.067a19851 19851 0 0 1-5.024 72.485z"/></svg>