<svg xmlns="http://www.w3.org/2000/svg" width="480" height="480" fill="none" viewBox="0 0 480 480">
  <path
    fill="#8CBA3B"
    d="M305.958 291.215c-3.023 15.525-6.386 31.067-9.623 46.429-.58 2.648-.767 5.45-2.636 7.557-1.744 2.138-4.458 3.397-7.206 3.398-2.272-.074-5.813-.575-8.065-.855-14.28-2.033-28.761-4.393-43.287-6.887l-2.711 1.9c17.885 2.851 35.737 5.473 53.368 7.578l3.246.368 1.62.17.809.085c1.948.278 3.949-.845 4.623-2.681 4.591-20.077 9.292-40.412 14.587-60.375z"
  />
  <path
    fill="#8CBA3B"
    d="M198.238 334.355c-11.914-2.121-23.775-4.222-35.484-6.19-3.808-.744-9.975-1.193-13.445-3.196a1.262 1.262 0 0 1 .347-2.343c2.346-.459 4.667-.308 6.988.012 14.773 2.224 29.792 4.639 44.855 7.128l1.138-1.601c-4.082-.636-8.204-1.269-12.342-1.888-4.784-.717-9.415-1.405-13.863-2.065-20.789-3.088-37.709-5.602-47.061-7.599 1.201 1.296 2.96 2.405 4.493 3.023 2.654 1.185 5.642 1.803 8.688 2.106 1.556.148 1.503 2.449-.021 2.571a28.4 28.4 0 0 1-5.735-.12c.55 1.395 1.873 2.418 3.409 2.662 3.107.817 6.256 1.431 9.44 2.017 15.46 2.548 31.122 5.255 46.854 7.93z"
  />
  <path
    fill="#8CBA3B"
    d="m347.174 102.546-1.1-.337c-5.146 17.182-16.577 56.575-28.279 105.102a2734 2734 0 0 0-10.782 46.507l2.562-1.796-.106-.052 4.053-2.714 7.396-5.185c2.967-12.214 6.932-25.489 9.773-35.873 6.91-24.417 14.672-51.342 21.993-75.779 1.266-4.2 2.536-8.396 3.856-12.598l.501-1.578c.164-.512.36-1.124.421-1.388.517-2.104-.801-4.386-2.889-5.027l-.369-.114c-5.712 18.117-11.06 36.379-16.386 54.62a3832 3832 0 0 0-10.453 36.652c-3.088 10.764-6.851 26.232-11.008 36.514-.582 1.266-2.44.79-2.287-.612 1.406-10.972 6.088-26.302 8.969-37.107 8.759-31.383 17.712-62.697 27.405-93.809.715-2.333-.91-4.901-3.27-5.426"
  />
  <path
    fill="#000"
    d="M125.563 319.036c1.627 1.698 3.605 2.931 5.752 3.785.093 2.806 1.402 5.592 3.677 7.279 1.121.875 2.528 1.437 3.884 1.756 3.249.856 6.559 1.492 9.837 2.095 8.731 1.595 29.948 4.937 38.935 6.464 1.854.323 3.731.645 5.595.967l-8.551 12.031a3.04 3.04 0 0 0-.057 3.467 3.06 3.06 0 0 0 2.563 1.38q.345 0 .692-.076l32.923-7.484c.211-.047.402-.13.585-.227l.008.011.131-.092q.12-.074.229-.16l4.678-3.279c19.677 3.172 39.497 6.095 58.773 8.366.972.091 4.042.481 4.934.54 3.567.639 7.478-.736 9.561-3.809.841-1.162 1.328-2.548 1.587-3.949 4.536-20.781 9.133-41.897 13.127-62.823l37.436-26.243c2.362-1.656 2.991-4.383 1.869-8.106-1.318-4.369-4.317-10.579-11.125-15.348-1.185-.829-4.788-3.355-8.298-.895l-7.875 5.521c3.03-10.629 5.846-21.832 8.601-30.779 8.387-29.316 17.359-60.57 26.478-89.741 2.122-4.842-.362-10.71-5.445-12.342-.251-.079-.503-.153-.755-.232a7 7 0 0 0-.025-1.051c-.272-3.657-2.94-6.895-6.426-7.942l-.286-.088-1.143-.353-.151-.047a9.07 9.07 0 0 0-1.062-5.312c-1.194-2.197-3.188-3.792-5.613-4.494-15.552-4.496-57.658-13.481-98.642-18.485-44.463-5.43-76.05-6.038-90.785-4.798-4.02.34-7.357 3.175-8.301 7.056a552 552 0 0 1-1 4.034 12 12 0 0 0-1.603-.26 12.05 12.05 0 0 0-8.859 2.812 12.08 12.08 0 0 0-4.277 8.258c-.52 6.032 3.483 11.417 9.176 12.827-.336 1.543-.679 3.15-1.026 4.794a12 12 0 0 0-1.693-.17c-6.71-.13-12.259 5.178-12.411 11.879a12.1 12.1 0 0 0 3.358 8.672 12.05 12.05 0 0 0 6.147 3.472 745 745 0 0 0-.88 5.13c-.211-.016-.419-.04-.632-.045-6.696-.135-12.259 5.177-12.411 11.878a12.08 12.08 0 0 0 3.358 8.672 12.04 12.04 0 0 0 6.082 3.458 750 750 0 0 0-.667 5.145c-6.542.031-11.948 5.274-12.098 11.869a12.1 12.1 0 0 0 3.358 8.672 12.05 12.05 0 0 0 6.125 3.468 638 638 0 0 0-.379 4.279c-6.269.362-11.281 5.482-11.425 11.851a12.08 12.08 0 0 0 3.358 8.672 12.04 12.04 0 0 0 6.296 3.498q-.135 2.034-.26 4.016c-6.526.091-11.803 5.318-11.951 11.865a12.1 12.1 0 0 0 3.357 8.672 12.04 12.04 0 0 0 7.246 3.661q-.112 2.379-.21 4.659a12.133 12.133 0 0 0-10.955 11.815 12.1 12.1 0 0 0 3.358 8.672 12.03 12.03 0 0 0 6.86 3.594 671 671 0 0 0-.051 3.761c-5.605.977-9.928 5.797-10.062 11.695a12.1 12.1 0 0 0 3.357 8.673 12.04 12.04 0 0 0 7.047 3.626c.176 3.636.395 6.475.613 8.656.289 2.885 1.943 5.422 4.354 6.915.172 1.635 1.03 3.124 2.085 4.292m-1.463-11.705c-.493-4.925-.988-13.247-.969-26.73a7.1 7.1 0 0 1 2.271 1.602 7.12 7.12 0 0 1 1.977 5.108 2.5 2.5 0 0 0 4.999.113 12.08 12.08 0 0 0-3.358-8.672 12.05 12.05 0 0 0-5.857-3.396c.066-6.338.238-13.665.558-22.119a7.2 7.2 0 0 1 1.577 1.244 7.1 7.1 0 0 1 1.976 5.107 2.5 2.5 0 1 0 5 .113 12.08 12.08 0 0 0-3.358-8.671 12.1 12.1 0 0 0-4.98-3.155c.295-6.907.684-14.509 1.184-22.866.258.205.508.423.739.665a7.12 7.12 0 0 1 1.977 5.107 2.501 2.501 0 0 0 4.999.113 12.1 12.1 0 0 0-3.358-8.672 12.1 12.1 0 0 0-4.014-2.783c.402-6.351.865-13.11 1.398-20.309.065-.877.136-1.738.204-2.608a7.12 7.12 0 0 1 3.328 6.208 2.5 2.5 0 0 0 2.443 2.556c1.365.049 2.524-1.062 2.556-2.443a12.1 12.1 0 0 0-3.358-8.672 12.1 12.1 0 0 0-4.534-2.984 712 712 0 0 1 2.301-22.653 7.12 7.12 0 0 1 2.913 5.926 2.5 2.5 0 0 0 4.999.113 12.08 12.08 0 0 0-3.358-8.672 12.1 12.1 0 0 0-3.901-2.741 717 717 0 0 1 3.303-23.242c.103.096.208.188.305.29a7.12 7.12 0 0 1 1.977 5.108 2.5 2.5 0 0 0 2.442 2.556 2.5 2.5 0 0 0 2.557-2.443 12.1 12.1 0 0 0-3.358-8.672 12.2 12.2 0 0 0-3.034-2.308 710 710 0 0 1 4.211-22.912 7.1 7.1 0 0 1 1.6 4.672 2.501 2.501 0 0 0 4.999.113 12.08 12.08 0 0 0-5.446-10.41 712 712 0 0 1 5.096-22.49 7.14 7.14 0 0 1 1.239 4.675 2.5 2.5 0 0 0 2.276 2.706 2.497 2.497 0 0 0 2.705-2.277c.373-4.33-1.589-8.323-4.827-10.76l.368-1.478c.343-1.37.635-2.543.869-3.507.435-1.789 1.988-3.098 3.863-3.255 3.954-.333 9.149-.53 15.514-.53 16.954 0 42.192 1.394 74.244 5.308 40.714 4.971 82.463 13.874 97.86 18.326a4.3 4.3 0 0 1 2.609 2.078c.534.983.651 2.112.327 3.182-4.641 15.365-16.78 56.672-29.217 108.251a2737 2737 0 0 0-11.986 51.929l-15.894 11.142c.155-1.017-.484-2-1.503-2.243-26.757-6.393-49.616-10.853-68.627-13.969 6.412-10.588 12.657-19.431 18.725-26.835 16.168 2.933 34.597 6.737 55.277 11.678q.235.055.466.055a2.002 2.002 0 0 0 .463-3.946c-19.794-4.729-37.544-8.421-53.239-11.309 11.125-12.853 21.639-20.968 31.484-26.342 8.536 1.832 17.517 3.86 26.951 6.114q.236.055.467.055a2 2 0 0 0 .463-3.945 1207 1207 0 0 0-22.177-5.08c5.84-2.668 11.428-4.467 16.749-5.845 1.261-.326 2.311-1.113 2.881-2.161a3.86 3.86 0 0 0 .265-3.097l-11.08-24.343a990 990 0 0 1 21.065 4.793q.234.055.466.055a2.002 2.002 0 0 0 .463-3.946 991 991 0 0 0-24.056-5.433l-4.711-10.35a4.16 4.16 0 0 0-2.048-2.253 3.86 3.86 0 0 0-2.998-.193c-5.363 1.876-10.513 4.556-15.414 7.796-63.159-11.627-99.757-11.326-100.202-11.33a2 2 0 0 0-1.974 2.026c.014 1.104.924 1.95 2.026 1.974.429-.013 35.235-.279 95.577 10.561-11.461 8.665-21.342 20.267-28.995 31.693-45.205-7.482-69.066-7.842-69.407-7.845h-.021a2 2 0 0 0-.02 4c.333.003 23.358.359 67.059 7.505-6.228 9.864-10.717 19.34-13.028 26.373l-14.243-25.473a4.09 4.09 0 0 0-2.563-2.299 4.12 4.12 0 0 0-3.666.643l-20.292 19.295c-1.587 1.304-1.957 3.617-.826 5.346l.149.229.196.191c.033.032.663.653 1.786 1.815-12.21-.915-18.462-.836-18.632-.834a2 2 0 0 0-1.963 2.036c.02 1.104.925 2.029 2.035 1.963.184-.005 7.781-.096 22.633 1.169 5.897 6.424 15.694 17.697 26.805 32.893-35.672-4.981-53.477-4.56-53.76-4.55a2 2 0 0 0-1.939 2.059c.033 1.104.961 1.96 2.059 1.939.286-.006 19.093-.444 56.884 5.051a423 423 0 0 1 3.245 4.622c.765 1.108 1.987 1.756 3.295 1.756q.08 0 .163-.004c1.477-.061 2.823-.904 3.601-2.255q.678-1.176 1.353-2.327c19.211 3.109 42.495 7.622 69.901 14.169.023.006.047.004.07.008l-30.855 21.63c-72.254-15.086-105.77-13.608-106.146-13.59a2 2 0 0 0-1.894 2.1 2.005 2.005 0 0 0 2.099 1.896c.362-.023 32.361-1.403 101.443 12.747l-40.177 28.164a2216 2216 0 0 0-16.129-2.481c-4.785-.717-9.42-1.405-13.868-2.066-23.366-3.47-41.821-6.211-49.838-8.255-1.756-.447-3.054-1.926-3.229-3.681m226.345-199.358c-9.693 31.113-18.646 62.427-27.405 93.81-2.882 10.805-7.563 26.134-8.969 37.107-.153 1.402 1.704 1.877 2.287.612 4.157-10.282 7.92-25.751 11.008-36.515a3861 3861 0 0 1 10.452-36.652c5.326-18.24 10.674-36.502 16.387-54.619l.368.113c2.089.642 3.406 2.924 2.89 5.028-.061.263-.258.875-.421 1.387l-.501 1.578a1134 1134 0 0 0-3.856 12.599c-7.322 24.436-15.084 51.361-21.993 75.779-2.842 10.384-6.807 23.659-9.774 35.873l-7.396 5.184-4.053 2.714.106.053-2.561 1.796a2732 2732 0 0 1 10.782-46.507c11.701-48.527 23.132-87.921 28.279-105.102l1.1.337c2.36.524 3.985 3.092 3.27 5.425m-58.974 242.986-.81-.085-1.619-.171-3.246-.368c-17.631-2.104-35.483-4.727-53.368-7.578l2.711-1.9c14.526 2.494 29.007 4.855 43.287 6.887 2.252.28 5.793.781 8.065.856 2.748-.002 5.462-1.261 7.206-3.398 1.869-2.108 2.056-4.91 2.636-7.557 3.237-15.363 6.6-30.905 9.623-46.43l4.725-3.312c-5.295 19.963-9.996 40.298-14.587 60.374-.674 1.836-2.676 2.959-4.623 2.682m-96.59-3.681 11.98-16.855 11.564 15.949-21.166 4.811zm-54.677-20.421c-1.535-.245-2.858-1.268-3.409-2.663 1.93.243 3.877.268 5.736.12 1.523-.122 1.576-2.422.02-2.57-3.046-.304-6.033-.921-8.688-2.107-1.532-.618-3.291-1.726-4.492-3.022 9.352 1.997 26.271 4.511 47.061 7.598 4.447.661 9.079 1.349 13.862 2.065 4.138.62 8.26 1.252 12.343 1.888l-1.138 1.601c-15.064-2.489-30.083-4.903-44.856-7.128-2.321-.32-4.642-.471-6.987-.012a1.263 1.263 0 0 0-.348 2.344c3.47 2.002 9.637 2.452 13.445 3.196 11.709 1.968 23.571 4.069 35.484 6.189l-1.739 2.447c-15.732-2.675-31.394-5.382-46.853-7.929-3.185-.587-6.334-1.201-9.441-2.017m151.623-25.737a1978 1978 0 0 0-5.965 30.521c-.401 2.15-2.396 3.651-4.631 3.465-6.353-.495-17.747-2.216-31.563-4.434zm-48.032 33.669c16.632 2.696 29.71 4.731 37.047 5.303q.378.029.751.029c4.481 0 8.359-3.14 9.184-7.563 1.344-7.208 3.692-19.469 7.004-35.613l3.346-2.345a2042 2042 0 0 0-6.693 28.529c-1.01 4.49-2.022 8.972-2.981 13.494-.568 2.403-.577 5.68-3.365 6.655-1.287.648-4.255-.027-5.586-.106a458 458 0 0 1-10.16-1.503 12008 12008 0 0 1-30.937-5.204zm-21.23 8.776-11.748-16.205 103.816-72.775c7.875 4.449 11.961 11.776 13.457 15.008zm115.829-81.267-6.178 4.304c-1.859-3.782-5.877-10.355-13.05-15.107l6.718-4.499c8.837 5.803 11.663 12.447 12.51 15.302m10.598-7.357-6.326 4.435c-1.44-3.836-4.83-10.035-12.628-15.589l7.14-5.006c.175-.123.641-.448 2.558.895 5.637 3.948 8.118 9.084 9.207 12.696.648 2.149.212 2.454.049 2.569M202.869 217.35a4.05 4.05 0 0 0 3.885 2.483 4.07 4.07 0 0 0 3.815-2.951c5.296-18.53 29.274-59.458 60.97-71.162l16.969 37.248c-22.821 6.051-50.196 19.671-80.89 72.548-18.08-25.971-34.054-42.746-38.023-46.788l18.569-17.678zM132.12 86.871a7.1 7.1 0 0 1 2.519-4.862 7.08 7.08 0 0 1 6.038-1.528 746 746 0 0 0-3.279 13.912 7.16 7.16 0 0 1-5.278-7.522m-3.96 34.122a7.1 7.1 0 0 1-1.976-5.107c.089-3.945 3.378-7.118 7.299-6.993.267.006.531.031.792.065a703 703 0 0 0-2.701 14.023 7.1 7.1 0 0 1-3.414-1.988m-4.418 29.108a7.12 7.12 0 0 1-1.976-5.108c.089-3.922 3.348-7.076 7.232-6.991a716 716 0 0 0-2.108 14.014 7.1 7.1 0 0 1-3.148-1.915m-3.324 29.143a7.12 7.12 0 0 1-1.977-5.107c.083-3.67 2.918-6.664 6.485-6.967-.538 4.53-1.048 9.18-1.52 13.946a7.1 7.1 0 0 1-2.988-1.872m-2.322 28.27a7.1 7.1 0 0 1-1.976-5.107c.079-3.502 2.688-6.394 6.01-6.909-.086 1.086-.174 2.166-.255 3.263-.271 3.657-.523 7.196-.759 10.634a7.1 7.1 0 0 1-3.02-1.881m-2.556 28.052a7.1 7.1 0 0 1-1.977-5.108 7.153 7.153 0 0 1 6.641-6.969c-.302 4.978-.564 9.696-.791 14.163a7.07 7.07 0 0 1-3.873-2.086m-.562 28.807a7.1 7.1 0 0 1-1.976-5.108c.077-3.412 2.54-6.232 5.75-6.86a902 902 0 0 0-.432 13.936 7.07 7.07 0 0 1-3.342-1.968m.105 27.722a7.1 7.1 0 0 1-1.977-5.107c.071-3.152 2.18-5.813 5.031-6.688-.011 5.326.057 9.87.174 13.733a7.1 7.1 0 0 1-3.228-1.938"
  />
  <path
    fill="#8CBA3B"
    d="M282.503 343.17c1.331.08 4.299.754 5.586.106 2.788-.975 2.797-4.252 3.365-6.655.959-4.521 1.971-9.003 2.981-13.494a2045 2045 0 0 1 6.693-28.529l-3.346 2.346c-3.312 16.143-5.66 28.405-7.004 35.613-.825 4.422-4.703 7.562-9.184 7.562a10 10 0 0 1-.751-.029c-7.337-.572-20.415-2.607-37.047-5.302l-2.39 1.675c10.396 1.758 20.733 3.506 30.937 5.204a452 452 0 0 0 10.16 1.503"
  />
  <path
    fill="#D2E6B0"
    d="M127.33 311.012c8.017 2.044 26.472 4.785 49.837 8.255 4.449.661 9.083 1.349 13.869 2.066 5.423.812 10.82 1.646 16.129 2.481l40.177-28.164c-69.083-14.151-101.081-12.771-101.443-12.748a2.004 2.004 0 0 1-2.099-1.895 2 2 0 0 1 1.894-2.1c.375-.018 33.891-1.497 106.146 13.59l30.855-21.63c-.023-.005-.047-.002-.071-.008-27.405-6.547-50.689-11.06-69.9-14.169q-.675 1.15-1.353 2.327c-.778 1.351-2.124 2.194-3.601 2.255l-.164.003c-1.307 0-2.529-.648-3.295-1.755a423 423 0 0 0-3.244-4.622c-37.791-5.495-56.599-5.057-56.884-5.051-1.098.021-2.026-.835-2.059-1.939a2 2 0 0 1 1.939-2.059c.283-.01 18.088-.431 53.76 4.55-11.111-15.197-20.908-26.469-26.806-32.894-14.851-1.264-22.449-1.173-22.632-1.168-1.11.066-2.015-.859-2.035-1.963a2 2 0 0 1 1.962-2.036c.17-.003 6.422-.081 18.632.834-1.122-1.162-1.753-1.783-1.785-1.815l-.196-.191-.15-.229c-1.13-1.729-.76-4.042.827-5.347l20.292-19.294a4.12 4.12 0 0 1 3.666-.643 4.09 4.09 0 0 1 2.563 2.299l14.243 25.473c2.311-7.034 6.8-16.509 13.028-26.374-43.701-7.145-66.726-7.501-67.059-7.505a2 2 0 0 1 .02-4h.021c.341.004 24.202.364 69.407 7.846 7.653-11.426 17.534-23.028 28.995-31.693-60.342-10.84-95.148-10.574-95.577-10.561-1.102-.024-2.012-.87-2.026-1.974a2 2 0 0 1 1.974-2.026c.445.004 37.043-.297 100.201 11.33 4.902-3.241 10.052-5.921 15.415-7.796a3.86 3.86 0 0 1 2.998.192 4.17 4.17 0 0 1 2.048 2.254l4.711 10.349a996 996 0 0 1 24.056 5.434 2.001 2.001 0 0 1-.93 3.891 994 994 0 0 0-21.064-4.794l11.08 24.344a3.86 3.86 0 0 1-.266 3.097c-.569 1.047-1.619 1.835-2.88 2.161-5.322 1.377-10.909 3.176-16.749 5.845a1207 1207 0 0 1 22.177 5.079 2 2 0 0 1-.93 3.891 1195 1195 0 0 0-26.951-6.114c-9.845 5.374-20.359 13.489-31.484 26.342 15.695 2.888 33.445 6.58 53.239 11.309a1.999 1.999 0 1 1-.929 3.89c-20.68-4.94-39.11-8.744-55.277-11.677-6.068 7.404-12.313 16.246-18.726 26.835 19.012 3.115 41.87 7.576 68.628 13.968a1.994 1.994 0 0 1 1.503 2.244l15.894-11.142a2742 2742 0 0 1 11.985-51.929c12.437-51.579 24.577-92.886 29.218-108.251a4.12 4.12 0 0 0-.327-3.182 4.3 4.3 0 0 0-2.609-2.079c-15.397-4.451-57.146-13.354-97.86-18.326-32.052-3.913-57.29-5.307-74.244-5.307-6.366 0-11.56.196-15.514.53-1.875.157-3.428 1.466-3.863 3.255a717 717 0 0 1-.869 3.507l-.368 1.478c3.238 2.436 5.2 6.43 4.827 10.76a2.497 2.497 0 0 1-2.705 2.276 2.5 2.5 0 0 1-2.276-2.705 7.14 7.14 0 0 0-1.24-4.676 710 710 0 0 0-5.095 22.49 12.09 12.09 0 0 1 5.446 10.411 2.5 2.5 0 0 1-4.999-.114 7.1 7.1 0 0 0-1.6-4.671 707 707 0 0 0-4.211 22.912 12.2 12.2 0 0 1 3.034 2.308 12.08 12.08 0 0 1 3.357 8.672 2.501 2.501 0 0 1-4.999-.113 7.12 7.12 0 0 0-1.976-5.108c-.098-.102-.202-.194-.305-.29a717 717 0 0 0-3.303 23.242 12.1 12.1 0 0 1 3.901 2.74 12.1 12.1 0 0 1 3.358 8.673 2.5 2.5 0 1 1-4.999-.114 7.12 7.12 0 0 0-2.913-5.926 712 712 0 0 0-2.301 22.654 12.1 12.1 0 0 1 4.534 2.984 12.08 12.08 0 0 1 3.357 8.672c-.031 1.381-1.19 2.491-2.556 2.443a2.5 2.5 0 0 1-2.443-2.557 7.12 7.12 0 0 0-3.327-6.207c-.068.87-.139 1.731-.204 2.607-.533 7.2-.996 13.958-1.398 20.309a12.1 12.1 0 0 1 4.014 2.784 12.08 12.08 0 0 1 3.358 8.672 2.5 2.5 0 0 1-4.999-.113 7.12 7.12 0 0 0-1.977-5.107 7 7 0 0 0-.739-.665c-.5 8.357-.889 15.958-1.184 22.866a12.06 12.06 0 0 1 4.979 3.154 12.08 12.08 0 0 1 3.358 8.672 2.501 2.501 0 0 1-4.999-.113 7.12 7.12 0 0 0-1.976-5.108 7.2 7.2 0 0 0-1.578-1.243 813 813 0 0 0-.557 22.119 12.05 12.05 0 0 1 5.857 3.395 12.1 12.1 0 0 1 3.358 8.673 2.5 2.5 0 0 1-4.999-.113 7.12 7.12 0 0 0-1.977-5.108 7.2 7.2 0 0 0-2.271-1.602c-.019 13.483.476 21.805.969 26.73.175 1.754 1.473 3.234 3.229 3.681m186.114-188.106a2 2 0 0 1-2.415 1.473c-77.205-18.711-151.701-20.629-152.445-20.647a2 2 0 0 1-1.953-2.045c.025-1.104.927-2.007 2.045-1.954.748.017 75.655 1.942 153.296 20.758a2 2 0 0 1 1.472 2.415"
  />
  <path
    fill="#D2E6B0"
    d="M285.862 331.641a1987 1987 0 0 1 5.964-30.522l-42.158 29.552c13.816 2.218 25.21 3.939 31.562 4.434 2.236.186 4.231-1.315 4.632-3.464"
  />
  <path
    fill="#000"
    d="M311.97 120.49c-77.64-18.816-152.548-20.74-153.296-20.757-1.118-.054-2.02.849-2.045 1.953a2 2 0 0 0 1.953 2.045c.744.018 75.24 1.936 152.445 20.647q.239.057.473.057a2 2 0 0 0 .47-3.945"
  />
  <path
    fill="#64862A"
    d="M169.596 208.727c3.969 4.042 19.943 20.817 38.023 46.788 30.694-52.877 58.069-66.497 80.89-72.548l-16.969-37.248c-31.696 11.704-55.674 52.632-60.97 71.162a4.07 4.07 0 0 1-3.814 2.951 4.05 4.05 0 0 1-3.886-2.483l-14.705-26.3z"
  />
  <path fill="#D5C3EE" d="m206.863 330.421-11.98 16.856 2.378 3.905 21.166-4.811z" />
  <path
    fill="#7A42C8"
    d="M328.089 269.592c-1.495-3.232-5.582-10.559-13.456-15.008l-103.816 72.775 11.748 16.205z"
  />
  <path
    fill="#FFFBE8"
    d="M339.735 239.674c-1.917-1.342-2.383-1.018-2.558-.895l-7.14 5.006c7.798 5.554 11.188 11.754 12.628 15.589l6.326-4.434c.163-.116.599-.421-.049-2.569-1.089-3.613-3.57-8.748-9.207-12.697"
  />
  <path
    fill="#A17AD8"
    d="m325.885 246.995-6.718 4.499c7.174 4.751 11.192 11.324 13.05 15.106l6.179-4.304c-.847-2.855-3.673-9.499-12.511-15.301"
  />
  <path
    fill="#fff"
    d="M366.457 322.259c.248.022.525.012.795.011l-.919-.59c-.116.171-.222.343-.331.514.14.028.296.052.455.065"
  />
  <path
    fill="#000"
    d="M369.085 322.167c-1.045.086-2.072.19-3.083.027 2.251-3.651 5.895-6.649 6.241-11.25.024-2.382-2.36-3.624-4.3-3.391-4.156.47-8.344 2.545-12.481 2.473.861-1.144 2.559-3.069 3.489-4.239 3.048-3.97 6.482-7.926 8.359-12.873 1.549-4.931-2.573-6.881-6.691-5.043-4.567 1.688-8.705 5.514-12.507 8.449-2.519 2.034-8.812 7.25-8.812 7.25-.824.693-.915 2.015.332 2.235.536.058 1.026-.262 1.16-.332 5.008-2.763 9.764-5.951 14.506-9.135 2.067-1.444 4.33-2.889 6.717-3.757-2.368 4.764-6.28 9.206-9.614 13.478-3.484 3.729-2.899 8.795 2.954 8.692 4.625-.141 8.37-1.884 12.656-2.961-.631 2.401-2.54 4.915-3.911 7.098-.728 1.174-1.496 1.867-1.545 3.496-.105 3.532 4.625 3.11 6.938 2.592 1.768-.343 1.38-2.987-.408-2.809m-3.495-.101c-.038-.022-.022-.019.014.007-.003-.003-.011-.005-.014-.007"
  />
  <path
    fill="#000"
    d="M213.606 416.358c49.202 0 89.088-5.711 89.088-12.756s-39.886-12.756-89.088-12.756-89.087 5.711-89.087 12.756 39.886 12.756 89.087 12.756"
  />
</svg>
