<svg xmlns="http://www.w3.org/2000/svg" width="464" height="339" fill="none" viewBox="0 0 464 339"><path fill="#fff" d="M101.551 247.014s-2.193 4.946-5.737 10.081z"/><path fill="#000" d="M103.833 248.035a72 72 0 0 1-5.416 10.862c-2.262 3.524-7.518.34-5.436-3.304 2.303-3.023 4.515-6.297 6.307-9.66 1.532-2.733 5.627-.821 4.535 2.102"/><path fill="#fff" d="M84.852 235.832s-11.542 11.703-23.065 24.597z"/><path fill="#000" d="M86.634 237.594c-6.967 8.799-14.666 16.938-22.365 25.067-3.013 2.964-7.568-1.141-4.965-4.455a162 162 0 0 1 5.566-6.397c5.737-6.267 11.593-12.343 18.2-17.739 2.313-1.862 5.386 1.191 3.564 3.514"/><path fill="#fff" d="M383.333 21.754s7.949-10.081 14.707-15.207z"/><path fill="#000" d="M381.782 20.533c4.505-5.787 9.02-11.243 14.736-15.978a2.51 2.51 0 0 1 3.524.37c.911 1.111.681 2.793-.501 3.624-5.396 4.015-10.271 9.31-14.686 14.456-1.682 1.902-4.575-.4-3.083-2.462"/><path fill="#fff" d="M386.757 38.253s11.192-16.96 27.931-28.372z"/><path fill="#000" d="M385.215 37.23c5.286-8.809 12.124-16.498 19.872-23.205 2.573-2.252 5.356-4.275 8.209-6.187a2.463 2.463 0 0 1 3.414.67 2.47 2.47 0 0 1-.64 3.395c-7.899 5.746-15.017 12.524-21.464 19.872a184 184 0 0 0-6.357 7.538c-1.422 1.752-4.165-.13-3.034-2.092"/><path fill="#000" d="M249.925 332.349c0 3.614-19.251 6.537-42.987 6.537s-42.988-2.933-42.988-6.537 19.251-6.538 42.988-6.538 42.987 2.934 42.987 6.538"/><path fill="#7A42C8" d="M208.399 268.117c-.821.081-2.152.081-2.973 0-22.995-2.172-20.623-36.92 2.843-35.409 21.134 1.362 21.694 33.367.14 35.409z"/><path fill="#000" d="M206.918 270.681c-.621 0-1.232-.02-1.722-.071-13.025-1.231-19.041-11.943-18.25-21.884.76-9.54 7.788-19.401 21.483-18.52 12.464.801 18.281 10.832 18.411 19.812.14 9.07-5.506 19.381-18.21 20.582-.491.05-1.112.071-1.722.071zm-.13-35.52c-9.481 0-14.296 6.878-14.857 13.966-.581 7.268 3.474 15.527 13.735 16.498.671.06 1.832.06 2.503 0 9.591-.911 13.775-8.449 13.675-15.527-.11-6.978-4.395-14.296-13.735-14.897-.45-.03-.891-.04-1.321-.04"/><path fill="#000" d="M397.299 91.541c.12 1.141 1.952 4.405-.591 14.136-1.932 7.418-5.956 5.346-13.094 8.019-16.208 6.056-24.928-7.769-35.55-16.799-80.008-68.005-198.139-69.027-279.31-2.383-6.046 4.966-11.412 10.913-17.269 15.748-10.13 8.379-25.518 10.542-32.425 2.182-4.505-5.456-4.015-18.45-.881-26.56 2.572-6.656 13.434-15.696 19.04-20.522C133.547-17.57 276.666-18.6 374.104 63.12c7.939 6.657 22.075 17.75 23.196 28.411z"/><path fill="#000" d="M31.754 120.243c-6.157 0-11.293-2.162-14.627-6.197-5.095-6.166-4.775-20.002-1.281-29.052 2.643-6.847 12.314-15.147 18.71-20.633l1.032-.89C82.64 22.965 142.877.42 205.226 0h1.792c61.738 0 121.575 21.704 168.687 61.218l1.622 1.351c8.469 7.058 21.273 17.71 22.445 28.682.02.1.06.23.1.37.46 1.753 1.551 5.867-.751 14.697-1.762 6.757-5.536 7.538-9.521 8.359-1.501.31-3.213.661-5.115 1.372-14.506 5.426-23.827-3.654-32.056-11.653-1.952-1.902-3.964-3.855-5.987-5.576-38.252-32.516-87.126-50.657-137.622-51.087h-1.852c-49.855 0-98.299 17.27-136.632 48.744-3.003 2.463-5.906 5.246-8.71 7.939-2.752 2.643-5.606 5.366-8.549 7.808-5.376 4.445-12.223 7.329-18.79 7.929-.862.08-1.703.12-2.533.12zM207.018 5.006h-1.762c-61.158.42-120.263 22.525-166.405 62.259l-1.04.89c-5.277 4.526-15.108 12.955-17.3 18.631-2.853 7.398-3.273 19.522.48 24.067 2.704 3.274 7.269 4.795 12.845 4.285 5.586-.511 11.433-2.984 16.058-6.798 2.803-2.322 5.466-4.865 8.279-7.558 2.873-2.753 5.846-5.606 9-8.19 39.223-32.205 88.808-49.875 139.815-49.875h1.892c51.667.44 101.673 19.011 140.816 52.278 2.152 1.832 4.225 3.855 6.237 5.807 8.199 7.979 15.277 14.866 26.82 10.551 2.272-.85 4.254-1.261 5.856-1.591 3.624-.751 4.715-.971 5.697-4.716 1.972-7.558 1.121-10.772.75-12.143-.1-.39-.19-.73-.23-1.101-.941-8.96-13.295-19.242-20.683-25.388l-1.642-1.372C326.29 26.29 267.585 4.996 207.028 4.996z"/><path fill="#000" d="m199.119 77.946 15.097-.1c46.792 1.652 98.219 22.715 130.585 56.813 7.948 8.369 10.361 23.806 5.326 31.555-4.025 6.197-13.656 5.857-22.886 5.036s-16.368-10.422-23.216-16.048c-56.372-46.332-138.323-46.221-194.535.3-5.136 4.245-11.623 11.983-17.51 14.326-8.5 3.384-20.292 6.778-25.949 1.472-5.656-5.306-5.165-19.302-2.352-27.991 2.393-7.379 13.545-16.449 19.632-21.424 32.656-26.73 73.411-42.297 115.798-43.949z"/><path fill="#000" d="M74.511 176.535c-4.345 0-7.749-1.131-10.171-3.404-6.838-6.417-5.887-21.744-3.024-30.583 2.583-7.989 13.625-17.019 20.213-22.415l.21-.17c33.037-27.04 74.693-42.848 117.28-44.51h.08l15.147-.1h.05c48.804 1.722 100.732 24.327 132.317 57.594 8.579 9.04 11.312 25.879 5.616 34.648-4.765 7.338-15.067 7.068-25.208 6.167-7.749-.691-13.936-6.627-19.402-11.863-1.802-1.732-3.514-3.374-5.185-4.745-55.522-45.631-135.991-45.511-191.342.29-1.532 1.271-3.224 2.893-5.006 4.605-4.255 4.095-8.66 8.319-13.165 10.111-7.328 2.924-13.485 4.385-18.41 4.385zm124.668-96.086c-41.506 1.621-82.081 17.029-114.267 43.378l-.21.17c-5.766 4.715-16.488 13.495-18.62 20.082-2.793 8.64-2.793 21.194 1.681 25.398 3.574 3.354 11.643 2.673 23.306-1.972 3.594-1.431 7.819-5.486 11.553-9.07 1.862-1.782 3.614-3.464 5.286-4.855 57.193-47.323 140.346-47.453 197.719-.301 1.822 1.502 3.594 3.204 5.476 4.996 5.096 4.895 10.372 9.961 16.378 10.492 8.62.77 17.32 1.101 20.563-3.905 4.505-6.937 2.002-21.043-5.045-28.471-30.714-32.356-81.27-54.35-128.813-56.042z"/><path fill="#000" d="M199.71 154.991c31.685-1.612 61.938 8.389 85.735 29.212 5.306 4.646 9.22 8.27 12.183 16.739 1.532 4.395 1.692 11.012 0 18.2-2.553 10.852-17.129 10.011-28.922 5.596-5.065-1.902-7.478-5.255-11.382-8.549-29.944-25.178-71.329-25.058-101.122.3-1.212 1.031-2.223 2.373-3.424 3.414-11.803 10.181-27.921 12.003-34.659 3.053-5.916-7.868-4.034-25.288 6.978-35.779 19.632-18.701 47.413-30.804 74.613-32.186"/><path fill="#000" d="M131.244 231.226c-.901 0-1.792-.05-2.673-.14-5.306-.571-9.611-2.863-12.444-6.628-3.364-4.474-4.575-11.332-3.324-18.82 1.302-7.809 5.056-15.017 10.582-20.273 20.132-19.181 48.624-31.465 76.205-32.866 32.546-1.662 63.64 8.93 87.517 29.823 4.945 4.325 9.62 8.409 12.894 17.799 1.782 5.086 1.812 12.234.07 19.602-.891 3.774-3.123 6.718-6.457 8.5-5.877 3.143-15.507 2.713-25.779-1.132-4.154-1.561-6.757-4.014-9.27-6.397-.901-.851-1.832-1.732-2.843-2.583-28.882-24.296-69.137-24.176-97.889.291-.51.43-1.011.971-1.541 1.541-.581.621-1.182 1.272-1.872 1.873-6.968 6.016-15.448 9.43-23.176 9.43zm68.466-76.235.13 2.503c-26.419 1.342-53.72 13.125-73.011 31.495-10.041 9.571-11.883 25.579-6.707 32.466 2.502 3.324 6.256 4.365 8.979 4.655 6.948.751 15.388-2.352 22.045-8.099.49-.42.971-.941 1.482-1.491.6-.651 1.231-1.322 1.962-1.942 30.654-26.079 73.561-26.2 104.355-.311 1.122.941 2.103 1.872 3.064 2.773 2.352 2.223 4.385 4.145 7.588 5.346 8.81 3.304 17.109 3.834 21.664 1.402 2.093-1.122 3.384-2.823 3.945-5.226 1.501-6.377 1.531-12.654.07-16.809-2.713-7.748-6.127-11.002-11.473-15.687-22.885-20.032-52.708-30.184-83.963-28.592l-.13-2.503z"/><path fill="#7A42C8" d="M397.189 99.57c.12 1.142.12 3.324 0 4.465-.771 7.629-6.548 15.027-13.685 17.7-16.208 6.057-24.928-7.769-35.55-16.799-80.009-68.005-198.14-69.026-279.31-2.382-6.046 4.965-11.412 10.912-17.269 15.747-16.748 13.845-41.235-3.834-33.307-24.377 2.573-6.657 13.435-15.697 19.041-20.523C133.437-9.53 276.556-10.562 373.994 71.16c7.939 6.657 22.074 17.75 23.196 28.411"/><path fill="#000" d="M38.04 125.759c-4.805 0-9.64-1.541-13.955-4.655-9.13-6.577-12.404-17.599-8.36-28.08 2.645-6.85 12.315-15.139 18.713-20.634l1.03-.89C82.52 30.993 142.758 8.45 205.107 8.028c62.319-.43 122.916 21.314 170.489 61.208l1.622 1.351c8.479 7.058 21.293 17.74 22.454 28.712.131 1.271.131 3.644 0 4.976-.861 8.469-7.288 16.798-15.297 19.791-14.506 5.416-23.826-3.654-32.055-11.652-1.952-1.903-3.964-3.855-5.987-5.577-38.252-32.516-87.126-50.656-137.622-51.086h-1.852c-49.856 0-98.299 17.269-136.632 48.744-3.003 2.463-5.906 5.246-8.72 7.939-2.752 2.643-5.606 5.366-8.549 7.808-4.445 3.674-9.66 5.526-14.916 5.526zm168.818-75.013h1.892c51.667.44 101.672 19.011 140.816 52.278 2.152 1.832 4.235 3.854 6.237 5.807 8.199 7.978 15.277 14.866 26.82 10.551 6.317-2.362 11.392-8.92 12.073-15.607.1-1.001.1-2.993 0-3.944-.941-8.96-13.295-19.242-20.683-25.389l-1.642-1.371C326.16 34.318 267.455 13.024 206.898 13.024h-1.762c-61.158.42-120.264 22.525-166.405 62.26l-1.04.89C32.413 80.7 22.582 89.13 20.39 94.805c-3.894 10.081 1.131 18.26 6.617 22.215 5.416 3.904 14.616 6.066 22.766-.671 2.803-2.323 5.466-4.865 8.269-7.558 2.873-2.754 5.846-5.607 9-8.2 39.223-32.205 88.808-49.875 139.815-49.875z"/><path fill="#7A42C8" d="M208.289 271.221c-.821.08-2.152.08-2.973 0-22.996-2.173-20.623-36.921 2.843-35.41 21.134 1.362 21.694 33.367.14 35.41z"/><path fill="#000" d="M206.798 273.774c-.621 0-1.232-.02-1.722-.07-13.025-1.232-19.041-11.944-18.251-21.885.761-9.54 7.809-19.401 21.484-18.52 12.464.801 18.281 10.832 18.411 19.812.14 9.07-5.506 19.381-18.201 20.583-.49.05-1.111.07-1.721.07zm-.121-35.52c-9.48 0-14.295 6.878-14.856 13.966-.581 7.268 3.474 15.527 13.735 16.498.661.06 1.832.06 2.503 0 9.591-.911 13.775-8.449 13.675-15.527-.11-6.978-4.395-14.296-13.735-14.897-.451-.03-.891-.04-1.322-.04"/><path fill="#BE7AEB" d="m199.009 85.976 15.097-.1c46.792 1.651 98.219 22.715 130.584 56.812 14.306 15.077 3.204 38.443-17.559 36.601-9.23-.821-16.368-10.421-23.216-16.048-56.372-46.331-138.323-46.221-194.535.301-5.136 4.244-11.623 11.983-17.51 14.325-16.989 6.768-33.927-9.14-28.301-26.519C65.96 143.97 77.114 134.9 83.2 129.924c32.656-26.729 73.411-42.297 115.798-43.948z"/><path fill="#000" d="M83.771 181.942c-5.926 0-11.703-2.212-16.218-6.447-6.827-6.387-9.26-15.938-6.347-24.928 2.583-7.989 13.625-17.019 20.213-22.415l.21-.17c33.036-27.04 74.693-42.847 117.28-44.51h.08l15.147-.1h.05c48.804 1.723 100.731 24.328 132.316 57.595 7.389 7.788 9.221 18.34 4.776 27.54-4.415 9.13-13.765 14.216-24.367 13.275-7.749-.691-13.936-6.628-19.402-11.863-1.802-1.732-3.514-3.374-5.185-4.746-55.522-45.63-135.991-45.51-191.343.291-1.531 1.271-3.223 2.893-5.005 4.605-4.255 4.094-8.66 8.319-13.165 10.111a24.3 24.3 0 0 1-9.04 1.752zM199.06 88.478c-41.506 1.622-82.081 17.029-114.267 43.378l-.21.171c-5.766 4.715-16.488 13.495-18.62 20.082-2.303 7.118-.391 14.676 5.005 19.722 5.466 5.115 12.934 6.497 19.982 3.694 3.594-1.432 7.819-5.486 11.553-9.07 1.862-1.782 3.614-3.464 5.286-4.856 57.193-47.322 140.345-47.452 197.719-.3 1.822 1.502 3.594 3.204 5.476 5.006 5.096 4.895 10.372 9.951 16.378 10.491 8.5.751 15.938-3.253 19.422-10.461 3.514-7.278 2.022-15.678-3.895-21.915-30.714-32.355-81.27-54.35-128.812-56.042l-15.007.1z"/><path fill="#D5C3EE" d="M199.6 163.021c31.685-1.611 61.938 8.39 85.735 29.213 5.306 4.645 10.381 9.22 11.763 16.498 3.103 16.398-12.774 29.933-28.502 24.037-5.065-1.902-7.478-5.256-11.382-8.55-29.944-25.178-71.33-25.057-101.123.301-1.211 1.031-2.222 2.372-3.423 3.413-22.185 19.142-51.207-10.311-27.671-32.726 19.632-18.701 47.412-30.804 74.613-32.186z"/><path fill="#000" d="M276.245 236.683c-2.844 0-5.727-.511-8.53-1.562-4.154-1.562-6.757-4.014-9.27-6.397-.901-.851-1.832-1.732-2.843-2.583-28.882-24.297-69.137-24.177-97.889.29-.51.431-1.001.961-1.532 1.532-.58.621-1.181 1.272-1.882 1.872-12.363 10.672-26.719 7.559-34.508-1.041-4.154-4.575-6.287-10.432-6.027-16.468.301-6.758 3.584-13.305 9.501-18.931 20.132-19.181 48.624-31.465 76.204-32.877 32.557-1.662 63.641 8.93 87.518 29.823 5.155 4.515 11.002 9.631 12.573 17.92 1.632 8.64-1.391 17.169-8.089 22.806-4.384 3.694-9.74 5.616-15.226 5.616m-69.417-33.718c18.33 0 36.67 6.448 51.997 19.342 1.122.941 2.113 1.872 3.064 2.773 2.352 2.222 4.385 4.144 7.588 5.346 6.497 2.433 13.515 1.241 18.771-3.194 5.296-4.455 7.688-11.202 6.387-18.04-1.251-6.587-6.177-10.902-10.952-15.076-22.896-20.033-52.699-30.184-83.963-28.592-26.43 1.341-53.72 13.124-73.011 31.495-10.742 10.231-9.361 21.644-3.224 28.411 5.967 6.588 17.139 9.581 27.531.611.49-.421.971-.941 1.481-1.492.601-.65 1.222-1.311 1.953-1.932 15.387-13.094 33.867-19.642 52.358-19.642z"/><path fill="#000" d="M17.648 278.308a2.51 2.51 0 0 1-2.223-1.351c-4.445-8.55-6.457-10.342-13.475-11.944a2.51 2.51 0 0 1-1.882-1.862c-.22-.931.1-1.902.841-2.502 5.536-4.596 6.528-7.098 6.638-16.729.01-1.151.8-2.142 1.922-2.403a2.5 2.5 0 0 1 2.803 1.282c4.445 8.549 6.457 10.341 13.475 11.943.93.21 1.652.931 1.882 1.862.22.931-.1 1.902-.831 2.503-5.536 4.595-6.527 7.098-6.637 16.738a2.48 2.48 0 0 1-1.923 2.403c-.19.05-.39.07-.58.07zM7.457 261.399c3.473 1.282 5.886 3.094 8.259 6.307.66-3.934 2.002-6.637 4.525-9.35-3.474-1.281-5.887-3.093-8.26-6.307-.66 3.934-2.002 6.637-4.524 9.35"/><path fill="#000" d="M42.916 235.781c-.12 0-.24 0-.36-.03a2.52 2.52 0 0 1-2.133-2.222c-.59-5.867-1.381-6.968-4.545-9.15a2.5 2.5 0 0 1-1.051-2.423c.14-.941.8-1.722 1.702-2.022 3.654-1.182 4.735-2.012 6.967-7.459a2.5 2.5 0 0 1 2.673-1.521 2.52 2.52 0 0 1 2.133 2.222c.59 5.867 1.381 6.968 4.545 9.15a2.5 2.5 0 0 1 1.051 2.423c-.14.941-.8 1.722-1.702 2.022-3.654 1.182-4.735 2.013-6.968 7.459a2.5 2.5 0 0 1-2.312 1.551m-.951-12.784a10.9 10.9 0 0 1 2.002 3.124 10.8 10.8 0 0 1 2.813-2.423 10.9 10.9 0 0 1-2.002-3.124 10.8 10.8 0 0 1-2.813 2.423"/><path fill="#000" d="M446.343 113.326c-.19 0-.39-.02-.58-.07a2.5 2.5 0 0 1-1.923-2.403c-.11-9.64-1.101-12.143-6.637-16.738a2.49 2.49 0 0 1-.831-2.503 2.5 2.5 0 0 1 1.882-1.862c7.018-1.602 9.03-3.384 13.475-11.943a2.51 2.51 0 0 1 2.803-1.282 2.5 2.5 0 0 1 1.922 2.403c.111 9.64 1.102 12.143 6.638 16.728a2.498 2.498 0 0 1-1.041 4.365c-7.018 1.602-9.03 3.394-13.475 11.944a2.51 2.51 0 0 1-2.223 1.351zm-2.593-19.952c2.523 2.713 3.865 5.416 4.525 9.35 2.373-3.213 4.786-5.025 8.259-6.307-2.522-2.713-3.864-5.416-4.525-9.35-2.362 3.214-4.785 5.026-8.259 6.297z"/><path fill="#000" d="M421.075 70.799a2.5 2.5 0 0 1-2.312-1.552c-2.243-5.446-3.324-6.277-6.968-7.458a2.47 2.47 0 0 1-1.702-2.023 2.5 2.5 0 0 1 1.051-2.422c3.164-2.183 3.955-3.284 4.545-9.15a2.49 2.49 0 0 1 2.133-2.223 2.49 2.49 0 0 1 2.673 1.522c2.242 5.446 3.323 6.277 6.967 7.458a2.51 2.51 0 0 1 1.702 2.022c.14.941-.27 1.882-1.051 2.423-3.154 2.182-3.954 3.284-4.545 9.15a2.49 2.49 0 0 1-2.132 2.223q-.181.03-.361.03m-3.854-12.074a11 11 0 0 1 2.813 2.423 11 11 0 0 1 2.002-3.123 11 11 0 0 1-2.813-2.423 10.9 10.9 0 0 1-2.002 3.123"/></svg>