<svg xmlns="http://www.w3.org/2000/svg" width="451" height="479" fill="none" viewBox="0 0 451 479"><path fill="#04663A" d="M304.332 287.683c-.89-.23-7.365 2.702-10.758 4.874 12.34 16.673 2.842 15.622-3.293 14.311l-.02.02c-.08-.02-.15-.05-.23-.07s-.16-.03-.23-.05c-.12-.03-.23-.07-.34-.13-5.845-1.891-10.209-7.826-7.947-13.07 1.702-3.953 4.354-5.875 5.935-8.507.43-.721-.01-1.661-.911-1.882a1117 1117 0 0 0-12.7-3.072c-.59-.14-1.201.09-1.491.57-2.482 4.234-7.766 6.876-12.76 4.964-4.354-1.671-6.596-4.153-9.548-5.644-.811-.41-1.791 0-1.971.811-3.333 15.162-6.656 30.324-9.988 45.486-.151.68-.851 1.101-1.572.951a1853 1853 0 0 0-45.426-9.158c-.941-.17-1.741.631-1.521 1.522.58 2.291 1.461 4.663 1.391 7.936-.13 5.825-6.585 9.497-12.57 8.677 0 0 0 .01-.01.02-.08-.01-.15-.04-.22-.05-1.051 5.895-1.572 8.847-2.622 14.752-.141.81-1.031 1.251-1.802.92-3.052-1.291-5.264-3.823-9.688-5.274-5.584-1.831-11.239 2.562-12.54 8.097-.04.1-.07.21-.09.32-.01.07-.01.15-.02.22s-.03.14-.05.22c0 0 .01 0 .02.01-.68 5.765 3.253 11.91 9.158 12 4.633.07 7.456-1.622 10.778-1.772.831-.04 1.501.681 1.351 1.482l-3.052 17.193c-.12.681.34 1.341 1.021 1.461a1494 1494 0 0 1 119.375 26.972c.671.18 1.371-.21 1.551-.881 10.789-39.221 21.588-78.442 32.376-117.674.18-.67-.26-1.381-1.001-1.581a1213 1213 0 0 0-18.595-4.964z"/><path fill="#000" d="M290.331 415.325c-.33 0-.66-.04-1-.13a1500 1500 0 0 0-119.166-26.922 3.76 3.76 0 0 1-3.032-4.363l2.762-15.553c-.68.13-1.381.31-2.142.511-2.001.52-4.293 1.09-7.265 1.07-3.143-.05-6.085-1.451-8.267-3.943-2.462-2.812-3.713-6.715-3.373-10.488 0-.16 0-.31.03-.471.01-.08.03-.15.04-.22 0-.06.01-.14.03-.22.04-.22.09-.43.161-.65.91-3.673 3.382-6.946 6.645-8.767 2.872-1.612 6.085-1.962 9.077-.981 2.922.961 4.944 2.302 6.725 3.493.641.43 1.231.82 1.812 1.161l2.332-13.121c.12-.67.5-1.251 1.061-1.631a2.53 2.53 0 0 1 1.831-.391c.05 0 .1 0 .14.021 2.752.38 5.665-.421 7.606-2.092.941-.801 2.072-2.172 2.112-4.163.05-2.272-.43-4.024-.941-5.885-.13-.471-.26-.931-.37-1.391a3.7 3.7 0 0 1 .891-3.453 3.8 3.8 0 0 1 3.502-1.131 1872 1872 0 0 1 44.366 8.927l9.728-44.275c.25-1.121 1-2.062 2.051-2.562a3.96 3.96 0 0 1 3.493.06c1.321.67 2.492 1.491 3.623 2.292 1.641 1.151 3.333 2.342 5.694 3.252 3.934 1.511 7.937-.88 9.708-3.893.851-1.441 2.552-2.132 4.224-1.741a1385 1385 0 0 1 12.72 3.082c1.211.3 2.222 1.151 2.692 2.282a3.63 3.63 0 0 1-.24 3.313c-.711 1.191-1.582 2.211-2.422 3.212-1.211 1.431-2.462 2.913-3.363 5.004-.741 1.712-.32 3.333.16 4.404 1.071 2.372 3.473 4.403 6.255 5.304.08.03.16.05.23.09.04 0 .09.02.151.03h.04c.05 0 .1.02.15.03 5.234 1.121 6.165.38 6.255.3 0 0 .9-2.031-5.495-10.668a2.54 2.54 0 0 1-.45-1.942 2.48 2.48 0 0 1 1.111-1.651c.09-.06 9.908-5.905 12.74-5.184a1221 1221 0 0 1 18.625 4.974c.961.26 1.771.86 2.302 1.691.56.891.72 1.972.45 2.962l-32.376 117.674a3.77 3.77 0 0 1-3.633 2.763zm.311-4.964h.01zm-118.365-26.792a1503 1503 0 0 1 117.184 26.471l31.715-115.282a1189 1189 0 0 0-17.044-4.543c-1.101.31-4.193 1.641-6.935 3.112 4.674 6.796 5.915 11.189 4.043 14.102-2.102 3.272-6.785 2.852-11.169 1.941-.14-.01-.29-.03-.43-.07-.08-.02-.15-.04-.23-.07-.08-.02-.161-.03-.231-.05a4 4 0 0 1-.63-.21c-4.093-1.361-7.506-4.334-9.147-7.957-1.271-2.802-1.331-5.804-.191-8.446 1.191-2.773 2.753-4.614 4.134-6.245.33-.401.65-.771.94-1.131a1366 1366 0 0 0-10.268-2.482c-3.062 4.503-9.097 7.636-15.322 5.254-2.942-1.131-4.984-2.562-6.775-3.833a40 40 0 0 0-1.762-1.201l-9.637 43.875c-.451 2.022-2.492 3.303-4.544 2.852a1826 1826 0 0 0-43.465-8.787c.511 1.872 1.011 3.993.951 6.696-.07 3.002-1.441 5.794-3.873 7.856-2.522 2.152-5.905 3.353-9.368 3.373l-2.231 12.54a3.74 3.74 0 0 1-1.902 2.632 3.85 3.85 0 0 1-3.343.16c-1.481-.621-2.752-1.471-3.983-2.292-1.591-1.061-3.242-2.162-5.504-2.902-2.092-.691-3.913-.06-5.064.59-2.072 1.161-3.703 3.353-4.264 5.715l-.06.22c0 .04 0 .08-.01.12v.01c0 .05 0 .1-.01.15-.29 2.472.531 5.134 2.132 6.966.881 1 2.382 2.201 4.584 2.241 2.312.04 4.143-.44 5.924-.91 1.482-.391 3.013-.781 4.694-.861 1.191-.04 2.282.42 3.053 1.301.75.861 1.07 2.002.87 3.123l-2.842 15.972z"/><path fill="#FF7B00" d="M224.809 158.009c-5.084-.27-8.247 1.161-11.829 1.341-.971.05-1.792-.71-1.642-1.531 1.071-6.045 18.435-82.136 19.516-88.18.12-.681-1.251-1.502-1.251-1.502l-7.796-5.044S57.465 221.1 54.723 253.886c-.06.69.51 1.311 1.271 1.371 7.426.63 11.14.961 18.555 1.681.94.09 1.681-.68 1.471-1.531-.7-2.812-2.422-5.374-2.722-9.438-.43-5.814 6.045-10.018 12.49-9.597 0 0 0-.01.01-.02.08 0 .16.03.24.04.08 0 .16 0 .25.01.13.01.25.04.36.08 6.246 1.051 11.48 6.395 9.899 11.899-1.121 3.873-3.293 6.095-4.564 8.677-.39.781.18 1.702 1.12 1.802 5.125.56 7.677.85 12.791 1.461.801.09 1.501-.45 1.521-1.181 0-.13.01-.26.02-.38 0 0-.02 0-.02-.01 0-.07.03-.141.04-.221 0-.07 0-.15.01-.22.01-.11.04-.22.08-.33 1.111-5.584 6.926-10.158 13.001-8.497 4.563 1.251 7.055 3.523 10.148 4.784.851.34 1.811-.14 1.921-.961l5.765-42.243c.09-.691.801-1.161 1.591-1.051a1993 1993 0 0 1 50.431 7.786c.78.13 1.531-.32 1.631-1.011.57-4.153-2.202-7.126-2.252-12.54-.05-5.835 6.936-9.528 13.571-8.587 0 0 0-.01.01-.02.08.01.17.04.25.06.901-5.084 3.903-16.293 4.804-21.387.15-.82 1.171-1.261 2.052-.871 3.222 1.412 5.734 3.834 10.458 5.385 6.285 2.061 12.66-2.022 14.201-7.506.05-.1.09-.21.11-.32l.03-.221.06-.21s-.02 0-.02-.01c.831-5.744-3.673-12.18-10.488-12.54z"/><path fill="#000" d="M106.064 262.843c-.16 0-.32 0-.47-.03-5.104-.611-7.656-.901-12.77-1.461-1.281-.141-2.412-.891-3.013-1.992a3.69 3.69 0 0 1-.08-3.403c.51-1.031 1.121-1.981 1.722-2.902 1.01-1.571 2.061-3.193 2.682-5.364.51-1.752-.12-3.283-.731-4.264-1.421-2.252-4.163-3.963-7.176-4.473a2 2 0 0 1-.25-.05h-.36c-3.063-.201-6.265.91-8.167 2.822-.83.84-1.791 2.232-1.651 4.083.17 2.242.83 3.933 1.531 5.725.41 1.051.84 2.131 1.131 3.292.29 1.161 0 2.402-.79 3.313a3.92 3.92 0 0 1-3.353 1.321 1298 1298 0 0 0-18.525-1.681c-2.132-.18-3.723-2.002-3.553-4.074 1.181-14.181 29.864-50.92 85.248-109.207 40.993-43.144 82.186-82.786 82.596-83.186a2.51 2.51 0 0 1 3.093-.3l7.796 5.043c.781.46 2.742 1.882 2.362 4.044-.551 3.082-5.034 23.068-9.788 44.245-4.043 18.004-8.207 36.549-9.428 42.414.801-.11 1.622-.27 2.522-.45 2.292-.451 4.894-.971 8.307-.781 3.833.2 7.306 1.982 9.788 5.004 2.372 2.892 3.493 6.515 3.102 9.998 0 .18-.01.36-.05.54-.01.07-.03.141-.05.211 0 .06-.02.13-.03.2-.05.24-.11.47-.21.7-1.001 3.383-3.463 6.325-6.755 8.077-3.323 1.771-7.086 2.111-10.589.961-3.152-1.031-5.384-2.402-7.356-3.613a48 48 0 0 0-2.221-1.311c-.521 2.562-1.341 5.974-2.132 9.297-.951 3.973-1.932 8.076-2.372 10.548a2.5 2.5 0 0 1-1.041 1.622c-.55.38-1.231.52-1.881.4-.05 0-.11 0-.16-.02-3.263-.46-6.746.44-8.858 2.292-1.251 1.091-1.881 2.372-1.861 3.803.02 2.242.58 3.983 1.181 5.825.701 2.151 1.421 4.373 1.041 7.085a3.62 3.62 0 0 1-1.471 2.432 4.03 4.03 0 0 1-3.063.701 1967 1967 0 0 0-49.279-7.626l-5.595 41.002a3.72 3.72 0 0 1-1.831 2.713c-1.051.61-2.362.7-3.503.24-1.341-.541-2.562-1.241-3.743-1.922-1.781-1.021-3.613-2.081-6.125-2.762-1.971-.54-4.063-.21-5.885.921-2.051 1.271-3.542 3.382-3.993 5.654-.01.07-.03.15-.05.22v.241c0 .1-.01.19-.01.29a3.7 3.7 0 0 1-1.281 2.672 3.93 3.93 0 0 1-2.562.941zm-10.929-6.265c3.663.4 6.085.68 9.888 1.131.03-.121.06-.241.09-.371.751-3.543 3.083-6.815 6.245-8.767 3.023-1.871 6.526-2.402 9.838-1.491 3.133.851 5.345 2.132 7.296 3.253.631.36 1.251.71 1.852 1.031l5.544-40.633a3.67 3.67 0 0 1 1.431-2.432 4 4 0 0 1 2.973-.76 1938 1938 0 0 1 49.279 7.596c-.09-1.101-.451-2.222-.881-3.533-.66-2.022-1.401-4.314-1.421-7.326-.02-2.862 1.241-5.565 3.573-7.606 2.732-2.392 6.765-3.713 10.748-3.643.521-2.462 1.261-5.575 1.992-8.597.951-3.973 1.932-8.076 2.372-10.548.2-1.111.901-2.052 1.921-2.602 1.101-.591 2.452-.631 3.613-.121 1.421.621 2.702 1.412 3.943 2.172 1.822 1.121 3.703 2.272 6.296 3.123 2.201.72 4.573.5 6.675-.621 2.122-1.131 3.733-3.062 4.333-5.184.02-.07.04-.14.07-.21 0-.03 0-.05.01-.08v-.02c0-.05 0-.1.02-.14.321-2.182-.42-4.624-1.961-6.505-1.571-1.922-3.773-3.043-6.185-3.173-2.802-.15-4.974.28-7.086.691-1.431.28-2.912.57-4.483.65-1.271.05-2.522-.45-3.343-1.381a3.69 3.69 0 0 1-.891-3.083c.551-3.082 5.024-23.028 9.768-44.155 4.183-18.615 8.487-37.82 9.548-43.014l-6.085-3.933c-7.606 7.356-44.396 43.114-81.025 81.655C76 216.456 59.347 242.907 57.395 252.885c6.105.52 9.678.84 15.633 1.421q-.18-.463-.36-.941c-.771-1.961-1.642-4.183-1.862-7.176-.22-2.912.88-5.754 3.093-7.986 2.842-2.872 7.295-4.514 11.699-4.313.15-.01.31-.01.47 0 .08 0 .16.02.24.03.08 0 .17 0 .25.02.21.02.43.06.651.12 4.324.77 8.317 3.332 10.448 6.725 1.632 2.602 2.102 5.555 1.302 8.307-.831 2.882-2.142 4.904-3.293 6.685-.18.27-.35.54-.52.811z"/><path fill="#7A42C8" d="M272.277 279.036c1.081-5.704-2.832-12.23-9.217-12.78-4.764-.41-7.817.931-11.189 1.021-.911.02-1.642-.751-1.462-1.572 3.053-13.891 7.156-30.384 10.209-44.275.15-.68-.361-1.371-1.131-1.541a1972 1972 0 0 0-50.02-10.068c-.791-.14-1.341-.831-1.181-1.521.92-3.994 3.473-3.363 5.364-8.387 2.342-6.215-4.203-11.489-9.648-12.69-5.574-1.221-14.291 1.601-14.231 8.447.04 5.414 2.822 8.386 2.252 12.54-.1.69-.851 1.15-1.632 1.01a1948 1948 0 0 0-50.43-7.786c-.78-.11-1.491.36-1.591 1.051l-5.765 42.244c-.11.83-1.071 1.311-1.921.96-3.103-1.251-5.585-3.532-10.148-4.783-6.075-1.662-11.89 2.912-13.001 8.496-.04.101-.07.211-.08.331 0 .07 0 .15-.01.22s-.03.14-.01.23c-.43 5.795 4.103 11.819 10.429 11.729 4.713-.07 7.606-1.671 10.918-2.041.901-.1 1.682.61 1.572 1.441a84571 84571 0 0 0-6.296 46.167c-.09.69.421 1.331 1.151 1.431a1811 1811 0 0 1 45.767 7.046c.951.16 1.421 1.191.901 1.941-1.321 1.952-2.963 3.913-4.014 6.986-1.851 5.404 2.733 10.968 8.477 12.4.11.04.22.08.331.1l.23.03c.08.01.15.04.24.03 5.985.82 12.44-2.853 12.57-8.677.07-3.273-.821-5.655-1.391-7.937-.22-.89.57-1.691 1.521-1.521a1853 1853 0 0 1 45.426 9.158c.721.16 1.421-.271 1.572-.951 3.332-15.162 6.655-30.324 9.988-45.487.18-.82 1.16-1.22 1.971-.81 2.952 1.501 5.194 3.973 9.548 5.644 5.794 2.222 11.999-1.681 13.731-7.105.05-.1.09-.2.12-.311.02-.07.02-.15.04-.22s.05-.14.04-.23z"/><path fill="#000" d="M178.852 340.085q-.945 0-1.891-.121c-.19 0-.351-.03-.481-.06-.08 0-.17-.02-.25-.04-.21-.04-.42-.09-.64-.17-3.954-1.021-7.406-3.643-9.258-7.035-1.491-2.743-1.791-5.775-.84-8.557.87-2.542 2.061-4.374 3.172-5.965a1820 1820 0 0 0-43.815-6.725 3.83 3.83 0 0 1-2.482-1.402 3.74 3.74 0 0 1-.79-2.842l6.074-44.545c-.67.15-1.371.34-2.121.54-2.102.581-4.484 1.231-7.636 1.271-3.453.04-6.726-1.361-9.188-3.983-2.592-2.752-4.003-6.575-3.783-10.258 0-.21.02-.371.03-.481 0-.09.01-.17.02-.25.03-.23.08-.45.15-.68.751-3.543 3.083-6.816 6.245-8.767 3.023-1.872 6.526-2.402 9.838-1.492 3.133.851 5.344 2.132 7.296 3.253.631.36 1.251.711 1.852 1.031l5.544-40.633c.13-.96.64-1.831 1.431-2.432a4 4 0 0 1 2.972-.76 1946 1946 0 0 1 49.28 7.596c-.09-1.101-.451-2.222-.881-3.533-.66-2.022-1.401-4.313-1.421-7.326-.03-3.102 1.301-5.824 3.833-7.886 3.413-2.772 8.937-4.013 13.431-3.022 3.753.82 8.557 3.522 10.828 7.706 1.452 2.662 1.662 5.534.621 8.306-1.151 3.053-2.602 4.474-3.653 5.505-.5.5-.871.85-1.141 1.301a1974 1974 0 0 1 48.809 9.838c.981.21 1.832.76 2.402 1.541.63.871.871 1.951.641 2.982-1.532 6.966-3.353 14.692-5.115 22.178-1.621 6.895-3.302 14.011-4.743 20.516.68-.08 1.381-.21 2.151-.35 2.192-.39 4.684-.831 7.917-.56 3.502.3 6.655 2.061 8.857 4.964 2.292 3.022 3.282 6.975 2.642 10.608-.02.21-.06.38-.09.49 0 .07-.03.161-.05.261-.05.21-.12.42-.22.63-1.151 3.443-3.823 6.445-7.156 8.047-3.163 1.521-6.645 1.681-9.808.47-2.942-1.131-4.984-2.562-6.785-3.833a39 39 0 0 0-1.762-1.201l-9.638 43.875c-.45 2.022-2.491 3.303-4.543 2.852a1826 1826 0 0 0-43.465-8.787c.511 1.872 1.011 3.993.951 6.696-.07 3.002-1.441 5.794-3.873 7.856-2.552 2.172-5.985 3.373-9.488 3.373zm-1.651-5.135.28.04c2.752.381 5.665-.42 7.606-2.091.941-.801 2.072-2.172 2.112-4.164.05-2.281-.43-4.033-.941-5.884-.13-.471-.26-.931-.37-1.391a3.7 3.7 0 0 1 .891-3.453 3.8 3.8 0 0 1 3.502-1.131 1882 1882 0 0 1 44.366 8.927l9.728-44.275c.25-1.121 1-2.062 2.051-2.562a3.96 3.96 0 0 1 3.493.06c1.321.67 2.492 1.491 3.623 2.292 1.641 1.15 3.333 2.341 5.694 3.252 2.382.911 4.494.33 5.845-.31 2.172-1.041 3.893-2.992 4.614-5.214l.12-.461c.44-2.311-.19-4.853-1.681-6.815-1.332-1.761-3.213-2.822-5.295-3.002-2.582-.221-4.633.14-6.625.5-1.371.24-2.792.49-4.293.53-1.201.03-2.422-.51-3.193-1.441a3.71 3.71 0 0 1-.781-3.162c1.532-6.966 3.353-14.692 5.115-22.178 1.651-7.026 3.362-14.271 4.823-20.887a1962 1962 0 0 0-48.899-9.828 4.07 4.07 0 0 1-2.642-1.731c-.55-.851-.74-1.841-.52-2.812.62-2.702 1.881-3.923 2.982-5.014.921-.901 1.722-1.682 2.472-3.693.531-1.411.42-2.772-.33-4.163-1.291-2.382-4.374-4.514-7.506-5.205-3.013-.66-6.976.211-9.207 2.022-1.352 1.091-1.992 2.382-1.982 3.953.02 2.242.58 3.983 1.181 5.825.7 2.152 1.421 4.373 1.041 7.085a3.62 3.62 0 0 1-1.471 2.432 4.03 4.03 0 0 1-3.063.701 1971 1971 0 0 0-49.279-7.626l-5.595 41.003a3.73 3.73 0 0 1-1.831 2.712c-1.051.61-2.362.7-3.503.24-1.341-.54-2.562-1.241-3.743-1.922-1.781-1.02-3.613-2.081-6.125-2.762-1.971-.54-4.063-.21-5.885.921-2.051 1.271-3.542 3.383-3.993 5.654l-.07.471c-.17 2.362.731 4.834 2.422 6.635 1.491 1.581 3.453 2.472 5.475 2.402 2.512-.04 4.483-.58 6.385-1.101 1.361-.37 2.772-.76 4.293-.931a3.99 3.99 0 0 1 3.293 1.171 3.73 3.73 0 0 1 1.04 3.103l-6.134 44.946a1821 1821 0 0 1 44.675 6.895 3.82 3.82 0 0 1 2.903 2.272c.5 1.171.37 2.492-.341 3.543-.25.37-.51.741-.78 1.121-1.081 1.531-2.192 3.102-2.933 5.274-.63 1.842-.08 3.493.501 4.544 1.191 2.191 3.573 3.963 6.215 4.613l.24.07z"/><path fill="#000" d="M319.485 465.654c0 7.046-60.539 12.771-135.218 12.771-74.68 0-135.218-5.715-135.218-12.771 0-7.055 60.538-12.77 135.218-12.77s135.218 5.715 135.218 12.77"/><path fill="#6DB5C3" d="m345.635 240.215 5.115 4.634 8.967-3.443 34.467-99.72-30.954-7.376z"/><path fill="#000" d="M350.75 247.351a2.5 2.5 0 0 1-1.682-.651l-5.114-4.634a2.5 2.5 0 0 1-.79-2.261L360.758 133.9c.11-.68.51-1.291 1.08-1.671a2.52 2.52 0 0 1 1.962-.351l30.955 7.376a2.506 2.506 0 0 1 1.781 3.253l-34.467 99.71a2.52 2.52 0 0 1-1.472 1.521l-8.967 3.443c-.29.11-.59.17-.9.17zm-2.422-8.077 2.962 2.682 6.445-2.472 33.187-96.006-25.661-6.115z"/><path fill="#6DB5C3" d="m413.66 151.444 9.227-3.262-44.555-46.538 20.116-59.457 5.954 2.142 2.953-8.547-42.104-15.172-2.962 8.546 5.314 1.912-14.742 43.585-68.084-72.158-10.649 3.473 44.696 70.546z"/><path fill="#000" d="M413.66 153.946c-.551 0-1.101-.18-1.551-.541l-94.836-74.93c-.22-.17-.41-.39-.561-.62L272.017 7.32a2.5 2.5 0 0 1-.24-2.182 2.48 2.48 0 0 1 1.581-1.531L284.006.123a2.5 2.5 0 0 1 2.592.66L351.83 69.91l12.621-37.31-3.003-1.08a2.51 2.51 0 0 1-1.521-3.173l2.952-8.547c.22-.63.681-1.151 1.281-1.441a2.54 2.54 0 0 1 1.932-.1l42.114 15.172a2.495 2.495 0 0 1 1.511 3.172l-2.953 8.547c-.22.63-.68 1.15-1.281 1.441-.6.29-1.301.32-1.921.1l-3.553-1.28-18.815 55.604 43.505 45.446c.59.61.82 1.481.63 2.312a2.5 2.5 0 0 1-1.601 1.781l-9.227 3.263c-.271.1-.551.14-.831.14zm-92.944-79.133 93.414 73.809 4.274-1.512-41.874-43.745a2.51 2.51 0 0 1-.56-2.532l20.116-59.457c.21-.64.68-1.16 1.281-1.451a2.5 2.5 0 0 1 1.931-.1l3.563 1.28 1.321-3.812-37.4-13.471-1.321 3.813 2.993 1.08a2.495 2.495 0 0 1 1.521 3.153l-14.742 43.575a2.493 2.493 0 0 1-4.183.91L284.046 5.348l-6.085 1.992 42.745 67.464z"/><path fill="#04663A" d="M295.055 292.506c-.891-.23-1.721.381-1.691 1.221.11 3.093 1.581 5.995 1.201 10.328-.521 5.805-7.426 8.948-13.561 7.637l-.02.02c-.08-.02-.15-.05-.23-.07s-.16-.03-.23-.05a1.4 1.4 0 0 1-.341-.131c-5.844-1.891-10.208-7.826-7.946-13.07 1.701-3.953 4.353-5.875 5.935-8.507.43-.72-.01-1.661-.911-1.881a1117 1117 0 0 0-12.7-3.073c-.591-.14-1.201.09-1.491.571-2.482 4.233-7.767 6.875-12.761 4.964-4.353-1.672-6.595-4.154-9.547-5.645-.811-.41-1.792 0-1.972.811-3.332 15.162-6.655 30.324-9.988 45.486-.15.681-.85 1.101-1.571.951a1848 1848 0 0 0-45.426-9.157c-.941-.171-1.742.63-1.522 1.521.581 2.292 1.462 4.663 1.392 7.936-.131 5.825-6.586 9.498-12.57 8.677 0 0 0 .01-.01.02-.081-.01-.151-.04-.221-.05-1.05 5.895-1.571 8.847-2.622 14.752-.14.81-1.031 1.251-1.801.921-3.053-1.292-5.264-3.824-9.688-5.275-5.584-1.831-11.239 2.562-12.54 8.097-.04.1-.07.21-.09.32-.01.07-.01.15-.02.22s-.03.14-.05.22c0 0 .01 0 .02.01-.681 5.765 3.253 11.91 9.157 12 4.634.07 7.456-1.621 10.779-1.771.831-.04 1.501.68 1.351 1.481l-3.052 17.193a1.267 1.267 0 0 0 1.02 1.462 1494 1494 0 0 1 119.376 26.971c.67.18 1.371-.21 1.551-.881 10.789-39.221 21.587-78.442 32.376-117.674.18-.67-.26-1.381-1.001-1.581a1225 1225 0 0 0-18.595-4.964z"/><path fill="#000" d="M281.054 420.149c-.33 0-.661-.04-1.001-.131a1493 1493 0 0 0-119.165-26.921 3.76 3.76 0 0 1-3.032-4.364l2.762-15.552c-.681.13-1.381.31-2.142.51-2.002.521-4.293 1.101-7.266 1.071-3.142-.05-6.085-1.451-8.266-3.943-2.172-2.482-3.403-5.804-3.433-9.147l-.17-.1.25-1.722c.01-.08.03-.15.04-.22 0-.07.02-.14.03-.21.03-.21.09-.43.17-.65.911-3.673 3.383-6.946 6.645-8.777 2.873-1.612 6.095-1.962 9.078-.981 2.922.96 4.944 2.302 6.725 3.493.641.43 1.231.82 1.812 1.16l2.772-15.622 2.592.49c2.742.381 5.664-.42 7.606-2.091.941-.801 2.072-2.172 2.112-4.164.05-2.281-.431-4.033-.951-5.884-.13-.471-.26-.931-.37-1.391a3.7 3.7 0 0 1 .89-3.453 3.83 3.83 0 0 1 3.503-1.141 1851 1851 0 0 1 44.365 8.927l9.728-44.275a3.73 3.73 0 0 1 2.052-2.562 3.96 3.96 0 0 1 3.493.06c1.321.67 2.492 1.491 3.623 2.292 1.641 1.15 3.332 2.351 5.694 3.252 3.933 1.501 7.936-.881 9.708-3.893.831-1.421 2.562-2.132 4.223-1.731 5.094 1.211 7.636 1.821 12.72 3.082 1.211.3 2.222 1.151 2.693 2.282a3.62 3.62 0 0 1-.241 3.313c-.71 1.18-1.581 2.211-2.422 3.202-1.211 1.431-2.462 2.912-3.362 5.004-.741 1.711-.321 3.333.16 4.404 1.071 2.371 3.473 4.403 6.255 5.304l.57.16c2.883.61 6.115 0 8.227-1.561.961-.711 2.142-1.952 2.312-3.853.2-2.252-.18-4.044-.591-5.925-.28-1.301-.57-2.652-.62-4.083a3.68 3.68 0 0 1 1.381-3.013 3.95 3.95 0 0 1 3.443-.72 1249 1249 0 0 1 18.624 4.974c.961.26 1.772.86 2.302 1.691.561.891.721 1.972.451 2.962l-32.376 117.674a3.77 3.77 0 0 1-3.633 2.763zm.31-4.964h.01zM163.01 388.393a1500 1500 0 0 1 117.183 26.471l31.716-115.282a1220 1220 0 0 0-15.833-4.233c.09.47.19.971.3 1.491.441 2.062.951 4.414.681 7.416-.26 2.922-1.802 5.564-4.324 7.436-2.922 2.152-6.985 3.132-10.858 2.662l-.12.12-1.382-.35c-.08-.02-.16-.04-.23-.07-.08-.01-.15-.03-.23-.05-.22-.05-.42-.13-.63-.22-4.084-1.362-7.496-4.334-9.138-7.957-1.271-2.802-1.331-5.804-.19-8.446 1.191-2.773 2.752-4.614 4.133-6.245.331-.391.651-.771.941-1.131-3.793-.931-6.235-1.522-10.258-2.482-3.073 4.503-9.097 7.636-15.322 5.254-2.943-1.131-4.984-2.562-6.786-3.833a39 39 0 0 0-1.761-1.201l-9.638 43.875c-.45 2.021-2.492 3.302-4.543 2.852a1807 1807 0 0 0-43.465-8.787c.51 1.872 1.011 3.993.951 6.705-.07 3.003-1.442 5.795-3.873 7.857-2.523 2.151-5.905 3.352-9.368 3.372l-2.232 12.54a3.73 3.73 0 0 1-1.901 2.633 3.85 3.85 0 0 1-3.343.16c-1.481-.631-2.752-1.471-3.983-2.292-1.591-1.061-3.243-2.162-5.505-2.902-2.091-.691-3.913-.061-5.064.59-2.071 1.161-3.703 3.353-4.253 5.715l-.09.49c-.29 2.472.53 5.134 2.132 6.965.88 1.001 2.382 2.202 4.583 2.242 2.302.05 4.144-.44 5.925-.91 1.481-.381 3.012-.781 4.694-.861 1.171-.04 2.292.42 3.052 1.301a3.74 3.74 0 0 1 .871 3.122l-2.842 15.973z"/><path fill="#7A42C8" d="M264.22 282.589c.811-3.983-.87-8.387-4.173-10.869a9.77 9.77 0 0 0-4.994-1.911c-4.764-.411-7.816.93-11.189 1.02-.911.02-1.641-.75-1.461-1.571l9.157-41.673c.15-.681-.36-1.371-1.131-1.541a1970 1970 0 0 0-50.02-10.068c-.79-.14-1.341-.831-1.18-1.522.92-3.993 4.533-5.964 6.425-10.988 2.021-5.365-3.033-11.109-9.418-12.66-.12-.05-.24-.081-.37-.111l-.25-.03a.8.8 0 0 0-.261-.03c-6.635-.93-13.62 2.753-13.57 8.587.04 5.415 2.822 8.387 2.251 12.54-.1.691-.85 1.151-1.631 1.011a1948 1948 0 0 0-50.43-7.786c-.781-.11-1.491.36-1.591 1.051l-5.765 42.243c-.11.831-1.071 1.312-1.922.961-3.102-1.251-5.584-3.533-10.148-4.784-6.075-1.661-11.889 2.913-13 8.497-.04.1-.07.21-.08.33 0 .071 0 .151-.01.221s-.03.14-.01.23c-.43 5.794 4.103 11.819 10.428 11.729 4.714-.07 7.606-1.671 10.919-2.041.901-.101 1.681.61 1.571 1.441a83254 83254 0 0 0-6.295 46.167c-.09.69.42 1.331 1.151 1.431a1808 1808 0 0 1 45.767 7.045c.95.16 1.421 1.191.9 1.942-1.321 1.951-2.962 3.913-4.013 6.985-1.851 5.405 2.732 10.969 8.477 12.4.11.04.22.08.33.1l.23.03c.08.01.15.04.241.03 5.984.821 12.439-2.852 12.57-8.676.07-3.273-.821-5.655-1.392-7.937-.22-.89.571-1.691 1.522-1.521a1853 1853 0 0 1 45.426 9.157c.721.16 1.421-.27 1.571-.95 3.333-15.163 6.656-30.325 9.988-45.487.18-.82 1.161-1.221 1.972-.81 2.952 1.501 5.194 3.973 9.547 5.644 4.754 1.822 10.309-.68 12.791-4.964.53-.921.89-1.891 1.1-2.902z"/><path fill="#000" d="M170.846 343.638c-.631 0-1.261-.04-1.902-.12-.2 0-.36-.04-.47-.06-.08 0-.17-.02-.26-.041a4 4 0 0 1-.631-.17c-3.953-1.02-7.406-3.643-9.257-7.035-1.491-2.742-1.792-5.785-.841-8.557.871-2.532 2.062-4.374 3.173-5.965a1869 1869 0 0 0-43.815-6.725c-2.082-.29-3.553-2.192-3.273-4.244l6.075-44.545c-.671.15-1.371.34-2.122.54-2.101.581-4.483 1.231-7.636 1.271-3.453.06-6.725-1.361-9.187-3.983-2.592-2.752-4.003-6.575-3.783-10.248 0-.21.01-.38.03-.501 0-.07 0-.16.02-.25.03-.23.08-.45.15-.68.76-3.543 3.082-6.816 6.245-8.767 3.022-1.872 6.515-2.402 9.838-1.491 3.132.85 5.344 2.131 7.296 3.252.63.36 1.251.721 1.851 1.031l5.545-40.632c.13-.971.64-1.832 1.431-2.432a4 4 0 0 1 2.972-.761 1932 1932 0 0 1 49.269 7.596c-.09-1.101-.45-2.222-.88-3.533-.651-2.021-1.401-4.313-1.421-7.326-.02-2.862 1.241-5.564 3.572-7.606 3.173-2.782 8.037-4.113 12.701-3.503.21.011.38.041.49.071.1.01.18.02.26.04.23.04.441.1.661.17 4.483 1.121 8.456 4.063 10.378 7.706 1.421 2.672 1.651 5.604.661 8.236-1.061 2.813-2.553 4.734-3.864 6.436-.83 1.08-1.551 2.001-2.011 2.972a1958 1958 0 0 1 48.839 9.848 4.07 4.07 0 0 1 2.542 1.741c.54.841.72 1.822.51 2.772l-8.807 40.092c.681-.08 1.381-.21 2.152-.35 2.192-.39 4.684-.83 7.916-.55a12.15 12.15 0 0 1 6.285 2.402c4.074 3.052 6.135 8.416 5.134 13.37a11.8 11.8 0 0 1-1.391 3.663c-3.232 5.555-10.198 8.207-15.852 6.035-2.943-1.131-4.984-2.562-6.786-3.833-.62-.44-1.191-.841-1.751-1.201l-9.638 43.875c-.45 2.022-2.492 3.303-4.544 2.852a1811 1811 0 0 0-43.464-8.787c.51 1.872 1.011 3.994.951 6.706-.071 3.002-1.442 5.794-3.874 7.856-2.552 2.172-5.984 3.373-9.487 3.373zm-1.641-5.134.26.04c2.742.38 5.664-.421 7.606-2.092.941-.801 2.071-2.172 2.112-4.163.05-2.282-.431-4.034-.951-5.885-.13-.47-.26-.931-.371-1.391a3.7 3.7 0 0 1 .891-3.453 3.83 3.83 0 0 1 3.503-1.141 1851 1851 0 0 1 44.365 8.927l9.728-44.275a3.73 3.73 0 0 1 2.052-2.562 3.96 3.96 0 0 1 3.493.06c1.321.67 2.492 1.491 3.622 2.292 1.642 1.151 3.333 2.352 5.695 3.252 3.373 1.291 7.736-.45 9.738-3.883.38-.66.65-1.381.81-2.141.621-3.043-.71-6.486-3.222-8.377a7.3 7.3 0 0 0-3.713-1.421c-2.582-.22-4.634.14-6.625.5-1.371.24-2.793.49-4.294.531-1.171.04-2.422-.511-3.192-1.442a3.71 3.71 0 0 1-.781-3.162l8.887-40.452a1981 1981 0 0 0-48.899-9.828c-1.081-.2-2.052-.831-2.642-1.732-.55-.85-.741-1.841-.52-2.812.59-2.572 2.011-4.403 3.382-6.175 1.151-1.481 2.342-3.022 3.133-5.134.49-1.311.36-2.702-.401-4.133-1.271-2.402-4.123-4.454-7.265-5.214l-.261-.081s-.09-.01-.13-.02l-.25-.03c-3.262-.46-6.745.441-8.857 2.292-1.251 1.091-1.881 2.372-1.861 3.803.02 2.242.58 3.984 1.181 5.825.7 2.152 1.421 4.373 1.04 7.086-.13.97-.66 1.841-1.471 2.432-.861.63-1.981.89-3.062.7a2011 2011 0 0 0-49.28-7.626l-5.594 41.003a3.73 3.73 0 0 1-1.832 2.712 4.02 4.02 0 0 1-3.502.24c-1.341-.54-2.562-1.241-3.743-1.921-1.782-1.021-3.613-2.082-6.125-2.763-1.962-.53-4.053-.21-5.885.921-2.052 1.271-3.543 3.383-4.003 5.655l-.07.47c-.17 2.362.73 4.834 2.422 6.625 1.491 1.582 3.422 2.472 5.474 2.412 2.512-.04 4.484-.58 6.385-1.101 1.361-.37 2.772-.76 4.294-.93a3.98 3.98 0 0 1 3.292 1.171 3.72 3.72 0 0 1 1.041 3.102l-6.135 44.946a1814 1814 0 0 1 44.676 6.895 3.82 3.82 0 0 1 2.902 2.272 3.7 3.7 0 0 1-.34 3.543c-.25.37-.511.741-.781 1.121-1.081 1.531-2.191 3.102-2.932 5.274-.631 1.842-.08 3.493.5 4.544 1.191 2.192 3.573 3.963 6.215 4.614l.251.07h.02zm-67.304-84.518v.02z"/><path fill="#EE6DBB" d="M151.29 372.06c-5.904-.09-9.838-6.235-9.157-11.999 0 0-.01 0-.02-.01.01-.07.03-.14.05-.22.01-.07.01-.15.02-.221.02-.11.05-.22.09-.32 1.301-5.544 6.956-9.928 12.54-8.096 4.424 1.451 6.635 3.973 9.688 5.274.78.33 1.661-.11 1.811-.921 1.031-5.814 1.552-8.727 2.582-14.541l-.23-.03c-.12-.02-.23-.06-.33-.101-5.745-1.421-10.328-6.985-8.477-12.399 1.051-3.063 2.682-5.024 4.013-6.986.511-.761.04-1.781-.9-1.942a1812 1812 0 0 0-45.767-7.045c-.73-.1-1.241-.741-1.151-1.431 2.102-15.393 4.204-30.785 6.295-46.167.11-.831-.67-1.541-1.571-1.441-3.323.37-6.205 1.971-10.919 2.041-5.354.08-9.397-4.223-10.268-9.057-.1-.55-.6-.971-1.2-1.051-5.375-.64-8.057-.951-13.442-1.541-.93-.1-1.49-1.001-1.13-1.781 1.25-2.683 3.512-4.924 4.663-8.908 1.581-5.494-3.663-10.838-9.898-11.899-.12-.04-.24-.06-.36-.08-.08 0-.16 0-.25-.01-.08 0-.16-.03-.24-.04 0 0 0 .01-.01.02-6.446-.42-12.92 3.783-12.49 9.598.31 4.193 2.121 6.785 2.782 9.697.19.831-.56 1.582-1.481 1.491a1151 1151 0 0 0-18.545-1.681c-.76-.06-1.421.45-1.481 1.141L36.359 373.021c-.06.691.46 1.301 1.15 1.361a1491 1491 0 0 1 121.357 15.813c.691.12 1.341-.33 1.462-1.021 1.241-6.965 1.851-10.438 3.092-17.404.14-.81-.52-1.521-1.351-1.481-3.323.15-6.145 1.841-10.779 1.771"/><path fill="#000" d="M159.087 392.717a4 4 0 0 1-.661-.06 1493 1493 0 0 0-121.137-15.783 3.75 3.75 0 0 1-3.422-4.063l10.148-121.617a3.7 3.7 0 0 1 1.44-2.632 3.94 3.94 0 0 1 2.743-.801c6.825.58 10.458.901 16.843 1.521q-.21-.555-.45-1.171c-.76-1.961-1.631-4.183-1.861-7.176-.22-2.912.88-5.754 3.092-7.976 2.612-2.632 6.585-4.233 10.618-4.323l.09-.12 1.432.14c.09 0 .18.02.27.04.08 0 .17 0 .25.02.21.02.43.06.65.12 4.324.77 8.307 3.332 10.439 6.715 1.631 2.602 2.102 5.555 1.301 8.307-.83 2.882-2.132 4.904-3.283 6.695-.22.34-.44.681-.64 1.011 4.293.47 6.956.781 11.73 1.351 1.691.2 3.082 1.471 3.372 3.092.62 3.433 3.583 7.086 7.766 6.996 2.512-.04 4.484-.58 6.385-1.101 1.361-.37 2.773-.76 4.294-.931a3.98 3.98 0 0 1 3.292 1.171 3.73 3.73 0 0 1 1.041 3.103l-6.135 44.946a1809 1809 0 0 1 44.676 6.895 3.81 3.81 0 0 1 2.902 2.272 3.7 3.7 0 0 1-.34 3.543c-.25.37-.51.74-.781 1.121-1.08 1.531-2.191 3.102-2.932 5.274-.63 1.841-.08 3.493.5 4.544 1.191 2.191 3.573 3.963 6.215 4.613l.341.08 2.532.391-3.033 17.063a3.73 3.73 0 0 1-1.901 2.632 3.84 3.84 0 0 1-3.343.161c-1.481-.621-2.752-1.472-3.983-2.292-1.591-1.061-3.243-2.162-5.514-2.903-2.092-.69-3.914-.06-5.065.591-2.071 1.161-3.702 3.353-4.263 5.714l-.06.231v.06l-.02.2c-.29 2.472.53 5.134 2.132 6.965.88 1.001 2.382 2.202 4.583 2.242 2.332.06 4.154-.44 5.925-.911 1.481-.39 3.012-.78 4.694-.86 1.181-.03 2.282.42 3.052 1.301a3.74 3.74 0 0 1 .871 3.122l-3.092 17.404a3.78 3.78 0 0 1-3.713 3.103zM38.951 372a1504 1504 0 0 1 119.135 15.522l2.582-14.541c-.681.13-1.381.31-2.142.51-2.012.521-4.303 1.091-7.266 1.071-3.152-.05-6.085-1.451-8.266-3.943-2.172-2.482-3.403-5.805-3.433-9.147l-.17-.1.25-1.722c.01-.08.03-.15.04-.22 0-.05.01-.13.03-.21.04-.22.09-.44.17-.651.911-3.673 3.383-6.945 6.646-8.777 2.872-1.611 6.084-1.961 9.077-.98 2.922.96 4.944 2.301 6.725 3.492.641.431 1.231.821 1.812 1.161l1.901-10.698c-3.303-1.241-6.105-3.603-7.716-6.545-1.491-2.743-1.791-5.785-.841-8.557.871-2.532 2.062-4.374 3.173-5.965a1869 1869 0 0 0-43.815-6.725c-2.082-.291-3.553-2.192-3.273-4.244l6.075-44.545c-.67.15-1.371.34-2.122.54-2.101.58-4.483 1.231-7.636 1.271h-.19c-6.565 0-11.069-4.974-12.38-10.208a1125 1125 0 0 0-12.65-1.441 3.94 3.94 0 0 1-2.992-1.952 3.74 3.74 0 0 1-.13-3.383c.53-1.13 1.2-2.171 1.841-3.172 1.01-1.571 2.062-3.193 2.682-5.364.51-1.752-.12-3.283-.73-4.264-1.421-2.252-4.174-3.963-7.176-4.473l-.61-.08c-3.063-.201-6.276.91-8.177 2.832-.83.841-1.791 2.232-1.651 4.083.17 2.242.83 3.933 1.53 5.725.451 1.141.911 2.332 1.202 3.603a3.65 3.65 0 0 1-.83 3.242c-.822.931-2.062 1.411-3.334 1.291-7.095-.69-10.728-1.021-17.394-1.581L38.951 372.01zm-1.231-.11h.01z"/><path fill="#04663A" d="m281.274 417.867 9.638-5.414c.88-.541.52-1.271.79-2.262 3.063-11.149 31.956-116.933 31.956-116.933l-8.987 3.753-33.397 120.866z"/><path fill="#000" d="M281.274 420.369a2.502 2.502 0 0 1-2.412-3.163l33.397-120.866c.21-.741.74-1.341 1.451-1.642l8.987-3.753a2.49 2.49 0 0 1 2.612.431 2.5 2.5 0 0 1 .761 2.542c-.29 1.061-28.923 105.924-31.956 116.943-.02.09-.04.24-.05.42-.05.681-.16 2.282-1.841 3.313l-9.718 5.464a2.5 2.5 0 0 1-1.221.321zm35.478-121.527-31.475 113.901 3.813-2.142c.03-.3.08-.671.19-1.081 2.653-9.628 24.86-90.953 30.605-111.989l-3.143 1.311z"/><path fill="#FF7B00" d="M216.803 153.005c-5.084-.27-8.247 1.161-11.83 1.341-.971.05-1.791-.71-1.641-1.531 1.071-6.045 18.435-82.135 19.515-88.18.121-.68-1.251-1.502-1.251-1.502L27.071 134.13l27.852 3.693c-2.732 32.786-5.474 78.273-8.206 111.059-.06.69.51 1.311 1.27 1.371 7.427.63 11.14.961 18.556 1.681.94.09 1.681-.68 1.47-1.531-.7-2.812-2.421-5.374-2.721-9.438-.43-5.814 6.044-10.018 12.49-9.597 0 0 0-.01.01-.02.08 0 .16.03.24.04.08 0 .16 0 .25.01.13.01.25.04.36.08 6.245 1.051 11.48 6.395 9.898 11.899-1.12 3.873-3.292 6.095-4.563 8.677-.39.781.18 1.702 1.12 1.802 5.125.56 7.677.85 12.79 1.461.801.09 1.502-.45 1.522-1.181 0-.13.01-.26.02-.38 0 0-.02 0-.02-.01 0-.07.03-.14.04-.221 0-.07 0-.15.01-.22.01-.11.04-.22.08-.33 1.111-5.584 6.926-10.158 13-8.497 4.564 1.251 7.056 3.523 10.149 4.784.85.34 1.811-.14 1.921-.961l5.765-42.243c.09-.691.8-1.161 1.591-1.051a1992 1992 0 0 1 50.43 7.786c.781.13 1.531-.32 1.632-1.011.57-4.153-2.202-7.126-2.252-12.54-.05-5.835 6.935-9.527 13.571-8.587 0 0 0-.01.01-.02.08.01.17.04.25.06.9-5.084 3.903-16.293 4.804-21.387.15-.82 1.17-1.261 2.051-.87 3.223 1.411 5.735 3.833 10.459 5.384 6.285 2.061 12.66-2.022 14.201-7.506.05-.1.09-.21.11-.32l.03-.221.06-.21s-.02 0-.02-.01c.831-5.744-3.673-12.18-10.488-12.54z"/><path fill="#000" d="M98.058 257.839c-.16 0-.31 0-.47-.03-5.105-.61-7.667-.901-12.77-1.461-1.282-.14-2.413-.881-3.013-1.992a3.68 3.68 0 0 1-.08-3.402c.51-1.031 1.12-1.982 1.721-2.903 1.011-1.571 2.062-3.192 2.692-5.364.51-1.751-.12-3.283-.73-4.263-1.421-2.252-4.164-3.964-7.176-4.474-.09-.01-.17-.03-.26-.06h-.14s-.04-.01-.05-.01h-.16c-3.063-.2-6.266.911-8.177 2.822-.83.841-1.791 2.232-1.651 4.083.17 2.242.83 3.934 1.53 5.725.411 1.051.842 2.132 1.132 3.293s0 2.392-.79 3.302c-.822.951-2.072 1.441-3.353 1.321a1157 1157 0 0 0-18.515-1.681c-2.132-.18-3.723-2.002-3.553-4.073 1.371-16.373 2.752-36.259 4.103-55.495 1.281-18.324 2.602-37.249 3.913-53.182l-25.49-3.373a2.51 2.51 0 0 1-2.162-2.212 2.51 2.51 0 0 1 1.631-2.622l194.526-70.996a2.46 2.46 0 0 1 2.132.2c.86.51 2.822 1.931 2.442 4.083-.551 3.083-5.025 23.028-9.768 44.145-4.054 18.045-8.227 36.64-9.448 42.504.801-.11 1.621-.27 2.522-.45 2.292-.45 4.894-.961 8.307-.781 3.833.2 7.306 1.982 9.788 5.004 2.372 2.893 3.492 6.516 3.102 10.008 0 .18-.01.361-.05.541-.01.07-.03.13-.05.2 0 .06-.02.15-.04.23-.04.21-.11.44-.2.671-1.001 3.382-3.453 6.325-6.746 8.076-3.322 1.771-7.085 2.112-10.588.961-3.153-1.031-5.384-2.402-7.346-3.613-.76-.47-1.491-.921-2.222-1.311-.52 2.562-1.341 5.985-2.131 9.307-.951 3.973-1.932 8.077-2.372 10.549a2.54 2.54 0 0 1-1.051 1.631c-.551.37-1.221.51-1.872.39-.05 0-.1 0-.15-.02-3.262-.46-6.745.441-8.857 2.292-1.251 1.091-1.881 2.372-1.861 3.803.02 2.242.58 3.983 1.181 5.825.7 2.152 1.421 4.373 1.041 7.086a3.6 3.6 0 0 1-1.472 2.431 4.03 4.03 0 0 1-3.062.701 2011 2011 0 0 0-49.279-7.626l-5.595 41.003a3.73 3.73 0 0 1-1.831 2.712c-1.051.61-2.362.7-3.503.24-1.341-.54-2.562-1.241-3.743-1.921-1.782-1.021-3.613-2.082-6.125-2.763-1.962-.54-4.053-.21-5.885.921-2.051 1.271-3.543 3.383-4.003 5.655-.01.07-.03.15-.05.22v.26c0 .09-.01.18-.01.27a3.67 3.67 0 0 1-1.281 2.672 3.94 3.94 0 0 1-2.572.951zm-10.929-6.265c3.663.41 6.085.681 9.888 1.131.03-.12.06-.25.1-.37.76-3.543 3.083-6.816 6.245-8.767 3.022-1.872 6.515-2.402 9.838-1.492 3.132.851 5.344 2.132 7.296 3.253.63.36 1.251.721 1.851 1.031l5.545-40.633c.13-.97.64-1.831 1.431-2.432a4 4 0 0 1 2.972-.76 1933 1933 0 0 1 49.27 7.596c-.091-1.101-.451-2.222-.881-3.533-.651-2.021-1.401-4.313-1.421-7.326-.02-2.862 1.241-5.564 3.573-7.606 2.732-2.392 6.715-3.733 10.748-3.643.521-2.462 1.261-5.564 1.992-8.597.95-3.973 1.931-8.076 2.372-10.548.2-1.111.9-2.052 1.921-2.602 1.101-.591 2.442-.631 3.613-.12 1.421.62 2.702 1.411 3.943 2.172 1.822 1.12 3.703 2.271 6.295 3.122 2.192.721 4.574.5 6.676-.62 2.111-1.131 3.733-3.063 4.333-5.185.02-.07.04-.14.07-.21 0-.03 0-.05.01-.08 0-.05 0-.1.02-.15.32-2.182-.42-4.624-1.961-6.505-1.572-1.922-3.774-3.043-6.185-3.173-2.793-.15-4.974.281-7.076.691-1.431.28-2.912.57-4.484.65-1.271.07-2.522-.45-3.342-1.381a3.68 3.68 0 0 1-.891-3.082c.55-3.083 5.034-23.079 9.788-44.256 3.893-17.353 7.906-35.218 9.277-41.723L37.519 133.02l17.755 2.352a2.5 2.5 0 0 1 2.161 2.692c-1.37 16.373-2.752 36.259-4.103 55.495-1.31 18.765-2.672 38.16-4.003 54.323 6.195.531 9.778.851 15.702 1.421-.12-.31-.24-.62-.36-.941-.77-1.961-1.641-4.183-1.861-7.175-.22-2.913.88-5.755 3.092-7.977 2.842-2.872 7.326-4.503 11.71-4.313.15-.01.31 0 .46 0 .08 0 .16.02.23.03.09 0 .17.01.26.02.21.02.43.06.65.12 4.324.771 8.307 3.333 10.44 6.725 1.63 2.603 2.1 5.555 1.3 8.307-.83 2.882-2.141 4.904-3.293 6.695-.18.271-.35.541-.52.801z"/><path fill="#6DB5C3" d="M278.462 112.782c-1.892 5.375-8.527 9.038-14.662 6.576-4.614-1.852-6.975-4.424-10.098-6.045-.861-.44-10.148 1.781-11.979 4.704 0 0 6.915 8.807 6.995 8.827.13.03.25.08.36.13 6.265 1.951 10.939 8.016 8.577 13.24-2.212 4.894-5.934 6.626-7.115 10.559-.201.67.3 1.401 1.08 1.591a1950 1950 0 0 1 49.27 13.271c.76.22 1.221.94 1.031 1.601-3.944 13.661-7.877 27.332-11.82 40.993-.23.8.451 1.621 1.361 1.661 3.373.13 6.495-1.011 11.229-.3 6.345.951 9.828 7.716 8.397 13.36-.02.07-.05.141-.08.211-.02.07-.03.14-.05.21-.03.11-.08.21-.14.32-.271.701.12 1.501.9 1.741 5.004 1.542 7.506 2.322 12.51 3.904.871.28 1.261 1.241.781 1.931-1.751 2.522-4.514 4.273-6.475 8.107-2.682 5.254-5.925 15.182-1.271 17.433 2.652 1.281 6.055 1.041 8.867.531 5.614-1.021 11.919-4.874 13.411-10.969.55-2.242.94-4.113.65-6.355-.16-1.221-1.161-5.905 1.481-5.034"/><path fill="#000" d="M322.017 260.25c-2.262 0-4.194-.4-5.835-1.191-1.551-.75-2.682-2.071-3.273-3.833-2.041-6.064 2.833-15.892 3.403-16.993 1.371-2.682 3.053-4.424 4.524-5.965.36-.37.7-.721 1.011-1.071a1369 1369 0 0 0-10.859-3.382 3.94 3.94 0 0 1-2.382-2.032 3.76 3.76 0 0 1-.12-3.013l.09-.21c0-.03.02-.06.03-.1l.03-.11c0-.02.03-.08.05-.13.53-2.262.06-4.804-1.291-6.835-1.221-1.832-3.022-3.013-5.084-3.323-2.562-.38-4.634-.15-6.645.07-1.381.15-2.813.31-4.314.25a4.03 4.03 0 0 1-3.092-1.641 3.7 3.7 0 0 1-.571-3.213l11.469-39.791A1971 1971 0 0 0 251 154.786c-1.061-.27-1.992-.961-2.522-1.901a3.6 3.6 0 0 1-.34-2.833c.76-2.532 2.291-4.273 3.773-5.954 1.241-1.411 2.532-2.863 3.462-4.924.581-1.281.531-2.672-.13-4.154-1.121-2.482-3.833-4.713-6.915-5.674-.1-.03-.2-.07-.3-.11q-.841-.2-8.287-9.688a2.51 2.51 0 0 1-.15-2.882c2.202-3.503 12.68-6.926 15.252-5.595 1.381.711 2.602 1.582 3.793 2.422 1.741 1.231 3.543 2.502 6.075 3.523 2.142.861 4.534.791 6.705-.19 2.182-.991 3.923-2.822 4.664-4.894a2.506 2.506 0 0 1 3.193-1.531 2.507 2.507 0 0 1 1.531 3.192c-1.191 3.383-3.863 6.225-7.316 7.787-3.433 1.551-7.206 1.651-10.639.27-3.072-1.231-5.214-2.742-7.105-4.084-.951-.67-1.852-1.311-2.772-1.831-1.632.14-5.675 1.361-7.847 2.552 1.932 2.452 4.154 5.274 5.044 6.385 4.304 1.451 7.967 4.594 9.628 8.277 1.241 2.762 1.291 5.694.13 8.256-1.241 2.743-2.852 4.564-4.263 6.175-.901 1.021-1.672 1.892-2.202 2.833a1976 1976 0 0 1 48.098 12.97c1.041.3 1.922.991 2.422 1.901.481.871.601 1.872.331 2.803l-11.37 39.441a38 38 0 0 0 2.172-.21c2.222-.25 4.724-.53 7.937-.04 3.472.52 6.495 2.472 8.506 5.504 2.102 3.163 2.843 7.166 1.992 10.759 4.303 1.321 6.795 2.102 11.419 3.573 1.191.38 2.142 1.291 2.532 2.452a3.64 3.64 0 0 1-.46 3.292c-.791 1.131-1.722 2.102-2.622 3.043-1.301 1.351-2.643 2.752-3.683 4.774-2.202 4.303-4.034 10.368-3.113 13.12.2.611.471.801.701.921 1.651.79 4.113.901 7.336.32 4.633-.841 10.188-4.043 11.419-9.097.52-2.122.84-3.643.6-5.445l-.06-.39c-.29-1.911-.791-5.104 1.171-6.755.56-.481 1.791-1.191 3.643-.581a2.507 2.507 0 0 1 1.591 3.163c-.27.81-.91 1.391-1.671 1.611q.045.675.21 1.802c.03.2.06.37.07.51.35 2.652-.11 4.864-.7 7.276-1.772 7.266-9.008 11.679-15.393 12.83q-2.477.45-4.563.45z"/><path fill="#6DB5C3" d="m413.42 151.535-44.336-46.478L389.2 45.6l5.955 2.142 2.952-8.547-42.113-15.172-2.953 8.547 5.315 1.911-14.742 43.575L275.53 5.898s-1.592.19-1.752.871c-1.441 5.885-26.761 89.131-28.202 95.016-.201.81.57 1.621 1.541 1.631 3.583.05 6.835-1.181 11.889-.58 6.776.8 10.869 7.506 9.668 13.19 0 0 .02.01.02.02-.02.07-.05.14-.07.21s-.02.151-.04.221a1.2 1.2 0 0 1-.13.31c-1.892 5.374-8.527 9.037-14.662 6.575-4.613-1.851-6.975-4.423-10.098-6.045-.861-.44-1.911-.08-2.112.731-1.251 5.104-1.871 7.656-3.122 12.75.08.02.17.03.25.05.13.03.25.08.36.13 6.265 1.952 10.939 8.017 8.577 13.241-2.212 4.894-5.934 6.625-7.115 10.558-.201.671.3 1.401 1.08 1.591a1955 1955 0 0 1 49.27 13.271c.76.22 1.221.941 1.031 1.601-3.944 13.661-7.877 27.332-11.82 40.993-.23.801.451 1.621 1.361 1.661 3.373.13 6.495-1.01 11.229-.3 6.345.951 9.828 7.716 8.377 13.341l.02.02c-.02.07-.05.14-.08.21-.02.07-.03.14-.05.21-.03.11-.08.21-.14.31v.01c-.271.701.12 1.502.9 1.742 5.004 1.541 7.506 2.322 12.51 3.903.871.28 1.261 1.241.781 1.931-1.751 2.522-4.514 4.274-6.475 8.107-2.602 5.094 1.371 11.299 7.076 13.561q.15.09.33.15l.23.06c.08.03.15.06.22.08l.02-.02c6.035 1.701 13.131-.981 14.021-6.745.671-4.304-.61-7.286-.53-10.379.02-.84.901-1.391 1.771-1.101a1189 1189 0 0 1 17.715 5.985c.72.25 1.491-.08 1.721-.74 10.758-31.115 23.258-71.447 34.017-102.562l28.293 9.868z"/><path fill="#000" d="M320.075 260.221c-1.341 0-2.702-.17-4.003-.5-.15-.02-.3-.05-.44-.1-.08-.03-.161-.05-.231-.08-.08-.02-.15-.04-.22-.06a5 5 0 0 1-.63-.261c-3.993-1.631-7.196-4.804-8.597-8.526-1.081-2.883-.961-5.875.35-8.447 1.371-2.682 3.053-4.424 4.534-5.965.36-.37.7-.721 1.011-1.071a1410 1410 0 0 0-10.859-3.383 3.9 3.9 0 0 1-2.382-2.031 3.8 3.8 0 0 1-.12-3.013c.03-.08.06-.15.1-.22 0 0 .01-.05.02-.07 0-.01 0-.03.01-.04 0-.04.02-.09.03-.13.58-2.272.12-4.854-1.241-6.915-1.221-1.842-3.022-3.023-5.084-3.333-2.562-.38-4.634-.15-6.635.07-1.381.15-2.823.31-4.314.25a4.03 4.03 0 0 1-3.092-1.641 3.7 3.7 0 0 1-.571-3.213l11.469-39.792a1940 1940 0 0 0-48.158-12.95c-1.061-.27-1.992-.961-2.522-1.901-.5-.881-.621-1.892-.33-2.833.76-2.532 2.292-4.263 3.773-5.944 1.241-1.412 2.532-2.863 3.462-4.924.581-1.281.531-2.672-.13-4.154-1.11-2.482-3.833-4.713-6.915-5.674-.09-.03-.17-.06-.25-.09-.06-.01-.13-.02-.19-.04a2.5 2.5 0 0 1-1.562-1.131 2.5 2.5 0 0 1-.3-1.902l3.123-12.75c.27-1.091 1.03-1.991 2.081-2.472a4.17 4.17 0 0 1 3.613.12c1.371.711 2.602 1.581 3.793 2.422 1.742 1.231 3.543 2.502 6.085 3.523 2.152.861 4.534.791 6.705-.19 2.182-.991 3.923-2.822 4.654-4.894.02-.07.05-.14.08-.21 0-.03.01-.05.02-.08 0-.05.02-.1.03-.14.461-2.162-.12-4.634-1.541-6.616-1.451-2.021-3.563-3.282-5.965-3.573-2.772-.33-4.984-.04-7.106.241-1.451.19-2.932.39-4.523.36a4.24 4.24 0 0 1-3.253-1.591c-.7-.911-.95-2.052-.69-3.133.74-3.002 7.246-24.68 14.131-47.638 6.565-21.877 13.361-44.505 14.071-47.388.521-2.121 2.893-2.632 3.883-2.752a2.52 2.52 0 0 1 2.122.77l65.232 69.126 12.62-37.31-3.002-1.08a2.495 2.495 0 0 1-1.511-3.173l2.952-8.547c.22-.63.681-1.151 1.281-1.441s1.301-.32 1.932-.1l42.113 15.172a2.495 2.495 0 0 1 1.511 3.172l-2.952 8.547a2.53 2.53 0 0 1-1.281 1.441c-.601.29-1.301.32-1.932.1l-3.552-1.28-18.815 55.614 43.284 45.386c.801.841.921 2.112.29 3.082a2.5 2.5 0 0 1-2.922 1.011l-25.921-9.037c-5.154 15.002-10.758 32.216-16.183 48.889-5.714 17.564-11.629 35.729-17.013 51.301-.671 1.962-2.872 2.982-4.894 2.292-6.565-2.262-10.028-3.443-16.073-5.444.06.48.13.98.21 1.511.31 2.091.661 4.463.2 7.446-.45 2.902-2.151 5.434-4.793 7.135-2.272 1.462-5.135 2.232-8.037 2.232zm-3.142-5.444c.05.01.1.02.16.04 2.832.8 6.095.4 8.316-1.031 1.011-.651 2.272-1.811 2.562-3.693.351-2.242.08-4.043-.2-5.955-.19-1.321-.4-2.682-.36-4.113.03-1.171.6-2.232 1.571-2.912 1.001-.701 2.302-.881 3.483-.501a1244 1244 0 0 1 16.693 5.625c5.265-15.272 11.019-32.937 16.584-50.04 5.724-17.584 11.639-35.759 17.033-51.341a2.5 2.5 0 0 1 1.271-1.431 2.48 2.48 0 0 1 1.912-.11l18.505 6.455-37.18-38.971a2.51 2.51 0 0 1-.561-2.532l20.116-59.458c.211-.64.681-1.16 1.281-1.451a2.5 2.5 0 0 1 1.932-.1l3.563 1.28 1.321-3.812-37.4-13.47-1.321 3.812 2.992 1.081a2.496 2.496 0 0 1 1.522 3.152l-14.742 43.575a2.494 2.494 0 0 1-4.184.91L275.6 9.622c-1.912 6.735-7.576 25.58-13.521 45.386-5.885 19.616-11.96 39.832-13.661 45.877a46 46 0 0 0 2.542-.28c2.322-.301 4.944-.65 8.347-.241 3.813.451 7.165 2.452 9.447 5.625 2.182 3.042 3.063 6.735 2.442 10.198 0 .17-.03.33-.08.5-.02.081-.04.151-.07.221-.01.05-.03.13-.05.2-.06.23-.14.46-.25.68-1.221 3.313-3.853 6.085-7.256 7.616-3.433 1.552-7.206 1.652-10.639.281-3.082-1.231-5.214-2.753-7.105-4.084-.721-.51-1.411-1-2.112-1.431l-2.212 9.017c3.753 1.592 6.886 4.484 8.377 7.807 1.241 2.762 1.281 5.694.13 8.256-1.241 2.743-2.852 4.564-4.263 6.175-.901 1.021-1.672 1.892-2.202 2.833a1952 1952 0 0 1 48.098 12.97c2.092.6 3.323 2.712 2.753 4.704l-11.37 39.441a38 38 0 0 0 2.172-.21c2.212-.25 4.724-.53 7.937-.04 3.482.52 6.505 2.482 8.516 5.524 2.062 3.103 2.793 7.016 2.002 10.549 0 .06-.01.13-.03.19a1170 1170 0 0 1 11.429 3.573c1.191.38 2.142 1.301 2.532 2.452a3.67 3.67 0 0 1-.45 3.292c-.791 1.131-1.722 2.102-2.622 3.043-1.301 1.351-2.642 2.752-3.683 4.774-.851 1.661-.541 3.312-.13 4.403.92 2.432 3.182 4.614 5.904 5.695.08.03.16.07.23.1.041 0 .091.02.141.04h.03z"/><path fill="#000" d="M355.924 26.384a2.51 2.51 0 0 1-2.362-1.681 2.49 2.49 0 0 1 1.531-3.183l9.328-3.262a2.49 2.49 0 0 1 3.182 1.531c.45 1.301-.23 2.732-1.531 3.183l-9.328 3.262c-.27.1-.55.14-.83.14z"/><path fill="#000" d="M397.697 43.047c-1.001 0-1.942-.6-2.332-1.581a2.496 2.496 0 0 1 1.411-3.243l7.616-2.992c1.291-.5 2.743.13 3.243 1.411a2.496 2.496 0 0 1-1.411 3.243l-7.616 2.992c-.3.12-.611.17-.921.17z"/><path fill="#000" d="M396.286 50.313c-1.001 0-1.942-.6-2.332-1.582a2.496 2.496 0 0 1 1.411-3.242l7.616-2.992c1.291-.5 2.743.13 3.243 1.41a2.496 2.496 0 0 1-1.411 3.243l-7.616 2.993c-.301.12-.611.17-.921.17z"/><path fill="#000" d="M371.036 107.108a2.497 2.497 0 0 1-.921-4.824l7.616-2.992c1.291-.5 2.742.13 3.243 1.411a2.497 2.497 0 0 1-1.411 3.243l-7.616 2.992c-.301.12-.611.17-.921.17z"/><path fill="#fff" d="M18.254 390.244s-10.378 8.337-14.992 12.52z"/><path fill="#000" d="M19.815 392.196a644 644 0 0 0-7.316 6.415c-2.411 2.152-4.843 4.323-7.105 6.515a3.18 3.18 0 0 1-4.504-.06c-1.28-1.311-1.16-3.463.24-4.634 2.582-2.171 5.155-4.173 7.747-6.184a749 749 0 0 1 7.806-5.945 2.496 2.496 0 0 1 3.503.5c.8 1.061.62 2.552-.37 3.403"/><path fill="#000" d="M26.47 396.199c-4.723 7.896-10.598 14.842-16.773 21.577-2.932 2.973-7.536-.96-5.074-4.323a144 144 0 0 1 4.274-5.284c4.353-5.185 8.757-10.379 13.64-15.072 2.102-1.992 5.365.61 3.924 3.092"/><path fill="#000" d="M420.635 92.557c6.536-1.741 13.251-2.802 19.936-3.823 2.232-.34 4.464-.66 6.716-.9 1.831-.211 3.482 1.12 3.693 2.951.19 1.712-.971 3.263-2.612 3.623-8.968 1.772-17.955 3.183-27.152 3.113-2.912-.07-3.363-4.264-.571-4.974"/><path fill="#000" d="M443.344 69.068a2.84 2.84 0 0 0-2.913-1.211c-.73.15-1.271.56-1.871.94l-1.261.811c-.811.52-1.612 1.041-2.422 1.551-1.612 1.041-3.233 2.072-4.844 3.113s-3.233 2.072-4.844 3.112c-1.761 1.131-3.573 2.202-5.224 3.483-.841.65-1.661 1.331-2.542 1.942l-2.632 1.831c-.571.4-.581 1.311-.23 1.832.39.57 1.15.79 1.781.48.891-.45 1.781-.89 2.662-1.341.851-.43 1.731-.8 2.602-1.181.881-.39 1.732-.78 2.572-1.251.841-.46 1.672-.92 2.512-1.381 3.383-1.862 6.766-3.723 10.138-5.585.941-.52 1.892-1.04 2.833-1.56.45-.251.91-.501 1.361-.751.24-.13.47-.26.71-.39l.33-.18c.561-.321.871-.621 1.282-1.112l.33-.66.15-.75a2.8 2.8 0 0 0-.5-1.752z"/><path fill="#000" d="M427.891 60.772c-.42-2.142-3.543-3.473-5.194-1.742-.1.11-.2.21-.31.32-2.322 2.432-3.703 6.115-5.585 8.928-1.251 1.871-2.392 3.813-3.563 5.734-.65 1.08-1.311 2.152-1.961 3.233-.16.26-.21.52-.19.78-.03.19-.05.38-.08.57-.08.591.59.912 1.07.711.131-.06.261-.11.391-.17.24-.03.47-.13.63-.29 1.512-1.621 3.023-3.243 4.524-4.864 3.062-3.293 6.915-6.815 9.447-10.488.391-.57.731-1.191.821-1.872.04-.29.03-.57-.02-.84z"/><path fill="#000" d="M230.934 162.813c-.481 0-.961-.14-1.381-.421l-8.477-5.654a2.5 2.5 0 0 1-.691-3.473 2.5 2.5 0 0 1 3.473-.691l8.477 5.655a2.502 2.502 0 0 1-1.391 4.584z"/><path fill="#000" d="M234.987 174.392c-.49 0-.991-.14-1.421-.441l-7.346-5.084a2.494 2.494 0 0 1-.63-3.482 2.494 2.494 0 0 1 3.482-.631l7.346 5.084a2.496 2.496 0 0 1 .631 3.483 2.52 2.52 0 0 1-2.062 1.081z"/><path fill="#000" d="M229.993 180.137c-.5 0-1.001-.15-1.441-.46l-7.066-4.994a2.493 2.493 0 0 1-.6-3.483 2.494 2.494 0 0 1 3.483-.601l7.065 4.994a2.494 2.494 0 0 1 .601 3.483 2.5 2.5 0 0 1-2.042 1.061"/><path fill="#000" d="M338.56 249.932h-.2l-7.346-.57a2.5 2.5 0 0 1-2.302-2.682c.11-1.381 1.311-2.432 2.682-2.302l7.346.57a2.5 2.5 0 0 1 2.302 2.683 2.506 2.506 0 0 1-2.492 2.311z"/><path fill="#000" d="M250.53 123.341a2.51 2.51 0 0 1-2.362-1.671 2.5 2.5 0 0 1 1.521-3.193l8.757-3.112a2.5 2.5 0 0 1 1.671 4.714l-8.757 3.112c-.28.1-.56.14-.84.14z"/><path fill="#000" d="M188.08 193.848a2.49 2.49 0 0 1-2.352-1.661 2.51 2.51 0 0 1 1.511-3.203l11.87-4.243a2.51 2.51 0 0 1 3.202 1.511 2.513 2.513 0 0 1-1.511 3.203l-11.87 4.243q-.42.15-.84.15z"/><path fill="#000" d="M204.473 198.371c-.941 0-1.842-.54-2.272-1.451a2.5 2.5 0 0 1 1.211-3.322l6.895-3.213a2.504 2.504 0 0 1 3.323 1.211 2.503 2.503 0 0 1-1.211 3.323l-6.895 3.212a2.5 2.5 0 0 1-1.051.24"/><path fill="#000" d="M251.1 229.306c-.911 0-1.781-.49-2.222-1.351a2.513 2.513 0 0 1 1.071-3.373l8.197-4.243a2.51 2.51 0 0 1 3.372 1.071 2.516 2.516 0 0 1-1.07 3.373l-8.197 4.243c-.37.19-.761.28-1.151.28"/><path fill="#000" d="M199.108 216.306c-.91 0-1.781-.491-2.221-1.352a2.51 2.51 0 0 1 1.071-3.372l8.196-4.244a2.51 2.51 0 0 1 3.373 1.071 2.516 2.516 0 0 1-1.071 3.373l-8.197 4.243c-.37.19-.76.281-1.151.281"/><path fill="#000" d="M243.464 273.011c-.911 0-1.781-.49-2.222-1.351a2.513 2.513 0 0 1 1.071-3.373l8.197-4.243a2.51 2.51 0 0 1 3.372 1.071 2.51 2.51 0 0 1-1.071 3.372l-8.196 4.244c-.37.19-.761.28-1.151.28"/><path fill="#000" d="M259.767 291.576a2.49 2.49 0 0 1-2.222-1.351 2.513 2.513 0 0 1 1.071-3.373l8.197-4.244a2.51 2.51 0 0 1 3.372 1.071 2.51 2.51 0 0 1-1.071 3.373l-8.196 4.243c-.37.191-.761.281-1.151.281"/><path fill="#000" d="M261.178 275.273a2.49 2.49 0 0 1-2.202-1.311 2.51 2.51 0 0 1 1.011-3.393l7.086-3.823a2.515 2.515 0 0 1 3.392 1.011 2.506 2.506 0 0 1-1.01 3.392l-7.086 3.823c-.38.201-.781.301-1.191.301"/><path fill="#000" d="M264.941 281.308a2.506 2.506 0 0 1-1.291-4.654l6.705-4.013a2.507 2.507 0 0 1 3.433.861 2.504 2.504 0 0 1-.861 3.432l-6.705 4.014c-.4.24-.841.35-1.281.35z"/><path fill="#000" d="M279.072 291.195c-.91 0-1.781-.49-2.221-1.351a2.51 2.51 0 0 1 1.07-3.373l8.197-4.233a2.51 2.51 0 0 1 3.373 1.071 2.516 2.516 0 0 1-1.071 3.373l-8.197 4.233c-.37.19-.76.28-1.151.28"/><path fill="#000" d="M273.418 309.56a2.49 2.49 0 0 1-2.222-1.351 2.513 2.513 0 0 1 1.071-3.373l8.196-4.243a2.51 2.51 0 0 1 3.373 1.07 2.51 2.51 0 0 1-1.071 3.373l-8.196 4.243a2.5 2.5 0 0 1-1.151.281"/></svg>