<svg xmlns="http://www.w3.org/2000/svg" width="326" height="227" fill="none" viewBox="0 0 326 227"><path fill="#3F8C9B" d="M315.282 93.899c0-19.534-9.23-36.942-23.546-48.129a61 61 0 0 0-10.17-4.878l25.757 146.356a60.67 60.67 0 0 0 7.959-30.089z"/><path fill="#3F8C9B" d="M69.543 218.228c16.946-10.321 28.799-20.68 37.75-29.344 3.631-4.117 21.856-24.358 29.61-24.944l-19.1-108.526c-1.377-7.808-.135-15.668 3.475-22.582H65.531c-22.085 0-41.468 11.784-52.194 29.394C24.549 72.562 41.95 75.935 78.57 69.12c.18-.033.356-.037.531-.027.95-.089 1.722.124 2.105.232 2.332.665 3.379 3.677 4.495 9.004 1.679 8.02 7.115 37.829 8.443 47.07 3.65 25.391 5.558 44.237-3.188 55.529-4.405 5.687-11.569 8.052-11.871 8.15-.763.248-1.52.431-2.27.573-16.143 6.666-32.2 9.297-47.899 8.739l-.06.024a78 78 0 0 1-3.15 3.056 61.6 61.6 0 0 0 8.56 8.123 60.7 60.7 0 0 0 31.264 8.635z"/><path fill="#000" d="M294.235 42.063a65.4 65.4 0 0 0-19.182-10.278l-.416-2.363c-1.651-9.363-6.85-17.523-14.638-22.977C252.211.992 242.766-1.1 233.402.55l-86.434 15.24c-8.509 1.501-16.016 5.939-21.41 12.58H65.531C29.397 28.369 0 57.766 0 93.899v63.261c0 23.793 12.748 44.66 31.77 56.142 11.078 8.571 24.957 13.69 40.015 13.69H260.47c36.134 0 65.531-29.397 65.531-65.531v-63.26c0-23.79-12.746-44.656-31.765-56.138M4.463 93.9a60.7 60.7 0 0 1 6.662-27.683C19.666 73.75 30.527 77.242 45.9 77.242c6.599 0 14.05-.656 22.483-1.896l-27.57 17.709c-1.855 1.014-4.235 4.234-3.91 7.233l.043.398c5.274 48.789 14.72 77.915 28.08 86.568a18 18 0 0 0 3.05 1.587c-17.784 5.729-35.209 6.646-52.062 3.994-7.257-10.045-11.55-22.364-11.55-35.675zm85.265 32.134c3.379 23.509 5.356 42.278-2.3 52.161-3.544 4.576-9.658 6.618-9.717 6.638-3.684 1.193-7.04.761-10.26-1.324-15.966-10.343-23.186-56.631-26.07-83.302l-.043-.4c-.096-.895 1.046-2.524 1.588-2.823q.112-.056.217-.122l36.263-23.293a.25.25 0 0 1 .143-.04q.042 0 .104.01c.315.492.877 1.871 1.68 5.705 1.67 7.975 7.075 37.609 8.395 46.79m-64.02 75.436a78 78 0 0 0 3.149-3.056l.025-.025.035.001c15.7.558 31.756-2.073 47.899-8.739a19 19 0 0 0 2.27-.572c.303-.099 7.466-2.464 11.871-8.151 8.746-11.292 6.838-30.138 3.189-55.529-1.329-9.241-6.765-39.05-8.444-47.07-1.116-5.327-2.162-8.339-4.494-9.004-.384-.108-1.155-.32-2.106-.232a2.2 2.2 0 0 0-.531.027c-36.621 6.815-54.022 3.442-65.234-6.894 10.726-17.61 30.11-29.394 52.194-29.394h55.747c-3.61 6.914-4.852 14.774-3.475 22.582l19.1 108.526c-7.754.586-25.979 20.827-29.61 24.944-8.951 8.664-20.804 19.024-37.75 29.344h-4.012a60.7 60.7 0 0 1-31.263-8.635 61.6 61.6 0 0 1-8.56-8.123M257.439 10.101c6.812 4.77 11.359 11.906 12.803 20.096l4.506 25.605c.003.022.013.04.017.061l-.014.003 24.982 141.949a61.6 61.6 0 0 1-9.061 8.306L263.856 58.103l-4.342-23.966a22 22 0 0 0-9.104-14.292 22 22 0 0 0-16.543-3.667l-82.516 14.55a22 22 0 0 0-14.291 9.104c-3.392 4.844-4.695 10.72-3.666 16.553l5.894 32.53 23.427 129.313h-11.726l-4.235-24.063a49 49 0 0 0 3.153-4.621 8.8 8.8 0 0 0 1.141-5.954c-1.274-7.596-4.348-15.567-9.411-18.501l-13.884-78.89c-.004-.027-.001-.054-.006-.08l-5.257-29.87c-1.444-8.188.388-16.45 5.158-23.261 4.769-6.812 11.906-11.359 20.095-12.803l86.434-15.24c8.189-1.443 16.451.387 23.262 5.156M111.217 191.187c12.622-14.211 23.111-22.747 26.034-22.811l.078-.001c4.361 0 7.984 8.001 9.318 15.952a4.33 4.33 0 0 1-.571 2.928c-1.585 2.652-5.017 7.679-10.209 11.553a2.232 2.232 0 0 0 2.67 3.578 39.5 39.5 0 0 0 4.447-3.894l2.645 15.033.066 1.029c.076 1.208.156 2.445.235 3.674H77.928c14.666-9.599 25.222-19.054 33.371-27.011zm32.462-103.072-5.891-32.516c-.82-4.65.22-9.34 2.928-13.207a17.56 17.56 0 0 1 11.41-7.27l82.516-14.55c4.648-.82 9.34.221 13.208 2.93a17.56 17.56 0 0 1 7.271 11.42l5.749 31.733.001.005 25.765 142.215a60.7 60.7 0 0 1-32.421 9.353h-86.964zm163.645 99.134L281.567 40.893a61 61 0 0 1 10.17 4.878c14.316 11.187 23.546 28.595 23.546 48.129v63.26a60.7 60.7 0 0 1-7.959 30.089"/><path fill="#F295FF" d="M16.012 192.833c16.853 2.652 34.278 1.736 52.062-3.994a17.7 17.7 0 0 1-3.05-1.587c-13.36-8.653-22.806-37.779-28.08-86.567l-.044-.399c-.324-2.998 2.056-6.219 3.91-7.233l27.57-17.71c-8.432 1.242-15.883 1.897-22.482 1.897-15.372 0-26.233-3.493-34.774-11.024a60.7 60.7 0 0 0-6.662 27.682v63.261c0 13.31 4.293 25.63 11.55 35.674"/><path fill="#F295FF" d="m145.93 218.228-.236-3.675-.065-1.029-2.646-15.033a39.5 39.5 0 0 1-4.446 3.894 2.227 2.227 0 0 1-3.123-.454 2.23 2.23 0 0 1 .453-3.123c5.191-3.875 8.624-8.902 10.208-11.554a4.33 4.33 0 0 0 .571-2.928c-1.334-7.951-4.956-15.951-9.318-15.951l-.077.001c-2.924.063-13.413 8.599-26.034 22.811l.082.029c-8.15 7.957-18.706 17.413-33.371 27.012z"/><path fill="#DB00F8" d="M79.652 73.537a1 1 0 0 0-.103-.009.25.25 0 0 0-.144.04L43.142 96.86q-.105.066-.216.123c-.543.299-1.685 1.928-1.588 2.823l.043.4c2.883 26.671 10.104 72.959 26.07 83.301 3.22 2.086 6.575 2.517 10.26 1.324.058-.019 6.173-2.061 9.717-6.638 7.655-9.883 5.679-28.652 2.3-52.161-1.32-9.18-6.725-38.814-8.395-46.79-.803-3.833-1.366-5.213-1.68-5.705m-21.588 59.012c-1.219-6.91-2.085-12.842-2.506-17.155-.546-5.593-.687-9.297 2.21-9.809 2.897-.506 4.026 2.978 5.415 8.356 1.07 4.148 2.28 9.985 3.494 16.878 1.382 7.833 2.14 12.649 2.536 16.103.468 4.074.951 8.287-2.172 8.837q-.27.047-.52.047c-2.51 0-3.756-3.451-4.905-7.309-1.186-3.982-2.414-9.496-3.552-15.948m26.498 7.444c.468 4.073.95 8.285-2.172 8.837-.232.041-.48.085-.741.085-1.869 0-4.518-2.207-8.237-23.296-1.218-6.91-2.085-12.841-2.506-17.154-.546-5.594-.687-9.299 2.212-9.81 2.884-.508 4.024 2.976 5.413 8.357 1.071 4.147 2.28 9.983 3.495 16.877 1.382 7.834 2.14 12.651 2.536 16.104"/><path fill="#000" d="M66.52 155.806q.252 0 .52-.047c3.124-.55 2.64-4.763 2.173-8.837-.396-3.455-1.155-8.271-2.536-16.104-1.215-6.893-2.423-12.73-3.494-16.877-1.39-5.378-2.519-8.862-5.416-8.357-2.897.513-2.755 4.217-2.21 9.81.422 4.312 1.288 10.245 2.507 17.155 1.137 6.452 2.365 11.966 3.551 15.948 1.15 3.858 2.397 7.309 4.906 7.309"/><path fill="#000" d="M73.118 98.655c-2.9.51-2.758 4.215-2.212 9.809.421 4.313 1.288 10.245 2.506 17.155 3.719 21.088 6.368 23.295 8.237 23.295.262 0 .509-.044.741-.085 3.122-.551 2.64-4.763 2.172-8.837-.396-3.453-1.154-8.27-2.536-16.104-1.215-6.894-2.424-12.73-3.495-16.877-1.39-5.381-2.529-8.864-5.413-8.356"/><path fill="#FFFBE8" d="M167.251 218.228h86.964a60.7 60.7 0 0 0 32.42-9.353L255.12 34.921a17.56 17.56 0 0 0-7.27-11.42 17.56 17.56 0 0 0-13.208-2.929l-82.517 14.55a17.56 17.56 0 0 0-11.409 7.27 17.56 17.56 0 0 0-2.929 13.207l5.891 32.515zm16.127-50.285c-12.033 2.121-21.893-5.144-23.978-16.971l-5.323-30.186 16.778-2.958 5.383 30.529c.473 2.682 2.24 3.859 4.303 3.496 2.063-.364 3.321-2.075 2.848-4.757l-5.383-30.529 16.777-2.959 5.323 30.186c2.085 11.827-4.695 22.027-16.728 24.149m84.409-36.366c1.988 11.276-5.912 21.957-16.983 23.909l-23.516 4.147c-11.071 1.952-22.148-5.382-24.136-16.659l-5.274-29.911 16.777-2.959 5.432 30.805c.473 2.682 2.24 3.859 4.303 3.495s3.321-2.074 2.848-4.756l-5.432-30.805 16.778-2.958 5.432 30.805c.473 2.681 2.24 3.859 4.303 3.495s3.321-2.074 2.848-4.756l-5.432-30.805 16.778-2.958zm-59.511-97.665a5.07 5.07 0 0 1 2.097 3.294 5.07 5.07 0 0 1-.845 3.812 5.07 5.07 0 0 1-3.293 2.098l-19.18 3.382a5.11 5.11 0 0 1-5.91-4.138 5.07 5.07 0 0 1 .845-3.813 5.07 5.07 0 0 1 3.293-2.097l19.18-3.382a5.07 5.07 0 0 1 3.813.844"/><path fill="#7A42C8" d="m194.783 113.606-16.777 2.959 5.383 30.53c.473 2.681-.785 4.392-2.848 4.756s-3.83-.814-4.303-3.496l-5.383-30.529-16.778 2.958 5.323 30.186c2.085 11.827 11.945 19.092 23.978 16.971 12.033-2.122 18.813-12.322 16.728-24.149z"/><path fill="#7A42C8" d="M251.166 135.429c.473 2.681-.785 4.392-2.848 4.756s-3.83-.814-4.303-3.495l-5.431-30.805-16.778 2.958 5.432 30.805c.472 2.682-.786 4.392-2.848 4.756-2.063.364-3.831-.813-4.304-3.495l-5.431-30.805-16.778 2.958 5.274 29.911c1.989 11.277 13.066 18.612 24.136 16.66l23.517-4.147c11.07-1.952 18.971-12.633 16.982-23.91l-5.274-29.911-16.777 2.959z"/><path fill="#6DB5C3" d="M147.743 20.183c-8.19 1.444-15.327 5.99-20.096 12.803-4.77 6.811-6.601 15.073-5.157 23.262l5.256 29.868c.005.028.003.054.006.081l13.884 78.89c5.064 2.934 8.137 10.906 9.411 18.501a8.8 8.8 0 0 1-1.141 5.954 48 48 0 0 1-3.153 4.621l4.235 24.063h11.727L139.288 88.913l-5.894-32.53c-1.029-5.834.274-11.709 3.665-16.553a22 22 0 0 1 14.292-9.104l82.516-14.55a22 22 0 0 1 16.542 3.667 22 22 0 0 1 9.105 14.292l4.342 23.967 26.816 148.017a61.6 61.6 0 0 0 9.061-8.306L274.751 55.864l.014-.003c-.005-.02-.014-.04-.018-.06l-4.506-25.606c-1.444-8.19-5.99-15.326-12.802-20.096s-15.073-6.6-23.262-5.156z"/><path fill="#000" d="M181.99 38.547a5.07 5.07 0 0 0-.845 3.813 5.11 5.11 0 0 0 5.91 4.138l19.18-3.382a5.07 5.07 0 0 0 3.293-2.097 5.07 5.07 0 0 0 .845-3.813 5.07 5.07 0 0 0-2.098-3.293 5.06 5.06 0 0 0-3.812-.845l-19.181 3.382a5.07 5.07 0 0 0-3.292 2.097"/></svg>