<svg xmlns="http://www.w3.org/2000/svg" width="231" height="304" fill="none" viewBox="0 0 231 304"><path fill="#FFB921" d="M162.658 130.184q-2.603.073-5.351.073c-17.134 0-38.315-2.145-60.377-6.142-24.42-4.425-47.034-10.597-63.68-17.38-10.429-4.25-17.685-8.371-21.736-12.328-2.188 34.22-7.145 111.684-7.225 112.311-.104.808-.192 5.13 8.354 10.956 11.377 7.759 32.188 14.489 61.853 20.005 71.909 13.371 79.55-.278 79.998-1.27l.014-.16.03.026 32.844-110.028c-5.179 2.295-13.435 3.615-24.724 3.937m-74.08 43.304-1.535 32.461a2.13 2.13 0 0 1-2.512 1.998l-21.211-3.851a2.132 2.132 0 0 1-1.606-2.874l11.903-30.51c-2.526-1.851-4.214-4.419-5.02-7.64a16.2 16.2 0 0 1 2.215-12.881q.43-.645.923-1.203c2.396-2.96 5.693-4.9 9.46-5.475 4.386-.67 8.695.488 12.126 3.263a15.54 15.54 0 0 1 5.729 11.139 15.46 15.46 0 0 1-10.473 15.573"/><path fill="#D69200" d="M44.7 79.76h-.14c-20.084 0-31.84 2.974-32.573 7.014-1.29 7.12 30.69 23.175 85.703 33.144 24.136 4.372 47.162 6.503 64.846 6.002 19.123-.544 26.517-4.094 27.038-6.968.52-2.875-5.158-8.793-22.874-16.012-1.2-.489-2.44-.974-3.702-1.456l-2.347 8.482a2.1 2.1 0 0 1-.457.844c-.296.334-2.637 2.727-8.985 2.727-1.519 0-3.267-.137-5.273-.472-7.669-1.281-12.111-6.634-12.297-6.861a2.13 2.13 0 0 1-.408-1.899l3.025-11.31c-10.112-2.695-21.042-5.132-32.385-7.187-11.435-2.072-22.021-3.544-31.645-4.519l-1.344 9.502a2.14 2.14 0 0 1-.623 1.228c-.173.169-4.328 4.111-13.408 3.35-7.865-.658-12.343-5.77-12.53-5.987a2.13 2.13 0 0 1-.502-1.624z"/><path fill="#101010" d="M168.31 98.989a188 188 0 0 0-4.17-1.633l5.168-18.682a62.25 62.25 0 0 0-8.151-50.785A62.24 62.24 0 0 0 117.577.57c-16.8-2.263-33.391 2.246-46.73 12.703C57.508 23.732 49.166 38.772 47.36 55.62l-2.188 19.856c-2.15-.01-4.248.01-6.268.066-19.296.549-29.743 4.01-31.072 10.286l-.003.015c-.012.057-.029.113-.04.171a6.4 6.4 0 0 0-.097 1.305C6.943 99.04.204 204.46.058 206.173c-.288 2.233.126 8.17 10.182 15.026 11.87 8.094 33.226 15.049 63.476 20.674 23.13 4.301 39.962 5.857 52.218 5.856 28.705-.001 32.281-8.535 32.711-10.3l34.775-116.495q.236-.592.351-1.222c.011-.062.015-.125.025-.187l.001-.011c.948-6.34-7.62-13.244-25.487-20.525m-13.802 137.26-.014.161c-.448.991-8.089 14.641-79.998 1.269-29.665-5.516-50.476-12.246-61.853-20.005-8.546-5.826-8.458-10.148-8.354-10.956.08-.627 5.037-78.091 7.225-112.31 4.05 3.956 11.307 8.077 21.737 12.327 16.645 6.783 39.26 12.955 63.679 17.38 22.062 3.998 43.243 6.142 60.377 6.142q2.748 0 5.351-.073c11.289-.322 19.545-1.641 24.724-3.936l-32.844 110.027zM117.007 4.799a57.98 57.98 0 0 1 40.594 25.446 57.98 57.98 0 0 1 7.594 47.297l-8.467 30.608c-.903.542-3.759 1.764-10.089.707-4.482-.749-7.636-3.315-8.978-4.604l8.528-31.896a38.28 38.28 0 0 0-5.013-31.233 38.27 38.27 0 0 0-26.802-16.801c-10.329-1.394-20.537 1.381-28.74 7.812C77.43 38.567 72.3 47.818 71.196 58.11L66.78 89.334c-1.133.745-4.15 2.239-9.573 1.784-4.613-.387-7.772-2.776-9.035-3.915L51.6 56.08c1.685-15.698 9.455-29.707 21.878-39.448 12.427-9.741 27.89-13.944 43.529-11.833m20.35 84.076c-10.229-2.727-21.273-5.19-32.726-7.265-10.95-1.984-21.679-3.507-31.808-4.542l2.607-18.431c.988-9.21 5.546-17.43 12.835-23.145s16.362-8.178 25.539-6.942a34.025 34.025 0 0 1 28.268 42.693zm-93.035.507c.187.217 4.664 5.328 12.529 5.987 9.08.761 13.236-3.181 13.408-3.35.337-.329.556-.761.623-1.228l1.344-9.502c9.624.975 20.21 2.447 31.645 4.518 11.343 2.056 22.273 4.492 32.385 7.187l-3.025 11.311a2.13 2.13 0 0 0 .408 1.899c.186.227 4.628 5.58 12.297 6.861 2.006.335 3.754.472 5.273.472 6.348 0 8.689-2.393 8.985-2.727a2.1 2.1 0 0 0 .457-.844l2.347-8.482c1.262.482 2.502.967 3.702 1.456 17.716 7.219 23.394 13.137 22.874 16.012-.521 2.874-7.915 6.424-27.038 6.968-17.684.501-40.71-1.63-64.846-6.002-55.013-9.969-86.993-26.023-85.703-33.144.732-4.04 12.49-7.014 32.573-7.014h.14l-.881 7.998a2.13 2.13 0 0 0 .503 1.624"/><path fill="#3F3F3F" d="M80.322 304c40.463 0 73.265-4.872 73.265-10.883s-32.802-10.882-73.265-10.882-73.264 4.872-73.264 10.882C7.058 299.128 39.86 304 80.322 304"/><path fill="#F1EFE4" d="M217.511 78.607c1.331-1.77-.628-4.25-2.674-3.324-4.742 2.31-8.73 5.646-12.784 8.93-3.041 2.722.678 7.364 3.996 4.968 4.076-3.256 8.19-6.438 11.462-10.574"/><path fill="#F1EFE4" d="M218.898 129.549c-2.467-2.47-5.192-4.73-8.633-5.7-1.874-.543-3.623 1.65-2.625 3.363 2.449 4.031 6.5 6.786 10.839 8.46 1.939.671 3.759-1.616 2.625-3.362-.644-1.038-1.415-1.912-2.206-2.761"/><path fill="#F1EFE4" d="M228.744 101.755c-3.42-.044-6.805.285-10.189.689-3.458.567-6.888.546-9.935 2.692-.949.641-.76 2.215.33 2.603 1.802.702 3.523.767 5.222.658 3.389-.287 6.762-.702 10.111-1.308a54 54 0 0 0 4.998-1.102 2.155 2.155 0 0 0-.537-4.232"/><path fill="#FFB921" d="m51.6 56.08-3.428 31.123c1.263 1.139 4.422 3.528 9.035 3.915 5.424.455 8.44-1.039 9.573-1.784l4.417-31.224C72.3 47.818 77.43 38.568 85.633 32.135c8.204-6.43 18.412-9.206 28.741-7.812a38.27 38.27 0 0 1 26.802 16.8 38.28 38.28 0 0 1 5.013 31.234l-8.528 31.896c1.342 1.289 4.496 3.856 8.978 4.605 6.33 1.056 9.186-.165 10.089-.708l8.467-30.607a57.98 57.98 0 0 0-7.594-47.298A57.98 57.98 0 0 0 117.007 4.8c-15.639-2.11-31.102 2.092-43.529 11.833-12.423 9.74-20.193 23.75-21.878 39.448"/><path fill="#7A42C8" d="M92.125 151.525c-2.654-3.028-6.422-4.386-10.287-3.794-2.602.397-4.902 1.702-6.614 3.706a3.1 3.1 0 0 0-.61 1.13 11.9 11.9 0 0 0-.036 6.55c.613 2.18 1.784 3.892 3.482 5.088a4.46 4.46 0 0 1 1.614 5.138l-10.106 28.259 13.502 2.055 1.263-26.729c.007-.14.04-.54.04-.607 0-2.687 1.209-4.747 3.094-5.563q.292-.192.643-.284a11.2 11.2 0 0 0 6.077-3.969c.872-2.515.89-5.388-.33-8.235a10.4 10.4 0 0 0-1.732-2.745"/><path fill="#101010" d="M93.32 146.777c-3.43-2.776-7.739-3.934-12.126-3.264-3.766.576-7.063 2.515-9.46 5.475-.326.373-.636.773-.922 1.204a16.2 16.2 0 0 0-2.215 12.88c.806 3.221 2.494 5.789 5.02 7.64l-11.903 30.511a2.13 2.13 0 0 0 1.606 2.873l21.211 3.851q.191.033.381.034a2.13 2.13 0 0 0 2.13-2.032l1.535-32.461a15.46 15.46 0 0 0 10.473-15.573 15.54 15.54 0 0 0-5.73-11.138m.867 15.728a11.2 11.2 0 0 1-6.077 3.969 2.1 2.1 0 0 0-.643.284c-1.885.816-3.093 2.876-3.093 5.563 0 .067-.034.467-.04.607l-1.264 26.729-13.502-2.055 10.106-28.259a4.46 4.46 0 0 0-1.614-5.138c-1.698-1.196-2.87-2.908-3.482-5.088a11.9 11.9 0 0 1 .036-6.55c.12-.414.33-.802.61-1.13 1.712-2.004 4.012-3.309 6.614-3.706 3.865-.592 7.633.766 10.287 3.794a10.4 10.4 0 0 1 1.732 2.745c1.22 2.847 1.202 5.72.33 8.235"/></svg>