<svg xmlns="http://www.w3.org/2000/svg" width="231" height="304" fill="none" viewBox="0 0 231 304"><path fill="#FFB921" d="M162.658 130.184q-2.603.073-5.351.073c-17.134 0-38.315-2.145-60.377-6.142-24.42-4.425-47.034-10.597-63.679-17.38-10.43-4.25-17.686-8.371-21.737-12.328-2.188 34.22-7.145 111.684-7.225 112.311-.104.808-.192 5.13 8.354 10.956 11.377 7.759 32.188 14.489 61.853 20.005 71.909 13.371 79.55-.278 79.998-1.27l.014-.16.03.026 32.844-110.028c-5.179 2.295-13.435 3.615-24.724 3.937m-74.08 43.304-1.535 32.461a2.132 2.132 0 0 1-2.512 1.998l-21.211-3.851a2.136 2.136 0 0 1-1.606-2.874l11.903-30.51c-2.526-1.851-4.214-4.419-5.02-7.64a16.2 16.2 0 0 1 2.215-12.881q.43-.645.923-1.203c2.396-2.96 5.693-4.9 9.46-5.475 4.386-.67 8.695.488 12.126 3.263a15.54 15.54 0 0 1 5.729 11.139 15.46 15.46 0 0 1-10.473 15.573"/><path fill="#D69200" d="M44.7 79.76h-.14c-20.084 0-31.84 2.974-32.573 7.014-1.29 7.12 30.69 23.175 85.703 33.144 24.136 4.372 47.162 6.503 64.846 6.002 19.123-.544 26.517-4.094 27.038-6.968.52-2.875-5.158-8.793-22.874-16.012-1.2-.489-2.44-.974-3.702-1.456l-2.347 8.482a2.1 2.1 0 0 1-.457.844c-.296.334-2.637 2.727-8.985 2.727-1.519 0-3.267-.137-5.273-.472-7.669-1.281-12.111-6.634-12.297-6.861a2.13 2.13 0 0 1-.408-1.899l3.025-11.31c-10.112-2.695-21.042-5.132-32.385-7.187-11.435-2.072-22.021-3.544-31.645-4.519l-1.344 9.502a2.14 2.14 0 0 1-.623 1.228c-.173.169-4.328 4.111-13.408 3.35-7.865-.658-12.343-5.77-12.53-5.987a2.13 2.13 0 0 1-.502-1.624z"/><path fill="#000" d="M168.31 98.989a188 188 0 0 0-4.17-1.633l5.168-18.682a62.25 62.25 0 0 0-8.151-50.785A62.24 62.24 0 0 0 117.577.57c-16.8-2.263-33.391 2.246-46.73 12.703C57.508 23.732 49.166 38.772 47.36 55.62l-2.188 19.856c-2.15-.01-4.248.01-6.268.066-19.296.549-29.743 4.01-31.072 10.286l-.003.015c-.012.057-.029.113-.04.171a6.4 6.4 0 0 0-.097 1.305C6.943 99.04.204 204.46.058 206.173c-.288 2.233.126 8.17 10.182 15.026 11.87 8.094 33.226 15.049 63.476 20.674 23.13 4.301 39.962 5.857 52.218 5.856 28.705-.001 32.281-8.535 32.711-10.3l34.775-116.495q.236-.592.351-1.222c.011-.062.015-.125.025-.187l.001-.011c.948-6.34-7.62-13.244-25.487-20.525m-13.802 137.26-.014.161c-.448.991-8.089 14.641-79.998 1.269-29.665-5.516-50.476-12.246-61.853-20.005-8.546-5.826-8.458-10.148-8.354-10.956.08-.627 5.037-78.091 7.225-112.31 4.05 3.956 11.307 8.077 21.737 12.327 16.645 6.783 39.26 12.955 63.679 17.38 22.062 3.998 43.243 6.142 60.377 6.142q2.748 0 5.351-.073c11.289-.322 19.545-1.641 24.724-3.936l-32.844 110.027zM117.007 4.799a57.98 57.98 0 0 1 40.594 25.446 57.98 57.98 0 0 1 7.594 47.297l-8.467 30.608c-.903.542-3.759 1.764-10.089.707-4.482-.749-7.636-3.315-8.978-4.604l8.528-31.896a38.28 38.28 0 0 0-5.013-31.233 38.27 38.27 0 0 0-26.802-16.801c-10.329-1.394-20.537 1.381-28.74 7.812C77.43 38.567 72.3 47.818 71.196 58.11L66.78 89.334c-1.133.745-4.15 2.239-9.573 1.784-4.613-.387-7.772-2.776-9.035-3.915L51.6 56.08c1.685-15.698 9.455-29.707 21.878-39.448 12.427-9.741 27.89-13.944 43.529-11.833m20.35 84.076c-10.229-2.727-21.273-5.19-32.726-7.265-10.95-1.984-21.679-3.507-31.808-4.542l2.607-18.431c.988-9.21 5.546-17.43 12.835-23.145s16.362-8.178 25.539-6.942a34.025 34.025 0 0 1 28.268 42.693zm-93.035.507c.187.217 4.664 5.328 12.529 5.987 9.08.761 13.236-3.181 13.408-3.35.337-.329.556-.761.623-1.228l1.344-9.502c9.624.975 20.21 2.447 31.645 4.518 11.343 2.056 22.273 4.492 32.385 7.187l-3.025 11.311a2.13 2.13 0 0 0 .408 1.899c.186.227 4.628 5.58 12.297 6.861 2.006.335 3.754.472 5.273.472 6.348 0 8.689-2.393 8.985-2.727a2.1 2.1 0 0 0 .457-.844l2.347-8.482c1.262.482 2.502.967 3.702 1.456 17.716 7.219 23.394 13.137 22.874 16.012-.521 2.874-7.915 6.424-27.038 6.968-17.684.501-40.71-1.63-64.846-6.002-55.013-9.969-86.993-26.023-85.703-33.144.732-4.04 12.49-7.014 32.573-7.014h.14l-.881 7.998a2.13 2.13 0 0 0 .503 1.624"/><path fill="#000" d="M80.322 304c40.463 0 73.265-4.872 73.265-10.883s-32.802-10.882-73.265-10.882-73.264 4.872-73.264 10.882C7.058 299.128 39.86 304 80.322 304"/><path fill="#000" d="M217.511 78.607c1.331-1.77-.628-4.25-2.674-3.324-4.742 2.31-8.73 5.646-12.784 8.93-3.041 2.722.678 7.364 3.996 4.968 4.076-3.256 8.19-6.438 11.462-10.574"/><path fill="#000" d="M218.898 129.549c-2.467-2.47-5.192-4.73-8.633-5.7-1.874-.543-3.623 1.65-2.625 3.363 2.449 4.031 6.5 6.786 10.839 8.46 1.939.671 3.759-1.616 2.625-3.362-.644-1.038-1.415-1.912-2.206-2.761"/><path fill="#000" d="M228.744 101.755c-3.42-.044-6.804.285-10.189.689-3.458.567-6.888.546-9.935 2.692-.949.641-.76 2.215.33 2.603 1.802.702 3.523.767 5.222.658 3.389-.287 6.762-.702 10.111-1.308a54 54 0 0 0 4.998-1.102 2.155 2.155 0 0 0-.537-4.232"/><path fill="#FFB921" d="m51.6 56.08-3.428 31.123c1.263 1.139 4.422 3.528 9.035 3.915 5.423.455 8.44-1.039 9.573-1.784l4.417-31.224C72.3 47.818 77.43 38.568 85.633 32.135c8.204-6.43 18.412-9.206 28.741-7.812a38.27 38.27 0 0 1 26.802 16.8 38.28 38.28 0 0 1 5.013 31.234l-8.528 31.896c1.342 1.289 4.496 3.856 8.978 4.605 6.33 1.056 9.186-.165 10.089-.708l8.467-30.607a57.98 57.98 0 0 0-7.594-47.298A57.98 57.98 0 0 0 117.007 4.8c-15.639-2.11-31.102 2.092-43.529 11.833-12.423 9.74-20.193 23.75-21.878 39.448"/><path fill="#7A42C8" d="M92.125 151.525c-2.654-3.028-6.422-4.386-10.287-3.794-2.602.397-4.902 1.702-6.614 3.706a3.1 3.1 0 0 0-.61 1.13 11.9 11.9 0 0 0-.036 6.55c.613 2.18 1.784 3.892 3.482 5.088a4.46 4.46 0 0 1 1.614 5.138l-10.106 28.259 13.502 2.055 1.263-26.729c.007-.14.04-.54.04-.607 0-2.687 1.209-4.747 3.094-5.563q.292-.192.643-.284a11.2 11.2 0 0 0 6.077-3.969c.872-2.515.89-5.388-.33-8.235a10.4 10.4 0 0 0-1.732-2.745"/><path fill="#000" d="M93.32 146.777c-3.43-2.776-7.739-3.934-12.126-3.264-3.766.576-7.063 2.515-9.46 5.475-.326.373-.636.773-.922 1.204a16.2 16.2 0 0 0-2.215 12.88c.806 3.221 2.494 5.789 5.02 7.64l-11.903 30.511a2.13 2.13 0 0 0 1.606 2.873l21.211 3.851q.191.033.381.034a2.13 2.13 0 0 0 2.13-2.032l1.535-32.461a15.46 15.46 0 0 0 10.473-15.573 15.54 15.54 0 0 0-5.73-11.138m.867 15.728a11.2 11.2 0 0 1-6.077 3.969 2.1 2.1 0 0 0-.643.284c-1.885.816-3.093 2.876-3.093 5.563 0 .067-.034.467-.04.607l-1.264 26.729-13.502-2.055 10.106-28.259a4.46 4.46 0 0 0-1.614-5.138c-1.698-1.196-2.87-2.908-3.482-5.088a11.9 11.9 0 0 1 .036-6.55c.12-.414.33-.802.61-1.13 1.712-2.004 4.012-3.309 6.614-3.706 3.865-.592 7.633.766 10.287 3.794a10.4 10.4 0 0 1 1.732 2.745c1.22 2.847 1.202 5.72.33 8.235"/></svg>2.686 2.783 30.058 6.608 28.806 24.631-.54 7.709-6.778 34.252-10.132 48.52-.651 2.784-1.192 5.086-1.552 6.658-6.618 28.896-14.909 51.034-26.113 69.657-1.812 3.024-3.865 6.178-6.498 8.781-1.141 1.122-2.353 2.103-3.594 2.894-4.296 2.753-9.082 3.644-14.158 3.644zm-80.87-170.823c-5.658 0-11.305.471-15.1 2.954-5.587 3.655-7.109 14.348-8.23 22.158-.27 1.892-.52 3.684-.811 5.246-1.862 10.063-3.354 20.386-4.796 30.368l-.871 5.978c-4.225 28.896-5.166 52.675-2.974 74.863.23 2.363.54 4.606 1.682 6.128 1.682 2.232 5.187 2.923 8.631 3.424l92.435 13.667c8.351 1.231 16.351 2.022 22.358-1.822a17.7 17.7 0 0 0 2.784-2.243c2.243-2.213 4.075-5.056 5.727-7.79 10.913-18.153 19.024-39.83 25.522-68.195.36-1.582.901-3.895 1.562-6.688 3.083-13.117 9.501-40.421 10.012-47.72.881-12.706-10.243-16.18-24.881-19.394l-1.672-.37a437.4 437.4 0 0 0-66.833-9.522 438 438 0 0 0-33.762-.871c-1.723.02-3.565-.03-5.517-.08-1.713-.041-3.485-.091-5.257-.091z"/><path fill="#000" d="M220.264 332.224c0 7.049-38.498 12.776-85.988 12.776-47.489 0-85.987-5.717-85.987-12.776s38.498-12.776 85.987-12.776c47.49 0 85.988 5.717 85.988 12.776"/><path fill="#DCEDF1" d="M241.48 223.158c2.954-7.82-18.132-20.506-45.907-27.615s-51.875-7.249-54.158.02l-.771 2.774c-1.401 5.056 1.873 10.212 7.049 11.094 9.412 1.602 24.621 4.836 41.612 8.951 18.904 4.575 35.174 9.071 43.494 11.895a6.11 6.11 0 0 0 7.85-4.136z"/><path fill="#000" d="M234.762 233.1c-.931 0-1.873-.15-2.764-.46-8.54-2.904-25.121-7.44-43.284-11.835-16.27-3.945-31.759-7.279-41.441-8.921a11.36 11.36 0 0 1-9.042-14.228l.771-2.774c1.522-4.846 8.251-7.269 19.935-7.239 10.333.02 23.56 1.953 37.257 5.457 23.279 5.958 42.603 16.03 46.998 24.491 1.422 2.743 1.172 4.926.671 6.318l-.811 2.893a8.52 8.52 0 0 1-4.275 5.297 8.6 8.6 0 0 1-4.025.991zm-76.135-40.46c-8.821 0-14.138 1.482-14.829 3.674l-.741 2.694a6.26 6.26 0 0 0 .761 5.106 6.3 6.3 0 0 0 4.296 2.854c9.792 1.662 25.411 5.026 41.782 8.991 18.293 4.425 35.044 9.011 43.714 11.965.952.32 1.963.24 2.844-.221a3.6 3.6 0 0 0 1.792-2.222l.901-3.194c.09-.231.351-.932-.39-2.353-3.124-6.008-19.535-15.74-43.805-21.948-14.898-3.814-27.404-5.326-36.315-5.326z"/><path fill="#DCEDF1" d="M247.327 189.095c.671-1.642 1.042-3.425 1.062-4.836.07-4.116-4.015-8.611-6.779-11.174-9.672-8.982-23.599-13.377-36.095-16.571-27.774-7.109-50.643-7.68-54.287.491-1.733 6.257 2.282 12.645 8.67 13.797 9.482 1.702 23.66 4.756 39.349 8.561 18.894 4.575 32.921 11.454 41.252 14.287 3.234 1.102 5.567-1.492 6.818-4.545z"/><path fill="#000" d="M242.011 196.414c-.751 0-1.522-.13-2.303-.391-2.503-.851-5.457-2.042-8.881-3.414-8-3.214-18.964-7.619-32.16-10.813-15.089-3.655-29.377-6.759-39.209-8.531a13.5 13.5 0 0 1-9.051-6.108 13.53 13.53 0 0 1-1.582-10.823l.13-.351c2.202-4.946 9.041-7.459 20.295-7.459h.08c9.902.01 22.638 1.932 36.816 5.567 12.766 3.264 27.154 7.86 37.176 17.161 3.505 3.254 7.67 8.171 7.58 13.057-.03 1.792-.491 3.885-1.252 5.747-1.672 4.085-4.485 6.358-7.639 6.358m-88.421-38.548a8.38 8.38 0 0 0 1.052 6.618 8.42 8.42 0 0 0 5.697 3.845c9.922 1.782 24.32 4.906 39.499 8.59 13.547 3.285 24.701 7.76 32.841 11.034 3.354 1.352 6.258 2.513 8.631 3.314 1.842.631 3.114-1.692 3.694-3.124.531-1.281.862-2.753.882-3.934.04-2.333-2.133-5.728-5.978-9.292-9.201-8.541-22.858-12.876-35.014-15.98-30.217-7.74-48.59-6.398-51.304-1.071"/><path fill="#DCEDF1" d="M230.577 264.93c.67-1.642 1.041-3.424 1.061-4.836.07-4.115-4.015-8.611-6.779-11.174-9.672-8.981-23.599-13.377-36.095-16.571-27.774-7.109-50.643-7.679-54.287.491-1.732 6.258 2.283 12.646 8.671 13.797 9.481 1.702 23.659 4.756 39.349 8.561 18.893 4.575 32.921 11.454 41.251 14.288 3.234 1.101 5.567-1.492 6.819-4.546z"/><path fill="#000" d="M225.26 272.239c-.751 0-1.522-.13-2.303-.391-2.503-.851-5.457-2.042-8.881-3.414-8-3.214-18.964-7.619-32.16-10.813-15.089-3.655-29.387-6.759-39.209-8.531a13.5 13.5 0 0 1-9.051-6.108 13.53 13.53 0 0 1-1.582-10.823l.13-.351c2.203-4.946 9.041-7.459 20.295-7.459h.08c9.903.01 22.638 1.932 36.816 5.567 12.766 3.264 27.164 7.86 37.177 17.161 3.504 3.254 7.669 8.161 7.579 13.057-.03 1.792-.491 3.885-1.252 5.747-1.672 4.085-4.485 6.358-7.639 6.358m-88.42-38.548a8.37 8.37 0 0 0 1.051 6.618 8.42 8.42 0 0 0 5.697 3.845c9.912 1.782 24.31 4.906 39.499 8.59 13.547 3.285 24.701 7.76 32.841 11.034 3.354 1.352 6.258 2.513 8.631 3.314 1.852.631 3.104-1.692 3.695-3.124.53-1.281.861-2.753.881-3.934.04-2.333-2.133-5.728-5.978-9.292-9.201-8.541-22.858-12.876-35.013-15.98-30.228-7.74-48.591-6.398-51.304-1.071"/><path fill="#DCEDF1" d="M205.696 160.029c-.201-.34-.601-.67-.992-.761-.42-.1-.901-.08-1.281.171-.351.23-.671.57-.761.991a151 151 0 0 1-2.363 9.382c-.25.881-.511 1.752-.771 2.623-.12.41-.04.921.17 1.281.2.341.601.671.991.761.421.101.901.081 1.282-.17.37-.24.631-.57.761-.991a150 150 0 0 0 2.523-9.342c.21-.891.411-1.772.611-2.663.09-.431.06-.891-.17-1.282"/><path fill="#000" d="M204.244 159.208c.16 0 .31.02.47.05.401.09.791.421.992.761.23.391.26.841.17 1.282-.19.891-.401 1.782-.611 2.663a152 152 0 0 1-2.523 9.342c-.13.43-.391.751-.761.991-.24.16-.531.22-.811.22-.16 0-.31-.02-.471-.05-.4-.09-.791-.42-.991-.761-.21-.36-.29-.871-.17-1.281.26-.871.521-1.742.771-2.624a159 159 0 0 0 2.363-9.381c.09-.421.41-.761.761-.991.24-.161.53-.221.811-.221m0-5.006c-1.272 0-2.493.35-3.525 1.021-1.532.982-2.573 2.453-2.943 4.135a147 147 0 0 1-3.034 11.625c-.521 1.722-.29 3.685.641 5.267.911 1.561 2.483 2.723 4.205 3.113a7 7 0 0 0 1.572.181 6.44 6.44 0 0 0 3.524-1.022 6.77 6.77 0 0 0 2.844-3.744 158 158 0 0 0 2.603-9.642c.22-.911.431-1.833.631-2.754.37-1.702.11-3.434-.741-4.876-.911-1.562-2.483-2.723-4.205-3.114a7 7 0 0 0-1.582-.18z"/><path fill="#DCEDF1" d="M214.286 162.022c-.2-.34-.6-.671-.991-.761-.42-.1-.901-.08-1.282.17-.35.231-.67.571-.761.992a151 151 0 0 1-2.362 9.381c-.251.881-.511 1.753-.771 2.624-.121.41-.04.921.17 1.281.2.341.601.671.991.761.421.1.901.08 1.282-.17.37-.24.63-.571.761-.991a150 150 0 0 0 2.523-9.342c.21-.891.41-1.772.61-2.663.091-.431.061-.891-.17-1.282"/><path fill="#000" d="M212.824 161.201c.161 0 .311.02.471.05.401.09.791.421.991.761.231.39.261.841.17 1.282-.19.891-.4 1.782-.61 2.663a152 152 0 0 1-2.523 9.342c-.131.43-.391.751-.761.991a1.46 1.46 0 0 1-.811.22c-.161 0-.311-.02-.471-.05-.4-.09-.791-.42-.991-.761-.21-.36-.291-.871-.17-1.282a158 158 0 0 0 3.133-12.004c.091-.421.411-.761.761-.992.241-.16.531-.22.811-.22m0-5.006c-1.271 0-2.493.35-3.524 1.021-1.532.991-2.573 2.453-2.944 4.135a146 146 0 0 1-3.033 11.625c-.521 1.722-.291 3.684.63 5.266.912 1.562 2.483 2.724 4.206 3.114.52.12 1.051.18 1.582.18 1.271 0 2.493-.35 3.524-1.021a6.8 6.8 0 0 0 2.844-3.745 158 158 0 0 0 2.603-9.642c.22-.911.43-1.832.631-2.753.37-1.702.11-3.434-.741-4.876-.911-1.562-2.483-2.724-4.206-3.114a7 7 0 0 0-1.582-.18z"/><path fill="#DCEDF1" d="M192.819 198.577c-.2-.34-.6-.671-.991-.761-.42-.1-.901-.08-1.282.17-.35.231-.67.571-.76.991a151 151 0 0 1-2.363 9.382 218 218 0 0 1-.771 2.623c-.121.411-.04.922.17 1.282.2.34.601.671.991.761.421.1.901.08 1.282-.17.37-.241.63-.571.761-.991a150 150 0 0 0 2.523-9.342c.21-.891.41-1.772.611-2.663.09-.431.06-.892-.171-1.282"/><path fill="#000" d="M191.358 197.766c.16 0 .31.02.47.05.401.09.791.421.991.761.231.391.261.841.171 1.282-.191.891-.401 1.782-.611 2.663a152 152 0 0 1-2.523 9.342c-.131.43-.391.751-.761.991a1.46 1.46 0 0 1-.811.22c-.161 0-.311-.02-.471-.05-.4-.09-.791-.42-.991-.761-.21-.36-.29-.871-.17-1.281a159 159 0 0 0 3.134-12.005c.09-.421.41-.761.76-.992.241-.16.531-.22.812-.22m0-5.006c-1.272 0-2.494.35-3.525 1.021-1.532.991-2.573 2.453-2.944 4.135a144 144 0 0 1-3.033 11.615 6.74 6.74 0 0 0 .63 5.266c.912 1.562 2.484 2.724 4.206 3.114.52.12 1.051.18 1.582.18 1.271 0 2.493-.35 3.524-1.021a6.77 6.77 0 0 0 2.844-3.744 158 158 0 0 0 2.603-9.643c.22-.911.43-1.832.631-2.753.37-1.702.11-3.434-.741-4.876-.911-1.562-2.483-2.723-4.206-3.114a7 7 0 0 0-1.582-.18z"/><path fill="#DCEDF1" d="M201.41 200.57c-.2-.341-.601-.671-.991-.761-.421-.1-.901-.08-1.282.17-.35.23-.671.571-.761.991a151 151 0 0 1-2.363 9.382c-.25.881-.51 1.752-.771 2.623-.12.411-.04.921.171 1.282.2.34.6.671.991.761.42.1.901.08 1.281-.17.371-.241.631-.571.761-.992a148 148 0 0 0 2.523-9.341c.211-.891.411-1.773.611-2.664.09-.43.06-.891-.17-1.281"/><path fill="#000" d="M199.948 199.759c.16 0 .311.02.471.05.4.09.791.42.991.761.23.39.26.841.17 1.281-.19.892-.4 1.783-.611 2.664a150 150 0 0 1-2.523 9.341c-.13.431-.39.751-.761.992-.24.16-.53.22-.811.22-.16 0-.31-.02-.47-.05-.401-.09-.791-.421-.991-.761-.211-.361-.291-.871-.171-1.282a159 159 0 0 0 3.134-12.005c.09-.42.411-.761.761-.991.241-.16.531-.22.811-.22m0-5.006c-1.271 0-2.493.35-3.524 1.021-1.532.991-2.573 2.453-2.944 4.135a147 147 0 0 1-3.034 11.625 6.7 6.7 0 0 0 .641 5.266c.911 1.562 2.483 2.723 4.205 3.114a7 7 0 0 0 1.582.18c1.272 0 2.493-.35 3.525-1.021a6.7 6.7 0 0 0 2.833-3.745 157 157 0 0 0 2.604-9.642c.22-.911.43-1.832.63-2.753.371-1.702.11-3.434-.741-4.876-.911-1.562-2.483-2.724-4.205-3.114a7 7 0 0 0-1.582-.18z"/><path fill="#DCEDF1" d="M181.575 235.143c-.2-.341-.6-.671-.991-.761-.42-.1-.901-.08-1.281.17-.351.23-.671.571-.761.991a151 151 0 0 1-2.363 9.382 218 218 0 0 1-.771 2.623c-.12.411-.04.921.17 1.282.2.34.601.671.991.761.421.1.901.08 1.282-.171.37-.24.631-.57.761-.991a150 150 0 0 0 2.523-9.341c.21-.892.41-1.773.611-2.664.09-.43.06-.891-.171-1.281"/><path fill="#000" d="M180.114 234.321c.16 0 .31.021.47.051.401.09.791.42.991.76.231.391.261.842.171 1.282-.191.891-.401 1.782-.611 2.663a152 152 0 0 1-2.523 9.342c-.13.431-.391.751-.761.991a1.46 1.46 0 0 1-.811.221c-.16 0-.311-.02-.471-.05-.4-.091-.791-.421-.991-.761-.21-.361-.29-.872-.17-1.282a159 159 0 0 0 3.134-12.005c.09-.421.41-.761.761-.991.24-.16.53-.221.811-.221m0-5.006a6.45 6.45 0 0 0-3.525 1.022c-1.532.981-2.573 2.453-2.943 4.135a155 155 0 0 1-2.283 9.081c-.241.851-.491 1.692-.751 2.543-.521 1.722-.281 3.695.641 5.267.911 1.562 2.483 2.723 4.205 3.114.52.12 1.051.18 1.572.18a6.45 6.45 0 0 0 3.524-1.021 6.78 6.78 0 0 0 2.844-3.745 158 158 0 0 0 2.603-9.642c.22-.911.43-1.832.631-2.754.37-1.702.11-3.434-.741-4.876-.911-1.562-2.483-2.723-4.205-3.114a7 7 0 0 0-1.582-.18z"/><path fill="#DCEDF1" d="M190.156 237.135c-.2-.34-.601-.67-.991-.761-.421-.1-.901-.08-1.282.171-.35.23-.67.57-.761.991a150 150 0 0 1-2.363 9.382c-.25.881-.51 1.752-.771 2.623-.12.41-.04.921.171 1.281.2.341.6.671.991.761.42.1.901.08 1.282-.17.37-.24.63-.571.76-.991a149 149 0 0 0 2.524-9.342c.21-.891.41-1.772.61-2.663.09-.431.06-.891-.17-1.282"/><path fill="#000" d="M188.704 236.314c.161 0 .311.02.471.05.4.09.791.421.991.761.23.391.261.841.17 1.282-.19.891-.4 1.782-.61 2.663a151 151 0 0 1-2.524 9.342c-.13.43-.39.751-.76.991a1.46 1.46 0 0 1-.811.22c-.161 0-.311-.02-.471-.05-.401-.09-.791-.42-.991-.761-.211-.36-.291-.871-.171-1.281a157 157 0 0 0 3.134-12.005c.09-.421.411-.761.761-.992.241-.16.531-.22.811-.22m0-5.006c-1.271 0-2.493.35-3.524 1.021-1.532.981-2.573 2.453-2.944 4.135a146 146 0 0 1-3.033 11.625 6.7 6.7 0 0 0 .64 5.266c.911 1.562 2.483 2.724 4.206 3.114.52.12 1.051.181 1.582.181a6.44 6.44 0 0 0 3.524-1.022 6.76 6.76 0 0 0 2.843-3.744 157 157 0 0 0 2.604-9.642c.22-.912.43-1.833.63-2.754.371-1.702.111-3.434-.74-4.876-.912-1.562-2.484-2.723-4.206-3.114a7 7 0 0 0-1.582-.18z"/><path fill="#000" d="M76.234 130.142c-1.932 4.075-2.813 8.19-3.845 12.746-1.031 4.555-2.042 8.58-3.064 13.497-4.595 22.097-6.237 45.186-5.967 67.824.09 7.309.811 14.749 1.522 21.577.22 2.113 1.171 2.834 2.803 2.383s2.293-1.852 2.163-3.965c-.6-9.352-1.171-18.954-1.051-28.716s.8-21.386 1.782-30.918c1.472-14.308 4.235-27.244 7.169-40.871.74-3.455 4.466-13.847-.18-14.749-.611-.12-1.032.601-1.322 1.202"/></svg>