<svg xmlns="http://www.w3.org/2000/svg" width="402" height="406" fill="none" viewBox="0 0 402 406"><path fill="#4C4C4C" d="M365.251 16.298c-.991.05-.541.11-.671.09l-.05.02.01-.01c2.454-2.053 6.3-5.218 8.824-7.251 3.806-2.945 7.953-6.771 12.53-8.464 4.127-1.843 8.253.11 6.701 5.048-1.883 4.958-5.318 8.914-8.373 12.89-.621.752-2.204 2.675-2.815 3.386-.601.671-.911 1.182-1.142 1.643.05-.23-.29-.811-.49-.892 1.632.34 3.976-.17 6.039-.62 2.504-.511 4.828-1.553 7.422-1.753 1.943-.23 4.327 1.011 4.307 3.395-.01 2.043-.982 3.546-1.873 5.088-1.292 2.244-3.285 4.357-4.567 6.47a.7.7 0 0 0-.151-.35c-.1-.11-.14-.1-.08-.07.11.08.491.16.872.19.791.07 1.722 0 2.634-.09 1.793-.18 2.183 2.464.41 2.815-2.313.52-6.891.941-6.951-2.595.121-1.642.862-2.383 1.553-3.505 1.502-2.394 3.666-5.189 4.076-7.783-.07.03.221.531.411.591.18.07-.06 0-.361.05-.751.08-1.522.34-2.303.601-3.546 1.152-6.641 2.214-10.577 2.394-1.052 0-2.274-.11-3.335-.751-3.196-1.943-1.573-5.84.38-7.953.571-.71 2.114-2.614 2.694-3.355 2.765-3.666 5.83-7.232 7.462-11.318.261-.872-.04-.32.431.22.261.32.611.45.711.47.221.03-.05-.01-.33.061-2.885.751-5.619 2.474-8.073 4.187-4.748 3.185-9.505 6.39-14.533 9.154l-.181.1-.11.06-.06.03-.09.04c-.14-.01.29.05-.711.1-1.523-.27-1.172-2.563.38-2.333"/><path fill="#4C4C4C" d="M30.917 230.339c.932.331.541.111.661.181h.05-.02a778 778 0 0 1-10.917 3.365c-4.637 1.272-9.926 3.255-14.804 3.085-4.517.14-7.592-3.235-4.287-7.212 3.616-3.876 8.304-6.229 12.64-8.754.862-.46 3.056-1.642 3.897-2.063.811-.4 1.292-.751 1.683-1.092-.13.191-.04.862.12 1.012-1.382-.931-3.746-1.352-5.83-1.713-2.503-.48-5.058-.39-7.532-1.192-1.883-.52-3.625-2.574-2.694-4.777.791-1.883 2.254-2.915 3.656-3.997 2.043-1.582 4.687-2.784 6.67-4.256-.01.02-.05.23 0 .37s.09.14.05.09c-.08-.11-.39-.34-.73-.51-.702-.361-1.593-.662-2.474-.912-1.723-.511-1.082-3.115.69-2.754 2.344.4 6.731 1.742 5.45 5.038-.742 1.472-1.693 1.883-2.765 2.654-2.294 1.643-5.359 3.405-6.72 5.659.08 0 0-.571-.161-.701-.14-.14.06.02.35.09.722.21 1.533.26 2.364.311 3.726.28 6.982.47 10.697 1.792.972.401 2.064.962 2.805 1.964 2.223 3.014-.751 5.999-3.365 7.221-.802.441-2.945 1.623-3.767 2.093-3.946 2.344-8.143 4.488-11.197 7.643-.571.711-.09.31-.32-.371a1.47 1.47 0 0 0-.482-.711c-.19-.11.04.03.33.07 2.956.401 6.14-.16 9.055-.821 5.61-1.152 11.218-2.314 16.917-2.955l.21-.02h.13l.071-.02h.1c.13.06-.25-.17.701.17 1.302.821.11 2.815-1.232 2.023"/><path fill="#4C4C4C" d="M355.756 393.22c0 7.051-70.232 12.78-156.86 12.78s-156.86-5.719-156.86-12.78 70.231-12.78 156.86-12.78c86.628 0 156.86 5.719 156.86 12.78"/><path fill="#DCEDF1" d="m392.665 284.616-50.661-58.032c-8.233-9.425-65.855-16.036-122.536-17.238l-28.405 6.42-1.512-4.397c-56.2 7.572-112.76 20.613-119.922 30.91L25.56 305.66c-4.447 6.4 1.031 15.074 8.573 13.562 38.051-7.663 110.116-13.572 134.285-15.485 17.137-1.352 34.345-2.594 51.552-3.656l-.05-.13a3118 3118 0 0 1 30.529-1.172c24.229-.821 96.494-3.055 135.146.28 7.662.661 12.169-8.583 7.051-14.443z"/><path fill="#4C4C4C" d="M32.41 321.906c-3.626 0-6.971-1.793-9.055-4.988-2.554-3.896-2.494-8.874.16-12.69l44.07-63.381c8.214-11.809 68.811-24.85 121.645-31.961l2.033-.271 1.443 4.217 26.512-6h.311c53.275 1.132 114.923 7.282 124.368 18.099l50.651 58.033c3.045 3.485 3.656 8.423 1.543 12.57-2.084 4.097-6.18 6.41-10.698 6.01-33.303-2.875-91.706-1.733-134.835-.281-8.994.301-18.119.651-27.153 1.032l.02.07-3.285.2c-16.026.982-32.873 2.184-51.513 3.656-43.028 3.405-101.211 8.844-133.994 15.435-.751.15-1.492.22-2.223.22zm155.448-107.772c-59.415 8.133-110.236 21.054-116.166 29.577l-44.07 63.381c-1.793 2.585-1.222 5.349-.09 7.082 1.392 2.113 3.676 3.085 6.11 2.594 33.022-6.651 91.416-12.109 134.585-15.525 17.397-1.372 33.243-2.504 48.317-3.455l-.07-.191 3.355-.14c10.146-.441 20.433-.831 30.559-1.182 43.269-1.462 101.893-2.604 135.436.291 2.484.21 4.658-1.012 5.809-3.286.932-1.843 1.202-4.657-.851-7.011l-50.651-58.032c-6.881-7.883-59.735-15.065-120.392-16.367l-30.299 6.851-1.572-4.577z"/><path fill="#DCEDF1" d="m396.932 279.608-51.663-58.032c-8.393-9.425-67.167-16.036-124.969-17.238l-28.976 6.42-1.543-4.397c-57.311 7.572-115.004 20.613-122.305 30.91l-44.952 63.381c-4.537 6.4 1.052 15.074 8.744 13.562 38.802-7.663 112.309-13.572 136.959-15.485 17.478-1.352 35.026-2.594 52.584-3.656l-.05-.13c10.386-.441 20.773-.832 31.139-1.172 24.71-.821 98.417-3.055 137.83.28 7.813.661 12.41-8.583 7.192-14.443z"/><path fill="#4C4C4C" d="M29.505 316.898c-3.736 0-7.151-1.843-9.275-5.118-2.544-3.936-2.444-8.754.26-12.57l44.952-63.381c8.374-11.799 70.152-24.83 124.019-31.941l2.023-.271 1.472 4.217 27.093-6.01h.301c54.317 1.132 117.167 7.272 126.782 18.079l51.663 58.033c3.115 3.495 3.746 8.273 1.653 12.47-2.094 4.176-6.28 6.53-10.928 6.13-33.964-2.875-93.539-1.733-137.53-.281-9.194.301-18.509.651-27.734 1.032l.03.07-3.315.2c-16.336.982-33.524 2.184-52.534 3.656-43.89 3.405-103.225 8.844-136.658 15.445-.762.15-1.523.22-2.264.22zm158.593-107.782c-60.636 8.133-112.52 21.064-118.569 29.607l-44.952 63.381c-1.793 2.525-1.252 5.249-.14 6.952 1.102 1.692 3.355 3.295 6.36 2.704 33.674-6.651 93.219-12.109 137.249-15.525 17.759-1.372 33.935-2.514 49.309-3.455l-.07-.191 3.375-.14c10.347-.441 20.834-.831 31.16-1.182 44.131-1.462 103.916-2.604 138.121.291 3.065.26 5.118-1.583 6.019-3.386.912-1.813 1.152-4.587-.911-6.901l-51.663-58.042c-7.021-7.893-60.957-15.085-122.846-16.387l-30.849 6.841-1.603-4.577z"/><path fill="#DCEDF1" d="M70.52 234.737a18.66 18.66 0 0 1-14.112-6.451c-2.284-2.634-3.756-6.019-4.267-9.775L30.747 61.32a18.47 18.47 0 0 1 1.963-13.893c2.524-4.357 6.6-7.441 11.478-8.693C69.87 32.112 138.42 16.708 220.26 16.708c44.921 0 87.129 4.698 125.45 13.973 8.974 2.173 14.734 11.338 13.171 20.913L339.38 202.816c0 .08-.02.15-.03.23a18.61 18.61 0 0 1-18.379 15.525h-.471c-4.848-.12-13.071-.271-24.75-.271-37.039 0-132.842 1.583-222.175 16.206-1.001.16-2.023.251-3.034.251z"/><path fill="#4C4C4C" d="M70.52 237.241a21.13 21.13 0 0 1-16.005-7.322c-2.594-3.005-4.277-6.831-4.858-11.078L28.283 61.781a21.02 21.02 0 0 1 2.254-15.615c2.864-4.938 7.482-8.444 13.02-9.866C69.33 29.65 138.13 14.195 220.25 14.195c45.112 0 87.519 4.727 126.041 14.042 10.216 2.474 16.827 12.9 15.054 23.748l-19.481 151.131c-.01.11-.03.221-.05.321-1.763 10.386-10.767 17.888-21.384 17.608-4.818-.12-13.021-.271-24.69-.271-36.979 0-132.622 1.573-221.774 16.176a21 21 0 0 1-3.435.281zM220.25 19.203c-81.551 0-149.86 15.344-175.44 21.945-4.217 1.091-7.753 3.766-9.936 7.532a16.08 16.08 0 0 0-1.703 12.029l.05.27L54.615 218.17c.44 3.276 1.713 6.21 3.676 8.474a16.15 16.15 0 0 0 12.22 5.589c.88 0 1.762-.07 2.634-.211 89.513-14.653 185.476-16.235 222.585-16.235 11.729 0 19.972.15 24.82.27h.41a16.09 16.09 0 0 0 15.906-13.442l.02-.13 19.501-151.221c1.362-8.354-3.596-16.296-11.278-18.16-38.131-9.224-80.148-13.901-124.869-13.901z"/><path fill="#4C4C4C" d="M194.649 48.97a4.597 4.597 0 1 0 0-9.194 4.597 4.597 0 0 0 0 9.194"/><path fill="#DCEDF1" d="M46.873 45.935c43.049-11.138 172.525-37.92 296.163-7.572 6.25 1.532 9.906 8.183 8.834 14.573l-18.329 147.215c-1.062 6.361-6.591 10.948-12.981 10.768-33.063-.892-144.531-.942-245.813 15.625a12.85 12.85 0 0 1-11.839-4.337c-1.642-1.913-2.574-4.327-2.914-6.831L37.708 61.891c-1.903-6.991 2.224-14.173 9.165-15.966"/><path fill="#4C4C4C" d="M72.634 229.228c-4.437 0-8.654-1.923-11.629-5.379-1.863-2.173-3.075-4.978-3.505-8.123L35.244 62.402c-1.051-4.007-.49-8.174 1.583-11.74a15.2 15.2 0 0 1 9.415-7.15c37.5-9.696 169.761-38.903 297.385-7.573 7.321 1.793 12.019 9.415 10.717 17.358l-18.339 147.275c-1.262 7.532-7.983 13.081-15.525 12.861-5.259-.141-130.128-3.256-245.342 15.595-.841.14-1.683.2-2.514.2zM47.504 48.359a10.25 10.25 0 0 0-6.34 4.818 10.46 10.46 0 0 0-1.042 8.063l.06.3 22.286 153.485c.3 2.204 1.111 4.117 2.343 5.559 2.384 2.775 5.95 4.087 9.536 3.496 115.684-18.931 241.005-15.806 246.283-15.655 5.048.12 9.565-3.566 10.437-8.634l18.329-147.265c.891-5.309-2.234-10.567-6.961-11.729-126.492-31.05-257.732-2.063-294.941 7.562z"/><path fill="#DCEDF1" d="m169.539 256.702 74.198-4.227a4.87 4.87 0 0 1 3.846 1.553l13.422 10.346c2.774 3.005.821 7.883-3.255 8.143l-99.8 6.521c-3.826.25-6.42-3.817-4.577-7.182l12.179-12.63a4.87 4.87 0 0 1 3.987-2.524"/><path fill="#4C4C4C" d="M157.61 281.551c-2.524 0-4.808-1.252-6.18-3.405-1.463-2.294-1.563-5.098-.251-7.492l.161-.29 12.199-12.661a7.32 7.32 0 0 1 5.859-3.505l74.199-4.227c2.133-.11 4.177.671 5.669 2.193l13.582 10.517c1.943 2.104 2.494 5.068 1.422 7.723-1.062 2.664-3.496 4.427-6.36 4.617l-99.8 6.52c-.17.01-.34.02-.5.02zm-2.164-8.243c-.41.992 0 1.813.201 2.144.22.35.871 1.172 2.133 1.081l99.799-6.52c1.373-.09 1.903-1.152 2.034-1.472.12-.311.45-1.363-.341-2.334L245.73 255.73a2.31 2.31 0 0 0-1.863-.751l-74.198 4.227a2.34 2.34 0 0 0-1.933 1.222l-.16.29-12.14 12.59z"/><path fill="#DCEDF1" d="M76.55 247.056c22.346-9.866 190.965-27.304 262.229-16.036z"/><path fill="#4C4C4C" d="m77.562 249.35-2.023-4.578c11.658-5.148 59.435-11.949 113.591-16.155 64.122-4.978 118.81-5.008 150.05-.07l-.782 4.947c-71.624-11.318-239.422 6.401-260.826 15.856z"/><path fill="#DCEDF1" d="M65.573 257.994c24.148-9.946 206.86-27.965 284.214-16.947z"/><path fill="#4C4C4C" d="m66.524 260.307-1.903-4.627c12.57-5.178 64.273-12.13 122.916-16.517 69.461-5.198 128.726-5.418 162.6-.591l-.711 4.958c-77.804-11.077-259.745 7.242-282.902 16.787z"/><path fill="#4C4C4C" d="M399.155 41.889c-1.302 0-2.544 1.142-2.484 2.484s1.092 2.484 2.484 2.484c1.302 0 2.544-1.142 2.484-2.484s-1.091-2.484-2.484-2.484"/><path fill="#6DB5C3" d="M245.48 110.549c.06.3.1.881.09 1.192-.04 2.053-1.432 4.156-3.285 5.018-4.207 1.963-6.831-1.553-9.866-3.736-22.836-16.487-54.457-14.253-74.749 5.298-1.513 1.452-2.825 3.155-4.287 4.577-4.187 4.057-11.108-.15-9.425-5.809.541-1.833 3.255-4.487 4.657-5.889 23.999-24.229 62.25-27.534 90.044-7.753 2.264 1.613 6.28 4.277 6.811 7.102z"/><path fill="#4C4C4C" d="M149.507 127.015a8.2 8.2 0 0 1-4.287-1.222c-3.265-1.983-4.728-5.769-3.636-9.425.641-2.154 2.835-4.477 5.018-6.681l.25-.26c12.03-12.14 28.065-19.642 45.163-21.114 17.107-1.482 34.184 3.175 48.116 13.081l.461.32c2.664 1.883 6.681 4.718 7.362 8.364.09.47.15 1.212.14 1.702-.07 2.995-2.013 5.98-4.727 7.242-4.818 2.244-8.254-.601-10.768-2.684-.561-.471-1.091-.912-1.622-1.292-21.955-15.846-52.043-13.712-71.544 5.068-.702.671-1.363 1.422-2.064 2.203-.701.792-1.432 1.603-2.213 2.364a8.05 8.05 0 0 1-5.639 2.314zm48.738-33.954c-1.934 0-3.867.08-5.8.25-15.915 1.372-30.839 8.353-42.037 19.651l-.26.261c-.942.941-3.436 3.455-3.776 4.577-.531 1.773.39 3.085 1.432 3.706 1.022.621 2.564.831 3.846-.411.651-.631 1.292-1.342 1.963-2.103.731-.821 1.493-1.673 2.334-2.484 21.244-20.463 54.026-22.786 77.944-5.519a36 36 0 0 1 1.893 1.493c2.545 2.113 3.676 2.834 5.449 2.003.992-.461 1.813-1.723 1.843-2.805 0-.14-.03-.541-.05-.681-.31-1.642-3.696-4.036-5.328-5.188l-.471-.331c-11.378-8.103-25.04-12.42-38.982-12.42"/><path fill="#6DB5C3" d="M198.615 160.458c-.22.04-.571.07-.791.06-6.2-.09-6.3-9.435 0-9.535 5.679-.08 6.51 8.463.791 9.465z"/><path fill="#4C4C4C" d="M197.854 163.022h-.07c-4.698-.07-7.152-3.726-7.152-7.302 0-3.545 2.464-7.171 7.162-7.241h.12c4.237 0 6.761 3.285 7.071 6.57.311 3.336-1.622 7.112-5.939 7.873-.351.06-.822.1-1.192.1m.32-5.028c1.873-.33 1.863-1.973 1.823-2.464-.04-.481-.33-2.033-2.093-2.033h-.04c-2.063.03-2.224 1.723-2.224 2.233 0 .381.111 2.254 2.214 2.294.08 0 .23-.01.32-.03"/><path fill="#6DB5C3" d="m192.195 111.119 4.036-.35c12.55-.551 26.753 3.986 36.128 12.419 4.147 3.726 1.673 10.217-3.916 10.157-2.484-.02-4.598-2.444-6.551-3.796-16.055-11.198-37.97-9.425-52.013 4.206-1.282 1.242-2.854 3.456-4.377 4.207-4.397 2.174-9.265-1.723-8.133-6.49.481-2.024 3.275-4.688 4.798-6.15a52.33 52.33 0 0 1 30.038-14.213z"/><path fill="#4C4C4C" d="M162.908 141.087a8.15 8.15 0 0 1-5.108-1.803c-2.524-2.013-3.626-5.228-2.865-8.383.591-2.504 3.015-4.988 5.449-7.322 8.594-8.253 19.772-13.541 31.52-14.944h.081l4.136-.36c13.732-.611 28.275 4.397 37.911 13.061 2.684 2.413 3.605 6.059 2.343 9.294-1.242 3.186-4.327 5.239-7.872 5.239h-.09c-2.735-.03-4.868-1.773-6.581-3.175-.491-.401-.951-.781-1.372-1.072-15.094-10.527-35.637-8.864-48.838 3.956-.331.321-.731.772-1.142 1.242-1.112 1.252-2.384 2.675-3.866 3.416a8.4 8.4 0 0 1-3.696.871zm29.547-27.474c-10.657 1.272-20.803 6.08-28.555 13.522-.972.931-3.786 3.636-4.097 4.918-.3 1.272.11 2.514 1.122 3.315 1.001.801 2.304.932 3.465.351.611-.301 1.613-1.423 2.334-2.244.481-.541.932-1.052 1.402-1.502 14.914-14.484 38.131-16.367 55.189-4.468.58.401 1.141.862 1.682 1.303 1.162.951 2.484 2.033 3.466 2.043h.04c1.512 0 2.704-.761 3.205-2.043.511-1.313.13-2.715-1.022-3.746-8.553-7.693-22.015-12.31-34.294-11.789z"/><path fill="#6DB5C3" d="M193.998 131.712c8.443-1.101 16.746.932 23.547 5.99 1.523 1.132 2.975 2.243 3.496 4.167 1.182 4.316-2.785 8.273-7.111 7.031-1.393-.401-2.114-1.252-3.226-2.043-8.543-6.1-19.611-5.189-27.033 2.223-.3.301-.541.681-.841.992-5.529 5.589-13.912-1.673-8.093-8.163 4.858-5.419 12.029-9.245 19.271-10.187z"/><path fill="#4C4C4C" d="M178.423 154.549a8.3 8.3 0 0 1-5.629-2.214c-2.815-2.644-3.997-7.562.07-12.099 5.258-5.869 13.041-9.986 20.813-11.007 9.145-1.192 18.159 1.101 25.371 6.46 1.632 1.212 3.656 2.714 4.417 5.509.801 2.924-.01 5.939-2.164 8.053-2.143 2.113-5.158 2.874-8.063 2.043-1.502-.431-2.473-1.212-3.255-1.843-.23-.19-.471-.381-.731-.561-7.492-5.349-17.288-4.547-23.818 1.963-.08.08-.16.19-.23.281-.191.24-.381.48-.591.691-1.903 1.923-4.097 2.724-6.18 2.724zm15.895-20.353c-6.62.862-13.241 4.377-17.728 9.375-1.953 2.184-1.472 4.067-.371 5.109 1.142 1.081 3.085 1.382 4.818-.371.08-.08.16-.18.23-.28.201-.251.401-.501.621-.722 8.294-8.273 20.734-9.294 30.259-2.494.34.251.661.501.961.742.661.53.992.791 1.503.931 1.642.471 2.754-.401 3.165-.791.841-.831 1.162-2.023.841-3.175-.29-1.052-1.162-1.763-2.574-2.815-6.16-4.587-13.872-6.55-21.725-5.519z"/><path fill="#FF5F4A" d="M194.649 56.923c-37.831 0-68.61 30.78-68.61 68.61s30.779 68.609 68.61 68.609c37.83 0 68.609-30.779 68.609-68.609s-30.779-68.61-68.609-68.61m-60.006 68.62c0-14.844 5.429-28.436 14.393-38.923l84.535 84.535c-10.487 8.965-24.078 14.393-38.922 14.393-33.083 0-60.006-26.923-60.006-60.005m105.619 38.922L155.727 79.93c10.486-8.965 24.078-14.393 38.922-14.393 33.093 0 60.006 26.923 60.006 60.006 0 14.843-5.429 28.435-14.393 38.922"/><path fill="#4C4C4C" d="M194.649 196.656c-39.213 0-71.114-31.901-71.114-71.114 0-39.212 31.901-71.113 71.114-71.113 39.212 0 71.113 31.9 71.113 71.113s-31.901 71.114-71.113 71.114m0-137.23c-36.448 0-66.106 29.658-66.106 66.106 0 36.449 29.658 66.106 66.106 66.106s66.105-29.657 66.105-66.106-29.657-66.105-66.105-66.105m0 128.626c-34.465 0-62.51-28.045-62.51-62.51 0-14.833 5.328-29.236 14.994-40.544l1.763-2.064 88.371 88.371-2.063 1.763c-11.308 9.666-25.711 14.994-40.555 14.994zm-45.423-97.706c-7.802 10.056-12.079 22.456-12.079 35.196 0 31.711 25.791 57.502 57.502 57.502 12.74 0 25.13-4.267 35.196-12.079zm91.186 77.804-88.371-88.37 2.063-1.764c11.308-9.665 25.711-14.994 40.555-14.994 34.465 0 62.51 28.045 62.51 62.51 0 14.834-5.329 29.237-14.994 40.545l-1.763 2.063zm-80.959-88.04 80.618 80.618c7.803-10.056 12.08-22.455 12.08-35.196 0-31.71-25.792-57.501-57.502-57.501a57.44 57.44 0 0 0-35.196 12.079"/></svg>