<svg xmlns="http://www.w3.org/2000/svg" width="480" height="480" fill="none" viewBox="0 0 480 480">
  <path
    fill="#F295FF"
    d="M313.415 401.125q.06.489.137.978c2.646 4.099 4.582 8.316 6.085 12.922 1.222 3.827 2.002 7.85 2.133 11.941 4.837-.557 9.445-1.354 13.373-2.147l-.137-.102a29.6 29.6 0 0 1-1.583-6.523 1.834 1.834 0 0 1 1.644-2.006c2.385-.168 4.645 5.222 4.806 7.614 2.257-.517 4.089-.981 5.319-1.306-.136-12.045-7.396-20.297-7.473-20.383a2.5 2.5 0 0 1-.584-1.141c-.882-4.053-.866-7.896-.599-10.867-7.146 4.469-14.939 8.119-23.121 11.02"
  />
  <path
    fill="#F295FF"
    d="M193.013 399.434c-.486-.171-.971-.349-1.455-.525.024 1.243.065 2.482.152 3.71l.018.158.004.01c.06.156.263.579.463.952 3.526 6.311 6.944 13.381 7.043 20.779 10.84 1.501 18.836 1.235 24.313.508a42.5 42.5 0 0 1-1.55-6.842c-.229-1.709 1.99-2.716 3.132-1.46 1.253 1.215 3.251 4.802 3.34 7.406a30 30 0 0 0 3.332-.979c.292-4.599-1.564-11.482-3.212-15.172-12.11-1.652-24.093-4.321-35.58-8.545"
  />
  <path fill="#F295FF" d="M191.74 402.879q0-.036-.008-.07z" />
  <path
    fill="#000"
    d="M222.729 83.805c.325.34.694.64 1.12.88.097.055.206.102.31.151.78.488 1.877 1.116 3.475 1.989l.301.166a4.9 4.9 0 0 0 2.456.633c5.766 0 13.456-8.92 18.778-18.352 6.027-10.679 9.937-23.772 4.28-27.282-.718-.445-3.756-2.128-4.175-2.359l-.02-.011-.042-.019c-5.861-3.204-15.071 6.936-21.173 17.748-5.405 9.58-9.091 20.972-5.851 25.784.124.22.28.429.541.672m23.949-39.826q.074 0 .135.012c.955 1.055.536 8.788-6.084 20.519-6.674 11.827-13.132 16.158-14.396 15.839-.985-.954-.613-8.717 6.06-20.543 6.428-11.39 12.65-15.827 14.285-15.827"
  />
  <path
    fill="#F295FF"
    d="M124.642 240.172c-4.948-12.565-17.168-14.329-21.549-14.542-.457 2.076-1.2 5.577-1.816 9.081-.105.598-.014 1.04.304 1.48 1.099 1.522 4.226 2.286 5.235 2.434.186.027.362.077.53.142 6.008-1.437 11.907-.58 17.296 1.405"
  />
  <path
    fill="#F295FF"
    d="M111.846 271.018c-1.685.098-3.373-.396-4.837-1.469-2.453-1.798-3.707-4.806-3.198-7.666.57-3.199 2.671-7.108 9.446-7.564 1.242-.086 2.546.132 3.891.57a101 101 0 0 1 4.215-8.744c.293-.541.612-1.057.915-1.59-8.251-2.817-15.783-1.732-22.466 3.286-5.154 3.869-7.507 9.615-6.625 16.179 1.074 7.986 6.617 15.46 13.48 18.175.917.363 1.96.676 3.102.864a98 98 0 0 1 2.077-12.041"
  />
  <path
    fill="#F295FF"
    d="M368.281 342.655a42 42 0 0 1-4.03.672c-.239.028-.47.038-.707.062-18.945 3.316-38.788-1.787-53.629-14.251-2.273-1.877-4.431-4.017-5.919-6.619a1.81 1.81 0 0 1 2.603-2.393c4.544 3.258 8.392 7.082 13.191 9.92 6.656 4.142 14.068 6.962 21.758 8.405a30 30 0 0 1-2.723-2.099c-13.568-11.823-15.501-35.081-15.702-44.532a8.245 8.245 0 0 1 6.559-8.245l40.805-8.481a20.2 20.2 0 0 1-4.277-3.411c-1.431-1.527-2.577-3.125-3.433-5.074a2.09 2.09 0 0 1 1.091-2.749c1.048-.459 2.17.035 2.72.96.249.372.523.728.798 1.082 7.836-7.156 4.737-15.975.206-25.893-.575-1.257-1.118-2.446-1.567-3.544-4.12-10.072-6.584-15.882-7.702-18.485-2.715.406-8.729 1.762-16.807 6.166 6.89 6.75 12.797 14.503 17.391 23.023 1.932 3.514 4.424 7.111 4.199 11.301a1.623 1.623 0 0 1-2.646 1.082c-1.761-1.374-2.503-3.132-3.403-4.836-5.43-12.294-13.749-23.233-24.058-31.845-19.564-16.239-44.533-23.405-69.576-26.421a26.7 26.7 0 0 1-1.429 5.301c2.928.357 5.93.788 9.016 1.309a2.498 2.498 0 0 1 .804 4.647l-6.339 3.543a2.5 2.5 0 0 1-1.517.3c-.235-.028-19.769-2.31-44.681-1.515-.794.039-1.434.055-1.526.051-4.832.177-9.852.472-14.962.923a2.499 2.499 0 0 1-1.632-4.553l6.464-4.426c.367-.251.793-.4 1.237-.43l.608-.043a27 27 0 0 1-1.322-4.691c-44.797 7.167-83.812 32.066-92.425 78.99-2.252 12.302-2.905 24.935-2.375 37.48.968 19.866 4.574 39.917 13.032 57.979 1.333 2.772 3.105 6.545 4.187 9.356 6.087 15.318 11.215 30.958 16.278 46.613 3.743.64 7.497 1.233 11.281 1.567 8.498.845 17.096.906 25.599.087-.393-2.398-.744-4.881-1.195-7.22-.431-1.838 1.975-2.984 3.125-1.516 1.783 2.296 2.699 5.002 3.163 7.792q.028.167.054.341c.312-.044.626-.077.939-.124a84 84 0 0 0 4.581-.829c.502-8.274-4.024-15.576-7.504-22.945-.094-.23-.232-.884-.245-1.229-.2-2.315-.124-4.587-.034-6.776.198-3.862.598-7.668 1.439-11.459a1.583 1.583 0 0 1 3.123.208c.3 2.807.341 5.641.351 8.466 1.057.405 2.114.806 3.177 1.181 14.585 5.38 29.989 8.174 45.448 9.563 4.655.407 9.422.655 14.247.743-.273-4.018-.462-8.273.727-12.073a1.28 1.28 0 0 1 2.422-.08c.579 1.553.899 3.106 1.152 4.653.423 2.633.749 6.482 1.06 9.167.988 7.118 1.991 14.408 4.926 20.992 8.204 3.199 17.59 3.406 26.405 3.148 5.26-.217 10.56-.704 15.822-1.411-.378-2.669-.702-5.456-1.217-8.025-.244-.992.391-2.002 1.402-2.182a1.78 1.78 0 0 1 1.723.666c1.897 2.637 2.88 5.653 3.185 8.792a186 186 0 0 0 5.266-.941c-.039-3.837-.753-7.704-1.946-11.435-1.352-4.221-3.372-8.539-5.79-12.19-.768-1.558-.911-3.414-1.123-5.112-.321-2.608-.393-15.487 4.129-13.587.724.358 1.098 1.094 1.072 1.85-.099 2.961-.39 5.954-.43 8.939 20.438-7.43 38.297-20.06 49.357-39.848 2.298-4.207 4.211-8.864 5.749-13.802m-40.816-75.667a2.5 2.5 0 0 1 3.459-.447c.144.096 1.777 1.123 5.395.781 3.669-.342 4.991-1.688 5.045-1.745.879-1.064 2.426-1.185 3.491-.306 1.066.878 1.19 2.486.311 3.551-.246.299-2.574 2.936-8.383 3.478q-.98.09-1.847.089c-4.535 0-6.794-1.675-7.064-1.888a2.5 2.5 0 0 1-.407-3.513m-25.833 2.137a2.5 2.5 0 0 1 3.459-.449c.144.097 1.777 1.121 5.395.782 3.67-.343 4.992-1.687 5.047-1.744.878-1.065 2.426-1.185 3.49-.307 1.066.878 1.189 2.487.311 3.552-.246.299-2.574 2.935-8.383 3.478q-.978.089-1.846.088c-4.535 0-6.795-1.674-7.065-1.888a2.5 2.5 0 0 1-.408-3.512M233.5 283.22c-4.472-7.985-5.166-17.552-3.198-25.985 1.052-5.818.472-12.115-.658-17.981a66 66 0 0 0-1.513-5.965c-.42-1.774 1.206-3.174 2.411-3.783 11.46-4.789 31.721-1.582 42.837 3.481 4.599 2.05 8.974 4.751 12.713 8.235a1.792 1.792 0 0 1-2.424 2.64c-10.646-9.374-25.61-12.562-39.506-12.354-3.812.184-7.85.368-11.324 1.89.43 1.692.772 3.339 1.079 5.034 1.166 6.47 1.761 12.974.547 19.583-.854 3.996-1.136 7.851-.62 11.873 2.33 18.22 17.408 25.098 33.868 18.907 3.284-1.591 6.309-4.223 8.417-7.382 1.122-1.674 3.728-.277 2.992 1.573-2.15 5.424-6.879 9.867-12.576 11.549-12.569 3.552-26.37.803-33.045-11.315"
  />
  <path
    fill="#000"
    d="M302.04 272.637c.27.213 2.53 1.887 7.065 1.887q.868.002 1.846-.088c5.809-.542 8.137-3.178 8.383-3.477.878-1.066.755-2.674-.311-3.552-1.064-.878-2.612-.758-3.49.306-.055.057-1.377 1.402-5.047 1.745-3.618.338-5.251-.686-5.395-.782a2.5 2.5 0 0 0-3.051 3.961"
  />
  <path
    fill="#000"
    d="M327.872 270.501c.27.213 2.529 1.888 7.064 1.888q.867.001 1.848-.089c5.808-.542 8.136-3.179 8.382-3.478.879-1.065.755-2.673-.311-3.551-1.065-.879-2.612-.758-3.491.306-.054.057-1.376 1.403-5.045 1.745-3.618.342-5.251-.685-5.395-.781a2.5 2.5 0 0 0-3.052 3.96"
  />
  <path
    fill="#DB00F8"
    d="M387.91 301.995c-.473-9.468-2.618-18.329-3.854-22.769a1.95 1.95 0 0 0-2.274-1.373L330.7 288.471a3.24 3.24 0 0 0-2.578 3.243c.187 8.786 1.924 30.356 13.988 40.868 5.57 4.853 12.825 6.801 21.562 5.778 8.511-.992 14.86-4.521 18.869-10.488 4.116-6.125 5.922-14.831 5.369-25.877m-34.05-6.777c1.628-.203 3.073 1.124 4.275 3.952.934 2.199 1.669 5.16 2.068 8.336s.421 6.227.06 8.59c-.464 3.036-1.528 4.68-3.164 4.886a3 3 0 0 1-.326.021c-1.501 0-2.828-1.334-3.949-3.972-.934-2.199-1.668-5.16-2.068-8.337-.165-1.318-1.487-12.899 3.104-13.476m25.154 17.507c-.463 3.037-1.528 4.681-3.164 4.886a3 3 0 0 1-.326.021c-1.501 0-2.827-1.334-3.948-3.972-.935-2.199-1.669-5.16-2.068-8.337-.166-1.318-1.487-12.897 3.103-13.476 4.587-.587 6.178 10.97 6.344 12.289.399 3.177.42 6.227.059 8.589"
  />
  <path
    fill="#000"
    d="M388.873 277.885c-.976-3.506-4.536-5.668-8.109-4.928l-.307.064c-.125-.01-.253-.011-.378-.025-.776-.14-1.577-.167-2.327-.392-2.485-.52-4.795-1.654-6.809-3.184 10.924-10.191 4.868-23.454 1.196-31.489-.553-1.21-1.075-2.354-1.486-3.358-5.926-14.488-8.452-20.22-8.476-20.276a2.5 2.5 0 0 0-2.288-1.49h-.036c-.417.006-9.075.237-22.181 7.751a98 98 0 0 0-21.804-14.533c-16.33-8.021-34.101-12.29-52.103-14.45a28 28 0 0 0-.067-1.498c-1.011-13.499-11.852-23.952-24.968-24.889-2-.304-4.046-.392-6.112-.237-14.215 1.064-25.053 13.022-24.954 27.072-31.101 4.894-61.028 18.313-79.593 43.583-7.06-13.693-21.952-14.904-25.223-15.001-1.662-.048-3.54-.105-4.147 1.796q-.05.16-.08.323c-.202.876-1.354 5.916-2.269 11.122-.338 1.925.073 3.755 1.188 5.29.74 1.017 1.723 1.804 2.759 2.421a32 32 0 0 0-3.49 2.285c-6.665 5.005-9.711 12.407-8.577 20.844 1.303 9.697 8.128 18.809 16.596 22.158 1.503.595 3.02.977 4.538 1.194a96 96 0 0 0-.111 2.568c-2.53 29.68 1.967 60.715 15.146 87.191 2.005 4.585 3.805 9.253 5.537 13.968 3.617 9.869 7.008 19.857 10.279 29.876-10.584 1.897-16.664 4.11-16.664 6.472 0 7.045 53.979 12.756 120.565 12.756s120.565-5.711 120.565-12.756c0-2.197-5.252-4.264-14.498-6.069-.254-12.043-6.492-20.533-8.287-22.732-1.14-5.903-.11-11.331.275-13.012 14.902-10.808 26.338-25.661 31.56-45.293 5.43-2.154 9.775-5.608 12.958-10.347 10.769-16.028 5.114-42.247 2.182-52.775M220.144 177.754a21.83 21.83 0 0 1 15.015-7.577 21.83 21.83 0 0 1 15.975 5.258 21.84 21.84 0 0 1 7.577 15.015 21.83 21.83 0 0 1-4.369 14.874c-2.729-.2-9.401-.612-18.404-.639l-1.092-.001c-7.575 0-13.331.234-15.804.356a21.84 21.84 0 0 1-4.156-11.311 21.83 21.83 0 0 1 5.258-15.975m-118.867 56.957a227 227 0 0 1 1.816-9.081c4.38.213 16.601 1.977 21.549 14.542-5.389-1.985-11.288-2.842-17.296-1.405a2.4 2.4 0 0 0-.53-.142c-1.009-.148-4.136-.912-5.235-2.434-.318-.44-.409-.882-.304-1.48m8.492 48.348a15 15 0 0 1-3.102-.864c-6.863-2.715-12.406-10.189-13.48-18.175-.882-6.564 1.47-12.31 6.625-16.179 6.683-5.018 14.215-6.103 22.466-3.286-.303.533-.622 1.049-.915 1.59a101 101 0 0 0-4.215 8.745c-1.345-.439-2.649-.657-3.891-.571-6.775.456-8.876 4.365-9.446 7.564-.509 2.86.745 5.868 3.198 7.666 1.464 1.073 3.152 1.567 4.837 1.469a98 98 0 0 0-2.077 12.041m2.806-17.326c-1.115.584-2.035.204-2.61-.216-.911-.668-1.406-1.776-1.231-2.756.329-1.851 1.246-3.147 4.595-3.433.406.962.82 2.472.722 3.826q-.28.87-.546 1.745a2.5 2.5 0 0 1-.93.834m79.157 137.054-.004-.01-.018-.158a72 72 0 0 1-.152-3.711c.484.177.969.355 1.455.526 11.487 4.224 23.47 6.893 35.58 8.545 1.648 3.69 3.504 10.572 3.212 15.172-.738.27-1.846.624-3.332.979-.089-2.604-2.087-6.191-3.34-7.406-1.142-1.256-3.361-.249-3.132 1.46a42.6 42.6 0 0 0 1.55 6.842c-5.477.727-13.473.993-24.313-.508-.099-7.398-3.517-14.468-7.043-20.779-.2-.373-.403-.796-.463-.952m52.386 12.57q-4.061 0-8.055.03a51 51 0 0 0-1.83-6.71q2.742.305 5.487.55c4.932.491 9.99.785 15.117.87.214 1.778.486 3.578.804 5.319q-5.691-.058-11.523-.059m101.074 7.139c-1.23.325-3.062.789-5.319 1.306-.161-2.392-2.421-7.782-4.806-7.614a1.834 1.834 0 0 0-1.644 2.006c.29 2.284.821 4.448 1.583 6.523l.137.102c-3.928.793-8.536 1.59-13.373 2.147-.131-4.091-.911-8.114-2.133-11.941-1.503-4.607-3.439-8.823-6.085-12.923a27 27 0 0 1-.137-.977c8.182-2.901 15.975-6.551 23.121-11.02-.267 2.971-.283 6.814.599 10.867.091.422.295.818.584 1.141.077.086 7.337 8.338 7.473 20.383m17.34-66.04c-11.06 19.789-28.919 32.419-49.357 39.848.04-2.984.331-5.977.43-8.938.026-.756-.348-1.492-1.072-1.85-4.522-1.901-4.45 10.978-4.129 13.587.212 1.697.355 3.554 1.123 5.112 2.418 3.651 4.438 7.969 5.79 12.189 1.193 3.731 1.907 7.599 1.946 11.436a186 186 0 0 1-5.266.941c-.305-3.139-1.288-6.155-3.185-8.792a1.77 1.77 0 0 0-1.723-.666c-1.011.18-1.646 1.19-1.402 2.182.515 2.568.839 5.356 1.217 8.025a173 173 0 0 1-15.822 1.411c-8.815.258-18.201.05-26.405-3.148-2.935-6.584-3.938-13.874-4.926-20.992-.311-2.686-.637-6.534-1.06-9.167-.253-1.547-.573-3.1-1.151-4.653a1.28 1.28 0 0 0-2.423.08c-1.189 3.8-1 8.055-.727 12.073a207 207 0 0 1-14.247-.743c-15.459-1.389-30.863-4.183-45.448-9.563a131 131 0 0 1-3.177-1.181c-.01-2.825-.051-5.659-.351-8.467a1.583 1.583 0 0 0-3.122-.207c-.842 3.79-1.242 7.597-1.44 11.459-.09 2.189-.165 4.46.034 6.776.014.345.151.999.245 1.229 3.48 7.368 8.006 14.671 7.504 22.945a84 84 0 0 1-4.581.829c-.312.046-.627.079-.939.123q-.025-.174-.054-.34c-.464-2.79-1.38-5.497-3.163-7.792-1.15-1.468-3.556-.322-3.125 1.515.451 2.34.802 4.822 1.195 7.221-8.503.819-17.101.757-25.599-.087-3.784-.335-7.538-.927-11.281-1.567-5.063-15.656-10.191-31.295-16.278-46.613-1.082-2.811-2.854-6.584-4.187-9.356-8.458-18.062-12.064-38.113-13.032-57.979-.53-12.545.123-25.179 2.375-37.48 8.613-46.924 47.628-71.824 92.425-78.991a27 27 0 0 0 1.322 4.692l-.608.043c-.444.03-.87.179-1.237.43l-6.464 4.425a2.5 2.5 0 0 0 1.632 4.554 292 292 0 0 1 14.962-.924c.092.005.733-.011 1.526-.05 24.912-.795 44.446 1.487 44.681 1.515a2.5 2.5 0 0 0 1.517-.3l6.339-3.543a2.5 2.5 0 0 0-.804-4.648 198 198 0 0 0-9.016-1.308 26.7 26.7 0 0 0 1.429-5.302c25.043 3.017 50.013 10.183 69.576 26.422 10.309 8.612 18.628 19.551 24.058 31.845.9 1.704 1.642 3.462 3.403 4.836a1.623 1.623 0 0 0 2.646-1.083c.225-4.189-2.267-7.786-4.199-11.3-4.594-8.52-10.501-16.273-17.391-23.023 8.078-4.404 14.092-5.76 16.807-6.166 1.118 2.603 3.582 8.413 7.702 18.485.449 1.098.992 2.286 1.567 3.544 4.531 9.917 7.63 18.737-.206 25.893-.275-.355-.549-.71-.798-1.082-.55-.925-1.672-1.42-2.72-.96a2.09 2.09 0 0 0-1.091 2.749c.856 1.949 2.002 3.547 3.433 5.074a20.2 20.2 0 0 0 4.277 3.411l-40.805 8.481a8.245 8.245 0 0 0-6.559 8.245c.202 9.451 2.134 32.709 15.702 44.531a29 29 0 0 0 2.723 2.1c-7.69-1.444-15.102-4.263-21.758-8.405-4.799-2.838-8.647-6.662-13.191-9.92a1.81 1.81 0 0 0-2.603 2.393c1.488 2.602 3.646 4.742 5.919 6.619 14.841 12.464 34.684 17.567 53.629 14.251.237-.024.468-.035.707-.062a42 42 0 0 0 4.03-.673c-1.538 4.939-3.451 9.596-5.749 13.802m20.009-28.584c-4.009 5.967-10.358 9.496-18.869 10.488-8.737 1.023-15.993-.926-21.562-5.779-12.064-10.511-13.801-32.081-13.988-40.867a3.24 3.24 0 0 1 2.578-3.243l51.082-10.618a1.947 1.947 0 0 1 2.274 1.373c1.236 4.439 3.381 13.301 3.854 22.769.553 11.045-1.253 19.752-5.369 25.877"
  />
  <path
    fill="#000"
    d="M279.121 282.985c.736-1.849-1.87-3.247-2.992-1.572-2.108 3.158-5.133 5.791-8.417 7.382-16.46 6.191-31.538-.687-33.868-18.908-.516-4.021-.234-7.876.62-11.872 1.214-6.61.619-13.114-.547-19.583a73 73 0 0 0-1.079-5.034c3.474-1.523 7.512-1.706 11.324-1.89 13.896-.208 28.86 2.98 39.506 12.354a1.792 1.792 0 0 0 2.424-2.64c-3.739-3.484-8.114-6.185-12.713-8.235-11.116-5.063-31.377-8.27-42.837-3.481-1.205.609-2.831 2.009-2.411 3.783a66 66 0 0 1 1.513 5.965c1.13 5.866 1.71 12.163.658 17.981-1.968 8.433-1.274 17.999 3.198 25.985 6.675 12.117 20.476 14.867 33.045 11.314 5.697-1.681 10.426-6.124 12.576-11.549"
  />
  <path
    fill="#000"
    d="M352.824 317.031c1.121 2.638 2.448 3.972 3.949 3.972q.162 0 .326-.021c1.636-.206 2.7-1.85 3.164-4.886.361-2.363.339-5.413-.06-8.59s-1.134-6.137-2.068-8.337c-1.202-2.827-2.647-4.154-4.275-3.951-4.591.577-3.269 12.158-3.104 13.476.4 3.177 1.134 6.138 2.068 8.337"
  />
  <path
    fill="#000"
    d="M372.611 291.847c-4.59.579-3.269 12.158-3.103 13.476.399 3.177 1.133 6.138 2.067 8.337 1.122 2.638 2.448 3.972 3.949 3.972q.162 0 .326-.021c1.636-.205 2.701-1.849 3.164-4.886.361-2.362.34-5.412-.059-8.589-.166-1.319-1.757-12.876-6.344-12.289"
  />
  <path
    fill="#FFB921"
    d="M232.393 59.806c-6.673 11.826-7.045 19.589-6.06 20.543 1.264.319 7.722-4.012 14.396-15.84 6.62-11.73 7.039-19.463 6.084-20.518a1 1 0 0 0-.135-.012c-1.635 0-7.857 4.438-14.285 15.827"
  />
  <path
    fill="#FFB921"
    d="M235.159 170.177a21.83 21.83 0 0 0-15.015 7.577 21.83 21.83 0 0 0-5.258 15.975 21.84 21.84 0 0 0 4.156 11.311c2.473-.122 8.229-.356 15.804-.356l1.092.002c9.003.026 15.675.438 18.404.638a21.83 21.83 0 0 0 4.369-14.874 21.84 21.84 0 0 0-7.577-15.015 21.83 21.83 0 0 0-15.975-5.258"
  />
  <path
    fill="#FFB921"
    d="M300.419 134.311c-.686-5.585-3.256-10.586-7.236-14.082-3.358-2.949-7.38-4.516-11.501-4.516q-.994 0-1.992.122c-10.028 1.233-17.043 11.526-15.639 22.945.686 5.586 3.255 10.587 7.236 14.082 3.898 3.424 8.692 4.987 13.493 4.394 10.027-1.233 17.043-11.526 15.639-22.945"
  />
  <path
    fill="#000"
    d="M305.382 133.701c-.836-6.805-3.997-12.923-8.9-17.229-4.95-4.347-11.074-6.332-17.273-5.612-.277.02-1.103.119-3.373.409l-.528.067c-12.763 1.569-21.731 14.362-19.991 28.518 1.622 13.197 12.111 22.916 24.306 22.916q.942 0 1.896-.078l1.216-.093c2.618-.197 3.088-.24 3.345-.285a18.2 18.2 0 0 0 4.749-1.521c9.762-4 16.033-15.05 14.553-27.092m-20.602 23.555c-4.801.593-9.595-.97-13.493-4.394-3.981-3.495-6.55-8.496-7.236-14.082-1.404-11.419 5.611-21.712 15.639-22.945q.998-.122 1.992-.122c4.121 0 8.142 1.567 11.501 4.516 3.98 3.496 6.55 8.497 7.236 14.082 1.404 11.419-5.612 21.712-15.639 22.945"
  />
  <path
    fill="#D5C3EE"
    d="M206.852 126.297c-.663 3.931-2 6.632-4.519 9.339 3.469 1.278 5.881 3.086 8.246 6.295.663-3.931 2-6.633 4.518-9.338-3.468-1.279-5.88-3.087-8.245-6.296"
  />
  <path
    fill="#000"
    d="M220.599 128.977c-7.007-1.601-9.02-3.385-13.459-11.927a2.5 2.5 0 0 0-4.718 1.125c-.107 9.626-1.098 12.125-6.63 16.715a2.501 2.501 0 0 0 1.039 4.361c7.008 1.601 9.02 3.385 13.459 11.927a2.5 2.5 0 0 0 4.718-1.125c.108-9.626 1.099-12.125 6.631-16.715a2.5 2.5 0 0 0-1.04-4.361m-18.266 6.659c2.519-2.707 3.856-5.408 4.519-9.339 2.365 3.209 4.777 5.017 8.245 6.296-2.518 2.705-3.855 5.406-4.518 9.338-2.365-3.209-4.777-5.017-8.246-6.295"
  />
  <path
    fill="#D5C3EE"
    d="M279.364 84.493a10.9 10.9 0 0 1 2.808-2.42 10.9 10.9 0 0 1-1.998-3.124 10.9 10.9 0 0 1-2.808 2.42c.87.963 1.511 1.975 1.998 3.124"
  />
  <path
    fill="#000"
    d="M271.293 82.748c3.155 2.175 3.952 3.278 4.54 9.135a2.5 2.5 0 0 0 4.799.702c2.239-5.444 3.319-6.273 6.965-7.454a2.502 2.502 0 0 0 .648-4.437c-3.155-2.175-3.952-3.279-4.54-9.135a2.5 2.5 0 0 0-4.799-.702c-2.24 5.444-3.319 6.273-6.965 7.454a2.498 2.498 0 0 0-.648 4.436m8.881-3.8a10.9 10.9 0 0 0 1.998 3.124 10.9 10.9 0 0 0-2.808 2.421 10.9 10.9 0 0 0-1.998-3.123 10.9 10.9 0 0 0 2.808-2.421"
  />
</svg>
