<svg xmlns="http://www.w3.org/2000/svg" width="229" height="282" fill="none" viewBox="0 0 229 282"><path fill="#FFD885" d="M186.615 94.178c5.124-18.911 2.665-37.281-7.112-53.124-10.79-17.487-30.176-30.556-51.857-34.962-19.913-4.046-39.804-1.326-56.01 7.66-17.418 9.655-29.194 25.612-34.056 46.144-5.057 21.355 3.469 44.53 13.135 59.099l.002.003.007.01a73 73 0 0 0 4.348 5.886q.068.084.128.174c3.265 4.931 5.694 9.934 7.22 14.87 1.533 4.952 1.872 10.321.98 15.526a12.2 12.2 0 0 0-.071 3.689c.13.976.27 2.072.412 3.232 3.56 1.127 12.793 3.926 25.097 6.735 6.404-28.768 22.098-47.624 34.494-57.197-1.191-1.476-1.906-3.304-2.077-5.431-.183-2.289.281-4.668 1.196-6.844-3.892-.586-6.543-2.805-7.914-5.17-6.265 3.93-14.389 2.887-18.638-.525-1.2-.964-2.082-2.095-2.636-3.346-3.455 2.399-7.134 4.338-10.005 4.973-4.364.964-7.67-.556-9.065-4.175-.981-2.544-.922-6.717 4.93-12.151a2.133 2.133 0 0 1 2.901 3.125c-1.853 1.721-4.819 4.984-3.852 7.491.493 1.278 1.291 1.778 2.762 1.734 3.38-.105 7.968-2.86 11.763-5.839q.189-1.153.664-2.347c1.432-3.586 5.077-7.414 8.028-7.167 1.414.118 2.425 1.11 2.517 2.47.141 2.094-2.945 5.747-7.028 9.139.148 1.064.709 1.979 1.691 2.767 3.19 2.561 9.895 3.09 14.416-.25q.168-.123.331-.25c-.446-4.17.285-9.715 2.355-13.086 1.76-2.866 3.971-3.408 5.493-3.378 1.671.044 2.98 1.058 3.5 2.712 1.1 3.492-1.583 10.385-6.715 15.367q.093.26.202.461c.479.886 2.283 3.518 6.778 3.325 1.777-2.158 4.031-3.702 6.397-4.086 3.118-.507 3.589 1.778 3.633 2.04.471 2.811-4.212 5.468-7.649 6.067-1.205 1.935-1.985 4.334-1.803 6.602.11 1.385.583 2.453 1.293 3.271 3.429-2.296 6.467-3.792 8.791-4.507 5.088-1.564 7.505.387 8.308 1.299 1.227 1.393 1.488 3.369.68 5.155-1.366 3.021-5.162 4.823-10.157 4.823h-.014c-2.953-.002-5.495-.53-7.536-1.518-11.488 8.624-27.488 26.716-33.87 55.368 8.506 1.833 18.201 3.588 28.349 4.792.852-1.236 1.503-2.492 1.846-3.794q.14-.538.286-1.123c1.437-5.73 3.843-15.32 19.92-26.071q.11-.073.228-.133a73 73 0 0 0 9.147-5.463c13.068-9.164 28.82-25.553 33.837-44.073"/><path fill="#FFD885" d="M140.692 109.612c.175-.386.047-.53.005-.578-.293-.333-1.476-.771-3.855-.041-1.428.439-3.331 1.326-5.552 2.674 1.038.191 2.1.29 3.132.261 4.123 0 5.881-1.455 6.27-2.316"/><path fill="#FFD885" d="M119.306 79.272c-.999 1.626-1.564 4.077-1.77 6.447 2.307-3.237 3.276-6.469 3.136-7.747-.33.1-.814.4-1.366 1.3"/><path fill="#7A42C8" d="M69.364 216.54c.043 2.792 2.195 5.387 5.321 6.127l9.226 2.185c3.326.787 6.604-.794 7.727-3.576-7.295-.936-15.56-2.75-22.275-4.736"/><path fill="#5B5B5B" d="M207.745 68.704c4.71-2.241 9.438-4.402 13.566-7.683 1.699-1.42.357-4.28-1.846-3.845-5.142 1.17-9.784 3.508-14.479 5.782-3.579 1.983-1.035 7.305 2.759 5.746"/><path fill="#5B5B5B" d="M211.058 110.928c-1.838-2.967-3.976-5.788-7.105-7.516-1.726-.949-3.884.763-3.321 2.676 1.466 4.482 4.782 8.086 8.624 10.705 1.735 1.094 4.028-.718 3.321-2.676-.39-1.157-.942-2.183-1.519-3.189"/><path fill="#5B5B5B" d="M226.975 86.113c-3.319-.822-6.689-1.273-10.076-1.65-3.495-.236-6.83-1.037-10.285.357-1.069.408-1.243 1.984-.271 2.61 1.594 1.093 3.255 1.549 4.933 1.83 3.365.492 6.743.856 10.141 1.03 1.698.095 3.402.13 5.117.065a2.154 2.154 0 0 0 .441-4.242"/><path fill="#5B5B5B" d="M17.096 65.83c-2.76-.57-5.22.245-7.753 1.103-2.49.88-4.905 1.891-7.164 3.328-1.4.87-.815 3.164.855 3.23 2.675.129 5.273-.189 7.873-.658 2.625-.509 5.166-1.02 7.282-2.881 1.451-1.212.792-3.785-1.093-4.123"/><path fill="#5B5B5B" d="M30.38 25.762c-1.55-3.125-3.43-6.077-6.023-8.472-1.501-1.39-4.082-.045-3.764 2.005a28.1 28.1 0 0 0 5.655 12.563 3.13 3.13 0 0 0 5.384-2.869c-.306-1.135-.755-2.194-1.252-3.227"/><path fill="#5B5B5B" d="M17.22 43.928a82 82 0 0 0-9.752-2.965c-1.654-.397-3.328-.73-5.038-.943a2.163 2.163 0 0 0-1.23 4.084c3.077 1.513 6.296 2.611 9.563 3.595 3.401.928 6.575 2.147 10.24 1.34 3.417-1.56-2.403-4.598-3.784-5.11"/><path fill="#4C4C4C" d="M128.493 1.913C107.588-2.335 86.659.545 69.565 10.021c-18.494 10.253-30.99 27.16-36.137 48.892-4.556 19.238.557 42.543 13.68 62.362q.047.077.1.152a77 77 0 0 0 4.493 6.084c3.01 4.563 5.246 9.168 6.644 13.687 1.335 4.315 1.629 8.999.85 13.546a16.5 16.5 0 0 0-.095 4.973c.139 1.042.266 2.053.388 3.047-1.066 1.01-3.005 3.266-3.211 6.465-.127 1.96.26 3.715.707 5.033-1.089 1.122-2.703 3.249-2.894 6.157-.163 2.491.498 4.653 1.06 5.998-1.193 1.233-2.72 3.408-2.475 6.315.226 2.673 1.307 4.742 2.35 6.156-1.013 1.106-1.99 2.931-1.818 5.431.314 4.526 4.375 7.832 7.758 9.287a60 60 0 0 0 4.208 1.6c-.673 5.217 2.967 10.293 8.528 11.61l9.226 2.185c.905.215 1.809.317 2.696.317 4.82 0 9.131-3.029 10.346-7.584 1.6.128 3.12.201 4.521.206h.047c1.611 0 9.123-.303 11.727-5.799a8.5 8.5 0 0 0 .787-4.356c2.576-.832 5.024-2.913 6.132-6.309.634-1.941.604-3.649.408-4.893.074-.057.153-.101.225-.163 1.928-1.656 2.842-4.631 2.892-6.843a10.6 10.6 0 0 0-.677-3.967c.135-.096.273-.181.402-.291 1.929-1.659 2.84-4.628 2.887-6.835a10.7 10.7 0 0 0-.935-4.577c1.326-1.794 2.386-3.698 2.935-5.783q.146-.56.298-1.17c1.368-5.453 3.432-13.685 18.045-23.49a77.6 77.6 0 0 0 9.561-5.723c13.68-9.592 30.191-26.831 35.506-46.449 5.439-20.077 2.812-39.607-7.599-56.478-11.568-18.746-31.483-32.196-54.638-36.901m14.908 141.933c-16.077 10.75-18.483 20.341-19.92 26.071q-.146.584-.286 1.123c-.343 1.302-.993 2.558-1.846 3.794-10.148-1.204-19.843-2.959-28.35-4.793 6.383-28.652 22.383-46.744 33.871-55.368 2.042.989 4.583 1.517 7.536 1.519h.014c4.995 0 8.792-1.803 10.158-4.824.807-1.785.546-3.761-.681-5.154-.803-.912-3.22-2.864-8.308-1.299-2.324.714-5.362 2.211-8.791 4.506-.709-.817-1.182-1.885-1.293-3.271-.182-2.267.599-4.666 1.803-6.602 3.437-.598 8.12-3.255 7.649-6.066-.044-.262-.515-2.548-3.633-2.04-2.366.383-4.62 1.928-6.397 4.085-4.495.194-6.299-2.438-6.778-3.324a3 3 0 0 1-.201-.461c5.131-4.982 7.814-11.875 6.715-15.368-.521-1.654-1.83-2.667-3.501-2.711-1.521-.03-3.732.512-5.493 3.377-2.069 3.371-2.8 8.917-2.354 13.087q-.165.127-.332.25c-4.521 3.339-11.226 2.811-14.416.25-.982-.789-1.543-1.704-1.69-2.767 4.083-3.392 7.168-7.045 7.027-9.14-.092-1.359-1.103-2.351-2.517-2.47-2.951-.246-6.596 3.581-8.028 7.168a11.2 11.2 0 0 0-.664 2.347c-3.795 2.979-8.383 5.733-11.763 5.839-1.47.044-2.27-.457-2.762-1.734-.967-2.507 1.999-5.77 3.852-7.491a2.133 2.133 0 0 0-2.902-3.126c-5.85 5.435-5.91 9.607-4.93 12.151 1.396 3.62 4.702 5.14 9.066 4.176 2.87-.636 6.55-2.574 10.005-4.974.554 1.251 1.436 2.383 2.636 3.346 4.25 3.413 12.374 4.456 18.638.525 1.371 2.366 4.022 4.585 7.914 5.171-.915 2.176-1.379 4.555-1.196 6.843.171 2.128.887 3.955 2.077 5.432-12.396 9.573-28.09 28.429-34.494 57.196-12.304-2.808-21.537-5.607-25.097-6.734a297 297 0 0 0-.412-3.232 12.2 12.2 0 0 1 .072-3.689c.89-5.205.552-10.574-.98-15.526-1.527-4.936-3.956-9.939-7.221-14.87a2 2 0 0 0-.128-.174 73 73 0 0 1-4.348-5.886l-.007-.01-.002-.004C41.047 104.426 32.52 81.25 37.578 59.896c4.862-20.533 16.638-36.49 34.055-46.145 16.207-8.986 36.098-11.706 56.011-7.66 21.681 4.407 41.067 17.476 51.858 34.963 9.776 15.842 12.235 34.212 7.111 53.123-5.017 18.519-20.769 34.909-33.837 44.072a73 73 0 0 1-9.147 5.464 2 2 0 0 0-.228.133M83.91 224.851l-9.226-2.185c-3.127-.74-5.279-3.335-5.322-6.127 6.714 1.986 14.98 3.8 22.274 4.736-1.122 2.782-4.4 4.363-7.726 3.576m16.596-7.176c-10.963-.041-29.351-4.327-37.855-7.986-1.71-.736-4.995-2.867-5.189-5.664-.061-.886.176-1.506.427-1.903 5.483 1.484 28.893 7.59 50.904 9.91a4.3 4.3 0 0 1-.382 2.282c-1.266 2.672-5.548 3.395-7.905 3.361m20.55-35.283c-.03 1.421-.647 3.042-1.403 3.693-.285.245-.493.276-.716.247-28.6-3.715-52.857-11.063-57.567-12.543-.384-.852-.956-2.46-.838-4.285.09-1.401.856-2.525 1.454-3.201 5.656 1.806 30.166 9.287 58.169 12.684.399.699.933 1.921.901 3.405m-5.927 21.761c-.81 2.483-2.843 3.732-4.555 3.773a194 194 0 0 1-3.315-.357c-25.097-3.215-44.809-9.143-47.796-10.07-.636-.58-2.304-2.347-2.538-5.125-.108-1.278.653-2.338 1.253-2.965 5.7 1.685 31.842 9.14 57.22 11.961a6.3 6.3 0 0 1-.269 2.783m1.908-6.968c-.03.026-.056.041-.085.062-7.986-.846-16.083-2.173-23.61-3.649-17.605-3.548-30.82-7.565-34.172-8.62-.38-.853-.943-2.457-.824-4.28.083-1.265.71-2.302 1.27-2.991 3.407 1.086 28.39 8.842 58.147 12.77.349.72.71 1.768.681 3.003-.032 1.427-.65 3.055-1.407 3.705m14.252-85.519c2.222-1.348 4.125-2.235 5.553-2.674 2.378-.73 3.562-.292 3.854.041.042.047.17.192-.004.578-.39.861-2.148 2.316-6.271 2.316a15 15 0 0 1-3.132-.261m-13.755-25.947c.206-2.37.771-4.821 1.77-6.446.552-.9 1.036-1.202 1.366-1.3.14 1.277-.829 4.509-3.136 7.746"/><path fill="#A17AD8" d="M117.763 190.476c-29.756-3.928-54.74-11.684-58.146-12.769-.56.689-1.187 1.725-1.27 2.99-.12 1.823.444 3.427.824 4.281 3.351 1.054 16.567 5.071 34.172 8.619 7.526 1.476 15.624 2.804 23.61 3.649.029-.021.055-.036.085-.062.757-.65 1.375-2.277 1.407-3.705.029-1.235-.332-2.282-.682-3.003"/><path fill="#7A42C8" d="M120.156 178.986c-28.004-3.396-52.514-10.877-58.169-12.684-.598.676-1.364 1.8-1.454 3.201-.118 1.825.454 3.433.838 4.286 4.71 1.479 28.966 8.827 57.566 12.542.224.029.432-.002.716-.247.757-.65 1.374-2.272 1.404-3.692.032-1.485-.503-2.707-.901-3.406"/><path fill="#7A42C8" d="M58.18 189.408c-.6.626-1.362 1.687-1.254 2.964.234 2.779 1.902 4.546 2.538 5.126 2.987.926 22.699 6.854 47.796 10.07q1.663.192 3.315.357c1.712-.041 3.745-1.29 4.555-3.774a6.3 6.3 0 0 0 .269-2.783c-25.378-2.82-51.521-10.276-57.22-11.96"/><path fill="#A17AD8" d="M108.411 214.313a4.33 4.33 0 0 0 .383-2.282c-22.01-2.32-45.42-8.426-50.904-9.91-.25.397-.489 1.017-.427 1.903.193 2.797 3.479 4.928 5.189 5.664 8.504 3.659 26.892 7.945 37.855 7.986 2.357.034 6.639-.689 7.904-3.361"/><path fill="#4C4C4C" d="M85.042 282c19.455 0 35.227-4.871 35.227-10.88s-15.772-10.881-35.227-10.881-35.226 4.872-35.226 10.881S65.587 282 85.042 282"/></svg>