<svg xmlns="http://www.w3.org/2000/svg" width="267" height="311" fill="none" viewBox="0 0 267 311"><path fill="#FFB921" d="m219.456 67.12-4.069-.54a73 73 0 0 1-3.124 9.812l5.53.733c3.595.477 6.848 2.342 8.924 5.118 1.913 2.558 2.701 5.666 2.22 8.754-1.037 6.641-7.695 11.272-14.818 10.33l-14.947-1.981a20 20 0 0 0-1.615-.139 79.7 79.7 0 0 1-11.472 9.901 91 91 0 0 1-7.072 4.544c-.246 1.658-.373 3.178.401 4.154.872 1.097 3.024 1.804 6.226 2.043 4.044.207 4.16-.694 4.578-4.037.058-.474.12-.958.196-1.446.462-2.955 4.3-7.256 8.001-6.76l14.92 1.978c13.754 1.829 25.06-5.408 26.898-17.19.862-5.525-.563-11.108-4.014-15.722-3.867-5.17-9.976-8.652-16.763-9.552"/><path fill="#000" d="m220.026 62.81-3.729-.494c1.093-5.94 1.586-12.44 1.297-19.552a5.6 5.6 0 0 0 1.971-.658c3.621-1.98 6.261-7.717 4.423-13.098C220.756 19.543 196.487 0 142.102 0c-38.951 0-66.83 10.246-76.252 19.766-4.791 4.841-4.098 10.95-1.426 14.578.833 1.132 1.802 1.92 2.791 2.35a64 64 0 0 0 .096 4.973c-12.3-.203-24.75 7.036-29.207 18.805-4.28 10.618-.659 23.72 8.923 30.135 5.753 4.062 12.709 5.75 19.578 5.732 2.468.004 9.06.005 11.609.01l3.87.003c.461 0 .268-.001.394.016 1.223.453 2.313 2.15 2.634 3.3.207 1.917-.208 3.657.22 5.66.733 4.707 6.205 5.884 10.146 5.726 2.649.052 5.794-.514 7.986-2.244a120 120 0 0 0 12.07 8.556 6.6 6.6 0 0 0-.969 2.072c-1.209 4.57 2.235 7.881 4.98 9.458.005 4.136-1.99 20.34-31.044 37.723l-21.483 4.064a2.17 2.17 0 0 0-1.678 1.515l-15.03 50.463-4.336.6a2.17 2.17 0 0 0-1.787 1.541l-5.12 17.445a2.17 2.17 0 0 0 .428 2.019c.364.429.877.682 1.423.741v.013l137.136 14.896q.117.013.234.013.3 0 .588-.081c.202-.057 24.061-6.798 24.075-6.804.299-.092.58-.241.817-.455a2.17 2.17 0 0 0 .716-1.661l-.399-18.231a2.17 2.17 0 0 0-1.906-2.11l-4.255-.526-1.643-52.816a2.174 2.174 0 0 0-1.898-2.089l-21.432-2.731c-19.93-13.277-20.564-35.082-20.381-40.593 2.103-1.002 5.85-3.268 6.278-6.849a5.7 5.7 0 0 0-.237-2.372 101.4 101.4 0 0 0 15.885-6.494c.06 1.494.433 3.03 1.514 4.391 1.694 2.135 4.748 3.338 9.332 3.678l.047.003q.493.025.949.025c7.211 0 7.799-4.706 8.193-7.864.054-.431.109-.871.177-1.313.193-1.227 2.314-3.219 3.136-3.121l14.921 1.978c16.176 2.143 29.545-6.615 31.763-20.831 1.044-6.69-.67-13.436-4.827-18.995-4.564-6.102-11.735-10.205-19.675-11.258m20.207 29.583c-1.838 11.783-13.144 19.019-26.898 17.191l-14.92-1.978c-3.702-.496-7.539 3.805-8.001 6.76-.077.488-.138.971-.196 1.446-.418 3.342-.534 4.244-4.578 4.037-3.202-.24-5.355-.946-6.226-2.044-.774-.975-.647-2.496-.401-4.154a92 92 0 0 0 7.072-4.543 80 80 0 0 0 11.471-9.901 20 20 0 0 1 1.616.138l14.947 1.981c7.123.943 13.781-3.688 14.818-10.33.481-3.087-.307-6.195-2.22-8.753-2.076-2.777-5.329-4.642-8.924-5.119l-5.53-.733a73 73 0 0 0 3.124-9.81l4.069.539c6.786.9 12.896 4.381 16.763 9.552 3.45 4.613 4.876 10.197 4.014 15.72m-85.7 32.071c-.12 1.015-1.456 2.125-2.875 2.944a7 7 0 0 0-.431-.499c-3.151-3.308-12.029-5.863-19.556-5.863-.998 0-1.973.045-2.907.139-4.105.413-6.814 1.438-8.249 3.125-1.099-.872-2.168-2.172-1.747-3.76.284-1.075 1.548-2.087 3.56-2.849 7.601-2.883 22.534-1.342 29.051 2.997 2.119 1.411 3.269 2.784 3.154 3.766m37.46 54.77 1.563 50.254-97.4-12.412 5.953-29.658 3.844-19.148zM55.224 221.392l13.903-46.684 32.327-6.115-9.71 48.374a2 2 0 0 0-.305.008c-.018.002-.035-.002-.053.001l-2.043.283zm33.88.288-2.001 13.334-42.934 5.284 3.793-12.923zM60.04 242.725l28.966-3.565 102.371 12.655c-5.644 1.591-11.677 3.286-13.273 3.734zm31.447-7.639 2.031-13.54 106.262 13.125.302 13.839zm12.925-71.387q-.084-.005-.167-.005a2 2 0 0 0-.331.021c-.033.005-4.266.795-4.266.795 22.712-16.404 24.381-31.149 24.256-35.848 12.133-7.216 21.816.275 24.351 2.581-.152 4.888.257 25.358 16.315 40.114 0 0-60.131-7.656-60.158-7.658M72.186 65.506c1.4 3.983 3.27 8.38 5.766 12.999-3.593-.001-9.104.098-12.069-.026-7.538-.611-11.605-9.51-5.527-14.77 2.042-1.822 4.906-2.557 7.637-2.417.6-.003 1.707-.004 2.826-.005.41 1.375.861 2.781 1.367 4.22m83.846 53.323a18 18 0 0 0-2.243-1.75c-7.707-5.131-24.055-6.836-33.002-3.443-.643.244-1.215.507-1.737.781-4.875-2.956-9.247-6.056-13.158-9.24.523-1.668.533-3.355.538-5.042.093-7.64-4.642-14.876-11.173-18.46-3.702-2.102-7.937-3.172-12.178-3.172h-.147a86.6 86.6 0 0 1-6.574-14.237 85 85 0 0 1-.993-2.99c2.058.006 4.115.003 6.172-.539a1.538 1.538 0 0 0 0-2.974c-2.58-.679-5.16-.51-7.739-.543-2.278.021-5.64-.067-7.885.026-7.858.347-14.535 8.02-12.227 15.937 1.433 5.264 6.46 9.005 11.764 9.497 1.506.169 4.523.043 6.019.092l7.739.015 3.868.009c3.496.013 7.005.911 10.033 2.648 5.623 3.137 9.283 9.218 8.893 15.622.002 1.359-.188 3.148-1.006 3.995-2.097 1.925-6.202 1.666-8.889 1.215-1.534-.435-2.053-.594-2.345-1.836-.225-1.302-.037-2.982-.046-4.391-.237-3.544-2.723-7.013-6.107-8.076-1.074-.3-4.27-.105-5.395-.155l-11.61.01c-5.98.044-12.159-1.454-16.993-4.882-7.988-5.333-10.877-16.088-7.371-24.884 3.836-10.198 14.896-16.415 25.605-16.023 2.338-.004 8.356-.004 11.16-.008 3.277 1.465 4.069 4.05 3.92 7.558-.015.533.208 1.06.678 1.387 2.32 1.322 3.283-2.253 3.418-4.024.177-2.717-1.406-5.5-3.454-7.152-1.24-.93-2.518-1.932-4.113-2.126l-7.766-.007c-.153-2.534-.138-4.442-.098-5.561l.196-.102c15.64-8.136 31.798-16.542 67.792-16.542q1.4 0 2.84.017c30.555.364 48.895 5.8 59.911 12.251 5.612 4.225 9.429 7.713 10.812 9.023 1.754 27.75-8.152 49.521-29.451 64.723-10.449 7.458-21.258 11.45-27.658 13.353M142.102 4.347c56.615 0 76.006 20.894 77.772 26.066.951 2.784-.058 5.422-1.211 6.836-.807.99-1.514 1.24-1.708 1.167-8.206-10.315-27.789-22.727-74.484-23.284q-1.481-.017-2.92-.018c-37.028 0-53.668 8.656-69.771 17.034l-.971.504c-.485-.297-1.454-1.35-1.907-3.063-.447-1.694-.458-4.244 2.039-6.766 7.35-7.427 32.898-18.476 73.161-18.476m68.353 76.19 6.767.897c2.442.324 4.634 1.567 6.014 3.413 1.206 1.612 1.705 3.558 1.406 5.479-.676 4.327-5.127 7.33-9.953 6.69l-13.586-1.8a70.7 70.7 0 0 0 9.352-14.679"/><path fill="#FFB921" d="M183.69 105.476c21.299-15.202 31.205-36.974 29.452-64.723-1.384-1.31-5.201-4.798-10.813-9.023-11.016-6.45-29.356-11.887-59.911-12.25q-1.44-.018-2.84-.018c-35.994 0-52.152 8.406-67.792 16.542l-.196.102c-.04 1.12-.055 3.027.098 5.562l7.766.006c1.595.194 2.873 1.197 4.113 2.126 2.048 1.653 3.631 4.435 3.454 7.152-.135 1.772-1.097 5.346-3.418 4.024-.47-.327-.693-.854-.678-1.387.149-3.507-.643-6.093-3.92-7.558-2.804.004-8.822.004-11.16.008-10.709-.392-21.769 5.825-25.605 16.023-3.506 8.797-.617 19.551 7.37 24.885 4.835 3.428 11.014 4.926 16.995 4.88l11.609-.008c1.125.05 4.32-.146 5.395.154 3.384 1.063 5.87 4.533 6.107 8.076.009 1.409-.18 3.089.046 4.391.292 1.242.811 1.402 2.345 1.836 2.687.451 6.792.71 8.889-1.215.818-.847 1.008-2.636 1.006-3.995.39-6.403-3.27-12.484-8.893-15.621-3.028-1.737-6.536-2.635-10.033-2.65l-3.868-.007-7.74-.016c-1.495-.049-4.512.077-6.018-.092-5.304-.492-10.331-4.233-11.764-9.496-2.308-7.918 4.37-15.59 12.227-15.937 2.246-.094 5.607-.006 7.885-.026 2.58.032 5.16-.137 7.74.543a1.537 1.537 0 0 1 0 2.973c-2.058.542-4.115.545-6.172.54.308.983.633 1.977.992 2.989a86.7 86.7 0 0 0 6.574 14.237h.147c4.241 0 8.477 1.07 12.178 3.171 6.531 3.585 11.266 10.821 11.173 18.461-.005 1.688-.015 3.375-.538 5.042 3.911 3.185 8.283 6.285 13.158 9.24a16 16 0 0 1 1.737-.781c8.947-3.393 25.295-1.688 33.002 3.443.859.572 1.6 1.157 2.243 1.75 6.4-1.903 17.209-5.895 27.658-13.353m7.583-38.37a2.17 2.17 0 0 1 1.347 2.283c-.796 6.468-.128 7.86 3.073 11.001a2.172 2.172 0 0 1-1.321 3.716c-5.01.466-6.564 1.447-10.388 6.563a2.17 2.17 0 0 1-2.551.715 2.17 2.17 0 0 1-1.347-2.283c.796-6.468.129-7.859-3.073-11.001a2.174 2.174 0 0 1 1.321-3.715c5.011-.466 6.564-1.447 10.387-6.562a2.175 2.175 0 0 1 2.552-.716M173.8 66.102a2.17 2.17 0 0 1-2.057-1.472c-1.032-3.026-1.899-5.143-2.93-6.748a9.3 9.3 0 0 1-1.709-2.064c-1.386-1.283-3.154-2.188-5.74-3.193a2.173 2.173 0 0 1-.222-3.95c2.399-1.26 4.021-2.338 5.223-3.733.396-.89.91-1.678 1.508-2.348.797-1.692 1.376-3.868 2.002-6.936a2.173 2.173 0 0 1 4.187-.268c1.032 3.026 1.899 5.143 2.929 6.748a9.3 9.3 0 0 1 1.711 2.065c1.385 1.282 3.153 2.187 5.739 3.192a2.173 2.173 0 0 1 .222 3.95c-2.399 1.26-4.021 2.338-5.223 3.732a9 9 0 0 1-1.508 2.35c-.797 1.691-1.376 3.867-2.002 6.935a2.17 2.17 0 0 1-2.13 1.74"/><path fill="#D69200" d="M66.902 29.59c.453 1.713 1.422 2.765 1.907 3.063l.97-.505c16.104-8.378 32.744-17.033 69.772-17.033q1.439 0 2.92.017c46.695.557 66.278 12.97 74.484 23.284.194.074.901-.178 1.708-1.167 1.153-1.414 2.163-4.052 1.211-6.836-1.766-5.172-21.157-26.066-77.772-26.066-40.263 0-65.812 11.05-73.161 18.476-2.496 2.523-2.486 5.072-2.039 6.766"/><path fill="#D69200" d="M122.328 117.701c-2.012.763-3.276 1.775-3.56 2.849-.421 1.588.648 2.889 1.747 3.761 1.435-1.688 4.144-2.712 8.249-3.126a29 29 0 0 1 2.907-.139c7.527 0 16.405 2.556 19.556 5.864q.24.25.431.498c1.419-.819 2.755-1.929 2.875-2.943.115-.983-1.034-2.356-3.154-3.767-6.517-4.338-21.45-5.88-29.051-2.997"/><path fill="#FFB921" d="M148.256 131.243c-2.535-2.305-12.217-9.797-24.351-2.581.125 4.7-1.544 19.444-24.256 35.848 0 0 4.233-.79 4.266-.794a2 2 0 0 1 .331-.022q.084 0 .167.005l60.158 7.658c-16.058-14.755-16.466-35.226-16.315-40.114"/><path fill="#7A42C8" d="m105.953 168.269-3.844 19.149-5.953 29.657 97.4 12.413-1.563-50.254zm75.834 46.826a2.17 2.17 0 0 1-1.683.55l-67.465-7.023a2.172 2.172 0 0 1-1.895-2.641l5.516-24.411c.172-.76.737-1.37 1.483-1.599.568-.173 1.529-.467 62.748 6.607a2.174 2.174 0 0 1 1.924 2.152l.087 24.745a2.17 2.17 0 0 1-.715 1.62"/><path fill="#7A42C8" d="M91.44 216.975c.1-.011.2-.011.303-.008l9.711-48.374-32.327 6.115-13.903 46.684 34.119-4.133 2.042-.283c.019-.003.036.001.054-.001"/><path fill="#A17AD8" d="m93.52 221.546-2.032 13.54 108.595 13.424-.302-13.839z"/><path fill="#A17AD8" d="m87.103 235.014 2-13.333-41.14 5.694-3.793 12.923z"/><path fill="#7A42C8" d="m89.007 239.16-28.966 3.565 118.064 12.824c1.596-.448 7.629-2.143 13.273-3.734z"/><path fill="#D5C3EE" d="m178.147 211.07-.073-20.395c-21.094-2.432-50.682-5.759-57.976-6.366l-4.575 20.243zm-9.07-5.041c-6.209-.047-12.424-.73-18.476-2.112-.162-.053-.712-.168-.86-.228-.112-.052-.808-.424-.929-.482-1.72-.878-1.104-3.524.799-3.578 6.723-.196 13.452.847 19.972 2.439 2.231.616 1.789 3.933-.506 3.961m-37.773-16.081c6.726-.502 13.412.433 20.1.979 3.33.316 6.647.747 9.957 1.224 3.317.424 6.621.95 9.814 2.359.654.288.95 1.052.662 1.706-1.282 2.629-17.777-.324-21.014-.682-6.614-1.132-13.323-1.886-19.714-4.041-.791-.267-.641-1.487.195-1.545"/><path fill="#000" d="M180.491 186.578c-61.219-7.074-62.18-6.78-62.748-6.607a2.17 2.17 0 0 0-1.483 1.599l-5.516 24.411a2.176 2.176 0 0 0 1.895 2.641l67.465 7.023q.112.01.225.011a2.175 2.175 0 0 0 2.173-2.181l-.087-24.745a2.174 2.174 0 0 0-1.924-2.152m-2.416 4.097.072 20.395-62.624-6.518 4.575-20.243c7.294.607 36.882 3.934 57.977 6.366"/><path fill="#000" d="M131.109 191.493c6.392 2.155 13.1 2.909 19.714 4.041 3.237.358 19.732 3.311 21.014.682a1.294 1.294 0 0 0-.662-1.706c-3.193-1.409-6.497-1.935-9.814-2.359-3.31-.477-6.627-.908-9.957-1.225-6.688-.545-13.374-1.48-20.1-.978-.836.058-.986 1.278-.195 1.545"/><path fill="#000" d="M169.583 202.068c-6.52-1.592-13.249-2.635-19.972-2.439-1.903.054-2.519 2.7-.799 3.578.121.058.817.43.929.482.148.06.698.175.86.228 6.052 1.382 12.267 2.065 18.476 2.112 2.295-.028 2.737-3.345.506-3.961"/><path fill="#FFFBE8" d="M166.727 55.363c1.026 1.353 1.35 1.74 2.463 2.972-1.041-1.357-1.353-1.734-2.463-2.972"/><path fill="#FFFBE8" d="M173.577 60.288c.284-8.155 1.213-9.371 8.107-10.745-7.03-.632-8.11-1.739-9.456-9.814-.284 8.156-1.213 9.371-8.107 10.745 7.03.632 8.11 1.74 9.456 9.814"/><path fill="#FFFBE8" d="M166.034 45.458c.993-1.417 1.269-1.844 2.17-3.382-.998 1.408-1.285 1.85-2.17 3.382"/><path fill="#FFFBE8" d="M179.772 54.56c-.994 1.417-1.27 1.844-2.171 3.382.998-1.409 1.286-1.85 2.171-3.382"/><path fill="#FFFBE8" d="M179.078 44.656c-1.026-1.354-1.35-1.742-2.463-2.973 1.041 1.357 1.353 1.733 2.463 2.973"/><path fill="#000" d="M175.93 64.362c.626-3.068 1.205-5.244 2.002-6.937.425-.901.917-1.663 1.508-2.348 1.202-1.395 2.824-2.472 5.223-3.732a2.172 2.172 0 0 0-.222-3.95c-2.586-1.006-4.354-1.91-5.739-3.193a10.5 10.5 0 0 1-1.711-2.065c-1.03-1.605-1.897-3.722-2.929-6.748a2.173 2.173 0 0 0-4.187.267c-.626 3.069-1.205 5.245-2.002 6.937a10.2 10.2 0 0 1-1.508 2.348c-1.202 1.395-2.824 2.473-5.223 3.733a2.173 2.173 0 0 0 .222 3.95c2.586 1.005 4.354 1.91 5.74 3.193.637.59 1.196 1.263 1.709 2.064 1.031 1.605 1.898 3.722 2.93 6.748a2.173 2.173 0 0 0 4.187-.267m-9.126-14.03c2.728-1.945 4.387-4.115 5.63-7.461 1.668 3.202 3.597 5.178 6.567 6.815-2.728 1.945-4.387 4.116-5.63 7.462-1.668-3.202-3.597-5.18-6.567-6.815"/><path fill="#FFFBE8" d="M191.581 80.95c-3.818-1.944-4.154-2.85-2.767-7.574-2.426 4.41-3.344 4.901-7.688 4.163 3.817 1.945 4.153 2.852 2.767 7.575 2.426-4.41 3.344-4.901 7.688-4.164"/><path fill="#000" d="M178.334 74.384a2.172 2.172 0 0 0-1.321 3.716c3.202 3.142 3.869 4.533 3.073 11.001a2.173 2.173 0 0 0 3.898 1.567c3.824-5.115 5.378-6.096 10.388-6.562a2.175 2.175 0 0 0 1.321-3.716c-3.201-3.142-3.869-4.533-3.073-11.001a2.174 2.174 0 0 0-3.899-1.567c-3.823 5.115-5.375 6.097-10.387 6.562m9.728.785c.209 2.03.809 3.65 1.921 5.26-2.052.544-3.691 1.422-5.338 2.892-.209-2.03-.81-3.65-1.922-5.26 2.052-.544 3.692-1.422 5.339-2.892"/><path fill="#000" d="M233.932 34.27c3.238-.505 6.624-.689 9.896-.707 3.612-.497 3.014-5.803-.613-5.49a67 67 0 0 0-10.192 1.95c-2.591.763-1.782 4.607.909 4.247"/><path fill="#000" d="M263.738 47.56c-7.703-.765-15.464-1.354-23.207-1.105a2.194 2.194 0 0 0-.464 4.322c5.781 1.407 11.58 1.918 17.46 2.32 1.947.133 3.897.219 5.85.24 3.628-.037 3.972-5.29.361-5.778"/><path fill="#000" d="M25.403 51.176a60 60 0 0 0-2.421-.369c-2.488-.32-4.967-.552-7.492-.575-3.41.313-3.072 5.318.344 5.176a64 64 0 0 1 8.966.073 2.174 2.174 0 0 0 .602-4.305"/><path fill="#000" d="M23.028 66.13c-2.991.269-7.324.774-10.359 1.108-3.033.37-7.366.87-10.335 1.37-3.561.675-2.844 5.916.772 5.607 6.97-.828 13.86-2.104 20.676-3.805 2.55-.705 1.898-4.483-.754-4.28"/><path fill="#000" d="M123.952 311c43.277 0 78.359-4.965 78.359-11.09s-35.082-11.091-78.359-11.091-78.358 4.966-78.358 11.091S80.676 311 123.952 311"/></svg>