<svg xmlns="http://www.w3.org/2000/svg" width="386" height="499" fill="none" viewBox="0 0 386 499"><path fill="#000" d="M205.407 498.307c78.379 0 141.918-5.714 141.918-12.763s-63.539-12.764-141.918-12.764-141.919 5.715-141.919 12.764 63.539 12.763 141.919 12.763"/><path fill="#FFD885" d="M358.438 75.233c7.252 10.743 13.284 21.156 18.875 31.149 3.161 5.651 6.312 13.363 6.202 15.864l-45.552 326.458a12.96 12.96 0 0 1-14.774 8.333c-32.649-6.642-143.249-26.117-246.657-27.468-4.651-.06-8.662-4.261-10.983-6.331-1.88-1.671-23.106-22.487-23.006-25.007l26.077-35.88c-.66-7.202 285.767-293.11 289.818-287.118"/><path fill="#000" d="M325.729 459.787c-1.01 0-2.02-.1-3.04-.31-5.192-1.06-128.555-25.877-246.187-27.417-5.102-.07-9.313-3.931-11.833-6.242-.28-.26-.54-.5-.79-.71-1.04-.921-6.952-6.692-12.384-12.314-11.563-11.983-11.513-13.343-11.463-14.654.02-.49.19-.97.48-1.37l25.827-35.54c1.18-2.77 7.882-11.033 43.322-47.713 25.537-26.427 59.646-60.936 96.036-97.176 23.386-23.286 140.618-139.658 151.311-143.469 1.68-.6 2.901.11 3.481.97 7.522 11.134 13.814 22.087 18.985 31.329 2.801 5.011 6.672 13.654 6.522 17.195 0 .08 0 .16-.02.23l-45.553 326.458c-.02.17-.06.34-.12.5-2.22 6.212-8.182 10.243-14.584 10.243zM45.434 398.511c3.18 4.601 19.305 20.665 21.775 22.866.26.23.54.49.84.76 2.121 1.95 5.322 4.891 8.513 4.931 118.102 1.541 241.905 26.457 247.117 27.518 4.981 1.01 10.023-1.771 11.833-6.492l45.492-326.038c-.03-1.661-2.44-8.283-5.891-14.444-5.102-9.133-10.773-18.975-17.665-29.328-10.693 7.152-69.159 62.937-145.749 139.137-75.761 75.381-137.228 138.948-140.649 145.44-.07.35-.22.67-.43.96l-25.217 34.69z"/><path fill="#FFFBE8" d="M59.117 48.216c44.672-3.451 173.807-13.734 295.19 24.156 6.182 1.93 7.022 8.963 6.202 15.864l-45.553 335.461a12.956 12.956 0 0 1-14.774 8.332c-32.648-6.641-143.248-26.117-246.656-27.467a12.95 12.95 0 0 1-10.983-6.332c-1.29-2.16-1.8-4.701-1.7-7.222l6.361-328.689c-.66-7.202 4.691-13.543 11.903-14.104z"/><path fill="#000" d="M302.723 434.781c-1.01 0-2.02-.1-3.041-.311-5.191-1.06-128.554-25.877-246.186-27.417-5.432-.07-10.323-2.891-13.104-7.542-1.47-2.461-2.17-5.431-2.05-8.602l6.351-328.51c-.34-4.1.93-8.091 3.591-11.242a15.33 15.33 0 0 1 10.623-5.442l.9-.07c47.643-3.68 174.198-13.453 295.23 24.337 4.462 1.39 9.463 5.741 7.942 18.545l-45.552 335.501c-.02.17-.07.34-.12.51-2.22 6.211-8.182 10.243-14.584 10.243M59.307 50.707c-2.81.22-5.361 1.52-7.182 3.68a10.38 10.38 0 0 0-2.42 7.703c0 .09.01.18.01.28l-6.362 328.689c-.09 2.25.37 4.271 1.34 5.891a10.42 10.42 0 0 0 8.873 5.112c118.102 1.54 241.905 26.457 247.117 27.517 4.981 1.01 10.012-1.77 11.833-6.492l45.512-335.18c.89-7.502-.61-11.934-4.471-13.144-120.123-37.5-245.977-27.777-293.35-24.116l-.9.07z"/><path fill="#6DB5C3" d="M135.998 301.305c22.826-.67 52.194-.3 81.852 6.061 1.921.41 2.651 2.691 2.021 4.442l-9.023 57.995c-.65 1.781-2.61 2.661-4.591 2.331-20.506-3.381-49.353-6.852-74.44-7.862-2.051-.08-3.691-1.631-3.711-3.551l4.371-55.775c-.03-1.901 1.5-3.581 3.521-3.641"/><path fill="#000" d="M207.107 374.705c-.41 0-.83-.03-1.25-.1-18.785-3.101-48.123-6.792-74.13-7.833-3.381-.14-6.072-2.78-6.112-6.011v-.23l4.361-55.665c.02-3.251 2.661-5.952 5.952-6.052 20.355-.6 51.054-.62 82.452 6.122 1.481.32 2.711 1.24 3.461 2.6.81 1.461.981 3.261.47 4.872l-8.992 57.785c-.03.16-.07.32-.12.47-.91 2.501-3.321 4.052-6.092 4.052zm-76.49-13.944c.06.54.63.99 1.31 1.01 26.237 1.05 55.815 4.761 74.74 7.892.68.11 1.461-.05 1.761-.57l8.972-57.676c.03-.16.07-.32.12-.47.11-.31.09-.74-.06-1-.07-.12-.11-.13-.14-.14-30.868-6.622-61.157-6.602-81.252-6.012-.67.02-1.1.591-1.1 1.111v.23l-4.351 55.615z"/><path fill="#fff" d="M12.565 44.315s-4.622-2.821-9.243-6.992z"/><path fill="#000" d="M11.264 46.455a73 73 0 0 1-10.063-6.771c-3.2-2.701.64-7.493 3.982-4.952 2.7 2.67 5.651 5.292 8.752 7.502 2.51 1.87.08 5.682-2.67 4.221"/><path fill="#fff" d="M21.797 24.08S15.695 16.278 4.412 3.204z"/><path fill="#000" d="M19.837 25.62c-4.892-4.661-9.303-9.833-13.664-14.994a143 143 0 0 1-4.271-5.252 3.33 3.33 0 0 1 .59-4.681 3.35 3.35 0 0 1 4.451.33 116 116 0 0 1 4.561 5.071c4.452 5.232 8.743 10.473 12.264 16.445.7 1.2.29 2.75-.91 3.45a2.53 2.53 0 0 1-3.032-.37z"/><path fill="#000" d="M43.443 232.686c48.553-5.022 97.596-3.921 146.25-.86 48.683 3.621 97.506 10.222 144.059 25.576 2.79.971 1.83 5.512-1.541 4.622-46.122-14.904-94.635-21.436-142.879-25.107-42.361-3.061-84.963-3.251-127.384-1.17-6.082.17-12.143.57-18.235.73-2.25.05-2.78-3.391-.27-3.791"/><path fill="#FFD885" d="M77.192 360.53c7.568 0 13.704-6.135 13.704-13.704 0-7.568-6.136-13.704-13.704-13.704s-13.704 6.136-13.704 13.704 6.136 13.704 13.704 13.704"/><path fill="#000" d="M77.192 363.031c-8.932 0-16.204-7.272-16.204-16.205s7.272-16.204 16.204-16.204 16.205 7.272 16.205 16.204-7.273 16.205-16.205 16.205m0-27.408c-6.172 0-11.203 5.021-11.203 11.203s5.021 11.203 11.203 11.203 11.203-5.021 11.203-11.203-5.021-11.203-11.203-11.203"/><path fill="#FFD885" d="M78.002 325.491c7.569 0 13.704-6.135 13.704-13.704 0-7.568-6.135-13.703-13.704-13.703-7.568 0-13.703 6.135-13.703 13.703 0 7.569 6.135 13.704 13.703 13.704"/><path fill="#000" d="M78.002 327.992c-8.932 0-16.204-7.272-16.204-16.205s7.272-16.204 16.204-16.204 16.205 7.272 16.205 16.204-7.272 16.205-16.205 16.205m0-27.408c-6.171 0-11.203 5.022-11.203 11.203 0 6.182 5.022 11.203 11.203 11.203 6.182 0 11.203-5.021 11.203-11.203s-5.021-11.203-11.203-11.203"/><path fill="#FFD885" d="M273.295 375.504c15.06 0 27.268-12.208 27.268-27.267s-12.208-27.267-27.268-27.267c-15.059 0-27.267 12.208-27.267 27.267s12.208 27.267 27.267 27.267"/><path fill="#000" d="M273.295 378.005c-16.414 0-29.768-13.353-29.768-29.768s13.354-29.768 29.768-29.768 29.768 13.354 29.768 29.768-13.353 29.768-29.768 29.768m0-54.535c-13.654 0-24.767 11.113-24.767 24.767s11.113 24.767 24.767 24.767 24.767-11.113 24.767-24.767-11.113-24.767-24.767-24.767"/><path fill="#FFD885" d="M258.131 359.43c-5.912-8.102-4.141-19.455 3.961-25.367s19.455-4.141 25.367 3.961 4.141 19.455-3.961 25.367"/><path fill="#000" d="M283.498 365.892c-.77 0-1.53-.36-2.021-1.03a2.495 2.495 0 0 1 .551-3.491 15.54 15.54 0 0 0 6.241-10.223c.64-4.131-.36-8.262-2.821-11.643-5.091-6.972-14.894-8.502-21.865-3.411-6.972 5.091-8.503 14.894-3.411 21.866.81 1.12.57 2.681-.551 3.491s-2.68.57-3.49-.55c-6.712-9.203-4.692-22.146 4.511-28.858a20.54 20.54 0 0 1 15.364-3.721 20.5 20.5 0 0 1 13.494 8.232 20.54 20.54 0 0 1 3.721 15.364 20.5 20.5 0 0 1-8.233 13.494c-.44.32-.96.48-1.47.48z"/><path fill="#FFD885" d="m280.017 340.445-8.732 8.502 2.4 1.64z"/><path fill="#000" d="M273.685 353.089c-.5 0-.99-.15-1.41-.441l-2.391-1.64c-.62-.42-1.01-1.1-1.08-1.85-.06-.751.21-1.481.75-2.011l8.732-8.502a2.5 2.5 0 0 1 3.311-.16c.981.79 1.221 2.2.551 3.271l-6.332 10.142a2.48 2.48 0 0 1-2.121 1.171z"/><path fill="#000" d="M162.005 339.384c10.633-1.38 21.406-.92 31.909 1.16 3.501.771 6.982 1.781 10.292 3.241a1.72 1.72 0 0 1 .881 2.281 1.73 1.73 0 0 1-1.791 1.02c-3.461-.31-6.842-.72-10.253-1.05-5.121-.51-15.434-1.371-20.555-1.731-3.451-.26-6.952-.5-10.383-.83-2.401-.24-2.481-3.751-.1-4.101z"/><path fill="#000" d="M140.029 317.019c5.662-1.251 11.303-1.481 17.035-1.401 11.333.28 22.636 1.461 33.749 3.681 5.561 1.061 11.043 2.481 16.474 4.041a1.983 1.983 0 0 1 1.361 2.461 2.005 2.005 0 0 1-2.331 1.4c-2.741-.47-5.441-1.07-8.182-1.52-13.614-2.341-27.398-3.861-41.211-4.151-4.832-.16-11.833-.3-16.585-.61-2.24-.14-2.51-3.401-.32-3.891z"/></svg>