<svg xmlns="http://www.w3.org/2000/svg" width="480" height="480" fill="none" viewBox="0 0 480 480">
  <path
    fill="#AD5400"
    d="m309.557 138.151 4.804-4.978c-11.849-10.102-19.113-14.55-22.93-16.469 2.059 3.938 7.801 11.485 18.126 21.447"
  />
  <path
    fill="#AD5400"
    d="m329.104 146.495-4.685 4.856c12.022 9.857 21.051 15.274 25.98 17.35-3.001-3.883-7.526-9.254-21.295-22.206"
  />
  <path
    fill="#AD5400"
    d="M178.935 124.523c-7.987 4.334-13.618 8.227-18.425 11.991 4.468-1.118 11.365-3.393 20.469-7.232z"
  />
  <path
    fill="#AD5400"
    d="M220.018 108.208c-4.047.718-11.914 3.065-23.125 7.783l2.117 4.923c10.92-5.548 17.834-10.067 21.008-12.706"
  />
  <path
    fill="#7A42C8"
    d="M189.187 135.728a104 104 0 0 1 8.952-4.173l-5.866-13.648c-1.465.676-2.99 1.393-4.594 2.162a213 213 0 0 0-4.303 2.13z"
  />
  <path
    fill="#7A42C8"
    d="M178.883 86.75a4.943 4.943 0 0 0-6.465-2.646 4.9 4.9 0 0 0-2.649 2.683 4.9 4.9 0 0 0 .022 3.771l.787 1.834c3.077-1.355 6.216-2.86 8.867-4.335z"
  />
  <path
    fill="#7A42C8"
    d="M349.805 103.644c2.289 1.76 5.031 3.627 8.187 5.713l1.819-1.885a4.936 4.936 0 0 0-.125-6.97 4.95 4.95 0 0 0-3.51-1.381 4.9 4.9 0 0 0-3.46 1.506z"
  />
  <path
    fill="#7A42C8"
    d="M163.752 310.654a107 107 0 0 1-6.574-7.385l-13.544 14.036a4.935 4.935 0 0 0 .125 6.97 4.9 4.9 0 0 0 3.421 1.382 4.9 4.9 0 0 0 3.548-1.506z"
  />
  <path
    fill="#7A42C8"
    d="M325.451 143.081c-.389-.361-.774-.719-1.176-1.09a355 355 0 0 0-6.129-5.537l-12.133 12.573a105 105 0 0 1 7.316 6.617z"
  />
  <path
    fill="#7A42C8"
    d="M304.864 154.607c28.969 32.822 32.145 84.527 4.795 124.993-20.708 30.637-53.922 47.445-86.74 47.445-17.571 0-35.021-4.831-50.386-14.924a99.9 99.9 0 0 0 42.334 22.298 100.4 100.4 0 0 0 52.831-1.168l-1.781-4.231a2.5 2.5 0 0 1 4.608-1.94l4.189 9.951 12.96 30.781a4.927 4.927 0 0 0 6.456 2.63 4.937 4.937 0 0 0 2.631-6.457l-12.594-29.911c-.013-.028-.035-.049-.048-.078l-4.19-9.951a2.5 2.5 0 1 1 4.607-1.941l1.548 3.676c25.905-13.612 44.757-37.634 51.877-66.241 6.632-26.641 2.582-54.553-11.402-78.593-5.899-10.139-13.234-18.992-21.695-26.339"
  />
  <path
    fill="#000"
    d="M121.145 165.878c-10.036 7.765-15.905 22.318-18.153 34.464-.56 2.463-.832 6.187-1.114 8.723-.254 4.755-.039 9.498.429 14.223.313 1.99.91 5.494 1.27 7.525.619 3.135 5.216 2.474 4.941-.693-.156-1.436-.287-2.875-.46-4.304-.06-.521-.18-1.519-.273-2.302l-.089-.757c-.025-.606-.149-4.457-.173-5.119-.137-2.673.109-5.486.198-8.158.183-1.407.487-4.713.721-6.065.196-.995.576-2.998.757-3.997 1.982-9.933 6.51-19.216 11.836-27.801q1.11-1.785 2.256-3.53c1.127-1.431-.696-3.295-2.146-2.209"
  />
  <path
    fill="#000"
    d="M121.186 137.857c-4.381 3.129-8.14 6.729-11.745 10.655-25.496 27.787-32.78 68.171-20.862 103.627.77 2.241 4.061 1.292 3.594-.967-.547-2.507-1.163-4.994-1.667-7.499-.928-4.804-1.708-10.141-2.01-15.018-2.819-33.229 11.264-65.031 34.758-88.147a1.682 1.682 0 0 0-2.068-2.651"
  />
  <path
    fill="#000"
    d="M376.522 251.182c.265-1.205.394-3.135.549-4.368.359-2.549.304-6.188.378-8.792-.207-5.833-.908-11.71-2.878-17.23-.479-1.376-.964-2.745-1.529-4.082a1.77 1.77 0 0 0-3.398.784c.083 2.08.39 4.111.652 6.151.097.753.188 1.506.259 2.264.492 5.358 1.066 10.892.818 16.29-.408 11.961-3.635 24.045-9.689 34.424a65 65 0 0 1-2.379 3.789c-1.633 2.068 1.31 4.575 3.093 2.665 7.735-9.001 12.196-20.298 14.124-31.895"
  />
  <path
    fill="#000"
    d="M391.76 206.791c-.922-2.892-1.912-6.575-3.209-9.312-.903-1.52-1.437-4.907-3.746-4.521a1.916 1.916 0 0 0-1.53 2.237c.991 4.943 2.903 9.859 3.969 14.77 6.111 24.369 2.824 50.741-8.91 72.922a106 106 0 0 1-7.813 12.792c-2.852 4.031-6.161 7.887-8.858 11.983-1.697 2.201 1.013 5.076 3.309 3.545 4.641-3.163 7.836-7.386 10.924-11.719 3.074-4.327 5.815-8.879 8.248-13.592 12.76-24.174 15.152-52.931 7.616-79.105"
  />
  <path
    fill="#FF7B00"
    d="M365.984 137.115c-1.142-10.305-7.537-19.527-19.007-27.408-23.008-15.81-45.234-3.446-53.507 2.4 5.422 2.673 15.999 9.386 34.2 26.214 19.927 18.424 24.289 24.159 27.792 28.767l.375.492c3.743-4.881 11.643-16.975 10.147-30.465"
  />
  <path
    fill="#000"
    d="M370.955 136.601c-.706-6.431-3.145-12.446-7.256-18.005a2.5 2.5 0 0 0 1.37-4.586c-.971-.641-1.908-1.256-2.826-1.859l1.165-1.208c3.801-3.94 3.688-10.238-.251-14.04a9.86 9.86 0 0 0-7.071-2.782 9.86 9.86 0 0 0-6.969 3.033l-3.115 3.228c-1.648-1.63-2.844-3.23-3.523-4.903-14.148-34.835-57.605-53.961-103.34-45.48-25.027 4.641-44.795 20.063-53.284 33.29-.403.626-1.146 1.325-2.131 2.066l-.242-.562c-2.121-5.041-7.954-7.42-13.004-5.297a9.86 9.86 0 0 0-5.341 5.404 9.86 9.86 0 0 0 .052 7.616l.78 1.816a131 131 0 0 1-3.204 1.24 2.5 2.5 0 0 0-1.475 3.214 2.5 2.5 0 0 0 1.201 1.344c-16.965 14.904-12.518 35.956-11.675 39.297q.04.206.108.41l.013.042c.005.017.015.031.021.047.034.094.061.189.105.282.028.063.066.116.098.176l.054.096c.708 1.24 2.041 1.869 4.254 1.869 2.402-.001 5.834-.733 10.595-2.199 4.877-1.501 10.686-3.672 16.883-6.282l1.847 4.301c-13.805 8.11-25.85 19.402-35.204 33.241-15.5 22.933-21.772 50.114-17.658 76.538 1.82 11.695 5.579 22.621 11.05 32.425a107.8 107.8 0 0 0 11.109 18.893l-14.055 14.566c-3.802 3.939-3.689 10.237.25 14.039a9.88 9.88 0 0 0 6.894 2.784 9.85 9.85 0 0 0 7.146-3.034l13.003-13.476a104.9 104.9 0 0 0 46.329 25.125 105.7 105.7 0 0 0 25.531 3.133c10.281 0 20.539-1.522 30.457-4.521l13.419 31.87a9.91 9.91 0 0 0 13.003 5.297c5.046-2.124 7.423-7.958 5.298-13.005l-13.325-31.65c27.355-14.241 47.27-39.518 54.77-69.647 6.948-27.912 2.71-57.145-11.933-82.316a110.8 110.8 0 0 0-14.084-19.18l4.149-4.299c7.136 5.86 14.074 10.884 19.976 14.423 5.952 3.568 10.219 5.313 13.149 5.313 1.395 0 2.472-.418 3.299-1.201.085-.069.172-.134.247-.215.635-.681 15.512-16.903 13.341-36.671m-32.996 122.938c-7.12 28.606-25.972 52.628-51.877 66.24l-1.548-3.675a2.499 2.499 0 1 0-4.607 1.94l4.19 9.951c.012.029.035.05.048.078l12.594 29.911a4.937 4.937 0 0 1-4.54 6.846 4.92 4.92 0 0 1-4.547-3.019l-12.96-30.781-4.189-9.951a2.5 2.5 0 1 0-4.608 1.941l1.781 4.23a100.4 100.4 0 0 1-52.831 1.168 99.9 99.9 0 0 1-42.334-22.297c15.365 10.092 32.815 14.923 50.386 14.923 32.817 0 66.032-16.808 86.74-47.445 27.349-40.465 24.174-92.171-4.795-124.993 8.461 7.347 15.796 16.2 21.695 26.339 13.984 24.04 18.034 51.952 11.402 78.594m-194.2 64.734a4.934 4.934 0 0 1-.125-6.969l13.544-14.037a107 107 0 0 0 6.574 7.385l-13.024 13.497a4.9 4.9 0 0 1-3.548 1.506 4.9 4.9 0 0 1-3.421-1.382m26.03-233.714a4.9 4.9 0 0 1-.021-3.772 4.9 4.9 0 0 1 2.648-2.683 4.945 4.945 0 0 1 6.466 2.647l.561 1.306c-2.65 1.476-5.789 2.98-8.867 4.335zm189.896 9.942a4.937 4.937 0 0 1 .125 6.971l-1.819 1.884c-3.156-2.086-5.898-3.953-8.187-5.713l2.911-3.017a4.9 4.9 0 0 1 3.46-1.506 4.95 4.95 0 0 1 3.51 1.381m-3.851 67.077-.375-.492c-3.503-4.608-7.864-10.343-27.792-28.767-18.201-16.827-28.777-23.541-34.199-26.214 8.272-5.846 30.499-18.21 53.507-2.399 11.469 7.88 17.864 17.102 19.007 27.407 1.496 13.49-6.405 25.584-10.148 30.465m-41.473-34.406-4.804 4.979c-10.325-9.963-16.067-17.51-18.127-21.448 3.818 1.919 11.082 6.368 22.931 16.469M153.732 174.21c14.791-21.883 36.604-37.101 61.421-42.85 7.1-1.645 14.2-2.458 21.196-2.458 17.394 0 34.139 5.026 48.575 14.783 41.847 28.283 51.084 87.998 20.591 133.114-30.494 45.109-89.348 58.806-131.193 30.525-20.243-13.682-33.543-35.042-37.45-60.145-3.918-25.172 2.069-51.086 16.86-72.969m66.285-66.002c-3.175 2.639-10.089 7.158-21.009 12.706l-2.116-4.923c11.21-4.718 19.077-7.065 23.125-7.783m-40.482-12.37c6.187-2.396 11.613-3.351 16.335-3.351 12.096 0 19.571 6.27 23.326 10.672-6.902.837-18.267 5.007-33.68 12.402-15.077 7.235-23.484 13.21-30.585 19.009-1.218-8.515-1.1-28.774 24.604-38.732m-.601 28.685 2.044 4.759c-9.104 3.839-16.001 6.114-20.469 7.232 4.807-3.764 10.438-7.657 18.425-11.991m4.443-2.325a210 210 0 0 1 4.302-2.129c1.604-.77 3.129-1.486 4.595-2.162l5.865 13.647a105 105 0 0 0-8.952 4.174zm122.633 26.829 12.133-12.573a355 355 0 0 1 7.306 6.627l-12.123 12.563a105 105 0 0 0-7.316-6.617m23.094-2.533c13.768 12.952 18.293 18.323 21.295 22.206-4.93-2.076-13.958-7.493-25.981-17.35zM190.062 85.989c7.908-12.32 26.432-26.705 49.989-31.075 43.407-8.049 84.537 9.801 97.795 42.447.37.91.839 1.784 1.385 2.636-25.574-9.71-48.401 7.661-51.951 10.559a4 4 0 0 0-.416.347l-.064.055c-.015.014-.025.032-.04.046-.061.062-.128.115-.186.182-.071.082-.126.172-.19.258-.02.028-.043.052-.061.081-2.044 2.869-.079 7.754 6.325 15.735 3.537 4.409 8.155 9.373 13.443 14.482l-4.038 4.186a102.7 102.7 0 0 0-36.312-17.262 91 91 0 0 0-10.095-2.755l1.553-8.013c.46.075.899.144 1.295.201.524.076 1.31.191 2.175.191 1.98 0 4.373-.599 4.961-3.623.847-4.352-3.645-5.445-5.336-5.856a116 116 0 0 0-5.083-1.09c-7.764-1.505-8.754-1.422-10.356-.334a4.54 4.54 0 0 0-1.902 2.878c-.847 4.352 3.645 5.444 5.335 5.856.389.095.822.195 1.276.297l-1.589 8.2c-11.057-1.379-22.509-.78-33.951 1.871a103 103 0 0 0-11.21 3.281l-1.832-4.262c6.087-3.087 11.579-6.164 15.93-8.955 7.99-5.125 10.816-8.279 9.861-11.061l-.028-.075c-.035-.094-.062-.189-.105-.283-.01-.021-.024-.038-.034-.059-.008-.016-.011-.032-.019-.048-.127-.242-11.707-21.647-38.525-16.81.844-.75 1.53-1.496 2-2.228"
  />
  <path
    fill="#FF7B00"
    d="M154.931 134.571c7.102-5.799 15.508-11.774 30.585-19.009 15.413-7.395 26.779-11.564 33.681-12.401-3.756-4.403-11.231-10.673-23.326-10.673-4.723 0-10.149.956-16.335 3.352-25.704 9.957-25.822 30.216-24.605 38.731"
  />
  <path
    fill="#A17AD8"
    d="M174.324 307.324c41.845 28.281 100.699 14.584 131.193-30.525 30.493-45.116 21.256-104.83-20.591-133.114-14.436-9.757-31.181-14.782-48.575-14.782-6.996 0-14.096.812-21.196 2.457-24.817 5.749-46.631 20.967-61.421 42.85-14.791 21.884-20.778 47.798-16.86 72.969 3.907 25.103 17.207 46.463 37.45 60.145m134.5-101.227c3.391 21.786-1.778 44.195-14.555 63.1-17.072 25.257-44.458 39.113-71.521 39.113-14.813 0-29.528-4.15-42.406-12.854-17.663-11.938-29.264-30.549-32.666-52.403-3.391-21.786 1.778-44.195 14.556-63.099 12.777-18.905 31.643-32.056 53.123-37.032 21.545-4.993 43.139-1.166 60.803 10.772s29.264 30.549 32.666 52.403"
  />
  <path
    fill="#FFFBE8"
    d="M233.767 145.789c-5.705 0-11.493.662-17.282 2.003-20.246 4.69-38.041 17.106-50.109 34.961s-16.955 38.997-13.758 59.531c3.186 20.466 14.027 37.878 30.526 49.029 34.116 23.06 82.111 11.883 106.983-24.917 12.069-17.854 16.955-38.996 13.758-59.53-3.186-20.466-14.027-37.878-30.526-49.03-11.765-7.951-25.413-12.047-39.592-12.047m-44.661 84.056 32.064-9.595c1.839-5.687 16.003-48.834 16.034-48.977 1.056-3.013 5.539-1.713 4.796 1.414l-13.194 50.24c-.134.512-.366.97-.662 1.371-.334 1.103-1.203 2.067-2.727 2.469l-35.043 7.915c-3.122.636-4.305-3.851-1.268-4.837"
  />
  <path
    fill="#000"
    d="M215.354 142.922c-21.48 4.976-40.346 18.127-53.123 37.032s-17.947 41.314-14.556 63.1c3.402 21.854 15.003 40.464 32.666 52.403 12.878 8.704 27.593 12.854 42.406 12.854 27.063 0 54.449-13.856 71.521-39.114 12.777-18.904 17.946-41.314 14.555-63.1-3.402-21.854-15.002-40.464-32.666-52.403s-39.257-15.764-60.803-10.772m88.529 63.944c3.196 20.535-1.689 41.676-13.758 59.531-24.872 36.799-72.867 47.977-106.983 24.917-16.499-11.151-27.34-28.564-30.527-49.029-3.196-20.534 1.69-41.676 13.758-59.531 12.069-17.855 29.864-30.271 50.11-34.961 5.789-1.341 11.577-2.004 17.282-2.004 14.179 0 27.827 4.096 39.592 12.048 16.499 11.151 27.339 28.564 30.526 49.029"
  />
  <path
    fill="#000"
    d="m190.372 234.682 35.043-7.915c1.524-.402 2.393-1.366 2.727-2.469.296-.401.528-.859.662-1.371l13.194-50.24c.743-3.127-3.74-4.427-4.796-1.414-.031.143-14.195 43.29-16.034 48.977l-32.064 9.596c-3.037.985-1.854 5.472 1.268 4.836"
  />
  <path
    fill="#000"
    d="M224.121 432.423c49.679 0 89.952-5.711 89.952-12.755s-40.273-12.756-89.952-12.756-89.952 5.711-89.952 12.756c0 7.044 40.273 12.755 89.952 12.755"
  />
</svg>
