<svg xmlns="http://www.w3.org/2000/svg" width="480" height="480" fill="none" viewBox="0 0 480 480">
  <path
    fill="#FFD885"
    d="M324.785 185.413c6.007-22.171 3.124-43.708-8.338-62.282-12.65-20.501-35.378-35.823-60.797-40.988-23.346-4.745-46.666-1.556-65.666 8.98-20.42 11.319-34.226 30.026-39.926 54.099-5.929 25.035 4.067 52.206 15.399 69.286l.003.004.008.012a86 86 0 0 0 5.097 6.9q.08.099.15.204c3.828 5.781 6.676 11.647 8.466 17.434 1.797 5.806 2.193 12.1 1.149 18.203a14.3 14.3 0 0 0-.084 4.324c.152 1.144.316 2.429.483 3.79 4.173 1.321 14.998 4.602 29.423 7.895 7.508-33.727 25.907-55.833 40.441-67.057-1.396-1.731-2.235-3.873-2.435-6.367-.215-2.684.329-5.473 1.402-8.023-4.563-.688-7.671-3.289-9.279-6.063-7.344 4.609-16.868 3.385-21.851-.615-1.406-1.129-2.441-2.456-3.09-3.923-4.05 2.813-8.364 5.086-11.73 5.831-5.116 1.13-8.992-.652-10.628-4.895-1.15-2.983-1.08-7.875 5.78-14.246a2.501 2.501 0 0 1 3.402 3.664c-2.173 2.018-5.65 5.843-4.517 8.783.578 1.497 1.515 2.084 3.239 2.032 3.962-.123 9.342-3.353 13.791-6.845.147-.9.406-1.82.778-2.751 1.679-4.205 5.952-8.693 9.412-8.403 1.657.138 2.843 1.302 2.95 2.895.166 2.456-3.451 6.739-8.238 10.715.172 1.247.83 2.32 1.982 3.244 3.739 3.003 11.6 3.622 16.9-.292q.197-.146.39-.293c-.523-4.89.334-11.392 2.76-15.343 2.064-3.36 4.656-3.995 6.44-3.96 1.959.051 3.494 1.24 4.104 3.179 1.288 4.094-1.857 12.176-7.873 18.016q.108.305.236.541c.562 1.039 2.677 4.124 7.947 3.898 2.083-2.53 4.726-4.341 7.499-4.79 3.656-.595 4.208 2.084 4.26 2.391.552 3.296-4.938 6.411-8.968 7.112-1.412 2.27-2.327 5.082-2.114 7.741.13 1.624.685 2.876 1.517 3.835 4.019-2.691 7.581-4.446 10.306-5.284 5.965-1.834 8.798.454 9.74 1.523 1.439 1.634 1.745 3.95.798 6.043-1.602 3.542-6.052 5.655-11.908 5.655h-.017c-3.462-.002-6.442-.621-8.835-1.78-13.468 10.111-32.226 31.321-39.709 64.913 9.972 2.149 21.338 4.207 33.236 5.618 1-1.449 1.763-2.921 2.164-4.448q.165-.63.336-1.317c1.685-6.717 4.505-17.961 23.353-30.564a3 3 0 0 1 .268-.157 86 86 0 0 0 10.723-6.405c15.322-10.743 33.789-29.958 39.671-51.669"
  />
  <path
    fill="#FFD885"
    d="M270.946 203.508c.204-.452.054-.622.005-.678-.343-.39-1.73-.904-4.519-.048-1.674.514-3.905 1.554-6.51 3.135 1.218.224 2.462.34 3.672.306 4.834 0 6.895-1.706 7.352-2.715"
  />
  <path
    fill="#FFD885"
    d="M245.872 167.938c-1.17 1.905-1.833 4.779-2.074 7.558 2.705-3.795 3.84-7.584 3.676-9.082-.387.116-.954.469-1.602 1.524"
  />
  <path
    fill="#7A42C8"
    d="M187.321 328.868c.05 3.274 2.573 6.316 6.239 7.184l10.816 2.562c3.899.922 7.743-.931 9.059-4.193-8.552-1.097-18.243-3.224-26.114-5.553"
  />
  <path
    fill="#000"
    d="M349.557 155.548c5.522-2.628 11.066-5.161 15.905-9.008 1.992-1.665.418-5.018-2.164-4.508-6.029 1.371-11.471 4.113-16.975 6.779-4.196 2.325-1.214 8.565 3.234 6.737"
  />
  <path
    fill="#000"
    d="M353.442 205.05c-2.156-3.478-4.662-6.785-8.33-8.811-2.024-1.113-4.554.895-3.894 3.137 1.718 5.255 5.606 9.48 10.111 12.55 2.034 1.283 4.722-.841 3.894-3.136-.458-1.357-1.105-2.56-1.781-3.74"
  />
  <path
    fill="#000"
    d="M372.103 175.958c-3.892-.964-7.842-1.493-11.813-1.935-4.098-.276-8.008-1.216-12.058.419-1.254.478-1.459 2.325-.319 3.059 1.869 1.282 3.816 1.817 5.784 2.146 3.946.577 7.906 1.004 11.889 1.207 1.991.112 3.989.152 5.999.077a2.525 2.525 0 0 0 .518-4.973"
  />
  <path
    fill="#000"
    d="M126.043 152.177c-3.235-.667-6.12.289-9.09 1.294-2.92 1.033-5.75 2.218-8.399 3.902-1.641 1.02-.956 3.709 1.003 3.786 3.136.152 6.181-.221 9.23-.77 3.077-.597 6.057-1.196 8.537-3.378 1.701-1.421.929-4.438-1.281-4.834"
  />
  <path
    fill="#000"
    d="M141.617 105.203c-1.817-3.663-4.022-7.125-7.062-9.933-1.759-1.629-4.785-.053-4.413 2.352a32.96 32.96 0 0 0 6.631 14.728 3.669 3.669 0 0 0 6.311-3.363c-.358-1.331-.884-2.573-1.467-3.784"
  />
  <path
    fill="#000"
    d="M126.188 126.501a96 96 0 0 0-11.433-3.476c-1.939-.466-3.902-.857-5.907-1.106a2.536 2.536 0 0 0-1.44 4.788c3.608 1.773 7.381 3.062 11.211 4.214 3.988 1.089 7.709 2.517 12.006 1.572 4.006-1.829-2.817-5.391-4.437-5.992"
  />
  <path
    fill="#000"
    d="M256.643 77.243c-24.509-4.98-49.045-1.604-69.086 9.506-21.683 12.02-36.333 31.841-42.367 57.32-5.341 22.554.653 49.877 16.038 73.112q.055.09.118.178a91 91 0 0 0 5.267 7.134c3.53 5.349 6.15 10.748 7.79 16.046 1.564 5.058 1.909 10.55.996 15.881a19.4 19.4 0 0 0-.112 5.83c.163 1.222.313 2.407.456 3.572-1.25 1.185-3.523 3.829-3.765 7.58-.149 2.298.305 4.356.829 5.9-1.276 1.316-3.169 3.81-3.392 7.219-.192 2.92.583 5.455 1.242 7.032-1.399 1.445-3.189 3.995-2.901 7.404.264 3.133 1.531 5.559 2.754 7.217-1.188 1.296-2.333 3.436-2.131 6.368.368 5.306 5.13 9.181 9.096 10.887a71 71 0 0 0 4.933 1.876c-.789 6.116 3.478 12.068 9.997 13.612l10.817 2.561c1.061.252 2.121.372 3.162.372 5.65 0 10.704-3.552 12.129-8.892 1.876.151 3.657.236 5.3.242h.055c1.889 0 10.696-.356 13.749-6.799a9.95 9.95 0 0 0 .922-5.107c3.021-.976 5.89-3.415 7.19-7.397.742-2.275.707-4.277.478-5.736.087-.067.179-.119.264-.191 2.26-1.942 3.331-5.429 3.391-8.023a12.5 12.5 0 0 0-.794-4.65c.157-.113.32-.213.471-.342 2.261-1.944 3.329-5.426 3.384-8.014a12.55 12.55 0 0 0-1.095-5.365c1.554-2.104 2.797-4.335 3.44-6.78q.171-.657.349-1.372c1.604-6.392 4.024-16.044 21.156-27.539a91 91 0 0 0 11.209-6.71c16.038-11.245 35.396-31.456 41.627-54.455 6.377-23.539 3.297-46.435-8.909-66.215-13.562-21.978-36.91-37.747-64.057-43.262m17.478 166.4c-18.848 12.604-21.669 23.847-23.354 30.565q-.17.686-.335 1.317c-.402 1.526-1.165 2.999-2.164 4.448-11.898-1.412-23.264-3.469-33.237-5.619 7.483-33.591 26.241-54.802 39.709-64.913 2.394 1.159 5.374 1.778 8.835 1.781h.018c5.855 0 10.306-2.114 11.908-5.655.946-2.094.641-4.41-.799-6.044-.941-1.068-3.775-3.356-9.739-1.522-2.725.837-6.287 2.592-10.307 5.283-.832-.958-1.386-2.21-1.516-3.835-.214-2.658.702-5.471 2.114-7.74 4.029-.701 9.52-3.816 8.967-7.112-.051-.307-.603-2.987-4.259-2.392-2.773.45-5.416 2.26-7.499 4.79-5.27.227-7.386-2.859-7.947-3.897a4 4 0 0 1-.236-.541c6.016-5.841 9.161-13.922 7.873-18.017-.61-1.939-2.145-3.127-4.104-3.179-1.784-.035-4.376.601-6.44 3.96-2.427 3.952-3.284 10.454-2.761 15.343q-.191.148-.389.294c-5.3 3.913-13.161 3.294-16.9.292-1.152-.925-1.81-1.998-1.983-3.245 4.788-3.976 8.405-8.258 8.239-10.714-.107-1.594-1.293-2.757-2.95-2.895-3.46-.29-7.733 4.197-9.413 8.402a13.2 13.2 0 0 0-.777 2.752c-4.45 3.492-9.83 6.722-13.791 6.845-1.725.052-2.661-.535-3.239-2.033-1.133-2.939 2.344-6.764 4.517-8.782a2.501 2.501 0 0 0-3.402-3.664c-6.86 6.371-6.93 11.263-5.78 14.245 1.636 4.244 5.511 6.025 10.628 4.895 3.366-.744 7.679-3.017 11.73-5.83.649 1.466 1.684 2.793 3.09 3.922 4.982 4.001 14.507 5.225 21.851.616 1.608 2.773 4.716 5.375 9.279 6.062-1.073 2.551-1.617 5.34-1.402 8.023.2 2.494 1.039 4.637 2.435 6.368-14.534 11.223-32.933 33.33-40.441 67.056-14.425-3.292-25.25-6.574-29.424-7.895-.166-1.361-.33-2.645-.483-3.789a14.3 14.3 0 0 1 .085-4.325c1.044-6.103.647-12.397-1.149-18.202-1.79-5.788-4.638-11.653-8.466-17.434a3 3 0 0 0-.15-.204 85 85 0 0 1-5.105-6.913l-.003-.004c-11.332-17.079-21.328-44.25-15.4-69.286 5.701-24.072 19.507-42.779 39.927-54.1 19-10.534 42.32-13.723 65.666-8.979 25.419 5.165 48.147 20.488 60.797 40.989 11.461 18.574 14.345 40.11 8.338 62.281-5.882 21.712-24.35 40.926-39.671 51.67a86 86 0 0 1-10.724 6.405 2 2 0 0 0-.267.156m-69.747 94.97-10.816-2.562c-3.666-.868-6.189-3.91-6.239-7.184 7.871 2.328 17.562 4.456 26.114 5.553-1.316 3.262-5.159 5.115-9.059 4.193m19.458-8.413c-12.853-.049-34.411-5.073-44.381-9.364-2.005-.862-5.857-3.36-6.084-6.64-.071-1.038.207-1.766.501-2.231 6.429 1.74 33.874 8.899 59.68 11.619.07.733.017 1.692-.449 2.675-1.484 3.133-6.504 3.981-9.267 3.941m24.092-41.365c-.035 1.665-.758 3.566-1.645 4.329-.334.287-.577.323-.839.289-33.531-4.355-61.969-12.97-67.491-14.704-.45-1-1.12-2.885-.982-5.024.106-1.643 1.003-2.961 1.705-3.753 6.63 2.117 35.365 10.888 68.196 14.87.467.82 1.094 2.252 1.056 3.993m-6.948 25.511c-.951 2.912-3.334 4.376-5.341 4.424q-1.936-.192-3.886-.419c-29.424-3.769-52.533-10.719-56.035-11.806-.746-.679-2.702-2.751-2.976-6.008-.126-1.498.766-2.742 1.469-3.476 6.681 1.975 37.331 10.715 67.084 14.023a7.4 7.4 0 0 1-.315 3.262m2.237-8.169c-.036.031-.067.048-.1.073-9.363-.991-18.856-2.547-27.68-4.278-20.641-4.16-36.134-8.869-40.063-10.106-.446-1-1.106-2.881-.966-5.018.097-1.483.832-2.698 1.488-3.506 3.995 1.272 33.285 10.366 68.171 14.97.409.845.833 2.074.8 3.522-.039 1.673-.763 3.581-1.65 4.343m16.708-100.261c2.605-1.581 4.836-2.621 6.51-3.136 2.789-.855 4.176-.341 4.519.049.05.055.2.225-.005.677-.456 1.01-2.518 2.716-7.352 2.716a17.8 17.8 0 0 1-3.672-.306m-16.126-30.42c.241-2.779.904-5.653 2.075-7.558.648-1.055 1.215-1.408 1.601-1.524.164 1.498-.971 5.287-3.676 9.082"
  />
  <path
    fill="#A17AD8"
    d="M244.064 298.311c-34.886-4.604-64.176-13.697-68.17-14.97-.656.808-1.391 2.023-1.489 3.506-.14 2.137.52 4.018.966 5.018 3.929 1.237 19.423 5.946 40.063 10.106 8.824 1.731 18.317 3.287 27.68 4.278.033-.025.064-.042.1-.073.887-.762 1.612-2.67 1.65-4.343.033-1.448-.391-2.677-.8-3.522"
  />
  <path
    fill="#7A42C8"
    d="M246.869 284.841c-32.831-3.982-61.566-12.753-68.197-14.87-.701.792-1.598 2.11-1.704 3.753-.138 2.139.532 4.024.982 5.024 5.522 1.734 33.959 10.349 67.491 14.704.261.034.505-.002.839-.289.887-.763 1.61-2.664 1.645-4.33.038-1.74-.589-3.172-1.056-3.992"
  />
  <path
    fill="#7A42C8"
    d="M174.208 297.059c-.703.735-1.595 1.978-1.469 3.476.275 3.257 2.23 5.329 2.976 6.009 3.502 1.086 26.611 8.036 56.035 11.806q1.95.226 3.886.418c2.007-.048 4.391-1.512 5.341-4.424a7.4 7.4 0 0 0 .315-3.262c-29.753-3.307-60.402-12.048-67.084-14.023"
  />
  <path
    fill="#A17AD8"
    d="M233.1 326.258a5.1 5.1 0 0 0 .449-2.675c-25.806-2.72-53.251-9.88-59.68-11.619-.294.465-.572 1.192-.501 2.231.227 3.279 4.079 5.777 6.084 6.64 9.97 4.29 31.528 9.315 44.381 9.363 2.763.041 7.783-.807 9.267-3.94"
  />
  <path
    fill="#000"
    d="M205.702 405.613c22.809 0 41.299-5.711 41.299-12.756s-18.49-12.756-41.299-12.756-41.299 5.711-41.299 12.756 18.49 12.756 41.299 12.756"
  />
</svg>
