<svg xmlns="http://www.w3.org/2000/svg" width="370" height="231" fill="none" viewBox="0 0 370 231"><path fill="#000" d="M367.463 95.566a30 30 0 0 0-5.966-8.83 30.02 30.02 0 0 0-17.636-14.916c-34.215-10.846-87.85-24.693-150.349-29.675-3.94-4.997-8.648-9.602-14.037-13.73a89 89 0 0 0-11.4-8.695C147.938 6.742 122.059.733 95.209 2.79 68.359 4.848 43.7 14.737 25.778 30.633 7.68 46.684-1.411 66.935.178 87.655c1.866 24.328 18.785 46.183 45.376 58.746-1.637 9.619-5.318 16.613-8.2 20.865-3.308 4.883-6.31 7.316-6.336 7.337a2.256 2.256 0 0 0 1.619 4.014c13.506-1.298 23.396-6.02 29.315-9.753 6.273-3.957 11.175-8.776 13.508-13.205 10.276 1.733 20.889 2.198 31.58 1.376 15.404-1.181 30.078-4.951 43.181-10.942a29.7 29.7 0 0 0 7.851 14.774c3.965 7.756 11.275 13.646 20.473 15.603 21.806 4.637 54.677 11.459 88.823 17.927a64.6 64.6 0 0 0 5.717 8.061c12.412 20.029 32.606 27.633 33.572 27.986.253.093.514.138.772.138a2.261 2.261 0 0 0 1.775-3.657c-.073-.092-6.915-9.016-7.398-26.231l3.333.582c13.332 2.313 26.618-4.641 32.316-16.912l29.76-64.113a29.97 29.97 0 0 0 .248-24.685M74.541 150.914a2.26 2.26 0 0 0-2.517 1.418c-2.236 5.881-14.08 17.133-33.437 20.873 4.15-5.111 9.783-14.262 11.694-27.824a2.26 2.26 0 0 0-1.305-2.371C23.013 131.263 6.453 110.441 4.68 87.31c-1.478-19.279 7.079-38.207 24.095-53.3C45.964 18.766 69.68 9.276 95.554 7.292a130 130 0 0 1 9.974-.384c22.241 0 43.284 5.77 60.102 16.608 19.118 12.32 30.461 29.722 31.939 49 1.479 19.279-7.078 38.207-24.093 53.299-17.19 15.246-40.907 24.736-66.782 26.721-10.903.835-21.72.291-32.153-1.621m132.78-74.316c-.816-10.635-4.412-20.663-10.331-29.637 60.432 5.197 112.218 18.611 145.506 29.162a25.5 25.5 0 0 1 15.633 14.028 25.46 25.46 0 0 1-.21 20.967l-29.76 64.112c-4.839 10.425-16.13 16.329-27.449 14.365q-2.985-.519-5.993-1.051a2.256 2.256 0 0 0-2.65 2.199c-.122 11.575 2.412 20 4.729 25.254-8.125-4.465-22.161-14.25-29.303-31.346a2.26 2.26 0 0 0-1.683-1.393c-35.108-6.617-69.152-13.678-91.527-18.437-8.363-1.779-14.888-7.388-18.056-14.672 33.342-15.541 53.344-44.214 51.094-73.55"/><path fill="#A17AD8" d="M174.283 164.819c22.375 4.759 56.418 11.821 91.527 18.438.763.143 1.399.67 1.683 1.393 7.142 17.096 21.178 26.88 29.303 31.346-2.317-5.255-4.852-13.68-4.729-25.254a2.258 2.258 0 0 1 2.65-2.199q3.008.531 5.993 1.051c11.319 1.963 22.61-3.941 27.449-14.366l29.759-64.111a25.46 25.46 0 0 0 .211-20.967 25.5 25.5 0 0 0-15.632-14.029c-33.288-10.55-85.075-23.964-145.508-29.162 5.92 8.974 9.516 19.003 10.332 29.638 2.249 29.337-17.753 58.01-51.094 73.551 3.168 7.284 9.692 12.893 18.056 14.671m134.343 3.232a1.55 1.55 0 0 1-1.831.897c-15.782-4.087-31.93-8.141-47.9-11.451-9.324-1.907-19.703-3.947-29.013-5.557-2.29-.391-1.961-3.78.397-3.685 19.936 1.43 39.612 5.287 58.741 10.996a187 187 0 0 1 18.778 6.77 1.55 1.55 0 0 1 .828 2.03m7.547-17.525a1.796 1.796 0 0 1-2.21 1.146l-6.119-1.691c-22.386-6.25-45.128-11.27-68.075-14.953-7.278-1.196-17.812-2.858-24.979-4.121-2.113-.35-1.924-3.499.271-3.529 8.61.058 17.075 1.071 25.549 2.379 16.857 2.701 33.562 6.322 50.003 10.914 8.238 2.217 16.361 4.848 24.435 7.58a1.794 1.794 0 0 1 1.125 2.275"/><path fill="#D5C3EE" d="M173.475 125.815c17.016-15.092 25.573-34.02 24.094-53.299s-12.822-36.681-31.939-49.001c-16.819-10.837-37.862-16.608-60.103-16.608-3.301 0-6.629.128-9.973.385-25.875 1.984-49.591 11.473-66.78 26.72C11.757 49.102 3.2 68.031 4.678 87.31c1.774 23.132 18.334 43.954 44.297 55.701a2.255 2.255 0 0 1 1.305 2.371c-1.912 13.562-7.545 22.712-11.695 27.824 19.357-3.741 31.202-14.992 33.438-20.874a2.26 2.26 0 0 1 2.516-1.418c10.433 1.913 21.251 2.457 32.154 1.621 25.875-1.985 49.592-11.474 66.781-26.72M68.095 50.063q-4.717 1.02-9.352 2.34c-3.11.815-6.071 2.087-9.353 2.17-1.74.18-2.727-2.1-1.33-3.212 2.78-2.268 5.98-2.978 9.232-3.977a156 156 0 0 1 9.614-2.52c1.613-.396 4.838-1.09 6.466-1.396 22.617-4.493 46.061-5.089 68.983-2.921 3.157.377 6.713.59 9.747 1.666a1.9 1.9 0 0 1-.383 3.684c-3.759.484-7.698-.219-11.421-.532-3.053-.17-8.272-.498-11.296-.633l-9.691-.158-6.458.142c-15.02.41-30.085 2.133-44.759 5.347M99.37 64.63c-7.53.74-14.925 2.61-22.496 3.048-1.514.104-2.073-2.058-.646-2.668 7.157-3.115 14.88-4.162 22.5-5.342 22.92-3.08 46.452-2.005 69.019 2.973a1.753 1.753 0 0 1-.625 3.451c-3.775-.42-7.517-.997-11.286-1.357-18.75-2.168-37.725-2.392-56.466-.105m41.483 13.684c7.647-.818 15.325.432 22.689 2.46a1.889 1.889 0 0 1-.81 3.68c-3.653-.5-7.287-1.016-10.941-1.439-3.231-.377-7.845-.824-10.996-1.38-1.875-.326-1.809-3.07.058-3.321"/><path fill="#000" d="m119.311 44.572 9.692.158c3.023.135 8.242.464 11.295.634 3.723.312 7.662 1.015 11.421.531a1.901 1.901 0 0 0 .383-3.684c-3.034-1.076-6.59-1.29-9.747-1.666-22.922-2.168-46.366-1.572-68.982 2.92-1.63.307-4.853 1.001-6.467 1.397a155 155 0 0 0-9.614 2.52c-3.252 1-6.453 1.71-9.232 3.977-1.397 1.113-.409 3.393 1.33 3.212 3.282-.082 6.242-1.355 9.353-2.17q4.635-1.318 9.351-2.34c14.674-3.214 29.74-4.936 44.759-5.347z"/><path fill="#000" d="M307.797 166.023a187 187 0 0 0-18.778-6.77c-19.129-5.709-38.805-9.567-58.74-10.996-2.359-.096-2.688 3.294-.398 3.685 9.311 1.61 19.689 3.65 29.014 5.557 15.97 3.31 32.117 7.364 47.9 11.451a1.551 1.551 0 0 0 1.002-2.927"/><path fill="#000" d="M315.047 148.251c-8.074-2.732-16.197-5.363-24.435-7.58-16.441-4.592-33.145-8.213-50.003-10.914-8.474-1.308-16.938-2.321-25.549-2.379-2.195.03-2.384 3.179-.27 3.529 7.166 1.263 17.701 2.925 24.978 4.12 22.947 3.684 45.689 8.704 68.076 14.954l6.118 1.691a1.794 1.794 0 0 0 1.085-3.421"/><path fill="#000" d="M155.835 64.736c3.769.36 7.512.937 11.286 1.357a1.754 1.754 0 0 0 .625-3.45c-22.566-4.979-46.098-6.054-69.018-2.974-7.621 1.18-15.343 2.227-22.5 5.342-1.428.61-.869 2.772.646 2.668 7.57-.438 14.965-2.308 22.496-3.048 18.741-2.287 37.716-2.063 56.465.105"/><path fill="#000" d="M151.791 83.016c3.654.422 7.288.938 10.941 1.438a1.89 1.89 0 0 0 .81-3.68c-7.364-2.028-15.042-3.278-22.689-2.46-1.868.252-1.933 2.995-.059 3.322 3.152.556 7.766 1.003 10.997 1.38"/><path fill="#000" d="M3.611 16.022a130 130 0 0 1 7.826-6.364c2.72-2.027 5.518-3.936 8.393-5.44 2.535-1.575.317-5.336-2.284-3.896-6.13 3.683-11.23 8.234-16.354 13.09-1.617 1.617.687 4.099 2.419 2.61"/><path fill="#000" d="M2.07 29.83c-1.282 1.596.925 3.65 2.429 2.27a174 174 0 0 1 7.133-6.313c7.205-6.11 14.98-11.575 23.366-15.917a2.217 2.217 0 0 0-1.927-3.994c-2.986 1.418-5.933 2.94-8.703 4.723-8.346 5.279-15.965 11.619-22.299 19.23"/><path fill="#000" d="M345.535 193.109c-6.846 3.611-.485 13.505 5.863 10.388 6.846-3.611.486-13.506-5.863-10.388"/><path fill="#000" d="M363.35 173.955q-1.551-.949-3.114-1.207-1.564-.259-2.96.349-1.397.609-2.369 2.2a8.8 8.8 0 0 0-.876 1.924l-4.175 12.641 5.491 3.356 9.136-9.225a10 10 0 0 0 1.487-1.851q1.483-2.427.635-4.571-.847-2.145-3.255-3.616"/></svg>