<svg xmlns="http://www.w3.org/2000/svg" width="346" height="259" fill="none" viewBox="0 0 346 259"><path fill="#000" d="M176.453 258.664c91.915 0 166.427-5.162 166.427-11.53s-74.512-11.529-166.427-11.529-166.427 5.162-166.427 11.529c0 6.368 74.512 11.53 166.427 11.53"/><path fill="#A17AD8" d="M177.053 135.098s.099 8.39 3.396 36.32c4.33 36.652 16.799 78.057 63.369 79.683 65.301 2.29 94.128-9.065 98.988-28.163l-95.79-7.241-66.962-90.571-3.01 9.963z"/><path fill="#000" d="M259.62 253.643q-7.614-.002-15.874-.287c-21.686-.764-38.287-10.106-49.355-27.768-8.13-12.981-13.421-30.615-16.17-53.9-3.279-27.732-3.413-36.212-3.413-36.554 0-.224.026-.458.098-.674l3.01-9.962a2.22 2.22 0 0 1 1.77-1.563 2.26 2.26 0 0 1 2.191.88l66.352 89.744 94.766 7.16a2.24 2.24 0 0 1 1.653.925 2.23 2.23 0 0 1 .35 1.869c-2.74 10.753-12.28 18.721-28.342 23.689-13.871 4.285-33.014 6.45-57.027 6.45zm-80.312-118.239c.054 1.805.485 11.292 3.378 35.754 3.854 32.573 14.382 76.062 61.222 77.706 56.524 1.985 88.756-6.055 95.898-23.896l-92.943-7.025a2.22 2.22 0 0 1-1.635-.907l-64.303-86.968-1.608 5.336z"/><path fill="#A17AD8" d="M330.4 179.845c3.36.395 1.977 8.947-5.498 18.559-22.171 28.496-57.287 22.522-59.82 23.654l-21.92-23.348"/><path fill="#000" d="M265.082 224.303a2.2 2.2 0 0 1-1.635-.71l-21.92-23.348a2.235 2.235 0 0 1 .099-3.171 2.25 2.25 0 0 1 3.171.099l21.12 22.495c.719-.036 1.653-.036 2.956-.027 9.971.063 36.463.251 54.26-22.621 5.929-7.626 7.15-13.547 6.692-15.011a2.247 2.247 0 0 1 .836-4.402c1.464.171 2.65 1.087 3.243 2.525 1.662 3.961-1.312 12.046-7.232 19.646-19.153 24.615-47.262 24.426-57.835 24.354-1.222 0-2.596-.018-3.037.045a2.3 2.3 0 0 1-.727.126z"/><path fill="#FFB921" d="M220.264 127.813s22.566 60.844 75.909 52.032c21.848-3.612 46.597-13.071 26.843 10.726-24.534 29.546-59.821 23.653-59.821 23.653l-21.919-23.348-21.003-63.063z"/><path fill="#000" d="M271.002 216.982c-4.725 0-7.771-.476-8.193-.548a2.28 2.28 0 0 1-1.267-.674l-21.919-23.348a2.2 2.2 0 0 1-.494-.826l-21.003-63.064a2.242 2.242 0 0 1 4.231-1.491c.054.152 5.686 15.092 17.625 28.729 15.775 18.029 34.55 25.387 55.814 21.874 3.872-.638 7.843-1.464 11.679-2.264 12.486-2.605 21.515-4.482 24.291.126 1.967 3.27-.144 8.202-7.034 16.512-18.084 21.776-41.513 24.974-53.73 24.974m-6.729-4.887c5.049.593 35.521 2.919 57.009-22.962 7.717-9.289 6.657-11.301 6.648-11.328-1.132-1.878-13.098.611-19.521 1.949-3.881.809-7.897 1.644-11.867 2.3-22.62 3.737-43.372-4.375-60.018-23.456a101 101 0 0 1-6.307-8.031l13.026 39.114 21.039 22.405z"/><path fill="#FFB921" d="M30.345 188.711s22.306 5.741 39.518-7.079c17.213-12.819 41.243-19.404 74.383-104.917 0 0 12.945-43.237 45.07-30.05 0 0 21.263-.565 24.605 7.547 10.987 26.68 17.114 74.751 27.786 100.111 27.714 65.839 103.713 57.673 101.854 64.528-4.537 16.745-67.079 30.903-107.46 21.362-24.893-5.884-33.687-17.508-37.595-26.573-7.421-17.23-14.724-78.03-14.481-102.213.134-13.358-14.221 61.707-18.075 70.682-19.916 46.3-30.121 72.136-69.595 67.312-39.473-4.815-66.01-60.71-66.01-60.71"/><path fill="#000" d="M343.561 221.087a2.26 2.26 0 0 1-2.048-1.32c-1.438-3.189-6.163-3.558-14.383-3.926-8.786-.395-19.709-.88-31.46-6.441-18.55-8.777-33.4-18.29-45.608-36.239-13.197-19.395-21.929-47.019-27.499-86.95-2.865-20.519-10.007-29.664-15.505-33.724-3.917-2.893-8.301-4.133-12.316-3.486a2.255 2.255 0 0 1-2.579-1.86 2.253 2.253 0 0 1 1.86-2.578c5.228-.835 10.798.692 15.703 4.312 6.19 4.573 14.203 14.652 17.284 36.716 11.948 85.656 37.901 104.297 70.583 119.758 10.933 5.174 21.362 5.632 29.744 6.009 8.741.387 15.64.701 18.281 6.567a2.254 2.254 0 0 1-1.123 2.974 2.2 2.2 0 0 1-.925.197z"/><path fill="#000" d="M259.288 244.417c-13.26 0-23.726-1.41-32.458-4.285-14.858-4.896-24.893-14.266-31.567-29.483-13.215-30.122-16.682-101.297-13.143-115.168a2.234 2.234 0 0 1 2.731-1.617 2.234 2.234 0 0 1 1.617 2.731c-3.342 13.116.287 83.51 12.9 112.257 11.912 27.148 34.901 34.855 87.84 29.465 38.781-3.952 49.831-11.588 52.975-15.783 1.411-1.887 1.204-3.091 1.195-3.136a.3.3 0 0 0 .027.099l4.303-1.284c.144.476.746 3.045-1.527 6.441-4.052 6.054-17.141 14.122-56.515 18.128-10.726 1.096-20.105 1.644-28.387 1.644z"/><path fill="#fff" d="M199.386 170.223c.216 1.007.881 2.516 1.77 5.031z"/><path fill="#000" d="M201.587 169.756c.009.512.35 1.743.485 2.318l.656 2.641a1.674 1.674 0 0 1-3.144 1.105l-1.177-2.372c-.422-.88-.907-1.725-1.213-2.74-1.168-3.414 4.079-4.536 4.393-.952"/><path fill="#fff" d="M195.469 143.722c.485 5.678.548 7.879 1.537 13.772z"/><path fill="#000" d="M197.706 143.534c1.096 4.563 1.348 8.938 1.509 13.592-.009 2.578-3.602 3.144-4.428.736-1.447-4.455-1.941-9.279-1.555-13.951a2.285 2.285 0 0 1 2.507-2.057 2.29 2.29 0 0 1 1.967 1.671z"/><path fill="#fff" d="m194.373 123.976-.161 3.827z"/><path fill="#000" d="m196.619 124.075.108 3.845a2.526 2.526 0 0 1-2.452 2.596c-1.528.054-2.767-1.302-2.588-2.811l.441-3.818c.368-2.758 4.365-2.561 4.491.188"/><path fill="#fff" d="M249.774 192.421s9.819 12.281 24.264 19.099z"/><path fill="#000" d="M251.535 191.011c5.165 5.354 10.915 10.385 17.005 14.706 2.031 1.527 4.16 2.865 6.253 4.393 1.464 1.06.287 3.395-1.437 2.856-7.726-2.398-14.338-7.429-20.051-13.026-1.887-1.913-3.648-3.854-5.283-6.117-1.608-2.327 1.599-4.887 3.513-2.803z"/><path fill="#FFB921" d="M181.249 45.102s5.012-28.63 25.728-42.482c0 0 7.708 1.778 12.11 15.523 0 0-16.116 9.36-24.875 30.552"/><path fill="#000" d="M194.212 50.933a2.253 2.253 0 0 1-2.075-3.108c7.429-17.985 19.871-27.652 24.255-30.634-3.073-8.409-7.313-11.22-9.109-12.074-18.866 13.377-23.78 40.084-23.824 40.363a2.24 2.24 0 0 1-2.597 1.823 2.24 2.24 0 0 1-1.823-2.596c.215-1.204 5.426-29.735 26.689-43.965A2.28 2.28 0 0 1 207.48.42c.369.08 9.011 2.237 13.745 17.023a2.24 2.24 0 0 1-1.006 2.624c-.153.09-15.587 9.289-23.923 29.465a2.26 2.26 0 0 1-2.075 1.393z"/><path fill="#A17AD8" d="M216.356 7.614c3.126 4.348 4.698 8.858 3.512 10.07-1.186 1.214-6.046-.61-9.163-4.958-3.126-4.348-4.914-8.894-3.728-10.115 1.186-1.213 6.262.646 9.379 4.994z"/><path fill="#000" d="M218.736 20.299c-.134 0-.278 0-.422-.018-2.515-.189-6.549-2.219-9.441-6.243-1.608-2.237-6.621-9.801-3.513-12.99.521-.54 1.491-1.15 3.18-1.033 2.686.197 6.864 2.425 9.639 6.279.692.961 6.657 9.495 3.297 12.945-.476.494-1.329 1.051-2.74 1.051zm-9.756-15.65c.36 1.348 1.438 3.837 3.54 6.766 1.824 2.542 4.114 3.808 5.399 4.23-.297-1.338-1.312-3.826-3.396-6.728-1.743-2.425-4.15-3.818-5.552-4.267z"/><path fill="#000" d="M108.124 250.679c-16.862 0-34.281-9.936-50.81-29.071-13.979-16.197-22.324-33.014-22.666-33.723a2.24 2.24 0 0 1 .521-2.668 2.24 2.24 0 0 1 2.713-.207c4.33 2.794 10.79 2.884 18.686.242 32.25-10.789 62.345-52.472 75.416-88.064 22.835-62.219 48.806-53.766 49.902-53.37a2.234 2.234 0 0 1 1.357 2.865 2.237 2.237 0 0 1-2.866 1.357c-.206-.072-23.042-6.873-44.171 50.693-8.319 22.674-20.887 43.615-36.32 60.557-13.69 15.03-28.567 25.765-41.88 30.212-6.217 2.075-11.778 2.641-16.431 1.706 8.93 15.668 37.676 60.252 72.756 54.467 19.925-3.279 36.581-24.884 49.49-64.214 10.564-32.187 15.568-66.926 17.967-83.617l.305-2.138a2.24 2.24 0 0 1 2.542-1.905 2.253 2.253 0 0 1 1.905 2.543l-.306 2.138c-2.416 16.817-7.456 51.825-18.146 84.381-13.475 41.045-31.316 63.665-53.029 67.241a42.6 42.6 0 0 1-6.917.566z"/><path fill="#000" d="M107.567 224.555c13.825-10.655 25.441-24.462 33.562-39.914.557-1.203 2.102-4.267 2.641-5.453.521-1.266 1.814-4.312 2.353-5.587 1.061-2.731 5.121-1.33 4.241 1.491-3.522 10.708-9.029 20.859-15.946 29.753-6.971 8.939-15.038 16.943-24.516 23.24-2.335 1.42-4.572-1.913-2.335-3.53"/><path fill="#fff" d="M163.12 131.01s-3.036 14.967-9.54 32.107z"/><path fill="#000" d="M164.432 131.271a126.4 126.4 0 0 1-8.75 32.637c-1.159 2.551-4.977 1.15-4.213-1.536.826-2.659 1.769-5.274 2.632-7.924a1382 1382 0 0 0 7.717-23.707c.467-1.545 2.793-1.078 2.623.53z"/><path fill="#fff" d="M79.7 192.421s4.618-2.596 9.073-7.061z"/><path fill="#000" d="M78.65 190.544c1.823-1.833 4.24-3.585 6.287-5.184.755-.557 1.51-1.141 2.327-1.644a2.28 2.28 0 0 1 3.144.701c.503.8.45 1.788-.053 2.515-1.78 2.516-4.133 4.51-6.765 6.064-.898.512-1.77.944-2.848 1.285-2.264.728-3.863-2.21-2.102-3.746z"/><path fill="#D5C3EE" d="M114.673 247.894S33.121 263.049 10.95 227.232c-16.116-26.034-6.441-60.332 2.201-67.519 22.566-18.776 46.75 103.543 101.531 88.181"/><path fill="#000" d="M76.78 253.32c-1.877 0-3.79-.027-5.713-.081-31.532-.934-52.4-9.289-62.021-24.821-17.05-27.543-6.397-62.884 2.668-70.43 2.47-2.057 5.13-2.839 7.923-2.336 8.67 1.554 16.71 15.569 26.896 33.302 15.012 26.142 33.32 58.024 58.752 58.024h.144c5.372-.665 8.687-1.258 8.848-1.294a2.25 2.25 0 0 1 2.597 1.698 2.244 2.244 0 0 1-1.582 2.668c-3.288.916-6.522 1.401-9.72 1.437-7.079.872-17.427 1.824-28.782 1.824zm-58.75-93.329c-1.159 0-2.273.467-3.45 1.447-7.94 6.611-17.248 39.527-1.724 64.608 13.771 22.243 52.382 23.887 77.796 22.297-6.154-2.722-12.218-7.196-18.245-13.466-11.643-12.101-21.273-28.882-29.78-43.695-8.84-15.389-17.186-29.933-23.797-31.119a5 5 0 0 0-.809-.072z"/><path fill="#000" d="M26.59 181.515c4.6 17.006 11.463 34.254 23.402 47.424 3.926 4.258 8.525 7.851 13.7 10.421 2.533 1.338.763 5.165-1.914 4.06-17.544-7.887-27.363-26.142-33.328-43.524-1.94-5.849-3.504-11.76-4.492-17.877a1.34 1.34 0 0 1 1.105-1.537 1.33 1.33 0 0 1 1.518 1.042z"/></svg>