<svg xmlns="http://www.w3.org/2000/svg" width="368" height="400" fill="none" viewBox="0 0 368 400"><path fill="#000" d="M354.324 48.613a73 73 0 0 0 10.843-5.421c3.522-2.271.32-7.513-3.311-5.422-3.021 2.31-6.282 4.521-9.643 6.322-2.721 1.53-.8 5.632 2.101 4.531"/><path fill="#000" d="M349.732 39.77c4.542-5.011 8.563-10.483 12.534-15.955a151 151 0 0 0 3.881-5.542 3.337 3.337 0 0 0-.93-4.631 3.337 3.337 0 0 0-4.411.66c-5.692 7.153-11.054 14.485-15.215 22.687-1.271 2.621 2.241 4.942 4.151 2.781"/><path fill="#000" d="M19.447 260.462a72 72 0 0 0-11.794 2.831c-3.942 1.42-2.021 7.252 2 6.032 3.461-1.561 7.143-2.981 10.824-3.972 3-.87 2.06-5.301-1.02-4.891"/><path fill="#000" d="M21.907 270.114c-5.561 3.851-10.713 8.273-15.825 12.694a153 153 0 0 0-5.031 4.522 3.336 3.336 0 0 0-.14 4.721 3.35 3.35 0 0 0 4.451.36c7.162-5.672 14.055-11.604 19.966-18.646 1.831-2.261-1.06-5.322-3.41-3.651"/><path fill="#D8C4EC" d="M360.296 107.952c-3.401-2.631-5.272-2.941-10.744-1.791 4.282-3.591 5.182-5.261 5.202-9.563 3.401 2.631 5.272 2.941 10.743 1.79-4.281 3.592-5.181 5.263-5.201 9.564"/><path fill="#000" d="M360.296 110.453c-.541 0-1.081-.18-1.531-.52-2.641-2.041-3.681-2.381-8.693-1.32a2.494 2.494 0 0 1-2.761-1.351c-.5-1.03-.24-2.271.641-3.011 3.921-3.301 4.301-4.321 4.311-7.662 0-.95.55-1.82 1.4-2.231a2.51 2.51 0 0 1 2.631.27c2.641 2.04 3.681 2.38 8.693 1.32 1.12-.24 2.261.32 2.761 1.35s.24 2.272-.64 3.012c-3.921 3.301-4.302 4.321-4.312 7.662a2.484 2.484 0 0 1-2.5 2.481m-4.502-7.322c.85.12 1.661.34 2.481.68.23-.86.56-1.631.99-2.381-.85-.12-1.66-.34-2.481-.68-.23.86-.56 1.63-.99 2.381"/><path fill="#C67FE8" d="M359.826 84.665c-6.383-3.171-9.524-3.071-18.016.58 5.782-7.222 6.712-10.223 5.351-17.216 6.383 3.172 9.524 3.072 18.016-.58-5.782 7.223-6.712 10.224-5.351 17.216"/><path fill="#000" d="M341.81 87.746c-.76 0-1.501-.35-1.991-.98-.7-.91-.68-2.181.04-3.081 5.332-6.673 6.062-8.943 4.842-15.175a2.505 2.505 0 0 1 3.571-2.72c5.692 2.83 8.072 2.73 15.915-.641a2.52 2.52 0 0 1 2.981.78c.7.91.68 2.18-.04 3.08-5.332 6.673-6.062 8.944-4.842 15.176.18.93-.18 1.89-.94 2.47s-1.781.67-2.631.25c-5.692-2.83-8.072-2.73-15.915.64-.32.14-.66.2-.99.2m10.233-7.853c1.591 0 3.121.26 4.752.79-.13-3.01.44-5.521 1.96-8.352-3.141.71-5.702.59-8.573-.33.13 3.01-.44 5.522-1.96 8.352 1.35-.31 2.601-.46 3.821-.46"/><path fill="#D8C4EC" d="M31.88 279.368c4.102 1.31 5.963.97 10.704-1.991-2.79 4.841-3.071 6.712-1.62 10.763-4.102-1.31-5.962-.97-10.704 1.991 2.79-4.842 3.071-6.712 1.62-10.763"/><path fill="#000" d="M30.26 292.642a2.502 2.502 0 0 1-2.17-3.752c2.56-4.441 2.56-5.531 1.44-8.672a2.48 2.48 0 0 1 .56-2.581c.66-.68 1.65-.93 2.56-.64 3.182 1.02 4.272.98 8.624-1.731.97-.61 2.23-.47 3.06.32s1 2.051.43 3.051c-2.56 4.442-2.56 5.532-1.44 8.673.32.9.11 1.901-.56 2.581-.66.68-1.65.93-2.56.64-3.182-1.02-4.272-.98-8.623 1.731-.41.25-.87.38-1.32.38m4.932-10.064a10 10 0 0 1-.12 2.571 10 10 0 0 1 2.57-.21 10 10 0 0 1 .12-2.571c-.84.18-1.68.25-2.57.21"/><path fill="#D69200" d="m107.675 23.806 45.904-20.307 6.443 64.981-54.588-38.502z"/><path fill="#000" d="M160.022 71.98a3.46 3.46 0 0 1-2.021-.64l-54.588-38.502a3.494 3.494 0 0 1-1.27-4.051l2.241-6.172c.33-.9 1-1.62 1.87-2.01L152.159.297a3.5 3.5 0 0 1 3.181.18c.97.56 1.611 1.56 1.721 2.68l6.432 64.982a3.52 3.52 0 0 1-1.721 3.37c-.55.32-1.15.48-1.76.48zm-50.387-43.323 46.145 32.55-5.201-52.546-40.123 17.745z"/><path fill="#D9ECF0" d="m331.407 75.952-85.568 246.399c-.95 2.971-2.791 4.972-7.092 3.681-76.885-33.771-193.732-61.79-193.732-61.79-3.001-.93-11.524-8.002-10.584-11.003l73.734-225.102 26.068 5.021a5.67 5.67 0 0 0 5.862-2.53L155.17 6.89l174.216 54.207c2.991.95 3.521 8.753 2.021 14.855"/><path fill="#000" d="M241.168 328.933c-.971 0-2.021-.16-3.141-.5-.1-.03-.19-.06-.291-.11-75.794-33.291-192.141-61.37-193.311-61.65-.05-.01-.11-.03-.16-.04-3.181-.99-9.634-6.252-11.634-10.073-.78-1.481-.97-2.851-.59-4.061l73.733-225.132a2.506 2.506 0 0 1 2.851-1.681l26.068 5.012a3.15 3.15 0 0 0 3.272-1.41L153.039 5.55a2.51 2.51 0 0 1 2.851-1.05l174.216 54.207c5.182 1.65 5.282 11.423 3.701 17.845-.02.08-.04.15-.07.22L248.17 323.171c-1.211 3.771-3.661 5.762-7.032 5.762zm-1.561-5.252c2.501.721 3.191-.04 3.851-2.09l85.548-246.35c1.36-5.651.54-10.953-.44-11.783L156.26 9.851l-14.044 22.127a8.12 8.12 0 0 1-8.443 3.641l-23.907-4.601-72.974 222.801c.45 1.941 6.492 7.232 8.813 8.023 3.941.95 118.638 28.819 193.912 61.839z"/><path fill="#000" d="M35.532 255.859q-.375 0-.75-.12a2.5 2.5 0 0 1-1.631-3.141l71.783-227.522a2.5 2.5 0 0 1 2.861-1.701l26.068 5.022a3.15 3.15 0 0 0 3.271-1.41l15.075-23.739a2.485 2.485 0 0 1 2.891-1.03l174.766 57.719a2.501 2.501 0 1 1-1.571 4.752L155.38 7.578l-14.024 22.098a8.12 8.12 0 0 1-8.443 3.641l-23.888-4.591-71.113 225.402a2.5 2.5 0 0 1-2.38 1.75z"/><path fill="#FFD885" d="m331.907 67.36-87.779 250.609c-.95 2.971-2.81 4.252-7.092 3.682-33.661-16.676-141.265-49.996-198.653-63.241-4.472-1.44-4.662-4.131-3.722-7.122l71.783-227.523 26.069 5.022c2.29.44 4.611-.56 5.862-2.531 0 0 3.461-23.347 15.074-23.738C185.02 4.76 295.735 38.65 328.215 60.237c2.251 1.57 4.632 4.151 3.682 7.132z"/><path fill="#000" d="M238.797 324.281q-.988 0-2.081-.15l-.41-.05-.37-.18c-27.989-13.864-131.052-47.575-198.104-63.05l-.21-.06c-3.55-1.14-7.352-3.851-5.331-10.253l72.453-229.654 28.259 5.442c1.14.22 2.281-.19 3.011-1.05.74-4.452 4.791-24.828 17.365-25.258h.26c31.09 2.2 142.956 36.181 175.977 58.128 4.101 2.861 5.792 6.492 4.671 9.983l-.02.06L246.489 318.8c-1.17 3.661-3.701 5.481-7.692 5.481m-1.031-5.061c3.221.35 3.562-.7 3.982-2.021l87.788-250.64c.54-1.77-1.731-3.591-2.731-4.291C294.355 40.7 184.309 7.27 153.429 4.999c-7.712.42-11.683 15.715-12.564 21.607l-.08.52-.28.45a8.12 8.12 0 0 1-8.442 3.642l-23.888-4.592-71.113 225.402c-.71 2.261-.53 3.121 2 3.952 57.96 13.384 164.313 46.334 198.704 63.23z"/><path fill="#000" d="M147.017 102.081a6.062 6.062 0 0 0-1.43-8.923c-2.381-1.54-5.582-1.18-7.573.84-.74.76-1.25 1.65-1.52 2.58-1.591-.46-3.021-1.65-4.962-3.17-.51-.4-1.67-1.22-2.35-1.71-.451-.33-1.171-.78-1.681-1.091.23-.27.41-.58.63-.89 3.011-4.302 3.011-10.163 1.901-14.775-1.22-5.072-2.091-10.323.79-14.355 2.641-3.7 8.923-3.01 12.494-1.32.91.43 1.841 1.06 2.591 1.82.68.69.51 1.821-.33 2.301-.74.42-1.401 1-1.931 1.74-1.77 2.462-1.42 5.923.81 7.983 1.601 1.47 3.942 1.961 6.002 1.28 3.712-1.22 5.762-6.111 5.692-9.752-.05-2.591-1.03-5.072-2.471-7.203-4.511-6.652-13.274-8.862-20.866-7.522-3.701.65-6.832 2.5-9.063 5.542-3.661 4.981-4.482 14.644-2.081 21.547.68 1.95.68 5.891-.65 7.752s-2.991 2.681-5.022 3.431c-.85.15-2.06.33-2.791.7-2.04 1.03-3.171 2.811-2.58 5.062.58 2.26 2.3 3.291 4.721 3.251.3 0 1.871-.33 2.321-.47 2.561-.03 4.381.66 6.562 2.06.65.41 1.45 1.111 2.221 1.621 2.761 1.831 4.811 3.771 8.302 4.682 3.221.85 6.332.81 9.603-.841.931-.37 2.021-1.34 2.701-2.17z"/><path fill="#000" d="M129.112 81.684c-1.391-.47-2.751-1.1-4.072-1.83-1.05-.58-2.14-1.001-3.391-1.201s-2.311.04-3.521-.18c-1.33-.24-2.341-1.13-2.911-2.34-1.04-2.242-.42-4.622 2.051-5.703 4.381-1.92 8.613-.59 12.614 2.251 1.42 1.01 4.281 1.25 6.012 1.19 2.501-.09 4.571 1.36 4.681 3.862.11 2.5-.92 4.241-4.011 4.711-2.591.4-5.082.05-7.452-.75z"/><path fill="#000" d="M287.722 98.01q-.375 0-.75-.12l-39.993-12.575a2.487 2.487 0 0 1-1.63-3.13 2.487 2.487 0 0 1 3.131-1.631l39.993 12.574c1.32.41 2.05 1.82 1.63 3.13a2.5 2.5 0 0 1-2.381 1.751"/><path fill="#000" d="M282.921 114.505q-.375 0-.75-.12l-39.993-12.574a2.487 2.487 0 0 1-1.631-3.131 2.483 2.483 0 0 1 3.131-1.63l39.993 12.573a2.487 2.487 0 0 1 1.631 3.131 2.5 2.5 0 0 1-2.381 1.751"/><path fill="#000" d="M264.995 180.255c-.26 0-.53-.04-.79-.13l-53.347-17.855-69.282-20.697c-1.321-.4-2.081-1.791-1.681-3.111a2.5 2.5 0 0 1 3.111-1.681l69.352 20.717 53.427 17.886a2.504 2.504 0 0 1 1.581 3.161 2.5 2.5 0 0 1-2.371 1.71"/><path fill="#000" d="M130.422 137.892c-.25 0-.51-.04-.76-.12l-28.769-9.153a2.496 2.496 0 0 1-1.62-3.141 2.49 2.49 0 0 1 3.14-1.62l28.769 9.153a2.496 2.496 0 0 1 1.621 3.141 2.5 2.5 0 0 1-2.381 1.74"/><path fill="#000" d="M259.663 197.621q-.375 0-.75-.12l-123.859-38.952a2.487 2.487 0 0 1-1.631-3.131 2.487 2.487 0 0 1 3.131-1.631l123.86 38.953c1.32.41 2.05 1.82 1.63 3.131a2.5 2.5 0 0 1-2.381 1.75"/><path fill="#000" d="M123.79 154.848c-.25 0-.51-.04-.76-.12l-27.48-8.743a2.49 2.49 0 0 1-1.62-3.141 2.496 2.496 0 0 1 3.141-1.62l27.479 8.742a2.49 2.49 0 0 1 1.621 3.141 2.5 2.5 0 0 1-2.381 1.741"/><path fill="#000" d="M254.812 215.277q-.375 0-.75-.12l-124.49-39.153a2.487 2.487 0 0 1-1.631-3.131 2.487 2.487 0 0 1 3.131-1.63l124.49 39.152a2.49 2.49 0 0 1 1.631 3.131 2.5 2.5 0 0 1-2.381 1.751"/><path fill="#000" d="M118.308 172.303c-.25 0-.51-.04-.76-.12l-26.839-8.543a2.49 2.49 0 0 1-1.62-3.141 2.496 2.496 0 0 1 3.14-1.62l26.839 8.542a2.49 2.49 0 0 1 1.621 3.141 2.5 2.5 0 0 1-2.381 1.741"/><path fill="#000" d="M249.47 232.643q-.375 0-.75-.12L124.64 193.5a2.487 2.487 0 0 1-1.63-3.131 2.487 2.487 0 0 1 3.131-1.63l124.079 39.022a2.487 2.487 0 0 1 1.631 3.131 2.5 2.5 0 0 1-2.381 1.751"/><path fill="#000" d="M112.856 189.629c-.25 0-.51-.04-.76-.12l-26.728-8.513a2.496 2.496 0 0 1-1.62-3.141 2.497 2.497 0 0 1 3.14-1.62l26.729 8.512a2.497 2.497 0 0 1 1.62 3.141 2.5 2.5 0 0 1-2.381 1.741"/><path fill="#000" d="M237.146 267.094q-.375 0-.75-.12L196.403 254.4a2.487 2.487 0 0 1-1.63-3.131 2.487 2.487 0 0 1 3.131-1.631l39.992 12.574a2.487 2.487 0 0 1 1.631 3.131 2.5 2.5 0 0 1-2.381 1.751"/><path fill="#000" d="M229.944 291.821c-.24 0-.49-.04-.73-.11l-76.945-23.617a2.505 2.505 0 0 1-1.66-3.121 2.505 2.505 0 0 1 3.121-1.661l76.944 23.618a2.5 2.5 0 0 1-.73 4.891"/><path fill="#000" d="M165.613 399.606c72.047 0 130.452-6.83 130.452-15.255s-58.405-15.255-130.452-15.255-130.452 6.83-130.452 15.255 58.406 15.255 130.452 15.255"/></svg>