<svg xmlns="http://www.w3.org/2000/svg" width="270" height="345" fill="none" viewBox="0 0 270 345"><path fill="#F1EFE4" d="M232.959 106.783a73 73 0 0 1 9.322-7.77c3.494-2.313 7.019 2.723 3.645 5.206-3.325 1.843-6.669 3.945-9.662 6.308-2.494 1.883-5.487-1.522-3.315-3.744"/><path fill="#F1EFE4" d="M239.227 114.542c6.418-2.152 13.047-3.644 19.655-5.096 2.203-.491 4.415-.941 6.638-1.332a3.347 3.347 0 0 1 3.875 2.714 3.34 3.34 0 0 1-2.373 3.784c-8.841 2.353-17.712 4.336-26.904 4.866-2.913.121-3.634-4.045-.891-4.926"/><path fill="#F1EFE4" d="M36.715 299.002a72 72 0 0 1-7.5 9.552c-2.933 2.993-7.439-1.192-4.655-4.336 2.863-2.493 5.697-5.256 8.13-8.19 2.042-2.363 5.677.34 4.025 2.974"/><path fill="#F1EFE4" d="M28.965 292.734c-5.817 3.454-11.995 6.298-18.152 9.091a170 170 0 0 1-6.218 2.694 3.336 3.336 0 0 1-4.356-1.843c-.64-1.592.05-3.404 1.532-4.195 8.15-4.145 16.42-7.94 25.292-10.383 2.823-.721 4.405 3.194 1.902 4.636"/><path fill="#D69200" d="M242.792 156.384c-3.274-7.86-9.672-14.799-16.721-20.546-1.071-.871-7.199-4.706-7.249-5.907l.47 11.064c-.67-.151-1.341-.291-1.992-.441a441 441 0 0 0-67.214-9.582 437 437 0 0 0-33.962-.881c-8.19.11-20.115-1.442-27.214 3.194-7.98 5.217-8.58 20.656-10.133 29.046-2.233 12.085-3.905 24.271-5.677 36.436-2.853 19.494-4.575 39.249-4.015 58.953l-16.47 3.074c-1.252.23-1.693 1.802-.741 2.643l20.405 18.183c2.303 3.054 6.478 3.835 10.263 4.396l92.435 13.667c8.16 1.201 17.132 2.252 24.08-2.193a19.2 19.2 0 0 0 3.184-2.573c2.423-2.393 4.346-5.347 6.118-8.281 12.756-21.216 20.315-44.916 25.812-68.926 2.413-10.533 5.257-21.046 7.369-31.619 1.782-8.921 3.555-14.538 2.654-23.88-.211-2.223-.701-4.145-1.412-5.837z"/><path fill="#101010" d="M186.251 303.257c-3.754 0-7.669-.49-11.634-1.081l-92.435-13.667c-4.386-.651-8.902-1.582-11.735-5.157L50.212 265.32a3.99 3.99 0 0 1-1.202-4.095 4.01 4.01 0 0 1 3.144-2.884l14.378-2.683c-.35-17.272.991-36.035 4.095-57.252l.871-5.977c1.452-10.033 2.954-20.395 4.826-30.558.27-1.472.52-3.204.781-5.046 1.252-8.751 2.954-20.746 10.443-25.642 6.298-4.116 15.289-3.885 23.219-3.675 1.903.05 3.705.1 5.327.07 11.284-.15 22.778.15 34.152.881 22.298 1.442 44.636 4.586 66.403 9.372l-.33-7.81 5.006-.22c-.02-.561-.25-.871-.26-.881.55.751 3.654 2.893 4.826 3.704.911.621 1.431.992 1.772 1.262 8.531 6.959 14.408 14.198 17.452 21.527.831 2.002 1.351 4.155 1.592 6.558.791 8.16-.361 13.557-1.813 20.395-.28 1.332-.58 2.734-.881 4.216-1.341 6.728-3.003 13.527-4.605 20.095-.932 3.804-1.893 7.739-2.774 11.604-6.618 28.896-14.908 51.034-26.112 69.657-1.813 3.014-3.855 6.168-6.499 8.781-1.141 1.121-2.353 2.103-3.594 2.894-4.295 2.753-9.091 3.644-14.158 3.644zm-131.233-40.36 19.114 17.031.15.2c1.682 2.233 5.186 2.924 8.63 3.425l92.436 13.667c8.35 1.231 16.35 2.022 22.358-1.823a17.6 17.6 0 0 0 2.783-2.242c2.253-2.213 4.085-5.057 5.727-7.79 10.914-18.163 19.024-39.83 25.522-68.195.891-3.895 1.862-7.85 2.793-11.675 1.592-6.518 3.234-13.256 4.556-19.885.301-1.511.601-2.923.891-4.275 1.422-6.668 2.443-11.484 1.722-18.873-.18-1.903-.58-3.575-1.231-5.117-2.724-6.558-8.1-13.136-15.99-19.564-.19-.16-.861-.621-1.452-1.021-.521-.361-1.011-.701-1.462-1.022l.361 8.401-5.177-1.142a437.5 437.5 0 0 0-66.833-9.522 439 439 0 0 0-33.762-.871c-1.732.02-3.565-.03-5.517-.08-7.209-.19-15.37-.4-20.355 2.864-5.587 3.654-7.11 14.348-8.23 22.157-.271 1.893-.521 3.685-.812 5.247-1.862 10.063-3.354 20.385-4.796 30.358l-.87 5.977c-3.185 21.808-4.496 40.951-3.996 58.523l.06 2.143-16.63 3.104z"/><path fill="#DCEDF1" d="M179.332 148.814c-1.201-1.361 11.615-59.494 12.156-61.927 1.431-6.468 2.683-13.006 3.094-19.634.64-10.423-.321-27.444-9.632-34.393-8.071-6.018-18.574-8.31-28.416-6.208-15.479 3.314-29.747 19.384-31.319 35.074l-11.164 75.724s-3.294 3.485-11.314 3.144c-6.919-.3-10.994-4.676-10.994-4.676 1.282-18.473 8.531-81.832 17.652-98.583 8.661-15.9 24.281-29.657 42.263-33.511 22.518-4.826 50.363 3.063 60.295 24.81 7.279 15.94 6.779 37.507 4.796 51.325-1.362 9.491-12.375 63.008-14.558 72.34 0 0-2.593 3.184-11.915 2.012-6.818-.861-10.933-5.507-10.933-5.507z"/><path fill="#101010" d="M194.171 157.085c-1.252 0-2.653-.08-4.215-.28-7.47-.942-11.995-5.768-12.486-6.318h-.01c-1.121-1.282-1.582-1.803 4.846-32.741 3.234-15.55 6.709-31.25 6.739-31.4 1.271-5.737 2.623-12.505 3.033-19.243.351-5.787.771-25.222-8.63-32.23-7.45-5.557-17.322-7.71-26.393-5.768-14.428 3.084-27.875 18.143-29.347 32.871h-.01c-.17 1.302-1.472 10.133-11.164 75.845l-.12.781-.541.571c-.42.44-4.325 4.305-13.236 3.924a19.76 19.76 0 0 1-9.272-2.803c-4.125-2.473-4.125-3.755-4.125-4.376v-.17c1.172-16.841 8.33-81.932 17.953-99.604 9.642-17.702 26.473-31.019 43.934-34.753 22.568-4.836 52.356 2.713 63.099 26.212 8.861 19.405 6.068 45.257 4.996 52.716-1.341 9.402-12.335 62.879-14.598 72.551l-.13.56-.361.451c-.49.601-3.003 3.194-9.952 3.194zm-12.395-9.372c1.241 1.122 4.385 3.575 8.801 4.125 5.777.731 8.44-.38 9.351-.931 2.613-11.514 13.026-62.207 14.328-71.289 1.021-7.119 3.695-31.76-4.596-49.932-9.652-21.126-36.826-27.825-57.491-23.4-16.08 3.445-31.63 15.8-40.591 32.261-8.36 15.36-15.59 73.932-17.261 96.34 1.331 1.062 4.335 3.034 8.52 3.214 5.026.21 7.78-1.211 8.871-1.962 1.272-8.611 10.704-72.57 11.014-74.713 1.702-16.681 16.931-33.712 33.281-37.217 10.473-2.243 21.848.24 30.438 6.649 11.104 8.28 11.134 28.325 10.634 36.545-.431 7.079-1.833 14.098-3.144 20.015-3.735 16.821-11.665 53.997-12.155 60.275z"/><path fill="#FFB921" d="M179.513 274.672a19.7 19.7 0 0 1-3.184 2.573c-6.949 4.446-15.92 3.404-24.08 2.193l-92.435-13.667c-3.785-.561-7.96-1.342-10.263-4.396-1.562-2.082-1.922-4.806-2.173-7.389-2.483-25.161-.65-50.523 2.994-75.474 1.782-12.165 3.444-24.34 5.677-36.436 1.552-8.39 2.153-23.829 10.133-29.046 7.099-4.636 19.023-3.094 27.213-3.194a437 437 0 0 1 33.963.881 440 440 0 0 1 67.214 9.582c12.675 2.824 29.667 5.798 28.505 22.388-.631 8.991-9.442 45.257-11.624 54.799-5.497 24.01-13.057 47.709-25.812 68.926-1.773 2.943-3.685 5.897-6.118 8.28z"/><path fill="#101010" d="M163.513 282.992c-3.755 0-7.67-.49-11.635-1.081l-92.435-13.667c-4.465-.661-9.071-1.622-11.895-5.367-1.922-2.553-2.373-5.677-2.663-8.65-2.233-22.599-1.282-46.779 3.004-76.085l.87-5.968c1.453-10.032 2.955-20.395 4.827-30.558.27-1.472.52-3.204.78-5.046 1.252-8.751 2.955-20.746 10.444-25.642 6.298-4.115 15.289-3.885 23.219-3.675 1.902.05 3.704.1 5.327.07 11.294-.15 22.778.151 34.152.881a444 444 0 0 1 67.594 9.632l1.662.371c12.686 2.783 30.058 6.608 28.806 24.631-.54 7.709-6.778 34.252-10.132 48.52-.651 2.784-1.192 5.086-1.552 6.658-6.618 28.896-14.909 51.034-26.113 69.657-1.812 3.024-3.865 6.178-6.498 8.781-1.141 1.122-2.353 2.103-3.594 2.894-4.296 2.753-9.082 3.644-14.158 3.644zm-80.87-170.823c-5.658 0-11.305.471-15.1 2.954-5.587 3.655-7.109 14.348-8.23 22.158-.27 1.892-.52 3.684-.811 5.246-1.862 10.063-3.354 20.386-4.796 30.368l-.871 5.978c-4.225 28.896-5.166 52.675-2.974 74.863.23 2.363.54 4.606 1.682 6.128 1.682 2.232 5.187 2.923 8.631 3.424l92.435 13.667c8.351 1.231 16.351 2.022 22.358-1.822a17.7 17.7 0 0 0 2.784-2.243c2.243-2.213 4.075-5.056 5.727-7.79 10.913-18.153 19.024-39.83 25.522-68.195.36-1.582.901-3.895 1.562-6.688 3.083-13.117 9.501-40.421 10.012-47.72.881-12.706-10.243-16.18-24.881-19.394l-1.672-.37a437.4 437.4 0 0 0-66.833-9.522 438 438 0 0 0-33.762-.871c-1.723.02-3.565-.03-5.517-.08-1.713-.041-3.485-.091-5.257-.091z"/><path fill="#3F3F3F" d="M220.264 332.224c0 7.049-38.498 12.776-85.988 12.776-47.489 0-85.987-5.717-85.987-12.776s38.498-12.776 85.987-12.776c47.49 0 85.988 5.717 85.988 12.776"/><path fill="#DCEDF1" d="M241.48 223.158c2.954-7.82-18.132-20.506-45.907-27.615s-51.875-7.249-54.158.02l-.771 2.774c-1.401 5.056 1.873 10.212 7.049 11.094 9.412 1.602 24.621 4.836 41.612 8.951 18.904 4.575 35.174 9.071 43.494 11.895a6.11 6.11 0 0 0 7.85-4.136z"/><path fill="#101010" d="M234.762 233.1c-.931 0-1.873-.15-2.764-.46-8.54-2.904-25.121-7.44-43.284-11.835-16.27-3.945-31.759-7.279-41.441-8.921a11.36 11.36 0 0 1-9.042-14.228l.771-2.774c1.522-4.846 8.251-7.269 19.935-7.239 10.333.02 23.56 1.953 37.257 5.457 23.279 5.958 42.603 16.03 46.998 24.491 1.422 2.743 1.172 4.926.671 6.318l-.811 2.893a8.52 8.52 0 0 1-4.275 5.297 8.6 8.6 0 0 1-4.025.991zm-76.135-40.46c-8.821 0-14.138 1.482-14.829 3.674l-.741 2.694a6.26 6.26 0 0 0 .761 5.106 6.3 6.3 0 0 0 4.296 2.854c9.792 1.662 25.411 5.026 41.782 8.991 18.293 4.425 35.044 9.011 43.714 11.965.952.32 1.963.24 2.844-.221a3.6 3.6 0 0 0 1.792-2.222l.901-3.194c.09-.231.351-.932-.39-2.353-3.124-6.008-19.535-15.74-43.805-21.948-14.898-3.814-27.404-5.326-36.315-5.326z"/><path fill="#DCEDF1" d="M247.327 189.095c.671-1.642 1.042-3.425 1.062-4.836.07-4.116-4.015-8.611-6.779-11.174-9.672-8.982-23.599-13.377-36.095-16.571-27.774-7.109-50.643-7.68-54.287.491-1.733 6.257 2.282 12.645 8.67 13.797 9.482 1.702 23.66 4.756 39.349 8.561 18.894 4.575 32.921 11.454 41.252 14.287 3.234 1.102 5.567-1.492 6.818-4.545z"/><path fill="#101010" d="M242.011 196.414c-.751 0-1.522-.13-2.303-.391-2.503-.851-5.457-2.042-8.881-3.414-8-3.214-18.964-7.619-32.16-10.813-15.089-3.655-29.377-6.759-39.209-8.531a13.5 13.5 0 0 1-9.051-6.108 13.53 13.53 0 0 1-1.582-10.823l.13-.351c2.202-4.946 9.041-7.459 20.295-7.459h.08c9.902.01 22.638 1.932 36.816 5.567 12.766 3.264 27.154 7.86 37.176 17.161 3.505 3.254 7.67 8.171 7.58 13.057-.03 1.792-.491 3.885-1.252 5.747-1.672 4.085-4.485 6.358-7.639 6.358m-88.421-38.548a8.38 8.38 0 0 0 1.052 6.618 8.42 8.42 0 0 0 5.697 3.845c9.922 1.782 24.32 4.906 39.499 8.59 13.547 3.285 24.701 7.76 32.841 11.034 3.354 1.352 6.258 2.513 8.631 3.314 1.842.631 3.114-1.692 3.694-3.124.531-1.281.862-2.753.882-3.934.04-2.333-2.133-5.728-5.978-9.292-9.201-8.541-22.858-12.876-35.014-15.98-30.217-7.74-48.59-6.398-51.304-1.071"/><path fill="#DCEDF1" d="M230.577 264.93c.67-1.642 1.041-3.424 1.061-4.836.07-4.115-4.015-8.611-6.779-11.174-9.672-8.981-23.599-13.377-36.095-16.571-27.774-7.109-50.643-7.679-54.287.491-1.732 6.258 2.283 12.646 8.671 13.797 9.481 1.702 23.659 4.756 39.349 8.561 18.893 4.575 32.921 11.454 41.251 14.288 3.234 1.101 5.567-1.492 6.819-4.546z"/><path fill="#101010" d="M225.26 272.239c-.751 0-1.522-.13-2.303-.391-2.503-.851-5.457-2.042-8.881-3.414-8-3.214-18.964-7.619-32.16-10.813-15.089-3.655-29.387-6.759-39.209-8.531a13.5 13.5 0 0 1-9.051-6.108 13.53 13.53 0 0 1-1.582-10.823l.13-.351c2.203-4.946 9.041-7.459 20.295-7.459h.08c9.903.01 22.638 1.932 36.816 5.567 12.766 3.264 27.164 7.86 37.177 17.161 3.504 3.254 7.669 8.161 7.579 13.057-.03 1.792-.491 3.885-1.252 5.747-1.672 4.085-4.485 6.358-7.639 6.358m-88.42-38.548a8.37 8.37 0 0 0 1.051 6.618 8.42 8.42 0 0 0 5.697 3.845c9.912 1.782 24.31 4.906 39.499 8.59 13.547 3.285 24.701 7.76 32.841 11.034 3.354 1.352 6.258 2.513 8.631 3.314 1.852.631 3.104-1.692 3.695-3.124.53-1.281.861-2.753.881-3.934.04-2.333-2.133-5.728-5.978-9.292-9.201-8.541-22.858-12.876-35.013-15.98-30.228-7.74-48.591-6.398-51.304-1.071"/><path fill="#DCEDF1" d="M205.696 160.029c-.201-.34-.601-.67-.992-.761-.42-.1-.901-.08-1.281.171-.351.23-.671.57-.761.991a151 151 0 0 1-2.363 9.382c-.25.881-.511 1.752-.771 2.623-.12.41-.04.921.17 1.281.2.341.601.671.991.761.421.101.901.081 1.282-.17.37-.24.631-.57.761-.991a150 150 0 0 0 2.523-9.342c.21-.891.411-1.772.611-2.663.09-.431.06-.891-.17-1.282"/><path fill="#101010" d="M204.244 159.208c.16 0 .31.02.47.05.401.09.791.421.992.761.23.391.26.841.17 1.282-.19.891-.401 1.782-.611 2.663a152 152 0 0 1-2.523 9.342c-.13.43-.391.751-.761.991-.24.16-.531.22-.811.22-.16 0-.31-.02-.471-.05-.4-.09-.791-.42-.991-.761-.21-.36-.29-.871-.17-1.281.26-.871.521-1.742.771-2.624a159 159 0 0 0 2.363-9.381c.09-.421.41-.761.761-.991.24-.161.53-.221.811-.221m0-5.006c-1.272 0-2.493.35-3.525 1.021-1.532.982-2.573 2.453-2.943 4.135a147 147 0 0 1-3.034 11.625c-.521 1.722-.29 3.685.641 5.267.911 1.561 2.483 2.723 4.205 3.113a7 7 0 0 0 1.572.181 6.44 6.44 0 0 0 3.524-1.022 6.77 6.77 0 0 0 2.844-3.744 158 158 0 0 0 2.603-9.642c.22-.911.431-1.833.631-2.754.37-1.702.11-3.434-.741-4.876-.911-1.562-2.483-2.723-4.205-3.114a7 7 0 0 0-1.582-.18z"/><path fill="#DCEDF1" d="M214.286 162.022c-.2-.34-.601-.671-.991-.761-.421-.1-.901-.08-1.282.17-.35.231-.67.571-.761.992a151 151 0 0 1-2.362 9.381c-.251.881-.511 1.753-.771 2.624-.121.41-.041.921.17 1.281.2.341.6.671.991.761.421.1.901.08 1.282-.17.37-.24.63-.571.761-.991a150 150 0 0 0 2.523-9.342c.21-.891.41-1.772.61-2.663.091-.431.061-.891-.17-1.282"/><path fill="#101010" d="M212.824 161.201c.161 0 .311.02.471.05.401.09.791.421.991.761.231.39.261.841.17 1.282-.19.891-.4 1.782-.61 2.663a152 152 0 0 1-2.523 9.342c-.131.43-.391.751-.761.991a1.46 1.46 0 0 1-.811.22c-.161 0-.311-.02-.471-.05-.4-.09-.791-.42-.991-.761-.21-.36-.291-.871-.17-1.282a158 158 0 0 0 3.133-12.004c.091-.421.411-.761.761-.992.241-.16.531-.22.811-.22m0-5.006c-1.271 0-2.493.35-3.524 1.021-1.532.991-2.573 2.453-2.944 4.135a146 146 0 0 1-3.033 11.625c-.521 1.722-.291 3.684.63 5.266.912 1.562 2.483 2.724 4.206 3.114.52.12 1.051.18 1.582.18 1.271 0 2.493-.35 3.524-1.021a6.8 6.8 0 0 0 2.844-3.745 158 158 0 0 0 2.603-9.642c.22-.911.43-1.832.631-2.753.37-1.702.11-3.434-.741-4.876-.911-1.562-2.483-2.724-4.206-3.114a7 7 0 0 0-1.582-.18z"/><path fill="#DCEDF1" d="M192.819 198.577c-.2-.34-.6-.671-.991-.761-.42-.1-.901-.08-1.282.17-.35.231-.67.571-.76.991a151 151 0 0 1-2.363 9.382 218 218 0 0 1-.771 2.623c-.121.411-.04.922.17 1.282.2.34.601.671.991.761.421.1.901.08 1.282-.17.37-.241.63-.571.761-.991a150 150 0 0 0 2.523-9.342c.21-.891.41-1.772.611-2.663.09-.431.06-.892-.171-1.282"/><path fill="#101010" d="M191.358 197.766c.16 0 .31.02.47.05.401.09.791.421.991.761.231.391.261.841.171 1.282-.191.891-.401 1.782-.611 2.663a152 152 0 0 1-2.523 9.342c-.131.43-.391.751-.761.991a1.46 1.46 0 0 1-.811.22c-.161 0-.311-.02-.471-.05-.4-.09-.791-.42-.991-.761-.21-.36-.29-.871-.17-1.281a159 159 0 0 0 3.134-12.005c.09-.421.41-.761.76-.992.241-.16.531-.22.812-.22m0-5.006c-1.272 0-2.494.35-3.525 1.021-1.532.991-2.573 2.453-2.944 4.135a144 144 0 0 1-3.033 11.615 6.74 6.74 0 0 0 .63 5.266c.912 1.562 2.484 2.724 4.206 3.114.52.12 1.051.18 1.582.18 1.271 0 2.493-.35 3.524-1.021a6.77 6.77 0 0 0 2.844-3.744 158 158 0 0 0 2.603-9.643c.22-.911.43-1.832.631-2.753.37-1.702.11-3.434-.741-4.876-.911-1.562-2.483-2.723-4.206-3.114a7 7 0 0 0-1.582-.18z"/><path fill="#DCEDF1" d="M201.41 200.57c-.2-.341-.601-.671-.991-.761-.421-.1-.901-.08-1.282.17-.35.23-.671.571-.761.991a151 151 0 0 1-2.363 9.382c-.25.881-.51 1.752-.771 2.623-.12.411-.04.921.171 1.282.2.34.6.671.991.761.42.1.901.08 1.281-.17.371-.241.631-.571.761-.992a149 149 0 0 0 2.524-9.341c.21-.891.41-1.773.61-2.664.09-.43.06-.891-.17-1.281"/><path fill="#101010" d="M199.948 199.759c.16 0 .311.02.471.05.4.09.791.42.991.761.23.39.26.841.17 1.281-.19.892-.4 1.783-.611 2.664a150 150 0 0 1-2.523 9.341c-.13.431-.39.751-.761.992-.24.16-.53.22-.811.22-.16 0-.31-.02-.47-.05-.401-.09-.791-.421-.991-.761-.211-.361-.291-.871-.171-1.282a159 159 0 0 0 3.134-12.005c.09-.42.411-.761.761-.991.241-.16.531-.22.811-.22m0-5.006c-1.271 0-2.493.35-3.524 1.021-1.532.991-2.573 2.453-2.944 4.135a147 147 0 0 1-3.034 11.625 6.7 6.7 0 0 0 .641 5.266c.911 1.562 2.483 2.723 4.205 3.114a7 7 0 0 0 1.582.18c1.272 0 2.493-.35 3.525-1.021a6.7 6.7 0 0 0 2.833-3.745 157 157 0 0 0 2.604-9.642c.22-.911.43-1.832.63-2.753.371-1.702.11-3.434-.741-4.876-.911-1.562-2.483-2.724-4.205-3.114a7 7 0 0 0-1.582-.18z"/><path fill="#DCEDF1" d="M181.575 235.143c-.2-.341-.6-.671-.991-.761-.42-.1-.901-.08-1.281.17-.351.23-.671.571-.761.991a151 151 0 0 1-2.363 9.382 218 218 0 0 1-.771 2.623c-.12.411-.04.921.17 1.282.2.34.601.671.991.761.421.1.901.08 1.282-.171.37-.24.631-.57.761-.991a150 150 0 0 0 2.523-9.341c.21-.892.41-1.773.611-2.664.09-.43.06-.891-.171-1.281"/><path fill="#101010" d="M180.114 234.321c.16 0 .31.021.47.051.401.09.791.42.991.76.231.391.261.842.171 1.282-.191.891-.401 1.782-.611 2.663a152 152 0 0 1-2.523 9.342c-.13.431-.391.751-.761.991a1.46 1.46 0 0 1-.811.221c-.16 0-.311-.02-.471-.05-.4-.091-.791-.421-.991-.761-.21-.361-.29-.872-.17-1.282a159 159 0 0 0 3.134-12.005c.09-.421.41-.761.761-.991.24-.16.53-.221.811-.221m0-5.006a6.45 6.45 0 0 0-3.525 1.022c-1.532.981-2.573 2.453-2.943 4.135a155 155 0 0 1-2.283 9.081c-.241.851-.491 1.692-.751 2.543-.521 1.722-.281 3.695.641 5.267.911 1.562 2.483 2.723 4.205 3.114.52.12 1.051.18 1.572.18a6.45 6.45 0 0 0 3.524-1.021 6.78 6.78 0 0 0 2.844-3.745 158 158 0 0 0 2.603-9.642c.22-.911.43-1.832.631-2.754.37-1.702.11-3.434-.741-4.876-.911-1.562-2.483-2.723-4.205-3.114a7 7 0 0 0-1.582-.18z"/><path fill="#DCEDF1" d="M190.156 237.135c-.2-.34-.601-.67-.991-.761-.421-.1-.901-.08-1.282.171-.35.23-.67.57-.761.991a150 150 0 0 1-2.363 9.382c-.25.881-.51 1.752-.771 2.623-.12.41-.04.921.171 1.281.2.341.6.671.991.761.42.1.901.08 1.282-.17.37-.24.63-.571.76-.991a149 149 0 0 0 2.524-9.342c.21-.891.41-1.772.61-2.663.09-.431.06-.891-.17-1.282"/><path fill="#101010" d="M188.704 236.314c.161 0 .311.02.471.05.4.09.791.421.991.761.23.391.261.841.17 1.282-.19.891-.4 1.782-.61 2.663a151 151 0 0 1-2.524 9.342c-.13.43-.39.751-.76.991a1.46 1.46 0 0 1-.811.22c-.161 0-.311-.02-.471-.05-.401-.09-.791-.42-.991-.761-.211-.36-.291-.871-.171-1.281a157 157 0 0 0 3.134-12.005c.09-.421.411-.761.761-.992.241-.16.531-.22.811-.22m0-5.006c-1.271 0-2.493.35-3.524 1.021-1.532.981-2.573 2.453-2.944 4.135a146 146 0 0 1-3.033 11.625 6.7 6.7 0 0 0 .64 5.266c.911 1.562 2.483 2.724 4.206 3.114.52.12 1.051.181 1.582.181a6.44 6.44 0 0 0 3.524-1.022 6.76 6.76 0 0 0 2.843-3.744 157 157 0 0 0 2.604-9.642c.22-.912.43-1.833.63-2.754.371-1.702.111-3.434-.74-4.876-.912-1.562-2.484-2.723-4.206-3.114a7 7 0 0 0-1.582-.18z"/><path fill="#101010" d="M76.234 130.142c-1.932 4.075-2.813 8.19-3.845 12.746-1.031 4.555-2.042 8.58-3.064 13.497-4.595 22.097-6.237 45.186-5.967 67.824.09 7.309.811 14.749 1.522 21.577.22 2.113 1.171 2.834 2.803 2.383s2.293-1.852 2.163-3.965c-.6-9.352-1.171-18.954-1.051-28.716s.8-21.386 1.782-30.918c1.472-14.308 4.235-27.244 7.169-40.871.74-3.455 4.466-13.847-.18-14.749-.611-.12-1.032.601-1.322 1.202"/></svg>