<svg xmlns="http://www.w3.org/2000/svg" width="360" height="266" fill="none" viewBox="0 0 360 266"><path fill="#4C4C4C" d="M209.115 25.126C180.735 22.18 88.745 7.5 14.942 20.599c-4.056.721-12.537 7.2-12.127 11.647l9.213 225.146c1.282 3.926 5.227 6.299 9.273 5.578 20.89-3.725 119.648-10.114 185.501-9.283 2.964.04 13.248-9.844 14.74-12.217.021 1.612.862-1.362 0 0l-5.077-207.101c.541-4.607-2.764-8.763-7.35-9.233z"/><path fill="#4C4C4C" d="M19.89 265.593c-4.557 0-8.773-2.954-10.235-7.43a2.6 2.6 0 0 1-.12-.671L.322 32.406c-.3-3.776 3.144-7.42 5.237-9.253 2.964-2.604 6.479-4.577 8.962-5.007 64.27-11.406 142.611-1.823 180.254 2.784 5.808.71 10.825 1.321 14.61 1.712a10.7 10.7 0 0 1 7.271 3.966 10.73 10.73 0 0 1 2.323 7.86l5.037 205.279c.391.601.571 1.432.28 2.494-.35 1.241-1.091 1.872-1.862 2.113-3.325 3.775-11.707 11.836-15.612 11.836h-.04c-66.804-.841-165.052 5.688-185.03 9.243-.621.11-1.242.16-1.853.16zm-5.379-8.692c.992 2.544 3.646 4.076 6.34 3.595 20.128-3.585 118.836-10.154 185.871-9.323 2.173-.531 10.054-7.661 12.287-10.485l-5.057-206.27c0-.12 0-.24.02-.35a5.83 5.83 0 0 0-1.242-4.336 5.68 5.68 0 0 0-3.875-2.123c-3.826-.4-8.873-1.012-14.701-1.733-37.403-4.576-115.242-14.1-178.771-2.824-3.996.712-10.285 6.71-10.074 8.953v.13z"/><path fill="#FFFBE8" d="M218.658 15.22c-29.11-3.003-123.453-17.974-199.15-4.646-4.165.731-12.577 14.23-12.157 18.747l9.213 222.392a8.46 8.46 0 0 0 9.504 5.688c21.43-3.785 122.712-10.274 190.257-9.423 3.034.04 13.589-10.024 15.121-12.437.02 1.642.882-1.392 0 0l-5.247-210.907c.551-4.686-2.834-8.922-7.541-9.413"/><path fill="#4C4C4C" d="M24.616 260.025c-4.647 0-8.943-2.994-10.435-7.53-.07-.22-.11-.451-.12-.681L4.848 29.471c-.43-5.628 8.592-20.378 14.22-21.37C84.97-3.505 165.313 6.28 203.928 10.975c5.958.721 11.105 1.352 14.981 1.753 2.944.3 5.588 1.742 7.43 4.046a10.88 10.88 0 0 1 2.354 7.95L233.9 233.79c.4.6.591 1.442.29 2.513-.35 1.252-1.111 1.893-1.892 2.123-3.385 3.825-11.977 12.047-15.973 12.047h-.04c-68.516-.871-169.298 5.758-189.787 9.383-.63.11-1.261.17-1.882.17m-5.568-8.792c1.021 2.614 3.795 4.196 6.59 3.705 20.638-3.645 121.87-10.324 190.627-9.463 2.223-.511 10.355-7.821 12.658-10.715l-5.227-210.065c0-.12 0-.24.02-.35a5.9 5.9 0 0 0-1.272-4.427 5.95 5.95 0 0 0-4.036-2.203c-3.925-.4-9.093-1.032-15.071-1.763-38.374-4.666-118.206-14.38-183.378-2.914-2.864.651-10.414 12.648-10.094 16.053v.13l9.193 222.012z"/><path fill="#FFFBE8" d="M226.489 6.73c-29.11-3.004-131.294-9.473-206.99 3.846-4.166.73-4.737 5.728-4.317 10.254l11.176 219.118a8.46 8.46 0 0 0 9.503 5.688c21.43-3.785 120.75-7.01 188.295-6.159a8.47 8.47 0 0 0 7.28-3.945c.882-1.392 1.252-3.044 1.232-4.687l1.362-214.711c.551-4.687-2.834-8.923-7.541-9.414z"/><path fill="#4C4C4C" d="M34.42 248.269c-4.647 0-8.943-3.004-10.435-7.53a2.4 2.4 0 0 1-.12-.651L12.699 21.02c-.921-10.084 3.595-12.408 6.379-12.898C93.372-4.957 194.184.892 226.76 4.246c2.944.3 5.588 1.743 7.43 4.056a10.84 10.84 0 0 1 2.344 7.991l-1.362 214.582c.03 2.193-.531 4.286-1.613 6.008a10.96 10.96 0 0 1-9.423 5.118c-68.146-.862-166.444 2.343-187.824 6.118-.63.11-1.262.17-1.883.17zm-5.578-8.812c1.021 2.624 3.795 4.216 6.589 3.715 21.6-3.815 120.389-7.06 188.765-6.189 2.153.02 4.016-1.011 5.127-2.783.571-.902.862-2.043.842-3.315l1.362-214.762c0-.09 0-.19.02-.28a5.9 5.9 0 0 0-1.272-4.427 5.95 5.95 0 0 0-4.036-2.203C193.864 5.88 93.673.06 19.939 13.04c-2.533.45-2.503 4.927-2.253 7.56v.1z"/><path fill="#FFFBE8" d="M163.821 53.245c-10.374-1.502-39.275-1.432-65.111 2.163-1.532.21-1.723 3.164-1.592 5.648l2.904 120.189c.45 2.183 1.882 3.495 3.364 3.074 7.671-2.183 32.376-3.475 56.49-3.334 1.081 0 2.063-.862 2.623-2.204.321-.771.461-1.672.461-2.573l3.505-117.826c.22-2.573-.971-4.887-2.644-5.127z"/><path fill="#4C4C4C" d="M102.846 186.903a4.6 4.6 0 0 1-2.394-.681c-1.442-.871-2.463-2.464-2.874-4.467-.03-.15-.05-.29-.05-.44L94.614 61.126c-.26-5.027 1.001-7.801 3.745-8.192 26.488-3.695 55.729-3.625 65.813-2.163 3.004.431 5.087 3.826 4.787 7.741l-3.505 117.766c0 1.222-.231 2.443-.651 3.465-.962 2.313-2.844 3.735-4.917 3.735h-.03c-24.785-.13-48.799 1.252-55.789 3.244-.41.121-.821.171-1.241.171zm-.321-5.969c.13.491.311.771.421.912 9.113-2.474 35.73-3.485 56.82-3.365.09-.08.27-.28.42-.661.17-.411.271-.981.271-1.612l3.504-117.906v-.14c.111-1.332-.35-2.233-.6-2.444-9.794-1.392-37.844-1.442-63.61 2.083-.11.46-.24 1.402-.15 3.135l2.904 119.998z"/><path fill="#FFFBE8" d="M127.57 171.442c-6.679 3.545-25.656 13.298-24.174 12.878 7.671-2.183 32.376-3.475 56.49-3.335 1.081 0 5.037-1.893 7-2.664 4.696-1.842 20.328-8.291 26.317-10.404"/><path fill="#4C4C4C" d="M103.386 186.823c-1.021 0-2.002-.601-2.393-1.572-.841-2.113.971-3.114 2.564-3.996.941-.52 2.283-1.241 3.865-2.083 3.134-1.662 7.22-3.795 10.966-5.748 3.164-1.652 6.088-3.174 8.011-4.196a2.504 2.504 0 1 1 2.343 4.427 1108 1108 0 0 1-8.041 4.206c-1.182.62-2.484 1.301-3.826 1.992 12.167-1.031 28.761-1.462 42.911-1.382.691-.14 2.864-1.081 4.045-1.592.801-.35 1.553-.671 2.133-.901a949 949 0 0 0 6.399-2.574c6.63-2.683 15.712-6.349 19.998-7.861a2.506 2.506 0 0 1 1.663 4.727c-4.186 1.472-13.209 5.117-19.788 7.781a1392 1392 0 0 1-6.449 2.594c-.541.21-1.232.51-1.983.831-3.214 1.392-4.757 2.003-5.928 2.003h-.02c-24.805-.141-48.799 1.251-55.789 3.244-.23.07-.46.1-.701.1z"/><path fill="#FFFBE8" d="M163.821 53.245c-10.294-1.993-39.275-1.432-65.111 2.163-1.532.21-1.723 3.164-1.592 5.648l27.739 107.12c.45 2.183 1.882 3.495 3.364 3.075 7.671-2.183 40.217-3.475 64.331-3.335 1.081 0 2.063-.861 2.623-2.203.321-.771.461-1.673.461-2.574L165.283 54.086c-.36-.54-.42-.641-1.452-.831z"/><path fill="#4C4C4C" d="M127.67 173.834c-.831 0-1.652-.23-2.393-.68-1.422-.862-2.433-2.424-2.864-4.407L94.694 61.677c-.04-.16-.07-.33-.08-.5-.26-5.098 1.001-7.872 3.745-8.263 26.778-3.735 55.709-4.125 65.933-2.142 1.592.31 2.273.73 3.054 1.902q.226.33.331.721l30.352 109.053c.06.221.09.441.09.671 0 1.292-.22 2.514-.65 3.545-.962 2.314-2.844 3.736-4.917 3.736h-.03c-24.234-.141-56.32 1.161-63.63 3.244-.41.12-.821.17-1.242.17zM99.611 60.685l27.669 106.871.03.12c.12.601.34.951.471 1.101 8.912-2.383 43.07-3.495 64.66-3.374.091-.08.271-.281.421-.661.14-.341.23-.801.26-1.302L163.12 55.648c-9.753-1.792-37.843-1.362-63.349 2.133-.1.441-.22 1.312-.16 2.894z"/><path fill="#4C4C4C" d="M292.032 69.077c4.917-3.695 10.414-7.6 15.491-11.096 5.218-3.615 10.435-7.25 16.043-10.344a2.52 2.52 0 0 1 3.425.991 2.516 2.516 0 0 1-.481 3.054c-4.656 4.397-9.714 8.232-14.761 12.097-4.897 3.766-10.284 7.791-15.311 11.346-4.036 2.714-8.222-3.034-4.406-6.048"/><path fill="#4C4C4C" d="M308.134 159.394c10.235 4.817 19.337 11.737 27.539 19.467a2.546 2.546 0 0 1-.01 3.596 2.53 2.53 0 0 1-2.874.49c-2.584-1.222-5.027-2.623-7.441-4.086-7.18-4.466-14.22-9.233-20.108-15.371a2.553 2.553 0 0 1 .14-3.615 2.55 2.55 0 0 1 2.754-.471z"/><path fill="#4C4C4C" d="M306.081 115.983c8.192-3.024 16.934-3.465 25.516-4.596 8.572-.982 17.154-1.833 25.776-2.264a2.5 2.5 0 0 1 2.624 2.384 2.51 2.51 0 0 1-2.053 2.593 293 293 0 0 1-12.788 2.013c-10.695 1.342-21.39 2.954-32.175 3.305-2.173.01-4.346-.06-6.549-.371a1.594 1.594 0 0 1-.351-3.064"/></svg>