<svg xmlns="http://www.w3.org/2000/svg" width="387" height="347" fill="none" viewBox="0 0 387 347"><path fill="#EE6DBB" d="M182.89 99.21s30.637-70.02 87.098-57.262c72.211 16.309 65.567 107.279 26.225 168.723-23.873 37.291-63.635 63.956-68.508 64.756 0 0-75.952-10.736-120.417-43.354-39.822-29.216-83.356-90.12-43.354-137.746 55.131-65.627 125.42 10.696 125.42 10.696"/><path fill="#000" d="m227.735 277.959-.38-.05c-.19-.03-19.431-2.782-43.855-9.506-22.602-6.223-54.42-17.229-77.703-34.299-24.814-18.2-55.34-52.379-59.713-88.799-2.341-19.511 3.012-37.201 15.929-52.58C76.97 74.916 94.45 65.662 113.962 65.22c29.036-.65 55.11 18.12 68.268 29.577 3.001-5.953 10.095-18.69 21.201-30.697 8.775-9.485 18.241-16.51 28.116-20.872 12.457-5.503 25.574-6.754 38.992-3.722 24.163 5.453 41.613 19.741 50.478 41.323 14.328 34.889 5.203 87.609-22.693 131.193-23.813 37.201-63.935 64.846-70.209 65.877zM115.433 70.203c-.461 0-.911 0-1.371.02-18 .42-34.23 9.075-48.217 25.725-11.987 14.267-16.97 30.677-14.788 48.757 4.182 34.829 33.698 67.757 57.702 85.357 41.633 30.537 112.362 41.843 118.816 42.824 5.823-1.881 43.544-27.676 66.517-63.566 27.065-42.263 36.02-93.141 22.282-126.59-8.324-20.281-24.123-33.188-46.946-38.341-22.442-5.063-43.394 2.671-62.244 23.013-11.487 12.386-18.671 25.934-21.092 30.877 3.001 2.811 4.792 4.722 5.093 5.053l-3.682 3.391c-.341-.37-34.129-36.53-72.08-36.53z"/><path fill="#000" d="M198.519 346.417c59.519 0 107.77-5.057 107.77-11.296s-48.251-11.297-107.77-11.297c-59.52 0-107.77 5.058-107.77 11.297s48.25 11.296 107.77 11.296"/><path fill="#000" d="M71.488 124.393c-.55 16.58 5.403 32.769 13.528 47.007 2.38 3.992 5.172 8.104 7.804 11.926a2.5 2.5 0 0 1-.71 3.462 2.506 2.506 0 0 1-3.342-.55c-1.721-2.201-3.452-4.403-5.103-6.674-4.813-6.914-8.875-14.428-11.907-22.282-3.362-9.295-5.613-19.181-5.303-29.136.24-2.252-.4-6.704 3.052-6.394 1.28.19 2.141 1.381 1.991 2.641z"/><path fill="#000" d="M101.055 195.023c6.593 6.854 13.717 13.277 20.971 19.441 0 0 3.122 2.631 3.132 2.641 2.331 2.001-.33 5.643-2.942 4.053-9.485-6.234-18.03-14.008-24.813-23.143-1.651-2.382 1.65-5.073 3.652-2.982z"/><path fill="#000" d="M314.253 24.738c3.782-8.094 7.444-16.219 12.457-23.673 1.621-2.291 5.253-.56 4.533 2.121-2.512 8.615-6.414 16.64-10.216 24.714-2.271 4.282-8.605 1.31-6.774-3.172z"/><path fill="#000" d="M360.179 77.808c6.453-.61 12.817.54 19.06 2.03 2.071.531 4.132 1.122 6.154 1.932a2.57 2.57 0 0 1-.781 4.943c-6.433.31-12.827-.47-19.08-1.921-2.072-.53-4.133-1.131-6.144-2.052a2.605 2.605 0 0 1-1.291-3.441 2.58 2.58 0 0 1 2.062-1.501z"/><path fill="#000" d="M341.908 50.673c1.992-2.572 4.393-4.513 6.904-6.274 5.083-3.442 10.216-6.803 15.489-9.945a158 158 0 0 1 8.034-4.533 2.517 2.517 0 0 1 3.392 1.07 2.51 2.51 0 0 1-.68 3.143c-4.853 3.782-9.936 7.224-15.099 10.556-5.302 3.241-10.165 7.043-16.369 8.584-1.46.38-2.611-1.42-1.671-2.591z"/><path fill="#000" d="M58.24 240.998c-1.82 5.513-5.772 9.795-9.394 14.158-2.212 2.491-4.653 5.162-7.174 7.354-1.571 1.41-4.043-.441-3.152-2.332 1.82-4.062 4.342-8.154 6.764-11.876 2.561-3.812 5.083-7.574 8.935-10.276 2.01-1.461 4.822.65 4.022 2.972"/><path fill="#000" d="M24.802 182.736c-8.284-1.811-16.289-4.893-23.603-9.206a2.564 2.564 0 0 1-.8-3.542c.53-.85 1.49-1.27 2.421-1.19 2.161.21 4.252.6 6.324 1.06a93 93 0 0 1 12.146 3.602c1.981.731 3.933 1.531 5.834 2.502 1.78.91 2.47 3.091 1.56 4.872a3.63 3.63 0 0 1-3.872 1.902z"/><path fill="#000" d="M37.38 211.312c-3.653 3.322-7.835 5.233-12.218 7.114-7.143 3.121-14.377 6.033-21.862 8.274-2.881.801-4.512-3.161-1.92-4.622 5.492-2.992 11.186-5.513 16.959-7.905 5.883-2.321 11.506-5.032 18.01-5.363 1.31-.11 2.03 1.661 1.04 2.502z"/></svg>