<svg xmlns="http://www.w3.org/2000/svg" width="360" height="266" fill="none" viewBox="0 0 360 266"><path fill="#000" d="M208.988 25.147c-28.404-2.947-120.47-17.64-194.337-4.53-4.059.721-12.548 7.206-12.137 11.656l9.22 225.336c1.284 3.929 5.233 6.304 9.282 5.583 20.907-3.729 119.749-10.123 185.657-9.291 2.966.04 13.259-9.852 14.753-12.228.02 1.614.862-1.363 0 0l-5.082-207.275c.542-4.61-2.766-8.77-7.356-9.241z"/><path fill="#000" d="M19.602 265.817c-4.56 0-8.78-2.956-10.243-7.436a2.6 2.6 0 0 1-.12-.672L.02 32.433c-.301-3.779 3.147-7.427 5.241-9.26 2.967-2.607 6.485-4.581 8.97-5.012 64.325-11.416 142.731-1.824 180.406 2.786 5.813.712 10.834 1.323 14.622 1.714a10.7 10.7 0 0 1 7.277 3.969 10.73 10.73 0 0 1 2.325 7.868l5.041 205.451c.391.602.572 1.433.281 2.496-.351 1.243-1.092 1.874-1.864 2.115-3.328 3.778-11.717 11.846-15.625 11.846h-.04c-66.861-.842-165.191 5.693-185.186 9.251-.622.11-1.243.16-1.854.16zm-5.382-8.699c.993 2.545 3.649 4.079 6.345 3.598 20.145-3.588 118.937-10.163 186.027-9.331 2.175-.531 10.063-7.667 12.298-10.494l-5.061-206.443c0-.12 0-.241.02-.351a5.84 5.84 0 0 0-1.243-4.34 5.7 5.7 0 0 0-3.879-2.125c-3.828-.4-8.88-1.012-14.713-1.734-37.434-4.58-115.339-14.111-178.922-2.826-3.999.712-10.293 6.715-10.082 8.96v.13z"/><path fill="#FFFBE8" d="M218.539 15.234c-29.135-3.007-123.557-17.99-199.317-4.65-4.17.73-12.589 14.241-12.168 18.761l9.221 222.58a8.465 8.465 0 0 0 9.511 5.693c21.448-3.788 122.816-10.283 190.418-9.431 3.037.04 13.601-10.032 15.134-12.448.02 1.644.882-1.393 0 0l-5.252-211.084c.552-4.69-2.836-8.93-7.547-9.421"/><path fill="#000" d="M24.333 260.245c-4.65 0-8.95-2.997-10.443-7.537a2.6 2.6 0 0 1-.12-.682L4.548 29.496c-.43-5.632 8.6-20.396 14.232-21.388 65.958-11.616 146.368-1.824 185.015 2.877 5.964.721 11.115 1.353 14.994 1.754 2.947.3 5.592 1.743 7.437 4.049a10.9 10.9 0 0 1 2.355 7.958l5.212 209.24c.4.601.591 1.443.29 2.515-.351 1.253-1.112 1.895-1.894 2.125-3.388 3.829-11.987 12.057-15.986 12.057h-.04c-68.574-.872-169.44 5.763-189.947 9.391a11 11 0 0 1-1.884.171m-5.572-8.8c1.022 2.616 3.798 4.199 6.594 3.708 20.657-3.648 121.974-10.333 190.789-9.471 2.225-.511 10.363-7.828 12.668-10.724L223.58 24.716c0-.12 0-.241.02-.351a5.9 5.9 0 0 0-1.273-4.43 5.96 5.96 0 0 0-4.039-2.205c-3.929-.401-9.101-1.032-15.084-1.764-38.406-4.67-118.306-14.392-183.532-2.917-2.867.652-10.424 12.659-10.103 16.066v.13l9.2 222.2z"/><path fill="#FFFBE8" d="M226.377 6.736C197.241 3.729 94.972-2.745 19.212 10.585c-4.17.731-4.741 5.732-4.32 10.263L26.077 240.15a8.465 8.465 0 0 0 9.511 5.693c21.448-3.788 120.852-7.016 188.454-6.164a8.48 8.48 0 0 0 7.286-3.949c.882-1.393 1.253-3.046 1.233-4.69l1.363-214.893a8.48 8.48 0 0 0-7.547-9.421z"/><path fill="#000" d="M34.145 248.479c-4.65 0-8.95-3.007-10.443-7.537a2.4 2.4 0 0 1-.12-.652L12.405 21.038c-.922-10.093 3.598-12.418 6.385-12.91C93.148-4.96 194.044.893 226.648 4.25a10.85 10.85 0 0 1 7.436 4.059 10.84 10.84 0 0 1 2.345 7.998l-1.363 214.762c.031 2.195-.531 4.29-1.613 6.014a10.97 10.97 0 0 1-9.431 5.121c-68.204-.861-166.585 2.346-187.983 6.124a11 11 0 0 1-1.884.171zm-5.583-8.82c1.023 2.626 3.8 4.219 6.595 3.718 21.619-3.818 120.491-7.066 188.925-6.194 2.155.02 4.019-1.012 5.131-2.786.572-.902.862-2.045.842-3.318l1.363-214.942c0-.09 0-.19.02-.281a5.88 5.88 0 0 0-1.273-4.43 5.95 5.95 0 0 0-4.039-2.205C193.724 5.884 93.448.061 19.653 13.05c-2.536.45-2.506 4.93-2.255 7.567v.1z"/><path fill="#FFFBE8" d="M163.656 53.29c-10.383-1.504-39.308-1.433-65.166 2.165-1.534.21-1.724 3.167-1.594 5.652l2.906 120.291c.452 2.185 1.885 3.498 3.368 3.077 7.677-2.185 32.403-3.478 56.537-3.338 1.082 0 2.065-.862 2.626-2.205.321-.772.461-1.674.461-2.576l3.508-117.925c.22-2.575-.972-4.89-2.646-5.131z"/><path fill="#000" d="M102.629 187.06c-.832 0-1.654-.23-2.396-.681-1.443-.872-2.465-2.466-2.876-4.47a2.2 2.2 0 0 1-.05-.441L94.39 61.178c-.26-5.032 1.003-7.808 3.749-8.199 26.509-3.698 55.775-3.628 65.868-2.165 3.006.431 5.091 3.829 4.79 7.748l-3.507 117.864c0 1.223-.231 2.446-.652 3.468-.962 2.315-2.846 3.739-4.921 3.739h-.03c-24.806-.131-48.84 1.252-55.835 3.247-.411.12-.822.17-1.243.17zm-.321-5.973c.13.491.311.772.421.912 9.121-2.476 35.76-3.488 56.868-3.368.09-.08.27-.28.421-.661.17-.411.27-.982.27-1.614l3.508-118.005v-.14c.11-1.333-.351-2.235-.601-2.446-9.802-1.393-37.875-1.443-63.663 2.085-.11.461-.24 1.403-.15 3.137l2.906 120.1z"/><path fill="#FFFBE8" d="M127.375 171.586c-6.685 3.548-25.678 13.31-24.195 12.889 7.677-2.185 32.403-3.478 56.537-3.337 1.083 0 5.042-1.895 7.006-2.666 4.7-1.845 20.346-8.299 26.339-10.414"/><path fill="#000" d="M103.17 186.981c-1.022 0-2.004-.602-2.395-1.574-.842-2.115.972-3.117 2.566-3.999.942-.521 2.285-1.243 3.868-2.085 3.137-1.663 7.226-3.798 10.975-5.752 3.167-1.654 6.094-3.178 8.018-4.2a2.505 2.505 0 0 1 3.387 1.042 2.504 2.504 0 0 1-1.042 3.388 1067 1067 0 0 1-8.048 4.21 568 568 0 0 1-3.829 1.994c12.178-1.032 28.785-1.463 42.947-1.383.692-.14 2.866-1.083 4.049-1.594.802-.35 1.554-.671 2.135-.902 1.373-.541 3.678-1.473 6.404-2.575 6.635-2.687 15.726-6.355 20.015-7.868a2.506 2.506 0 0 1 3.197 1.533 2.5 2.5 0 0 1-1.533 3.197c-4.189 1.474-13.22 5.122-19.805 7.788a1328 1328 0 0 1-6.454 2.596c-.541.21-1.233.511-1.985.832-3.217 1.393-4.76 2.004-5.933 2.004h-.02c-24.826-.14-48.84 1.253-55.835 3.247a2.4 2.4 0 0 1-.702.101z"/><path fill="#FFFBE8" d="M163.656 53.29c-10.303-1.995-39.308-1.434-65.166 2.165-1.534.21-1.724 3.167-1.594 5.652l27.762 107.211c.451 2.185 1.885 3.498 3.368 3.077 7.677-2.185 40.25-3.478 64.385-3.338 1.082 0 2.064-.861 2.625-2.205.321-.771.461-1.673.461-2.575L165.119 54.132c-.361-.542-.421-.642-1.453-.832z"/><path fill="#000" d="M127.475 173.981a4.6 4.6 0 0 1-2.396-.682c-1.423-.861-2.435-2.425-2.866-4.409L94.471 61.729c-.04-.16-.07-.33-.08-.501-.261-5.102 1.002-7.878 3.748-8.269 26.8-3.738 55.755-4.13 65.988-2.145 1.594.311 2.275.732 3.057 1.905q.225.33.331.721l30.378 109.145c.06.221.09.441.09.672 0 1.293-.22 2.516-.651 3.548-.963 2.315-2.847 3.738-4.921 3.738h-.031c-24.254-.14-56.366 1.163-63.683 3.248-.411.12-.821.17-1.242.17zM99.392 60.737l27.692 106.96.03.12c.12.602.341.952.471 1.103 8.92-2.386 43.107-3.498 64.715-3.378.09-.08.271-.281.421-.661.141-.341.231-.802.261-1.303L162.954 55.695c-9.762-1.794-37.875-1.363-63.402 2.135-.1.441-.22 1.313-.16 2.897z"/><path fill="#000" d="M291.974 69.135c4.921-3.698 10.424-7.607 15.505-11.105 5.222-3.618 10.444-7.256 16.056-10.353a2.52 2.52 0 0 1 3.428.992 2.52 2.52 0 0 1-.481 3.057c-4.661 4.4-9.722 8.239-14.773 12.107-4.901 3.769-10.293 7.798-15.325 11.356-4.039 2.716-8.228-3.037-4.41-6.054"/><path fill="#000" d="M308.091 159.528c10.243 4.821 19.353 11.747 27.561 19.484a2.545 2.545 0 0 1-.01 3.598 2.535 2.535 0 0 1-2.876.491c-2.586-1.222-5.031-2.626-7.447-4.089-7.186-4.47-14.232-9.241-20.125-15.384a2.556 2.556 0 0 1 .14-3.619 2.56 2.56 0 0 1 2.757-.471z"/><path fill="#000" d="M306.036 116.081c8.198-3.027 16.948-3.468 25.537-4.601 8.58-.982 17.169-1.834 25.798-2.265a2.504 2.504 0 0 1 2.626 2.386 2.514 2.514 0 0 1-2.054 2.596 294 294 0 0 1-12.799 2.014c-10.704 1.343-21.408 2.957-32.203 3.308-2.174.01-4.349-.061-6.554-.371a1.595 1.595 0 0 1-.351-3.067"/></svg>