<svg xmlns="http://www.w3.org/2000/svg" width="480" height="480" fill="none" viewBox="0 0 480 480">
  <path
    fill="#A17AD8"
    d="m349.935 303.424-.032.097c-2.224 6.207-8.184 10.239-14.585 10.239-1.006 0-2.023-.1-3.037-.306-5.193-1.055-128.515-25.87-246.122-27.406-.46-.006-.914-.039-1.366-.084 3.167 2.899 6.895 5.032 10.715 5.084 94.143 1.295 193.477 18.825 244.309 29.159 5.035 1.024 10.147-1.843 11.903-6.676l45.522-145.313.033-.096c.669-1.867-.225-5.765-1.848-9.916z"
  />
  <path
    fill="#000"
    d="M238.02 387.268c78.357 0 141.877-5.711 141.877-12.756 0-7.044-63.52-12.755-141.877-12.755s-141.877 5.711-141.877 12.755 63.52 12.756 141.877 12.756"
  />
  <path
    fill="#6DB5C3"
    d="M82.361 111.172q.015.164.008.329L76.01 270.104c-.088 2.197.377 4.217 1.345 5.838 1.879 3.15 5.194 5.058 8.87 5.106 118.072 1.543 241.841 26.447 247.052 27.506 5.035 1.024 10.147-1.844 11.903-6.676l45.522-145.314.032-.096c1.811-5.055-.365-10.765-4.849-12.729-120.03-52.56-255.315-46.924-293.92-43.947a10.38 10.38 0 0 0-7.182 3.678 10.38 10.38 0 0 0-2.422 7.702m29.207 149.692a1.28 1.28 0 0 1-.823.43 1.05 1.05 0 0 1-.862-.275l-.219-.168-.265 6.224q-.043 1.018-.763 1.68-.72.66-1.738.617l-3.576-.152a.6.6 0 0 1-.423-.188.55.55 0 0 1-.163-.426l.18-4.233a1.16 1.16 0 0 0-.315-.863 1.16 1.16 0 0 0-.834-.387 1.16 1.16 0 0 0-.864.314 1.16 1.16 0 0 0-.386.834l-.179 4.21a.6.6 0 0 1-.188.423.55.55 0 0 1-.427.163l-3.599-.153q-1.017-.043-1.679-.763-.66-.719-.618-1.738l.263-6.179-.187.128a1.1 1.1 0 0 1-.893.212 1.2 1.2 0 0 1-.795-.51 1.13 1.13 0 0 1-.189-.881q.088-.484.487-.784l1.705-1.175.083-1.946q.021-.498.387-.834.365-.336.863-.315t.834.387.315.863l-.005.114 4.065-2.821q.328-.235.706-.344a2.4 2.4 0 0 1 .764-.092q.385.017.753.146.369.128.675.391l7.756 6.384q.37.333.429.823t-.275.884m68.409 6.096c-.336 3.514-3.324 6.174-6.797 6.174q-.292 0-.588-.025c-16.751-1.446-25.88-1.884-25.97-1.889a2 2 0 0 1-.151-.012 6.58 6.58 0 0 1-5.831-7.244c.386-3.566 3.566-6.169 7.127-5.844 1.07.026 10.661.275 25.904 1.383a6.8 6.8 0 0 1 4.726 2.407 6.77 6.77 0 0 1 1.58 5.05m44.288 4.481a6.84 6.84 0 0 1-2.541 4.671 6.84 6.84 0 0 1-5.117 1.472 1560 1560 0 0 0-25.391-2.744 6.866 6.866 0 0 1-6.194-7.302 6.86 6.86 0 0 1 2.41-4.832 6.86 6.86 0 0 1 5.117-1.615c4.51.431 9.057.899 13.517 1.394q6.484.718 12.176 1.409c3.703.447 6.405 3.832 6.023 7.547m43.731 6.285a6.53 6.53 0 0 1-2.415 4.416 6.52 6.52 0 0 1-4.976 1.394c-.093-.015-9.491-1.589-26.176-3.758a6.8 6.8 0 0 1-5.921-7.456 6.77 6.77 0 0 1 2.577-4.689 6.76 6.76 0 0 1 5.173-1.395c16.773 2.353 24.953 4.03 26.046 4.26a6.53 6.53 0 0 1 4.277 2.398 6.53 6.53 0 0 1 1.415 4.83m39.08-1.415-2.35 13.535c-.078.45-.315.808-.683 1.034a1.6 1.6 0 0 1-1.149.22c-.179-.03-.391-.134-.895-.549l-.091-.1-5.224-7.468a2.2 2.2 0 0 1-.345-.738 2 2 0 0 1-.023-.824 2.04 2.04 0 0 1 .877-1.362l7.435-5.271q.262-.185.553-.257.302-.071.612-.017c.402.068.738.268.995.594.267.339.367.755.288 1.203m19.197 10.956c-.065.281-.18.534-.343.749a2.2 2.2 0 0 1-.608.547l-7.843 4.893c-.444.132-.691.177-.861.177a1 1 0 0 1-.177-.02 1.6 1.6 0 0 1-.972-.651 1.47 1.47 0 0 1-.226-1.22l3.116-13.379c.103-.444.357-.788.734-.994a1.59 1.59 0 0 1 1.703.094q.243.182.412.455l4.79 7.753q.23.37.302.77c.047.267.039.546-.027.826m46.788-126.47-30.796 106.07-.035.11c-1.032 3.029-3.907 4.988-6.986 4.988a7.3 7.3 0 0 1-1.807-.228c-.9-.232-91.748-23.177-234.209-28.389a7.364 7.364 0 0 1-7.105-7.256q0-.078.003-.154l5.544-115.153c-.009-3.819 2.943-7.042 6.754-7.353 5.673-.468 140.395-10.845 264.617 38.309 3.493 1.382 5.25 5.352 4.02 9.056"
  />
  <path
    fill="#000"
    d="M387.89 139.159C266.798 86.133 130.476 91.806 91.58 94.808a15.34 15.34 0 0 0-10.618 5.436 15.35 15.35 0 0 0-3.595 11.214l-6.353 158.445c-.117 2.92.483 5.669 1.723 8.006 3.399 7.309 12.088 17.994 22.702 18.139 93.736 1.289 192.721 18.76 243.382 29.06 1.015.206 2.032.305 3.038.305 6.401 0 12.361-4.032 14.585-10.24l.032-.096 45.525-145.323c1.763-5.068-2.007-15.448-6.7-22.789-1.357-3.424-3.926-6.279-7.411-7.806m9.385 28.963-.033.096-45.522 145.313c-1.756 4.832-6.868 7.7-11.903 6.676-50.832-10.334-150.166-27.864-244.31-29.159-3.818-.052-7.547-2.185-10.714-5.084.452.045.906.078 1.366.084 117.607 1.536 240.929 26.351 246.122 27.406a15.3 15.3 0 0 0 3.037.306c6.401 0 12.361-4.032 14.585-10.239l.032-.097 45.492-145.218c1.623 4.151 2.517 8.049 1.848 9.916m-305.31-68.33c38.605-2.977 173.89-8.613 293.92 43.947 4.484 1.964 6.66 7.674 4.849 12.729l-.032.096-45.522 145.314c-1.756 4.832-6.868 7.7-11.903 6.676-5.211-1.059-128.98-25.963-247.053-27.506a10.41 10.41 0 0 1-8.87-5.106c-.967-1.621-1.432-3.641-1.344-5.838l6.36-158.603q.005-.165-.009-.329a10.38 10.38 0 0 1 2.422-7.702 10.38 10.38 0 0 1 7.183-3.678"
  />
  <path
    fill="#DCEDF1"
    d="M368.309 159.243c.392-1.153-.114-2.46-1.108-2.853-123.148-48.729-256.742-38.437-262.368-37.976a2.37 2.37 0 0 0-2.163 2.388q.002.078-.003.154l-5.543 115.131a2.37 2.37 0 0 0 2.287 2.265c142.993 5.231 234.363 28.308 235.269 28.541a2.37 2.37 0 0 0 2.802-1.485l30.792-106.055q.016-.055.035-.11m-187.226 36.54a5.06 5.06 0 0 1-3.506 1.356q-.114 0-.232-.005c-1.434-.056-2.651-.607-3.621-1.637-.973-1.034-1.439-2.276-1.383-3.692a4.9 4.9 0 0 1 .469-1.936 5.1 5.1 0 0 1 1.188-1.589l3.099-2.828a1 1 0 0 1 1.404.054l2.865 3.052a5.3 5.3 0 0 1 1.063 1.684c.24.62.348 1.282.321 1.968-.056 1.416-.616 2.618-1.667 3.573m12.924-10.553c-.116 2.97-.957 5.692-2.5 8.089-1.535 2.385-3.538 4.279-5.955 5.629a1.001 1.001 0 0 1-1.273-1.491 9 9 0 0 0 1.323-2.336 8.3 8.3 0 0 0 .542-2.667 8.7 8.7 0 0 0-.537-3.383 9 9 0 0 0-1.811-2.944l-6.06-6.378-6.508 5.9a8.6 8.6 0 0 0-2.071 2.749 8.65 8.65 0 0 0-.796 3.353c-.036.939.075 1.85.332 2.71.26.873.643 1.691 1.138 2.434a1 1 0 0 1-1.386 1.386c-2.305-1.534-4.155-3.58-5.499-6.079-1.352-2.512-1.978-5.295-1.862-8.268.143-3.673 1.39-7.246 3.707-10.621 2.287-3.329 5.414-6.248 9.294-8.674 1.25-.791 2.592-.781 3.877.03 1.255.795 1.887 1.999 1.829 3.484l-.085 2.183c-.024.615.152 1.101.554 1.526.408.432.889.645 1.511.669.29.011.568-.044.853-.168.295-.128.557-.319.799-.581a3.2 3.2 0 0 1 1.811-1.021 2.6 2.6 0 0 1 2.096.49 17.5 17.5 0 0 1 5.048 6.248c1.185 2.46 1.733 5.061 1.629 7.731m-29.526-50.684c-23.105 0-41.902 18.797-41.902 41.901s18.797 41.902 41.902 41.902a3.5 3.5 0 1 1 0 7c-26.965 0-48.902-21.938-48.902-48.902 0-26.963 21.937-48.901 48.902-48.901a48.91 48.91 0 0 1 42.971 25.542 3.5 3.5 0 1 1-6.148 3.348 41.91 41.91 0 0 0-36.823-21.89m-24.246 46.394q-.984 0-1.429-.876-.446-.875.108-1.674l10.385-14.994a1.8 1.8 0 0 1 .86-.646 1.43 1.43 0 0 1 1.045.031q.523.215.814.692.292.476.231 1.029l-1.107 8.757h4.333q1.044 0 1.49.937.445.936-.23 1.736l-11.338 13.703a1.5 1.5 0 0 1-.861.554q-.522.122-1.044-.123a1.6 1.6 0 0 1-.768-.722 1.7 1.7 0 0 1-.185-.999l1.045-7.405zm182.914 65.436a2.444 2.444 0 0 1-2.853 1.898c-10.29-1.985-20.583-3.949-30.906-5.767-28.172-5.125-57.076-9.128-85.38-13.338l-7.754-1.254c-2.035-.354-1.786-3.417.353-3.348 10.35.572 21.134 1.749 31.398 3.079 26.002 3.443 52.065 7.53 77.805 12.645 5.162.995 10.302 2.109 15.447 3.19a2.443 2.443 0 0 1 1.89 2.895m2.215-14.309c-20.758-4.067-43.531-8.561-64.27-12.008-7.149-1.234-14.417-2.105-21.429-3.552-2.373-.517-2.035-4.021.414-4.047 7.38.111 14.569 1.522 21.828 2.621 21.589 3.479 43.03 7.739 64.406 12.315 3.006.703 2.152 5.193-.949 4.671m31.956-60.943a2.436 2.436 0 0 1-3.144 1.446 645 645 0 0 0-100.036-27.12c-11.294-2.204-22.778-3.561-34.065-5.713-2.248-.409-2.01-3.78.347-3.782 11.722.271 23.137 2.534 34.634 4.488 22.885 4.13 45.531 9.568 67.773 16.364 11.143 3.33 22.112 7.213 33.037 11.194a2.436 2.436 0 0 1 1.454 3.123"
  />
  <path
    fill="#000"
    d="M369.041 151.741c-124.222-49.154-258.944-38.777-264.617-38.309-3.811.311-6.763 3.534-6.754 7.353l-5.544 115.153-.003.154a7.364 7.364 0 0 0 7.105 7.256c142.461 5.212 233.309 28.157 234.209 28.389a7.3 7.3 0 0 0 1.807.228c3.079 0 5.954-1.959 6.986-4.988q.019-.054.035-.11l30.796-106.07c1.23-3.704-.527-7.674-4.02-9.056M334.68 266.893c-.906-.233-92.276-23.31-235.27-28.541a2.37 2.37 0 0 1-2.286-2.265l5.543-115.131q.005-.076.003-.154a2.37 2.37 0 0 1 2.162-2.388c5.626-.461 139.221-10.753 262.369 37.976.994.393 1.5 1.7 1.108 2.853q-.019.056-.035.11l-30.792 106.055a2.37 2.37 0 0 1-2.802 1.485"
  />
  <path
    fill="#000"
    d="M206.052 157.835a3.5 3.5 0 0 0 1.4-4.747 48.91 48.91 0 0 0-42.971-25.542c-26.965 0-48.902 21.938-48.902 48.902 0 26.963 21.937 48.901 48.902 48.901a3.5 3.5 0 0 0 0-7c-23.105 0-41.902-18.797-41.902-41.901s18.797-41.902 41.902-41.902a41.91 41.91 0 0 1 36.823 21.89 3.5 3.5 0 0 0 4.748 1.399"
  />
  <path
    fill="#DCEDF1"
    d="M261.345 278.591c.398.029.788-.091 1.102-.344.327-.264.533-.639.578-1.058a1.57 1.57 0 0 0-.339-1.158 1.57 1.57 0 0 0-1.058-.579 2 2 0 0 1-.257-.041c-.081-.017-8.326-1.769-25.808-4.222a1.8 1.8 0 0 0-1.389.376c-.396.31-.642.757-.691 1.256a1.845 1.845 0 0 0 1.59 1.998c15.913 2.069 25.259 3.604 26.272 3.772"
  />
  <path
    fill="#000"
    d="M262.304 270.498c-1.093-.23-9.273-1.907-26.046-4.26a6.76 6.76 0 0 0-5.173 1.395 6.77 6.77 0 0 0-2.577 4.69 6.8 6.8 0 0 0 5.921 7.455c16.685 2.169 26.083 3.743 26.176 3.759q.073.012.146.02.362.039.72.039a6.52 6.52 0 0 0 4.11-1.454 6.53 6.53 0 0 0 2.415-4.416 6.53 6.53 0 0 0-1.415-4.83 6.53 6.53 0 0 0-4.277-2.398m-28.821 2.323c.049-.499.295-.946.691-1.256a1.8 1.8 0 0 1 1.389-.376c17.482 2.453 25.727 4.205 25.808 4.223q.128.027.257.041c.418.044.794.251 1.058.578.264.328.384.739.339 1.158a1.57 1.57 0 0 1-.578 1.058 1.56 1.56 0 0 1-1.102.344c-1.013-.168-10.359-1.703-26.271-3.772a1.845 1.845 0 0 1-1.591-1.998"
  />
  <path
    fill="#DCEDF1"
    d="M219.292 270.93a1.9 1.9 0 0 0-1.651-2.072q-5.668-.689-12.126-1.405a885 885 0 0 0-13.44-1.384 1.87 1.87 0 0 0-1.399.442 1.9 1.9 0 0 0-.663 1.323c-.067 1.048.679 1.93 1.698 2.031a1565 1565 0 0 1 25.474 2.752c.509.06 1.01-.085 1.409-.405.398-.319.646-.774.698-1.282"
  />
  <path
    fill="#000"
    d="M218.242 263.894q-5.692-.691-12.176-1.409c-4.46-.495-9.007-.963-13.517-1.394a6.86 6.86 0 0 0-5.117 1.615 6.86 6.86 0 0 0-2.41 4.832 6.866 6.866 0 0 0 6.194 7.302 1560 1560 0 0 1 25.391 2.744q.408.047.813.047a6.84 6.84 0 0 0 4.304-1.519 6.84 6.84 0 0 0 2.541-4.671c.382-3.715-2.32-7.1-6.023-7.547m-1.057 8.723a1565 1565 0 0 0-25.474-2.752c-1.019-.101-1.765-.983-1.698-2.031.034-.517.269-.987.663-1.323a1.87 1.87 0 0 1 1.399-.442c4.484.427 9.006.893 13.44 1.384q6.458.716 12.126 1.405a1.9 1.9 0 0 1 1.651 2.071c-.053.508-.3.964-.698 1.283-.399.32-.9.465-1.409.405"
  />
  <path
    fill="#DCEDF1"
    d="M173.307 264.489c-15.964-1.16-25.647-1.371-25.743-1.373a2 2 0 0 1-.217-.013 1.585 1.585 0 0 0-1.736 1.398 1.58 1.58 0 0 0 1.342 1.73c1.017.049 10.121.52 26.069 1.895a1.827 1.827 0 0 0 1.978-1.641 1.8 1.8 0 0 0-.423-1.348 1.82 1.82 0 0 0-1.27-.648"
  />
  <path
    fill="#000"
    d="M173.671 259.503c-15.243-1.108-24.834-1.357-25.904-1.383-3.561-.325-6.741 2.278-7.127 5.844a6.583 6.583 0 0 0 5.831 7.244q.076.009.151.012c.09.005 9.219.443 25.97 1.888q.296.026.588.026c3.473 0 6.461-2.66 6.797-6.174a6.77 6.77 0 0 0-1.58-5.05 6.8 6.8 0 0 0-4.726-2.407m1.329 6.981a1.827 1.827 0 0 1-1.978 1.642c-15.948-1.375-25.052-1.846-26.069-1.895a1.58 1.58 0 0 1-1.342-1.73 1.585 1.585 0 0 1 1.736-1.398q.108.011.217.013c.096.002 9.779.213 25.743 1.373a1.82 1.82 0 0 1 1.27.648c.32.378.47.857.423 1.347"
  />
  <path
    fill="#000"
    d="M388.977 110.274c2.206-3.099 4.823-6.054 7.496-8.75 2.541-3.335-2.251-7.174-4.953-3.976a72.6 72.6 0 0 0-6.767 10.06c-1.457 2.745 2.358 5.172 4.224 2.666"
  />
  <path
    fill="#000"
    d="M430.506 98.841a3.333 3.333 0 0 0-4.682-.59 156 156 0 0 0-5.249 4.271c-5.161 4.356-10.327 8.764-14.991 13.656a2.525 2.525 0 0 0 3.08 3.939c5.966-3.527 11.213-7.815 16.44-12.264a120 120 0 0 0 5.069-4.56c1.211-1.166 1.386-3.092.333-4.452"
  />
  <path
    fill="#000"
    d="M103.658 252.773a2.1 2.1 0 0 0-.675-.391 2.6 2.6 0 0 0-.753-.146 2.4 2.4 0 0 0-.764.092 2.3 2.3 0 0 0-.706.344l-4.065 2.821.005-.114a1.16 1.16 0 0 0-.315-.863 1.16 1.16 0 0 0-.834-.387 1.16 1.16 0 0 0-.863.315 1.16 1.16 0 0 0-.387.834l-.083 1.946-1.705 1.175q-.399.3-.487.784-.09.483.19.881.299.42.794.51.495.089.893-.212l.187-.128-.263 6.179q-.043 1.019.618 1.738.66.72 1.68.763l3.598.153a.55.55 0 0 0 .427-.163.6.6 0 0 0 .188-.423l.179-4.21q.021-.498.387-.834.365-.335.863-.314t.834.387q.336.365.315.863l-.18 4.233a.55.55 0 0 0 .163.426.6.6 0 0 0 .423.188l3.576.152q1.018.043 1.738-.617.72-.661.763-1.68l.265-6.224.219.168q.372.333.862.275a1.28 1.28 0 0 0 .823-.43q.334-.394.275-.884a1.28 1.28 0 0 0-.429-.823z"
  />
  <path
    fill="#000"
    d="M305.793 274.514a1.5 1.5 0 0 0-.612.018q-.291.07-.553.256l-7.435 5.271a2.04 2.04 0 0 0-.877 1.362q-.073.43.023.824c.064.254.18.503.345.738l5.224 7.468.091.1c.504.415.716.519.895.549q.15.026.297.026.45 0 .852-.246c.368-.226.605-.584.683-1.034l2.35-13.535a1.48 1.48 0 0 0-.288-1.203 1.57 1.57 0 0 0-.995-.594"
  />
  <path
    fill="#000"
    d="m325.998 285.671-4.79-7.753a1.6 1.6 0 0 0-.412-.455 1.59 1.59 0 0 0-1.703-.094c-.377.206-.631.55-.734.994l-3.116 13.379c-.103.446-.025.868.226 1.22.241.339.568.558.972.651q.075.019.177.02c.17 0 .417-.045.861-.177l7.843-4.893a2.2 2.2 0 0 0 .608-.547c.163-.215.278-.468.343-.749a2.04 2.04 0 0 0-.275-1.596"
  />
  <path
    fill="#000"
    d="M187.33 171.251a2.6 2.6 0 0 0-2.096-.49 3.22 3.22 0 0 0-1.811 1.021 2.4 2.4 0 0 1-.799.582 1.9 1.9 0 0 1-.853.167c-.622-.024-1.103-.237-1.511-.668-.402-.426-.578-.912-.554-1.527l.085-2.182c.058-1.486-.574-2.69-1.829-3.485-1.285-.811-2.627-.821-3.877-.03-3.88 2.426-7.007 5.345-9.294 8.674-2.317 3.375-3.564 6.948-3.707 10.621-.116 2.973.51 5.756 1.862 8.268 1.344 2.499 3.194 4.545 5.499 6.079a1 1 0 0 0 1.386-1.386 9 9 0 0 1-1.138-2.434 8.3 8.3 0 0 1-.332-2.71 8.65 8.65 0 0 1 .796-3.353 8.6 8.6 0 0 1 2.071-2.749l6.508-5.9 6.06 6.378a9 9 0 0 1 1.811 2.945 8.7 8.7 0 0 1 .537 3.382 8.3 8.3 0 0 1-.542 2.667 9 9 0 0 1-1.323 2.336 1 1 0 0 0 1.273 1.491c2.417-1.35 4.42-3.244 5.955-5.628 1.543-2.398 2.384-5.12 2.5-8.09.104-2.67-.444-5.271-1.629-7.731a17.5 17.5 0 0 0-5.048-6.248"
  />
  <path
    fill="#000"
    d="m181.366 188.558-2.865-3.052c-.375-.398-1-.423-1.404-.054l-3.099 2.829a5.1 5.1 0 0 0-1.188 1.588 4.9 4.9 0 0 0-.469 1.936c-.056 1.416.41 2.658 1.383 3.692.97 1.03 2.187 1.581 3.621 1.637q.118.005.232.005a5.06 5.06 0 0 0 3.506-1.356c1.051-.955 1.611-2.157 1.667-3.573a4.9 4.9 0 0 0-.321-1.968 5.4 5.4 0 0 0-1.063-1.684"
  />
  <path
    fill="#000"
    d="M142.724 189.344q.246.476.768.722t1.044.123a1.5 1.5 0 0 0 .861-.553l11.338-13.704q.675-.799.23-1.736t-1.49-.937h-4.333l1.107-8.757a1.58 1.58 0 0 0-.231-1.029 1.68 1.68 0 0 0-.814-.692 1.42 1.42 0 0 0-1.045-.03 1.8 1.8 0 0 0-.86.645l-10.385 14.994q-.553.8-.108 1.674.445.876 1.429.876h3.349l-1.045 7.405a1.7 1.7 0 0 0 .185.999"
  />
  <path
    fill="#000"
    d="M321.259 243.481c-5.145-1.08-10.285-2.194-15.447-3.19-25.74-5.114-51.803-9.201-77.805-12.644-10.264-1.331-21.048-2.508-31.398-3.08-2.139-.068-2.388 2.994-.353 3.348l7.754 1.254c28.304 4.21 57.208 8.213 85.38 13.338 10.323 1.818 20.616 3.782 30.906 5.767a2.444 2.444 0 0 0 .963-4.793"
  />
  <path
    fill="#000"
    d="M326.313 227.396c-21.376-4.576-42.817-8.836-64.406-12.315-7.259-1.099-14.448-2.51-21.828-2.621-2.449.026-2.787 3.53-.414 4.047 7.012 1.447 14.28 2.318 21.429 3.552 20.739 3.447 43.512 7.941 64.27 12.008 3.101.522 3.955-3.968.949-4.671"
  />
  <path
    fill="#000"
    d="M355.866 168.001c-10.925-3.981-21.894-7.864-33.037-11.194-22.242-6.796-44.888-12.234-67.773-16.364-11.497-1.954-22.912-4.217-34.634-4.488-2.357.002-2.595 3.373-.347 3.782 11.287 2.152 22.771 3.509 34.065 5.713a645 645 0 0 1 100.036 27.12 2.437 2.437 0 1 0 1.69-4.569"
  />
</svg>
