<svg xmlns="http://www.w3.org/2000/svg" width="321" height="262" fill="none" viewBox="0 0 321 262"><path fill="#A17AD8" d="m248.348 187.35-.029.086c-1.98 5.526-7.287 9.116-12.986 9.116-.895 0-1.8-.088-2.704-.272-4.623-.94-114.421-23.033-219.132-24.401-.41-.005-.814-.035-1.216-.075 2.82 2.581 6.139 4.48 9.54 4.527 83.819 1.153 172.26 16.761 217.519 25.962 4.482.911 9.034-1.642 10.598-5.944l40.53-129.379.028-.085c.596-1.663-.2-5.133-1.645-8.83z"/><path fill="#000" d="M148.705 262c69.764 0 126.32-5.085 126.32-11.357 0-6.273-56.556-11.357-126.32-11.357s-126.32 5.084-126.32 11.357S78.942 262 148.706 262"/><path fill="#6DB5C3" d="M10.115 16.18q.014.145.008.292L4.46 157.683c-.079 1.956.335 3.754 1.197 5.198a9.27 9.27 0 0 0 7.897 4.546c105.125 1.374 215.322 23.547 219.961 24.49 4.484.912 9.035-1.642 10.598-5.944l40.53-129.38.029-.085c1.612-4.5-.325-9.584-4.318-11.333C173.488-1.62 53.038 3.396 18.667 6.047a9.24 9.24 0 0 0-6.395 3.275 9.24 9.24 0 0 0-2.157 6.857M36.12 149.455a1.14 1.14 0 0 1-.733.383.94.94 0 0 1-.767-.244l-.195-.15-.236 5.542q-.038.907-.679 1.495-.64.588-1.547.55l-3.184-.136a.54.54 0 0 1-.377-.167.5.5 0 0 1-.145-.38l.16-3.768a1.03 1.03 0 0 0-.28-.769 1.03 1.03 0 0 0-.743-.344 1.03 1.03 0 0 0-.769.28 1.03 1.03 0 0 0-.344.742l-.16 3.748a.54.54 0 0 1-.167.377.5.5 0 0 1-.38.145l-3.204-.136q-.907-.039-1.495-.679t-.55-1.548l.234-5.501-.166.114a.98.98 0 0 1-.796.188 1.07 1.07 0 0 1-.707-.454 1 1 0 0 1-.169-.784q.079-.43.434-.698l1.518-1.046.074-1.733q.018-.444.344-.743a1.03 1.03 0 0 1 .77-.28q.442.019.742.345.298.326.28.768l-.005.101 3.62-2.511q.291-.21.629-.306.336-.097.68-.082.342.015.67.129.329.115.601.349l6.905 5.683q.33.298.383.733a1 1 0 0 1-.246.787m60.908 5.428c-.299 3.129-2.96 5.497-6.051 5.497q-.261 0-.525-.023c-14.914-1.286-23.041-1.677-23.122-1.681a5.86 5.86 0 0 1-5.326-6.46c.344-3.176 3.175-5.493 6.346-5.203.952.022 9.492.244 23.063 1.231a6.04 6.04 0 0 1 4.208 2.143 6.03 6.03 0 0 1 1.407 4.496m39.432 3.989a6.1 6.1 0 0 1-2.263 4.159 6.1 6.1 0 0 1-4.556 1.311 1381 1381 0 0 0-22.606-2.443 6.113 6.113 0 0 1-5.515-6.501 6.1 6.1 0 0 1 2.145-4.302 6.1 6.1 0 0 1 4.556-1.438c4.016.383 8.064.8 12.035 1.24q5.773.641 10.841 1.255c3.297.398 5.702 3.412 5.363 6.719m38.935 5.596a5.82 5.82 0 0 1-2.15 3.932 5.8 5.8 0 0 1-4.43 1.242c-.083-.014-8.451-1.416-23.306-3.347a6.054 6.054 0 0 1-5.272-6.637 6.03 6.03 0 0 1 2.294-4.176 6.02 6.02 0 0 1 4.606-1.242c14.934 2.095 22.217 3.588 23.19 3.793a5.8 5.8 0 0 1 3.808 2.135 5.82 5.82 0 0 1 1.26 4.3m34.795-1.26-2.092 12.051c-.07.401-.281.719-.609.921a1.43 1.43 0 0 1-1.023.196c-.159-.027-.348-.119-.796-.489l-.082-.088-4.65-6.65a2 2 0 0 1-.308-.657 1.8 1.8 0 0 1-.02-.734 1.8 1.8 0 0 1 .781-1.212l6.619-4.693q.232-.166.492-.229.27-.064.545-.015c.358.061.657.239.886.528.238.303.327.672.257 1.071m17.092 9.755a1.8 1.8 0 0 1-.305.667 2 2 0 0 1-.542.487l-6.983 4.357c-.395.117-.615.157-.766.157a.7.7 0 0 1-.158-.017 1.43 1.43 0 0 1-.866-.58 1.31 1.31 0 0 1-.201-1.086l2.775-11.913c.091-.394.317-.701.653-.884a1.42 1.42 0 0 1 1.516.083q.217.162.367.406l4.265 6.902q.205.331.268.686a1.8 1.8 0 0 1-.023.735m41.657-112.601-27.419 94.439-.031.097c-.919 2.697-3.479 4.441-6.22 4.441a6.5 6.5 0 0 1-1.609-.203c-.801-.206-81.687-20.635-208.526-25.276a6.557 6.557 0 0 1-6.326-6.46q0-.069.002-.137l4.936-102.525c-.007-3.401 2.62-6.27 6.014-6.548 5.05-.416 125-9.655 235.6 34.109 3.11 1.23 4.674 4.765 3.579 8.063"/><path fill="#000" d="M282.141 41.098C174.328-6.114 52.954-1.063 18.324 1.61A13.66 13.66 0 0 0 8.87 6.45a13.66 13.66 0 0 0-3.201 9.984L.013 157.504c-.105 2.6.43 5.048 1.534 7.128 3.026 6.508 10.762 16.021 20.212 16.15 83.457 1.148 171.588 16.703 216.694 25.873.904.184 1.809.273 2.704.273 5.7 0 11.006-3.59 12.986-9.118l.029-.085 40.532-129.387c1.57-4.512-1.786-13.754-5.965-20.29-1.208-3.05-3.495-5.591-6.598-6.95m8.355 25.787q-.015.041-.028.085l-40.53 129.379c-1.564 4.302-6.116 6.855-10.598 5.943-45.259-9.2-133.7-24.808-217.52-25.961-3.4-.047-6.72-1.946-9.54-4.527.403.04.807.07 1.217.075 104.711 1.368 214.509 23.461 219.132 24.401.904.183 1.809.272 2.704.272 5.699 0 11.006-3.59 12.987-9.116l.028-.086 40.503-129.295c1.445 3.697 2.241 7.167 1.645 8.83M18.666 6.047c34.372-2.65 154.822-7.668 261.689 39.129 3.993 1.748 5.93 6.832 4.318 11.332l-.029.085-40.53 129.38c-1.563 4.302-6.114 6.856-10.598 5.944-4.639-.943-114.836-23.116-219.961-24.49a9.27 9.27 0 0 1-7.897-4.546c-.862-1.443-1.276-3.242-1.197-5.198l5.662-141.21a2 2 0 0 0-.008-.294 9.24 9.24 0 0 1 2.157-6.857 9.24 9.24 0 0 1 6.395-3.275"/><path fill="#DCEDF1" d="M264.707 58.98c.349-1.028-.102-2.191-.986-2.541C154.077 13.054 35.131 22.217 30.123 22.627a2.11 2.11 0 0 0-1.926 2.126q0 .07-.002.137L23.26 127.398a2.11 2.11 0 0 0 2.035 2.016c127.313 4.658 208.664 25.204 209.471 25.411a2.107 2.107 0 0 0 2.494-1.321l27.416-94.426zM98.012 91.511a4.5 4.5 0 0 1-3.122 1.207q-.102 0-.206-.004c-1.277-.05-2.361-.541-3.224-1.457-.867-.921-1.281-2.027-1.232-3.288a4.4 4.4 0 0 1 .418-1.723 4.5 4.5 0 0 1 1.058-1.415l2.76-2.518a.89.89 0 0 1 1.249.048l2.551 2.717q.631.689.946 1.5c.214.552.31 1.14.286 1.752-.05 1.26-.549 2.331-1.484 3.181m11.507-9.396c-.103 2.645-.853 5.068-2.227 7.203-1.366 2.123-3.149 3.809-5.301 5.011a.89.89 0 0 1-1.111-.2.89.89 0 0 1-.023-1.127 8 8 0 0 0 1.178-2.08c.288-.746.45-1.545.483-2.375a7.7 7.7 0 0 0-.478-3.011 8 8 0 0 0-1.613-2.622l-5.395-5.679-5.794 5.253a7.65 7.65 0 0 0-1.845 2.447 7.7 7.7 0 0 0-.708 2.986 7.4 7.4 0 0 0 .295 2.413 8 8 0 0 0 1.013 2.167.89.89 0 0 1-1.234 1.235c-2.052-1.366-3.699-3.188-4.895-5.413-1.204-2.237-1.762-4.714-1.658-7.362.127-3.27 1.238-6.451 3.3-9.456 2.036-2.964 4.82-5.563 8.275-7.723 1.113-.704 2.308-.696 3.452.027 1.117.708 1.68 1.78 1.628 3.102l-.076 1.944c-.02.547.136.98.494 1.359.363.384.791.573 1.345.595.258.01.506-.039.76-.15a2.1 2.1 0 0 0 .711-.517 2.86 2.86 0 0 1 1.613-.91 2.33 2.33 0 0 1 1.866.437 15.6 15.6 0 0 1 4.494 5.563c1.055 2.19 1.543 4.506 1.451 6.883M83.229 36.99c-20.57 0-37.306 16.736-37.306 37.307 0 20.57 16.736 37.306 37.307 37.306a3.117 3.117 0 0 1 0 6.233c-24.008 0-43.54-19.532-43.54-43.54 0-24.006 19.532-43.538 43.54-43.538a43.55 43.55 0 0 1 38.259 22.74 3.116 3.116 0 1 1-5.473 2.981A37.32 37.32 0 0 0 83.23 36.99M61.644 78.297q-.876 0-1.272-.78-.398-.78.096-1.49l9.246-13.35q.3-.411.766-.575.465-.164.93.027.465.192.725.616t.205.916l-.985 7.797h3.858q.93 0 1.326.834.398.834-.205 1.546l-10.094 12.2q-.3.384-.766.493-.465.11-.93-.11a1.43 1.43 0 0 1-.684-.642 1.5 1.5 0 0 1-.165-.89l.93-6.592zm162.856 58.26a2.176 2.176 0 0 1-2.54 1.69c-9.162-1.767-18.326-3.516-27.517-5.134-25.083-4.564-50.817-8.128-76.017-11.876l-6.904-1.116c-1.812-.316-1.59-3.042.314-2.981 9.215.509 18.816 1.557 27.955 2.741 23.151 3.066 46.356 6.705 69.273 11.258 4.596.887 9.173 1.879 13.754 2.841a2.176 2.176 0 0 1 1.682 2.577m1.972-12.74c-18.481-3.621-38.757-7.622-57.222-10.691-6.365-1.099-12.836-1.874-19.079-3.162-2.113-.461-1.812-3.58.368-3.604 6.571.099 12.972 1.355 19.435 2.334 19.222 3.098 38.311 6.89 57.343 10.965 2.676.625 1.916 4.623-.845 4.158m28.452-54.26a2.17 2.17 0 0 1-2.799 1.288 574.4 574.4 0 0 0-89.066-24.147c-10.056-1.962-20.281-3.17-30.33-5.086-2.001-.364-1.79-3.366.309-3.368 10.436.242 20.6 2.257 30.836 3.996 20.376 3.677 40.539 8.52 60.341 14.57 9.921 2.965 19.688 6.422 29.414 9.967a2.17 2.17 0 0 1 1.295 2.78"/><path fill="#000" d="M265.359 52.3c-110.6-43.764-230.55-34.525-235.6-34.109-3.394.278-6.021 3.147-6.014 6.548L18.81 127.264l-.003.137a6.556 6.556 0 0 0 6.327 6.46c126.839 4.641 207.725 25.07 208.526 25.276a6.5 6.5 0 0 0 1.609.203c2.741 0 5.301-1.744 6.22-4.441l.031-.097 27.419-94.44c1.095-3.297-.469-6.832-3.579-8.062m-30.593 102.524c-.807-.207-82.158-20.753-209.47-25.411a2.11 2.11 0 0 1-2.036-2.016l4.935-102.506q.003-.068.002-.138a2.11 2.11 0 0 1 1.925-2.125c5.01-.41 123.955-9.574 233.599 33.81.884.351 1.335 1.515.986 2.541l-.031.098-27.416 94.426a2.107 2.107 0 0 1-2.494 1.321"/><path fill="#000" d="M120.243 57.726a3.116 3.116 0 0 0 1.246-4.227 43.55 43.55 0 0 0-38.26-22.741c-24.007 0-43.538 19.532-43.538 43.539s19.531 43.539 43.539 43.539a3.117 3.117 0 0 0 0-6.233c-20.571 0-37.307-16.735-37.307-37.306S62.66 36.99 83.23 36.99a37.32 37.32 0 0 1 32.786 19.49 3.116 3.116 0 0 0 4.227 1.245"/><path fill="#DCEDF1" d="M169.472 165.24c.355.026.702-.081.981-.306.292-.236.475-.57.515-.943a1.4 1.4 0 0 0-.302-1.031 1.4 1.4 0 0 0-.942-.515 2 2 0 0 1-.228-.036c-.072-.016-7.413-1.576-22.978-3.76a1.62 1.62 0 0 0-1.237.335 1.6 1.6 0 0 0-.616 1.118 1.643 1.643 0 0 0 1.417 1.779c14.167 1.843 22.489 3.209 23.39 3.359"/><path fill="#000" d="M170.326 158.035c-.973-.206-8.256-1.698-23.19-3.794a6.02 6.02 0 0 0-4.606 1.243 6.03 6.03 0 0 0-2.294 4.175 6.053 6.053 0 0 0 5.272 6.637c14.855 1.932 23.223 3.333 23.306 3.347q.064.012.13.018.321.035.641.035a5.8 5.8 0 0 0 3.659-1.295 5.8 5.8 0 0 0 2.15-3.931 5.82 5.82 0 0 0-1.26-4.301 5.8 5.8 0 0 0-3.808-2.134m-25.661 2.067c.045-.444.263-.841.616-1.118a1.62 1.62 0 0 1 1.237-.335c15.565 2.184 22.906 3.744 22.978 3.76a2 2 0 0 0 .228.036c.373.04.707.224.942.515s.342.658.302 1.031-.223.707-.515.943a1.4 1.4 0 0 1-.981.306c-.901-.15-9.223-1.516-23.39-3.359a1.643 1.643 0 0 1-1.417-1.779"/><path fill="#DCEDF1" d="M132.031 158.419a1.69 1.69 0 0 0-1.47-1.845q-5.048-.613-10.796-1.251a788 788 0 0 0-11.966-1.232 1.66 1.66 0 0 0-1.246.393c-.351.3-.561.718-.59 1.179-.06.933.604 1.718 1.511 1.808a1385 1385 0 0 1 22.681 2.45c.453.053.899-.075 1.254-.361a1.67 1.67 0 0 0 .622-1.141"/><path fill="#000" d="M131.096 152.154q-5.068-.614-10.841-1.254c-3.971-.44-8.019-.858-12.035-1.241a6.1 6.1 0 0 0-4.556 1.438 6.1 6.1 0 0 0-2.145 4.302 6.113 6.113 0 0 0 5.515 6.501 1381 1381 0 0 1 22.606 2.443q.364.042.724.042a6.1 6.1 0 0 0 3.832-1.353 6.1 6.1 0 0 0 2.263-4.158c.339-3.308-2.067-6.322-5.363-6.72m-.941 7.767a1385 1385 0 0 0-22.681-2.45c-.907-.09-1.571-.876-1.511-1.808.029-.461.239-.879.59-1.179a1.66 1.66 0 0 1 1.246-.393c3.992.38 8.018.795 11.966 1.232q5.748.638 10.796 1.251a1.69 1.69 0 0 1 1.47 1.844 1.67 1.67 0 0 1-.622 1.142 1.68 1.68 0 0 1-1.254.361"/><path fill="#DCEDF1" d="M91.089 152.685c-14.215-1.033-22.835-1.221-22.92-1.223a2 2 0 0 1-.194-.012 1.41 1.41 0 0 0-1.546 1.245 1.407 1.407 0 0 0 1.195 1.54c.906.044 9.012.463 23.21 1.688.89.079 1.677-.58 1.761-1.462a1.6 1.6 0 0 0-.376-1.2 1.62 1.62 0 0 0-1.13-.576"/><path fill="#000" d="M91.412 148.245c-13.571-.987-22.11-1.209-23.063-1.231-3.17-.29-6.002 2.027-6.346 5.203a5.86 5.86 0 0 0 5.326 6.46c.08.004 8.208.395 23.122 1.681q.264.023.525.023c3.091 0 5.752-2.368 6.051-5.497a6.03 6.03 0 0 0-1.407-4.496 6.04 6.04 0 0 0-4.208-2.143m1.183 6.216a1.63 1.63 0 0 1-1.76 1.461c-14.2-1.224-22.305-1.643-23.21-1.687a1.407 1.407 0 0 1-1.196-1.54c.084-.77.78-1.321 1.546-1.245q.096.01.193.012c.086.002 8.706.189 22.92 1.222.444.033.845.238 1.131.577.285.336.418.763.377 1.2"/><path fill="#000" d="M283.109 15.38c1.964-2.76 4.293-5.39 6.674-7.79 2.262-2.97-2.004-6.388-4.41-3.541a64.6 64.6 0 0 0-6.025 8.957c-1.298 2.444 2.1 4.605 3.761 2.374"/><path fill="#000" d="M320.084 5.2a2.97 2.97 0 0 0-4.169-.525 139 139 0 0 0-4.673 3.802c-4.595 3.88-9.195 7.804-13.347 12.16a2.246 2.246 0 0 0 2.742 3.506c5.311-3.14 9.984-6.957 14.637-10.92a107 107 0 0 0 4.513-4.059 2.98 2.98 0 0 0 .297-3.963"/><path fill="#000" d="M29.077 142.253a1.9 1.9 0 0 0-.6-.349 2.4 2.4 0 0 0-.672-.129 2.1 2.1 0 0 0-1.308.388l-3.62 2.511.005-.101a1.03 1.03 0 0 0-.28-.768 1.03 1.03 0 0 0-.743-.345 1.03 1.03 0 0 0-.769.28q-.326.3-.344.743l-.074 1.733-1.518 1.046q-.355.267-.434.698-.078.43.169.784.267.375.707.454a.98.98 0 0 0 .796-.188l.166-.114-.234 5.501q-.038.907.55 1.548.588.64 1.495.679l3.204.136a.5.5 0 0 0 .38-.145.54.54 0 0 0 .168-.377l.159-3.748a1.03 1.03 0 0 1 .344-.742 1.03 1.03 0 0 1 .77-.28q.442.018.742.344t.28.769l-.16 3.768a.5.5 0 0 0 .145.38.54.54 0 0 0 .377.167l3.184.136q.906.038 1.547-.55t.68-1.495l.235-5.542.196.15q.33.296.766.244.437-.052.733-.383a1 1 0 0 0 .246-.787 1.14 1.14 0 0 0-.383-.733z"/><path fill="#000" d="M209.046 161.61a1.3 1.3 0 0 0-.545.016 1.4 1.4 0 0 0-.492.228l-6.619 4.693a1.82 1.82 0 0 0-.781 1.213q-.066.382.02.734.086.34.308.656l4.65 6.65.082.088c.448.37.637.462.796.489q.133.024.264.024.402 0 .759-.22a1.31 1.31 0 0 0 .609-.92l2.092-12.051a1.32 1.32 0 0 0-.257-1.071 1.4 1.4 0 0 0-.886-.529"/><path fill="#000" d="m227.036 171.544-4.265-6.903a1.4 1.4 0 0 0-.367-.405 1.41 1.41 0 0 0-1.516-.084c-.336.184-.562.49-.653.884l-2.775 11.913c-.092.397-.022.772.201 1.086q.324.454.866.58a.7.7 0 0 0 .158.017c.151 0 .371-.04.766-.157l6.983-4.357q.332-.206.542-.487.217-.289.305-.667a1.8 1.8 0 0 0 .023-.735 1.9 1.9 0 0 0-.268-.685"/><path fill="#000" d="M103.574 69.67a2.33 2.33 0 0 0-1.866-.436 2.86 2.86 0 0 0-1.613.91 2.1 2.1 0 0 1-.711.517c-.254.11-.502.159-.76.15-.554-.022-.982-.212-1.345-.596-.358-.38-.515-.812-.493-1.36l.075-1.943c.052-1.322-.511-2.394-1.628-3.102-1.144-.722-2.34-.731-3.452-.027-3.454 2.16-6.239 4.759-8.275 7.723-2.062 3.005-3.173 6.186-3.3 9.456-.104 2.648.454 5.125 1.657 7.362 1.197 2.225 2.844 4.047 4.896 5.413a.89.89 0 0 0 1.234-1.235 8 8 0 0 1-1.013-2.167 7.4 7.4 0 0 1-.295-2.412 7.7 7.7 0 0 1 .708-2.986 7.65 7.65 0 0 1 1.845-2.448l5.794-5.252 5.395 5.678a8 8 0 0 1 1.613 2.622c.357.959.518 1.972.478 3.011a7.4 7.4 0 0 1-.483 2.375 8 8 0 0 1-1.178 2.08.89.89 0 0 0 1.134 1.328c2.152-1.203 3.935-2.889 5.301-5.012 1.374-2.135 2.123-4.558 2.227-7.203.092-2.377-.396-4.692-1.451-6.883a15.6 15.6 0 0 0-4.494-5.562"/><path fill="#000" d="m98.264 85.08-2.551-2.718a.89.89 0 0 0-1.25-.048l-2.76 2.518c-.45.409-.806.885-1.057 1.415a4.4 4.4 0 0 0-.418 1.723c-.05 1.261.365 2.367 1.232 3.288.863.916 1.947 1.407 3.224 1.457q.105.004.206.004a4.5 4.5 0 0 0 3.121-1.206c.936-.85 1.435-1.921 1.485-3.182a4.35 4.35 0 0 0-.286-1.752 4.8 4.8 0 0 0-.946-1.5"/><path fill="#000" d="M63.859 85.78q.218.423.684.642.465.218.93.11a1.34 1.34 0 0 0 .766-.493l10.094-12.201q.602-.711.205-1.546-.396-.834-1.326-.834h-3.858l.985-7.797a1.4 1.4 0 0 0-.205-.916 1.5 1.5 0 0 0-.725-.616 1.26 1.26 0 0 0-.93-.027q-.465.164-.766.574l-9.246 13.35q-.493.712-.096 1.491.396.78 1.272.78h2.982l-.93 6.593q-.055.464.164.89"/><path fill="#000" d="M222.817 133.98c-4.581-.962-9.158-1.954-13.754-2.84-22.917-4.554-46.122-8.193-69.273-11.258-9.139-1.185-18.74-2.233-27.955-2.742-1.904-.061-2.126 2.666-.314 2.981l6.904 1.116c25.2 3.748 50.934 7.312 76.017 11.876 9.191 1.619 18.355 3.367 27.517 5.134a2.175 2.175 0 0 0 .858-4.267"/><path fill="#000" d="M227.316 119.659c-19.032-4.075-38.121-7.867-57.343-10.965-6.463-.979-12.864-2.235-19.435-2.334-2.18.024-2.481 3.144-.368 3.604 6.243 1.288 12.714 2.063 19.079 3.163 18.465 3.068 38.741 7.069 57.222 10.69 2.761.465 3.521-3.533.845-4.158"/><path fill="#000" d="M253.628 66.777c-9.726-3.545-19.493-7.002-29.413-9.967-19.803-6.05-39.966-10.893-60.342-14.57-10.236-1.74-20.4-3.754-30.836-3.996-2.099.002-2.31 3.004-.309 3.368 10.049 1.916 20.274 3.124 30.33 5.086a574.4 574.4 0 0 1 89.066 24.147 2.169 2.169 0 1 0 1.504-4.068"/></svg>