<svg xmlns="http://www.w3.org/2000/svg" width="480" height="480" fill="none" viewBox="0 0 480 480">
  <path
    fill="#000"
    d="M441.979 217.841a33.2 33.2 0 0 0-6.607-9.78 33.24 33.24 0 0 0-19.533-16.52c-37.894-12.012-97.297-27.348-166.516-32.865-4.364-5.535-9.579-10.635-15.547-15.208-3.815-3.442-8.026-6.665-12.626-9.63-22.303-14.373-50.965-21.027-80.702-18.751-29.737 2.282-57.047 13.234-76.898 30.839-20.043 17.777-30.112 40.205-28.352 63.154 2.066 26.944 20.804 51.149 50.256 65.063-1.814 10.653-5.89 18.399-9.081 23.108-3.665 5.409-6.99 8.103-7.019 8.126a2.5 2.5 0 0 0 1.793 4.447c14.96-1.438 25.912-6.668 32.468-10.803 6.947-4.382 12.377-9.72 14.961-14.624 11.381 1.919 23.135 2.434 34.975 1.523 17.061-1.308 33.313-5.483 47.825-12.118a32.87 32.87 0 0 0 8.696 16.363c4.39 8.59 12.487 15.113 22.674 17.28 24.151 5.136 60.557 12.691 98.375 19.855a71.5 71.5 0 0 0 6.332 8.928c13.747 22.182 36.112 30.605 37.181 30.996a2.503 2.503 0 0 0 2.822-3.897c-.081-.103-7.659-9.987-8.194-29.053q1.85.326 3.692.644c14.765 2.563 29.48-5.139 35.791-18.73l32.96-71.007a33.2 33.2 0 0 0 .274-27.34m-324.422 61.3a2.504 2.504 0 0 0-2.787 1.57c-2.476 6.514-15.595 18.976-37.033 23.119 4.596-5.662 10.835-15.796 12.952-30.817a2.5 2.5 0 0 0-1.445-2.626c-28.755-13.01-47.096-36.071-49.06-61.69-1.637-21.352 7.839-42.316 26.685-59.031 19.038-16.885 45.304-27.395 73.962-29.592 3.704-.284 7.389-.426 11.046-.426 24.632 0 47.938 6.391 66.565 18.393 21.174 13.645 33.737 32.919 35.374 54.271s-7.839 42.315-26.685 59.03c-19.038 16.886-45.305 27.396-73.962 29.594-12.076.926-24.057.323-35.612-1.795m147.06-82.308c-.904-11.778-4.887-22.885-11.443-32.824 66.931 5.757 124.287 20.613 161.154 32.298a28.24 28.24 0 0 1 17.314 15.537 28.2 28.2 0 0 1-.233 23.222l-32.96 71.006c-5.36 11.546-17.864 18.085-30.401 15.91-2.203-.383-4.418-.772-6.637-1.164a2.497 2.497 0 0 0-2.935 2.435c-.136 12.82 2.671 22.151 5.237 27.97-8.999-4.945-24.543-15.782-32.454-34.717a2.5 2.5 0 0 0-1.864-1.543c-38.884-7.328-76.588-15.149-101.369-20.42-9.263-1.97-16.489-8.182-19.998-16.249 36.927-17.212 59.08-48.968 56.589-81.461"
  />
  <path
    fill="#A17AD8"
    d="M228.026 294.542c24.781 5.27 62.485 13.092 101.369 20.42.845.159 1.55.742 1.864 1.543 7.91 18.934 23.455 29.771 32.454 34.716-2.566-5.819-5.373-15.15-5.237-27.969a2.5 2.5 0 0 1 2.934-2.436q3.332.59 6.638 1.164c12.536 2.175 25.041-4.364 30.4-15.91l32.96-71.006a28.2 28.2 0 0 0 .234-23.221 28.24 28.24 0 0 0-17.314-15.538c-36.867-11.685-94.223-26.541-161.154-32.297 6.555 9.939 10.539 21.045 11.442 32.824 2.492 32.492-19.661 64.248-56.588 81.461 3.508 8.067 10.734 14.279 19.998 16.249m148.789 3.579a1.72 1.72 0 0 1-2.027.993c-17.479-4.526-35.364-9.016-53.051-12.682-10.327-2.112-21.822-4.371-32.133-6.155-2.537-.432-2.173-4.186.439-4.08 22.08 1.583 43.872 5.855 65.058 12.178a207 207 0 0 1 20.797 7.498 1.717 1.717 0 0 1 .917 2.248m8.359-19.409a1.99 1.99 0 0 1-2.448 1.269l-6.776-1.873c-24.794-6.922-49.982-12.482-75.396-16.562-8.061-1.323-19.728-3.164-27.665-4.564-2.341-.387-2.132-3.875.3-3.908 9.536.064 18.911 1.187 28.296 2.635 18.671 2.991 37.171 7.002 55.38 12.088 9.124 2.455 18.12 5.369 27.063 8.395a1.987 1.987 0 0 1 1.246 2.52"
  />
  <path
    fill="#D5C3EE"
    d="M227.131 251.343c18.846-16.715 28.322-37.679 26.685-59.031s-14.201-40.625-35.375-54.27c-18.626-12.003-41.932-18.394-66.565-18.394-3.656 0-7.342.142-11.046.426-28.657 2.197-54.924 12.707-73.962 29.593-18.845 16.715-28.322 37.679-26.685 59.03 1.965 25.619 20.305 48.681 49.06 61.691a2.5 2.5 0 0 1 1.446 2.626c-2.118 15.02-8.357 25.155-12.953 30.816 21.439-4.142 34.557-16.604 37.034-23.118a2.5 2.5 0 0 1 2.787-1.57c11.554 2.118 23.536 2.72 35.611 1.795 28.657-2.199 54.925-12.708 73.963-29.594m-116.713-83.898a166 166 0 0 0-10.357 2.591c-3.446.903-6.725 2.312-10.359 2.403-1.926.201-3.02-2.324-1.473-3.556 3.078-2.512 6.623-3.299 10.224-4.406a173 173 0 0 1 10.649-2.791 178 178 0 0 1 7.161-1.546c25.049-4.975 51.014-5.635 76.401-3.234 3.496.417 7.435.653 10.796 1.845a2.106 2.106 0 0 1-.425 4.08c-4.163.536-8.526-.243-12.649-.589-3.382-.188-9.162-.552-12.51-.702l-10.734-.174-7.152.157c-16.636.455-33.321 2.362-49.572 5.922m34.639 16.135c-8.341.819-16.53 2.89-24.915 3.375-1.678.116-2.297-2.279-.716-2.955 7.927-3.45 16.479-4.609 24.92-5.916 25.385-3.411 51.447-2.22 76.441 3.293a1.94 1.94 0 0 1 1.506 2.296 1.947 1.947 0 0 1-2.199 1.526c-4.18-.465-8.325-1.104-12.5-1.503-20.765-2.402-41.781-2.65-62.537-.116m45.944 15.155c8.469-.906 16.973.479 25.128 2.724a2.093 2.093 0 0 1-.896 4.076c-4.046-.554-8.071-1.125-12.118-1.593-3.579-.418-8.688-.913-12.179-1.528-2.076-.362-2.004-3.401.065-3.679"
  />
  <path
    fill="#000"
    d="m167.142 161.364 10.734.174c3.348.15 9.128.514 12.51.702 4.124.347 8.486 1.125 12.649.589a2.108 2.108 0 0 0 .425-4.08c-3.361-1.192-7.3-1.428-10.796-1.845-25.387-2.401-51.352-1.741-76.401 3.234a180 180 0 0 0-7.161 1.546 173 173 0 0 0-10.648 2.791c-3.602 1.108-7.147 1.894-10.225 4.406-1.547 1.232-.453 3.757 1.473 3.556 3.635-.09 6.913-1.5 10.359-2.403a167 167 0 0 1 10.357-2.591c16.251-3.56 32.936-5.467 49.572-5.922z"
  />
  <path
    fill="#000"
    d="M375.898 295.875a208 208 0 0 0-20.798-7.498c-21.186-6.323-42.977-10.596-65.057-12.179-2.613-.105-2.976 3.649-.44 4.081 10.311 1.784 21.806 4.043 32.133 6.155 17.688 3.666 35.572 8.156 53.051 12.682a1.716 1.716 0 0 0 1.111-3.241"
  />
  <path
    fill="#000"
    d="M383.927 276.191c-8.942-3.026-17.939-5.939-27.063-8.394-18.208-5.086-36.709-9.097-55.379-12.088-9.386-1.449-18.761-2.571-28.297-2.635-2.431.033-2.641 3.521-.3 3.908 7.937 1.4 19.605 3.24 27.665 4.564 25.414 4.08 50.602 9.639 75.396 16.561l6.777 1.873a1.989 1.989 0 0 0 1.201-3.789"
  />
  <path
    fill="#000"
    d="M207.594 183.696c4.174.399 8.319 1.038 12.5 1.503a1.942 1.942 0 0 0 .692-3.822c-24.993-5.513-51.056-6.704-76.44-3.293-8.441 1.307-16.993 2.466-24.92 5.916-1.581.676-.962 3.071.715 2.955 8.385-.485 16.575-2.556 24.915-3.375 20.757-2.534 41.772-2.286 62.538.116"
  />
  <path
    fill="#000"
    d="M203.115 203.941c4.047.468 8.072 1.04 12.118 1.594a2.092 2.092 0 0 0 .896-4.076c-8.155-2.246-16.659-3.631-25.128-2.725-2.069.279-2.141 3.317-.065 3.679 3.49.616 8.6 1.111 12.179 1.528"
  />
  <path
    fill="#000"
    d="M39 129.743a143 143 0 0 1 8.668-7.048c3.011-2.245 6.111-4.359 9.295-6.025 2.807-1.744.351-5.91-2.53-4.315-6.79 4.079-12.438 9.12-18.112 14.497-1.79 1.792.76 4.54 2.679 2.891"
  />
  <path
    fill="#000"
    d="M37.292 145.036c-1.419 1.768 1.026 4.043 2.691 2.513 2.53-2.359 5.2-4.737 7.9-6.991 7.98-6.767 16.592-12.82 25.88-17.629a2.455 2.455 0 0 0-2.134-4.423c-3.309 1.57-6.572 3.255-9.64 5.23-9.243 5.847-17.682 12.869-24.697 21.3"
  />
  <path
    fill="#000"
    d="M417.693 325.873c-7.581 3.999-.536 14.958 6.494 11.505 7.582-3.999.538-14.958-6.494-11.505"
  />
  <path
    fill="#000"
    d="M437.425 304.66q-1.719-1.05-3.45-1.337t-3.278.386q-1.547.675-2.624 2.437a9.7 9.7 0 0 0-.97 2.131l-4.624 14 6.081 3.717 10.119-10.217a11 11 0 0 0 1.647-2.05q1.643-2.688.704-5.063t-3.605-4.004"
  />
</svg>
