<svg xmlns="http://www.w3.org/2000/svg" width="225" height="300" fill="none" viewBox="0 0 225 300"><path fill="#8CBA3B" d="M168.544 193.452c-2.574 13.218-5.437 26.451-8.193 39.53-.494 2.255-.653 4.64-2.244 6.435-1.485 1.82-3.796 2.891-6.136 2.893-1.934-.064-4.949-.49-6.866-.728-12.158-1.731-24.488-3.741-36.855-5.864l-2.308 1.618c15.227 2.427 30.426 4.66 45.438 6.451l2.763.314 1.379.145.689.072c1.658.237 3.362-.72 3.936-2.283 3.909-17.093 7.912-34.407 12.42-51.403z"/><path fill="#8CBA3B" d="M76.83 230.182c-10.143-1.806-20.242-3.594-30.211-5.27-3.242-.634-8.493-1.016-11.447-2.721a1.075 1.075 0 0 1 .295-1.996c1.997-.39 3.973-.262 5.95.011 12.577 1.894 25.364 3.949 38.19 6.069l.969-1.364a1805 1805 0 0 0-10.508-1.607 8981 8981 0 0 0-11.803-1.758c-17.7-2.629-32.106-4.769-40.069-6.47 1.023 1.104 2.52 2.047 3.825 2.574 2.26 1.009 4.804 1.535 7.398 1.793 1.324.126 1.28 2.085-.018 2.189a24 24 0 0 1-4.883-.103c.468 1.188 1.595 2.059 2.902 2.267 2.646.696 5.327 1.218 8.038 1.718 13.162 2.169 26.497 4.474 39.891 6.751z"/><path fill="#8CBA3B" d="m203.636 32.818-.937-.287c-4.382 14.629-14.114 48.168-24.077 89.485a2328 2328 0 0 0-9.18 39.596l2.181-1.529-.09-.044 3.451-2.311 6.297-4.415c2.526-10.399 5.902-21.701 8.321-30.542 5.883-20.789 12.491-43.713 18.725-64.519a964 964 0 0 1 3.283-10.727l.426-1.343c.14-.436.307-.957.359-1.181.44-1.792-.682-3.735-2.46-4.28l-.314-.097c-4.864 15.424-9.417 30.973-13.952 46.503a3290 3290 0 0 0-8.899 31.206c-2.629 9.165-5.833 22.335-9.372 31.089-.496 1.077-2.078.672-1.947-.521 1.196-9.342 5.182-22.394 7.636-31.593 7.457-26.72 15.08-53.381 23.333-79.87.609-1.987-.775-4.174-2.784-4.62"/><path fill="#101010" d="M14.954 217.139c1.385 1.446 3.069 2.496 4.898 3.223.078 2.389 1.193 4.761 3.13 6.197.954.745 2.152 1.223 3.307 1.495 2.766.729 5.584 1.27 8.375 1.784 7.434 1.358 25.498 4.203 33.15 5.503 1.578.275 3.176.549 4.764.824l-7.28 10.243a2.59 2.59 0 0 0-.05 2.952 2.6 2.6 0 0 0 2.183 1.175q.292 0 .589-.065l28.03-6.371c.18-.041.343-.112.498-.194l.007.009.112-.078q.102-.063.195-.136l3.983-2.792c16.753 2.701 33.628 5.189 50.04 7.123.827.078 3.441.409 4.2.46 3.037.544 6.368-.627 8.141-3.243.716-.989 1.131-2.17 1.351-3.362 3.862-17.694 7.776-35.672 11.176-53.489l31.874-22.343c2.011-1.41 2.546-3.732 1.591-6.902-1.122-3.72-3.676-9.006-9.472-13.067-1.009-.706-4.076-2.857-7.065-.762l-6.705 4.7c2.58-9.049 4.978-18.588 7.323-26.205 7.141-24.96 14.78-51.57 22.544-76.406 1.807-4.123-.308-9.119-4.636-10.509l-.642-.197a6 6 0 0 0-.022-.895c-.231-3.114-2.503-5.87-5.471-6.762l-.244-.075-.973-.3-.128-.04a7.73 7.73 0 0 0-.905-4.523 7.88 7.88 0 0 0-4.779-3.826c-13.241-3.828-49.09-11.478-83.984-15.739C76.202-.077 49.309-.594 36.764.462 33.34.75 30.5 3.164 29.696 6.469q-.299 1.224-.734 2.962l-.117.473c-.446-.1-.898-.18-1.365-.221a10.26 10.26 0 0 0-7.543 2.394 10.3 10.3 0 0 0-3.642 7.03c-.442 5.136 2.966 9.72 7.814 10.921a601 601 0 0 0-.874 4.082 10.5 10.5 0 0 0-1.441-.144c-5.713-.111-10.438 4.408-10.568 10.113a10.3 10.3 0 0 0 2.86 7.383 10.26 10.26 0 0 0 5.233 2.957c-.25 1.432-.5 2.884-.75 4.367-.179-.013-.356-.034-.537-.038-5.701-.114-10.438 4.408-10.567 10.113a10.3 10.3 0 0 0 2.859 7.384 10.25 10.25 0 0 0 5.178 2.943 612 612 0 0 0-.567 4.38c-5.57.028-10.173 4.492-10.301 10.106a10.3 10.3 0 0 0 2.859 7.384 10.26 10.26 0 0 0 5.215 2.953 603 603 0 0 0-.323 3.643 10.334 10.334 0 0 0-9.727 10.09 10.3 10.3 0 0 0 2.859 7.383 10.26 10.26 0 0 0 5.36 2.979q-.114 1.731-.221 3.419C5.1 131.602.607 136.053.48 141.627a10.3 10.3 0 0 0 2.86 7.384 10.25 10.25 0 0 0 6.168 3.116q-.095 2.026-.178 3.967a10.33 10.33 0 0 0-9.327 10.06 10.3 10.3 0 0 0 2.859 7.383 10.25 10.25 0 0 0 5.84 3.06 571 571 0 0 0-.043 3.202c-4.773.832-8.453 4.936-8.567 9.957a10.3 10.3 0 0 0 2.858 7.384 10.24 10.24 0 0 0 6 3.088c.15 3.095.336 5.512.522 7.37.246 2.455 1.654 4.616 3.706 5.887.147 1.392.878 2.66 1.776 3.654m-1.246-9.965c-.42-4.193-.841-11.279-.825-22.759a6.1 6.1 0 0 1 1.934 1.365 6.06 6.06 0 0 1 1.683 4.348 2.129 2.129 0 0 0 4.256.097 10.3 10.3 0 0 0-2.859-7.384 10.25 10.25 0 0 0-4.986-2.891c.056-5.396.203-11.635.474-18.832a6 6 0 0 1 1.343 1.058 6.06 6.06 0 0 1 1.683 4.349 2.129 2.129 0 0 0 4.256.096 10.3 10.3 0 0 0-2.859-7.383 10.3 10.3 0 0 0-4.24-2.686c.252-5.881.583-12.353 1.009-19.468.22.175.432.36.63.566a6.06 6.06 0 0 1 1.682 4.348 2.129 2.129 0 0 0 4.256.097 10.3 10.3 0 0 0-2.859-7.384 10.3 10.3 0 0 0-3.417-2.37c.342-5.407.736-11.161 1.19-17.291.056-.746.116-1.48.174-2.22a6.06 6.06 0 0 1 2.833 5.285 2.13 2.13 0 0 0 2.08 2.176c1.162.042 2.15-.904 2.176-2.08a10.3 10.3 0 0 0-2.859-7.383 10.3 10.3 0 0 0-3.86-2.54A605 605 0 0 1 18.563 89a6.06 6.06 0 0 1 2.48 5.045 2.13 2.13 0 0 0 4.255.097 10.3 10.3 0 0 0-2.858-7.384 10.3 10.3 0 0 0-3.322-2.333 610 610 0 0 1 2.813-19.788c.087.081.176.16.26.247a6.06 6.06 0 0 1 1.682 4.349 2.129 2.129 0 0 0 4.256.096 10.3 10.3 0 0 0-2.859-7.384 10.4 10.4 0 0 0-2.582-1.965 603 603 0 0 1 3.585-19.507 6.05 6.05 0 0 1 1.362 3.977 2.129 2.129 0 0 0 4.256.097 10.29 10.29 0 0 0-4.637-8.864 605 605 0 0 1 4.339-19.148 6.08 6.08 0 0 1 1.055 3.98 2.128 2.128 0 1 0 4.24.366c.318-3.687-1.352-7.087-4.11-9.16l.315-1.26q.438-1.752.74-2.986c.37-1.523 1.692-2.637 3.288-2.771 3.366-.284 7.79-.45 13.209-.45 14.435 0 35.923 1.186 63.212 4.518 34.664 4.233 70.21 11.812 83.319 15.603a3.66 3.66 0 0 1 2.221 1.77c.455.836.554 1.798.279 2.708-3.952 13.082-14.287 48.251-24.876 92.166a2324 2324 0 0 0-10.205 44.214l-13.532 9.485a1.7 1.7 0 0 0-1.28-1.91c-22.782-5.442-42.243-9.24-58.43-11.892 5.46-9.015 10.777-16.544 15.943-22.848 13.765 2.497 29.456 5.736 47.063 9.942q.2.047.397.047a1.704 1.704 0 0 0 .395-3.359c-16.854-4.026-31.966-7.17-45.329-9.628 9.472-10.944 18.424-17.853 26.806-22.428a1013 1013 0 0 1 22.946 5.205q.2.047.397.047a1.703 1.703 0 0 0 .395-3.359 1028 1028 0 0 0-18.882-4.325c4.972-2.272 9.73-3.804 14.261-4.976 1.073-.278 1.967-.949 2.452-1.84a3.3 3.3 0 0 0 .226-2.637l-9.433-20.727a848 848 0 0 1 17.934 4.081q.2.047.397.047a1.704 1.704 0 0 0 .395-3.36 846 846 0 0 0-20.482-4.625l-4.011-8.812a3.55 3.55 0 0 0-1.744-1.919 3.3 3.3 0 0 0-2.552-.163c-4.566 1.596-8.951 3.878-13.124 6.637-53.774-9.9-84.934-9.643-85.313-9.646a1.703 1.703 0 0 0-1.68 1.724c.012.94.787 1.66 1.724 1.681.366-.01 30-.237 81.375 8.992-9.758 7.377-18.17 17.256-24.686 26.984-38.488-6.37-58.804-6.677-59.094-6.68h-.017a1.703 1.703 0 0 0-.018 3.406c.284.002 19.888.306 57.095 6.39-5.303 8.399-9.124 16.466-11.092 22.454l-12.127-21.688a3.48 3.48 0 0 0-2.182-1.957 3.5 3.5 0 0 0-3.121.547l-17.277 16.428a3.46 3.46 0 0 0-.704 4.552l.128.195.166.162c.028.028.565.556 1.52 1.546-10.395-.779-15.718-.713-15.863-.71a1.703 1.703 0 0 0-1.671 1.733c.017.94.788 1.728 1.733 1.671.156-.004 6.625-.081 19.27.995 5.02 5.47 13.362 15.068 22.822 28.006-30.371-4.241-45.531-3.882-45.772-3.874a1.703 1.703 0 0 0-1.65 1.753c.028.94.818 1.669 1.752 1.651.243-.005 16.257-.378 48.432 4.301A358 358 0 0 1 82 166.467a3.4 3.4 0 0 0 2.806 1.495l.139-.003c1.258-.052 2.404-.77 3.066-1.921q.578-1.001 1.152-1.98c16.356 2.647 36.18 6.489 59.514 12.063.02.005.04.003.06.007l-26.271 18.416c-61.518-12.845-90.053-11.586-90.373-11.571a1.704 1.704 0 0 0 .175 3.402c.307-.02 27.551-1.195 86.369 10.853L84.43 221.207a1865 1865 0 0 0-13.733-2.112c-4.074-.61-8.02-1.196-11.807-1.759-19.894-2.954-35.607-5.288-42.432-7.028-1.496-.381-2.6-1.641-2.75-3.134M206.42 37.439c-8.252 26.49-15.875 53.15-23.333 79.87-2.453 9.199-6.439 22.251-7.636 31.593-.13 1.194 1.451 1.598 1.947.521 3.54-8.754 6.744-21.924 9.372-31.089a3289 3289 0 0 1 8.9-31.205c4.535-15.53 9.088-31.08 13.952-46.504l.313.096c1.779.547 2.9 2.49 2.461 4.281-.052.224-.22.745-.359 1.181l-.427 1.344a985 985 0 0 0-3.283 10.727c-6.233 20.805-12.842 43.729-18.725 64.518-2.419 8.841-5.795 20.144-8.321 30.543l-6.297 4.414-3.451 2.311.091.045-2.181 1.529a2316 2316 0 0 1 9.18-39.597c9.962-41.316 19.695-74.856 24.077-89.484l.936.286c2.01.447 3.393 2.633 2.784 4.62m-50.21 206.88-.69-.073-1.378-.145-2.764-.313c-15.011-1.792-30.211-4.025-45.438-6.452l2.308-1.618c12.367 2.123 24.697 4.133 36.855 5.864 1.917.238 4.932.665 6.867.728 2.339-.001 4.65-1.073 6.135-2.893 1.591-1.794 1.75-4.18 2.244-6.434 2.756-13.08 5.619-26.312 8.193-39.531l4.023-2.82c-4.508 16.997-8.511 34.31-12.42 51.404-.573 1.563-2.277 2.519-3.935 2.283m-82.238-3.134 10.2-14.351 9.845 13.579-18.02 4.097zm-46.553-17.387c-1.307-.208-2.433-1.079-2.902-2.267 1.644.207 3.301.228 4.883.102 1.298-.104 1.343-2.062.018-2.188-2.593-.259-5.137-.785-7.398-1.794-1.304-.526-2.802-1.47-3.824-2.573 7.962 1.7 22.368 3.84 40.068 6.469 3.786.563 7.73 1.148 11.803 1.758 3.523.528 7.032 1.066 10.508 1.608l-.969 1.363c-12.825-2.119-25.612-4.175-38.19-6.069-1.976-.272-3.952-.401-5.95-.01a1.075 1.075 0 0 0-.296 1.995c2.955 1.705 8.206 2.088 11.448 2.721 9.969 1.676 20.068 3.465 30.211 5.27l-1.48 2.084c-13.395-2.278-26.73-4.583-39.892-6.752-2.71-.499-5.392-1.022-8.038-1.717m129.093-21.913a1694 1694 0 0 0-5.078 25.987c-.342 1.83-2.04 3.108-3.943 2.95-5.409-.422-15.11-1.888-26.873-3.776zm-40.894 28.667c14.16 2.295 25.295 4.027 31.542 4.514q.321.025.639.025c3.816 0 7.117-2.673 7.819-6.439a1752 1752 0 0 1 5.964-30.321l2.849-1.997a1753 1753 0 0 0-5.699 24.29c-.86 3.823-1.722 7.639-2.538 11.489-.483 2.046-.491 4.836-2.865 5.666-1.096.551-3.623-.023-4.756-.09a388 388 0 0 1-8.65-1.28 10227 10227 0 0 1-26.34-4.431zm-18.076 7.472L87.54 224.226l88.39-61.961c6.704 3.788 10.184 10.026 11.457 12.778zm98.618-69.192-5.26 3.664c-1.582-3.22-5.003-8.816-11.111-12.861l5.72-3.831c7.524 4.941 9.93 10.597 10.651 13.028m9.023-6.264-5.386 3.776c-1.225-3.266-4.112-8.544-10.752-13.273l6.08-4.262c.148-.104.546-.381 2.178.762 4.799 3.362 6.911 7.734 7.839 10.81.551 1.829.18 2.089.041 2.187m-124.41-32.005a3.45 3.45 0 0 0 3.308 2.114 3.46 3.46 0 0 0 3.248-2.513c4.509-15.776 24.924-50.623 51.91-60.588l14.448 31.714c-19.43 5.151-42.738 16.748-68.87 61.768-15.394-22.112-28.995-36.395-32.374-39.836l15.81-15.051zM20.537 19.473c.14-1.623.9-3.093 2.144-4.141a6.03 6.03 0 0 1 5.14-1.3 639 639 0 0 0-2.79 11.844 6.096 6.096 0 0 1-4.494-6.404m-3.372 29.05a6.06 6.06 0 0 1-1.683-4.348c.076-3.358 2.877-6.06 6.215-5.953q.34.01.674.055a605 605 0 0 0-2.3 11.94 6.03 6.03 0 0 1-2.906-1.694m-3.761 24.783a6.06 6.06 0 0 1-1.683-4.348c.075-3.34 2.85-6.025 6.157-5.953a614 614 0 0 0-1.794 11.932 6.03 6.03 0 0 1-2.68-1.63M10.573 98.12a6.06 6.06 0 0 1-1.683-4.348c.07-3.125 2.485-5.674 5.522-5.932a611 611 0 0 0-1.295 11.874 6.04 6.04 0 0 1-2.544-1.594m-1.976 24.07a6.06 6.06 0 0 1-1.683-4.349c.067-2.981 2.288-5.443 5.117-5.882-.073.925-.148 1.844-.217 2.778-.23 3.114-.445 6.127-.646 9.054a6.05 6.05 0 0 1-2.571-1.601M6.42 146.072a6.06 6.06 0 0 1-1.683-4.349 6.09 6.09 0 0 1 5.654-5.933q-.384 6.355-.674 12.058a6 6 0 0 1-3.297-1.776m-.478 24.526a6.06 6.06 0 0 1-1.683-4.348 6.1 6.1 0 0 1 4.896-5.841 778 778 0 0 0-.368 11.865 6 6 0 0 1-2.845-1.676m.089 23.604a6.06 6.06 0 0 1-1.683-4.349 6.11 6.11 0 0 1 4.283-5.694c-.009 4.535.05 8.403.149 11.692a6 6 0 0 1-2.75-1.649"/><path fill="#8CBA3B" d="M148.574 237.688c1.133.067 3.66.641 4.756.09 2.374-.831 2.382-3.621 2.865-5.667.816-3.849 1.678-7.665 2.538-11.489a1753 1753 0 0 1 5.699-24.289l-2.849 1.997a1752 1752 0 0 0-5.964 30.321c-.702 3.765-4.004 6.439-7.819 6.439q-.318 0-.639-.025c-6.247-.487-17.382-2.22-31.543-4.514l-2.034 1.426a10227 10227 0 0 0 26.34 4.431c2.793.443 5.841.9 8.65 1.28"/><path fill="#D2E6B0" d="M16.458 210.308c6.826 1.739 22.539 4.073 42.432 7.028 3.788.562 7.734 1.148 11.808 1.758 4.617.692 9.212 1.402 13.733 2.113l34.207-23.979c-58.818-12.048-86.062-10.873-86.37-10.854a1.705 1.705 0 0 1-1.787-1.613 1.704 1.704 0 0 1 1.613-1.788c.32-.016 28.855-1.274 90.373 11.57l26.271-18.415c-.02-.004-.04-.003-.061-.007-23.333-5.575-43.157-9.417-59.513-12.064a277 277 0 0 0-1.152 1.981c-.663 1.15-1.809 1.868-3.066 1.92l-.14.003a3.41 3.41 0 0 1-2.805-1.494 357 357 0 0 0-2.762-3.936c-32.176-4.678-48.189-4.306-48.432-4.3a1.713 1.713 0 0 1-1.753-1.651 1.703 1.703 0 0 1 1.65-1.753c.242-.008 15.401-.367 45.773 3.874-9.46-12.939-17.802-22.536-22.823-28.006-12.644-1.077-19.113-.999-19.27-.995-.944.056-1.715-.731-1.732-1.672a1.7 1.7 0 0 1 1.671-1.733c.145-.002 5.468-.069 15.863.71a93 93 0 0 0-1.52-1.545l-.166-.163-.128-.194a3.46 3.46 0 0 1 .704-4.553l17.276-16.427a3.5 3.5 0 0 1 3.121-.548 3.48 3.48 0 0 1 2.183 1.958l12.126 21.688c1.968-5.989 5.79-14.056 11.093-22.455-37.207-6.083-56.811-6.387-57.095-6.39a1.703 1.703 0 0 1 .017-3.405h.018c.29.003 20.606.31 59.094 6.68 6.516-9.729 14.928-19.607 24.686-26.984-51.375-9.23-81.01-9.003-81.375-8.992-.938-.02-1.713-.74-1.724-1.681a1.703 1.703 0 0 1 1.68-1.725c.38.004 31.538-.253 85.312 9.647 4.174-2.76 8.559-5.041 13.124-6.638a3.3 3.3 0 0 1 2.553.164 3.55 3.55 0 0 1 1.744 1.919l4.011 8.811a845 845 0 0 1 20.481 4.627 1.703 1.703 0 0 1-.791 3.312 847 847 0 0 0-17.935-4.081l9.434 20.726a3.3 3.3 0 0 1-.226 2.637c-.485.892-1.379 1.563-2.453 1.84-4.53 1.173-9.288 2.705-14.26 4.977 6.044 1.324 12.335 2.76 18.882 4.324a1.703 1.703 0 0 1-.792 3.313 1017 1017 0 0 0-22.947-5.206c-8.382 4.575-17.333 11.485-26.805 22.428 13.363 2.459 28.475 5.602 45.328 9.628a1.703 1.703 0 1 1-.791 3.313c-17.607-4.206-33.298-7.445-47.063-9.942-5.166 6.303-10.483 13.832-15.943 22.847 16.186 2.653 35.648 6.451 58.43 11.893a1.7 1.7 0 0 1 1.28 1.91l13.532-9.486a2326 2326 0 0 1 10.204-44.213c10.589-43.915 20.925-79.084 24.877-92.166a3.5 3.5 0 0 0-.279-2.709 3.66 3.66 0 0 0-2.221-1.77c-13.109-3.79-48.655-11.37-83.319-15.603C86.253 5.44 64.766 4.253 50.33 4.253c-5.419 0-9.842.167-13.208.45-1.596.135-2.918 1.249-3.289 2.772-.2.821-.448 1.819-.74 2.986l-.313 1.259c2.756 2.074 4.427 5.473 4.11 9.16a2.128 2.128 0 1 1-4.241-.365 6.08 6.08 0 0 0-1.056-3.98 605 605 0 0 0-4.338 19.148 10.29 10.29 0 0 1 4.637 8.864 2.13 2.13 0 0 1-4.256-.097 6.05 6.05 0 0 0-1.363-3.978 602 602 0 0 0-3.585 19.508c.946.51 1.82 1.164 2.583 1.965a10.3 10.3 0 0 1 2.859 7.384 2.129 2.129 0 0 1-4.256-.096 6.06 6.06 0 0 0-1.683-4.35c-.083-.087-.172-.165-.26-.247a610 610 0 0 0-2.812 19.789 10.3 10.3 0 0 1 3.321 2.333 10.3 10.3 0 0 1 2.86 7.384 2.129 2.129 0 0 1-4.256-.096A6.06 6.06 0 0 0 18.562 89a606 606 0 0 0-1.96 19.287 10.3 10.3 0 0 1 3.86 2.541 10.3 10.3 0 0 1 2.86 7.383c-.027 1.176-1.014 2.121-2.177 2.08a2.13 2.13 0 0 1-2.08-2.176 6.06 6.06 0 0 0-2.832-5.286c-.058.741-.119 1.474-.174 2.22a1618 1618 0 0 0-1.19 17.292 10.3 10.3 0 0 1 3.417 2.37 10.3 10.3 0 0 1 2.86 7.383 2.129 2.129 0 0 1-4.256-.096 6.06 6.06 0 0 0-1.684-4.348 6 6 0 0 0-.63-.566c-.425 7.115-.756 13.587-1.007 19.467a10.3 10.3 0 0 1 4.24 2.687 10.28 10.28 0 0 1 2.858 7.383 2.13 2.13 0 0 1-4.256-.097 6.06 6.06 0 0 0-1.683-4.348 6 6 0 0 0-1.343-1.059 692 692 0 0 0-.475 18.833 10.26 10.26 0 0 1 4.987 2.89 10.3 10.3 0 0 1 2.859 7.384 2.128 2.128 0 1 1-4.256-.096 6.06 6.06 0 0 0-1.684-4.349 6.1 6.1 0 0 0-1.933-1.364c-.016 11.479.405 18.565.825 22.758.149 1.494 1.254 2.754 2.75 3.135m158.46-160.156a1.704 1.704 0 0 1-2.057 1.254c-65.733-15.93-129.16-17.564-129.793-17.578a1.703 1.703 0 0 1-1.663-1.742c.022-.94.79-1.709 1.742-1.663.636.014 64.413 1.653 130.517 17.673a1.703 1.703 0 0 1 1.254 2.056"/><path fill="#D2E6B0" d="M151.434 227.871a1684 1684 0 0 1 5.078-25.987l-35.894 25.162c11.763 1.888 21.464 3.353 26.872 3.775 1.904.158 3.602-1.12 3.944-2.95"/><path fill="#101010" d="M173.662 48.096c-66.103-16.02-129.88-17.66-130.517-17.674-.952-.045-1.72.723-1.741 1.663s.723 1.72 1.663 1.742c.633.015 64.059 1.648 129.793 17.579q.203.048.402.048a1.704 1.704 0 0 0 .4-3.358"/><path fill="#64862A" d="M52.444 123.221c3.38 3.441 16.98 17.724 32.373 39.836 26.133-45.02 49.441-56.617 68.871-61.768L139.24 69.575c-26.986 9.965-47.401 44.812-51.91 60.588a3.46 3.46 0 0 1-3.248 2.513 3.45 3.45 0 0 1-3.308-2.114l-12.52-22.392z"/><path fill="#D5C3EE" d="m84.174 226.833-10.2 14.351 2.024 3.325 18.021-4.097z"/><path fill="#7A42C8" d="M187.387 175.042c-1.273-2.751-4.753-8.99-11.458-12.778l-88.39 61.961 10.003 13.798z"/><path fill="#FFFBE8" d="M197.302 149.57c-1.632-1.143-2.029-.867-2.178-.762l-6.079 4.262c6.639 4.729 9.526 10.007 10.751 13.272l5.386-3.775c.14-.098.51-.358-.041-2.187-.927-3.076-3.04-7.449-7.839-10.81"/><path fill="#A17AD8" d="m185.51 155.802-5.72 3.831c6.108 4.045 9.529 9.642 11.111 12.862l5.26-3.665c-.72-2.43-3.127-8.087-10.651-13.028"/><path fill="#fff" d="M220.053 219.884c.211.018.447.01.676.009l-.782-.503c-.099.146-.189.292-.281.438.119.024.251.044.387.056"/><path fill="#F1EFE4" d="M222.291 219.805c-.89.073-1.765.162-2.626.023 1.917-3.108 5.02-5.661 5.315-9.578.02-2.028-2.01-3.086-3.661-2.887-3.539.4-7.105 2.166-10.627 2.105.733-.974 2.179-2.613 2.971-3.609 2.594-3.38 5.518-6.748 7.116-10.96 1.32-4.199-2.19-5.859-5.696-4.294-3.889 1.437-7.412 4.695-10.649 7.194-2.145 1.731-7.503 6.172-7.503 6.172-.701.59-.779 1.716.283 1.903.456.049.874-.223.988-.282 4.264-2.353 8.313-5.067 12.35-7.778 1.76-1.229 3.687-2.46 5.719-3.199-2.016 4.056-5.347 7.838-8.185 11.475-2.966 3.175-2.469 7.489 2.515 7.401 3.937-.12 7.126-1.604 10.775-2.521-.537 2.044-2.162 4.184-3.33 6.043-.619 1-1.274 1.59-1.315 2.977-.089 3.007 3.938 2.647 5.907 2.207 1.505-.293 1.175-2.544-.347-2.392m-2.976-.086c-.033-.018-.019-.016.012.006z"/><path fill="#3F3F3F" d="M89.915 300c41.891 0 75.85-4.863 75.85-10.861s-33.959-10.86-75.85-10.86-75.85 4.862-75.85 10.86S48.025 300 89.915 300"/></svg>