<svg xmlns="http://www.w3.org/2000/svg" width="343" height="364" fill="none" viewBox="0 0 343 364"><path fill="#000" d="M177.652 262.686c36.675 0 66.405-22.302 66.405-49.812s-29.73-49.811-66.405-49.811-66.405 22.301-66.405 49.811 29.73 49.812 66.405 49.812"/><path fill="#000" d="M177.642 265.182c-37.99 0-68.901-23.463-68.901-52.308s30.911-52.317 68.901-52.317 68.901 23.463 68.901 52.317c0 28.855-30.911 52.308-68.901 52.308m0-99.633c-35.245 0-63.909 21.227-63.909 47.325s28.664 47.316 63.909 47.316 63.909-21.227 63.909-47.316c0-26.088-28.675-47.325-63.909-47.325"/><path fill="#000" d="M171.234 361.539c94.348-1.005 170.741-10.298 170.63-20.758s-76.686-18.125-171.033-17.12S.091 333.959.201 344.419c.112 10.459 76.686 18.124 171.033 17.12"/><path fill="#AD5400" d="m230.079 342.859-77.438-20.337-1.697-125.822s26.718-10.204 84.846-14.188"/><path fill="#000" d="M230.079 345.356c-.21 0-.419-.03-.639-.08l-77.438-20.338a2.506 2.506 0 0 1-1.867-2.376l-1.697-125.822a2.51 2.51 0 0 1 1.607-2.366c1.109-.42 27.727-10.384 85.575-14.348a2.5 2.5 0 0 1 2.666 2.317c.1 1.367-.948 2.566-2.316 2.665-49.133 3.365-75.891 11.283-82.5 13.469l1.647 122.118 75.601 19.848a2.49 2.49 0 0 1 1.777 3.045 2.5 2.5 0 0 1-2.416 1.868"/><path fill="#FF7B00" d="m321.096 195.552-14.388 136.505-76.629 10.803 5.711-160.338s48.594 2.986 85.306 13.03"/><path fill="#000" d="M230.079 345.356a2.52 2.52 0 0 1-1.667-.639 2.53 2.53 0 0 1-.829-1.947l5.711-160.337a2.48 2.48 0 0 1 .819-1.758 2.5 2.5 0 0 1 1.827-.639c.489.03 49.272 3.115 85.815 13.12a2.51 2.51 0 0 1 1.827 2.665l-14.388 136.505a2.49 2.49 0 0 1-2.136 2.207l-76.629 10.803c-.12.02-.23.02-.35.02m8.117-160.168-5.521 154.786 71.757-10.114 13.958-132.441c-30.971-8.157-69.95-11.462-80.194-12.221z"/><path fill="#F295FF" d="M206.806 94.461c22.426 0 40.606-18.18 40.606-40.606s-18.18-40.606-40.606-40.606S166.2 31.43 166.2 53.855s18.18 40.606 40.606 40.606"/><path fill="#F295FF" d="M215.472 6.03S223.31.14 248.77 2.917c2.715.3.089 7.837 4.822 12.16 6.021 5.492 8.567 18.78 5.441 22.605-3.794 4.642-4.842 3.914-15.615 5.72"/><path fill="#000" d="M214.783 5.112c.21-1.388 1.448-1.617 2.486-2.107l1.408-.529C228.342-.579 238.656-.28 248.61.6c1.048 0 2.286.59 2.835 1.428.669.958.769 1.647.909 2.226.449 2.606.399 5.382 1.568 7.469.858 1.537 2.416 2.506 3.384 3.963 1.278 1.688 2.237 3.505 3.035 5.352 2.027 5.282 3.625 11.412 1.358 16.923-1.957 3.525-5.551 6.09-9.535 6.57-2.785.639-5.591.539-8.357 1.058a2.224 2.224 0 0 1-2.645-1.697c-.28-1.268.619-2.536 1.907-2.676 1.867-.22 3.684-.809 5.511-1.128 3.484-.54 6.25-.7 8.327-3.605.569-.629.559-.768.789-1.507.818-3.954-.23-8.267-1.738-12.101-.659-1.567-1.457-3.065-2.426-4.353-1.178-1.578-2.875-2.776-3.734-4.583-1.617-2.915-1.607-6.62-2.037-9.165.07.13.43.369.669.409-8.636-.909-18.501-1.538-27.287.629a37 37 0 0 0-2.476.769c-.918.25-1.458 1.018-2.506.37l-.889-.57a1.18 1.18 0 0 1-.509-1.278z"/><path fill="#F295FF" d="M233.843 13.429c-8.466-6.32-18.311-8.926-31.031-7.119-42.553 6.06-55.343 52.647-26.987 76.47"/><path fill="#000" d="M233.014 14.527c-2.775-.48-4.832-2.446-7.408-3.394a34.6 34.6 0 0 0-7.618-2.317c-27.576-4.153-56.041 14.737-54.674 44.33.53 10.733 5.901 20.847 14.128 27.727 2.456 2.146-.639 5.88-3.215 3.823-14.367-11.611-19.898-31.68-13.479-49.012C168.826 12.6 195.424-.31 218.887 4.214a39.2 39.2 0 0 1 12.53 4.992c1.288.758 2.476 1.707 3.245 3.135.619 1.098-.429 2.476-1.648 2.206z"/><path fill="#F295FF" d="M232.985 78.826s29.673-.62 24.251-33.877c-.529-3.265 1.358-13.359-2.676-13.868-10.543-1.328-9.954-5.411-15.845-12.19"/><path fill="#000" d="M232.955 77.328c17.402-3.744 24.431-13.638 21.895-31.18-.819-4.054.699-8.987-.789-12.68 0 .02.16.09.19.09-1.887-.26-3.744-.59-5.571-1.239-5.741-1.797-8.527-7.648-11.003-12.53a1.434 1.434 0 0 1 .699-1.927c1.448-.53 2.536 1.108 3.524 1.887 2.916 2.796 4.443 6.66 8.427 7.868 1.438.509 3.135.798 4.673.998 6.709 1.518 4.103 11.292 4.762 16.105 1.608 9.405.689 20.178-6.21 27.466-3.984 4.234-9.265 6.99-14.906 7.938-1.867.29-3.665.42-5.642.2a1.5 1.5 0 0 1-1.327-1.668c.079-.699.619-1.208 1.268-1.328z"/><path fill="#DB00F8" d="m254.74 32.658-33.297 12.85c-1.608.62-1.977 2.436-1.278 4.004 3.205 7.139 11.751 19.998 27.057 15.475 21.167-6.26 14.587-24.47 10.833-31.16-.649-1.158-2.067-1.658-3.315-1.178z"/><path fill="#000" d="M241.072 68.422c-4.863 0-9.435-1.627-13.469-4.832-5.232-4.164-8.337-9.955-9.715-13.05-.689-1.527-.739-3.215-.159-4.622a4.9 4.9 0 0 1 2.815-2.736l33.298-12.85c2.396-.928 5.142.06 6.39 2.287 1.657 2.945 6.759 13.289 2.955 22.664-2.326 5.73-7.458 9.804-15.246 12.11-2.336.69-4.623 1.03-6.859 1.03zm14.647-33.447s-.05 0-.08.01l-33.298 12.85s-.07.28.1.659c7.578 16.913 19.36 15.495 24.072 14.097 6.26-1.847 10.314-4.952 12.041-9.205 3.045-7.498-1.697-16.594-2.676-18.341-.03-.05-.089-.08-.159-.08z"/><path fill="#000" d="M227.753 33.198c.479.639 1.428.619 2.067.14.638-.48.858-1.369.249-1.888-.299-.26-1.118-.29-1.757.19s-1.038.919-.549 1.558z"/><path fill="#000" d="M228.791 35.584h-.14c-.968-.04-1.847-.49-2.406-1.238-.659-.869-.779-1.887-.349-2.796.299-.629.808-1.068 1.268-1.418 1.278-.968 3.095-1.018 4.143-.12a2.94 2.94 0 0 1 1.019 2.297c-.03.969-.54 1.917-1.358 2.536a3.6 3.6 0 0 1-2.177.739m0-3.794c-.07 0-.1.02-.12.03-.08.06-.139.21-.139.37 0 .259.109.528.299.698.2.17.389.24.509.26.14-.32.14-.819-.07-1.099a.66.66 0 0 0-.459-.26z"/><path fill="#000" d="M227.753 35.095a1.91 1.91 0 0 1-1.488-.72c-1.448-1.816-1.448-3.334-1.198-4.282.509-1.957 2.376-2.766 2.586-2.856a1.9 1.9 0 0 1 2.476 1.038 1.893 1.893 0 0 1-1.008 2.457c-.17.08-.36.24-.38.31-.01.049.04.378.499.958a1.9 1.9 0 0 1-.299 2.665c-.35.28-.769.41-1.178.41z"/><path fill="#000" d="M216.131 36.682c.479.64 1.428.62 2.067.14s.858-1.368.249-1.887c-.299-.26-1.118-.29-1.757.19-.639.479-1.038.918-.549 1.557z"/><path fill="#000" d="M217.179 39.059c-.988 0-1.947-.42-2.566-1.238-.658-.87-.778-1.888-.339-2.796.3-.63.809-1.068 1.268-1.418 1.278-.968 3.095-1.018 4.143-.12a2.89 2.89 0 0 1 1.019 2.307c-.03.968-.539 1.917-1.358 2.536a3.58 3.58 0 0 1-2.167.739zm-.01-3.784s-.089.01-.119.03c-.09.06-.14.21-.15.369 0 .26.11.529.299.689.2.17.39.24.51.27.139-.32.139-.82-.07-1.099a.63.63 0 0 0-.48-.26z"/><path fill="#000" d="M216.131 38.58c-.559 0-1.108-.25-1.488-.72-1.447-1.817-1.447-3.334-1.198-4.283.51-1.957 2.377-2.766 2.586-2.855a1.9 1.9 0 0 1 2.476 1.038c.39.958-.06 2.057-1.008 2.456-.17.08-.36.25-.379.31-.01.05.039.379.499.958a1.9 1.9 0 0 1-.3 2.666 1.88 1.88 0 0 1-1.178.41z"/><path fill="#000" d="M248.63 48.034c.918 2.247 1.897 4.014 2.915 3.545 1.148-.52.519-2.327-.399-4.573-.919-2.246-1.648-3.964-2.916-3.544-1.238.409-.519 2.326.4 4.572"/><path fill="#000" d="M251.216 54.155q-.63 0-1.228-.24c-1.638-.649-2.646-2.446-3.665-4.932-.858-2.097-1.737-4.264-.908-6.08.389-.86 1.118-1.498 2.037-1.798 3.514-1.168 5.072 2.676 6.01 4.972.889 2.177 2.536 6.23-.878 7.788-.44.2-.899.3-1.368.3z"/><path fill="#000" d="M237.887 52.417c.918 2.247 1.428 4.054 2.915 3.545 1.049-.36.519-2.327-.399-4.573-.919-2.246-1.688-4.114-2.916-3.544-1.308.609-.519 2.326.4 4.572"/><path fill="#000" d="M240.213 58.578c-2.576 0-3.714-2.866-4.363-4.523l-.419-1.049c-.899-2.186-2.397-5.86 1.008-7.438a3.4 3.4 0 0 1 2.726-.09c1.817.72 2.616 2.686 3.554 4.962 1.019 2.507 1.548 4.503.819 6.12a3.25 3.25 0 0 1-1.917 1.748c-.509.17-.969.25-1.398.25z"/><path fill="#F295FF" d="M186.897 14.977s-20.388-2.137-42.064.978c-2.705.39-.708 9.765-2.985 15.765-3.554 9.395-2.306 14.807-.549 19.799 4.074 11.562 35.025 16.843 42.164-3.624"/><path fill="#000" d="M186.777 16.125c-2.745.768-5.411.27-8.107.26-2.696-.09-5.391-.1-8.087-.09-8.497.09-16.973.678-25.36 1.946h-.05.07l.14-.05c.199-.06.379-.19.469-.28.18-.189.11-.169.07-.02-.35 1.319-.32 2.787-.39 4.384-.109 3.025-.169 6.53-1.228 9.765-2.156 5.55-3.165 11.691-1.058 17.392 1.637 5.91 8.337 8.277 13.888 9.355 7.319 1.228 15.216-.24 20.608-5.401 1.757-1.668 3.175-3.724 4.333-6.02a1.49 1.49 0 0 1 2.007-.66c.619.31.928.999.778 1.648-.629 2.855-1.976 5.621-3.913 7.967-1.947 2.347-4.473 4.214-7.219 5.472-10.174 4.602-25.989 2.755-33.188-6.43-1.837-2.596-2.516-5.651-3.115-8.706-.878-5.202.14-10.424 1.957-15.246 1.178-2.916 1.258-5.881 1.418-9.296.19-2.875-.1-8.087 4.024-8.496 8.546-1.099 17.172-1.498 25.769-1.388 2.746.05 5.491.12 8.237.27 2.736.229 5.511.03 8.187 1.327 1.018.46.849 2.077-.24 2.307z"/><path fill="#000" d="M254.261 65.447s-.01-1.408-2.706-.47c-2.686.93 5.282-4.413 5.282-4.413l.2 3.245-2.786 1.638z"/><path fill="#000" d="M197.52 18.291c-.339.4-1.028.939-1.427 1.318-.45.41-.749.749-1.129.889l-1.128.39a2.227 2.227 0 0 1-2.845-1.379c-1.288-3.294 6.869-7.088 7.378-3.045.08.739-.419 1.318-.849 1.837z"/><path fill="#000" d="M222.351 17.063c-.529.03-1.388-.09-1.937-.12-.599-.04-1.058-.02-1.417-.2l-1.059-.538a2.237 2.237 0 0 1-.978-3.006c1.477-3.205 9.864.03 7.298 3.215-.479.57-1.238.62-1.907.66z"/><path fill="#AD5400" d="m120.781 186.856-50.92 7.048-15.205-113.34 55.333-24.932"/><path fill="#000" d="M69.862 196.4c-.54 0-1.078-.179-1.508-.509a2.45 2.45 0 0 1-.958-1.657L52.19 80.892a2.49 2.49 0 0 1 1.447-2.605l55.333-24.931c1.258-.57 2.736 0 3.305 1.248a2.505 2.505 0 0 1-1.248 3.305L57.391 82.08l14.627 109.018 48.434-6.71a2.507 2.507 0 0 1 2.816 2.127 2.5 2.5 0 0 1-2.127 2.816l-50.91 7.048c-.11.02-.23.02-.34.02z"/><path fill="#FF7B00" d="m109.989 55.632 10.792 131.223s3.974-2.965 162.614-4.353l1.058-114.27s-66.615-13.558-174.464-12.61z"/><path fill="#000" d="M120.781 189.351c-.349 0-.698-.069-1.028-.219a2.48 2.48 0 0 1-1.458-2.067L107.502 55.842a2.48 2.48 0 0 1 .649-1.887 2.5 2.5 0 0 1 1.818-.809c106.841-.928 174.315 12.53 174.984 12.66a2.5 2.5 0 0 1 1.996 2.466l-1.058 114.27c-.01 1.358-1.118 2.456-2.476 2.476-144.672 1.268-160.257 3.824-161.755 4.184-.279.11-.579.159-.879.159zm-8.087-131.243 10.354 125.852c3.025-.359 8.666-.779 19.439-1.248 18.831-.829 58.099-1.957 138.432-2.676l1.018-109.727c-11.481-2.117-71.187-12.23-161.335-12.23-2.616 0-5.232 0-7.898.03z"/><mask id="b" width="176" height="132" x="109" y="55" maskUnits="userSpaceOnUse" style="mask-type:luminance"><mask id="a" width="176" height="132" x="109" y="55" maskUnits="userSpaceOnUse" style="mask-type:luminance"><path fill="#fff" d="m109.989 55.632 10.792 131.223s3.974-2.965 162.614-4.353l1.058-114.27s-66.615-13.558-174.464-12.61z"/></mask><g mask="url(#a)"><path fill="#fff" d="M120.781 189.351c-.349 0-.698-.069-1.028-.219a2.48 2.48 0 0 1-1.458-2.067L107.502 55.842a2.48 2.48 0 0 1 .649-1.887 2.5 2.5 0 0 1 1.818-.809c106.841-.928 174.315 12.53 174.984 12.66a2.5 2.5 0 0 1 1.996 2.466l-1.058 114.27c-.01 1.358-1.118 2.456-2.476 2.476-144.672 1.268-160.257 3.824-161.755 4.184-.279.11-.579.159-.879.159zm-8.087-131.243 10.354 125.852c3.025-.359 8.666-.779 19.439-1.248 18.831-.829 58.099-1.957 138.432-2.676l1.018-109.727c-11.481-2.117-71.187-12.23-161.335-12.23-2.616 0-5.232 0-7.898.03z"/></g></mask><g fill="#000" mask="url(#b)"><path d="m341.044 134.169-103.037 18.71-7.469-32.678 103.038-18.711z"/><path d="M237.997 155.375a2.504 2.504 0 0 1-2.436-1.937l-7.469-32.678a2.48 2.48 0 0 1 .35-1.927 2.5 2.5 0 0 1 1.637-1.079l103.038-18.71a2.484 2.484 0 0 1 2.875 1.897l7.468 32.678c.15.669.03 1.358-.349 1.927a2.5 2.5 0 0 1-1.637 1.079l-103.038 18.71c-.15.03-.3.04-.449.04zm-4.443-33.188 6.36 27.807 98.125-17.822-6.36-27.806z"/></g><path fill="#FF7B00" d="m283.315 144.652-45.308 8.227-7.469-32.678 52.797-10.933z"/><path fill="#000" d="M237.997 155.375a2.49 2.49 0 0 1-2.426-1.937l-7.469-32.678a2.52 2.52 0 0 1 .33-1.907 2.5 2.5 0 0 1 1.597-1.099l52.807-10.922c.739-.15 1.498.04 2.087.509.579.479.918 1.188.918 1.937l-.03 35.384a2.504 2.504 0 0 1-2.046 2.456l-45.309 8.227c-.15.03-.3.04-.449.04zm-4.463-33.247 6.37 27.866 40.915-7.429.02-30.232-47.305 9.785z"/><path fill="#000" d="M283.285 123.366c-12.8 3.095-25.749 5.581-38.838 7.118-1.977.19-2.636-2.615-.789-3.324 12.53-4.483 25.759-6.7 38.988-7.838 2.466-.14 3.026 3.435.639 4.044"/><path fill="#000" d="M269.287 137.613c-7.757 1.378-15.545 3.175-23.463 3.505a1.76 1.76 0 0 1-1.777-1.728c0-.699.399-1.318.989-1.597 1.877-.899 3.814-1.568 5.78-2.157 4.953-1.398 10.085-2.256 15.256-2.296 1.798.07 5.282-.31 5.032 2.486-.119.968-.898 1.667-1.807 1.797z"/><path fill="#FF7B00" d="m93.974 353.203 101.42-15.066-1.358-141.946s-45.229-7.448-100.532-6.78"/><path fill="#000" d="M93.974 355.699a2.495 2.495 0 0 1-.36-4.962l99.274-14.747-1.308-137.653c-9.465-1.407-50.171-6.999-98.026-6.419h-.03a2.498 2.498 0 0 1-.03-4.993c54.874-.649 100.512 6.73 100.971 6.81a2.49 2.49 0 0 1 2.087 2.436l1.358 141.946a2.51 2.51 0 0 1-2.127 2.496l-101.42 15.066a2.3 2.3 0 0 1-.37.03z"/><path fill="#AD5400" d="M21.149 208.471 31.97 339.006l62.003 14.207-.47-163.782s-19.768 2.656-72.355 19.05z"/><path fill="#000" d="M93.974 355.699c-.19 0-.37-.02-.56-.06l-62.002-14.207a2.49 2.49 0 0 1-1.927-2.227L18.662 208.671a2.48 2.48 0 0 1 1.748-2.586c52.197-16.264 71.956-19.03 72.765-19.14a2.55 2.55 0 0 1 1.977.589c.539.47.858 1.159.858 1.877l.47 163.782a2.5 2.5 0 0 1-2.496 2.506zm-59.666-18.72 57.16 13.099-.45-157.701c-7.009 1.288-27.566 5.601-67.214 17.882l10.514 126.72z"/><path fill="#AD5400" d="m54.656 80.563-13.798 24.082S96.35 83.369 98.287 81.901s11.701-26.279 11.701-26.279L54.656 80.553z"/><path fill="#000" d="M40.858 107.141a2.5 2.5 0 0 1-1.897-.869 2.485 2.485 0 0 1-.27-2.865l13.798-24.082c.26-.46.66-.819 1.138-1.038l55.333-24.931a2.49 2.49 0 0 1 2.746.47c.739.698.968 1.776.599 2.725-6.65 16.903-10.863 26.099-12.52 27.357-1.927 1.457-37.192 15.086-58.039 23.083-.29.11-.589.17-.889.17zM56.423 82.51l-9.904 17.293c20.597-7.928 46.876-18.182 50.19-19.859 1.228-1.737 4.983-10.374 8.677-19.5L56.433 82.51z"/><path fill="#FF7B00" d="m113.184 55.612 13.738 22.255s61.872.1 82.38 1.498c53.556 3.644 90.238 10.024 90.238 10.024l-15.087-21.146s-87.721-14.088-171.269-12.64z"/><path fill="#000" d="M299.54 91.885c-.14 0-.29-.01-.43-.04-.369-.06-37.191-6.41-89.978-9.994-20.198-1.378-81.601-1.488-82.21-1.498a2.47 2.47 0 0 1-2.117-1.188L111.067 56.91a2.5 2.5 0 0 1-.07-2.506 2.48 2.48 0 0 1 2.147-1.298c82.829-1.427 170.83 12.53 171.709 12.67a2.5 2.5 0 0 1 1.637 1.019l15.086 21.146c.59.83.619 1.927.08 2.776a2.51 2.51 0 0 1-2.116 1.168M128.31 75.371c9.295.03 62.511.23 81.152 1.498 40.755 2.766 72.066 7.179 84.566 9.106l-11.012-15.426c-9.895-1.528-89.21-13.34-165.409-12.51L128.3 75.37z"/><path fill="#FFB46D" d="m135.388 190.35-.269 19.07 25.55.489.858-17.622s-10.583-1.568-26.149-1.927z"/><path fill="#000" d="M160.669 212.395h-.05l-25.55-.489a2.495 2.495 0 0 1-2.446-2.536l.269-19.07c0-.669.29-1.298.769-1.757a2.5 2.5 0 0 1 1.787-.699c15.536.359 26.019 1.887 26.459 1.957a2.5 2.5 0 0 1 2.126 2.586l-.858 17.622a2.51 2.51 0 0 1-2.496 2.376zm-23.024-5.431 20.647.389.629-12.899c-3.574-.43-11.192-1.219-21.076-1.538z"/><path fill="#FFB46D" d="M139.572 345.795v-17.572l24.371-8.417 2.247 22.125z"/><path fill="#000" d="M139.572 348.291a2.49 2.49 0 0 1-2.496-2.496v-17.573c0-1.068.679-2.006 1.677-2.356l24.372-8.417a2.496 2.496 0 0 1 3.294 2.107l2.247 22.135a2.5 2.5 0 0 1-2.127 2.726l-26.618 3.854q-.18.03-.359.03zM142.068 330v12.909l21.396-3.095-1.687-16.614-19.709 6.81z"/><path fill="#000" d="m55.654 271.662.829 9.734c.07.859.37 1.568.889 2.137s1.138.849 1.847.839q1.078-.03 1.737-.929c.44-.599.629-1.358.559-2.246l-.829-10.024 2.596 2.635c.54.549 1.188.789 1.957.729s1.388-.409 1.847-1.038.66-1.428.58-2.356c-.08-.929-.39-1.668-.95-2.207l-7.607-7.418q-.842-.824-1.847-.659c-.67.11-1.218.509-1.658 1.208l-5.471 8.666q-.555.883-.45 2.127c.07.829.34 1.497.8 2.007q.703.764 1.677.689c.649-.05 1.188-.37 1.577-.959l1.927-2.925z"/><path fill="#000" d="M59.159 284.871c-.829 0-1.548-.34-2.157-.999-.589-.648-.938-1.467-1.018-2.436l-.71-8.297-1.137 1.718c-.47.719-1.129 1.108-1.947 1.178-.81.06-1.518-.22-2.087-.839-.54-.589-.849-1.358-.929-2.296-.08-.939.09-1.757.52-2.436l5.471-8.667q.782-1.228 1.997-1.437c.839-.14 1.597.129 2.276.788l7.608 7.419c.65.629 1.019 1.477 1.098 2.526.08 1.038-.14 1.947-.668 2.685-.55.759-1.288 1.179-2.217 1.248-.918.08-1.707-.219-2.346-.878l-1.628-1.648.72 8.657c.08 1.008-.14 1.877-.65 2.576q-.809 1.108-2.126 1.138zm-3.125-14.677.948 11.162c.06.749.31 1.358.759 1.848.42.459.859.668 1.468.668.559-.01.998-.249 1.337-.728.38-.52.53-1.139.46-1.907l-.949-11.402 3.565 3.614c.429.439.938.629 1.557.579.63-.05 1.108-.32 1.488-.839.39-.549.549-1.208.49-2.016-.07-.809-.33-1.428-.8-1.888l-7.608-7.418c-.449-.429-.908-.609-1.417-.519-.52.09-.949.409-1.318.978l-5.472 8.667c-.31.489-.43 1.088-.37 1.817s.28 1.288.67 1.707c.37.4.769.559 1.278.529.509-.04.898-.279 1.198-.728l2.726-4.124z"/><path fill="#000" d="M59.838 298.11c-.999 0-1.997-.08-3.006-.25-10.503-1.727-18.7-12.58-19.07-25.25-.379-13.139 7.519-24.242 18.371-25.829 5.522-.799 11.043.898 15.556 4.802 5.78 4.992 9.086 12.81 9.086 21.427 0 8.326-3.175 15.785-8.687 20.457-3.584 3.035-7.847 4.643-12.25 4.643m-1.049-46.527c-.649 0-1.288.05-1.937.14-8.207 1.198-14.407 10.314-14.097 20.747.3 10.324 6.699 19.12 14.886 20.468 3.974.659 7.958-.509 11.222-3.275 4.394-3.724 6.92-9.794 6.92-16.653 0-7.169-2.676-13.599-7.359-17.643-2.855-2.476-6.22-3.784-9.635-3.784"/><path fill="#FFB46D" d="M275.587 186.586c1.308.459-9.485 151.191-9.485 151.191l19.22-2.705 10.683-144.722-20.428-3.754z"/><path fill="#000" d="M266.102 340.273a2.53 2.53 0 0 1-1.707-.668 2.53 2.53 0 0 1-.789-2.007c4.104-57.31 9.995-143.943 9.575-150.313-.12-.42-.14-.889-.02-1.338a2.5 2.5 0 0 1 2.866-1.817l20.427 3.754a2.5 2.5 0 0 1 2.037 2.636l-10.693 144.721a2.5 2.5 0 0 1-2.136 2.287l-19.22 2.706c-.12.02-.23.02-.35.02zm12.081-150.672c-.03 3.624-.389 9.894-1.038 20.947-.729 12.57-1.847 30.053-3.325 51.978-2.097 31.141-4.323 62.591-5.012 72.356l14.178-1.997 10.373-140.488z"/></svg>