<svg xmlns="http://www.w3.org/2000/svg" width="264" height="399" fill="none" viewBox="0 0 264 399"><path fill="#4C4C4C" d="M156.683 399c57.153 0 103.484-6.837 103.484-15.271s-46.331-15.271-103.484-15.271S53.2 375.295 53.2 383.729 99.53 399 156.683 399"/><path fill="#4C4C4C" d="M87.147 313.482a64.7 64.7 0 0 1-6.73 8.571c-2.633 2.694-6.679-1.071-4.175-3.895 2.573-2.243 5.117-4.716 7.3-7.35 1.843-2.123 5.097.3 3.615 2.664"/><path fill="#4C4C4C" d="M80.187 307.843c-5.227 3.095-10.765 5.648-16.292 8.162a138 138 0 0 1-5.578 2.413 2.994 2.994 0 0 1-3.905-1.652 3 3 0 0 1 1.372-3.765c7.32-3.726 14.74-7.13 22.711-9.313 2.533-.651 3.956 2.864 1.702 4.155"/><path fill="#D8C4EC" d="M73.298 286.405c-3.325 2.734-4.046 4.487-4.146 10.084-2.553-4.977-3.975-6.228-8.171-7.21 3.324-2.733 4.045-4.486 4.146-10.084 2.553 4.977 3.975 6.229 8.17 7.21"/><path fill="#4C4C4C" d="M69.152 298.993a2.49 2.49 0 0 1-2.223-1.362c-2.343-4.567-3.265-5.158-6.519-5.919a2.51 2.51 0 0 1-1.873-1.872c-.22-.931.11-1.903.852-2.504 2.583-2.123 3.144-3.054 3.224-8.191a2.502 2.502 0 0 1 4.727-1.102c2.343 4.567 3.264 5.158 6.509 5.919.93.22 1.652.941 1.872 1.872s-.11 1.903-.851 2.504c-2.584 2.123-3.144 3.054-3.224 8.191a2.5 2.5 0 0 1-1.933 2.393c-.19.04-.38.071-.57.071zm-3.675-10.765a9.3 9.3 0 0 1 2.093 1.502c.3-.801.7-1.552 1.222-2.273a9.4 9.4 0 0 1-2.093-1.503 9.6 9.6 0 0 1-1.222 2.274"/><path fill="#C67FE8" d="M56.585 267.317c-5.248 4.827-6.279 7.801-5.909 17.054-4.686-7.991-7.16-9.934-14.18-11.166 5.248-4.826 6.28-7.8 5.91-17.053 4.686 7.991 7.159 9.933 14.179 11.165"/><path fill="#4C4C4C" d="M50.687 286.875a2.52 2.52 0 0 1-2.163-1.242c-4.327-7.38-6.19-8.862-12.458-9.964a2.5 2.5 0 0 1-1.973-1.762c-.27-.911 0-1.903.711-2.543 4.677-4.306 5.448-6.57 5.097-15.111a2.49 2.49 0 0 1 1.793-2.504 2.504 2.504 0 0 1 2.864 1.132c4.326 7.38 6.189 8.862 12.457 9.963a2.51 2.51 0 0 1 1.973 1.763c.27.911 0 1.903-.711 2.543-4.677 4.306-5.437 6.57-5.097 15.111a2.49 2.49 0 0 1-2.493 2.604zm-9.383-15.071c2.853.961 4.996 2.393 7.1 4.827.46-3.185 1.481-5.548 3.374-7.901-2.854-.961-4.997-2.393-7.1-4.827-.46 3.185-1.482 5.548-3.374 7.901"/><path fill="#D8C4EC" d="M201.005 53.121c3.324 2.734 4.045 4.486 4.145 10.084 2.554-4.977 3.976-6.228 8.172-7.21-3.325-2.734-4.046-4.486-4.146-10.084-2.553 4.977-3.975 6.229-8.171 7.21"/><path fill="#4C4C4C" d="M205.15 65.699c-.19 0-.38-.02-.57-.07a2.5 2.5 0 0 1-1.933-2.394c-.08-5.127-.641-6.068-3.224-8.191a2.504 2.504 0 0 1 1.021-4.376c3.254-.761 4.176-1.352 6.509-5.918a2.502 2.502 0 0 1 4.727 1.101c.08 5.127.64 6.069 3.224 8.191a2.503 2.503 0 0 1-1.021 4.377c-3.255.76-4.176 1.351-6.509 5.918a2.5 2.5 0 0 1-2.224 1.362m.351-11.536a9.6 9.6 0 0 1 1.222 2.273 9.8 9.8 0 0 1 2.093-1.502 10 10 0 0 1-1.222-2.273 9.8 9.8 0 0 1-2.093 1.502"/><path fill="#C67FE8" d="M223.846 48.375c4.517 5.517 5.117 8.602 3.455 17.714 5.758-7.25 8.482-8.832 15.612-9.062-4.516-5.518-5.117-8.602-3.455-17.715-5.758 7.25-8.482 8.833-15.612 9.063"/><path fill="#4C4C4C" d="M227.291 68.593c-.35 0-.701-.07-1.031-.22a2.5 2.5 0 0 1-1.422-2.734c1.542-8.411 1.101-10.755-2.924-15.681a2.5 2.5 0 0 1 1.862-4.086c6.359-.2 8.412-1.422 13.729-8.111a2.5 2.5 0 0 1 4.416 2.013c-1.542 8.411-1.101 10.754 2.924 15.671a2.511 2.511 0 0 1-1.862 4.096c-6.359.21-8.412 1.422-13.729 8.111a2.5 2.5 0 0 1-1.963.941m1.112-18.145c1.542 2.594 2.223 5.077 2.233 8.292 2.423-2.113 4.746-3.235 7.71-3.776-1.542-2.593-2.223-5.077-2.233-8.291-2.423 2.113-4.746 3.234-7.71 3.775"/><path fill="#4C4C4C" d="M202.337 23.781a64.5 64.5 0 0 1 3.625-10.274c1.632-3.395 6.669-1.132 5.207 2.343-1.723 2.944-3.335 6.108-4.556 9.303-1.062 2.604-4.927 1.352-4.276-1.372"/><path fill="#4C4C4C" d="M210.738 26.886c3.956-4.607 8.392-8.813 12.818-12.958a134 134 0 0 1 4.506-4.076 3.01 3.01 0 0 1 4.236.31c1.012 1.172.941 2.904-.09 4.016-5.738 5.878-11.676 11.476-18.516 16.112-2.193 1.432-4.656-1.442-2.944-3.395"/><path fill="#4C4C4C" d="m239.678 289.759-93.89 38.824c-17.684 7.31-37.962-1.092-45.272-18.786L10.13 91.865C2.82 74.18 11.222 53.902 28.916 46.592l93.89-38.824c17.685-7.31 37.963 1.092 45.273 18.786l90.385 217.932c7.31 17.685-1.091 37.963-18.786 45.273"/><path fill="#4C4C4C" d="M132.59 333.819c-14.64 0-28.55-8.682-34.488-23.022L7.717 92.875c-3.805-9.202-3.795-19.326.02-28.52 3.815-9.192 10.985-16.352 20.178-20.157l93.89-38.824c18.986-7.85 40.827 1.212 48.677 20.198l90.386 217.932c3.805 9.203 3.795 19.327-.02 28.519-3.816 9.193-10.986 16.353-20.178 20.158l-93.89 38.824a37 37 0 0 1-14.19 2.824zm3.425-326.082a31.9 31.9 0 0 0-12.207 2.434l-93.89 38.823c-7.911 3.275-14.08 9.434-17.354 17.335-3.285 7.91-3.285 16.623-.01 24.533l90.385 217.922c6.759 16.333 25.535 24.134 41.878 17.374l93.89-38.823c7.911-3.275 14.079-9.433 17.354-17.334 3.285-7.911 3.285-16.623.01-24.534L165.686 27.535c-5.107-12.347-17.074-19.808-29.671-19.808z"/><path fill="#4C4C4C" d="m230.405 278.323-86.139 35.62c-12.047 4.987-25.866-.751-30.843-12.798L25.381 88.881c-4.986-12.057.751-25.866 12.798-30.843l86.129-35.62c12.057-4.986 25.866.742 30.843 12.799l88.042 212.264c4.987 12.046-.751 25.865-12.798 30.842"/><path fill="#4C4C4C" d="M135.284 318.338c-10.305 0-20.088-6.109-24.264-16.203L22.978 89.871c-2.674-6.479-2.674-13.599.01-20.067 2.684-6.47 7.72-11.507 14.2-14.18l86.129-35.62c13.359-5.527 28.72.852 34.248 14.21l88.042 212.264c5.527 13.359-.852 28.72-14.21 34.248l-86.139 35.619a26 26 0 0 1-9.984 1.993zm-1.963-295.11c-2.674 0-5.387.512-8.001 1.593l-86.13 35.62c-5.187 2.142-9.222 6.178-11.375 11.365a20.83 20.83 0 0 0 0 16.082l88.042 212.265c4.426 10.704 16.743 15.821 27.448 11.395l86.139-35.619c10.705-4.426 15.812-16.743 11.386-27.448L152.788 36.217c-3.345-8.091-11.196-12.988-19.447-12.988z"/><path fill="#F2BA48" d="m234.701 287.124-93.89 38.824c-17.684 7.31-37.962-1.091-45.272-18.786L5.153 89.23c-7.31-17.684 1.092-37.962 18.786-45.272l93.89-38.824c17.685-7.31 37.963 1.091 45.273 18.786l90.385 217.932c7.311 17.684-1.091 37.962-18.786 45.272"/><path fill="#4C4C4C" d="M127.613 331.086c-14.6 0-28.48-8.652-34.388-22.962L2.84 90.192c-3.795-9.172-3.785-19.276.02-28.449S13.815 45.44 22.988 41.645l93.89-38.824c18.936-7.83 40.717 1.202 48.547 20.138l90.386 217.932c7.83 18.936-1.202 40.717-20.138 48.547l-93.89 38.824a37 37 0 0 1-14.15 2.824zm3.415-326.072c-4.086 0-8.242.781-12.247 2.444l-93.89 38.824c-7.941 3.284-14.12 9.463-17.414 17.394s-3.295 16.673-.01 24.614l90.385 217.932c6.779 16.382 25.615 24.203 42.008 17.434l93.89-38.824c16.383-6.779 24.204-25.615 17.424-42.008L160.789 24.892c-5.117-12.377-17.124-19.868-29.761-19.868z"/><path fill="#FCF9E8" d="m225.429 275.689-86.14 35.619c-12.046 4.987-25.866-.751-30.842-12.798L20.405 86.246c-4.987-12.056.75-25.865 12.797-30.842l86.13-35.62c12.056-4.987 25.865.741 30.842 12.798l88.042 212.264c4.987 12.047-.751 25.866-12.797 30.843"/><path fill="#4C4C4C" d="M130.307 315.604c-10.264 0-20.018-6.078-24.174-16.142L18.091 87.198c-5.507-13.308.851-28.62 14.16-34.117l86.129-35.62c6.449-2.663 13.549-2.663 19.988.01 6.439 2.674 11.456 7.701 14.13 14.14l88.041 212.264c5.508 13.308-.851 28.61-14.159 34.117l-86.129 35.62a26.1 26.1 0 0 1-9.944 1.982zm-1.943-295.118c-2.734 0-5.467.54-8.071 1.612l-86.13 35.62C23.41 62.162 18.273 74.54 22.719 85.294L110.76 297.56c4.446 10.755 16.813 15.892 27.578 11.446l86.129-35.619c10.755-4.446 15.892-16.813 11.446-27.578L147.871 33.544c-2.153-5.218-6.208-9.273-11.416-11.436a21.1 21.1 0 0 0-8.091-1.623"/><path fill="#7DB2BF" d="m92.907 53.336-20.793 8.6.631 1.526 20.793-8.6z"/><path fill="#4C4C4C" d="M72.747 68.493a5.01 5.01 0 0 1-4.626-3.095l-.631-1.522a5 5 0 0 1 0-3.835 5 5 0 0 1 2.714-2.714l20.798-8.602a5.014 5.014 0 0 1 6.54 2.714l.63 1.522a5 5 0 0 1 0 3.835 5 5 0 0 1-2.713 2.714l-20.8 8.602c-.62.26-1.271.38-1.912.38"/><path fill="#5CB3C1" d="M130.607 220.022c-22.401 0-43.59-13.529-52.212-35.619-11.226-28.75 3.024-61.285 31.784-72.511 28.75-11.225 61.285 3.024 72.51 31.784 11.226 28.75-3.024 61.285-31.784 72.511a55.7 55.7 0 0 1-20.298 3.835m-.12-97.285c-4.987 0-10.054.912-14.971 2.834-21.21 8.282-31.724 32.285-23.442 53.494s32.275 31.724 53.494 23.443c21.209-8.282 31.734-32.285 23.442-53.494-6.358-16.293-22-26.277-38.513-26.277z"/><path fill="#4C4C4C" d="M130.607 222.525c-23.933 0-45.853-14.95-54.545-37.211-11.727-30.042 3.164-64.019 33.206-75.755 14.53-5.678 30.412-5.338 44.742.941 14.319 6.279 25.335 17.735 31.013 32.265 5.677 14.53 5.337 30.422-.942 44.742-6.278 14.32-17.734 25.335-32.264 31.013a58 58 0 0 1-21.21 4.005m-.1-111.985a53.2 53.2 0 0 0-19.417 3.685c-27.468 10.725-41.087 41.798-30.362 69.266 7.951 20.348 27.989 34.027 49.879 34.027a53 53 0 0 0 19.387-3.665c13.278-5.187 23.763-15.261 29.501-28.359s6.048-27.628.861-40.907c-5.187-13.288-15.261-23.763-28.359-29.5-6.9-3.025-14.19-4.537-21.49-4.537zm.08 97.295c-17.524 0-34.107-10.585-40.856-27.869-8.783-22.501 2.373-47.946 24.864-56.738a43.5 43.5 0 0 1 15.882-3.004c17.925 0 34.338 11.195 40.847 27.868 8.782 22.501-2.374 47.947-24.865 56.739a43.7 43.7 0 0 1-15.882 3.004zm-.1-82.594c-4.817 0-9.543.891-14.059 2.653-19.928 7.781-29.802 30.322-22.02 50.25 5.977 15.301 20.668 24.684 36.189 24.684 4.687 0 9.443-.851 14.06-2.654 19.927-7.78 29.801-30.322 22.02-50.249-5.768-14.761-20.308-24.684-36.19-24.684"/><path fill="#8044C5" d="m151.997 159.768-20.989 26.226c-2.123 2.654-6.329 2.013-7.561-1.151l-12.217-31.294c-1.231-3.164 1.422-6.479 4.777-5.968l33.216 5.067c3.365.511 4.907 4.466 2.784 7.12z"/><path fill="#4C4C4C" d="M127.583 190.161c-.35 0-.711-.03-1.071-.08-2.474-.381-4.497-1.993-5.398-4.326l-12.227-31.294a6.84 6.84 0 0 1 1.042-6.839 6.85 6.85 0 0 1 6.449-2.514l33.216 5.067c2.473.381 4.496 1.993 5.397 4.326a6.85 6.85 0 0 1-1.041 6.84l-20.989 26.226a6.84 6.84 0 0 1-5.378 2.604zm-12.277-40.136c-.801 0-1.282.491-1.472.721-.21.26-.651.961-.29 1.893l12.227 31.293c.36.931 1.161 1.142 1.492 1.192s1.161.08 1.782-.691l20.989-26.237a1.89 1.89 0 0 0 .291-1.892 1.88 1.88 0 0 0-1.492-1.192l-33.217-5.067c-.11-.02-.21-.02-.31-.02"/></svg>