<svg xmlns="http://www.w3.org/2000/svg" width="346" height="259" fill="none" viewBox="0 0 346 259"><path fill="#A17AD8" d="M335.541 231.687c-8.185 4.303-22.614 8.536-47.842 11.106-10.725 1.093-20.102 1.644-28.386 1.644-13.264 0-23.728-1.414-32.456-4.289-14.86-4.897-24.893-14.266-31.572-29.488-8.214-18.718-12.66-53.29-14.001-80.115l-.315-.425c-.473 2.57-.976 5.208-1.514 7.906.263 4.434 1.029 14.379 3.248 33.143 3.852 32.574 14.388 76.07 61.227 77.713 48.876 1.713 79.574-4.068 91.611-17.195"/><path fill="#4C4C4C" d="m345.747 218.216-.01.004c-.028-.095-.052-.189-.094-.281-2.641-5.868-9.543-6.177-18.282-6.567-3.468-.155-7.29-.331-11.349-.844a61 61 0 0 0 10.697-10.73c5.918-7.605 8.89-15.686 7.23-19.651a4.2 4.2 0 0 0-1.434-1.824c.034-1.063-.201-1.995-.697-2.818-2.776-4.613-11.801-2.732-24.292-.13-3.837.8-7.805 1.626-11.681 2.266-16.579 2.738-31.647-1.133-44.958-11.515-10.327-17.215-18.497-42.139-23.852-80.533-3.076-22.068-11.097-32.15-17.284-36.72-3.469-2.562-7.273-4.072-11.055-4.44 8.585-16.621 21.411-24.274 21.55-24.356.028-.016.051-.038.078-.055a3.3 3.3 0 0 0 1.188-.774c3.355-3.452-2.607-11.988-3.298-12.95-2.774-3.86-6.948-6.082-9.638-6.282-1.493-.11-2.425.36-2.982.843-18.73 12.646-24.932 36.375-26.245 42.438-7.232-.72-28.371 2.18-47.349 53.886-13.067 35.599-43.17 77.282-75.42 88.072-4.11 1.376-7.83 2.006-11.066 1.904-9.699-16.876-17.49-29.997-25.862-31.502-2.792-.502-5.454.286-7.923 2.339-9.067 7.543-19.727 42.883-2.672 70.433 3.596 5.806 8.763 10.609 15.471 14.396-9.436 1.438-14.688 3.034-14.688 4.715 0 6.329 74.511 11.46 166.426 11.46s166.426-5.131 166.426-11.46c0-1.695-5.344-3.303-14.928-4.75 9.438-4.828 15.237-11.28 17.275-19.272.032-.128.045-.257.054-.387 1.225-2.619.785-4.51.664-4.915m-22.583-21.177c-4.108 5.279-8.681 9.318-13.405 12.425a60 60 0 0 1-4.479-1.167c6.682-3.709 13.391-8.935 19.491-16.281 1.875-2.258 3.383-4.259 4.565-6.054-.852 2.744-2.7 6.614-6.172 11.077m-26.597-14.965c3.969-.656 7.983-1.492 11.865-2.301 6.429-1.339 18.398-3.831 19.527-1.952.011.019 1.07 2.034-6.644 11.325-6.778 8.162-14.447 13.515-21.931 17.006a56 56 0 0 1-1.768-.792c-15.067-7.128-28.702-14.935-40.195-29.665 11.991 6.48 25.213 8.679 39.146 6.379M214.556 8.919c2.084 2.902 3.098 5.392 3.395 6.728-1.285-.42-3.58-1.694-5.403-4.232-2.105-2.931-3.186-5.413-3.541-6.765 1.401.45 3.803 1.84 5.549 4.27M12.868 226.064c-15.529-25.082-6.22-58.006 1.723-64.615 1.173-.974 2.286-1.445 3.448-1.445q.399 0 .808.074c6.61 1.188 14.958 15.727 23.796 31.12 8.503 14.807 18.14 31.59 29.779 43.695 6.03 6.271 12.088 10.753 18.246 13.471-25.416 1.587-64.029-.056-77.8-22.3m163.388 10.015c-12.607 0-24.884.098-36.689.281 10.902-11.202 20.374-28.959 28.313-53.148 3.277-9.987 6.022-20.226 8.323-30.108a998 998 0 0 0 2.039 18.593c2.754 23.293 8.045 40.926 16.175 53.907a63.5 63.5 0 0 0 8.308 10.62c-8.621-.095-17.46-.145-26.469-.145m67.674 12.803c-46.839-1.643-57.375-45.139-61.227-77.713-2.219-18.764-2.985-28.709-3.248-33.143a541 541 0 0 0 1.514-7.907l.315.426c1.341 26.825 5.787 61.397 14.001 80.115 6.679 15.222 16.712 24.591 31.572 29.487 8.728 2.876 19.192 4.29 32.456 4.29 8.284 0 17.661-.552 28.386-1.644 25.228-2.57 39.657-6.803 47.842-11.106-12.037 13.127-42.735 18.908-91.611 17.195m96.292-26.343c-3.138 4.199-14.191 11.834-52.977 15.785-52.946 5.394-75.932-2.319-87.847-29.469-12.614-28.745-16.249-99.148-12.902-112.263a2.247 2.247 0 0 0-1.622-2.731 2.2 2.2 0 0 0-.668-.057 2.234 2.234 0 0 0-2.315 1.91l-.355 2.474c-2.403 16.738-7.404 51.567-17.925 83.623-12.838 39.12-29.42 60.613-49.285 63.884-11.508 1.896-22.334-1.627-32.002-7.77-13.475-10.792-24.575-29.474-34.28-46.344 3.077-.201 6.404-.878 9.952-2.066 13.313-4.454 28.188-15.186 41.884-30.218 15.442-16.949 28.004-37.893 36.326-60.566 21.131-57.568 43.973-50.763 44.178-50.696a2.25 2.25 0 0 0 2.87-1.36c.098-.276.135-.557.125-.832.041-.115.079-.232.1-.356.047-.261 4.561-24.765 21.517-38.59 1.004 2.913 2.995 5.874 3.904 7.139 1.564 2.178 3.458 3.753 5.269 4.788-5.479 4.184-15.602 13.496-22.012 29.009a2.247 2.247 0 0 0 4.152 1.715c.098-.238.202-.466.302-.7 3.485-.068 7.136 1.181 10.461 3.637 5.493 4.06 12.642 13.206 15.505 33.728 5.569 39.934 14.308 67.566 27.502 86.961 12.212 17.95 27.068 27.472 45.616 36.246 11.749 5.558 22.681 6.047 31.465 6.439 8.028.359 12.712.721 14.269 3.705.015.382-.066 1.447-1.207 2.975"/><path fill="#A17AD8" d="M323.164 197.039c3.472-4.463 5.32-8.334 6.172-11.077-1.182 1.794-2.69 3.796-4.565 6.054-6.1 7.346-12.809 12.572-19.491 16.281q2.27.683 4.479 1.167c4.724-3.108 9.297-7.146 13.405-12.425"/><path fill="#FFB921" d="M257.421 175.695c11.493 14.73 25.128 22.538 40.195 29.665a56 56 0 0 0 1.768.792c7.484-3.491 15.153-8.843 21.931-17.006 7.714-9.291 6.655-11.306 6.644-11.325-1.129-1.879-13.098.613-19.527 1.952-3.882.809-7.896 1.645-11.865 2.301-13.933 2.301-27.155.102-39.146-6.379"/><path fill="#FFB921" d="m181.536 98.188.355-2.474a2.234 2.234 0 0 1 2.315-1.91c.22-.012.443-.001.668.056a2.247 2.247 0 0 1 1.622 2.732c-3.347 13.115.288 83.518 12.902 112.263 11.915 27.15 34.901 34.863 87.847 29.469 38.786-3.951 49.839-11.586 52.977-15.786 1.141-1.528 1.222-2.592 1.207-2.974-1.557-2.984-6.241-3.346-14.269-3.705-8.784-.392-19.716-.881-31.465-6.439-18.548-8.774-33.404-18.296-45.616-36.246-13.194-19.395-21.933-47.027-27.502-86.961-2.863-20.522-10.012-29.668-15.505-33.728-3.325-2.456-6.976-3.705-10.461-3.638-.1.234-.204.463-.302.7a2.247 2.247 0 0 1-4.152-1.715c6.41-15.512 16.533-24.824 22.012-29.008-1.811-1.035-3.705-2.61-5.269-4.788-.909-1.266-2.9-4.226-3.904-7.139-16.956 13.825-21.47 38.329-21.517 38.59-.021.124-.059.24-.1.355.01.276-.027.557-.125.832a2.25 2.25 0 0 1-2.87 1.361c-.205-.067-23.047-6.872-44.178 50.695-8.322 22.674-20.884 43.618-36.326 60.567-13.696 15.032-28.57 25.764-41.884 30.218-3.548 1.188-6.875 1.864-9.951 2.066 9.704 16.87 20.804 35.552 34.279 46.344 9.668 6.143 20.494 9.666 32.002 7.769 19.865-3.27 36.447-24.763 49.286-63.883 10.52-32.056 15.521-66.885 17.924-83.623m19.996 78.556a1.68 1.68 0 0 1-1.926-.924l-1.175-2.369c-.422-.883-.907-1.728-1.213-2.738-1.171-3.416 4.081-4.539 4.39-.95.01.511.349 1.744.486 2.314l.657 2.639a1.674 1.674 0 0 1-1.219 2.028m40.599 7.798c-4.885-2.715-7.174-8.302-9.086-13.194-.929-2.36 2.201-4.215 3.83-2.312 3.174 4.055 4.433 9.006 7.398 13.309.843 1.361-.783 2.999-2.142 2.197m9.427 6.486c5.164 5.35 10.916 10.39 17.003 14.706 2.03 1.524 4.164 2.868 6.253 4.39 1.467 1.064.283 3.397-1.434 2.854-7.724-2.401-14.336-7.434-20.048-13.026-1.891-1.913-3.644-3.852-5.283-6.119-1.611-2.329 1.597-4.883 3.509-2.805m-53.827-47.489c1.1 4.565 1.352 8.937 1.511 13.597-.012 2.574-3.604 3.144-4.431.738-1.446-4.459-1.94-9.283-1.556-13.954a2.285 2.285 0 0 1 2.51-2.055 2.29 2.29 0 0 1 1.966 1.674m-5.578-19.649c.365-2.755 4.368-2.564 4.488.192l.111 3.843a2.53 2.53 0 0 1-2.454 2.599c-1.524.056-2.768-1.303-2.584-2.815zM78.659 190.558c1.821-1.835 4.237-3.581 6.293-5.184.758-.561 1.506-1.137 2.323-1.648a2.28 2.28 0 0 1 3.098 3.223c-1.779 2.515-4.136 4.514-6.763 6.066-.894.512-1.774.94-2.847 1.287-2.263.727-3.864-2.206-2.104-3.744m71.731-15.457c-3.523 10.707-9.032 20.859-15.951 29.757-6.968 8.942-15.04 16.947-24.519 23.242-2.338 1.42-4.57-1.91-2.334-3.527 13.828-10.658 25.44-24.463 33.569-39.919.561-1.201 2.105-4.265 2.642-5.455a985 985 0 0 1 2.356-5.59c1.063-2.727 5.121-1.326 4.237 1.492m1.088-12.72c.827-2.66 1.773-5.275 2.631-7.925a1379 1379 0 0 0 7.718-23.707c.47-1.543 2.796-1.075 2.623.533-1.451 11.211-4.384 22.218-8.755 32.638-1.161 2.548-4.974 1.152-4.217-1.539"/><path fill="#4C4C4C" d="M202.094 172.077c-.137-.57-.476-1.802-.486-2.314-.309-3.589-5.561-2.466-4.39.951.306 1.009.791 1.854 1.213 2.737l1.175 2.369a1.674 1.674 0 0 0 3.145-1.104z"/><path fill="#4C4C4C" d="M193.255 143.921c-.384 4.671.11 9.494 1.556 13.954.827 2.405 4.419 1.836 4.431-.739-.159-4.66-.411-9.032-1.511-13.597a2.284 2.284 0 0 0-4.476.382"/><path fill="#4C4C4C" d="M194.298 130.524a2.53 2.53 0 0 0 2.454-2.599l-.111-3.842c-.12-2.756-4.123-2.948-4.488-.192l-.438 3.819c-.185 1.511 1.059 2.871 2.583 2.814"/><path fill="#4C4C4C" d="M253.332 199.952c5.712 5.592 12.324 10.625 20.048 13.026 1.717.543 2.901-1.79 1.434-2.854-2.089-1.522-4.223-2.866-6.253-4.389-6.088-4.317-11.839-9.357-17.003-14.707-1.912-2.078-5.12.476-3.509 2.805 1.639 2.267 3.392 4.206 5.283 6.119"/><path fill="#A17AD8" d="M214.556 8.919c-1.746-2.429-4.148-3.82-5.549-4.269.355 1.352 1.436 3.834 3.541 6.765 1.823 2.538 4.118 3.812 5.403 4.232-.297-1.336-1.311-3.826-3.395-6.728"/><path fill="#4C4C4C" d="M146.153 173.609a955 955 0 0 0-2.356 5.591c-.537 1.189-2.081 4.254-2.642 5.454-8.129 15.456-19.741 29.262-33.569 39.919-2.236 1.618-.004 4.948 2.334 3.528 9.479-6.295 17.551-14.301 24.519-23.242 6.919-8.899 12.428-19.051 15.951-29.758.884-2.818-3.174-4.219-4.237-1.492"/><path fill="#4C4C4C" d="M161.827 130.749a1379 1379 0 0 1-7.718 23.707c-.858 2.65-1.804 5.265-2.631 7.925-.757 2.691 3.056 4.087 4.217 1.539 4.371-10.419 7.304-21.427 8.755-32.638.173-1.607-2.153-2.076-2.623-.533"/><path fill="#4C4C4C" d="M90.373 186.949a2.28 2.28 0 0 0-3.098-3.223c-.817.511-1.565 1.087-2.323 1.648-2.056 1.603-4.472 3.349-6.293 5.184-1.76 1.538-.16 4.471 2.104 3.744 1.073-.347 1.953-.775 2.847-1.286 2.626-1.553 4.984-3.552 6.763-6.067"/><path fill="#D5C3EE" d="M12.868 226.064c13.772 22.244 52.384 23.887 77.8 22.3-6.158-2.718-12.217-7.2-18.246-13.471-11.64-12.105-21.276-28.888-29.779-43.695-8.838-15.393-17.186-29.932-23.796-31.12a4.6 4.6 0 0 0-.808-.074c-1.162 0-2.275.471-3.447 1.445-7.944 6.609-17.253 39.533-1.725 64.615m12.21-45.579a1.34 1.34 0 0 1 1.521 1.039c4.6 17.004 11.467 34.259 23.405 47.428 3.924 4.263 8.523 7.852 13.702 10.42 2.532 1.341.76 5.162-1.916 4.061-17.543-7.891-27.37-26.143-33.332-43.532-1.936-5.85-3.507-11.757-4.49-17.883a1.34 1.34 0 0 1 1.11-1.533"/><path fill="#4C4C4C" d="M28.458 199.901c5.963 17.389 15.789 35.641 33.332 43.532 2.676 1.101 4.448-2.72 1.916-4.061-5.179-2.568-9.778-6.157-13.702-10.42-11.938-13.169-18.806-30.424-23.405-47.428a1.339 1.339 0 0 0-2.63.495c.982 6.125 2.552 12.032 4.489 17.882"/><path fill="#4C4C4C" d="M236.875 169.036c-1.629-1.903-4.759-.048-3.83 2.312 1.912 4.892 4.201 10.479 9.086 13.194 1.359.802 2.985-.836 2.142-2.198-2.965-4.302-4.224-9.253-7.398-13.308"/></svg>