<svg xmlns="http://www.w3.org/2000/svg" width="295" height="325" fill="none" viewBox="0 0 295 325"><path fill="#7A42C8" d="M86.496 152.636c-.811-.03-1.602.08-2.374.391-1.913.791-3.766 3.366-5.239 4.828-6.391 6.381-10.638 18.452-10.558 31.675.08 13.574 4.418 30.323 9.306 42.975 6.992 18.101 18.342 34.39 32.176 48.003 2.935 2.895 6.872 5.881 10.789 4.588 3.566-1.182 5.098-5.279 6.15-8.885 1.303-4.478 2.595-8.956 3.847-13.443 2.735-9.727 5.419-19.775 5.75-29.922.461-13.995-3.767-28.55-11.921-40.23 1.823.761 3.647 1.522 5.47 2.274-6.712-18.112-21.037-33.258-38.747-40.962-1.473-.641-3.086-1.232-4.669-1.292z"/><path fill="#4C4C4C" d="M118.682 287.921c-4.918 0-9.096-4.117-10.628-5.62-14.636-14.395-25.965-31.304-32.757-48.885-5.86-15.156-9.396-31.555-9.466-43.866-.08-13.604 4.247-26.426 11.29-33.468.36-.361.74-.792 1.151-1.252 1.392-1.563 2.965-3.326 4.909-4.127 1.041-.431 2.183-.622 3.416-.581 2.063.08 4.057.841 5.57 1.502 18.201 7.934 33.187 23.781 40.089 42.394l2.003 5.399-3.656-1.522c5.69 10.668 8.655 23.07 8.264 35.03-.33 10.168-2.955 20.236-5.84 30.523a1490 1490 0 0 1-3.856 13.464c-.842 2.875-2.585 8.855-7.774 10.568a8.7 8.7 0 0 1-2.705.431zM86.226 155.13c-.43 0-.811.07-1.152.211-.872.36-2.144 1.783-3.065 2.824a35 35 0 0 1-1.353 1.463c-6.04 6.041-9.897 17.771-9.827 29.892.08 13.814 4.768 30.803 9.136 42.093 6.541 16.93 17.47 33.218 31.595 47.122 3.446 3.386 6.141 4.698 8.244 3.997 2.364-.781 3.617-4.087 4.538-7.213a1472 1472 0 0 0 3.847-13.413c2.915-10.358 5.339-19.704 5.66-29.331.45-13.513-3.737-27.628-11.47-38.717l-4.919-7.052 7.744 3.225c-7.153-14.936-19.905-27.407-35.041-33.999-1.112-.481-2.535-1.042-3.757-1.092h-.17z"/><path fill="#4C4C4C" d="M189.275 288.742c-65.354 9.166-125.758-36.393-134.925-101.747-8.695-62.028 18.062-119.878 78.086-133.412-9.056-.6-4.478 0-13.824 1.313C45.105 65.203-6.135 133.14 4.173 206.648s78.247 124.748 151.754 114.44c39.789-5.58 73.047-28.049 93.563-59.143-16.589 13.944-37.175 23.561-60.215 26.787z"/><path fill="#4C4C4C" d="M137.184 324.914c-67.136 0-125.908-49.566-135.485-117.915-10.478-74.759 41.813-144.1 116.573-154.588 3.396-.48 4.868-.852 5.85-1.102 2.123-.541 2.865-.601 8.485-.23a2.51 2.51 0 0 1 2.334 2.304 2.495 2.495 0 0 1-1.944 2.634c-27.808 6.271-49.646 22.62-63.17 47.282-12.672 23.11-17.28 52.712-12.992 83.335 4.337 30.944 20.465 58.351 45.419 77.164s55.737 26.787 86.68 22.449c21.798-3.055 42.184-12.121 58.953-26.225a2.495 2.495 0 0 1 3.275.05 2.49 2.49 0 0 1 .421 3.245c-21.657 32.837-56.388 54.796-95.305 60.245a137 137 0 0 1-19.094 1.332zM108.625 59.253C42.189 73.988-2.949 137.789 6.658 206.318c10.097 72.025 76.903 122.403 148.928 112.305 31.966-4.477 61.006-20.525 81.803-44.767-14.446 9.045-30.694 14.976-47.773 17.37-32.267 4.528-64.372-3.787-90.388-23.411-26.015-19.624-42.834-48.194-47.362-80.47-4.437-31.685.37-62.388 13.564-86.44 10.207-18.612 24.903-32.727 43.195-41.652"/><path fill="#DCEDF1" d="M193.282 284.735c-65.354 9.166-125.759-36.394-134.924-101.747C49.663 120.96 90.253 63.4 150.277 49.867a134.6 134.6 0 0 0-27.658 1.021C49.112 61.196-2.128 129.134 8.18 202.642s78.246 124.747 151.754 114.439c39.789-5.58 73.047-28.049 93.563-59.143-16.589 13.944-37.175 23.561-60.215 26.787z"/><path fill="#4C4C4C" d="M141.191 320.908c-67.136 0-125.908-49.567-135.485-117.915-10.478-74.76 41.813-144.1 116.573-154.589a137.4 137.4 0 0 1 28.169-1.042l17.25 1.142-16.86 3.797c-28.529 6.431-53.473 23.25-70.222 47.362-16.849 24.242-23.871 53.713-19.764 82.964 4.337 30.944 20.466 58.352 45.419 77.164s55.737 26.787 86.68 22.449c21.798-3.055 42.184-12.121 58.953-26.225l13.193-11.089-9.487 14.385c-21.657 32.837-56.388 54.795-95.305 60.244a137 137 0 0 1-19.093 1.332zm-7.783-268.577c-3.486.21-6.972.56-10.438 1.042C50.945 63.47.567 130.276 10.665 202.3c10.097 72.026 76.913 122.403 148.928 112.306 31.966-4.478 61.006-20.526 81.803-44.768-14.446 9.046-30.694 14.976-47.773 17.37-32.266 4.528-64.372-3.787-90.387-23.411s-42.835-48.193-47.363-80.47c-4.277-30.513 3.046-61.236 20.616-86.52 14.195-20.425 34.019-35.832 56.909-44.487z"/><path fill="#4C4C4C" d="M252.495 245.256a73.4 73.4 0 0 1 3.666-11.58c1.693-3.837 7.383-1.503 5.88 2.424-1.813 3.346-3.486 6.922-4.738 10.529-1.092 2.935-5.439 1.682-4.808-1.373"/><path fill="#4C4C4C" d="M270.707 239.376c4.237-5.279 9.025-10.117 13.814-14.896a155 155 0 0 1 4.878-4.708 3.344 3.344 0 0 1 4.728.19c1.162 1.263 1.152 3.206.04 4.468-6.18 6.752-12.592 13.213-20.045 18.613-2.384 1.672-5.239-1.443-3.405-3.677"/><path fill="#D69200" d="m173.197 52.17 10.128-.18 2.955-9.687 3.295 9.577 10.128-.18-8.084 6.1 3.296 9.567-8.295-5.8-8.084 6.09 2.955-9.687z"/><path fill="#4C4C4C" d="m173.888 74.299 4.678-15.317-13.112-9.186 16.007-.28 4.678-15.317 5.22 15.136 16.007-.28-12.782 9.637 5.219 15.136-13.113-9.186-12.782 9.637zm7.062-19.765 3.477 2.435-1.243 4.047 3.386-2.555 3.466 2.435-1.382-4.008 3.386-2.554-4.238.07-1.382-4.007-1.242 4.047-4.238.07z"/><path fill="#FFB921" d="m142.824 16.198 14.055-.25 4.107-13.444 4.578 13.294 14.054-.251-11.229 8.465 4.578 13.283-11.51-8.054-11.23 8.455 4.107-13.444z"/><path fill="#4C4C4C" d="M150.227 40.2a2.5 2.5 0 0 1-1.432-.45 2.51 2.51 0 0 1-.962-2.786l3.576-11.7-10.027-7.022a2.51 2.51 0 0 1-.962-2.785 2.5 2.5 0 0 1 2.354-1.773l12.231-.21 3.577-11.7A2.5 2.5 0 0 1 160.936 0c1.072.02 2.053.661 2.414 1.693l3.987 11.57 12.231-.22h.04a2.49 2.49 0 0 1 2.364 1.693 2.52 2.52 0 0 1-.861 2.814l-9.767 7.363 3.987 11.57c.35 1.022 0 2.164-.862 2.815a2.51 2.51 0 0 1-2.945.05l-10.027-7.022-9.777 7.363c-.451.34-.972.5-1.503.5zm.341-21.638 5.199 3.637a2.51 2.51 0 0 1 .961 2.784l-1.853 6.071 5.069-3.817a2.51 2.51 0 0 1 2.945-.05l5.199 3.637-2.063-6a2.52 2.52 0 0 1 .861-2.816l5.069-3.826-6.351.11h-.04a2.49 2.49 0 0 1-2.364-1.693l-2.074-6-1.853 6.07a2.5 2.5 0 0 1-2.354 1.773l-6.351.11z"/><path fill="#D5C3EE" d="M212.255 22.92c-4.137 2.434-5.239 4.237-6.311 10.378-1.943-5.92-3.296-7.553-7.744-9.366 4.138-2.424 5.24-4.237 6.311-10.378 1.944 5.92 3.296 7.553 7.734 9.366z"/><path fill="#4C4C4C" d="M205.944 35.803a2.495 2.495 0 0 1-2.374-1.723c-1.813-5.51-2.805-6.401-6.301-7.824a2.51 2.51 0 0 1-1.553-2.144 2.52 2.52 0 0 1 1.232-2.344c3.256-1.913 4.117-2.935 5.119-8.645a2.5 2.5 0 0 1 2.284-2.063 2.47 2.47 0 0 1 2.555 1.713c1.813 5.51 2.804 6.4 6.301 7.823a2.52 2.52 0 0 1 1.552 2.144c.07.952-.41 1.853-1.232 2.344-3.256 1.913-4.117 2.935-5.119 8.645a2.5 2.5 0 0 1-2.284 2.064h-.18zm-3.055-12.201a10.8 10.8 0 0 1 2.534 2.524 10.7 10.7 0 0 1 2.144-2.865 10.8 10.8 0 0 1-2.535-2.524 10.7 10.7 0 0 1-2.143 2.865"/><path fill="#D5C3EE" d="M87.749 271.371c-4.138 2.435-5.24 4.238-6.311 10.378-1.944-5.92-3.296-7.553-7.744-9.366 4.137-2.424 5.24-4.237 6.311-10.378 1.944 5.92 3.296 7.553 7.734 9.366z"/><path fill="#4C4C4C" d="M81.438 284.244a2.5 2.5 0 0 1-2.374-1.723c-1.814-5.509-2.805-6.401-6.301-7.823a2.52 2.52 0 0 1-1.553-2.144 2.52 2.52 0 0 1 1.232-2.344c3.256-1.914 4.117-2.935 5.119-8.645a2.5 2.5 0 0 1 2.284-2.064 2.465 2.465 0 0 1 2.554 1.713c1.813 5.51 2.805 6.401 6.301 7.824a2.51 2.51 0 0 1 1.553 2.143c.07.952-.41 1.854-1.232 2.344-3.256 1.914-4.117 2.936-5.12 8.646a2.5 2.5 0 0 1-2.283 2.063h-.18zm-3.046-12.201a10.8 10.8 0 0 1 2.535 2.524 10.7 10.7 0 0 1 2.143-2.865 10.8 10.8 0 0 1-2.534-2.524 10.9 10.9 0 0 1-2.144 2.865"/><path fill="#D5C3EE" d="M170.022 275.71c18.592 1.903 24.182-10.739 24.182-10.739 2.895 3.215 8.314 3.736 11.76 1.122-1.843-2.565-3.696-5.119-5.54-7.684l.962 1.473c4.398 3.176 11.089 2.585 14.866-1.292-15.477-8.194-27.738-18.232-36.453-33.428l-22.56 12.421 12.773 38.127z"/><path fill="#4C4C4C" d="M173.798 278.414c-1.282 0-2.624-.07-4.037-.21l-1.603-.17-13.954-41.643 26.546-14.615 1.222 2.134c7.794 13.593 18.723 23.601 35.452 32.456l2.955 1.563-2.334 2.394c-2.615 2.685-6.351 4.077-10.087 4.077h-.121l1.583 2.194-1.943 1.472c-3.587 2.725-8.776 2.825-12.622.591-2.675 3.667-8.926 9.727-21.057 9.727zm-1.933-5.068c15.166.871 19.854-8.976 20.045-9.407l1.592-3.466 2.555 2.825c1.472 1.643 3.937 2.294 6.11 1.823l-2.374-3.295-.25-.181-1.212-1.863 4.127-2.835.891 1.232c2.355 1.433 5.47 1.603 8.085.621-14.576-8.304-25.024-18.031-32.537-30.272l-18.602 10.237 11.58 34.581z"/><path fill="#FFFBE8" d="M165.714 280.328c-3.616-1.874-10.999-.461-14.886-.351-6.06.18-11.79-.15-17.811.431-4.848-15.808-22.839-22.8-32.486-35.322-22.219-28.82-34.58-72.055-15.537-95.516 4.578-5.629 3.746-14.034 6.36-20.806 3.066-7.964 8.686-16.008 17.251-18.552 9.156-2.725 20.956-2.504 29.722 1.503 8.665 3.966 13.433 13.203 15.066 21.607 1.382 7.112-.02 17.37 1.362 24.483l10.979 122.502z"/><path fill="#4C4C4C" d="M133.007 282.682a2.275 2.275 0 0 1-2.163-1.593c-2.775-9.026-10.188-15.006-18.042-21.337-5.009-4.037-10.177-8.204-14.074-13.263-22.51-29.191-35.592-73.578-15.507-98.321 2.434-2.995 3.135-7.082 3.886-11.42.501-2.925 1.022-5.94 2.114-8.775 2.334-6.05 7.864-16.679 18.713-19.905 10.227-3.045 22.509-2.414 31.304 1.613 8.124 3.717 14.235 12.402 16.349 23.231.731 3.776.731 8.294.721 12.682 0 4.167-.01 8.464.641 11.81.01.08.03.15.03.231l10.508 117.243q.56 6.261-.11 6.992a2.26 2.26 0 0 1-2.705.481c-2.123-1.102-6.781-.671-10.187-.36-1.313.12-2.555.23-3.597.26-2.183.06-4.347.07-6.431.06-3.836 0-7.463 0-11.229.361-.07 0-.151.01-.221.01m-11.44-172.019c-4.187 0-8.424.571-12.341 1.743-8.996 2.675-13.754 11.921-15.787 17.2-.932 2.414-1.393 5.089-1.884 7.924-.811 4.718-1.653 9.586-4.828 13.493-5.88 7.233-11.9 20.726-7.243 43.876 3.326 16.539 11.64 34.34 22.82 48.835 3.576 4.638 8.314 8.455 13.333 12.502 7.583 6.11 15.407 12.411 18.933 21.798 3.376-.241 6.682-.241 9.887-.241 2.054 0 4.177 0 6.291-.06.902-.03 2.074-.13 3.316-.25 2.865-.261 6.211-.571 9.096-.191l-10.679-119.147c-.711-3.746-.711-8.224-.701-12.561 0-4.168.01-8.465-.641-11.811-1.833-9.396-6.982-16.869-13.794-19.985-4.528-2.073-10.108-3.125-15.798-3.125z"/><path fill="#4C4C4C" d="M134.049 141.446a6.1 6.1 0 1 0 0-12.202 6.1 6.1 0 0 0 0 12.202"/><path fill="#FFB921" d="M119.985 127.471c-4.458 7.353-4.468 18.052-.02 25.264l-.141-.991c3.526-6.582 3.927-15.317 1.032-22.219z"/><path fill="#4C4C4C" d="M119.965 155.24a2.5 2.5 0 0 1-2.134-1.192c-4.929-8.004-4.929-19.734.01-27.878a2.53 2.53 0 0 1 2.324-1.203 2.51 2.51 0 0 1 2.124 1.513l.871 2.054c3.075 7.332 2.765 16.508-.751 23.641l.03.21a2.516 2.516 0 0 1-2.484 2.855zm-.171-20.666a24.5 24.5 0 0 0-.15 10.518c.791-3.426.852-7.082.15-10.518"/><path fill="#D5C3EE" d="M101.302 117.984c11.26.451 15.537 8.325 17.781 12.372 3.196-4.307 5.58-9.046 15.297-11.019s12.902 1.392 10.298-1.964c-6.842-8.825-14.606-9.135-26.156-9.095-3.867.01-10.208.531-13.824 2.454-3.817 2.033-8.445 7.052-3.396 7.252"/><path fill="#4C4C4C" d="m118.783 134.964-1.944-3.496c-2.194-3.967-5.88-10.598-15.637-10.979-3.486-.14-4.328-2.174-4.528-3.045-.881-3.857 4.648-7.754 6.852-8.926 4.728-2.524 12.672-2.744 14.996-2.744 10.889-.041 20.285-.061 28.139 10.067.882 1.132 1.983 2.554 1.062 4.207-.902 1.623-2.615 1.443-3.867 1.313-1.583-.161-4.528-.471-8.975.43-7.704 1.573-10.038 4.839-12.743 8.625-.34.481-.691.962-1.041 1.443l-2.314 3.115zm-16.309-19.423c9.166.731 14.035 6.01 16.819 10.257 2.685-3.576 6.281-7.222 14.586-8.915 2.504-.511 4.628-.691 6.351-.711-5.46-5.149-11.851-5.39-21.698-5.39-3.997.01-9.707.591-12.652 2.164a13.8 13.8 0 0 0-3.396 2.605z"/><path fill="#4C4C4C" d="M106.712 131.569c-1.814.3-3.487.971-5.149 1.753l-.962.45c-.07.03-.15.06-.22.101-.271.12.591-.241.2-.091-.18.071-.351.141-.531.211-.862.31-1.743.531-2.645.681-.58.1-1.212.661-1.492 1.152-.31.541-.451 1.332-.25 1.933.45 1.403 1.692 1.984 3.085 1.753 1.813-.3 3.486-.971 5.149-1.753l.961-.45c.07-.031.151-.061.221-.101.27-.12-.591.241-.201.091.181-.071.351-.141.531-.211.862-.31 1.743-.531 2.645-.681.581-.1 1.212-.661 1.492-1.152.311-.541.451-1.332.251-1.933-.451-1.403-1.693-1.984-3.085-1.753"/><path fill="#4C4C4C" d="M113.343 136.277c.1-2.755-1.903-4.699-4.518-5.109-2.264-.351-4.538-.111-6.802-.341-.08 0-.16-.02-.24-.03-.3-.02.601.1.311.04-.131-.03-.271-.04-.411-.07a7 7 0 0 1-.771-.19c-.121-.04-.241-.09-.361-.131-.22-.06.381.171.351.151-.061-.05-.161-.08-.231-.11-.11-.061-.21-.121-.31-.181-.041-.03-.081-.06-.131-.09-.21-.11.531.431.231.17l.641 1.102q-.15-.465 0 .331l-.341 1.262.02-.04-1.492 1.152h-1.142s.09.04.14.05c.1.07 1.392.11.821.12.581 0 1.052-.17 1.573-.4 1.192-.541 1.583-2.375.902-3.426-.802-1.233-2.144-1.483-3.426-.902l.761-.1c.781-.01 1.002-.06.661-.13-.04-.02-.09-.02-.13-.03a3.1 3.1 0 0 0-1.433-.02c-1.122.29-1.883 1.332-1.903 2.464-.03 1.322.862 2.324 1.944 2.935 1.282.721 2.714.962 4.157 1.082 1.182.1 2.374.08 3.556.09.581 0 1.162.02 1.743.07.13.01.26.04.391.04.06 0-.651-.11-.401-.05l.21.03c.231.04.461.09.682.16.11.03.571.221.09.02-.481-.2-.06 0 .05.051.431.21-.16-.131-.171-.151.051.08.381.441.061.01-.371-.481-.04.02 0 .06.09.06-.161-.35-.161-.4 0 .07.06.14.07.21 0 .04.02.1.03.13.121.311-.02-.511-.04-.33-.01.16.01.33 0 .491-.05 1.312 1.182 2.564 2.505 2.504 1.402-.06 2.454-1.102 2.504-2.504z"/><path fill="#4C4C4C" d="M115.577 165.688c-.581-.871-1.202-1.703-1.733-2.604-.05-.101-.1-.191-.15-.291.1.261.11.261 0-.01-.06-.22-.131-.441-.171-.661.101.491 0-.2 0-.321 0-.43 0-.46.06-.781.201-1.112-.13-2.234-1.152-2.825-.881-.521-2.354-.461-3.035.391-1.132 1.422-2.214 2.885-3.516 4.167-.711.701-.972.922-1.693 1.342-.18.111-.36.201-.551.301l-.23.11c.17-.07.18-.08.02-.01-.201.07-.401.14-.611.19-.08.02-.782.161-.361.101l2.414 3.165c.241-1.062.361-2.154.431-3.235.03-.521-.15.44.02-.101.06-.2.1-.4.17-.591-.12.361 0 0 .091-.16.17-.301.36-.591.561-.871 1.632-2.304-2.084-5.19-3.937-3.036-1.012 1.182-1.843 1.863-3.216 2.555-.53.27-.992.44-1.743.631-.751.19-1.232.27-1.833.31l2.504 2.505c.03-1.713.872-3.376 2.224-4.648.982-.932.942-2.605 0-3.547-.942-.941-2.554-.931-3.546 0-2.244 2.124-3.636 5.089-3.686 8.185-.02 1.282 1.172 2.594 2.504 2.504 3.967-.27 7.713-1.923 10.328-4.969l-3.937-3.035c-.671.952-1.202 2.034-1.392 3.196a18 18 0 0 0-.181 1.652c-.02.221-.03.441-.06.662.06-.491-.12.551-.14.641-.32 1.402.711 3.396 2.414 3.165 2.484-.33 4.518-1.312 6.401-2.975 1.553-1.382 2.795-3.075 4.077-4.698l-4.187-2.434c-.31 1.773-.3 3.456.411 5.139.531 1.242 1.352 2.274 2.093 3.396.742 1.121 2.204 1.612 3.426.901 1.112-.651 1.653-2.294.902-3.426z"/><path fill="#7A42C8" d="M147.783 154.9c-.811-.03-1.603.08-2.374.391-1.914.791-3.106 2.674-4.127 4.477-6.472 11.5-10.138 22.019-10.058 35.252.08 13.573 2.805 27.107 7.694 39.759 6.992 18.101 18.341 34.389 32.175 48.003 2.936 2.895 6.872 5.88 10.789 4.588 3.566-1.182 5.099-5.279 6.151-8.885 1.302-4.478 2.594-8.956 3.847-13.444 2.734-9.727 5.419-19.774 5.75-29.922.46-13.994-3.767-28.549-11.921-40.23 1.823.762 3.646 1.523 5.469 2.274-6.711-18.111-21.036-33.258-38.747-40.961-1.473-.641-3.085-1.232-4.668-1.292z"/><path fill="#4C4C4C" d="M179.959 290.185c-4.919 0-9.096-4.117-10.629-5.62-14.635-14.395-25.965-31.304-32.757-48.885-5.128-13.283-7.773-26.957-7.853-40.641-.08-12.521 3.025-23.43 10.378-36.493 1.192-2.114 2.685-4.468 5.359-5.57 1.042-.43 2.184-.631 3.416-.581 2.054.08 4.057.842 5.57 1.503 18.201 7.934 33.187 23.771 40.089 42.394l2.004 5.399-3.656-1.523c5.689 10.669 8.655 23.07 8.264 35.031-.341 10.168-2.955 20.235-5.85 30.523a1441 1441 0 0 1-3.857 13.464c-.841 2.875-2.584 8.845-7.773 10.558-.922.3-1.824.431-2.705.431zm-32.447-132.791c-.43 0-.811.07-1.152.21-1.182.491-2.113 2.004-2.895 3.396-6.982 12.412-9.807 22.259-9.736 34.009.08 13.073 2.604 26.156 7.523 38.868 6.541 16.929 17.46 33.218 31.594 47.122 3.436 3.386 6.141 4.698 8.245 3.997 2.364-.782 3.616-4.087 4.538-7.213a1433 1433 0 0 0 3.846-13.423c2.915-10.358 5.34-19.704 5.66-29.331.451-13.514-3.736-27.628-11.47-38.717l-4.918-7.053 7.743 3.226c-7.152-14.936-19.904-27.408-35.041-33.999-1.112-.481-2.534-1.042-3.756-1.092z"/><path fill="#4C4C4C" d="M132.446 161.301c4.879.551 9.767-1.373 13.734-4.087 3.126-2.144 6.061-4.779 8.234-7.904.772-1.112.201-2.785-.901-3.426-1.242-.731-2.655-.22-3.426.902-.13.18-.691.841-.2.29-.211.23-.391.491-.602.721a32 32 0 0 1-1.602 1.713c-1.373 1.363-2.635 2.415-4.037 3.376-3.486 2.394-7.043 3.877-11.2 3.406-1.342-.15-2.504 1.262-2.504 2.504 0 1.483 1.152 2.355 2.504 2.505"/><path fill="#4C4C4C" d="M146.14 166.169c-3.957 6.822-7.002 14.255-8.475 22.018s-1.432 15.898.141 23.761c1.362 6.772 3.756 13.384 6.361 19.775 2.774 6.821 5.93 13.493 9.556 19.914 3.627 6.421 8.044 13.203 13.263 18.863 2.194 2.374 5.72-1.172 3.546-3.546-4.307-4.668-7.863-9.977-11.089-15.437-3.566-6.05-6.712-12.361-9.476-18.823-5.48-12.782-9.847-26.416-7.914-40.48 1.152-8.344 4.217-16.258 8.415-23.521 1.622-2.795-2.705-5.319-4.328-2.524"/><path fill="#D69200" d="M123.31 281.008s2.926-6.982 9.928-7.243c6.691-.25 8.314 2.134 9.506 5.49 1.242 3.516-19.434 1.753-19.434 1.753"/><path fill="#4C4C4C" d="M133.308 284.003c-2.695 0-6.041-.14-10.218-.5l-3.426-.291 1.332-3.176c.141-.34 3.637-8.454 12.142-8.775 7.713-.28 10.368 2.655 11.96 7.153a3.3 3.3 0 0 1-.491 3.135c-.53.681-1.893 2.454-11.299 2.454m-5.48-5.199c4.849.241 9.637.201 11.941-.22-.771-1.473-2.154-2.464-6.441-2.314-2.434.09-4.248 1.262-5.5 2.534"/><path fill="#4C4C4C" d="M145.639 281.228a14 14 0 0 0-.991-2.484c-.161-.3-.371-.621-.702-.681-.29-.05-.561.13-.801.29-.922.642-1.853 1.283-2.775 1.914s-1.723.531-2.805.551c-2.144.05-4.297 0-6.441-.121a75 75 0 0 1-6.862-.721c-2.094-.32-2.645-.521-3.877 1.383-.15.24-.24.501-.25.781-.291 1.252.34 2.775 1.703 3.015.901.161 1.803-.16 2.644-.521.842-.36 1.693-.751 2.605-.771 1.703-.03 3.266 1.252 4.868 1.753.351.11.722.15 1.072.19 1.563.181 2.905.121 4.188-.921.801-.641 1.662-1.393 2.684-1.343 1.573.081 2.715 2.004 4.268 1.794 2.043-.281 1.993-2.294 1.472-4.118z"/><path fill="#D69200" d="M143.956 283.182s2.925-6.982 9.927-7.242c6.692-.251 8.315 2.134 9.507 5.489 1.242 3.516-19.434 1.753-19.434 1.753"/><path fill="#4C4C4C" d="M153.954 286.177c-2.695 0-6.041-.14-10.218-.501l-3.426-.29 1.332-3.176c.14-.34 3.636-8.454 12.141-8.775 7.704-.29 10.368 2.655 11.961 7.153a3.3 3.3 0 0 1-.491 3.135c-.531.681-1.893 2.454-11.299 2.454m-5.48-5.199c4.848.241 9.637.201 11.941-.22-.772-1.473-2.174-2.464-6.441-2.314-2.435.09-4.248 1.262-5.5 2.534"/><path fill="#4C4C4C" d="M166.295 283.402a14 14 0 0 0-.992-2.484c-.16-.301-.37-.621-.701-.681-.29-.05-.561.13-.801.29-.922.641-1.854 1.282-2.775 1.913-.922.632-1.723.531-2.805.551-2.144.05-4.297 0-6.441-.12a75 75 0 0 1-6.862-.721c-2.094-.321-2.645-.521-3.877 1.382-.15.241-.24.501-.25.782-.291 1.252.34 2.775 1.703 3.015.901.16 1.803-.16 2.644-.521s1.693-.751 2.605-.771c1.703-.03 3.265 1.252 4.868 1.753.351.11.721.15 1.072.19 1.563.18 2.905.12 4.187-.922.802-.641 1.663-1.392 2.685-1.342 1.573.08 2.715 2.004 4.267 1.793 2.044-.28 1.994-2.294 1.473-4.117z"/><path fill="#BE7AEB" d="M69.437 251.958c-7.022 3.716-8.976 6.631-11.19 16.709-2.785-9.937-4.898-12.732-12.13-16.048 7.022-3.717 8.975-6.632 11.189-16.709 2.785 9.937 4.898 12.732 12.13 16.048"/><path fill="#4C4C4C" d="M58.237 271.171a2.51 2.51 0 0 1-2.414-1.823c-2.604-9.286-4.217-11.44-10.758-14.445a2.53 2.53 0 0 1-1.463-2.204 2.51 2.51 0 0 1 1.332-2.284c6.361-3.366 7.844-5.62 9.918-15.036a2.5 2.5 0 0 1 2.374-1.963c1.132-.06 2.173.721 2.484 1.823 2.604 9.286 4.217 11.44 10.759 14.445a2.51 2.51 0 0 1 1.462 2.204c.03.951-.49 1.833-1.332 2.284-6.361 3.376-7.844 5.619-9.917 15.036a2.5 2.5 0 0 1-2.375 1.963zm-7.032-18.702c3.136 1.963 5.14 4.227 6.802 7.863 1.453-3.716 3.316-6.09 6.341-8.234-3.136-1.963-5.139-4.227-6.802-7.864-1.452 3.717-3.316 6.091-6.34 8.235"/></svg>