<svg xmlns="http://www.w3.org/2000/svg" width="328" height="391" fill="none" viewBox="0 0 328 391"><path fill="#4C4C4C" d="M292.302 374.486c0-9.031-62.703-16.351-140.046-16.351S12.21 365.455 12.21 374.486s62.703 16.35 140.046 16.35 140.046-7.32 140.046-16.35"/><path fill="#4C4C4C" d="M14.25 230.36c-.39.19-.61.69-.38 1.13 0-.02-.01-.03-.02-.04v.03l.03.1.09.28c.08.25.14.52.26.75l-.09-.27c.08.3.22.6.34.89.09.22.19.44.3.67.21.45.42.9.62 1.35.41.88.8 1.77 1.19 2.66.78 1.79 1.56 3.581 2.25 5.391.35.93.68 1.87 1 2.8.82 2.47 1.47 4.99 1.82 7.53.09.62.15 1.24.2 1.86.12 1.72.11 3.44-.08 5.12-.06.5-.13 1-.22 1.49.02-.13.05-.27.07-.4-.02.13-.04.26-.07.38-.31 1.71-.81 3.361-1.53 4.901-.64 1.3-1.45 2.5-2.39 3.57-.23.25-.48.49-.7.75l.24-.27c-.26.26-.54.5-.82.73-.2-1.32-.5-2.63-.92-3.91-.61-1.86-1.47-3.701-2.85-5.151-1.25-1.32-2.95-2.33-4.72-2.35-.75 0-1.47.12-2.15.39-.63.25-1.22.63-1.72 1.07a7.16 7.16 0 0 0-2.17 3.531c-.18.68-.27 1.39-.22 2.11.05.84.24 1.63.58 2.43.67 1.58 1.89 2.96 3.27 3.96.34.25.7.47 1.07.67.75.41 1.51.76 2.32.99.85.24 1.72.43 2.59.48.54.03 1.08.02 1.61-.03h-.29a5.8 5.8 0 0 0 1.37-.19c.38-.09.76-.2 1.13-.33 0 .31.01.63.01.94 0 .76-.05 1.52-.13 2.28-.04.38-.09.76-.15 1.13-.01.09-.03.17-.04.26 0 .02 0 .04-.01.06v-.04c.02-.1.02-.05-.02.13 0 .05-.01.1-.02.15l-.09.56v.02c0 .04-.01.08-.02.12-.02.09-.04.19-.05.28l-.12.56c-.08.37-.17.74-.27 1.1-.2.72-.44 1.42-.69 2.12-.24.68-.52 1.35-.83 2-.08.17-.16.34-.25.5-.07.14-.05.32.09.43.14.1.32.071.41-.06.47-.68.9-1.4 1.28-2.13.4-.76.73-1.57 1.03-2.39.28-.79.53-1.61.72-2.43.21-.87.34-1.76.43-2.66.12-1.16.15-2.34.1-3.52.36-.18.71-.39 1.05-.6 1.36-.84 2.55-1.95 3.52-3.22.96-1.25 1.71-2.67 2.31-4.15.58-1.42.98-2.911 1.24-4.441.51-2.98.44-6.1 0-9.17a35 35 0 0 0-.91-4.39c-.49-1.82-1.09-3.63-1.8-5.4a76 76 0 0 0-2.2-4.891c-.79-1.61-1.68-3.19-2.56-4.76-.26-.47-.52-.95-.81-1.4.06.09.12.18.17.27-.09-.17-.19-.32-.29-.48-.13-.21-.26-.46-.42-.65-.11-.16-.22-.32-.34-.47-.1-.12-.19-.24-.29-.35-.24-.37-.71-.59-1.1-.4zm-3.43 43.522a9 9 0 0 1-1.85-.25 9.4 9.4 0 0 1-2.01-.81c-.6-.35-1.17-.75-1.69-1.22-.4-.39-.75-.81-1.06-1.27-.15-.24-.28-.48-.4-.73a4 4 0 0 1-.18-.41c-.03-.06-.05-.13-.07-.19-.01-.03-.03-.07-.04-.1-.08-.25-.14-.51-.19-.76a5 5 0 0 1-.05-.37v-.23c0-.26 0-.52.03-.78.01-.12.03-.24.05-.36.01-.06.03-.13.04-.19.06-.25.13-.5.22-.74.04-.11.09-.23.13-.34l.06-.15c0 .02-.02.04-.03.06.01-.02.02-.04.03-.07.02-.04.06-.12.03-.05.24-.481.54-.921.89-1.321.33-.35.69-.66 1.09-.92.3-.18.61-.33.95-.44.04-.01.08-.03.12-.04 0 0 .03 0 .05-.01.02 0 .03 0 .04-.01l.15-.03c.19-.04.37-.06.56-.08.08 0 .16 0 .24-.01h.14c.2.01.39.04.59.07.04 0 .09.02.13.03.01 0 .04.01.07.02.03 0 .05.01.06.02.07.02.15.05.22.07.25.09.49.19.73.31.02.01.05.03.07.04.06.03.11.06.16.1.13.08.25.16.38.25q.33.24.63.51c.53.51.99 1.091 1.39 1.711.07.11.13.21.2.32-.04-.07-.08-.13-.13-.2.44.71.81 1.46 1.12 2.22.08.19.15.39.22.58.03.09.06.18.1.27 0 .02.01.04.02.05l.03.1c.12.37.23.74.34 1.11.21.76.38 1.53.52 2.3.05.26.08.52.12.79-.65.36-1.33.65-2.05.86-.14.03-.28.07-.41.1-.58.13-1.17.2-1.77.2z"/><path fill="#4C4C4C" d="M12.87 289.603c-.38 0-.76-.12-1.07-.35-.74-.53-.96-1.511-.55-2.331.08-.15.16-.31.23-.47.28-.57.53-1.2.77-1.86.22-.61.47-1.32.66-2.01.09-.34.18-.68.26-1.03.04-.18.08-.35.11-.52l.05-.26s.01-.05.02-.09c.04-.22.06-.39.09-.56 0-.02.02-.17.03-.19v-.05s.02-.07.02-.1l.03-.22c.06-.36.1-.72.14-1.08.04-.37.07-.74.09-1.12-.13.02-.26.04-.38.05-.05.01-.1.02-.15.02-.59.06-1.21.07-1.84.04-.89-.05-1.82-.22-2.92-.53-.84-.24-1.68-.6-2.63-1.12-.44-.24-.84-.49-1.22-.76-1.7-1.22-3.04-2.86-3.78-4.59-.4-.95-.63-1.91-.7-2.92-.05-.83.04-1.7.27-2.58a8.7 8.7 0 0 1 2.63-4.281c.64-.56 1.38-1.03 2.15-1.33.85-.34 1.78-.5 2.73-.5 2 .02 4.12 1.05 5.79 2.82 1.35 1.42 2.39 3.291 3.19 5.721.14.42.26.84.38 1.27.55-.73 1.04-1.52 1.44-2.35.62-1.34 1.09-2.851 1.39-4.451v-.04c.08-.46.15-.93.2-1.4.17-1.52.2-3.15.08-4.85-.05-.57-.11-1.17-.19-1.76-.32-2.29-.91-4.74-1.76-7.26-.31-.92-.63-1.83-.98-2.75-.66-1.74-1.4-3.441-2.22-5.331-.39-.88-.78-1.76-1.18-2.64l-.62-1.34c-.11-.24-.22-.48-.32-.72l-.08-.19c-.07-.16-.14-.32-.21-.51-.11-.25-.17-.48-.23-.67l-.14-.48a2.324 2.324 0 0 1 1.15-2.96c1.01-.49 2.25-.13 2.94.83a11 11 0 0 1 .66.87c.14.18.26.38.38.58l.16.26c.1.16.2.32.29.48.17.28.32.56.48.84l.32.57c.82 1.46 1.67 2.97 2.42 4.51.87 1.78 1.61 3.411 2.24 4.981.7 1.73 1.33 3.6 1.86 5.57.41 1.52.73 3.06.94 4.58.49 3.49.49 6.73-.01 9.64a22.8 22.8 0 0 1-1.33 4.751c-.71 1.75-1.54 3.22-2.51 4.49-1.11 1.45-2.43 2.66-3.93 3.58-.11.07-.21.13-.32.2 0 .98-.04 1.9-.13 2.8-.11 1.06-.26 1.99-.47 2.85-.21.88-.47 1.75-.77 2.59-.34.96-.71 1.8-1.11 2.57-.41.79-.88 1.56-1.37 2.291a1.8 1.8 0 0 1-1.46.78zm-7.94-21.211.08.22c.05.12.09.23.15.33.1.2.21.39.33.59.22.33.51.68.83.99.39.35.87.7 1.39 1 .49.26 1.07.49 1.67.66.46.11.95.18 1.46.2.49 0 .97-.06 1.43-.17l.41-.1c.23-.07.47-.16.72-.26-.12-.61-.26-1.22-.43-1.82-.1-.35-.2-.7-.32-1.05 0 0-.04-.13-.05-.14l-.08-.23c-.06-.17-.13-.35-.2-.53a13 13 0 0 0-1.01-2c0-.01-.01-.02-.02-.03l-.04-.07c-.35-.54-.75-1.03-1.17-1.441-.12-.11-.29-.249-.46-.379-.09-.07-.19-.13-.29-.191l-.14-.08a7 7 0 0 0-.54-.23l-.27-.08c-.14-.03-.27-.04-.4-.05h-.19a2.5 2.5 0 0 0-.38.06l-.1.02c-.29.1-.51.2-.74.33-.23.151-.51.381-.76.651-.24.28-.47.62-.65.97v.01s-.03.07-.04.09c-.04.1-.07.18-.1.27-.07.19-.12.38-.17.57l-.03.14s-.02.13-.03.22c-.02.2-.03.39-.02.59v.12c.02.1.03.19.05.28.03.18.08.35.13.53zm18.21-6.421-.07.38a21.7 21.7 0 0 1-1.64 5.271c-.66 1.35-1.48 2.59-2.44 3.72.38-.38.73-.79 1.07-1.22.81-1.06 1.5-2.3 2.12-3.8.51-1.25.9-2.641 1.15-4.131.45-2.6.45-5.53 0-8.71-.2-1.39-.49-2.81-.87-4.21-.44-1.63-.95-3.19-1.51-4.65.12.33.23.66.34.99.91 2.71 1.54 5.33 1.89 7.8q.135.975.21 1.95c.13 1.91.1 3.72-.09 5.42-.04.35-.08.7-.14 1.04 0 .05 0 .09-.02.14z"/><path fill="#4C4C4C" d="M3.81 264.902s-.02.04-.03.05c.01-.02.02-.05.03-.06z"/><path fill="#4C4C4C" d="M3.78 266.452c-.23 0-.46-.05-.68-.16a1.503 1.503 0 0 1-.66-2.01v-.02s.02-.04.03-.05c.07-.13.17-.28.27-.37h.01c.37-.33.89-.49 1.39-.37.67.17 1.16.74 1.16 1.43 0 .22-.05.43-.14.63 0 .01-.01.02-.02.03-.01.03-.03.07-.04.08-.27.51-.79.81-1.33.81z"/><path fill="#4C4C4C" d="M13.86 231.45c-.06-.12-.02-.06 0 0"/><path fill="#4C4C4C" d="M13.86 232.95c-.55 0-1.08-.3-1.34-.82-.25-.5-.24-1.16.08-1.62.32-.45.86-.7 1.42-.62.49.06.94.42 1.18.87.03.05.05.11.07.16.28.75-.07 1.58-.8 1.9-.2.09-.4.13-.61.13"/><path fill="#4C4C4C" d="M6.66 274.582s-.07-.04-.1-.06-.07-.04-.1-.06c.07.04.14.08.21.11z"/><path fill="#4C4C4C" d="M6.66 276.082c-.22 0-.43-.05-.64-.14l-.06-.03h-.01l-.21-.11c-.72-.4-.98-1.31-.58-2.03s1.31-.99 2.03-.6l.1.05s.08.05.1.06c.72.4.98 1.31.58 2.04-.27.5-.79.78-1.32.78z"/><path fill="#DCEDF1" d="M239.72 221.63c13.13 41.701-55.033-4.391-55.033-4.391s-66.122-61.102-79.513-90.393c0 0-13.39-25.111 1.67-25.941"/><path fill="#4C4C4C" d="M232.829 241.591c-6.23 0-15.03-2.921-26.581-8.791-12.06-6.13-22.851-13.41-22.961-13.49l-.3-.23c-2.71-2.511-66.542-61.683-80.053-91.124-1.08-2.03-8.79-17.151-4.37-25.011 1.08-1.92 3.38-4.27 8.15-4.54l.28 4.99c-2.72.15-3.62 1.21-4.07 2-2.37 4.21 1.48 14.67 4.46 20.281l.07.14c12.741 27.861 75.373 86.283 78.793 89.463 1.351.9 11.301 7.491 22.311 13.081 20.491 10.42 26.812 8.48 28.572 7.17 2.91-2.17 1.72-8.34.21-13.14l4.77-1.5c2.9 9.23 2.24 15.5-1.99 18.65-1.84 1.37-4.26 2.061-7.281 2.061z"/><path fill="#DCEDF1" d="M106.844 100.905c32.632-1.81 119.895 79.513 132.866 120.735z"/><path fill="#4C4C4C" d="M237.33 222.38c-5.871-18.651-28.782-48.252-58.363-75.413-29.691-27.252-57.942-44.322-71.973-43.572l-.28-4.99c15.761-.87 44.062 15.9 75.633 44.881 30.182 27.712 53.643 58.163 59.753 77.594z"/><path fill="#D5C3EE" d="m30.271 304.523 69.463-195.878s22.601 43.312 60.682 79.303c23.851 22.541 63.613 47.702 76.164 49.383 10.76 1.43-151.727 58.772-198.509 75.173-4.93 1.73-9.63-3.08-7.8-7.971z"/><path fill="#4C4C4C" d="M157.586 64.943c1.24-7.18 3.33-14.19 5.6-21.1 1.29-3.53 6.521-2.04 5.771 1.63-.8 3.59-1.84 7.12-2.98 10.61-1.16 3.53-2.401 6.97-4.121 10.3a2.294 2.294 0 0 1-3.08.96 2.28 2.28 0 0 1-1.19-2.39"/><path fill="#6DB5C3" d="m49.822 249.381 9.55-26.941 23.361 9.31 39.152 15.261 61.352 13.261-70.503 25.891-37.121-14.241z"/><path fill="#DCEDF1" d="m39.591 279.552 9.56-26.941 24.112 18.211 38.901 15.261-46.782 16.01z"/><path fill="#4C4C4C" d="m64.822 304.933-28.15-24.611 11.26-31.751 26.56 20.061 44.923 17.621-54.593 18.69zm-22.3-26.141 23.42 20.471 38.972-13.34-32.881-12.891-21.671-16.361-7.85 22.121z"/><path fill="#FFB921" d="m29.48 308.373 9.551-26.941 30.342 21.221-32.412 10.72z"/><path fill="#4C4C4C" d="M151.436 45.952c-.66-7.25-.45-14.57-.06-21.831.33-3.74 5.77-3.66 6 .08.15 3.67.06 7.35-.13 11.02-.21 3.71-.51 7.36-1.31 11.01-.28 1.23-1.5 2-2.73 1.72a2.28 2.28 0 0 1-1.77-2"/><path fill="#4C4C4C" d="M129.435 116.765c14.741-25.761 19.201-56.763 8.661-84.884-1.451-4.15-3.431-8.59-5.401-12.53-1.05-2.05-2.19-4.06-3.27-6.1-.96-1.85 1.67-3.47 2.88-1.71 18.971 27.83 22.491 64.622 7.161 94.923-2.171 4.28-4.551 8.321-7.591 12.101-.53.65-1.48.75-2.13.22-.62-.5-.73-1.37-.31-2.02"/><path fill="#FFFBE8" d="m89.363 137.886-14.67 41.361s23.97 16.061 34.141 18.771 32.212 11.191 58.313 15.261 30.171 4.41 30.171 4.41-42.042-32.881-48.822-40.682c-6.78-7.8-14.921-18.98-14.921-18.98s-24.071-7.121-25.431-7.121l-18.79-13.01z"/><path fill="#FFFBE8" d="m98.004 110.425-9.17 29.791s31.531 13.22 41.701 15.93c-6.27-13.56-22.881-32.711-25.091-38.141z"/><path fill="#4C4C4C" d="M133.085 80.433c2.05-11.66.41-24.02-3.98-34.991-1.71-4.43-4.11-8.67-6.39-12.8-1.2-2.17-2.59-4.19-3.69-6.441-.39-.77-.09-1.7.66-2.09.59-.3 1.28-.18 1.74.26.92.87 1.78 1.8 2.64 2.74 3.5 3.74 6.12 8.21 8.34 12.83.86 2.12 2.19 5.02 2.8 7.2.31 1.05.89 2.641 1.11 3.711 2.571 10 3.051 20.66.13 30.641-.73 2.17-3.93 1.19-3.38-1.05"/><path fill="#4C4C4C" d="M285.272 207.429c7.07 1.76 14.33 2.67 21.571 3.39 3.75.24 4.49-5.15.83-5.94-3.611-.71-7.251-1.19-10.911-1.55-3.7-.36-7.35-.62-11.08-.38-1.26.09-2.2 1.18-2.12 2.43.07 1.01.78 1.82 1.71 2.05"/><path fill="#4C4C4C" d="M300.172 220.72c6.37 3.53 13.151 6.29 19.961 8.85 3.56 1.21 5.67-3.81 2.34-5.52-3.3-1.62-6.7-3.02-10.14-4.32-3.48-1.3-6.941-2.5-10.611-3.24a2.277 2.277 0 0 0-1.55 4.22"/><path fill="#4C4C4C" d="M43.872 336.154c6.37 3.531 13.15 6.291 19.96 8.851 3.56 1.21 5.67-3.81 2.34-5.52-3.3-1.621-6.7-3.021-10.14-4.321-3.48-1.3-6.94-2.5-10.61-3.24a2.278 2.278 0 0 0-1.55 4.22"/><path fill="#4C4C4C" d="M226.499 212.299c29.521-3.1 59.683 5.321 81.174 26.301 3.22 3.001 6.48 6.601 9.29 9.991 1.45 1.78 2.83 3.64 4.26 5.45 1.3 1.62 3.85-.13 2.73-1.94-17.82-28.581-50.072-46.642-83.983-44.822-4.79.26-9.451.81-14.131 2.07a1.51 1.51 0 0 0-1.06 1.86c.21.76.96 1.22 1.72 1.09"/><path fill="#4C4C4C" d="M261.221 223.609c11.5 2.83 22.141 9.31 30.421 17.741 3.36 3.35 6.28 7.26 9.14 11.01 1.5 1.97 2.79 4.06 4.411 5.971.55.66 1.52.77 2.18.24.51-.41.68-1.1.47-1.691-.43-1.19-.93-2.36-1.44-3.52-2.011-4.71-5.051-8.91-8.381-12.81-1.59-1.64-3.72-4.03-5.46-5.47-.83-.71-2.06-1.881-2.94-2.511-8.12-6.39-17.681-11.12-27.991-12.47-2.28-.2-2.68 3.12-.4 3.51"/><path fill="#4C4C4C" d="M298.142 174.547c.03.11.07.22.1.33-.08-.53-.27-1.07-.44-1.59-.18-.56-.35-1.14-.58-1.69-.04-.16-.08-.33-.13-.5-.12-.39-.21-.85-.4-1.22-.1-.28-.21-.55-.32-.82-.11-.25-.22-.48-.34-.7-.05-.14-.1-.27-.17-.4-.08-.15-.16-.31-.24-.46q-.39-.75-.9-1.44c-.4-.54-.83-1.06-1.27-1.56-1.05-1.2-2.26-2.28-3.52-3.25a27.2 27.2 0 0 0-7.811-4.241 26 26 0 0 0-8.61-1.43c-1.55 0-3.11.12-4.65.36-1.53.24-3.02.65-4.49 1.13-.61.2-1.22.431-1.81.681a28 28 0 0 0-5.231-1.441c-2.84-.49-5.79-.42-8.65-.06-5.83.72-11.42 2.901-16.631 5.551-.33.17-.66.33-.99.51-.12.07-.23.15-.35.22.2-.12.26-.15.15-.09-.07.04-.13.08-.2.12-.16.1-.32.19-.48.29-.68.42-1.35.84-2.01 1.27-.26.17-.46.62-.47.91s.05.56.21.81c.36.57 1.05.75 1.66.49.85-.36 1.72-.68 2.57-1.04.16-.06.11-.05-.12.04.17-.03.32-.09.47-.17.08-.04.17-.08.25-.12.23-.1.45-.2.68-.3.41-.18.82-.36 1.24-.53a69 69 0 0 1 4.951-1.84c3.26-1.02 6.63-1.74 10.04-1.94 2.36-.1 4.74.05 7.06.52.03 0 .06.02.09.02-.03.02-.06.04-.08.06-1.33.98-2.52 2.11-3.64 3.33a21.3 21.3 0 0 0-2.68 3.58c-1.65 2.8-2.82 5.98-2.9 9.26-.08 2.91.57 5.891 2 8.431.7 1.25 1.55 2.46 2.56 3.48 1.18 1.2 2.47 2.15 3.99 2.88 2.2 1.06 4.811 1.29 7.201.91 2.45-.39 4.77-1.47 6.76-2.94 1.04-.76 1.93-1.66 2.79-2.62.72-.79 1.35-1.65 1.9-2.57 1.31-2.21 2.21-4.641 2.42-7.221.22-2.67-.35-5.37-1.36-7.83-.52-1.26-1.24-2.44-2.02-3.55-.67-.96-1.43-1.85-2.26-2.67-.74-.73-1.52-1.4-2.33-2.04.82-.14 1.64-.23 2.47-.29 1.97-.07 3.95.09 5.88.48 1.82.42 3.58 1.07 5.25 1.91 1.771.97 3.421 2.14 4.921 3.49.64.61 1.26 1.24 1.85 1.89.67.75 1.31 1.55 2.04 2.25.15.22.36.41.53.61.17.19.33.38.51.56.15.2.3.39.47.59.15.18.28.36.44.53.2.35.4.7.59 1.05.25.48.54.98.72 1.5.14.41.64.8 1.03.95.42.15.99.15 1.4-.06.42-.22.8-.57.95-1.03.15-.48.1-.89-.05-1.36zm-27.081-1.66c.28.94.47 1.91.55 2.89.02.89-.06 1.77-.23 2.64-.24.93-.57 1.82-.99 2.681-.56 1.01-1.23 1.95-1.99 2.81-.78.8-1.65 1.51-2.58 2.14-.79.48-1.62.87-2.49 1.18q-1.035.3-2.1.39c-.62 0-1.25-.04-1.86-.15-.661-.17-1.301-.42-1.921-.71-.66-.37-1.27-.81-1.84-1.3-.51-.51-.95-1.06-1.35-1.65-.49-.82-.89-1.68-1.2-2.59-.28-.981-.47-1.981-.54-2.991-.02-1.03.07-2.05.27-3.05.29-1.19.71-2.34 1.25-3.43.75-1.37 1.66-2.64 2.7-3.8a23 23 0 0 1 4.041-3.35c.71-.44 1.45-.83 2.2-1.19 1.3.77 2.52 1.67 3.64 2.68 1.06 1.02 2.01 2.14 2.81 3.36.66 1.09 1.21 2.25 1.62 3.45z"/><path fill="#4C4C4C" d="M202.228 66.143c2.19-9.52 1.63-19.7-1.88-28.851-1.6-4.16-3.71-8.24-7.41-10.91-3.27-2.37-7.461-2.75-11.111-1.08-3.26 1.49-5.77 5.26-4.58 8.89 1.04 3.17 4.45 5.52 7.8 5.32 4.151-.25 6.291-4.94 7.601-8.33 1.6-4.13 1.89-8.71 1.06-13.041-1.78-9.22-9.851-16.7-19.091-18.1-1.33-.2-2.69.34-3.08 1.75-.32 1.18.4 2.87 1.75 3.08 6.19.93 11.58 4.8 14.29 10.47 2.941 6.16 1.631 13.26-2.13 18.7-.09.13-.17.24-.25.38.03-.04.19-.24 0-.04s.02.01.06-.02c-.26.23-.17.14 0 .05-.15.07-.66.17-.22.11-.16.02-.94-.04-.51.03-1.02-.16-1.5-.46-2.15-1.19-.24-.27-.28-.33-.39-.72-.03-.12-.06-.24-.08-.36.01.07.03.33.04.05s-.02-.03-.03.03c.07-.24.1-.48.18-.71.28-.75.94-1.35 1.85-1.82s2.12-.66 3.27-.54c.991.11 2.341.75 3.271 1.5 2.56 2.05 4.06 5.26 5.18 8.27 3.06 8.221 3.69 17.222 1.73 25.772-.72 3.13 4.1 4.47 4.82 1.33z"/><path fill="#4C4C4C" d="M221.139 91.454c-1.25-.47-2.34.23-2.9 1.31-7.1 13.551-17.721 25.131-30.441 33.602-1.011.67-1.001 2.31-.28 3.17.85 1.02 2.16.96 3.17.28a95.5 95.5 0 0 0 26.301-26.211c2-2.98 3.8-6.07 5.46-9.25.56-1.08-.27-2.51-1.31-2.9"/><path fill="#4C4C4C" d="M227.409 82.824c-.12-.28-.29-.51-.52-.69-.2-.22-.44-.37-.72-.47-.56-.19-1.21-.22-1.75.06-.53.28-.93.69-1.15 1.24l-1.23 3q-.18.42-.12.87c-.02.31.05.6.19.88.12.28.29.51.52.69.2.22.44.37.72.47.56.19 1.21.22 1.75-.06.53-.28.93-.69 1.15-1.24l1.23-3q.18-.42.12-.87c.02-.31-.05-.6-.19-.88"/><path fill="#4C4C4C" d="M52.772 320.504c.49 1.25 1.74 1.57 2.92 1.26 14.8-3.89 30.511-3.86 45.342-.18 1.18.29 2.38-.82 2.53-1.93.18-1.31-.74-2.24-1.93-2.53-12.08-3-24.781-3.59-37.091-1.75-3.55.53-7.05 1.29-10.511 2.2-1.18.31-1.67 1.89-1.26 2.92z"/><path fill="#4C4C4C" d="M42.172 321.694c-.13.27-.18.56-.15.85-.03.29.02.57.14.85.24.54.66 1.04 1.23 1.25.56.2 1.13.22 1.7.01 1.02-.37 2.03-.75 3.05-1.12.29-.1.53-.27.73-.49.24-.19.41-.44.52-.73.13-.27.18-.56.15-.85.03-.29-.02-.57-.14-.85-.24-.54-.66-1.04-1.23-1.25-.56-.2-1.13-.22-1.7-.01-1.02.37-2.03.75-3.05 1.12-.29.1-.53.27-.73.49-.24.19-.41.44-.52.73"/><path fill="#4C4C4C" d="M6.41 249.581c-.19.24-.41.41-.68.53-.25.16-.52.25-.82.26-.59.03-1.22-.1-1.67-.51-.44-.4-.72-.9-.79-1.5-.14-1.071-.27-2.151-.41-3.221-.04-.3 0-.59.1-.87.06-.3.2-.57.41-.8.19-.24.41-.41.68-.53.25-.16.52-.25.82-.26.59-.03 1.22.1 1.67.51.44.4.72.9.79 1.5.14 1.07.27 2.15.41 3.221.04.3 0 .59-.1.87-.06.3-.2.57-.41.8"/><path fill="#4C4C4C" d="M172.777 109.245c-.14-.52-.55-1.091-1.03-1.351-.52-.28-1.16-.41-1.73-.23-.54.17-1.08.51-1.35 1.031l-1.8 3.6c-.27.54-.39 1.13-.23 1.73.14.52.55 1.09 1.03 1.35.52.28 1.16.41 1.73.23.54-.17 1.08-.51 1.35-1.03l1.8-3.6c.27-.54.39-1.13.23-1.73"/><path fill="#4C4C4C" d="M168.047 100.174c-.05-.54-.35-1.17-.79-1.5-.47-.36-1.07-.61-1.67-.52-.56.08-1.161.32-1.501.79l-2.4 3.241c-.36.49-.58 1.05-.52 1.67.05.54.35 1.17.79 1.5.47.36 1.07.61 1.67.52.56-.08 1.161-.32 1.501-.79l2.4-3.24c.36-.49.58-1.05.52-1.671"/><path fill="#4C4C4C" d="M280.931 104.795c-.05-.54-.35-1.17-.79-1.5-.47-.36-1.07-.61-1.67-.52-.56.08-1.16.32-1.5.79l-2.4 3.24c-.36.49-.58 1.05-.52 1.67.05.54.35 1.17.79 1.5.47.36 1.07.61 1.67.52.56-.08 1.16-.32 1.5-.79l2.4-3.24c.361-.49.58-1.05.52-1.67"/><path fill="#4C4C4C" d="M286.272 107.455c-.12-.53-.5-1.11-.98-1.39-.51-.3-1.14-.46-1.72-.3-.54.15-1.1.47-1.39.98-.65 1.17-1.3 2.35-1.951 3.52-.29.53-.44 1.12-.3 1.72.12.53.5 1.11.98 1.39.511.3 1.141.46 1.721.3.54-.15 1.1-.47 1.39-.98.65-1.17 1.3-2.35 1.95-3.52.29-.53.44-1.12.3-1.72"/><path fill="#FFB921" d="m174.677 75.644 6.26 6.61 8.221-3.91-4.361 7.99 6.261 6.61-8.951-1.67-4.35 8-1.17-9.03-8.95-1.67 8.22-3.91z"/><path fill="#4C4C4C" d="M177.757 101.775a2.494 2.494 0 0 1-2.48-2.17l-.94-7.22-7.16-1.33a2.51 2.51 0 0 1-2.02-2.13c-.14-1.07.43-2.12 1.4-2.58l6.58-3.131-.94-7.22c-.14-1.07.43-2.12 1.41-2.58s2.14-.25 2.89.54l5.01 5.29 6.581-3.13a2.499 2.499 0 0 1 3.27 3.45l-3.48 6.4 5.01 5.29c.74.79.9 1.96.38 2.91s-1.59 1.46-2.65 1.26l-7.161-1.34-3.48 6.401c-.44.81-1.29 1.3-2.19 1.3zm-2.1-14.24 1.38.26c1.07.2 1.88 1.06 2.02 2.13l.18 1.39.67-1.24c.52-.95 1.59-1.46 2.65-1.26l1.38.26-.97-1.02c-.74-.79-.9-1.96-.38-2.91l.67-1.24-1.27.6c-.98.46-2.14.25-2.89-.54l-.97-1.021.18 1.4c.14 1.07-.43 2.12-1.4 2.58l-1.27.6z"/><path fill="#4C4C4C" d="M290.532 146.396c.38-.38.68-1.01.66-1.56-.02-.59-.21-1.21-.66-1.62-.42-.38-.98-.69-1.56-.66l-4.02.21c-.61.03-1.18.22-1.62.66-.381.38-.681 1.01-.661 1.56.02.59.21 1.21.661 1.62.42.38.98.69 1.56.66l4.02-.21c.61-.03 1.18-.22 1.62-.66"/><path fill="#4C4C4C" d="M296.092 137.806c.44-.31.84-.88.92-1.431.09-.58 0-1.23-.37-1.71-.34-.45-.85-.85-1.43-.92-1.33-.16-2.66-.33-4-.49-.6-.07-1.2 0-1.71.37-.44.31-.84.88-.92 1.43-.09.58 0 1.23.37 1.71.34.45.85.851 1.43.921 1.33.16 2.66.33 4 .49.6.07 1.2 0 1.71-.37"/><path fill="#6DB5C3" d="m320.703 131.496-2.66 8.7 7.45 5.23-9.1.15-2.67 8.701-2.96-8.611-9.101.15 7.281-5.47-2.961-8.61 7.451 5.23z"/><path fill="#4C4C4C" d="M313.723 156.777c-1.07 0-2.02-.68-2.36-1.69l-2.37-6.891-7.281.12h-.04c-1.07 0-2.02-.68-2.36-1.69-.35-1.02 0-2.16.86-2.81l5.82-4.38-2.37-6.89c-.35-1.02 0-2.16.86-2.81.87-.65 2.05-.67 2.941-.05l5.96 4.18 5.82-4.38c.87-.65 2.05-.67 2.94-.05s1.27 1.74.96 2.78l-2.13 6.97 5.96 4.18c.89.62 1.27 1.74.96 2.78a2.51 2.51 0 0 1-2.35 1.77l-7.28.12-2.13 6.961a2.51 2.51 0 0 1-2.35 1.77h-.04zm-2.96-13.611c1.07 0 2.02.68 2.36 1.69l.46 1.33.41-1.34a2.51 2.51 0 0 1 2.35-1.77l1.41-.02-1.15-.81a2.51 2.51 0 0 1-.96-2.78l.41-1.35-1.12.85c-.87.65-2.05.67-2.94.05l-1.15-.81.46 1.33c.35 1.02 0 2.16-.86 2.81l-1.12.84 1.41-.02h.04z"/><path fill="#FFFBE8" d="m205.078 184.198-1.26 7.6 6.85 3.541-7.62 1.16-1.25 7.6-3.46-6.89-7.61 1.16 5.48-5.42-3.45-6.881 6.84 3.54z"/><path fill="#4C4C4C" d="M201.788 206.349c-.84 0-1.63-.47-2.02-1.25l-2.72-5.421-6 .911c-.98.15-1.92-.35-2.36-1.221-.44-.87-.26-1.93.43-2.62l4.32-4.26-2.72-5.42c-.44-.87-.26-1.93.43-2.62.7-.69 1.75-.85 2.62-.4l5.38 2.79 4.32-4.26a2.255 2.255 0 0 1 3.81 1.97l-.99 5.98 5.391 2.79c.87.45 1.35 1.41 1.19 2.37a2.25 2.25 0 0 1-1.89 1.86l-6.001.91-.99 5.981a2.25 2.25 0 0 1-1.89 1.86c-.11.02-.23.03-.34.03zm-3.45-11.401c.84 0 1.63.47 2.02 1.25l.34.68.12-.75c.16-.96.92-1.72 1.89-1.86l.75-.11-.67-.35a2.255 2.255 0 0 1-1.19-2.37l.12-.75-.54.53c-.7.69-1.75.85-2.62.4l-.67-.35.34.68c.44.87.26 1.93-.43 2.62l-.54.53.75-.11c.11-.02.23-.03.34-.03z"/><path fill="#6DB5C3" d="M287.162 97.504a9.56 9.56 0 0 0 9.56-9.56 9.56 9.56 0 0 0-9.56-9.56c-5.28 0-9.561 4.28-9.561 9.56s4.281 9.56 9.561 9.56"/><path fill="#4C4C4C" d="M287.162 99.994c-6.651 0-12.061-5.41-12.061-12.06s5.41-12.06 12.061-12.06 12.06 5.41 12.06 12.06-5.41 12.06-12.06 12.06m0-19.11c-3.89 0-7.061 3.17-7.061 7.06s3.171 7.06 7.061 7.06 7.06-3.17 7.06-7.06-3.17-7.06-7.06-7.06"/><path fill="#EE6DBB" d="M144.246 143.746a5.33 5.33 0 1 0 0-10.66 5.33 5.33 0 1 0 0 10.66"/><path fill="#4C4C4C" d="M144.246 146.236c-4.31 0-7.831-3.51-7.831-7.83s3.511-7.83 7.831-7.83 7.83 3.51 7.83 7.83-3.51 7.83-7.83 7.83m0-10.65c-1.56 0-2.83 1.27-2.83 2.83s1.27 2.83 2.83 2.83 2.83-1.27 2.83-2.83-1.27-2.83-2.83-2.83"/><path fill="#FFB921" d="M261.981 99.705a5.17 5.17 0 1 0 0-10.341 5.17 5.17 0 0 0 0 10.34"/><path fill="#4C4C4C" d="M261.981 102.205c-4.231 0-7.671-3.44-7.671-7.67s3.44-7.671 7.671-7.671 7.67 3.44 7.67 7.67-3.44 7.671-7.67 7.671m0-10.34c-1.47 0-2.67 1.2-2.67 2.67s1.2 2.67 2.67 2.67 2.67-1.2 2.67-2.67-1.2-2.67-2.67-2.67"/><path fill="#4C4C4C" d="M242.82 113.804c-.27-.85-.22-.45-.23-.57l-.03-.04h.02c2.34 1.671 5.97 4.301 8.31 6.041 3.42 2.65 7.691 5.39 10.191 8.99 2.53 3.17 1.77 7.21-2.88 6.97-4.741-.52-8.961-2.62-13.111-4.37-.79-.37-2.83-1.31-3.59-1.69-.72-.37-1.23-.53-1.69-.63.21 0 .64-.43.66-.63.07 1.5 1.04 3.42 1.91 5.12 1.01 2.06 2.44 3.85 3.2 6.061.64 1.64.1 4-1.98 4.52-1.78.45-3.31-.05-4.85-.48-2.24-.62-4.53-1.88-6.661-2.51.02 0 .2-.09.27-.21.08-.11.05-.14.04-.09-.04.12-.03.46.03.8.12.7.38 1.5.67 2.27.561 1.52-1.66 2.45-2.36.99-.97-1.9-2.38-5.78.69-6.631 1.46-.26 2.271.21 3.401.561 2.42.77 5.34 2.02 7.7 1.79-.05-.05-.41.31-.42.49-.02.17-.01-.05-.12-.3-.24-.63-.64-1.25-1.05-1.871-1.8-2.83-3.42-5.28-4.47-8.67-.23-.92-.42-2-.1-3.07.97-3.22 4.72-2.69 7.01-1.47.74.34 2.75 1.25 3.53 1.58 3.81 1.58 7.61 3.44 11.531 3.94.82.03.27-.1-.09.43-.22.3-.26.63-.25.73.02.2 0-.05-.12-.28-1.301-2.34-3.421-4.33-5.471-6.08-3.85-3.42-7.71-6.83-11.24-10.58l-.13-.14-.08-.08-.04-.05-.06-.071c-.02-.13.02.271-.25-.6-.11-1.38 1.96-1.6 2.12-.2"/><path fill="#BE7AEB" d="M229.799 64.823c-6.99-1.48-10.01-.59-17.35 5.09 3.8-8.47 3.95-11.61.87-18.06 6.99 1.48 10.01.59 17.35-5.09-3.8 8.47-3.95 11.61-.87 18.06"/><path fill="#4C4C4C" d="M212.459 72.423c-.55 0-1.09-.18-1.551-.54a2.52 2.52 0 0 1-.74-2.99c3.501-7.82 3.641-10.21.89-15.96-.41-.86-.3-1.88.291-2.62.59-.75 1.56-1.1 2.48-.9 6.24 1.32 8.53.63 15.3-4.62.91-.7 2.18-.7 3.08.01s1.2 1.94.74 2.99c-3.51 7.82-3.64 10.21-.89 15.96.41.86.3 1.88-.29 2.62-.59.75-1.54 1.1-2.48.9-6.24-1.32-8.53-.62-15.3 4.62-.45.35-.99.52-1.53.52zm4.79-17.47c.88 2.9.96 5.48.19 8.63 2.87-1.49 5.4-2.02 8.43-1.84-.88-2.9-.96-5.48-.19-8.62-2.87 1.49-5.4 2.02-8.43 1.84z"/><path fill="#D5C3EE" d="M254.6 64.373c-4.22-.89-6.05-.36-10.48 3.08 2.29-5.11 2.38-7.01.52-10.91 4.22.89 6.05.36 10.48-3.08-2.29 5.11-2.38 7.01-.52 10.91"/><path fill="#4C4C4C" d="M244.13 69.953c-.55 0-1.09-.18-1.55-.54-.9-.71-1.2-1.94-.74-2.99 2.1-4.69 1.99-5.79.55-8.81-.41-.86-.3-1.88.29-2.62.59-.75 1.56-1.09 2.48-.9 3.28.69 4.37.54 8.43-2.611.91-.7 2.18-.7 3.08.01s1.2 1.94.74 2.99c-2.1 4.69-1.99 5.78-.55 8.81.41.86.3 1.88-.29 2.62-.59.75-1.55 1.1-2.48.9-3.28-.69-4.36-.54-8.43 2.61-.45.35-.99.52-1.53.52zm4.15-10.56c.17.88.21 1.74.14 2.6.82-.27 1.66-.43 2.56-.47-.17-.88-.21-1.73-.14-2.6-.82.27-1.66.43-2.56.47"/><path fill="#4C4C4C" d="M53.012 289.872c-3.53-2.08-6.07-4.14-9.11-6.59-1.58-1.28-2.93-2.76-4.45-3.98-.06-.05-.13-.09-.2-.13l-1.2 3.37c8.05 8.54 17.8 14.941 28.44 19.351.34-.35.82-.58 1.31-.59.79 0 1.53-.04 2.26-.09 1.57-.56 3.16-1.12 4.78-1.69-7.66-2.42-15.03-5.631-21.84-9.651z"/><path fill="#4C4C4C" d="M129.415 246.611c-19.111-5.311-36.741-12.791-55.112-21.251-3.44-1.58-8.85-5.44-13.75-6.24l-1.18 3.32c4.42 2.45 8.85 4.76 13.81 7.09 5.84 2.75 12.15 6.01 18.45 8.65 28.332 11.861 57.833 18.881 88.044 21.781 1.21.12 2.4.22 3.56.31 3.281-1.23 6.471-2.44 9.561-3.61-7.841-.59-15.731-1.04-24.121-2.17-12.561-1.68-26.531-4.36-39.262-7.89z"/><path fill="#4C4C4C" d="M66.883 262.721c-3.52-2.46-7.16-5.52-10.36-8.4-1.671-1.5-3.251-3.3-4.831-4.68-.63-.55-1.33-.55-1.88-.26l-.72 2.04c.07.16.16.32.29.47 15.77 18.381 37.481 30.431 60.942 35.001 3.22-1.15 6.471-2.32 9.731-3.49-18.991-2.56-37.302-9.61-53.183-20.671z"/><path fill="#4C4C4C" d="M87.833 142.206c14.081 10.01 30.512 16.481 47.702 18.971-1.67-2.02-3.28-4.031-4.84-6.011a121.4 121.4 0 0 1-41.321-17.28l-1.53 4.32z"/><path fill="#4C4C4C" d="M100.894 196.979c28.501 12.95 61.003 18.681 92.134 22.431 3.26.39 6.52.74 9.74 1.07-2.55-1.64-5.14-3.36-7.75-5.151-4.96-.56-9.941-1.17-14.881-1.91-13.53-2.01-31.201-5.48-43.732-8.82-18.81-5.01-32.141-11-48.932-19.551-3.44-1.75-8.27-5.77-12.77-5.81l-.98 2.75c4.1 2.52 7.68 4.69 12.46 7.19 5.17 2.711 8.38 4.911 14.711 7.791z"/><path fill="#4C4C4C" d="M36.001 315.354c-2.28 0-4.48-.91-6.15-2.61-2.37-2.42-3.11-5.901-1.93-9.081l71.373-201.268 2.66 5.09c.22.43 22.861 43.372 60.182 78.643 24.131 22.811 63.223 47.182 74.774 48.722 1.8.24 2.56 1.501 2.67 2.511.23 2.25-1.7 3.51-8.001 6.41-4.11 1.89-10.19 4.44-18.08 7.57-13.681 5.43-33.152 12.781-57.863 21.821-43.322 15.861-91.724 32.931-116.725 41.692-.96.33-1.93.5-2.9.5zm64.243-200.659L32.611 305.403c-.51 1.37-.21 2.801.81 3.851 1.02 1.04 2.45 1.38 3.82.89 103.265-36.202 176.258-63.213 193.918-71.663-16.82-5.891-51.582-28.972-72.473-48.712-30.471-28.802-51.312-62.633-58.452-75.074z"/><path fill="#4C4C4C" d="M221.649 136.656c-.15-.87-.34-1.74-.61-2.58-.14-.43-.31-.85-.49-1.26-.27-.64-.52-1.36-.88-1.971l.32.771c-.19-.47-.38-.891-.66-1.301-.14-.2-.27-.39-.42-.58-.26-.36-.54-.71-.81-1.06-.1-.13-.21-.27-.33-.4-.17-.22-.35-.43-.52-.64-.15-.18-.29-.38-.46-.53l.02.02c-.32-.34-.7-.61-1.17-.73-.6-.17-1.4-.09-1.94.25-.54.35-1.01.86-1.16 1.5s-.12 1.37.25 1.93c.08.17.15.34.23.52l.15.361c.02.08.03.16.06.24.05.15.09.3.13.45.09.31.17.63.25.94.15.65.35 1.29.52 1.94.31 1.17.56 2.35.75 3.55.24 2.07.25 4.18 0 6.25-.3 1.91-.8 3.78-1.54 5.57.12-.27.23-.55.35-.82-.13.3-.25.59-.37.89-.66 1.53-1.49 2.98-2.48 4.32a21.5 21.5 0 0 1-3.161 3.161 23.3 23.3 0 0 1-4.45 2.59c-1.82.73-3.71 1.24-5.65 1.53-1.84.2-3.69.19-5.52-.03-.92-.14-1.83-.32-2.73-.57.24-.24.5-.48.72-.73 1.73-1.95 3.1-4.31 3.61-6.891.28-1.44.33-2.84.11-4.29-.18-1.17-.62-2.31-1.19-3.34-1.13-2.05-2.97-3.84-5.08-4.85-2.201-1.05-4.811-1.48-7.161-.6-1.3.49-2.48 1.22-3.44 2.24-.98 1.05-1.66 2.25-2.17 3.59-.91 2.42-.9 5.24-.06 7.67.93 2.701 2.64 4.981 4.73 6.901.46.43.96.82 1.45 1.2.07.06.15.1.22.16l.14.11c-.05-.04-.1-.07-.14-.11-2.46.93-5.05 1.43-7.65 1.79-.56.07-1.12.14-1.69.2l-.91.09c-.15.01-.3.03-.46.04-.12 0-.23.02-.35.04-.23.03-.27.04-.1.01q.195-.03 0 0c-1.22.08-2.43.17-3.65.24-.7.04-1.37.59-1.34 1.34.03.74.59 1.32 1.34 1.34 2.91.07 5.81.16 8.71-.08a27.2 27.2 0 0 0 8.99-2.3c.26-.12.51-.27.77-.4 3.271 1.63 6.931 2.5 10.581 2.63 5.06.19 10.27-1.03 14.63-3.62a23.9 23.9 0 0 0 6.831-6.11c.98-1.28 1.87-2.611 2.59-4.061.83-1.67 1.47-3.46 1.91-5.27.44-1.83.7-3.73.79-5.61.09-1.89-.1-3.77-.43-5.63zm-42.662 16.43c-.28-.7-.49-1.43-.61-2.17-.07-.66-.06-1.33 0-2 .11-.62.27-1.23.49-1.81.22-.48.49-.94.8-1.37q.42-.495.9-.9c.3-.21.62-.4.96-.56.35-.13.7-.22 1.06-.29.42-.04.85-.04 1.27 0 .51.09 1.01.23 1.5.41.62.28 1.21.63 1.761 1.03.53.44 1.01.92 1.45 1.45.37.51.7 1.06.96 1.63.2.51.34 1.03.44 1.57.07.69.06 1.39-.01 2.08-.14.85-.37 1.68-.69 2.471-.41.9-.92 1.75-1.51 2.54-.67.84-1.431 1.61-2.251 2.31-.93-.48-1.82-1.02-2.67-1.65-.93-.74-1.78-1.58-2.52-2.51a13.3 13.3 0 0 1-1.32-2.231z"/><path fill="#4C4C4C" d="m180.877 161.887-.1-.07c.1.08.2.16.31.24-.07-.05-.14-.11-.21-.16z"/><path fill="#4C4C4C" d="M216.859 157.147s-.05.06-.07.09c-.15.19-.29.38-.44.57z"/><path fill="#BE7AEB" d="m98.194 111.745-15.57 31.231c-.35.7-.28 1.54.19 2.17 0 3.27 34.461 49.532 54.772 65.653 15.62 12.4 32.631 22.871 48.742 34.571.1.07.2.13.31.19l15.61 7.64c.54.261 1.16.281 1.71.06l30.002-12.35c1.56-.64 1.75-2.77.34-3.68-32.482-20.901-65.383-43.162-91.824-71.603-15.381-16.541-27.571-35.872-40.712-54.172a2.082 2.082 0 0 0-3.56.29z"/><path fill="#4C4C4C" d="M203.158 255.921c-.69 0-1.38-.16-2.02-.47l-15.61-7.64a4.4 4.4 0 0 1-.691-.42c-6.25-4.541-12.76-8.981-19.07-13.271-9.911-6.75-20.161-13.741-29.752-21.351-12-9.53-27.331-27.931-35.401-38.051-1.92-2.411-17.68-22.281-20.03-28.372a4.61 4.61 0 0 1-.22-4.48l15.57-31.231c.72-1.45 2.12-2.4 3.74-2.53 1.63-.14 3.14.58 4.09 1.89 3.22 4.49 6.44 9.11 9.55 13.58 9.571 13.751 19.471 27.972 30.972 40.342 26.511 28.521 59.662 50.812 91.344 71.203 1.44.93 2.24 2.56 2.08 4.27a4.6 4.6 0 0 1-2.82 3.83l-30.002 12.351c-.56.23-1.15.35-1.75.35zM85.283 144.796c1.89 5.321 34.402 48.602 53.853 64.043 9.45 7.5 19.62 14.431 29.461 21.141 6.33 4.32 12.88 8.78 19.201 13.37l15.38 7.521 29.091-11.981c-31.751-20.451-64.912-42.832-91.633-71.573-11.741-12.63-21.741-27.001-31.412-40.891-2.97-4.271-6.04-8.671-9.1-12.961l-15.16 30.411c.17.28.27.59.32.92"/><path fill="#4C4C4C" d="M202.848 252.33c-35.761-22.371-80.823-51.242-103.734-86.883-3.36-5.22-6.63-10.761-9.65-15.861-1.58-2.66-3.15-5.83-4.46-7.87-1.31-2.03-4.551-.92-2.95 2.37 25.17 52.022 52.691 68.493 98.833 100.294 6.52 4.49 12.201 7.73 18.931 11.081 1.16.58 3.78-.04 4.2-.991"/><path fill="#4C4C4C" d="M18.08 331.794c-1.02 0-1.95-.62-2.32-1.58l-1.73-4.39-4.71.29c-1.07.05-2.08-.57-2.48-1.58s-.1-2.16.73-2.85l3.64-3.01-1.74-4.391c-.4-1.01-.1-2.16.73-2.85.84-.69 2.02-.76 2.93-.18l3.98 2.53 3.64-3.01a2.5 2.5 0 0 1 4.01 2.55l-1.18 4.571 3.98 2.53a2.496 2.496 0 0 1-1.19 4.6l-4.71.29-1.18 4.57a2.5 2.5 0 0 1-2.27 1.87h-.16zm-1.78-11c.51.13.96.42 1.3.82.28-.44.7-.79 1.19-.98-.33-.4-.53-.91-.57-1.43-.49.19-1.02.23-1.54.09.03.52-.1 1.05-.38 1.49z"/></svg>