<svg xmlns="http://www.w3.org/2000/svg" width="405" height="221" fill="none" viewBox="0 0 405 221"><path fill="#3F3F3F" d="M226.815 221c95.511 0 172.938-4.417 172.938-9.867 0-5.449-77.427-9.867-172.938-9.867s-172.938 4.418-172.938 9.867S131.304 221 226.815 221"/><path fill="#F1EFE4" d="m55.649 65.71-4.52.654c-.886.132-1.59-.174-2.102-.902-.514-.729-.58-1.49-.183-2.285l11.093-22.292q.362-.683 1.034-1.043c.447-.232.92-.29 1.416-.165s.91.38 1.233.778c.323.397.497.836.514 1.349l.223 12.044 5.852-.852c.944-.133 1.672.19 2.194.976.521.787.53 1.581.033 2.392L59.812 77.1a2.07 2.07 0 0 1-1.05.919c-.456.182-.936.19-1.433.041a2.14 2.14 0 0 1-1.175-.827 2.37 2.37 0 0 1-.447-1.317l-.042-10.206z"/><path fill="#fff" d="M16.164 142.188s9.784-4.114 16.73-5.124z"/><path fill="#F1EFE4" d="M15.535 140.681c5.57-2.384 11.026-4.528 17.06-5.662a2.069 2.069 0 1 1 .596 4.09c-5.513.745-11.158 2.632-16.414 4.585-1.979.712-3.146-2.119-1.242-3.013"/><path fill="#fff" d="M12.042 155.49s14.883-7.789 31.563-9.354z"/><path fill="#F1EFE4" d="M11.33 154.141c7.35-4.263 15.372-7.086 23.666-8.841 2.765-.604 5.587-.943 8.418-1.192a2.033 2.033 0 0 1 .381 4.048c-8.013.993-15.876 3.054-23.484 5.794a155 155 0 0 0-7.615 2.914c-1.73.695-2.964-1.763-1.366-2.723"/><path fill="#fff" d="M40.236 100.758s3.385-1.167 4.544-1.465z"/><path fill="#F1EFE4" d="m39.557 98.796 4.561-2.053c1.34-.604 2.905 0 3.51 1.333.77 1.647-.414 3.576-2.194 3.75l-4.528.877-.1.017c-2.416.438-3.46-2.914-1.25-3.932z"/><path fill="#fff" d="M48.696 86.612s-2.318-2.012-6.532-5.323z"/><path fill="#F1EFE4" d="M47.338 88.176c-2.674-.952-4.892-2.74-6.879-4.718a2.775 2.775 0 0 1 .075-3.998 2.79 2.79 0 0 1 3.336-.331c2.384 1.589 4.668 3.451 6.183 5.926 1.01 1.755-.86 3.866-2.715 3.13z"/><path fill="#423E3E" d="M74.787 143.819s61.247 2.88 73.92 2.88c13.294 0 2.549-50.312 2.549-50.312l-48.697-4.677-29.8 19.031-6.738 22.019 8.758 11.067z"/><path fill="#000" d="M148.707 148.769c-12.574 0-71.52-2.765-74.02-2.881l-.943-.041L63.72 133.19l7.276-23.79 31.049-19.825 50.917 4.892.314 1.481c.025.1 2.144 10.099 3.336 21.067 1.672 15.372.811 24.908-2.624 29.154-1.374 1.697-3.195 2.591-5.281 2.591zm-72.885-6.97c7.78.364 61.263 2.831 72.885 2.831.836 0 1.473-.323 2.061-1.06 1.498-1.854 3.725-7.715 1.73-26.075-.902-8.31-2.351-16.05-2.972-19.204l-46.454-4.462-28.558 18.236-6.192 20.256z"/><path fill="#423E3E" d="M308.649 146.774s61.122 4.834 73.787 5.239c13.286.423 3.469-57.323 3.469-57.323l-52.415-6.498-25.818 25.454-7.433 21.796 8.401 11.34z"/><path fill="#000" d="M382.585 154.083h-.207c-12.565-.405-71.387-5.041-73.887-5.24l-.935-.074-9.61-12.971 7.938-23.285 26.878-26.497 54.939 6.812.256 1.515c.828 4.867 7.839 47.82-.571 57.472-1.299 1.49-2.955 2.276-4.793 2.276zm-72.835-9.296c7.764.613 61.139 4.785 72.752 5.157.447.017 1.068-.066 1.755-.852 1.656-1.896 4.189-8.295 2.55-29.783-.753-9.901-2.136-19.205-2.69-22.764l-49.882-6.184-24.75 24.403-6.929 20.305 7.194 9.71z"/><path fill="#D5C3EE" d="m84.522 67.746 236.096-3.898-26.861-38.64-73.233-8.858-103.347 7.491z"/><path fill="#A17AD8" d="m84.555 67.092 94.233-3.154 6.415-46.934-64.4 4.652z"/><path fill="#000" d="m82.212 68.003 17.193-1.879 26.315-40.916h-13.783z"/><path fill="#000" d="m290.562 62.937-14.875-1.622-26.315-40.917h13.774z"/><path fill="#FFFBE8" d="M111.565 23.742s58.565-7.11 122.121-4.834 60.071 6.3 60.071 6.3-2.789-27.094-78.903-23.137c-76.105 3.948-89.689 5.48-103.289 21.68z"/><path fill="#7A42C8" d="M66.02 143.818h5.44s-6.283-39.923 37.919-47.381c0 0 39.129-2.624 34.32 46.049 0 0 113.164-8.493 169.329.149 0 0-2.202-48.822 40.395-48.64 0 0 40.528 10.115 31.165 49.277l2.55 1.962 11.92 1.465s8.393-19.866-2.74-46.107c-11.134-26.24-55.394-37.903-117.808-38.491-62.406-.588-169.495-2.98-199.477 7.185 0 0-36.537 59.442-13.02 74.541z"/><path fill="#D5C3EE" d="M74.159 94.647c1.811-5.526 1.565-10.568-.551-11.261-2.116-.694-5.3 3.224-7.11 8.75-1.812 5.525-1.565 10.567.55 11.26 2.116.694 5.3-3.223 7.11-8.75"/><path fill="#000" d="M66.054 105.667c-.58 0-1.051-.124-1.39-.273-.696-.29-1.64-.952-2.21-2.467a1.6 1.6 0 0 1 .934-2.069 1.6 1.6 0 0 1 2.07.935c.132.339.29.571.447.637.314.133 1.275-.165 2.616-1.523 1.506-1.531 3.004-3.932 4.114-6.589 1.895-4.536 2.168-8.484 1.473-10.032-.107-.232-.223-.39-.323-.423-.62-.207-1.067.009-1.754.39a6 6 0 0 1-.597.306 1.61 1.61 0 0 1-2.119-.82c-.356-.811 0-1.763.82-2.119.108-.05.223-.116.347-.182.82-.455 2.343-1.291 4.338-.62.679.231 1.606.786 2.219 2.143 1.208 2.674.645 7.616-1.433 12.599-1.283 3.07-2.98 5.769-4.792 7.607-1.954 1.987-3.576 2.508-4.752 2.508z"/><path fill="#D5C3EE" d="M391.956 100.215c2.321-2.321-.415-8.82-6.11-14.516s-12.195-8.432-14.516-6.111.414 8.82 6.11 14.516 12.195 8.432 14.516 6.111"/><path fill="#000" d="M110.836 27.715a2.076 2.076 0 0 1-2.044-1.746 2.067 2.067 0 0 1 1.713-2.368l.762-.124c20.371-3.386 44.749-4.991 61.611-5.736 43.665-1.93 74.284-.356 92.28 1.308 19.585 1.812 28.707 4.056 29.088 4.155a2.07 2.07 0 0 1-1.002 4.015c-.364-.091-37.258-9.015-120.184-5.34-16.746.745-40.95 2.335-61.114 5.687l-.787.133a2 2 0 0 1-.331.024z"/><path fill="#000" d="M289.519 64.162a2.08 2.08 0 0 1-1.763-.977c-9.205-14.8-24.486-38.963-26.315-40.784-.803-.803-.828-2.11-.033-2.922.795-.811 2.078-.852 2.897-.066 2.591 2.467 22.921 35.08 26.977 41.587a2.068 2.068 0 0 1-1.755 3.162z"/><path fill="#000" d="M275.389 63.459a2.07 2.07 0 0 1-1.813-1.06c-.19-.34-19.146-34.245-25.081-40.47a2.066 2.066 0 1 1 2.988-2.856c6.299 6.598 24.916 39.899 25.702 41.315a2.07 2.07 0 0 1-1.804 3.079z"/><path fill="#000" d="M329.5 75.56c5.811 3.287 13.808 11.929 15.504 18.477.745 2.773-3.286 3.782-3.882.968 0 .066 0 .025-.016 0-.017-.058-.116-.281-.141-.34-1.813-3.906-4.776-7.3-7.549-10.595-1.946-2.177-3.949-4.296-5.555-6.763-.678-1.043.563-2.35 1.631-1.738z"/><path fill="#000" d="M80.92 71.347c-.397 0-.794-.116-1.15-.356a2.066 2.066 0 0 1-.563-2.872l30.346-45.105c1.018-8.518 11.192-19.8 80.443-22.507 100.831-3.949 104.283 16.274 105.408 22.92.042.257.1.563.133.72l27.291 39.27a2.065 2.065 0 0 1-.521 2.88 2.066 2.066 0 0 1-2.881-.52l-27.382-39.403c-.456-.645-.58-1.39-.729-2.26-.447-2.607-1.366-8.037-13.584-12.673-16.24-6.158-45.709-8.451-87.586-6.812-34.352 1.35-75.509 5.778-76.536 19.254a2.1 2.1 0 0 1-.347 1.001L82.626 70.42a2.05 2.05 0 0 1-1.722.91z"/><path fill="#000" d="M99.397 68.193a2.074 2.074 0 0 1-1.78-3.137l25.421-42.307a2.073 2.073 0 0 1 2.839-.712c.977.588 1.3 1.862.712 2.84l-25.421 42.307a2.07 2.07 0 0 1-1.78 1.001z"/><path fill="#000" d="M178.416 63.351c-.116 0-.224-.008-.34-.025a2.08 2.08 0 0 1-1.705-2.384l6.755-40.552a2.072 2.072 0 1 1 4.089.679L180.46 61.62a2.07 2.07 0 0 1-2.036 1.73z"/><path fill="#000" d="M391.327 156.103c-1.027 0-2.111-.24-3.187-.729-3.047-1.374-6.184-4.851-6.333-9.544a2.08 2.08 0 0 1 2.003-2.136 2.09 2.09 0 0 1 2.136 2.004c.091 2.888 2.086 5.082 3.899 5.902.786.355 1.837.562 2.417.082 5.712-4.735 14.403-28.599.116-54.268-18.079-32.482-89.822-33.086-159.205-33.674-8.121-.066-16.523-.14-24.676-.265-69.45-1.043-118.934 5.132-126.922 7.765-6.142 2.028-10.695 15.777-15.099 29.079a578 578 0 0 1-2.144 6.415c-4.718 13.849-5.231 26.323-1.366 33.376 1.358 2.475 3.187 4.056 5.298 4.569a2.08 2.08 0 0 1 1.523 2.5 2.07 2.07 0 0 1-2.5 1.523c-3.27-.794-6.018-3.079-7.946-6.597-2.12-3.866-6.258-15.181 1.076-36.703.72-2.119 1.432-4.255 2.136-6.383 4.941-14.932 9.61-29.03 17.73-31.711 6.333-2.086 52.564-9.106 128.28-7.98 8.137.124 16.531.19 24.643.265 70.567.596 143.535 1.217 162.781 35.8 8.584 15.414 9.039 29.213 7.905 38.07-1.366 10.703-5.62 18.592-8.998 21.398-.985.819-2.226 1.233-3.576 1.233z"/><path fill="#000" d="M73.678 147.941c-.87 0-1.68-.555-1.962-1.424-1.44-4.371-2.79-9.047-2.152-13.923C72.66 108.978 88.75 94.31 111.565 94.31c20.462 0 34.212 15.495 34.212 38.557 0 2.972-1.002 8.063-1.54 10.794a2.09 2.09 0 0 1-2.434 1.648 2.057 2.057 0 0 1-1.63-2.418c.48-2.442 1.465-7.45 1.465-10.024 0-20.909-11.804-34.419-30.073-34.419-20.57 0-35.098 13.294-37.904 34.684-.521 4.006.638 8.005 1.978 12.085a2.077 2.077 0 0 1-1.961 2.724"/><path fill="#000" d="M374.899 139.935c4.063-15.996-3.955-31.836-17.908-35.38-13.954-3.543-28.558 6.551-32.621 22.547-4.062 15.996 3.956 31.836 17.909 35.379 13.953 3.544 28.558-6.551 32.62-22.546"/><path fill="#000" d="M347.984 165.274c-2.077 0-4.155-.256-6.208-.778-7.334-1.862-13.393-6.87-17.052-14.088-3.609-7.127-4.445-15.579-2.359-23.799 4.337-17.077 20.098-27.862 35.139-24.038 7.334 1.862 13.393 6.87 17.052 14.088 3.609 7.128 4.445 15.579 2.359 23.799s-6.854 15.247-13.435 19.792c-4.801 3.319-10.14 5.024-15.496 5.024m3.353-59.351c-11.117 0-21.696 8.808-24.966 21.688-1.837 7.251-1.117 14.676 2.037 20.918 3.112 6.142 8.211 10.38 14.378 11.953 6.159 1.564 12.673.273 18.335-3.643 5.753-3.973 9.933-10.156 11.771-17.408 1.838-7.251 1.118-14.676-2.036-20.917-3.113-6.142-8.212-10.381-14.379-11.953a21 21 0 0 0-5.14-.646z"/><path fill="#000" d="M132.518 142.13c4.062-15.996-3.956-31.836-17.909-35.379-13.953-3.544-28.558 6.55-32.62 22.546-4.063 15.996 3.955 31.836 17.908 35.38 13.954 3.543 28.558-6.551 32.621-22.547"/><path fill="#000" d="M105.53 167.451a25 25 0 0 1-6.15-.77c-15.04-3.816-23.749-20.818-19.411-37.895s20.098-27.863 35.139-24.038c15.04 3.816 23.748 20.818 19.411 37.895-3.75 14.751-16.026 24.808-28.989 24.808m3.419-59.343c-11.117 0-21.696 8.808-24.966 21.696-3.774 14.867 3.593 29.61 16.415 32.863 12.831 3.253 26.332-6.184 30.106-21.051s-3.592-29.609-16.415-32.862a21 21 0 0 0-5.14-.646"/><path fill="#A17AD8" d="M122.074 140.221c3.521-9.387-.263-19.486-8.452-22.558s-17.68 2.049-21.201 11.436.262 19.487 8.451 22.558 17.681-2.049 21.202-11.436"/><path fill="#000" d="M105.82 154.621a16.1 16.1 0 0 1-5.67-1.026c-4.528-1.697-8.021-5.29-9.826-10.124-1.771-4.727-1.713-10.091.166-15.099s5.364-9.089 9.809-11.481c4.536-2.45 9.536-2.864 14.064-1.159 4.528 1.697 8.021 5.29 9.825 10.124 1.772 4.727 1.714 10.09-.165 15.098s-5.364 9.089-9.809 11.482c-2.699 1.457-5.563 2.193-8.386 2.193zm2.864-35.776c-2.152 0-4.346.571-6.432 1.688-3.567 1.921-6.365 5.224-7.897 9.296-1.53 4.073-1.589 8.402-.165 12.193 1.382 3.692 4.015 6.424 7.408 7.699s7.169.943 10.646-.928c3.567-1.92 6.365-5.223 7.896-9.295 1.532-4.073 1.59-8.402.166-12.193-1.382-3.692-4.015-6.424-7.409-7.699a11.9 11.9 0 0 0-4.213-.761"/><path fill="#A17AD8" d="M364.657 138.314c3.521-9.388-.263-19.487-8.451-22.558s-17.681 2.048-21.202 11.435.263 19.487 8.451 22.558 17.681-2.048 21.202-11.435"/><path fill="#000" d="M348.365 152.701c-1.895 0-3.791-.331-5.629-1.018-9.246-3.469-13.575-14.784-9.66-25.222 1.879-5.008 5.364-9.089 9.809-11.482 4.537-2.45 9.536-2.855 14.064-1.158 9.246 3.468 13.576 14.784 9.66 25.222-3.137 8.36-10.628 13.666-18.236 13.666zm2.906-35.768c-2.153 0-4.346.571-6.432 1.689-3.568 1.92-6.366 5.223-7.897 9.295-3.112 8.303.132 17.226 7.243 19.892 7.111 2.665 15.421-1.921 18.534-10.223s-.133-17.226-7.243-19.891a11.8 11.8 0 0 0-4.214-.762z"/><path fill="#000" d="M383.877 147.833a2.2 2.2 0 0 1-.646-.099 2.07 2.07 0 0 1-1.325-2.608 39.4 39.4 0 0 0 1.929-12.259c0-20.289-15.247-36.803-33.98-36.803s-33.98 16.506-33.98 36.803c0 4.395.232 5.935 1.474 9.701a2.077 2.077 0 0 1-1.317 2.616 2.076 2.076 0 0 1-2.615-1.316c-1.383-4.205-1.681-6.159-1.681-11.001 0-22.573 17.102-40.942 38.119-40.942s38.119 18.369 38.119 40.942c0 4.644-.72 9.196-2.136 13.542a2.07 2.07 0 0 1-1.97 1.432z"/><path fill="#A17AD8" d="M142.201 143.289s1.506 11.63 9.163 11.903c2.732.099 45.792-4.089 103.149-4.089 30.039 0 52.82 3.874 52.82 3.874s7.822-6.871 8.054-11.755c0 0-8.957-5.041-65.386-5.016-55.419.025-107.792 5.083-107.792 5.083z"/><path fill="#000" d="M151.472 157.261h-.182c-9.305-.331-11.068-13.161-11.142-13.707a2.065 2.065 0 0 1 1.846-2.326c.521-.05 53.109-5.066 107.991-5.091h.48c54.955 0 64.963 4.743 65.923 5.281a2.07 2.07 0 0 1 1.052 1.895c-.265 5.596-7.889 12.45-8.758 13.212a2.09 2.09 0 0 1-1.714.488c-.223-.041-22.97-3.849-52.472-3.849-45.196 0-80.898 2.558-96.146 3.659-4.362.314-6.133.438-6.895.438zm-6.772-12.126c.762 2.922 2.649 7.839 6.747 7.988.463-.009 3.195-.183 6.63-.423 15.289-1.101 51.099-3.667 96.444-3.667 26.356 0 47.415 3.013 52.158 3.75 2.317-2.169 5.331-5.612 6.324-8.244-4.089-1.217-18.691-4.263-62.522-4.263h-.48c-48.184.024-94.606 3.907-105.301 4.867z"/><path fill="#A17AD8" d="M380.218 159.231c7.234.82 11.473 1.54 11.473 1.54s7.822-6.87 8.054-11.754c0 0-3.204-1.805-17.88-3.253l-1.656 13.467z"/><path fill="#000" d="M391.699 162.849c-.116 0-.232-.008-.348-.033-.041 0-4.279-.72-11.365-1.523a2.07 2.07 0 0 1-1.391-.778 2.08 2.08 0 0 1-.43-1.532l1.655-13.468a2.07 2.07 0 0 1 2.26-1.804c14.677 1.449 18.319 3.303 18.691 3.51a2.08 2.08 0 0 1 1.052 1.904c-.265 5.595-7.889 12.449-8.758 13.211a2.1 2.1 0 0 1-1.366.513m-9.172-5.43c4.156.496 7.078.927 8.51 1.159 2.309-2.169 5.322-5.604 6.316-8.237-1.846-.538-5.844-1.457-13.675-2.309z"/><path fill="#A17AD8" d="M74.787 149.679c-4.445.555-7.119.902-7.74.911-7.665.132-9.784-11.399-9.784-11.399s5.77-.869 15.504-2.135l2.012 12.623z"/><path fill="#000" d="M66.907 152.659c-9.164 0-11.581-12.557-11.68-13.095a2.06 2.06 0 0 1 1.722-2.418c.057-.008 5.901-.885 15.545-2.143a2.065 2.065 0 0 1 2.31 1.721l2.011 12.624a2.074 2.074 0 0 1-1.788 2.384l-.927.116c-4.718.596-6.382.794-7.036.811h-.182zm-7.053-11.754c.91 2.855 3.03 7.615 7.07 7.615h.09c.422 0 2.558-.273 5.397-.629l-1.357-8.526a949 949 0 0 0-11.192 1.54z"/><path fill="#000" d="M290.769 77.523c2.152 2.177 2.789 4.809 3.634 7.367.786 2.574 1.299 5.19 1.738 7.814 1.217 7.888 1.126 15.802.248 23.691-1.051 7.814-2.922 15.346-4.867 22.937a2.077 2.077 0 0 1-2.533 1.474 2.074 2.074 0 0 1-1.482-2.492c1.159-4.975 2.31-9.991 3.27-14.991 2.003-9.859 2.483-20.049 1.167-29.99-.38-2.459-.836-4.917-1.531-7.284-.613-2.335-1.722-4.578-2.144-6.929-.414-1.548 1.283-2.723 2.5-1.598"/><path fill="#F1EFE4" d="M2.067 129.774a2.06 2.06 0 0 1-1.664-.836 2.074 2.074 0 0 1 .44-2.897c7.002-5.174 13.086-8.162 18.086-9.61.108-1.805.712-3.345 1.821-4.578 3.675-4.106 12.044-4.048 23.625-3.965 1.688.008 3.443.025 5.248.025 8.203 0 16.29-11.498 23.434-21.638 1.465-2.086 2.988-4.247 4.462-6.242a2.075 2.075 0 0 1 2.897-.438 2.075 2.075 0 0 1 .439 2.897 288 288 0 0 0-4.404 6.167c-8.096 11.506-16.473 23.393-26.82 23.393-1.821 0-3.584-.017-5.281-.025-9.702-.066-18.079-.133-20.504 2.583a2.9 2.9 0 0 0-.546.894c3.468-.439 6.208-.017 8.137.951 2.02 1.01 3.178 2.633 3.195 4.47.016 1.855-1.167 3.535-3.237 4.611-3.17 1.647-5.736.985-7.334.141-2.11-1.118-3.659-3.154-4.462-5.124-4.263 1.308-9.718 3.965-16.29 8.824a2.07 2.07 0 0 1-1.225.406zm21.655-10.156c.496.927 1.274 1.87 2.26 2.392 1.067.563 2.21.513 3.493-.149.827-.431 1.01-.828 1.01-.902 0-.067-.166-.423-.91-.795-1.143-.571-3.097-.894-5.845-.538z"/><path fill="#000" d="M177.911 78.069c1.299 2.441 1.39 5.007 1.672 7.549q.374 3.813.637 7.64c.778 11.456.712 23.02-.24 34.468-.348 3.692-.828 7.79-1.391 11.432a2.067 2.067 0 1 1-4.097-.555c.497-4.983 1.01-9.966 1.208-14.974.298-5.008.398-10.024.365-15.041a290 290 0 0 0-.911-22.565c-.05-1.903-1.424-9.304 1.813-8.691a1.5 1.5 0 0 1 .952.745z"/><path fill="#000" d="M390.267 103.407c-3.932 0-9.172-2.749-14.039-7.6-3.03-3.02-5.414-6.373-6.722-9.42-2.11-4.916-.695-7.383.332-8.41 2.135-2.135 4.95-1.556 6.274-.877a2.065 2.065 0 0 1 .902 2.782 2.07 2.07 0 0 1-2.781.902c-.066-.033-.935-.414-1.465.116-.315.314-.422 1.597.546 3.857 1.093 2.541 3.22 5.505 5.844 8.12 5.571 5.563 10.794 7.161 12.276 6.134.844-.587-.083-3.212-1.117-4.842a2.064 2.064 0 0 1 .637-2.856 2.065 2.065 0 0 1 2.856.637c2.127 3.353 3.394 8.104-.025 10.472-.969.67-2.169.993-3.518.993z"/><path fill="#7A42C8" d="M250.283 72.696c6.953 0 12.59-4.228 12.59-9.444s-5.637-9.445-12.59-9.445-12.591 4.228-12.591 9.444 5.637 9.445 12.591 9.445"/><path fill="#000" d="M250.283 74.766c-8.088 0-14.66-5.165-14.66-11.514 0-6.35 6.581-11.515 14.66-11.515s14.659 5.166 14.659 11.515-6.58 11.514-14.659 11.514m0-18.89c-5.803 0-10.521 3.311-10.521 7.376 0 4.064 4.718 7.375 10.521 7.375 5.802 0 10.521-3.311 10.521-7.375 0-4.065-4.719-7.376-10.521-7.376"/><path fill="#000" d="M128.749 90.825c6.392 0 11.573-4.058 11.573-9.064s-5.181-9.064-11.573-9.064c-6.391 0-11.572 4.058-11.572 9.064s5.181 9.064 11.572 9.064"/><path fill="#000" d="M128.749 92.886c-7.524 0-13.641-4.992-13.641-11.134s6.117-11.133 13.641-11.133c7.525 0 13.642 4.991 13.642 11.133s-6.117 11.134-13.642 11.134m0-18.12c-5.239 0-9.502 3.137-9.502 6.994 0 3.858 4.263 6.995 9.502 6.995s9.503-3.137 9.503-6.995-4.263-6.994-9.503-6.994"/><path fill="#fff" d="M141.017 81.239c0 5.844-2.07 10.463-5.05 10.463s-3.12-12.731-3.12-12.731-.158-8.195 1.986-8.195c2.98 0 6.184 4.619 6.184 10.463"/><path fill="#000" d="M135.967 93.772c-3.335 0-5.082-4.975-5.19-14.784-.049-2.699.125-7.533 1.921-9.362.587-.596 1.341-.927 2.135-.927 4.479 0 8.253 5.736 8.253 12.532 0 7.384-2.93 12.533-7.119 12.533zm-.504-20.752c-.348 1.159-.596 3.65-.547 5.91.05 4.528.704 9.18 1.449 10.604 1.184-.58 2.582-3.634 2.582-8.294s-2.019-7.484-3.484-8.22"/><path fill="#FFFBE8" d="m60.317 96.04 18.716-17.565 23.526-1.573-.779 12.234-19.013 1.838-13.692 16.845z"/><path fill="#000" d="M69.075 109.888h-.041a2.07 2.07 0 0 1-1.614-.836l-8.758-11.787a2.06 2.06 0 0 1 .248-2.74l18.716-17.557a2.06 2.06 0 0 1 1.275-.555l23.525-1.573a2.08 2.08 0 0 1 1.598.596c.422.414.645 1.002.604 1.598l-.778 12.226a2.07 2.07 0 0 1-1.863 1.929l-18.16 1.763-13.146 16.175c-.397.48-.985.761-1.606.761M63.082 96.28l6.068 8.17 12.01-14.776a2.04 2.04 0 0 1 1.408-.753l17.267-1.672.513-8.112-20.429 1.365-16.837 15.794z"/><path fill="#000" d="m96.764 89.616.878-10.918 4.917-1.797-.646 10.182z"/><path fill="#000" d="M96.764 91.686c-.405 0-.811-.125-1.159-.356a2.08 2.08 0 0 1-.902-1.88l.877-10.926a2.06 2.06 0 0 1 1.358-1.78l4.917-1.788a2.05 2.05 0 0 1 1.945.29c.563.414.869 1.093.828 1.788l-.646 10.173a2.07 2.07 0 0 1-1.15 1.722l-5.149 2.533a2.1 2.1 0 0 1-.91.215zm2.831-11.498-.48 5.968.803-.397.373-5.828z"/><path fill="#000" d="M203.58 84.956h-11.341a3.715 3.715 0 0 1-3.708-3.717 3.71 3.71 0 0 1 3.708-3.708h11.341a3.713 3.713 0 0 1 3.708 3.708 3.72 3.72 0 0 1-3.708 3.717"/></svg>