<svg xmlns="http://www.w3.org/2000/svg" width="480" height="480" fill="none" viewBox="0 0 480 480">
  <path
    fill="#FFB921"
    d="M319.655 214.591a220 220 0 0 1-6.272.086c-20.083 0-44.91-2.513-70.769-7.199-28.623-5.186-55.13-12.421-74.64-20.371-12.225-4.982-20.73-9.813-25.479-14.45-2.564 40.11-8.374 130.908-8.468 131.642-.122.948-.225 6.013 9.792 12.842 13.336 9.094 37.728 16.983 72.5 23.448 84.286 15.673 93.242-.326 93.768-1.488l.015-.188.035.031 38.498-128.966c-6.07 2.69-15.747 4.237-28.98 4.613m-86.831 50.759-1.799 38.048a2.497 2.497 0 0 1-2.497 2.381q-.224 0-.447-.04l-24.862-4.513a2.504 2.504 0 0 1-1.883-3.368l13.952-35.762c-2.96-2.17-4.939-5.18-5.884-8.955A19 19 0 0 1 212 238.043q.506-.756 1.082-1.411c2.809-3.47 6.673-5.742 11.088-6.417 5.142-.785 10.193.572 14.214 3.825a18.22 18.22 0 0 1 6.715 13.056 18.125 18.125 0 0 1-12.275 18.254"
  />
  <path
    fill="#D69200"
    d="m181.394 155.489-.164-.001c-23.541 0-37.321 3.486-38.18 8.222-1.511 8.346 35.973 27.164 100.454 38.848 28.292 5.125 55.281 7.623 76.008 7.036 22.415-.638 31.081-4.798 31.692-8.167.61-3.371-6.045-10.307-26.811-18.769a212 212 0 0 0-4.339-1.706l-2.751 9.941c-.1.367-.284.704-.536.99-.346.391-3.091 3.197-10.531 3.197-1.781 0-3.83-.161-6.181-.554-8.989-1.502-14.196-7.775-14.414-8.042a2.5 2.5 0 0 1-.477-2.225l3.545-13.258c-11.852-3.159-24.663-6.015-37.959-8.424-13.404-2.429-25.812-4.153-37.092-5.296l-1.575 11.138a2.5 2.5 0 0 1-.731 1.439c-.202.197-5.072 4.819-15.716 3.926-9.218-.772-14.466-6.763-14.685-7.018a2.5 2.5 0 0 1-.59-1.903z"
  />
  <path
    fill="#000"
    d="M326.28 178.027c-1.579-.643-3.22-1.28-4.888-1.913l6.058-21.898a72.967 72.967 0 0 0-60.635-91.546c-19.691-2.654-39.139 2.632-54.774 14.89-15.633 12.257-25.41 29.886-27.53 49.632l-2.564 23.275c-2.52-.012-4.979.01-7.347.077-22.617.643-34.862 4.7-36.419 12.056l-.004.017c-.015.068-.034.133-.046.201a7.6 7.6 0 0 0-.115 1.53c-.878 13.739-8.777 137.305-8.948 139.312-.338 2.618.147 9.576 11.935 17.613 13.912 9.486 38.944 17.639 74.402 24.233 27.111 5.041 46.84 6.864 61.205 6.863 33.646-.001 37.838-10.004 38.342-12.072l40.76-136.547c.183-.464.323-.94.412-1.433.013-.073.018-.146.029-.218l.001-.014c1.111-7.431-8.931-15.524-29.874-24.058m-16.178 160.886-.015.188c-.526 1.162-9.482 17.161-93.768 1.489-34.771-6.466-59.164-14.355-72.5-23.449-10.017-6.829-9.914-11.894-9.792-12.841.094-.735 5.904-91.533 8.468-131.643 4.749 4.637 13.254 9.468 25.479 14.45 19.51 7.95 46.017 15.185 74.64 20.371 25.859 4.686 50.686 7.199 70.769 7.199 2.146 0 4.24-.028 6.272-.085 13.233-.377 22.91-1.924 28.98-4.614l-38.498 128.966zM266.147 67.625a67.96 67.96 0 0 1 47.581 29.826 67.96 67.96 0 0 1 8.902 55.438l-9.925 35.876c-1.059.636-4.407 2.068-11.825.829-5.254-.878-8.952-3.885-10.524-5.397l9.996-37.386a44.87 44.87 0 0 0-5.876-36.609A44.86 44.86 0 0 0 263.06 90.51c-12.106-1.634-24.071 1.619-33.687 9.156-9.616 7.54-15.628 18.383-16.921 30.446l-5.178 36.599c-1.328.873-4.863 2.624-11.221 2.09-5.406-.453-9.109-3.253-10.589-4.588l4.018-36.481c1.975-18.399 11.082-34.82 25.644-46.237 14.565-11.418 32.69-16.344 51.021-13.87M290 166.172c-11.99-3.195-24.936-6.083-38.36-8.515-12.834-2.326-25.41-4.11-37.283-5.324l3.056-21.604c1.158-10.794 6.501-20.429 15.045-27.128 8.545-6.698 19.177-9.586 29.934-8.136a39.86 39.86 0 0 1 27.916 17.499 39.88 39.88 0 0 1 5.218 32.543zm-109.049.594c.219.255 5.467 6.246 14.685 7.018 10.644.892 15.514-3.729 15.716-3.926.396-.386.653-.892.731-1.439l1.575-11.138c11.28 1.143 23.688 2.867 37.092 5.296 13.296 2.409 26.107 5.265 37.959 8.424l-3.545 13.257a2.5 2.5 0 0 0 .477 2.226c.218.267 5.425 6.54 14.414 8.042 2.351.393 4.4.554 6.181.554 7.44 0 10.185-2.806 10.531-3.197.252-.286.436-.624.536-.99l2.751-9.941c1.479.565 2.933 1.133 4.339 1.706 20.766 8.462 27.421 15.398 26.811 18.768-.611 3.37-9.277 7.53-31.692 8.167-20.727.588-47.716-1.91-76.007-7.035-64.482-11.684-101.966-30.502-100.455-38.848.859-4.736 14.639-8.222 38.18-8.222l.164.001-1.033 9.374a2.5 2.5 0 0 0 .59 1.903"
  />
  <path
    fill="#000"
    d="M223.148 418.326c47.427 0 85.875-5.711 85.875-12.756s-38.448-12.756-85.875-12.756-85.875 5.711-85.875 12.756 38.447 12.756 85.875 12.756"
  />
  <path
    fill="#000"
    d="M383.95 154.137c1.56-2.074-.736-4.981-3.134-3.896-5.558 2.708-10.233 6.618-14.985 10.468-3.565 3.19.795 8.63 4.684 5.822 4.778-3.817 9.599-7.546 13.435-12.394"
  />
  <path
    fill="#000"
    d="M385.575 213.848c-2.891-2.896-6.085-5.545-10.118-6.681-2.197-.638-4.247 1.933-3.077 3.941 2.871 4.725 7.619 7.954 12.704 9.917 2.273.786 4.407-1.895 3.077-3.942-.754-1.216-1.659-2.24-2.586-3.235"
  />
  <path
    fill="#000"
    d="M397.117 181.27c-4.009-.052-7.976.333-11.944.807-4.052.665-8.073.64-11.645 3.155-1.112.751-.89 2.597.387 3.051 2.112.823 4.129.9 6.121.772 3.973-.337 7.926-.823 11.851-1.533a64 64 0 0 0 5.859-1.292 2.525 2.525 0 0 0-.629-4.96"
  />
  <path
    fill="#FFB921"
    d="m189.482 127.732-4.018 36.481c1.48 1.335 5.183 4.135 10.589 4.589 6.358.533 9.893-1.218 11.221-2.091l5.178-36.599c1.293-12.063 7.305-22.906 16.921-30.446 9.616-7.537 21.581-10.79 33.687-9.156a44.86 44.86 0 0 1 31.416 19.692 44.87 44.87 0 0 1 5.876 36.609l-9.996 37.386c1.572 1.512 5.27 4.52 10.524 5.397 7.418 1.239 10.766-.193 11.825-.829l9.925-35.876a67.96 67.96 0 0 0-8.902-55.438 67.96 67.96 0 0 0-47.581-29.826c-18.331-2.474-36.456 2.452-51.021 13.87-14.562 11.417-23.669 27.838-25.644 46.237"
  />
  <path
    fill="#7A42C8"
    d="M236.982 239.606c-3.111-3.549-7.528-5.141-12.057-4.448-3.051.466-5.747 1.996-7.754 4.345a3.6 3.6 0 0 0-.714 1.324 13.97 13.97 0 0 0-.042 7.678c.718 2.555 2.091 4.562 4.08 5.963a5.23 5.23 0 0 1 1.893 6.022l-11.846 33.124 15.826 2.409 1.481-31.33c.008-.164.047-.633.047-.711 0-3.15 1.417-5.565 3.627-6.521.226-.149.48-.263.753-.333a13.1 13.1 0 0 0 7.123-4.652c1.022-2.948 1.043-6.315-.387-9.652a12.2 12.2 0 0 0-2.03-3.218"
  />
  <path
    fill="#000"
    d="M238.384 234.04c-4.021-3.253-9.072-4.61-14.214-3.825-4.415.675-8.279 2.948-11.088 6.417q-.576.655-1.082 1.411a19 19 0 0 0-2.596 15.098c.945 3.775 2.924 6.785 5.884 8.955l-13.952 35.762a2.503 2.503 0 0 0 1.883 3.368l24.862 4.514q.223.04.447.04a2.5 2.5 0 0 0 2.497-2.382l1.799-38.048a18.124 18.124 0 0 0 12.275-18.254 18.22 18.22 0 0 0-6.715-13.056m1.015 18.436a13.1 13.1 0 0 1-7.123 4.652c-.273.07-.527.184-.753.333-2.21.956-3.627 3.371-3.627 6.521 0 .078-.039.547-.047.711l-1.481 31.33-15.826-2.409 11.846-33.123a5.23 5.23 0 0 0-1.893-6.023c-1.989-1.401-3.362-3.408-4.08-5.963a13.97 13.97 0 0 1 .042-7.678c.141-.485.386-.94.714-1.324 2.007-2.349 4.703-3.879 7.754-4.345 4.529-.693 8.946.899 12.057 4.448a12.2 12.2 0 0 1 2.03 3.218c1.43 3.337 1.409 6.704.387 9.652"
  />
</svg>
