<svg xmlns="http://www.w3.org/2000/svg" width="480" height="480" fill="none" viewBox="0 0 480 480">
  <path
    fill="#423E3E"
    d="M147.113 277.284c2.456.085 4.755.16 6.839.222a19 19 0 0 1-.164-.992 5 5 0 0 1-.011-.367c.003-.076.026-.317.035-.363.526-2.675 1.609-8.178 1.609-10.996 0-22.94-12.954-37.763-33.002-37.763-22.575 0-38.51 14.583-41.587 38.058a17 17 0 0 0-.125 2.202c.713.29 1.262.923 1.391 1.735l.833 5.219.275.346 3.637.169c-.585-4.638-.329-9.537.917-14.445 4.758-18.736 22.053-30.572 38.556-26.38 16.501 4.191 26.054 22.845 21.296 41.581a39 39 0 0 1-.499 1.774"
  />
  <path
    fill="#423E3E"
    d="M416.768 278.666a2.275 2.275 0 0 1 2.477-1.984l.277.029a43.5 43.5 0 0 0 1.653-11.923c0-22.264-16.726-40.378-37.284-40.378-20.559 0-37.285 18.114-37.285 40.378 0 4.822.258 6.514 1.619 10.649.013.039.051.225.062.279q.045.231.042.461a9 9 0 0 1-.42 2.318l6.339.49c-2.133-6.619-2.342-13.926-.526-21.076 4.758-18.736 22.056-30.572 38.556-26.379 8.051 2.045 14.694 7.536 18.708 15.462 3.96 7.822 4.879 17.097 2.588 26.118a39.6 39.6 0 0 1-3.978 9.88c2.512.157 4.736.287 6.594.382z"
  />
  <path
    fill="#000"
    d="M248.879 361.497c104.801 0 189.759-4.847 189.759-10.826 0-5.98-84.958-10.827-189.759-10.827S59.12 344.691 59.12 350.671s84.958 10.826 189.759 10.826"
  />
  <path
    fill="#000"
    d="m56.106 191.818 4.963-.72.045 11.199q.021.787.488 1.441.466.653 1.294.905.827.25 1.575-.043a2.25 2.25 0 0 0 1.156-1.005l13.856-22.749q.83-1.33-.032-2.623t-2.41-1.068l-6.422.932-.244-13.217a2.37 2.37 0 0 0-.563-1.476 2.52 2.52 0 0 0-1.356-.849 2.12 2.12 0 0 0-1.555.179q-.734.386-1.136 1.142L53.6 188.323q-.648 1.302.2 2.505.849 1.201 2.307.99"
  />
  <path
    fill="#D5C3EE"
    d="m205.373 142.43-6.929 41.611c9.586-.106 19.726-.094 30.405.065 8.932.135 18.138.213 27.042.288l3.483.03c2.129-5.021 8.158-8.655 15.257-8.655 7.279 0 13.436 3.818 15.414 9.036q4.4.084 8.764.194c-4.769-8.439-20.49-35.948-26.073-41.874-17.454-1.005-39.789-1.503-67.363-.695"
  />
  <path
    fill="#D5C3EE"
    d="M293.283 144.708c7.04 10.288 22.369 34.863 26.205 41.028 9.856.468 19.456 1.119 28.659 2.04l-27.178-39.104c-2.622-.574-11.638-2.379-27.686-3.964"
  />
  <path
    fill="#A17AD8"
    d="M200.745 142.577c-3.531.12-7.136.258-10.833.422-14.202.63-33.28 1.819-51.432 4.024l-25.098 41.776c18.159-2.075 45.395-4.166 80.449-4.698z"
  />
  <path
    fill="#FFFBE8"
    d="M124.813 144.328c21.78-3.422 47.134-5.079 64.898-5.867 47.911-2.121 81.509-.393 101.257 1.431 14.433 1.334 23.679 2.883 28.326 3.79-.859-3.156-3.493-7.933-14.528-12.117-17.824-6.758-50.156-9.269-96.107-7.472-31.09 1.219-67.261 4.743-79.607 14.238q-.79.654-1.552 1.351c-1.427 1.422-2.349 2.967-2.687 4.646"
  />
  <path
    fill="#7A42C8"
    d="M432.943 230.622a5.5 5.5 0 0 1-.857.746c-1.066.738-2.378 1.092-3.859 1.092-4.315 0-10.068-3.012-15.403-8.339-3.323-3.317-5.943-6.99-7.378-10.339-2.015-4.699-1.1-7.354-.084-8.709-27.156-12.068-69.725-14.843-114.705-15.716-.625 6.519-7.565 11.677-16.026 11.677-8.631 0-15.676-5.369-16.051-12.076l-2.728-.023c-8.911-.075-18.125-.154-27.071-.288-76.207-1.144-130.505 5.633-139.267 8.524-3.138 1.035-5.898 4.863-8.44 10.13l4.104-3.85c.383-.36.879-.575 1.403-.61l25.811-1.723a2.26 2.26 0 0 1 1.755.657c.462.461.704 1.1.663 1.752l-.852 13.415a2.27 2.27 0 0 1-2.048 2.117l-19.924 1.933-14.426 17.747a2.27 2.27 0 0 1-1.762.839l-.05-.001a2.27 2.27 0 0 1-1.773-.917l-2.792-3.76-.28.297q-.154.463-.31.925c-4.383 12.86-5.443 24.629-3.096 32.638 2.232-.315 5.156-.719 8.677-1.187-.014-1.019.02-2.045.155-3.081 3.397-25.911 21.057-42.008 46.09-42.008 22.456 0 37.543 17 37.543 42.303 0 2.369-.579 5.96-1.123 8.899 5.233-.464 16.954-1.45 32.615-2.449.004-.056-.002-.11.006-.166.541-5.47 1.111-10.934 1.324-16.434.326-5.491.439-10.999.4-16.5a319 319 0 0 0-.998-24.756c-.051-2.092-1.565-10.213 1.989-9.535.465.114.837.423 1.048.814 1.428 2.679 1.525 5.491 1.831 8.28q.409 4.186.699 8.38c.854 12.572.781 25.255-.268 37.817a232 232 0 0 1-1.42 11.813c21.616-1.314 49.648-2.563 78.253-2.578h.528c17.469 0 30.792.437 40.94 1.071 1.168-5.024 2.311-10.083 3.28-15.129 2.2-10.814 2.727-21.997 1.278-32.907-.419-2.699-.917-5.392-1.676-7.99-.672-2.558-1.892-5.019-2.356-7.603-.455-1.703 1.409-2.991 2.742-1.755 2.364 2.388 3.064 5.276 3.987 8.08.859 2.821 1.428 5.693 1.91 8.57 1.336 8.652 1.238 17.341.275 25.996-1.053 7.848-2.863 15.437-4.803 23.058 11.742.887 18.505 2.038 22.304 2.948-.52-2.335-.662-4.455-.662-7.924 0-20.864 13.315-38.449 31.298-43.475-1.996-3.649-4.828-6.912-7.506-10.083-2.136-2.391-4.329-4.711-6.092-7.42-.749-1.143.616-2.581 1.791-1.903 5.848 3.303 13.69 11.541 16.395 18.423a39 39 0 0 1 5.94-.46c23.063 0 41.826 20.15 41.826 44.918 0 4.236-.553 8.403-1.63 12.428 4.885.597 8.328 1.219 10.711 1.764 4.534-9.822 7.445-28.298-1.855-48.357m-306.634-21.915c0-6.735 6.713-12.214 14.966-12.214 1.176 0 2.315.123 3.413.333.253-.565.558-1.052.924-1.426.641-.654 1.473-1.015 2.342-1.015 4.909 0 9.057 6.299 9.057 13.754 0 8.098-3.212 13.755-7.811 13.755-1.171 0-2.162-.564-2.974-1.675a18 18 0 0 1-4.951.702c-8.253 0-14.966-5.479-14.966-12.214m97.079 3.506h-12.445a4.08 4.08 0 0 1-4.073-4.074 4.077 4.077 0 0 1 4.073-4.073h12.445a4.08 4.08 0 0 1 4.074 4.073 4.08 4.08 0 0 1-4.074 4.074"
  />
  <path
    fill="#D5C3EE"
    d="M409.024 207.763c-.343.342-.467 1.752.596 4.23 1.195 2.79 3.532 6.038 6.413 8.914 6.111 6.102 11.843 7.853 13.47 6.726.909-.629-.05-3.416-1.158-5.209-4.237-5.956-10.291-10.831-17.805-14.828-.259-.1-1.019-.33-1.516.167"
  />
  <path
    fill="#000"
    d="M434.508 223.677a42 42 0 0 0-2.348-3.719 8 8 0 0 0-.179-.245c-4.555-6.355-10.943-11.548-18.814-15.792l-1.246-.654c-14.966-7.733-35.004-12.216-57.797-14.85l-29.829-42.918c-.044-.176-.101-.514-.149-.793-1.242-7.292-5.023-29.486-115.664-25.149-75.985 2.977-87.146 15.351-88.267 24.699L87.32 193.15c-6.096 2.57-10.389 11.139-14.287 21.695l-8.394 7.874a2.27 2.27 0 0 0-.269 3.009l3.386 4.559q-.404 1.217-.812 2.43c-4.077 4.103-8.276 6.884-12.5 6.884-1.984 0-3.907-.014-5.759-.028-12.7-.089-21.886-.157-25.92 4.353-1.213 1.357-1.88 3.04-1.994 5.022-5.49 1.589-12.166 4.87-19.849 10.545a2.27 2.27 0 1 0 2.697 3.652c7.214-5.326 13.195-8.246 17.875-9.681.883 2.164 2.574 4.397 4.893 5.624 1.752.927 4.57 1.653 8.046-.152 2.274-1.18 3.568-3.024 3.552-5.059-.015-2.009-1.293-3.795-3.506-4.901-2.115-1.059-5.12-1.526-8.925-1.042.169-.449.394-.755.597-.981 2.666-2.981 11.859-2.911 22.501-2.838 1.862.013 3.797.027 5.792.027 3.511 0 6.815-1.25 9.967-3.348-3.716 13.631-2.956 22.918-1.435 28.616l-.475.071a2.27 2.27 0 0 0-1.894 2.656c.108.59 2.758 14.367 12.811 14.367l.196-.002c.716-.012 2.543-.238 7.718-.889l1.018-.127a2.27 2.27 0 0 0 1.96-2.612l-.594-3.718 4 .185c2.834 10.991 10.617 19.824 21.34 22.548a27.4 27.4 0 0 0 6.745.843c12.306 0 24.04-8.257 29.647-20.96 3.611.128 6.924.236 9.783.315 1.571 4.193 4.717 9.248 10.782 9.464q.087.004.199.003c.84 0 2.782-.135 7.568-.479 16.728-1.2 55.903-4.01 105.496-4.01 32.37 0 57.324 4.18 57.572 4.223a2.27 2.27 0 0 0 1.88-.534c.618-.543 4.351-3.905 6.98-7.874 2.862.223 6.427.499 10.441.808.055.112.105.227.161.339 4.014 7.926 10.657 13.417 18.708 15.462 2.251.572 4.532.854 6.813.854 5.877 0 11.74-1.877 17.006-5.516 2.976-2.056 5.609-4.584 7.843-7.47 3.452.223 6.499.406 8.955.535l-.682 5.55a2.27 2.27 0 0 0 1.998 2.533c7.771.881 12.421 1.667 12.467 1.675q.19.032.381.032c.547 0 1.081-.198 1.498-.565.953-.837 9.32-8.357 9.609-14.501a2.27 2.27 0 0 0-1.154-2.085 6 6 0 0 0-.597-.277c1.782-3.988 3.291-9.02 4.029-14.806 1.239-9.719.74-24.855-8.676-41.771m-402.06 29.361c.817.407.995.799.996.875 0 .083-.193.52-1.104.993-1.408.732-2.66.787-3.83.168-1.075-.569-1.928-1.606-2.477-2.626 3.014-.392 5.166-.034 6.415.59m396.632 39.957c-1.573-.246-4.78-.72-9.341-1.268l1.265-10.297c8.593.932 12.978 1.937 15.006 2.531-1.087 2.884-4.393 6.654-6.93 9.034m-15.506-19.885c2.291-9.021 1.372-18.296-2.588-26.118-4.013-7.926-10.657-13.417-18.708-15.462-16.499-4.193-33.798 7.643-38.556 26.379-1.816 7.15-1.607 14.457.526 21.076l-6.339-.49a9 9 0 0 0 .42-2.318 2.3 2.3 0 0 0-.042-.461 6 6 0 0 0-.062-.279c-1.361-4.135-1.619-5.827-1.619-10.649 0-22.264 16.726-40.378 37.285-40.378s37.284 18.114 37.284 40.378a43.5 43.5 0 0 1-1.653 11.923l-.277-.029a2.275 2.275 0 0 0-2.477 1.984l-.578 4.706a601 601 0 0 1-6.594-.382 39.6 39.6 0 0 0 3.978-9.88m-240.12 13.436c-3.776.27-6.769.457-7.279.467-4.494-.16-6.564-5.559-7.398-8.762 11.74-1.049 62.672-5.311 115.544-5.337h.523c48.091 0 64.117 3.34 68.6 4.675-1.083 2.885-4.395 6.662-6.935 9.045-5.21-.807-28.314-4.111-57.233-4.111-49.756 0-89.044 2.819-105.822 4.023m-47.138-52.616c-16.503-4.193-33.798 7.643-38.556 26.379-1.246 4.908-1.502 9.807-.917 14.445l-3.637-.168-.275-.347-.833-5.218a2.25 2.25 0 0 0-1.391-1.736c0-.734.029-1.468.125-2.202 3.077-23.475 19.012-38.058 41.587-38.058 20.048 0 33.002 14.823 33.002 37.763 0 2.818-1.083 8.321-1.609 10.996a5 5 0 0 0-.035.364c-.002.079.005.322.011.366.011.085.061.445.164.992-2.084-.062-4.383-.137-6.839-.222.178-.585.347-1.175.499-1.774 4.758-18.736-4.795-37.389-21.296-41.58M65.68 273.605c2.473-.355 6.694-.95 12.282-1.688l1.493 9.356c-3.111.39-5.459.679-5.92.688l-.1.001c-4.432 0-6.76-5.227-7.755-8.357m358.407 3.61a48 48 0 0 0 1.63-12.427c0-24.768-18.763-44.919-41.826-44.919-2.017 0-3.999.163-5.94.461-2.705-6.883-10.547-15.12-16.395-18.424-1.175-.677-2.54.76-1.791 1.904 1.763 2.708 3.956 5.028 6.092 7.42 2.678 3.17 5.51 6.433 7.506 10.082-17.983 5.026-31.298 22.612-31.298 43.476 0 3.469.142 5.588.662 7.924-3.799-.911-10.562-2.061-22.304-2.949 1.94-7.621 3.75-15.21 4.803-23.058.963-8.654 1.061-17.344-.275-25.996-.482-2.877-1.051-5.748-1.91-8.57-.923-2.804-1.623-5.692-3.987-8.079-1.332-1.237-3.197.052-2.742 1.754.464 2.585 1.684 5.045 2.356 7.603.759 2.599 1.257 5.291 1.676 7.99 1.449 10.911.922 22.093-1.278 32.907-.969 5.047-2.112 10.105-3.28 15.13-10.148-.635-23.471-1.072-40.94-1.072h-.528c-28.605.015-56.637 1.264-78.253 2.578a232 232 0 0 0 1.42-11.812c1.049-12.563 1.122-25.245.268-37.818a299 299 0 0 0-.699-8.38c-.306-2.789-.403-5.601-1.831-8.28a1.63 1.63 0 0 0-1.048-.813c-3.554-.678-2.04 7.442-1.989 9.534.654 8.233.985 16.499.998 24.756.039 5.502-.074 11.01-.4 16.5-.213 5.5-.783 10.964-1.324 16.434-.008.056-.002.111-.006.166-15.661.999-27.382 1.985-32.615 2.45.544-2.939 1.123-6.531 1.123-8.899 0-25.303-15.087-42.304-37.543-42.304-25.033 0-42.693 16.097-46.09 42.009a21.5 21.5 0 0 0-.155 3.08c-3.521.469-6.445.872-8.677 1.187-2.347-8.009-1.287-19.778 3.097-32.638l.309-.925.28-.296 2.792 3.76a2.27 2.27 0 0 0 1.823.917c.683 0 1.33-.308 1.762-.838l14.426-17.748 19.924-1.933a2.27 2.27 0 0 0 2.048-2.116l.852-13.416a2.273 2.273 0 0 0-2.418-2.409l-25.811 1.724c-.524.034-1.02.25-1.403.609l-4.104 3.85c2.542-5.267 5.302-9.094 8.44-10.13 8.762-2.891 63.06-9.667 139.267-8.524 8.946.134 18.16.213 27.071.288l2.728.024c.375 6.706 7.42 12.076 16.051 12.076 8.461 0 15.401-5.158 16.026-11.678 44.98.873 87.549 3.648 114.705 15.716-1.016 1.355-1.931 4.01.084 8.71 1.435 3.349 4.055 7.021 7.378 10.338 5.335 5.327 11.088 8.34 15.403 8.34 1.481 0 2.793-.355 3.859-1.093.329-.227.605-.481.857-.745 9.3 20.059 6.389 38.534 1.855 48.356-2.383-.544-5.826-1.167-10.711-1.764m4.258-54.791c1.108 1.793 2.068 4.58 1.158 5.209-1.627 1.127-7.359-.624-13.47-6.726-2.881-2.876-5.218-6.124-6.413-8.914-1.063-2.478-.939-3.888-.596-4.23.497-.497 1.257-.267 1.516-.167 7.514 3.997 13.568 8.872 17.805 14.828m-155.609-79.299c5.583 5.926 21.304 33.435 26.073 41.874q-4.365-.11-8.764-.194c-1.978-5.218-8.135-9.036-15.414-9.036-7.099 0-13.128 3.634-15.257 8.655l-3.483-.03c-8.904-.075-18.11-.153-27.042-.288-10.679-.16-20.819-.171-30.405-.066l6.929-41.61c27.574-.808 49.909-.31 67.363.695m13.441 45.277c0 4.462-5.179 8.091-11.546 8.091s-11.546-3.629-11.546-8.091 5.18-8.092 11.546-8.092c6.367 0 11.546 3.631 11.546 8.092M138.48 147.023c18.152-2.205 37.231-3.394 51.432-4.024 3.697-.164 7.302-.302 10.833-.422l-6.914 41.524c-35.054.531-62.29 2.623-80.449 4.698zm181.008 38.713c-3.835-6.165-19.165-30.741-26.205-41.028 16.048 1.585 25.064 3.39 27.686 3.964l27.178 39.103c-9.203-.92-18.803-1.571-28.659-2.039M87.693 207.318l17.109-1.142-.727 9.08-13.471 1.307a2.27 2.27 0 0 0-1.543.828l-13.182 16.217-6.656-8.962zm41.358-68.986c12.347-9.495 48.518-13.019 79.608-14.237 45.951-1.798 78.283.713 96.107 7.471 11.035 4.184 13.669 8.961 14.528 12.117-4.647-.906-13.893-2.456-28.326-3.79-19.748-1.824-53.346-3.552-101.257-1.431-17.764.788-43.118 2.446-64.898 5.867.338-1.678 1.26-3.224 2.687-4.646q.698-.694 1.551-1.351"
  />
  <path
    fill="#D5C3EE"
    d="M131.829 272.063c1.676-4.467 1.739-9.218.181-13.379-1.519-4.051-4.404-7.051-8.127-8.447a13.1 13.1 0 0 0-4.623-.836c-2.364 0-4.77.623-7.054 1.855-3.911 2.109-6.987 5.73-8.663 10.197-1.675 4.467-1.739 9.218-.18 13.379 1.518 4.051 4.404 7.051 8.126 8.447 3.722 1.397 7.87 1.034 11.677-1.019 3.911-2.108 6.988-5.73 8.663-10.197"
  />
  <path
    fill="#D5C3EE"
    d="M398.006 269.968c3.417-9.109-.148-18.9-7.946-21.826a13.1 13.1 0 0 0-4.623-.836c-2.364 0-4.77.623-7.054 1.855-3.911 2.109-6.987 5.73-8.663 10.197-3.417 9.111.148 18.902 7.946 21.827 7.8 2.926 16.923-2.107 20.34-11.217"
  />
  <path
    fill="#A17AD8"
    d="M343.444 277.59c-4.483-1.335-20.509-4.675-68.6-4.675h-.523c-52.872.027-103.804 4.289-115.544 5.338.834 3.203 2.904 8.601 7.398 8.762.509-.01 3.503-.197 7.279-.468 16.778-1.203 56.066-4.022 105.822-4.022 28.919 0 52.023 3.304 57.233 4.111 2.54-2.383 5.852-6.16 6.935-9.046"
  />
  <path
    fill="#A17AD8"
    d="m421.004 281.429-1.265 10.297c4.561.548 7.768 1.022 9.341 1.268 2.537-2.38 5.843-6.15 6.93-9.034-2.028-.594-6.413-1.599-15.006-2.531"
  />
  <path
    fill="#A17AD8"
    d="m73.436 281.963.1-.001c.46-.009 2.808-.298 5.92-.688l-1.494-9.355a1083 1083 0 0 0-12.282 1.688c.996 3.129 3.323 8.356 7.756 8.356"
  />
  <path
    fill="#7A42C8"
    d="M274.631 180.311c-6.366 0-11.546 3.631-11.546 8.092s5.18 8.091 11.546 8.091c6.367 0 11.546-3.629 11.546-8.091s-5.179-8.092-11.546-8.092"
  />
  <path
    fill="#000"
    d="M146.226 220.219c.812 1.11 1.803 1.674 2.974 1.674 4.599 0 7.811-5.656 7.811-13.755 0-7.455-4.148-13.753-9.057-13.753-.869 0-1.701.36-2.342 1.014-.366.374-.671.862-.924 1.426a18 18 0 0 0-3.413-.333c-8.253 0-14.966 5.479-14.966 12.214s6.713 12.214 14.966 12.214c1.737 0 3.399-.255 4.951-.701m6.244-12.081c0 5.118-1.531 8.466-2.833 9.103-.819-1.562-1.538-6.663-1.593-11.634-.047-2.48.224-5.219.603-6.489 1.603.812 3.823 4.153 3.823 9.02"
  />
  <path
    fill="#fff"
    d="M148.044 205.609c.055 4.971.774 10.072 1.593 11.634 1.302-.637 2.833-3.985 2.833-9.102 0-4.867-2.221-8.209-3.823-9.021-.379 1.27-.65 4.009-.603 6.489"
  />
  <path
    fill="#000"
    d="M18.42 276.676c5.766-2.146 11.957-4.211 18.006-5.032a2.271 2.271 0 1 0-.652-4.494c-6.627 1.251-12.605 3.601-18.72 6.217-2.086.982-.803 4.086 1.365 3.309"
  />
  <path
    fill="#000"
    d="M47.644 277.127c-3.103.267-6.204.642-9.234 1.307-9.097 1.922-17.897 5.02-25.966 9.696-1.754 1.058-.404 3.755 1.494 2.992a173 173 0 0 1 8.358-3.196c8.343-3.004 16.97-5.265 25.765-6.357a2.23 2.23 0 0 0-.417-4.442"
  />
  <path
    fill="#000"
    d="m44.784 231.722.109-.022 4.972-.966c1.955-.185 3.252-2.309 2.408-4.112a2.913 2.913 0 0 0-3.85-1.465l-5.007 2.249c-2.425 1.116-1.287 4.795 1.368 4.316"
  />
  <path
    fill="#000"
    d="M51.951 215.746c2.028.807 4.08-1.51 2.976-3.431-1.66-2.708-4.167-4.76-6.78-6.499a3.05 3.05 0 0 0-3.657.366c-1.268 1.17-1.298 3.169-.082 4.388 2.176 2.171 4.614 4.128 7.543 5.176"
  />
  <path
    fill="#FFFBE8"
    d="m69.223 224.647 6.656 8.961 13.182-16.217a2.27 2.27 0 0 1 1.543-.827l13.471-1.307.727-9.08-17.109 1.142z"
  />
  <path
    fill="#000"
    d="M223.388 204.067h-12.445a4.08 4.08 0 0 0-4.073 4.073 4.08 4.08 0 0 0 4.073 4.074h12.445a4.08 4.08 0 0 0 4.074-4.074 4.08 4.08 0 0 0-4.074-4.073"
  />
</svg>
