<svg xmlns="http://www.w3.org/2000/svg" width="371" height="231" fill="none" viewBox="0 0 371 231"><path fill="#3F3F3F" d="M349.235 81.353c-32.328-10.248-88.22-25.047-153.401-29.886-14.708-1.094-27.679 9.615-29.506 24.25l-8.53 68.257c-1.791 14.31 7.671 27.598 21.772 30.601 22.143 4.713 56.407 11.822 91.748 18.48.009.027.018.045.027.072 10.909 26.105 36.878 35.612 36.878 35.612s-8.132-10.221-7.924-30.384c2.008.353 4.016.706 6.006 1.059 12.375 2.152 24.649-4.279 29.941-15.667l29.813-64.231c7.056-15.197-.85-33.107-16.815-38.163z"/><path fill="#3F3F3F" d="M308.214 231c-.262 0-.525-.045-.778-.136-1.085-.398-26.34-9.895-37.737-35.801-34.789-6.567-68.42-13.55-90.608-18.272-15.368-3.274-25.49-17.494-23.545-33.097l8.53-68.257c1.99-15.892 16.019-27.407 31.921-26.231 64.014 4.758 119.037 18.932 153.916 29.985a30.07 30.07 0 0 1 18.435 16.544 30.04 30.04 0 0 1-.244 24.73l-29.814 64.232c-5.708 12.292-19.023 19.257-32.374 16.942-1.112-.19-2.225-.389-3.337-.579.488 17.249 7.336 26.186 7.408 26.277.624.796.642 1.908.054 2.731a2.26 2.26 0 0 1-1.827.932M193.763 53.647c-12.709 0-23.582 9.489-25.192 22.351l-8.53 68.257c-1.655 13.242 6.938 25.327 20 28.104 22.423 4.767 56.524 11.84 91.693 18.47.769.145 1.402.67 1.682 1.393 7.155 17.132 21.221 26.929 29.353 31.406-2.325-5.264-4.858-13.704-4.74-25.3 0-.66.307-1.293.814-1.719a2.25 2.25 0 0 1 1.836-.488c2.008.353 4.007.706 6.006 1.049 11.343 1.972 22.65-3.953 27.498-14.391l29.814-64.231a25.47 25.47 0 0 0 .208-21.004 25.6 25.6 0 0 0-15.658-14.056C313.894 72.507 259.242 58.423 195.662 53.7a27 27 0 0 0-1.899-.072z"/><path fill="#A17AD8" d="M344.025 74.108c-32.329-10.249-88.22-25.047-153.401-29.886-14.708-1.095-27.679 9.615-29.506 24.25l-8.53 68.257c-1.791 14.31 7.67 27.598 21.772 30.601 22.143 4.712 56.407 11.822 91.748 18.479.009.028.018.046.027.073 10.908 26.105 36.878 35.611 36.878 35.611s-8.132-10.221-7.924-30.383c2.008.353 4.016.706 6.006 1.058 12.374 2.153 24.649-4.278 29.94-15.666l29.814-64.232c7.055-15.196-.85-33.106-16.815-38.162z"/><path fill="#000" d="M303.004 223.755c-.263 0-.525-.045-.778-.136-1.086-.398-26.349-9.895-37.738-35.801-34.797-6.576-68.419-13.55-90.607-18.272-15.368-3.266-25.49-17.494-23.536-33.097l8.529-68.257c1.99-15.893 16.002-27.398 31.913-26.231 64.023 4.757 119.037 18.932 153.916 29.985a30.08 30.08 0 0 1 18.435 16.544 30.04 30.04 0 0 1-.245 24.73l-29.813 64.232c-5.708 12.292-19.023 19.257-32.374 16.942-1.112-.19-2.225-.389-3.338-.579.489 17.249 7.336 26.186 7.409 26.277.624.796.642 1.908.054 2.731a2.26 2.26 0 0 1-1.827.932M188.552 46.402c-12.708 0-23.581 9.488-25.191 22.351l-8.53 68.257c-1.655 13.251 6.938 25.327 19.99 28.104 22.415 4.767 56.525 11.84 91.694 18.47.768.145 1.402.67 1.682 1.393 7.155 17.123 21.221 26.928 29.352 31.406-2.324-5.264-4.857-13.704-4.739-25.3 0-.66.307-1.294.814-1.719a2.25 2.25 0 0 1 1.836-.488c2.008.353 4.007.705 6.006 1.049 11.343 1.963 22.65-3.944 27.498-14.391l29.814-64.231a25.47 25.47 0 0 0 .208-21.004 25.6 25.6 0 0 0-15.658-14.056c-34.644-10.981-89.296-25.065-152.885-29.787a27 27 0 0 0-1.9-.072z"/><path fill="#A17AD8" d="M344.025 74.108c-32.329-10.249-88.22-25.047-153.401-29.886-14.708-1.095-27.679 9.615-29.506 24.25l-8.53 68.257c-1.791 14.31 7.67 27.598 21.772 30.601 22.143 4.712 56.407 11.822 91.748 18.479.009.028.018.046.027.073 10.908 26.105 36.878 35.611 36.878 35.611s-8.132-10.221-7.924-30.383c2.008.353 4.016.706 6.006 1.058 12.374 2.153 24.649-4.278 29.94-15.666l29.814-64.232c7.055-15.196-.85-33.106-16.815-38.162z"/><path fill="#000" d="M303.004 223.755c-.263 0-.525-.045-.778-.136-1.086-.398-26.349-9.895-37.738-35.801-34.797-6.576-68.419-13.55-90.607-18.272-15.368-3.266-25.49-17.494-23.536-33.097l8.529-68.257c1.99-15.893 16.002-27.398 31.913-26.231 64.023 4.757 119.037 18.932 153.916 29.985a30.08 30.08 0 0 1 18.435 16.544 30.04 30.04 0 0 1-.245 24.73l-29.813 64.232c-5.708 12.292-19.023 19.257-32.374 16.942-1.112-.19-2.225-.389-3.338-.579.489 17.249 7.336 26.186 7.409 26.277.624.796.642 1.908.054 2.731a2.26 2.26 0 0 1-1.827.932M188.552 46.402c-12.708 0-23.581 9.488-25.191 22.351l-8.53 68.257c-1.655 13.251 6.938 25.327 19.99 28.104 22.415 4.767 56.525 11.84 91.694 18.47.768.145 1.402.67 1.682 1.393 7.155 17.123 21.221 26.928 29.352 31.406-2.324-5.264-4.857-13.704-4.739-25.3 0-.66.307-1.294.814-1.719a2.25 2.25 0 0 1 1.836-.488c2.008.353 4.007.705 6.006 1.049 11.343 1.963 22.65-3.944 27.498-14.391l29.814-64.231a25.47 25.47 0 0 0 .208-21.004 25.6 25.6 0 0 0-15.658-14.056c-34.644-10.981-89.296-25.065-152.885-29.787a27 27 0 0 0-1.9-.072z"/><path fill="#3F3F3F" d="m161.118 68.473-8.53 68.256a27.6 27.6 0 0 0 1.312 12.51c32.744-14.545 54.082-42.26 51.775-72.327-.913-11.967-5.481-22.985-12.817-32.518-.742-.055-1.483-.118-2.225-.181-14.708-1.095-27.679 9.615-29.506 24.25z"/><path fill="#3F3F3F" d="M153.89 151.5c-.307 0-.615-.063-.904-.19a2.26 2.26 0 0 1-1.239-1.339 29.7 29.7 0 0 1-1.411-13.522l8.529-68.257c1.99-15.893 16.029-27.408 31.913-26.232l2.234.181c.642.046 1.23.371 1.619.878 7.878 10.239 12.347 21.582 13.279 33.72 2.297 29.95-18.553 59.221-53.106 74.571a2.3 2.3 0 0 1-.914.19m9.471-82.747-8.53 68.256a25.3 25.3 0 0 0 .498 9.082c31.378-14.816 50.184-41.672 48.085-69.007-.841-10.936-4.794-21.194-11.75-30.52l-1.203-.1c-13.505-1.012-25.409 8.784-27.091 22.28z"/><path fill="#D5C3EE" d="M200.411 72.48C197.236 31.052 150.39.867 95.783 5.055S-.514 46.221 2.66 87.65c1.918 25.038 19.8 45.969 45.698 57.691C45.355 166.67 32.7 176.702 32.7 176.702c23.039-2.216 38.715-15.178 41.79-23.283 10.375 1.9 21.42 2.524 32.79 1.655 54.607-4.188 96.297-41.165 93.122-82.593z"/><path fill="#000" d="M32.7 178.953a2.265 2.265 0 0 1-1.41-4.034c.026-.018 3.03-2.46 6.349-7.354 2.886-4.26 6.576-11.271 8.213-20.904C19.214 134.079 2.262 112.18.39 87.811-1.202 67.053 7.907 46.765 26.034 30.69 43.989 14.761 68.692 4.856 95.593 2.794s52.825 3.962 72.996 16.96c20.37 13.125 32.464 31.786 34.056 52.545 1.592 20.76-7.517 41.048-25.644 57.122-17.955 15.928-42.658 25.833-69.559 27.896-10.71.823-21.338.361-31.64-1.375-2.334 4.432-7.246 9.262-13.532 13.224-5.934 3.736-15.839 8.476-29.37 9.769-.073 0-.145.009-.218.009zM105.941 6.919c-3.311 0-6.64.126-9.995.389-25.924 1.99-49.678 11.496-66.9 26.765C11.996 49.188 3.429 68.156 4.904 87.468c1.773 23.174 18.37 44.033 44.376 55.801a2.28 2.28 0 0 1 1.312 2.379c-1.918 13.586-7.562 22.758-11.714 27.878 19.394-3.745 31.261-15.015 33.495-20.913a2.27 2.27 0 0 1 2.524-1.42c10.447 1.917 21.293 2.46 32.211 1.619 25.924-1.99 49.677-11.497 66.899-26.765 17.051-15.115 25.617-34.083 24.134-53.395s-12.845-36.752-31.994-49.09C149.295 12.708 128.22 6.928 105.932 6.928z"/><path fill="#000" d="M48.376 51.458c2.786-2.27 5.988-2.985 9.244-3.989 3.184-.94 6.395-1.79 9.634-2.523a163 163 0 0 1 6.476-1.403c22.659-4.504 46.141-5.101 69.107-2.921 3.166.38 6.721.588 9.769 1.673a1.904 1.904 0 0 1-.389 3.69c-3.763.49-7.716-.216-11.442-.533-3.058-.172-8.286-.497-11.316-.633-2.008-.036-7.616-.127-9.706-.154l-6.467.145c-15.052.407-30.14 2.134-44.838 5.355a153 153 0 0 0-9.371 2.342c-3.121.815-6.079 2.09-9.371 2.171-1.746.181-2.732-2.098-1.33-3.22"/><path fill="#000" d="M230.921 148.524c19.972 1.429 39.682 5.301 58.849 11.017a188 188 0 0 1 18.815 6.784 1.564 1.564 0 0 1 .832 2.036 1.556 1.556 0 0 1-1.836.895c-15.812-4.097-31.985-8.159-47.986-11.469-9.344-1.909-19.737-3.953-29.063-5.563-2.297-.389-1.963-3.79.398-3.691z"/><path fill="#000" d="M215.68 127.611c8.629.054 17.104 1.077 25.598 2.388 16.888 2.705 33.622 6.332 50.093 10.936 8.25 2.225 16.391 4.857 24.477 7.589a1.798 1.798 0 0 1-1.085 3.428l-6.133-1.691c-22.423-6.26-45.209-11.289-68.202-14.979-7.291-1.194-17.847-2.859-25.02-4.125-2.116-.353-1.926-3.51.272-3.537z"/><path fill="#000" d="M76.589 65.135c7.172-3.12 14.906-4.17 22.54-5.355 22.958-3.084 46.539-2.008 69.144 2.976a1.77 1.77 0 0 1 1.365 2.08 1.767 1.767 0 0 1-1.99 1.384c-3.78-.416-7.534-.995-11.306-1.356-18.788-2.171-37.792-2.398-56.57-.109-7.544.742-14.952 2.614-22.541 3.057-1.52.109-2.08-2.062-.652-2.668z"/><path fill="#000" d="M141.335 78.459c7.662-.824 15.351.434 22.732 2.46a1.89 1.89 0 0 1 1.275 2.352 1.9 1.9 0 0 1-2.09 1.338c-3.663-.497-7.299-1.022-10.963-1.438-3.238-.38-7.86-.823-11.017-1.384-1.881-.325-1.809-3.075.063-3.328"/><path fill="#fff" d="M2.642 14.743s9.046-8.494 16.246-12.429z"/><path fill="#F1EFE4" d="M1.421 13.44C6.55 8.574 11.661 4.015 17.802.324c2.605-1.447 4.83 2.325 2.289 3.899-2.876 1.51-5.68 3.42-8.412 5.445a130 130 0 0 0-7.843 6.377C2.1 17.538-.207 15.05 1.412 13.431z"/><path fill="#fff" d="M3.538 30.997S16.68 16.398 34.319 7.887z"/><path fill="#F1EFE4" d="M2.299 29.885c6.34-7.626 13.975-13.975 22.342-19.267 2.777-1.79 5.726-3.31 8.72-4.73a2.224 2.224 0 0 1 2.957 1.049 2.225 2.225 0 0 1-1.03 2.948c-8.404 4.351-16.192 9.824-23.41 15.948a172 172 0 0 0-7.146 6.322c-1.51 1.384-3.718-.678-2.433-2.27"/><path fill="#F1EFE4" d="M346.385 193.462a5.14 5.14 0 0 1 2.805-.543c1.004.09 2.008.434 3.003 1.04q1.494.91 2.297 2.198c.534.86.805 1.773.796 2.75q0 1.465-.868 2.877c-.579.94-1.303 1.637-2.162 2.08q-1.3.664-2.804.543c-1.004-.091-2.008-.435-3.003-1.041s-1.764-1.338-2.298-2.198c-.533-.859-.805-1.772-.796-2.749q0-1.465.869-2.877c.579-.941 1.293-1.637 2.161-2.08m9.39-17.847c.651-1.058 1.438-1.8 2.37-2.207q1.394-.61 2.966-.353c1.041.172 2.081.579 3.121 1.212 1.61.986 2.696 2.189 3.265 3.619.57 1.429.353 2.957-.633 4.577a10 10 0 0 1-1.492 1.854l-9.154 9.244-5.5-3.365 4.179-12.663a8.8 8.8 0 0 1 .878-1.927z"/></svg>