<svg xmlns="http://www.w3.org/2000/svg" width="451" height="479" fill="none" viewBox="0 0 451 479"><path fill="#04663A" d="M304.45 287.453c-.89-.23-7.36 2.7-10.75 4.87 12.33 16.66 2.84 15.61-3.29 14.3l-.02.02c-.08-.02-.15-.05-.23-.07s-.16-.03-.23-.05c-.12-.03-.23-.07-.34-.13-5.84-1.89-10.2-7.82-7.94-13.06 1.7-3.95 4.35-5.87 5.93-8.5.43-.72-.01-1.66-.91-1.88-5.07-1.25-7.61-1.87-12.69-3.07-.59-.14-1.2.09-1.49.57-2.48 4.23-7.76 6.87-12.75 4.96-4.35-1.67-6.59-4.15-9.54-5.64-.81-.41-1.79 0-1.97.81-3.33 15.15-6.65 30.3-9.98 45.45-.15.68-.85 1.1-1.57.95-15.1-3.24-30.22-6.29-45.39-9.15-.94-.17-1.74.63-1.52 1.52.58 2.29 1.46 4.66 1.39 7.93-.13 5.82-6.58 9.49-12.56 8.67 0 0 0 .01-.01.02-.08-.01-.15-.04-.22-.05-1.05 5.89-1.57 8.84-2.62 14.74-.14.81-1.03 1.25-1.8.92-3.05-1.29-5.26-3.82-9.68-5.27-5.58-1.83-11.23 2.56-12.53 8.09-.04.1-.07.21-.09.32-.01.07-.01.15-.02.22s-.03.14-.05.22c0 0 .01 0 .02.01-.68 5.76 3.25 11.9 9.15 11.99 4.63.07 7.45-1.62 10.77-1.77.83-.04 1.5.68 1.35 1.48l-3.05 17.18c-.12.68.34 1.34 1.02 1.46 40.15 7.36 79.86 16.33 119.28 26.95.67.18 1.37-.21 1.55-.88 10.78-39.19 21.57-78.38 32.35-117.58.18-.67-.26-1.38-1-1.58-7.42-2.03-11.14-3.03-18.58-4.96z"/><path fill="#4C4C4C" d="M290.46 414.993c-.33 0-.66-.04-1-.13a1499 1499 0 0 0-119.07-26.9 3.757 3.757 0 0 1-3.03-4.36l2.76-15.54c-.68.13-1.38.31-2.14.51-2 .52-4.29 1.09-7.26 1.07-3.14-.05-6.08-1.45-8.26-3.94-2.46-2.81-3.71-6.71-3.37-10.48 0-.16 0-.31.03-.47.01-.08.03-.15.04-.22 0-.06.01-.14.03-.22.04-.22.09-.43.16-.65.91-3.67 3.38-6.94 6.64-8.76 2.87-1.61 6.08-1.96 9.07-.98 2.92.96 4.94 2.3 6.72 3.49.64.43 1.23.82 1.81 1.16l2.33-13.11c.12-.67.5-1.25 1.06-1.63.54-.36 1.2-.5 1.83-.39.05 0 .1 0 .14.02 2.75.38 5.66-.42 7.6-2.09.94-.8 2.07-2.17 2.11-4.16.05-2.27-.43-4.02-.94-5.88-.13-.47-.26-.93-.37-1.39-.31-1.23.02-2.53.89-3.45.89-.95 2.2-1.38 3.5-1.13 14.74 2.78 29.65 5.78 44.33 8.92l9.72-44.24c.25-1.12 1-2.06 2.05-2.56 1.1-.52 2.4-.5 3.49.06 1.32.67 2.49 1.49 3.62 2.29 1.64 1.15 3.33 2.34 5.69 3.25 3.93 1.51 7.93-.88 9.7-3.89.85-1.44 2.55-2.13 4.22-1.74 5.09 1.21 7.63 1.83 12.71 3.08 1.21.3 2.22 1.15 2.69 2.28.46 1.09.37 2.3-.24 3.31-.71 1.19-1.58 2.21-2.42 3.21-1.21 1.43-2.46 2.91-3.36 5-.74 1.71-.32 3.33.16 4.4 1.07 2.37 3.47 4.4 6.25 5.3.08.03.16.05.23.09.04 0 .09.02.15.03h.04c.05 0 .1.02.15.03 5.23 1.12 6.16.38 6.25.3 0 0 .9-2.03-5.49-10.66-.41-.56-.57-1.26-.45-1.94s.53-1.28 1.11-1.65c.09-.06 9.9-5.9 12.73-5.18 7.45 1.94 11.1 2.91 18.61 4.97.96.26 1.77.86 2.3 1.69.56.89.72 1.97.45 2.96l-32.35 117.58a3.766 3.766 0 0 1-3.63 2.76zm.31-4.96h.01zm-118.27-26.77a1502 1502 0 0 1 117.09 26.45l31.69-115.19c-6.63-1.81-10.25-2.78-17.03-4.54-1.1.31-4.19 1.64-6.93 3.11 4.67 6.79 5.91 11.18 4.04 14.09-2.1 3.27-6.78 2.85-11.16 1.94-.14-.01-.29-.03-.43-.07-.08-.02-.15-.04-.23-.07-.08-.02-.16-.03-.23-.05a4 4 0 0 1-.63-.21c-4.09-1.36-7.5-4.33-9.14-7.95-1.27-2.8-1.33-5.8-.19-8.44 1.19-2.77 2.75-4.61 4.13-6.24.33-.4.65-.77.94-1.13-3.79-.93-6.23-1.52-10.26-2.48-3.06 4.5-9.09 7.63-15.31 5.25-2.94-1.13-4.98-2.56-6.77-3.83-.62-.44-1.19-.84-1.76-1.2l-9.63 43.84c-.45 2.02-2.49 3.3-4.54 2.85-14.37-3.09-28.98-6.04-43.43-8.78.51 1.87 1.01 3.99.95 6.69-.07 3-1.44 5.79-3.87 7.85-2.52 2.15-5.9 3.35-9.36 3.37l-2.23 12.53c-.2 1.12-.89 2.08-1.9 2.63a3.84 3.84 0 0 1-3.34.16c-1.48-.62-2.75-1.47-3.98-2.29-1.59-1.06-3.24-2.16-5.5-2.9-2.09-.69-3.91-.06-5.06.59-2.07 1.16-3.7 3.35-4.26 5.71l-.06.22c0 .04 0 .08-.01.12v.01c0 .05 0 .1-.01.15-.29 2.47.53 5.13 2.13 6.96.88 1 2.38 2.2 4.58 2.24 2.31.04 4.14-.44 5.92-.91 1.48-.39 3.01-.78 4.69-.86 1.19-.04 2.28.42 3.05 1.3.75.86 1.07 2 .87 3.12l-2.84 15.96z"/><path fill="#FF7B00" d="M224.99 157.883c-5.08-.27-8.24 1.16-11.82 1.34-.97.05-1.79-.71-1.64-1.53 1.07-6.04 18.42-82.07 19.5-88.11.12-.68-1.25-1.5-1.25-1.5l-7.79-5.04S57.78 220.923 55.04 253.683c-.06.69.51 1.31 1.27 1.37 7.42.63 11.13.96 18.54 1.68.94.09 1.68-.68 1.47-1.53-.7-2.81-2.42-5.37-2.72-9.43-.43-5.81 6.04-10.01 12.48-9.59 0 0 0-.01.01-.02.08 0 .16.03.24.04.08 0 .16 0 .25.01.13.01.25.04.36.08 6.24 1.05 11.47 6.39 9.89 11.89-1.12 3.87-3.29 6.09-4.56 8.67-.39.78.18 1.7 1.12 1.8 5.12.56 7.67.85 12.78 1.46.8.09 1.5-.45 1.52-1.18 0-.13.01-.26.02-.38 0 0-.02 0-.02-.01 0-.07.03-.14.04-.22 0-.07 0-.15.01-.22.01-.11.04-.22.08-.33 1.11-5.58 6.92-10.15 12.99-8.49 4.56 1.25 7.05 3.52 10.14 4.78.85.34 1.81-.14 1.92-.96l5.76-42.21c.09-.69.8-1.16 1.59-1.05 16.84 2.38 33.62 4.97 50.39 7.78.78.13 1.53-.32 1.63-1.01.57-4.15-2.2-7.12-2.25-12.53-.05-5.83 6.93-9.52 13.56-8.58 0 0 0-.01.01-.02.08.01.17.04.25.06.9-5.08 3.9-16.28 4.8-21.37.15-.82 1.17-1.26 2.05-.87 3.22 1.41 5.73 3.83 10.45 5.38 6.28 2.06 12.65-2.02 14.19-7.5.05-.1.09-.21.11-.32l.03-.22.06-.21s-.02 0-.02-.01c.83-5.74-3.67-12.17-10.48-12.53z"/><path fill="#4C4C4C" d="M106.34 262.633c-.16 0-.32 0-.47-.03-5.1-.61-7.65-.9-12.76-1.46-1.28-.14-2.41-.89-3.01-1.99a3.68 3.68 0 0 1-.08-3.4c.51-1.03 1.12-1.98 1.72-2.9 1.01-1.57 2.06-3.19 2.68-5.36.51-1.75-.12-3.28-.73-4.26-1.42-2.25-4.16-3.96-7.17-4.47-.08-.01-.17-.03-.25-.05h-.36c-3.06-.2-6.26.91-8.16 2.82-.83.84-1.79 2.23-1.65 4.08.17 2.24.83 3.93 1.53 5.72.41 1.05.84 2.13 1.13 3.29s0 2.4-.79 3.31c-.82.95-2.08 1.45-3.35 1.32-7.45-.72-11.08-1.05-18.51-1.68-2.13-.18-3.72-2-3.55-4.07 1.18-14.17 29.84-50.88 85.18-109.12 40.96-43.11 82.12-82.72 82.53-83.12.83-.8 2.12-.93 3.09-.3l7.79 5.04c.78.46 2.74 1.88 2.36 4.04-.55 3.08-5.03 23.05-9.78 44.21-4.04 17.99-8.2 36.52-9.42 42.38.8-.11 1.62-.27 2.52-.45 2.29-.45 4.89-.97 8.3-.78 3.83.2 7.3 1.98 9.78 5 2.37 2.89 3.49 6.51 3.1 9.99 0 .18-.01.36-.05.54-.01.07-.03.14-.05.21 0 .06-.02.13-.03.2-.05.24-.11.47-.21.7-1 3.38-3.46 6.32-6.75 8.07-3.32 1.77-7.08 2.11-10.58.96-3.15-1.03-5.38-2.4-7.35-3.61-.76-.47-1.49-.91-2.22-1.31-.52 2.56-1.34 5.97-2.13 9.29-.95 3.97-1.93 8.07-2.37 10.54-.12.66-.49 1.24-1.04 1.62s-1.23.52-1.88.4c-.05 0-.11 0-.16-.02-3.26-.46-6.74.44-8.85 2.29-1.25 1.09-1.88 2.37-1.86 3.8.02 2.24.58 3.98 1.18 5.82.7 2.15 1.42 4.37 1.04 7.08-.14.98-.66 1.84-1.47 2.43-.86.63-1.98.89-3.06.7-16.29-2.73-32.85-5.3-49.24-7.62l-5.59 40.97a3.71 3.71 0 0 1-1.83 2.71c-1.05.61-2.36.7-3.5.24-1.34-.54-2.56-1.24-3.74-1.92-1.78-1.02-3.61-2.08-6.12-2.76-1.97-.54-4.06-.21-5.88.92-2.05 1.27-3.54 3.38-3.99 5.65-.01.07-.03.15-.05.22v.24c0 .1-.01.19-.01.29-.03 1.02-.5 1.99-1.28 2.67-.71.61-1.62.94-2.56.94zm-10.92-6.26c3.66.4 6.08.68 9.88 1.13.03-.12.06-.24.09-.37.75-3.54 3.08-6.81 6.24-8.76 3.02-1.87 6.52-2.4 9.83-1.49 3.13.85 5.34 2.13 7.29 3.25.63.36 1.25.71 1.85 1.03l5.54-40.6c.13-.96.64-1.83 1.43-2.43.83-.63 1.91-.91 2.97-.76 16.38 2.31 32.93 4.86 49.24 7.59-.09-1.1-.45-2.22-.88-3.53-.66-2.02-1.4-4.31-1.42-7.32-.02-2.86 1.24-5.56 3.57-7.6 2.73-2.39 6.76-3.71 10.74-3.64.52-2.46 1.26-5.57 1.99-8.59.95-3.97 1.93-8.07 2.37-10.54.2-1.11.9-2.05 1.92-2.6 1.1-.59 2.45-.63 3.61-.12 1.42.62 2.7 1.41 3.94 2.17 1.82 1.12 3.7 2.27 6.29 3.12 2.2.72 4.57.5 6.67-.62 2.12-1.13 3.73-3.06 4.33-5.18.02-.07.04-.14.07-.21 0-.03 0-.05.01-.08v-.02c0-.05 0-.1.02-.14.32-2.18-.42-4.62-1.96-6.5-1.57-1.92-3.77-3.04-6.18-3.17-2.8-.15-4.97.28-7.08.69-1.43.28-2.91.57-4.48.65-1.27.05-2.52-.45-3.34-1.38a3.68 3.68 0 0 1-.89-3.08c.55-3.08 5.02-23.01 9.76-44.12 4.18-18.6 8.48-37.79 9.54-42.98l-6.08-3.93c-7.6 7.35-44.36 43.08-80.96 81.59-65.04 68.45-81.68 94.88-83.63 104.85 6.1.52 9.67.84 15.62 1.42-.12-.31-.24-.62-.36-.94-.77-1.96-1.64-4.18-1.86-7.17-.22-2.91.88-5.75 3.09-7.98 2.84-2.87 7.29-4.51 11.69-4.31.15-.01.31-.01.47 0 .08 0 .16.02.24.03.08 0 .17 0 .25.02.21.02.43.06.65.12 4.32.77 8.31 3.33 10.44 6.72 1.63 2.6 2.1 5.55 1.3 8.3-.83 2.88-2.14 4.9-3.29 6.68-.18.27-.35.54-.52.81z"/><path fill="#7A42C8" d="M272.42 278.813c1.08-5.7-2.83-12.22-9.21-12.77-4.76-.41-7.81.93-11.18 1.02-.91.02-1.64-.75-1.46-1.57 3.05-13.88 7.15-30.36 10.2-44.24.15-.68-.36-1.37-1.13-1.54-16.62-3.57-33.27-6.92-49.98-10.06-.79-.14-1.34-.83-1.18-1.52.92-3.99 3.47-3.36 5.36-8.38 2.34-6.21-4.2-11.48-9.64-12.68-5.57-1.22-14.28 1.6-14.22 8.44.04 5.41 2.82 8.38 2.25 12.53-.1.69-.85 1.15-1.63 1.01-16.77-2.81-33.55-5.41-50.39-7.78-.78-.11-1.49.36-1.59 1.05l-5.76 42.21c-.11.83-1.07 1.31-1.92.96-3.1-1.25-5.58-3.53-10.14-4.78-6.07-1.66-11.88 2.91-12.99 8.49-.04.1-.07.21-.08.33 0 .07 0 .15-.01.22s-.03.14-.01.23c-.43 5.79 4.1 11.81 10.42 11.72 4.71-.07 7.6-1.67 10.91-2.04.9-.1 1.68.61 1.57 1.44-2.1 15.38-4.2 30.76-6.29 46.13-.09.69.42 1.33 1.15 1.43 15.28 2.15 30.51 4.5 45.73 7.04.95.16 1.42 1.19.9 1.94-1.32 1.95-2.96 3.91-4.01 6.98-1.85 5.4 2.73 10.96 8.47 12.39.11.04.22.08.33.1l.23.03c.08.01.15.04.24.03 5.98.82 12.43-2.85 12.56-8.67.07-3.27-.82-5.65-1.39-7.93-.22-.89.57-1.69 1.52-1.52 15.17 2.86 30.29 5.91 45.39 9.15.72.16 1.42-.27 1.57-.95 3.33-15.15 6.65-30.3 9.98-45.45.18-.82 1.16-1.22 1.97-.81 2.95 1.5 5.19 3.97 9.54 5.64 5.79 2.22 11.99-1.68 13.72-7.1.05-.1.09-.2.12-.31.02-.07.02-.15.04-.22s.05-.14.04-.23z"/><path fill="#4C4C4C" d="M179.07 339.813q-.945 0-1.89-.12c-.19 0-.35-.03-.48-.06-.08 0-.17-.02-.25-.04-.21-.04-.42-.09-.64-.17-3.95-1.02-7.4-3.64-9.25-7.03-1.49-2.74-1.79-5.77-.84-8.55.87-2.54 2.06-4.37 3.17-5.96-14.52-2.41-29.24-4.67-43.78-6.72a3.82 3.82 0 0 1-2.48-1.4c-.64-.8-.93-1.83-.79-2.84l6.07-44.51c-.67.15-1.37.34-2.12.54-2.1.58-4.48 1.23-7.63 1.27-3.45.04-6.72-1.36-9.18-3.98-2.59-2.75-4-6.57-3.78-10.25 0-.21.02-.37.03-.48 0-.09.01-.17.02-.25.03-.23.08-.45.15-.68.75-3.54 3.08-6.81 6.24-8.76 3.02-1.87 6.52-2.4 9.83-1.49 3.13.85 5.34 2.13 7.29 3.25.63.36 1.25.71 1.85 1.03l5.54-40.6c.13-.96.64-1.83 1.43-2.43.83-.63 1.91-.91 2.97-.76 16.38 2.31 32.93 4.86 49.24 7.59-.09-1.1-.45-2.22-.88-3.53-.66-2.02-1.4-4.31-1.42-7.32-.03-3.1 1.3-5.82 3.83-7.88 3.41-2.77 8.93-4.01 13.42-3.02 3.75.82 8.55 3.52 10.82 7.7 1.45 2.66 1.66 5.53.62 8.3-1.15 3.05-2.6 4.47-3.65 5.5-.5.5-.87.85-1.14 1.3 16.23 3.06 32.62 6.36 48.77 9.83.98.21 1.83.76 2.4 1.54.63.87.87 1.95.64 2.98-1.53 6.96-3.35 14.68-5.11 22.16-1.62 6.89-3.3 14-4.74 20.5.68-.08 1.38-.21 2.15-.35 2.19-.39 4.68-.83 7.91-.56 3.5.3 6.65 2.06 8.85 4.96 2.29 3.02 3.28 6.97 2.64 10.6-.02.21-.06.38-.09.49 0 .07-.03.16-.05.26-.05.21-.12.42-.22.63-1.15 3.44-3.82 6.44-7.15 8.04-3.16 1.52-6.64 1.68-9.8.47-2.94-1.13-4.98-2.56-6.78-3.83-.62-.44-1.19-.84-1.76-1.2l-9.63 43.84c-.45 2.02-2.49 3.3-4.54 2.85-14.37-3.09-28.98-6.04-43.43-8.78.51 1.87 1.01 3.99.95 6.69-.07 3-1.44 5.79-3.87 7.85-2.55 2.17-5.98 3.37-9.48 3.37zm-1.65-5.13.28.04c2.75.38 5.66-.42 7.6-2.09.94-.8 2.07-2.17 2.11-4.16.05-2.28-.43-4.03-.94-5.88-.13-.47-.26-.93-.37-1.39-.31-1.23.02-2.53.89-3.45.89-.95 2.2-1.38 3.5-1.13 14.74 2.78 29.64 5.78 44.33 8.92l9.72-44.24c.25-1.12 1-2.06 2.05-2.56 1.1-.52 2.4-.5 3.49.06 1.32.67 2.49 1.49 3.62 2.29 1.64 1.15 3.33 2.34 5.69 3.25 2.38.91 4.49.33 5.84-.31 2.17-1.04 3.89-2.99 4.61-5.21l.12-.46c.44-2.31-.19-4.85-1.68-6.81-1.33-1.76-3.21-2.82-5.29-3-2.58-.22-4.63.14-6.62.5-1.37.24-2.79.49-4.29.53-1.2.03-2.42-.51-3.19-1.44-.74-.9-1.02-2.05-.78-3.16 1.53-6.96 3.35-14.68 5.11-22.16 1.65-7.02 3.36-14.26 4.82-20.87-16.18-3.47-32.62-6.77-48.86-9.82-1.08-.2-2.04-.83-2.64-1.73-.55-.85-.74-1.84-.52-2.81.62-2.7 1.88-3.92 2.98-5.01.92-.9 1.72-1.68 2.47-3.69.53-1.41.42-2.77-.33-4.16-1.29-2.38-4.37-4.51-7.5-5.2-3.01-.66-6.97.21-9.2 2.02-1.35 1.09-1.99 2.38-1.98 3.95.02 2.24.58 3.98 1.18 5.82.7 2.15 1.42 4.37 1.04 7.08-.14.98-.66 1.84-1.47 2.43-.86.63-1.98.89-3.06.7-16.29-2.73-32.85-5.3-49.24-7.62l-5.59 40.97a3.73 3.73 0 0 1-1.83 2.71c-1.05.61-2.36.7-3.5.24-1.34-.54-2.56-1.24-3.74-1.92-1.78-1.02-3.61-2.08-6.12-2.76-1.97-.54-4.06-.21-5.88.92-2.05 1.27-3.54 3.38-3.99 5.65l-.07.47c-.17 2.36.73 4.83 2.42 6.63 1.49 1.58 3.45 2.47 5.47 2.4 2.51-.04 4.48-.58 6.38-1.1 1.36-.37 2.77-.76 4.29-.93 1.22-.14 2.44.3 3.29 1.17.81.83 1.19 1.96 1.04 3.1l-6.13 44.91c14.84 2.1 29.85 4.42 44.64 6.89 1.31.22 2.39 1.07 2.9 2.27.5 1.17.37 2.49-.34 3.54-.25.37-.51.74-.78 1.12-1.08 1.53-2.19 3.1-2.93 5.27-.63 1.84-.08 3.49.5 4.54 1.19 2.19 3.57 3.96 6.21 4.61l.24.07z"/><path fill="#4C4C4C" d="M319.59 465.282c0 7.04-60.49 12.76-135.11 12.76s-135.11-5.71-135.11-12.76 60.49-12.76 135.11-12.76 135.11 5.71 135.11 12.76"/><path fill="#6DB5C3" d="m345.72 240.023 5.11 4.63 8.96-3.44 34.44-99.64-30.93-7.37z"/><path fill="#4C4C4C" d="M350.83 247.153c-.61 0-1.21-.22-1.68-.65l-5.11-4.63c-.63-.57-.93-1.42-.79-2.26l17.58-105.82c.11-.68.51-1.29 1.08-1.67.58-.38 1.29-.51 1.96-.35l30.93 7.37a2.5 2.5 0 0 1 1.78 3.25l-34.44 99.63c-.24.7-.78 1.25-1.47 1.52l-8.96 3.44c-.29.11-.59.17-.9.17zm-2.42-8.07 2.96 2.68 6.44-2.47 33.16-95.93-25.64-6.11z"/><path fill="#6DB5C3" d="m413.69 151.323 9.22-3.26-44.52-46.5 20.1-59.41 5.95 2.14 2.95-8.54-42.07-15.16-2.96 8.54 5.31 1.91-14.73 43.55-68.03-72.1-10.64 3.47 44.66 70.49z"/><path fill="#4C4C4C" d="M413.69 153.823c-.55 0-1.1-.18-1.55-.54l-94.76-74.87a2.5 2.5 0 0 1-.56-.62l-44.66-70.48c-.41-.65-.5-1.46-.24-2.18.26-.73.84-1.29 1.58-1.53l10.64-3.48c.92-.3 1.93-.04 2.59.66l65.18 69.07 12.61-37.28-3-1.08a2.507 2.507 0 0 1-1.52-3.17l2.95-8.54c.22-.63.68-1.15 1.28-1.44s1.3-.32 1.93-.1l42.08 15.16c1.29.46 1.96 1.88 1.51 3.17l-2.95 8.54c-.22.63-.68 1.15-1.28 1.44s-1.3.32-1.92.1l-3.55-1.28-18.8 55.56 43.47 45.41a2.5 2.5 0 0 1-.97 4.09l-9.22 3.26c-.27.1-.55.14-.83.14zm-92.87-79.07 93.34 73.75 4.27-1.51-41.84-43.71c-.64-.67-.86-1.65-.56-2.53l20.1-59.41c.21-.64.68-1.16 1.28-1.45s1.3-.33 1.93-.1l3.56 1.28 1.32-3.81-37.37-13.46-1.32 3.81 2.99 1.08c1.28.46 1.96 1.86 1.52 3.15l-14.73 43.54a2.49 2.49 0 0 1-4.18.91l-66.95-70.95-6.08 1.99 42.71 67.41z"/><path fill="#04663A" d="M295.18 292.273c-.89-.23-1.72.38-1.69 1.22.11 3.09 1.58 5.99 1.2 10.32-.52 5.8-7.42 8.94-13.55 7.63l-.02.02c-.08-.02-.15-.05-.23-.07s-.16-.03-.23-.05c-.12-.03-.23-.07-.34-.13-5.84-1.89-10.2-7.82-7.94-13.06 1.7-3.95 4.35-5.87 5.93-8.5.43-.72-.01-1.66-.91-1.88-5.07-1.25-7.61-1.87-12.69-3.07-.59-.14-1.2.09-1.49.57-2.48 4.23-7.76 6.87-12.75 4.96-4.35-1.67-6.59-4.15-9.54-5.64-.81-.41-1.79 0-1.97.81-3.33 15.15-6.65 30.3-9.98 45.45-.15.68-.85 1.1-1.57.95-15.1-3.24-30.22-6.29-45.39-9.15-.94-.17-1.74.63-1.52 1.52.58 2.29 1.46 4.66 1.39 7.93-.13 5.82-6.58 9.49-12.56 8.67 0 0 0 .01-.01.02-.08-.01-.15-.04-.22-.05-1.05 5.89-1.57 8.84-2.62 14.74-.14.81-1.03 1.25-1.8.92-3.05-1.29-5.26-3.82-9.68-5.27-5.58-1.83-11.23 2.56-12.53 8.09-.04.1-.07.21-.09.32-.01.07-.01.15-.02.22s-.03.14-.05.22c0 0 .01 0 .02.01-.68 5.76 3.25 11.9 9.15 11.99 4.63.07 7.45-1.62 10.77-1.77.83-.04 1.5.68 1.35 1.48l-3.05 17.18c-.12.68.34 1.34 1.02 1.46 40.15 7.36 79.86 16.33 119.28 26.95.67.18 1.37-.21 1.55-.88 10.78-39.19 21.57-78.38 32.35-117.58.18-.67-.26-1.38-1-1.58-7.42-2.03-11.14-3.03-18.58-4.96z"/><path fill="#4C4C4C" d="M281.19 419.813c-.33 0-.66-.04-1-.13-39.14-10.55-79.2-19.6-119.07-26.9a3.757 3.757 0 0 1-3.03-4.36l2.76-15.54c-.68.13-1.38.31-2.14.51-2 .52-4.29 1.1-7.26 1.07-3.14-.05-6.08-1.45-8.26-3.94-2.17-2.48-3.4-5.8-3.43-9.14l-.17-.1.25-1.72c.01-.08.03-.15.04-.22 0-.07.02-.14.03-.21.03-.21.09-.43.17-.65.91-3.67 3.38-6.94 6.64-8.77 2.87-1.61 6.09-1.96 9.07-.98 2.92.96 4.94 2.3 6.72 3.49.64.43 1.23.82 1.81 1.16l2.77-15.61 2.59.49c2.74.38 5.66-.42 7.6-2.09.94-.8 2.07-2.17 2.11-4.16.05-2.28-.43-4.03-.95-5.88-.13-.47-.26-.93-.37-1.39-.31-1.23.02-2.52.89-3.45.89-.95 2.2-1.38 3.5-1.14 14.75 2.78 29.66 5.78 44.33 8.92l9.72-44.24c.25-1.12 1-2.06 2.05-2.56 1.09-.52 2.4-.5 3.49.06 1.32.67 2.49 1.49 3.62 2.29 1.64 1.15 3.33 2.35 5.69 3.25 3.93 1.5 7.93-.88 9.7-3.89.83-1.42 2.56-2.13 4.22-1.73 5.09 1.21 7.63 1.82 12.71 3.08 1.21.3 2.22 1.15 2.69 2.28.46 1.1.37 2.3-.24 3.31-.71 1.18-1.58 2.21-2.42 3.2-1.21 1.43-2.46 2.91-3.36 5-.74 1.71-.32 3.33.16 4.4 1.07 2.37 3.47 4.4 6.25 5.3l.57.16c2.88.61 6.11 0 8.22-1.56.96-.71 2.14-1.95 2.31-3.85.2-2.25-.18-4.04-.59-5.92-.28-1.3-.57-2.65-.62-4.08-.04-1.17.46-2.27 1.38-3.01.95-.76 2.23-1.03 3.44-.72 7.52 1.96 11.17 2.93 18.61 4.97.96.26 1.77.86 2.3 1.69.56.89.72 1.97.45 2.96l-32.35 117.58a3.766 3.766 0 0 1-3.63 2.76zm.31-4.96h.01zm-118.26-26.77c39.21 7.21 78.58 16.11 117.09 26.45l31.69-115.19c-6.17-1.69-9.74-2.64-15.82-4.23.09.47.19.97.3 1.49.44 2.06.95 4.41.68 7.41-.26 2.92-1.8 5.56-4.32 7.43-2.92 2.15-6.98 3.13-10.85 2.66l-.12.12-1.38-.35c-.08-.02-.16-.04-.23-.07-.08-.01-.15-.03-.23-.05-.22-.05-.42-.13-.63-.22-4.08-1.36-7.49-4.33-9.13-7.95-1.27-2.8-1.33-5.8-.19-8.44 1.19-2.77 2.75-4.61 4.13-6.24.33-.39.65-.77.94-1.13-3.79-.93-6.23-1.52-10.25-2.48-3.07 4.5-9.09 7.63-15.31 5.25-2.94-1.13-4.98-2.56-6.78-3.83-.62-.44-1.19-.84-1.76-1.2l-9.63 43.84c-.45 2.02-2.49 3.3-4.54 2.85-14.36-3.09-28.97-6.04-43.43-8.78.51 1.87 1.01 3.99.95 6.7-.07 3-1.44 5.79-3.87 7.85-2.52 2.15-5.9 3.35-9.36 3.37l-2.23 12.53c-.2 1.12-.89 2.08-1.9 2.63a3.84 3.84 0 0 1-3.34.16c-1.48-.63-2.75-1.47-3.98-2.29-1.59-1.06-3.24-2.16-5.5-2.9-2.09-.69-3.91-.06-5.06.59-2.07 1.16-3.7 3.35-4.25 5.71l-.09.49c-.29 2.47.53 5.13 2.13 6.96.88 1 2.38 2.2 4.58 2.24 2.3.05 4.14-.44 5.92-.91 1.48-.38 3.01-.78 4.69-.86 1.17-.04 2.29.42 3.05 1.3.75.86 1.07 2 .87 3.12l-2.84 15.96z"/><path fill="#7A42C8" d="M264.37 282.363c.81-3.98-.87-8.38-4.17-10.86a9.76 9.76 0 0 0-4.99-1.91c-4.76-.41-7.81.93-11.18 1.02-.91.02-1.64-.75-1.46-1.57l9.15-41.64c.15-.68-.36-1.37-1.13-1.54-16.62-3.57-33.27-6.92-49.98-10.06-.79-.14-1.34-.83-1.18-1.52.92-3.99 4.53-5.96 6.42-10.98 2.02-5.36-3.03-11.1-9.41-12.65a2.3 2.3 0 0 0-.37-.11l-.25-.03a.7.7 0 0 0-.26-.03c-6.63-.93-13.61 2.75-13.56 8.58.04 5.41 2.82 8.38 2.25 12.53-.1.69-.85 1.15-1.63 1.01-16.77-2.81-33.55-5.41-50.39-7.78-.78-.11-1.49.36-1.59 1.05l-5.76 42.21c-.11.83-1.07 1.31-1.92.96-3.1-1.25-5.58-3.53-10.14-4.78-6.07-1.66-11.88 2.91-12.99 8.49-.04.1-.07.21-.08.33 0 .07 0 .15-.01.22s-.03.14-.01.23c-.43 5.79 4.1 11.81 10.42 11.72 4.71-.07 7.6-1.67 10.91-2.04.9-.1 1.68.61 1.57 1.44-2.1 15.38-4.2 30.76-6.29 46.13-.09.69.42 1.33 1.15 1.43 15.28 2.15 30.51 4.5 45.73 7.04.95.16 1.42 1.19.9 1.94-1.32 1.95-2.96 3.91-4.01 6.98-1.85 5.4 2.73 10.96 8.47 12.39.11.04.22.08.33.1l.23.03c.08.01.15.04.24.03 5.98.82 12.43-2.85 12.56-8.67.07-3.27-.82-5.65-1.39-7.93-.22-.89.57-1.69 1.52-1.52 15.17 2.86 30.29 5.91 45.39 9.15.72.16 1.42-.27 1.57-.95 3.33-15.15 6.65-30.3 9.98-45.45.18-.82 1.16-1.22 1.97-.81 2.95 1.5 5.19 3.97 9.54 5.64 4.75 1.82 10.3-.68 12.78-4.96.53-.92.89-1.89 1.1-2.9z"/><path fill="#4C4C4C" d="M171.07 343.363c-.63 0-1.26-.04-1.9-.12-.2 0-.36-.04-.47-.06-.08 0-.17-.02-.26-.04-.2-.04-.41-.09-.63-.17-3.95-1.02-7.4-3.64-9.25-7.03-1.49-2.74-1.79-5.78-.84-8.55.87-2.53 2.06-4.37 3.17-5.96-14.48-2.4-29.21-4.66-43.78-6.72-2.08-.29-3.55-2.19-3.27-4.24l6.07-44.51c-.67.15-1.37.34-2.12.54-2.1.58-4.48 1.23-7.63 1.27-3.45.06-6.72-1.36-9.18-3.98-2.59-2.75-4-6.57-3.78-10.24 0-.21.01-.38.03-.5 0-.07 0-.16.02-.25.03-.23.08-.45.15-.68.76-3.54 3.08-6.81 6.24-8.76 3.02-1.87 6.51-2.4 9.83-1.49 3.13.85 5.34 2.13 7.29 3.25.63.36 1.25.72 1.85 1.03l5.54-40.6c.13-.97.64-1.83 1.43-2.43.83-.63 1.91-.91 2.97-.76 16.38 2.31 32.94 4.86 49.23 7.59-.09-1.1-.45-2.22-.88-3.53-.65-2.02-1.4-4.31-1.42-7.32-.02-2.86 1.24-5.56 3.57-7.6 3.17-2.78 8.03-4.11 12.69-3.5.21.01.38.04.49.07.1.01.18.02.26.04.23.04.44.1.66.17 4.48 1.12 8.45 4.06 10.37 7.7 1.42 2.67 1.65 5.6.66 8.23-1.06 2.81-2.55 4.73-3.86 6.43-.83 1.08-1.55 2-2.01 2.97 16.25 3.06 32.65 6.37 48.8 9.84 1.05.23 1.97.86 2.54 1.74.54.84.72 1.82.51 2.77l-8.8 40.06c.68-.08 1.38-.21 2.15-.35 2.19-.39 4.68-.83 7.91-.55 2.27.19 4.44 1.02 6.28 2.4 4.07 3.05 6.13 8.41 5.13 13.36-.26 1.3-.73 2.53-1.39 3.66-3.23 5.55-10.19 8.2-15.84 6.03-2.94-1.13-4.98-2.56-6.78-3.83-.62-.44-1.19-.84-1.75-1.2l-9.63 43.84c-.45 2.02-2.49 3.3-4.54 2.85-14.36-3.09-28.97-6.04-43.43-8.78.51 1.87 1.01 3.99.95 6.7-.07 3-1.44 5.79-3.87 7.85-2.55 2.17-5.98 3.37-9.48 3.37zm-1.64-5.13.26.04c2.74.38 5.66-.42 7.6-2.09.94-.8 2.07-2.17 2.11-4.16.05-2.28-.43-4.03-.95-5.88-.13-.47-.26-.93-.37-1.39-.31-1.23.02-2.52.89-3.45.89-.95 2.2-1.38 3.5-1.14 14.75 2.78 29.66 5.78 44.33 8.92l9.72-44.24c.25-1.12 1-2.06 2.05-2.56 1.09-.52 2.4-.5 3.49.06 1.32.67 2.49 1.49 3.62 2.29 1.64 1.15 3.33 2.35 5.69 3.25 3.37 1.29 7.73-.45 9.73-3.88.38-.66.65-1.38.81-2.14.62-3.04-.71-6.48-3.22-8.37a7.3 7.3 0 0 0-3.71-1.42c-2.58-.22-4.63.14-6.62.5-1.37.24-2.79.49-4.29.53-1.17.04-2.42-.51-3.19-1.44-.74-.9-1.02-2.05-.78-3.16l8.88-40.42c-16.17-3.46-32.61-6.77-48.86-9.82-1.08-.2-2.05-.83-2.64-1.73-.55-.85-.74-1.84-.52-2.81.59-2.57 2.01-4.4 3.38-6.17 1.15-1.48 2.34-3.02 3.13-5.13.49-1.31.36-2.7-.4-4.13-1.27-2.4-4.12-4.45-7.26-5.21l-.26-.08s-.09-.01-.13-.02l-.25-.03c-3.26-.46-6.74.44-8.85 2.29-1.25 1.09-1.88 2.37-1.86 3.8.02 2.24.58 3.98 1.18 5.82.7 2.15 1.42 4.37 1.04 7.08a3.6 3.6 0 0 1-1.47 2.43c-.86.63-1.98.89-3.06.7-16.28-2.73-32.85-5.29-49.24-7.62l-5.59 40.97a3.73 3.73 0 0 1-1.83 2.71c-1.05.61-2.36.7-3.5.24-1.34-.54-2.56-1.24-3.74-1.92-1.78-1.02-3.61-2.08-6.12-2.76-1.96-.53-4.05-.21-5.88.92-2.05 1.27-3.54 3.38-4 5.65l-.07.47c-.17 2.36.73 4.83 2.42 6.62 1.49 1.58 3.42 2.47 5.47 2.41 2.51-.04 4.48-.58 6.38-1.1 1.36-.37 2.77-.76 4.29-.93 1.22-.14 2.44.3 3.29 1.17.81.83 1.19 1.96 1.04 3.1l-6.13 44.91a1811 1811 0 0 1 44.64 6.89c1.31.22 2.39 1.07 2.9 2.27.5 1.17.37 2.49-.34 3.54-.25.37-.51.74-.78 1.12-1.08 1.53-2.19 3.1-2.93 5.27-.63 1.84-.08 3.49.5 4.54 1.19 2.19 3.57 3.96 6.21 4.61l.25.07h.02zm-67.25-84.45v.02z"/><path fill="#EE6DBB" d="M151.53 371.763c-5.9-.09-9.83-6.23-9.15-11.99 0 0-.01 0-.02-.01.01-.07.03-.14.05-.22.01-.07.01-.15.02-.22.02-.11.05-.22.09-.32 1.3-5.54 6.95-9.92 12.53-8.09 4.42 1.45 6.63 3.97 9.68 5.27.78.33 1.66-.11 1.81-.92 1.03-5.81 1.55-8.72 2.58-14.53l-.23-.03c-.12-.02-.23-.06-.33-.1-5.74-1.42-10.32-6.98-8.47-12.39 1.05-3.06 2.68-5.02 4.01-6.98.51-.76.04-1.78-.9-1.94-15.22-2.54-30.45-4.89-45.73-7.04-.73-.1-1.24-.74-1.15-1.43 2.1-15.38 4.2-30.76 6.29-46.13.11-.83-.67-1.54-1.57-1.44-3.32.37-6.2 1.97-10.91 2.04-5.35.08-9.39-4.22-10.26-9.05-.1-.55-.6-.97-1.2-1.05-5.37-.64-8.05-.95-13.43-1.54-.93-.1-1.49-1-1.13-1.78 1.25-2.68 3.51-4.92 4.66-8.9 1.58-5.49-3.66-10.83-9.89-11.89-.12-.04-.24-.06-.36-.08-.08 0-.16 0-.25-.01-.08 0-.16-.03-.24-.04 0 0 0 .01-.01.02-6.44-.42-12.91 3.78-12.48 9.59.31 4.19 2.12 6.78 2.78 9.69.19.83-.56 1.58-1.48 1.49-7.4-.72-11.11-1.06-18.53-1.68-.76-.06-1.42.45-1.48 1.14l-10.14 121.52c-.06.69.46 1.3 1.15 1.36 40.66 3.61 81.03 8.87 121.26 15.8.69.12 1.34-.33 1.46-1.02 1.24-6.96 1.85-10.43 3.09-17.39.14-.81-.52-1.52-1.35-1.48-3.32.15-6.14 1.84-10.77 1.77"/><path fill="#4C4C4C" d="M159.32 392.403c-.22 0-.43-.02-.66-.06-39.93-6.88-80.66-12.19-121.04-15.77a3.75 3.75 0 0 1-3.42-4.06l10.14-121.52c.08-1.03.61-1.99 1.44-2.63.77-.6 1.75-.88 2.74-.8 6.82.58 10.45.9 16.83 1.52q-.21-.555-.45-1.17c-.76-1.96-1.63-4.18-1.86-7.17-.22-2.91.88-5.75 3.09-7.97 2.61-2.63 6.58-4.23 10.61-4.32l.09-.12 1.43.14c.09 0 .18.02.27.04.08 0 .17 0 .25.02.21.02.43.06.65.12 4.32.77 8.3 3.33 10.43 6.71 1.63 2.6 2.1 5.55 1.3 8.3-.83 2.88-2.13 4.9-3.28 6.69-.22.34-.44.68-.64 1.01 4.29.47 6.95.78 11.72 1.35 1.69.2 3.08 1.47 3.37 3.09.62 3.43 3.58 7.08 7.76 6.99 2.51-.04 4.48-.58 6.38-1.1 1.36-.37 2.77-.76 4.29-.93 1.22-.14 2.44.3 3.29 1.17.81.83 1.19 1.96 1.04 3.1l-6.13 44.91a1811 1811 0 0 1 44.64 6.89c1.31.22 2.39 1.07 2.9 2.27.5 1.17.37 2.49-.34 3.54-.25.37-.51.74-.78 1.12-1.08 1.53-2.19 3.1-2.93 5.27-.63 1.84-.08 3.49.5 4.54 1.19 2.19 3.57 3.96 6.21 4.61l.34.08 2.53.39-3.03 17.05c-.2 1.12-.89 2.08-1.9 2.63a3.84 3.84 0 0 1-3.34.16c-1.48-.62-2.75-1.47-3.98-2.29-1.59-1.06-3.24-2.16-5.51-2.9-2.09-.69-3.91-.06-5.06.59-2.07 1.16-3.7 3.35-4.26 5.71l-.06.23v.06l-.02.2c-.29 2.47.53 5.13 2.13 6.96.88 1 2.38 2.2 4.58 2.24 2.33.06 4.15-.44 5.92-.91 1.48-.39 3.01-.78 4.69-.86 1.18-.03 2.28.42 3.05 1.3.75.86 1.07 2 .87 3.12l-3.09 17.39a3.78 3.78 0 0 1-3.71 3.1zm-120.04-20.7c39.72 3.56 79.75 8.78 119.04 15.51l2.58-14.53c-.68.13-1.38.31-2.14.51-2.01.52-4.3 1.09-7.26 1.07-3.15-.05-6.08-1.45-8.26-3.94-2.17-2.48-3.4-5.8-3.43-9.14l-.17-.1.25-1.72c.01-.08.03-.15.04-.22 0-.05.01-.13.03-.21.04-.22.09-.44.17-.65.91-3.67 3.38-6.94 6.64-8.77 2.87-1.61 6.08-1.96 9.07-.98 2.92.96 4.94 2.3 6.72 3.49.64.43 1.23.82 1.81 1.16l1.9-10.69c-3.3-1.24-6.1-3.6-7.71-6.54-1.49-2.74-1.79-5.78-.84-8.55.87-2.53 2.06-4.37 3.17-5.96-14.48-2.4-29.21-4.66-43.78-6.72-2.08-.29-3.55-2.19-3.27-4.24l6.07-44.51c-.67.15-1.37.34-2.12.54-2.1.58-4.48 1.23-7.63 1.27h-.19c-6.56 0-11.06-4.97-12.37-10.2-4.86-.58-7.54-.88-12.64-1.44a3.93 3.93 0 0 1-2.99-1.95c-.58-1.04-.63-2.3-.13-3.38.53-1.13 1.2-2.17 1.84-3.17 1.01-1.57 2.06-3.19 2.68-5.36.51-1.75-.12-3.28-.73-4.26-1.42-2.25-4.17-3.96-7.17-4.47l-.61-.08c-3.06-.2-6.27.91-8.17 2.83-.83.84-1.79 2.23-1.65 4.08.17 2.24.83 3.93 1.53 5.72.45 1.14.91 2.33 1.2 3.6a3.65 3.65 0 0 1-.83 3.24c-.82.93-2.06 1.41-3.33 1.29-7.09-.69-10.72-1.02-17.38-1.58l-9.94 119.06zm-1.23-.11h.01z"/><path fill="#04663A" d="m281.41 417.533 9.63-5.41c.88-.54.52-1.27.79-2.26 3.06-11.14 31.93-116.84 31.93-116.84l-8.98 3.75-33.37 120.77z"/><path fill="#4C4C4C" d="M281.41 420.033a2.5 2.5 0 0 1-2.41-3.16l33.37-120.77c.21-.74.74-1.34 1.45-1.64l8.98-3.75c.88-.37 1.9-.2 2.61.43.72.63 1.01 1.62.76 2.54-.29 1.06-28.9 105.84-31.93 116.85-.02.09-.04.24-.05.42-.05.68-.16 2.28-1.84 3.31l-9.71 5.46c-.38.21-.8.32-1.22.32zm35.45-121.43-31.45 113.81 3.81-2.14c.03-.3.08-.67.19-1.08 2.65-9.62 24.84-90.88 30.58-111.9l-3.14 1.31z"/><path fill="#FF7B00" d="M216.99 152.883c-5.08-.27-8.24 1.16-11.82 1.34-.97.05-1.79-.71-1.64-1.53 1.07-6.04 18.42-82.07 19.5-88.11.12-.68-1.25-1.5-1.25-1.5l-194.37 70.94 27.83 3.69c-2.73 32.76-5.47 78.21-8.2 110.97-.06.69.51 1.31 1.27 1.37 7.42.63 11.13.96 18.54 1.68.94.09 1.68-.68 1.47-1.53-.7-2.81-2.42-5.37-2.72-9.43-.43-5.81 6.04-10.01 12.48-9.59 0 0 0-.01.01-.02.08 0 .16.03.24.04.08 0 .16 0 .25.01.13.01.25.04.36.08 6.24 1.05 11.47 6.39 9.89 11.89-1.12 3.87-3.29 6.09-4.56 8.67-.39.78.18 1.7 1.12 1.8 5.12.56 7.67.85 12.78 1.46.8.09 1.5-.45 1.52-1.18 0-.13.01-.26.02-.38 0 0-.02 0-.02-.01 0-.07.03-.14.04-.22 0-.07 0-.15.01-.22.01-.11.04-.22.08-.33 1.11-5.58 6.92-10.15 12.99-8.49 4.56 1.25 7.05 3.52 10.14 4.78.85.34 1.81-.14 1.92-.96l5.76-42.21c.09-.69.8-1.16 1.59-1.05 16.84 2.38 33.62 4.97 50.39 7.78.78.13 1.53-.32 1.63-1.01.57-4.15-2.2-7.12-2.25-12.53-.05-5.83 6.93-9.52 13.56-8.58 0 0 0-.01.01-.02.08.01.17.04.25.06.9-5.08 3.9-16.28 4.8-21.37.15-.82 1.17-1.26 2.05-.87 3.22 1.41 5.73 3.83 10.45 5.38 6.28 2.06 12.65-2.02 14.19-7.5.05-.1.09-.21.11-.32l.03-.22.06-.21s-.02 0-.02-.01c.83-5.74-3.67-12.17-10.48-12.53z"/><path fill="#4C4C4C" d="M98.34 257.633c-.16 0-.31 0-.47-.03-5.1-.61-7.66-.9-12.76-1.46-1.28-.14-2.41-.88-3.01-1.99a3.68 3.68 0 0 1-.08-3.4c.51-1.03 1.12-1.98 1.72-2.9 1.01-1.57 2.06-3.19 2.69-5.36.51-1.75-.12-3.28-.73-4.26-1.42-2.25-4.16-3.96-7.17-4.47-.09-.01-.17-.03-.26-.06h-.14s-.04-.01-.05-.01h-.16c-3.06-.2-6.26.91-8.17 2.82-.83.84-1.79 2.23-1.65 4.08.17 2.24.83 3.93 1.53 5.72.41 1.05.84 2.13 1.13 3.29s0 2.39-.79 3.3c-.82.95-2.07 1.44-3.35 1.32-7.38-.72-11.01-1.05-18.5-1.68-2.13-.18-3.72-2-3.55-4.07 1.37-16.36 2.75-36.23 4.1-55.45 1.28-18.31 2.6-37.22 3.91-53.14l-25.47-3.37a2.506 2.506 0 0 1-2.16-2.21c-.12-1.14.55-2.23 1.63-2.62l194.37-70.94c.71-.26 1.49-.19 2.13.2.86.51 2.82 1.93 2.44 4.08-.55 3.08-5.02 23.01-9.76 44.11-4.05 18.03-8.22 36.61-9.44 42.47.8-.11 1.62-.27 2.52-.45 2.29-.45 4.89-.96 8.3-.78 3.83.2 7.3 1.98 9.78 5 2.37 2.89 3.49 6.51 3.1 10 0 .18-.01.36-.05.54-.01.07-.03.13-.05.2 0 .06-.02.15-.04.23-.04.21-.11.44-.2.67-1 3.38-3.45 6.32-6.74 8.07-3.32 1.77-7.08 2.11-10.58.96-3.15-1.03-5.38-2.4-7.34-3.61-.76-.47-1.49-.92-2.22-1.31-.52 2.56-1.34 5.98-2.13 9.3-.95 3.97-1.93 8.07-2.37 10.54-.12.66-.5 1.25-1.05 1.63-.55.37-1.22.51-1.87.39-.05 0-.1 0-.15-.02-3.26-.46-6.74.44-8.85 2.29-1.25 1.09-1.88 2.37-1.86 3.8.02 2.24.58 3.98 1.18 5.82.7 2.15 1.42 4.37 1.04 7.08a3.6 3.6 0 0 1-1.47 2.43c-.86.63-1.98.89-3.06.7-16.28-2.73-32.85-5.29-49.24-7.62l-5.59 40.97a3.73 3.73 0 0 1-1.83 2.71c-1.05.61-2.36.7-3.5.24-1.34-.54-2.56-1.24-3.74-1.92-1.78-1.02-3.61-2.08-6.12-2.76-1.96-.54-4.05-.21-5.88.92-2.05 1.27-3.54 3.38-4 5.65-.01.07-.03.15-.05.22v.26c0 .09-.01.18-.01.27a3.67 3.67 0 0 1-1.28 2.67c-.71.61-1.62.95-2.57.95zm-10.92-6.26c3.66.41 6.08.68 9.88 1.13.03-.12.06-.25.1-.37.76-3.54 3.08-6.81 6.24-8.76 3.02-1.87 6.51-2.4 9.83-1.49 3.13.85 5.34 2.13 7.29 3.25.63.36 1.25.72 1.85 1.03l5.54-40.6c.13-.97.64-1.83 1.43-2.43.83-.63 1.91-.91 2.97-.76 16.38 2.31 32.94 4.86 49.23 7.59-.09-1.1-.45-2.22-.88-3.53-.65-2.02-1.4-4.31-1.42-7.32-.02-2.86 1.24-5.56 3.57-7.6 2.73-2.39 6.71-3.73 10.74-3.64.52-2.46 1.26-5.56 1.99-8.59.95-3.97 1.93-8.07 2.37-10.54.2-1.11.9-2.05 1.92-2.6 1.1-.59 2.44-.63 3.61-.12 1.42.62 2.7 1.41 3.94 2.17 1.82 1.12 3.7 2.27 6.29 3.12 2.19.72 4.57.5 6.67-.62 2.11-1.13 3.73-3.06 4.33-5.18.02-.07.04-.14.07-.21 0-.03 0-.05.01-.08 0-.05 0-.1.02-.15.32-2.18-.42-4.62-1.96-6.5-1.57-1.92-3.77-3.04-6.18-3.17-2.79-.15-4.97.28-7.07.69-1.43.28-2.91.57-4.48.65-1.27.07-2.52-.45-3.34-1.38a3.68 3.68 0 0 1-.89-3.08c.55-3.08 5.03-23.06 9.78-44.22 3.89-17.34 7.9-35.19 9.27-41.69l-182.29 66.54 17.74 2.35a2.5 2.5 0 0 1 2.16 2.69c-1.37 16.36-2.75 36.23-4.1 55.45-1.31 18.75-2.67 38.13-4 54.28 6.19.53 9.77.85 15.69 1.42-.12-.31-.24-.62-.36-.94-.77-1.96-1.64-4.18-1.86-7.17-.22-2.91.88-5.75 3.09-7.97 2.84-2.87 7.32-4.5 11.7-4.31.15-.01.31 0 .46 0 .08 0 .16.02.23.03.09 0 .17.01.26.02.21.02.43.06.65.12 4.32.77 8.3 3.33 10.43 6.72 1.63 2.6 2.1 5.55 1.3 8.3-.83 2.88-2.14 4.9-3.29 6.69-.18.27-.35.54-.52.8z"/><path fill="#6DB5C3" d="M278.6 112.692c-1.89 5.37-8.52 9.03-14.65 6.57-4.61-1.85-6.97-4.42-10.09-6.04-.86-.44-10.14 1.78-11.97 4.7 0 0 6.91 8.8 6.99 8.82.13.03.25.08.36.13 6.26 1.95 10.93 8.01 8.57 13.23-2.21 4.89-5.93 6.62-7.11 10.55-.2.67.3 1.4 1.08 1.59 16.47 4.21 32.87 8.62 49.23 13.26.76.22 1.22.94 1.03 1.6-3.94 13.65-7.87 27.31-11.81 40.96-.23.8.45 1.62 1.36 1.66 3.37.13 6.49-1.01 11.22-.3 6.34.95 9.82 7.71 8.39 13.35-.02.07-.05.14-.08.21-.02.07-.03.14-.05.21-.03.11-.08.21-.14.32-.27.7.12 1.5.9 1.74 5 1.54 7.5 2.32 12.5 3.9.87.28 1.26 1.24.78 1.93-1.75 2.52-4.51 4.27-6.47 8.1-2.68 5.25-5.92 15.17-1.27 17.42 2.65 1.28 6.05 1.04 8.86.53 5.61-1.02 11.91-4.87 13.4-10.96.55-2.24.94-4.11.65-6.35-.16-1.22-1.16-5.9 1.48-5.03"/><path fill="#4C4C4C" d="M322.12 260.043c-2.26 0-4.19-.4-5.83-1.19-1.55-.75-2.68-2.07-3.27-3.83-2.04-6.06 2.83-15.88 3.4-16.98 1.37-2.68 3.05-4.42 4.52-5.96.36-.37.7-.72 1.01-1.07-3.96-1.25-6.43-2.02-10.85-3.38a3.94 3.94 0 0 1-2.38-2.03c-.46-.94-.5-2.04-.12-3.01l.09-.21c0-.03.02-.06.03-.1l.03-.11c0-.02.03-.08.05-.13.53-2.26.06-4.8-1.29-6.83-1.22-1.83-3.02-3.01-5.08-3.32-2.56-.38-4.63-.15-6.64.07-1.38.15-2.81.31-4.31.25a4.03 4.03 0 0 1-3.09-1.64c-.68-.94-.89-2.11-.57-3.21l11.46-39.76c-15.92-4.5-32.11-8.85-48.12-12.94-1.06-.27-1.99-.96-2.52-1.9-.5-.88-.62-1.89-.34-2.83.76-2.53 2.29-4.27 3.77-5.95 1.24-1.41 2.53-2.86 3.46-4.92.58-1.28.53-2.67-.13-4.15-1.12-2.48-3.83-4.71-6.91-5.67-.1-.03-.2-.07-.3-.11q-.84-.2-8.28-9.68c-.65-.83-.71-1.98-.15-2.88 2.2-3.5 12.67-6.92 15.24-5.59 1.38.71 2.6 1.58 3.79 2.42 1.74 1.23 3.54 2.5 6.07 3.52 2.14.86 4.53.79 6.7-.19 2.18-.99 3.92-2.82 4.66-4.89.46-1.3 1.89-1.99 3.19-1.53s1.99 1.89 1.53 3.19c-1.19 3.38-3.86 6.22-7.31 7.78-3.43 1.55-7.2 1.65-10.63.27-3.07-1.23-5.21-2.74-7.1-4.08-.95-.67-1.85-1.31-2.77-1.83-1.63.14-5.67 1.36-7.84 2.55 1.93 2.45 4.15 5.27 5.04 6.38 4.3 1.45 7.96 4.59 9.62 8.27 1.24 2.76 1.29 5.69.13 8.25-1.24 2.74-2.85 4.56-4.26 6.17-.9 1.02-1.67 1.89-2.2 2.83 16.01 4.1 32.17 8.46 48.06 12.96 1.04.3 1.92.99 2.42 1.9.48.87.6 1.87.33 2.8l-11.36 39.41c.69-.04 1.4-.12 2.17-.21 2.22-.25 4.72-.53 7.93-.04 3.47.52 6.49 2.47 8.5 5.5 2.1 3.16 2.84 7.16 1.99 10.75 4.3 1.32 6.79 2.1 11.41 3.57 1.19.38 2.14 1.29 2.53 2.45.38 1.12.22 2.32-.46 3.29-.79 1.13-1.72 2.1-2.62 3.04-1.3 1.35-2.64 2.75-3.68 4.77-2.2 4.3-4.03 10.36-3.11 13.11.2.61.47.8.7.92 1.65.79 4.11.9 7.33.32 4.63-.84 10.18-4.04 11.41-9.09.52-2.12.84-3.64.6-5.44l-.06-.39c-.29-1.91-.79-5.1 1.17-6.75.56-.48 1.79-1.19 3.64-.58 1.31.43 2.02 1.85 1.59 3.16-.27.81-.91 1.39-1.67 1.61q.045.675.21 1.8c.03.2.06.37.07.51.35 2.65-.11 4.86-.7 7.27-1.77 7.26-9 11.67-15.38 12.82q-2.475.45-4.56.45z"/><path fill="#6DB5C3" d="m413.45 151.414-44.3-46.44 20.1-59.41 5.95 2.14 2.95-8.54-42.08-15.16-2.95 8.54 5.31 1.91-14.73 43.54-68.03-72.1s-1.59.19-1.75.87c-1.44 5.88-26.74 89.06-28.18 94.94-.2.81.57 1.62 1.54 1.63 3.58.05 6.83-1.18 11.88-.58 6.77.8 10.86 7.5 9.66 13.18 0 0 .02.01.02.02-.02.07-.05.14-.07.21s-.02.15-.04.22a1.2 1.2 0 0 1-.13.31c-1.89 5.37-8.52 9.03-14.65 6.57-4.61-1.85-6.97-4.42-10.09-6.04-.86-.44-1.91-.08-2.11.73-1.25 5.1-1.87 7.65-3.12 12.74.08.02.17.03.25.05.13.03.25.08.36.13 6.26 1.95 10.93 8.01 8.57 13.23-2.21 4.89-5.93 6.62-7.11 10.55-.2.67.3 1.4 1.08 1.59 16.47 4.21 32.87 8.62 49.23 13.26.76.22 1.22.94 1.03 1.6-3.94 13.65-7.87 27.31-11.81 40.96-.23.8.45 1.62 1.36 1.66 3.37.13 6.49-1.01 11.22-.3 6.34.95 9.82 7.71 8.37 13.33l.02.02c-.02.07-.05.14-.08.21-.02.07-.03.14-.05.21-.03.11-.08.21-.14.31v.01c-.27.7.12 1.5.9 1.74 5 1.54 7.5 2.32 12.5 3.9.87.28 1.26 1.24.78 1.93-1.75 2.52-4.51 4.27-6.47 8.1-2.6 5.09 1.37 11.29 7.07 13.55q.15.09.33.15l.23.06c.08.03.15.06.22.08l.02-.02c6.03 1.7 13.12-.98 14.01-6.74.67-4.3-.61-7.28-.53-10.37.02-.84.9-1.39 1.77-1.1 7.1 2.35 10.64 3.54 17.7 5.98.72.25 1.49-.08 1.72-.74 10.75-31.09 23.24-71.39 33.99-102.48l28.27 9.86z"/><path fill="#4C4C4C" d="M320.18 260.013c-1.34 0-2.7-.17-4-.5-.15-.02-.3-.05-.44-.1-.08-.03-.16-.05-.23-.08-.08-.02-.15-.04-.22-.06-.22-.07-.42-.16-.63-.26-3.99-1.63-7.19-4.8-8.59-8.52-1.08-2.88-.96-5.87.35-8.44 1.37-2.68 3.05-4.42 4.53-5.96.36-.37.7-.72 1.01-1.07-3.96-1.25-6.43-2.02-10.85-3.38a3.9 3.9 0 0 1-2.38-2.03c-.45-.94-.5-2.04-.12-3.01.03-.08.06-.15.1-.22 0 0 .01-.05.02-.07 0-.01 0-.03.01-.04 0-.04.02-.09.03-.13.58-2.27.12-4.85-1.24-6.91-1.22-1.84-3.02-3.02-5.08-3.33-2.56-.38-4.63-.15-6.63.07-1.38.15-2.82.31-4.31.25a4.03 4.03 0 0 1-3.09-1.64c-.68-.94-.89-2.11-.57-3.21l11.46-39.76c-15.91-4.5-32.09-8.85-48.12-12.94-1.06-.27-1.99-.96-2.52-1.9-.5-.88-.62-1.89-.33-2.83.76-2.53 2.29-4.26 3.77-5.94 1.24-1.41 2.53-2.86 3.46-4.92.58-1.28.53-2.67-.13-4.15-1.11-2.48-3.83-4.71-6.91-5.67-.09-.03-.17-.06-.25-.09-.06-.01-.13-.02-.19-.04-.65-.15-1.21-.56-1.56-1.13s-.46-1.25-.3-1.9l3.12-12.74c.27-1.09 1.03-1.99 2.08-2.47 1.13-.51 2.48-.47 3.61.12 1.37.71 2.6 1.58 3.79 2.42 1.74 1.23 3.54 2.5 6.08 3.52 2.15.86 4.53.79 6.7-.19 2.18-.99 3.92-2.82 4.65-4.89.02-.07.05-.14.08-.21 0-.03.01-.05.02-.08 0-.05.02-.1.03-.14.46-2.16-.12-4.63-1.54-6.61-1.45-2.02-3.56-3.28-5.96-3.57-2.77-.33-4.98-.04-7.1.24-1.45.19-2.93.39-4.52.36-1.27-.02-2.48-.61-3.25-1.59-.7-.91-.95-2.05-.69-3.13.74-3 7.24-24.66 14.12-47.6 6.56-21.86 13.35-44.47 14.06-47.35.52-2.12 2.89-2.63 3.88-2.75.79-.09 1.57.19 2.12.77l65.18 69.07 12.61-37.28-3-1.08a2.493 2.493 0 0 1-1.51-3.17l2.95-8.54c.22-.63.68-1.15 1.28-1.44s1.3-.32 1.93-.1l42.08 15.16c1.29.46 1.96 1.88 1.51 3.17l-2.95 8.54c-.22.63-.68 1.15-1.28 1.44s-1.3.32-1.93.1l-3.55-1.28-18.8 55.57 43.25 45.35c.8.84.92 2.11.29 3.08-.62.97-1.84 1.39-2.92 1.01l-25.9-9.03c-5.15 14.99-10.75 32.19-16.17 48.85-5.71 17.55-11.62 35.7-17 51.26-.67 1.96-2.87 2.98-4.89 2.29-6.56-2.26-10.02-3.44-16.06-5.44.06.48.13.98.21 1.51.31 2.09.66 4.46.2 7.44-.45 2.9-2.15 5.43-4.79 7.13-2.27 1.46-5.13 2.23-8.03 2.23zm-3.14-5.44c.05.01.1.02.16.04 2.83.8 6.09.4 8.31-1.03 1.01-.65 2.27-1.81 2.56-3.69.35-2.24.08-4.04-.2-5.95-.19-1.32-.4-2.68-.36-4.11.03-1.17.6-2.23 1.57-2.91 1-.7 2.3-.88 3.48-.5 6.75 2.23 10.22 3.4 16.68 5.62 5.26-15.26 11.01-32.91 16.57-50 5.72-17.57 11.63-35.73 17.02-51.3.22-.63.67-1.14 1.27-1.43s1.28-.33 1.91-.11l18.49 6.45-37.15-38.94c-.64-.67-.86-1.65-.56-2.53l20.1-59.41c.21-.64.68-1.16 1.28-1.45s1.3-.33 1.93-.1l3.56 1.28 1.32-3.81-37.37-13.46-1.32 3.81 2.99 1.08c1.28.46 1.96 1.86 1.52 3.15l-14.73 43.54a2.49 2.49 0 0 1-4.18.91l-66.15-70.11c-1.91 6.73-7.57 25.56-13.51 45.35-5.88 19.6-11.95 39.8-13.65 45.84.8-.06 1.63-.16 2.54-.28 2.32-.3 4.94-.65 8.34-.24 3.81.45 7.16 2.45 9.44 5.62 2.18 3.04 3.06 6.73 2.44 10.19 0 .17-.03.33-.08.5-.02.08-.04.15-.07.22-.01.05-.03.13-.05.2-.06.23-.14.46-.25.68-1.22 3.31-3.85 6.08-7.25 7.61-3.43 1.55-7.2 1.65-10.63.28-3.08-1.23-5.21-2.75-7.1-4.08-.72-.51-1.41-1-2.11-1.43l-2.21 9.01c3.75 1.59 6.88 4.48 8.37 7.8 1.24 2.76 1.28 5.69.13 8.25-1.24 2.74-2.85 4.56-4.26 6.17-.9 1.02-1.67 1.89-2.2 2.83 16.02 4.1 32.18 8.46 48.06 12.96 2.09.6 3.32 2.71 2.75 4.7l-11.36 39.41c.69-.04 1.4-.12 2.17-.21 2.21-.25 4.72-.53 7.93-.04 3.48.52 6.5 2.48 8.51 5.52 2.06 3.1 2.79 7.01 2 10.54 0 .06-.01.13-.03.19 4.31 1.33 6.8 2.1 11.42 3.57 1.19.38 2.14 1.3 2.53 2.45.38 1.12.22 2.32-.45 3.29-.79 1.13-1.72 2.1-2.62 3.04-1.3 1.35-2.64 2.75-3.68 4.77-.85 1.66-.54 3.31-.13 4.4.92 2.43 3.18 4.61 5.9 5.69.08.03.16.07.23.1.04 0 .09.02.14.04h.03z"/><path fill="#4C4C4C" d="M356 26.363c-1.03 0-2-.65-2.36-1.68a2.49 2.49 0 0 1 1.53-3.18l9.32-3.26c1.3-.46 2.73.23 3.18 1.53s-.23 2.73-1.53 3.18l-9.32 3.26c-.27.1-.55.14-.83.14z"/><path fill="#4C4C4C" d="M397.74 43.013c-1 0-1.94-.6-2.33-1.58-.51-1.29.13-2.74 1.41-3.24l7.61-2.99c1.29-.5 2.74.13 3.24 1.41.51 1.29-.13 2.74-1.41 3.24l-7.61 2.99c-.3.12-.61.17-.92.17z"/><path fill="#4C4C4C" d="M396.33 50.273c-1 0-1.94-.6-2.33-1.58-.51-1.29.13-2.74 1.41-3.24l7.61-2.99c1.29-.5 2.74.13 3.24 1.41.51 1.29-.13 2.74-1.41 3.24l-7.61 2.99c-.3.12-.61.17-.92.17z"/><path fill="#4C4C4C" d="M371.1 107.023c-1 0-1.94-.6-2.33-1.58-.51-1.29.13-2.74 1.41-3.24l7.61-2.99c1.29-.5 2.74.13 3.24 1.41.51 1.29-.13 2.74-1.41 3.24l-7.61 2.99c-.3.12-.61.17-.92.17z"/><path fill="#fff" d="M18.6 389.933s-10.37 8.33-14.98 12.51z"/><path fill="#4C4C4C" d="M20.16 391.883c-2.45 2.12-4.9 4.26-7.31 6.41s-4.84 4.32-7.1 6.51a3.18 3.18 0 0 1-4.5-.06c-1.28-1.31-1.16-3.46.24-4.63 2.58-2.17 5.15-4.17 7.74-6.18 2.59-2 5.18-3.97 7.8-5.94 1.1-.83 2.67-.61 3.5.5.8 1.06.62 2.55-.37 3.4"/><path fill="#4C4C4C" d="M26.81 395.883c-4.72 7.89-10.59 14.83-16.76 21.56-2.93 2.97-7.53-.96-5.07-4.32 1.38-1.8 2.81-3.55 4.27-5.28 4.35-5.18 8.75-10.37 13.63-15.06 2.1-1.99 5.36.61 3.92 3.09"/><path fill="#4C4C4C" d="M420.66 92.483c6.53-1.74 13.24-2.8 19.92-3.82 2.23-.34 4.46-.66 6.71-.9 1.83-.21 3.48 1.12 3.69 2.95.19 1.71-.97 3.26-2.61 3.62-8.96 1.77-17.94 3.18-27.13 3.11-2.91-.07-3.36-4.26-.57-4.97"/><path fill="#4C4C4C" d="M443.35 69.013a2.84 2.84 0 0 0-2.91-1.21c-.73.15-1.27.56-1.87.94l-1.26.81c-.81.52-1.61 1.04-2.42 1.55-1.61 1.04-3.23 2.07-4.84 3.11s-3.23 2.07-4.84 3.11c-1.76 1.13-3.57 2.2-5.22 3.48-.84.65-1.66 1.33-2.54 1.94l-2.63 1.83c-.57.4-.58 1.31-.23 1.83.39.57 1.15.79 1.78.48.89-.45 1.78-.89 2.66-1.34.85-.43 1.73-.8 2.6-1.18.88-.39 1.73-.78 2.57-1.25.84-.46 1.67-.92 2.51-1.38 3.38-1.86 6.76-3.72 10.13-5.58.94-.52 1.89-1.04 2.83-1.56.45-.25.91-.5 1.36-.75.24-.13.47-.26.71-.39l.33-.18c.56-.32.87-.62 1.28-1.11l.33-.66.15-.75c.04-.63-.15-1.24-.5-1.75z"/><path fill="#4C4C4C" d="M427.91 60.723c-.42-2.14-3.54-3.47-5.19-1.74-.1.11-.2.21-.31.32-2.32 2.43-3.7 6.11-5.58 8.92-1.25 1.87-2.39 3.81-3.56 5.73-.65 1.08-1.31 2.15-1.96 3.23-.16.26-.21.52-.19.78-.03.19-.05.38-.08.57-.08.59.59.91 1.07.71.13-.06.26-.11.39-.17.24-.03.47-.13.63-.29 1.51-1.62 3.02-3.24 4.52-4.86 3.06-3.29 6.91-6.81 9.44-10.48.39-.57.73-1.19.82-1.87.04-.29.03-.57-.02-.84z"/><path fill="#4C4C4C" d="M231.11 162.683c-.48 0-.96-.14-1.38-.42l-8.47-5.65a2.5 2.5 0 0 1-.69-3.47 2.497 2.497 0 0 1 3.47-.69l8.47 5.65a2.499 2.499 0 0 1-1.39 4.58z"/><path fill="#4C4C4C" d="M235.16 174.252c-.49 0-.99-.14-1.42-.44l-7.34-5.08a2.493 2.493 0 0 1-.63-3.48 2.493 2.493 0 0 1 3.48-.63l7.34 5.08c1.14.79 1.42 2.34.63 3.48-.49.7-1.27 1.08-2.06 1.08z"/><path fill="#4C4C4C" d="M230.17 179.993c-.5 0-1-.15-1.44-.46l-7.06-4.99c-1.13-.8-1.4-2.36-.6-3.48.8-1.13 2.36-1.4 3.48-.6l7.06 4.99c1.13.8 1.4 2.36.6 3.48a2.5 2.5 0 0 1-2.04 1.06"/><path fill="#4C4C4C" d="M338.65 249.733h-.2l-7.34-.57a2.496 2.496 0 0 1-2.3-2.68c.11-1.38 1.31-2.43 2.68-2.3l7.34.57c1.38.11 2.41 1.31 2.3 2.68-.1 1.31-1.2 2.31-2.49 2.31z"/><path fill="#4C4C4C" d="M250.69 123.243c-1.03 0-1.99-.64-2.36-1.67a2.5 2.5 0 0 1 1.52-3.19l8.75-3.11a2.5 2.5 0 0 1 3.19 1.52 2.5 2.5 0 0 1-1.52 3.19l-8.75 3.11c-.28.1-.56.14-.84.14z"/><path fill="#4C4C4C" d="M188.29 193.693a2.49 2.49 0 0 1-2.35-1.66 2.51 2.51 0 0 1 1.51-3.2l11.86-4.24c1.3-.46 2.73.21 3.2 1.51a2.51 2.51 0 0 1-1.51 3.2l-11.86 4.24q-.42.15-.84.15z"/><path fill="#4C4C4C" d="M204.67 198.213c-.94 0-1.84-.54-2.27-1.45a2.5 2.5 0 0 1 1.21-3.32l6.89-3.21c1.25-.58 2.74-.04 3.32 1.21s.04 2.74-1.21 3.32l-6.89 3.21c-.34.16-.7.24-1.05.24"/><path fill="#4C4C4C" d="M251.26 229.123c-.91 0-1.78-.49-2.22-1.35a2.51 2.51 0 0 1 1.07-3.37l8.19-4.24c1.23-.63 2.74-.15 3.37 1.07s.15 2.73-1.07 3.37l-8.19 4.24c-.37.19-.76.28-1.15.28"/><path fill="#4C4C4C" d="M199.31 216.133c-.91 0-1.78-.49-2.22-1.35a2.51 2.51 0 0 1 1.07-3.37l8.19-4.24c1.23-.63 2.74-.15 3.37 1.07s.15 2.73-1.07 3.37l-8.19 4.24c-.37.19-.76.28-1.15.28"/><path fill="#4C4C4C" d="M243.63 272.793c-.91 0-1.78-.49-2.22-1.35a2.51 2.51 0 0 1 1.07-3.37l8.19-4.24c1.23-.63 2.74-.15 3.37 1.07a2.51 2.51 0 0 1-1.07 3.37l-8.19 4.24c-.37.19-.76.28-1.15.28"/><path fill="#4C4C4C" d="M259.92 291.343c-.91 0-1.78-.49-2.22-1.35a2.51 2.51 0 0 1 1.07-3.37l8.19-4.24a2.51 2.51 0 0 1 3.37 1.07 2.51 2.51 0 0 1-1.07 3.37l-8.19 4.24c-.37.19-.76.28-1.15.28"/><path fill="#4C4C4C" d="M261.33 275.053c-.89 0-1.75-.47-2.2-1.31-.66-1.21-.2-2.73 1.01-3.39l7.08-3.82c1.21-.65 2.73-.2 3.39 1.01s.2 2.73-1.01 3.39l-7.08 3.82c-.38.2-.78.3-1.19.3"/><path fill="#4C4C4C" d="M265.09 281.083a2.503 2.503 0 0 1-1.29-4.65l6.7-4.01c1.18-.71 2.72-.32 3.43.86.71 1.19.32 2.72-.86 3.43l-6.7 4.01c-.4.24-.84.35-1.28.35z"/><path fill="#4C4C4C" d="M279.21 290.963c-.91 0-1.78-.49-2.22-1.35a2.51 2.51 0 0 1 1.07-3.37l8.19-4.23c1.23-.63 2.74-.15 3.37 1.07s.15 2.73-1.07 3.37l-8.19 4.23c-.37.19-.76.28-1.15.28"/><path fill="#4C4C4C" d="M273.56 309.313c-.91 0-1.78-.49-2.22-1.35a2.51 2.51 0 0 1 1.07-3.37l8.19-4.241a2.51 2.51 0 0 1 3.37 1.07 2.51 2.51 0 0 1-1.07 3.37l-8.19 4.24c-.37.19-.76.281-1.15.281"/></svg>