<svg xmlns="http://www.w3.org/2000/svg" width="404" height="221" fill="none" viewBox="0 0 404 221"><path fill="#232323" d="M133.958 144.129c2.236.077 4.329.146 6.227.202-.094-.498-.14-.826-.15-.904a4 4 0 0 1-.009-.333c.002-.07.023-.29.031-.331.479-2.436 1.465-7.447 1.465-10.013 0-20.889-11.796-34.385-30.05-34.385-20.556 0-35.067 13.278-37.868 34.654a15.5 15.5 0 0 0-.114 2.005c.65.264 1.149.841 1.267 1.58l.758 4.752.25.316 3.312.153a35.4 35.4 0 0 1 .835-13.153c4.333-17.061 20.08-27.839 35.108-24.021 15.025 3.817 23.724 20.802 19.392 37.862a38 38 0 0 1-.454 1.616"/><path fill="#232323" d="M379.498 145.387a2.07 2.07 0 0 1 2.255-1.806l.252.026a39.5 39.5 0 0 0 1.506-10.857c0-20.273-15.23-36.766-33.95-36.766s-33.95 16.493-33.95 36.766c0 4.391.234 5.932 1.474 9.697.011.036.046.205.056.254a2.2 2.2 0 0 1 .025.647 8.3 8.3 0 0 1-.369 1.884l5.772.446c-1.942-6.027-2.132-12.681-.479-19.191 4.333-17.061 20.084-27.839 35.108-24.02 7.331 1.861 13.38 6.862 17.035 14.079 3.606 7.122 4.443 15.568 2.357 23.782a36 36 0 0 1-3.623 8.997c2.287.143 4.313.261 6.005.348z"/><path fill="#4C4C4C" d="M226.623 220.811c95.429 0 172.789-4.413 172.789-9.858s-77.36-9.859-172.789-9.859-172.79 4.414-172.79 9.859 77.361 9.858 172.79 9.858"/><path fill="#5B5B5B" d="m51.088 66.306 4.52-.656.04 10.198q.02.717.445 1.312.425.594 1.178.824t1.434-.04a2.05 2.05 0 0 0 1.053-.914l12.617-20.715q.756-1.21-.03-2.388-.784-1.178-2.194-.973l-5.847.849-.222-12.035a2.16 2.16 0 0 0-.513-1.344 2.3 2.3 0 0 0-1.234-.773 1.93 1.93 0 0 0-1.416.163q-.669.35-1.035 1.04l-11.078 22.27q-.591 1.185.183 2.28.773 1.095 2.1.902"/><path fill="#D5C3EE" d="m187.007 21.335-6.309 37.89c8.728-.097 17.962-.087 27.686.059 8.133.122 16.516.194 24.624.262l3.171.027c1.939-4.572 7.428-7.88 13.893-7.88 6.628 0 12.234 3.476 14.035 8.227q4.006.077 7.981.177c-4.343-7.685-18.658-32.733-23.741-38.13-15.894-.915-36.232-1.368-61.34-.632"/><path fill="#D5C3EE" d="M267.056 23.409c6.41 9.368 20.369 31.745 23.861 37.359 8.975.426 17.717 1.019 26.097 1.857l-24.748-35.606c-2.387-.523-10.598-2.167-25.21-3.61"/><path fill="#A17AD8" d="M182.793 21.468c-3.215.11-6.498.236-9.864.385-12.932.574-30.304 1.656-46.833 3.664l-22.853 38.04c16.535-1.89 41.335-3.794 73.254-4.278z"/><path fill="#FFFBE8" d="M113.651 23.062c19.833-3.115 42.919-4.625 59.095-5.342 43.626-1.93 74.219-.357 92.202 1.303 13.143 1.215 21.561 2.626 25.793 3.451-.782-2.873-3.181-7.223-13.229-11.033-16.23-6.154-45.671-8.44-87.513-6.803-28.309 1.109-61.246 4.318-72.488 12.964q-.719.596-1.412 1.23c-1.3 1.295-2.139 2.702-2.448 4.23"/><path fill="#7A42C8" d="M394.227 101.64c-.23.241-.481.472-.781.679-.971.672-2.165.995-3.514.995-3.929 0-9.167-2.743-14.026-7.594-3.025-3.02-5.411-6.364-6.718-9.414-1.834-4.279-1.001-6.697-.076-7.93-24.728-10.99-63.49-13.516-104.447-14.311-.57 5.936-6.889 10.633-14.593 10.633-7.86 0-14.275-4.89-14.616-10.996l-2.483-.021c-8.115-.069-16.505-.14-24.651-.263-69.392-1.04-118.835 5.13-126.813 7.762-2.858.943-5.37 4.429-7.685 9.224l3.737-3.506a2.07 2.07 0 0 1 1.277-.555l23.504-1.569a2.06 2.06 0 0 1 1.597.599 2.07 2.07 0 0 1 .604 1.595l-.776 12.216a2.07 2.07 0 0 1-1.864 1.927L83.76 92.87l-13.136 16.16a2.07 2.07 0 0 1-1.604.764l-.045-.001a2.07 2.07 0 0 1-1.615-.835l-2.543-3.423-.255.27-.281.842c-3.992 11.71-4.957 22.427-2.82 29.719 2.032-.287 4.695-.654 7.9-1.081-.011-.928.018-1.861.142-2.805 3.093-23.594 19.174-38.252 41.968-38.252 20.448 0 34.186 15.481 34.186 38.521 0 2.157-.527 5.427-1.022 8.103 4.765-.423 15.437-1.321 29.698-2.23.003-.051-.002-.101.005-.152.493-4.98 1.012-9.956 1.206-14.964.297-4.999.4-10.015.364-15.024A290 290 0 0 0 175 85.941c-.047-1.906-1.425-9.3 1.811-8.683.423.104.762.386.954.741 1.3 2.44 1.389 5 1.668 7.54q.37 3.813.636 7.63a228.5 228.5 0 0 1-.244 34.436c-.33 3.468-.776 7.281-1.293 10.756 19.683-1.196 45.208-2.334 71.255-2.347h.481c15.907 0 28.038.398 37.279.976 1.063-4.576 2.104-9.182 2.986-13.777 2.004-9.847 2.484-20.029 1.164-29.964-.382-2.458-.835-4.91-1.526-7.276-.612-2.329-1.723-4.57-2.146-6.923-.414-1.55 1.284-2.723 2.497-1.597 2.152 2.174 2.79 4.803 3.63 7.356.783 2.57 1.301 5.185 1.74 7.804 1.217 7.879 1.127 15.791.25 23.672-.959 7.146-2.607 14.056-4.373 20.995 10.692.809 16.85 1.856 20.309 2.685-.473-2.127-.603-4.056-.603-7.215 0-18.998 12.125-35.011 28.5-39.588-1.818-3.323-4.397-6.294-6.835-9.18-1.945-2.178-3.942-4.29-5.548-6.757-.681-1.041.561-2.35 1.631-1.733C334.548 78.5 341.689 86 344.152 92.268a35.6 35.6 0 0 1 5.409-.42c21.001 0 38.086 18.349 38.086 40.902 0 3.856-.504 7.651-1.484 11.316 4.447.543 7.582 1.111 9.752 1.606 4.129-8.943 6.78-25.766-1.688-44.032M115.014 81.685c0-6.133 6.113-11.122 13.627-11.122 1.071 0 2.108.112 3.108.303.231-.514.508-.958.841-1.298.584-.596 1.342-.924 2.133-.924 4.47 0 8.247 5.735 8.247 12.524 0 7.374-2.925 12.524-7.113 12.524-1.066 0-1.968-.514-2.707-1.524a16.3 16.3 0 0 1-4.509.638c-7.514 0-13.627-4.989-13.627-11.121m88.398 3.192H192.08a3.714 3.714 0 0 1-3.71-3.71 3.713 3.713 0 0 1 3.71-3.708h11.332a3.713 3.713 0 0 1 3.709 3.709 3.713 3.713 0 0 1-3.709 3.71"/><path fill="#D5C3EE" d="M372.446 80.825c-.312.311-.425 1.596.543 3.852 1.088 2.54 3.216 5.498 5.839 8.116 5.565 5.557 10.785 7.152 12.266 6.125.828-.573-.045-3.11-1.054-4.743-3.858-5.423-9.371-9.862-16.213-13.502-.236-.09-.928-.3-1.381.152"/><path fill="#4C4C4C" d="M395.651 95.316a37 37 0 0 0-2.138-3.387 7 7 0 0 0-.163-.223c-4.147-5.786-9.964-10.515-17.131-14.38l-1.134-.595c-13.628-7.041-31.875-11.123-52.629-13.522l-27.162-39.08c-.04-.16-.092-.468-.136-.722-1.13-6.64-4.573-26.849-105.32-22.9-69.189 2.71-79.353 13.978-80.373 22.49L79.511 67.52c-5.551 2.34-9.46 10.142-13.009 19.754l-7.643 7.17a2.067 2.067 0 0 0-.245 2.74l3.083 4.152-.74 2.213c-3.712 3.735-7.535 6.268-11.382 6.268-1.807 0-3.558-.013-5.244-.025-11.564-.082-19.928-.143-23.601 3.963-1.105 1.236-1.713 2.768-1.816 4.573-5 1.446-11.079 4.435-18.074 9.601a2.068 2.068 0 0 0 2.456 3.326c6.568-4.85 12.015-7.508 16.276-8.815.803 1.97 2.343 4.004 4.455 5.121 1.596.844 4.162 1.506 7.327-.138 2.07-1.075 3.249-2.754 3.234-4.607-.014-1.829-1.178-3.456-3.193-4.463-1.926-.964-4.66-1.389-8.126-.948.153-.409.359-.688.544-.894 2.427-2.714 10.798-2.65 20.488-2.584 1.696.012 3.457.025 5.274.025 3.197 0 6.206-1.139 9.076-3.049-3.383 12.412-2.692 20.869-1.306 26.057l-.433.065a2.064 2.064 0 0 0-1.725 2.418c.098.538 2.512 13.082 11.666 13.082l.178-.001c.652-.012 2.315-.217 7.028-.81l.927-.116a2.07 2.07 0 0 0 1.784-2.378l-.54-3.386 3.641.169c2.581 10.008 9.669 18.051 19.433 20.531 2.044.52 4.1.768 6.141.768 11.206 0 21.89-7.519 26.996-19.085 3.288.116 6.305.214 8.908.286 1.431 3.819 4.296 8.421 9.818 8.618q.08.003.181.003c.765 0 2.533-.123 6.891-.437 15.233-1.093 50.905-3.651 96.062-3.651 29.476 0 52.198 3.806 52.424 3.845a2.07 2.07 0 0 0 1.712-.485c.563-.495 3.962-3.556 6.356-7.171 2.606.203 5.852.455 9.507.736.05.102.095.207.147.309 3.654 7.217 9.704 12.217 17.034 14.079a25.2 25.2 0 0 0 6.205.778c5.35 0 10.69-1.709 15.484-5.023 2.71-1.872 5.108-4.174 7.143-6.802 3.142.203 5.917.37 8.153.487l-.621 5.054a2.07 2.07 0 0 0 1.82 2.307c7.076.802 11.31 1.517 11.352 1.524q.173.03.346.03c.499 0 .985-.181 1.365-.515.868-.762 8.487-7.609 8.749-13.204a2.07 2.07 0 0 0-1.05-1.898 5 5 0 0 0-.544-.252c1.623-3.632 2.997-8.214 3.669-13.483 1.128-8.849.673-22.632-7.901-38.035M29.547 122.05c.743.371.906.728.907.796 0 .076-.177.475-1.006.905-1.282.666-2.422.716-3.487.153-.98-.518-1.756-1.462-2.256-2.391 2.745-.357 4.704-.032 5.842.537m361.162 36.384a246 246 0 0 0-8.505-1.154l1.151-9.377c7.825.849 11.818 1.764 13.664 2.305-.989 2.625-4 6.059-6.31 8.226m-14.119-18.107c2.086-8.214 1.249-16.66-2.357-23.782-3.655-7.217-9.704-12.218-17.035-14.079-15.024-3.819-30.775 6.959-35.108 24.02-1.653 6.51-1.463 13.164.479 19.191l-5.772-.446a8.3 8.3 0 0 0 .383-2.111 2 2 0 0 0-.039-.42 6 6 0 0 0-.056-.254c-1.24-3.765-1.474-5.306-1.474-9.697 0-20.273 15.23-36.766 33.95-36.766s33.95 16.493 33.95 36.766c0 3.709-.507 7.354-1.506 10.857l-.252-.026a2.07 2.07 0 0 0-2.255 1.806l-.526 4.286a558 558 0 0 1-6.005-.348 36 36 0 0 0 3.623-8.997m-218.647 12.234c-3.439.247-6.164.417-6.628.426-4.093-.146-5.977-5.062-6.737-7.978 10.69-.956 57.068-4.837 105.211-4.861h.477c43.79 0 58.383 3.042 62.465 4.257-.986 2.628-4.002 6.067-6.315 8.237-4.744-.735-25.782-3.743-52.115-3.743-45.306 0-81.081 2.566-96.358 3.662m-42.923-47.91c-15.027-3.818-30.775 6.959-35.108 24.02a35.4 35.4 0 0 0-.835 13.153l-3.312-.153-.25-.316-.758-4.752a2.05 2.05 0 0 0-1.267-1.58c0-.668.026-1.336.114-2.005 2.801-21.375 17.312-34.654 37.867-34.654 18.255 0 30.051 13.497 30.051 34.385 0 2.566-.986 7.577-1.465 10.013a4 4 0 0 0-.031.331c-.003.073.004.294.009.334.01.077.056.405.15.903a1171 1171 0 0 1-6.227-.202q.243-.798.454-1.616c4.332-17.06-4.367-34.045-19.392-37.861m-55.213 36.127a991 991 0 0 1 11.183-1.537l1.36 8.519c-2.833.355-4.971.618-5.39.626l-.091.001c-4.037 0-6.156-4.759-7.062-7.609m326.356 3.287a43.8 43.8 0 0 0 1.484-11.316c0-22.553-17.085-40.902-38.086-40.902-1.837 0-3.641.149-5.409.42-2.463-6.267-9.604-13.768-14.929-16.776-1.07-.617-2.312.692-1.631 1.733 1.606 2.467 3.603 4.58 5.548 6.757 2.438 2.887 5.017 5.858 6.835 9.18-16.375 4.577-28.5 20.59-28.5 39.588 0 3.159.13 5.089.603 7.215-3.459-.829-9.617-1.876-20.309-2.685 1.766-6.939 3.414-13.849 4.373-20.995.877-7.881.967-15.793-.25-23.672-.439-2.62-.957-5.234-1.74-7.803-.84-2.553-1.478-5.183-3.63-7.357-1.213-1.126-2.911.047-2.497 1.597.423 2.354 1.534 4.594 2.146 6.924.691 2.366 1.144 4.817 1.526 7.275 1.32 9.935.84 20.117-1.164 29.964-.882 4.596-1.923 9.202-2.986 13.777-9.241-.578-21.372-.976-37.279-.976h-.481c-26.047.013-51.572 1.151-71.255 2.348.517-3.476.963-7.289 1.293-10.757a228.5 228.5 0 0 0 .244-34.435 279 279 0 0 0-.636-7.63c-.279-2.54-.368-5.101-1.668-7.54a1.5 1.5 0 0 0-.954-.741c-3.236-.618-1.858 6.777-1.811 8.682a290 290 0 0 1 .908 22.542c.036 5.01-.067 10.025-.364 15.024-.194 5.008-.713 9.984-1.206 14.965-.007.051-.002.1-.005.151-14.261.909-24.933 1.807-29.698 2.23.495-2.676 1.022-5.946 1.022-8.103 0-23.04-13.738-38.52-34.186-38.52-22.794 0-38.875 14.657-41.968 38.251a19.6 19.6 0 0 0-.141 2.806c-3.206.426-5.869.794-7.9 1.08-2.138-7.292-1.173-18.009 2.819-29.719l.281-.842.255-.27 2.543 3.424a2.068 2.068 0 0 0 3.264.071L83.76 92.87l18.143-1.76a2.07 2.07 0 0 0 1.864-1.927l.776-12.216a2.07 2.07 0 0 0-.604-1.595 2.06 2.06 0 0 0-1.597-.599l-23.504 1.57a2.07 2.07 0 0 0-1.277.555l-3.737 3.506c2.314-4.796 4.827-8.282 7.685-9.225 7.978-2.632 57.421-8.803 126.813-7.762 8.146.123 16.536.194 24.651.263l2.483.021c.341 6.107 6.756 10.996 14.616 10.996 7.704 0 14.023-4.696 14.593-10.633 40.957.795 79.719 3.322 104.447 14.31-.925 1.234-1.758 3.652.076 7.931 1.307 3.05 3.693 6.394 6.718 9.414 4.859 4.851 10.097 7.594 14.026 7.594 1.349 0 2.543-.323 3.514-.995.3-.207.551-.438.781-.679 8.468 18.266 5.817 35.089 1.688 44.032-2.17-.495-5.305-1.062-9.752-1.606m3.877-49.891c1.009 1.633 1.882 4.17 1.054 4.743-1.481 1.026-6.701-.568-12.266-6.125-2.622-2.618-4.751-5.576-5.839-8.116-.968-2.257-.855-3.54-.543-3.852.453-.453 1.145-.243 1.381-.152 6.842 3.64 12.355 8.079 16.213 13.502M248.347 21.967c5.083 5.396 19.398 30.445 23.741 38.13q-3.975-.101-7.981-.177c-1.801-4.751-7.407-8.228-14.035-8.228-6.465 0-11.954 3.309-13.893 7.88l-3.171-.026c-8.108-.069-16.491-.14-24.624-.263-9.724-.145-18.958-.155-27.686-.06l6.309-37.888c25.108-.736 45.446-.283 61.34.632m12.238 41.229c0 4.062-4.716 7.367-10.513 7.367s-10.513-3.305-10.513-7.367c0-4.063 4.716-7.369 10.513-7.369s10.513 3.306 10.513 7.369m-134.489-37.68c16.529-2.007 33.901-3.09 46.833-3.663a926 926 0 0 1 9.864-.385l-6.296 37.81c-31.919.485-56.719 2.39-73.254 4.279zm164.821 35.252c-3.492-5.614-17.451-27.992-23.861-37.36 14.612 1.444 22.823 3.087 25.21 3.61l24.748 35.607c-8.38-.838-17.122-1.431-26.097-1.857M79.851 80.42l15.579-1.04-.663 8.268-12.266 1.19a2.07 2.07 0 0 0-1.405.754l-12.003 14.766-6.06-8.16zm37.66-62.817C128.753 8.957 161.69 5.748 189.999 4.64c41.842-1.637 71.283.65 87.513 6.803 10.048 3.81 12.447 8.16 13.229 11.034-4.232-.826-12.65-2.237-25.793-3.452-17.983-1.66-48.576-3.234-92.202-1.303-16.176.718-39.262 2.227-59.095 5.343.309-1.529 1.148-2.936 2.448-4.23q.635-.633 1.412-1.23"/><path fill="#D5C3EE" d="M120.04 139.375c1.526-4.067 1.584-8.394.164-12.183-1.382-3.688-4.01-6.42-7.399-7.691a12 12 0 0 0-4.21-.762c-2.152 0-4.343.568-6.423 1.69-3.561 1.92-6.362 5.217-7.888 9.285-1.526 4.067-1.584 8.394-.164 12.183 1.382 3.688 4.01 6.42 7.399 7.691 3.389 1.272 7.166.942 10.633-.928 3.561-1.92 6.362-5.218 7.888-9.285"/><path fill="#D5C3EE" d="M362.414 137.468c3.111-8.295-.135-17.211-7.235-19.874a12 12 0 0 0-4.21-.762c-2.153 0-4.343.568-6.424 1.69-3.561 1.919-6.362 5.217-7.887 9.284-3.112 8.296.134 17.212 7.235 19.876 7.102 2.664 15.409-1.919 18.521-10.214"/><path fill="#A17AD8" d="M312.731 144.408c-4.082-1.215-18.675-4.257-62.465-4.257h-.477c-48.143.024-94.521 3.905-105.211 4.86.76 2.917 2.644 7.832 6.737 7.979.464-.009 3.189-.18 6.628-.426 15.277-1.096 51.052-3.663 96.358-3.663 26.333 0 47.371 3.009 52.115 3.744 2.313-2.171 5.329-5.61 6.315-8.237"/><path fill="#A17AD8" d="m383.355 147.904-1.151 9.376c4.152.498 7.073.93 8.505 1.154 2.31-2.167 5.321-5.6 6.31-8.226-1.846-.541-5.839-1.456-13.664-2.304"/><path fill="#A17AD8" d="M66.869 148.389h.09c.42-.008 2.558-.272 5.39-.627l-1.359-8.519c-5.088.672-8.931 1.214-11.183 1.537.906 2.85 3.025 7.609 7.061 7.609"/><path fill="#7A42C8" d="M250.072 55.828c-5.797 0-10.513 3.306-10.513 7.368s4.716 7.368 10.513 7.368 10.513-3.305 10.513-7.368c0-4.062-4.716-7.368-10.513-7.368"/><path fill="#4C4C4C" d="M133.15 92.167c.739 1.01 1.641 1.524 2.707 1.524 4.188 0 7.113-5.15 7.113-12.524 0-6.789-3.777-12.524-8.247-12.524-.791 0-1.549.328-2.133.924-.333.34-.61.784-.841 1.298-1-.191-2.037-.303-3.108-.303-7.514 0-13.627 4.989-13.627 11.121s6.113 11.122 13.627 11.122c1.582 0 3.095-.232 4.509-.639m5.685-11c0 4.66-1.394 7.708-2.579 8.288-.746-1.422-1.4-6.067-1.451-10.593-.043-2.259.204-4.753.549-5.91 1.459.74 3.481 3.783 3.481 8.215"/><path fill="#fff" d="M134.805 78.864c.05 4.526.705 9.17 1.451 10.593 1.185-.58 2.579-3.628 2.579-8.288 0-4.432-2.022-7.474-3.481-8.214-.345 1.157-.592 3.65-.549 5.909"/><path fill="#5B5B5B" d="M16.772 143.575c5.251-1.954 10.889-3.834 16.397-4.581a2.069 2.069 0 1 0-.593-4.093c-6.035 1.14-11.478 3.279-17.048 5.661-1.899.894-.73 3.721 1.244 3.013"/><path fill="#5B5B5B" d="M43.383 143.986c-2.825.243-5.649.584-8.408 1.19-8.283 1.75-16.296 4.571-23.644 8.829-1.597.963-.368 3.419 1.36 2.724a158 158 0 0 1 7.611-2.91c7.597-2.736 15.452-4.794 23.46-5.789a2.03 2.03 0 0 0-.38-4.044"/><path fill="#5B5B5B" d="m40.779 102.641.099-.019 4.528-.881c1.78-.168 2.961-2.102 2.193-3.744a2.65 2.65 0 0 0-3.506-1.333l-4.56 2.047c-2.207 1.017-1.171 4.367 1.246 3.93"/><path fill="#5B5B5B" d="M47.306 88.094c1.846.735 3.715-1.374 2.71-3.124-1.512-2.466-3.796-4.334-6.175-5.918a2.776 2.776 0 0 0-3.33.333 2.78 2.78 0 0 0-.074 3.996c1.98 1.977 4.201 3.759 6.869 4.713"/><path fill="#FFFBE8" d="m63.032 96.199 6.061 8.16 12.003-14.767c.349-.429.855-.7 1.405-.754l12.266-1.19.663-8.267-15.579 1.04z"/><path fill="#4C4C4C" d="M203.412 77.46H192.08a3.713 3.713 0 0 0-3.71 3.709 3.714 3.714 0 0 0 3.71 3.71h11.332a3.713 3.713 0 0 0 3.709-3.71 3.713 3.713 0 0 0-3.709-3.709"/></svg>