<svg xmlns="http://www.w3.org/2000/svg" width="388" height="303" fill="none" viewBox="0 0 388 303"><path fill="#8CBA3B" d="M374.866 144.117c5.309-5.475 8.167-12.658 8.049-20.225l-.173-11.147c-.242-15.54-12.963-28.017-28.451-28.017q-.224 0-.448.003l-6.649.104c.06 3.901.101 7.832.105 11.773l3.359-.052.304-.002c10.474 0 19.075 8.436 19.239 18.946l.094 6.028c.164 10.611-8.335 19.378-18.945 19.543l-6.964.108a137 137 0 0 1-2.494 11.814l13.01-.202c7.567-.118 14.657-3.198 19.964-8.674"/><path fill="#4C4C4C" d="M387.747 112.667c-.285-18.274-15.242-32.945-33.455-32.945q-.263 0-.528.004l-6.654.104-.085-4.568c-.102-5.34-.198-10.383-.241-15.406-.044-5.19-5.321-9.88-15.684-13.94a78 78 0 0 0-2.741-1.01c-15.796-5.996-45.126-8.01-66.978-7.672-13.665.213-30.224 1.437-44.53 3.909 1.245-2.96 1.98-6.335 1.172-9.65-.981-4.032-3.986-7.233-8.93-9.513-5.244-2.42-11.572-.991-16.922 3.823-6.132 5.517-11.147 15.874-9.526 27.08-4.045 3.475-5.825 7.595-5.601 12.552.066 1.475.124 2.916.184 4.364-6.023-1.18-13.808-1.456-23.595-.9-.014 0-.027.005-.04.006-13.969.682-31.044 3.294-48.734 7.487-18.349 4.35-35.347 9.922-48.325 15.817-5.32 2.178-11.668 5.243-17.233 8.841-9.252 5.979-13.318 11.567-12.086 16.608 1.327 5.427 2.6 10.963 3.948 16.824q.49 2.134.987 4.286l-6.4 1.517c-8.664 2.055-16.027 7.387-20.732 15.016s-6.165 16.602-4.11 25.267l2.571 10.848c2.055 8.665 7.387 16.028 15.015 20.733 5.375 3.314 11.415 5.018 17.546 5.018 2.572 0 5.16-.3 7.722-.907l13.735-3.256c6.35 10.44 14.174 19.134 24.138 24.954 7.834 4.577 22.451 8.46 39.911 8.459 4.115 0 8.394-.216 12.774-.69 18.39-1.988 44.253-9.205 63.027-32.29 5.068-6.233 8.302-13.142 10.15-20.769l.737.485c1.121.774 3.713 2.438 3.72 2.442 15.974 9.895 33.397 13.721 49.799 13.721 27.222 0 51.627-10.518 61.898-21.231 7.938-8.28 13.264-18.574 16.819-30.063l14.509-.225c18.451-.287 33.228-15.532 32.941-33.982zm-63.016 66.345a56 56 0 0 1-4.693 5.608c-7.501 7.823-22.607 14.757-38.722 17.821a26.08 26.08 0 0 1-8.56-19.347c0-14.419 11.73-26.149 26.15-26.149 12.91 0 23.846 9.42 25.825 22.067m-25.825-27.074c-17.18 0-31.157 13.977-31.157 31.156a31.06 31.06 0 0 0 7.534 20.314q-.861.113-1.732.213c-15.191 1.727-36.817.889-57.55-11.422 1.793-13.208.137-28.378-3.144-45.977 4.511 4.587 10.781 7.438 17.707 7.438 13.701 0 24.846-11.147 24.846-24.848s-11.145-24.847-24.846-24.847c-10.547 0-19.574 6.608-23.175 15.899l-1.087-4.948c-1.804-8.2-3.668-16.679-5.523-25.67-1.073-5.205-3.97-8.742-9.076-11.078-.096-.16-.201-.314-.303-.469-1.897-2.894-4.88-5.065-9.104-6.553-.079-1.957-.161-3.93-.252-5.936-.094-2.095.258-4.292 1.897-6.493 2.74 12.318 43.234 16.61 73.304 16.61a304 304 0 0 0 6.096-.062 36 36 0 0 0-.32 4.71c0 19.689 16.017 35.706 35.706 35.706s35.705-16.017 35.705-35.705a35.5 35.5 0 0 0-3.512-15.436c4.83-2.33 7.952-5.08 8.537-8.286 1.478 1.296 2.311 2.545 2.321 3.645.043 5.05.139 10.105.241 15.458.651 34.19 1.362 72.299-13.543 97.936-4.135-12.517-15.924-21.355-29.57-21.355M133.782 240.75c-21.7 2.349-40.94-2.042-49.623-7.115-7.535-4.402-13.79-10.671-19.093-18.207 3.573 1.046 8.364 2.102 14.114 2.534 3.769.284 7.687.423 11.715.423 19.389 0 41.255-3.227 60.604-9.083 16.971-5.136 38.983-14.323 52.793-29.717-.695 11.923-3.861 22.124-10.829 30.693-17.7 21.765-42.224 28.584-59.681 30.472m-112.66-32.862c-6.49-4.003-11.026-10.263-12.771-17.627l-2.572-10.848c-1.746-7.363-.503-14.993 3.5-21.484 4.004-6.49 10.264-11.026 17.626-12.772l6.377-1.512c.888 3.801 1.8 7.624 2.75 11.448l-3.133.743c-10.325 2.448-16.735 12.84-14.287 23.166l1.39 5.866c1.181 4.984 4.248 9.219 8.635 11.924 3.09 1.906 6.563 2.886 10.088 2.886 1.48 0 2.97-.173 4.443-.522l6.45-1.529a135 135 0 0 0 5.27 10.851l-12.281 2.911c-7.365 1.746-14.994.503-21.484-3.501m189.6-79.076c0-10.94 8.901-19.841 19.842-19.841s19.84 8.901 19.84 19.841-8.9 19.842-19.84 19.842c-10.941 0-19.842-8.901-19.842-19.842m-174.681 4.549c-1.351-5.879-2.627-11.431-3.962-16.891-.243-.996.245-2.292 1.351-3.775.012.06.012.121.027.181 1.293 5.458 9.522 8.22 24.472 8.22q1.076 0 2.198-.019c14.754-.251 33.758-2.968 53.51-7.65 29.501-6.994 71.836-21.914 71.567-35.187 1.126.865 1.857 1.768 2.351 2.635q.06.194.153.38c.409.81.712 1.71.928 2.757 1.234 5.98 2.469 11.713 3.689 17.302-.049.059-.103.11-.147.175-9.427 13.877-30.613 26.113-59.657 34.454-25.142 7.221-54.003 10.711-75.32 9.106-10.569-.796-18.06-3.905-19.513-4.547q-.833-3.594-1.647-7.141m24.622 75.166c-4.67-8.063-8.507-17.185-11.796-26.842 3.738 1.305 9.697 2.951 17.173 3.513a148 148 0 0 0 11.09.394c20.058 0 44.075-3.497 65.315-9.673 27.032-7.861 47.614-19.285 58.709-32.475.097.543.198 1.092.291 1.63l.071.415c1.613 9.357 2.682 17.997 2.894 25.949-22.314 31.555-86.604 44.41-124.855 41.532-10.145-.763-17.152-3.658-18.892-4.443m-3.838-58.486c3.535.266 7.269.396 11.156.396 20.16 0 44.398-3.5 65.923-9.682 27.811-7.988 48.815-19.617 59.828-33.016l.428 1.949c1.332 6.055 2.611 11.871 3.789 17.461.035.168.71 3.409 1.003 4.842l.287 1.408c.233 1.155.455 2.29.677 3.424-21.284 31.021-93.211 46.417-133.5 43.382-11.11-.835-18.729-4.313-19.56-4.707-2.952-9.475-5.461-19.326-7.779-29.085 3.717 1.297 9.924 3.039 17.748 3.628m-9.147 42.901-5.665 1.342c-3.681.874-7.498.251-10.749-1.752-3.248-2.004-5.517-5.136-6.39-8.819l-1.391-5.865c-1.81-7.641 2.932-15.329 10.571-17.141l3.208-.76c2.93 11.348 6.27 22.576 10.416 32.995m64.804-84.387a334 334 0 0 1-14.374 3.077c8.346-3.77 15.839-9.021 23.705-16.736 6.95-6.818 15.807-8.89 24.01-8.89 8.645 0 16.563 2.303 20.749 3.78-12.833 6.787-32.679 13.694-54.09 18.769m45.982-34.81q1.061-.018 2.06-.018c14.653 0 19.275 2.815 19.644 4.37.284 1.199-1.358 4.2-8.113 8.522-.097-.062-.188-.134-.295-.183-.337-.153-8.361-3.763-18.9-5.04-14.232-1.724-26.178 1.71-34.554 9.926-17.247 16.918-32.065 21.172-60.793 24.765-14.27-.053-18.82-2.827-19.185-4.366-.385-1.626 2.763-6.568 17.44-13.632 12.976-6.245 30.82-12.22 50.245-16.825 19.423-4.605 38.051-7.275 52.451-7.519m37.055-44.22c3.872-3.485 8.055-4.579 11.478-3 3.486 1.61 5.56 3.679 6.163 6.152 1.257 5.162-3.709 11.552-5.34 13.652-3.15 4.052-2.74 7.473-1.84 9.63 2.03 4.868 9.003 8.972 21.124 12.378-34.258-3.542-38.124-10.865-38.349-11.376a3 3 0 0 0-.087-.33c-3.737-11.026.932-21.78 6.851-27.106M314.299 46.2c15.962 3.24 20.229 7.257 20.255 8.928.026 1.67-4.117 5.817-19.98 9.553-13.092 3.084-30.272 5.021-48.729 5.518-.672-.14-1.45-.24-2.344-.348-42.422-5.117-51.353-12.108-52.901-15.82-.364-.873-.638-2.302 1.172-4.63a54 54 0 0 0 1.937-2.626c13.336-2.662 30.049-4.26 47.75-4.536 19.948-.305 38.725 1.097 52.84 3.961m-15.572 64.474c-16.928 0-30.7-13.772-30.7-30.7 0-1.652.135-3.272.388-4.854 19.741-.72 43.422-3.402 57.872-8.652a30.5 30.5 0 0 1 3.139 13.507c0 16.927-13.771 30.699-30.699 30.699m48.553-9.059 3.455-.054.225-.002c7.748 0 14.113 6.243 14.234 14.019l.094 6.027c.122 7.851-6.166 14.338-14.017 14.46l-6.132.095c1.516-11.148 2.043-22.846 2.141-34.545m-2.895 39.564 6.964-.109c10.61-.164 19.11-8.931 18.945-19.542l-.094-6.028c-.164-10.51-8.765-18.947-19.239-18.947q-.151 0-.304.003l-3.359.052a820 820 0 0 0-.105-11.774l6.649-.103q.224-.004.449-.004c15.487 0 28.208 12.477 28.45 28.017l.173 11.148c.118 7.567-2.74 14.749-8.049 20.225-5.307 5.475-12.397 8.556-19.964 8.673l-13.01.203a137 137 0 0 0 2.494-11.814"/><path fill="#8CBA3B" d="M342.02 75.359c-.102-5.353-.199-10.409-.242-15.458-.009-1.1-.843-2.349-2.321-3.646-.585 3.207-3.707 5.956-8.537 8.287a35.5 35.5 0 0 1 3.513 15.435c0 19.689-16.018 35.706-35.706 35.706s-35.706-16.017-35.706-35.706c0-1.597.116-3.167.321-4.71a288 288 0 0 1-6.097.061c-30.069 0-70.564-4.291-73.304-16.61-1.639 2.202-1.991 4.4-1.896 6.494.09 2.006.172 3.979.251 5.935 4.224 1.49 7.207 3.66 9.104 6.554.102.155.207.309.303.468 5.107 2.336 8.003 5.874 9.076 11.078 1.855 8.992 3.72 17.471 5.524 25.671l1.087 4.948c3.6-9.291 12.627-15.899 23.174-15.899 13.701 0 24.847 11.146 24.847 24.847s-11.146 24.848-24.847 24.848c-6.926 0-13.196-2.851-17.707-7.438 3.281 17.599 4.937 32.769 3.145 45.977 20.732 12.311 42.358 13.148 57.549 11.422a115 115 0 0 0 1.732-.213 31.06 31.06 0 0 1-7.533-20.314c0-17.179 13.976-31.156 31.156-31.156 13.647 0 25.435 8.838 29.57 21.355 14.906-25.637 14.195-63.746 13.544-97.936"/><path fill="#8CBA3B" d="m49.618 197.627-6.45 1.529a19.3 19.3 0 0 1-4.442.522c-3.525 0-6.998-.98-10.088-2.886-4.388-2.705-7.454-6.94-8.635-11.924l-1.39-5.866c-2.448-10.326 3.961-20.719 14.287-23.166l3.133-.743a836 836 0 0 1-2.75-11.448l-6.377 1.512c-7.363 1.745-13.623 6.281-17.626 12.772s-5.247 14.12-3.5 21.484l2.571 10.848c1.746 7.363 6.282 13.624 12.772 17.627s14.12 5.247 21.485 3.501l12.28-2.911a135 135 0 0 1-5.27-10.851"/><path fill="#D2E6B0" d="M204.293 179.587c-13.811 15.394-35.822 24.58-52.794 29.717-19.348 5.856-41.214 9.082-60.604 9.082-4.027 0-7.945-.138-11.715-.422-5.75-.433-10.54-1.488-14.113-2.534 5.302 7.536 11.557 13.805 19.093 18.207 8.683 5.073 27.922 9.463 49.622 7.115 17.457-1.888 41.981-8.707 59.682-30.472 6.968-8.569 10.134-18.77 10.829-30.693"/><path fill="#D2E6B0" d="M46.856 175.499c.83.393 8.45 3.872 19.559 4.707 40.29 3.035 112.216-12.361 133.501-43.382a605 605 0 0 0-.678-3.424l-.287-1.408c-.292-1.433-3.46-16.248-4.791-22.303l-.428-1.949c-11.013 13.399-32.017 25.028-59.828 33.016-21.526 6.182-45.764 9.682-65.924 9.682-3.886 0-7.62-.13-11.155-.396-7.824-.589-14.032-2.331-17.748-3.628 2.318 9.759 4.826 19.61 7.78 29.085"/><path fill="#8CBA3B" d="M79.555 212.969c38.25 2.878 102.541-9.977 124.855-41.532-.212-7.952-1.281-16.592-2.894-25.949l-.071-.415c-.093-.538-.194-1.087-.291-1.63-11.095 13.19-31.677 24.614-58.709 32.475-21.24 6.176-45.257 9.673-65.315 9.673-3.86 0-7.572-.129-11.09-.394-7.476-.563-13.435-2.209-17.173-3.513 3.288 9.657 7.127 18.779 11.796 26.842 1.74.785 8.747 3.68 18.892 4.443"/><path fill="#8CBA3B" d="M37.689 140.502c1.452.642 8.943 3.752 19.512 4.547 21.317 1.606 50.179-1.884 75.321-9.105 29.044-8.341 50.23-20.577 59.657-34.455.043-.064.098-.116.146-.175a1508 1508 0 0 1-3.688-17.301c-.216-1.047-.519-1.948-.929-2.757a2.5 2.5 0 0 1-.153-.38c-.494-.867-1.225-1.77-2.351-2.635.27 13.273-42.066 28.193-71.566 35.186-19.753 4.683-38.756 7.399-53.51 7.651a137 137 0 0 1-2.199.019c-14.95 0-23.178-2.763-24.472-8.22-.014-.06-.014-.121-.027-.181-1.106 1.483-1.594 2.779-1.35 3.774 1.334 5.46 2.61 11.013 3.961 16.891q.815 3.548 1.648 7.141"/><path fill="#A17AD8" d="M55.767 98.09c-14.676 7.063-17.824 12.005-17.44 13.631.366 1.539 4.915 4.313 19.186 4.366 28.727-3.593 43.546-7.847 60.793-24.765 8.376-8.216 20.322-11.65 34.553-9.926 10.54 1.277 18.564 4.887 18.9 5.04.108.05.198.12.296.183 6.754-4.322 8.397-7.323 8.112-8.521-.368-1.556-4.99-4.37-19.644-4.37q-.997 0-2.059.017c-14.4.244-33.028 2.914-52.451 7.519-19.425 4.604-37.269 10.58-50.246 16.825"/><path fill="#4C4C4C" d="M199.367 303c74.56 0 135.002-5.718 135.002-12.772s-60.442-12.772-135.002-12.772c-74.559 0-135 5.718-135 12.772S124.807 303 199.366 303"/><path fill="#AD5400" d="M121.813 94.898c-7.866 7.715-15.359 12.966-23.705 16.736a335 335 0 0 0 14.374-3.077c21.411-5.075 41.257-11.983 54.09-18.77-4.186-1.476-12.104-3.78-20.75-3.78-8.202 0-17.059 2.073-24.009 8.891"/><path fill="#D2E6B0" d="M230.564 148.655c10.941 0 19.841-8.901 19.841-19.842s-8.9-19.841-19.841-19.841c-10.94 0-19.841 8.901-19.841 19.841s8.901 19.842 19.841 19.842"/><path fill="#D2E6B0" d="M268.415 75.123a31 31 0 0 0-.388 4.855c0 16.928 13.772 30.699 30.7 30.699s30.699-13.772 30.699-30.7c0-4.844-1.132-9.427-3.139-13.506-14.45 5.25-38.132 7.932-57.872 8.652"/><path fill="#A17AD8" d="M213.71 46.777a55 55 0 0 1-1.937 2.626c-1.81 2.33-1.536 3.758-1.173 4.63 1.548 3.713 10.48 10.704 52.901 15.82.895.109 1.673.21 2.344.349 18.458-.497 35.637-2.434 48.73-5.518 15.863-3.736 20.006-7.883 19.979-9.553-.025-1.671-4.292-5.688-20.255-8.928-14.114-2.864-32.891-4.266-52.839-3.961-17.702.276-34.415 1.874-47.75 4.535"/><path fill="#AD5400" d="M226.32 16.39c1.484 3.364 6.919 4.363 11.871 2.182 2.562-1.13 4.627-2.903 5.813-4.995 1.05-1.85 1.257-3.711.585-5.239-1.484-3.364-6.917-4.365-11.872-2.183-4.949 2.183-7.88 6.87-6.397 10.235"/><path fill="#4C4C4C" d="M221.739 18.41c1.781 4.042 6.177 6.32 11.184 6.32 2.362 0 4.862-.508 7.286-1.576 3.541-1.56 6.434-4.084 8.149-7.105 1.851-3.262 2.139-6.717.811-9.729-2.623-5.949-10.908-8.077-18.472-4.745-7.561 3.333-11.58 10.885-8.959 16.834zm22.849-10.07c.673 1.527.466 3.388-.585 5.238-1.186 2.092-3.251 3.866-5.813 4.995-4.951 2.18-10.387 1.182-11.87-2.182-1.483-3.366 1.447-8.052 6.397-10.235 4.954-2.182 10.388-1.18 11.871 2.183"/><path fill="#AD5400" d="M188.667 56.63q.055.163.088.33c.224.512 4.091 7.834 38.349 11.377-12.121-3.407-19.095-7.51-21.125-12.38-.899-2.155-1.309-5.576 1.841-9.629 1.631-2.1 6.597-8.49 5.339-13.652-.602-2.473-2.676-4.542-6.163-6.151-3.422-1.58-7.605-.486-11.477 2.999-5.92 5.326-10.589 16.08-6.852 27.107"/><path fill="#D2E6B0" d="M298.905 156.944c-14.419 0-26.15 11.731-26.15 26.15a26.08 26.08 0 0 0 8.561 19.347c16.115-3.064 31.221-9.998 38.722-17.821a56 56 0 0 0 4.692-5.609c-1.979-12.646-12.915-22.067-25.825-22.067"/></svg>