<svg xmlns="http://www.w3.org/2000/svg" width="480" height="480" fill="none" viewBox="0 0 480 480">
  <path
    fill="#3F8C9B"
    d="M410.221 204.199c0-21.885-10.341-41.387-26.38-53.919a68 68 0 0 0-11.393-5.466l28.856 163.967a68 68 0 0 0 8.917-33.709z"
  />
  <path
    fill="#3F8C9B"
    d="M134.912 343.489c18.985-11.563 32.264-23.168 42.293-32.875 4.067-4.613 24.485-27.289 33.172-27.946l-21.398-121.585c-1.543-8.748-.152-17.553 3.893-25.299h-62.455c-24.742 0-46.458 13.202-58.475 32.931 12.561 11.579 32.056 15.358 73.084 7.723.201-.037.4-.041.595-.03 1.065-.099 1.929.139 2.359.26 2.612.746 3.785 4.12 5.035 10.087 1.881 8.985 7.971 42.381 9.46 52.735 4.088 28.446 6.226 49.559-3.573 62.211-4.934 6.371-12.96 9.02-13.299 9.131-.855.276-1.702.481-2.543.641-18.086 7.468-36.074 10.415-53.663 9.79l-.068.027a87 87 0 0 1-3.527 3.424 69 69 0 0 0 9.59 9.1 68 68 0 0 0 35.025 9.675z"
  />
  <path
    fill="#000"
    d="M386.641 146.126a73.3 73.3 0 0 0-21.49-11.514l-.466-2.648c-1.85-10.49-7.674-19.632-16.399-25.742s-19.307-8.453-29.797-6.605l-96.835 17.074c-9.533 1.681-17.944 6.653-23.986 14.093h-67.251c-40.482 0-73.416 32.935-73.416 73.416v70.873c0 26.655 14.282 50.034 35.592 62.897 12.412 9.603 27.96 15.337 44.831 15.337h211.388c40.482 0 73.416-32.934 73.416-73.416v-70.872c0-26.653-14.279-50.029-35.587-62.893M62.001 204.2a68 68 0 0 1 7.464-31.013c9.568 8.438 21.736 12.351 38.958 12.351 7.393 0 15.74-.735 25.188-2.125l-30.888 19.841c-2.078 1.135-4.744 4.744-4.38 8.103l.048.446c5.909 54.66 16.493 87.291 31.458 96.985a20 20 0 0 0 3.418 1.777c-19.924 6.419-39.445 7.446-58.327 4.475C66.81 303.787 62 289.985 62 275.073zm95.525 36.001c3.785 26.338 6 47.365-2.577 58.437-3.97 5.127-10.82 7.415-10.886 7.437-4.128 1.337-7.888.853-11.495-1.483-17.887-11.587-25.976-63.445-29.206-93.326l-.049-.447c-.108-1.003 1.172-2.828 1.78-3.163q.125-.063.242-.138l40.626-26.095a.3.3 0 0 1 .161-.044q.048 0 .116.009c.353.552.983 2.098 1.883 6.393 1.871 8.935 7.926 42.135 9.405 52.42m-71.724 84.514a89 89 0 0 0 3.528-3.424l.028-.029.04.002c17.588.625 35.576-2.322 53.662-9.791a21 21 0 0 0 2.543-.641c.339-.111 8.365-2.76 13.3-9.131 9.798-12.651 7.661-33.765 3.572-62.211-1.488-10.354-7.579-43.75-9.46-52.734-1.25-5.968-2.422-9.342-5.035-10.087-.43-.122-1.294-.36-2.358-.261a2.6 2.6 0 0 0-.596.03c-41.027 7.636-60.522 3.857-73.084-7.723 12.017-19.729 33.733-32.931 58.475-32.931h62.455c-4.044 7.746-5.435 16.552-3.893 25.3l21.398 121.584c-8.686.657-29.105 23.333-33.172 27.946-10.029 9.707-23.308 21.313-42.293 32.875h-4.495a68 68 0 0 1-35.025-9.674 69 69 0 0 1-9.59-9.1m259.616-214.397c7.631 5.344 12.725 13.339 14.342 22.514l5.049 28.686c.004.024.014.045.019.069l-.015.003 27.988 159.029a69 69 0 0 1-10.151 9.306l-30.043-165.829-4.865-26.85c-1.15-6.526-4.773-12.211-10.2-16.012-5.427-3.8-12.009-5.261-18.533-4.108l-92.445 16.301c-6.525 1.15-12.211 4.772-16.011 10.2-3.8 5.426-5.259 12.008-4.106 18.544l6.602 36.444 26.247 144.874h-13.138l-4.745-26.959a54 54 0 0 0 3.533-5.177 9.85 9.85 0 0 0 1.278-6.671c-1.427-8.509-4.87-17.439-10.543-20.727l-15.555-88.382c-.004-.031-.001-.06-.007-.091l-5.889-33.463c-1.617-9.174.434-18.429 5.778-26.06s13.339-12.726 22.514-14.344l96.835-17.074c9.174-1.616 18.429.434 26.061 5.777M181.601 313.194c14.14-15.922 25.891-25.484 29.166-25.556l.087-.001c4.886 0 8.945 8.963 10.439 17.872a4.85 4.85 0 0 1-.639 3.28c-1.775 2.971-5.621 8.602-11.437 12.943a2.501 2.501 0 0 0 2.991 4.008 44 44 0 0 0 4.982-4.362l2.964 16.841.073 1.154.264 4.116h-76.185c16.43-10.754 28.256-21.347 37.386-30.262zm36.367-115.475-6.6-36.428a19.68 19.68 0 0 1 3.281-14.797 19.68 19.68 0 0 1 12.783-8.144l92.445-16.3a19.68 19.68 0 0 1 14.798 3.281c4.333 3.033 7.225 7.573 8.145 12.794l6.441 35.552.001.005 28.865 159.328c-10.534 6.628-22.983 10.479-36.322 10.479h-97.428zm183.337 111.063-28.857-163.967a68 68 0 0 1 11.394 5.466c16.039 12.532 26.379 32.034 26.379 53.919v70.873a68 68 0 0 1-8.916 33.709"
  />
  <path
    fill="#F295FF"
    d="M74.94 315.038c18.88 2.972 38.402 1.944 58.326-4.475a20 20 0 0 1-3.418-1.777c-14.966-9.694-25.55-42.325-31.458-96.984l-.049-.447c-.363-3.359 2.303-6.968 4.381-8.103l30.888-19.841c-9.448 1.391-17.795 2.125-25.188 2.125-17.222 0-29.39-3.913-38.959-12.351A68 68 0 0 0 62 204.198v70.873c0 14.912 4.81 28.714 12.94 39.967"
  />
  <path
    fill="#F295FF"
    d="m220.49 343.488-.264-4.116-.073-1.153-2.964-16.842a44 44 0 0 1-4.981 4.362 2.5 2.5 0 0 1-1.494.496 2.5 2.5 0 0 1-1.497-4.504c5.815-4.34 9.661-9.972 11.436-12.943a4.85 4.85 0 0 0 .64-3.28c-1.494-8.908-5.553-17.871-10.439-17.871l-.087.001c-3.275.071-15.027 9.634-29.167 25.555l.092.034c-9.13 8.914-20.956 19.507-37.387 30.261z"
  />
  <path
    fill="#DB00F8"
    d="M146.238 181.387a1 1 0 0 0-.117-.01.3.3 0 0 0-.16.044l-40.627 26.096a3 3 0 0 1-.242.137c-.608.335-1.888 2.16-1.779 3.163l.048.448c3.231 29.881 11.32 81.738 29.206 93.325 3.608 2.337 7.367 2.82 11.495 1.483.066-.021 6.916-2.309 10.887-7.436 8.576-11.073 6.362-32.1 2.576-58.438-1.478-10.285-7.534-43.485-9.404-52.42-.9-4.295-1.53-5.841-1.883-6.392M122.052 247.5c-1.366-7.741-2.336-14.388-2.808-19.219-.612-6.266-.77-10.416 2.475-10.99 3.246-.566 4.511 3.337 6.067 9.362 1.2 4.647 2.554 11.186 3.915 18.909 1.548 8.775 2.398 14.17 2.842 18.041.523 4.564 1.065 9.284-2.435 9.9a3.4 3.4 0 0 1-.582.053c-2.811 0-4.208-3.867-5.495-8.189-1.329-4.461-2.705-10.638-3.979-17.867m29.687 8.34c.523 4.563 1.064 9.282-2.434 9.9-.26.046-.537.095-.831.095-2.093 0-5.061-2.473-9.227-26.099-1.365-7.741-2.336-14.386-2.808-19.218-.612-6.267-.77-10.417 2.478-10.99 3.231-.569 4.508 3.333 6.065 9.362 1.199 4.646 2.553 11.184 3.915 18.908 1.548 8.776 2.398 14.173 2.842 18.042"
  />
  <path
    fill="#000"
    d="M131.526 273.555q.28 0 .582-.052c3.5-.617 2.958-5.336 2.435-9.901-.444-3.87-1.294-9.265-2.842-18.041-1.361-7.722-2.715-14.261-3.915-18.908-1.556-6.025-2.821-9.929-6.067-9.362-3.245.574-3.087 4.723-2.475 10.99.471 4.831 1.442 11.478 2.807 19.219 1.275 7.228 2.651 13.406 3.979 17.867 1.288 4.322 2.685 8.188 5.496 8.188"
  />
  <path
    fill="#000"
    d="M138.917 209.528c-3.248.572-3.09 4.722-2.478 10.989.472 4.832 1.442 11.477 2.808 19.219 4.166 23.626 7.133 26.098 9.227 26.098.294 0 .571-.049.831-.094 3.498-.619 2.957-5.337 2.433-9.901-.443-3.869-1.293-9.265-2.841-18.042-1.362-7.723-2.716-14.262-3.915-18.908-1.557-6.028-2.834-9.931-6.065-9.361"
  />
  <path
    fill="#FFFBE8"
    d="M244.376 343.489h97.429c13.338 0 25.788-3.851 36.322-10.479L342.82 138.124c-.921-5.22-3.813-9.76-8.146-12.793a19.67 19.67 0 0 0-14.797-3.282l-92.446 16.301a19.67 19.67 0 0 0-12.782 8.144 19.68 19.68 0 0 0-3.281 14.797l6.6 36.428zm18.069-56.336c-13.481 2.377-24.528-5.763-26.864-19.013l-5.963-33.818 18.796-3.315 6.031 34.204c.53 3.004 2.51 4.323 4.821 3.915 2.311-.407 3.721-2.324 3.191-5.328l-6.031-34.203 18.796-3.315 5.963 33.819c2.337 13.25-5.259 24.677-18.74 27.054m94.565-40.742c2.228 12.633-6.623 24.599-19.026 26.786l-26.346 4.646c-12.402 2.187-24.813-6.03-27.04-18.664l-5.909-33.51 18.796-3.314 6.086 34.511c.53 3.005 2.51 4.323 4.821 3.916s3.72-2.324 3.19-5.328l-6.085-34.512 18.797-3.314 6.085 34.511c.53 3.005 2.51 4.323 4.821 3.916s3.72-2.324 3.191-5.328l-6.086-34.512 18.797-3.314zm-66.672-109.416a5.68 5.68 0 0 1 2.35 3.689 5.68 5.68 0 0 1-.946 4.272 5.68 5.68 0 0 1-3.69 2.349l-21.488 3.789a5.725 5.725 0 0 1-6.621-4.636 5.68 5.68 0 0 1 .946-4.271 5.68 5.68 0 0 1 3.689-2.35l21.489-3.789a5.68 5.68 0 0 1 4.271.947"
  />
  <path
    fill="#7A42C8"
    d="m275.222 226.278-18.796 3.315 6.031 34.203c.53 3.004-.88 4.921-3.191 5.328s-4.291-.911-4.821-3.916l-6.031-34.203-18.796 3.315 5.963 33.818c2.336 13.25 13.383 21.39 26.864 19.012 13.481-2.377 21.077-13.804 18.741-27.054z"
  />
  <path
    fill="#7A42C8"
    d="M338.39 250.726c.53 3.005-.88 4.921-3.191 5.329s-4.291-.912-4.821-3.916l-6.085-34.512-18.797 3.315 6.086 34.511c.53 3.005-.88 4.921-3.191 5.329s-4.291-.912-4.821-3.916l-6.085-34.512-18.797 3.315 5.909 33.51c2.228 12.634 14.638 20.851 27.041 18.664l26.346-4.646c12.402-2.187 21.253-14.153 19.026-26.787l-5.909-33.51-18.796 3.315z"
  />
  <path
    fill="#6DB5C3"
    d="M222.521 121.613c-9.175 1.618-17.17 6.712-22.513 14.344-5.344 7.63-7.396 16.886-5.778 26.06l5.889 33.463c.005.03.002.06.007.091l15.554 88.382c5.673 3.288 9.116 12.218 10.543 20.727a9.85 9.85 0 0 1-1.278 6.671 54 54 0 0 1-3.532 5.177l4.744 26.959h13.138l-26.246-144.874-6.603-36.445c-1.153-6.535.307-13.117 4.107-18.544s9.486-9.049 16.01-10.2l92.446-16.3c6.524-1.153 13.106.308 18.533 4.108 5.427 3.801 9.049 9.486 10.2 16.012l4.864 26.85 30.043 165.829a69 69 0 0 0 10.151-9.306l-27.988-159.029.016-.004c-.005-.023-.015-.044-.02-.068l-5.048-28.686c-1.618-9.175-6.711-17.17-14.343-22.514s-16.886-7.394-26.061-5.777z"
  />
  <path
    fill="#000"
    d="M260.889 142.187a5.68 5.68 0 0 0-.947 4.272 5.727 5.727 0 0 0 6.622 4.635l21.488-3.789a5.68 5.68 0 0 0 3.689-2.349 5.68 5.68 0 0 0 .947-4.272 5.68 5.68 0 0 0-2.35-3.689 5.68 5.68 0 0 0-4.271-.947l-21.489 3.789a5.68 5.68 0 0 0-3.689 2.35"
  />
</svg>
