<svg xmlns="http://www.w3.org/2000/svg" width="295" height="310" fill="none" viewBox="0 0 295 310"><path fill="#000" d="M264.621 47.663 100.534 11.804a4.216 4.216 0 0 0-5.019 3.222L41.905 260.65a4.22 4.22 0 0 0 3.219 5.022l164.086 35.86a4.217 4.217 0 0 0 5.019-3.222L267.84 52.685a4.22 4.22 0 0 0-3.219-5.022"/><path fill="#000" d="M210.094 303.958c-.471 0-.943-.054-1.405-.151l-164.094-35.88a6.5 6.5 0 0 1-4.1-2.857 6.48 6.48 0 0 1-.881-4.923L93.24 14.527c.765-3.517 4.252-5.76 7.766-4.985L265.1 45.422c3.514.765 5.746 4.254 4.981 7.77l-53.627 245.621a6.5 6.5 0 0 1-2.855 4.103 6.47 6.47 0 0 1-3.514 1.033zM99.619 14.028a1.91 1.91 0 0 0-1.86 1.495L44.133 261.144a1.9 1.9 0 0 0 .258 1.433c.276.428.694.721 1.192.828l164.094 35.88a1.9 1.9 0 0 0 1.432-.258c.427-.276.72-.695.827-1.193l53.628-245.621a1.9 1.9 0 0 0-1.45-2.261L100.02 14.072a2 2 0 0 0-.409-.044z"/><path fill="#000" d="m289.389 56.834-161.924-44.63a4.215 4.215 0 0 0-5.184 2.948L55.558 257.54a4.22 4.22 0 0 0 2.945 5.188l161.924 44.63a4.217 4.217 0 0 0 5.185-2.948l66.722-242.388a4.22 4.22 0 0 0-2.945-5.188"/><path fill="#000" d="M221.542 309.85c-.578 0-1.165-.08-1.744-.24L57.866 264.963a6.5 6.5 0 0 1-3.94-3.071 6.48 6.48 0 0 1-.614-4.958l66.739-242.39a6.5 6.5 0 0 1 3.068-3.943 6.47 6.47 0 0 1 4.955-.614l161.932 44.647a6.5 6.5 0 0 1 3.941 3.07 6.48 6.48 0 0 1 .613 4.958l-66.738 242.391a6.5 6.5 0 0 1-3.069 3.943 6.46 6.46 0 0 1-3.211.854M126.331 14.384c-.33 0-.65.08-.934.249a1.86 1.86 0 0 0-.89 1.148l-66.739 242.39a1.895 1.895 0 0 0 1.326 2.332l161.932 44.648a1.9 1.9 0 0 0 1.441-.178c.445-.25.756-.659.889-1.149l66.739-242.39a1.89 1.89 0 0 0-1.325-2.332L126.838 14.455a2 2 0 0 0-.507-.071"/><path fill="#000" d="M262.208 184.363 178.032 199.2c-5.592.986-9.328 6.322-8.343 11.918l14.828 84.233c.985 5.596 6.317 9.334 11.91 8.348l84.176-14.837c5.592-.986 9.328-6.322 8.342-11.919l-14.827-84.232c-.985-5.596-6.317-9.334-11.91-8.348"/><path fill="#000" d="M194.644 306.165c-5.996 0-11.324-4.308-12.4-10.423l-14.828-84.23a12.52 12.52 0 0 1 2.09-9.417 12.5 12.5 0 0 1 8.13-5.18l84.173-14.838c6.84-1.202 13.387 3.382 14.588 10.227l14.828 84.23a12.52 12.52 0 0 1-2.091 9.417 12.5 12.5 0 0 1-8.13 5.18l-84.172 14.838a12 12 0 0 1-2.188.196m69.353-119.646c-.453 0-.925.035-1.387.124l-84.173 14.838a7.9 7.9 0 0 0-5.141 3.276 7.96 7.96 0 0 0-1.326 5.954l14.828 84.23c.765 4.335 4.901 7.227 9.233 6.471l84.173-14.838a7.9 7.9 0 0 0 5.141-3.276 7.95 7.95 0 0 0 1.325-5.954l-14.827-84.23a8 8 0 0 0-7.846-6.595"/><path fill="#FFB921" d="M261.247 43.03 97.571 5.339a4.216 4.216 0 0 0-5.054 3.165l-56.35 245.011a4.22 4.22 0 0 0 3.163 5.058l163.676 37.691a4.216 4.216 0 0 0 5.055-3.165L264.41 48.088a4.22 4.22 0 0 0-3.163-5.058"/><path fill="#000" d="M203.992 298.59c-.48 0-.97-.054-1.459-.169L38.849 260.734a6.45 6.45 0 0 1-4.83-7.717L90.359 8.001a6.37 6.37 0 0 1 2.856-4.014 6.4 6.4 0 0 1 4.856-.82l163.685 37.687a6.453 6.453 0 0 1 4.83 7.718l-56.341 245.016a6.37 6.37 0 0 1-2.855 4.014 6.4 6.4 0 0 1-3.398.979zM96.63 7.45c-.364 0-.73.106-1.05.302a1.95 1.95 0 0 0-.88 1.237L38.36 254.005a1.995 1.995 0 0 0 1.494 2.386l163.684 37.686c.516.116 1.05.027 1.504-.249.453-.285.765-.721.88-1.237l56.341-245.016a1.994 1.994 0 0 0-1.495-2.386L97.084 7.503a2 2 0 0 0-.454-.054"/><path fill="#FFD885" d="M284.087 48.829 122.671 2.392a4.216 4.216 0 0 0-5.217 2.889L48.03 246.908a4.22 4.22 0 0 0 2.887 5.221l161.416 46.436a4.216 4.216 0 0 0 5.217-2.889l69.424-241.627a4.22 4.22 0 0 0-2.887-5.22"/><path fill="#000" d="M213.527 300.949c-.587 0-1.183-.08-1.779-.249L50.323 254.264c-3.407-.979-5.39-4.558-4.412-7.967L115.318 4.664A6.37 6.37 0 0 1 118.387.81a6.35 6.35 0 0 1 4.892-.552l161.425 46.436c3.407.979 5.391 4.557 4.412 7.966l-69.407 241.634a6.45 6.45 0 0 1-6.191 4.664zM121.509 4.441c-.329 0-.658.08-.96.25a2 2 0 0 0-.952 1.192L50.19 247.517a1.996 1.996 0 0 0 1.36 2.465l161.426 46.437a2 2 0 0 0 2.464-1.362l69.407-241.634a2 2 0 0 0-1.361-2.465L122.061 4.52a2 2 0 0 0-.552-.08"/><path fill="#FFD885" d="m263.899 62.934-85.572-24.618a2.055 2.055 0 0 0-2.543 1.408l-8.868 30.864a2.057 2.057 0 0 0 1.407 2.544l85.573 24.618a2.055 2.055 0 0 0 2.542-1.408l8.868-30.864a2.056 2.056 0 0 0-1.407-2.544"/><path fill="#000" d="M254.471 100.037c-.392 0-.783-.053-1.174-.17l-85.57-24.61a4.276 4.276 0 0 1-2.926-5.296l8.868-30.869a4.25 4.25 0 0 1 2.037-2.563 4.24 4.24 0 0 1 3.256-.365l85.569 24.611a4.276 4.276 0 0 1 2.926 5.296l-8.868 30.868a4.27 4.27 0 0 1-4.109 3.098zm-85.365-29.008 85.249 24.522 8.77-30.54-85.249-24.521z"/><path fill="#D69200" d="m259.318 181.964-84.176 14.837c-5.593.986-9.328 6.322-8.343 11.919l14.828 84.232c.985 5.597 6.317 9.335 11.91 8.349l84.175-14.838c5.593-.985 9.328-6.321 8.343-11.918l-14.827-84.232c-.985-5.597-6.318-9.335-11.91-8.349"/><path fill="#000" d="M191.726 303.682c-2.544 0-5.026-.775-7.152-2.27a12.43 12.43 0 0 1-5.141-8.082l-14.828-84.23a12.47 12.47 0 0 1 2.073-9.354 12.4 12.4 0 0 1 8.076-5.145l84.173-14.838c3.291-.579 6.609.16 9.349 2.074a12.4 12.4 0 0 1 5.141 8.082l14.828 84.229c1.192 6.792-3.354 13.298-10.149 14.5l-84.173 14.838c-.729.133-1.468.196-2.197.196m69.389-119.656c-.471 0-.943.045-1.414.125l-84.173 14.838a8.02 8.02 0 0 0-5.203 3.311 8 8 0 0 0-1.335 6.026l14.828 84.23a8 8 0 0 0 3.318 5.207 8 8 0 0 0 6.022 1.335l84.173-14.838c4.376-.775 7.311-4.967 6.537-9.346l-14.827-84.23a8 8 0 0 0-3.318-5.207 8 8 0 0 0-4.608-1.459z"/><path fill="#FFD885" d="m257.029 191.837-76.362 13.459a4.55 4.55 0 0 0-3.688 5.269l2.364 13.429a4.546 4.546 0 0 0 5.265 3.69l76.361-13.46a4.547 4.547 0 0 0 3.688-5.268l-2.364-13.429a4.544 4.544 0 0 0-5.264-3.69"/><path fill="#000" d="M183.8 229.983a6.7 6.7 0 0 1-3.869-1.229 6.78 6.78 0 0 1-2.784-4.37l-2.366-13.431a6.75 6.75 0 0 1 1.121-5.056 6.77 6.77 0 0 1 4.367-2.786l76.372-13.458a6.66 6.66 0 0 1 5.052 1.121 6.78 6.78 0 0 1 2.784 4.37l2.366 13.432a6.75 6.75 0 0 1-1.12 5.056 6.78 6.78 0 0 1-4.368 2.786l-76.372 13.458c-.4.071-.791.107-1.191.107zm74.024-35.987c-.133 0-.267.009-.4.036l-76.372 13.458a2.3 2.3 0 0 0-1.494.952 2.3 2.3 0 0 0-.383 1.736l2.366 13.432a2.32 2.32 0 0 0 2.686 1.878l76.372-13.458a2.3 2.3 0 0 0 1.495-.953 2.3 2.3 0 0 0 .382-1.736l-2.366-13.431a2.324 2.324 0 0 0-2.286-1.914"/><path fill="#FFB921" d="m233.92 227.453-18.79 3.312a2.243 2.243 0 0 0-1.819 2.598l1.588 9.02a2.24 2.24 0 0 0 2.596 1.82l18.791-3.312a2.24 2.24 0 0 0 1.818-2.598l-1.587-9.02a2.24 2.24 0 0 0-2.597-1.82"/><path fill="#000" d="M217.103 246.457a4.4 4.4 0 0 1-2.553-.81 4.42 4.42 0 0 1-1.832-2.884l-1.583-9.016a4.45 4.45 0 0 1 .738-3.338 4.42 4.42 0 0 1 2.882-1.833l18.786-3.311a4.476 4.476 0 0 1 5.177 3.622l1.583 9.017a4.48 4.48 0 0 1-3.62 5.18l-18.786 3.311a5 5 0 0 1-.783.071zm17.23-16.804-18.813 3.293 1.574 9.034 18.813-3.293s.018-.009.018-.027l-1.584-9.016z"/><path fill="#FFB921" d="m237.414 247.293-18.791 3.313a2.24 2.24 0 0 0-1.818 2.598l1.587 9.019a2.24 2.24 0 0 0 2.597 1.82l18.79-3.312a2.244 2.244 0 0 0 1.819-2.598l-1.588-9.02a2.24 2.24 0 0 0-2.596-1.82"/><path fill="#000" d="M220.608 266.298c-2.126 0-4.021-1.531-4.394-3.694l-1.584-9.016a4.484 4.484 0 0 1 3.621-5.181l18.786-3.311a4.475 4.475 0 0 1 5.176 3.623l1.584 9.016a4.48 4.48 0 0 1-3.62 5.18l-18.787 3.311a4.5 4.5 0 0 1-.773.072zm17.22-16.796-18.813 3.293 1.575 9.034 18.813-3.293s.017-.009.017-.026l-1.583-9.017z"/><path fill="#FFB921" d="m241.148 267.366-18.79 3.312a2.24 2.24 0 0 0-1.819 2.598l1.588 9.02a2.24 2.24 0 0 0 2.596 1.82l18.79-3.312a2.243 2.243 0 0 0 1.819-2.599l-1.588-9.019a2.24 2.24 0 0 0-2.596-1.82"/><path fill="#000" d="M224.326 286.368c-2.126 0-4.021-1.53-4.394-3.693l-1.584-9.017a4.45 4.45 0 0 1 .739-3.337 4.42 4.42 0 0 1 2.882-1.834l18.786-3.311a4.44 4.44 0 0 1 3.335.739 4.42 4.42 0 0 1 1.833 2.884l1.583 9.016a4.45 4.45 0 0 1-.738 3.338 4.42 4.42 0 0 1-2.882 1.833l-18.786 3.311a4.5 4.5 0 0 1-.774.071m17.22-16.795-18.812 3.293 1.574 9.034 18.813-3.293s.017-.018.017-.027l-1.583-9.016z"/><path fill="#FFB921" d="m203.194 232.805-18.79 3.312a2.24 2.24 0 0 0-1.819 2.598l1.588 9.02a2.24 2.24 0 0 0 2.596 1.819l18.79-3.312a2.24 2.24 0 0 0 1.819-2.598l-1.588-9.02a2.24 2.24 0 0 0-2.596-1.819"/><path fill="#000" d="M186.371 251.806c-2.126 0-4.02-1.531-4.394-3.693l-1.583-9.017a4.48 4.48 0 0 1 3.62-5.18l18.795-3.311a4.476 4.476 0 0 1 5.177 3.623l1.583 9.016a4.48 4.48 0 0 1-3.62 5.18l-18.786 3.311a4.5 4.5 0 0 1-.774.071zm17.23-16.804-18.813 3.293 1.574 9.034 18.813-3.293s.018-.009.018-.027l-1.584-9.016z"/><path fill="#FFB921" d="m206.687 252.636-18.79 3.312a2.243 2.243 0 0 0-1.819 2.598l1.588 9.02a2.24 2.24 0 0 0 2.596 1.82l18.791-3.312a2.24 2.24 0 0 0 1.818-2.598l-1.587-9.02a2.24 2.24 0 0 0-2.597-1.82"/><path fill="#000" d="M189.867 271.647c-2.126 0-4.021-1.531-4.394-3.694l-1.584-9.016a4.45 4.45 0 0 1 .739-3.338 4.42 4.42 0 0 1 2.882-1.833l18.786-3.311a4.44 4.44 0 0 1 3.335.738 4.42 4.42 0 0 1 1.833 2.884l1.583 9.016a4.48 4.48 0 0 1-3.62 5.18l-18.786 3.311a4.5 4.5 0 0 1-.774.072zm17.229-16.796-18.812 3.294 1.574 9.034 18.813-3.294z"/><path fill="#FFB921" d="m210.404 272.71-18.79 3.313a2.24 2.24 0 0 0-1.819 2.598l1.588 9.019a2.24 2.24 0 0 0 2.596 1.82l18.79-3.312a2.24 2.24 0 0 0 1.819-2.598L213 274.53a2.24 2.24 0 0 0-2.596-1.82"/><path fill="#000" d="M193.585 291.727a4.4 4.4 0 0 1-2.553-.81 4.42 4.42 0 0 1-1.832-2.884l-1.584-9.016a4.45 4.45 0 0 1 .739-3.338 4.42 4.42 0 0 1 2.882-1.834l18.786-3.311a4.48 4.48 0 0 1 5.177 3.623l1.583 9.016a4.48 4.48 0 0 1-3.62 5.18l-18.786 3.311a4.6 4.6 0 0 1-.783.072zm17.229-16.805-18.812 3.294 1.574 9.034 18.813-3.294z"/><path fill="#FFB921" d="m262.212 221.493-15.024 2.648a4.157 4.157 0 0 0-3.37 4.815l8.288 47.082a4.155 4.155 0 0 0 4.812 3.372l15.023-2.648a4.156 4.156 0 0 0 3.371-4.815l-8.288-47.082a4.154 4.154 0 0 0-4.812-3.372"/><path fill="#000" d="M256.187 281.697a6.37 6.37 0 0 1-3.647-1.157 6.33 6.33 0 0 1-2.624-4.121l-8.29-47.077a6.35 6.35 0 0 1 1.059-4.771 6.32 6.32 0 0 1 4.118-2.626l15.024-2.653a6.34 6.34 0 0 1 4.767 1.06 6.32 6.32 0 0 1 2.624 4.121l8.291 47.077c.613 3.462-1.708 6.782-5.177 7.397l-15.024 2.643a7 7 0 0 1-1.121.098zm6.752-58.043a2 2 0 0 0-.338.027l-15.024 2.652a1.924 1.924 0 0 0-1.565 2.234l8.29 47.077a1.926 1.926 0 0 0 2.232 1.567l15.024-2.644a1.93 1.93 0 0 0 1.565-2.234l-8.29-47.077a1.93 1.93 0 0 0-.791-1.246 1.9 1.9 0 0 0-1.103-.347z"/><path fill="#000" d="M202.284 68.057c16.838 2.518 33.498 6.888 49.207 13.466 1.636.73.872 3.24-.899 2.92-12.497-2.36-24.683-5.857-36.922-9.23-4.065-1.149-8.148-2.323-12.169-3.587-2.099-.668-1.414-3.837.783-3.57"/><path fill="#000" d="M184.832 51.803c11.866 1.308 23.332 4.708 34.842 7.734 11.465 3.151 22.86 6.542 34.129 10.343 2.1.748 1.21 3.898-1.005 3.391-11.447-2.937-40.569-10.387-51.653-13.12-5.737-1.45-11.456-2.99-17.069-4.94-1.93-.676-1.299-3.604.747-3.408z"/><path fill="#000" d="M88.82 245.959c10.683 1.478 20.93 4.896 31.275 7.824 10.3 3.035 20.556 6.248 30.714 9.728 2.082.766 1.183 3.89-1.005 3.391-14.419-3.569-32.209-8.526-46.601-12.496-5.15-1.469-10.282-3.044-15.263-5.082-1.868-.766-1.13-3.632.89-3.374z"/><path fill="#000" d="M93.072 234.539c2.57-.338 4.804-.035 7.232.472a147 147 0 0 1 13.493 3.747c2.215.721 4.403 1.504 6.574 2.377a1.781 1.781 0 0 1-.97 3.408c-4.554-.792-9.055-1.824-13.547-2.857-3.949-.988-9.775-1.895-13.351-3.791-1.53-.757-1.094-3.142.578-3.347z"/><path fill="#7A42C8" d="m153.904 112.564-77.072 42.663a4.96 4.96 0 0 0-1.937 6.738l23.633 42.752a4.95 4.95 0 0 0 6.734 1.938l77.071-42.662a4.96 4.96 0 0 0 1.938-6.738l-23.634-42.752a4.953 4.953 0 0 0-6.733-1.939"/><path fill="#000" d="M102.892 209.723a7.4 7.4 0 0 1-2.055-.293 7.4 7.4 0 0 1-4.438-3.534l-23.643-42.76a7.4 7.4 0 0 1-.64-5.643 7.38 7.38 0 0 1 3.531-4.442l77.074-42.671a7.38 7.38 0 0 1 5.64-.641 7.4 7.4 0 0 1 4.438 3.534l23.643 42.76c1.975 3.578.676 8.1-2.9 10.085l-77.074 42.671a7.4 7.4 0 0 1-3.576.926zm53.414-95.337c-.418 0-.827.106-1.201.311l-77.074 42.671a2.5 2.5 0 0 0-1.192 1.496 2.47 2.47 0 0 0 .213 1.895l23.643 42.761a2.46 2.46 0 0 0 1.494 1.183 2.47 2.47 0 0 0 1.895-.213l77.075-42.671a2.51 2.51 0 0 0 .978-3.392l-23.643-42.76a2.5 2.5 0 0 0-2.188-1.29z"/><path fill="#D5C3EE" d="m166.089 151.686-5.86 3.244a2.394 2.394 0 0 0-.936 3.254l1.899 3.435a2.39 2.39 0 0 0 3.252.936l5.86-3.244a2.395 2.395 0 0 0 .936-3.255l-1.899-3.434a2.39 2.39 0 0 0-3.252-.936"/><path fill="#000" d="M163.315 165.298c-.453 0-.907-.062-1.352-.195a4.8 4.8 0 0 1-2.899-2.315l-1.904-3.444a4.854 4.854 0 0 1 1.895-6.595l5.87-3.249a4.85 4.85 0 0 1 6.591 1.896l1.904 3.444a4.854 4.854 0 0 1-1.895 6.595l-5.87 3.249c-.73.401-1.53.605-2.34.605zm-1.823-8.268 1.832 3.32 5.746-3.178-1.832-3.32z"/><path fill="#7A42C8" d="m153.766 110.916-77.072 42.663a4.96 4.96 0 0 0-1.937 6.738l23.633 42.752a4.95 4.95 0 0 0 6.734 1.938l77.071-42.662a4.96 4.96 0 0 0 1.938-6.738l-23.634-42.752a4.953 4.953 0 0 0-6.733-1.939"/><path fill="#000" d="M102.75 207.836a7.17 7.17 0 0 1-6.289-3.703l-23.642-42.76c-1.913-3.462-.659-7.842 2.802-9.755l77.074-42.671a7.13 7.13 0 0 1 5.461-.615 7.13 7.13 0 0 1 4.297 3.427l23.642 42.76c1.913 3.463.659 7.842-2.801 9.756l-77.075 42.671a7.15 7.15 0 0 1-3.46.899zm53.414-95.338c-.454 0-.907.116-1.316.338l-77.075 42.671a2.736 2.736 0 0 0-1.067 3.712l23.642 42.76a2.73 2.73 0 0 0 3.71 1.068l77.074-42.671a2.7 2.7 0 0 0 1.299-1.638 2.76 2.76 0 0 0-.232-2.073l-23.642-42.761a2.7 2.7 0 0 0-1.637-1.299 2.8 2.8 0 0 0-.756-.107"/><path fill="#D5C3EE" d="m165.959 150.042-5.861 3.244a2.395 2.395 0 0 0-.935 3.254l1.898 3.435a2.39 2.39 0 0 0 3.252.936l5.861-3.244a2.396 2.396 0 0 0 .936-3.254l-1.899-3.435a2.39 2.39 0 0 0-3.252-.936"/><path fill="#000" d="M163.164 163.411a4.64 4.64 0 0 1-4.047-2.376l-1.903-3.445c-1.228-2.225-.418-5.046 1.805-6.275l5.871-3.248a4.623 4.623 0 0 1 6.271 1.806l1.903 3.445c1.228 2.225.427 5.047-1.805 6.275l-5.871 3.249a4.6 4.6 0 0 1-2.224.578zm3.959-11.464s-.054 0-.08.018l-5.871 3.249a.17.17 0 0 0-.062.231l1.903 3.445c.045.071.151.107.231.062l5.871-3.249a.17.17 0 0 0 .062-.231l-1.903-3.445c-.027-.053-.089-.08-.151-.08"/><path fill="#000" d="m172.014 95.765-43.185-35.876c-8.138-6.76-20.212-5.64-26.968 2.504L12.234 170.417c-6.756 8.143-5.636 20.225 2.502 26.985l43.185 35.876c8.137 6.76 20.211 5.639 26.968-2.504l89.626-108.024c6.757-8.143 5.637-20.225-2.501-26.985"/><path fill="#000" d="M70.159 240.013c-4.83 0-9.687-1.62-13.69-4.94l-43.193-35.88c-4.412-3.667-7.134-8.829-7.659-14.535a21.3 21.3 0 0 1 4.857-15.701l89.625-108.04c7.561-9.114 21.117-10.37 30.225-2.803l43.194 35.88c4.412 3.666 7.134 8.829 7.658 14.534.525 5.706-1.191 11.287-4.856 15.702L86.695 232.269c-4.234 5.109-10.363 7.753-16.536 7.753zm-10.736-8.509c7.142 5.937 17.78 4.949 23.705-2.199l89.625-108.039a16.73 16.73 0 0 0 3.807-12.319 16.74 16.74 0 0 0-6.013-11.402l-43.194-35.88c-7.142-5.937-17.781-4.949-23.705 2.199L14.023 171.903a16.73 16.73 0 0 0-3.807 12.319 16.75 16.75 0 0 0 6.013 11.402z"/><path fill="#000" d="m165.257 100.286-39.619-32.913c-5.545-4.607-13.772-3.843-18.375 1.706L19.801 174.494c-4.604 5.548-3.84 13.781 1.704 18.387l39.62 32.913c5.544 4.607 13.771 3.843 18.375-1.706l87.462-105.415c4.603-5.548 3.84-13.78-1.705-18.387"/><path fill="#000" d="M69.447 231.129c-3.575 0-7-1.237-9.784-3.542l-39.618-32.916a15.25 15.25 0 0 1-5.48-10.405c-.373-4.086.855-8.082 3.479-11.233l87.454-105.431a15.24 15.24 0 0 1 10.399-5.484 15.2 15.2 0 0 1 11.225 3.48l39.618 32.916a15.25 15.25 0 0 1 5.479 10.406c.374 4.085-.854 8.082-3.478 11.233L81.286 225.584a15.24 15.24 0 0 1-10.398 5.483c-.48.045-.97.071-1.45.071zm-6.822-7.111a10.65 10.65 0 0 0 7.845 2.43 10.67 10.67 0 0 0 7.267-3.837l87.455-105.431a10.66 10.66 0 0 0 2.429-7.851 10.7 10.7 0 0 0-3.834-7.272l-39.618-32.916a10.64 10.64 0 0 0-7.845-2.43 10.68 10.68 0 0 0-7.268 3.837L21.602 175.979a10.66 10.66 0 0 0-2.429 7.851 10.7 10.7 0 0 0 3.834 7.272z"/><path fill="#000" d="m143.26 94.793-9.567-7.948-.58.699 9.568 7.948z"/><path fill="#000" d="M142.697 97.803a2.3 2.3 0 0 1-1.477-.535l-9.562-7.948a2.33 2.33 0 0 1-.827-1.566 2.33 2.33 0 0 1 .525-1.691l.578-.704a2.32 2.32 0 0 1 3.256-.302l9.562 7.948a2.317 2.317 0 0 1 .302 3.258l-.578.703a2.3 2.3 0 0 1-1.566.828c-.071 0-.142.008-.213.008"/><path fill="#000" d="M88.153 142.717c-4.376 5.278-3.442 13.183 1.744 17.491l11.003 9.141c5.176 4.299 13.12 3.774 17.496-1.504l11.617-14.002-7.855-6.524-11.963 14.42c-1.041 1.255-2.313 1.344-3.274.543-.96-.802-1.111-2.066-.071-3.321l11.964-14.419-7.854-6.524-11.964 14.419c-1.04 1.255-2.313 1.344-3.273.543s-1.112-2.065-.071-3.32l11.963-14.42-7.854-6.524-11.617 14.001zm-19.062.641c5.63 4.673 12.916 3.819 17.506-1.718l11.723-14.134-7.854-6.525-11.857 14.295c-1.04 1.255-2.313 1.344-3.273.543-.961-.801-1.112-2.065-.072-3.32l11.857-14.295-7.854-6.524-11.723 14.134c-4.59 5.537-4.092 12.862 1.538 17.535"/><path fill="#000" d="M108.932 174.565a14.85 14.85 0 0 1-9.509-3.445l-11.003-9.141c-2.989-2.484-4.865-6.009-5.275-9.916a14.8 14.8 0 0 1 .294-4.913c-5.017 2.59-11.003 1.985-15.824-2.012-6.547-5.438-7.32-14.188-1.841-20.793l11.723-14.134a2.3 2.3 0 0 1 1.566-.828 2.3 2.3 0 0 1 1.69.525l7.854 6.525c.471.391.765.952.827 1.566.036.338-.009.677-.124.997a2.33 2.33 0 0 1 2.65.214l7.855 6.524c.249.214.453.472.595.757.303.089.596.231.854.445l7.855 6.524c.471.392.765.952.827 1.567.035.338-.009.676-.125.996a2.28 2.28 0 0 1 2.642.214l7.854 6.524a2.31 2.31 0 0 1 .703 2.564c.294-.169.614-.276.952-.312a2.28 2.28 0 0 1 1.69.526l7.854 6.524a2.316 2.316 0 0 1 .302 3.258l-11.616 14.001c-2.873 3.462-7.036 5.251-11.244 5.251zm-8.86-42.591-10.14 12.221c-1.699 2.047-2.481 4.673-2.197 7.387.285 2.706 1.575 5.127 3.63 6.836l11.002 9.141c4.252 3.534 10.772 2.982 14.241-1.201l10.14-12.221-4.287-3.56-10.487 12.639c-1.815 2.181-4.501 2.528-6.529.845-2.037-1.691-2.188-4.397-.374-6.577l10.488-12.64-4.288-3.56-10.487 12.639c-1.815 2.181-4.5 2.537-6.529.846-2.037-1.691-2.188-4.397-.373-6.578l10.487-12.639-4.288-3.561zm-29.504 9.604c4.554 3.783 10.416 3.204 14.25-1.416l10.247-12.354-4.288-3.56-10.38 12.514c-1.815 2.181-4.501 2.528-6.529.846-2.037-1.691-2.188-4.397-.374-6.578l10.38-12.515-4.287-3.56-10.246 12.354c-3.834 4.62-3.327 10.495 1.236 14.278z"/><path fill="#FFB921" d="M172.01 92.647 128.825 56.77c-8.138-6.76-20.212-5.64-26.968 2.504L12.231 167.299c-6.757 8.143-5.637 20.225 2.501 26.985l43.185 35.876c8.138 6.76 20.212 5.639 26.968-2.504l89.627-108.024c6.756-8.143 5.636-20.225-2.502-26.985"/><path fill="#000" d="M70.159 236.809a21.26 21.26 0 0 1-13.636-4.922l-43.194-35.88c-4.394-3.649-7.098-8.794-7.632-14.482s1.192-11.242 4.84-15.639l89.616-108.04c7.525-9.07 21.027-10.324 30.091-2.794l43.194 35.88c9.064 7.53 10.318 21.041 2.793 30.111l-89.625 108.04c-4.225 5.091-10.318 7.717-16.465 7.717zm-10.79-8.349c7.179 5.964 17.87 4.967 23.83-2.216l89.625-108.04c5.96-7.183 4.972-17.882-2.215-23.846l-43.193-35.88c-7.179-5.963-17.87-4.975-23.83 2.217l-89.625 108.04a16.82 16.82 0 0 0-3.834 12.381 16.8 16.8 0 0 0 6.04 11.464l43.193 35.88z"/><path fill="#FFFBE8" d="m165.248 97.175-39.62-32.913c-5.544-4.607-13.771-3.843-18.375 1.705L19.791 171.383c-4.603 5.548-3.84 13.78 1.705 18.387l39.619 32.913c5.545 4.606 13.772 3.843 18.375-1.706l87.462-105.415c4.604-5.549 3.841-13.781-1.704-18.387"/><path fill="#000" d="M69.465 227.916a15.18 15.18 0 0 1-9.74-3.516l-39.618-32.915a15.17 15.17 0 0 1-5.452-10.343 15.23 15.23 0 0 1 3.45-11.171L105.562 64.54a15.16 15.16 0 0 1 10.336-5.457 15.2 15.2 0 0 1 11.163 3.454l39.618 32.916a15.17 15.17 0 0 1 5.452 10.342 15.2 15.2 0 0 1-3.46 11.171L81.215 222.398c-3.015 3.631-7.374 5.509-11.759 5.509zm-6.902-6.942c4.59 3.809 11.43 3.177 15.237-1.416l87.454-105.431a10.75 10.75 0 0 0 2.447-7.922 10.76 10.76 0 0 0-3.861-7.334l-39.618-32.916a10.73 10.73 0 0 0-7.916-2.448 10.75 10.75 0 0 0-7.33 3.863L21.521 172.802a10.75 10.75 0 0 0-2.446 7.922 10.76 10.76 0 0 0 3.86 7.334l39.619 32.916z"/><path fill="#6DB5C3" d="m143.266 91.676-9.568-7.948-.58.698 9.568 7.948z"/><path fill="#000" d="M142.697 94.598c-.498 0-1.005-.17-1.423-.516l-9.562-7.948a2.2 2.2 0 0 1-.792-1.505 2.22 2.22 0 0 1 .507-1.628l.578-.704a2.226 2.226 0 0 1 3.131-.293l9.562 7.948c.454.374.739.917.792 1.504a2.22 2.22 0 0 1-.507 1.629l-.578.703a2.23 2.23 0 0 1-1.708.801z"/><path fill="#7A42C8" d="M88.153 139.602c-4.376 5.278-3.442 13.182 1.744 17.49l11.003 9.142c5.177 4.299 13.12 3.774 17.496-1.505l11.617-14.001-7.854-6.524-11.964 14.419c-1.041 1.255-2.313 1.344-3.273.543-.97-.801-1.112-2.065-.072-3.32l11.964-14.419-7.854-6.525-11.964 14.42c-1.04 1.255-2.312 1.344-3.273.543-.97-.801-1.112-2.065-.071-3.32l11.963-14.42-7.854-6.524-11.617 14.001zm-19.062.65c5.631 4.673 12.916 3.818 17.506-1.718l11.723-14.135-7.854-6.524-11.857 14.295c-1.04 1.255-2.313 1.344-3.273.543-.97-.801-1.112-2.065-.072-3.32l11.858-14.295-7.855-6.525-11.723 14.135c-4.59 5.536-4.092 12.862 1.539 17.535"/></svg>