<svg xmlns="http://www.w3.org/2000/svg" width="296" height="317" fill="none" viewBox="0 0 296 317"><path fill="#000" d="m291.146 55.902-.896-.247a6.47 6.47 0 0 0-.603-4.783 6.48 6.48 0 0 0-3.904-3.109L120.476.258a6.47 6.47 0 0 0-4.959.561 6.48 6.48 0 0 0-3.109 3.904l-.703 2.444-17.04-3.921a6.48 6.48 0 0 0-4.922.827 6.48 6.48 0 0 0-2.895 4.065L66.755 95.457 5.12 169.708a21.72 21.72 0 0 0-5 14.788 22 22 0 0 0-.023 4.352 21.76 21.76 0 0 0 7.818 14.826l28.497 23.656-7.244 31.481a6.53 6.53 0 0 0 4.893 7.818l.725.166a6.56 6.56 0 0 0 1.004 4.301 6.56 6.56 0 0 0 4.152 2.889l118.801 25.957 22.121 6.094a12.8 12.8 0 0 0 2.903 2.519c.705.831 1.51 1.586 2.427 2.228a12.73 12.73 0 0 0 7.329 2.323c.747 0 1.501-.065 2.252-.197l6.119-1.078 17.418 4.799a6.56 6.56 0 0 0 5.02-.626 6.57 6.57 0 0 0 3.108-3.991l1.355-4.921 53.154-9.363a12.74 12.74 0 0 0 8.278-5.271 12.74 12.74 0 0 0 2.126-9.582l-15.179-86.173a12.75 12.75 0 0 0-6.299-8.925 12.77 12.77 0 0 0-8.111-3.975l32.999-119.774a6.617 6.617 0 0 0-4.616-8.127M33.47 259.8l6.745-29.313 5.892 4.891-4.76 16.558a6.527 6.527 0 0 0 4.466 8.067l83.665 24.049-94.428-21.728a2.107 2.107 0 0 1-1.58-2.524M91.15 9.128a2.1 2.1 0 0 1 .935-1.313 2.1 2.1 0 0 1 1.59-.266l16.809 3.868-13.79 47.975-23.67 28.514zm26.505-4.446a2.1 2.1 0 0 1 1.602-.182l165.267 47.506c.54.155.988.512 1.26 1.005.272.491.336 1.06.181 1.6l-37.736 131.28-75.028 13.216c-6.916 1.219-11.551 7.835-10.333 14.751l13.953 79.21-129.789-37.307a2.11 2.11 0 0 1-1.441-2.605l4.225-14.698 2.317 1.923c3.967 3.293 8.855 5.051 13.948 5.051q1.027 0 2.064-.096a21.76 21.76 0 0 0 14.826-7.818l19.739-23.779c.176-.081.354-.154.524-.249l78.905-43.654c3.238-1.791 4.627-5.638 3.457-9.023a7.25 7.25 0 0 0-.871-2.757l-14.314-25.873 4.313-5.195c3.892-4.69 5.49-10.535 4.926-16.168.297-6.597-2.384-13.254-7.845-17.788l-44.219-36.706a21.67 21.67 0 0 0-15.947-4.936 21.75 21.75 0 0 0-8.857 2.802l13.869-48.25a2.1 2.1 0 0 1 1.004-1.26m143.946 183.465c1.692 0 3.341.517 4.755 1.508a8.27 8.27 0 0 1 3.421 5.371l15.179 86.174a8.27 8.27 0 0 1-1.379 6.217 8.27 8.27 0 0 1-5.371 3.42l-86.174 15.179c-4.521.796-8.84-2.232-9.637-6.75l-15.179-86.174c-.796-4.518 2.233-8.841 6.751-9.637l86.173-15.179a8.5 8.5 0 0 1 1.461-.129m-80.493-25.778a2.84 2.84 0 0 1-1.365 1.714l-66.229 36.641 53.869-64.894 13.479 24.363c.37.669.457 1.441.246 2.176M8.516 172.528 100.27 61.997a17.28 17.28 0 0 1 11.778-6.21q.823-.075 1.638-.076c4.046 0 7.929 1.397 11.081 4.013l44.219 36.706c7.38 6.126 8.4 17.116 2.273 24.497l-91.753 110.53a17.28 17.28 0 0 1-11.777 6.21 17.3 17.3 0 0 1-12.719-3.936l-44.218-36.706c-7.381-6.127-8.402-17.116-2.275-24.497"/><path fill="#FFB921" d="m129.478 284.054-83.665-24.05a6.527 6.527 0 0 1-4.466-8.067l4.76-16.558-5.892-4.89-6.745 29.313a2.11 2.11 0 0 0 1.58 2.524z"/><path fill="#FFB921" d="m96.693 59.392 13.791-47.975-16.81-3.868a2.1 2.1 0 0 0-1.589.267 2.1 2.1 0 0 0-.934 1.312L73.024 87.906z"/><path fill="#FFD885" d="M102.782 54.193a21.7 21.7 0 0 1 8.856-2.803 21.67 21.67 0 0 1 15.948 4.936l44.219 36.706c5.461 4.534 8.142 11.191 7.845 17.788.564 5.633-1.034 11.479-4.926 16.168l-4.313 5.195 14.314 25.873c.48.866.77 1.801.871 2.757 1.17 3.385-.219 7.231-3.457 9.022l-78.905 43.655c-.17.095-.348.168-.524.249l-19.74 23.779a21.76 21.76 0 0 1-14.825 7.818q-1.036.096-2.064.096c-5.093 0-9.98-1.757-13.948-5.051l-2.317-1.923-4.225 14.698a2.11 2.11 0 0 0 1.441 2.605l129.789 37.307-13.953-79.21c-1.218-6.915 3.417-13.532 10.333-14.751l75.028-13.216 37.736-131.28a2.1 2.1 0 0 0-.181-1.6 2.1 2.1 0 0 0-1.26-1.005L119.257 4.5a2.1 2.1 0 0 0-1.602.182 2.1 2.1 0 0 0-1.004 1.26zm-13.23 185.751c2.623-.327 4.907-.008 7.388.507 4.671 1.066 9.27 2.33 13.813 3.822 2.267.736 4.512 1.535 6.733 2.414a1.763 1.763 0 0 1-.961 3.376c-4.661-.829-9.263-1.892-13.865-2.949-4.038-1.004-9.995-1.953-13.672-3.845-1.537-.743-1.11-3.135.564-3.325m58.115 33.021a1040 1040 0 0 1-15.961-4.13c-14.714-4.212-33.168-8.35-47.395-13.853-1.864-.757-1.131-3.611.878-3.349 10.932 1.553 21.425 5.028 32.01 8.03 10.547 3.105 21.043 6.384 31.45 9.932 2.063.753 1.185 3.845-.982 3.37M268.015 67.518l-9.078 31.58a4.27 4.27 0 0 1-2.055 2.579 4.28 4.28 0 0 1-3.278.371l-87.607-25.182a4.27 4.27 0 0 1-2.58-2.054 4.28 4.28 0 0 1-.371-3.278l9.077-31.58a4.28 4.28 0 0 1 2.055-2.58 4.28 4.28 0 0 1 3.278-.37l87.607 25.182a4.28 4.28 0 0 1 2.58 2.054 4.28 4.28 0 0 1 .372 3.278"/><path fill="#FFD885" d="m263.742 66.4-87.404-25.124-9.02 31.377 87.405 25.123zm-80.258-13.412c12.144 1.375 23.878 4.846 35.66 7.934 11.737 3.22 23.408 6.685 34.946 10.56 2.086.743 1.203 3.871-.994 3.367-11.717-3.01-41.529-10.659-52.875-13.45-5.873-1.482-11.735-3.05-17.48-5.03-1.92-.669-1.292-3.585.743-3.38M250.84 86.29c-12.782-2.458-25.262-6.028-37.794-9.473-4.166-1.174-8.347-2.37-12.468-3.652-2.086-.662-1.405-3.813.774-3.539 17.218 2.613 34.285 7.092 50.376 13.772 1.631.717.872 3.22-.888 2.892"/><path fill="#FFD885" d="m254.824 97.806-.001-.001"/><path fill="#000" d="M267.643 64.24a4.28 4.28 0 0 0-2.58-2.054l-87.607-25.182a4.28 4.28 0 0 0-3.278.37 4.28 4.28 0 0 0-2.055 2.58l-9.077 31.58a4.28 4.28 0 0 0 .371 3.278 4.27 4.27 0 0 0 2.58 2.054l87.607 25.183a4.28 4.28 0 0 0 3.278-.371 4.27 4.27 0 0 0 2.055-2.58l9.078-31.58a4.28 4.28 0 0 0-.372-3.278m-12.92 33.537-87.405-25.124 9.02-31.377L263.742 66.4z"/><path fill="#D69200" d="M173.966 203.455c-4.517.796-7.546 5.119-6.75 9.637l15.179 86.174c.796 4.518 5.116 7.546 9.637 6.75l86.174-15.179a8.27 8.27 0 0 0 5.371-3.42 8.27 8.27 0 0 0 1.379-6.217l-15.179-86.173a8.27 8.27 0 0 0-3.421-5.372 8.26 8.26 0 0 0-6.216-1.379zm66.254 39.887a4.51 4.51 0 0 1-3.654 5.216l-19.237 3.388a4.51 4.51 0 0 1-5.217-3.653l-1.625-9.224a4.47 4.47 0 0 1 .747-3.365 4.47 4.47 0 0 1 2.907-1.851l19.237-3.39a4.51 4.51 0 0 1 5.217 3.654zm1.951 11.078 1.625 9.224a4.47 4.47 0 0 1-.747 3.365 4.47 4.47 0 0 1-2.907 1.852l-19.237 3.388q-.397.07-.792.07a4.47 4.47 0 0 1-2.573-.816 4.48 4.48 0 0 1-1.852-2.907l-1.625-9.225a4.48 4.48 0 0 1 .747-3.365 4.48 4.48 0 0 1 2.908-1.851l19.237-3.389c2.442-.438 4.785 1.209 5.216 3.654m-29.842 14.699a4.47 4.47 0 0 1-.747 3.364 4.47 4.47 0 0 1-2.907 1.852l-19.237 3.389a4.513 4.513 0 0 1-5.217-3.654l-1.625-9.224a4.51 4.51 0 0 1 3.655-5.217l19.237-3.388a4.47 4.47 0 0 1 3.365.746 4.48 4.48 0 0 1 1.852 2.907zm-32.562-27.941a4.47 4.47 0 0 1 2.908-1.851l19.236-3.389c2.445-.438 4.786 1.209 5.217 3.654l1.625 9.224a4.47 4.47 0 0 1-.747 3.365 4.47 4.47 0 0 1-2.907 1.852l-19.237 3.388q-.397.07-.792.07c-.915 0-1.808-.28-2.574-.816a4.48 4.48 0 0 1-1.851-2.908l-1.625-9.224a4.48 4.48 0 0 1 .747-3.365m3.882-6.123q-.6.105-1.191.104c-3.265 0-6.166-2.345-6.751-5.668l-2.421-13.744a6.866 6.866 0 0 1 5.563-7.944l78.188-13.771a6.8 6.8 0 0 1 5.124 1.136 6.8 6.8 0 0 1 2.819 4.428l2.42 13.743a6.865 6.865 0 0 1-5.563 7.943zm28.838 59.817h-.002l-19.237 3.388a4.51 4.51 0 0 1-5.217-3.654l-1.624-9.223a4.51 4.51 0 0 1 3.654-5.218l19.237-3.388a4.51 4.51 0 0 1 5.217 3.653l1.624 9.225a4.51 4.51 0 0 1-3.652 5.217m34.373-7.327a4.48 4.48 0 0 1-2.908 1.852l-19.237 3.389q-.396.07-.791.07a4.47 4.47 0 0 1-2.574-.817 4.47 4.47 0 0 1-1.852-2.908l-1.624-9.223a4.51 4.51 0 0 1 3.654-5.217l19.237-3.388a4.51 4.51 0 0 1 5.217 3.653l1.624 9.224a4.47 4.47 0 0 1-.746 3.365m22.962-57.933 8.485 48.165a6.47 6.47 0 0 1-5.242 7.485l-15.382 2.708a6.4 6.4 0 0 1-4.828-1.071 6.42 6.42 0 0 1-2.656-4.17l-8.484-48.166a6.467 6.467 0 0 1 5.241-7.483l15.383-2.71a6.4 6.4 0 0 1 4.827 1.071 6.42 6.42 0 0 1 2.656 4.171"/><path fill="#FFD885" d="M261.071 216.934a2.445 2.445 0 0 0 1.981-2.83l-2.42-13.743a2.45 2.45 0 0 0-2.829-1.982l-78.188 13.772a2.445 2.445 0 0 0-1.981 2.83l2.421 13.744a2.447 2.447 0 0 0 2.829 1.981z"/><path fill="#000" d="M261.837 221.282a6.865 6.865 0 0 0 5.563-7.943l-2.42-13.743a6.82 6.82 0 0 0-2.819-4.428 6.8 6.8 0 0 0-5.124-1.136l-78.188 13.772a6.864 6.864 0 0 0-5.563 7.943l2.421 13.744c.585 3.323 3.486 5.668 6.751 5.668q.59 0 1.191-.104zm-81.782 7.443-2.421-13.744a2.446 2.446 0 0 1 1.981-2.83l78.188-13.771q.214-.037.425-.037c1.162 0 2.195.835 2.404 2.018l2.42 13.744a2.445 2.445 0 0 1-1.981 2.829l-78.187 13.773a2.447 2.447 0 0 1-2.829-1.982"/><path fill="#FFB921" d="m234.159 234.811-.015.001-19.237 3.389c-.041.007-.079.061-.072.102l1.625 9.224a.09.09 0 0 0 .103.072l19.237-3.389c.041-.007.079-.061.072-.102l-1.625-9.224a.09.09 0 0 0-.088-.073"/><path fill="#000" d="m233.378 230.464-19.237 3.389a4.47 4.47 0 0 0-2.907 1.851 4.47 4.47 0 0 0-.747 3.365l1.625 9.224a4.51 4.51 0 0 0 5.217 3.654l19.237-3.389a4.51 4.51 0 0 0 3.654-5.216l-1.625-9.225a4.51 4.51 0 0 0-5.217-3.653m2.494 13.644c.007.041-.031.095-.072.102l-19.237 3.389a.09.09 0 0 1-.103-.072l-1.625-9.224c-.007-.041.031-.095.072-.102l19.237-3.389.015-.001c.043 0 .08.03.088.073z"/><path fill="#FFB921" d="M237.823 255.186a.09.09 0 0 0-.088-.073l-.015.001-19.237 3.389c-.041.008-.079.061-.072.103l1.625 9.223c.008.041.06.088.102.072l19.238-3.388a.09.09 0 0 0 .072-.103z"/><path fill="#000" d="m236.955 250.766-19.237 3.389a4.47 4.47 0 0 0-2.908 1.851 4.48 4.48 0 0 0-.747 3.365l1.625 9.225a4.48 4.48 0 0 0 1.852 2.907 4.47 4.47 0 0 0 3.365.745l19.237-3.388a4.47 4.47 0 0 0 2.907-1.851c.691-.985.956-2.18.747-3.365l-1.625-9.225c-.431-2.444-2.774-4.092-5.216-3.653m2.493 13.644a.09.09 0 0 1-.072.102l-19.238 3.388c-.042.017-.094-.031-.102-.071l-1.625-9.224c-.007-.041.031-.095.072-.102l19.237-3.39h.015c.043 0 .081.03.088.073z"/><path fill="#FFB921" d="m241.546 275.65-.015.001-19.237 3.388a.09.09 0 0 0-.072.103l1.624 9.223c.008.042.059.067.103.073l19.237-3.389c.041-.008.079-.061.072-.103l-1.624-9.224a.09.09 0 0 0-.088-.072"/><path fill="#000" d="M245.982 274.956a4.51 4.51 0 0 0-5.217-3.653l-19.237 3.388a4.51 4.51 0 0 0-3.654 5.217l1.624 9.223a4.47 4.47 0 0 0 1.852 2.908 4.47 4.47 0 0 0 3.365.747l19.237-3.389a4.48 4.48 0 0 0 2.908-1.852c.69-.985.955-2.18.746-3.365zm-2.796 10.093-19.237 3.389c-.044-.006-.095-.031-.103-.073l-1.624-9.223a.09.09 0 0 1 .072-.103l19.237-3.388.015-.001c.042 0 .08.03.088.072l1.624 9.224c.007.041-.031.095-.072.103"/><path fill="#FFB921" d="m185.095 253.073 19.238-3.388c.041-.008.079-.062.072-.103l-1.625-9.224a.09.09 0 0 0-.088-.073l-.015.001-19.237 3.389c-.041.008-.079.061-.072.103l1.625 9.223c.008.041.062.083.102.072"/><path fill="#000" d="M182.496 256.675a4.48 4.48 0 0 0 3.366.746l19.237-3.389a4.47 4.47 0 0 0 2.907-1.851c.691-.985.956-2.18.747-3.365l-1.625-9.225c-.431-2.444-2.772-4.091-5.217-3.653l-19.236 3.389a4.47 4.47 0 0 0-2.908 1.851 4.48 4.48 0 0 0-.747 3.365l1.625 9.224a4.48 4.48 0 0 0 1.851 2.908m.944-13 19.237-3.389.015-.001c.043 0 .081.03.088.073l1.625 9.224c.007.041-.031.095-.072.102l-19.238 3.389c-.04.011-.094-.031-.102-.072l-1.625-9.224c-.007-.041.031-.095.072-.102"/><path fill="#FFB921" d="m206.265 260.588-.01.001-19.239 3.388c-.04.008-.078.061-.072.102l1.625 9.224c.009.049.051.08.103.073l19.237-3.389c.041-.008.079-.062.072-.103l-1.624-9.224c-.007-.037-.053-.072-.092-.072"/><path fill="#000" d="M208.853 256.987a4.47 4.47 0 0 0-3.365-.746l-19.237 3.388a4.51 4.51 0 0 0-3.655 5.216l1.625 9.225a4.513 4.513 0 0 0 5.217 3.654l19.237-3.389a4.47 4.47 0 0 0 2.907-1.852c.691-.985.956-2.18.747-3.365l-1.624-9.224a4.48 4.48 0 0 0-1.852-2.907m-.944 13-19.237 3.389a.09.09 0 0 1-.103-.073l-1.625-9.223c-.006-.042.032-.095.072-.103l19.239-3.388.01-.001c.039 0 .085.035.092.072l1.624 9.224c.007.041-.031.095-.072.103"/><path fill="#FFB921" d="M210.167 281.197a.09.09 0 0 0-.088-.073l-.015.001-19.237 3.388a.09.09 0 0 0-.072.104l1.624 9.223c.01.048.058.083.104.072l19.235-3.388a.09.09 0 0 0 .073-.104z"/><path fill="#000" d="m216.139 289.655-1.624-9.225a4.51 4.51 0 0 0-5.217-3.653l-19.237 3.388a4.51 4.51 0 0 0-3.654 5.218l1.624 9.223a4.51 4.51 0 0 0 5.217 3.654l19.237-3.388h.002a4.51 4.51 0 0 0 3.652-5.217m-4.348.765a.09.09 0 0 1-.073.104l-19.235 3.388c-.046.011-.094-.024-.104-.071l-1.624-9.224a.09.09 0 0 1 .072-.104l19.237-3.388.015-.001c.043 0 .08.03.088.073z"/><path fill="#FFB921" d="M265.474 230.378a2.03 2.03 0 0 0-.841-1.321 2.04 2.04 0 0 0-1.528-.339l-15.383 2.71a2.047 2.047 0 0 0-1.659 2.369l8.484 48.166a2.044 2.044 0 0 0 2.369 1.66l15.382-2.709a2.05 2.05 0 0 0 1.661-2.371z"/><path fill="#000" d="M267.166 225.441a6.4 6.4 0 0 0-4.827-1.071l-15.383 2.71a6.467 6.467 0 0 0-5.241 7.483l8.484 48.166a6.42 6.42 0 0 0 2.656 4.17 6.4 6.4 0 0 0 4.828 1.071l15.381-2.708a6.47 6.47 0 0 0 5.243-7.485l-8.485-48.165a6.42 6.42 0 0 0-2.656-4.171m5.132 55.473-15.382 2.708a2.043 2.043 0 0 1-2.369-1.659l-8.484-48.166a2.047 2.047 0 0 1 1.659-2.369l15.383-2.71q.18-.032.359-.032c.416 0 .821.128 1.169.371.448.314.747.783.841 1.321l8.485 48.165a2.05 2.05 0 0 1-1.661 2.371"/><path fill="#000" d="M251.728 83.398c-16.091-6.68-33.158-11.159-50.376-13.772-2.18-.274-2.86 2.877-.774 3.539 4.121 1.281 8.302 2.477 12.468 3.651 12.532 3.446 25.012 7.016 37.794 9.474 1.76.329 2.519-2.175.888-2.892"/><path fill="#000" d="M253.096 74.849c2.197.504 3.08-2.624.994-3.366-11.538-3.876-23.209-7.342-34.946-10.561-11.782-3.088-23.516-6.559-35.66-7.934-2.035-.204-2.663 2.712-.743 3.38 5.745 1.98 11.607 3.55 17.48 5.032 11.346 2.79 41.158 10.438 52.875 13.449"/><path fill="#000" d="M148.649 269.595c-10.407-3.548-20.903-6.827-31.45-9.932-10.585-3.002-21.078-6.477-32.01-8.03-2.01-.262-2.741 2.592-.878 3.349 14.227 5.503 32.681 9.641 47.395 13.853a1040 1040 0 0 0 15.961 4.13c2.167.475 3.045-2.617.982-3.37"/><path fill="#000" d="M88.988 243.269c3.677 1.892 9.634 2.841 13.672 3.845 4.602 1.057 9.204 2.12 13.865 2.949a1.763 1.763 0 0 0 .961-3.376 114 114 0 0 0-6.733-2.413 154 154 0 0 0-13.812-3.823c-2.481-.514-4.766-.834-7.39-.507-1.674.19-2.1 2.582-.563 3.325"/><path fill="#7A42C8" d="m180.862 160.193-13.479-24.363-53.869 64.894 66.229-36.641a2.84 2.84 0 0 0 1.365-1.713 2.85 2.85 0 0 0-.246-2.177m-23.753-5.383 6.007-3.323a4.66 4.66 0 0 1 6.327 1.819l1.948 3.522a4.62 4.62 0 0 1 .398 3.539 4.62 4.62 0 0 1-2.218 2.787l-6.007 3.324a4.62 4.62 0 0 1-3.539.397 4.62 4.62 0 0 1-2.787-2.216l-1.948-3.522a4.66 4.66 0 0 1 1.819-6.327"/><path fill="#D5C3EE" d="M167.545 159.147a.24.24 0 0 0-.017-.182l-1.948-3.521a.25.25 0 0 0-.215-.122.23.23 0 0 0-.111.029l-6.007 3.322a.247.247 0 0 0-.094.327l1.948 3.521c.038.068.1.099.144.112.045.011.114.02.181-.019l6.008-3.323a.24.24 0 0 0 .111-.144"/><path fill="#000" d="m155.29 161.137 1.948 3.522a4.62 4.62 0 0 0 2.787 2.216 4.62 4.62 0 0 0 3.539-.397l6.007-3.324a4.62 4.62 0 0 0 2.218-2.787 4.62 4.62 0 0 0-.398-3.539l-1.948-3.522a4.66 4.66 0 0 0-6.327-1.819l-6.007 3.323a4.66 4.66 0 0 0-1.819 6.327m12.145-1.846-6.009 3.323a.23.23 0 0 1-.181.018.24.24 0 0 1-.144-.111L159.153 159a.247.247 0 0 1 .094-.327l6.007-3.322a.23.23 0 0 1 .111-.029c.086 0 .172.045.215.122l1.948 3.521c.038.069.03.137.017.182a.23.23 0 0 1-.11.144"/><path fill="#FFB921" d="m10.79 197.025 44.219 36.706a17.3 17.3 0 0 0 12.72 3.937 17.3 17.3 0 0 0 11.776-6.211l91.753-110.53c6.127-7.381 5.107-18.37-2.273-24.497l-44.219-36.706a17.27 17.27 0 0 0-12.719-3.936 17.28 17.28 0 0 0-11.778 6.21L8.516 172.527c-6.127 7.381-5.106 18.37 2.274 24.497m91.608-131.006c5.482-6.604 15.314-7.517 21.917-2.035l40.564 33.674a15.46 15.46 0 0 1 5.557 10.537 15.46 15.46 0 0 1-3.522 11.379L77.377 227.436c-3.074 3.703-7.517 5.616-11.99 5.616a15.5 15.5 0 0 1-9.927-3.581l-40.565-33.673c-6.603-5.482-7.515-15.314-2.034-21.917z"/><path fill="#FFFBE8" d="M166.04 108.603a11.08 11.08 0 0 0-3.98-7.548l-40.565-33.673c-4.729-3.925-11.772-3.273-15.699 1.457L16.258 176.7c-3.926 4.73-3.272 11.773 1.457 15.699l40.565 33.673c4.73 3.928 11.773 3.273 15.7-1.457l89.536-107.862a11.07 11.07 0 0 0 2.524-8.151m-50.122 36.024-12.249 14.756c-1.067 1.285-.916 2.578.072 3.399.988.82 2.287.73 3.353-.555l12.25-14.756 8.036 6.671-11.893 14.328c-4.485 5.402-12.612 5.944-17.915 1.542l-11.264-9.351c-5.303-4.403-6.267-12.491-1.783-17.892l11.894-14.328 8.037 6.671-12.25 14.756c-1.066 1.285-.915 2.578.073 3.399.988.82 2.287.73 3.353-.555l12.249-14.756zm-52.484-19.143 12.004-14.46 8.036 6.671-12.14 14.625c-1.066 1.284-.915 2.578.073 3.398s2.287.73 3.353-.555l12.14-14.624 8.037 6.671-12.003 14.46c-4.703 5.665-12.161 6.54-17.925 1.755s-6.277-12.276-1.575-17.941m79.22-30.342-.596.718a2.21 2.21 0 0 1-3.109.288l-9.793-8.129a2.21 2.21 0 0 1-.289-3.109l.596-.717a2.21 2.21 0 0 1 3.109-.29l9.793 8.13a2.21 2.21 0 0 1 .289 3.11"/><path fill="#000" d="M12.86 173.881c-5.48 6.603-4.568 16.434 2.035 21.916l40.565 33.674a15.5 15.5 0 0 0 9.927 3.581c4.473 0 8.916-1.913 11.99-5.616l89.537-107.862a15.47 15.47 0 0 0 3.522-11.38 15.46 15.46 0 0 0-5.557-10.537l-40.564-33.673c-6.603-5.482-16.435-4.57-21.917 2.034zm150.656-57.127L73.98 224.616c-3.927 4.73-10.97 5.385-15.7 1.457L17.715 192.4c-4.73-3.926-5.383-10.969-1.457-15.699l89.538-107.863c3.927-4.73 10.97-5.382 15.699-1.456l40.565 33.673a11.08 11.08 0 0 1 3.98 7.547 11.07 11.07 0 0 1-2.524 8.152"/><path fill="#000" d="M132.572 83.904a2.21 2.21 0 0 0-3.109.289l-.596.717a2.21 2.21 0 0 0 .289 3.109l9.793 8.13a2.207 2.207 0 0 0 3.109-.29l.595-.717c.779-.938.65-2.33-.288-3.109z"/><path fill="#7A42C8" d="m107.881 137.956-12.249 14.756c-1.066 1.284-2.365 1.375-3.353.554-.988-.82-1.139-2.113-.072-3.398l12.249-14.756-8.037-6.671-11.894 14.328c-4.484 5.401-3.52 13.489 1.783 17.891l11.264 9.352c5.303 4.402 13.43 3.86 17.915-1.542l11.893-14.328-8.036-6.671-12.25 14.756c-1.066 1.284-2.365 1.375-3.353.554-.988-.82-1.139-2.113-.072-3.398l12.249-14.756z"/><path fill="#7A42C8" d="M65.009 143.425c5.764 4.785 13.222 3.91 17.925-1.755l12.003-14.46-8.037-6.671-12.14 14.624c-1.066 1.285-2.365 1.375-3.353.554-.988-.82-1.139-2.113-.072-3.398l12.14-14.624-8.037-6.671-12.004 14.459c-4.702 5.665-4.19 13.157 1.575 17.942"/></svg>