<svg xmlns="http://www.w3.org/2000/svg" width="328" height="391" fill="none" viewBox="0 0 328 391"><path fill="#000" d="M292.289 374.619c0-9.034-62.725-16.357-140.095-16.357s-140.096 7.323-140.096 16.357 62.725 16.356 140.096 16.356c77.37 0 140.095-7.323 140.095-16.356"/><path fill="#000" d="M14.139 230.442c-.39.19-.61.69-.38 1.13 0-.02-.01-.03-.02-.04v.03l.03.1.09.28c.08.251.14.521.26.751l-.09-.27c.08.3.22.6.34.89.09.22.19.44.3.67.21.45.42.901.62 1.351.41.88.8 1.77 1.19 2.661.781 1.791 1.562 3.581 2.252 5.392.35.93.68 1.871 1 2.801.82 2.471 1.47 4.992 1.82 7.533.091.62.151 1.241.201 1.861.12 1.72.11 3.441-.08 5.122-.06.5-.13 1-.22 1.49.02-.13.05-.27.07-.4-.02.13-.04.26-.07.38-.31 1.711-.81 3.362-1.53 4.902a16.4 16.4 0 0 1-2.392 3.572c-.23.25-.48.49-.7.75l.24-.27c-.26.26-.54.5-.82.73-.2-1.32-.5-2.631-.92-3.911-.61-1.861-1.471-3.702-2.852-5.152-1.25-1.321-2.95-2.331-4.722-2.351-.75 0-1.47.12-2.15.39-.63.25-1.22.63-1.721 1.07a7.16 7.16 0 0 0-2.17 3.532 6.5 6.5 0 0 0-.221 2.111c.05.84.24 1.63.58 2.431.67 1.58 1.891 2.961 3.272 3.961.34.25.7.47 1.07.67.75.41 1.51.761 2.32.991.851.24 1.721.43 2.592.48.54.03 1.08.02 1.61-.03h-.29a5.8 5.8 0 0 0 1.37-.19c.381-.09.761-.2 1.131-.33 0 .31.01.63.01.94 0 .76-.05 1.521-.13 2.281-.04.38-.09.76-.15 1.13-.01.09-.03.17-.04.261 0 .02 0 .04-.01.06v-.04c.02-.1.02-.05-.02.13 0 .05-.01.1-.02.15l-.09.56v.02c0 .04-.01.08-.02.12-.02.09-.04.19-.05.28l-.12.56c-.08.37-.17.741-.27 1.101-.2.72-.44 1.42-.69 2.121a20.5 20.5 0 0 1-1.08 2.501c-.07.14-.05.32.09.43.14.1.32.07.41-.06.47-.681.9-1.401 1.28-2.131.4-.76.73-1.571 1.03-2.391.28-.79.53-1.611.72-2.431.21-.87.34-1.761.43-2.661.121-1.161.151-2.341.101-3.522.36-.18.71-.39 1.05-.6a13.2 13.2 0 0 0 3.522-3.221c.96-1.251 1.71-2.671 2.31-4.152.58-1.42.981-2.911 1.241-4.441.51-2.982.44-6.103 0-9.174a35 35 0 0 0-.91-4.392 48 48 0 0 0-1.8-5.402 76 76 0 0 0-2.202-4.892c-.79-1.611-1.68-3.191-2.56-4.762-.26-.47-.521-.95-.811-1.4.06.09.12.18.17.27-.09-.17-.19-.32-.29-.48-.13-.211-.26-.461-.42-.651-.11-.16-.22-.32-.34-.47-.1-.12-.19-.24-.29-.35-.24-.37-.71-.59-1.101-.4zm-3.431 43.537a9 9 0 0 1-1.851-.25 9.4 9.4 0 0 1-2.01-.81 10 10 0 0 1-1.692-1.221c-.4-.39-.75-.81-1.06-1.27a7 7 0 0 1-.4-.731c-.07-.14-.13-.27-.18-.41-.03-.06-.05-.13-.07-.19-.01-.03-.03-.07-.04-.1-.08-.25-.14-.51-.19-.76a5 5 0 0 1-.05-.37v-.23c0-.261 0-.521.03-.781.01-.12.03-.24.05-.36.01-.06.03-.13.04-.19.06-.25.13-.5.22-.74.04-.11.09-.23.13-.34l.06-.15c0 .02-.02.04-.03.06.01-.02.02-.04.03-.07.02-.04.06-.12.03-.05.24-.481.54-.921.89-1.321.33-.35.69-.66 1.09-.92.3-.18.61-.33.951-.441.04-.01.08-.03.12-.04 0 0 .03 0 .05-.01.02 0 .03 0 .04-.01l.15-.03c.19-.04.37-.06.56-.08.08 0 .16 0 .24-.01h.14c.2.01.39.04.59.07.04 0 .09.02.13.03.01 0 .04.01.07.02.03 0 .05.01.06.02.07.02.151.05.221.07.25.091.49.191.73.311.02.01.05.03.07.04.06.03.11.06.16.1.13.08.25.16.38.25q.33.24.63.51c.531.51.991 1.09 1.391 1.711.07.11.13.21.2.32-.04-.07-.08-.13-.13-.2.44.71.81 1.46 1.12 2.221.08.19.15.39.22.58.03.09.06.18.1.27 0 .02.01.04.02.05l.03.1c.121.37.231.74.341 1.11.21.761.38 1.531.52 2.301.05.26.08.521.12.791-.65.36-1.33.65-2.05.86-.14.03-.28.07-.41.1-.58.13-1.171.2-1.771.2z"/><path fill="#000" d="M12.759 289.705c-.38 0-.76-.12-1.071-.35-.74-.53-.96-1.51-.55-2.331.08-.15.16-.31.23-.47.28-.57.53-1.2.77-1.861.22-.61.47-1.32.66-2.01.09-.341.18-.681.26-1.031.04-.18.08-.35.11-.52l.05-.26s.01-.05.02-.09c.04-.22.06-.39.09-.56 0-.02.02-.17.03-.19v-.051s.02-.07.02-.1l.03-.22c.06-.36.1-.72.14-1.08.04-.37.07-.74.09-1.121-.13.02-.26.041-.38.051-.05.01-.1.02-.15.02-.59.06-1.21.07-1.84.04-.89-.05-1.82-.221-2.921-.531-.84-.24-1.681-.6-2.631-1.12-.44-.24-.84-.49-1.22-.76-1.702-1.221-3.042-2.862-3.782-4.592a9 9 0 0 1-.7-2.921c-.05-.831.04-1.701.27-2.581a8.7 8.7 0 0 1 2.63-4.282 7.4 7.4 0 0 1 2.151-1.331c.85-.34 1.781-.5 2.731-.5 2.001.02 4.122 1.051 5.793 2.821 1.35 1.421 2.39 3.292 3.191 5.723.14.42.26.84.38 1.27.55-.73 1.04-1.521 1.44-2.351.621-1.34 1.091-2.851 1.391-4.452v-.04c.08-.46.15-.93.2-1.4.17-1.521.2-3.151.08-4.852a38 38 0 0 0-.19-1.761c-.32-2.291-.91-4.742-1.76-7.263-.31-.92-.63-1.83-.98-2.751-.661-1.741-1.401-3.441-2.222-5.332-.39-.88-.78-1.761-1.18-2.641l-.62-1.341c-.11-.24-.22-.48-.32-.72l-.08-.19c-.07-.16-.14-.32-.21-.51-.11-.25-.17-.48-.23-.67l-.14-.481a2.325 2.325 0 0 1 1.15-2.961c1.01-.49 2.25-.13 2.94.831a11 11 0 0 1 .661.87c.14.18.26.38.38.58l.16.26c.1.16.2.32.29.48.17.281.32.561.48.841l.32.57c.821 1.461 1.672 2.971 2.422 4.512a75 75 0 0 1 2.24 4.982c.7 1.73 1.331 3.601 1.861 5.572.41 1.521.73 3.061.94 4.582.491 3.491.491 6.733-.01 9.644a23 23 0 0 1-1.33 4.752c-.71 1.75-1.54 3.221-2.51 4.491-1.111 1.451-2.432 2.661-3.932 3.582-.11.07-.21.13-.32.2 0 .98-.04 1.901-.13 2.801a21 21 0 0 1-.47 2.851c-.21.88-.47 1.751-.771 2.591-.34.96-.71 1.801-1.11 2.571-.41.79-.88 1.561-1.371 2.291a1.8 1.8 0 0 1-1.46.78zm-7.944-21.218.08.22c.05.12.09.23.15.33.1.2.21.39.33.59.22.331.51.681.83.991.391.35.871.7 1.391 1 .49.26 1.07.49 1.671.66.46.11.95.181 1.46.201.49 0 .971-.061 1.431-.171l.41-.1c.23-.07.47-.16.72-.26a23 23 0 0 0-.75-2.871s-.04-.13-.05-.14l-.08-.23c-.06-.17-.13-.35-.2-.53a13 13 0 0 0-1.01-2.001c0-.01-.01-.02-.02-.03l-.04-.07c-.35-.54-.75-1.03-1.17-1.441-.12-.11-.29-.25-.46-.38-.09-.07-.19-.13-.29-.19l-.141-.08a7 7 0 0 0-.54-.23l-.27-.08c-.14-.03-.27-.04-.4-.05h-.19a2.5 2.5 0 0 0-.38.06l-.1.02c-.29.1-.511.2-.741.33-.23.15-.51.38-.76.65-.24.281-.47.621-.65.971v.01s-.03.07-.04.09c-.04.1-.07.18-.1.27-.07.19-.12.38-.17.57l-.03.14s-.02.13-.03.22c-.02.2-.03.39-.02.591v.12c.02.1.03.19.05.28.03.18.08.35.13.53zm18.217-6.423-.07.381c-.34 1.88-.89 3.651-1.64 5.272a17.8 17.8 0 0 1-2.441 3.721c.38-.38.73-.79 1.07-1.22.81-1.061 1.5-2.301 2.121-3.802.51-1.25.9-2.641 1.15-4.132.45-2.601.45-5.532 0-8.713-.2-1.391-.49-2.811-.87-4.212-.44-1.63-.95-3.191-1.51-4.652.12.331.23.661.34.991.91 2.711 1.54 5.332 1.89 7.803q.135.975.21 1.951.195 2.869-.09 5.422c-.04.35-.08.7-.14 1.04 0 .05 0 .09-.02.14z"/><path fill="#000" d="M3.695 264.996s-.02.04-.03.05c.01-.02.02-.05.03-.06z"/><path fill="#000" d="M3.665 266.546c-.23 0-.46-.05-.68-.16a1.504 1.504 0 0 1-.66-2.011v-.02s.02-.04.03-.05c.07-.13.17-.28.27-.37h.01c.37-.33.89-.49 1.39-.37.67.17 1.16.74 1.16 1.431 0 .22-.05.43-.14.63 0 .01-.01.02-.02.03-.01.03-.03.07-.04.08-.27.51-.79.81-1.33.81z"/><path fill="#000" d="M13.749 231.532c-.06-.12-.02-.06 0 0"/><path fill="#000" d="M13.749 233.032c-.55 0-1.08-.3-1.34-.82-.25-.5-.24-1.16.08-1.621.32-.45.86-.7 1.42-.62.49.06.94.42 1.18.871.03.05.05.11.07.16.28.75-.07 1.58-.8 1.9-.2.09-.4.13-.61.13"/><path fill="#000" d="M6.546 274.679s-.07-.04-.1-.06-.07-.04-.1-.06c.07.04.14.08.21.11z"/><path fill="#000" d="M6.546 276.18c-.22 0-.43-.05-.64-.14l-.06-.03h-.01l-.21-.11a1.495 1.495 0 0 1-.58-2.031c.4-.721 1.31-.991 2.03-.6l.1.05s.08.05.1.06c.72.4.98 1.31.58 2.04-.27.501-.79.781-1.32.781z"/><path fill="#DCEDF1" d="M239.688 221.708c13.136 41.717-55.051-4.391-55.051-4.391s-66.147-61.125-79.542-90.426c0 0-13.395-25.12 1.671-25.951"/><path fill="#000" d="M232.796 241.676c-6.233 0-15.036-2.921-26.591-8.793-12.065-6.133-22.859-13.416-22.969-13.496l-.3-.23c-2.711-2.511-66.566-61.704-80.082-91.156-1.08-2.031-8.793-17.157-4.372-25.02 1.08-1.921 3.382-4.271 8.154-4.542l.28 4.992c-2.721.15-3.622 1.211-4.072 2.001-2.371 4.212 1.481 14.676 4.462 20.288l.07.14c12.745 27.871 75.4 86.315 78.821 89.496 1.351.9 11.305 7.493 22.319 13.085 20.498 10.424 26.821 8.483 28.581 7.173 2.912-2.171 1.721-8.343.21-13.145l4.772-1.501c2.901 9.234 2.241 15.506-1.99 18.657-1.841 1.371-4.262 2.061-7.283 2.061z"/><path fill="#DCEDF1" d="M106.766 100.941c32.643-1.81 119.937 79.541 132.912 120.778z"/><path fill="#000" d="M237.297 222.459c-5.872-18.658-28.791-48.269-58.383-75.44-29.701-27.261-57.963-44.338-71.998-43.588l-.28-4.992c15.766-.87 44.077 15.907 75.66 44.898 30.192 27.721 53.661 58.183 59.773 77.621z"/><path fill="#D5C3EE" d="m30.165 304.631 69.488-195.947s22.609 43.327 60.704 79.331c23.859 22.549 63.635 47.719 76.19 49.4 10.764 1.43-151.78 58.793-198.578 75.2-4.933 1.73-9.634-3.082-7.804-7.974z"/><path fill="#000" d="M157.526 64.966c1.24-7.183 3.331-14.195 5.602-21.108 1.29-3.532 6.523-2.041 5.772 1.63-.8 3.592-1.84 7.123-2.981 10.615-1.16 3.531-2.401 6.972-4.122 10.304a2.294 2.294 0 0 1-3.081.96 2.28 2.28 0 0 1-1.19-2.39"/><path fill="#6DB5C3" d="m49.723 249.47 9.554-26.951 23.37 9.314 39.165 15.266 61.374 13.265-70.528 25.9-37.135-14.245z"/><path fill="#DCEDF1" d="m39.489 279.652 9.564-26.951 24.12 18.217 38.915 15.266L65.289 302.2z"/><path fill="#000" d="m64.729 305.042-28.161-24.62 11.264-31.763 26.57 20.068 44.939 17.627-54.612 18.698zM42.42 278.891l23.43 20.478 38.985-13.345-32.893-12.895-21.679-16.367-7.853 22.129z"/><path fill="#FFB921" d="m29.375 308.482 9.554-26.95L69.28 302.76l-32.423 10.724z"/><path fill="#000" d="M151.373 45.968c-.66-7.253-.45-14.576-.06-21.839.331-3.741 5.773-3.661 6.003.08.15 3.672.06 7.353-.13 11.025-.21 3.711-.51 7.363-1.311 11.014a2.28 2.28 0 0 1-2.731 1.72 2.28 2.28 0 0 1-1.771-2"/><path fill="#000" d="M129.365 116.806c14.746-25.77 19.207-56.782 8.663-84.914-1.45-4.151-3.431-8.593-5.402-12.535-1.05-2.05-2.191-4.061-3.271-6.102-.961-1.85 1.67-3.471 2.881-1.71 18.977 27.84 22.499 64.645 7.163 94.957-2.171 4.282-4.552 8.323-7.593 12.105-.531.65-1.481.75-2.131.22-.62-.5-.73-1.371-.31-2.021"/><path fill="#FFFBE8" d="m89.279 137.935-14.676 41.376s23.98 16.066 34.154 18.777 32.222 11.195 58.333 15.267 30.182 4.411 30.182 4.411-42.057-32.893-48.84-40.696c-6.782-7.803-14.926-18.987-14.926-18.987s-24.079-7.123-25.44-7.123l-18.797-13.015z"/><path fill="#FFFBE8" d="m97.922 110.464-9.173 29.802s31.542 13.225 41.716 15.936c-6.272-13.566-22.889-32.723-25.1-38.155z"/><path fill="#000" d="M133.016 80.462c2.051-11.665.41-24.03-3.981-35.004-1.711-4.432-4.112-8.673-6.393-12.805-1.2-2.171-2.591-4.192-3.691-6.443-.391-.77-.09-1.7.66-2.09.59-.3 1.28-.18 1.74.26.921.87 1.781 1.8 2.642 2.74 3.501 3.742 6.122 8.214 8.343 12.836.86 2.12 2.191 5.022 2.801 7.203.31 1.05.89 2.64 1.11 3.711 2.571 10.004 3.052 20.668.13 30.652-.73 2.171-3.931 1.19-3.381-1.05"/><path fill="#000" d="M285.256 207.503c7.073 1.761 14.336 2.671 21.579 3.391 3.752.24 4.492-5.152.83-5.942-3.611-.71-7.252-1.191-10.914-1.551-3.701-.36-7.353-.62-11.084-.38a2.29 2.29 0 0 0-2.121 2.431c.07 1.01.78 1.821 1.71 2.051"/><path fill="#000" d="M300.162 220.798c6.373 3.532 13.156 6.293 19.968 8.854 3.562 1.21 5.673-3.812 2.341-5.522-3.301-1.621-6.702-3.022-10.144-4.322-3.481-1.301-6.943-2.501-10.614-3.241a2.278 2.278 0 0 0-1.551 4.221"/><path fill="#000" d="M43.77 336.274c6.373 3.531 13.156 6.292 19.969 8.853 3.561 1.211 5.672-3.811 2.34-5.522-3.3-1.621-6.702-3.021-10.143-4.322-3.482-1.3-6.943-2.501-10.615-3.241a2.278 2.278 0 0 0-1.55 4.222"/><path fill="#000" d="M226.463 212.375c29.532-3.102 59.704 5.322 81.202 26.31 3.222 3.001 6.483 6.603 9.294 9.994 1.451 1.781 2.831 3.641 4.262 5.452 1.3 1.621 3.851-.13 2.731-1.941-17.827-28.591-50.09-46.658-84.013-44.837-4.792.26-9.454.81-14.136 2.07a1.51 1.51 0 0 0-1.06 1.861c.21.761.96 1.221 1.72 1.091"/><path fill="#000" d="M261.197 223.688c11.505 2.832 22.149 9.314 30.432 17.747 3.361 3.352 6.283 7.263 9.144 11.015 1.5 1.971 2.791 4.061 4.411 5.972.551.66 1.521.771 2.181.24.511-.41.681-1.1.471-1.69-.431-1.191-.931-2.361-1.441-3.522-2.011-4.712-5.052-8.913-8.383-12.815-1.591-1.64-3.722-4.031-5.463-5.472-.83-.71-2.06-1.881-2.941-2.511-8.123-6.393-17.687-11.124-28.001-12.475-2.281-.2-2.681 3.121-.4 3.511"/><path fill="#000" d="M298.132 174.609c.03.11.07.22.1.33-.08-.53-.271-1.07-.441-1.59-.18-.561-.35-1.141-.58-1.691-.04-.16-.08-.33-.13-.5-.12-.39-.21-.851-.4-1.221-.1-.28-.21-.55-.32-.82-.11-.25-.22-.48-.34-.7-.05-.14-.1-.27-.17-.4-.08-.151-.16-.311-.24-.461q-.391-.75-.901-1.44c-.4-.54-.83-1.061-1.27-1.561-1.051-1.2-2.261-2.281-3.522-3.251a27.2 27.2 0 0 0-7.813-4.242 26 26 0 0 0-8.613-1.43c-1.551 0-3.111.12-4.652.36-1.531.24-3.021.65-4.492 1.13-.61.2-1.22.43-1.811.681a27.7 27.7 0 0 0-5.232-1.441c-2.841-.49-5.792-.42-8.653-.06-5.832.72-11.425 2.901-16.637 5.552-.33.17-.66.33-.99.51-.12.07-.23.15-.35.22.2-.12.26-.15.15-.09-.07.04-.13.08-.2.12-.16.1-.32.191-.48.291-.681.42-1.351.84-2.011 1.27-.26.17-.46.62-.47.91s.05.561.21.811c.36.57 1.05.75 1.66.49.851-.36 1.721-.68 2.571-1.041.16-.06.11-.05-.12.041.17-.031.32-.091.471-.171.08-.04.17-.08.25-.12.23-.1.45-.2.68-.3.41-.18.82-.36 1.24-.53a69 69 0 0 1 4.952-1.841c3.262-1.02 6.633-1.74 10.044-1.94 2.361-.1 4.742.05 7.063.52.03 0 .06.02.09.02-.03.02-.06.04-.08.06-1.33.98-2.521 2.111-3.641 3.331a21.3 21.3 0 0 0-2.681 3.582c-1.651 2.801-2.821 5.982-2.902 9.263-.08 2.911.571 5.893 2.001 8.434.701 1.25 1.551 2.461 2.561 3.481 1.181 1.2 2.471 2.151 3.992 2.881 2.201 1.061 4.812 1.291 7.203.91 2.451-.39 4.772-1.47 6.762-2.941 1.041-.76 1.931-1.66 2.791-2.621.721-.79 1.351-1.65 1.901-2.571 1.311-2.211 2.211-4.642 2.421-7.223.22-2.671-.35-5.372-1.36-7.833-.521-1.26-1.241-2.441-2.021-3.551a19 19 0 0 0-2.261-2.671 28 28 0 0 0-2.331-2.041c.82-.14 1.641-.23 2.471-.29 1.971-.07 3.952.09 5.882.48 1.821.42 3.582 1.07 5.252 1.911a26 26 0 0 1 4.922 3.491 36 36 0 0 1 1.851 1.891c.67.75 1.311 1.551 2.041 2.251.15.22.36.41.53.61.17.19.33.38.51.56.15.2.3.39.471.591.15.18.28.36.44.53.2.35.4.7.59 1.05.25.48.54.981.72 1.501.14.41.641.8 1.031.95.42.15.99.15 1.4-.06.42-.22.801-.57.951-1.03.15-.48.1-.891-.05-1.361zm-27.091-1.66c.28.94.47 1.91.55 2.891.02.89-.06 1.77-.23 2.641-.24.93-.57 1.82-.99 2.681a16 16 0 0 1-1.991 2.811c-.781.8-1.651 1.51-2.581 2.141-.791.48-1.621.87-2.491 1.18q-1.036.3-2.101.39c-.62 0-1.251-.04-1.861-.15-.66-.17-1.3-.42-1.921-.71-.66-.37-1.27-.81-1.84-1.3a11 11 0 0 1-1.351-1.651q-.735-1.228-1.2-2.591a14.6 14.6 0 0 1-.541-2.991q-.03-1.548.271-3.052c.29-1.19.71-2.34 1.25-3.431a20.3 20.3 0 0 1 2.701-3.801 23.2 23.2 0 0 1 4.042-3.352c.71-.44 1.45-.83 2.201-1.19 1.3.77 2.521 1.67 3.641 2.681a19.6 19.6 0 0 1 2.811 3.361 17.8 17.8 0 0 1 1.621 3.452z"/><path fill="#000" d="M202.183 66.167c2.191-9.524 1.631-19.708-1.88-28.862-1.601-4.162-3.712-8.243-7.413-10.914-3.271-2.371-7.463-2.751-11.115-1.08-3.261 1.49-5.772 5.261-4.581 8.893 1.04 3.171 4.451 5.522 7.803 5.322 4.151-.25 6.292-4.942 7.603-8.333 1.6-4.132 1.89-8.714 1.06-13.046-1.781-9.223-9.854-16.706-19.097-18.107-1.331-.2-2.692.34-3.082 1.75-.32 1.181.4 2.872 1.751 3.082 6.192.93 11.585 4.802 14.296 10.474 2.941 6.163 1.63 13.266-2.131 18.708-.09.13-.17.24-.25.38.03-.04.19-.24 0-.04s.02.01.06-.02c-.26.23-.17.14 0 .05-.15.07-.66.17-.22.11-.16.02-.941-.04-.511.03-1.02-.16-1.5-.46-2.15-1.19-.24-.27-.281-.33-.391-.72-.03-.12-.06-.24-.08-.361.01.07.03.33.04.05s-.02-.03-.03.03c.07-.24.1-.48.181-.71.28-.75.94-1.35 1.85-1.82.911-.471 2.121-.661 3.272-.541.99.11 2.34.75 3.271 1.5 2.561 2.051 4.061 5.263 5.182 8.274 3.061 8.223 3.691 17.227 1.731 25.78-.721 3.131 4.101 4.472 4.821 1.33z"/><path fill="#000" d="M221.101 91.487c-1.25-.47-2.341.23-2.901 1.31-7.103 13.556-17.727 25.14-30.452 33.614-1.011.67-1.001 2.311-.28 3.171.85 1.02 2.161.96 3.171.28a95.5 95.5 0 0 0 26.31-26.22c2.001-2.982 3.802-6.073 5.463-9.254.56-1.08-.271-2.511-1.311-2.901"/><path fill="#000" d="M227.374 82.853a1.7 1.7 0 0 0-.521-.69c-.2-.22-.44-.37-.72-.47-.56-.19-1.21-.22-1.751.06-.53.28-.93.69-1.15 1.24l-1.231 3.001q-.18.42-.12.87c-.02.31.05.6.19.88q.178.421.521.691c.2.22.44.37.72.47.56.19 1.21.22 1.751-.06.53-.28.93-.69 1.15-1.24l1.231-3.001q.18-.42.12-.87c.02-.31-.05-.6-.19-.881"/><path fill="#000" d="M52.674 320.618c.49 1.25 1.741 1.57 2.922 1.26 14.805-3.891 30.522-3.861 45.357-.18 1.181.29 2.381-.82 2.531-1.931.181-1.31-.74-2.241-1.93-2.531-12.085-3.001-24.79-3.591-37.105-1.75-3.551.53-7.053 1.29-10.514 2.2-1.18.311-1.67 1.891-1.26 2.922z"/><path fill="#000" d="M42.07 321.808c-.13.27-.18.56-.15.85-.03.29.02.571.14.851.24.54.66 1.04 1.23 1.25.56.2 1.131.22 1.701.01 1.02-.37 2.031-.75 3.051-1.12.29-.1.53-.27.73-.49.24-.191.41-.441.52-.731.131-.27.181-.56.151-.85.03-.29-.02-.57-.14-.85-.24-.541-.66-1.041-1.23-1.251-.56-.2-1.131-.22-1.701-.01-1.02.37-2.031.75-3.051 1.121-.29.1-.53.27-.73.49-.24.19-.41.44-.52.73"/><path fill="#000" d="M6.296 249.669c-.19.24-.41.41-.68.53-.25.16-.52.25-.82.26-.591.03-1.221-.1-1.671-.51-.44-.4-.72-.9-.79-1.5-.14-1.071-.27-2.151-.41-3.222a1.8 1.8 0 0 1 .1-.87c.06-.3.2-.57.41-.8.19-.24.41-.41.68-.53.25-.161.52-.251.82-.261.59-.03 1.22.1 1.67.511.44.4.72.9.79 1.5.14 1.071.27 2.151.411 3.222.04.3 0 .59-.1.87-.06.3-.2.57-.41.8"/><path fill="#000" d="M172.722 109.283c-.14-.52-.55-1.09-1.031-1.35-.52-.28-1.16-.41-1.73-.23-.54.17-1.081.51-1.351 1.03l-1.8 3.602c-.271.54-.391 1.13-.231 1.73.14.52.551 1.091 1.031 1.351.52.28 1.16.41 1.731.23.54-.17 1.08-.51 1.35-1.031l1.801-3.601c.27-.54.39-1.13.23-1.731"/><path fill="#000" d="M167.99 100.21c-.05-.54-.35-1.17-.79-1.5-.471-.36-1.071-.61-1.671-.52-.56.08-1.161.32-1.501.79l-2.401 3.241c-.36.49-.58 1.05-.52 1.67.05.541.35 1.171.79 1.501.471.36 1.071.61 1.671.52.56-.08 1.161-.32 1.501-.79l2.401-3.241c.36-.491.58-1.051.52-1.671"/><path fill="#000" d="M280.915 104.832c-.05-.54-.35-1.171-.791-1.501-.47-.36-1.07-.61-1.67-.52-.56.08-1.161.32-1.501.79l-2.401 3.242c-.36.49-.58 1.05-.52 1.67.05.541.35 1.171.79 1.501.471.36 1.071.61 1.671.52.56-.08 1.161-.32 1.501-.79l2.401-3.241c.36-.491.58-1.051.52-1.671"/><path fill="#000" d="M286.257 107.493c-.12-.53-.5-1.11-.98-1.39-.511-.301-1.141-.461-1.721-.301-.54.15-1.101.471-1.391.981-.65 1.17-1.3 2.351-1.95 3.521-.291.53-.441 1.121-.301 1.721.12.53.501 1.11.981 1.39.51.301 1.14.461 1.72.301.541-.151 1.101-.471 1.391-.981.65-1.17 1.301-2.351 1.951-3.521.29-.53.44-1.121.3-1.721"/><path fill="#FFB921" d="m174.623 75.67 6.262 6.613 8.223-3.911-4.361 7.993 6.262 6.613-8.953-1.671-4.352 8.003-1.171-9.034-8.953-1.67 8.223-3.912z"/><path fill="#000" d="M177.704 101.811a2.495 2.495 0 0 1-2.481-2.17l-.941-7.224-7.162-1.33a2.51 2.51 0 0 1-2.021-2.131 2.51 2.51 0 0 1 1.4-2.581l6.583-3.131-.94-7.223a2.5 2.5 0 0 1 1.41-2.581 2.51 2.51 0 0 1 2.891.54l5.012 5.292 6.583-3.131a2.5 2.5 0 0 1 3.271 3.451l-3.481 6.403 5.012 5.292c.74.79.9 1.96.38 2.91a2.5 2.5 0 0 1-2.651 1.261l-7.163-1.34-3.481 6.402a2.5 2.5 0 0 1-2.191 1.301zm-2.101-14.246 1.381.26c1.07.2 1.88 1.06 2.02 2.131l.18 1.39.671-1.24c.52-.95 1.59-1.46 2.651-1.26l1.38.26-.97-1.02a2.5 2.5 0 0 1-.38-2.912l.67-1.24-1.271.6c-.98.46-2.14.25-2.891-.54l-.97-1.02.18 1.4c.14 1.07-.43 2.12-1.401 2.581l-1.27.6z"/><path fill="#000" d="M290.519 146.448c.38-.38.68-1.01.66-1.561-.02-.59-.21-1.21-.66-1.62-.421-.38-.981-.691-1.561-.661l-4.022.21c-.61.031-1.18.221-1.62.661-.38.38-.681 1.01-.661 1.56.02.591.211 1.211.661 1.621.42.38.98.69 1.56.66l4.022-.21c.61-.03 1.18-.22 1.621-.66"/><path fill="#000" d="M296.081 137.854c.44-.31.84-.88.92-1.43.09-.58 0-1.231-.37-1.711-.34-.45-.85-.85-1.431-.92-1.33-.16-2.661-.33-4.001-.49-.6-.07-1.201 0-1.711.37-.44.31-.84.88-.92 1.43-.09.581 0 1.231.37 1.711.34.45.85.85 1.431.92 1.33.16 2.661.331 4.001.491.6.07 1.201 0 1.711-.371"/><path fill="#6DB5C3" d="m320.701 131.542-2.662 8.704 7.453 5.232-9.103.15-2.671 8.703-2.961-8.613-9.104.15 7.283-5.472-2.961-8.613 7.453 5.232z"/><path fill="#000" d="M313.718 156.832a2.49 2.49 0 0 1-2.361-1.69l-2.371-6.893-7.283.12h-.04c-1.07 0-2.021-.68-2.361-1.691-.35-1.02 0-2.161.86-2.811l5.823-4.382-2.371-6.892c-.35-1.021 0-2.161.86-2.811a2.51 2.51 0 0 1 2.941-.05l5.963 4.181 5.822-4.381a2.51 2.51 0 0 1 2.941-.051 2.51 2.51 0 0 1 .96 2.782l-2.13 6.972 5.962 4.182c.89.62 1.27 1.741.96 2.781a2.51 2.51 0 0 1-2.351 1.771l-7.282.12-2.131 6.963a2.51 2.51 0 0 1-2.351 1.77h-.04zm-2.961-13.615c1.07 0 2.02.68 2.361 1.691l.46 1.33.41-1.34a2.51 2.51 0 0 1 2.351-1.771l1.41-.02-1.15-.81a2.51 2.51 0 0 1-.96-2.782l.41-1.35-1.121.85a2.51 2.51 0 0 1-2.941.05l-1.15-.81.46 1.33c.35 1.021 0 2.161-.861 2.812l-1.12.84 1.411-.02h.04z"/><path fill="#FFFBE8" d="m205.035 184.264-1.261 7.603 6.853 3.541-7.623 1.16-1.251 7.603-3.461-6.892-7.613 1.16 5.482-5.422-3.451-6.883 6.842 3.542z"/><path fill="#000" d="M201.743 206.422c-.84 0-1.63-.47-2.02-1.25l-2.722-5.423-6.002.911c-.98.15-1.921-.35-2.361-1.221a2.27 2.27 0 0 1 .43-2.621l4.322-4.261-2.721-5.423a2.27 2.27 0 0 1 .43-2.621 2.25 2.25 0 0 1 2.621-.4l5.382 2.791 4.322-4.261a2.25 2.25 0 0 1 2.621-.401 2.26 2.26 0 0 1 1.191 2.371l-.991 5.983 5.392 2.791a2.255 2.255 0 0 1-.7 4.232l-6.002.91-.991 5.982a2.25 2.25 0 0 1-1.891 1.861c-.11.02-.23.03-.34.03zm-3.451-11.405c.84 0 1.631.471 2.021 1.251l.34.68.12-.75a2.25 2.25 0 0 1 1.891-1.861l.75-.11-.67-.35a2.26 2.26 0 0 1-1.191-2.371l.12-.75-.54.53c-.7.69-1.751.85-2.621.4l-.67-.35.34.68a2.27 2.27 0 0 1-.43 2.621l-.54.531.75-.11c.11-.021.23-.031.34-.031z"/><path fill="#6DB5C3" d="M287.147 97.539a9.564 9.564 0 1 0-9.564-9.564 9.564 9.564 0 0 0 9.564 9.564"/><path fill="#000" d="M287.147 100.03c-6.652 0-12.065-5.412-12.065-12.065S280.495 75.9 287.147 75.9c6.653 0 12.065 5.412 12.065 12.065s-5.412 12.065-12.065 12.065m0-19.118c-3.891 0-7.063 3.171-7.063 7.063s3.172 7.063 7.063 7.063c3.892 0 7.063-3.171 7.063-7.063s-3.171-7.063-7.063-7.063"/><path fill="#EE6DBB" d="M144.181 143.797a5.332 5.332 0 1 0 0-10.665 5.332 5.332 0 0 0 0 10.665"/><path fill="#000" d="M144.181 146.288c-4.312 0-7.834-3.511-7.834-7.833 0-4.321 3.512-7.833 7.834-7.833s7.833 3.512 7.833 7.833c0 4.322-3.512 7.833-7.833 7.833m0-10.654a2.836 2.836 0 0 0-2.832 2.831 2.835 2.835 0 0 0 2.832 2.831c1.56 0 2.831-1.27 2.831-2.831a2.836 2.836 0 0 0-2.831-2.831"/><path fill="#FFB921" d="M261.957 99.74a5.172 5.172 0 1 0 0-10.343 5.172 5.172 0 0 0 0 10.343"/><path fill="#000" d="M261.957 102.241c-4.231 0-7.673-3.442-7.673-7.673 0-4.232 3.442-7.673 7.673-7.673 4.232 0 7.673 3.441 7.673 7.673 0 4.231-3.441 7.673-7.673 7.673m0-10.344c-1.47 0-2.671 1.2-2.671 2.67a2.677 2.677 0 0 0 2.671 2.672c1.471 0 2.671-1.2 2.671-2.671s-1.2-2.671-2.671-2.671"/><path fill="#000" d="M242.79 113.845c-.27-.85-.22-.45-.23-.57l-.03-.04h.02a613 613 0 0 1 8.313 6.042c3.421 2.651 7.693 5.392 10.194 8.994 2.531 3.171 1.771 7.212-2.881 6.972-4.742-.52-8.964-2.621-13.115-4.371-.791-.371-2.832-1.311-3.592-1.691-.72-.37-1.23-.53-1.69-.63.21 0 .64-.43.66-.631.07 1.501 1.04 3.422 1.911 5.122 1.01 2.061 2.44 3.852 3.201 6.063.64 1.641.1 4.001-1.981 4.522-1.781.45-3.311-.05-4.852-.481-2.241-.62-4.532-1.88-6.663-2.511.02 0 .201-.09.271-.21.08-.11.05-.14.04-.09-.04.12-.03.461.03.801.12.7.38 1.5.67 2.271.56 1.52-1.661 2.451-2.361.99-.97-1.901-2.381-5.782.69-6.633 1.461-.26 2.271.21 3.402.561 2.42.77 5.342 2.02 7.703 1.79-.05-.05-.411.31-.421.49-.02.171-.01-.05-.12-.3-.24-.63-.64-1.25-1.05-1.87-1.801-2.832-3.421-5.282-4.472-8.674-.23-.92-.42-2.001-.1-3.071.971-3.221 4.722-2.691 7.013-1.471.74.341 2.751 1.251 3.531 1.581 3.812 1.581 7.613 3.441 11.535 3.942.82.03.27-.1-.09.43-.22.3-.26.63-.25.73.02.2 0-.05-.12-.28-1.301-2.341-3.422-4.332-5.472-6.083-3.852-3.421-7.714-6.832-11.245-10.584l-.13-.14-.08-.08-.04-.05-.06-.07c-.02-.13.02.27-.25-.6-.11-1.381 1.961-1.601 2.121-.2"/><path fill="#BE7AEB" d="M229.764 64.847c-6.992-1.481-10.014-.59-17.356 5.092 3.801-8.474 3.951-11.615.87-18.068 6.993 1.48 10.014.59 17.357-5.092-3.802 8.474-3.952 11.615-.871 18.068"/><path fill="#000" d="M212.418 72.45a2.5 2.5 0 0 1-1.551-.541 2.52 2.52 0 0 1-.74-2.991c3.501-7.823 3.641-10.214.89-15.967-.41-.86-.3-1.88.29-2.62a2.5 2.5 0 0 1 2.481-.901c6.243 1.32 8.534.63 15.306-4.622.911-.7 2.181-.7 3.081.01a2.52 2.52 0 0 1 .741 2.991c-3.512 7.823-3.642 10.214-.891 15.967.411.86.3 1.88-.29 2.62a2.48 2.48 0 0 1-2.481.901c-6.242-1.32-8.533-.62-15.306 4.622-.45.35-.99.52-1.53.52zm4.791-17.478c.881 2.901.961 5.482.191 8.634 2.871-1.491 5.402-2.021 8.433-1.841-.88-2.901-.96-5.482-.19-8.624-2.871 1.491-5.402 2.021-8.434 1.841z"/><path fill="#D5C3EE" d="M254.574 64.396c-4.221-.89-6.052-.36-10.484 3.08 2.291-5.111 2.381-7.012.52-10.914 4.222.89 6.053.36 10.485-3.08-2.291 5.111-2.381 7.012-.521 10.914"/><path fill="#000" d="M244.1 69.978c-.55 0-1.09-.18-1.55-.54a2.52 2.52 0 0 1-.741-2.992c2.101-4.692 1.991-5.792.55-8.813-.41-.86-.3-1.881.291-2.621.59-.75 1.56-1.09 2.481-.9 3.281.69 4.371.54 8.433-2.612.91-.7 2.181-.7 3.081.01s1.201 1.941.74 2.991c-2.1 4.692-1.99 5.783-.55 8.814.41.86.3 1.88-.29 2.621a2.49 2.49 0 0 1-2.481.9c-3.281-.69-4.362-.54-8.433 2.611-.45.35-.991.52-1.531.52zm4.152-10.565c.17.88.21 1.741.14 2.601a9.4 9.4 0 0 1 2.561-.47c-.17-.88-.21-1.73-.14-2.6a9.4 9.4 0 0 1-2.561.47"/><path fill="#000" d="M52.914 289.975c-3.531-2.081-6.072-4.141-9.113-6.592-1.58-1.281-2.931-2.762-4.452-3.982a1.4 1.4 0 0 0-.2-.13l-1.2 3.371c8.053 8.544 17.807 14.946 28.45 19.358.34-.35.821-.58 1.311-.59.79 0 1.53-.04 2.261-.09 1.57-.561 3.161-1.121 4.782-1.691-7.663-2.421-15.036-5.632-21.849-9.654z"/><path fill="#000" d="M129.345 246.698c-19.118-5.312-36.755-12.795-55.132-21.258-3.441-1.581-8.854-5.442-13.756-6.243l-1.18 3.322c4.422 2.451 8.853 4.762 13.815 7.092 5.843 2.752 12.155 6.013 18.458 8.654 28.341 11.865 57.853 18.887 88.075 21.788 1.21.121 2.401.221 3.561.311 3.281-1.231 6.473-2.441 9.564-3.612-7.843-.59-15.736-1.04-24.13-2.171-12.565-1.68-26.54-4.361-39.275-7.893z"/><path fill="#000" d="M66.79 262.815c-3.522-2.461-7.163-5.523-10.364-8.404-1.67-1.5-3.251-3.301-4.832-4.682-.63-.55-1.33-.55-1.88-.26l-.721 2.041c.07.16.16.32.29.47 15.776 18.388 37.495 30.442 60.964 35.014 3.221-1.15 6.473-2.321 9.734-3.491-18.998-2.561-37.315-9.614-53.201-20.678z"/><path fill="#000" d="M87.748 142.256c14.086 10.014 30.522 16.487 47.719 18.978a328 328 0 0 1-4.842-6.013 121.5 121.5 0 0 1-41.336-17.286l-1.53 4.321z"/><path fill="#000" d="M100.813 197.049c28.512 12.955 61.025 18.687 92.167 22.439 3.261.39 6.523.74 9.744 1.07a315 315 0 0 1-7.753-5.152c-4.962-.56-9.944-1.171-14.886-1.911-13.536-2.011-31.213-5.482-43.748-8.823-18.817-5.012-32.152-11.005-48.949-19.558-3.441-1.751-8.273-5.772-12.775-5.812l-.98 2.751c4.101 2.521 7.683 4.692 12.465 7.193 5.172 2.711 8.383 4.911 14.715 7.793z"/><path fill="#000" d="M35.898 315.466c-2.281 0-4.482-.911-6.153-2.611-2.37-2.421-3.111-5.903-1.93-9.084l71.398-201.34 2.661 5.092c.22.43 22.869 43.387 60.204 78.671 24.139 22.82 63.245 47.199 74.799 48.74 1.801.24 2.561 1.5 2.671 2.511.23 2.251-1.7 3.511-8.003 6.412-4.111 1.891-10.194 4.442-18.087 7.573-13.685 5.433-33.163 12.785-57.883 21.829-43.337 15.866-91.756 32.943-116.766 41.707-.96.33-1.931.5-2.901.5zm64.265-200.73L32.506 305.512c-.51 1.37-.21 2.801.81 3.851 1.021 1.041 2.452 1.381 3.822.891 103.301-36.215 176.32-63.235 193.987-71.689-16.827-5.892-51.6-28.981-72.499-48.729-30.482-28.812-51.33-62.655-58.473-75.1z"/><path fill="#000" d="M221.611 136.704c-.15-.87-.34-1.74-.61-2.581-.14-.43-.31-.85-.49-1.26-.27-.641-.52-1.361-.881-1.971l.321.77c-.19-.47-.381-.89-.661-1.3-.14-.2-.27-.39-.42-.581-.26-.36-.54-.71-.81-1.06-.1-.13-.21-.27-.33-.4-.17-.22-.35-.43-.52-.64-.151-.18-.291-.38-.461-.531l.02.02c-.32-.34-.7-.61-1.17-.73-.6-.17-1.401-.09-1.941.25-.54.35-1.01.861-1.16 1.501s-.12 1.37.25 1.931c.08.17.15.34.23.52l.15.36c.02.08.03.16.06.24.05.15.09.3.13.45.09.31.17.631.25.941.15.65.35 1.29.52 1.94.31 1.171.56 2.351.751 3.552.24 2.071.25 4.181 0 6.252a24.6 24.6 0 0 1-1.541 5.572c.12-.27.23-.55.35-.82-.13.3-.25.59-.37.891a21.8 21.8 0 0 1-2.481 4.321 21.4 21.4 0 0 1-3.161 3.161 23.3 23.3 0 0 1-4.452 2.592 25.2 25.2 0 0 1-5.652 1.53c-1.841.2-3.692.19-5.522-.03a23 23 0 0 1-2.732-.57c.241-.24.501-.48.721-.73 1.73-1.951 3.101-4.312 3.611-6.893.28-1.441.33-2.841.11-4.292-.18-1.17-.62-2.311-1.19-3.341-1.131-2.051-2.971-3.842-5.082-4.852-2.201-1.051-4.812-1.481-7.163-.6-1.301.49-2.481 1.22-3.442 2.241-.98 1.05-1.66 2.25-2.17 3.591-.911 2.421-.901 5.242-.06 7.673.93 2.701 2.641 4.982 4.731 6.903.461.43.961.82 1.451 1.2.07.06.15.1.22.16l.14.11c-.05-.04-.1-.07-.14-.11-2.461.931-5.052 1.431-7.653 1.791-.56.07-1.12.14-1.691.2l-.91.09c-.15.01-.3.03-.46.04-.12 0-.23.02-.35.04-.23.03-.27.04-.1.01q.195-.03 0 0c-1.221.08-2.431.17-3.652.24-.7.04-1.37.591-1.34 1.341.03.74.59 1.32 1.34 1.34 2.911.07 5.813.16 8.714-.08a27.2 27.2 0 0 0 8.993-2.301c.26-.12.511-.27.771-.4 3.271 1.631 6.932 2.501 10.584 2.631 5.062.19 10.274-1.03 14.636-3.621a23.9 23.9 0 0 0 6.832-6.113c.981-1.28 1.871-2.611 2.591-4.061a25.3 25.3 0 0 0 1.911-5.272c.44-1.831.7-3.732.79-5.613.09-1.89-.1-3.771-.43-5.632zm-42.677 16.437a10.3 10.3 0 0 1-.61-2.171 10.3 10.3 0 0 1 0-2.001c.11-.62.27-1.23.49-1.811.22-.48.49-.94.801-1.37q.42-.495.9-.901c.3-.21.62-.4.96-.56.35-.13.701-.22 1.061-.29.42-.04.85-.04 1.27 0 .51.09 1.011.23 1.501.41.62.28 1.21.631 1.761 1.031.53.44 1.01.92 1.45 1.45.37.511.7 1.061.96 1.631.201.51.341 1.03.441 1.571.07.69.06 1.39-.01 2.08a11.5 11.5 0 0 1-.691 2.471c-.41.901-.92 1.751-1.51 2.541a17 17 0 0 1-2.251 2.311c-.93-.48-1.821-1.02-2.671-1.65a15.8 15.8 0 0 1-2.521-2.511 13.3 13.3 0 0 1-1.321-2.231z"/><path fill="#000" d="m180.825 161.945-.1-.07c.1.08.2.16.31.24-.07-.05-.14-.11-.21-.16z"/><path fill="#000" d="M216.819 157.203s-.05.06-.07.09c-.15.19-.29.38-.44.57z"/><path fill="#BE7AEB" d="m98.112 111.784-15.576 31.243c-.35.7-.28 1.54.19 2.17 0 3.272 34.474 49.55 54.792 65.677 15.626 12.404 32.643 22.879 48.759 34.583.1.07.2.13.31.19l15.617 7.643c.54.26 1.16.28 1.71.06l30.012-12.354c1.561-.641 1.751-2.772.34-3.682-32.493-20.908-65.406-43.177-91.856-71.628-15.386-16.547-27.581-35.885-40.726-54.192a2.083 2.083 0 0 0-3.562.29z"/><path fill="#000" d="M203.114 256.012a4.64 4.64 0 0 1-2.021-.47l-15.616-7.643c-.24-.12-.48-.261-.69-.421-6.253-4.541-12.765-8.983-19.078-13.275-9.914-6.753-20.168-13.745-29.762-21.358-12.004-9.534-27.341-27.941-35.414-38.065-1.92-2.411-17.687-22.289-20.038-28.382a4.61 4.61 0 0 1-.22-4.481l15.576-31.243a4.56 4.56 0 0 1 3.742-2.531c1.631-.14 3.141.58 4.092 1.891 3.221 4.492 6.442 9.114 9.553 13.585 9.574 13.756 19.478 27.981 30.983 40.356 26.52 28.532 59.683 50.83 91.376 71.229a4.56 4.56 0 0 1 2.081 4.271 4.6 4.6 0 0 1-2.821 3.832l-30.012 12.355c-.561.23-1.151.35-1.751.35zM85.197 144.848c1.891 5.322 34.414 48.619 53.872 64.065 9.453 7.503 19.627 14.436 29.471 21.148 6.333 4.322 12.885 8.784 19.208 13.376l15.386 7.523 29.102-11.985c-31.763-20.458-64.936-42.847-91.667-71.598-11.745-12.635-21.748-27.011-31.422-40.907a1358 1358 0 0 0-9.104-12.965l-15.166 30.422c.17.28.27.591.32.921"/><path fill="#000" d="M202.804 252.42c-35.774-22.379-80.852-51.26-103.771-86.915-3.362-5.222-6.633-10.764-9.654-15.866-1.58-2.661-3.151-5.832-4.462-7.873-1.31-2.031-4.552-.92-2.951 2.371 25.18 52.041 52.711 68.517 98.869 100.33 6.523 4.492 12.205 7.733 18.938 11.084 1.16.58 3.781-.04 4.201-.99"/><path fill="#000" d="M17.97 331.912c-1.02 0-1.95-.62-2.32-1.581l-1.731-4.391-4.712.29a2.54 2.54 0 0 1-2.481-1.581 2.51 2.51 0 0 1 .73-2.851l3.642-3.011-1.74-4.392a2.51 2.51 0 0 1 .73-2.851c.84-.69 2.02-.76 2.93-.18L17 313.895l3.642-3.011a2.5 2.5 0 0 1 4.012 2.551l-1.181 4.571 3.981 2.531a2.497 2.497 0 0 1-1.19 4.602l-4.712.29-1.18 4.572a2.5 2.5 0 0 1-2.271 1.871h-.16zm-1.78-11.004c.51.13.96.42 1.3.82.28-.44.7-.79 1.19-.98a2.6 2.6 0 0 1-.57-1.431c-.49.19-1.02.23-1.54.09.03.52-.1 1.05-.38 1.491z"/></svg>