<svg xmlns="http://www.w3.org/2000/svg" width="312" height="375" fill="none" viewBox="0 0 312 375"><path fill="#000" d="M219.223 114.782c6.75 13.39 10.375 25.979 15.623 39.95 3.115 8.302 14.812 43.574 22.794 47.811 12.058 6.389 9.925-22.404 13.54-29.033 4.948-9.064 20.831-15.133 30.325-10.777 16.935 7.772 1.603 21.442-3.074 30.876-17.116 34.542 4.847 71.186-30.035 99.088-25.678 20.54-51.056 19.318-76.544-.421-7.381-5.718-45.998-46.529-68.902-69.754-7.672-7.781-11.577-19.338-8.062-23.575 9.244-11.146 34.571 19.349 42.223 27.241 5.167 5.328 13.72-2.514 8.823-8.873-9.314-12.088-36.394-45.899-41.762-57.686-5.188-11.377 2.283-20.13 13.059-16.695 9.114 2.914 35.353 48.933 46.018 57.566 6.16 3.455 9.795-6.53 5.438-12.359-10.645-14.261-40.49-58.817-40.099-71.336.21-6.53 6.65-9.073 12.969-8.532 12.038 1.031 25.218 37.896 44.857 63.764 5.859 5.278 11.787.882 8.232-8.042-4.597-11.537-24.056-57.605-16.835-63.093 10.265-7.802 18.117 7.3 21.432 13.87z"/><path fill="#000" d="M230.84 310.043c-13.39 0-26.93-5.258-40.52-15.784-5.128-3.976-23.775-23.234-43.525-43.635-8.953-9.253-18.207-18.818-25.638-26.339-9.774-9.915-12.168-22.153-8.202-26.93 1.742-2.103 4.116-3.255 6.85-3.325 9.985-.23 23.575 13.6 35.553 26.62 1.402 1.522 2.624 2.844 3.545 3.795 1.963 2.033 4.076.401 4.477.051 1.091-.952 2.443-3.205.561-5.649-1.402-1.823-3.215-4.136-5.288-6.79-11.998-15.373-32.088-41.101-36.775-51.386-2.934-6.43-2.474-12.769 1.232-16.936 3.435-3.865 8.993-5.057 14.872-3.174 5.448 1.742 13.66 13.119 26.55 31.657 7.661 11.016 15.583 22.413 20.109 26.209 1.172.591 1.763.19 2.224-.331 1.522-1.742 1.772-5.798-.19-8.432-6.771-9.064-41.062-58.207-40.601-72.909.1-3.034 1.292-5.668 3.465-7.591 2.865-2.544 7.311-3.766 12.218-3.345 8.553.731 16.275 14.431 26.049 31.777 5.979 10.606 12.759 22.624 20.431 32.779 1.562 1.342 3.164 1.833 4.026 1.232 1.011-.701 1.452-3.075.03-6.63-.361-.911-.822-2.043-1.352-3.345-16.445-40.63-20.561-58.197-14.682-62.663 3.114-2.364 6.349-3.185 9.614-2.424 6.9 1.593 11.738 9.574 15.563 17.166 4.907 9.734 8.142 18.918 11.567 28.642 1.322 3.746 2.684 7.612 4.157 11.548.4 1.071.941 2.583 1.602 4.416 3.445 9.604 13.921 38.828 20.02 42.063 1.782.941 2.503.58 2.734.46 2.824-1.452 4.026-10.515 4.817-16.514.671-5.078 1.252-9.464 2.624-11.958 5.788-10.586 23.034-16.685 33.57-11.848 4.837 2.224 7.801 5.188 8.823 8.824 1.793 6.399-2.754 13.159-6.78 19.118-1.532 2.283-2.985 4.437-3.926 6.319-6.72 13.56-7.211 27.722-7.681 41.422-.701 20.27-1.433 41.231-23.035 58.507-12.829 10.265-25.908 15.393-39.128 15.393zM120.095 199.028h-.16c-1.302.03-2.293.51-3.124 1.512-2.174 2.614.52 12.709 7.921 20.22 7.441 7.541 16.705 17.115 25.669 26.379 18.747 19.379 38.146 39.409 42.983 43.164 25.308 19.589 49.334 19.73 73.45.441 19.799-15.834 20.46-34.752 21.151-54.771.491-14.232 1.002-28.943 8.202-43.465 1.082-2.193 2.624-4.477 4.257-6.9 3.415-5.058 7.28-10.796 6.109-14.963-.611-2.183-2.604-4.026-6.089-5.618-7.972-3.655-22.654 1.602-27.081 9.705-.921 1.682-1.492 6.018-2.053 10.215-1.151 8.683-2.343 17.656-7.491 20.31-2.173 1.122-4.657.961-7.381-.481-6.87-3.645-14.822-23.685-22.393-44.796-.651-1.803-1.182-3.295-1.572-4.347-1.493-3.986-2.865-7.872-4.197-11.637-3.375-9.564-6.559-18.608-11.316-28.062-1.823-3.625-6.68-13.26-12.219-14.542-1.772-.41-3.555.091-5.458 1.533-.03.02-2.804 2.433 3.806 23.304 3.906 12.309 9.484 26.089 12.478 33.5.531 1.322.992 2.454 1.363 3.375 2.603 6.54.771 10.796-1.823 12.599-2.304 1.602-6.249 1.983-10.406-1.773-.12-.1-.22-.22-.32-.35-7.942-10.466-14.852-22.724-20.961-33.54-8.333-14.782-16.204-28.743-22.123-29.244-3.475-.3-6.64.491-8.463 2.104-1.152 1.021-1.732 2.333-1.792 4.016-.331 10.535 25.608 51.015 39.598 69.763 3.536 4.737 2.825 11.447-.06 14.732-2.223 2.534-5.528 3.035-8.612 1.302a3 3 0 0 1-.351-.24c-5.058-4.096-12.919-15.413-21.252-27.391s-19.739-28.392-23.955-29.744c-3.996-1.272-7.491-.641-9.604 1.732-2.354 2.644-2.504 6.961-.421 11.538 4.446 9.744 25.077 36.173 36.164 50.374 2.083 2.664 3.895 4.988 5.308 6.821 3.465 4.496 1.993 9.684-1.252 12.488-3.526 3.055-8.192 2.904-11.347-.35-.972-1.002-2.203-2.344-3.636-3.896-7.491-8.132-23.024-25.007-31.577-25.007z"/><path fill="#FFBD3E" d="M217.06 115.203c6.66 13.21 10.245 25.629 15.423 39.419 3.074 8.192 14.621 42.994 22.503 47.17 11.898 6.31 9.795-22.113 13.37-28.642 4.887-8.944 20.561-14.933 29.934-10.636 16.715 7.661 1.583 21.151-3.034 30.465-16.895 34.081 4.787 70.235-29.654 97.766-25.348 20.26-50.415 19.058-75.573-.411-7.29-5.638-45.417-45.918-68.031-68.832-7.571-7.682-11.427-19.079-7.962-23.255 9.134-10.996 34.131 19.088 41.692 26.87 5.108 5.258 13.551-2.474 8.703-8.753-9.203-11.928-35.923-45.287-41.231-56.915-5.117-11.226 2.253-19.869 12.899-16.464 8.994 2.874 34.902 48.282 45.438 56.804 6.079 3.405 9.664-6.439 5.368-12.188-10.516-14.071-39.98-58.026-39.589-70.385.2-6.449 6.57-8.953 12.799-8.412 11.888 1.021 24.897 37.396 44.286 62.924 5.778 5.207 11.637.871 8.132-7.932-4.537-11.377-23.755-56.835-16.625-62.253 10.135-7.701 17.887 7.201 21.152 13.681z"/><path fill="#000" d="M228.527 307.89c-13.22 0-26.6-5.198-40.03-15.583-5.067-3.926-23.485-22.944-42.994-43.074-8.833-9.124-17.966-18.548-25.287-25.969-9.665-9.795-12.028-21.893-8.102-26.62 1.732-2.083 4.076-3.224 6.78-3.294h.27c9.825 0 23.135 13.55 34.862 26.279 1.382 1.502 2.584 2.804 3.495 3.745 1.923 1.983 3.986.391 4.377.04 1.071-.931 2.393-3.134.55-5.528a1261 1261 0 0 0-5.217-6.7c-11.848-15.173-31.687-40.56-36.314-50.705-2.905-6.36-2.444-12.619 1.212-16.745 3.405-3.826 8.903-5.008 14.721-3.145 5.388 1.723 13.5 12.949 26.219 31.237 7.562 10.876 15.373 22.112 19.85 25.858 1.072.541 1.642.26 2.153-.321 1.492-1.702 1.743-5.698-.19-8.282-6.68-8.943-40.54-57.445-40.09-71.957.09-3.004 1.282-5.608 3.435-7.521 2.835-2.524 7.241-3.726 12.088-3.315 8.463.721 16.084 14.251 25.749 31.367 5.908 10.465 12.588 22.323 20.17 32.328 1.532 1.312 3.094 1.802 3.935 1.212.982-.691 1.413-3.015.02-6.5-.36-.901-.811-2.013-1.332-3.305-16.244-40.1-20.3-57.445-14.481-61.872 3.085-2.343 6.279-3.155 9.514-2.404 6.82 1.573 11.607 9.454 15.383 16.956 4.847 9.614 8.042 18.667 11.417 28.262 1.302 3.695 2.644 7.511 4.106 11.397.391 1.051.931 2.543 1.582 4.346 3.395 9.474 13.731 38.307 19.75 41.492 1.752.931 2.443.571 2.674.45 2.774-1.422 3.956-10.355 4.737-16.274.661-5.007 1.242-9.344 2.594-11.807 5.718-10.466 22.774-16.475 33.179-11.708 4.787 2.194 7.721 5.128 8.733 8.723 1.773 6.33-2.724 13.01-6.7 18.888-1.512 2.244-2.944 4.367-3.876 6.23-6.63 13.369-7.11 27.34-7.581 40.85-.691 20.01-1.412 40.701-22.754 57.756-12.679 10.135-25.588 15.193-38.647 15.203zM119.194 198.347h-.16c-1.272.03-2.243.501-3.055 1.482-2.133 2.574.521 12.509 7.812 19.9 7.341 7.441 16.485 16.875 25.318 26.008 18.517 19.129 37.676 38.898 42.453 42.604 24.967 19.319 48.672 19.459 72.478.44 19.539-15.613 20.19-34.271 20.871-54.02.49-14.041.991-28.562 8.102-42.904 1.071-2.163 2.593-4.416 4.206-6.81 3.365-4.987 7.181-10.636 6.029-14.742-.591-2.113-2.614-3.976-5.999-5.528-7.862-3.605-22.333 1.572-26.7 9.554-.901 1.653-1.472 5.929-2.023 10.065-1.141 8.573-2.313 17.436-7.411 20.06-2.163 1.112-4.617.951-7.311-.481-6.8-3.605-14.651-23.384-22.123-44.225-.641-1.773-1.161-3.245-1.552-4.277a582 582 0 0 1-4.136-11.487c-3.325-9.434-6.47-18.357-11.167-27.671-1.802-3.575-6.589-13.069-12.038-14.331-1.742-.401-3.495.09-5.358 1.512-.03.02-2.754 2.383 3.776 22.954 3.856 12.138 9.364 25.738 12.318 33.049.531 1.302.982 2.424 1.342 3.335 2.584 6.47.752 10.676-1.812 12.469-2.284 1.592-6.2 1.963-10.316-1.743-.12-.1-.22-.22-.32-.35-7.842-10.326-14.672-22.424-20.691-33.1-8.222-14.571-15.984-28.342-21.812-28.843-3.425-.29-6.54.481-8.333 2.064-1.131 1.001-1.702 2.293-1.752 3.935-.09 2.754 1.792 10.726 15.343 33.18 8.332 13.8 18.147 28.142 23.745 35.633 3.505 4.687 2.794 11.317-.06 14.571-2.204 2.514-5.478 3.015-8.543 1.302-.12-.07-.24-.15-.35-.24-4.998-4.046-12.759-15.213-20.992-27.03-8.222-11.818-19.479-28.002-23.635-29.334-3.926-1.252-7.381-.631-9.454 1.703-2.303 2.604-2.464 6.84-.411 11.337 4.387 9.604 24.757 35.693 35.704 49.703 2.053 2.634 3.845 4.918 5.237 6.72 3.425 4.447 1.973 9.585-1.241 12.369-3.496 3.024-8.123 2.884-11.247-.341-.962-.991-2.173-2.313-3.586-3.835-7.391-8.022-22.723-24.667-31.156-24.667z"/><path fill="#000" d="M233.614 272.818c-4.376-17.376-1.732-34.732 9.334-46.56 1.573-1.772 3.505-3.555 5.348-5.077.972-.791 1.993-1.522 2.985-2.304.881-.701-.401-2.253-1.423-1.662-16.043 9.414-24.416 27.641-20.46 47.541.561 2.814 1.292 5.558 2.454 8.342.2.481.751.791 1.232.691.45-.09.671-.521.53-.971"/><path fill="#000" d="M232.893 274.811c-.821 0-1.622-.521-1.963-1.322-1.061-2.534-1.852-5.248-2.513-8.533-3.926-19.759 4.296-38.838 20.941-48.602.951-.551 2.173-.221 2.844.761.601.881.481 1.933-.29 2.554-.401.31-.792.61-1.192.911-.601.461-1.212.911-1.793 1.382-1.412 1.162-3.465 2.974-5.228 4.967-10.325 11.027-13.64 27.641-9.123 45.628.14.481.09 1.002-.15 1.412a1.65 1.65 0 0 1-1.132.801c-.13.031-.261.041-.401.041m17.456-56.725c-16.114 9.464-23.775 27.281-19.959 46.479.5 2.534 1.091 4.697 1.822 6.7-4.036-17.976-.43-34.541 10.005-45.688 1.833-2.073 3.976-3.956 5.448-5.167a80 80 0 0 1 1.853-1.432c.34-.251.671-.511 1.011-.772-.05-.06-.13-.12-.18-.12"/><path fill="#000" d="M211.021 375c46.455 0 84.115-6.838 84.115-15.273s-37.66-15.272-84.115-15.272c-46.456 0-84.115 6.837-84.115 15.272S164.565 375 211.021 375"/><path fill="#000" d="M153.395 64.538c-1.913-7.04-4.647-13.83-7.551-20.52-1.613-3.395-6.7-1.422-5.599 2.163 1.142 3.505 2.504 6.92 3.966 10.305 1.482 3.406 3.045 6.73 5.068 9.885a2.29 2.29 0 0 0 3.165.661 2.3 2.3 0 0 0 .961-2.494"/><path fill="#000" d="M152.794 40.573c-.02-7.291-.911-14.562-1.983-21.772-.681-3.706-6.099-3.105-5.969.64.19 3.676.621 7.331 1.162 10.977.551 3.675 1.202 7.29 2.343 10.856a2.286 2.286 0 0 0 2.885 1.462 2.27 2.27 0 0 0 1.572-2.163"/><path fill="#000" d="M183.299 105.529c-17.105-24.306-24.456-54.801-16.574-83.824 1.051-4.277 2.614-8.884 4.216-13 .851-2.143 1.803-4.246 2.694-6.38.781-1.932-1.983-3.304-3.034-1.441-16.315 29.523-16.385 66.539 1.742 95.311 2.564 4.066 5.318 7.872 8.693 11.357a1.51 1.51 0 0 0 2.143.02 1.523 1.523 0 0 0 .12-2.043"/><path fill="#000" d="M179.283 77.688c-3.134-11.437-2.653-23.916.691-35.263 1.292-4.577 3.285-9.033 5.178-13.36.992-2.273 2.193-4.426 3.075-6.77a1.57 1.57 0 0 0-.852-2.023 1.51 1.51 0 0 0-1.712.42c-.831.962-1.602 1.964-2.384 2.975-3.134 4.056-5.338 8.763-7.12 13.57-.661 2.194-1.713 5.218-2.123 7.441-.211 1.072-.641 2.715-.761 3.796-1.633 10.215-1.102 20.891 2.734 30.566.931 2.093 4.036.82 3.264-1.362"/><path fill="#000" d="M73.236 225.117c-7.19-1.242-14.211-3.325-21.142-5.588-3.535-1.292-2.043-6.53 1.633-5.779 3.595.802 7.13 1.843 10.626 2.975 3.535 1.162 6.98 2.393 10.315 4.116a2.295 2.295 0 0 1 .961 3.085 2.285 2.285 0 0 1-2.393 1.191"/><path fill="#000" d="M54.217 231.296c-7.26.661-14.591.461-21.862.071-3.746-.331-3.665-5.779.08-6.009 3.675-.161 7.361-.07 11.036.13 3.716.21 7.371.511 11.027 1.312a2.288 2.288 0 0 1-.28 4.507"/><path fill="#000" d="M125.153 253.279c-25.808-14.742-56.855-19.189-85.017-8.623-4.156 1.452-8.602 3.435-12.548 5.418-2.053 1.051-4.056 2.193-6.1 3.275-1.842.961-3.474-1.663-1.722-2.885 27.862-19.018 64.697-22.563 95.052-7.23 4.286 2.173 8.332 4.556 12.118 7.591.651.531.751 1.482.22 2.133a1.525 1.525 0 0 1-2.023.311"/><path fill="#000" d="M88.759 249.643c-11.677-2.043-24.056-.39-35.042 4.006-4.437 1.713-8.683 4.126-12.82 6.41-2.172 1.201-4.195 2.593-6.449 3.695a1.56 1.56 0 0 1-2.093-.661c-.3-.591-.18-1.282.25-1.743.872-.921 1.803-1.782 2.745-2.653 3.745-3.506 8.222-6.14 12.839-8.363 2.123-.861 5.027-2.193 7.21-2.814 1.052-.311 2.644-.891 3.706-1.112 10.015-2.584 20.69-3.064 30.685-.15 2.174.731 1.202 3.936-1.041 3.385"/><path fill="#000" d="M37.733 195.163c.21.44.64.731 1.092.881.43.15 1.001.07 1.392-.15.37-.2.8-.661.88-1.092.091-.531.311-1.081.482-1.592.13-.381.28-.751.43-1.132.12-.19.23-.39.35-.591.131-.22.261-.43.371-.651l.421-.631c.14-.22.31-.45.43-.681.621-.801 1.132-1.692 1.683-2.533a32 32 0 0 1 1.552-2.154 25.8 25.8 0 0 1 4.347-4.196 23.6 23.6 0 0 1 4.907-2.674 25.2 25.2 0 0 1 5.749-1.362c.831-.07 1.662-.1 2.483-.09a27 27 0 0 0-2.003 2.374 19.4 19.4 0 0 0-1.842 2.984c-.601 1.222-1.142 2.494-1.462 3.826-.631 2.583-.792 5.358-.17 7.961.6 2.524 1.852 4.788 3.474 6.791a15.6 15.6 0 0 0 2.264 2.263c1.001.811 2.023 1.572 3.165 2.173 2.183 1.152 4.646 1.873 7.13 1.893 2.434.02 4.977-.611 7-1.983 1.393-.951 2.524-2.083 3.516-3.445.841-1.172 1.502-2.484 2.003-3.836 1.031-2.734 1.222-5.788.71-8.653-.58-3.234-2.213-6.209-4.266-8.733a21 21 0 0 0-3.184-3.144c-1.292-1.042-2.634-1.983-4.096-2.754-.03-.02-.06-.03-.09-.04.03-.01.05-.02.08-.03 2.223-.822 4.556-1.322 6.91-1.583 3.415-.31 6.85-.11 10.235.421a65 65 0 0 1 6.48 1.422c.24.06.48.13.721.19.09.02.18.05.27.08.16.05.321.09.491.09-.25-.05-.29-.05-.13-.02.901.221 1.802.421 2.704.641.641.161 1.302-.13 1.572-.741.12-.27.14-.541.09-.831s-.32-.701-.601-.831c-.721-.321-1.452-.641-2.183-.952-.17-.07-.34-.15-.511-.22l-.21-.09c-.11-.05-.06-.02.16.06-.12-.05-.25-.11-.37-.16-.351-.12-.701-.241-1.062-.351-5.548-1.843-11.417-3.154-17.296-2.994-2.884.08-5.808.45-8.552 1.362a27.6 27.6 0 0 0-4.968 2.213c-.63-.15-1.262-.29-1.893-.401-1.532-.25-3.064-.43-4.616-.44-1.553-.01-3.115.11-4.657.34a26.3 26.3 0 0 0-8.313 2.704 27.4 27.4 0 0 0-7.1 5.378c-1.102 1.162-2.133 2.414-2.995 3.756-.36.561-.71 1.142-1.021 1.743-.27.5-.49 1.021-.671 1.552-.06.16-.11.33-.16.491-.05.14-.08.28-.11.42-.09.241-.16.481-.23.741-.071.281-.141.571-.201.862-.13.4-.15.861-.21 1.261-.03.181-.04.341-.05.511-.15.571-.231 1.182-.321 1.763-.08.531-.19 1.091-.19 1.632.02-.11.04-.23.05-.34-.08.49-.07.901.15 1.362zm27.5-10.716a20.6 20.6 0 0 1 2.284-3.756 23 23 0 0 1 3.205-3.195 25 25 0 0 1 2.354.852 23 23 0 0 1 4.506 2.704 20 20 0 0 1 3.245 3.355 16.4 16.4 0 0 1 1.753 3.215c.34.971.59 1.962.72 2.984a14 14 0 0 1-.09 3.044c-.17.942-.44 1.853-.8 2.745a11.3 11.3 0 0 1-1.092 1.832 11 11 0 0 1-1.633 1.573c-.57.38-1.161.721-1.792.991-.591.2-1.202.341-1.823.431-.711.05-1.432.02-2.143-.07a13.4 13.4 0 0 1-2.644-.792 16.4 16.4 0 0 1-2.874-1.732 16.5 16.5 0 0 1-2.394-2.484 14 14 0 0 1-1.382-2.504c-.3-.841-.51-1.702-.621-2.583a15 15 0 0 1 .11-2.945c.23-1.252.601-2.483 1.082-3.665z"/><path fill="#000" d="M113.756 68.364c-2.464-7.452-3.045-15.484-1.452-23.195 1.061-5.127 3.485-13.77 9.794-13.54 1.002.04 2.123.36 2.895.971.641.501 1.171 1.382 1.051 1.993-.06.29-.01.02 0-.03-.04.16-.08.34-.15.491.12-.3-.16.25-.21.33-.151.23-.551.632-.781.792-.551.38-.541.35-1.052.51-.22.07-.671 0-.811 0 .22.02.01-.01-.01-.03-.171-.14-.08-.06-.03 0-.181-.21-.341-.44-.521-.65-.531-.621-1.032-1.232-1.482-1.923a18.5 18.5 0 0 1-2.073-4.227c-1.012-3.024-1.352-6.33-.721-9.474 1.392-6.95 6.88-12.518 13.72-14.21 3.125-.782 1.803-5.61-1.332-4.828-8.072 2.003-14.842 8.513-16.955 16.585-1.082 4.136-.962 8.622.29 12.709.641 2.093 1.563 4.146 2.764 5.978 1.012 1.553 2.274 3.465 3.906 4.407 3.265 1.873 7.321-.06 9.294-2.884 2.293-3.285.961-7.431-2.083-9.675-3.015-2.213-7.321-2.373-10.646-.801-3.916 1.853-6.269 5.789-7.792 9.674-3.965 10.145-3.805 22.073-.42 32.349 1.001 3.044 5.838 1.742 4.827-1.333z"/><path fill="#000" d="M82.059 90.326c1.202-.591 2.353 0 3.014 1.031 8.353 12.849 20.02 23.405 33.5 30.656 1.072.581 1.212 2.213.581 3.135-.751 1.091-2.063 1.161-3.135.58-10.986-5.908-20.79-14.02-28.682-23.675-2.274-2.784-4.357-5.698-6.31-8.703-.66-1.021.03-2.523 1.032-3.014z"/><path fill="#000" d="M74.988 82.304c.09-.29.24-.53.461-.73.18-.231.4-.412.671-.532.54-.24 1.182-.33 1.753-.1.55.22.991.601 1.271 1.132l1.503 2.884c.15.27.21.55.2.851.04.3 0 .601-.11.892a1.6 1.6 0 0 1-.46.73 1.75 1.75 0 0 1-.672.532c-.54.24-1.181.33-1.752.1a2.42 2.42 0 0 1-1.272-1.132l-1.502-2.884c-.15-.27-.21-.551-.2-.852-.04-.3 0-.6.11-.89"/><path fill="#000" d="M218.622 66.781c-.431-.33-1.092-.54-1.643-.45-.58.09-1.171.36-1.522.86-.32.461-.561 1.062-.451 1.643.241 1.322.491 2.644.732 3.966.11.601.37 1.142.861 1.522.43.33 1.091.541 1.642.451.581-.09 1.172-.36 1.523-.861.32-.46.56-1.062.45-1.643-.24-1.322-.491-2.644-.731-3.966-.11-.6-.37-1.141-.861-1.522"/><path fill="#000" d="M209.368 62.375c-.37-.401-.981-.722-1.532-.732-.591 0-1.222.16-1.652.591-.401.4-.732.952-.732 1.533l.031 4.036c0 .61.17 1.191.59 1.652.371.4.982.721 1.533.731.591 0 1.221-.16 1.652-.59.401-.401.731-.952.731-1.533l-.03-4.036c0-.61-.17-1.192-.591-1.653"/><path fill="#000" d="M34.148 115.825c0-.541.24-1.192.64-1.573.431-.4 1.002-.711 1.613-.681.56.03 1.182.211 1.572.641.902 1.002 1.793 2.003 2.694 3.005.41.45.681.991.681 1.612 0 .541-.24 1.192-.64 1.572-.431.401-1.002.711-1.613.681-.56-.03-1.182-.21-1.572-.641-.902-1.001-1.793-2.002-2.694-3.004-.411-.451-.681-.991-.681-1.612"/><path fill="#000" d="M29.07 118.969c.07-.541.4-1.152.841-1.473.481-.34 1.092-.57 1.693-.46.56.1 1.142.36 1.472.841.761 1.112 1.522 2.223 2.273 3.335.34.501.541 1.072.461 1.692-.07.541-.4 1.152-.841 1.473-.48.34-1.092.571-1.693.46-.56-.1-1.141-.36-1.472-.841-.761-1.112-1.522-2.223-2.273-3.335-.34-.501-.541-1.071-.46-1.692"/><path fill="#FFBD3E" d="m131.983 73.903-5.628 7.18-8.553-3.134 5.088 7.561-5.629 7.18 8.773-2.503 5.078 7.561.33-9.103 8.773-2.504-8.562-3.125z"/><path fill="#000" d="M131.122 100.252a2.49 2.49 0 0 1-2.073-1.102l-4.076-6.059-7.011 2.003a2.5 2.5 0 0 1-2.764-1.011 2.51 2.51 0 0 1 .11-2.945l4.497-5.748-4.076-6.05a2.51 2.51 0 0 1 .11-2.944 2.52 2.52 0 0 1 2.834-.811l6.851 2.504 4.496-5.749a2.51 2.51 0 0 1 2.834-.811 2.5 2.5 0 0 1 1.643 2.444l-.26 7.29 6.85 2.504a2.5 2.5 0 0 1 1.642 2.444 2.495 2.495 0 0 1-1.813 2.313l-7.01 2.003-.26 7.291a2.5 2.5 0 0 1-1.813 2.314c-.23.06-.461.1-.691.1zm-5.088-12.569c.822 0 1.603.4 2.073 1.102l.792 1.171.05-1.412a2.495 2.495 0 0 1 1.812-2.313l1.352-.39-1.322-.481a2.5 2.5 0 0 1-1.642-2.444l.05-1.412-.871 1.111a2.51 2.51 0 0 1-2.834.812l-1.322-.481.791 1.172a2.51 2.51 0 0 1-.11 2.944l-.872 1.112 1.352-.39c.231-.06.461-.101.691-.101z"/><path fill="#000" d="M37.443 165.408c-.421-.34-.771-.941-.801-1.492-.04-.591.09-1.222.5-1.682.38-.421.912-.781 1.492-.801 1.342-.061 2.684-.111 4.026-.171.611-.03 1.202.11 1.683.501.42.341.771.941.801 1.492.04.591-.09 1.222-.5 1.683-.381.42-.912.781-1.493.801-1.342.06-2.684.11-4.026.17-.61.03-1.202-.11-1.682-.501"/><path fill="#000" d="M31.093 157.356c-.47-.27-.921-.801-1.051-1.332-.14-.571-.12-1.222.21-1.743.3-.48.761-.931 1.332-1.051q1.968-.439 3.936-.862c.59-.13 1.201-.1 1.742.211.471.27.922.801 1.052 1.332.14.571.12 1.222-.21 1.742-.3.481-.762.932-1.332 1.052-1.312.29-2.624.581-3.936.861-.591.13-1.202.1-1.743-.21"/><path fill="#5CB3C1" d="m5.966 153.37 3.465 8.422-6.94 5.909 9.093-.701 3.475 8.433 2.143-8.864 9.084-.701-7.762-4.777 2.144-8.853-6.94 5.909z"/><path fill="#000" d="M15.06 177.937a2.505 2.505 0 0 1-2.314-1.553l-2.784-6.74-7.271.561a2.52 2.52 0 0 1-2.504-1.542 2.525 2.525 0 0 1 .691-2.865l5.558-4.727-2.784-6.75a2.52 2.52 0 0 1 .691-2.864 2.52 2.52 0 0 1 2.935-.23l6.219 3.825 5.558-4.727a2.52 2.52 0 0 1 2.935-.23 2.5 2.5 0 0 1 1.121 2.724L21.4 159.91l6.209 3.825a2.5 2.5 0 0 1 1.122 2.724 2.52 2.52 0 0 1-2.244 1.913l-7.27.561-1.713 7.091a2.5 2.5 0 0 1-2.244 1.903h-.19zm-3.476-13.44c1.012 0 1.923.61 2.314 1.552l.54 1.302.33-1.372a2.495 2.495 0 0 1 2.244-1.903l1.402-.11-1.202-.741a2.5 2.5 0 0 1-1.121-2.724l.33-1.372-1.071.911a2.52 2.52 0 0 1-2.935.23l-1.201-.741.54 1.302a2.52 2.52 0 0 1-.69 2.864l-1.072.912 1.402-.11z"/><path fill="#FFFAE9" d="m207.826 38.63 1.963 7.46-6.49 4.167 7.702.44 1.963 7.462 2.794-7.191 7.701.44-5.969-4.876 2.794-7.191-6.489 4.166z"/><path fill="#000" d="M212.964 60.422h-.131a2.255 2.255 0 0 1-2.053-1.682l-1.542-5.88-6.059-.35a2.25 2.25 0 0 1-2.053-1.682c-.25-.952.14-1.943.961-2.474l5.108-3.285-1.542-5.868a2.259 2.259 0 0 1 3.615-2.323l4.697 3.845 5.108-3.285a2.259 2.259 0 0 1 3.325 2.724l-2.204 5.659 4.697 3.845a2.25 2.25 0 0 1 .671 2.574 2.23 2.23 0 0 1-2.233 1.432l-6.059-.35-2.203 5.658a2.27 2.27 0 0 1-2.103 1.442m-2.594-12.018.761.04c.981.06 1.802.731 2.053 1.683l.19.731.281-.711a2.23 2.23 0 0 1 2.233-1.432l.761.04-.591-.48a2.25 2.25 0 0 1-.671-2.575l.281-.71-.641.41c-.822.53-1.893.47-2.654-.15l-.591-.481.19.731c.25.951-.14 1.943-.961 2.474l-.641.41z"/><path fill="#5CB3C1" d="M26.356 109.164a9.574 9.574 0 0 0 9.574-9.574 9.574 9.574 0 1 0-9.574 9.574"/><path fill="#000" d="M26.336 111.668c-2.804 0-5.498-.961-7.681-2.774a11.98 11.98 0 0 1-4.317-8.172 12.02 12.02 0 0 1 2.724-8.833 11.98 11.98 0 0 1 8.172-4.317c3.205-.3 6.35.671 8.834 2.724a11.98 11.98 0 0 1 4.316 8.173 11.98 11.98 0 0 1-2.724 8.833 11.98 11.98 0 0 1-9.324 4.366m-7.01-11.417a7.06 7.06 0 0 0 2.523 4.787 7 7 0 0 0 5.168 1.593 7.06 7.06 0 0 0 4.787-2.524 7 7 0 0 0 1.593-5.168 7.06 7.06 0 0 0-2.524-4.787 7 7 0 0 0-5.168-1.592c-3.886.36-6.74 3.815-6.38 7.701z"/><path fill="#FA78BB" d="M246.163 131.959a5.338 5.338 0 1 0 0-10.676 5.338 5.338 0 0 0 0 10.676"/><path fill="#000" d="M246.143 134.463a7.8 7.8 0 0 1-4.988-1.803 7.8 7.8 0 0 1-2.804-5.298 7.77 7.77 0 0 1 1.763-5.729 7.8 7.8 0 0 1 5.308-2.804 7.74 7.74 0 0 1 5.728 1.773 7.8 7.8 0 0 1 2.804 5.308 7.77 7.77 0 0 1-1.762 5.728 7.79 7.79 0 0 1-6.059 2.835zm.02-10.666c-.09 0-.18 0-.271.01-.751.07-1.432.43-1.912 1.011a2.82 2.82 0 0 0-.641 2.073c.07.751.43 1.432 1.011 1.913a2.82 2.82 0 0 0 2.073.641 2.8 2.8 0 0 0 1.913-1.011 2.82 2.82 0 0 0 .641-2.074 2.8 2.8 0 0 0-1.011-1.912 2.82 2.82 0 0 0-1.803-.651"/><path fill="#FFBD3E" d="M57.743 113.281a5.178 5.178 0 1 0 0-10.355 5.178 5.178 0 0 0 0 10.355"/><path fill="#000" d="M57.723 115.784a7.63 7.63 0 0 1-4.888-1.762 7.62 7.62 0 0 1-2.744-5.198 7.63 7.63 0 0 1 1.733-5.619 7.62 7.62 0 0 1 5.198-2.744c4.226-.4 7.971 2.714 8.372 6.931.39 4.216-2.714 7.972-6.93 8.372-.24.02-.49.03-.731.03zm.02-10.355a2.69 2.69 0 0 0-2.063.971 2.6 2.6 0 0 0-.601 1.953c.07.711.41 1.352.961 1.813a2.675 2.675 0 0 0 4.367-2.314 2.68 2.68 0 0 0-2.664-2.423"/><path fill="#000" d="M82.93 122.194c.18-.872.17-.471.17-.591l.03-.04h-.01a662 662 0 0 0-7.721 6.8c-3.165 2.964-7.16 6.099-9.324 9.915-2.223 3.405-1.082 7.35 3.525 6.679 4.677-.961 8.693-3.445 12.67-5.588.75-.44 2.693-1.572 3.414-2.023.681-.43 1.182-.641 1.623-.781-.21.01-.681-.371-.721-.561.07 1.502-.721 3.505-1.422 5.278-.812 2.153-2.074 4.066-2.624 6.349-.491 1.693.28 3.996 2.403 4.317 1.813.28 3.295-.361 4.787-.932 2.174-.831 4.347-2.293 6.4-3.124-.02 0-.2-.07-.29-.18-.09-.101-.07-.141-.05-.081.05.111.07.461.05.802-.05.711-.241 1.532-.461 2.323-.42 1.562 1.882 2.294 2.443.771.791-1.983 1.823-5.989-1.312-6.55-1.482-.13-2.243.421-3.335.872-2.343.991-5.137 2.514-7.51 2.504.04-.061.44.27.47.45.04.17 0-.05.1-.31.18-.651.52-1.302.871-1.963 1.533-2.995 2.915-5.578 3.646-9.064.15-.931.23-2.033-.19-3.074-1.272-3.125-4.958-2.244-7.121-.801-.711.41-2.634 1.502-3.375 1.912-3.656 1.933-7.27 4.147-11.127 5.008-.81.1-.28-.08.13.42.251.271.321.611.321.702 0 .2 0-.051.1-.291 1.082-2.454 3.005-4.637 4.888-6.57 3.515-3.765 7.05-7.531 10.225-11.597l.11-.15.07-.09.04-.05.05-.07c0-.131 0 .27.2-.621-.02-1.392-2.103-1.412-2.133 0"/><path fill="#C67FE8" d="M81.388 71.178c6.83-2.123 9.925-1.523 17.776 3.455-4.576-8.092-5.017-11.207-2.553-17.927-6.83 2.123-9.925 1.522-17.777-3.455 4.577 8.082 5.018 11.207 2.554 17.927"/><path fill="#000" d="M99.164 77.137c-.46 0-.931-.13-1.342-.39-7.25-4.597-9.594-5.078-15.693-3.175-.911.28-1.903.03-2.554-.661a2.51 2.51 0 0 1-.54-2.584c2.203-5.989 1.842-8.362-2.384-15.834a2.51 2.51 0 0 1 .45-3.044 2.51 2.51 0 0 1 3.065-.3c7.24 4.596 9.594 5.077 15.693 3.174a2.52 2.52 0 0 1 2.554.661c.661.691.862 1.693.541 2.584-2.203 5.999-1.843 8.362 2.384 15.834a2.51 2.51 0 0 1-.451 3.044 2.53 2.53 0 0 1-1.723.691m-11.587-9.614c1.993 0 3.896.4 6.009 1.252-1.062-3.065-1.222-5.649-.61-8.623-2.995.46-5.57.16-8.574-1.052 1.062 3.065 1.222 5.649.621 8.623.882-.13 1.733-.2 2.564-.2z"/><path fill="#D8C4EC" d="M56.621 73.051c4.126-1.282 5.999-.92 10.736 2.084-2.764-4.888-3.034-6.77-1.542-10.827-4.126 1.282-6 .922-10.736-2.083 2.764 4.888 3.034 6.77 1.542 10.826"/><path fill="#000" d="M67.347 77.638c-.46 0-.931-.13-1.342-.39-4.346-2.765-5.448-2.805-8.653-1.813-.911.28-1.903.03-2.554-.661a2.51 2.51 0 0 1-.54-2.584c1.161-3.145 1.161-4.246-1.373-8.733a2.51 2.51 0 0 1 .451-3.045 2.51 2.51 0 0 1 3.065-.3c4.346 2.764 5.448 2.804 8.652 1.813a2.52 2.52 0 0 1 2.554.66c.661.692.862 1.693.541 2.584-1.152 3.155-1.162 4.247 1.372 8.733a2.51 2.51 0 0 1-.45 3.045 2.53 2.53 0 0 1-1.723.691m-6.95-7.782q1.108 0 2.173.24a9.8 9.8 0 0 1-.1-2.603 9.7 9.7 0 0 1-2.594-.23 9.8 9.8 0 0 1 .1 2.603h.43z"/><path fill="#000" d="M265.692 43.357c-1.873.26-3.736.69-5.518 1.302a25.3 25.3 0 0 0-5.078 2.383c-1.382.852-2.624 1.863-3.816 2.955a24.1 24.1 0 0 0-5.478 7.37c-2.193 4.588-2.934 9.895-2.283 14.923.461 3.625 1.652 7.2 3.585 10.305-.11.27-.23.53-.33.801-1.022 2.935-1.502 6.07-1.472 9.174.03 2.914.38 5.809.711 8.703.09.741.711 1.242 1.452 1.212.751-.03 1.242-.751 1.212-1.452-.04-1.222-.06-2.444-.091-3.666q0-.21 0 0c-.01.17 0 .13 0-.1v-1.743c0-.57.021-1.131.041-1.702.12-2.624.38-5.258 1.091-7.792.06.07.12.14.18.2.431.461.862.912 1.332 1.343 2.104 1.912 4.537 3.415 7.311 4.096 2.504.61 5.318.37 7.652-.751 1.282-.621 2.423-1.413 3.385-2.484.931-1.042 1.552-2.294 1.923-3.626.661-2.413 0-4.977-1.252-7.08-1.202-2.023-3.155-3.686-5.298-4.627-1.082-.47-2.254-.811-3.435-.881-1.462-.09-2.855.08-4.267.49-2.523.732-4.757 2.324-6.539 4.217-.231.25-.441.52-.661.79a25 25 0 0 1-.812-2.663 25 25 0 0 1-.53-5.508c.11-1.953.44-3.896 1.011-5.769a23 23 0 0 1 2.183-4.677 21.4 21.4 0 0 1 2.865-3.435 22.2 22.2 0 0 1 4.086-2.864c.28-.15.571-.3.851-.45-.26.14-.531.28-.791.42a24.2 24.2 0 0 1 5.418-2.043 27.2 27.2 0 0 1 6.229-.561q1.818.12 3.606.42c.661.11 1.311.25 1.982.351.321.05.641.1.962.16.15.03.3.06.461.09.09.02.17.02.25.04.13.04.25.08.381.12.18.06.36.12.53.181.601.32 1.322.28 1.953.08s1.102-.721 1.392-1.292c.291-.56.301-1.372.08-1.953-.17-.45-.47-.811-.841-1.101 0 0 .01 0 .02.01-.16-.16-.38-.28-.571-.411-.22-.15-.45-.31-.691-.46-.14-.1-.29-.201-.43-.291-.371-.24-.751-.48-1.122-.711-.2-.12-.411-.24-.611-.36-.441-.251-.861-.391-1.352-.541l.801.25c-.641-.3-1.382-.49-2.043-.701-.43-.14-.861-.27-1.302-.37a19 19 0 0 0-2.624-.371c-1.892-.16-3.775-.18-5.658.08zM256.478 86.2a15.8 15.8 0 0 1-2.734-2.284 18.5 18.5 0 0 1-1.883-2.514 17 17 0 0 1 2.093-2.453 14 14 0 0 1 2.404-1.733c.771-.39 1.572-.7 2.404-.911a9.6 9.6 0 0 1 2.073-.2c.541.05 1.081.15 1.602.29.601.21 1.172.49 1.713.811.57.38 1.091.821 1.582 1.312q.679.763 1.192 1.663c.23.47.41.951.551 1.462.08.42.12.841.12 1.272-.03.37-.1.73-.191 1.081-.13.35-.29.681-.47 1.002-.241.35-.521.68-.821.981-.401.35-.842.651-1.302.922-.571.28-1.152.49-1.763.65-.661.13-1.322.19-1.993.19-.751-.06-1.492-.2-2.223-.41a13 13 0 0 1-2.344-1.111z"/><path fill="#000" d="M249.888 86.22s.05.06.081.09a6 6 0 0 1-.261-.28c.06.06.12.13.18.19"/><path fill="#000" d="M251.351 49.917s-.05.06-.08.08c-.181.16-.361.32-.531.49.2-.19.41-.38.611-.57"/></svg>