<svg xmlns="http://www.w3.org/2000/svg" width="385" height="272" fill="none" viewBox="0 0 385 272"><path fill="#FFFBE8" d="M14 269.88h355.939V106.206c-2.221-2.061-90.15-98.113-90.15-98.113l-103.295 99.293H14z"/><path fill="#000" d="M369.939 271.381H13.999c-.83 0-1.5-.67-1.5-1.501V107.386a1.5 1.5 0 0 1 1.5-1.501h161.895L278.748 7.012c.29-.28.68-.43 1.091-.42.4.01.79.19 1.06.49 30.36 33.172 88.26 96.343 90.07 98.023.3.28.48.68.48 1.101V269.88c0 .831-.67 1.501-1.5 1.501zM15.5 268.38h352.938V106.816c-6.852-7.173-78.706-85.639-88.719-96.572l-102.185 98.232c-.28.27-.65.42-1.04.42H15.5V268.39z"/><path fill="#FFFBE8" d="M14.01 269.89h162.494V107.396H14.01z"/><path fill="#000" d="M176.494 271.381H14c-.83 0-1.5-.67-1.5-1.501V107.386a1.5 1.5 0 0 1 1.5-1.501h162.494a1.5 1.5 0 0 1 1.501 1.501V269.88a1.5 1.5 0 0 1-1.501 1.501M15.5 268.38h159.494V108.886H15.5z"/><path fill="#FFFBE8" d="m279.789 8.093 90.9 99.293h12.824L286.591 1.571"/><path fill="#000" d="M383.513 108.886h-12.824c-.42 0-.82-.18-1.11-.49L278.678 9.103a1.502 1.502 0 0 1 2.211-2.03l90.45 98.802h8.753L285.471 2.571a1.5 1.5 0 1 1 2.21-2.03l96.923 105.815c.4.44.51 1.07.27 1.62s-.78.9-1.371.9z"/><path fill="#FFFBE8" d="M105.62 1.51 1.506 107.387h174.988l14.295-13.805 95.272-91.95z"/><path fill="#000" d="M176.494 108.886H1.496c-.6 0-1.15-.36-1.38-.92s-.11-1.2.31-1.63L104.54.45c.28-.29.67-.45 1.07-.45l180.441.12c.61 0 1.16.37 1.39.94s.09 1.22-.35 1.64l-95.262 91.952-14.294 13.804c-.281.27-.651.42-1.041.42zM5.087 105.885h170.807l13.855-13.384L282.34 3.13l-176.099-.12L5.077 105.895z"/><path fill="#FFFBE8" d="M271.146 199.146c-7.172.511-12.624 6.143-12.604 13.325.02 8.173 6.602 13.985 14.965 13.394 7.222-.5 12.664-6.212 12.654-13.444 0-8.213-6.612-13.875-15.015-13.275"/><path fill="#000" d="M272.336 227.406c-4.091 0-7.842-1.411-10.663-4.041-2.981-2.771-4.622-6.643-4.632-10.894-.02-7.883 5.992-14.255 13.995-14.825 4.661-.33 8.953 1.09 12.074 3.991 2.931 2.731 4.541 6.552 4.541 10.774 0 7.963-6.042 14.385-14.054 14.945-.42.03-.851.04-1.261.04zm-1.09-26.769c-6.412.46-11.224 5.542-11.204 11.824.01 3.421 1.321 6.512 3.681 8.713 2.501 2.321 5.942 3.461 9.684 3.201 6.422-.45 11.264-5.592 11.264-11.954 0-3.381-1.281-6.422-3.592-8.583-2.511-2.331-5.992-3.471-9.823-3.201z"/><path fill="#FFFBE8" d="M274.017 107.386c-25.189 0-40.004 16.965-41.204 37.702-.09 1.501 1.17 2.751 2.671 2.751h18.506c1.421 0 2.531-1.12 2.651-2.541.91-10.733 7.653-17.776 17.536-17.776 9.323 0 15.315 5.502 15.315 13.485 0 6.652-3.501 11.494-11.154 16.315-10.473 6.152-17.646 11.644-17.646 25.469v4.742c0 .76.621 1.38 1.381 1.38h19.216c.761 0 1.381-.62 1.381-1.38v-2.241c0-7.153 4.481-11.154 13.644-17.306 9.153-6.332 17.306-13.144 17.306-29.13 0-18.306-14.975-31.47-39.613-31.47z"/><path fill="#000" d="M281.289 190.423h-19.216a2.88 2.88 0 0 1-2.881-2.88v-4.742c0-14.785 7.973-20.637 18.386-26.759 7.383-4.652 10.414-9.013 10.414-15.025 0-7.282-5.422-11.984-13.815-11.984-9.033 0-15.185 6.282-16.045 16.395-.191 2.231-1.971 3.912-4.142 3.912h-18.506a4.2 4.2 0 0 1-3.051-1.321c-.78-.83-1.17-1.9-1.11-3.011 1.13-19.476 14.765-39.123 42.704-39.123 24.588 0 41.114 13.255 41.114 32.971 0 16.566-8.493 23.818-17.956 30.36-9.173 6.162-13.005 9.754-13.005 16.076v2.171c0 1.67-1.29 2.96-2.881 2.96zm-19.096-3.001h18.986v-2.13c0-8.323 5.662-12.744 14.315-18.556 9.093-6.293 16.646-12.745 16.646-27.88 0-18.206-14.965-29.97-38.113-29.97-18.716 0-38.253 11.224-39.703 36.292-.02.381.18.661.3.781.23.24.54.38.87.38H254c.61 0 1.101-.49 1.151-1.171.99-11.634 8.462-19.146 19.036-19.146 10.573 0 16.816 6.022 16.816 14.985 0 7.092-3.542 12.354-11.854 17.586-9.944 5.842-16.946 10.974-16.946 24.198v4.621z"/></svg>