<svg xmlns="http://www.w3.org/2000/svg" width="691" height="421" fill="none" viewBox="0 0 691 421"><path fill="#FFFBE8" d="M664.297 110.916h-67.559a7.306 7.306 0 0 0-7.306 7.306v66.458a7.306 7.306 0 0 0 7.306 7.306h67.559a7.306 7.306 0 0 0 7.306-7.306v-66.458a7.306 7.306 0 0 0-7.306-7.306"/><path fill="#000" d="M664.307 193.488h-67.559c-4.854 0-8.808-3.953-8.808-8.808v-66.447c0-4.854 3.954-8.808 8.808-8.808h67.559c4.854 0 8.807 3.954 8.807 8.808v66.447c0 4.855-3.953 8.808-8.807 8.808m-67.559-81.07a5.81 5.81 0 0 0-5.805 5.805v66.447a5.81 5.81 0 0 0 5.805 5.805h67.559a5.81 5.81 0 0 0 5.805-5.805v-66.447a5.81 5.81 0 0 0-5.805-5.805z"/><path fill="#FFFBE8" d="M612.501 182.058h36.052a7.807 7.807 0 0 0 7.807-7.807v-45.579a7.807 7.807 0 0 0-7.807-7.807h-36.052a7.806 7.806 0 0 0-7.806 7.807v45.579a7.806 7.806 0 0 0 7.806 7.807"/><path fill="#000" d="M648.553 183.549h-36.051c-5.135 0-9.308-4.173-9.308-9.308v-45.579c0-5.135 4.173-9.308 9.308-9.308h36.051c5.134 0 9.308 4.173 9.308 9.308v45.579c0 5.135-4.174 9.308-9.308 9.308m-36.061-61.193c-3.473 0-6.306 2.833-6.306 6.306v45.579c0 3.473 2.833 6.306 6.306 6.306h36.051c3.473 0 6.305-2.833 6.305-6.306v-45.579c0-3.473-2.832-6.306-6.305-6.306z"/><path fill="#FFFBE8" d="M612.501 182.058h36.052a7.807 7.807 0 0 0 7.807-7.807v-45.579a7.807 7.807 0 0 0-7.807-7.807h-36.052a7.806 7.806 0 0 0-7.806 7.807v45.579a7.806 7.806 0 0 0 7.806 7.807"/><path fill="#000" d="M648.553 183.549h-36.051c-5.135 0-9.308-4.173-9.308-9.308v-45.579c0-5.135 4.173-9.308 9.308-9.308h36.051c5.134 0 9.308 4.173 9.308 9.308v45.579c0 5.135-4.174 9.308-9.308 9.308m-36.061-61.193c-3.473 0-6.306 2.833-6.306 6.306v45.579c0 3.473 2.833 6.306 6.306 6.306h36.051c3.473 0 6.305-2.833 6.305-6.306v-45.579c0-3.473-2.832-6.306-6.305-6.306z"/><path fill="#FFFBE8" d="M537.006 1.501H327.735c-12.924 0-23.401 10.477-23.401 23.4v152.023c0 12.923 10.477 23.4 23.401 23.4h209.271c12.924 0 23.401-10.477 23.401-23.4V24.902c0-12.924-10.477-23.4-23.401-23.4"/><path fill="#000" d="M537.016 201.825H327.735c-13.732 0-24.902-11.169-24.902-24.901V24.902C302.833 11.17 314.003 0 327.735 0h209.281c13.732 0 24.902 11.17 24.902 24.902v152.022c0 13.732-11.17 24.901-24.902 24.901M327.735 3.003c-12.071 0-21.899 9.818-21.899 21.899v152.022c0 12.07 9.818 21.899 21.899 21.899h209.281c12.071 0 21.899-9.819 21.899-21.899V24.902c0-12.07-9.818-21.9-21.899-21.9z"/><path fill="#FFFBE8" d="M535.025 150.731H331.278c-6.506 0-11.78 5.274-11.78 11.78v16.384c0 6.506 5.274 11.781 11.78 11.781h203.747c6.506 0 11.78-5.275 11.78-11.781v-16.384c0-6.506-5.274-11.78-11.78-11.78"/><path fill="#000" d="M535.015 192.187H331.278c-7.327 0-13.282-5.965-13.282-13.282v-16.374c0-7.326 5.965-13.281 13.282-13.281h203.737c7.326 0 13.281 5.965 13.281 13.281v16.374c0 7.327-5.965 13.282-13.281 13.282m-203.737-39.955c-5.675 0-10.279 4.614-10.279 10.279v16.374c0 5.675 4.614 10.279 10.279 10.279h203.737c5.675 0 10.279-4.614 10.279-10.279v-16.374c0-5.675-4.614-10.279-10.279-10.279z"/><path fill="#EE6DBB" d="M497.372 169.738H495.7v-3.123h-3.873v-1.982h-4.374v1.982h-3.803v3.123h-1.652v3.072h1.652v2.783h12.05v-2.783h1.672z"/><path fill="#000" d="M495.7 177.094h-12.05a1.5 1.5 0 0 1-1.501-1.502v-1.271h-.151a1.5 1.5 0 0 1-1.501-1.501v-3.073a1.5 1.5 0 0 1 1.501-1.501h.151v-1.621a1.5 1.5 0 0 1 1.501-1.502h2.292v-.48a1.5 1.5 0 0 1 1.501-1.501h4.374c.831 0 1.501.67 1.501 1.501v.48h2.382a1.5 1.5 0 0 1 1.502 1.502v1.621h.17a1.5 1.5 0 0 1 1.501 1.501v3.073c0 .831-.67 1.501-1.501 1.501h-.17v1.271a1.5 1.5 0 0 1-1.502 1.502m-10.549-3.003h9.048v-1.271a1.5 1.5 0 0 1 1.501-1.501h.171v-.07h-.171a1.5 1.5 0 0 1-1.501-1.502v-1.621h-2.382a1.5 1.5 0 0 1-1.501-1.501v-.481h-1.371v.481a1.5 1.5 0 0 1-1.502 1.501h-2.292v1.621a1.5 1.5 0 0 1-1.501 1.502h-.15v.07h.15c.831 0 1.501.67 1.501 1.501z"/><path fill="#FFFBE8" d="M479.326 169.738h-1.671v-3.123h-3.884v-1.982h-4.374v1.982h-3.803v3.123h-1.641v3.072h1.641v2.783h12.061v-2.783h1.671z"/><path fill="#000" d="M479.156 177.094h-15.053v-2.773h-1.651v-6.075h1.651v-3.123h3.793v-1.981h7.377v1.981h3.883v3.123h1.671v6.075h-1.671zm-12.061-3.003h9.048v-2.772h1.672v-.07h-1.672v-3.123h-3.883v-1.982h-1.371v1.982h-3.794v3.123h-1.651v.07h1.651z"/><path fill="#FFFBE8" d="M363.706 175.583h12.05v-8.978h-12.05z"/><path fill="#000" d="M377.257 177.094h-15.053v-11.98h15.053zm-12.05-3.003h9.048v-5.975h-9.048z"/><path fill="#FFFBE8" d="M362.054 172.81h15.374v-3.073h-15.374z"/><path fill="#000" d="M378.929 174.312h-18.376v-6.076h18.376zm-15.373-3.003h12.37v-.07h-12.37z"/><path fill="#FFFBE8" d="M371.873 175.593v-10.96h-4.374v10.96z"/><path fill="#000" d="M373.374 177.094h-7.376v-13.962h7.376zm-4.364-3.003h1.371v-7.957h-1.371z"/><path fill="#FFFBE8" d="M345.66 175.583h12.051v-8.978H345.66z"/><path fill="#000" d="M359.202 177.094h-15.053v-11.98h15.053zm-12.051-3.003h9.048v-5.975h-9.048z"/><path fill="#FFFBE8" d="M344.009 172.81h15.373v-3.073h-15.373z"/><path fill="#000" d="M360.873 174.312h-18.375v-6.076h18.375zm-15.373-3.003h12.371v-.07H345.5z"/><path fill="#FFFBE8" d="M353.817 175.593v-10.96h-4.373v10.96z"/><path fill="#000" d="M355.329 177.094h-7.377v-13.962h7.377zm-4.374-3.003h1.371v-7.957h-1.371z"/><path fill="#FFFBE8" d="M327.605 175.583h12.05v-8.978h-12.05z"/><path fill="#000" d="M341.156 177.094h-15.053v-11.98h15.053zm-12.06-3.003h9.048v-5.975h-9.048z"/><path fill="#FFFBE8" d="M325.953 172.81h15.373v-3.073h-15.373z"/><path fill="#000" d="M342.818 174.312h-18.376v-6.076h18.376zm-15.374-3.003h12.371v-.07h-12.371z"/><path fill="#FFFBE8" d="M335.762 175.593v-10.96h-4.374v10.96z"/><path fill="#000" d="M337.273 177.094h-7.377v-13.962h7.377zm-4.374-3.003h1.371v-7.957h-1.371z"/><path fill="#FFFBE8" d="M377.428 169.738h-1.672v-3.123h-3.883v-1.982h-4.364v1.982h-3.803v3.123h-1.652v3.072h1.652v2.783h12.05v-2.783h1.672z"/><path fill="#000" d="M377.257 177.094h-15.053v-2.773h-1.651v-6.075h1.651v-3.123h3.794v-1.981h7.376v1.981h3.883v3.123h1.672v6.075h-1.672zm-12.05-3.003h9.048v-2.772h1.671v-.07h-1.671v-3.123h-3.883v-1.982H369v1.982h-3.793v3.123h-1.651v.07h1.651z"/><path fill="#8CBA3B" d="M359.372 169.738h-1.671v-3.123h-3.884v-1.982h-4.363v1.982h-3.804v3.123h-1.651v3.072h1.651v2.783h12.051v-2.783h1.671z"/><path fill="#000" d="M357.701 177.094H345.65a1.5 1.5 0 0 1-1.501-1.502v-1.271h-.15c-.831 0-1.501-.67-1.501-1.501v-3.073a1.5 1.5 0 0 1 1.501-1.501h.15v-1.621a1.5 1.5 0 0 1 1.501-1.502h2.292v-.48a1.5 1.5 0 0 1 1.502-1.501h4.373a1.5 1.5 0 0 1 1.502 1.501v.48h2.382a1.5 1.5 0 0 1 1.501 1.502v1.621h.17a1.5 1.5 0 0 1 1.501 1.501v3.073c0 .831-.67 1.501-1.501 1.501h-.17v1.271a1.5 1.5 0 0 1-1.501 1.502m-10.549-3.003h9.047v-1.271a1.5 1.5 0 0 1 1.502-1.501h.17v-.07h-.17a1.5 1.5 0 0 1-1.502-1.502v-1.621h-2.382a1.5 1.5 0 0 1-1.501-1.501v-.481h-1.371v.481a1.5 1.5 0 0 1-1.501 1.501h-2.292v1.621a1.5 1.5 0 0 1-1.502 1.502h-.15v.07h.15a1.5 1.5 0 0 1 1.502 1.501z"/><path fill="#8CBA3B" d="M341.316 169.738h-1.661v-3.123h-3.883v-1.982h-4.374v1.982h-3.803v3.123h-1.652v3.072h1.652v2.783h12.06v-2.783h1.661z"/><path fill="#000" d="M339.655 177.094h-12.05a1.5 1.5 0 0 1-1.502-1.502v-1.271h-.15c-.831 0-1.501-.67-1.501-1.501v-3.073a1.5 1.5 0 0 1 1.501-1.501h.15v-1.621a1.5 1.5 0 0 1 1.502-1.502h2.292v-.48c0-.831.67-1.501 1.501-1.501h4.374a1.5 1.5 0 0 1 1.501 1.501v.48h2.382a1.5 1.5 0 0 1 1.501 1.502v1.621h.17a1.5 1.5 0 0 1 1.502 1.501v3.073a1.5 1.5 0 0 1-1.502 1.501h-.17v1.271a1.5 1.5 0 0 1-1.501 1.502m-10.559-3.003h9.048v-1.271c0-.831.67-1.501 1.501-1.501h.17v-.07h-.17a1.5 1.5 0 0 1-1.501-1.502v-1.621h-2.382a1.5 1.5 0 0 1-1.502-1.501v-.481h-1.371v.481a1.5 1.5 0 0 1-1.501 1.501h-2.292v1.621a1.5 1.5 0 0 1-1.501 1.502h-.151v.07h.151a1.5 1.5 0 0 1 1.501 1.501z"/><path fill="#FFFBE8" d="M461.541 169.738h-1.672v-3.123h-3.883v-1.982h-4.364v1.982h-3.803v3.123h-1.652v3.072h1.652v2.783h12.05v-2.783h1.672z"/><path fill="#000" d="M461.371 177.094h-15.054v-2.773h-1.651v-6.075h1.651v-3.123h3.794v-1.981h7.376v1.981h3.884v3.123h1.671v6.075h-1.671zm-12.051-3.003h9.048v-2.772h1.671v-.07h-1.671v-3.123h-3.883v-1.982h-1.372v1.982h-3.793v3.123h-1.651v.07h1.651z"/><path fill="#FFFBE8" d="M443.485 169.738h-1.671v-3.123h-3.884v-1.982h-4.364v1.982h-3.803v3.123h-1.651v3.072h1.651v2.783h12.051v-2.783h1.671z"/><path fill="#000" d="M443.315 177.094h-15.053v-2.773h-1.652v-6.075h1.652v-3.123h3.793v-1.981h7.376v1.981h3.884v3.123h1.671v6.075h-1.671zm-12.051-3.003h9.048v-2.772h1.672v-.07h-1.672v-3.123h-3.883v-1.982h-1.371v1.982h-3.794v3.123h-1.651v.07h1.651z"/><path fill="#FFFBE8" d="M425.429 169.738h-1.661v-3.123h-3.884v-1.982h-4.373v1.982h-3.804v3.123h-1.651v3.072h1.651v2.783h12.061v-2.783h1.661z"/><path fill="#000" d="M425.269 177.094h-15.053v-2.773h-1.651v-6.075h1.651v-3.123h3.793v-1.981h7.377v1.981h3.883v3.123h1.672v6.075h-1.672zm-12.06-3.003h9.048v-2.772h1.671v-.07h-1.671v-3.123h-3.884v-1.982h-1.371v1.982h-3.793v3.123h-1.652v.07h1.652z"/><path fill="#FFFBE8" d="M508.381 74.525H354.448a4.925 4.925 0 0 0-4.925 4.924v42.697a4.924 4.924 0 0 0 4.925 4.924h153.933a4.924 4.924 0 0 0 4.925-4.924V79.449a4.925 4.925 0 0 0-4.925-4.924"/><path fill="#000" d="M508.381 128.572H354.438a6.434 6.434 0 0 1-6.426-6.426V79.439a6.433 6.433 0 0 1 6.426-6.425h153.943a6.433 6.433 0 0 1 6.426 6.425v42.707a6.434 6.434 0 0 1-6.426 6.426M354.438 76.026a3.43 3.43 0 0 0-3.423 3.423v42.707a3.427 3.427 0 0 0 3.423 3.423h153.943a3.427 3.427 0 0 0 3.423-3.423V79.449a3.43 3.43 0 0 0-3.423-3.423z"/><path fill="#000" d="M325.242 53.286a1.5 1.5 0 0 1-1.501-1.501V15.523a1.5 1.5 0 0 1 1.501-1.501 1.5 1.5 0 0 1 1.502 1.501v36.262a1.5 1.5 0 0 1-1.502 1.501"/><path fill="#000" d="M333.48 53.286a1.5 1.5 0 0 1-1.502-1.501V15.523a1.5 1.5 0 0 1 1.502-1.501 1.5 1.5 0 0 1 1.501 1.501v36.262a1.5 1.5 0 0 1-1.501 1.501"/><path fill="#000" d="M341.717 53.286c-.831 0-1.501-.67-1.501-1.501V15.523c0-.83.67-1.501 1.501-1.501s1.501.67 1.501 1.501v36.262a1.5 1.5 0 0 1-1.501 1.501"/><path fill="#000" d="M349.954 53.286c-.831 0-1.501-.67-1.501-1.501V15.523c0-.83.67-1.501 1.501-1.501s1.501.67 1.501 1.501v36.262a1.5 1.5 0 0 1-1.501 1.501"/><path fill="#000" d="M358.191 53.286c-.831 0-1.501-.67-1.501-1.501V15.523c0-.83.67-1.501 1.501-1.501s1.501.67 1.501 1.501v36.262a1.5 1.5 0 0 1-1.501 1.501"/><path fill="#000" d="M366.428 53.286c-.831 0-1.501-.67-1.501-1.501V15.523a1.5 1.5 0 0 1 1.501-1.501 1.5 1.5 0 0 1 1.502 1.501v36.262a1.5 1.5 0 0 1-1.502 1.501"/><path fill="#000" d="M374.665 53.286a1.5 1.5 0 0 1-1.501-1.501V15.523a1.5 1.5 0 0 1 1.501-1.501 1.5 1.5 0 0 1 1.502 1.501v36.262a1.5 1.5 0 0 1-1.502 1.501"/><path fill="#000" d="M382.902 53.286a1.5 1.5 0 0 1-1.501-1.501V15.523a1.5 1.5 0 0 1 1.501-1.501 1.5 1.5 0 0 1 1.502 1.501v36.262a1.5 1.5 0 0 1-1.502 1.501"/><path fill="#000" d="M391.14 53.286a1.5 1.5 0 0 1-1.502-1.501V15.523a1.5 1.5 0 0 1 1.502-1.501 1.5 1.5 0 0 1 1.501 1.501v36.262a1.5 1.5 0 0 1-1.501 1.501"/><path fill="#000" d="M399.377 53.286a1.5 1.5 0 0 1-1.502-1.501V15.523a1.5 1.5 0 0 1 1.502-1.501 1.5 1.5 0 0 1 1.501 1.501v36.262a1.5 1.5 0 0 1-1.501 1.501"/><path fill="#000" d="M407.614 53.286c-.831 0-1.501-.67-1.501-1.501V15.523c0-.83.67-1.501 1.501-1.501s1.501.67 1.501 1.501v36.262a1.5 1.5 0 0 1-1.501 1.501"/><path fill="#000" d="M415.851 53.286c-.831 0-1.501-.67-1.501-1.501V15.523c0-.83.67-1.501 1.501-1.501s1.501.67 1.501 1.501v36.262a1.5 1.5 0 0 1-1.501 1.501"/><path fill="#000" d="M424.088 53.286a1.5 1.5 0 0 1-1.501-1.501V15.523a1.5 1.5 0 0 1 1.501-1.501 1.5 1.5 0 0 1 1.502 1.501v36.262a1.5 1.5 0 0 1-1.502 1.501"/><path fill="#000" d="M432.325 53.286a1.5 1.5 0 0 1-1.501-1.501V15.523a1.5 1.5 0 0 1 1.501-1.501 1.5 1.5 0 0 1 1.502 1.501v36.262a1.5 1.5 0 0 1-1.502 1.501"/><path fill="#000" d="M440.563 53.286a1.5 1.5 0 0 1-1.502-1.501V15.523a1.5 1.5 0 0 1 1.502-1.501 1.5 1.5 0 0 1 1.501 1.501v36.262a1.5 1.5 0 0 1-1.501 1.501"/><path fill="#000" d="M448.8 53.286a1.5 1.5 0 0 1-1.502-1.501V15.523a1.5 1.5 0 0 1 1.502-1.501 1.5 1.5 0 0 1 1.501 1.501v36.262a1.5 1.5 0 0 1-1.501 1.501"/><path fill="#000" d="M457.037 53.286c-.831 0-1.501-.67-1.501-1.501V15.523c0-.83.67-1.501 1.501-1.501s1.501.67 1.501 1.501v36.262a1.5 1.5 0 0 1-1.501 1.501"/><path fill="#000" d="M465.274 53.286c-.831 0-1.501-.67-1.501-1.501V15.523c0-.83.67-1.501 1.501-1.501s1.501.67 1.501 1.501v36.262a1.5 1.5 0 0 1-1.501 1.501"/><path fill="#000" d="M473.511 53.286c-.831 0-1.501-.67-1.501-1.501V15.523c0-.83.67-1.501 1.501-1.501s1.501.67 1.501 1.501v36.262a1.5 1.5 0 0 1-1.501 1.501"/><path fill="#000" d="M481.748 53.286a1.5 1.5 0 0 1-1.501-1.501V15.523a1.5 1.5 0 0 1 1.501-1.501 1.5 1.5 0 0 1 1.502 1.501v36.262a1.5 1.5 0 0 1-1.502 1.501"/><path fill="#000" d="M489.985 53.286a1.5 1.5 0 0 1-1.501-1.501V15.523a1.5 1.5 0 0 1 1.501-1.501 1.5 1.5 0 0 1 1.502 1.501v36.262a1.5 1.5 0 0 1-1.502 1.501"/><path fill="#000" d="M498.223 53.286a1.5 1.5 0 0 1-1.502-1.501V15.523a1.5 1.5 0 0 1 1.502-1.501 1.5 1.5 0 0 1 1.501 1.501v36.262a1.5 1.5 0 0 1-1.501 1.501"/><path fill="#000" d="M506.46 53.286a1.5 1.5 0 0 1-1.502-1.501V15.523a1.5 1.5 0 0 1 1.502-1.501 1.5 1.5 0 0 1 1.501 1.501v36.262a1.5 1.5 0 0 1-1.501 1.501"/><path fill="#000" d="M514.697 53.286c-.831 0-1.501-.67-1.501-1.501V15.523c0-.83.67-1.501 1.501-1.501s1.501.67 1.501 1.501v36.262a1.5 1.5 0 0 1-1.501 1.501"/><path fill="#000" d="M522.934 53.286c-.831 0-1.501-.67-1.501-1.501V15.523c0-.83.67-1.501 1.501-1.501s1.501.67 1.501 1.501v36.262a1.5 1.5 0 0 1-1.501 1.501"/><path fill="#000" d="M531.171 53.286c-.831 0-1.501-.67-1.501-1.501V15.523c0-.83.67-1.501 1.501-1.501s1.501.67 1.501 1.501v36.262a1.5 1.5 0 0 1-1.501 1.501"/><path fill="#000" d="M539.408 53.286c-.831 0-1.501-.67-1.501-1.501V15.523a1.5 1.5 0 0 1 1.501-1.501 1.5 1.5 0 0 1 1.502 1.501v36.262a1.5 1.5 0 0 1-1.502 1.501"/><path fill="#FFFBE8" d="M539.408 92.34v-5.135a3.613 3.613 0 0 0-3.603-3.603 3.613 3.613 0 0 0-3.603 3.603v5.215a8.61 8.61 0 0 0-4.914 7.777 8.606 8.606 0 0 0 8.607 8.607 8.604 8.604 0 0 0 3.523-16.454z"/><path fill="#000" d="M535.895 110.296c-5.575 0-10.108-4.534-10.108-10.109 0-3.553 1.901-6.856 4.914-8.668v-4.314a5.113 5.113 0 0 1 5.104-5.104 5.113 5.113 0 0 1 5.105 5.105v4.223a10.14 10.14 0 0 1 5.084 8.768c0 5.575-4.534 10.109-10.109 10.109zm-.09-25.202c-1.161 0-2.102.94-2.102 2.102v5.214c0 .58-.33 1.111-.86 1.351-2.463 1.171-4.064 3.693-4.064 6.416 0 3.913 3.183 7.106 7.106 7.106a7.107 7.107 0 0 0 7.106-7.106 7.11 7.11 0 0 0-4.193-6.476 1.5 1.5 0 0 1-.891-1.371v-5.135a2.1 2.1 0 0 0-2.102-2.101"/><path fill="#FFFBE8" d="M331.618 92.34v-5.135a3.614 3.614 0 0 0-3.603-3.603 3.613 3.613 0 0 0-3.603 3.603v5.215a8.607 8.607 0 0 0 3.693 16.384 8.605 8.605 0 0 0 3.523-16.454z"/><path fill="#000" d="M328.095 110.296c-5.575 0-10.109-4.534-10.109-10.109 0-3.553 1.902-6.856 4.914-8.668v-4.314a5.113 5.113 0 0 1 5.105-5.104 5.113 5.113 0 0 1 5.104 5.105v4.223a10.13 10.13 0 0 1 5.085 8.768c0 5.575-4.534 10.109-10.109 10.109zm-.08-25.202c-1.161 0-2.102.94-2.102 2.102v5.214c0 .58-.33 1.111-.861 1.351-2.462 1.171-4.063 3.693-4.063 6.416 0 3.913 3.182 7.106 7.106 7.106a7.11 7.11 0 0 0 7.106-7.106 7.11 7.11 0 0 0-4.194-6.476c-.54-.24-.89-.78-.89-1.371v-5.135a2.1 2.1 0 0 0-2.102-2.101"/><path fill="#FFFBE8" d="M516.969 164.633H506.83v12.631h10.139z"/><path fill="#000" d="M516.969 178.765H506.83c-.831 0-1.501-.67-1.501-1.501v-12.631c0-.831.67-1.501 1.501-1.501h10.139c.831 0 1.501.67 1.501 1.501v12.631c0 .831-.67 1.501-1.501 1.501m-8.638-3.002h7.137v-9.629h-7.137z"/><path fill="#FFFBE8" d="M534.925 176.984a5.325 5.325 0 1 0-.001-10.65 5.325 5.325 0 0 0 .001 10.65"/><path fill="#000" d="M534.925 178.495a6.834 6.834 0 0 1-6.826-6.826 6.834 6.834 0 0 1 6.826-6.826c3.763 0 6.825 3.063 6.825 6.826s-3.062 6.826-6.825 6.826m0-10.659a3.823 3.823 0 1 0-.002 7.646 3.823 3.823 0 0 0 .002-7.646"/><path fill="#FFFBE8" d="M403.42 160.359h-8.447v17.055h8.447z"/><path fill="#000" d="M403.42 178.916h-8.447a1.5 1.5 0 0 1-1.501-1.502v-17.055a1.5 1.5 0 0 1 1.501-1.501h8.447a1.5 1.5 0 0 1 1.502 1.501v17.055a1.5 1.5 0 0 1-1.502 1.502m-6.946-3.003h5.445v-14.052h-5.445z"/><path fill="#FFFBE8" d="M597.108 154.034a2.582 2.582 0 1 0 .002-5.164 2.582 2.582 0 0 0-.002 5.164"/><path fill="#000" d="M597.108 155.535a4.087 4.087 0 0 1-4.083-4.083 4.09 4.09 0 0 1 4.083-4.084 4.09 4.09 0 0 1 4.084 4.084 4.09 4.09 0 0 1-4.084 4.083m0-5.154c-.59 0-1.081.48-1.081 1.081 0 .6.481 1.081 1.081 1.081.601 0 1.081-.481 1.081-1.081 0-.601-.48-1.081-1.081-1.081"/><path fill="#FFFBE8" d="M664.737 154.034a2.582 2.582 0 1 0 0-5.164 2.582 2.582 0 0 0 0 5.164"/><path fill="#000" d="M664.737 155.535a4.087 4.087 0 0 1-4.083-4.083 4.09 4.09 0 0 1 4.083-4.084 4.09 4.09 0 0 1 4.084 4.084 4.09 4.09 0 0 1-4.084 4.083m0-5.154c-.59 0-1.081.48-1.081 1.081 0 .6.481 1.081 1.081 1.081.601 0 1.081-.481 1.081-1.081 0-.601-.48-1.081-1.081-1.081"/><path fill="#FFFBE8" d="M532.592 187.152v10.98h4.955v-10.98z"/><path fill="#000" d="M537.557 199.643h-4.955c-.4 0-.78-.16-1.06-.44a1.5 1.5 0 0 1-.441-1.061v-10.98a1.5 1.5 0 0 1 1.501-1.501h4.955c.4 0 .78.16 1.061.441.28.28.44.66.44 1.06v10.98c0 .831-.67 1.501-1.501 1.501m-3.453-3.002h1.951v-7.977h-1.951z"/><path fill="#000" d="M583.236 247.525c-30.146 0-49.623-16.334-49.623-41.616a1.5 1.5 0 0 1 1.501-1.502 1.5 1.5 0 0 1 1.502 1.502c0 23.46 18.296 38.613 46.62 38.613 25.713 0 46.621-20.918 46.621-46.62a1.5 1.5 0 0 1 1.501-1.502 1.5 1.5 0 0 1 1.501 1.502c0 27.364-22.259 49.623-49.623 49.623"/><path fill="#FFFBE8" d="M531.141 193.008h7.887v9.348l-1.001 1.852v3.713h-5.565v-3.713l-1.321-1.782z"/><path fill="#000" d="M538.027 209.422h-5.565a1.5 1.5 0 0 1-1.501-1.501v-3.213l-1.031-1.391a1.5 1.5 0 0 1-.29-.891v-9.408a1.5 1.5 0 0 1 1.501-1.502h7.887a1.5 1.5 0 0 1 1.501 1.502v9.338c0 .25-.06.49-.18.71l-.821 1.522v3.333a1.5 1.5 0 0 1-1.501 1.501m-4.064-3.003h2.563v-2.212c0-.25.06-.49.18-.71l.821-1.522v-7.466h-4.885v7.416l1.031 1.392c.19.26.29.57.29.89z"/><path fill="#FFFBE8" d="M631.869 201.085h-1.081a2.905 2.905 0 0 1-2.903-2.903v-14.983c0-.31.25-.56.561-.56h5.755c.31 0 .56.25.56.56v14.983a2.904 2.904 0 0 1-2.902 2.903z"/><path fill="#000" d="M631.879 202.586h-1.081a4.41 4.41 0 0 1-4.404-4.404v-14.983a2.06 2.06 0 0 1 2.062-2.062h5.755c1.141 0 2.061.921 2.061 2.062v14.983a4.41 4.41 0 0 1-4.403 4.404zm-2.483-18.436v14.042c0 .771.631 1.401 1.402 1.401h1.081c.77 0 1.401-.63 1.401-1.401V184.15z"/><path fill="#FFFBE8" d="M258.805 170.468H134.747a2.54 2.54 0 0 0-2.542 2.542v122.667a2.54 2.54 0 0 0 2.542 2.542h124.058a2.54 2.54 0 0 0 2.542-2.542V173.01a2.54 2.54 0 0 0-2.542-2.542"/><path fill="#000" d="M258.805 299.72H134.757a4.044 4.044 0 0 1-4.043-4.043V173.02a4.044 4.044 0 0 1 4.043-4.043h124.048a4.044 4.044 0 0 1 4.043 4.043v122.657a4.044 4.044 0 0 1-4.043 4.043M134.757 171.969a1.04 1.04 0 0 0-1.041 1.041v122.657c0 .58.471 1.041 1.041 1.041h124.048a1.04 1.04 0 0 0 1.041-1.041V173.01a1.04 1.04 0 0 0-1.041-1.041z"/><path fill="#000" d="M261.357 213.055H132.215a1.5 1.5 0 0 1-1.501-1.501 1.5 1.5 0 0 1 1.501-1.502h129.142a1.5 1.5 0 0 1 1.501 1.502 1.5 1.5 0 0 1-1.501 1.501"/><path fill="#FFFBE8" d="M147.108 270.866a5.615 5.615 0 1 0 0-11.23 5.615 5.615 0 0 0 0 11.23"/><path fill="#000" d="M147.108 272.367c-3.924 0-7.116-3.193-7.116-7.116 0-3.924 3.192-7.106 7.116-7.106s7.106 3.192 7.106 7.106-3.193 7.116-7.106 7.116m0-11.22c-2.262 0-4.114 1.842-4.114 4.104a4.12 4.12 0 0 0 4.114 4.113 4.104 4.104 0 0 0 4.103-4.113 4.103 4.103 0 0 0-4.103-4.104"/><path fill="#FFFBE8" d="M248.026 270.866a5.614 5.614 0 0 0 5.614-5.615 5.614 5.614 0 1 0-11.229 0 5.615 5.615 0 0 0 5.615 5.615"/><path fill="#000" d="M248.026 272.367c-3.924 0-7.117-3.193-7.117-7.116 0-3.924 3.193-7.106 7.117-7.106s7.106 3.192 7.106 7.106-3.193 7.116-7.106 7.116m0-11.22c-2.262 0-4.114 1.842-4.114 4.104a4.12 4.12 0 0 0 4.114 4.113 4.105 4.105 0 0 0 4.103-4.113 4.103 4.103 0 0 0-4.103-4.104"/><path fill="#FFFBE8" d="M209.562 252.77h-24.731v13.511h24.731z"/><path fill="#000" d="M209.552 267.783h-24.731a1.5 1.5 0 0 1-1.502-1.502V252.77a1.5 1.5 0 0 1 1.502-1.502h24.731a1.5 1.5 0 0 1 1.501 1.502v13.511a1.5 1.5 0 0 1-1.501 1.502m-23.22-3.003h21.729v-10.509h-21.729z"/><path fill="#FFFBE8" d="m183.799 274.298 1.091-8.017h24.732l.961 8.017"/><path fill="#000" d="M183.8 275.8c-.071 0-.141 0-.211-.01a1.495 1.495 0 0 1-1.281-1.692l1.101-8.017a1.51 1.51 0 0 1 1.492-1.301h24.731c.761 0 1.401.571 1.491 1.321l.961 8.017c.1.821-.49 1.572-1.311 1.672a1.506 1.506 0 0 1-1.671-1.311l-.801-6.696h-22.089l-.921 6.716c-.1.75-.751 1.301-1.481 1.301z"/><path fill="#FFFBE8" d="M205.749 184.32h-17.946v13.512h17.946z"/><path fill="#000" d="M205.759 199.333h-17.946c-.831 0-1.501-.67-1.501-1.501V184.32c0-.831.67-1.501 1.501-1.501h17.946a1.5 1.5 0 0 1 1.501 1.501v13.512a1.5 1.5 0 0 1-1.501 1.501m-16.455-3.002h14.943v-10.51h-14.943z"/><path fill="#FFFBE8" d="m187.063 205.849.79-8.017h17.946l.7 8.017"/><path fill="#000" d="M187.063 207.35h-.151a1.496 1.496 0 0 1-1.341-1.641l.801-8.017a1.5 1.5 0 0 1 1.491-1.351h17.946c.781 0 1.431.59 1.491 1.371l.701 8.017a1.495 1.495 0 0 1-1.361 1.621 1.5 1.5 0 0 1-1.622-1.361l-.58-6.646h-15.214l-.66 6.666a1.505 1.505 0 0 1-1.491 1.351z"/><path fill="#FFFBE8" d="m134.427 170.338 10.839-4.704h103.38l10.489 4.704z"/><path fill="#000" d="M259.135 171.839H134.417a1.503 1.503 0 0 1-.601-2.882l10.85-4.704q.285-.12.6-.12h103.37c.21 0 .42.04.61.13l10.5 4.704c.65.29 1 .991.85 1.681a1.51 1.51 0 0 1-1.471 1.191zm-117.482-3.002h110.466l-3.803-1.702h-102.74z"/><path fill="#000" d="M143.715 271.226c-.32 0-.651-.1-.921-.32a1.51 1.51 0 0 1-.26-2.112l6.906-8.838a1.51 1.51 0 0 1 2.112-.26c.65.51.77 1.451.26 2.112l-6.906 8.837c-.3.381-.741.581-1.181.581z"/><path fill="#000" d="M244.362 270.995c-.35 0-.7-.12-.981-.37a1.515 1.515 0 0 1-.15-2.122l7.367-8.457a1.513 1.513 0 0 1 2.122-.15c.62.54.69 1.491.15 2.122l-7.367 8.457c-.3.34-.71.52-1.131.52z"/><path fill="#FFFBE8" d="M258.805 170.468H134.747a2.54 2.54 0 0 0-2.542 2.542v122.667a2.54 2.54 0 0 0 2.542 2.542h124.058a2.54 2.54 0 0 0 2.542-2.542V173.01a2.54 2.54 0 0 0-2.542-2.542"/><path fill="#000" d="M258.805 299.72H134.757a4.044 4.044 0 0 1-4.043-4.043V173.02a4.044 4.044 0 0 1 4.043-4.043h124.048a4.044 4.044 0 0 1 4.043 4.043v122.657a4.044 4.044 0 0 1-4.043 4.043M134.757 171.969a1.04 1.04 0 0 0-1.041 1.041v122.657c0 .58.471 1.041 1.041 1.041h124.048a1.04 1.04 0 0 0 1.041-1.041V173.01a1.04 1.04 0 0 0-1.041-1.041z"/><path fill="#000" d="M261.357 213.055H132.215a1.5 1.5 0 0 1-1.501-1.501 1.5 1.5 0 0 1 1.501-1.502h129.142a1.5 1.5 0 0 1 1.501 1.502 1.5 1.5 0 0 1-1.501 1.501"/><path fill="#FFFBE8" d="M147.108 270.866a5.615 5.615 0 1 0 0-11.23 5.615 5.615 0 0 0 0 11.23"/><path fill="#000" d="M147.108 272.367c-3.924 0-7.116-3.193-7.116-7.116 0-3.924 3.192-7.106 7.116-7.106s7.106 3.192 7.106 7.106-3.193 7.116-7.106 7.116m0-11.22c-2.262 0-4.114 1.842-4.114 4.104a4.12 4.12 0 0 0 4.114 4.113 4.104 4.104 0 0 0 4.103-4.113 4.103 4.103 0 0 0-4.103-4.104"/><path fill="#FFFBE8" d="M248.026 270.866a5.614 5.614 0 0 0 5.614-5.615 5.614 5.614 0 1 0-11.229 0 5.615 5.615 0 0 0 5.615 5.615"/><path fill="#000" d="M248.026 272.367c-3.924 0-7.117-3.193-7.117-7.116 0-3.924 3.193-7.106 7.117-7.106s7.106 3.192 7.106 7.106-3.193 7.116-7.106 7.116m0-11.22c-2.262 0-4.114 1.842-4.114 4.104a4.12 4.12 0 0 0 4.114 4.113 4.105 4.105 0 0 0 4.103-4.113 4.103 4.103 0 0 0-4.103-4.104"/><path fill="#FFFBE8" d="M209.562 252.77h-24.731v13.511h24.731z"/><path fill="#000" d="M209.552 267.783h-24.731a1.5 1.5 0 0 1-1.502-1.502V252.77a1.5 1.5 0 0 1 1.502-1.502h24.731a1.5 1.5 0 0 1 1.501 1.502v13.511a1.5 1.5 0 0 1-1.501 1.502m-23.22-3.003h21.729v-10.509h-21.729z"/><path fill="#FFFBE8" d="m183.799 274.298 1.091-8.017h24.732l.961 8.017"/><path fill="#000" d="M183.8 275.8c-.071 0-.141 0-.211-.01a1.495 1.495 0 0 1-1.281-1.692l1.101-8.017a1.51 1.51 0 0 1 1.492-1.301h24.731c.761 0 1.401.571 1.491 1.321l.961 8.017c.1.821-.49 1.572-1.311 1.672a1.506 1.506 0 0 1-1.671-1.311l-.801-6.696h-22.089l-.921 6.716c-.1.75-.751 1.301-1.481 1.301z"/><path fill="#FFFBE8" d="M205.749 184.32h-17.946v13.512h17.946z"/><path fill="#000" d="M205.759 199.333h-17.946c-.831 0-1.501-.67-1.501-1.501V184.32c0-.831.67-1.501 1.501-1.501h17.946a1.5 1.5 0 0 1 1.501 1.501v13.512a1.5 1.5 0 0 1-1.501 1.501m-16.455-3.002h14.943v-10.51h-14.943z"/><path fill="#FFFBE8" d="m187.063 205.849.79-8.017h17.946l.7 8.017"/><path fill="#000" d="M187.063 207.35h-.151a1.496 1.496 0 0 1-1.341-1.641l.801-8.017a1.5 1.5 0 0 1 1.491-1.351h17.946c.781 0 1.431.59 1.491 1.371l.701 8.017a1.495 1.495 0 0 1-1.361 1.621 1.5 1.5 0 0 1-1.622-1.361l-.58-6.646h-15.214l-.66 6.666a1.505 1.505 0 0 1-1.491 1.351z"/><path fill="#FFFBE8" d="m134.427 170.338 10.839-4.704h103.38l10.489 4.704z"/><path fill="#000" d="M259.135 171.839H134.417a1.503 1.503 0 0 1-.601-2.882l10.85-4.704q.285-.12.6-.12h103.37c.21 0 .42.04.61.13l10.5 4.704c.65.29 1 .991.85 1.681a1.51 1.51 0 0 1-1.471 1.191zm-117.482-3.002h110.466l-3.803-1.702h-102.74z"/><path fill="#000" d="M143.715 271.226c-.32 0-.651-.1-.921-.32a1.51 1.51 0 0 1-.26-2.112l6.906-8.838a1.51 1.51 0 0 1 2.112-.26c.65.51.77 1.451.26 2.112l-6.906 8.837c-.3.381-.741.581-1.181.581z"/><path fill="#000" d="M244.362 270.995c-.35 0-.7-.12-.981-.37a1.515 1.515 0 0 1-.15-2.122l7.367-8.457a1.513 1.513 0 0 1 2.122-.15c.62.54.69 1.491.15 2.122l-7.367 8.457c-.3.34-.71.52-1.131.52z"/><path fill="#000" d="M137.089 403.411c-33.749 0-61.193-27.454-61.193-61.193h3.003c0 32.087 26.102 58.19 58.19 58.19s58.191-26.103 58.191-58.19v-47.231h3.002v47.231c0 33.749-27.454 61.193-61.193 61.193"/><path fill="#FFFBE8" d="M100.767 295.677H14.863c-7.374 0-13.352 5.978-13.352 13.352v45.679c0 7.374 5.978 13.352 13.352 13.352h85.904c7.374 0 13.352-5.978 13.352-13.352v-45.679c0-7.374-5.978-13.352-13.352-13.352"/><path fill="#000" d="M100.767 369.561H14.853C6.666 369.561 0 362.905 0 354.718v-45.69c0-8.187 6.666-14.842 14.853-14.842h85.914c8.188 0 14.853 6.655 14.853 14.842v45.69c0 8.187-6.665 14.843-14.853 14.843m-85.904-72.383c-6.536 0-11.85 5.315-11.85 11.84v45.69c0 6.536 5.314 11.84 11.85 11.84h85.914c6.536 0 11.851-5.314 11.851-11.84v-45.69c0-6.535-5.315-11.84-11.851-11.84z"/><path fill="#FFFBE8" d="M96.013 344.339V196.801c0-10.049-8.147-18.186-18.186-18.186H37.243c-9.388 0-17.004 7.617-17.004 17.005v148.729a6.257 6.257 0 0 0 6.255 6.255h63.275a6.257 6.257 0 0 0 6.255-6.255z"/><path fill="#000" d="M89.758 352.096H26.483c-4.274 0-7.757-3.483-7.757-7.757V195.61c0-10.199 8.297-18.506 18.506-18.506h40.585c10.86 0 19.688 8.838 19.688 19.687v147.548c0 4.274-3.483 7.757-7.757 7.757zM37.232 180.107c-8.547 0-15.503 6.956-15.503 15.503v148.729a4.76 4.76 0 0 0 4.754 4.754h63.275a4.76 4.76 0 0 0 4.754-4.754V196.791c0-9.198-7.487-16.684-16.684-16.684z"/><path fill="#FFFBE8" d="M31.878 182.168v-10.369a3.46 3.46 0 0 1 3.453-3.453 3.46 3.46 0 0 1 3.452 3.453v10.369"/><path fill="#000" d="M38.784 183.67a1.5 1.5 0 0 1-1.502-1.502v-10.369c0-1.071-.87-1.951-1.951-1.951s-1.952.87-1.952 1.951v10.369a1.5 1.5 0 0 1-1.501 1.502 1.5 1.5 0 0 1-1.502-1.502v-10.369a4.96 4.96 0 0 1 4.954-4.954 4.96 4.96 0 0 1 4.955 4.954v10.369a1.5 1.5 0 0 1-1.501 1.502"/><path fill="#FFFBE8" d="M96.013 350.084V202.546c0-10.049-8.147-18.186-18.186-18.186H37.243c-9.388 0-17.004 7.617-17.004 17.005v148.729a6.26 6.26 0 0 0 6.255 6.256h63.275a6.26 6.26 0 0 0 6.255-6.256z"/><path fill="#000" d="M89.758 357.831H26.483c-4.274 0-7.757-3.483-7.757-7.757V201.345c0-10.199 8.297-18.506 18.506-18.506h40.585c10.86 0 19.688 8.838 19.688 19.687v147.548c0 4.274-3.483 7.757-7.757 7.757zM37.232 185.852c-8.547 0-15.503 6.956-15.503 15.503v148.729a4.76 4.76 0 0 0 4.754 4.754h63.275a4.76 4.76 0 0 0 4.754-4.754V202.536c0-9.198-7.487-16.684-16.684-16.684z"/><path fill="#FFFBE8" d="M83.062 202.346H33.19a2.853 2.853 0 0 0-2.853 2.853v25.762a2.85 2.85 0 0 0 2.853 2.852h49.873a2.85 2.85 0 0 0 2.853-2.852v-25.762a2.853 2.853 0 0 0-2.853-2.853"/><path fill="#000" d="M83.062 235.315H33.19a4.357 4.357 0 0 1-4.354-4.354v-25.762a4.357 4.357 0 0 1 4.354-4.354h49.873a4.357 4.357 0 0 1 4.354 4.354v25.762a4.357 4.357 0 0 1-4.354 4.354M33.19 203.847c-.75 0-1.351.611-1.351 1.352v25.762c0 .751.61 1.351 1.35 1.351h49.874c.75 0 1.351-.61 1.351-1.351v-25.762c0-.751-.61-1.352-1.35-1.352z"/><path fill="#FFFBE8" d="M65.257 193.408H50.984c-.674 0-1.22.544-1.22 1.216s.546 1.216 1.22 1.216h14.273c.674 0 1.22-.545 1.22-1.216 0-.672-.546-1.216-1.22-1.216"/><path fill="#000" d="M65.267 197.341H50.984a2.725 2.725 0 0 1-2.722-2.722 2.725 2.725 0 0 1 2.722-2.722h14.283a2.725 2.725 0 0 1 2.722 2.722 2.725 2.725 0 0 1-2.722 2.722"/><path fill="#FFFBE8" d="M58.12 258.224a8.357 8.357 0 1 0 0-16.714 8.357 8.357 0 0 0 0 16.714"/><path fill="#000" d="M58.12 259.726c-5.434 0-9.858-4.424-9.858-9.859s4.424-9.858 9.858-9.858 9.859 4.423 9.859 9.858-4.424 9.859-9.859 9.859m0-16.715a6.86 6.86 0 0 0-6.855 6.856 6.86 6.86 0 0 0 6.855 6.856 6.86 6.86 0 0 0 6.856-6.856 6.86 6.86 0 0 0-6.856-6.856"/><path fill="#FFFBE8" d="M79.079 241.51h5.254c.871 0 1.582.711 1.582 1.581v3.393c0 .871-.711 1.582-1.582 1.582H79.08a3.274 3.274 0 0 1 0-6.546z"/><path fill="#000" d="M84.333 249.567H79.08a4.78 4.78 0 0 1-4.774-4.774 4.78 4.78 0 0 1 4.774-4.775h5.254a3.085 3.085 0 0 1 3.083 3.083v3.393a3.084 3.084 0 0 1-3.083 3.083zm-5.254-6.556c-.981 0-1.772.791-1.772 1.772 0 .98.79 1.771 1.772 1.771h5.254s.08-.04.08-.08v-3.393s-.04-.08-.08-.08H79.08z"/><path fill="#FFFBE8" d="M79.079 251.769h5.284c.861 0 1.552.69 1.552 1.551v3.443c0 .861-.691 1.552-1.552 1.552H79.08a3.274 3.274 0 0 1 0-6.546"/><path fill="#000" d="M84.363 259.816H79.08a4.78 4.78 0 0 1-4.774-4.774 4.78 4.78 0 0 1 4.774-4.774h5.284a3.06 3.06 0 0 1 3.053 3.052v3.443a3.06 3.06 0 0 1-3.053 3.053m-5.284-6.546c-.981 0-1.772.791-1.772 1.772s.79 1.771 1.772 1.771h5.284s.05-.03.05-.05v-3.443z"/><path fill="#FFFBE8" d="M32.398 241.51h5.325a3.274 3.274 0 0 1 0 6.546h-5.325c-.87 0-1.581-.711-1.581-1.582v-3.383c0-.87.71-1.581 1.581-1.581"/><path fill="#000" d="M37.723 249.567h-5.325a3.085 3.085 0 0 1-3.083-3.083v-3.383a3.085 3.085 0 0 1 3.083-3.083h5.325a4.78 4.78 0 0 1 4.774 4.775 4.78 4.78 0 0 1-4.774 4.774m-5.325-6.556s-.08.04-.08.08v3.383s.04.08.08.08h5.325c.98 0 1.771-.791 1.771-1.771 0-.981-.79-1.772-1.771-1.772z"/><path fill="#FFFBE8" d="M32.398 251.769h5.325a3.274 3.274 0 0 1 0 6.545h-5.325c-.87 0-1.581-.71-1.581-1.581v-3.393c0-.871.71-1.581 1.581-1.581z"/><path fill="#000" d="M37.723 259.816h-5.325a3.085 3.085 0 0 1-3.083-3.083v-3.393a3.084 3.084 0 0 1 3.083-3.083h5.325a4.78 4.78 0 0 1 4.774 4.774 4.78 4.78 0 0 1-4.774 4.775zm-5.325-6.546s-.08.04-.08.08v3.393s.04.08.08.08h5.325c.98 0 1.771-.791 1.771-1.772 0-.98-.79-1.771-1.771-1.771h-5.325z"/><path fill="#FFFBE8" d="M43.988 268.943H34.13a3.313 3.313 0 0 0-3.313 3.313v7.116a3.313 3.313 0 0 0 3.313 3.313h9.858a3.313 3.313 0 0 0 3.313-3.313v-7.116a3.313 3.313 0 0 0-3.313-3.313"/><path fill="#000" d="M43.988 284.187H34.13a4.823 4.823 0 0 1-4.815-4.815v-7.116a4.823 4.823 0 0 1 4.815-4.814h9.858a4.823 4.823 0 0 1 4.814 4.814v7.116a4.823 4.823 0 0 1-4.814 4.815m-9.858-13.742a1.81 1.81 0 0 0-1.812 1.811v7.116c0 1.001.81 1.812 1.812 1.812h9.858a1.81 1.81 0 0 0 1.812-1.812v-7.116a1.81 1.81 0 0 0-1.812-1.811z"/><path fill="#FFFBE8" d="M63.295 268.943h-9.858a3.313 3.313 0 0 0-3.313 3.313v7.116a3.313 3.313 0 0 0 3.313 3.313h9.858a3.313 3.313 0 0 0 3.313-3.313v-7.116a3.313 3.313 0 0 0-3.313-3.313"/><path fill="#000" d="M63.295 284.187h-9.858a4.823 4.823 0 0 1-4.815-4.815v-7.116a4.823 4.823 0 0 1 4.815-4.814h9.858a4.823 4.823 0 0 1 4.814 4.814v7.116a4.823 4.823 0 0 1-4.814 4.815m-9.858-13.742a1.81 1.81 0 0 0-1.812 1.811v7.116c0 1.001.81 1.812 1.812 1.812h9.858c1 0 1.812-.811 1.812-1.812v-7.116a1.81 1.81 0 0 0-1.812-1.811z"/><path fill="#FFFBE8" d="M82.602 268.943h-9.859a3.313 3.313 0 0 0-3.313 3.313v7.116a3.313 3.313 0 0 0 3.313 3.313h9.859a3.313 3.313 0 0 0 3.313-3.313v-7.116a3.313 3.313 0 0 0-3.313-3.313"/><path fill="#000" d="M82.602 284.187h-9.859a4.823 4.823 0 0 1-4.814-4.815v-7.116a4.823 4.823 0 0 1 4.814-4.814h9.859a4.823 4.823 0 0 1 4.814 4.814v7.116a4.823 4.823 0 0 1-4.814 4.815m-9.859-13.742c-1 0-1.812.81-1.812 1.811v7.116c0 1.001.811 1.812 1.812 1.812h9.859c1 0 1.811-.811 1.811-1.812v-7.116a1.81 1.81 0 0 0-1.811-1.811z"/><path fill="#FFFBE8" d="M43.988 285.358H34.13a3.313 3.313 0 0 0-3.313 3.312v7.117a3.313 3.313 0 0 0 3.313 3.313h9.858a3.313 3.313 0 0 0 3.313-3.313v-7.117a3.313 3.313 0 0 0-3.313-3.312"/><path fill="#000" d="M43.988 300.591H34.13a4.823 4.823 0 0 1-4.815-4.814v-7.116a4.82 4.82 0 0 1 4.815-4.814h9.858a4.82 4.82 0 0 1 4.814 4.814v7.116a4.823 4.823 0 0 1-4.814 4.814m-9.858-13.732a1.81 1.81 0 0 0-1.812 1.812v7.116a1.81 1.81 0 0 0 1.812 1.811h9.858a1.81 1.81 0 0 0 1.812-1.811v-7.116c0-1.001-.81-1.812-1.812-1.812z"/><path fill="#FFFBE8" d="M63.295 285.358h-9.858a3.313 3.313 0 0 0-3.313 3.312v7.117a3.313 3.313 0 0 0 3.313 3.313h9.858a3.313 3.313 0 0 0 3.313-3.313v-7.117a3.313 3.313 0 0 0-3.313-3.312"/><path fill="#000" d="M63.295 300.591h-9.858a4.823 4.823 0 0 1-4.815-4.814v-7.116a4.82 4.82 0 0 1 4.815-4.814h9.858a4.82 4.82 0 0 1 4.814 4.814v7.116a4.823 4.823 0 0 1-4.814 4.814m-9.858-13.732a1.81 1.81 0 0 0-1.812 1.812v7.116a1.81 1.81 0 0 0 1.812 1.811h9.858c1 0 1.812-.81 1.812-1.811v-7.116a1.81 1.81 0 0 0-1.812-1.812z"/><path fill="#FFFBE8" d="M82.602 285.358h-9.859a3.313 3.313 0 0 0-3.313 3.312v7.117a3.313 3.313 0 0 0 3.313 3.313h9.859a3.313 3.313 0 0 0 3.313-3.313v-7.117a3.313 3.313 0 0 0-3.313-3.312"/><path fill="#000" d="M82.602 300.591h-9.859a4.823 4.823 0 0 1-4.814-4.814v-7.116a4.82 4.82 0 0 1 4.814-4.814h9.859a4.82 4.82 0 0 1 4.814 4.814v7.116a4.823 4.823 0 0 1-4.814 4.814m-9.859-13.732c-1 0-1.812.811-1.812 1.812v7.116a1.81 1.81 0 0 0 1.812 1.811h9.859c1 0 1.811-.81 1.811-1.811v-7.116a1.81 1.81 0 0 0-1.811-1.812z"/><path fill="#FFFBE8" d="M43.988 301.762H34.13a3.313 3.313 0 0 0-3.313 3.313v7.116a3.313 3.313 0 0 0 3.313 3.313h9.858a3.313 3.313 0 0 0 3.313-3.313v-7.116a3.313 3.313 0 0 0-3.313-3.313"/><path fill="#000" d="M43.988 317.005H34.13a4.823 4.823 0 0 1-4.815-4.814v-7.116a4.823 4.823 0 0 1 4.815-4.814h9.858a4.823 4.823 0 0 1 4.814 4.814v7.116a4.823 4.823 0 0 1-4.814 4.814m-9.858-13.742a1.81 1.81 0 0 0-1.812 1.812v7.116c0 1.001.81 1.812 1.812 1.812h9.858a1.81 1.81 0 0 0 1.812-1.812v-7.116c0-1.001-.81-1.812-1.812-1.812z"/><path fill="#FFFBE8" d="M63.295 301.762h-9.858a3.313 3.313 0 0 0-3.313 3.313v7.116a3.313 3.313 0 0 0 3.313 3.313h9.858a3.313 3.313 0 0 0 3.313-3.313v-7.116a3.313 3.313 0 0 0-3.313-3.313"/><path fill="#000" d="M63.295 317.005h-9.858a4.823 4.823 0 0 1-4.815-4.814v-7.116a4.823 4.823 0 0 1 4.815-4.814h9.858a4.823 4.823 0 0 1 4.814 4.814v7.116a4.823 4.823 0 0 1-4.814 4.814m-9.858-13.742a1.81 1.81 0 0 0-1.812 1.812v7.116c0 1.001.81 1.812 1.812 1.812h9.858c1 0 1.812-.811 1.812-1.812v-7.116a1.81 1.81 0 0 0-1.812-1.812z"/><path fill="#FFFBE8" d="M82.602 301.762h-9.859a3.313 3.313 0 0 0-3.313 3.313v7.116a3.313 3.313 0 0 0 3.313 3.313h9.859a3.313 3.313 0 0 0 3.313-3.313v-7.116a3.313 3.313 0 0 0-3.313-3.313"/><path fill="#000" d="M82.602 317.005h-9.859a4.823 4.823 0 0 1-4.814-4.814v-7.116a4.823 4.823 0 0 1 4.814-4.814h9.859a4.823 4.823 0 0 1 4.814 4.814v7.116a4.823 4.823 0 0 1-4.814 4.814m-9.859-13.742c-1 0-1.812.811-1.812 1.812v7.116c0 1.001.811 1.812 1.812 1.812h9.859c1 0 1.811-.811 1.811-1.812v-7.116a1.81 1.81 0 0 0-1.811-1.812z"/><path fill="#FFFBE8" d="M43.988 318.177H34.13a3.313 3.313 0 0 0-3.313 3.312v7.117a3.313 3.313 0 0 0 3.313 3.313h9.858a3.313 3.313 0 0 0 3.313-3.313v-7.117a3.313 3.313 0 0 0-3.313-3.312"/><path fill="#000" d="M43.988 333.42H34.13a4.823 4.823 0 0 1-4.815-4.814v-7.117a4.823 4.823 0 0 1 4.815-4.814h9.858a4.823 4.823 0 0 1 4.814 4.814v7.117a4.823 4.823 0 0 1-4.814 4.814m-9.858-13.742a1.81 1.81 0 0 0-1.812 1.811v7.117a1.81 1.81 0 0 0 1.812 1.811h9.858a1.81 1.81 0 0 0 1.812-1.811v-7.117c0-1-.81-1.811-1.812-1.811z"/><path fill="#FFFBE8" d="M63.295 318.177h-9.858a3.313 3.313 0 0 0-3.313 3.312v7.117a3.313 3.313 0 0 0 3.313 3.313h9.858a3.313 3.313 0 0 0 3.313-3.313v-7.117a3.313 3.313 0 0 0-3.313-3.312"/><path fill="#000" d="M63.295 333.42h-9.858a4.823 4.823 0 0 1-4.815-4.814v-7.117a4.823 4.823 0 0 1 4.815-4.814h9.858a4.823 4.823 0 0 1 4.814 4.814v7.117a4.823 4.823 0 0 1-4.814 4.814m-9.858-13.742a1.81 1.81 0 0 0-1.812 1.811v7.117a1.81 1.81 0 0 0 1.812 1.811h9.858c1 0 1.812-.81 1.812-1.811v-7.117c0-1-.811-1.811-1.812-1.811z"/><path fill="#FFFBE8" d="M82.602 318.177h-9.859a3.313 3.313 0 0 0-3.313 3.312v7.117a3.313 3.313 0 0 0 3.313 3.313h9.859a3.313 3.313 0 0 0 3.313-3.313v-7.117a3.313 3.313 0 0 0-3.313-3.312"/><path fill="#000" d="M82.602 333.42h-9.859a4.823 4.823 0 0 1-4.814-4.814v-7.117a4.823 4.823 0 0 1 4.814-4.814h9.859a4.823 4.823 0 0 1 4.814 4.814v7.117a4.823 4.823 0 0 1-4.814 4.814m-9.859-13.742c-1 0-1.812.811-1.812 1.811v7.117a1.81 1.81 0 0 0 1.812 1.811h9.859c1 0 1.811-.81 1.811-1.811v-7.117c0-1-.81-1.811-1.811-1.811z"/><path fill="#FFFBE8" d="M99.617 346.561H16.023v11.48h83.593z"/><path fill="#000" d="M101.989 348.062H14.252c-.83 0-1.5-.67-1.5-1.501s.67-1.501 1.5-1.501h87.737a1.5 1.5 0 0 1 1.501 1.501 1.5 1.5 0 0 1-1.501 1.501"/><path fill="#FFFBE8" d="M20.238 340.636v5.925h-5.976z"/><path fill="#000" d="M20.238 348.062h-5.976a1.505 1.505 0 0 1-1.06-2.572l5.975-5.925a1.496 1.496 0 0 1 2.552 1.061v5.925c0 .831-.67 1.501-1.501 1.501zm-2.332-3.002h.83v-.821z"/><path fill="#FFFBE8" d="M20.238 340.636v5.925h-5.976z"/><path fill="#000" d="M20.238 348.062h-5.976a1.505 1.505 0 0 1-1.06-2.572l5.975-5.925a1.496 1.496 0 0 1 2.552 1.061v5.925c0 .831-.67 1.501-1.501 1.501zm-2.332-3.002h.83v-.821z"/><path fill="#FFFBE8" d="M95.973 340.636v5.925h5.965z"/><path fill="#000" d="M101.938 348.062h-5.975a1.5 1.5 0 0 1-1.501-1.501v-5.925c0-.611.36-1.151.92-1.381a1.49 1.49 0 0 1 1.632.32l5.975 5.925a1.51 1.51 0 0 1 .331 1.641 1.51 1.51 0 0 1-1.392.931zm-4.463-3.002h.83l-.83-.821z"/><path fill="#FFFBE8" d="M190.686 287.78v22.28c0 .73.59 1.321 1.321 1.321h10.369a1.32 1.32 0 0 0 1.321-1.321v-22.28a1.32 1.32 0 0 0-1.321-1.321h-10.369a1.32 1.32 0 0 0-1.321 1.321"/><path fill="#000" d="M202.376 312.892h-10.369a2.826 2.826 0 0 1-2.823-2.823V287.79a2.825 2.825 0 0 1 2.823-2.822h10.369a2.825 2.825 0 0 1 2.822 2.822v22.279a2.825 2.825 0 0 1-2.822 2.823m-10.189-3.003h10.019V287.96h-10.019z"/><path fill="#000" d="M194.369 308.538c-.551 0-1.001-.45-1.001-1.001v-8.617c0-.551.45-1.001 1.001-1.001s1.001.45 1.001 1.001v8.617c0 .551-.451 1.001-1.001 1.001"/><path fill="#000" d="M197.351 308.538c-.55 0-1.001-.45-1.001-1.001v-8.617c0-.551.451-1.001 1.001-1.001.551 0 1.001.45 1.001 1.001v8.617c0 .551-.45 1.001-1.001 1.001"/><path fill="#000" d="M200.344 308.538c-.551 0-1.001-.45-1.001-1.001v-8.617c0-.551.45-1.001 1.001-1.001s1.001.45 1.001 1.001v8.617c0 .551-.451 1.001-1.001 1.001"/><path fill="#FFFBE8" d="M328.986 251.468H253.02c-15.514 0-30.056-6.886-39.905-18.877l-10.609-12.931 4.644-3.803 10.609 12.931c8.698 10.599 21.549 16.685 35.261 16.685h75.966c20.978 0 38.053-17.065 38.053-38.053v-8.688h6.005v8.688c0 24.291-19.767 44.058-44.058 44.058z"/><path fill="#000" d="M328.986 252.969H253.02c-15.964 0-30.937-7.086-41.066-19.426l-11.56-14.093 6.966-5.715 11.56 14.093c8.407 10.248 20.838 16.134 34.1 16.134h75.966c20.157 0 36.551-16.395 36.551-36.552v-10.189h9.008v10.189c0 25.122-20.438 45.559-45.559 45.559m-124.358-33.098 9.658 11.77c9.558 11.65 23.681 18.326 38.744 18.326h75.966c23.46 0 42.556-19.087 42.556-42.557v-7.186h-3.002v7.186c0 21.809-17.745 39.554-39.554 39.554H253.03c-14.163 0-27.434-6.275-36.422-17.235l-9.658-11.77-2.322 1.902z"/><path fill="#FFFBE8" d="M366.568 185.951h-2.742a1.12 1.12 0 0 0-1.121 1.121v10.48l-3.063 6.996h2.653l3.102-7.067h9.228"/><path fill="#000" d="M362.294 206.059h-2.652c-.51 0-.981-.26-1.261-.681-.28-.42-.32-.961-.12-1.421l2.932-6.716v-10.169a2.626 2.626 0 0 1 2.623-2.622h2.742a1.5 1.5 0 0 1 1.501 1.501 1.5 1.5 0 0 1-1.501 1.502h-2.362v9.118c.28-.361.721-.581 1.191-.581h9.228a1.5 1.5 0 0 1 1.501 1.501 1.5 1.5 0 0 1-1.501 1.502h-8.247l-2.702 6.165a1.5 1.5 0 0 1-1.372.901"/><path fill="#FFFBE8" d="M374.745 186.912v16.114a.96.96 0 0 1-.961.961h-7.506a.96.96 0 0 1-.961-.961v-16.114c0-.53.43-.961.961-.961h7.506c.531 0 .961.431.961.961"/><path fill="#000" d="M373.784 205.488h-7.506a2.467 2.467 0 0 1-2.462-2.462v-16.114a2.467 2.467 0 0 1 2.462-2.462h7.506a2.467 2.467 0 0 1 2.463 2.462v16.114a2.467 2.467 0 0 1-2.463 2.462m-6.956-3.002h6.416v-15.023h-6.416z"/><path fill="#FFFBE8" d="M368.3 186.272v5.214h3.473v-5.214"/><path fill="#000" d="M371.773 192.487H368.3c-.551 0-1.001-.45-1.001-1.001v-5.214c0-.551.45-1.001 1.001-1.001s1.001.45 1.001 1.001v4.213h1.471v-4.213c0-.551.45-1.001 1.001-1.001s1.001.45 1.001 1.001v5.214c0 .551-.451 1.001-1.001 1.001"/><path fill="#FFFBE8" d="m199.413 205.679 2.152-1.812c.49-.41 1.211-.35 1.621.14l6.916 8.227 7.026 3.473-2.081 1.752-7.096-3.503-7.247 6.085"/><path fill="#000" d="M200.714 221.543c-.43 0-.851-.181-1.151-.531-.53-.63-.45-1.581.18-2.112l7.247-6.085c.39-.33.92-.43 1.401-.29l-6.115-7.277-1.882 1.582c-.631.53-1.581.45-2.112-.18a1.505 1.505 0 0 1 .18-2.112l2.152-1.812a2.63 2.63 0 0 1 1.942-.61c.71.06 1.351.39 1.801.94l6.716 7.987 6.736 3.333c.45.22.761.661.821 1.171.06.501-.14 1.001-.521 1.331l-2.081 1.752a1.52 1.52 0 0 1-1.632.2l-6.215-3.063-6.496 5.455c-.28.24-.62.351-.961.351z"/><path fill="#FFFBE8" d="m193.638 211.814 10.629 12.651c.351.41.971.47 1.381.12l5.886-4.955c.41-.35.47-.97.12-1.381l-3.754-4.464-6.886-8.187a.983.983 0 0 0-1.381-.12l-5.885 4.954a.984.984 0 0 0-.12 1.382z"/><path fill="#000" d="M205.018 226.316c-.711 0-1.411-.3-1.902-.88l-10.629-12.651a2.485 2.485 0 0 1 .3-3.493l5.885-4.955a2.44 2.44 0 0 1 1.812-.57c.661.06 1.261.37 1.681.881l10.63 12.651c.43.51.63 1.151.57 1.811a2.45 2.45 0 0 1-.881 1.682l-5.885 4.944a2.46 2.46 0 0 1-1.591.58zm-9.899-15.063 9.959 11.851 5.094-4.284-9.958-11.85z"/><path fill="#FFFBE8" d="m198.272 207.07 3.433 4.083-2.722 2.292-3.433-4.093"/><path fill="#000" d="M198.983 214.446a.99.99 0 0 1-.771-.36l-3.443-4.094c-.36-.42-.3-1.05.12-1.411a1.01 1.01 0 0 1 1.411.12l2.793 3.323 1.191-1.001-2.793-3.322c-.36-.421-.3-1.051.12-1.412.421-.35 1.051-.3 1.412.12l3.443 4.094c.36.42.3 1.051-.12 1.411l-2.723 2.292c-.19.16-.42.23-.64.23z"/><path fill="#000" d="M16.715 416.681v-11.75H12.78v-1.561h9.799v1.561h-3.954v11.75h-1.912"/><path fill="#000" d="M27.024 416.912q-1.367 0-2.433-.631a4.4 4.4 0 0 1-1.661-1.751c-.4-.751-.6-1.622-.6-2.603 0-.98.2-1.901.6-2.652s.95-1.341 1.661-1.771c.711-.431 1.532-.641 2.473-.641s1.741.21 2.412.63a4.37 4.37 0 0 1 1.561 1.662c.37.691.55 1.451.55 2.292v.41c0 .15-.02.311-.03.481h-7.836v-1.351h5.975c-.04-.801-.3-1.422-.8-1.872-.491-.45-1.112-.671-1.843-.671-.52 0-.99.12-1.43.351-.441.23-.781.58-1.042 1.031-.26.45-.39 1.02-.39 1.701v.53q0 1.067.39 1.802c.26.49.6.851 1.041 1.101.43.25.901.37 1.412.37.61 0 1.11-.13 1.5-.4q.586-.405.872-1.081h1.901a4 4 0 0 1-.84 1.571c-.39.461-.881.831-1.452 1.091-.57.261-1.24.401-1.992.401"/><path fill="#000" d="M33.7 416.681v-13.692h1.9v13.692z"/><path fill="#000" d="M42.537 416.912q-1.365 0-2.432-.631a4.4 4.4 0 0 1-1.662-1.751c-.4-.751-.6-1.622-.6-2.603 0-.98.2-1.901.6-2.652s.951-1.341 1.662-1.771c.71-.431 1.531-.641 2.472-.641q1.408 0 2.412.63a4.37 4.37 0 0 1 1.562 1.662c.37.691.55 1.451.55 2.292v.41c0 .15-.02.311-.03.481h-7.837v-1.351h5.975c-.04-.801-.3-1.422-.8-1.872-.49-.45-1.111-.671-1.842-.671-.52 0-.99.12-1.431.351-.44.23-.78.58-1.041 1.031s-.39 1.02-.39 1.701v.53q0 1.067.39 1.802c.26.49.6.851 1.04 1.101.431.25.901.37 1.412.37.61 0 1.111-.13 1.501-.4q.585-.405.871-1.081h1.902a4 4 0 0 1-.841 1.571c-.39.461-.88.831-1.451 1.091-.57.261-1.241.401-1.992.401"/><path fill="#000" d="M49.213 420.865v-13.772h1.711l.19 1.481c.2-.29.46-.57.761-.831.3-.26.67-.47 1.09-.64.421-.16.922-.25 1.492-.25.911 0 1.712.22 2.402.67a4.56 4.56 0 0 1 1.622 1.802c.39.75.58 1.611.58 2.572s-.2 1.822-.59 2.572a4.5 4.5 0 0 1-1.622 1.782c-.69.43-1.491.65-2.402.65q-1.125 0-1.982-.45a3.44 3.44 0 0 1-1.35-1.241v5.645h-1.902zm4.924-5.605c.58 0 1.1-.14 1.551-.42.45-.281.801-.671 1.061-1.181q.39-.766.39-1.772c0-.671-.13-1.261-.39-1.761a3 3 0 0 0-1.06-1.181 2.9 2.9 0 0 0-1.552-.431c-.58 0-1.121.14-1.571.431-.45.29-.801.68-1.051 1.181-.25.5-.38 1.09-.38 1.761s.13 1.261.38 1.772c.25.51.6.9 1.05 1.181.45.28.971.42 1.572.42"/><path fill="#000" d="M61.293 416.681v-13.692h1.902v5.665c.32-.56.76-.99 1.321-1.311s1.191-.48 1.872-.48c.76 0 1.41.16 1.961.47.55.311.961.771 1.251 1.391.29.611.44 1.382.44 2.312v5.645h-1.88v-5.434q0-1.352-.571-2.042c-.38-.461-.941-.691-1.692-.691-.51 0-.96.12-1.371.361-.41.24-.73.59-.97 1.051q-.361.69-.361 1.681v5.074z"/><path fill="#000" d="M76.847 416.912c-.901 0-1.712-.21-2.422-.631a4.4 4.4 0 0 1-1.692-1.761c-.41-.751-.62-1.622-.62-2.613s.21-1.901.63-2.652a4.6 4.6 0 0 1 1.712-1.762q1.08-.63 2.432-.63c.9 0 1.721.21 2.432.63A4.5 4.5 0 0 1 81 409.245c.41.751.62 1.631.62 2.642s-.21 1.892-.62 2.643-.98 1.331-1.701 1.751c-.72.421-1.542.631-2.452.631m0-1.632c.52 0 .99-.13 1.421-.38.42-.25.77-.631 1.03-1.131.261-.5.391-1.121.391-1.872 0-.75-.13-1.371-.38-1.871-.25-.501-.59-.881-1.021-1.131a2.7 2.7 0 0 0-1.401-.381c-.51 0-.981.131-1.411.381s-.781.63-1.041 1.131q-.39.748-.39 1.871c0 .751.13 1.372.39 1.872s.6.881 1.03 1.131c.42.25.881.38 1.382.38"/><path fill="#000" d="M83.863 416.681v-9.588h1.711l.11 1.632c.3-.571.731-1.021 1.291-1.362.561-.34 1.202-.5 1.922-.5.76 0 1.411.15 1.962.46.54.301.97.761 1.271 1.382.3.61.46 1.381.46 2.312v5.664h-1.9v-5.474c0-.891-.2-1.562-.59-2.012-.391-.45-.962-.681-1.712-.681-.49 0-.941.12-1.331.351s-.711.58-.941 1.041-.35 1.01-.35 1.671v5.114h-1.902z"/><path fill="#000" d="M99.356 416.912q-1.365 0-2.432-.631a4.4 4.4 0 0 1-1.661-1.751c-.4-.751-.6-1.622-.6-2.603 0-.98.2-1.901.6-2.652s.95-1.341 1.661-1.771c.71-.431 1.531-.641 2.472-.641s1.742.21 2.412.63a4.4 4.4 0 0 1 1.562 1.662c.37.691.55 1.451.55 2.292v.41c0 .15-.02.311-.03.481h-7.837v-1.351h5.976c-.04-.801-.301-1.422-.801-1.872-.49-.45-1.111-.671-1.842-.671-.52 0-.99.12-1.43.351-.441.23-.782.58-1.042 1.031s-.39 1.02-.39 1.701v.53q0 1.067.39 1.802c.26.49.6.851 1.041 1.101.43.25.9.37 1.411.37.61 0 1.111-.13 1.502-.4q.585-.405.87-1.081h1.902a4 4 0 0 1-.841 1.571c-.39.461-.88.831-1.451 1.091-.57.261-1.241.401-1.992.401"/><path fill="#000" d="M146.888 121.616v-13.312h4.543c1.061 0 1.942.18 2.623.53.68.361 1.191.831 1.521 1.432.33.59.49 1.271.49 2.031s-.16 1.382-.48 1.992c-.32.601-.831 1.081-1.511 1.441q-1.022.541-2.643.541h-2.642v5.345zm1.901-6.916h2.562c1.001 0 1.712-.221 2.142-.661.421-.44.641-1.021.641-1.742 0-.77-.21-1.371-.641-1.791-.43-.42-1.141-.631-2.142-.631h-2.562z"/><path fill="#000" d="M158.027 121.615v-9.588h1.712l.17 1.802a3.5 3.5 0 0 1 2.051-1.782c.461-.16.991-.25 1.592-.25v2.011h-.681c-.39 0-.77.051-1.121.141-.35.09-.67.26-.941.48-.27.23-.48.541-.64.931s-.23.881-.23 1.461v4.774h-1.902z"/><path fill="#000" d="M169.327 121.845q-1.367 0-2.432-.63a4.4 4.4 0 0 1-1.662-1.752c-.4-.75-.6-1.621-.6-2.602s.2-1.901.6-2.652a4.5 4.5 0 0 1 1.662-1.772c.71-.42 1.531-.64 2.472-.64s1.742.21 2.412.63a4.36 4.36 0 0 1 1.561 1.662c.371.69.551 1.451.551 2.292v.41c0 .15-.02.31-.03.481h-7.837v-1.352h5.975c-.04-.8-.3-1.421-.8-1.871-.491-.451-1.111-.671-1.842-.671-.52 0-.991.12-1.431.35-.441.231-.781.581-1.041 1.031-.26.451-.39 1.021-.39 1.702v.53q0 1.066.39 1.802c.26.49.6.851 1.041 1.101s.901.37 1.411.37c.611 0 1.111-.13 1.501-.4q.586-.405.871-1.081h1.902a4 4 0 0 1-.841 1.571c-.39.461-.881.831-1.451 1.091-.581.27-1.241.4-1.992.4"/><path fill="#000" d="M176.113 116.811v-1.601h7.687v1.601z"/><path fill="#000" d="M187.012 121.615v-7.967h-1.411v-1.621h1.411v-1.291q0-.991.331-1.621c.22-.421.55-.721.98-.911.431-.19.951-.29 1.562-.29h.991v1.621h-.681c-.46 0-.781.09-.981.28-.2.18-.29.501-.29.961v1.251h5.835v9.588h-1.902v-7.967h-3.933v7.967zm6.806-11.239c-.35 0-.65-.11-.891-.341q-.36-.345-.36-.87c0-.351.12-.621.36-.851.241-.23.541-.33.891-.33.351 0 .671.11.901.33s.35.5.35.851c0 .35-.12.65-.35.87-.23.231-.54.341-.901.341"/><path fill="#000" d="M197.481 121.615v-13.692h1.902v13.692z"/><path fill="#000" d="M205.929 121.616c-.601 0-1.111-.1-1.562-.291-.44-.19-.79-.51-1.031-.95q-.36-.661-.36-1.802v-4.924h-1.651v-1.622h1.651l.23-2.392h1.672v2.392h2.722v1.622h-2.722v4.944c0 .54.11.921.34 1.111.23.2.621.29 1.181.29h1.101v1.622h-1.581z"/><path fill="#000" d="M213.765 121.845q-1.365 0-2.432-.63a4.4 4.4 0 0 1-1.661-1.752c-.4-.75-.601-1.621-.601-2.602s.201-1.901.601-2.652.951-1.341 1.661-1.772c.711-.42 1.532-.64 2.473-.64s1.741.21 2.412.63a4.37 4.37 0 0 1 1.561 1.662c.37.69.55 1.451.55 2.292v.41c0 .15-.02.31-.03.481h-7.836v-1.352h5.975c-.04-.8-.3-1.421-.801-1.871-.49-.451-1.111-.671-1.842-.671-.52 0-.99.12-1.431.35-.44.231-.78.581-1.041 1.031-.26.451-.39 1.021-.39 1.702v.53q0 1.066.39 1.802c.261.49.601.851 1.041 1.101.441.25.901.37 1.411.37.611 0 1.111-.13 1.502-.4q.585-.405.871-1.081h1.901c-.16.58-.44 1.111-.841 1.571-.39.461-.88.831-1.451 1.091-.58.27-1.241.4-1.992.4"/><path fill="#000" d="M220.441 121.615v-9.588h1.712l.17 1.802c.22-.431.49-.791.841-1.091.34-.301.74-.531 1.211-.691.46-.16.991-.25 1.591-.25v2.011h-.68c-.391 0-.771.051-1.121.141-.351.09-.671.26-.941.48-.27.23-.481.541-.641.931s-.23.881-.23 1.461v4.774h-1.902z"/><path fill="#000" d="M231.731 121.845q-1.367 0-2.432-.63a4.4 4.4 0 0 1-1.662-1.752c-.4-.75-.6-1.621-.6-2.602s.2-1.901.6-2.652a4.5 4.5 0 0 1 1.662-1.772c.71-.42 1.531-.64 2.472-.64s1.742.21 2.412.63a4.36 4.36 0 0 1 1.561 1.662c.371.69.551 1.451.551 2.292v.41c0 .15-.02.31-.03.481h-7.837v-1.352h5.975c-.04-.8-.3-1.421-.8-1.871-.491-.451-1.111-.671-1.842-.671-.52 0-.991.12-1.431.35-.441.231-.781.581-1.041 1.031-.26.451-.39 1.021-.39 1.702v.53q0 1.066.39 1.802c.26.49.6.851 1.041 1.101s.901.37 1.411.37c.611 0 1.111-.13 1.501-.4q.586-.405.871-1.081h1.902a4 4 0 0 1-.841 1.571c-.39.461-.881.831-1.451 1.091-.581.27-1.241.4-1.992.4"/><path fill="#000" d="M242.671 121.846c-.911 0-1.722-.221-2.413-.661a4.4 4.4 0 0 1-1.621-1.792c-.39-.75-.58-1.611-.58-2.572s.19-1.841.58-2.582a4.5 4.5 0 0 1 1.631-1.782c.701-.44 1.512-.66 2.423-.66q1.125 0 1.981.45a3.3 3.3 0 0 1 1.331 1.261v-5.594h1.902v13.691h-1.691l-.211-1.481c-.19.29-.44.571-.74.831s-.671.47-1.101.64c-.431.171-.921.251-1.481.251zm.3-1.652c.6 0 1.121-.14 1.581-.42a2.7 2.7 0 0 0 1.051-1.181c.25-.511.37-1.101.37-1.772 0-.67-.12-1.261-.37-1.761-.25-.501-.6-.891-1.051-1.181-.46-.291-.981-.431-1.581-.431-.601 0-1.081.14-1.542.431-.46.29-.81.68-1.06 1.181-.251.5-.381 1.091-.381 1.761 0 .671.13 1.261.381 1.772.25.51.61.901 1.06 1.181.461.28.971.42 1.542.42"/><path fill="#000" d="M134.797 144.435v-9.588h1.711l.131 1.351c.3-.49.71-.881 1.221-1.161q.765-.42 1.711-.42c.48 0 .921.07 1.311.2.391.13.741.33 1.041.601s.551.59.741.99c.34-.56.8-.99 1.381-1.311a3.74 3.74 0 0 1 1.832-.48c.77 0 1.441.16 1.991.47.561.311.981.771 1.271 1.391.291.621.441 1.382.441 2.292v5.665h-1.882v-5.474q0-1.337-.54-2.012c-.361-.461-.891-.681-1.592-.681-.47 0-.89.12-1.251.361-.37.24-.66.59-.861 1.041s-.31 1.01-.31 1.671v5.094h-1.901v-5.474q0-1.337-.541-2.012c-.36-.461-.891-.681-1.591-.681-.441 0-.851.12-1.221.361-.371.24-.661.59-.871 1.041-.22.46-.32 1.01-.32 1.671v5.094z"/><path fill="#000" d="M155.225 144.665c-.791 0-1.442-.13-1.962-.4-.521-.27-.911-.621-1.161-1.071s-.38-.931-.38-1.451c0-.631.16-1.171.49-1.622.33-.45.801-.79 1.411-1.041q.916-.36 2.192-.36h2.492c0-.56-.08-1.021-.25-1.391-.16-.37-.41-.641-.731-.831-.32-.18-.73-.28-1.231-.28-.57 0-1.061.14-1.461.41-.4.271-.66.671-.761 1.211h-1.901c.08-.67.31-1.251.69-1.721.391-.48.881-.841 1.492-1.101.61-.26 1.251-.39 1.941-.39.901 0 1.652.16 2.262.48s1.071.761 1.382 1.341c.31.581.47 1.261.47 2.062v5.935h-1.652l-.15-1.621c-.14.25-.3.49-.49.72-.19.231-.42.421-.671.591-.26.17-.56.29-.89.39-.341.1-.711.14-1.111.14zm.36-1.541c.41 0 .771-.08 1.101-.25.33-.16.61-.391.851-.671.24-.28.41-.61.53-.971.12-.36.19-.73.2-1.111v-.06h-2.262c-.54 0-.991.07-1.321.201-.33.13-.58.31-.731.54-.15.23-.23.49-.23.801 0 .31.07.59.22.81.151.221.361.401.641.521s.611.19 1.011.19z"/><path fill="#000" d="M166.344 144.665c-.81 0-1.521-.13-2.131-.4-.611-.27-1.091-.641-1.442-1.121a3.55 3.55 0 0 1-.65-1.691h1.941c.06.3.191.58.371.84.18.251.44.461.76.611.321.15.711.23 1.151.23.421 0 .761-.06 1.041-.18.271-.12.471-.28.601-.491s.19-.43.19-.67c0-.35-.09-.621-.26-.811s-.421-.33-.761-.44a9 9 0 0 0-1.211-.29 11 11 0 0 1-1.281-.311c-.41-.13-.781-.3-1.101-.5s-.581-.461-.771-.771-.28-.69-.28-1.151c0-.54.15-1.041.44-1.471.291-.441.711-.781 1.242-1.031.53-.25 1.171-.37 1.911-.37 1.061 0 1.922.25 2.562.76.641.511 1.031 1.221 1.141 2.152h-1.841c-.05-.43-.24-.76-.571-1.001-.33-.23-.77-.35-1.311-.35s-.961.11-1.251.32-.44.501-.44.851c0 .23.08.43.25.611.16.18.41.33.731.45.32.12.72.23 1.191.33q1.003.196 1.811.481c.531.19.961.47 1.271.84.321.371.471.891.471 1.582.01.6-.14 1.121-.451 1.581-.31.461-.75.811-1.311 1.061s-1.231.38-2.002.38z"/><path fill="#000" d="M175.913 144.435c-.601 0-1.111-.1-1.562-.29-.44-.19-.79-.51-1.031-.951q-.36-.66-.36-1.801v-4.925h-1.651v-1.621h1.651l.23-2.392h1.672v2.392h2.722v1.621h-2.722v4.945c0 .54.11.92.34 1.111.23.2.621.29 1.181.29h1.101v1.621h-1.581z"/><path fill="#000" d="M183.749 144.666q-1.365 0-2.432-.631a4.4 4.4 0 0 1-1.661-1.751c-.4-.751-.601-1.622-.601-2.603s.201-1.901.601-2.652q.598-1.126 1.661-1.772c.711-.42 1.532-.64 2.472-.64.941 0 1.742.21 2.413.63a4.37 4.37 0 0 1 1.561 1.662c.37.69.55 1.451.55 2.292v.41c0 .15-.02.31-.03.481h-7.836v-1.352h5.975c-.04-.8-.301-1.421-.801-1.871-.49-.451-1.111-.671-1.842-.671-.52 0-.99.12-1.431.351-.44.23-.78.58-1.041 1.03q-.39.678-.39 1.702v.53q0 1.067.39 1.802c.261.49.601.851 1.041 1.101.441.25.901.37 1.411.37.611 0 1.111-.13 1.502-.4q.585-.405.87-1.081h1.902c-.16.58-.44 1.111-.841 1.571-.39.461-.88.831-1.451 1.091-.58.27-1.241.401-1.992.401"/><path fill="#000" d="M190.425 144.435v-9.588h1.712l.17 1.802c.22-.431.49-.791.841-1.091.34-.301.74-.531 1.211-.691.46-.16.991-.25 1.591-.25v2.012h-.68c-.391 0-.771.05-1.121.14-.351.09-.671.26-.941.48-.271.23-.481.541-.641.931s-.23.881-.23 1.461v4.774h-1.902z"/><path fill="#000" d="M206.259 144.665c-.811 0-1.521-.13-2.132-.4-.61-.27-1.091-.641-1.441-1.121a3.55 3.55 0 0 1-.651-1.691h1.942c.06.3.19.58.37.84.18.251.441.461.761.611s.711.23 1.151.23c.42 0 .761-.06 1.041-.18.27-.12.47-.28.6-.491s.191-.43.191-.67c0-.35-.091-.621-.261-.811s-.42-.33-.76-.44a9 9 0 0 0-1.211-.29 11 11 0 0 1-1.282-.311c-.41-.13-.78-.3-1.1-.5a2.36 2.36 0 0 1-.771-.771c-.19-.31-.28-.69-.28-1.151 0-.54.15-1.041.44-1.471.29-.441.711-.781 1.241-1.031s1.171-.37 1.912-.37c1.061 0 1.921.25 2.562.76.64.511 1.031 1.221 1.141 2.152h-1.842c-.05-.43-.24-.76-.57-1.001-.33-.23-.771-.35-1.311-.35-.541 0-.961.11-1.251.32a1.01 1.01 0 0 0-.441.851c0 .23.08.43.25.611.161.18.411.33.731.45s.721.23 1.191.33c.671.13 1.271.291 1.812.481.53.19.961.47 1.271.84.32.371.47.891.47 1.582.01.6-.14 1.121-.45 1.581-.31.461-.751.811-1.311 1.061-.561.25-1.231.38-2.002.38z"/><path fill="#000" d="M216.648 144.666c-.901 0-1.711-.211-2.422-.631a4.4 4.4 0 0 1-1.692-1.761c-.41-.751-.62-1.622-.62-2.613s.21-1.901.63-2.652a4.6 4.6 0 0 1 1.712-1.762q1.081-.63 2.432-.63c.901 0 1.722.21 2.432.63a4.5 4.5 0 0 1 1.682 1.752c.41.751.62 1.631.62 2.642s-.21 1.892-.62 2.643a4.5 4.5 0 0 1-1.702 1.751c-.72.42-1.541.631-2.452.631m0-1.632c.521 0 .991-.13 1.421-.38.421-.25.771-.631 1.031-1.131.26-.501.391-1.121.391-1.872 0-.75-.131-1.371-.381-1.871-.25-.501-.59-.881-1.021-1.131a2.7 2.7 0 0 0-1.401-.381c-.51 0-.981.13-1.411.381-.43.25-.781.63-1.041 1.131-.26.5-.39 1.121-.39 1.871 0 .751.13 1.371.39 1.872.26.5.6.881 1.031 1.131.42.25.881.38 1.381.38"/><path fill="#000" d="M228.088 144.666c-.921 0-1.752-.211-2.472-.641a4.5 4.5 0 0 1-1.702-1.762c-.41-.75-.62-1.621-.62-2.602s.21-1.881.62-2.632a4.6 4.6 0 0 1 1.702-1.772c.72-.42 1.551-.64 2.472-.64 1.171 0 2.142.3 2.932.911.791.61 1.292 1.431 1.502 2.472h-1.982c-.13-.561-.42-.991-.861-1.291-.45-.301-.991-.461-1.611-.461q-.766 0-1.411.391c-.431.26-.781.64-1.041 1.141-.261.5-.391 1.121-.391 1.851 0 .541.08 1.031.231 1.451.15.421.36.781.62 1.071q.39.436.901.661c.34.15.701.22 1.081.22.42 0 .791-.07 1.131-.2s.62-.33.851-.601.4-.58.48-.95h1.982c-.22 1.011-.721 1.831-1.502 2.442-.79.61-1.761.921-2.932.921z"/><path fill="#000" d="M234.744 144.435v-13.692h1.901v13.692zm6.035 0-4.414-5.244 3.994-4.334h2.302l-4.754 5.074V138.5l5.264 5.935z"/><path fill="#000" d="M248.386 144.666q-1.367 0-2.432-.631a4.4 4.4 0 0 1-1.662-1.751c-.4-.751-.6-1.622-.6-2.603s.2-1.901.6-2.652.951-1.341 1.662-1.772c.71-.42 1.531-.64 2.472-.64.94 0 1.741.21 2.412.63a4.37 4.37 0 0 1 1.561 1.662c.37.69.551 1.451.551 2.292v.41c0 .15-.02.31-.03.481h-7.837v-1.352h5.975c-.04-.8-.3-1.421-.801-1.871-.49-.451-1.111-.671-1.841-.671-.521 0-.991.12-1.432.351s-.78.58-1.041 1.03q-.39.678-.39 1.702v.53q0 1.067.39 1.802c.261.49.601.851 1.041 1.101.441.25.901.37 1.412.37.61 0 1.111-.13 1.501-.4q.585-.405.871-1.081h1.901c-.16.58-.44 1.111-.84 1.571a4.14 4.14 0 0 1-1.452 1.091c-.58.27-1.241.401-1.991.401"/><path fill="#000" d="M258.725 144.435c-.601 0-1.111-.1-1.562-.29-.44-.19-.791-.51-1.031-.951q-.36-.66-.36-1.801v-4.925h-1.651v-1.621h1.651l.23-2.392h1.672v2.392h2.722v1.621h-2.722v4.945c0 .54.11.92.34 1.111.23.2.62.29 1.181.29h1.101v1.621h-1.582z"/><path fill="#000" d="M306.726 277.46v-13.311h4.084c1.541 0 2.822.27 3.843.82q1.517.812 2.252 2.312c.49.991.731 2.172.731 3.544s-.241 2.552-.731 3.533c-.49.99-1.231 1.751-2.242 2.292s-2.292.81-3.853.81zm1.902-1.591h2.112c1.231 0 2.202-.2 2.932-.611.721-.41 1.241-.98 1.552-1.741.31-.751.47-1.652.47-2.692s-.16-1.962-.47-2.723a3.48 3.48 0 0 0-1.552-1.751c-.72-.411-1.701-.611-2.932-.611h-2.112z"/><path fill="#000" d="M324.281 277.691c-.98 0-1.831-.171-2.562-.521q-1.096-.526-1.711-1.471c-.411-.631-.611-1.371-.611-2.222h2.002c.01.48.13.921.35 1.321s.541.721.971.951c.42.24.951.35 1.571.35q.796 0 1.382-.27c.39-.18.68-.42.88-.731.201-.31.301-.67.301-1.071 0-.47-.11-.86-.321-1.161-.21-.3-.5-.55-.86-.75a7 7 0 0 0-1.252-.521c-.47-.15-.97-.32-1.491-.49-1.051-.34-1.831-.791-2.352-1.331-.51-.541-.771-1.251-.771-2.132 0-.751.181-1.401.531-1.952s.851-.981 1.491-1.291 1.401-.46 2.272-.46 1.622.16 2.262.47c.641.31 1.151.751 1.521 1.311.371.561.551 1.211.551 1.962h-2.012a2.1 2.1 0 0 0-.27-1.011 2.07 2.07 0 0 0-.801-.811c-.36-.21-.79-.31-1.311-.31-.43-.01-.821.06-1.161.21s-.61.371-.801.671c-.19.29-.29.64-.29 1.041s.09.73.26.981c.171.25.421.46.751.64q.493.27 1.151.48c.44.151.921.311 1.451.481.661.22 1.241.48 1.762.791.51.31.921.71 1.221 1.201q.45.733.45 1.871c0 .661-.17 1.271-.51 1.842-.34.57-.851 1.041-1.521 1.401-.671.36-1.512.541-2.513.541z"/><path fill="#000" d="M331.087 277.46v-13.311h1.902v11.81h6.085v1.501z"/><path fill="#000" d="M350.504 277.691c-.921 0-1.751-.21-2.472-.641a4.56 4.56 0 0 1-1.701-1.761c-.411-.751-.621-1.612-.621-2.603 0-.99.21-1.881.621-2.632.41-.751.98-1.341 1.701-1.771.721-.421 1.551-.641 2.472-.641 1.171 0 2.142.3 2.933.911.79.61 1.291 1.431 1.501 2.472h-1.982c-.13-.561-.42-.991-.86-1.291-.451-.3-.991-.461-1.612-.461q-.765 0-1.411.391c-.43.26-.781.64-1.041 1.141-.26.5-.39 1.121-.39 1.851 0 .541.08 1.031.23 1.452.15.42.36.78.62 1.071q.391.435.901.66c.341.15.701.22 1.081.22.421 0 .791-.07 1.131-.2s.621-.33.851-.6c.23-.271.4-.581.48-.951h1.982c-.22 1.011-.721 1.831-1.501 2.442-.791.61-1.762.921-2.933.921z"/><path fill="#000" d="M360.333 277.69c-.791 0-1.441-.13-1.962-.4s-.911-.62-1.161-1.071-.38-.931-.38-1.451c0-.631.16-1.171.49-1.621.33-.451.801-.791 1.411-1.041q.917-.361 2.192-.361h2.492c0-.56-.08-1.021-.25-1.391a1.8 1.8 0 0 0-.73-.831c-.321-.18-.731-.28-1.231-.28-.571 0-1.061.14-1.462.411-.4.27-.66.67-.76 1.211h-1.902c.08-.671.31-1.242.691-1.722.39-.47.88-.841 1.491-1.101.61-.26 1.251-.39 1.942-.39.9 0 1.651.16 2.262.47.61.32 1.07.761 1.381 1.341.31.581.47 1.261.47 2.062v5.935h-1.651l-.15-1.621c-.141.25-.301.49-.491.721s-.42.42-.67.59a3.5 3.5 0 0 1-.891.39c-.34.09-.711.14-1.111.14zm.36-1.541c.41 0 .771-.08 1.101-.25s.611-.39.851-.671c.24-.28.41-.61.53-.971.12-.36.19-.73.2-1.11v-.061h-2.262c-.54 0-.99.071-1.321.201-.34.13-.58.31-.73.54s-.23.491-.23.801.07.59.22.811c.15.22.36.4.64.52.28.13.611.19 1.011.19z"/><path fill="#000" d="M372.974 277.691a4.3 4.3 0 0 1-1.422-.221 3.7 3.7 0 0 1-1.911-1.471l-.19 1.461h-1.712v-13.691h1.902v5.604c.3-.48.73-.89 1.281-1.221.55-.34 1.231-.5 2.042-.5.91 0 1.721.22 2.412.66a4.4 4.4 0 0 1 1.621 1.792c.391.751.581 1.621.581 2.592s-.19 1.802-.581 2.562a4.46 4.46 0 0 1-1.621 1.792c-.701.43-1.502.651-2.412.651zm-.301-1.652q.874 0 1.552-.42c.45-.28.8-.671 1.061-1.181q.39-.766.39-1.772c0-.67-.13-1.261-.39-1.761a3.04 3.04 0 0 0-1.061-1.181 2.9 2.9 0 0 0-1.552-.431c-.58 0-1.121.14-1.571.431-.45.29-.801.68-1.051 1.181-.25.5-.38 1.091-.38 1.761 0 .671.13 1.261.38 1.772q.376.763 1.051 1.181.673.42 1.571.42"/><path fill="#000" d="M379.82 277.46v-13.691h1.901v13.691z"/><path fill="#000" d="M388.667 277.691q-1.365 0-2.432-.631a4.4 4.4 0 0 1-1.661-1.751c-.401-.751-.601-1.622-.601-2.603 0-.98.2-1.901.601-2.652q.598-1.126 1.661-1.771c.711-.421 1.532-.641 2.472-.641.941 0 1.742.21 2.412.631.671.42 1.191.97 1.562 1.661.37.691.55 1.451.55 2.292v.41c0 .15-.02.311-.03.481h-7.837v-1.351h5.976c-.04-.801-.301-1.422-.801-1.872-.491-.45-1.111-.671-1.842-.671-.52 0-.991.12-1.431.351s-.781.58-1.041 1.031-.39 1.02-.39 1.701v.531q0 1.065.39 1.801c.26.49.601.861 1.041 1.101.43.25.901.37 1.411.37.611 0 1.111-.13 1.502-.4q.585-.405.87-1.081h1.902a4 4 0 0 1-.841 1.571c-.39.461-.88.831-1.451 1.091-.58.271-1.241.401-1.992.401"/><path fill="#000" d="M572.957 277.46v-13.311h4.544c1.061 0 1.942.18 2.623.53.68.351 1.191.831 1.521 1.421s.49 1.272.49 2.032c0 .761-.16 1.381-.48 1.992-.32.6-.831 1.081-1.511 1.441q-1.022.54-2.643.541h-2.642v5.344h-1.902zm1.902-6.916h2.562c1.001 0 1.712-.22 2.142-.66.42-.441.641-1.021.641-1.742 0-.77-.211-1.371-.641-1.791-.43-.421-1.141-.631-2.142-.631h-2.562z"/><path fill="#000" d="M587.94 277.691c-.9 0-1.711-.21-2.422-.631a4.4 4.4 0 0 1-1.691-1.761c-.411-.761-.621-1.622-.621-2.613s.21-1.901.631-2.652a4.6 4.6 0 0 1 1.711-1.761q1.082-.631 2.432-.631c.901 0 1.722.21 2.432.631.711.42 1.272 1 1.682 1.751s.62 1.631.62 2.642-.21 1.892-.62 2.643a4.47 4.47 0 0 1-1.702 1.751c-.72.421-1.541.631-2.452.631m0-1.632c.521 0 .991-.13 1.422-.38.42-.25.77-.631 1.03-1.131.261-.5.391-1.121.391-1.872 0-.75-.13-1.371-.381-1.871-.25-.501-.59-.881-1.02-1.131a2.7 2.7 0 0 0-1.402-.381c-.51 0-.98.131-1.411.381-.43.25-.781.63-1.041 1.131q-.39.748-.39 1.871c0 .751.13 1.372.39 1.872s.601.881 1.031 1.131c.421.25.881.38 1.381.38"/><path fill="#000" d="m596.558 277.461-2.813-9.589h1.882l2.092 7.987-.36-.02 2.322-7.967h2.131l2.322 7.967-.36.02 2.072-7.987h1.922l-2.813 9.589h-1.962l-2.432-8.308h.381l-2.433 8.308z"/><path fill="#000" d="M613.463 277.691q-1.366 0-2.433-.631a4.4 4.4 0 0 1-1.661-1.751c-.4-.751-.601-1.622-.601-2.603 0-.98.201-1.901.601-2.652s.951-1.341 1.661-1.771c.711-.421 1.532-.641 2.473-.641s1.741.21 2.412.631c.67.42 1.191.97 1.561 1.661s.55 1.451.55 2.292v.41c0 .15-.019.311-.029.481h-7.837v-1.351h5.975c-.04-.801-.3-1.422-.801-1.872-.49-.45-1.111-.671-1.841-.671-.521 0-.991.12-1.432.351s-.78.58-1.041 1.031-.39 1.02-.39 1.701v.531q0 1.065.39 1.801c.261.49.601.861 1.041 1.101.431.25.901.37 1.412.37.61 0 1.111-.13 1.501-.4q.585-.405.871-1.081h1.901a4 4 0 0 1-.84 1.571 4.14 4.14 0 0 1-1.452 1.091c-.58.271-1.241.401-1.991.401"/><path fill="#000" d="M620.138 277.46v-9.588h1.712l.17 1.812c.22-.431.49-.791.841-1.091.34-.301.74-.531 1.211-.691.47-.16.991-.25 1.591-.25v2.012h-.68c-.391 0-.771.05-1.121.14-.351.09-.671.26-.941.48q-.403.346-.641.931c-.16.39-.23.881-.23 1.461v4.774h-1.902z"/><path fill="#000" d="M635.972 277.691c-.811 0-1.521-.131-2.132-.401-.61-.27-1.091-.64-1.441-1.121a3.55 3.55 0 0 1-.651-1.691h1.942c.06.3.19.58.37.84.181.251.441.461.761.611s.711.23 1.151.23c.42 0 .761-.06 1.041-.18.27-.12.47-.29.6-.49.131-.201.191-.431.191-.671 0-.35-.09-.621-.261-.811-.17-.19-.42-.33-.76-.44a9 9 0 0 0-1.211-.29c-.441-.08-.871-.18-1.281-.311-.411-.13-.781-.3-1.101-.5-.321-.2-.581-.46-.771-.771-.19-.31-.28-.69-.28-1.151 0-.54.15-1.041.44-1.471.29-.44.711-.781 1.241-1.031s1.171-.37 1.912-.37c1.061 0 1.921.25 2.562.76.651.511 1.031 1.222 1.141 2.152h-1.842c-.05-.43-.24-.76-.57-1.001-.33-.23-.771-.35-1.311-.35-.541 0-.961.11-1.251.32-.291.221-.441.501-.441.861 0 .23.08.431.251.611.16.18.41.33.73.45s.721.23 1.191.33c.671.131 1.271.291 1.812.471.53.19.961.47 1.271.841.32.37.47.89.47 1.581.01.6-.14 1.121-.45 1.581-.31.461-.751.811-1.311 1.061-.561.25-1.231.381-2.002.381z"/><path fill="#000" d="M645.5 277.691c-.75 0-1.401-.15-1.951-.461-.551-.3-.981-.76-1.271-1.371-.301-.61-.451-1.371-.451-2.302v-5.685h1.902v5.475c0 .901.2 1.581.59 2.032.391.46.961.68 1.692.68.49 0 .941-.12 1.341-.36s.711-.591.941-1.041.34-1.011.34-1.671v-5.115h1.902v9.589h-1.692l-.13-1.632a3.3 3.3 0 0 1-1.271 1.371c-.56.331-1.201.491-1.942.491"/><path fill="#000" d="M653.147 281.644v-13.772h1.712l.19 1.481c.2-.29.46-.57.76-.83a3.9 3.9 0 0 1 1.091-.641c.421-.17.921-.25 1.492-.25.91 0 1.711.22 2.402.67a4.63 4.63 0 0 1 1.621 1.802c.39.751.581 1.611.581 2.572s-.201 1.822-.591 2.572a4.5 4.5 0 0 1-1.621 1.782c-.691.43-1.492.65-2.402.65q-1.127 0-1.982-.45a3.4 3.4 0 0 1-1.351-1.251v5.645h-1.902zm4.924-5.605q.874 0 1.552-.42c.45-.281.8-.671 1.061-1.181q.39-.766.39-1.772c0-.67-.13-1.261-.39-1.761a3.04 3.04 0 0 0-1.061-1.181 2.9 2.9 0 0 0-1.552-.431c-.58 0-1.121.14-1.571.431-.45.29-.801.68-1.051 1.181-.25.5-.38 1.091-.38 1.761 0 .671.13 1.261.38 1.772.25.51.601.9 1.051 1.181.45.28.971.42 1.571.42"/><path fill="#000" d="M665.227 281.644v-13.772h1.712l.19 1.481c.2-.29.46-.57.761-.83.3-.261.67-.471 1.091-.641s.92-.25 1.491-.25c.911 0 1.711.22 2.402.67a4.6 4.6 0 0 1 1.621 1.802c.391.751.581 1.611.581 2.572s-.2 1.822-.591 2.572a4.5 4.5 0 0 1-1.621 1.782c-.691.43-1.491.65-2.402.65q-1.126 0-1.982-.45a3.4 3.4 0 0 1-1.351-1.251v5.645h-1.902zm4.925-5.605c.58 0 1.101-.14 1.551-.42.45-.281.801-.671 1.061-1.181q.39-.766.39-1.772c0-.67-.13-1.261-.39-1.761a3.03 3.03 0 0 0-1.061-1.181 2.9 2.9 0 0 0-1.551-.431c-.581 0-1.121.14-1.572.431-.45.29-.8.68-1.051 1.181-.25.5-.38 1.091-.38 1.761 0 .671.13 1.261.38 1.772.251.51.601.9 1.051 1.181.451.28.971.42 1.572.42"/><path fill="#000" d="M677.298 277.46v-13.691h1.902v13.691z"/><path fill="#000" d="m682.913 281.644 2.342-5.245h-.551l-3.783-8.517h2.052l3.003 6.956 3.022-6.956H691l-6.085 13.772h-2.002z"/><path fill="#000" d="m395.173 233.813-3.613-13.312h2.032l2.702 11.09 3.103-11.09h2.112l3.002 11.12 2.742-11.12h2.032l-3.673 13.312h-2.222l-2.982-10.589-3.063 10.589z"/><path fill="#000" d="M412.178 222.423c-.371 0-.671-.11-.901-.34a1.2 1.2 0 0 1-.35-.871c0-.35.12-.621.35-.851q.345-.33.901-.33c.37 0 .65.11.89.33q.361.328.361.851c0 .35-.12.65-.361.871-.24.23-.54.34-.89.34m-.971 11.39v-9.589h1.901v9.589z"/><path fill="#000" d="M415.941 229.009v-1.602h7.687v1.602z"/><path fill="#000" d="M426.42 233.813v-13.312h8.267v1.562h-6.365v4.314h5.324v1.521h-5.324v5.915z"/><path fill="#000" d="M437.73 222.423c-.37 0-.671-.11-.901-.34a1.2 1.2 0 0 1-.35-.871c0-.35.12-.621.35-.851q.346-.33.901-.33c.37 0 .65.11.891.33q.36.328.36.851c0 .35-.12.65-.36.871-.241.23-.541.34-.891.34m-.971 11.39v-9.589h1.902v9.589z"/><path fill="#000" d="M446.347 233.813v-13.312h1.902v13.312zm1.582-6.005v-1.562h7.306v1.562zm6.886 6.005v-13.312h1.901v13.312z"/><path fill="#000" d="M462.912 234.043c-.751 0-1.402-.15-1.952-.46a2.97 2.97 0 0 1-1.271-1.372c-.3-.61-.45-1.371-.45-2.302v-5.685h1.901v5.475c0 .901.2 1.582.591 2.032.39.46.96.681 1.691.681.491 0 .941-.121 1.341-.361.401-.24.711-.59.941-1.041s.34-1.011.34-1.671v-5.115h1.902v9.589h-1.691l-.131-1.632a3.3 3.3 0 0 1-1.271 1.372c-.56.33-1.201.49-1.941.49"/><path fill="#000" d="M475.783 234.043c-.521 0-.991-.07-1.421-.22a3.7 3.7 0 0 1-1.912-1.472l-.19 1.462h-1.712v-13.692h1.902v5.605c.3-.481.731-.891 1.281-1.231.551-.341 1.231-.501 2.042-.501.911 0 1.721.22 2.412.661a4.4 4.4 0 0 1 1.621 1.791c.391.751.581 1.622.581 2.593s-.19 1.811-.581 2.562c-.39.76-.93 1.361-1.621 1.791-.701.431-1.501.651-2.412.651zm-.3-1.652c.58 0 1.101-.14 1.551-.42s.801-.671 1.061-1.181q.39-.765.39-1.771c0-.671-.13-1.262-.39-1.762s-.611-.891-1.061-1.181a2.9 2.9 0 0 0-1.551-.43c-.581 0-1.121.14-1.572.43q-.675.433-1.051 1.181c-.25.5-.38 1.091-.38 1.762 0 .67.13 1.261.38 1.771q.376.763 1.051 1.181c.451.28.971.42 1.572.42"/><path fill="#000" d="M487.593 233.813v-13.312h4.544c1.061 0 1.942.181 2.622.531.681.35 1.191.831 1.522 1.431s.49 1.271.49 2.032-.16 1.381-.48 1.992c-.321.6-.831 1.081-1.512 1.441q-1.02.54-2.642.54h-2.642v5.345zm1.902-6.916h2.562c1.001 0 1.712-.22 2.142-.661.43-.44.64-1.02.64-1.741 0-.771-.21-1.371-.64-1.792-.43-.42-1.141-.63-2.142-.63h-2.562z"/><path fill="#000" d="M498.743 233.813v-9.588h1.712l.17 1.811a3.5 3.5 0 0 1 2.051-1.781c.461-.16.991-.25 1.592-.25v2.011h-.681c-.39 0-.77.05-1.121.14-.35.09-.67.261-.941.481-.27.23-.48.54-.64.931-.16.39-.23.88-.23 1.461v4.774h-1.902z"/><path fill="#000" d="M510.073 234.043c-.901 0-1.712-.21-2.422-.631-.721-.42-1.282-1-1.692-1.761-.41-.751-.62-1.621-.62-2.612s.21-1.902.63-2.653a4.6 4.6 0 0 1 1.712-1.761q1.08-.631 2.432-.631c.901 0 1.721.21 2.432.631a4.5 4.5 0 0 1 1.681 1.751c.411.751.621 1.632.621 2.643s-.21 1.891-.621 2.642a4.47 4.47 0 0 1-1.701 1.751c-.721.421-1.542.631-2.452.631m0-1.631c.52 0 .991-.131 1.421-.381.42-.25.771-.63 1.031-1.131q.39-.748.39-1.871c0-.751-.13-1.372-.38-1.872s-.591-.881-1.021-1.131c-.42-.25-.891-.38-1.401-.38-.511 0-.981.13-1.412.38s-.78.631-1.04 1.131c-.261.5-.391 1.121-.391 1.872q0 1.123.391 1.871c.26.501.6.881 1.03 1.131.421.25.881.381 1.382.381"/></svg>