<svg xmlns="http://www.w3.org/2000/svg" width="391" height="325" fill="none" viewBox="0 0 391 325"><path fill="#FFFBE8" d="M141.513 59.674h173.566v-24.91H141.513"/><path fill="#000" d="M315.079 61.177H141.513a1.5 1.5 0 0 1-1.503-1.503 1.5 1.5 0 0 1 1.503-1.503h172.063V36.267H141.513a1.5 1.5 0 0 1-1.503-1.503 1.5 1.5 0 0 1 1.503-1.503h173.566c.831 0 1.503.671 1.503 1.503v24.91c0 .831-.672 1.503-1.503 1.503"/><path fill="#FFFBE8" d="M389.497 31.909V19.885a4.943 4.943 0 0 0-4.94-4.94h-45.992L307.844 1.508V13.15l31.012 13.597V67.25"/><path fill="#000" d="M338.866 68.752a1.5 1.5 0 0 1-1.503-1.503V27.73l-30.11-13.206a1.5 1.5 0 0 1-.902-1.373V1.508c0-.511.261-.982.682-1.263a1.5 1.5 0 0 1 1.422-.12l30.431 13.307h45.671A6.45 6.45 0 0 1 391 19.875v12.024a1.5 1.5 0 0 1-1.503 1.503 1.5 1.5 0 0 1-1.503-1.503V19.875a3.44 3.44 0 0 0-3.437-3.437h-45.992c-.21 0-.41-.04-.601-.13L309.357 3.793v8.366l30.11 13.207a1.5 1.5 0 0 1 .902 1.372V67.24a1.5 1.5 0 0 1-1.503 1.503z"/><path fill="#FFB921" d="M385.299 67.76h-70.711a4.204 4.204 0 0 1-4.199-4.198V30.646a4.204 4.204 0 0 1 4.199-4.198h70.711a4.204 4.204 0 0 1 4.198 4.198v32.916a4.204 4.204 0 0 1-4.198 4.198"/><path fill="#000" d="M385.299 69.263h-70.711a5.705 5.705 0 0 1-5.702-5.701V30.646a5.705 5.705 0 0 1 5.702-5.701h70.711A5.704 5.704 0 0 1 391 30.646v32.916a5.704 5.704 0 0 1-5.701 5.701m-70.711-41.312a2.703 2.703 0 0 0-2.696 2.695v32.916a2.703 2.703 0 0 0 2.696 2.695h70.711a2.7 2.7 0 0 0 2.695-2.695V30.646a2.7 2.7 0 0 0-2.695-2.695z"/><path fill="#FFFBE8" d="M388.094 39.494h-22.875v15.22h22.875"/><path fill="#000" d="M388.094 56.217h-22.875a1.5 1.5 0 0 1-1.503-1.503v-15.23a1.5 1.5 0 0 1 1.503-1.503h22.875a1.5 1.5 0 0 1 1.503 1.503 1.5 1.5 0 0 1-1.503 1.503h-21.372V53.21h21.372a1.5 1.5 0 0 1 1.503 1.503 1.5 1.5 0 0 1-1.503 1.503"/><path fill="#FFFBE8" d="M141.512 35.155C64.188 35.155 1.503 97.84 1.503 175.164c0 77.325 62.685 140.01 140.009 140.01 77.325 0 140.01-62.685 140.01-140.01S218.837 35.155 141.512 35.155m0 255.119c-63.567 0-115.1-51.533-115.1-115.1s51.534-115.1 115.1-115.1c63.567 0 115.1 51.534 115.1 115.1 0 63.567-51.533 115.1-115.1 115.1"/><path fill="#000" d="M141.512 316.687C63.477 316.687 0 253.2 0 175.174 0 97.149 63.487 33.662 141.512 33.662S283.025 97.15 283.025 175.174s-63.487 141.513-141.513 141.513m0-280.029C65.14 36.658 3.006 98.792 3.006 175.164c0 76.373 62.134 138.507 138.506 138.507 76.373 0 138.507-62.134 138.507-138.507 0-76.372-62.134-138.506-138.507-138.506m0 255.119c-64.298 0-116.602-52.304-116.602-116.603S77.214 58.572 141.512 58.572c64.299 0 116.603 52.304 116.603 116.602 0 64.299-52.304 116.603-116.603 116.603m0-230.21c-62.635 0-113.596 50.962-113.596 113.597s50.961 113.597 113.596 113.597 113.597-50.962 113.597-113.597S204.147 61.568 141.512 61.568"/><path fill="#FFFBE8" d="M141.512 60.065c-63.566 0-115.1 51.532-115.1 115.099s51.534 115.1 115.1 115.1c63.567 0 115.1-51.533 115.1-115.1s-51.533-115.1-115.1-115.1m0 201.742c-47.845 0-86.632-38.787-86.632-86.633S93.667 88.54 141.512 88.54s86.633 38.788 86.633 86.633-38.787 86.633-86.633 86.633"/><path fill="#000" d="M141.512 291.777c-64.298 0-116.602-52.304-116.602-116.603S77.214 58.572 141.512 58.572c64.299 0 116.603 52.304 116.603 116.602 0 64.299-52.304 116.603-116.603 116.603m0-230.21c-62.634 0-113.596 50.962-113.596 113.597s50.962 113.597 113.596 113.597 113.597-50.962 113.597-113.597S204.147 61.568 141.512 61.568m0 201.743c-48.597 0-88.135-39.539-88.135-88.136s39.538-88.136 88.135-88.136 88.136 39.539 88.136 88.136-39.539 88.136-88.136 88.136m0-173.265c-46.943 0-85.13 38.186-85.13 85.129s38.187 85.13 85.13 85.13c46.944 0 85.13-38.186 85.13-85.13s-38.186-85.13-85.13-85.13"/><path fill="#FFFBE8" d="M141.513 315.184h173.566v-24.91H141.513"/><path fill="#000" d="M315.079 316.687H141.513a1.5 1.5 0 0 1-1.503-1.503 1.5 1.5 0 0 1 1.503-1.503h172.063v-21.904H141.513a1.5 1.5 0 0 1-1.503-1.503 1.5 1.5 0 0 1 1.503-1.503h173.566c.831 0 1.503.671 1.503 1.503v24.91c0 .831-.672 1.503-1.503 1.503"/><path fill="#FFFBE8" d="M389.497 287.418v-12.024a4.944 4.944 0 0 0-4.94-4.94h-45.992l-30.721-13.436v11.643l31.012 13.597v40.501"/><path fill="#000" d="M338.866 324.262a1.5 1.5 0 0 1-1.503-1.503V283.24l-30.11-13.206a1.5 1.5 0 0 1-.902-1.373v-11.643c0-.511.261-.982.682-1.263a1.5 1.5 0 0 1 1.422-.12l30.431 13.307h45.671c3.547 0 6.443 2.885 6.443 6.442v12.024a1.5 1.5 0 0 1-1.503 1.503 1.5 1.5 0 0 1-1.503-1.503v-12.024a3.44 3.44 0 0 0-3.437-3.436h-45.992c-.21 0-.41-.041-.601-.131l-28.607-12.515v8.367l30.11 13.206a1.5 1.5 0 0 1 .902 1.373v40.501a1.5 1.5 0 0 1-1.503 1.503z"/><path fill="#FFB921" d="M385.299 323.27h-70.711a4.204 4.204 0 0 1-4.199-4.198v-32.916a4.203 4.203 0 0 1 4.199-4.198h70.711a4.203 4.203 0 0 1 4.198 4.198v32.916a4.204 4.204 0 0 1-4.198 4.198"/><path fill="#000" d="M385.299 324.773h-70.711a5.705 5.705 0 0 1-5.702-5.701v-32.916a5.705 5.705 0 0 1 5.702-5.701h70.711a5.704 5.704 0 0 1 5.701 5.701v32.916a5.704 5.704 0 0 1-5.701 5.701m-70.711-41.312a2.703 2.703 0 0 0-2.696 2.695v32.916a2.703 2.703 0 0 0 2.696 2.695h70.711a2.7 2.7 0 0 0 2.695-2.695v-32.916a2.7 2.7 0 0 0-2.695-2.695z"/><path fill="#FFFBE8" d="M388.094 295.004h-22.875v15.22h22.875"/><path fill="#000" d="M388.094 311.727h-22.875a1.5 1.5 0 0 1-1.503-1.503v-15.23a1.5 1.5 0 0 1 1.503-1.503h22.875a1.5 1.5 0 0 1 1.503 1.503c0 .831-.671 1.503-1.503 1.503h-21.372v12.224h21.372a1.5 1.5 0 0 1 1.503 1.503 1.5 1.5 0 0 1-1.503 1.503"/></svg>