<svg xmlns="http://www.w3.org/2000/svg" width="221" height="320" fill="none" viewBox="0 0 221 320"><path fill="#191917" d="M178.264 125.16H163.86V66.503c0-26.456-20.29-49.249-46.706-50.55-28.237-1.391-51.66 21.18-51.66 49.128v40.27c0 .981-.791 1.771-1.772 1.771H51.09v-40.48c0-34.433 26.726-63.802 61.129-65.103 36.176-1.371 66.035 27.667 66.035 63.542v60.089z"/><path fill="#EBEBEB" d="M178.264 126.661H163.86a1.5 1.5 0 0 1-1.502-1.501V66.503c0-26.256-19.889-47.797-45.274-49.049-13.183-.65-25.705 4.004-35.254 13.093-9.57 9.11-14.835 21.371-14.835 34.534v40.269a3.28 3.28 0 0 1-3.273 3.274H51.09a1.5 1.5 0 0 1-1.502-1.502v-40.48c0-17.136 6.416-33.472 18.068-45.994C79.417 8.005 95.223.688 112.169.048c17.838-.671 34.754 5.775 47.627 18.167 12.873 12.402 19.97 29.049 19.97 46.876v60.089a1.5 1.5 0 0 1-1.502 1.501zm-12.893-3.003h11.402V65.071c0-17.006-6.767-32.882-19.049-44.704C145.452 8.546 129.316 2.39 112.3 3.04c-16.146.611-31.21 7.588-42.432 19.65-11.13 11.971-17.257 27.577-17.257 43.953v38.978h11.131c.15 0 .27-.12.27-.271V65.081c0-13.994 5.596-27.026 15.766-36.706 10.16-9.67 23.463-14.604 37.476-13.923 26.987 1.33 48.137 24.193 48.137 52.05v57.156z"/><path fill="#191917" d="M169.075 125.16h-14.404V66.503c0-26.456-20.29-49.249-46.706-50.55-28.237-1.391-51.66 21.18-51.66 49.128v42.041H43.673c-.981 0-1.772-.79-1.772-1.771V66.643c0-34.434 26.726-63.803 61.13-65.104 36.175-1.371 66.034 27.667 66.034 63.542v60.089z"/><path fill="#EBEBEB" d="M169.075 126.661h-14.404c-.831 0-1.501-.67-1.501-1.501V66.503c0-26.256-19.89-47.797-45.275-49.049-13.183-.65-25.705 4.004-35.254 13.093-9.57 9.11-14.835 21.371-14.835 34.534v42.041a1.5 1.5 0 0 1-1.501 1.502H43.673a3.28 3.28 0 0 1-3.274-3.274V66.643c0-17.137 6.417-33.473 18.068-45.995C70.228 8.005 86.034.688 102.98.048c17.848-.671 34.754 5.775 47.627 18.167 12.873 12.402 19.97 29.049 19.97 46.876v60.089a1.5 1.5 0 0 1-1.502 1.501zm-12.892-3.003h11.401V65.071c0-17.006-6.767-32.882-19.049-44.704C136.263 8.546 120.127 2.39 103.111 3.04c-16.146.611-31.21 7.588-42.432 19.65C49.55 34.66 43.422 50.267 43.422 66.643v38.707c0 .151.12.271.27.271h11.131v-40.54c0-13.994 5.596-27.026 15.766-36.706 10.16-9.67 23.463-14.604 37.476-13.923 26.987 1.33 48.138 24.193 48.138 52.05v57.156z"/><path fill="#191917" d="M208.974 125.16H35.424c-5.467 0-9.9 4.432-9.9 9.899v173.55c0 5.467 4.433 9.9 9.9 9.9h173.55c5.468 0 9.9-4.433 9.9-9.9v-173.55c0-5.467-4.432-9.899-9.9-9.899"/><path fill="#EBEBEB" d="M208.974 320H35.424c-6.285 0-11.4-5.115-11.4-11.401v-173.55c0-6.286 5.115-11.401 11.4-11.401h173.55c6.286 0 11.401 5.115 11.401 11.401v173.55c0 6.286-5.115 11.401-11.401 11.401M35.424 126.661c-4.624 0-8.398 3.764-8.398 8.398v173.55c0 4.624 3.764 8.398 8.399 8.398h173.549c4.625 0 8.398-3.764 8.398-8.398v-173.55c0-4.624-3.763-8.398-8.398-8.398z"/><path fill="#191917" d="M184.951 125.16H11.401c-5.467 0-9.9 4.432-9.9 9.899v173.55c0 5.467 4.433 9.9 9.9 9.9h173.55c5.467 0 9.899-4.433 9.899-9.9v-173.55c0-5.467-4.432-9.899-9.899-9.899"/><path fill="#EBEBEB" d="M184.951 320H11.401C5.115 320 0 314.885 0 308.599v-173.55c0-6.286 5.115-11.401 11.401-11.401h173.55c6.286 0 11.401 5.115 11.401 11.401v173.55c0 6.286-5.115 11.401-11.401 11.401M11.401 126.661c-4.624 0-8.398 3.764-8.398 8.398v173.55c0 4.624 3.764 8.398 8.398 8.398h173.55c4.624 0 8.398-3.764 8.398-8.398v-173.55c0-4.624-3.764-8.398-8.398-8.398z"/><path fill="#191917" d="M96.474 248.87c-5.965.421-10.5 5.105-10.49 11.091.02 6.807 5.496 11.632 12.452 11.151 6.006-.42 10.531-5.165 10.531-11.191 0-6.836-5.506-11.541-12.493-11.041z"/><path fill="#EBEBEB" d="M97.476 272.634c-3.474 0-6.647-1.201-9.05-3.424-2.532-2.352-3.923-5.635-3.933-9.249-.02-6.696 5.085-12.101 11.881-12.592 3.954-.28 7.588.921 10.24 3.393 2.493 2.323 3.864 5.566 3.864 9.149 0 6.757-5.125 12.212-11.931 12.693-.36.03-.721.04-1.072.04zm.01-22.302q-.45 0-.901.03c-5.195.37-9.11 4.494-9.09 9.589 0 2.773 1.072 5.286 2.984 7.067 2.032 1.882 4.814 2.803 7.867 2.593 5.205-.361 9.139-4.535 9.139-9.69 0-2.742-1.031-5.215-2.903-6.956-1.831-1.712-4.324-2.623-7.076-2.623z"/><path fill="#191917" d="M98.867 172.526c-20.96 0-33.283 14.114-34.284 31.371-.07 1.251.971 2.282 2.222 2.282H82.21c1.182 0 2.103-.941 2.203-2.112.76-8.939 6.366-14.785 14.594-14.785 7.758 0 12.742 4.575 12.742 11.221 0 5.536-2.912 9.56-9.279 13.574-8.718 5.115-14.684 9.689-14.684 21.19v3.944c0 .641.51 1.151 1.151 1.151h15.986c.64 0 1.151-.51 1.151-1.151v-1.872c0-5.955 3.734-9.279 11.351-14.404 7.607-5.265 14.404-10.94 14.404-24.233 0-15.235-12.462-26.186-32.962-26.186z"/><path fill="#EBEBEB" d="M104.923 241.864H88.937a2.657 2.657 0 0 1-2.652-2.653v-3.944c0-12.432 6.686-17.347 15.425-22.482 6.056-3.813 8.538-7.377 8.538-12.282 0-5.905-4.414-9.719-11.241-9.719-7.377 0-12.392 5.135-13.103 13.413-.17 1.992-1.761 3.493-3.703 3.493H66.796a3.73 3.73 0 0 1-2.723-1.181 3.58 3.58 0 0 1-.991-2.692c1.131-19.61 15.515-32.792 35.785-32.792s34.464 11.13 34.464 27.687c0 13.903-7.117 19.979-15.045 25.465-7.558 5.074-10.711 8.017-10.711 13.162v1.802c0 1.522-1.191 2.713-2.652 2.713zm-15.636-3.003h15.285v-1.522c0-7.047 4.755-10.77 12.022-15.645 7.508-5.195 13.734-10.52 13.734-22.982 0-14.995-12.352-24.684-31.461-24.684-15.455 0-31.591 9.259-32.782 29.959-.01.21.09.37.18.46.14.15.34.24.54.24h15.406c.42 0 .68-.37.71-.74.831-9.82 7.147-16.166 16.086-16.166s14.244 5.115 14.244 12.722c0 5.996-2.983 10.441-9.98 14.845-8.458 4.975-13.984 9.029-13.984 19.919z"/></svg>