<svg xmlns="http://www.w3.org/2000/svg" width="435" height="341" fill="none" viewBox="0 0 435 341"><path fill="#191917" d="M433.146 1.5H156.417v338h276.729z"/><path fill="#EBEBEB" d="M433.146 341H156.417c-.83 0-1.5-.671-1.5-1.501V1.5c0-.83.67-1.5 1.5-1.5h276.729c.83 0 1.5.67 1.5 1.5v338c0 .83-.67 1.501-1.5 1.501M157.917 338h273.728V3.001H157.917z"/><path fill="#191917" d="M156.437 339.489h154.917V1.5H156.437z"/><path fill="#EBEBEB" d="M311.354 340.99H156.437c-.83 0-1.5-.671-1.5-1.501V1.5c0-.83.67-1.5 1.5-1.5h154.917c.83 0 1.501.67 1.501 1.5v337.99a1.5 1.5 0 0 1-1.501 1.501m-153.427-3.001h151.917V3.001H157.927z"/><path fill="#191917" d="M285.53 205.666h-33.836v74.633h33.836z"/><path fill="#EBEBEB" d="M285.53 281.799h-33.836c-.83 0-1.5-.67-1.5-1.5v-74.633c0-.83.67-1.5 1.5-1.5h33.836c.83 0 1.5.67 1.5 1.5v74.633c0 .83-.67 1.5-1.5 1.5m-32.336-3h30.836v-71.633h-30.836z"/><path fill="#191917" d="M217.368 205.666h-33.836v74.633h33.836z"/><path fill="#EBEBEB" d="M217.368 281.799h-33.836c-.83 0-1.5-.67-1.5-1.5v-74.633c0-.83.67-1.5 1.5-1.5h33.836c.83 0 1.5.67 1.5 1.5v74.633c0 .83-.67 1.5-1.5 1.5m-32.336-3h30.836v-71.633h-30.836z"/><path fill="#191917" d="M285.53 112.739h-33.836v74.633h33.836z"/><path fill="#EBEBEB" d="M285.53 188.873h-33.836c-.83 0-1.5-.67-1.5-1.501v-74.633c0-.83.67-1.5 1.5-1.5h33.836c.83 0 1.5.67 1.5 1.5v74.633c0 .831-.67 1.501-1.5 1.501m-32.336-3.001h30.836V114.24h-30.836z"/><path fill="#191917" d="M217.368 112.739h-33.836v74.633h33.836z"/><path fill="#EBEBEB" d="M217.368 188.873h-33.836c-.83 0-1.5-.67-1.5-1.501v-74.633c0-.83.67-1.5 1.5-1.5h33.836c.83 0 1.5.67 1.5 1.5v74.633c0 .831-.67 1.501-1.5 1.501m-32.336-3.001h30.836V114.24h-30.836z"/><path fill="#191917" d="M285.53 19.803h-33.836v74.633h33.836z"/><path fill="#EBEBEB" d="M285.53 95.937h-33.836c-.83 0-1.5-.67-1.5-1.5V19.802c0-.83.67-1.5 1.5-1.5h33.836c.83 0 1.5.67 1.5 1.5v74.633c0 .83-.67 1.5-1.5 1.5m-32.336-3.001h30.836V21.303h-30.836z"/><path fill="#191917" d="M389.168 112.739h-33.836v74.633h33.836z"/><path fill="#EBEBEB" d="M389.158 188.873h-33.836c-.83 0-1.5-.67-1.5-1.501v-74.633c0-.83.67-1.5 1.5-1.5h33.836c.83 0 1.5.67 1.5 1.5v74.633c0 .831-.67 1.501-1.5 1.501m-32.326-3.001h30.836V114.24h-30.836z"/><path fill="#191917" d="M389.168 19.803h-33.836v74.633h33.836z"/><path fill="#EBEBEB" d="M389.158 95.937h-33.836c-.83 0-1.5-.67-1.5-1.5V19.802c0-.83.67-1.5 1.5-1.5h33.836c.83 0 1.5.67 1.5 1.5v74.633c0 .83-.67 1.5-1.5 1.5m-32.326-3.001h30.836V21.303h-30.836z"/><path fill="#191917" d="M217.368 19.803h-33.836v74.633h33.836z"/><path fill="#EBEBEB" d="M217.368 95.937h-33.836c-.83 0-1.5-.67-1.5-1.5V19.802c0-.83.67-1.5 1.5-1.5h33.836c.83 0 1.5.67 1.5 1.5v74.633c0 .83-.67 1.5-1.5 1.5m-32.336-3.001h30.836V21.303h-30.836z"/><path fill="#191917" d="M407.401 206.256h-70.302v133.103h70.302z"/><path fill="#EBEBEB" d="M407.401 340.85h-70.302c-.83 0-1.5-.671-1.5-1.501V206.246c0-.83.67-1.5 1.5-1.5h70.302c.83 0 1.5.67 1.5 1.5v133.103c0 .83-.67 1.501-1.5 1.501m-68.802-3.001h67.302V207.746h-67.302z"/><path fill="#191917" d="M386.938 267.557h-29.376v10.501h29.376z"/><path fill="#EBEBEB" d="M386.928 279.559h-29.376c-.83 0-1.5-.671-1.5-1.501v-10.501c0-.831.67-1.501 1.5-1.501h29.376c.83 0 1.5.67 1.5 1.501v10.501c0 .83-.67 1.501-1.5 1.501m-27.865-3.001h26.374v-7.501h-26.374z"/><path fill="#191917" d="M1.5 339.489h154.917V94.436H1.5z"/><path fill="#EBEBEB" d="M156.417 340.989H1.5c-.83 0-1.5-.67-1.5-1.5V94.436c0-.83.67-1.5 1.5-1.5h154.917c.83 0 1.501.67 1.501 1.5V339.49c0 .83-.671 1.5-1.501 1.5m-153.426-3h151.916V95.937H2.991z"/><path fill="#191917" d="M130.603 205.666H96.767v74.633h33.836z"/><path fill="#EBEBEB" d="M130.593 281.799H96.757c-.83 0-1.5-.67-1.5-1.5v-74.633c0-.83.67-1.5 1.5-1.5h33.836c.83 0 1.5.67 1.5 1.5v74.633c0 .83-.67 1.5-1.5 1.5m-32.326-3h30.836v-71.633H98.267z"/><path fill="#191917" d="M62.431 205.666H28.595v74.633h33.836z"/><path fill="#EBEBEB" d="M62.431 281.799H28.595c-.83 0-1.5-.67-1.5-1.5v-74.633c0-.83.67-1.5 1.5-1.5h33.836c.83 0 1.5.67 1.5 1.5v74.633c0 .83-.67 1.5-1.5 1.5m-32.336-3h30.836v-71.633H30.095z"/><path fill="#191917" d="M130.603 112.739H96.767v74.633h33.836z"/><path fill="#EBEBEB" d="M130.593 188.873H96.757c-.83 0-1.5-.67-1.5-1.501v-74.633c0-.83.67-1.5 1.5-1.5h33.836c.83 0 1.5.67 1.5 1.5v74.633c0 .831-.67 1.501-1.5 1.501m-32.326-3.001h30.836V114.24H98.267z"/><path fill="#191917" d="M62.431 112.739H28.595v74.633h33.836z"/><path fill="#EBEBEB" d="M62.431 188.873H28.595c-.83 0-1.5-.67-1.5-1.501v-74.633c0-.83.67-1.5 1.5-1.5h33.836c.83 0 1.5.67 1.5 1.5v74.633c0 .831-.67 1.501-1.5 1.501m-32.336-3.001h30.836V114.24H30.095z"/></svg>