<svg xmlns="http://www.w3.org/2000/svg" width="341" height="421" fill="none" viewBox="0 0 341 421"><path fill="#000" d="M267.683 421a1.5 1.5 0 0 1-1.503-1.503V1.503c0-.832.672-1.503 1.503-1.503a1.5 1.5 0 0 1 1.503 1.503v417.984a1.5 1.5 0 0 1-1.503 1.503z"/><path fill="#000" d="M339.152 421a1.5 1.5 0 0 1-1.502-1.503V1.503A1.5 1.5 0 0 1 339.152 0a1.5 1.5 0 0 1 1.503 1.503v417.984a1.5 1.5 0 0 1-1.503 1.503z"/><path fill="#000" d="M276.339 421a1.5 1.5 0 0 1-1.503-1.503V1.503A1.5 1.5 0 0 1 276.339 0c.831 0 1.503.671 1.503 1.503v417.984c0 .832-.672 1.503-1.503 1.503z"/><path fill="#000" d="M330.497 421a1.5 1.5 0 0 1-1.503-1.503V1.503A1.5 1.5 0 0 1 330.497 0a1.5 1.5 0 0 1 1.502 1.503v417.984a1.5 1.5 0 0 1-1.502 1.503z"/><path fill="#FFFBE8" d="M312.053 216.751h-17.281a.43.43 0 0 0-.431.431v58.205c0 .238.193.431.431.431h17.281a.43.43 0 0 0 .431-.431v-58.205a.43.43 0 0 0-.431-.431"/><path fill="#000" d="M312.053 277.321h-17.271a1.935 1.935 0 0 1-1.933-1.934v-58.195c0-1.072.871-1.933 1.933-1.933h17.271c1.072 0 1.934.871 1.934 1.933v58.195a1.935 1.935 0 0 1-1.934 1.934m-16.209-3.006h15.138v-56.061h-15.138z"/><path fill="#FFFBE8" d="M312.023 145.182h-17.221a.46.46 0 0 0-.461.461v58.145c0 .254.207.461.461.461h17.221a.46.46 0 0 0 .461-.461v-58.145a.46.46 0 0 0-.461-.461"/><path fill="#000" d="M312.023 205.751h-17.211a1.966 1.966 0 0 1-1.963-1.963v-58.135c0-1.082.881-1.964 1.963-1.964h17.211c1.082 0 1.964.882 1.964 1.964v58.135a1.967 1.967 0 0 1-1.964 1.963m-16.179-3.005h15.138v-56.061h-15.138z"/><path fill="#FFFBE8" d="M309.288 62.513h-11.741a.36.36 0 0 0-.361.36v57.755c0 .199.162.36.361.36h11.741a.36.36 0 0 0 .361-.36V62.874a.36.36 0 0 0-.361-.361"/><path fill="#000" d="M309.288 122.491h-11.741a1.865 1.865 0 0 1-1.863-1.863V62.874c0-1.022.831-1.864 1.863-1.864h11.741c1.022 0 1.864.832 1.864 1.864v57.754a1.866 1.866 0 0 1-1.864 1.863m-10.599-3.005h9.457v-55.47h-9.457z"/><path fill="#FFFBE8" d="M309.288 300.012h-11.741a.36.36 0 0 0-.361.36v57.755c0 .199.162.36.361.36h11.741a.36.36 0 0 0 .361-.36v-57.755a.36.36 0 0 0-.361-.36"/><path fill="#000" d="M309.288 359.99h-11.741a1.866 1.866 0 0 1-1.863-1.863v-57.755c0-1.022.831-1.863 1.863-1.863h11.741c1.022 0 1.864.831 1.864 1.863v57.755a1.867 1.867 0 0 1-1.864 1.863m-10.599-3.006h9.457v-55.47h-9.457z"/><path fill="#FFFBE8" d="M227.11 78.412h-90.313a2.014 2.014 0 0 0-2.014 2.013v260.15c0 1.112.902 2.013 2.014 2.013h90.313a2.014 2.014 0 0 0 2.014-2.013V80.425a2.014 2.014 0 0 0-2.014-2.013"/><path fill="#000" d="M227.11 344.091h-90.323a3.52 3.52 0 0 1-3.516-3.516V80.425a3.52 3.52 0 0 1 3.516-3.516h90.323a3.52 3.52 0 0 1 3.516 3.516v260.15a3.52 3.52 0 0 1-3.516 3.516M136.787 79.914a.513.513 0 0 0-.511.511v260.15c0 .28.23.511.511.511h90.323a.513.513 0 0 0 .511-.511V80.425c0-.28-.23-.51-.511-.51z"/><path fill="#FFFBE8" d="M209.949 78.412h-90.313a2.014 2.014 0 0 0-2.014 2.013v260.15c0 1.112.902 2.013 2.014 2.013h90.313a2.014 2.014 0 0 0 2.014-2.013V80.425a2.014 2.014 0 0 0-2.014-2.013"/><path fill="#000" d="M209.959 344.091h-90.323a3.52 3.52 0 0 1-3.516-3.516V80.425a3.52 3.52 0 0 1 3.516-3.516h90.323a3.52 3.52 0 0 1 3.516 3.516v260.15a3.52 3.52 0 0 1-3.516 3.516M119.636 79.914a.513.513 0 0 0-.511.511v260.15c0 .28.23.511.511.511h90.323c.28 0 .511-.231.511-.511V80.425c0-.28-.231-.51-.511-.51z"/><path fill="#FFFBE8" d="M170.187 227.07h-7.894v1.933c-4.207 2.244-7.393 6.292-8.405 11.02-1.523 7.103 1.523 13.615 6.732 17.251v31.908a3.637 3.637 0 0 0 3.637 3.637h11.691a3.643 3.643 0 0 0 3.636-3.637v-31.908c4.298-3.005 7.123-7.964 7.123-13.604 0-9.137-7.383-16.55-16.51-16.6z"/><path fill="#000" d="M175.938 294.321h-11.691a5.143 5.143 0 0 1-5.14-5.139v-31.146c-5.65-4.308-8.205-11.25-6.692-18.333 1.022-4.759 4.118-9.027 8.375-11.581v-1.052c0-.832.672-1.503 1.503-1.503h7.904c9.928.05 18.003 8.175 18.003 18.103 0 5.63-2.645 10.94-7.123 14.366v31.146a5.143 5.143 0 0 1-5.139 5.139m-12.142-65.748v.43c0 .551-.311 1.062-.802 1.323-3.887 2.064-6.742 5.81-7.644 10.008-1.312 6.131 1.032 12.152 6.122 15.708.4.281.641.742.641 1.232v31.908c0 1.172.961 2.134 2.134 2.134h11.691a2.14 2.14 0 0 0 2.134-2.134v-31.908c0-.49.24-.951.641-1.232 4.057-2.835 6.481-7.453 6.481-12.372 0-8.275-6.732-15.047-15.007-15.097z"/><path fill="#FFFBE8" d="M178.893 243.62c0-10.439-9.637-18.634-20.507-16.159-6.091 1.392-11 6.391-12.302 12.502-1.523 7.103 1.523 13.615 6.732 17.251v31.908a3.643 3.643 0 0 0 3.637 3.637h11.691a3.643 3.643 0 0 0 3.636-3.637v-31.908c4.298-3.005 7.123-7.964 7.123-13.604z"/><path fill="#000" d="M168.134 294.271h-11.692a5.143 5.143 0 0 1-5.139-5.139v-31.146c-5.65-4.308-8.205-11.251-6.692-18.333 1.423-6.662 6.822-12.142 13.434-13.655 5.53-1.262 11.181 0 15.518 3.456a18 18 0 0 1 6.823 14.156c0 5.54-2.645 10.94-7.123 14.366v31.146a5.143 5.143 0 0 1-5.139 5.139zm-5.881-65.738c-1.172 0-2.364.13-3.536.4-5.5 1.253-9.978 5.811-11.171 11.351-1.312 6.131 1.032 12.152 6.121 15.708.401.281.642.742.642 1.232v31.908c0 1.172.961 2.134 2.133 2.134h11.692a2.14 2.14 0 0 0 2.133-2.134v-31.908c0-.49.241-.951.642-1.232 4.057-2.835 6.481-7.453 6.481-12.372 0-4.619-2.073-8.926-5.69-11.812-2.695-2.153-6.011-3.275-9.437-3.275z"/><path fill="#FFFBE8" d="M179.093 142.838V121.65a4.237 4.237 0 0 0-4.237-4.238H5.74a4.24 4.24 0 0 0-4.237 4.238v21.188a4.24 4.24 0 0 0 4.237 4.238h169.116a4.24 4.24 0 0 0 4.237-4.238"/><path fill="#000" d="M174.856 148.568H5.74a5.746 5.746 0 0 1-5.74-5.74V121.64a5.747 5.747 0 0 1 5.74-5.741h169.116a5.747 5.747 0 0 1 5.74 5.741v21.188a5.746 5.746 0 0 1-5.74 5.74M5.74 118.915a2.73 2.73 0 0 0-2.735 2.735v21.188a2.73 2.73 0 0 0 2.735 2.735h169.116a2.73 2.73 0 0 0 2.735-2.735V121.65a2.73 2.73 0 0 0-2.735-2.735z"/><path fill="#FFFBE8" d="M2.805 242.518c-.31 11.38 8.816 20.677 20.106 20.677 5.961 0 11.3-2.585 14.987-6.712 1.142-1.292 2.765-2.054 4.488-2.054h5.42c.411 0 .752-.34.752-.751v-2.334c.01-.241.11-.722.7-1.202l3.938-4.228a.654.654 0 0 1 .962 0l4.097 4.398c.26.28.701.28.962 0l4.097-4.398a.654.654 0 0 1 .962 0l4.097 4.398c.26.28.702.28.962 0l4.098-4.398a.665.665 0 0 1 .971 0l4.098 4.398c.26.28.7.28.961 0l4.098-4.398a.654.654 0 0 1 .961 0l4.018 4.318c.25.27.681.28.951.02l6.562-6.562a.74.74 0 0 0 0-1.032l-4.989-5.009c-.21-.21-.48-.321-.781-.321H42.917c-.46 0-.861-.3-1.001-.731-2.735-7.984-10.37-13.715-19.345-13.584-10.57.18-19.445 8.946-19.756 19.515zm5.67 1.402c-.5-2.594 1.453-4.868 3.957-4.868a4.066 4.066 0 0 1 4.058 4.057c0 2.504-2.274 4.458-4.87 3.957-1.552-.3-2.844-1.593-3.145-3.146"/><path fill="#000" d="M22.911 264.698c-5.89 0-11.39-2.324-15.498-6.542s-6.27-9.788-6.12-15.678c.33-11.381 9.857-20.788 21.238-20.978a21.56 21.56 0 0 1 20.687 14.316h47.055a2.6 2.6 0 0 1 1.843.761l4.99 5.009a2.25 2.25 0 0 1 0 3.156l-6.562 6.562c-.411.41-.982.641-1.563.631a2.17 2.17 0 0 1-1.543-.691l-3.396-3.657-3.477 3.737c-.811.871-2.344.871-3.165 0l-3.477-3.737-3.476 3.737c-.811.871-2.344.871-3.166 0l-3.476-3.737-3.476 3.737c-.812.871-2.344.871-3.166 0l-3.476-3.737-3.316 3.566s-.09.091-.14.131c-.09.08-.14.13-.16.16v2.214a2.26 2.26 0 0 1-2.255 2.254h-5.42c-1.262 0-2.484.561-3.365 1.553a21.6 21.6 0 0 1-16.11 7.223zm-18.603-22.14c-.14 5.079 1.733 9.878 5.27 13.504 3.536 3.627 8.274 5.63 13.343 5.63s10.35-2.264 13.865-6.211c1.443-1.623 3.497-2.554 5.61-2.554h4.669v-1.583c.02-.551.21-1.463 1.162-2.294l3.877-4.168c.812-.871 2.344-.871 3.166 0l3.476 3.737 3.476-3.737c.812-.871 2.345-.871 3.166 0l3.476 3.737 3.477-3.737c.811-.881 2.354-.881 3.165 0l3.477 3.737 3.476-3.737c.811-.871 2.344-.871 3.166 0l3.426 3.677 5.4-5.4-4.318-4.338H42.928a2.56 2.56 0 0 1-2.425-1.753c-2.615-7.634-9.797-12.673-17.902-12.573-9.788.161-17.993 8.265-18.273 18.053zm8.124 6.081c-.36 0-.72-.03-1.091-.1a5.525 5.525 0 0 1-4.338-4.338 5.62 5.62 0 0 1 1.162-4.649 5.5 5.5 0 0 1 4.268-2.013 5.566 5.566 0 0 1 5.56 5.56 5.52 5.52 0 0 1-2.014 4.268 5.57 5.57 0 0 1-3.556 1.272zm-2.474-4.999c.18.952 1.002 1.773 1.954 1.953a2.6 2.6 0 0 0 2.163-.531c.582-.48.922-1.192.922-1.943a2.553 2.553 0 0 0-2.554-2.555c-.752 0-1.463.331-1.944.922a2.54 2.54 0 0 0-.531 2.164z"/><path fill="#000" d="M162.293 252.726a1.5 1.5 0 0 1-1.503-1.502v-16.26c0-.831.671-1.503 1.503-1.503s1.503.672 1.503 1.503v16.26c0 .831-.672 1.502-1.503 1.502"/></svg>