<svg xmlns="http://www.w3.org/2000/svg" width="416" height="148" fill="none" viewBox="0 0 416 148"><path fill="#FFFBE8" d="M393.964 3.596H21.194c-9.719 0-17.598 7.879-17.598 17.598v105.611c0 9.719 7.88 17.598 17.598 17.598h372.77c9.719 0 17.597-7.879 17.597-17.598V21.194c0-9.72-7.878-17.598-17.597-17.598"/><path fill="#000" d="M393.963 148H21.194C9.518 148 0 138.482 0 126.806V21.194C0 9.518 9.518 0 21.194 0h372.793c11.676 0 21.195 9.518 21.195 21.194v105.612c0 11.676-9.519 21.194-21.195 21.194zM21.194 7.193c-7.72 0-14.001 6.281-14.001 14.001v105.612c0 7.72 6.281 14.001 14.001 14.001h372.793c7.72 0 14.002-6.281 14.002-14.001V21.194c0-7.72-6.282-14.001-14.002-14.001z"/><path fill="#FF634A" d="M280 54.432C280 43.147 270.822 34 259.5 34S239 43.148 239 54.432v38.137c0 11.284 9.178 20.431 20.5 20.431s20.5-9.147 20.5-20.431z"/><path fill="#000" d="M260.372 116.857c-13.186 0-23.903-10.717-23.903-23.904V55.048c0-13.187 10.717-23.903 23.903-23.903 13.187 0 23.904 10.717 23.904 23.903v37.905c0 13.187-10.717 23.904-23.904 23.904m0-78.544c-9.206 0-16.71 7.505-16.71 16.711v37.905c0 9.207 7.504 16.711 16.71 16.711s16.711-7.504 16.711-16.71V55.023c0-9.206-7.504-16.71-16.711-16.71"/><path fill="#000" d="M105.419 86.095c-1.846 0-3.476-.335-4.867-.983-1.39-.647-2.47-1.582-3.236-2.78-.768-1.2-1.151-2.59-1.151-4.22h3.764c0 .91.24 1.75.671 2.493.408.767 1.031 1.367 1.822 1.798.792.456 1.799.671 2.973.671 1.007 0 1.87-.167 2.614-.503.719-.336 1.294-.791 1.678-1.39.384-.576.575-1.271.575-2.038 0-.888-.191-1.63-.599-2.206a4.7 4.7 0 0 0-1.63-1.415 14 14 0 0 0-2.374-.983c-.911-.287-1.846-.6-2.829-.935-1.99-.647-3.477-1.486-4.436-2.517-.983-1.031-1.462-2.374-1.462-4.028 0-1.415.336-2.637 1.007-3.692s1.606-1.846 2.829-2.446c1.199-.575 2.637-.887 4.292-.887s3.069.312 4.291.911c1.223.6 2.182 1.439 2.877 2.494.696 1.055 1.055 2.301 1.055 3.716h-3.812c0-.648-.168-1.27-.503-1.918-.336-.623-.839-1.127-1.511-1.535s-1.51-.599-2.493-.599c-.815 0-1.559.12-2.206.408a3.4 3.4 0 0 0-1.51 1.27c-.36.552-.552 1.223-.552 1.966s.168 1.39.48 1.846c.335.48.791.864 1.414 1.2.624.335 1.343.646 2.182.91.815.288 1.75.576 2.757.911a17 17 0 0 1 3.333 1.487 6.75 6.75 0 0 1 2.301 2.277c.552.935.839 2.11.839 3.549a6.7 6.7 0 0 1-.982 3.5c-.648 1.08-1.607 1.966-2.878 2.637-1.27.696-2.853 1.031-4.747 1.031z"/><path fill="#000" d="M125.559 85.666c-1.127 0-2.11-.168-2.949-.527q-1.259-.54-1.942-1.799c-.456-.839-.672-1.99-.672-3.428v-9.327h-3.116v-3.068h3.116l.432-4.532h3.165v4.532h5.154v3.069h-5.154v9.35c0 1.03.216 1.726.647 2.11s1.175.551 2.23.551h2.086v3.07z"/><path fill="#000" d="M138.673 86.095c-1.486 0-2.733-.264-3.692-.767-.983-.504-1.726-1.175-2.206-2.038a5.5 5.5 0 0 1-.719-2.757c0-1.199.312-2.23.935-3.07.623-.838 1.51-1.51 2.661-1.965s2.518-.695 4.148-.695h4.723c0-1.055-.168-1.918-.479-2.614-.312-.695-.768-1.222-1.391-1.558s-1.391-.528-2.326-.528c-1.078 0-2.013.264-2.781.768-.767.527-1.246 1.27-1.438 2.277h-3.597c.144-1.27.576-2.35 1.319-3.26.719-.911 1.678-1.583 2.829-2.086a9.5 9.5 0 0 1 3.668-.743c1.703 0 3.117.311 4.268.91 1.151.6 2.014 1.44 2.613 2.542.6 1.103.887 2.398.887 3.908v11.22h-3.14l-.288-3.068q-.395.72-.935 1.366c-.36.432-.791.815-1.271 1.103a7 7 0 0 1-1.678.743 8.3 8.3 0 0 1-2.11.264zm.695-2.901c.768 0 1.463-.144 2.086-.456a5.2 5.2 0 0 0 1.607-1.27c.455-.552.767-1.151 1.007-1.846.215-.696.359-1.39.383-2.11v-.096h-4.291c-1.031 0-1.87.12-2.494.384-.623.263-1.103.599-1.39 1.03q-.432.649-.432 1.51c0 .576.144 1.104.408 1.535.263.432.671.744 1.198.983.528.24 1.175.36 1.918.36z"/><path fill="#000" d="M159.747 85.666c-1.126 0-2.109-.168-2.949-.527q-1.258-.54-1.942-1.799c-.455-.839-.671-1.99-.671-3.428v-9.327h-3.117v-3.068h3.117l.432-4.532h3.164v4.532h5.155v3.069h-5.155v9.35c0 1.03.216 1.726.648 2.11.431.383 1.175.551 2.23.551h2.085v3.07z"/><path fill="#000" d="M173.534 86.096c-1.415 0-2.638-.288-3.693-.864-1.054-.575-1.846-1.438-2.421-2.589-.575-1.15-.839-2.59-.839-4.34V67.54h3.596v10.357c0 1.702.384 2.973 1.127 3.836s1.798 1.295 3.189 1.295c.935 0 1.774-.216 2.541-.696.743-.455 1.343-1.102 1.774-1.966q.648-1.295.648-3.164v-9.686h3.596V85.64h-3.189l-.24-3.093a6.15 6.15 0 0 1-2.421 2.59q-1.583.935-3.668.935z"/><path fill="#000" d="M194.991 86.097c-1.534 0-2.877-.264-4.028-.767-1.151-.504-2.062-1.2-2.733-2.134-.671-.911-1.079-1.966-1.223-3.189h3.669a4.2 4.2 0 0 0 .695 1.582q.503.72 1.438 1.151c.6.288 1.343.432 2.182.432.791 0 1.439-.12 1.966-.336.528-.215.887-.527 1.127-.935.24-.407.36-.815.36-1.27 0-.672-.168-1.175-.48-1.535-.336-.336-.815-.623-1.438-.815a23 23 0 0 0-2.278-.552 15.6 15.6 0 0 1-2.422-.599 10.4 10.4 0 0 1-2.085-.959 4.3 4.3 0 0 1-1.463-1.462c-.36-.576-.527-1.319-.527-2.182 0-1.031.263-1.966.815-2.781.551-.84 1.342-1.463 2.349-1.942 1.031-.456 2.23-.696 3.621-.696 2.014 0 3.62.48 4.843 1.439s1.942 2.326 2.157 4.076h-3.5c-.096-.815-.456-1.439-1.079-1.894-.623-.432-1.462-.672-2.469-.672s-1.823.216-2.374.624c-.551.407-.839.959-.839 1.63 0 .432.144.815.479 1.15.312.337.768.624 1.391.84.599.24 1.367.432 2.254.623 1.27.24 2.397.528 3.404.911 1.007.36 1.822.888 2.422 1.583.599.695.911 1.678.911 2.973 0 1.127-.264 2.134-.839 2.973-.6.863-1.415 1.534-2.47 2.014-1.079.48-2.325.719-3.788.719z"/></svg>