<svg xmlns="http://www.w3.org/2000/svg" width="399" height="332" fill="none" viewBox="0 0 399 332"><path fill="#191917" d="M359.768 8.232H187.026a3.54 3.54 0 0 0-3.541 3.542v170.801a3.54 3.54 0 0 0 3.541 3.541h172.742a3.54 3.54 0 0 0 3.541-3.541V11.774a3.54 3.54 0 0 0-3.541-3.542"/><path fill="#EBEBEB" d="M359.768 187.616H187.036a5.046 5.046 0 0 1-5.042-5.041V11.774a5.046 5.046 0 0 1 5.042-5.042h172.732a5.045 5.045 0 0 1 5.041 5.042v170.791a5.045 5.045 0 0 1-5.041 5.041zM187.036 9.733c-1.131 0-2.041.92-2.041 2.04v170.792c0 1.13.92 2.04 2.041 2.04h172.732c1.13 0 2.04-.92 2.04-2.04V11.774c0-1.13-.92-2.041-2.04-2.041z"/><path fill="#EBEBEB" d="M363.309 66.95H183.485c-.831 0-1.501-.67-1.501-1.5s.67-1.5 1.501-1.5h179.824c.83 0 1.5.67 1.5 1.5s-.67 1.5-1.5 1.5"/><path fill="#191917" d="M204.231 148.024a7.81 7.81 0 0 0 7.812-7.812 7.81 7.81 0 0 0-7.812-7.812 7.81 7.81 0 0 0-7.812 7.812 7.81 7.81 0 0 0 7.812 7.812"/><path fill="#EBEBEB" d="M204.231 149.525c-5.132 0-9.313-4.182-9.313-9.313s4.181-9.313 9.313-9.313c5.131 0 9.313 4.181 9.313 9.313 0 5.131-4.182 9.313-9.313 9.313m0-15.625a6.32 6.32 0 0 0-6.312 6.312 6.32 6.32 0 0 0 6.312 6.312 6.32 6.32 0 0 0 6.312-6.312 6.32 6.32 0 0 0-6.312-6.312"/><path fill="#191917" d="M344.753 148.024a7.812 7.812 0 1 0 0-15.624 7.812 7.812 0 1 0 0 15.624"/><path fill="#EBEBEB" d="M344.753 149.525c-5.131 0-9.313-4.182-9.313-9.313s4.182-9.313 9.313-9.313 9.313 4.181 9.313 9.313c0 5.131-4.181 9.313-9.313 9.313m0-15.625a6.32 6.32 0 0 0-6.312 6.312 6.32 6.32 0 0 0 6.312 6.312 6.32 6.32 0 0 0 6.312-6.312 6.32 6.32 0 0 0-6.312-6.312"/><path fill="#191917" d="M291.187 122.837h-34.43v18.815h34.43z"/><path fill="#EBEBEB" d="M291.187 143.153h-34.43c-.831 0-1.501-.67-1.501-1.501v-18.815c0-.831.67-1.501 1.501-1.501h34.43a1.5 1.5 0 0 1 1.501 1.501v18.815a1.5 1.5 0 0 1-1.501 1.501m-32.93-3.001h31.43v-15.815h-31.43z"/><path fill="#191917" d="m255.316 152.806 1.531-11.153h34.44l1.341 11.153"/><path fill="#EBEBEB" d="M255.326 154.306c-.07 0-.14 0-.21-.01-.82-.11-1.4-.87-1.28-1.69l1.53-11.163c.1-.741.74-1.301 1.491-1.301h34.43c.76 0 1.4.57 1.49 1.321l1.341 11.163c.1.82-.49 1.57-1.311 1.67-.82.1-1.57-.49-1.67-1.31l-1.18-9.843h-31.79l-1.35 9.863c-.1.75-.751 1.3-1.481 1.3z"/><path fill="#191917" d="M285.895 27.528h-24.987v18.815h24.987z"/><path fill="#EBEBEB" d="M285.895 47.834h-24.987a1.5 1.5 0 0 1-1.501-1.5V27.518c0-.83.671-1.5 1.501-1.5h24.987c.831 0 1.501.67 1.501 1.5v18.816c0 .83-.67 1.5-1.501 1.5m-23.487-3h21.987V29.017h-21.987z"/><path fill="#191917" d="m259.868 57.498 1.1-11.164h24.998l.97 11.164"/><path fill="#EBEBEB" d="M259.868 58.998h-.15a1.496 1.496 0 0 1-1.341-1.64l1.111-11.164c.08-.77.72-1.35 1.49-1.35h24.988c.78 0 1.43.59 1.49 1.37l.97 11.163c.07.83-.54 1.55-1.36 1.62-.82.08-1.551-.54-1.621-1.36l-.85-9.793h-22.256l-.971 9.803c-.08.77-.73 1.35-1.49 1.35z"/><path fill="#191917" d="M186.576 8.052 201.67 1.5h143.943l14.615 6.552z"/><path fill="#EBEBEB" d="M360.228 9.553H186.566a1.503 1.503 0 0 1-.6-2.881L201.07.12q.285-.12.6-.12h143.943c.211 0 .421.04.611.13l14.614 6.552c.65.29 1 .99.85 1.68s-.76 1.19-1.47 1.19zm-166.43-3.001h159.418l-7.923-3.551H201.98z"/><path fill="#EBEBEB" d="M199.52 147.944c-.32 0-.651-.1-.921-.32-.65-.51-.77-1.45-.26-2.11l9.623-12.304c.51-.65 1.451-.77 2.111-.26.65.51.77 1.45.26 2.11l-9.623 12.304c-.3.38-.74.58-1.18.58z"/><path fill="#EBEBEB" d="M339.651 147.624c-.35 0-.7-.12-.98-.37-.62-.54-.69-1.49-.15-2.121l10.253-11.783c.54-.62 1.491-.69 2.121-.15.62.54.69 1.49.15 2.12l-10.253 11.784c-.3.34-.71.52-1.131.52z"/><path fill="#191917" d="M359.768 8.232H187.026a3.54 3.54 0 0 0-3.541 3.542v170.801a3.54 3.54 0 0 0 3.541 3.541h172.742a3.54 3.54 0 0 0 3.541-3.541V11.774a3.54 3.54 0 0 0-3.541-3.542"/><path fill="#EBEBEB" d="M359.768 187.616H187.036a5.046 5.046 0 0 1-5.042-5.041V11.774a5.046 5.046 0 0 1 5.042-5.042h172.732a5.045 5.045 0 0 1 5.041 5.042v170.791a5.045 5.045 0 0 1-5.041 5.041zM187.036 9.733c-1.131 0-2.041.92-2.041 2.04v170.792c0 1.13.92 2.04 2.041 2.04h172.732c1.13 0 2.04-.92 2.04-2.04V11.774c0-1.13-.92-2.041-2.04-2.041z"/><path fill="#EBEBEB" d="M363.309 66.95H183.485c-.831 0-1.501-.67-1.501-1.5s.67-1.5 1.501-1.5h179.824c.83 0 1.5.67 1.5 1.5s-.67 1.5-1.5 1.5"/><path fill="#191917" d="M204.231 148.024a7.81 7.81 0 0 0 7.812-7.812 7.81 7.81 0 0 0-7.812-7.812 7.81 7.81 0 0 0-7.812 7.812 7.81 7.81 0 0 0 7.812 7.812"/><path fill="#EBEBEB" d="M204.231 149.525c-5.132 0-9.313-4.182-9.313-9.313s4.181-9.313 9.313-9.313c5.131 0 9.313 4.181 9.313 9.313 0 5.131-4.182 9.313-9.313 9.313m0-15.625a6.32 6.32 0 0 0-6.312 6.312 6.32 6.32 0 0 0 6.312 6.312 6.32 6.32 0 0 0 6.312-6.312 6.32 6.32 0 0 0-6.312-6.312"/><path fill="#191917" d="M344.753 148.024a7.812 7.812 0 1 0 0-15.624 7.812 7.812 0 1 0 0 15.624"/><path fill="#EBEBEB" d="M344.753 149.525c-5.131 0-9.313-4.182-9.313-9.313s4.182-9.313 9.313-9.313 9.313 4.181 9.313 9.313c0 5.131-4.181 9.313-9.313 9.313m0-15.625a6.32 6.32 0 0 0-6.312 6.312 6.32 6.32 0 0 0 6.312 6.312 6.32 6.32 0 0 0 6.312-6.312 6.32 6.32 0 0 0-6.312-6.312"/><path fill="#191917" d="M291.187 122.837h-34.43v18.815h34.43z"/><path fill="#EBEBEB" d="M291.187 143.153h-34.43c-.831 0-1.501-.67-1.501-1.501v-18.815c0-.831.67-1.501 1.501-1.501h34.43a1.5 1.5 0 0 1 1.501 1.501v18.815a1.5 1.5 0 0 1-1.501 1.501m-32.93-3.001h31.43v-15.815h-31.43z"/><path fill="#191917" d="m255.316 152.806 1.531-11.153h34.44l1.341 11.153"/><path fill="#EBEBEB" d="M255.326 154.306c-.07 0-.14 0-.21-.01-.82-.11-1.4-.87-1.28-1.69l1.53-11.163c.1-.741.74-1.301 1.491-1.301h34.43c.76 0 1.4.57 1.49 1.321l1.341 11.163c.1.82-.49 1.57-1.311 1.67-.82.1-1.57-.49-1.67-1.31l-1.18-9.843h-31.79l-1.35 9.863c-.1.75-.751 1.3-1.481 1.3z"/><path fill="#191917" d="M285.895 27.528h-24.987v18.815h24.987z"/><path fill="#EBEBEB" d="M285.895 47.834h-24.987a1.5 1.5 0 0 1-1.501-1.5V27.518c0-.83.671-1.5 1.501-1.5h24.987c.831 0 1.501.67 1.501 1.5v18.816c0 .83-.67 1.5-1.501 1.5m-23.487-3h21.987V29.017h-21.987z"/><path fill="#191917" d="m259.868 57.498 1.1-11.164h24.998l.97 11.164"/><path fill="#EBEBEB" d="M259.868 58.998h-.15a1.496 1.496 0 0 1-1.341-1.64l1.111-11.164c.08-.77.72-1.35 1.49-1.35h24.988c.78 0 1.43.59 1.49 1.37l.97 11.163c.07.83-.54 1.55-1.36 1.62-.82.08-1.551-.54-1.621-1.36l-.85-9.793h-22.256l-.971 9.803c-.08.77-.73 1.35-1.49 1.35z"/><path fill="#191917" d="M186.576 8.052 201.67 1.5h143.943l14.615 6.552z"/><path fill="#EBEBEB" d="M360.228 9.553H186.566a1.503 1.503 0 0 1-.6-2.881L201.07.12q.285-.12.6-.12h143.943c.211 0 .421.04.611.13l14.614 6.552c.65.29 1 .99.85 1.68s-.76 1.19-1.47 1.19zm-166.43-3.001h159.418l-7.923-3.551H201.98z"/><path fill="#EBEBEB" d="M199.52 147.944c-.32 0-.651-.1-.921-.32-.65-.51-.77-1.45-.26-2.11l9.623-12.304c.51-.65 1.451-.77 2.111-.26.65.51.77 1.45.26 2.11l-9.623 12.304c-.3.38-.74.58-1.18.58z"/><path fill="#EBEBEB" d="M339.651 147.624c-.35 0-.7-.12-.98-.37-.62-.54-.69-1.49-.15-2.121l10.253-11.783c.54-.62 1.491-.69 2.121-.15.62.54.69 1.49.15 2.12l-10.253 11.784c-.3.34-.71.52-1.131.52z"/><path fill="#191917" d="M396.759 97.34h-75.883c-13.214.19-26.398-5.342-35.561-16.245l6.202-5.212c7.592 9.033 18.536 13.574 29.479 13.344h75.763"/><path fill="#EBEBEB" d="M320.176 98.84c-13.924 0-27.028-6.092-36.011-16.775-.53-.63-.45-1.58.18-2.11l6.202-5.212c.3-.26.7-.38 1.09-.35.4.03.76.23 1.021.53 7.032 8.372 17.345 13.024 28.298 12.814h75.793c.83 0 1.5.67 1.5 1.5s-.67 1.5-1.5 1.5h-75.763c-11.323.24-22.057-4.39-29.639-12.743l-3.911 3.29c8.512 9.463 20.606 14.755 33.41 14.565h75.903c.83 0 1.5.68 1.5 1.5s-.67 1.5-1.5 1.5h-76.583z"/><path fill="#EBEBEB" d="M396.759 98.84h-77.213a47.07 47.07 0 0 1-35.381-16.775c-.53-.63-.45-1.58.18-2.11s1.58-.45 2.111.18a44.07 44.07 0 0 0 33.11 15.704h77.193c.83 0 1.5.68 1.5 1.5 0 .821-.67 1.501-1.5 1.501m0-8.102h-77.143c-11.324-.18-21.977-5.232-29.249-13.884-.53-.63-.45-1.58.18-2.111.63-.53 1.58-.45 2.111.18a35.95 35.95 0 0 0 26.978 12.814h77.113c.83 0 1.5.67 1.5 1.5s-.67 1.5-1.5 1.5z"/><path fill="#191917" d="m277.073 57.257 2.991-2.52c.68-.57 1.69-.48 2.26.2l9.633 11.453 9.773 4.842-2.901 2.44-9.883-4.871-10.083 8.482"/><path fill="#EBEBEB" d="M278.873 78.764c-.43 0-.85-.18-1.15-.53-.53-.63-.45-1.58.18-2.11l10.083-8.483c.46-.38 1.1-.46 1.63-.2l9.003 4.44.39-.33-7.722-3.82c-.19-.09-.35-.22-.48-.38l-9.623-11.454s-.11-.04-.15-.01l-2.991 2.52a1.5 1.5 0 0 1-2.111-.18c-.53-.63-.45-1.58.18-2.11l2.991-2.52c.64-.53 1.441-.79 2.271-.72s1.58.46 2.111 1.1l9.422 11.213 9.493 4.701c.45.22.76.66.82 1.17.06.5-.14 1-.52 1.331l-2.901 2.44c-.46.38-1.1.46-1.63.2l-9.003-4.44-9.333 7.852c-.28.24-.62.35-.96.35z"/><path fill="#191917" d="m269.02 65.81 14.805 17.615c.49.58 1.35.65 1.92.17l8.203-6.892c.58-.49.65-1.35.17-1.92l-5.222-6.212-9.583-11.404c-.49-.58-1.35-.65-1.92-.17l-8.203 6.892c-.58.49-.65 1.35-.17 1.92"/><path fill="#EBEBEB" d="M284.875 85.406c-.08 0-.17 0-.25-.01a2.92 2.92 0 0 1-1.951-1.01L267.87 66.78c-.49-.59-.73-1.33-.66-2.09s.43-1.45 1.01-1.951l8.193-6.892a2.876 2.876 0 0 1 4.041.35l14.804 17.605a2.87 2.87 0 0 1-.35 4.041l-8.202 6.893c-.521.44-1.171.67-1.841.67zM270.251 64.95l14.634 17.405 7.992-6.722-14.634-17.405z"/><path fill="#191917" d="m275.472 59.198 4.792 5.692-3.791 3.19-4.792-5.701"/><path fill="#EBEBEB" d="M276.473 69.581c-.431 0-.851-.18-1.151-.53l-4.791-5.692c-.53-.63-.45-1.58.18-2.11s1.58-.45 2.11.18l3.822 4.551 1.5-1.26-3.821-4.552c-.53-.63-.45-1.58.18-2.11s1.58-.45 2.111.18l4.791 5.692c.53.63.45 1.58-.18 2.11l-3.791 3.191c-.28.24-.62.35-.96.35"/><path fill="#EBEBEB" d="M190.277 332c-46.664 0-84.626-37.961-84.626-84.625a1.5 1.5 0 0 1 1.501-1.501c.83 0 1.5.67 1.5 1.501 0 45.003 36.611 81.624 81.625 81.624 45.013 0 81.624-36.611 81.624-81.624v-65.77a1.5 1.5 0 0 1 1.501-1.501c.83 0 1.5.671 1.5 1.501v65.77c0 46.664-37.961 84.625-84.625 84.625"/><path fill="#191917" d="M139.712 182.585H20.086c-10.264 0-18.586 8.321-18.586 18.585v63.619c0 10.265 8.322 18.586 18.586 18.586h119.626c10.264 0 18.585-8.321 18.585-18.586V201.17c0-10.264-8.321-18.585-18.585-18.585"/><path fill="#EBEBEB" d="M139.712 284.865H20.086C9.013 284.865 0 275.853 0 264.779V201.16c0-11.073 9.013-20.086 20.086-20.086h119.626c11.073 0 20.086 9.013 20.086 20.086v63.619c0 11.074-9.013 20.086-20.086 20.086M20.086 184.085c-9.423 0-17.085 7.663-17.085 17.085v63.619c0 9.423 7.662 17.086 17.085 17.086h119.626c9.423 0 17.085-7.663 17.085-17.086V201.17c0-9.422-7.662-17.085-17.085-17.085z"/><path fill="#191917" d="M133.09 250.335V44.893c0-13.984-11.343-25.327-25.328-25.327H51.245c-13.073 0-23.677 10.603-23.677 23.677v207.102a8.713 8.713 0 0 0 8.713 8.713h88.106a8.713 8.713 0 0 0 8.713-8.713z"/><path fill="#EBEBEB" d="M124.387 260.538H36.281c-5.632 0-10.213-4.581-10.213-10.213V43.233c0-13.884 11.293-25.177 25.177-25.177h56.517c14.795 0 26.828 12.033 26.828 26.828v205.441c0 5.632-4.581 10.213-10.213 10.213zM51.245 21.057c-12.223 0-22.176 9.953-22.176 22.176v207.102c0 3.972 3.23 7.213 7.212 7.213h88.106c3.972 0 7.213-3.231 7.213-7.213V44.894c0-13.144-10.694-23.827-23.828-23.827H51.255z"/><path fill="#191917" d="M43.783 24.518V10.083c0-2.64 2.16-4.801 4.802-4.801 2.64 0 4.801 2.16 4.801 4.801v14.435"/><path fill="#EBEBEB" d="M53.396 26.018c-.83 0-1.5-.67-1.5-1.5V10.083c0-1.82-1.48-3.3-3.301-3.3a3.304 3.304 0 0 0-3.301 3.3v14.435c0 .83-.67 1.5-1.5 1.5-.831 0-1.501-.67-1.501-1.5V10.083a6.31 6.31 0 0 1 6.302-6.302c3.47 0 6.302 2.831 6.302 6.302v14.435c0 .83-.67 1.5-1.501 1.5"/><path fill="#191917" d="M133.09 258.327V52.886c0-13.985-11.343-25.328-25.328-25.328H51.245c-13.073 0-23.677 10.603-23.677 23.677v207.102a8.713 8.713 0 0 0 8.713 8.713h88.106a8.713 8.713 0 0 0 8.713-8.713z"/><path fill="#EBEBEB" d="M124.387 268.541H36.281c-5.632 0-10.213-4.582-10.213-10.213V51.225c0-13.884 11.293-25.177 25.177-25.177h56.517c14.795 0 26.828 12.034 26.828 26.828v205.442c0 5.631-4.581 10.213-10.213 10.213zM51.245 29.059c-12.223 0-22.176 9.953-22.176 22.176v207.103c0 3.971 3.23 7.212 7.212 7.212h88.106c3.972 0 7.213-3.231 7.213-7.212V52.896c0-13.144-10.694-23.827-23.828-23.827H51.255z"/><path fill="#191917" d="M115.055 52.626H45.604a3.97 3.97 0 0 0-3.971 3.971v35.871a3.97 3.97 0 0 0 3.97 3.971h69.452a3.97 3.97 0 0 0 3.971-3.97V56.596a3.97 3.97 0 0 0-3.971-3.97"/><path fill="#EBEBEB" d="M115.055 97.94H45.614a5.48 5.48 0 0 1-5.472-5.472v-35.87a5.48 5.48 0 0 1 5.472-5.472h69.441a5.48 5.48 0 0 1 5.471 5.471v35.871a5.48 5.48 0 0 1-5.471 5.472M45.604 54.127c-1.36 0-2.47 1.11-2.47 2.47v35.871c0 1.36 1.11 2.47 2.47 2.47h69.441c1.36 0 2.47-1.11 2.47-2.47v-35.87a2.476 2.476 0 0 0-2.47-2.471z"/><path fill="#191917" d="M90.267 40.172H70.391c-.939 0-1.7.76-1.7 1.696s.761 1.695 1.7 1.695h19.876c.94 0 1.7-.759 1.7-1.695 0-.937-.76-1.696-1.7-1.696"/><path fill="#EBEBEB" d="M90.267 45.074H70.381a3.204 3.204 0 0 1-3.2-3.201c0-1.77 1.43-3.201 3.2-3.201h19.886c1.76 0 3.201 1.43 3.201 3.2s-1.43 3.202-3.2 3.202m-19.876-3.401c-.1 0-.2.09-.2.2s.09.2.2.2h19.886c.1 0 .2-.09.2-.2a.2.2 0 0 0-.2-.2z"/><path fill="#191917" d="M80.334 130.429c6.425 0 11.633-5.208 11.633-11.633s-5.208-11.634-11.633-11.634-11.633 5.209-11.633 11.634 5.208 11.633 11.633 11.633"/><path fill="#EBEBEB" d="M80.334 131.94c-7.242 0-13.134-5.892-13.134-13.134s5.892-13.134 13.134-13.134 13.134 5.892 13.134 13.134-5.892 13.134-13.134 13.134m0-23.277c-5.592 0-10.133 4.551-10.133 10.133s4.551 10.133 10.133 10.133 10.133-4.552 10.133-10.133c0-5.582-4.551-10.133-10.133-10.133"/><path fill="#191917" d="M109.513 107.162h7.312c1.211 0 2.201.99 2.201 2.201v4.721c0 1.21-.99 2.201-2.201 2.201h-7.312a4.566 4.566 0 0 1-4.561-4.562c0-2.51 2.04-4.561 4.561-4.561"/><path fill="#EBEBEB" d="M116.825 117.775h-7.312a6.07 6.07 0 0 1-6.062-6.061 6.07 6.07 0 0 1 6.062-6.062h7.312a3.705 3.705 0 0 1 3.701 3.701v4.721a3.705 3.705 0 0 1-3.701 3.701m-7.312-9.112a3.061 3.061 0 0 0 0 6.122h7.312c.38 0 .7-.321.7-.701v-4.721c0-.38-.32-.7-.7-.7z"/><path fill="#191917" d="M109.513 121.447h7.352c1.191 0 2.161.97 2.161 2.16v4.802c0 1.19-.97 2.16-2.161 2.16h-7.352a4.565 4.565 0 0 1-4.561-4.561 4.565 4.565 0 0 1 4.561-4.561"/><path fill="#EBEBEB" d="M116.865 132.06h-7.352a6.07 6.07 0 0 1-6.062-6.062 6.07 6.07 0 0 1 6.062-6.062h7.352a3.663 3.663 0 0 1 3.661 3.661v4.802a3.66 3.66 0 0 1-3.661 3.661m-7.352-9.113a3.062 3.062 0 0 0 0 6.122h7.352c.36 0 .66-.3.66-.66v-4.802c0-.36-.3-.66-.66-.66z"/><path fill="#191917" d="M44.513 107.163h7.413c2.51 0 4.561 2.04 4.561 4.561a4.565 4.565 0 0 1-4.561 4.561h-7.413a2.2 2.2 0 0 1-2.2-2.2v-4.712c0-1.22.99-2.2 2.2-2.2z"/><path fill="#EBEBEB" d="M51.926 117.776h-7.413a3.706 3.706 0 0 1-3.7-3.701v-4.712c0-2.04 1.66-3.701 3.7-3.701h7.413a6.07 6.07 0 0 1 6.061 6.062 6.07 6.07 0 0 1-6.061 6.062zm-7.413-9.113c-.38 0-.7.32-.7.7v4.712c0 .38.32.7.7.7h7.413a3.061 3.061 0 0 0 0-6.122h-7.413z"/><path fill="#191917" d="M44.503 121.447h7.423c2.51 0 4.561 2.04 4.561 4.561a4.565 4.565 0 0 1-4.561 4.561h-7.423a2.2 2.2 0 0 1-2.2-2.2v-4.722c0-1.21.98-2.2 2.2-2.2"/><path fill="#EBEBEB" d="M51.926 132.06h-7.423a3.705 3.705 0 0 1-3.7-3.701v-4.722c0-2.04 1.66-3.701 3.7-3.701h7.423a6.07 6.07 0 0 1 6.061 6.062 6.07 6.07 0 0 1-6.061 6.062m-7.423-9.113c-.38 0-.7.32-.7.7v4.722c0 .38.32.7.7.7h7.423a3.06 3.06 0 1 0 0-6.122z"/><path fill="#191917" d="M60.638 145.354H46.914a4.61 4.61 0 0 0-4.611 4.611v9.903a4.61 4.61 0 0 0 4.611 4.611h13.724a4.61 4.61 0 0 0 4.612-4.611v-9.903a4.61 4.61 0 0 0-4.612-4.611"/><path fill="#EBEBEB" d="M60.648 165.99H46.924a6.12 6.12 0 0 1-6.112-6.112v-9.913a6.12 6.12 0 0 1 6.112-6.112h13.724a6.12 6.12 0 0 1 6.112 6.112v9.913a6.12 6.12 0 0 1-6.112 6.112m-13.734-19.136a3.12 3.12 0 0 0-3.11 3.111v9.913a3.114 3.114 0 0 0 3.11 3.111h13.724a3.12 3.12 0 0 0 3.111-3.111v-9.913c0-1.71-1.39-3.111-3.11-3.111z"/><path fill="#191917" d="M87.526 145.354H73.802a4.61 4.61 0 0 0-4.611 4.611v9.903a4.61 4.61 0 0 0 4.611 4.611h13.724a4.61 4.61 0 0 0 4.612-4.611v-9.903a4.61 4.61 0 0 0-4.612-4.611"/><path fill="#EBEBEB" d="M87.526 165.99H73.802a6.12 6.12 0 0 1-6.112-6.112v-9.913a6.12 6.12 0 0 1 6.112-6.112h13.724a6.12 6.12 0 0 1 6.112 6.112v9.913a6.12 6.12 0 0 1-6.112 6.112m-13.724-19.136a3.12 3.12 0 0 0-3.11 3.111v9.913a3.114 3.114 0 0 0 3.11 3.111h13.724a3.12 3.12 0 0 0 3.111-3.111v-9.913c0-1.71-1.39-3.111-3.11-3.111z"/><path fill="#191917" d="M114.414 145.354H100.69a4.61 4.61 0 0 0-4.611 4.611v9.903a4.61 4.61 0 0 0 4.611 4.611h13.724a4.61 4.61 0 0 0 4.612-4.611v-9.903a4.61 4.61 0 0 0-4.612-4.611"/><path fill="#EBEBEB" d="M114.414 165.99H100.69a6.12 6.12 0 0 1-6.112-6.112v-9.913a6.12 6.12 0 0 1 6.112-6.112h13.724a6.12 6.12 0 0 1 6.112 6.112v9.913a6.12 6.12 0 0 1-6.112 6.112m-13.724-19.136a3.12 3.12 0 0 0-3.11 3.111v9.913a3.114 3.114 0 0 0 3.11 3.111h13.724a3.12 3.12 0 0 0 3.111-3.111v-9.913c0-1.71-1.39-3.111-3.111-3.111z"/><path fill="#191917" d="M60.638 168.211H46.914a4.61 4.61 0 0 0-4.611 4.611v9.903a4.61 4.61 0 0 0 4.611 4.611h13.724a4.61 4.61 0 0 0 4.612-4.611v-9.903a4.61 4.61 0 0 0-4.612-4.611"/><path fill="#EBEBEB" d="M60.648 188.837H46.924a6.12 6.12 0 0 1-6.112-6.112v-9.913a6.12 6.12 0 0 1 6.112-6.112h13.724a6.12 6.12 0 0 1 6.112 6.112v9.913a6.12 6.12 0 0 1-6.112 6.112m-13.734-19.126a3.12 3.12 0 0 0-3.11 3.111v9.913a3.114 3.114 0 0 0 3.11 3.111h13.724a3.12 3.12 0 0 0 3.111-3.111v-9.913c0-1.71-1.39-3.111-3.11-3.111z"/><path fill="#191917" d="M87.526 168.211H73.802a4.61 4.61 0 0 0-4.611 4.611v9.903a4.61 4.61 0 0 0 4.611 4.611h13.724a4.61 4.61 0 0 0 4.612-4.611v-9.903a4.61 4.61 0 0 0-4.612-4.611"/><path fill="#EBEBEB" d="M87.526 188.837H73.802a6.12 6.12 0 0 1-6.112-6.112v-9.913a6.12 6.12 0 0 1 6.112-6.112h13.724a6.12 6.12 0 0 1 6.112 6.112v9.913a6.12 6.12 0 0 1-6.112 6.112m-13.724-19.126a3.12 3.12 0 0 0-3.11 3.111v9.913a3.114 3.114 0 0 0 3.11 3.111h13.724a3.12 3.12 0 0 0 3.111-3.111v-9.913c0-1.71-1.39-3.111-3.11-3.111z"/><path fill="#191917" d="M114.414 168.211H100.69a4.61 4.61 0 0 0-4.611 4.611v9.903a4.61 4.61 0 0 0 4.611 4.611h13.724a4.61 4.61 0 0 0 4.612-4.611v-9.903a4.61 4.61 0 0 0-4.612-4.611"/><path fill="#EBEBEB" d="M114.414 188.837H100.69a6.12 6.12 0 0 1-6.112-6.112v-9.913a6.12 6.12 0 0 1 6.112-6.112h13.724a6.12 6.12 0 0 1 6.112 6.112v9.913a6.12 6.12 0 0 1-6.112 6.112m-13.724-19.126a3.12 3.12 0 0 0-3.11 3.111v9.913a3.114 3.114 0 0 0 3.11 3.111h13.724a3.12 3.12 0 0 0 3.111-3.111v-9.913c0-1.71-1.39-3.111-3.111-3.111z"/><path fill="#191917" d="M60.638 191.057H46.914a4.61 4.61 0 0 0-4.611 4.612v9.903a4.61 4.61 0 0 0 4.611 4.611h13.724a4.61 4.61 0 0 0 4.612-4.611v-9.903a4.61 4.61 0 0 0-4.612-4.612"/><path fill="#EBEBEB" d="M60.648 211.684H46.924a6.12 6.12 0 0 1-6.112-6.112v-9.913a6.12 6.12 0 0 1 6.112-6.112h13.724a6.12 6.12 0 0 1 6.112 6.112v9.913a6.12 6.12 0 0 1-6.112 6.112m-13.734-19.126a3.12 3.12 0 0 0-3.11 3.111v9.913c0 1.71 1.39 3.111 3.11 3.111h13.724a3.12 3.12 0 0 0 3.111-3.111v-9.913a3.114 3.114 0 0 0-3.11-3.111z"/><path fill="#191917" d="M87.526 191.057H73.802a4.61 4.61 0 0 0-4.611 4.612v9.903a4.61 4.61 0 0 0 4.611 4.611h13.724a4.61 4.61 0 0 0 4.612-4.611v-9.903a4.61 4.61 0 0 0-4.612-4.612"/><path fill="#EBEBEB" d="M87.526 211.684H73.802a6.12 6.12 0 0 1-6.112-6.112v-9.913a6.12 6.12 0 0 1 6.112-6.112h13.724a6.12 6.12 0 0 1 6.112 6.112v9.913a6.12 6.12 0 0 1-6.112 6.112m-13.724-19.126a3.12 3.12 0 0 0-3.11 3.111v9.913c0 1.71 1.39 3.111 3.11 3.111h13.724a3.12 3.12 0 0 0 3.111-3.111v-9.913a3.114 3.114 0 0 0-3.11-3.111z"/><path fill="#191917" d="M114.414 191.057H100.69a4.61 4.61 0 0 0-4.611 4.612v9.903a4.61 4.61 0 0 0 4.611 4.611h13.724a4.61 4.61 0 0 0 4.612-4.611v-9.903a4.61 4.61 0 0 0-4.612-4.612"/><path fill="#EBEBEB" d="M114.414 211.684H100.69a6.12 6.12 0 0 1-6.112-6.112v-9.913a6.12 6.12 0 0 1 6.112-6.112h13.724a6.12 6.12 0 0 1 6.112 6.112v9.913a6.12 6.12 0 0 1-6.112 6.112m-13.724-19.126a3.12 3.12 0 0 0-3.11 3.111v9.913c0 1.71 1.39 3.111 3.11 3.111h13.724a3.12 3.12 0 0 0 3.111-3.111v-9.913a3.114 3.114 0 0 0-3.111-3.111z"/><path fill="#191917" d="M60.638 213.905H46.914a4.61 4.61 0 0 0-4.611 4.611v9.903a4.61 4.61 0 0 0 4.611 4.611h13.724a4.61 4.61 0 0 0 4.612-4.611v-9.903a4.61 4.61 0 0 0-4.612-4.611"/><path fill="#EBEBEB" d="M60.648 234.541H46.924a6.12 6.12 0 0 1-6.112-6.112v-9.913a6.12 6.12 0 0 1 6.112-6.112h13.724a6.12 6.12 0 0 1 6.112 6.112v9.913a6.12 6.12 0 0 1-6.112 6.112m-13.734-19.136a3.12 3.12 0 0 0-3.11 3.111v9.913c0 1.71 1.39 3.111 3.11 3.111h13.724a3.12 3.12 0 0 0 3.111-3.111v-9.913a3.114 3.114 0 0 0-3.11-3.111z"/><path fill="#191917" d="M87.526 213.905H73.802a4.61 4.61 0 0 0-4.611 4.611v9.903a4.61 4.61 0 0 0 4.611 4.611h13.724a4.61 4.61 0 0 0 4.612-4.611v-9.903a4.61 4.61 0 0 0-4.612-4.611"/><path fill="#EBEBEB" d="M87.526 234.541H73.802a6.12 6.12 0 0 1-6.112-6.112v-9.913a6.12 6.12 0 0 1 6.112-6.112h13.724a6.12 6.12 0 0 1 6.112 6.112v9.913a6.12 6.12 0 0 1-6.112 6.112m-13.724-19.136a3.12 3.12 0 0 0-3.11 3.111v9.913c0 1.71 1.39 3.111 3.11 3.111h13.724a3.12 3.12 0 0 0 3.111-3.111v-9.913a3.114 3.114 0 0 0-3.11-3.111z"/><path fill="#191917" d="M114.414 213.905H100.69a4.61 4.61 0 0 0-4.611 4.611v9.903a4.61 4.61 0 0 0 4.611 4.611h13.724a4.61 4.61 0 0 0 4.612-4.611v-9.903a4.61 4.61 0 0 0-4.612-4.611"/><path fill="#EBEBEB" d="M114.414 234.541H100.69a6.12 6.12 0 0 1-6.112-6.112v-9.913a6.12 6.12 0 0 1 6.112-6.112h13.724a6.12 6.12 0 0 1 6.112 6.112v9.913a6.12 6.12 0 0 1-6.112 6.112m-13.724-19.136a3.12 3.12 0 0 0-3.11 3.111v9.913c0 1.71 1.39 3.111 3.11 3.111h13.724a3.12 3.12 0 0 0 3.111-3.111v-9.913a3.114 3.114 0 0 0-3.111-3.111z"/><path fill="#191917" d="M138.101 253.436H21.706v15.985h116.395z"/><path fill="#EBEBEB" d="M138.101 270.922H21.706a1.5 1.5 0 0 1-1.5-1.501v-15.985c0-.83.67-1.5 1.5-1.5h116.395c.83 0 1.501.67 1.501 1.5v15.985a1.5 1.5 0 0 1-1.501 1.501m-114.894-3.001H136.6v-12.984H23.207z"/><path fill="#EBEBEB" d="M141.412 254.937H19.256c-.83 0-1.5-.67-1.5-1.501s.67-1.5 1.5-1.5h122.156c.831 0 1.501.67 1.501 1.5 0 .831-.67 1.501-1.501 1.501"/><path fill="#191917" d="M27.568 245.194v8.242h-8.322z"/><path fill="#EBEBEB" d="M27.568 254.937h-8.322a1.505 1.505 0 0 1-1.06-2.571l8.322-8.252a1.49 1.49 0 0 1 1.63-.321c.56.23.92.781.92 1.381v8.252c0 .831-.67 1.501-1.5 1.501zm-4.671-3.001h3.17v-3.151z"/><path fill="#191917" d="M27.568 245.194v8.242h-8.322z"/><path fill="#EBEBEB" d="M27.568 254.937h-8.322a1.505 1.505 0 0 1-1.06-2.571l8.322-8.252a1.49 1.49 0 0 1 1.63-.321c.56.23.92.781.92 1.381v8.252c0 .831-.67 1.501-1.5 1.501zm-4.671-3.001h3.17v-3.151z"/><path fill="#191917" d="M133.03 245.194v8.242h8.312z"/><path fill="#EBEBEB" d="M141.342 254.937h-8.322a1.5 1.5 0 0 1-1.501-1.501v-8.252c0-.611.361-1.151.921-1.381s1.2-.11 1.63.32l8.323 8.253a1.506 1.506 0 0 1-1.061 2.571zm-6.812-3.001h3.171l-3.171-3.151z"/><path fill="#191917" d="M264.909 171.582v31.029c0 1.021.82 1.841 1.841 1.841h14.444c1.02 0 1.841-.82 1.841-1.841v-31.029c0-1.02-.821-1.841-1.841-1.841H266.75a1.836 1.836 0 0 0-1.841 1.841"/><path fill="#EBEBEB" d="M281.194 205.952H266.75a3.346 3.346 0 0 1-3.341-3.341v-31.029c0-1.841 1.5-3.341 3.341-3.341h14.444c1.841 0 3.341 1.5 3.341 3.341v31.029c0 1.841-1.5 3.341-3.341 3.341m-14.444-34.71c-.19 0-.34.15-.34.34v31.029c0 .19.15.34.34.34h14.444c.19 0 .34-.15.34-.34v-31.029c0-.19-.15-.34-.34-.34z"/><path fill="#EBEBEB" d="M270.04 200.591c-.83 0-1.5-.671-1.5-1.501v-11.993c0-.831.67-1.501 1.5-1.501.831 0 1.501.67 1.501 1.501v11.993a1.5 1.5 0 0 1-1.501 1.501"/><path fill="#EBEBEB" d="M274.202 200.591a1.5 1.5 0 0 1-1.501-1.501v-11.993a1.5 1.5 0 0 1 1.501-1.501c.83 0 1.5.67 1.5 1.501v11.993c0 .83-.67 1.501-1.5 1.501"/><path fill="#EBEBEB" d="M278.363 200.591c-.83 0-1.5-.671-1.5-1.501v-11.993c0-.831.67-1.501 1.5-1.501a1.5 1.5 0 0 1 1.501 1.501v11.993a1.5 1.5 0 0 1-1.501 1.501"/></svg>