<svg xmlns="http://www.w3.org/2000/svg" width="289" height="296" fill="none" viewBox="0 0 289 296"><path fill="#FFFBE8" d="M281.098 11.916H7.566a6.063 6.063 0 0 0-6.063 6.062v270.446a6.063 6.063 0 0 0 6.063 6.063h273.532a6.064 6.064 0 0 0 6.063-6.063V17.978a6.063 6.063 0 0 0-6.063-6.063"/><path fill="#000" d="M281.098 295.99H7.566c-4.169 0-7.566-3.397-7.566-7.566V17.978c0-4.169 3.397-7.566 7.566-7.566h273.532c4.169 0 7.566 3.397 7.566 7.566v270.456c0 4.169-3.397 7.566-7.566 7.566zM7.566 13.419a4.563 4.563 0 0 0-4.56 4.56v270.455a4.563 4.563 0 0 0 4.56 4.559h273.532a4.564 4.564 0 0 0 4.56-4.559V17.978a4.564 4.564 0 0 0-4.56-4.56z"/><path fill="#000" d="M287.161 104.309H1.503A1.5 1.5 0 0 1 0 102.806a1.5 1.5 0 0 1 1.503-1.503h285.658c.831 0 1.503.671 1.503 1.503s-.672 1.503-1.503 1.503"/><path fill="#FFFBE8" d="M35.444 233.98c6.852 0 12.406-5.554 12.406-12.406s-5.554-12.406-12.406-12.406-12.406 5.554-12.406 12.406 5.555 12.406 12.406 12.406"/><path fill="#000" d="M35.444 235.483c-7.666 0-13.909-6.243-13.909-13.909s6.243-13.909 13.91-13.909c7.665 0 13.908 6.243 13.908 13.909s-6.243 13.909-13.909 13.909m0-24.812c-6.012 0-10.903 4.89-10.903 10.903s4.89 10.903 10.903 10.903 10.903-4.89 10.903-10.903-4.89-10.903-10.903-10.903"/><path fill="#FFFBE8" d="M258.671 233.98c6.852 0 12.406-5.554 12.406-12.406s-5.554-12.406-12.406-12.406-12.406 5.554-12.406 12.406 5.554 12.406 12.406 12.406"/><path fill="#000" d="M258.671 235.483c-7.666 0-13.909-6.243-13.909-13.909s6.243-13.909 13.909-13.909 13.909 6.243 13.909 13.909-6.243 13.909-13.909 13.909m0-24.812c-6.013 0-10.903 4.89-10.903 10.903s4.89 10.903 10.903 10.903 10.903-4.89 10.903-10.903-4.89-10.903-10.903-10.903"/><path fill="#FFFBE8" d="M176.289 193.966h-54.705v29.883h54.705z"/><path fill="#000" d="M176.279 225.352h-54.705a1.5 1.5 0 0 1-1.503-1.503v-29.883c0-.831.672-1.503 1.503-1.503h54.705c.832 0 1.503.672 1.503 1.503v29.883a1.5 1.5 0 0 1-1.503 1.503m-53.191-3.006h51.698v-26.877h-51.698z"/><path fill="#FFFBE8" d="m119.159 241.576 2.425-17.727h54.695l2.134 17.727"/><path fill="#000" d="M119.159 243.079c-.07 0-.14 0-.21-.01a1.496 1.496 0 0 1-1.283-1.693l2.425-17.727c.1-.742.742-1.303 1.493-1.303h54.705c.761 0 1.403.571 1.493 1.323l2.134 17.727a1.506 1.506 0 0 1-1.312 1.673 1.51 1.51 0 0 1-1.674-1.312l-1.974-16.405h-52.059l-2.245 16.425a1.51 1.51 0 0 1-1.483 1.302z"/><path fill="#FFFBE8" d="m6.293 11.915 24.04-10.402h229.22l23.269 10.402z"/><path fill="#000" d="M282.822 13.418H6.283a1.505 1.505 0 0 1-.601-2.886L29.732.12q.285-.12.602-.12h229.219c.21 0 .421.04.611.13l23.269 10.412c.651.29 1.002.992.852 1.684a1.51 1.51 0 0 1-1.473 1.192zM13.548 10.412h262.239l-16.555-7.406H30.654z"/><path fill="#000" d="M250.785 232.657a1.504 1.504 0 0 1-1.123-2.505l16.545-18.469a1.505 1.505 0 0 1 2.245 2.004l-16.545 18.469a1.52 1.52 0 0 1-1.122.501"/><path fill="#000" d="M27.558 232.657a1.505 1.505 0 0 1-1.122-2.505l16.544-18.469a1.506 1.506 0 0 1 2.245 2.004L28.68 232.156c-.3.331-.711.501-1.122.501"/></svg>