<svg xmlns="http://www.w3.org/2000/svg" width="668" height="427" fill="none" viewBox="0 0 668 427"><path fill="#191917" d="M429.098 1.51H77.523c-21.711 0-39.312 17.6-39.312 39.312v255.386c0 21.712 17.6 39.312 39.312 39.312h351.575c21.711 0 39.312-17.6 39.312-39.312V40.822c0-21.711-17.601-39.312-39.312-39.312"/><path fill="#EBEBEB" d="M429.108 337.021H77.523c-22.497 0-40.812-18.306-40.812-40.812V40.812C36.71 18.316 55.016 0 77.523 0h351.585c22.497 0 40.812 18.306 40.812 40.812V296.21c0 22.496-18.305 40.812-40.812 40.812M77.523 3.011c-20.846 0-37.811 16.965-37.811 37.811V296.22c0 20.846 16.955 37.811 37.81 37.811h351.586c20.846 0 37.811-16.965 37.811-37.811V40.812c0-20.846-16.955-37.811-37.811-37.811H77.523z"/><path fill="#191917" d="M425.757 252.216H83.475c-10.933 0-19.796 8.863-19.796 19.796v27.518c0 10.933 8.863 19.796 19.796 19.796h342.282c10.933 0 19.796-8.863 19.796-19.796v-27.518c0-10.933-8.863-19.796-19.796-19.796"/><path fill="#EBEBEB" d="M425.747 320.826H83.475c-11.744 0-21.297-9.553-21.297-21.296v-27.508c0-11.744 9.553-21.297 21.297-21.297h342.272c11.743 0 21.296 9.553 21.296 21.297v27.508c0 11.743-9.553 21.296-21.296 21.296m-342.272-67.11c-10.093 0-18.296 8.213-18.296 18.296v27.508c0 10.093 8.213 18.295 18.296 18.295h342.272c10.093 0 18.295-8.212 18.295-18.295v-27.508c0-10.093-8.212-18.296-18.295-18.296z"/><path fill="#EE6DBB" d="M362.518 284.135h-2.811v-5.251h-6.522v-3.321h-7.342v3.321h-6.382v5.251h-2.77v5.162h2.77v4.671h20.246v-4.671h2.811z"/><path fill="#EBEBEB" d="M359.707 295.469h-20.246c-.83 0-1.5-.671-1.5-1.501v-3.161h-1.27c-.831 0-1.501-.67-1.501-1.5v-5.162c0-.83.67-1.5 1.501-1.5h1.27v-3.751c0-.831.67-1.501 1.5-1.501h4.882v-1.82c0-.831.67-1.501 1.5-1.501h7.342c.831 0 1.501.67 1.501 1.501v1.82h5.021c.831 0 1.501.67 1.501 1.501v3.751h1.31c.83 0 1.501.67 1.501 1.5v5.162c0 .83-.671 1.5-1.501 1.5h-1.31v3.161a1.5 1.5 0 0 1-1.501 1.501m-18.745-3.001h17.245v-3.161c0-.831.67-1.501 1.5-1.501h1.311v-2.16h-1.311c-.83 0-1.5-.671-1.5-1.501v-3.751h-5.022c-.83 0-1.5-.67-1.5-1.5v-1.821h-4.341v1.821c0 .83-.671 1.5-1.501 1.5h-4.881v3.751a1.5 1.5 0 0 1-1.501 1.501h-1.27v2.16h1.27c.831 0 1.501.67 1.501 1.501z"/><path fill="#191917" d="M332.189 284.135h-2.811v-5.251h-6.522v-3.321h-7.342v3.321h-6.382v5.251h-2.771v5.162h2.771v4.671h20.246v-4.671h2.811z"/><path fill="#EBEBEB" d="M329.378 295.469h-20.246c-.83 0-1.5-.671-1.5-1.501v-3.161h-1.271c-.83 0-1.5-.67-1.5-1.5v-5.162c0-.83.67-1.5 1.5-1.5h1.271v-3.751c0-.831.67-1.501 1.5-1.501h4.882v-1.82c0-.831.67-1.501 1.5-1.501h7.342c.831 0 1.501.67 1.501 1.501v1.82h5.021c.831 0 1.501.67 1.501 1.501v3.751h1.31c.83 0 1.501.67 1.501 1.5v5.162c0 .83-.671 1.5-1.501 1.5h-1.31v3.161a1.5 1.5 0 0 1-1.501 1.501m-18.745-3.001h17.245v-3.161c0-.831.67-1.501 1.5-1.501h1.311v-2.16h-1.311c-.83 0-1.5-.671-1.5-1.501v-3.751h-5.022c-.83 0-1.5-.67-1.5-1.5v-1.821h-4.341v1.821c0 .83-.671 1.5-1.501 1.5h-4.881v3.751a1.5 1.5 0 0 1-1.501 1.501h-1.27v2.16h1.27a1.5 1.5 0 0 1 1.501 1.501z"/><path fill="#191917" d="M137.961 293.968h20.246v-15.085h-20.246z"/><path fill="#EBEBEB" d="M158.207 295.468h-20.246c-.83 0-1.501-.67-1.501-1.5v-15.085c0-.83.671-1.5 1.501-1.5h20.246c.83 0 1.5.67 1.5 1.5v15.085c0 .83-.67 1.5-1.5 1.5m-18.756-3.001h17.246v-12.083h-17.246z"/><path fill="#191917" d="M135.18 289.296h25.828v-5.161H135.18z"/><path fill="#EBEBEB" d="M161.008 290.797H135.18c-.83 0-1.5-.67-1.5-1.501v-5.161c0-.83.67-1.501 1.5-1.501h25.828c.83 0 1.5.671 1.5 1.501v5.161c0 .831-.67 1.501-1.5 1.501m-24.327-3.001h22.826v-2.161h-22.826z"/><path fill="#191917" d="M151.675 293.959v-18.406h-7.342v18.406z"/><path fill="#EBEBEB" d="M151.675 295.469h-7.342a1.5 1.5 0 0 1-1.501-1.501v-18.405a1.5 1.5 0 0 1 1.501-1.501h7.342a1.5 1.5 0 0 1 1.501 1.501v18.405a1.5 1.5 0 0 1-1.501 1.501m-5.842-3.001h4.342v-15.405h-4.342z"/><path fill="#191917" d="M107.622 293.968h20.246v-15.085h-20.246z"/><path fill="#EBEBEB" d="M127.868 295.468h-20.246c-.83 0-1.501-.67-1.501-1.5v-15.085c0-.83.671-1.5 1.501-1.5h20.246c.83 0 1.5.67 1.5 1.5v15.085c0 .83-.67 1.5-1.5 1.5m-18.746-3.001h17.245v-12.083h-17.245z"/><path fill="#191917" d="M104.851 289.296h25.828v-5.161h-25.828z"/><path fill="#EBEBEB" d="M130.679 290.797h-25.828c-.83 0-1.5-.67-1.5-1.501v-5.161c0-.83.67-1.501 1.5-1.501h25.828c.83 0 1.5.671 1.5 1.501v5.161c0 .831-.67 1.501-1.5 1.501m-24.327-3.001h22.826v-2.161h-22.826z"/><path fill="#191917" d="M121.346 293.968v-18.405h-7.342v18.405z"/><path fill="#EBEBEB" d="M121.346 295.469h-7.342a1.5 1.5 0 0 1-1.501-1.501v-18.405a1.5 1.5 0 0 1 1.501-1.501h7.342c.83 0 1.5.671 1.5 1.501v18.405c0 .831-.67 1.501-1.5 1.501m-5.842-3.001h4.342v-15.405h-4.342z"/><path fill="#191917" d="M77.293 293.968h20.246v-15.085H77.293z"/><path fill="#EBEBEB" d="M97.539 295.468H77.293c-.83 0-1.5-.67-1.5-1.5v-15.085c0-.83.67-1.5 1.5-1.5h20.246c.83 0 1.5.67 1.5 1.5v15.085c0 .83-.67 1.5-1.5 1.5m-18.746-3.001h17.245v-12.083H78.794z"/><path fill="#191917" d="M74.512 289.296h25.828v-5.161H74.512z"/><path fill="#EBEBEB" d="M100.35 290.797H74.522c-.83 0-1.5-.67-1.5-1.501v-5.161a1.5 1.5 0 0 1 1.5-1.501h25.828c.83 0 1.5.671 1.5 1.501v5.161c0 .831-.67 1.501-1.5 1.501m-24.327-3.001h22.826v-2.161H76.022z"/><path fill="#191917" d="M91.017 293.968v-18.405h-7.342v18.405z"/><path fill="#EBEBEB" d="M91.017 295.469h-7.342c-.83 0-1.5-.67-1.5-1.501v-18.405a1.5 1.5 0 0 1 1.5-1.501h7.342c.83 0 1.5.671 1.5 1.501v18.405c0 .831-.67 1.501-1.5 1.501m-5.842-3.001h4.341v-15.405h-4.34z"/><path fill="#191917" d="M161.008 284.135h-2.801v-5.251h-6.532v-3.321h-7.342v3.321h-6.382v5.251h-2.771v5.162h2.771v4.671h20.256v-4.671h2.801z"/><path fill="#EBEBEB" d="M158.207 295.469h-20.246a1.5 1.5 0 0 1-1.501-1.501v-3.161h-1.27c-.83 0-1.5-.67-1.5-1.5v-5.162c0-.83.67-1.5 1.5-1.5h1.27v-3.751a1.5 1.5 0 0 1 1.501-1.501h4.881v-1.82a1.5 1.5 0 0 1 1.501-1.501h7.342c.83 0 1.5.67 1.5 1.501v1.82h5.022c.83 0 1.5.67 1.5 1.501v3.751h1.311c.83 0 1.5.67 1.5 1.5v5.162c0 .83-.67 1.5-1.5 1.5h-1.311v3.161c0 .83-.67 1.501-1.5 1.501m-18.756-3.001h17.246v-3.161c0-.831.67-1.501 1.5-1.501h1.31v-2.16h-1.31c-.83 0-1.5-.671-1.5-1.501v-3.751h-5.022c-.83 0-1.5-.67-1.5-1.5v-1.821h-4.342v1.821c0 .83-.67 1.5-1.5 1.5h-4.882v3.751c0 .83-.67 1.501-1.5 1.501h-1.27v2.16h1.27c.83 0 1.5.67 1.5 1.501z"/><path fill="#191917" d="M104.851 289.296h25.828v-5.161h-25.828z"/><path fill="#EBEBEB" d="M130.679 290.797h-25.828c-.83 0-1.5-.67-1.5-1.501v-5.161c0-.83.67-1.501 1.5-1.501h25.828c.83 0 1.5.671 1.5 1.501v5.161c0 .831-.67 1.501-1.5 1.501m-24.327-3.001h22.826v-2.161h-22.826z"/><path fill="#8CBA3B" d="M121.346 278.884v-3.321h-7.342v3.321h-6.382v15.084h20.246v-15.084z"/><path fill="#EBEBEB" d="M127.868 295.469h-20.246a1.5 1.5 0 0 1-1.501-1.501v-15.084a1.5 1.5 0 0 1 1.501-1.501h4.881v-1.82a1.5 1.5 0 0 1 1.501-1.501h7.342c.83 0 1.5.671 1.5 1.501v1.82h5.022c.83 0 1.5.671 1.5 1.501v15.084c0 .831-.67 1.501-1.5 1.501m-18.746-3.001h17.245v-12.084h-5.021c-.83 0-1.501-.67-1.501-1.5v-1.821h-4.341v1.821c0 .83-.67 1.5-1.5 1.5h-4.882z"/><path fill="#191917" d="M74.512 289.296h25.828v-5.161H74.512z"/><path fill="#EBEBEB" d="M100.35 290.797H74.522c-.83 0-1.5-.67-1.5-1.501v-5.161a1.5 1.5 0 0 1 1.5-1.501h25.828c.83 0 1.5.671 1.5 1.501v5.161c0 .831-.67 1.501-1.5 1.501m-24.327-3.001h22.826v-2.161H76.022z"/><path fill="#8CBA3B" d="M91.017 278.884v-3.321h-7.342v3.321h-6.382v15.084h20.246v-15.084z"/><path fill="#EBEBEB" d="M97.539 295.469H77.293c-.83 0-1.5-.67-1.5-1.501v-15.084a1.5 1.5 0 0 1 1.5-1.501h4.881v-1.82a1.5 1.5 0 0 1 1.5-1.501h7.343c.83 0 1.5.671 1.5 1.501v1.82h5.022c.83 0 1.5.671 1.5 1.501v15.084c0 .831-.67 1.501-1.5 1.501m-18.746-3.001h17.245v-12.084h-5.021c-.83 0-1.5-.67-1.5-1.5v-1.821h-4.342v1.821c0 .83-.67 1.5-1.5 1.5h-4.882z"/><path fill="#191917" d="M302.32 284.135h-2.811v-5.251h-6.522v-3.321h-7.342v3.321h-6.382v5.251h-2.771v5.162h2.771v4.671h20.246v-4.671h2.811z"/><path fill="#EBEBEB" d="M299.509 295.469h-20.246c-.83 0-1.5-.671-1.5-1.501v-3.161h-1.271c-.83 0-1.5-.67-1.5-1.5v-5.162c0-.83.67-1.5 1.5-1.5h1.271v-3.751c0-.831.67-1.501 1.5-1.501h4.882v-1.82c0-.831.67-1.501 1.5-1.501h7.342a1.5 1.5 0 0 1 1.501 1.501v1.82h5.021a1.5 1.5 0 0 1 1.501 1.501v3.751h1.31c.83 0 1.5.67 1.5 1.5v5.162c0 .83-.67 1.5-1.5 1.5h-1.31v3.161a1.5 1.5 0 0 1-1.501 1.501m-18.745-3.001h17.245v-3.161c0-.831.67-1.501 1.5-1.501h1.311v-2.16h-1.311c-.83 0-1.5-.671-1.5-1.501v-3.751h-5.022c-.83 0-1.5-.67-1.5-1.5v-1.821h-4.341v1.821c0 .83-.671 1.5-1.501 1.5h-4.881v3.751a1.5 1.5 0 0 1-1.501 1.501h-1.27v2.16h1.27a1.5 1.5 0 0 1 1.501 1.501z"/><path fill="#191917" d="M271.981 284.135h-2.801v-5.251h-6.522v-3.321h-7.342v3.321h-6.382v5.251h-2.771v5.162h2.771v4.671h20.246v-4.671h2.801z"/><path fill="#EBEBEB" d="M269.18 295.469h-20.246c-.83 0-1.5-.671-1.5-1.501v-3.161h-1.271c-.83 0-1.5-.67-1.5-1.5v-5.162c0-.83.67-1.5 1.5-1.5h1.271v-3.751c0-.831.67-1.501 1.5-1.501h4.881v-1.82a1.5 1.5 0 0 1 1.501-1.501h7.342a1.5 1.5 0 0 1 1.501 1.501v1.82h5.021a1.5 1.5 0 0 1 1.501 1.501v3.751h1.31c.83 0 1.5.67 1.5 1.5v5.162c0 .83-.67 1.5-1.5 1.5h-1.31v3.161a1.5 1.5 0 0 1-1.501 1.501m-18.746-3.001h17.246v-3.161c0-.831.67-1.501 1.5-1.501h1.31v-2.16h-1.31c-.83 0-1.5-.671-1.5-1.501v-3.751h-5.022c-.83 0-1.5-.67-1.5-1.5v-1.821h-4.342v1.821c0 .83-.67 1.5-1.5 1.5h-4.882v3.751c0 .83-.67 1.501-1.5 1.501h-1.27v2.16h1.27c.83 0 1.5.67 1.5 1.501z"/><path fill="#191917" d="M241.652 284.135h-2.801v-5.251h-6.522v-3.321h-7.352v3.321h-6.382v5.251h-2.771v5.162h2.771v4.671h20.256v-4.671h2.801z"/><path fill="#EBEBEB" d="M238.851 295.469h-20.246c-.83 0-1.5-.671-1.5-1.501v-3.161h-1.271c-.83 0-1.5-.67-1.5-1.5v-5.162c0-.83.67-1.5 1.5-1.5h1.271v-3.751c0-.831.67-1.501 1.5-1.501h4.882v-1.82c0-.831.67-1.501 1.5-1.501h7.342a1.5 1.5 0 0 1 1.501 1.501v1.82h5.021a1.5 1.5 0 0 1 1.501 1.501v3.751h1.31c.83 0 1.5.67 1.5 1.5v5.162c0 .83-.67 1.5-1.5 1.5h-1.31v3.161a1.5 1.5 0 0 1-1.501 1.501m-18.755-3.001h17.245v-3.161c0-.831.67-1.501 1.5-1.501h1.311v-2.16h-1.311c-.83 0-1.5-.671-1.5-1.501v-3.751h-5.022c-.83 0-1.5-.67-1.5-1.5v-1.821h-4.342v1.821c0 .83-.67 1.5-1.5 1.5h-4.881v3.751a1.5 1.5 0 0 1-1.501 1.501h-1.27v2.16h1.27a1.5 1.5 0 0 1 1.501 1.501z"/><path fill="#191917" d="M381.014 124.188H122.386a8.26 8.26 0 0 0-8.262 8.262v71.751a8.26 8.26 0 0 0 8.262 8.263h258.628a8.26 8.26 0 0 0 8.262-8.263V132.45a8.26 8.26 0 0 0-8.262-8.262"/><path fill="#EBEBEB" d="M381.014 213.964H122.386c-5.381 0-9.763-4.381-9.763-9.763V132.46c0-5.382 4.382-9.763 9.763-9.763h258.628c5.381 0 9.762 4.381 9.762 9.763v71.741c0 5.382-4.381 9.763-9.762 9.763m-258.628-88.276a6.767 6.767 0 0 0-6.762 6.762v71.741a6.767 6.767 0 0 0 6.762 6.762h258.628a6.767 6.767 0 0 0 6.762-6.762V132.45a6.767 6.767 0 0 0-6.762-6.762z"/><path fill="#EBEBEB" d="M73.342 87.486c-.83 0-1.5-.67-1.5-1.5v-60.92c0-.83.67-1.5 1.5-1.5s1.5.67 1.5 1.5v60.918c0 .83-.67 1.5-1.5 1.5"/><path fill="#EBEBEB" d="M87.176 87.486c-.83 0-1.5-.67-1.5-1.5v-60.92c0-.83.67-1.5 1.5-1.5s1.5.67 1.5 1.5v60.918c0 .83-.67 1.5-1.5 1.5"/><path fill="#EBEBEB" d="M101.02 87.486c-.83 0-1.5-.67-1.5-1.5v-60.92c0-.83.67-1.5 1.5-1.5s1.5.67 1.5 1.5v60.918c0 .83-.67 1.5-1.5 1.5"/><path fill="#EBEBEB" d="M114.854 87.486c-.83 0-1.5-.67-1.5-1.5v-60.92c0-.83.67-1.5 1.5-1.5a1.5 1.5 0 0 1 1.501 1.5v60.918a1.5 1.5 0 0 1-1.501 1.5"/><path fill="#EBEBEB" d="M128.688 87.486c-.83 0-1.5-.67-1.5-1.5v-60.92c0-.83.67-1.5 1.5-1.5a1.5 1.5 0 0 1 1.501 1.5v60.918a1.5 1.5 0 0 1-1.501 1.5"/><path fill="#EBEBEB" d="M142.532 87.486c-.83 0-1.5-.67-1.5-1.5v-60.92c0-.83.67-1.5 1.5-1.5.831 0 1.501.67 1.501 1.5v60.918c0 .83-.67 1.5-1.501 1.5"/><path fill="#EBEBEB" d="M156.367 87.486c-.831 0-1.501-.67-1.501-1.5v-60.92c0-.83.67-1.5 1.501-1.5s1.5.67 1.5 1.5v60.918c0 .83-.67 1.5-1.5 1.5"/><path fill="#EBEBEB" d="M170.211 87.486c-.831 0-1.501-.67-1.501-1.5v-60.92c0-.83.67-1.5 1.501-1.5s1.5.67 1.5 1.5v60.918c0 .83-.67 1.5-1.5 1.5"/><path fill="#EBEBEB" d="M184.045 87.486a1.5 1.5 0 0 1-1.501-1.5v-60.92c0-.83.671-1.5 1.501-1.5s1.5.67 1.5 1.5v60.918c0 .83-.67 1.5-1.5 1.5"/><path fill="#EBEBEB" d="M197.889 87.486a1.5 1.5 0 0 1-1.501-1.5v-60.92c0-.83.671-1.5 1.501-1.5s1.5.67 1.5 1.5v60.918c0 .83-.67 1.5-1.5 1.5"/><path fill="#EBEBEB" d="M211.723 87.486c-.83 0-1.5-.67-1.5-1.5v-60.92c0-.83.67-1.5 1.5-1.5s1.5.67 1.5 1.5v60.918c0 .83-.67 1.5-1.5 1.5"/><path fill="#EBEBEB" d="M225.557 87.486c-.83 0-1.5-.67-1.5-1.5v-60.92c0-.83.67-1.5 1.5-1.5a1.5 1.5 0 0 1 1.501 1.5v60.918a1.5 1.5 0 0 1-1.501 1.5"/><path fill="#EBEBEB" d="M239.401 87.486c-.83 0-1.5-.67-1.5-1.5v-60.92c0-.83.67-1.5 1.5-1.5a1.5 1.5 0 0 1 1.501 1.5v60.918a1.5 1.5 0 0 1-1.501 1.5"/><path fill="#EBEBEB" d="M253.235 87.486c-.83 0-1.5-.67-1.5-1.5v-60.92c0-.83.67-1.5 1.5-1.5.831 0 1.501.67 1.501 1.5v60.918c0 .83-.67 1.5-1.501 1.5"/><path fill="#EBEBEB" d="M267.08 87.486c-.831 0-1.501-.67-1.501-1.5v-60.92c0-.83.67-1.5 1.501-1.5s1.5.67 1.5 1.5v60.918c0 .83-.67 1.5-1.5 1.5"/><path fill="#EBEBEB" d="M280.914 87.486c-.831 0-1.501-.67-1.501-1.5v-60.92c0-.83.67-1.5 1.501-1.5s1.5.67 1.5 1.5v60.918c0 .83-.67 1.5-1.5 1.5"/><path fill="#EBEBEB" d="M294.758 87.486a1.5 1.5 0 0 1-1.501-1.5v-60.92c0-.83.671-1.5 1.501-1.5s1.5.67 1.5 1.5v60.918c0 .83-.67 1.5-1.5 1.5"/><path fill="#EBEBEB" d="M308.592 87.486c-.83 0-1.5-.67-1.5-1.5v-60.92c0-.83.67-1.5 1.5-1.5s1.5.67 1.5 1.5v60.918c0 .83-.67 1.5-1.5 1.5"/><path fill="#EBEBEB" d="M322.426 87.486c-.83 0-1.5-.67-1.5-1.5v-60.92c0-.83.67-1.5 1.5-1.5s1.5.67 1.5 1.5v60.918c0 .83-.67 1.5-1.5 1.5"/><path fill="#EBEBEB" d="M336.27 87.486c-.83 0-1.5-.67-1.5-1.5v-60.92c0-.83.67-1.5 1.5-1.5a1.5 1.5 0 0 1 1.501 1.5v60.918a1.5 1.5 0 0 1-1.501 1.5"/><path fill="#EBEBEB" d="M350.104 87.486c-.83 0-1.5-.67-1.5-1.5v-60.92c0-.83.67-1.5 1.5-1.5.831 0 1.501.67 1.501 1.5v60.918c0 .83-.67 1.5-1.501 1.5"/><path fill="#EBEBEB" d="M363.949 87.486c-.831 0-1.501-.67-1.501-1.5v-60.92c0-.83.67-1.5 1.501-1.5s1.5.67 1.5 1.5v60.918c0 .83-.67 1.5-1.5 1.5"/><path fill="#EBEBEB" d="M377.783 87.486c-.831 0-1.501-.67-1.501-1.5v-60.92c0-.83.67-1.5 1.501-1.5s1.5.67 1.5 1.5v60.918c0 .83-.67 1.5-1.5 1.5"/><path fill="#EBEBEB" d="M391.627 87.486a1.5 1.5 0 0 1-1.501-1.5v-60.92c0-.83.671-1.5 1.501-1.5s1.5.67 1.5 1.5v60.918c0 .83-.67 1.5-1.5 1.5"/><path fill="#EBEBEB" d="M405.461 87.486c-.83 0-1.5-.67-1.5-1.5v-60.92c0-.83.67-1.5 1.5-1.5a1.5 1.5 0 0 1 1.501 1.5v60.918a1.5 1.5 0 0 1-1.501 1.5"/><path fill="#EBEBEB" d="M419.295 87.486c-.83 0-1.5-.67-1.5-1.5v-60.92c0-.83.67-1.5 1.5-1.5s1.5.67 1.5 1.5v60.918c0 .83-.67 1.5-1.5 1.5"/><path fill="#EBEBEB" d="M433.139 87.486c-.83 0-1.5-.67-1.5-1.5v-60.92c0-.83.67-1.5 1.5-1.5.831 0 1.501.67 1.501 1.5v60.918c0 .83-.67 1.5-1.501 1.5"/><path fill="#191917" d="M433.139 154.106v-8.633c0-3.331-2.721-6.051-6.052-6.051s-6.051 2.72-6.051 6.051v8.763c-4.882 2.321-8.263 7.292-8.263 13.064 0 7.982 6.472 14.454 14.454 14.454s14.455-6.472 14.455-14.454c0-5.872-3.511-10.923-8.543-13.184z"/><path fill="#EBEBEB" d="M427.217 183.245c-8.802 0-15.954-7.162-15.954-15.955 0-5.802 3.211-11.193 8.262-13.974v-7.843c0-4.171 3.391-7.552 7.552-7.552 4.162 0 7.553 3.391 7.553 7.552v7.693a15.98 15.98 0 0 1 8.542 14.124c0 8.793-7.162 15.955-15.955 15.955m-.14-42.333a4.555 4.555 0 0 0-4.551 4.551v8.763c0 .58-.33 1.11-.86 1.35-4.502 2.141-7.403 6.732-7.403 11.704 0 7.142 5.812 12.954 12.954 12.954s12.954-5.812 12.954-12.954c0-5.092-3.001-9.733-7.652-11.824-.54-.24-.89-.78-.89-1.37v-8.633a4.556 4.556 0 0 0-4.552-4.551z"/><path fill="#191917" d="M84.045 154.106v-8.633c0-3.331-2.721-6.051-6.052-6.051s-6.052 2.72-6.052 6.051v8.763c-4.881 2.321-8.262 7.292-8.262 13.064 0 7.982 6.472 14.454 14.454 14.454s14.454-6.472 14.454-14.454c0-5.872-3.51-10.923-8.542-13.184z"/><path fill="#EBEBEB" d="M78.133 183.245c-8.803 0-15.955-7.162-15.955-15.955 0-5.802 3.211-11.193 8.263-13.974v-7.843c0-4.171 3.39-7.552 7.552-7.552s7.552 3.391 7.552 7.552v7.693a15.98 15.98 0 0 1 8.543 14.124c0 8.793-7.162 15.955-15.955 15.955m-.14-42.333a4.555 4.555 0 0 0-4.551 4.551v8.763c0 .58-.33 1.11-.86 1.35-4.502 2.141-7.403 6.732-7.403 11.704 0 7.142 5.812 12.954 12.954 12.954s12.954-5.812 12.954-12.954c0-5.092-3.001-9.733-7.652-11.824-.54-.24-.89-.78-.89-1.37v-8.633a4.556 4.556 0 0 0-4.552-4.551z"/><path fill="#191917" d="M395.428 275.562h-17.035v21.226h17.035z"/><path fill="#EBEBEB" d="M395.428 298.279h-17.035a1.5 1.5 0 0 1-1.501-1.501v-21.226c0-.83.671-1.5 1.501-1.5h17.035c.83 0 1.5.67 1.5 1.5v21.226c0 .831-.67 1.501-1.5 1.501m-15.535-3.001h14.035v-18.225h-14.035z"/><path fill="#191917" d="M426.287 296.319a8.953 8.953 0 1 0 0-17.906 8.953 8.953 0 0 0 0 17.906"/><path fill="#EBEBEB" d="M426.287 297.819c-5.762 0-10.453-4.691-10.453-10.453s4.691-10.453 10.453-10.453 10.453 4.691 10.453 10.453-4.691 10.453-10.453 10.453m0-17.895a7.46 7.46 0 0 0-7.452 7.452 7.46 7.46 0 0 0 7.452 7.452 7.46 7.46 0 0 0 7.452-7.452 7.46 7.46 0 0 0-7.452-7.452"/><path fill="#191917" d="M204.681 268.39h-14.194v28.648h14.194z"/><path fill="#EBEBEB" d="M204.681 298.539h-14.194c-.831 0-1.501-.67-1.501-1.501V268.39a1.5 1.5 0 0 1 1.501-1.501h14.194c.83 0 1.5.671 1.5 1.501v28.648c0 .831-.67 1.501-1.5 1.501m-12.694-3.001h11.193V269.89h-11.193z"/><path fill="#EBEBEB" d="M510.623 426.468c-47.634 0-86.376-38.752-86.376-86.376 0-.83.67-1.501 1.5-1.501a1.5 1.5 0 0 1 1.501 1.501c0 45.974 37.401 83.375 83.375 83.375s83.375-37.401 83.375-83.375a1.5 1.5 0 1 1 3.001 0c0 47.634-38.752 86.376-86.376 86.376"/><path fill="#191917" d="M653.606 186.676H534.45c-7.121 0-12.894 5.773-12.894 12.894v117.205c0 7.121 5.773 12.894 12.894 12.894h119.156c7.121 0 12.893-5.773 12.893-12.894V199.57c0-7.121-5.772-12.894-12.893-12.894"/><path fill="#EBEBEB" d="M653.606 331.159H534.45c-7.932 0-14.394-6.452-14.394-14.394V199.56c0-7.932 6.452-14.394 14.394-14.394h119.156c7.932 0 14.394 6.452 14.394 14.394v117.205c0 7.932-6.452 14.394-14.394 14.394M534.45 188.177c-6.282 0-11.393 5.111-11.393 11.393v117.205c0 6.282 5.111 11.393 11.393 11.393h119.156c6.281 0 11.393-5.111 11.393-11.393V199.57c0-6.282-5.112-11.393-11.393-11.393z"/><path fill="#191917" d="M562.228 312.134h63.589c7.607 0 13.774-6.167 13.774-13.774v-80.384c0-7.607-6.167-13.774-13.774-13.774h-63.589c-7.607 0-13.774 6.167-13.774 13.774v80.384c0 7.607 6.167 13.774 13.774 13.774"/><path fill="#EBEBEB" d="M625.827 313.634h-63.599c-8.422 0-15.274-6.852-15.274-15.274v-80.394c0-8.423 6.852-15.265 15.274-15.265h63.599c8.423 0 15.275 6.852 15.275 15.275v80.394c0 8.422-6.852 15.274-15.275 15.274zm-63.599-107.932c-6.762 0-12.274 5.502-12.274 12.264v80.394c0 6.762 5.502 12.273 12.274 12.273h63.599c6.762 0 12.274-5.501 12.274-12.273v-80.394c0-6.762-5.502-12.274-12.274-12.274h-63.599z"/><path fill="#191917" d="M562.228 312.134h63.589c7.607 0 13.774-6.167 13.774-13.774v-80.384c0-7.607-6.167-13.774-13.774-13.774h-63.589c-7.607 0-13.774 6.167-13.774 13.774v80.384c0 7.607 6.167 13.774 13.774 13.774"/><path fill="#EBEBEB" d="M625.827 313.634h-63.599c-8.422 0-15.274-6.852-15.274-15.274v-80.394c0-8.423 6.852-15.265 15.274-15.265h63.599c8.423 0 15.275 6.852 15.275 15.275v80.394c0 8.422-6.852 15.274-15.275 15.274zm-63.599-107.932c-6.762 0-12.274 5.502-12.274 12.264v80.394c0 6.762 5.502 12.273 12.274 12.273h63.599c6.762 0 12.274-5.501 12.274-12.273v-80.394c0-6.762-5.502-12.274-12.274-12.274h-63.599z"/><path fill="#191917" d="M596.409 345.713h-1.911a5.114 5.114 0 0 1-5.111-5.112v-26.428c0-.55.44-.99.99-.99h10.153c.55 0 .99.44.99.99v26.428a5.115 5.115 0 0 1-5.111 5.112"/><path fill="#EBEBEB" d="M596.409 347.214h-1.911c-3.641 0-6.612-2.971-6.612-6.612v-26.428a2.497 2.497 0 0 1 2.491-2.491h10.153c1.37 0 2.49 1.12 2.49 2.491v26.428a6.62 6.62 0 0 1-6.611 6.612m-5.512-32.54v25.918c0 1.99 1.62 3.611 3.611 3.611h1.911a3.617 3.617 0 0 0 3.611-3.611v-25.918z"/><path fill="#191917" d="M421.306 305.241v19.366h8.743v-19.366z"/><path fill="#EBEBEB" d="M421.316 326.118a1.5 1.5 0 0 1-1.5-1.501v-19.366c0-.83.67-1.5 1.5-1.5h8.743a1.5 1.5 0 0 1 1.5 1.5v19.366c0 .83-.67 1.501-1.5 1.501zm1.501-19.356v16.365h5.741v-16.365z"/><path fill="#191917" d="M535.1 262.719a4.552 4.552 0 1 0 0-9.104 4.552 4.552 0 0 0 0 9.104"/><path fill="#EBEBEB" d="M535.1 264.219a6.054 6.054 0 0 1-6.052-6.052 6.054 6.054 0 0 1 6.052-6.052 6.054 6.054 0 0 1 6.052 6.052 6.054 6.054 0 0 1-6.052 6.052m0-9.103a3.057 3.057 0 0 0-3.051 3.051 3.057 3.057 0 0 0 3.051 3.051 3.056 3.056 0 0 0 3.051-3.051c0-1.68-1.37-3.051-3.051-3.051"/><path fill="#191917" d="M654.376 262.719a4.552 4.552 0 1 0-.002-9.104 4.552 4.552 0 0 0 .002 9.104"/><path fill="#EBEBEB" d="M654.376 264.219a6.054 6.054 0 0 1-6.052-6.052 6.054 6.054 0 0 1 6.052-6.052 6.054 6.054 0 0 1 6.052 6.052 6.054 6.054 0 0 1-6.052 6.052m0-9.103a3.057 3.057 0 0 0-3.051 3.051 3.056 3.056 0 0 0 3.051 3.051c1.68 0 3.051-1.37 3.051-3.051a3.057 3.057 0 0 0-3.051-3.051"/><path fill="#191917" d="M418.735 313.815h13.904v16.474l-1.75 3.271v6.552h-9.823v-6.552l-2.331-3.151z"/><path fill="#EBEBEB" d="M430.889 341.613h-9.813c-.83 0-1.5-.67-1.5-1.501v-6.051l-2.041-2.761c-.19-.26-.29-.57-.29-.891v-16.594c0-.831.67-1.501 1.5-1.501h13.904c.831 0 1.501.67 1.501 1.501v16.474c0 .251-.06.491-.18.711l-1.571 2.941v6.171c0 .831-.67 1.501-1.5 1.501zm-8.323-3.001h6.812v-5.042c0-.25.061-.49.181-.71l1.57-2.941v-14.604h-10.903v14.594l2.04 2.761c.19.26.29.57.29.89v5.042z"/><path fill="#191917" d="M1.5 386.426h96.3c25.547 0 46.263-20.716 46.263-46.264h10.013c0 31.08-25.197 56.277-56.277 56.277H1.5"/><path fill="#EBEBEB" d="M97.8 397.94H1.5a1.5 1.5 0 0 1-1.5-1.501c0-.83.67-1.5 1.5-1.5h96.3c29.698 0 53.965-23.767 54.756-53.276h-7.012c-.791 25.647-21.907 46.264-47.745 46.264H1.5a1.5 1.5 0 0 1-1.5-1.501c0-.83.67-1.5 1.5-1.5h96.3c24.687 0 44.763-20.086 44.763-44.764 0-.83.67-1.5 1.5-1.5h10.013c.4 0 .78.16 1.06.44s.441.66.441 1.06c0 31.86-25.918 57.778-57.778 57.778"/><path fill="#191917" d="M142.923 311.064h-4.832c-1.1 0-1.98.89-1.98 1.98v18.486l-5.402 12.344h4.681l5.462-12.464h16.275"/><path fill="#EBEBEB" d="M135.381 345.374h-4.682c-.51 0-.98-.26-1.26-.68s-.32-.96-.12-1.42l5.271-12.064v-18.175a3.484 3.484 0 0 1 3.481-3.482h4.832c.83 0 1.5.671 1.5 1.501s-.67 1.5-1.5 1.5h-4.832a.48.48 0 0 0-.48.481v18.485c0 .21-.04.41-.13.6l-4.481 10.243h1.41l5.072-11.563c.24-.55.78-.9 1.37-.9h16.275c.83 0 1.5.67 1.5 1.5s-.67 1.5-1.5 1.5h-15.295l-5.071 11.564c-.24.55-.78.9-1.371.9z"/><path fill="#191917" d="M157.337 312.744v28.419c0 .93-.76 1.69-1.691 1.69h-13.233c-.931 0-1.691-.76-1.691-1.69v-28.419c0-.93.76-1.69 1.691-1.69h13.233c.931 0 1.691.76 1.691 1.69"/><path fill="#EBEBEB" d="M155.646 344.364h-13.233a3.193 3.193 0 0 1-3.191-3.191v-28.429c0-1.76 1.43-3.191 3.191-3.191h13.233a3.193 3.193 0 0 1 3.191 3.191v28.429c0 1.76-1.43 3.191-3.191 3.191m-13.233-31.8a.19.19 0 0 0-.191.19v28.429c0 .1.08.19.191.19h13.233c.1 0 .191-.08.191-.19v-28.429a.19.19 0 0 0-.191-.19z"/><path fill="#191917" d="M145.974 311.624v9.193h6.121v-9.193"/><path fill="#EBEBEB" d="M152.095 322.318h-6.121a1.5 1.5 0 0 1-1.501-1.501v-9.193c0-.83.67-1.5 1.501-1.5s1.5.67 1.5 1.5v7.693h3.121v-7.693c0-.83.67-1.5 1.5-1.5.831 0 1.501.67 1.501 1.5v9.193a1.5 1.5 0 0 1-1.501 1.501"/></svg>