<svg xmlns="http://www.w3.org/2000/svg" width="393" height="336" fill="none" viewBox="0 0 393 336"><path fill="#FFFBE8" d="M14.254 275.334H377.43V108.325c-2.271-2.102-91.984-100.11-91.984-100.11l-105.393 101.31H14.254z"/><path fill="#000" d="M377.43 276.835H14.254c-.83 0-1.5-.67-1.5-1.501V109.535c0-.83.67-1.5 1.5-1.5h165.199L284.415 7.145c.29-.28.68-.43 1.091-.42.4.01.79.19 1.06.49 30.989 33.85 90.074 98.308 91.905 100.019.3.28.48.68.48 1.101v167.009c0 .831-.67 1.501-1.5 1.501zm-361.675-3.002H375.93V108.945c-6.945-7.254-80.418-87.492-90.554-98.569l-104.283 100.25c-.28.27-.65.42-1.04.42H15.755v162.797z"/><path fill="#FFFBE8" d="M14.254 275.335h165.799V109.536H14.254z"/><path fill="#000" d="M180.053 276.836H14.254a1.5 1.5 0 0 1-1.5-1.501V109.536c0-.831.67-1.501 1.5-1.501h165.799a1.5 1.5 0 0 1 1.501 1.501v165.799a1.5 1.5 0 0 1-1.501 1.501m-164.298-3.002h162.797V111.037H15.755z"/><path fill="#FFFBE8" d="M152.426 132.119h-36.211v79.877h36.211z"/><path fill="#000" d="M152.426 213.487h-36.211c-.831 0-1.501-.67-1.501-1.5v-79.878c0-.831.67-1.501 1.501-1.501h36.211c.831 0 1.501.67 1.501 1.501v79.878c0 .83-.67 1.5-1.501 1.5m-34.71-3.001h33.209V133.61h-33.209z"/><path fill="#FFFBE8" d="M79.473 132.119H43.26v79.877h36.212z"/><path fill="#000" d="M79.473 213.487H43.26c-.83 0-1.5-.67-1.5-1.5v-79.878c0-.831.67-1.501 1.5-1.501h36.212c.83 0 1.5.67 1.5 1.501v79.878c0 .83-.67 1.5-1.5 1.5m-34.711-3.001h33.21V133.61h-33.21z"/><path fill="#FFFBE8" d="M350.944 132.119h-36.212v79.877h36.212z"/><path fill="#000" d="M350.934 213.487h-36.211c-.831 0-1.501-.67-1.501-1.5v-79.878c0-.831.67-1.501 1.501-1.501h36.211c.831 0 1.501.67 1.501 1.501v79.878c0 .83-.67 1.5-1.501 1.5m-34.7-3.001h33.209V133.61h-33.209z"/><path fill="#FFFBE8" d="M291.889 132.739h-75.235v142.445h75.235z"/><path fill="#000" d="M291.889 276.685h-75.235c-.83 0-1.5-.67-1.5-1.501V132.739c0-.83.67-1.501 1.5-1.501h75.235a1.5 1.5 0 0 1 1.501 1.501v142.445c0 .831-.67 1.501-1.501 1.501m-73.734-3.002h72.233V134.24h-72.233z"/><path fill="#FFFBE8" d="m285.445 8.225 92.756 101.311h13.088L292.39 1.561"/><path fill="#000" d="M391.289 111.037h-13.088a1.52 1.52 0 0 1-1.111-.491L284.345 9.236a1.5 1.5 0 1 1 2.211-2.031l92.305 100.83h9.015L291.279 2.582A1.502 1.502 0 0 1 293.49.551l98.899 107.974c.4.44.511 1.071.27 1.621-.24.54-.78.901-1.37.901z"/><path fill="#FFFBE8" d="M269.996 198.349h-31.438v11.236h31.438z"/><path fill="#000" d="M269.996 211.086h-31.438c-.831 0-1.501-.67-1.501-1.501v-11.236c0-.831.67-1.501 1.501-1.501h31.438c.831 0 1.501.67 1.501 1.501v11.236c0 .831-.67 1.501-1.501 1.501m-29.937-3.002h28.436v-8.234h-28.436z"/><path fill="#FFFBE8" d="M107.729 1.5 1.496 109.536h178.556l14.589-14.088L291.839 1.63z"/><path fill="#000" d="M180.052 111.036H1.496c-.6 0-1.15-.36-1.38-.92a1.51 1.51 0 0 1 .31-1.631L106.658.45c.28-.29.67-.45 1.07-.45l184.11.13a1.5 1.5 0 0 1 1.391.94c.23.571.09 1.221-.35 1.642l-97.198 93.816-14.589 14.088c-.28.27-.65.42-1.041.42M5.078 108.034h174.364l14.149-13.668 94.536-91.244-179.767-.12z"/><path fill="#FFFBE8" d="M237.236 234.87H123.068v73.854h114.168z"/><path fill="#000" d="M237.227 310.225H123.059c-.831 0-1.501-.67-1.501-1.501V234.87c0-.83.67-1.5 1.501-1.5h114.168c.83 0 1.501.67 1.501 1.5v73.854a1.5 1.5 0 0 1-1.501 1.501m-112.657-3.001h111.166v-70.853H124.57z"/><path fill="#FFFBE8" d="M237.227 234.87h-56.974v73.854h56.974z"/><path fill="#000" d="M237.227 310.225h-56.974c-.831 0-1.501-.67-1.501-1.501V234.87c0-.83.67-1.5 1.501-1.5h56.974c.83 0 1.501.67 1.501 1.5v73.854a1.5 1.5 0 0 1-1.501 1.501m-55.473-3.001h53.972v-70.853h-53.972z"/><path fill="#FFFBE8" d="m180.253 234.87-6.914-9.786h-57.915l7.645 9.786z"/><path fill="#000" d="M180.253 236.371h-57.184c-.461 0-.901-.21-1.181-.58l-7.635-9.786a1.51 1.51 0 0 1-.17-1.581c.25-.51.771-.841 1.351-.841h57.914c.491 0 .941.241 1.231.631l6.914 9.786c.32.46.361 1.06.11 1.561-.26.5-.77.81-1.33.81zm-56.454-3.002h53.562l-4.793-6.784h-54.062z"/><path fill="#FFFBE8" d="m180.252 234.87 7.695-9.786h56.364l-7.085 9.786z"/><path fill="#000" d="M237.226 236.371h-56.974c-.57 0-1.1-.33-1.35-.841a1.5 1.5 0 0 1 .17-1.581l7.694-9.785c.28-.361.721-.571 1.181-.571h56.364c.56 0 1.08.32 1.34.821s.21 1.1-.12 1.561l-7.084 9.785c-.28.391-.73.621-1.221.621zm-53.882-3.002h53.122l4.903-6.784h-52.692z"/><path fill="#FFFBE8" d="M317.655 260.646H203.486V334.5h114.169z"/><path fill="#000" d="M317.645 336H203.477c-.831 0-1.501-.67-1.501-1.5v-73.854c0-.831.67-1.501 1.501-1.501h114.168a1.5 1.5 0 0 1 1.501 1.501V334.5c0 .83-.671 1.5-1.501 1.5m-112.657-3.001h111.166v-70.853H204.988z"/><path fill="#FFFBE8" d="M317.645 260.646h-56.974V334.5h56.974z"/><path fill="#000" d="M317.645 336h-56.974c-.831 0-1.501-.67-1.501-1.5v-73.854c0-.831.67-1.501 1.501-1.501h56.974a1.5 1.5 0 0 1 1.501 1.501V334.5c0 .83-.671 1.5-1.501 1.5m-55.473-3.001h53.972v-70.853h-53.972z"/><path fill="#FFFBE8" d="m260.671 260.645-6.914-9.786h-57.915l7.645 9.786z"/><path fill="#000" d="M260.671 262.146h-57.184c-.461 0-.901-.21-1.181-.58l-7.635-9.786a1.51 1.51 0 0 1-.17-1.581c.25-.51.771-.84 1.351-.84h57.914c.491 0 .941.24 1.231.63l6.914 9.786c.321.46.361 1.06.11 1.561-.26.5-.77.81-1.33.81zm-56.454-3.002h53.562l-4.793-6.784h-54.062z"/><path fill="#FFFBE8" d="m260.671 260.645 7.695-9.786h56.363l-7.084 9.786z"/><path fill="#000" d="M317.645 262.146h-56.974c-.57 0-1.101-.33-1.351-.841-.25-.52-.18-1.13.17-1.581l7.695-9.785c.28-.361.72-.571 1.18-.571h56.364c.56 0 1.081.321 1.341.821s.21 1.1-.12 1.561l-7.084 9.786c-.281.39-.731.62-1.221.62zm-53.882-3.002h53.121l4.903-6.784h-52.691z"/></svg>