<svg xmlns="http://www.w3.org/2000/svg" width="568" height="432" fill="none" viewBox="0 0 568 432"><path fill="#FFFBE8" d="M117.451 1.503c18.932 0 34.298 15.366 34.298 34.298v81.66H83.152v-81.66c0-18.932 15.366-34.298 34.299-34.298"/><path fill="#000" d="M151.749 118.963H83.152a1.5 1.5 0 0 1-1.502-1.502v-81.66C81.65 16.057 97.707 0 117.45 0s35.801 16.057 35.801 35.801v81.66a1.5 1.5 0 0 1-1.503 1.502m-67.094-3.005h65.592V35.801c0-18.08-14.715-32.796-32.796-32.796S84.655 17.72 84.655 35.801z"/><path fill="#FFFBE8" d="M436.976 1.503c18.933 0 34.299 15.366 34.299 34.298v81.66h-68.597v-81.66c0-18.932 15.366-34.298 34.298-34.298"/><path fill="#000" d="M471.275 118.963h-68.597a1.5 1.5 0 0 1-1.503-1.502v-81.66C401.175 16.057 417.233 0 436.976 0s35.802 16.057 35.802 35.801v81.66c0 .831-.672 1.502-1.503 1.502m-67.095-3.005h65.592V35.801c0-18.08-14.715-32.796-32.796-32.796-18.08 0-32.796 14.715-32.796 32.796z"/><path fill="#FFFBE8" d="M493.733 393.833H55.484c-9.746 0-18-6.862-19.303-16.058a932.4 932.4 0 0 1 0-263.159c1.313-9.196 9.557-16.058 19.304-16.058h438.248c9.747 0 18.001 6.862 19.303 16.058a932.4 932.4 0 0 1 0 263.159c-1.312 9.196-9.556 16.058-19.303 16.058"/><path fill="#000" d="M493.733 395.335H55.485c-10.448 0-19.383-7.462-20.796-17.349a934 934 0 0 1 0-263.59c1.413-9.887 10.348-17.35 20.796-17.35h438.248c10.448 0 19.383 7.463 20.796 17.35a934 934 0 0 1 0 263.59c-1.413 9.887-10.348 17.349-20.796 17.349M55.485 100.061c-8.956 0-16.619 6.351-17.82 14.765a931 931 0 0 0 0 262.739c1.201 8.414 8.864 14.765 17.82 14.765h438.248c8.955 0 16.619-6.351 17.821-14.765a931 931 0 0 0 0-262.739c-1.202-8.414-8.866-14.765-17.821-14.765z"/><path fill="#000" d="M214.576 409.279c-.26 0-.511-.1-.711-.29a1 1 0 0 1 0-1.413l63.368-63.428a.998.998 0 1 1 1.413 1.412l-63.369 63.429c-.2.2-.45.29-.711.29z"/><path fill="#EE6DBB" d="M286.9 346.742c9.394 0 17.009-7.615 17.009-17.009s-7.615-17.009-17.009-17.009-17.009 7.615-17.009 17.009 7.615 17.009 17.009 17.009"/><path fill="#000" d="M286.9 348.245c-10.207 0-18.512-8.304-18.512-18.512s8.305-18.511 18.512-18.511 18.512 8.304 18.512 18.511c0 10.208-8.305 18.512-18.512 18.512m0-34.018c-8.555 0-15.506 6.952-15.506 15.506s6.951 15.507 15.506 15.507 15.506-6.952 15.506-15.507-6.951-15.506-15.506-15.506"/><path fill="#000" d="M62.887 124.823c-.26 0-.51-.1-.71-.29l-51.5-51.448a.997.997 0 1 1 1.413-1.412l51.498 51.447a.998.998 0 0 1-.712 1.703z"/><path fill="#FFB921" d="M67.345 122.79h159.983a5.427 5.427 0 0 1 5.429 5.429v156.207a5.427 5.427 0 0 1-5.429 5.429H104.679a5.427 5.427 0 0 1-5.43-5.429v-58.159a5.427 5.427 0 0 0-5.429-5.43H67.335a5.427 5.427 0 0 1-5.43-5.429v-87.199a5.427 5.427 0 0 1 5.43-5.429z"/><path fill="#000" d="M227.328 291.348H104.679c-3.817 0-6.932-3.106-6.932-6.932v-58.159a3.933 3.933 0 0 0-3.927-3.927H67.335c-3.817 0-6.932-3.105-6.932-6.932v-87.199c0-3.816 3.105-6.932 6.932-6.932h159.983c3.817 0 6.932 3.106 6.932 6.932v156.207c0 3.816-3.105 6.932-6.932 6.932zM67.345 124.292a3.933 3.933 0 0 0-3.927 3.927v87.199a3.933 3.933 0 0 0 3.927 3.927H93.83c3.817 0 6.932 3.105 6.932 6.932v58.159a3.933 3.933 0 0 0 3.927 3.927h122.649a3.933 3.933 0 0 0 3.927-3.927V128.229a3.933 3.933 0 0 0-3.927-3.927H67.355z"/><path fill="#000" d="M213.705 154.835H80.958c-6.751 0-12.25-5.5-12.25-12.251 0-6.752 5.499-12.251 12.25-12.251h132.747c6.751 0 12.251 5.499 12.251 12.251s-5.5 12.251-12.251 12.251M80.958 133.338c-5.099 0-9.246 4.147-9.246 9.246 0 5.098 4.147 9.245 9.246 9.245h132.747c5.099 0 9.246-4.147 9.246-9.245 0-5.099-4.147-9.246-9.246-9.246z"/><path fill="#000" d="M213.895 144.086H80.778a1.5 1.5 0 0 1-1.503-1.502 1.5 1.5 0 0 1 1.503-1.503h133.117a1.5 1.5 0 0 1 1.503 1.503 1.5 1.5 0 0 1-1.503 1.502"/><path fill="#FFFBE8" d="M224.453 163.139H70.21v21.496h154.243z"/><path fill="#000" d="M224.453 186.138H70.21a1.5 1.5 0 0 1-1.503-1.503v-21.496a1.5 1.5 0 0 1 1.503-1.503h154.243a1.5 1.5 0 0 1 1.503 1.503v21.496a1.5 1.5 0 0 1-1.503 1.503m-152.74-3.005H222.95v-18.492H71.712z"/><path fill="#FFFBE8" d="M224.453 192.188H70.21v21.497h154.243z"/><path fill="#000" d="M224.453 215.188H70.21a1.5 1.5 0 0 1-1.503-1.503v-21.497a1.5 1.5 0 0 1 1.503-1.502h154.243a1.5 1.5 0 0 1 1.503 1.502v21.497a1.5 1.5 0 0 1-1.503 1.503m-152.74-3.005H222.95v-18.492H71.712z"/><path fill="#FFFBE8" d="M55.845 263.52c9.394 0 17.01-7.615 17.01-17.009s-7.616-17.009-17.01-17.009-17.009 7.615-17.009 17.009 7.615 17.009 17.01 17.009"/><path fill="#000" d="M55.845 265.023c-10.207 0-18.511-8.304-18.511-18.512S45.638 228 55.845 228c10.208 0 18.512 8.304 18.512 18.511 0 10.208-8.304 18.512-18.512 18.512m0-34.018c-8.554 0-15.506 6.952-15.506 15.506s6.952 15.507 15.506 15.507 15.507-6.952 15.507-15.507-6.952-15.506-15.507-15.506"/><path fill="#000" d="M55.845 264.802a1.5 1.5 0 0 1-1.502-1.502v-33.387a1.5 1.5 0 0 1 1.502-1.503 1.5 1.5 0 0 1 1.503 1.503V263.3a1.5 1.5 0 0 1-1.503 1.502"/><path fill="#000" d="M72.534 248.104H39.147a1.5 1.5 0 0 1-1.503-1.503 1.5 1.5 0 0 1 1.503-1.502h33.387a1.5 1.5 0 0 1 1.502 1.502 1.5 1.5 0 0 1-1.502 1.503"/><path fill="#FFFBE8" d="M270.211 263.52c9.394 0 17.009-7.615 17.009-17.009s-7.615-17.009-17.009-17.009-17.009 7.615-17.009 17.009 7.615 17.009 17.009 17.009"/><path fill="#000" d="M270.211 265.023c-10.207 0-18.511-8.304-18.511-18.512S260.004 228 270.211 228c10.208 0 18.512 8.304 18.512 18.511 0 10.208-8.304 18.512-18.512 18.512m0-34.018c-8.554 0-15.506 6.952-15.506 15.506s6.952 15.507 15.506 15.507 15.507-6.952 15.507-15.507-6.952-15.506-15.507-15.506"/><path fill="#000" d="M270.211 264.802a1.5 1.5 0 0 1-1.502-1.502v-33.387a1.5 1.5 0 0 1 1.502-1.503 1.5 1.5 0 0 1 1.503 1.503V263.3a1.5 1.5 0 0 1-1.503 1.502"/><path fill="#000" d="M286.9 248.104h-33.387a1.5 1.5 0 0 1-1.503-1.503 1.5 1.5 0 0 1 1.503-1.502H286.9a1.5 1.5 0 0 1 1.502 1.502 1.5 1.5 0 0 1-1.502 1.503"/><path fill="#FFFBE8" d="M494.595 263.52c9.393 0 17.009-7.615 17.009-17.009s-7.616-17.009-17.009-17.009-17.009 7.615-17.009 17.009 7.615 17.009 17.009 17.009"/><path fill="#000" d="M494.595 265.023c-10.208 0-18.512-8.304-18.512-18.512S484.387 228 494.595 228s18.511 8.304 18.511 18.511c0 10.208-8.304 18.512-18.511 18.512m0-34.018c-8.555 0-15.507 6.952-15.507 15.506s6.952 15.507 15.507 15.507 15.506-6.952 15.506-15.507-6.952-15.506-15.506-15.506"/><path fill="#000" d="M494.595 264.802a1.5 1.5 0 0 1-1.503-1.502v-33.387a1.5 1.5 0 0 1 1.503-1.503 1.5 1.5 0 0 1 1.502 1.503V263.3a1.5 1.5 0 0 1-1.502 1.502"/><path fill="#000" d="M511.283 248.104h-33.387a1.5 1.5 0 0 1-1.502-1.503 1.5 1.5 0 0 1 1.502-1.502h33.387a1.5 1.5 0 0 1 1.503 1.502 1.5 1.5 0 0 1-1.503 1.503"/><path fill="#FFFBE8" d="M474.48 158.992H287.221v47.33H474.48z"/><path fill="#000" d="M474.48 207.825H287.221a1.5 1.5 0 0 1-1.503-1.503v-47.33a1.5 1.5 0 0 1 1.503-1.503H474.48a1.5 1.5 0 0 1 1.503 1.503v47.33a1.5 1.5 0 0 1-1.503 1.503m-185.757-3.005h184.255v-44.326H288.723z"/><path fill="#000" d="M442.426 224.604H335.703a1.5 1.5 0 0 1-1.502-1.503 1.5 1.5 0 0 1 1.502-1.502h106.723a1.5 1.5 0 0 1 1.502 1.502 1.5 1.5 0 0 1-1.502 1.503"/><path fill="#000" d="M454.276 409.249c-.26 0-.511-.1-.711-.29l-38.115-38.075a.998.998 0 1 1 1.412-1.413l38.115 38.075a.998.998 0 0 1-.711 1.703z"/><path fill="#FFFBE8" d="M441.865 366.025H280.559a2.075 2.075 0 0 0 0 4.147h161.306a2.073 2.073 0 1 0 0-4.147"/><path fill="#000" d="M441.855 371.675H280.549a3.58 3.58 0 0 1-3.576-3.576 3.58 3.58 0 0 1 3.576-3.576h161.306a3.58 3.58 0 0 1 3.576 3.576 3.58 3.58 0 0 1-3.576 3.576m-161.296-4.147a.577.577 0 0 0-.571.571c0 .31.26.571.571.571h161.306c.31 0 .57-.261.57-.571a.576.576 0 0 0-.57-.571z"/><path fill="#FFFBE8" d="M330.975 346.742c9.394 0 17.009-7.615 17.009-17.009s-7.615-17.009-17.009-17.009-17.009 7.615-17.009 17.009 7.615 17.009 17.009 17.009"/><path fill="#000" d="M330.975 348.245c-10.207 0-18.511-8.304-18.511-18.512s8.304-18.511 18.511-18.511c10.208 0 18.512 8.304 18.512 18.511 0 10.208-8.304 18.512-18.512 18.512m0-34.018c-8.554 0-15.506 6.952-15.506 15.506s6.952 15.507 15.506 15.507 15.507-6.952 15.507-15.507-6.952-15.506-15.507-15.506"/><path fill="#000" d="M64.18 382.994a1.5 1.5 0 0 1-1.503-1.502v-23a1.5 1.5 0 0 1 1.503-1.502 1.5 1.5 0 0 1 1.502 1.502v23a1.5 1.5 0 0 1-1.502 1.502"/><path fill="#000" d="M74.197 382.994a1.5 1.5 0 0 1-1.503-1.502v-23a1.5 1.5 0 0 1 1.503-1.502 1.5 1.5 0 0 1 1.502 1.502v23a1.5 1.5 0 0 1-1.502 1.502"/><path fill="#000" d="M81.209 382.994a1.5 1.5 0 0 1-1.503-1.502v-23a1.5 1.5 0 0 1 1.502-1.502 1.5 1.5 0 0 1 1.503 1.502v23a1.5 1.5 0 0 1-1.502 1.502"/><path fill="#000" d="M88.22 382.994a1.5 1.5 0 0 1-1.502-1.502v-23a1.5 1.5 0 0 1 1.502-1.502 1.5 1.5 0 0 1 1.503 1.502v23a1.5 1.5 0 0 1-1.502 1.502"/><path fill="#000" d="M98.238 382.994a1.5 1.5 0 0 1-1.503-1.502v-23a1.5 1.5 0 0 1 1.503-1.502 1.5 1.5 0 0 1 1.502 1.502v23a1.5 1.5 0 0 1-1.502 1.502"/><path fill="#000" d="M108.255 382.994a1.5 1.5 0 0 1-1.503-1.502v-23a1.5 1.5 0 0 1 1.503-1.502 1.5 1.5 0 0 1 1.502 1.502v23a1.5 1.5 0 0 1-1.502 1.502"/><path fill="#000" d="M115.267 382.994a1.5 1.5 0 0 1-1.503-1.502v-23a1.5 1.5 0 0 1 1.503-1.502 1.5 1.5 0 0 1 1.502 1.502v23a1.5 1.5 0 0 1-1.502 1.502"/><path fill="#000" d="M122.279 382.994a1.5 1.5 0 0 1-1.503-1.502v-23a1.5 1.5 0 0 1 1.503-1.502 1.5 1.5 0 0 1 1.502 1.502v23a1.5 1.5 0 0 1-1.502 1.502"/><path fill="#000" d="M132.296 382.994a1.5 1.5 0 0 1-1.503-1.502v-23a1.5 1.5 0 0 1 1.503-1.502 1.5 1.5 0 0 1 1.502 1.502v23a1.5 1.5 0 0 1-1.502 1.502"/><path fill="#000" d="M142.313 382.994a1.5 1.5 0 0 1-1.503-1.502v-23a1.5 1.5 0 0 1 1.503-1.502 1.5 1.5 0 0 1 1.502 1.502v23a1.5 1.5 0 0 1-1.502 1.502"/><path fill="#000" d="M149.325 382.994a1.5 1.5 0 0 1-1.503-1.502v-23a1.5 1.5 0 0 1 1.503-1.502 1.5 1.5 0 0 1 1.502 1.502v23a1.5 1.5 0 0 1-1.502 1.502"/><path fill="#000" d="M156.337 382.994a1.5 1.5 0 0 1-1.503-1.502v-23a1.5 1.5 0 0 1 1.503-1.502 1.5 1.5 0 0 1 1.502 1.502v23a1.5 1.5 0 0 1-1.502 1.502"/><path fill="#000" d="M166.354 382.994a1.5 1.5 0 0 1-1.503-1.502v-23c0-.831.672-1.502 1.503-1.502s1.503.671 1.503 1.502v23c0 .831-.672 1.502-1.503 1.502"/><path fill="#000" d="M176.371 382.994a1.5 1.5 0 0 1-1.502-1.502v-23a1.5 1.5 0 0 1 1.502-1.502 1.5 1.5 0 0 1 1.503 1.502v23a1.5 1.5 0 0 1-1.503 1.502"/><path fill="#000" d="M183.383 382.994a1.5 1.5 0 0 1-1.503-1.502v-23c0-.831.672-1.502 1.503-1.502s1.503.671 1.503 1.502v23c0 .831-.672 1.502-1.503 1.502"/><path fill="#000" d="M193.4 382.994a1.5 1.5 0 0 1-1.502-1.502v-23a1.5 1.5 0 0 1 1.502-1.502 1.5 1.5 0 0 1 1.503 1.502v23a1.5 1.5 0 0 1-1.503 1.502"/><path fill="#000" d="M203.417 382.994a1.5 1.5 0 0 1-1.502-1.502v-23a1.5 1.5 0 0 1 1.502-1.502 1.5 1.5 0 0 1 1.503 1.502v23a1.5 1.5 0 0 1-1.503 1.502"/><path fill="#000" d="M210.429 382.994a1.5 1.5 0 0 1-1.502-1.502v-23a1.5 1.5 0 0 1 1.502-1.502 1.5 1.5 0 0 1 1.503 1.502v23a1.5 1.5 0 0 1-1.503 1.502"/><path fill="#000" d="M217.441 382.994a1.5 1.5 0 0 1-1.502-1.502v-23a1.5 1.5 0 0 1 1.502-1.502 1.5 1.5 0 0 1 1.503 1.502v23a1.5 1.5 0 0 1-1.503 1.502"/><path fill="#000" d="M227.458 382.994a1.5 1.5 0 0 1-1.502-1.502v-23a1.5 1.5 0 0 1 1.502-1.502 1.5 1.5 0 0 1 1.503 1.502v23a1.5 1.5 0 0 1-1.503 1.502"/><path fill="#000" d="M304.911 259.613a1.5 1.5 0 0 1-1.503-1.502v-22.999a1.5 1.5 0 0 1 1.503-1.503 1.5 1.5 0 0 1 1.502 1.503v22.999a1.5 1.5 0 0 1-1.502 1.502"/><path fill="#000" d="M314.928 259.613a1.5 1.5 0 0 1-1.503-1.502v-22.999a1.5 1.5 0 0 1 1.503-1.503 1.5 1.5 0 0 1 1.502 1.503v22.999a1.5 1.5 0 0 1-1.502 1.502"/><path fill="#000" d="M321.94 259.613a1.5 1.5 0 0 1-1.503-1.502v-22.999a1.5 1.5 0 0 1 1.503-1.503 1.5 1.5 0 0 1 1.502 1.503v22.999a1.5 1.5 0 0 1-1.502 1.502"/><path fill="#000" d="M328.952 259.613a1.5 1.5 0 0 1-1.503-1.502v-22.999a1.5 1.5 0 0 1 1.503-1.503 1.5 1.5 0 0 1 1.502 1.503v22.999a1.5 1.5 0 0 1-1.502 1.502"/><path fill="#000" d="M338.969 259.613a1.5 1.5 0 0 1-1.503-1.502v-22.999a1.5 1.5 0 0 1 1.503-1.503 1.5 1.5 0 0 1 1.502 1.503v22.999a1.5 1.5 0 0 1-1.502 1.502"/><path fill="#000" d="M348.986 259.613a1.5 1.5 0 0 1-1.503-1.502v-22.999c0-.832.672-1.503 1.503-1.503s1.503.671 1.503 1.503v22.999c0 .831-.672 1.502-1.503 1.502"/><path fill="#000" d="M355.998 259.613a1.5 1.5 0 0 1-1.503-1.502v-22.999c0-.832.672-1.503 1.503-1.503s1.503.671 1.503 1.503v22.999c0 .831-.672 1.502-1.503 1.502"/><path fill="#000" d="M363.01 259.613a1.5 1.5 0 0 1-1.503-1.502v-22.999c0-.832.672-1.503 1.503-1.503s1.503.671 1.503 1.503v22.999c0 .831-.672 1.502-1.503 1.502"/><path fill="#000" d="M373.027 259.613a1.5 1.5 0 0 1-1.502-1.502v-22.999a1.5 1.5 0 0 1 1.502-1.503c.831 0 1.503.671 1.503 1.503v22.999c0 .831-.672 1.502-1.503 1.502"/><path fill="#000" d="M383.044 259.613a1.5 1.5 0 0 1-1.502-1.502v-22.999a1.5 1.5 0 0 1 1.502-1.503 1.5 1.5 0 0 1 1.503 1.503v22.999a1.5 1.5 0 0 1-1.503 1.502"/><path fill="#000" d="M390.056 259.613a1.5 1.5 0 0 1-1.502-1.502v-22.999a1.5 1.5 0 0 1 1.502-1.503 1.5 1.5 0 0 1 1.503 1.503v22.999a1.5 1.5 0 0 1-1.503 1.502"/><path fill="#000" d="M397.068 259.613a1.5 1.5 0 0 1-1.502-1.502v-22.999a1.5 1.5 0 0 1 1.502-1.503 1.5 1.5 0 0 1 1.503 1.503v22.999a1.5 1.5 0 0 1-1.503 1.502"/><path fill="#000" d="M407.085 259.613a1.5 1.5 0 0 1-1.502-1.502v-22.999a1.5 1.5 0 0 1 1.502-1.503 1.5 1.5 0 0 1 1.503 1.503v22.999a1.5 1.5 0 0 1-1.503 1.502"/><path fill="#000" d="M417.102 259.613a1.5 1.5 0 0 1-1.502-1.502v-22.999a1.5 1.5 0 0 1 1.502-1.503 1.5 1.5 0 0 1 1.503 1.503v22.999a1.5 1.5 0 0 1-1.503 1.502"/><path fill="#000" d="M424.114 259.613a1.5 1.5 0 0 1-1.502-1.502v-22.999a1.5 1.5 0 0 1 1.502-1.503 1.5 1.5 0 0 1 1.503 1.503v22.999a1.5 1.5 0 0 1-1.503 1.502"/><path fill="#000" d="M434.131 259.613a1.5 1.5 0 0 1-1.502-1.502v-22.999a1.5 1.5 0 0 1 1.502-1.503 1.5 1.5 0 0 1 1.503 1.503v22.999a1.5 1.5 0 0 1-1.503 1.502"/><path fill="#000" d="M444.149 259.613a1.5 1.5 0 0 1-1.503-1.502v-22.999a1.5 1.5 0 0 1 1.503-1.503 1.5 1.5 0 0 1 1.502 1.503v22.999a1.5 1.5 0 0 1-1.502 1.502"/><path fill="#000" d="M451.161 259.613a1.5 1.5 0 0 1-1.503-1.502v-22.999a1.5 1.5 0 0 1 1.503-1.503 1.5 1.5 0 0 1 1.502 1.503v22.999a1.5 1.5 0 0 1-1.502 1.502"/><path fill="#000" d="M458.173 259.613a1.5 1.5 0 0 1-1.503-1.502v-22.999a1.5 1.5 0 0 1 1.503-1.503 1.5 1.5 0 0 1 1.502 1.503v22.999a1.5 1.5 0 0 1-1.502 1.502"/><path fill="#000" d="M468.19 259.613a1.5 1.5 0 0 1-1.503-1.502v-22.999a1.5 1.5 0 0 1 1.503-1.503 1.5 1.5 0 0 1 1.502 1.503v22.999a1.5 1.5 0 0 1-1.502 1.502"/><path fill="#000" d="m280.98 336.745 5.149-14.024h2.183l5.149 14.024h-2.143l-4.107-11.619-4.127 11.619zm2.324-3.466.561-1.602h6.591l.561 1.602z"/><path fill="#000" d="M293.822 336.996h-2.675l-1.222-3.466h-5.419l-1.232 3.466h-2.635l5.329-14.525h2.535l.06.16 5.269 14.365zm-2.324-.501h1.613l-4.969-13.523h-1.833l-4.969 13.523h1.573l1.052-2.965h-1.012l.742-2.104h1.021l2.505-7.052 2.494 7.052h.931l.742 2.104h-.922l1.052 2.965zm-1.232-3.466h.39l-.38-1.102h-.401zm-5.6 0h5.069l-.391-1.102h-4.287zm-1.012 0h.481l.391-1.102h-.491zm1.583-1.603h3.937l-1.963-5.549z"/><path fill="#6DB5C3" d="M26.475 66.464H5.6a4.6 4.6 0 0 0-4.598 4.597v15.567A4.6 4.6 0 0 0 5.6 91.226h20.875a4.6 4.6 0 0 0 4.598-4.598V71.061a4.6 4.6 0 0 0-4.598-4.597"/><path fill="#000" d="M26.485 92.228H5.6a5.61 5.61 0 0 1-5.6-5.6V71.051a5.61 5.61 0 0 1 5.6-5.6h20.885a5.61 5.61 0 0 1 5.6 5.6v15.577a5.61 5.61 0 0 1-5.6 5.6M5.6 67.465a3.6 3.6 0 0 0-3.597 3.596v15.577A3.6 3.6 0 0 0 5.6 90.234h20.885a3.6 3.6 0 0 0 3.596-3.596V71.061a3.6 3.6 0 0 0-3.596-3.596z"/><path fill="#000" d="M11.76 83.743q-1.156 0-2.013-.631c-.571-.42-1.022-1.012-1.333-1.793s-.47-1.693-.47-2.745.16-1.983.47-2.754c.31-.772.762-1.363 1.333-1.783.57-.421 1.252-.632 2.013-.632s1.453.21 2.024.632c.57.42 1.011 1.011 1.322 1.782.31.772.47 1.683.47 2.755s-.16 1.974-.47 2.745-.751 1.372-1.322 1.793-1.243.631-2.024.631m-2.274-5.159c0 .531.05 1.022.14 1.453.09.44.23.821.401 1.142l2.494-6.17a1.8 1.8 0 0 0-.751-.171c-.661 0-1.212.33-1.643 1.002-.43.67-.64 1.582-.64 2.744m2.274 3.767c.45 0 .841-.15 1.182-.461.34-.3.611-.741.801-1.302s.29-1.232.29-2.004c0-.53-.05-1.022-.14-1.452a4 4 0 0 0-.4-1.122L11 82.18c.24.11.49.17.751.17z"/><path fill="#000" d="M16.979 83.573V82.22h2.464v-6.84l-2.354.43v-1.222l2.935-.981h.922v8.624H23.6v1.353h-6.63z"/><path fill="#000" d="M469.141 159.993c-.26 0-.511-.1-.711-.29a1 1 0 0 1 0-1.413l86.558-86.638a.997.997 0 0 1 1.412 0 .997.997 0 0 1 0 1.413l-86.558 86.638c-.2.2-.45.29-.711.29z"/><path fill="#6DB5C3" d="M562.39 66.464h-20.875a4.6 4.6 0 0 0-4.598 4.597v15.567a4.6 4.6 0 0 0 4.598 4.598h20.875a4.6 4.6 0 0 0 4.598-4.598V71.061a4.6 4.6 0 0 0-4.598-4.597"/><path fill="#000" d="M562.4 92.228h-20.885a5.61 5.61 0 0 1-5.6-5.6V71.051a5.61 5.61 0 0 1 5.6-5.6H562.4a5.61 5.61 0 0 1 5.6 5.6v15.577a5.61 5.61 0 0 1-5.6 5.6m-20.885-24.763a3.6 3.6 0 0 0-3.596 3.596v15.577a3.6 3.6 0 0 0 3.596 3.596H562.4a3.6 3.6 0 0 0 3.597-3.596V71.061a3.6 3.6 0 0 0-3.597-3.596z"/><path fill="#000" d="M547.675 83.743q-1.157 0-2.013-.631c-.571-.42-1.022-1.012-1.332-1.793-.311-.771-.471-1.693-.471-2.745s.16-1.983.471-2.754c.31-.772.761-1.363 1.332-1.783.571-.421 1.252-.632 2.013-.632.762 0 1.453.21 2.024.632.571.42 1.012 1.011 1.322 1.782s.471 1.683.471 2.755-.16 1.974-.471 2.745-.751 1.372-1.322 1.793-1.242.631-2.024.631m-2.273-5.159c0 .531.05 1.022.14 1.453.09.44.23.821.4 1.142l2.495-6.17a1.8 1.8 0 0 0-.752-.171c-.661 0-1.212.33-1.642 1.002-.431.67-.641 1.582-.641 2.744m2.273 3.767c.451 0 .842-.15 1.182-.461.341-.3.612-.741.802-1.302s.29-1.232.29-2.004c0-.53-.05-1.022-.14-1.452a4.3 4.3 0 0 0-.401-1.122l-2.494 6.17c.241.11.491.17.751.17z"/><path fill="#000" d="M556.3 83.743c-.651 0-1.252-.12-1.783-.37a3.07 3.07 0 0 1-1.272-1.092q-.466-.721-.511-1.743h1.513c.03.52.22.951.581 1.302q.54.51 1.472.51c.621 0 1.102-.15 1.453-.46.35-.3.531-.721.531-1.252q.002-.887-.641-1.292c-.431-.28-.952-.411-1.573-.411h-.882v-1.342h.752c.561 0 1.021-.11 1.382-.341.361-.23.541-.581.541-1.072 0-.42-.14-.751-.411-.992q-.405-.36-1.172-.36c-.511 0-.921.14-1.222.41a1.6 1.6 0 0 0-.511 1.052h-1.492c.03-.57.18-1.072.46-1.492.281-.43.652-.761 1.122-1.002q.707-.36 1.653-.36c.681 0 1.252.12 1.713.35q.692.345 1.022.932c.23.39.341.831.341 1.312 0 .48-.141.921-.431 1.272q-.436.525-1.052.781v.08a2.66 2.66 0 0 1 1.362.852c.361.41.531.972.531 1.663 0 .56-.14 1.072-.41 1.543-.271.47-.662.84-1.183 1.121-.52.28-1.151.411-1.893.411z"/><path fill="#000" d="M440.813 224.223a.98.98 0 0 1-.922-.621c-.21-.511.03-1.102.541-1.312l113.174-46.82c.51-.21 1.101.03 1.312.541.21.511-.03 1.102-.541 1.312l-113.173 46.82c-.121.05-.251.08-.381.08z"/><path fill="#6DB5C3" d="M562.39 159.623h-20.875a4.597 4.597 0 0 0-4.598 4.598v15.566a4.597 4.597 0 0 0 4.598 4.598h20.875a4.597 4.597 0 0 0 4.598-4.598v-15.566a4.597 4.597 0 0 0-4.598-4.598"/><path fill="#000" d="M562.4 185.387h-20.885a5.61 5.61 0 0 1-5.6-5.6v-15.576c0-3.086 2.514-5.6 5.6-5.6H562.4c3.086 0 5.6 2.514 5.6 5.6v15.576a5.61 5.61 0 0 1-5.6 5.6m-20.885-24.763a3.6 3.6 0 0 0-3.596 3.597v15.576a3.6 3.6 0 0 0 3.596 3.596H562.4a3.6 3.6 0 0 0 3.597-3.596v-15.576a3.6 3.6 0 0 0-3.597-3.597z"/><path fill="#000" d="M547.675 176.902q-1.157 0-2.013-.631c-.571-.421-1.022-1.012-1.332-1.793-.311-.771-.471-1.693-.471-2.745 0-1.051.16-1.983.471-2.754.31-.772.761-1.363 1.332-1.783.571-.421 1.252-.631 2.013-.631.762 0 1.453.21 2.024.631.571.42 1.012 1.011 1.322 1.783.311.771.471 1.683.471 2.754 0 1.072-.16 1.974-.471 2.745s-.751 1.372-1.322 1.793-1.242.631-2.024.631m-2.273-5.159c0 .531.05 1.022.14 1.453.09.441.23.821.4 1.142l2.495-6.171a1.8 1.8 0 0 0-.752-.17c-.661 0-1.212.331-1.642 1.002-.431.671-.641 1.582-.641 2.744m2.273 3.767c.451 0 .842-.15 1.182-.461.341-.3.612-.741.802-1.302s.29-1.232.29-2.004c0-.531-.05-1.021-.14-1.452-.1-.441-.23-.811-.401-1.122l-2.494 6.171c.241.11.491.17.751.17z"/><path fill="#000" d="M557.332 176.732v-2.154h-4.738v-1.182l4.457-6.641h1.783v6.461h1.293v1.372h-1.293v2.154h-1.512zm-3.055-3.516h3.135v-4.758z"/><path fill="#6DB5C3" d="M212.853 406.094h-20.875a4.597 4.597 0 0 0-4.598 4.598v15.566a4.597 4.597 0 0 0 4.598 4.598h20.875a4.597 4.597 0 0 0 4.598-4.598v-15.566a4.597 4.597 0 0 0-4.598-4.598"/><path fill="#000" d="M212.853 431.858h-20.885a5.61 5.61 0 0 1-5.6-5.6v-15.576c0-3.086 2.514-5.6 5.6-5.6h20.885c3.086 0 5.6 2.514 5.6 5.6v15.576c0 3.086-2.514 5.6-5.6 5.6m-20.875-24.762a3.6 3.6 0 0 0-3.596 3.596v15.576a3.6 3.6 0 0 0 3.596 3.596h20.885a3.6 3.6 0 0 0 3.597-3.596v-15.576a3.6 3.6 0 0 0-3.597-3.596z"/><path fill="#000" d="M198.138 423.373q-1.156 0-2.013-.631c-.571-.421-1.022-1.012-1.332-1.793-.311-.771-.471-1.693-.471-2.745 0-1.051.16-1.983.471-2.754.31-.772.761-1.363 1.332-1.783.571-.421 1.252-.631 2.013-.631.762 0 1.453.21 2.024.631.571.42 1.012 1.011 1.322 1.783.311.771.471 1.683.471 2.754 0 1.072-.16 1.974-.471 2.745s-.751 1.372-1.322 1.793-1.242.631-2.024.631m-2.283-5.159c0 .531.05 1.022.14 1.453.09.441.23.821.4 1.142l2.495-6.171a1.8 1.8 0 0 0-.752-.17c-.661 0-1.212.331-1.642 1.002-.431.671-.641 1.582-.641 2.744m2.283 3.767c.451 0 .842-.15 1.182-.461.341-.3.612-.741.802-1.302s.29-1.232.29-2.004c0-.53-.05-1.021-.14-1.452-.1-.441-.23-.811-.401-1.122l-2.494 6.171c.241.11.491.17.751.17z"/><path fill="#000" d="M203.418 423.203v-1.202a60 60 0 0 0 2.574-2.154c.731-.651 1.312-1.292 1.733-1.893.421-.611.631-1.222.631-1.853 0-.521-.15-.932-.441-1.232q-.435-.451-1.202-.451c-.581 0-1.022.18-1.342.551a1.9 1.9 0 0 0-.471 1.302h-1.472c0-.701.16-1.292.44-1.773a2.8 2.8 0 0 1 1.162-1.082c.491-.25 1.052-.37 1.673-.37 1.022 0 1.803.27 2.354.821s.832 1.272.832 2.194c0 .581-.131 1.142-.381 1.673a6.7 6.7 0 0 1-.992 1.532c-.41.481-.861.942-1.362 1.383-.501.44-1.002.851-1.503 1.252h4.508v1.302z"/><path fill="#6DB5C3" d="M477.305 406.094h-20.876a4.597 4.597 0 0 0-4.597 4.598v15.566a4.597 4.597 0 0 0 4.597 4.598h20.876a4.6 4.6 0 0 0 4.598-4.598v-15.566a4.6 4.6 0 0 0-4.598-4.598"/><path fill="#000" d="M477.305 431.858h-20.886a5.61 5.61 0 0 1-5.599-5.6v-15.576c0-3.086 2.514-5.6 5.599-5.6h20.886a5.61 5.61 0 0 1 5.6 5.6v15.576a5.61 5.61 0 0 1-5.6 5.6m-20.876-24.762a3.6 3.6 0 0 0-3.596 3.596v15.576a3.6 3.6 0 0 0 3.596 3.596h20.886a3.6 3.6 0 0 0 3.596-3.596v-15.576a3.6 3.6 0 0 0-3.596-3.596z"/><path fill="#000" d="M462.59 423.373q-1.156 0-2.013-.631c-.571-.421-1.022-1.012-1.333-1.793-.31-.771-.47-1.693-.47-2.745 0-1.051.16-1.983.47-2.754.311-.772.762-1.363 1.333-1.783.571-.421 1.252-.631 2.013-.631s1.453.21 2.024.631c.571.42 1.011 1.011 1.322 1.783.31.771.471 1.683.471 2.754 0 1.072-.161 1.974-.471 2.745-.311.771-.751 1.372-1.322 1.793s-1.243.631-2.024.631m-2.284-5.159c0 .531.05 1.022.141 1.453.09.441.23.821.4 1.142l2.494-6.171c-.24-.11-.49-.17-.751-.17-.661 0-1.212.331-1.643 1.002-.43.671-.641 1.582-.641 2.744m2.284 3.767c.451 0 .842-.15 1.182-.461.341-.3.611-.741.802-1.302.19-.561.29-1.232.29-2.004 0-.53-.05-1.021-.14-1.452a4.3 4.3 0 0 0-.401-1.122l-2.494 6.171c.24.11.491.17.751.17z"/><path fill="#000" d="M471.135 423.373c-.691 0-1.292-.13-1.813-.38a3.1 3.1 0 0 1-1.202-1.052 3.3 3.3 0 0 1-.511-1.513h1.542c.091.461.321.842.662 1.122.34.281.791.431 1.332.431.641 0 1.142-.201 1.512-.601.371-.401.561-.922.561-1.563 0-.671-.19-1.202-.571-1.573-.38-.37-.861-.561-1.452-.561-.471 0-.882.111-1.212.331-.331.22-.591.491-.781.831h-1.453l.851-5.619h5.43v1.392h-4.268l-.48 2.555h.1c.2-.231.471-.421.801-.571a2.95 2.95 0 0 1 1.202-.231c.681 0 1.272.15 1.763.441.491.29.872.701 1.132 1.222.261.521.401 1.102.401 1.763s-.14 1.272-.431 1.813a3.3 3.3 0 0 1-1.232 1.292c-.531.321-1.162.481-1.883.481z"/></svg>