<svg xmlns="http://www.w3.org/2000/svg" width="705" height="409" fill="none" viewBox="0 0 705 409"><path fill="#191917" d="M334.172 374.363h-45.496c-2.992 0-17.364-.471-22.057-1.461-15.062-3.193-25.76-16.153-26.011-31.515l6.005-.1c.2 12.54 8.937 23.128 21.247 25.74 3.933.831 17.804 1.331 20.806 1.331h45.496c3.172 0 17.453-.52 22.037-1.421 12.249-2.412 21.056-12.87 21.417-25.43v-.26l6.014.17v.26c-.45 15.382-11.248 28.182-26.27 31.144-5.274 1.041-20.146 1.532-23.198 1.532z"/><path fill="#EBEBEB" d="M334.172 375.864h-45.496c-3.142 0-17.494-.46-22.368-1.501-15.752-3.343-26.941-16.893-27.201-32.956l-.02-1.501 9.007-.15.02 1.501c.19 11.839 8.437 21.827 20.056 24.289 3.763.801 17.624 1.301 20.496 1.301h45.496c3.042 0 17.333-.52 21.747-1.391 11.549-2.282 19.865-12.15 20.205-23.999l.051-1.761 9.007.26-.05 1.761c-.471 16.083-11.76 29.473-27.472 32.576-5.374 1.061-20.406 1.561-23.488 1.561zm-92.002-33.006c.88 13.991 10.878 25.62 24.759 28.573 4.503.95 18.885 1.431 21.747 1.431h45.496c3.022 0 17.723-.481 22.908-1.501 13.92-2.743 24.038-14.362 24.989-28.473l-3.002-.09c-.911 12.71-10.038 23.148-22.568 25.62-4.894.961-19.465 1.451-22.327 1.451h-45.496c-3.142 0-17.013-.5-21.117-1.371-12.499-2.652-21.516-13.1-22.377-25.68l-3.002.05z"/><path fill="#191917" d="M274.745 60.417H156.112a2.63 2.63 0 0 0-2.632 2.631V180.34a2.63 2.63 0 0 0 2.632 2.632h118.633a2.63 2.63 0 0 0 2.632-2.632V63.048a2.63 2.63 0 0 0-2.632-2.632"/><path fill="#EBEBEB" d="M274.745 184.474H156.112a4.135 4.135 0 0 1-4.133-4.133V63.039a4.14 4.14 0 0 1 4.133-4.133h118.633a4.14 4.14 0 0 1 4.134 4.133V180.34a4.14 4.14 0 0 1-4.134 4.133M156.102 61.918c-.62 0-1.131.5-1.131 1.13v117.303c0 .62.511 1.131 1.131 1.131h118.633a1.13 1.13 0 0 0 1.131-1.131V63.049c0-.62-.5-1.131-1.131-1.131z"/><path fill="#EBEBEB" d="M277.367 101.339H153.47a1.5 1.5 0 0 1-1.501-1.501 1.5 1.5 0 0 1 1.501-1.501h123.897c.831 0 1.501.67 1.501 1.501s-.67 1.501-1.501 1.501"/><path fill="#191917" d="M168.192 156.732a5.383 5.383 0 1 0 0-10.768 5.384 5.384 0 0 0 0 10.768"/><path fill="#EBEBEB" d="M168.192 158.234c-3.793 0-6.885-3.093-6.885-6.886s3.092-6.885 6.885-6.885 6.885 3.092 6.885 6.885-3.092 6.886-6.885 6.886m0-10.769a3.886 3.886 0 0 0-3.883 3.883 3.886 3.886 0 0 0 3.883 3.883 3.886 3.886 0 0 0 3.883-3.883 3.886 3.886 0 0 0-3.883-3.883"/><path fill="#191917" d="M265.018 156.732a5.384 5.384 0 1 0 0-10.768 5.384 5.384 0 0 0 0 10.768"/><path fill="#EBEBEB" d="M265.018 158.234c-3.793 0-6.886-3.093-6.886-6.886s3.093-6.885 6.886-6.885 6.885 3.092 6.885 6.885-3.092 6.886-6.885 6.886m0-10.769a3.886 3.886 0 0 0-3.883 3.883 3.886 3.886 0 0 0 3.883 3.883 3.887 3.887 0 0 0 3.883-3.883 3.887 3.887 0 0 0-3.883-3.883"/><path fill="#191917" d="M229.29 139.379h-23.729v12.96h23.729z"/><path fill="#EBEBEB" d="M229.28 153.84h-23.729a1.5 1.5 0 0 1-1.501-1.501v-12.96c0-.831.67-1.501 1.501-1.501h23.729a1.5 1.5 0 0 1 1.501 1.501v12.96a1.5 1.5 0 0 1-1.501 1.501m-22.218-3.002h20.727v-9.958h-20.727z"/><path fill="#191917" d="m204.5 160.025 1.061-7.686h23.719l.92 7.686"/><path fill="#EBEBEB" d="M204.51 161.526c-.07 0-.14 0-.21-.01a1.493 1.493 0 0 1-1.281-1.691l1.051-7.686c.1-.741.74-1.301 1.491-1.301h23.729c.76 0 1.401.57 1.491 1.321l.92 7.686a1.504 1.504 0 0 1-1.311 1.671c-.82.1-1.571-.49-1.671-1.311l-.76-6.365h-21.087l-.871 6.395c-.1.751-.75 1.301-1.481 1.301z"/><path fill="#191917" d="m155.552 60.417 10.428-4.514h99.418l10.088 4.514z"/><path fill="#EBEBEB" d="M275.486 61.918H155.542c-.711 0-1.321-.5-1.471-1.201-.15-.7.22-1.401.871-1.681l10.428-4.514q.285-.12.6-.12h99.418c.21 0 .42.04.611.13l10.097 4.514c.651.29 1.001.99.851 1.68a1.51 1.51 0 0 1-1.471 1.192zm-112.688-3.002H268.46l-3.382-1.512H166.29z"/><path fill="#EBEBEB" d="M261.595 157.002c-.36 0-.71-.13-1.001-.38a1.505 1.505 0 0 1-.12-2.122l7.176-8.006a1.501 1.501 0 1 1 2.242 2.001l-7.176 8.007c-.3.33-.711.5-1.121.5"/><path fill="#EBEBEB" d="M164.769 157.002c-.36 0-.711-.13-1.001-.38a1.505 1.505 0 0 1-.12-2.122l7.176-8.006a1.501 1.501 0 1 1 2.242 2.001l-7.176 8.007c-.3.33-.711.5-1.121.5"/><path fill="#191917" d="m169.253 304.277 12.92-81.093a4.905 4.905 0 0 1 4.844-4.134h59.856a6.06 6.06 0 0 1 5.985 5.124l12.24 78.242"/><path fill="#EBEBEB" d="M169.253 305.779c-.08 0-.16 0-.241-.02a1.506 1.506 0 0 1-1.251-1.722l12.921-81.093a6.38 6.38 0 0 1 6.325-5.404h59.856a7.51 7.51 0 0 1 7.466 6.395l12.24 78.241a1.49 1.49 0 0 1-1.251 1.711 1.49 1.49 0 0 1-1.711-1.251l-12.24-78.241a4.536 4.536 0 0 0-4.504-3.853h-59.856a3.39 3.39 0 0 0-3.363 2.872l-12.92 81.094a1.5 1.5 0 0 1-1.481 1.261z"/><path fill="#191917" d="M261.315 300.054h-87.839a4.224 4.224 0 0 0-4.223 4.224v15.111a4.224 4.224 0 0 0 4.223 4.224h87.839a4.224 4.224 0 0 0 4.223-4.224v-15.111a4.224 4.224 0 0 0-4.223-4.224"/><path fill="#EBEBEB" d="M261.305 325.114h-87.829a5.73 5.73 0 0 1-5.725-5.725v-15.111a5.73 5.73 0 0 1 5.725-5.725h87.829a5.73 5.73 0 0 1 5.724 5.725v15.111a5.73 5.73 0 0 1-5.724 5.725m-87.829-23.558a2.724 2.724 0 0 0-2.722 2.722v15.111a2.725 2.725 0 0 0 2.722 2.723h87.829a2.725 2.725 0 0 0 2.722-2.723v-15.111a2.724 2.724 0 0 0-2.722-2.722z"/><path fill="#191917" d="M250.416 305.839h-1.741v-1.111h-2.362v-1.011h-4.674v1.011h-2.362v1.111h-1.751v14.111h12.89z"/><path fill="#EBEBEB" d="M251.917 321.451h-15.892v-17.123h1.741v-1.111h2.362v-1.011h7.676v1.011h2.362v1.111h1.741v17.123zm-12.89-3.002h9.888V307.33h-1.741v-1.11h-2.362v-1.011h-1.671v1.011h-2.362v1.11h-1.742v11.119z"/><path fill="#EBEBEB" d="M247.754 315.847h-7.556v1.681h7.556z"/><path fill="#191917" d="M205.811 306.689h-21.146a1.84 1.84 0 0 0-1.842 1.842v6.605c0 1.017.825 1.841 1.842 1.841h21.146a1.84 1.84 0 0 0 1.842-1.841v-6.605a1.84 1.84 0 0 0-1.842-1.842"/><path fill="#EBEBEB" d="M205.811 318.478h-21.146a3.35 3.35 0 0 1-3.343-3.342v-6.595a3.35 3.35 0 0 1 3.343-3.343h21.146a3.35 3.35 0 0 1 3.343 3.343v6.595a3.35 3.35 0 0 1-3.343 3.342m-21.136-10.288c-.19 0-.34.16-.34.341v6.595c0 .19.16.34.34.34h21.146c.191 0 .341-.16.341-.34v-6.595a.344.344 0 0 0-.341-.341z"/><path fill="#EBEBEB" d="M217.39 220.552a1.5 1.5 0 0 1-1.501-1.501v-27.922a1.5 1.5 0 0 1 1.501-1.501 1.5 1.5 0 0 1 1.501 1.501v27.922c0 .831-.67 1.501-1.501 1.501"/><path fill="#191917" d="M221.714 167.54h3.633c.82 0 1.491.671 1.491 1.492v13.9l4.063 9.288h-3.523l-4.023-9.578"/><path fill="#EBEBEB" d="M230.901 193.721h-3.523c-.6 0-1.151-.36-1.381-.921l-4.023-9.577c-.32-.761.04-1.642.801-1.962a1.5 1.5 0 0 1 1.961.801l3.633 8.657h.23l-3.142-7.186c-.08-.19-.131-.39-.131-.601v-13.9h-3.622a1.49 1.49 0 0 1-1.502-1.492 1.5 1.5 0 0 1 1.502-1.501h3.633a2.994 2.994 0 0 1 2.992 2.993v13.59l3.933 8.997c.2.461.16 1.001-.12 1.421s-.751.681-1.261.681z"/><path fill="#191917" d="M210.875 168.811v21.377c0 .701.571 1.271 1.271 1.271h9.948c.7 0 1.271-.57 1.271-1.271v-21.377c0-.7-.571-1.271-1.271-1.271h-9.948c-.7 0-1.271.571-1.271 1.271"/><path fill="#EBEBEB" d="M222.094 192.951h-9.948a2.77 2.77 0 0 1-2.772-2.773v-21.376a2.77 2.77 0 0 1 2.772-2.773h9.948a2.77 2.77 0 0 1 2.772 2.773v21.376a2.77 2.77 0 0 1-2.772 2.773m-9.718-3.003h9.488v-20.916h-9.488z"/><path fill="#EBEBEB" d="M214.408 188.757c-.551 0-1.001-.45-1.001-1v-8.267c0-.55.45-1.001 1.001-1.001s1.001.451 1.001 1.001v8.267c0 .55-.451 1-1.001 1"/><path fill="#EBEBEB" d="M217.27 188.757c-.55 0-1.001-.45-1.001-1v-8.267c0-.55.451-1.001 1.001-1.001.551 0 1.001.451 1.001 1.001v8.267c0 .55-.45 1-1.001 1"/><path fill="#EBEBEB" d="M220.142 188.757c-.55 0-1-.45-1-1v-8.267c0-.55.45-1.001 1-1.001.551 0 1.001.451 1.001 1.001v8.267c0 .55-.45 1-1.001 1"/><path fill="#191917" d="M96.716 258.552H14.29c-7.07 0-12.8 5.731-12.8 12.8v43.834c0 7.07 5.73 12.8 12.8 12.8h82.425c7.069 0 12.8-5.73 12.8-12.8v-43.834c0-7.069-5.731-12.8-12.8-12.8"/><path fill="#EBEBEB" d="M96.716 329.488H14.3c-7.885 0-14.3-6.415-14.3-14.302v-43.834c0-7.886 6.415-14.301 14.301-14.301h82.415c7.886 0 14.301 6.415 14.301 14.301v43.834c0 7.887-6.415 14.302-14.301 14.302M14.29 260.053c-6.235 0-11.299 5.074-11.299 11.299v43.834c0 6.235 5.074 11.299 11.3 11.299h82.414c6.235 0 11.299-5.074 11.299-11.299v-43.834c0-6.235-5.074-11.299-11.3-11.299z"/><path fill="#191917" d="M92.152 305.228V163.687c0-9.637-7.816-17.453-17.454-17.453h-38.94c-9.007 0-16.313 7.305-16.313 16.312v142.682a5.99 5.99 0 0 0 5.995 5.995h60.707a5.99 5.99 0 0 0 5.995-5.995z"/><path fill="#EBEBEB" d="M86.157 312.734H25.45c-4.133 0-7.496-3.363-7.496-7.496V162.556c0-9.817 7.996-17.814 17.814-17.814h38.94c10.449 0 18.955 8.507 18.955 18.955v141.541c0 4.133-3.362 7.496-7.496 7.496zm-50.4-164.999c-8.165 0-14.81 6.645-14.81 14.811v142.682a4.5 4.5 0 0 0 4.493 4.493h60.707a4.5 4.5 0 0 0 4.494-4.493V163.687c0-8.797-7.156-15.952-15.953-15.952h-38.94z"/><path fill="#191917" d="M30.624 149.656v-9.948a3.323 3.323 0 0 1 3.312-3.312 3.323 3.323 0 0 1 3.313 3.312v9.948"/><path fill="#EBEBEB" d="M37.239 151.157a1.5 1.5 0 0 1-1.501-1.501v-9.948a1.811 1.811 0 0 0-3.623 0v9.948c0 .831-.67 1.501-1.501 1.501s-1.501-.67-1.501-1.501v-9.948a4.82 4.82 0 0 1 4.813-4.813 4.82 4.82 0 0 1 4.814 4.813v9.948c0 .831-.67 1.501-1.501 1.501"/><path fill="#191917" d="M92.152 310.742V169.201c0-9.637-7.816-17.453-17.454-17.453h-38.94c-9.007 0-16.313 7.305-16.313 16.313v142.681a5.99 5.99 0 0 0 5.995 5.995h60.707a5.99 5.99 0 0 0 5.995-5.995z"/><path fill="#EBEBEB" d="M86.157 318.238H25.45c-4.133 0-7.496-3.362-7.496-7.506V168.051c0-9.818 7.996-17.814 17.814-17.814h38.94c10.449 0 18.955 8.506 18.955 18.955v141.54c0 4.134-3.362 7.506-7.496 7.506zm-50.4-164.989c-8.165 0-14.81 6.645-14.81 14.812v142.682c0 2.481 2.02 4.503 4.493 4.503h60.707a4.5 4.5 0 0 0 4.494-4.503V169.202c0-8.797-7.156-15.953-15.953-15.953h-38.94z"/><path fill="#191917" d="M79.722 169.021H31.885a2.74 2.74 0 0 0-2.742 2.742v24.7a2.74 2.74 0 0 0 2.742 2.742h47.837a2.74 2.74 0 0 0 2.742-2.742v-24.7a2.74 2.74 0 0 0-2.742-2.742"/><path fill="#EBEBEB" d="M79.722 200.706H31.875a4.245 4.245 0 0 1-4.244-4.243v-24.71a4.246 4.246 0 0 1 4.244-4.243h47.847a4.246 4.246 0 0 1 4.244 4.243v24.71a4.245 4.245 0 0 1-4.244 4.243m-47.847-30.184c-.68 0-1.241.551-1.241 1.241v24.71c0 .68.55 1.241 1.24 1.241h47.848c.68 0 1.241-.551 1.241-1.241v-24.71c0-.68-.55-1.241-1.24-1.241z"/><path fill="#191917" d="M62.65 160.434H48.957a1.17 1.17 0 1 0 0 2.342H62.65a1.17 1.17 0 1 0 0-2.342"/><path fill="#EBEBEB" d="M62.65 164.277H48.947a2.68 2.68 0 0 1-2.672-2.672 2.68 2.68 0 0 1 2.672-2.672H62.65a2.68 2.68 0 0 1 2.672 2.672c0 1.471-1.2 2.672-2.672 2.672"/><path fill="#191917" d="M55.804 222.623a8.016 8.016 0 1 0 0-16.032 8.016 8.016 0 0 0 0 16.032"/><path fill="#EBEBEB" d="M55.804 224.124c-5.244 0-9.518-4.273-9.518-9.517s4.274-9.518 9.518-9.518 9.517 4.274 9.517 9.518-4.273 9.517-9.517 9.517m0-16.032a6.52 6.52 0 0 0-6.515 6.515 6.52 6.52 0 0 0 6.515 6.515 6.52 6.52 0 0 0 6.515-6.515 6.52 6.52 0 0 0-6.515-6.515"/><path fill="#191917" d="M75.91 206.591h5.043c.841 0 1.511.68 1.511 1.511v3.252a1.51 1.51 0 0 1-1.51 1.512h-5.045a3.15 3.15 0 0 1-3.142-3.143 3.15 3.15 0 0 1 3.142-3.142z"/><path fill="#EBEBEB" d="M80.943 214.367H75.9a4.647 4.647 0 0 1-4.643-4.644 4.646 4.646 0 0 1 4.643-4.643h5.044a3.015 3.015 0 0 1 3.013 3.012v3.252a3.015 3.015 0 0 1-3.013 3.013zm-5.034-6.275a1.642 1.642 0 0 0 0 3.282h5.044v-3.262l-5.044-.01z"/><path fill="#191917" d="M75.91 216.428h5.063c.821 0 1.492.671 1.492 1.491v3.303c0 .821-.671 1.491-1.492 1.491H75.91a3.15 3.15 0 0 1-3.142-3.142 3.15 3.15 0 0 1 3.142-3.143"/><path fill="#EBEBEB" d="M80.973 224.214H75.91a4.646 4.646 0 0 1-4.643-4.643 4.647 4.647 0 0 1 4.643-4.644h5.064a2.994 2.994 0 0 1 2.993 2.992v3.303a2.994 2.994 0 0 1-2.993 2.992m-.01-6.295H75.91c-.9.01-1.64.751-1.64 1.652s.73 1.641 1.64 1.641h5.054z"/><path fill="#191917" d="M31.124 206.591h5.104a3.15 3.15 0 0 1 3.143 3.142 3.15 3.15 0 0 1-3.143 3.142h-5.104a1.52 1.52 0 0 1-1.521-1.521v-3.242c0-.841.68-1.521 1.521-1.521"/><path fill="#EBEBEB" d="M36.228 214.367h-5.104a3.026 3.026 0 0 1-3.022-3.023v-3.242a3.026 3.026 0 0 1 3.022-3.022h5.104a4.646 4.646 0 0 1 4.644 4.643 4.647 4.647 0 0 1-4.644 4.644m-5.104-6.275-.02 3.262 5.124.02a1.642 1.642 0 0 0 0-3.282z"/><path fill="#191917" d="M31.114 216.429h5.114a3.15 3.15 0 0 1 3.143 3.143 3.15 3.15 0 0 1-3.143 3.142h-5.114a1.51 1.51 0 0 1-1.511-1.511v-3.253c0-.84.68-1.511 1.511-1.511z"/><path fill="#EBEBEB" d="M36.228 224.215h-5.114a3.015 3.015 0 0 1-3.012-3.012v-3.253a3.015 3.015 0 0 1 3.012-3.012h5.114a4.647 4.647 0 0 1 4.644 4.644 4.646 4.646 0 0 1-4.644 4.643zm-5.114-6.285v3.263l5.114.01a1.643 1.643 0 0 0 0-3.283h-5.114z"/><path fill="#191917" d="M42.243 232.902h-9.468a3.17 3.17 0 0 0-3.172 3.173v6.835a3.17 3.17 0 0 0 3.172 3.172h9.468a3.17 3.17 0 0 0 3.172-3.172v-6.835a3.17 3.17 0 0 0-3.172-3.173"/><path fill="#EBEBEB" d="M42.243 247.583h-9.458a4.68 4.68 0 0 1-4.673-4.673v-6.826a4.68 4.68 0 0 1 4.674-4.673h9.457a4.68 4.68 0 0 1 4.674 4.673v6.826a4.68 4.68 0 0 1-4.674 4.673m-9.468-13.18c-.92 0-1.67.751-1.67 1.671v6.826c0 .92.75 1.671 1.67 1.671h9.458c.92 0 1.671-.751 1.671-1.671v-6.826c0-.92-.75-1.671-1.671-1.671z"/><path fill="#191917" d="M60.767 232.902H51.3a3.17 3.17 0 0 0-3.172 3.173v6.835a3.17 3.17 0 0 0 3.172 3.172h9.467a3.17 3.17 0 0 0 3.173-3.172v-6.835a3.17 3.17 0 0 0-3.173-3.173"/><path fill="#EBEBEB" d="M60.757 247.583H51.3a4.68 4.68 0 0 1-4.674-4.673v-6.826a4.68 4.68 0 0 1 4.674-4.673h9.457a4.68 4.68 0 0 1 4.674 4.673v6.826a4.68 4.68 0 0 1-4.674 4.673m-9.457-13.18c-.92 0-1.671.751-1.671 1.671v6.826c0 .92.75 1.671 1.671 1.671h9.457c.921 0 1.672-.751 1.672-1.671v-6.826c0-.92-.75-1.671-1.672-1.671z"/><path fill="#191917" d="M79.292 232.902h-9.468a3.17 3.17 0 0 0-3.172 3.173v6.835a3.17 3.17 0 0 0 3.172 3.172h9.468a3.17 3.17 0 0 0 3.172-3.172v-6.835a3.17 3.17 0 0 0-3.172-3.173"/><path fill="#EBEBEB" d="M79.282 247.583h-9.457a4.68 4.68 0 0 1-4.674-4.673v-6.826a4.68 4.68 0 0 1 4.674-4.673h9.457a4.68 4.68 0 0 1 4.674 4.673v6.826a4.68 4.68 0 0 1-4.674 4.673m-9.457-13.18c-.921 0-1.672.751-1.672 1.671v6.826c0 .92.75 1.671 1.671 1.671h9.458c.92 0 1.671-.751 1.671-1.671v-6.826c0-.92-.75-1.671-1.671-1.671z"/><path fill="#191917" d="M42.243 248.644h-9.468a3.17 3.17 0 0 0-3.172 3.172v6.836a3.17 3.17 0 0 0 3.172 3.172h9.468a3.17 3.17 0 0 0 3.172-3.172v-6.836a3.17 3.17 0 0 0-3.172-3.172"/><path fill="#EBEBEB" d="M42.243 263.325h-9.458a4.68 4.68 0 0 1-4.673-4.673v-6.826a4.68 4.68 0 0 1 4.674-4.673h9.457a4.68 4.68 0 0 1 4.674 4.673v6.826a4.68 4.68 0 0 1-4.674 4.673m-9.468-13.18c-.92 0-1.67.75-1.67 1.671v6.826c0 .92.75 1.671 1.67 1.671h9.458c.92 0 1.671-.751 1.671-1.671v-6.826c0-.921-.75-1.671-1.671-1.671z"/><path fill="#191917" d="M60.767 248.644H51.3a3.17 3.17 0 0 0-3.172 3.172v6.836a3.17 3.17 0 0 0 3.172 3.172h9.467a3.17 3.17 0 0 0 3.173-3.172v-6.836a3.17 3.17 0 0 0-3.173-3.172"/><path fill="#EBEBEB" d="M60.757 263.325H51.3a4.68 4.68 0 0 1-4.674-4.673v-6.826a4.68 4.68 0 0 1 4.674-4.673h9.457a4.68 4.68 0 0 1 4.674 4.673v6.826a4.68 4.68 0 0 1-4.674 4.673m-9.457-13.18c-.92 0-1.671.75-1.671 1.671v6.826c0 .92.75 1.671 1.671 1.671h9.457c.921 0 1.672-.751 1.672-1.671v-6.826c0-.921-.75-1.671-1.672-1.671z"/><path fill="#191917" d="M79.292 248.644h-9.468a3.17 3.17 0 0 0-3.172 3.172v6.836a3.17 3.17 0 0 0 3.172 3.172h9.468a3.17 3.17 0 0 0 3.172-3.172v-6.836a3.17 3.17 0 0 0-3.172-3.172"/><path fill="#EBEBEB" d="M79.282 263.325h-9.457a4.68 4.68 0 0 1-4.674-4.673v-6.826a4.68 4.68 0 0 1 4.674-4.673h9.457a4.68 4.68 0 0 1 4.674 4.673v6.826a4.68 4.68 0 0 1-4.674 4.673m-9.457-13.18c-.921 0-1.672.75-1.672 1.671v6.826c0 .92.75 1.671 1.671 1.671h9.458c.92 0 1.671-.751 1.671-1.671v-6.826c0-.921-.75-1.671-1.671-1.671z"/><path fill="#191917" d="M42.243 264.387h-9.468a3.17 3.17 0 0 0-3.172 3.172v6.836a3.17 3.17 0 0 0 3.172 3.172h9.468a3.17 3.17 0 0 0 3.172-3.172v-6.836a3.17 3.17 0 0 0-3.172-3.172"/><path fill="#EBEBEB" d="M42.243 279.068h-9.458a4.68 4.68 0 0 1-4.673-4.674v-6.825a4.68 4.68 0 0 1 4.674-4.674h9.457a4.68 4.68 0 0 1 4.674 4.674v6.825a4.68 4.68 0 0 1-4.674 4.674m-9.468-13.18c-.92 0-1.67.75-1.67 1.671v6.825c0 .921.75 1.672 1.67 1.672h9.458c.92 0 1.671-.751 1.671-1.672v-6.825c0-.921-.75-1.671-1.671-1.671z"/><path fill="#191917" d="M60.767 264.387H51.3a3.17 3.17 0 0 0-3.172 3.172v6.836a3.17 3.17 0 0 0 3.172 3.172h9.467a3.17 3.17 0 0 0 3.173-3.172v-6.836a3.17 3.17 0 0 0-3.173-3.172"/><path fill="#EBEBEB" d="M60.757 279.068H51.3a4.68 4.68 0 0 1-4.674-4.674v-6.825a4.68 4.68 0 0 1 4.674-4.674h9.457a4.68 4.68 0 0 1 4.674 4.674v6.825a4.68 4.68 0 0 1-4.674 4.674m-9.457-13.18c-.92 0-1.671.75-1.671 1.671v6.825c0 .921.75 1.672 1.671 1.672h9.457c.921 0 1.672-.751 1.672-1.672v-6.825c0-.921-.75-1.671-1.672-1.671z"/><path fill="#191917" d="M79.292 264.387h-9.468a3.17 3.17 0 0 0-3.172 3.172v6.836a3.17 3.17 0 0 0 3.172 3.172h9.468a3.17 3.17 0 0 0 3.172-3.172v-6.836a3.17 3.17 0 0 0-3.172-3.172"/><path fill="#EBEBEB" d="M79.282 279.068h-9.457a4.68 4.68 0 0 1-4.674-4.674v-6.825a4.68 4.68 0 0 1 4.674-4.674h9.457a4.68 4.68 0 0 1 4.674 4.674v6.825a4.68 4.68 0 0 1-4.674 4.674m-9.457-13.18c-.921 0-1.672.75-1.672 1.671v6.825c0 .921.75 1.672 1.671 1.672h9.458c.92 0 1.671-.751 1.671-1.672v-6.825c0-.921-.75-1.671-1.671-1.671z"/><path fill="#191917" d="M42.243 280.138h-9.468a3.173 3.173 0 0 0-3.172 3.173v6.835a3.173 3.173 0 0 0 3.172 3.173h9.468a3.173 3.173 0 0 0 3.172-3.173v-6.835a3.173 3.173 0 0 0-3.172-3.173"/><path fill="#EBEBEB" d="M42.243 294.82h-9.458a4.68 4.68 0 0 1-4.673-4.674v-6.825a4.68 4.68 0 0 1 4.674-4.674h9.457a4.68 4.68 0 0 1 4.674 4.674v6.825a4.68 4.68 0 0 1-4.674 4.674m-9.468-13.181c-.92 0-1.67.751-1.67 1.672v6.825c0 .921.75 1.671 1.67 1.671h9.458c.92 0 1.671-.75 1.671-1.671v-6.825c0-.921-.75-1.672-1.671-1.672z"/><path fill="#191917" d="M60.767 280.138H51.3a3.173 3.173 0 0 0-3.172 3.173v6.835a3.173 3.173 0 0 0 3.172 3.173h9.467a3.173 3.173 0 0 0 3.173-3.173v-6.835a3.173 3.173 0 0 0-3.173-3.173"/><path fill="#EBEBEB" d="M60.757 294.82H51.3a4.68 4.68 0 0 1-4.674-4.674v-6.825a4.68 4.68 0 0 1 4.674-4.674h9.457a4.68 4.68 0 0 1 4.674 4.674v6.825a4.68 4.68 0 0 1-4.674 4.674M51.3 281.639c-.92 0-1.671.751-1.671 1.672v6.825c0 .921.75 1.671 1.671 1.671h9.457c.921 0 1.672-.75 1.672-1.671v-6.825c0-.921-.75-1.672-1.672-1.672z"/><path fill="#191917" d="M79.292 280.138h-9.468a3.173 3.173 0 0 0-3.172 3.173v6.835a3.173 3.173 0 0 0 3.172 3.173h9.468a3.173 3.173 0 0 0 3.172-3.173v-6.835a3.173 3.173 0 0 0-3.172-3.173"/><path fill="#EBEBEB" d="M79.282 294.82h-9.457a4.68 4.68 0 0 1-4.674-4.674v-6.825a4.68 4.68 0 0 1 4.674-4.674h9.457a4.68 4.68 0 0 1 4.674 4.674v6.825a4.68 4.68 0 0 1-4.674 4.674m-9.457-13.181c-.921 0-1.672.751-1.672 1.672v6.825c0 .921.75 1.671 1.671 1.671h9.458c.92 0 1.671-.75 1.671-1.671v-6.825c0-.921-.75-1.672-1.671-1.672z"/><path fill="#191917" d="M95.605 307.37H15.412v11.018h80.193z"/><path fill="#EBEBEB" d="M97.887 308.871H13.72a1.5 1.5 0 0 1-1.501-1.501 1.5 1.5 0 0 1 1.5-1.502h84.167a1.5 1.5 0 0 1 1.5 1.502 1.5 1.5 0 0 1-1.5 1.501"/><path fill="#191917" d="M19.445 301.685v5.685h-5.724z"/><path fill="#EBEBEB" d="M19.445 308.871h-5.734a1.505 1.505 0 0 1-1.061-2.572l5.734-5.684a1.49 1.49 0 0 1 1.632-.321c.56.231.92.781.92 1.381v5.685c0 .831-.67 1.501-1.5 1.501zm-2.081-3.002h.58v-.581z"/><path fill="#191917" d="M19.445 301.685v5.685h-5.724z"/><path fill="#EBEBEB" d="M19.445 308.871h-5.734a1.505 1.505 0 0 1-1.061-2.572l5.734-5.684a1.49 1.49 0 0 1 1.632-.321c.56.231.92.781.92 1.381v5.685c0 .831-.67 1.501-1.5 1.501zm-2.081-3.002h.58v-.581z"/><path fill="#191917" d="M92.102 301.685v5.685h5.735z"/><path fill="#EBEBEB" d="M97.837 308.871h-5.735a1.5 1.5 0 0 1-1.501-1.501v-5.685c0-.61.36-1.151.92-1.381a1.5 1.5 0 0 1 1.632.32l5.734 5.685a1.505 1.505 0 0 1-1.06 2.572zm-4.234-3.003h.58l-.58-.58z"/><path fill="#191917" d="M188.998 312.934v21.377c0 .7.571 1.271 1.271 1.271h9.948c.7 0 1.271-.571 1.271-1.271v-21.377c0-.701-.571-1.271-1.271-1.271h-9.948c-.7 0-1.271.57-1.271 1.271"/><path fill="#EBEBEB" d="M200.217 337.073h-9.948a2.77 2.77 0 0 1-2.772-2.772v-21.377a2.77 2.77 0 0 1 2.772-2.772h9.948a2.77 2.77 0 0 1 2.772 2.772v21.377a2.77 2.77 0 0 1-2.772 2.772m-9.718-3.002h9.488v-20.917h-9.488z"/><path fill="#EBEBEB" d="M192.531 332.88c-.551 0-1.001-.45-1.001-1.001v-8.266c0-.551.45-1.001 1.001-1.001s1.001.45 1.001 1.001v8.266c0 .551-.451 1.001-1.001 1.001"/><path fill="#EBEBEB" d="M195.403 332.88c-.55 0-1.001-.45-1.001-1.001v-8.266c0-.551.451-1.001 1.001-1.001s1.001.45 1.001 1.001v8.266c0 .551-.451 1.001-1.001 1.001"/><path fill="#EBEBEB" d="M198.265 332.88c-.55 0-1-.45-1-1.001v-8.266c0-.551.45-1.001 1-1.001.551 0 1.001.45 1.001 1.001v8.266c0 .551-.45 1.001-1.001 1.001"/><path fill="#EBEBEB" d="M138.789 380.027c-31.885 0-57.826-20.126-57.826-44.875v-7.166h3.003v7.166c0 23.088 24.599 41.873 54.823 41.873 30.223 0 54.823-18.785 54.823-41.873h3.002c0 24.739-25.94 44.875-57.825 44.875"/><path fill="#191917" d="M247.024 327.376h2.692c.61 0 1.111.49 1.111 1.11v10.308l3.012 6.886h-2.612l-3.052-6.956h-9.078"/><path fill="#EBEBEB" d="M253.839 347.181h-2.612c-.601 0-1.131-.35-1.371-.901l-2.652-6.054h-8.097a1.5 1.5 0 0 1-1.501-1.502 1.5 1.5 0 0 1 1.501-1.501h9.078c.45 0 .86.2 1.14.531v-8.877h-2.301a1.5 1.5 0 0 1-1.502-1.501 1.5 1.5 0 0 1 1.502-1.502h2.692a2.614 2.614 0 0 1 2.612 2.612v9.998l2.882 6.595c.2.461.16 1.001-.12 1.421s-.751.681-1.261.681z"/><path fill="#191917" d="M238.987 328.316v15.853c0 .52.421.94.941.94h7.376c.52 0 .94-.42.94-.94v-15.853c0-.52-.42-.94-.94-.94h-7.376a.94.94 0 0 0-.941.94"/><path fill="#EBEBEB" d="M247.304 346.611h-7.376a2.445 2.445 0 0 1-2.442-2.442v-15.853a2.44 2.44 0 0 1 2.442-2.442h7.376a2.445 2.445 0 0 1 2.442 2.442v15.853a2.44 2.44 0 0 1-2.442 2.442m-6.816-3.003h6.255v-14.731h-6.255z"/><path fill="#191917" d="M245.322 327.696v5.124h-3.413v-5.124"/><path fill="#EBEBEB" d="M245.322 333.821h-3.413c-.55 0-1-.45-1-1.001v-5.124c0-.55.45-1.001 1-1.001.551 0 1.001.451 1.001 1.001v4.123h1.411v-4.123c0-.55.451-1.001 1.001-1.001.551 0 1.001.451 1.001 1.001v5.124c0 .551-.45 1.001-1.001 1.001"/><path fill="#191917" d="M679.963 255.59h-69.255a7.496 7.496 0 0 0-7.496 7.496v68.123a7.496 7.496 0 0 0 7.496 7.496h69.255a7.496 7.496 0 0 0 7.495-7.496v-68.123a7.496 7.496 0 0 0-7.495-7.496"/><path fill="#EBEBEB" d="M679.963 340.206h-69.255c-4.964 0-8.997-4.033-8.997-8.997v-68.123c0-4.964 4.033-8.997 8.997-8.997h69.255c4.963 0 8.997 4.033 8.997 8.997v68.123c0 4.964-4.034 8.997-8.997 8.997m-69.255-83.115a6.005 6.005 0 0 0-5.994 5.995v68.123a6.005 6.005 0 0 0 5.994 5.995h69.255a6.005 6.005 0 0 0 5.994-5.995v-68.123a6.005 6.005 0 0 0-5.994-5.995z"/><path fill="#191917" d="M346.201 329.167h-7.015a.57.57 0 0 0-.571.57v13.181c0 .315.256.57.571.57h7.015a.57.57 0 0 0 .571-.57v-13.181a.57.57 0 0 0-.571-.57"/><path fill="#EBEBEB" d="M346.201 344.989h-7.015a2.075 2.075 0 0 1-2.072-2.071v-13.181c0-1.14.931-2.071 2.072-2.071h7.015c1.141 0 2.072.931 2.072 2.071v13.181a2.075 2.075 0 0 1-2.072 2.071m-6.085-3.002h5.154v-11.319h-5.154z"/><path fill="#191917" d="M547.509 140.009H338.255c-12.923 0-23.398 10.476-23.398 23.398v152.009c0 12.923 10.475 23.399 23.398 23.399h209.254c12.922 0 23.398-10.476 23.398-23.399V163.407c0-12.922-10.476-23.398-23.398-23.398"/><path fill="#EBEBEB" d="M547.509 340.316H338.245c-13.731 0-24.9-11.169-24.9-24.9V163.407c0-13.73 11.169-24.899 24.9-24.899h209.264c13.731 0 24.899 11.169 24.899 24.899v152.009c0 13.731-11.168 24.9-24.899 24.9M338.245 141.51c-12.069 0-21.897 9.818-21.897 21.897v152.009c0 12.07 9.818 21.898 21.897 21.898h209.264c12.069 0 21.897-9.818 21.897-21.898V163.407c0-12.069-9.818-21.897-21.897-21.897z"/><path fill="#191917" d="M545.517 289.227H341.788c-6.506 0-11.78 5.273-11.78 11.779v16.383c0 6.505 5.274 11.779 11.78 11.779h203.729c6.506 0 11.779-5.274 11.779-11.779v-16.383c0-6.506-5.273-11.779-11.779-11.779"/><path fill="#EBEBEB" d="M545.517 330.669H341.798c-7.326 0-13.281-5.965-13.281-13.281v-16.372c0-7.326 5.965-13.281 13.281-13.281h203.719c7.326 0 13.281 5.965 13.281 13.281v16.372c0 7.326-5.965 13.281-13.281 13.281m-203.719-39.942c-5.675 0-10.278 4.614-10.278 10.279v16.372c0 5.675 4.613 10.278 10.278 10.278h203.719c5.675 0 10.278-4.613 10.278-10.278v-16.372c0-5.675-4.613-10.279-10.278-10.279z"/><path fill="#EE6DBB" d="M507.878 308.231h-1.671v-3.132h-3.883v-1.972h-4.374v1.972h-3.793v3.132h-1.651v3.072h1.651v2.773h12.05v-2.773h1.671z"/><path fill="#EBEBEB" d="M506.207 315.577h-12.05a1.5 1.5 0 0 1-1.501-1.501v-1.271h-.15a1.5 1.5 0 0 1-1.501-1.502v-3.072c0-.831.67-1.501 1.501-1.501h.15v-1.621a1.5 1.5 0 0 1 1.501-1.502h2.292v-.48c0-.831.67-1.501 1.501-1.501h4.374a1.5 1.5 0 0 1 1.501 1.501v.48h2.382a1.5 1.5 0 0 1 1.501 1.502v1.621h.17c.831 0 1.501.67 1.501 1.501v3.072a1.5 1.5 0 0 1-1.501 1.502h-.17v1.271a1.5 1.5 0 0 1-1.501 1.501m-10.549-3.003h9.047v-1.271a1.5 1.5 0 0 1 1.502-1.501h.17v-.07h-.17a1.5 1.5 0 0 1-1.502-1.501v-1.621h-2.381a1.5 1.5 0 0 1-1.502-1.501v-.481h-1.371v.481a1.5 1.5 0 0 1-1.501 1.501h-2.292v1.621c0 .831-.67 1.501-1.501 1.501h-.15v.07h.15a1.5 1.5 0 0 1 1.501 1.501z"/><path fill="#191917" d="M489.824 308.231h-1.672v-3.132h-3.883v-1.972h-4.373v1.972h-3.793v3.132h-1.651v3.072h1.651v2.773h12.049v-2.773h1.672z"/><path fill="#EBEBEB" d="M489.654 315.577h-15.052v-2.772h-1.652v-6.075h1.652v-3.123h3.793v-1.981h7.376v1.981h3.883v3.123h1.671v6.075h-1.671zm-12.05-3.003h9.047v-2.772h1.671v-.07h-1.671v-3.122h-3.883v-1.982h-1.371v1.982h-3.793v3.122h-1.651v.07h1.651z"/><path fill="#191917" d="M374.213 314.086h12.049v-8.977h-12.049z"/><path fill="#EBEBEB" d="M387.774 315.577h-15.052v-11.98h15.052zm-12.05-3.003h9.047v-5.975h-9.047z"/><path fill="#191917" d="M372.562 311.304h15.372v-3.072h-15.372z"/><path fill="#EBEBEB" d="M389.445 312.805h-18.374v-6.075h18.374zm-15.372-3.002h12.37v-.07h-12.37z"/><path fill="#191917" d="M382.39 314.086v-10.959h-4.374v10.959z"/><path fill="#EBEBEB" d="M383.891 315.577h-7.376v-13.961h7.376zm-4.374-3.002h1.371v-7.957h-1.371z"/><path fill="#191917" d="M356.169 314.086h12.05v-8.977h-12.05z"/><path fill="#EBEBEB" d="M369.72 315.577h-15.052v-11.98h15.052zm-12.05-3.003h9.047v-5.975h-9.047z"/><path fill="#191917" d="M354.518 311.304h15.372v-3.072h-15.372z"/><path fill="#EBEBEB" d="M371.391 312.805h-18.375v-6.075h18.375zm-15.372-3.002h12.37v-.07h-12.37z"/><path fill="#191917" d="M364.335 314.086v-10.959h-4.373v10.959z"/><path fill="#EBEBEB" d="M365.836 315.577h-7.375v-13.961h7.375zm-4.373-3.002h1.371v-7.957h-1.371z"/><path fill="#191917" d="M338.115 314.086h12.049v-8.977h-12.049z"/><path fill="#EBEBEB" d="M351.666 315.577h-15.052v-11.98h15.052zm-12.05-3.003h9.047v-5.975h-9.047z"/><path fill="#191917" d="M336.464 311.304h15.372v-3.072h-15.372z"/><path fill="#EBEBEB" d="M353.337 312.805h-18.374v-6.075h18.374zm-15.372-3.002h12.37v-.07h-12.37z"/><path fill="#191917" d="M346.281 314.076v-10.959h-4.373v10.959z"/><path fill="#EBEBEB" d="M347.783 315.577h-7.376v-13.961h7.376zm-4.374-3.002h1.371v-7.957h-1.371z"/><path fill="#191917" d="M387.944 308.231h-1.671v-3.132h-3.884v-1.972h-4.373v1.972h-3.793v3.132h-1.651v3.072h1.651v2.773h12.05v-2.773h1.671z"/><path fill="#EBEBEB" d="M387.774 315.577h-15.052v-2.772h-1.651v-6.075h1.651v-3.123h3.793v-1.981h7.376v1.981h3.883v3.123h1.671v6.075h-1.671zm-12.05-3.003h9.047v-2.772h1.672v-.07h-1.672v-3.122h-3.883v-1.982h-1.371v1.982h-3.793v3.122h-1.651v.07h1.651z"/><path fill="#8CBA3B" d="M369.89 308.231h-1.672v-3.132h-3.883v-1.972h-4.373v1.972h-3.793v3.132h-1.651v3.072h1.651v2.773h12.049v-2.773h1.672z"/><path fill="#EBEBEB" d="M368.218 315.577h-12.049a1.5 1.5 0 0 1-1.501-1.501v-1.271h-.15a1.5 1.5 0 0 1-1.502-1.502v-3.072a1.5 1.5 0 0 1 1.502-1.501h.15v-1.621a1.5 1.5 0 0 1 1.501-1.502h2.292v-.48c0-.831.67-1.501 1.501-1.501h4.373c.831 0 1.501.67 1.501 1.501v.48h2.382a1.5 1.5 0 0 1 1.502 1.502v1.621h.17a1.5 1.5 0 0 1 1.501 1.501v3.072a1.5 1.5 0 0 1-1.501 1.502h-.17v1.271a1.5 1.5 0 0 1-1.502 1.501m-10.548-3.003h9.047v-1.271a1.5 1.5 0 0 1 1.501-1.501h.171v-.07h-.171a1.5 1.5 0 0 1-1.501-1.501v-1.621h-2.382a1.5 1.5 0 0 1-1.501-1.501v-.481h-1.371v.481a1.5 1.5 0 0 1-1.501 1.501h-2.292v1.621c0 .831-.67 1.501-1.501 1.501h-.15v.07h.15a1.5 1.5 0 0 1 1.501 1.501z"/><path fill="#8CBA3B" d="M351.836 308.231h-1.672v-3.132h-3.883v-1.972h-4.373v1.972h-3.793v3.132h-1.651v3.072h1.651v2.773h12.049v-2.773h1.672z"/><path fill="#EBEBEB" d="M350.164 315.577h-12.049a1.5 1.5 0 0 1-1.501-1.501v-1.271h-.15a1.5 1.5 0 0 1-1.501-1.502v-3.072c0-.831.67-1.501 1.501-1.501h.15v-1.621a1.5 1.5 0 0 1 1.501-1.502h2.292v-.48c0-.831.67-1.501 1.501-1.501h4.373a1.5 1.5 0 0 1 1.502 1.501v.48h2.381a1.5 1.5 0 0 1 1.502 1.502v1.621h.17a1.5 1.5 0 0 1 1.501 1.501v3.072a1.5 1.5 0 0 1-1.501 1.502h-.17v1.271a1.5 1.5 0 0 1-1.502 1.501m-10.548-3.003h9.047v-1.271a1.5 1.5 0 0 1 1.501-1.501h.171v-.07h-.171a1.5 1.5 0 0 1-1.501-1.501v-1.621h-2.382a1.5 1.5 0 0 1-1.501-1.501v-.481h-1.371v.481a1.5 1.5 0 0 1-1.501 1.501h-2.292v1.621c0 .831-.67 1.501-1.501 1.501h-.15v.07h.15a1.5 1.5 0 0 1 1.501 1.501z"/><path fill="#191917" d="M472.05 308.231h-1.672v-3.132h-3.883v-1.972h-4.373v1.972h-3.793v3.132h-1.651v3.072h1.651v2.773h12.049v-2.773h1.672z"/><path fill="#EBEBEB" d="M471.88 315.577h-15.052v-2.772h-1.651v-6.075h1.651v-3.123h3.793v-1.981h7.376v1.981h3.883v3.123h1.671v6.075h-1.671zm-12.05-3.003h9.047v-2.772h1.672v-.07h-1.672v-3.122h-3.883v-1.982h-1.371v1.982h-3.793v3.122h-1.651v.07h1.651z"/><path fill="#191917" d="M453.996 308.231h-1.672v-3.132h-3.883v-1.972h-4.373v1.972h-3.793v3.132h-1.651v3.072h1.651v2.773h12.049v-2.773h1.672z"/><path fill="#EBEBEB" d="M453.825 315.577h-15.051v-2.772h-1.652v-6.075h1.652v-3.123h3.793v-1.981h7.375v1.981h3.883v3.123h1.672v6.075h-1.672zm-12.049-3.003h9.047v-2.772h1.671v-.07h-1.671v-3.122h-3.883v-1.982h-1.371v1.982h-3.793v3.122h-1.651v.07h1.651z"/><path fill="#191917" d="M435.941 308.231h-1.671v-3.132h-3.883v-1.972h-4.373v1.972h-3.793v3.132h-1.652v3.072h1.652v2.773h12.049v-2.773h1.671z"/><path fill="#EBEBEB" d="M435.771 315.577H420.72v-2.772h-1.652v-6.075h1.652v-3.123h3.792v-1.981h7.376v1.981h3.883v3.123h1.672v6.075h-1.672zm-12.049-3.003h9.047v-2.772h1.671v-.07h-1.671v-3.122h-3.883v-1.982h-1.371v1.982h-3.793v3.122h-1.651v.07h1.651z"/><path fill="#191917" d="M518.876 213.026h-153.92a4.924 4.924 0 0 0-4.924 4.924v42.694a4.923 4.923 0 0 0 4.924 4.923h153.92a4.923 4.923 0 0 0 4.924-4.923V217.95a4.924 4.924 0 0 0-4.924-4.924"/><path fill="#EBEBEB" d="M518.886 267.069h-153.93a6.43 6.43 0 0 1-6.425-6.425V217.94a6.433 6.433 0 0 1 6.425-6.425h153.93a6.433 6.433 0 0 1 6.425 6.425v42.704a6.43 6.43 0 0 1-6.425 6.425m-153.93-52.541a3.427 3.427 0 0 0-3.423 3.422v42.704a3.427 3.427 0 0 0 3.423 3.422h153.93a3.427 3.427 0 0 0 3.423-3.422V217.95a3.427 3.427 0 0 0-3.423-3.422z"/><path fill="#EBEBEB" d="M335.763 191.789c-.831 0-1.501-.67-1.501-1.501V154.03c0-.831.67-1.501 1.501-1.501s1.501.67 1.501 1.501v36.258c0 .831-.67 1.501-1.501 1.501"/><path fill="#EBEBEB" d="M344 191.789a1.5 1.5 0 0 1-1.502-1.501V154.03a1.5 1.5 0 0 1 1.502-1.501 1.5 1.5 0 0 1 1.501 1.501v36.258a1.5 1.5 0 0 1-1.501 1.501"/><path fill="#EBEBEB" d="M352.236 191.789c-.831 0-1.501-.67-1.501-1.501V154.03c0-.831.67-1.501 1.501-1.501s1.501.67 1.501 1.501v36.258c0 .831-.67 1.501-1.501 1.501"/><path fill="#EBEBEB" d="M360.472 191.789a1.5 1.5 0 0 1-1.501-1.501V154.03a1.5 1.5 0 0 1 1.501-1.501 1.5 1.5 0 0 1 1.502 1.501v36.258a1.5 1.5 0 0 1-1.502 1.501"/><path fill="#EBEBEB" d="M368.709 191.789c-.831 0-1.501-.67-1.501-1.501V154.03c0-.831.67-1.501 1.501-1.501s1.501.67 1.501 1.501v36.258c0 .831-.67 1.501-1.501 1.501"/><path fill="#EBEBEB" d="M376.945 191.789a1.5 1.5 0 0 1-1.501-1.501V154.03a1.5 1.5 0 0 1 1.501-1.501 1.5 1.5 0 0 1 1.502 1.501v36.258a1.5 1.5 0 0 1-1.502 1.501"/><path fill="#EBEBEB" d="M385.182 191.789c-.831 0-1.501-.67-1.501-1.501V154.03c0-.831.67-1.501 1.501-1.501a1.5 1.5 0 0 1 1.501 1.501v36.258a1.5 1.5 0 0 1-1.501 1.501"/><path fill="#EBEBEB" d="M393.418 191.789a1.5 1.5 0 0 1-1.501-1.501V154.03a1.5 1.5 0 0 1 1.501-1.501c.831 0 1.501.67 1.501 1.501v36.258c0 .831-.67 1.501-1.501 1.501"/><path fill="#EBEBEB" d="M401.655 191.789a1.5 1.5 0 0 1-1.502-1.501V154.03a1.5 1.5 0 0 1 1.502-1.501 1.5 1.5 0 0 1 1.501 1.501v36.258a1.5 1.5 0 0 1-1.501 1.501"/><path fill="#EBEBEB" d="M409.891 191.789c-.831 0-1.501-.67-1.501-1.501V154.03c0-.831.67-1.501 1.501-1.501s1.501.67 1.501 1.501v36.258c0 .831-.67 1.501-1.501 1.501"/><path fill="#EBEBEB" d="M418.128 191.789a1.5 1.5 0 0 1-1.502-1.501V154.03a1.5 1.5 0 0 1 1.502-1.501 1.5 1.5 0 0 1 1.501 1.501v36.258a1.5 1.5 0 0 1-1.501 1.501"/><path fill="#EBEBEB" d="M426.364 191.789c-.831 0-1.501-.67-1.501-1.501V154.03c0-.831.67-1.501 1.501-1.501s1.501.67 1.501 1.501v36.258c0 .831-.67 1.501-1.501 1.501"/><path fill="#EBEBEB" d="M434.6 191.789a1.5 1.5 0 0 1-1.501-1.501V154.03a1.5 1.5 0 0 1 1.501-1.501 1.5 1.5 0 0 1 1.502 1.501v36.258a1.5 1.5 0 0 1-1.502 1.501"/><path fill="#EBEBEB" d="M442.837 191.789c-.831 0-1.501-.67-1.501-1.501V154.03c0-.831.67-1.501 1.501-1.501a1.5 1.5 0 0 1 1.501 1.501v36.258a1.5 1.5 0 0 1-1.501 1.501"/><path fill="#EBEBEB" d="M451.073 191.789a1.5 1.5 0 0 1-1.501-1.501V154.03a1.5 1.5 0 0 1 1.501-1.501c.831 0 1.501.67 1.501 1.501v36.258c0 .831-.67 1.501-1.501 1.501"/><path fill="#EBEBEB" d="M459.31 191.789c-.831 0-1.501-.67-1.501-1.501V154.03c0-.831.67-1.501 1.501-1.501s1.501.67 1.501 1.501v36.258c0 .831-.67 1.501-1.501 1.501"/><path fill="#EBEBEB" d="M467.546 191.789a1.5 1.5 0 0 1-1.501-1.501V154.03a1.5 1.5 0 0 1 1.501-1.501 1.5 1.5 0 0 1 1.502 1.501v36.258a1.5 1.5 0 0 1-1.502 1.501"/><path fill="#EBEBEB" d="M475.783 191.789c-.831 0-1.501-.67-1.501-1.501V154.03c0-.831.67-1.501 1.501-1.501a1.5 1.5 0 0 1 1.501 1.501v36.258a1.5 1.5 0 0 1-1.501 1.501"/><path fill="#EBEBEB" d="M484.019 191.789a1.5 1.5 0 0 1-1.501-1.501V154.03a1.5 1.5 0 0 1 1.501-1.501c.831 0 1.501.67 1.501 1.501v36.258c0 .831-.67 1.501-1.501 1.501"/><path fill="#EBEBEB" d="M492.256 191.789a1.5 1.5 0 0 1-1.502-1.501V154.03a1.5 1.5 0 0 1 1.502-1.501 1.5 1.5 0 0 1 1.501 1.501v36.258a1.5 1.5 0 0 1-1.501 1.501"/><path fill="#EBEBEB" d="M500.492 191.789c-.831 0-1.501-.67-1.501-1.501V154.03c0-.831.67-1.501 1.501-1.501s1.501.67 1.501 1.501v36.258c0 .831-.67 1.501-1.501 1.501"/><path fill="#EBEBEB" d="M508.728 191.789a1.5 1.5 0 0 1-1.501-1.501V154.03a1.5 1.5 0 0 1 1.501-1.501 1.5 1.5 0 0 1 1.502 1.501v36.258a1.5 1.5 0 0 1-1.502 1.501"/><path fill="#EBEBEB" d="M516.965 191.789c-.831 0-1.501-.67-1.501-1.501V154.03c0-.831.67-1.501 1.501-1.501s1.501.67 1.501 1.501v36.258c0 .831-.67 1.501-1.501 1.501"/><path fill="#EBEBEB" d="M525.201 191.789a1.5 1.5 0 0 1-1.501-1.501V154.03a1.5 1.5 0 0 1 1.501-1.501 1.5 1.5 0 0 1 1.502 1.501v36.258a1.5 1.5 0 0 1-1.502 1.501"/><path fill="#EBEBEB" d="M533.438 191.789c-.831 0-1.501-.67-1.501-1.501V154.03c0-.831.67-1.501 1.501-1.501a1.5 1.5 0 0 1 1.501 1.501v36.258a1.5 1.5 0 0 1-1.501 1.501"/><path fill="#EBEBEB" d="M541.674 191.789a1.5 1.5 0 0 1-1.501-1.501V154.03a1.5 1.5 0 0 1 1.501-1.501c.831 0 1.501.67 1.501 1.501v36.258c0 .831-.67 1.501-1.501 1.501"/><path fill="#EBEBEB" d="M549.911 191.789a1.5 1.5 0 0 1-1.502-1.501V154.03a1.5 1.5 0 0 1 1.502-1.501 1.5 1.5 0 0 1 1.501 1.501v36.258a1.5 1.5 0 0 1-1.501 1.501"/><path fill="#191917" d="M549.911 230.83v-5.134a3.613 3.613 0 0 0-3.603-3.603 3.613 3.613 0 0 0-3.603 3.603v5.214a8.606 8.606 0 0 0 3.693 16.383 8.604 8.604 0 0 0 3.523-16.453z"/><path fill="#EBEBEB" d="M546.388 248.784c-5.574 0-10.108-4.534-10.108-10.108 0-3.553 1.902-6.855 4.914-8.667v-4.313a5.113 5.113 0 0 1 5.104-5.104 5.113 5.113 0 0 1 5.104 5.104v4.223a10.13 10.13 0 0 1 5.084 8.767c0 5.574-4.534 10.108-10.108 10.108zm-.08-25.19a2.1 2.1 0 0 0-2.102 2.102v5.214c0 .58-.33 1.111-.86 1.351-2.462 1.171-4.064 3.693-4.064 6.415 0 3.913 3.183 7.105 7.106 7.105a7.107 7.107 0 0 0 7.106-7.105 7.11 7.11 0 0 0-4.194-6.475c-.54-.24-.89-.781-.89-1.371v-5.134a2.1 2.1 0 0 0-2.102-2.102"/><path fill="#191917" d="M342.138 230.83v-5.134a3.613 3.613 0 0 0-3.603-3.603 3.614 3.614 0 0 0-3.603 3.603v5.214a8.606 8.606 0 0 0 3.693 16.383 8.604 8.604 0 0 0 3.523-16.453z"/><path fill="#EBEBEB" d="M338.615 248.784c-5.574 0-10.108-4.534-10.108-10.108 0-3.553 1.902-6.855 4.914-8.667v-4.313a5.113 5.113 0 0 1 5.104-5.104 5.113 5.113 0 0 1 5.104 5.104v4.223a10.14 10.14 0 0 1 5.084 8.767c0 5.574-4.533 10.108-10.108 10.108zm-.09-25.19a2.1 2.1 0 0 0-2.102 2.102v5.214c0 .58-.33 1.111-.86 1.351-2.462 1.171-4.063 3.693-4.063 6.415 0 3.913 3.182 7.105 7.105 7.105a7.107 7.107 0 0 0 7.106-7.105 7.11 7.11 0 0 0-4.194-6.475c-.54-.24-.89-.781-.89-1.371v-5.134a2.1 2.1 0 0 0-2.102-2.102"/><path fill="#191917" d="M527.463 303.127h-10.138v12.63h10.138z"/><path fill="#EBEBEB" d="M527.463 317.258h-10.138a1.5 1.5 0 0 1-1.501-1.501v-12.63a1.5 1.5 0 0 1 1.501-1.501h10.138c.831 0 1.501.67 1.501 1.501v12.63c0 .831-.67 1.501-1.501 1.501m-8.637-3.002h7.136v-9.628h-7.136z"/><path fill="#191917" d="M545.828 315.477a5.324 5.324 0 1 0 0-10.649 5.324 5.324 0 0 0 0 10.649"/><path fill="#EBEBEB" d="M545.828 316.978c-3.763 0-6.826-3.062-6.826-6.825a6.835 6.835 0 0 1 6.826-6.826c3.763 0 6.825 3.063 6.825 6.826a6.833 6.833 0 0 1-6.825 6.825m0-10.648a3.822 3.822 0 1 0 0 7.646 3.823 3.823 0 0 0 0-7.646"/><path fill="#191917" d="M413.934 298.853h-8.446v17.054h8.446z"/><path fill="#EBEBEB" d="M413.934 317.408h-8.446a1.5 1.5 0 0 1-1.501-1.501v-17.054a1.5 1.5 0 0 1 1.501-1.501h8.446a1.5 1.5 0 0 1 1.501 1.501v17.054a1.5 1.5 0 0 1-1.501 1.501m-6.955-3.003h5.444v-14.051h-5.444z"/><path fill="#191917" d="M626.851 328.517h36.959a8.005 8.005 0 0 0 8.006-8.006v-46.717a8.005 8.005 0 0 0-8.006-8.006h-36.959a8.005 8.005 0 0 0-8.006 8.006v46.717a8.005 8.005 0 0 0 8.006 8.006"/><path fill="#EBEBEB" d="M663.82 330.018h-36.969c-5.244 0-9.507-4.264-9.507-9.508v-46.726c0-5.244 4.263-9.508 9.507-9.508h36.969c5.244 0 9.507 4.264 9.507 9.508v46.726c0 5.244-4.263 9.508-9.507 9.508m-36.969-62.739a6.51 6.51 0 0 0-6.505 6.505v46.726a6.51 6.51 0 0 0 6.505 6.505h36.969a6.51 6.51 0 0 0 6.505-6.505v-46.726a6.51 6.51 0 0 0-6.505-6.505z"/><path fill="#EBEBEB" d="M596.858 395.599c-28.032 0-50.84-22.808-50.84-50.84a1.5 1.5 0 0 1 1.501-1.501 1.5 1.5 0 0 1 1.501 1.501c0 26.381 21.457 47.838 47.838 47.838 26.38 0 47.837-21.457 47.837-47.838a1.5 1.5 0 0 1 1.501-1.501 1.5 1.5 0 0 1 1.501 1.501c0 28.032-22.808 50.84-50.839 50.84"/><path fill="#191917" d="M626.851 328.517h36.959a8.005 8.005 0 0 0 8.006-8.006v-46.717a8.005 8.005 0 0 0-8.006-8.006h-36.959a8.005 8.005 0 0 0-8.006 8.006v46.717a8.005 8.005 0 0 0 8.006 8.006"/><path fill="#EBEBEB" d="M663.82 330.018h-36.969c-5.244 0-9.507-4.264-9.507-9.508v-46.726c0-5.244 4.263-9.508 9.507-9.508h36.969c5.244 0 9.507 4.264 9.507 9.508v46.726c0 5.244-4.263 9.508-9.507 9.508m-36.969-62.739a6.51 6.51 0 0 0-6.505 6.505v46.726a6.51 6.51 0 0 0 6.505 6.505h36.969a6.51 6.51 0 0 0 6.505-6.505v-46.726a6.51 6.51 0 0 0-6.505-6.505z"/><path fill="#191917" d="M646.717 348.031h-1.111a2.973 2.973 0 0 1-2.973-2.972v-15.362c0-.32.261-.57.571-.57h5.905c.32 0 .57.26.57.57v15.362a2.97 2.97 0 0 1-2.972 2.972z"/><path fill="#EBEBEB" d="M646.727 349.533h-1.111a4.48 4.48 0 0 1-4.474-4.474v-15.362c0-1.141.931-2.071 2.072-2.071h5.904c1.141 0 2.072.93 2.072 2.071v15.362a4.48 4.48 0 0 1-4.473 4.474zm-2.582-18.905v14.431c0 .811.66 1.472 1.471 1.472h1.111c.81 0 1.471-.661 1.471-1.472v-14.431z"/><path fill="#191917" d="M544.937 324.504v11.259h5.084v-11.259z"/><path fill="#EBEBEB" d="M550.031 337.274h-5.084a1.5 1.5 0 0 1-1.501-1.501v-11.259c0-.831.67-1.501 1.501-1.501h5.084a1.503 1.503 0 0 1 1.501 1.501v11.259a1.5 1.5 0 0 1-1.501 1.501m-3.583-3.002h2.082v-8.257h-2.082z"/><path fill="#191917" d="M611.089 299.794a2.642 2.642 0 1 0 0-5.284 2.642 2.642 0 0 0 0 5.284"/><path fill="#EBEBEB" d="M611.089 301.295a4.15 4.15 0 0 1-4.144-4.143 4.15 4.15 0 0 1 4.144-4.143 4.15 4.15 0 0 1 4.143 4.143 4.15 4.15 0 0 1-4.143 4.143m0-5.294a1.14 1.14 0 1 0 0 2.281 1.14 1.14 0 0 0 0-2.281"/><path fill="#191917" d="M543.446 329.497h8.086v9.578l-1.021 1.901v3.803h-5.704v-3.803l-1.361-1.841z"/><path fill="#EBEBEB" d="M550.511 346.28h-5.704c-.831 0-1.501-.67-1.501-1.501v-3.312l-1.061-1.431a1.5 1.5 0 0 1-.291-.891v-9.648a1.5 1.5 0 0 1 1.502-1.501h8.086a1.5 1.5 0 0 1 1.501 1.501v9.578c0 .25-.06.49-.18.71l-.841 1.572v3.422c0 .831-.67 1.501-1.501 1.501zm-4.203-3.002h2.702v-2.302c0-.25.06-.49.18-.71l.841-1.571v-7.697h-5.084v7.646l1.061 1.432c.19.26.29.57.29.89v2.302z"/><path fill="#191917" d="M377.075 325.435h-2.812c-.64 0-1.151.52-1.151 1.15v10.749l-3.142 7.175h2.722l3.173-7.245h9.457"/><path fill="#EBEBEB" d="M372.692 346.01h-2.722c-.511 0-.981-.26-1.261-.68s-.32-.961-.12-1.421l3.012-6.886v-10.428a2.657 2.657 0 0 1 2.652-2.652h2.812a1.5 1.5 0 0 1 1.502 1.501 1.5 1.5 0 0 1-1.502 1.502h-2.462v9.507c.271-.42.741-.681 1.261-.681h9.458a1.5 1.5 0 0 1 1.501 1.502 1.5 1.5 0 0 1-1.501 1.501h-8.477l-2.782 6.345c-.24.55-.781.9-1.371.9z"/><path fill="#191917" d="M385.452 326.415v16.523c0 .541-.44.981-.981.981h-7.686a.983.983 0 0 1-.981-.981v-16.523c0-.54.441-.98.981-.98h7.686c.541 0 .981.44.981.98"/><path fill="#EBEBEB" d="M384.471 345.42h-7.696a2.48 2.48 0 0 1-2.482-2.482v-16.523a2.48 2.48 0 0 1 2.482-2.482h7.696a2.48 2.48 0 0 1 2.482 2.482v16.523a2.48 2.48 0 0 1-2.482 2.482m-7.165-3.002h6.655v-15.482h-6.655z"/><path fill="#191917" d="M378.847 325.755v5.344h3.563v-5.344"/><path fill="#EBEBEB" d="M382.41 332.1h-3.563c-.551 0-1.001-.45-1.001-1.001v-5.344c0-.55.45-1.001 1.001-1.001s1.001.451 1.001 1.001v4.344h1.561v-4.344c0-.55.45-1.001 1.001-1.001s1 .451 1 1.001v5.344c0 .551-.45 1.001-1 1.001"/><path fill="#191917" d="M678.521 299.994a2.642 2.642 0 1 0 0-5.283 2.642 2.642 0 0 0 0 5.283"/><path fill="#EBEBEB" d="M678.521 301.505a4.15 4.15 0 0 1-4.143-4.143 4.15 4.15 0 0 1 4.143-4.143 4.15 4.15 0 0 1 4.144 4.143 4.15 4.15 0 0 1-4.144 4.143m0-5.294a1.141 1.141 0 1 0 0 2.282 1.141 1.141 0 0 0 0-2.282"/><path fill="#EBEBEB" d="M12.55 404.816v-11.749H8.617v-1.561h9.798v1.561H14.46v11.749z"/><path fill="#EBEBEB" d="M22.858 405.047q-1.365 0-2.432-.631a4.4 4.4 0 0 1-1.661-1.751q-.6-1.129-.6-2.602c0-1.473.2-1.902.6-2.652s.95-1.341 1.661-1.772c.71-.42 1.531-.64 2.472-.64.94 0 1.741.21 2.412.63a4.37 4.37 0 0 1 1.561 1.662c.37.69.55 1.451.55 2.291v.411c0 .15-.02.31-.03.48h-7.835v-1.351h5.974c-.04-.801-.3-1.421-.8-1.871-.49-.451-1.111-.671-1.842-.671-.52 0-.99.12-1.431.35-.44.23-.78.581-1.04 1.031-.261.45-.391 1.021-.391 1.701v.531q0 1.065.39 1.801c.26.491.6.861 1.041 1.101.43.25.9.37 1.411.37.61 0 1.11-.13 1.501-.4q.585-.405.87-1.081h1.902a4 4 0 0 1-.84 1.571c-.39.461-.88.831-1.451 1.091-.58.271-1.241.401-1.992.401"/><path fill="#EBEBEB" d="M29.533 404.816v-13.69h1.902v13.69z"/><path fill="#EBEBEB" d="M38.37 405.047q-1.365 0-2.432-.631a4.4 4.4 0 0 1-1.661-1.751q-.6-1.129-.6-2.602c0-1.473.2-1.902.6-2.652a4.5 4.5 0 0 1 1.661-1.772c.71-.42 1.531-.64 2.472-.64s1.742.21 2.412.63a4.37 4.37 0 0 1 1.561 1.662c.37.69.55 1.451.55 2.291v.411c0 .15-.02.31-.03.48h-7.835v-1.351h5.974c-.04-.801-.3-1.421-.8-1.871-.49-.451-1.111-.671-1.842-.671-.52 0-.99.12-1.43.35-.441.23-.782.581-1.042 1.031s-.39 1.021-.39 1.701v.531q0 1.065.39 1.801c.26.491.6.861 1.041 1.101.43.25.9.37 1.411.37.61 0 1.111-.13 1.501-.4q.585-.405.871-1.081h1.902a4 4 0 0 1-.841 1.571c-.39.461-.88.831-1.451 1.091-.58.271-1.241.401-1.992.401"/><path fill="#EBEBEB" d="M45.045 409v-13.771h1.712l.19 1.481c.2-.29.46-.57.76-.83s.67-.471 1.091-.641.92-.25 1.491-.25c.911 0 1.712.22 2.402.671a4.6 4.6 0 0 1 1.621 1.801c.39.751.581 1.611.581 2.572s-.2 1.821-.59 2.572a4.5 4.5 0 0 1-1.622 1.781c-.69.431-1.49.651-2.402.651q-1.125 0-1.981-.45a3.4 3.4 0 0 1-1.351-1.251v5.644h-1.902zm4.924-5.614c.58 0 1.101-.141 1.551-.421s.801-.67 1.061-1.181q.39-.765.39-1.771c0-.671-.13-1.261-.39-1.761a3 3 0 0 0-1.06-1.181 2.9 2.9 0 0 0-1.552-.431c-.58 0-1.12.14-1.571.431-.45.29-.8.68-1.05 1.181-.251.5-.381 1.09-.381 1.761s.13 1.261.38 1.771c.25.511.6.901 1.05 1.181s.972.421 1.572.421"/><path fill="#EBEBEB" d="M57.115 404.816v-13.69h1.901v5.664c.32-.56.76-.991 1.321-1.311s1.191-.47 1.872-.47c.76 0 1.41.16 1.961.47.55.31.961.771 1.251 1.391.29.611.44 1.381.44 2.312v5.644h-1.88v-5.434q0-1.351-.571-2.042c-.38-.46-.941-.69-1.692-.69-.51 0-.96.12-1.37.36s-.731.591-.971 1.051q-.36.69-.36 1.681v5.074h-1.902z"/><path fill="#EBEBEB" d="M72.677 405.047c-.9 0-1.711-.21-2.422-.631a4.4 4.4 0 0 1-1.691-1.761c-.41-.761-.62-1.621-.62-2.612s.21-1.902.63-2.652a4.6 4.6 0 0 1 1.711-1.762q1.08-.63 2.432-.63c.9 0 1.721.21 2.432.63a4.5 4.5 0 0 1 1.681 1.752c.41.75.62 1.631.62 2.642s-.21 1.891-.62 2.642-.98 1.331-1.701 1.751c-.72.421-1.541.631-2.452.631m0-1.642c.52 0 .99-.13 1.421-.38.42-.25.77-.63 1.031-1.131q.39-.748.39-1.871c0-.751-.13-1.371-.38-1.872-.25-.5-.59-.88-1.02-1.131-.421-.25-.891-.38-1.402-.38s-.98.13-1.411.38c-.43.251-.78.631-1.04 1.131-.261.501-.391 1.121-.391 1.872q0 1.123.39 1.871c.26.501.6.881 1.031 1.131.42.25.88.38 1.381.38"/><path fill="#EBEBEB" d="M79.693 404.816v-9.587h1.71l.111 1.631q.45-.853 1.291-1.361c.56-.34 1.2-.5 1.921-.5.761 0 1.412.15 1.962.46.54.3.97.761 1.271 1.381.3.621.46 1.381.46 2.312v5.664h-1.901v-5.474c0-.89-.2-1.561-.59-2.011s-.961-.681-1.712-.681c-.49 0-.94.12-1.331.35-.39.231-.71.581-.94 1.041-.23.461-.351 1.011-.351 1.671v5.114h-1.901z"/><path fill="#EBEBEB" d="M95.185 405.047q-1.367 0-2.432-.631a4.4 4.4 0 0 1-1.662-1.751q-.6-1.129-.6-2.602c0-1.473.2-1.902.6-2.652a4.5 4.5 0 0 1 1.662-1.772c.71-.42 1.531-.64 2.472-.64.94 0 1.741.21 2.412.63s1.19.971 1.56 1.662c.371.69.551 1.451.551 2.291v.411c0 .15-.02.31-.03.48h-7.836v-1.351h5.975c-.04-.801-.3-1.421-.8-1.871-.491-.451-1.112-.671-1.842-.671-.52 0-.991.12-1.431.35s-.781.581-1.041 1.031-.39 1.021-.39 1.701v.531q0 1.065.39 1.801c.26.491.6.861 1.04 1.101.431.25.901.37 1.412.37.61 0 1.11-.13 1.5-.4q.586-.405.872-1.081h1.901a4 4 0 0 1-.84 1.571c-.39.461-.881.831-1.452 1.091-.58.271-1.24.401-1.991.401"/><path fill="#EBEBEB" d="M180.752 13.93c-.981 0-1.832-.17-2.562-.52q-1.096-.525-1.712-1.47c-.41-.631-.61-1.372-.61-2.222h2.001c.01.48.13.92.351 1.32s.54.721.97.951c.431.23.951.35 1.572.35q.795 0 1.381-.27c.39-.18.68-.42.88-.73s.301-.67.301-1.071c0-.47-.111-.85-.321-1.161-.22-.3-.5-.55-.86-.75-.361-.2-.781-.37-1.251-.52-.471-.151-.971-.321-1.492-.491-1.05-.34-1.831-.79-2.351-1.331-.511-.54-.771-1.251-.771-2.132 0-.75.18-1.401.53-1.952s.851-.98 1.492-1.29c.64-.31 1.401-.47 2.271-.47.871 0 1.622.16 2.262.47.651.32 1.151.75 1.521 1.31.371.56.551 1.211.551 1.962h-2.012c0-.34-.09-.68-.27-1.01a2.06 2.06 0 0 0-.801-.811c-.36-.21-.79-.31-1.311-.31-.43-.01-.82.06-1.161.21-.34.15-.61.37-.8.67s-.29.64-.29 1.04c0 .401.09.731.26.982.17.25.42.46.75.64.331.18.711.34 1.151.48s.921.31 1.451.48a9 9 0 0 1 1.762.791c.51.31.921.711 1.221 1.201s.45 1.111.45 1.872c0 .66-.17 1.27-.51 1.841-.341.57-.851 1.041-1.521 1.401-.671.36-1.512.54-2.512.54z"/><path fill="#EBEBEB" d="M191.4 13.7c-.601 0-1.111-.1-1.561-.29a2.1 2.1 0 0 1-1.031-.95q-.36-.66-.361-1.802V5.734h-1.651V4.113h1.651l.231-2.392h1.671v2.392h2.722v1.621h-2.722v4.944c0 .54.11.92.34 1.111.23.2.621.29 1.181.29h1.101V13.7h-1.581z"/><path fill="#EBEBEB" d="M198.345 13.93c-.79 0-1.441-.13-1.961-.4-.521-.27-.911-.62-1.161-1.07s-.38-.931-.38-1.452c0-.63.16-1.17.49-1.621.33-.45.801-.79 1.411-1.04q.915-.361 2.192-.361h2.492c0-.56-.08-1.02-.251-1.391-.16-.37-.41-.64-.73-.83-.32-.181-.731-.281-1.231-.281-.57 0-1.061.14-1.461.41s-.661.67-.761 1.211h-1.901c.08-.67.31-1.25.69-1.721.391-.48.881-.84 1.491-1.101a4.9 4.9 0 0 1 1.942-.39c.901 0 1.651.16 2.262.48.61.32 1.071.76 1.381 1.341.31.58.47 1.261.47 2.062v5.934h-1.651l-.15-1.62c-.14.25-.3.49-.491.72-.19.23-.42.42-.67.59-.26.17-.561.29-.891.39-.34.1-.71.14-1.111.14zm.361-1.54c.41 0 .77-.08 1.1-.25.331-.161.611-.391.851-.671s.41-.61.53-.971c.121-.36.191-.73.201-1.111v-.06h-2.262c-.541 0-.991.07-1.321.2s-.581.31-.731.54-.23.49-.23.801c0 .31.07.59.22.81s.361.401.641.521.61.19 1.011.19z"/><path fill="#EBEBEB" d="M205.761 13.7V4.114h1.712l.11 1.631c.3-.57.73-1.02 1.291-1.36.56-.33 1.201-.501 1.921-.501.761 0 1.411.15 1.962.46.54.3.97.76 1.271 1.381.3.61.46 1.381.46 2.312v5.665h-1.901V8.226c0-.89-.201-1.56-.591-2.011-.39-.45-.961-.68-1.711-.68-.491 0-.941.12-1.331.35-.391.23-.711.58-.941 1.04s-.35 1.011-.35 1.672v5.114h-1.902z"/><path fill="#EBEBEB" d="M221.183 13.93c-.911 0-1.721-.22-2.412-.66a4.4 4.4 0 0 1-1.621-1.791c-.39-.75-.58-1.611-.58-2.572 0-.96.19-1.841.58-2.582a4.5 4.5 0 0 1 1.631-1.781q1.053-.66 2.422-.661 1.126 0 1.982.45c.57.3 1.01.721 1.331 1.261V0h1.901v13.69h-1.691l-.21-1.48c-.19.29-.441.57-.741.83s-.67.47-1.101.64-.92.25-1.481.25zm.3-1.66c.601 0 1.121-.14 1.582-.42.46-.28.81-.671 1.05-1.182.251-.51.371-1.1.371-1.771s-.12-1.261-.371-1.761c-.25-.5-.6-.891-1.05-1.181-.461-.29-.981-.43-1.582-.43-.6 0-1.08.14-1.541.43s-.81.68-1.061 1.18c-.25.501-.38 1.091-.38 1.762 0 .67.13 1.261.38 1.771.251.51.611.901 1.061 1.181a2.9 2.9 0 0 0 1.541.42"/><path fill="#EBEBEB" d="M232.192 13.93c-.791 0-1.441-.13-1.962-.4s-.91-.62-1.161-1.07c-.25-.45-.38-.931-.38-1.452 0-.63.16-1.17.49-1.621.331-.45.801-.79 1.412-1.04q.916-.361 2.191-.361h2.492c0-.56-.08-1.02-.25-1.391-.16-.37-.41-.64-.731-.83-.32-.181-.73-.281-1.23-.281-.571 0-1.061.14-1.462.41-.4.27-.66.67-.76 1.211h-1.902c.08-.67.311-1.25.691-1.721.39-.48.881-.84 1.491-1.101.61-.26 1.251-.39 1.942-.39q1.348 0 2.261.48c.611.32 1.071.76 1.381 1.341.311.58.471 1.261.471 2.062v5.934h-1.652l-.15-1.62c-.14.25-.3.49-.49.72s-.42.42-.671.59c-.26.17-.56.29-.89.39-.341.1-.711.14-1.111.14zm.36-1.54c.41 0 .771-.08 1.101-.25.33-.161.61-.391.851-.671.24-.28.41-.61.53-.971.12-.36.19-.73.2-1.111v-.06h-2.262c-.54 0-.99.07-1.321.2s-.58.31-.73.54-.23.49-.23.801c0 .31.07.59.22.81s.36.401.64.521c.281.12.611.19 1.011.19z"/><path fill="#EBEBEB" d="M239.608 13.7V4.114h1.711l.17 1.802a3.5 3.5 0 0 1 2.052-1.781c.46-.161.99-.251 1.591-.251v2.011h-.681c-.39 0-.77.05-1.121.14-.35.09-.67.26-.94.481-.27.23-.481.54-.641.93-.16.391-.23.881-.23 1.462v4.774h-1.901z"/><path fill="#EBEBEB" d="M250.826 13.93c-.91 0-1.721-.22-2.411-.66a4.4 4.4 0 0 1-1.622-1.791c-.39-.75-.58-1.611-.58-2.572 0-.96.19-1.841.58-2.582a4.5 4.5 0 0 1 1.632-1.781c.7-.44 1.511-.661 2.421-.661q1.127 0 1.982.45a3.3 3.3 0 0 1 1.331 1.261V0h1.902v13.69h-1.692l-.21-1.48c-.19.29-.44.57-.741.83-.3.26-.67.47-1.1.64s-.921.25-1.482.25zm.301-1.66c.6 0 1.121-.14 1.581-.42s.811-.671 1.051-1.182c.25-.51.37-1.1.37-1.771s-.12-1.261-.37-1.761-.601-.891-1.051-1.181c-.46-.29-.981-.43-1.581-.43-.601 0-1.081.14-1.541.43a2.9 2.9 0 0 0-1.061 1.18c-.251.501-.381 1.091-.381 1.762 0 .67.13 1.261.381 1.771.25.51.61.901 1.061 1.181.46.28.97.42 1.541.42"/><path fill="#EBEBEB" d="M153.64 36.518v-9.587h1.712l.13 1.35c.3-.49.71-.88 1.221-1.16q.766-.42 1.711-.42c.48 0 .921.07 1.311.2s.741.33 1.041.6.55.59.741.991c.34-.56.8-.99 1.381-1.311q.87-.48 1.831-.48c.771 0 1.441.16 1.992.47.56.31.98.77 1.271 1.391.29.62.44 1.381.44 2.292v5.664h-1.882v-5.474q0-1.335-.54-2.012c-.36-.46-.891-.68-1.591-.68-.471 0-.891.12-1.251.36-.37.24-.661.59-.861 1.041s-.31 1.01-.31 1.671v5.094h-1.902v-5.474q0-1.335-.54-2.012c-.36-.46-.891-.68-1.591-.68-.441 0-.851.12-1.221.36s-.661.59-.871 1.041c-.22.46-.32 1.01-.32 1.671v5.094z"/><path fill="#EBEBEB" d="M174.066 36.75c-.79 0-1.441-.13-1.961-.401-.521-.27-.911-.62-1.161-1.07s-.38-.932-.38-1.452c0-.63.16-1.171.49-1.621s.801-.791 1.411-1.041q.915-.36 2.192-.36h2.492c0-.56-.08-1.021-.251-1.392a1.75 1.75 0 0 0-.73-.83c-.32-.18-.731-.28-1.231-.28-.571 0-1.061.14-1.461.41s-.661.67-.761 1.21h-1.901c.08-.67.31-1.25.69-1.72.391-.48.881-.841 1.491-1.101a4.9 4.9 0 0 1 1.942-.39c.901 0 1.651.16 2.262.48.61.32 1.071.76 1.381 1.34s.47 1.262.47 2.062v5.935h-1.651l-.15-1.621c-.14.25-.3.49-.491.72-.19.23-.42.42-.67.59-.26.17-.561.291-.891.391-.34.1-.71.14-1.111.14zm.361-1.542c.41 0 .77-.08 1.1-.25.331-.16.611-.39.851-.67s.41-.611.53-.971.191-.731.201-1.111v-.06h-2.262c-.541 0-.991.07-1.321.2s-.581.31-.731.54-.23.49-.23.8.07.591.22.811.361.4.641.52.61.191 1.011.191z"/><path fill="#EBEBEB" d="M185.185 36.749c-.811 0-1.521-.13-2.132-.4-.61-.27-1.09-.641-1.441-1.121a3.55 3.55 0 0 1-.65-1.692h1.941c.06.3.19.58.371.84.18.251.44.461.76.611s.711.23 1.151.23c.42 0 .761-.06 1.041-.18.27-.12.47-.28.6-.49s.191-.43.191-.67c0-.35-.091-.621-.261-.811s-.42-.33-.76-.44a9 9 0 0 0-1.211-.29 10 10 0 0 1-1.281-.311c-.411-.13-.781-.3-1.101-.5s-.581-.46-.771-.77c-.19-.311-.28-.691-.28-1.152 0-.54.15-1.04.44-1.471.291-.44.711-.78 1.241-1.03.531-.251 1.171-.371 1.912-.371 1.061 0 1.921.25 2.562.76s1.031 1.221 1.141 2.152h-1.842c-.05-.43-.24-.76-.57-1-.33-.23-.771-.35-1.311-.35-.541 0-.961.11-1.251.32s-.44.5-.44.85c0 .23.08.43.25.61.16.18.41.33.73.45.321.121.721.231 1.191.331.671.13 1.271.29 1.812.48.53.19.96.47 1.271.841.32.37.47.89.47 1.581.01.6-.14 1.121-.45 1.582-.311.46-.751.81-1.311 1.06-.561.25-1.231.38-2.002.38z"/><path fill="#EBEBEB" d="M194.753 36.518c-.601 0-1.111-.1-1.562-.29-.44-.19-.79-.51-1.031-.95q-.36-.662-.36-1.802v-4.924h-1.651V26.93h1.651l.23-2.392h1.672v2.392h2.722v1.62h-2.722v4.945c0 .54.11.92.34 1.11.23.2.62.29 1.181.29h1.101v1.622h-1.581z"/><path fill="#EBEBEB" d="M202.589 36.749q-1.367 0-2.432-.631c-.711-.42-1.261-1-1.662-1.751-.4-.751-.6-1.622-.6-2.602 0-.981.2-1.902.6-2.652a4.5 4.5 0 0 1 1.662-1.772c.71-.42 1.531-.64 2.472-.64.94 0 1.741.21 2.412.63s1.19.97 1.561 1.661c.37.69.55 1.451.55 2.292v.41c0 .15-.02.31-.03.48h-7.836v-1.35h5.975c-.04-.8-.301-1.421-.801-1.872-.49-.45-1.111-.67-1.841-.67-.521 0-.991.12-1.431.35s-.781.58-1.041 1.03-.391 1.022-.391 1.702v.53q0 1.067.391 1.802c.26.49.6.85 1.041 1.1s.9.371 1.411.371c.61 0 1.111-.13 1.501-.4q.585-.405.871-1.08h1.901a4 4 0 0 1-.841 1.57c-.39.46-.88.83-1.451 1.091-.58.27-1.241.4-1.991.4"/><path fill="#EBEBEB" d="M209.264 36.518v-9.587h1.711l.17 1.801a3.52 3.52 0 0 1 2.052-1.781c.46-.16.991-.25 1.591-.25v2.011h-.68c-.391 0-.771.05-1.121.14s-.671.26-.941.48c-.27.23-.48.541-.64.931s-.231.881-.231 1.461v4.774h-1.901z"/><path fill="#EBEBEB" d="M225.096 36.749c-.81 0-1.521-.13-2.131-.4-.611-.27-1.091-.641-1.442-1.121a3.55 3.55 0 0 1-.65-1.692h1.941c.06.3.191.58.371.84.18.251.44.461.76.611.321.15.711.23 1.151.23.421 0 .761-.06 1.041-.18.27-.12.47-.28.601-.49.13-.21.19-.43.19-.67 0-.35-.09-.621-.261-.811-.17-.19-.42-.33-.76-.44s-.741-.21-1.211-.29c-.44-.08-.871-.18-1.281-.311-.41-.13-.781-.3-1.101-.5s-.58-.46-.771-.77c-.19-.311-.28-.691-.28-1.152 0-.54.15-1.04.441-1.471.29-.44.71-.78 1.241-1.03.53-.251 1.17-.371 1.911-.371 1.061 0 1.922.25 2.562.76.641.51 1.031 1.221 1.141 2.152h-1.841c-.051-.43-.241-.76-.571-1-.33-.23-.771-.35-1.311-.35s-.961.11-1.251.32-.44.5-.44.85c0 .23.08.43.25.61.16.18.41.33.73.45.321.121.721.231 1.191.331.671.13 1.271.29 1.812.48.53.19.961.47 1.271.841.32.37.47.89.47 1.581.01.6-.14 1.121-.45 1.582-.31.46-.751.81-1.311 1.06-.561.25-1.231.38-2.002.38z"/><path fill="#EBEBEB" d="M235.484 36.749c-.9 0-1.711-.21-2.421-.631a4.4 4.4 0 0 1-1.692-1.761c-.41-.751-.62-1.622-.62-2.613s.21-1.9.63-2.651a4.6 4.6 0 0 1 1.712-1.762q1.08-.63 2.432-.63c.9 0 1.721.21 2.431.63.711.42 1.271 1 1.682 1.752.41.75.62 1.63.62 2.642 0 1.01-.21 1.891-.62 2.642a4.5 4.5 0 0 1-1.702 1.751c-.72.42-1.541.63-2.452.63m0-1.642c.521 0 .991-.13 1.422-.38.42-.25.77-.63 1.03-1.131.261-.5.391-1.12.391-1.871s-.13-1.372-.381-1.872c-.25-.5-.59-.88-1.02-1.13a2.7 2.7 0 0 0-1.401-.381c-.511 0-.981.13-1.412.38s-.78.63-1.04 1.131c-.261.5-.391 1.12-.391 1.871s.13 1.372.391 1.872c.26.5.6.88 1.03 1.13a2.65 2.65 0 0 0 1.381.381"/><path fill="#EBEBEB" d="M246.923 36.749c-.92 0-1.751-.21-2.472-.641a4.5 4.5 0 0 1-1.701-1.761c-.41-.751-.62-1.622-.62-2.603 0-.98.21-1.88.62-2.631s.981-1.342 1.701-1.772c.721-.42 1.552-.64 2.472-.64 1.171 0 2.142.3 2.933.91s1.291 1.431 1.501 2.472h-1.982c-.13-.56-.42-.99-.86-1.29-.451-.301-.991-.461-1.612-.461q-.765 0-1.411.39c-.43.26-.78.64-1.041 1.141-.26.5-.39 1.121-.39 1.852 0 .54.08 1.03.23 1.45.15.421.361.781.621 1.072q.39.435.9.66c.341.15.701.22 1.081.22.421 0 .791-.07 1.131-.2q.508-.195.851-.6c.23-.27.4-.58.48-.951h1.982c-.22 1.01-.721 1.831-1.501 2.442-.791.61-1.762.92-2.933.92z"/><path fill="#EBEBEB" d="M253.579 36.518v-13.69h1.901v13.69zm6.034 0-4.413-5.244 3.993-4.333h2.302l-4.754 5.074v-1.431l5.264 5.934z"/><path fill="#EBEBEB" d="M267.219 36.749q-1.365 0-2.432-.631a4.4 4.4 0 0 1-1.661-1.751c-.4-.751-.6-1.622-.6-2.602 0-.981.2-1.902.6-2.652q.598-1.127 1.661-1.772c.711-.42 1.532-.64 2.472-.64.941 0 1.742.21 2.412.63a4.36 4.36 0 0 1 1.561 1.661c.371.69.551 1.451.551 2.292v.41c0 .15-.02.31-.03.48h-7.836v-1.35h5.974c-.04-.8-.3-1.421-.8-1.872-.491-.45-1.111-.67-1.842-.67-.52 0-.99.12-1.431.35-.44.23-.78.58-1.041 1.03s-.39 1.022-.39 1.702v.53q0 1.067.39 1.802c.261.49.601.85 1.041 1.1.441.251.901.371 1.411.371.611 0 1.111-.13 1.502-.4q.585-.405.87-1.08h1.902c-.16.58-.441 1.11-.841 1.57-.39.46-.881.83-1.451 1.091-.581.27-1.241.4-1.992.4"/><path fill="#EBEBEB" d="M277.557 36.518c-.6 0-1.11-.1-1.561-.29-.44-.19-.79-.51-1.031-.95q-.36-.662-.36-1.802v-4.924h-1.651V26.93h1.651l.23-2.392h1.672v2.392h2.722v1.62h-2.722v4.945c0 .54.11.92.34 1.11.23.2.62.29 1.181.29h1.101v1.622h-1.582z"/><path fill="#EBEBEB" d="M252.488 404.816v-13.31h4.083c1.541 0 2.822.27 3.843.82q1.516.812 2.252 2.312c.49.991.73 2.172.73 3.543s-.24 2.552-.73 3.533c-.491.991-1.231 1.751-2.242 2.292s-2.292.81-3.853.81zm1.901-1.601h2.112c1.231 0 2.202-.2 2.932-.61.721-.411 1.241-.981 1.551-1.742.311-.75.471-1.651.471-2.692s-.16-1.961-.471-2.722a3.48 3.48 0 0 0-1.551-1.751c-.72-.411-1.701-.611-2.932-.611h-2.112z"/><path fill="#EBEBEB" d="M270.031 405.046c-.98 0-1.831-.17-2.562-.52q-1.096-.526-1.711-1.471c-.41-.631-.61-1.371-.61-2.222h2.001c.01.481.13.921.35 1.321.221.401.541.721.971.951.421.24.951.35 1.571.35q.796 0 1.381-.27c.391-.18.681-.42.881-.731.2-.31.3-.67.3-1.07 0-.471-.11-.861-.32-1.161s-.5-.551-.861-.751c-.36-.2-.78-.37-1.25-.52-.471-.15-.971-.321-1.492-.491-1.05-.34-1.831-.79-2.351-1.331-.511-.54-.771-1.251-.771-2.131 0-.751.18-1.401.53-1.952s.851-.981 1.491-1.291 1.402-.46 2.272-.46c.871 0 1.622.16 2.262.47.641.31 1.151.751 1.521 1.311.371.561.551 1.211.551 1.962h-2.012c0-.341-.09-.681-.27-1.011a2.07 2.07 0 0 0-.801-.811c-.36-.21-.79-.31-1.311-.31-.43-.01-.82.06-1.161.21-.34.15-.61.37-.8.671-.19.29-.291.64-.291 1.04 0 .401.091.731.261.981s.42.461.75.641c.331.18.711.34 1.151.48.44.15.921.31 1.451.481.661.22 1.241.48 1.762.79.51.31.92.711 1.221 1.201.3.49.45 1.111.45 1.872 0 .66-.17 1.271-.51 1.841-.341.57-.851 1.041-1.522 1.401-.67.36-1.511.54-2.512.54z"/><path fill="#EBEBEB" d="M276.847 404.816v-13.31h1.901v11.809h6.085v1.501z"/><path fill="#EBEBEB" d="M296.262 405.047c-.921 0-1.751-.211-2.472-.641a4.57 4.57 0 0 1-1.701-1.761c-.411-.751-.621-1.611-.621-2.602s.21-1.882.621-2.632a4.6 4.6 0 0 1 1.701-1.772c.721-.42 1.551-.64 2.472-.64 1.171 0 2.142.3 2.932.911.791.61 1.291 1.431 1.501 2.471h-1.981c-.13-.56-.42-.99-.861-1.291-.45-.3-.99-.46-1.611-.46q-.765 0-1.411.39c-.43.261-.781.641-1.041 1.141q-.39.753-.39 1.852c0 .54.08 1.031.23 1.451s.36.78.62 1.071q.391.435.901.66c.34.15.701.22 1.081.22.42 0 .791-.07 1.131-.2s.62-.33.851-.6.4-.581.48-.951h1.981c-.22 1.011-.72 1.831-1.501 2.442-.79.61-1.761.921-2.932.921z"/><path fill="#EBEBEB" d="M306.09 405.046c-.791 0-1.441-.13-1.962-.4s-.91-.62-1.161-1.071c-.25-.45-.38-.93-.38-1.451 0-.63.16-1.171.49-1.621.331-.45.801-.791 1.412-1.041q.916-.36 2.191-.36h2.492c0-.561-.08-1.021-.25-1.391a1.8 1.8 0 0 0-.731-.831c-.32-.18-.73-.28-1.231-.28-.57 0-1.06.14-1.461.41-.4.27-.66.671-.76 1.211h-1.902c.08-.67.311-1.241.691-1.721.39-.471.88-.841 1.491-1.101.61-.26 1.251-.39 1.941-.39.901 0 1.652.16 2.262.47.611.32 1.071.761 1.381 1.341s.471 1.261.471 2.062v5.934h-1.652l-.15-1.621c-.14.25-.3.49-.49.721s-.42.42-.671.59c-.26.17-.56.29-.89.39-.341.09-.711.14-1.111.14zm.36-1.541c.41 0 .771-.08 1.101-.25s.61-.39.851-.67c.24-.281.41-.611.53-.971.12-.361.19-.731.2-1.111v-.06h-2.262c-.54 0-.99.07-1.321.2-.34.13-.58.31-.73.54s-.23.491-.23.801.07.59.22.811c.15.22.36.4.64.52.281.13.611.19 1.011.19z"/><path fill="#EBEBEB" d="M318.73 405.047c-.521 0-.991-.071-1.421-.221a3.7 3.7 0 0 1-1.912-1.471l-.19 1.461h-1.711v-13.69h1.901v5.604c.3-.48.731-.891 1.281-1.221.55-.34 1.231-.5 2.042-.5.91 0 1.721.22 2.412.66.7.441 1.24 1.031 1.621 1.792.39.75.58 1.621.58 2.592 0 .97-.19 1.801-.58 2.562-.391.76-.931 1.361-1.621 1.791-.701.43-1.502.651-2.412.651zm-.301-1.662q.874 0 1.552-.42a2.9 2.9 0 0 0 1.06-1.181q.391-.765.391-1.771 0-1.009-.391-1.762c-.26-.5-.61-.89-1.06-1.181a2.9 2.9 0 0 0-1.552-.43c-.58 0-1.121.14-1.571.43-.45.291-.8.681-1.051 1.181-.25.501-.38 1.091-.38 1.762 0 .67.13 1.261.38 1.771q.376.763 1.051 1.181c.45.28.971.42 1.571.42"/><path fill="#EBEBEB" d="M325.575 404.816v-13.69h1.902v13.69z"/><path fill="#EBEBEB" d="M334.422 405.047q-1.366 0-2.432-.631a4.37 4.37 0 0 1-1.661-1.751q-.601-1.129-.601-2.602c0-1.473.2-1.902.601-2.652s.95-1.341 1.661-1.772c.711-.42 1.531-.64 2.472-.64s1.741.21 2.412.63a4.37 4.37 0 0 1 1.561 1.662c.37.69.55 1.451.55 2.291v.411c0 .15-.02.31-.03.48h-7.836v-1.351h5.975c-.04-.801-.3-1.421-.801-1.871-.49-.451-1.111-.671-1.841-.671-.521 0-.991.12-1.431.35s-.781.581-1.041 1.031-.39 1.021-.39 1.701v.531q0 1.065.39 1.801c.26.491.6.861 1.041 1.101.43.25.9.37 1.411.37.61 0 1.111-.13 1.501-.4q.585-.405.871-1.081h1.901a4 4 0 0 1-.84 1.571 4.14 4.14 0 0 1-1.452 1.091c-.58.271-1.241.401-1.991.401"/><path fill="#EBEBEB" d="M586.8 234.694v-13.311h4.543c1.061 0 1.942.18 2.622.531.681.35 1.191.83 1.521 1.431.331.6.491 1.271.491 2.031s-.16 1.382-.481 1.992c-.32.601-.83 1.081-1.511 1.441q-1.02.54-2.642.541h-2.642v5.344zm1.901-6.926h2.562c1.001 0 1.711-.22 2.142-.66s.64-1.021.64-1.742c0-.77-.21-1.371-.64-1.791s-1.141-.63-2.142-.63h-2.562z"/><path fill="#EBEBEB" d="M601.791 234.914c-.9 0-1.711-.21-2.422-.63a4.4 4.4 0 0 1-1.691-1.761c-.41-.751-.62-1.622-.62-2.613s.21-1.901.63-2.652c.42-.75.991-1.341 1.711-1.761q1.082-.63 2.432-.63c.901 0 1.722.21 2.432.63a4.5 4.5 0 0 1 1.682 1.751c.41.751.62 1.632.62 2.642s-.21 1.892-.62 2.643a4.5 4.5 0 0 1-1.702 1.751c-.72.42-1.541.63-2.452.63m0-1.631c.521 0 .991-.13 1.421-.38.421-.25.771-.631 1.031-1.131.261-.5.391-1.121.391-1.872 0-.75-.13-1.371-.381-1.871-.25-.5-.59-.881-1.021-1.131-.42-.25-.89-.38-1.401-.38-.51 0-.98.13-1.411.38-.43.25-.78.631-1.041 1.131q-.39.748-.39 1.871c0 .751.13 1.372.39 1.872.261.5.601.881 1.031 1.131.421.25.881.38 1.381.38"/><path fill="#EBEBEB" d="m610.398 234.693-2.812-9.587h1.881l2.092 7.986-.36-.02 2.322-7.966h2.131l2.322 7.966-.36.02 2.071-7.986h1.922l-2.812 9.587h-1.962l-2.432-8.306h.381l-2.432 8.306z"/><path fill="#EBEBEB" d="M627.301 234.914q-1.365 0-2.432-.63a4.4 4.4 0 0 1-1.661-1.751c-.4-.751-.6-1.622-.6-2.603 0-.98.2-1.901.6-2.652q.598-1.126 1.661-1.771c1.063-.645 1.532-.64 2.472-.64.941 0 1.742.21 2.412.63a4.37 4.37 0 0 1 1.562 1.661c.37.691.55 1.451.55 2.292v.41c0 .151-.02.311-.03.481h-7.836v-1.351h5.974c-.04-.801-.3-1.421-.8-1.872-.491-.45-1.111-.67-1.842-.67-.52 0-.99.12-1.431.35-.44.23-.78.58-1.041 1.031s-.39 1.021-.39 1.701v.531q0 1.066.39 1.801c.261.49.601.851 1.041 1.101.431.25.901.37 1.411.37.611 0 1.111-.13 1.502-.4q.585-.406.87-1.081h1.902a4 4 0 0 1-.841 1.571c-.39.461-.881.831-1.451 1.091s-1.241.4-1.992.4"/><path fill="#EBEBEB" d="M633.976 234.694v-9.588h1.712l.17 1.812c.22-.431.49-.791.841-1.091.34-.3.74-.531 1.211-.691.46-.16.99-.25 1.591-.25v2.012h-.681c-.39 0-.77.05-1.121.14-.35.09-.67.26-.94.48-.271.23-.481.541-.641.931s-.23.881-.23 1.461v4.774h-1.901z"/><path fill="#EBEBEB" d="M649.819 234.914c-.811 0-1.521-.13-2.132-.401-.61-.27-1.091-.64-1.441-1.12a3.56 3.56 0 0 1-.65-1.692h1.941c.06.3.19.581.371.841.18.26.44.46.76.61s.711.23 1.151.23c.42 0 .761-.06 1.041-.18.27-.12.47-.28.6-.49s.19-.43.19-.671c0-.35-.09-.62-.26-.81s-.42-.33-.76-.441a9 9 0 0 0-1.211-.29 10 10 0 0 1-1.281-.31c-.411-.13-.781-.3-1.101-.5a2.4 2.4 0 0 1-.771-.771c-.19-.31-.28-.691-.28-1.151 0-.54.15-1.041.44-1.471.291-.44.711-.781 1.241-1.031s1.171-.37 1.912-.37c1.061 0 1.921.25 2.562.76.65.511 1.031 1.221 1.141 2.152h-1.842c-.05-.43-.24-.76-.57-1.001-.33-.23-.771-.35-1.311-.35-.541 0-.961.11-1.251.32-.29.221-.441.501-.441.851 0 .23.08.43.251.61.16.181.41.331.73.451s.721.23 1.191.33c.671.13 1.271.29 1.812.48.53.191.96.471 1.271.841.32.37.47.891.47 1.581.01.601-.14 1.121-.45 1.582-.311.46-.751.81-1.311 1.06-.561.251-1.231.381-2.002.381z"/><path fill="#EBEBEB" d="M659.346 234.914c-.75 0-1.401-.15-1.951-.46a2.97 2.97 0 0 1-1.271-1.372c-.3-.61-.451-1.371-.451-2.301v-5.685h1.902v5.474c0 .901.2 1.582.59 2.032.391.46.961.681 1.692.681.49 0 .94-.12 1.341-.361.4-.24.71-.59.94-1.04.231-.451.341-1.011.341-1.672v-5.114h1.901v9.588h-1.691l-.13-1.632a3.3 3.3 0 0 1-1.271 1.372c-.561.33-1.201.49-1.942.49"/><path fill="#EBEBEB" d="M666.992 238.878v-13.771h1.712l.19 1.481c.2-.29.46-.571.76-.831a3.9 3.9 0 0 1 1.091-.64c.421-.16.921-.25 1.491-.25.911 0 1.712.22 2.402.67a4.56 4.56 0 0 1 1.622 1.801c.39.751.58 1.612.58 2.572 0 .961-.2 1.822-.59 2.572-.391.751-.931 1.352-1.622 1.782-.69.43-1.491.65-2.402.65q-1.125 0-1.981-.45a3.44 3.44 0 0 1-1.351-1.241v5.644h-1.902zm4.924-5.615c.581 0 1.101-.14 1.551-.42.451-.28.801-.671 1.061-1.181q.39-.766.391-1.772c0-.67-.131-1.261-.391-1.761s-.61-.891-1.061-1.181c-.45-.28-.97-.43-1.551-.43-.58 0-1.121.14-1.571.43q-.676.433-1.051 1.181c-.25.5-.38 1.091-.38 1.761 0 .671.13 1.261.38 1.772q.375.763 1.051 1.181c.45.28.971.42 1.571.42"/><path fill="#EBEBEB" d="M679.062 238.878v-13.771h1.711l.19 1.481c.2-.29.461-.571.761-.831s.67-.47 1.091-.64c.42-.16.92-.25 1.491-.25.911 0 1.711.22 2.402.67a4.56 4.56 0 0 1 1.621 1.801c.39.751.581 1.612.581 2.572 0 .961-.201 1.822-.591 2.572a4.5 4.5 0 0 1-1.621 1.782c-.691.43-1.491.65-2.402.65q-1.126 0-1.982-.45a3.45 3.45 0 0 1-1.351-1.241v5.644h-1.901zm4.924-5.615c.58 0 1.101-.14 1.551-.42s.801-.671 1.061-1.181q.39-.766.39-1.772c0-.67-.13-1.261-.39-1.761s-.611-.891-1.061-1.181a2.9 2.9 0 0 0-1.551-.43c-.581 0-1.121.14-1.572.43q-.675.433-1.05 1.181c-.251.5-.381 1.091-.381 1.761 0 .671.13 1.261.381 1.772q.375.763 1.05 1.181c.451.28.971.42 1.572.42"/><path fill="#EBEBEB" d="M691.141 234.694v-13.691h1.902v13.691z"/><path fill="#EBEBEB" d="m696.746 238.878 2.341-5.245h-.55l-3.783-8.516h2.052l3.002 6.955 3.022-6.955h2.002l-6.085 13.77h-2.001z"/><path fill="#EBEBEB" d="m385.402 118.983-3.613-13.31h2.032l2.702 11.088 3.102-11.088h2.112l3.002 11.118 2.742-11.118h2.032l-3.673 13.31h-2.222l-2.982-10.588-3.062 10.588z"/><path fill="#EBEBEB" d="M402.395 107.594c-.37 0-.67-.11-.9-.34a1.18 1.18 0 0 1-.351-.871c0-.35.12-.62.351-.84q.345-.331.9-.331c.371 0 .651.11.891.331q.36.33.36.84c0 .34-.12.651-.36.871-.24.23-.541.34-.891.34m-.961 11.389v-9.587h1.902v9.587z"/><path fill="#EBEBEB" d="M406.168 114.18v-1.602h7.686v1.602z"/><path fill="#EBEBEB" d="M416.646 118.983v-13.31h8.267v1.561h-6.365v4.313h5.324v1.521h-5.324v5.915z"/><path fill="#EBEBEB" d="M427.955 107.594c-.37 0-.67-.11-.901-.34s-.35-.521-.35-.871.12-.62.35-.84q.346-.331.901-.331c.37 0 .651.11.891.331q.36.33.36.84c0 .34-.12.651-.36.871-.24.23-.541.34-.891.34m-.971 11.389v-9.587h1.902v9.587z"/><path fill="#EBEBEB" d="M436.572 118.983v-13.31h1.901v13.31zm1.571-6.005v-1.561h7.306v1.561zm6.885 6.005v-13.31h1.902v13.31z"/><path fill="#EBEBEB" d="M453.135 119.213c-.751 0-1.401-.15-1.952-.46a2.98 2.98 0 0 1-1.271-1.372c-.3-.61-.45-1.371-.45-2.301v-5.685h1.901v5.475c0 .9.201 1.581.591 2.031s.961.681 1.691.681c.491 0 .941-.12 1.341-.361.401-.24.711-.59.941-1.04s.34-1.011.34-1.672v-5.114h1.902v9.588h-1.692l-.13-1.632a3.3 3.3 0 0 1-1.271 1.372c-.56.33-1.201.49-1.941.49"/><path fill="#EBEBEB" d="M466.005 119.213c-.52 0-.991-.07-1.421-.22a3.5 3.5 0 0 1-1.111-.6 3.7 3.7 0 0 1-.801-.871l-.19 1.461h-1.711v-13.691h1.901v5.615c.301-.481.731-.891 1.281-1.231.551-.33 1.231-.501 2.042-.501.911 0 1.721.221 2.412.661.7.44 1.241 1.031 1.621 1.791.39.751.58 1.622.58 2.592 0 .971-.19 1.812-.58 2.572a4.47 4.47 0 0 1-1.621 1.792c-.701.43-1.501.65-2.412.65zm-.31-1.651c.58 0 1.101-.14 1.551-.42.45-.281.8-.671 1.061-1.181q.39-.766.39-1.772c0-.67-.13-1.261-.39-1.761a3.04 3.04 0 0 0-1.061-1.181c-.45-.29-.971-.43-1.551-.43-.581 0-1.121.14-1.572.43q-.675.433-1.05 1.181c-.251.5-.381 1.091-.381 1.761 0 .671.13 1.261.381 1.772.25.51.6.9 1.05 1.181.451.28.971.42 1.572.42"/><path fill="#EBEBEB" d="M477.814 118.983v-13.31h4.544c1.061 0 1.941.18 2.622.53.68.36 1.191.831 1.521 1.431.33.591.49 1.271.49 2.032a4.1 4.1 0 0 1-.48 1.991c-.32.601-.831 1.081-1.511 1.441q-1.021.541-2.642.541h-2.642v5.344zm1.902-6.915h2.562c1 0 1.711-.221 2.141-.661.421-.44.641-1.021.641-1.741 0-.771-.21-1.371-.641-1.792q-.643-.63-2.141-.63h-2.562z"/><path fill="#EBEBEB" d="M488.953 118.983v-9.587h1.711l.17 1.801a3.53 3.53 0 0 1 2.052-1.781c.46-.16.991-.25 1.591-.25v2.011h-.68c-.391 0-.771.05-1.121.14s-.671.26-.941.481c-.27.23-.48.54-.64.93-.16.391-.231.881-.231 1.462v4.773h-1.901z"/><path fill="#EBEBEB" d="M500.292 119.213c-.901 0-1.712-.21-2.422-.63a4.4 4.4 0 0 1-1.691-1.761c-.411-.751-.621-1.622-.621-2.612 0-.991.21-1.902.631-2.653a4.6 4.6 0 0 1 1.711-1.761q1.08-.63 2.432-.63c.9 0 1.721.21 2.432.63a4.5 4.5 0 0 1 1.681 1.751c.41.751.62 1.632.62 2.643s-.21 1.891-.62 2.642a4.5 4.5 0 0 1-1.701 1.751c-.721.42-1.542.63-2.452.63m0-1.631c.52 0 .991-.13 1.421-.38.42-.25.77-.631 1.031-1.131s.39-1.121.39-1.871c0-.751-.13-1.372-.38-1.872-.251-.5-.591-.881-1.021-1.131-.42-.25-.891-.38-1.401-.38-.511 0-.981.13-1.411.38s-.781.631-1.041 1.131-.39 1.121-.39 1.872c0 .75.13 1.371.39 1.871s.6.881 1.031 1.131c.42.25.88.38 1.381.38"/></svg>