<svg xmlns="http://www.w3.org/2000/svg" width="412" height="311" fill="none" viewBox="0 0 412 311"><path fill="#FFFBE8" d="M410.294 275.182c-.291-70.543-9.395-172.577-9.395-172.577l-194.994 1.212-194.994-1.212S1.807 204.639 1.516 275.182c0 0-5.639 34.486 204.389 34.316 210.028.17 204.389-34.316 204.389-34.316"/><path fill="#000" d="M207.467 311h-3.135C50.795 311 12.133 292.55 2.758 281.533c-2.785-3.276-2.805-5.75-2.744-6.431.29-69.802 9.305-171.606 9.405-172.628.07-.781.71-1.352 1.502-1.372l194.994 1.212 194.974-1.212c.771 0 1.432.591 1.502 1.372.09 1.022 9.105 102.836 9.405 172.628.06.681.04 3.155-2.744 6.431C399.677 292.55 360.994 311 207.477 311zm-1.562-3.005c67.599.08 119.863-3.475 155.32-10.477 29.417-5.819 40.795-12.73 45.173-17.518 2.544-2.784 2.413-4.607 2.413-4.627-.01-.081-.01-.111-.01-.181-.27-65.245-8.193-158.645-9.265-171.075l-193.611 1.202-193.632-1.202c-1.081 12.43-9.004 105.82-9.265 171.075 0 .08 0 .161-.02.241 0 0-.1 1.813 2.424 4.577 4.367 4.778 15.756 11.699 45.173 17.518 35.457 7.012 87.731 10.517 155.32 10.477z"/><path fill="#FFFBE8" d="M205.714 1.632c56.091.1 138.904-2.935 176.635 46.996 13.441 17.798 20.873 45.713 17.868 67.729a62.78 62.78 0 0 1-24.098 41.406c-33.424 25.682-86.249 15.455-109.947 13.132s-60.458-1.853-60.458-1.853h-.17s-36.759-.471-60.457 1.853-76.533 12.55-109.947-13.132a62.72 62.72 0 0 1-24.099-41.406c-3.005-22.036 6.51-49.93 19.962-67.73C69.896-2.854 148.202 1.523 205.714 1.633"/><path fill="#000" d="M314.299 176.383c-14.473 0-28.165-1.642-38.942-2.924-3.396-.411-6.591-.792-9.336-1.062-23.337-2.294-59.926-1.853-60.287-1.843h-.19c-.38 0-36.969-.441-60.307 1.843-2.734.27-5.939.651-9.335 1.062-26.803 3.205-71.665 8.573-101.673-14.494-13.602-10.376-22.366-25.441-24.67-42.398-2.855-20.974 5.469-49.28 20.252-68.84C66.471-.803 136.934-.312 193.545.07c4.147.03 8.213.06 12.179.06h9.546c55.79-.06 132.193-.17 168.291 47.596 13.742 18.19 21.204 46.505 18.159 68.841-2.314 16.957-11.078 32.012-24.68 42.398-17.949 13.793-41.206 17.418-62.731 17.418zm-100.872-8.874c12.109 0 35.938.23 52.885 1.893 2.774.271 5.99.661 9.395 1.062 26.342 3.155 70.433 8.433 99.49-13.893 12.971-9.905 21.325-24.259 23.528-40.415 2.955-21.614-4.277-49.008-17.578-66.617C345.96 2.974 270.419 3.074 215.26 3.135h-9.556c-3.976 0-8.043-.04-12.199-.06-55.94-.381-125.562-.862-161.31 46.464C17.852 68.52 9.76 95.914 12.524 116.156c2.203 16.166 10.557 30.52 23.517 40.415 29.047 22.326 73.148 17.048 99.49 13.893 3.406-.411 6.631-.791 9.396-1.062 23.507-2.304 60.257-1.863 60.627-1.863h.15c.101 0 3.025-.04 7.713-.04z"/><path fill="#000" d="M170.848 70.122c2.044-.01 4.087.17 6.1.561 1.533.3 3.015.801 4.417 1.503a8.1 8.1 0 0 1 2.695 2.133 4.07 4.07 0 0 1 .901 2.414v1.242H159.54v.06c.05.53.211 1.052.491 1.512.791 1.393 2.724 2.575 5.359 3.306a21.6 21.6 0 0 0 5.719.62c1.983 0 3.956-.22 5.889-.68a12.2 12.2 0 0 0 4.327-1.823l2.685 1.061a15 15 0 0 1-5.559 2.284c-2.434.49-4.908.731-7.382.711a32.5 32.5 0 0 1-6.23-.5 19 19 0 0 1-4.818-1.553 8.7 8.7 0 0 1-3.095-2.364 4.7 4.7 0 0 1-1.082-3.005 4.68 4.68 0 0 1 1.122-2.944 9.5 9.5 0 0 1 3.095-2.344 20.3 20.3 0 0 1 4.748-1.563c1.983-.39 3.996-.58 6.009-.57zm10.387 6.31a2.58 2.58 0 0 0-.821-1.823 7.6 7.6 0 0 0-2.264-1.492 19.1 19.1 0 0 0-7.512-1.402c-1.823-.04-3.636.18-5.399.63a13.1 13.1 0 0 0-3.405 1.443c-.691.4-1.302.932-1.783 1.573-.26.3-.441.66-.531 1.051v.06h21.715zm23.137-6.31c2.044-.02 4.087.17 6.1.561 1.533.3 3.015.801 4.417 1.503a8 8 0 0 1 2.695 2.133 4.02 4.02 0 0 1 .911 2.424v1.242h-25.421v.05c.05.54.211 1.062.491 1.522.801 1.393 2.724 2.575 5.359 3.296 1.873.47 3.796.68 5.719.63 1.983 0 3.956-.23 5.889-.69a11.6 11.6 0 0 0 4.297-1.823l2.685 1.072a14.9 14.9 0 0 1-5.549 2.283c-2.434.49-4.908.731-7.392.701a32.6 32.6 0 0 1-6.24-.54 20 20 0 0 1-4.818-1.553 8.8 8.8 0 0 1-3.055-2.364 4.84 4.84 0 0 1-1.082-3.005 4.56 4.56 0 0 1 1.112-2.944 9.1 9.1 0 0 1 3.095-2.344 19.8 19.8 0 0 1 4.738-1.563c1.983-.39 3.996-.58 6.009-.57zm10.387 6.31a2.6 2.6 0 0 0-.821-1.812 7.2 7.2 0 0 0-2.254-1.493 19.2 19.2 0 0 0-7.522-1.402c-1.823-.04-3.636.17-5.399.63a13.1 13.1 0 0 0-3.405 1.443 6.4 6.4 0 0 0-1.783 1.573 2.6 2.6 0 0 0-.531 1.051v.06h21.715zm37.14-6.32c2.123-.01 4.237.17 6.33.551 3.786.711 6.791 2.124 8.283 3.916a4.417 4.417 0 0 1 0 6.01c-1.492 1.793-4.497 3.215-8.283 3.916a34.4 34.4 0 0 1-6.33.551c-2.134.01-4.267-.17-6.37-.54a21.5 21.5 0 0 1-5.008-1.553 9.5 9.5 0 0 1-3.246-2.374 4.44 4.44 0 0 1 0-6.01 10 10 0 0 1 3.246-2.363 20.7 20.7 0 0 1 5.008-1.533c2.103-.38 4.236-.56 6.37-.55zm0 13.362a24.7 24.7 0 0 0 5.008-.471 15.8 15.8 0 0 0 3.846-1.262 7 7 0 0 0 2.404-1.873 3.58 3.58 0 0 0 0-4.577 6.74 6.74 0 0 0-2.404-1.873 16.2 16.2 0 0 0-3.846-1.273 27.2 27.2 0 0 0-10.016 0c-1.332.26-2.624.692-3.846 1.273a6.74 6.74 0 0 0-2.404 1.873 3.58 3.58 0 0 0 0 4.577 7 7 0 0 0 2.404 1.873 15.8 15.8 0 0 0 3.846 1.262q2.481.495 5.008.48zm-29.047 1.202v-7.813s-.25-2.835 3.596-4.768c2.334-1.171 5.689-1.793 10.016-1.832v1.592c-1.462 0-2.915.12-4.347.39a11.2 11.2 0 0 0-3.125 1.082 4.9 4.9 0 0 0-1.823 1.613 3.63 3.63 0 0 0-.591 2.003v7.743h-3.726z"/></svg>