<svg xmlns="http://www.w3.org/2000/svg" width="434" height="345" fill="none" viewBox="0 0 434 345"><path fill="#FFFBE8" d="M54.185 319.424H42.397a.96.96 0 0 0-.96.96v22.154c0 .531.43.961.96.961h11.788c.53 0 .96-.43.96-.961v-22.154a.96.96 0 0 0-.96-.96"/><path fill="#000" d="M54.185 345H42.397a2.46 2.46 0 0 1-2.462-2.462v-22.154a2.46 2.46 0 0 1 2.462-2.461h11.788a2.46 2.46 0 0 1 2.461 2.461v22.154A2.46 2.46 0 0 1 54.184 345m-11.248-3.002h10.707v-21.073H42.937z"/><path fill="#FFFBE8" d="M385.306 319.424h-13.129a1.01 1.01 0 0 0-1.01 1.01v22.054a1.01 1.01 0 0 0 1.01 1.011h13.129a1.01 1.01 0 0 0 1.01-1.011v-22.054a1.01 1.01 0 0 0-1.01-1.01"/><path fill="#000" d="M385.306 345h-13.129a2.52 2.52 0 0 1-2.511-2.512v-22.054a2.52 2.52 0 0 1 2.511-2.511h13.129a2.52 2.52 0 0 1 2.511 2.511v22.054a2.52 2.52 0 0 1-2.511 2.512m-12.638-3.002h12.147v-21.073h-12.147z"/><path fill="#FFFBE8" d="M392.53 1.501H40.836c-21.719 0-39.325 17.606-39.325 39.325v255.473c0 21.719 17.606 39.325 39.325 39.325H392.53c21.719 0 39.325-17.606 39.325-39.325V40.826c0-21.719-17.606-39.325-39.325-39.325"/><path fill="#000" d="M392.53 337.125H40.826C18.322 337.125 0 318.813 0 296.299V40.826C0 18.322 18.312 0 40.826 0H392.53c22.505 0 40.826 18.312 40.826 40.826v255.483c0 22.504-18.311 40.826-40.826 40.826zM40.826 3.002c-20.853 0-37.824 16.97-37.824 37.824v255.483c0 20.853 16.96 37.824 37.824 37.824H392.53c20.854 0 37.824-16.971 37.824-37.824V40.826c0-20.853-16.96-37.824-37.824-37.824z"/><path fill="#FFFBE8" d="M389.178 252.291H46.78c-10.937 0-19.803 8.866-19.803 19.802v27.528c0 10.937 8.866 19.803 19.803 19.803h342.398c10.937 0 19.803-8.866 19.803-19.803v-27.528c0-10.936-8.866-19.802-19.803-19.802"/><path fill="#000" d="M389.178 320.924H46.78c-11.748 0-21.304-9.556-21.304-21.303v-27.518c0-11.747 9.556-21.303 21.304-21.303h342.388c11.748 0 21.304 9.556 21.304 21.303v27.518c0 11.747-9.556 21.303-21.304 21.303zM46.78 253.792c-10.097 0-18.302 8.215-18.302 18.301v27.518c0 10.096 8.215 18.302 18.302 18.302h342.388c10.097 0 18.302-8.216 18.302-18.302v-27.518c0-10.096-8.215-18.301-18.302-18.301z"/><path fill="#FFFBE8" d="M325.918 284.231h-2.802v-5.253h-6.534v-3.332h-7.345v3.332h-6.384v5.253h-2.772v5.164h2.772v4.662h20.263v-4.662h2.802z"/><path fill="#000" d="M323.116 295.558h-20.253c-.831 0-1.501-.67-1.501-1.501v-3.162h-1.271c-.83 0-1.501-.67-1.501-1.5v-5.164a1.5 1.5 0 0 1 1.501-1.501h1.271v-3.752c0-.831.67-1.501 1.501-1.501h4.883v-1.821a1.5 1.5 0 0 1 1.501-1.501h7.345a1.5 1.5 0 0 1 1.501 1.501v1.821h5.023a1.5 1.5 0 0 1 1.501 1.501v3.752h1.311a1.5 1.5 0 0 1 1.501 1.501v5.164c0 .83-.671 1.5-1.501 1.5h-1.311v3.162a1.5 1.5 0 0 1-1.501 1.501m-18.762-3.001h17.251v-3.162c0-.831.67-1.501 1.501-1.501h1.311v-2.162h-1.311c-.831 0-1.501-.67-1.501-1.501v-3.752h-5.023a1.5 1.5 0 0 1-1.501-1.501v-1.821h-4.343v1.821a1.5 1.5 0 0 1-1.501 1.501h-4.883v3.752c0 .831-.67 1.501-1.501 1.501h-1.271v2.162h1.271c.831 0 1.501.67 1.501 1.501z"/><path fill="#FFFBE8" d="M295.578 284.231h-2.811v-5.253h-6.525v-3.332h-7.344v3.332h-6.384v5.253h-2.772v5.164h2.772v4.662h20.253v-4.662h2.811z"/><path fill="#000" d="M292.767 295.558h-20.253c-.831 0-1.501-.67-1.501-1.501v-3.162h-1.271c-.831 0-1.501-.67-1.501-1.5v-5.164a1.5 1.5 0 0 1 1.501-1.501h1.271v-3.752c0-.831.67-1.501 1.501-1.501h4.883v-1.821c0-.831.67-1.501 1.501-1.501h7.344c.831 0 1.501.67 1.501 1.501v1.821h5.024c.83 0 1.5.67 1.5 1.501v3.752h1.311a1.5 1.5 0 0 1 1.501 1.501v5.164c0 .83-.67 1.5-1.501 1.5h-1.311v3.162c0 .831-.67 1.501-1.5 1.501m-18.752-3.001h17.251v-3.162c0-.831.67-1.501 1.501-1.501h1.31v-2.162h-1.31c-.831 0-1.501-.67-1.501-1.501v-3.752h-5.024a1.5 1.5 0 0 1-1.501-1.501v-1.821h-4.342v1.821a1.5 1.5 0 0 1-1.501 1.501h-4.883v3.752a1.5 1.5 0 0 1-1.501 1.501h-1.271v2.162h1.271a1.5 1.5 0 0 1 1.501 1.501z"/><path fill="#FFFBE8" d="M101.275 294.057h20.252v-15.089h-20.252z"/><path fill="#000" d="M121.537 295.558h-20.252c-.831 0-1.501-.67-1.501-1.501v-15.089c0-.831.67-1.501 1.501-1.501h20.252c.831 0 1.501.67 1.501 1.501v15.089c0 .831-.67 1.501-1.501 1.501m-18.751-3.002h17.251v-12.087h-17.251z"/><path fill="#FFFBE8" d="M98.503 289.394h25.836v-5.163H98.503z"/><path fill="#000" d="M124.339 290.895H98.503a1.5 1.5 0 0 1-1.501-1.501v-5.163c0-.831.67-1.501 1.5-1.501h25.837c.831 0 1.501.67 1.501 1.501v5.163c0 .831-.67 1.501-1.501 1.501m-24.325-3.002h22.834v-2.161h-22.834z"/><path fill="#FFFBE8" d="M115.013 294.067v-18.411h-7.344v18.411z"/><path fill="#000" d="M115.013 295.558h-7.344c-.831 0-1.501-.67-1.501-1.501v-18.411c0-.831.67-1.501 1.501-1.501h7.344c.831 0 1.501.67 1.501 1.501v18.411c0 .831-.67 1.501-1.501 1.501m-5.854-3.001h4.343v-15.41h-4.343z"/><path fill="#FFFBE8" d="M70.945 294.057h20.253v-15.089H70.945z"/><path fill="#000" d="M91.198 295.558H70.945c-.83 0-1.5-.67-1.5-1.501v-15.089c0-.831.67-1.501 1.5-1.501h20.253a1.5 1.5 0 0 1 1.501 1.501v15.089c0 .831-.67 1.501-1.5 1.501m-18.762-3.002h17.251v-12.087h-17.25z"/><path fill="#FFFBE8" d="M68.163 289.394H94v-5.163H68.163z"/><path fill="#000" d="M94 290.895H68.163c-.83 0-1.5-.67-1.5-1.501v-5.163c0-.831.67-1.501 1.5-1.501H94c.83 0 1.5.67 1.5 1.501v5.163c0 .831-.67 1.501-1.5 1.501m-24.336-3.002H92.5v-2.161H69.664z"/><path fill="#FFFBE8" d="M84.674 294.057v-18.411H77.33v18.411z"/><path fill="#000" d="M84.674 295.558h-7.345c-.83 0-1.5-.67-1.5-1.501v-18.411c0-.831.67-1.501 1.5-1.501h7.345a1.5 1.5 0 0 1 1.501 1.501v18.411c0 .831-.67 1.501-1.501 1.501m-5.854-3.001h4.343v-15.41H78.82z"/><path fill="#FFFBE8" d="M40.606 294.057h20.253v-15.089H40.606z"/><path fill="#000" d="M60.849 295.558H40.596a1.5 1.5 0 0 1-1.501-1.501v-15.089c0-.831.67-1.501 1.5-1.501H60.85c.83 0 1.5.67 1.5 1.501v15.089c0 .831-.67 1.501-1.5 1.501m-18.752-3.002h17.25v-12.087h-17.25z"/><path fill="#FFFBE8" d="M37.824 289.394h25.837v-5.163H37.823z"/><path fill="#000" d="M63.66 290.895H37.824a1.5 1.5 0 0 1-1.501-1.501v-5.163c0-.831.67-1.501 1.5-1.501H63.66a1.5 1.5 0 0 1 1.501 1.501v5.163c0 .831-.67 1.501-1.5 1.501m-24.335-3.002H62.16v-2.161H39.325z"/><path fill="#FFFBE8" d="M54.325 294.057v-18.411H46.98v18.411z"/><path fill="#000" d="M54.325 295.558H46.98a1.5 1.5 0 0 1-1.501-1.501v-18.411c0-.831.67-1.501 1.5-1.501h7.346c.83 0 1.5.67 1.5 1.501v18.411c0 .831-.67 1.501-1.5 1.501m-5.844-3.001h4.343v-15.41H48.48z"/><path fill="#FFFBE8" d="M124.339 284.231h-2.802v-5.253h-6.524v-3.332h-7.354v3.332h-6.374v5.253h-2.772v5.164h2.772v4.662h20.252v-4.662h2.802z"/><path fill="#000" d="M121.537 295.558h-20.252c-.831 0-1.501-.67-1.501-1.501v-3.162h-1.271c-.83 0-1.501-.67-1.501-1.5v-5.164a1.5 1.5 0 0 1 1.5-1.501h1.272v-3.752c0-.831.67-1.501 1.501-1.501h4.883v-1.821c0-.831.67-1.501 1.501-1.501h7.344c.831 0 1.501.67 1.501 1.501v1.821h5.023c.831 0 1.501.67 1.501 1.501v3.752h1.311a1.5 1.5 0 0 1 1.501 1.501v5.164c0 .83-.67 1.5-1.501 1.5h-1.311v3.162c0 .831-.67 1.501-1.501 1.501m-18.752-3.001h17.251v-3.162a1.5 1.5 0 0 1 1.501-1.501h1.311v-2.162h-1.311a1.5 1.5 0 0 1-1.501-1.501v-3.752h-5.023a1.5 1.5 0 0 1-1.501-1.501v-1.821h-4.342v1.821a1.5 1.5 0 0 1-1.501 1.501h-4.884v3.752c0 .831-.67 1.501-1.5 1.501h-1.271v2.162h1.271c.83 0 1.5.67 1.5 1.501z"/><path fill="#FFFBE8" d="M68.163 289.394H94v-5.163H68.163z"/><path fill="#000" d="M94 290.895H68.163c-.83 0-1.5-.67-1.5-1.501v-5.163c0-.831.67-1.501 1.5-1.501H94c.83 0 1.5.67 1.5 1.501v5.163c0 .831-.67 1.501-1.5 1.501m-24.336-3.002H92.5v-2.161H69.664z"/><path fill="#FFFBE8" d="M84.674 278.978v-3.332h-7.355v3.332h-6.384v15.079h20.263v-15.079z"/><path fill="#000" d="M91.198 295.558H70.945c-.83 0-1.5-.67-1.5-1.501v-15.089c0-.831.67-1.501 1.5-1.501h4.883v-1.821c0-.831.67-1.501 1.501-1.501h7.345c.83 0 1.5.67 1.5 1.501v1.821h5.024a1.5 1.5 0 0 1 1.501 1.501v15.089c0 .831-.67 1.501-1.5 1.501m-18.762-3.001h17.251v-12.088h-5.023a1.5 1.5 0 0 1-1.501-1.501v-1.821H78.82v1.821a1.5 1.5 0 0 1-1.5 1.501h-4.884z"/><path fill="#FFFBE8" d="M37.824 289.394h25.837v-5.163H37.823z"/><path fill="#000" d="M63.66 290.895H37.824a1.5 1.5 0 0 1-1.501-1.501v-5.163c0-.831.67-1.501 1.5-1.501H63.66a1.5 1.5 0 0 1 1.501 1.501v5.163c0 .831-.67 1.501-1.5 1.501m-24.335-3.002H62.16v-2.161H39.325z"/><path fill="#FFFBE8" d="M54.325 278.978v-3.332H46.98v3.332h-6.384v15.079h20.253v-15.079z"/><path fill="#000" d="M60.849 295.558H40.596a1.5 1.5 0 0 1-1.501-1.501v-15.089c0-.831.67-1.501 1.5-1.501h4.884v-1.821c0-.831.67-1.501 1.5-1.501h7.346c.83 0 1.5.67 1.5 1.501v1.821h5.024c.83 0 1.5.67 1.5 1.501v15.089c0 .831-.67 1.501-1.5 1.501m-18.752-3.001h17.25v-12.088h-5.023a1.5 1.5 0 0 1-1.5-1.501v-1.821H48.48v1.821a1.5 1.5 0 0 1-1.501 1.501h-4.883z"/><path fill="#FFFBE8" d="M265.699 284.231h-2.811v-5.253h-6.525v-3.332h-7.344v3.332h-6.384v5.253h-2.772v5.164h2.772v4.662h20.253v-4.662h2.811z"/><path fill="#000" d="M262.888 295.558h-20.253c-.831 0-1.501-.67-1.501-1.501v-3.162h-1.271c-.831 0-1.501-.67-1.501-1.5v-5.164a1.5 1.5 0 0 1 1.501-1.501h1.271v-3.752c0-.831.67-1.501 1.501-1.501h4.883v-1.821c0-.831.67-1.501 1.501-1.501h7.344c.831 0 1.501.67 1.501 1.501v1.821h5.024a1.5 1.5 0 0 1 1.501 1.501v3.752h1.31a1.5 1.5 0 0 1 1.501 1.501v5.164c0 .83-.67 1.5-1.501 1.5h-1.31v3.162a1.5 1.5 0 0 1-1.501 1.501m-18.752-3.001h17.251v-3.162c0-.831.67-1.501 1.501-1.501h1.31v-2.162h-1.31c-.831 0-1.501-.67-1.501-1.501v-3.752h-5.024a1.5 1.5 0 0 1-1.501-1.501v-1.821h-4.342v1.821a1.5 1.5 0 0 1-1.501 1.501h-4.883v3.752a1.5 1.5 0 0 1-1.501 1.501h-1.271v2.162h1.271a1.5 1.5 0 0 1 1.501 1.501z"/><path fill="#FFFBE8" d="M235.36 284.231h-2.812v-5.253h-6.524v-3.332h-7.345v3.332h-6.384v5.253h-2.772v5.164h2.772v4.662h20.253v-4.662h2.812z"/><path fill="#000" d="M232.548 295.558h-20.253a1.5 1.5 0 0 1-1.501-1.501v-3.162h-1.271c-.83 0-1.5-.67-1.5-1.5v-5.164c0-.83.67-1.501 1.5-1.501h1.271v-3.752a1.5 1.5 0 0 1 1.501-1.501h4.883v-1.821a1.5 1.5 0 0 1 1.501-1.501h7.345c.831 0 1.501.67 1.501 1.501v1.821h5.023c.831 0 1.501.67 1.501 1.501v3.752h1.311a1.5 1.5 0 0 1 1.501 1.501v5.164c0 .83-.671 1.5-1.501 1.5h-1.311v3.162c0 .831-.67 1.501-1.501 1.501m-18.752-3.001h17.251v-3.162a1.5 1.5 0 0 1 1.501-1.501h1.311v-2.162h-1.311a1.5 1.5 0 0 1-1.501-1.501v-3.752h-5.023a1.5 1.5 0 0 1-1.501-1.501v-1.821h-4.343v1.821a1.5 1.5 0 0 1-1.501 1.501h-4.883v3.752c0 .831-.67 1.501-1.501 1.501h-1.271v2.162h1.271c.831 0 1.501.67 1.501 1.501z"/><path fill="#FFFBE8" d="M205.021 284.231h-2.812v-5.253h-6.524v-3.332h-7.345v3.332h-6.384v5.253h-2.772v5.164h2.772v4.662h20.253v-4.662h2.812z"/><path fill="#000" d="M202.209 295.558h-20.253c-.831 0-1.501-.67-1.501-1.501v-3.162h-1.271c-.83 0-1.501-.67-1.501-1.5v-5.164a1.5 1.5 0 0 1 1.501-1.501h1.271v-3.752c0-.831.67-1.501 1.501-1.501h4.883v-1.821c0-.831.67-1.501 1.501-1.501h7.345a1.5 1.5 0 0 1 1.501 1.501v1.821h5.023a1.5 1.5 0 0 1 1.501 1.501v3.752h1.311a1.5 1.5 0 0 1 1.501 1.501v5.164c0 .83-.671 1.5-1.501 1.5h-1.311v3.162a1.5 1.5 0 0 1-1.501 1.501m-18.752-3.001h17.251v-3.162c0-.831.67-1.501 1.501-1.501h1.311v-2.162h-1.311c-.831 0-1.501-.67-1.501-1.501v-3.752h-5.023a1.5 1.5 0 0 1-1.501-1.501v-1.821h-4.343v1.821a1.5 1.5 0 0 1-1.501 1.501h-4.883v3.752a1.5 1.5 0 0 1-1.501 1.501h-1.271v2.162h1.271a1.5 1.5 0 0 1 1.501 1.501z"/><path fill="#FFFBE8" d="M344.419 124.219H85.705a8.266 8.266 0 0 0-8.266 8.265v71.776c0 4.565 3.7 8.265 8.266 8.265h258.714c4.565 0 8.266-3.7 8.266-8.265v-71.776a8.266 8.266 0 0 0-8.266-8.265"/><path fill="#000" d="M344.419 214.026H85.705c-5.384 0-9.767-4.382-9.767-9.766v-71.766c0-5.383 4.383-9.766 9.766-9.766H344.42c5.384 0 9.767 4.383 9.767 9.766v71.766c0 5.384-4.383 9.766-9.767 9.766M85.705 125.72a6.77 6.77 0 0 0-6.765 6.764v71.766a6.77 6.77 0 0 0 6.764 6.764H344.42a6.77 6.77 0 0 0 6.765-6.764v-71.766a6.77 6.77 0 0 0-6.765-6.764z"/><path fill="#000" d="M36.643 87.506c-.83 0-1.5-.67-1.5-1.501v-60.94c0-.83.67-1.5 1.5-1.5s1.501.67 1.501 1.5v60.94c0 .83-.67 1.5-1.5 1.5"/><path fill="#000" d="M50.482 87.506c-.83 0-1.5-.67-1.5-1.501v-60.94c0-.83.67-1.5 1.5-1.5s1.501.67 1.501 1.5v60.94c0 .83-.67 1.5-1.5 1.5"/><path fill="#000" d="M64.33 87.506c-.83 0-1.5-.67-1.5-1.501v-60.94c0-.83.67-1.5 1.5-1.5a1.5 1.5 0 0 1 1.502 1.5v60.94c0 .83-.67 1.5-1.501 1.5"/><path fill="#000" d="M78.17 87.506a1.5 1.5 0 0 1-1.501-1.501v-60.94c0-.83.67-1.5 1.5-1.5a1.5 1.5 0 0 1 1.502 1.5v60.94c0 .83-.67 1.5-1.501 1.5"/><path fill="#000" d="M92.019 87.506a1.5 1.5 0 0 1-1.501-1.501v-60.94c0-.83.67-1.5 1.5-1.5a1.5 1.5 0 0 1 1.502 1.5v60.94c0 .83-.67 1.5-1.501 1.5"/><path fill="#000" d="M105.857 87.506a1.5 1.5 0 0 1-1.501-1.501v-60.94a1.5 1.5 0 0 1 1.501-1.5c.831 0 1.501.67 1.501 1.5v60.94c0 .83-.67 1.5-1.501 1.5"/><path fill="#000" d="M119.706 87.506a1.5 1.5 0 0 1-1.501-1.501v-60.94a1.5 1.5 0 0 1 1.501-1.5c.831 0 1.501.67 1.501 1.5v60.94c0 .83-.67 1.5-1.501 1.5"/><path fill="#000" d="M133.545 87.506a1.5 1.5 0 0 1-1.501-1.501v-60.94a1.5 1.5 0 0 1 1.501-1.5c.831 0 1.501.67 1.501 1.5v60.94c0 .83-.67 1.5-1.501 1.5"/><path fill="#000" d="M147.384 87.506c-.831 0-1.501-.67-1.501-1.501v-60.94c0-.83.67-1.5 1.501-1.5a1.5 1.5 0 0 1 1.501 1.5v60.94a1.5 1.5 0 0 1-1.501 1.5"/><path fill="#000" d="M161.233 87.506c-.831 0-1.501-.67-1.501-1.501v-60.94c0-.83.67-1.5 1.501-1.5a1.5 1.5 0 0 1 1.501 1.5v60.94a1.5 1.5 0 0 1-1.501 1.5"/><path fill="#000" d="M175.072 87.506c-.831 0-1.501-.67-1.501-1.501v-60.94c0-.83.67-1.5 1.501-1.5a1.5 1.5 0 0 1 1.501 1.5v60.94a1.5 1.5 0 0 1-1.501 1.5"/><path fill="#000" d="M188.92 87.506a1.5 1.5 0 0 1-1.501-1.501v-60.94a1.5 1.5 0 0 1 1.501-1.5c.831 0 1.501.67 1.501 1.5v60.94c0 .83-.67 1.5-1.501 1.5"/><path fill="#000" d="M202.759 87.506a1.5 1.5 0 0 1-1.501-1.501v-60.94a1.5 1.5 0 0 1 1.501-1.5c.831 0 1.501.67 1.501 1.5v60.94c0 .83-.67 1.5-1.501 1.5"/><path fill="#000" d="M216.608 87.506a1.5 1.5 0 0 1-1.501-1.501v-60.94a1.5 1.5 0 0 1 1.501-1.5c.831 0 1.501.67 1.501 1.5v60.94c0 .83-.67 1.5-1.501 1.5"/><path fill="#000" d="M230.447 87.506c-.831 0-1.501-.67-1.501-1.501v-60.94c0-.83.67-1.5 1.501-1.5a1.5 1.5 0 0 1 1.501 1.5v60.94a1.5 1.5 0 0 1-1.501 1.5"/><path fill="#000" d="M244.286 87.506c-.831 0-1.501-.67-1.501-1.501v-60.94c0-.83.67-1.5 1.501-1.5a1.5 1.5 0 0 1 1.501 1.5v60.94a1.5 1.5 0 0 1-1.501 1.5"/><path fill="#000" d="M258.135 87.506c-.831 0-1.501-.67-1.501-1.501v-60.94c0-.83.67-1.5 1.501-1.5a1.5 1.5 0 0 1 1.501 1.5v60.94a1.5 1.5 0 0 1-1.501 1.5"/><path fill="#000" d="M271.973 87.506a1.5 1.5 0 0 1-1.501-1.501v-60.94a1.5 1.5 0 0 1 1.501-1.5c.831 0 1.501.67 1.501 1.5v60.94c0 .83-.67 1.5-1.501 1.5"/><path fill="#000" d="M285.822 87.506a1.5 1.5 0 0 1-1.501-1.501v-60.94a1.5 1.5 0 0 1 1.501-1.5c.831 0 1.501.67 1.501 1.5v60.94c0 .83-.67 1.5-1.501 1.5"/><path fill="#000" d="M299.661 87.506a1.5 1.5 0 0 1-1.501-1.501v-60.94a1.5 1.5 0 0 1 1.501-1.5c.831 0 1.501.67 1.501 1.5v60.94c0 .83-.67 1.5-1.501 1.5"/><path fill="#000" d="M313.51 87.506c-.831 0-1.501-.67-1.501-1.501v-60.94c0-.83.67-1.5 1.501-1.5a1.5 1.5 0 0 1 1.501 1.5v60.94a1.5 1.5 0 0 1-1.501 1.5"/><path fill="#000" d="M327.349 87.506c-.831 0-1.501-.67-1.501-1.501v-60.94c0-.83.67-1.5 1.501-1.5a1.5 1.5 0 0 1 1.501 1.5v60.94a1.5 1.5 0 0 1-1.501 1.5"/><path fill="#000" d="M341.188 87.506c-.831 0-1.501-.67-1.501-1.501v-60.94c0-.83.67-1.5 1.501-1.5s1.5.67 1.5 1.5v60.94c0 .83-.67 1.5-1.5 1.5"/><path fill="#000" d="M355.036 87.506a1.5 1.5 0 0 1-1.501-1.501v-60.94a1.5 1.5 0 0 1 1.501-1.5c.831 0 1.501.67 1.501 1.5v60.94c0 .83-.67 1.5-1.501 1.5"/><path fill="#000" d="M368.875 87.506a1.5 1.5 0 0 1-1.501-1.501v-60.94a1.5 1.5 0 0 1 1.501-1.5c.831 0 1.501.67 1.501 1.5v60.94c0 .83-.67 1.5-1.501 1.5"/><path fill="#000" d="M382.724 87.506c-.831 0-1.501-.67-1.501-1.501v-60.94c0-.83.67-1.5 1.501-1.5s1.501.67 1.501 1.5v60.94c0 .83-.67 1.5-1.501 1.5"/><path fill="#000" d="M396.563 87.506c-.831 0-1.501-.67-1.501-1.501v-60.94c0-.83.67-1.5 1.501-1.5a1.5 1.5 0 0 1 1.501 1.5v60.94a1.5 1.5 0 0 1-1.501 1.5"/><path fill="#FFFBE8" d="M396.563 154.148v-8.635c0-3.332-2.722-6.054-6.054-6.054s-6.054 2.722-6.054 6.054v8.765c-4.883 2.322-8.265 7.295-8.265 13.069 0 7.985 6.474 14.459 14.459 14.459s14.459-6.474 14.459-14.459c0-5.874-3.512-10.927-8.545-13.189z"/><path fill="#000" d="M390.649 183.307c-8.806 0-15.96-7.165-15.96-15.96 0-5.804 3.212-11.198 8.265-13.979v-7.845c0-4.173 3.392-7.555 7.555-7.555s7.555 3.392 7.555 7.555v7.695a15.98 15.98 0 0 1 8.545 14.129c0 8.805-7.164 15.96-15.96 15.96m-.14-42.347a4.556 4.556 0 0 0-4.553 4.553v8.765c0 .581-.33 1.111-.86 1.351-4.503 2.141-7.405 6.734-7.405 11.708 0 7.144 5.813 12.958 12.958 12.958s12.958-5.814 12.958-12.958c0-5.094-3.002-9.737-7.655-11.828-.54-.24-.89-.78-.89-1.371v-8.635a4.556 4.556 0 0 0-4.553-4.553z"/><path fill="#FFFBE8" d="M47.36 154.148v-8.635c0-3.332-2.722-6.054-6.054-6.054s-6.054 2.722-6.054 6.054v8.765c-4.883 2.322-8.265 7.295-8.265 13.069 0 7.985 6.474 14.459 14.46 14.459 7.984 0 14.459-6.474 14.459-14.459 0-5.874-3.513-10.927-8.546-13.189z"/><path fill="#000" d="M41.436 183.307c-8.805 0-15.96-7.165-15.96-15.96 0-5.804 3.212-11.198 8.266-13.979v-7.845c0-4.173 3.392-7.555 7.554-7.555s7.555 3.392 7.555 7.555v7.695a15.98 15.98 0 0 1 8.546 14.129c0 8.805-7.165 15.96-15.96 15.96m-.14-42.347a4.556 4.556 0 0 0-4.553 4.553v8.765c0 .581-.33 1.111-.86 1.351-4.503 2.141-7.405 6.734-7.405 11.708 0 7.144 5.814 12.958 12.958 12.958s12.959-5.814 12.959-12.958c0-5.094-3.002-9.737-7.655-11.828-.54-.24-.89-.78-.89-1.371v-8.635a4.556 4.556 0 0 0-4.554-4.553z"/><path fill="#FFFBE8" d="M358.839 275.646h-17.041v21.233h17.041z"/><path fill="#000" d="M358.839 298.38h-17.041c-.831 0-1.501-.67-1.501-1.501v-21.233c0-.831.67-1.501 1.501-1.501h17.041a1.5 1.5 0 0 1 1.501 1.501v21.233a1.5 1.5 0 0 1-1.501 1.501m-15.54-3.002h14.039v-18.231h-14.039z"/><path fill="#FFFBE8" d="M389.708 296.419a8.956 8.956 0 0 0 8.956-8.956 8.956 8.956 0 1 0-17.911 0 8.955 8.955 0 0 0 8.955 8.956"/><path fill="#000" d="M389.708 297.91c-5.763 0-10.456-4.693-10.456-10.457s4.693-10.457 10.456-10.457c5.764 0 10.457 4.693 10.457 10.457s-4.693 10.457-10.457 10.457m0-17.902c-4.112 0-7.454 3.343-7.454 7.455a7.46 7.46 0 0 0 7.454 7.455 7.46 7.46 0 0 0 7.455-7.455 7.46 7.46 0 0 0-7.455-7.455"/><path fill="#FFFBE8" d="M168.027 268.471h-14.199v28.658h14.199z"/><path fill="#000" d="M168.027 298.64h-14.199a1.5 1.5 0 0 1-1.501-1.501v-28.658a1.5 1.5 0 0 1 1.501-1.501h14.199c.831 0 1.501.67 1.501 1.501v28.658c0 .831-.67 1.501-1.501 1.501m-12.698-3.002h11.197v-25.656h-11.197z"/></svg>