<svg xmlns="http://www.w3.org/2000/svg" width="673" height="404" fill="none" viewBox="0 0 673 404"><path fill="#191917" d="M664.184 110.898h-67.549a7.306 7.306 0 0 0-7.305 7.306v66.447a7.305 7.305 0 0 0 7.305 7.305h67.549a7.305 7.305 0 0 0 7.305-7.305v-66.447a7.306 7.306 0 0 0-7.305-7.306"/><path fill="#EBEBEB" d="M664.194 193.458h-67.549c-4.853 0-8.806-3.953-8.806-8.807v-66.437c0-4.854 3.953-8.806 8.806-8.806h67.549c4.853 0 8.806 3.952 8.806 8.806v66.437c0 4.854-3.953 8.807-8.806 8.807M596.645 112.4a5.81 5.81 0 0 0-5.804 5.804v66.437a5.81 5.81 0 0 0 5.804 5.804h67.549a5.81 5.81 0 0 0 5.804-5.804v-66.437a5.81 5.81 0 0 0-5.804-5.804z"/><path fill="#191917" d="M612.397 182.03h36.046a7.806 7.806 0 0 0 7.805-7.806v-45.572a7.806 7.806 0 0 0-7.805-7.806h-36.046a7.806 7.806 0 0 0-7.806 7.806v45.572a7.806 7.806 0 0 0 7.806 7.806"/><path fill="#EBEBEB" d="M648.443 183.521h-36.046c-5.134 0-9.307-4.173-9.307-9.307v-45.572c0-5.134 4.173-9.307 9.307-9.307h36.046c5.133 0 9.306 4.173 9.306 9.307v45.572c0 5.134-4.173 9.307-9.306 9.307m-36.056-61.184c-3.473 0-6.305 2.832-6.305 6.305v45.572c0 3.473 2.832 6.305 6.305 6.305h36.046c3.472 0 6.304-2.832 6.304-6.305v-45.572c0-3.473-2.832-6.305-6.304-6.305z"/><path fill="#191917" d="M612.397 182.03h36.046a7.806 7.806 0 0 0 7.805-7.806v-45.572a7.806 7.806 0 0 0-7.805-7.806h-36.046a7.806 7.806 0 0 0-7.806 7.806v45.572a7.806 7.806 0 0 0 7.806 7.806"/><path fill="#EBEBEB" d="M648.443 183.521h-36.046c-5.134 0-9.307-4.173-9.307-9.307v-45.572c0-5.134 4.173-9.307 9.307-9.307h36.046c5.133 0 9.306 4.173 9.306 9.307v45.572c0 5.134-4.173 9.307-9.306 9.307m-36.056-61.184c-3.473 0-6.305 2.832-6.305 6.305v45.572c0 3.473 2.832 6.305 6.305 6.305h36.046c3.472 0 6.304-2.832 6.304-6.305v-45.572c0-3.473-2.832-6.305-6.304-6.305z"/><path fill="#191917" d="M536.913 1.501H327.674c-12.922 0-23.397 10.475-23.397 23.397v151.998c0 12.922 10.475 23.397 23.397 23.397h209.239c12.922 0 23.397-10.475 23.397-23.397V24.898c0-12.922-10.475-23.397-23.397-23.397"/><path fill="#EBEBEB" d="M536.923 201.794H327.674c-13.73 0-24.898-11.168-24.898-24.898V24.898C302.776 11.168 313.944 0 327.674 0h209.249c13.73 0 24.898 11.168 24.898 24.898v151.998c0 13.73-11.168 24.898-24.898 24.898M327.674 3.002c-12.069 0-21.896 9.817-21.896 21.896v151.998c0 12.069 9.817 21.896 21.896 21.896h209.249c12.069 0 21.896-9.817 21.896-21.896V24.898c0-12.069-9.817-21.896-21.896-21.896z"/><path fill="#191917" d="M534.931 150.708H331.216c-6.505 0-11.778 5.273-11.778 11.778v16.382c0 6.505 5.273 11.778 11.778 11.778h203.715c6.505 0 11.779-5.273 11.779-11.778v-16.382c0-6.505-5.274-11.778-11.779-11.778"/><path fill="#EBEBEB" d="M534.921 192.157H331.216c-7.325 0-13.279-5.964-13.279-13.279v-16.372c0-7.325 5.964-13.279 13.279-13.279h203.705c7.326 0 13.28 5.964 13.28 13.279v16.372c0 7.325-5.964 13.279-13.28 13.279m-203.705-39.948c-5.674 0-10.277 4.613-10.277 10.277v16.372c0 5.674 4.613 10.277 10.277 10.277h203.705c5.675 0 10.278-4.613 10.278-10.277v-16.372c0-5.674-4.613-10.277-10.278-10.277z"/><path fill="#EE6DBB" d="M497.285 169.711h-1.671v-3.122h-3.873v-1.981h-4.373v1.981h-3.803v3.122h-1.651v3.072h1.651v2.782h12.049v-2.782h1.671z"/><path fill="#EBEBEB" d="M495.614 177.066h-12.049c-.831 0-1.501-.67-1.501-1.501v-1.271h-.15c-.831 0-1.501-.67-1.501-1.501v-3.072c0-.831.67-1.501 1.501-1.501h.15v-1.621c0-.831.67-1.501 1.501-1.501h2.292v-.481a1.5 1.5 0 0 1 1.501-1.501h4.373a1.5 1.5 0 0 1 1.501 1.501v.481h2.382a1.5 1.5 0 0 1 1.501 1.501v1.621h.17a1.5 1.5 0 0 1 1.501 1.501v3.072a1.5 1.5 0 0 1-1.501 1.501h-.17v1.271a1.5 1.5 0 0 1-1.501 1.501m-10.548-3.002h9.046v-1.271a1.5 1.5 0 0 1 1.502-1.501h.17v-.07h-.17a1.5 1.5 0 0 1-1.502-1.501V168.1h-2.381a1.5 1.5 0 0 1-1.501-1.501v-.481h-1.371v.481a1.5 1.5 0 0 1-1.501 1.501h-2.292v1.621c0 .831-.67 1.501-1.501 1.501h-.15v.07h.15a1.5 1.5 0 0 1 1.501 1.501z"/><path fill="#191917" d="M479.242 169.711h-1.671v-3.122h-3.883v-1.981h-4.373v1.981h-3.803v3.122h-1.641v3.072h1.641v2.782h12.059v-2.782h1.671z"/><path fill="#EBEBEB" d="M479.072 177.066h-15.051v-2.772h-1.651v-6.074h1.651v-3.122h3.793v-1.982h7.375v1.982h3.883v3.122h1.671v6.074h-1.671zm-12.059-3.002h9.047v-2.772h1.671v-.07h-1.671V168.1h-3.883v-1.982h-1.371v1.982h-3.793v3.122h-1.651v.07h1.651z"/><path fill="#191917" d="M363.639 175.555h12.049v-8.976h-12.049z"/><path fill="#EBEBEB" d="M377.189 177.066h-15.051v-11.978h15.051zm-12.049-3.002h9.047v-5.974h-9.047z"/><path fill="#191917" d="M361.988 172.783h15.371v-3.072h-15.371z"/><path fill="#EBEBEB" d="M378.86 174.285h-18.373v-6.075h18.373zm-15.371-3.003h12.369v-.07h-12.369z"/><path fill="#191917" d="M371.805 175.565v-10.957h-4.373v10.957z"/><path fill="#EBEBEB" d="M373.306 177.067h-7.375v-13.96h7.375zm-4.363-3.003h1.371v-7.955h-1.371z"/><path fill="#191917" d="M345.596 175.555h12.049v-8.976h-12.049z"/><path fill="#EBEBEB" d="M359.136 177.066h-15.051v-11.978h15.051zm-12.049-3.002h9.047v-5.974h-9.047z"/><path fill="#191917" d="M343.945 172.783h15.371v-3.072h-15.371z"/><path fill="#EBEBEB" d="M360.807 174.285h-18.373v-6.075h18.373zm-15.371-3.003h12.369v-.07h-12.369z"/><path fill="#191917" d="M353.752 175.565v-10.957h-4.373v10.957z"/><path fill="#EBEBEB" d="M355.263 177.067h-7.375v-13.96h7.375zm-4.373-3.003h1.371v-7.955h-1.371z"/><path fill="#191917" d="M327.544 175.555h12.048v-8.976h-12.048z"/><path fill="#EBEBEB" d="M341.093 177.066h-15.05v-11.978h15.05zm-12.058-3.002h9.046v-5.974h-9.046z"/><path fill="#191917" d="M325.892 172.783h15.371v-3.072h-15.371z"/><path fill="#EBEBEB" d="M342.755 174.285h-18.374v-6.075h18.374zm-15.371-3.003h12.368v-.07h-12.368z"/><path fill="#191917" d="M335.7 175.565v-10.957h-4.373v10.957z"/><path fill="#EBEBEB" d="M337.211 177.067h-7.376v-13.96h7.376zm-4.374-3.003h1.371v-7.955h-1.371z"/><path fill="#191917" d="M377.359 169.711h-1.671v-3.122h-3.883v-1.981h-4.363v1.981h-3.803v3.122h-1.651v3.072h1.651v2.782h12.049v-2.782h1.671z"/><path fill="#EBEBEB" d="M377.189 177.066h-15.051v-2.772h-1.651v-6.074h1.651v-3.122h3.793v-1.982h7.375v1.982h3.883v3.122h1.671v6.074h-1.671zm-12.049-3.002h9.047v-2.772h1.671v-.07h-1.671V168.1h-3.883v-1.982h-1.371v1.982h-3.793v3.122h-1.651v.07h1.651z"/><path fill="#8CBA3B" d="M359.306 169.711h-1.671v-3.122h-3.883v-1.981h-4.363v1.981h-3.803v3.122h-1.651v3.072h1.651v2.782h12.049v-2.782h1.671z"/><path fill="#EBEBEB" d="M357.635 177.066h-12.049a1.5 1.5 0 0 1-1.501-1.501v-1.271h-.15a1.5 1.5 0 0 1-1.501-1.501v-3.072a1.5 1.5 0 0 1 1.501-1.501h.15v-1.621a1.5 1.5 0 0 1 1.501-1.501h2.292v-.481a1.5 1.5 0 0 1 1.501-1.501h4.373a1.5 1.5 0 0 1 1.501 1.501v.481h2.382c.831 0 1.501.67 1.501 1.501v1.621h.17c.831 0 1.501.67 1.501 1.501v3.072c0 .831-.67 1.501-1.501 1.501h-.17v1.271c0 .831-.67 1.501-1.501 1.501m-10.548-3.002h9.047v-1.271a1.5 1.5 0 0 1 1.501-1.501h.17v-.07h-.17c-.831 0-1.501-.67-1.501-1.501V168.1h-2.382a1.5 1.5 0 0 1-1.501-1.501v-.481h-1.371v.481a1.5 1.5 0 0 1-1.501 1.501h-2.292v1.621c0 .831-.67 1.501-1.501 1.501h-.15v.07h.15a1.5 1.5 0 0 1 1.501 1.501z"/><path fill="#8CBA3B" d="M341.254 169.711h-1.662v-3.122h-3.882v-1.981h-4.374v1.981h-3.802v3.122h-1.651v3.072h1.651v2.782h12.058v-2.782h1.662z"/><path fill="#EBEBEB" d="M339.592 177.066h-12.048c-.831 0-1.501-.67-1.501-1.501v-1.271h-.15c-.831 0-1.501-.67-1.501-1.501v-3.072c0-.831.67-1.501 1.501-1.501h.15v-1.621c0-.831.67-1.501 1.501-1.501h2.291v-.481a1.5 1.5 0 0 1 1.501-1.501h4.374a1.5 1.5 0 0 1 1.501 1.501v.481h2.381c.831 0 1.501.67 1.501 1.501v1.621h.171a1.5 1.5 0 0 1 1.501 1.501v3.072a1.5 1.5 0 0 1-1.501 1.501h-.171v1.271c0 .831-.67 1.501-1.501 1.501m-10.557-3.002h9.046v-1.271a1.5 1.5 0 0 1 1.501-1.501h.17v-.07h-.17a1.5 1.5 0 0 1-1.501-1.501V168.1H335.7a1.5 1.5 0 0 1-1.501-1.501v-.481h-1.371v.481a1.5 1.5 0 0 1-1.502 1.501h-2.291v1.621a1.5 1.5 0 0 1-1.501 1.501h-.15v.07h.15a1.5 1.5 0 0 1 1.501 1.501z"/><path fill="#191917" d="M461.459 169.711h-1.671v-3.122h-3.883v-1.981h-4.363v1.981h-3.803v3.122h-1.651v3.072h1.651v2.782h12.049v-2.782h1.671z"/><path fill="#EBEBEB" d="M461.289 177.066h-15.051v-2.772h-1.651v-6.074h1.651v-3.122h3.793v-1.982h7.375v1.982h3.883v3.122h1.671v6.074h-1.671zm-12.049-3.002h9.047v-2.772h1.671v-.07h-1.671V168.1h-3.883v-1.982h-1.371v1.982h-3.793v3.122h-1.651v.07h1.651z"/><path fill="#191917" d="M443.406 169.711h-1.671v-3.122h-3.883v-1.981h-4.363v1.981h-3.803v3.122h-1.651v3.072h1.651v2.782h12.049v-2.782h1.671z"/><path fill="#EBEBEB" d="M443.236 177.066h-15.051v-2.772h-1.651v-6.074h1.651v-3.122h3.793v-1.982h7.375v1.982h3.883v3.122h1.671v6.074h-1.671zm-12.049-3.002h9.047v-2.772h1.671v-.07h-1.671V168.1h-3.883v-1.982h-1.371v1.982h-3.793v3.122h-1.651v.07h1.651z"/><path fill="#191917" d="M425.354 169.711h-1.662v-3.122h-3.882v-1.981h-4.374v1.981h-3.802v3.122h-1.651v3.072h1.651v2.782h12.058v-2.782h1.662z"/><path fill="#EBEBEB" d="M425.193 177.066h-15.05v-2.772h-1.651v-6.074h1.651v-3.122h3.792v-1.982h7.376v1.982h3.882v3.122h1.672v6.074h-1.672zm-12.058-3.002h9.046v-2.772h1.671v-.07h-1.671V168.1h-3.882v-1.982h-1.371v1.982h-3.793v3.122h-1.651v.07h1.651z"/><path fill="#191917" d="M508.293 74.513h-153.91a4.924 4.924 0 0 0-4.924 4.924v42.69a4.925 4.925 0 0 0 4.924 4.924h153.91a4.924 4.924 0 0 0 4.923-4.924v-42.69a4.923 4.923 0 0 0-4.923-4.924"/><path fill="#EBEBEB" d="M508.293 128.552h-153.92a6.43 6.43 0 0 1-6.425-6.425v-42.7a6.43 6.43 0 0 1 6.425-6.425h153.92a6.43 6.43 0 0 1 6.424 6.425v42.7a6.43 6.43 0 0 1-6.424 6.425m-153.92-52.538a3.43 3.43 0 0 0-3.423 3.423v42.7a3.43 3.43 0 0 0 3.423 3.423h153.92a3.427 3.427 0 0 0 3.422-3.423v-42.7a3.427 3.427 0 0 0-3.422-3.423z"/><path fill="#EBEBEB" d="M325.182 53.278a1.5 1.5 0 0 1-1.501-1.501V15.52a1.5 1.5 0 0 1 1.501-1.501c.831 0 1.501.67 1.501 1.5v36.257c0 .83-.67 1.5-1.501 1.5"/><path fill="#EBEBEB" d="M333.418 53.278c-.831 0-1.501-.67-1.501-1.501V15.52c0-.83.67-1.501 1.501-1.501s1.501.67 1.501 1.5v36.257c0 .83-.67 1.5-1.501 1.5"/><path fill="#EBEBEB" d="M341.654 53.278c-.831 0-1.501-.67-1.501-1.501V15.52a1.5 1.5 0 0 1 1.501-1.501 1.5 1.5 0 0 1 1.501 1.5v36.257a1.5 1.5 0 0 1-1.501 1.5"/><path fill="#EBEBEB" d="M349.89 53.278c-.831 0-1.501-.67-1.501-1.501V15.52a1.5 1.5 0 0 1 1.501-1.501 1.5 1.5 0 0 1 1.501 1.5v36.257a1.5 1.5 0 0 1-1.501 1.5"/><path fill="#EBEBEB" d="M358.126 53.278a1.5 1.5 0 0 1-1.502-1.501V15.52a1.5 1.5 0 0 1 1.502-1.501 1.5 1.5 0 0 1 1.501 1.5v36.257a1.5 1.5 0 0 1-1.501 1.5"/><path fill="#EBEBEB" d="M366.361 53.278a1.5 1.5 0 0 1-1.501-1.501V15.52a1.5 1.5 0 0 1 1.501-1.501c.831 0 1.501.67 1.501 1.5v36.257c0 .83-.67 1.5-1.501 1.5"/><path fill="#EBEBEB" d="M374.597 53.278a1.5 1.5 0 0 1-1.501-1.501V15.52a1.5 1.5 0 0 1 1.501-1.501c.831 0 1.501.67 1.501 1.5v36.257c0 .83-.67 1.5-1.501 1.5"/><path fill="#EBEBEB" d="M382.833 53.278a1.5 1.5 0 0 1-1.501-1.501V15.52a1.5 1.5 0 0 1 1.501-1.501c.831 0 1.501.67 1.501 1.5v36.257c0 .83-.67 1.5-1.501 1.5"/><path fill="#EBEBEB" d="M391.069 53.278c-.831 0-1.501-.67-1.501-1.501V15.52c0-.83.67-1.501 1.501-1.501s1.501.67 1.501 1.5v36.257c0 .83-.67 1.5-1.501 1.5"/><path fill="#EBEBEB" d="M399.305 53.278c-.831 0-1.501-.67-1.501-1.501V15.52a1.5 1.5 0 0 1 1.501-1.501 1.5 1.5 0 0 1 1.501 1.5v36.257a1.5 1.5 0 0 1-1.501 1.5"/><path fill="#EBEBEB" d="M407.541 53.278c-.831 0-1.501-.67-1.501-1.501V15.52a1.5 1.5 0 0 1 1.501-1.501 1.5 1.5 0 0 1 1.501 1.5v36.257a1.5 1.5 0 0 1-1.501 1.5"/><path fill="#EBEBEB" d="M415.777 53.278a1.5 1.5 0 0 1-1.502-1.501V15.52a1.5 1.5 0 0 1 1.502-1.501 1.5 1.5 0 0 1 1.501 1.5v36.257a1.5 1.5 0 0 1-1.501 1.5"/><path fill="#EBEBEB" d="M424.012 53.278a1.5 1.5 0 0 1-1.501-1.501V15.52a1.5 1.5 0 0 1 1.501-1.501c.831 0 1.501.67 1.501 1.5v36.257c0 .83-.67 1.5-1.501 1.5"/><path fill="#EBEBEB" d="M432.248 53.278a1.5 1.5 0 0 1-1.501-1.501V15.52a1.5 1.5 0 0 1 1.501-1.501c.831 0 1.501.67 1.501 1.5v36.257c0 .83-.67 1.5-1.501 1.5"/><path fill="#EBEBEB" d="M440.484 53.278a1.5 1.5 0 0 1-1.501-1.501V15.52a1.5 1.5 0 0 1 1.501-1.501c.831 0 1.501.67 1.501 1.5v36.257c0 .83-.67 1.5-1.501 1.5"/><path fill="#EBEBEB" d="M448.72 53.278a1.5 1.5 0 0 1-1.501-1.501V15.52a1.5 1.5 0 0 1 1.501-1.501c.831 0 1.501.67 1.501 1.5v36.257c0 .83-.67 1.5-1.501 1.5"/><path fill="#EBEBEB" d="M456.956 53.278c-.831 0-1.501-.67-1.501-1.501V15.52c0-.83.67-1.501 1.501-1.501s1.501.67 1.501 1.5v36.257c0 .83-.67 1.5-1.501 1.5"/><path fill="#EBEBEB" d="M465.192 53.278c-.831 0-1.501-.67-1.501-1.501V15.52a1.5 1.5 0 0 1 1.501-1.501 1.5 1.5 0 0 1 1.501 1.5v36.257a1.5 1.5 0 0 1-1.501 1.5"/><path fill="#EBEBEB" d="M473.428 53.278c-.831 0-1.501-.67-1.501-1.501V15.52a1.5 1.5 0 0 1 1.501-1.501 1.5 1.5 0 0 1 1.501 1.5v36.257a1.5 1.5 0 0 1-1.501 1.5"/><path fill="#EBEBEB" d="M481.664 53.278c-.831 0-1.501-.67-1.501-1.501V15.52a1.5 1.5 0 0 1 1.501-1.501 1.5 1.5 0 0 1 1.501 1.5v36.257a1.5 1.5 0 0 1-1.501 1.5"/><path fill="#EBEBEB" d="M489.899 53.278a1.5 1.5 0 0 1-1.501-1.501V15.52a1.5 1.5 0 0 1 1.501-1.501 1.5 1.5 0 0 1 1.502 1.5v36.257a1.5 1.5 0 0 1-1.502 1.5"/><path fill="#EBEBEB" d="M498.135 53.278a1.5 1.5 0 0 1-1.501-1.501V15.52a1.5 1.5 0 0 1 1.501-1.501c.831 0 1.501.67 1.501 1.5v36.257c0 .83-.67 1.5-1.501 1.5"/><path fill="#EBEBEB" d="M506.371 53.278a1.5 1.5 0 0 1-1.501-1.501V15.52a1.5 1.5 0 0 1 1.501-1.501c.831 0 1.501.67 1.501 1.5v36.257c0 .83-.67 1.5-1.501 1.5"/><path fill="#EBEBEB" d="M514.607 53.278c-.831 0-1.501-.67-1.501-1.501V15.52c0-.83.67-1.501 1.501-1.501s1.501.67 1.501 1.5v36.257c0 .83-.67 1.5-1.501 1.5"/><path fill="#EBEBEB" d="M522.843 53.278a1.5 1.5 0 0 1-1.501-1.501V15.52a1.5 1.5 0 0 1 1.501-1.501c.831 0 1.501.67 1.501 1.5v36.257c0 .83-.67 1.5-1.501 1.5"/><path fill="#EBEBEB" d="M531.079 53.278c-.831 0-1.501-.67-1.501-1.501V15.52c0-.83.67-1.501 1.501-1.501s1.501.67 1.501 1.5v36.257c0 .83-.67 1.5-1.501 1.5"/><path fill="#EBEBEB" d="M539.315 53.278c-.831 0-1.501-.67-1.501-1.501V15.52a1.5 1.5 0 0 1 1.501-1.501 1.5 1.5 0 0 1 1.501 1.5v36.257a1.5 1.5 0 0 1-1.501 1.5"/><path fill="#191917" d="M539.315 92.326v-5.134a3.613 3.613 0 0 0-3.603-3.603 3.613 3.613 0 0 0-3.602 3.603v5.214a8.608 8.608 0 0 0 3.692 16.381 8.603 8.603 0 0 0 3.523-16.451z"/><path fill="#EBEBEB" d="M535.802 110.278c-5.574 0-10.107-4.533-10.107-10.107 0-3.552 1.901-6.855 4.913-8.666v-4.313a5.113 5.113 0 0 1 5.104-5.104 5.113 5.113 0 0 1 5.104 5.104v4.223a10.13 10.13 0 0 1 5.083 8.766c0 5.574-4.533 10.107-10.107 10.107zm-.09-25.198a2.1 2.1 0 0 0-2.101 2.102v5.214c0 .58-.331 1.11-.861 1.35-2.462 1.172-4.063 3.693-4.063 6.415 0 3.913 3.182 7.105 7.105 7.105a7.106 7.106 0 0 0 7.105-7.105 7.11 7.11 0 0 0-4.193-6.474c-.54-.24-.89-.781-.89-1.371v-5.134c0-1.16-.941-2.102-2.102-2.102"/><path fill="#191917" d="M331.557 92.326v-5.134a3.614 3.614 0 0 0-3.603-3.603 3.613 3.613 0 0 0-3.602 3.603v5.214a8.608 8.608 0 0 0 3.692 16.381 8.603 8.603 0 0 0 3.523-16.451z"/><path fill="#EBEBEB" d="M328.034 110.278c-5.574 0-10.107-4.533-10.107-10.107 0-3.552 1.901-6.855 4.913-8.666v-4.313a5.113 5.113 0 0 1 5.104-5.104 5.113 5.113 0 0 1 5.104 5.104v4.223a10.13 10.13 0 0 1 5.083 8.766c0 5.574-4.533 10.107-10.107 10.107zm-.08-25.198a2.1 2.1 0 0 0-2.101 2.102v5.214c0 .58-.331 1.11-.861 1.35-2.462 1.172-4.063 3.693-4.063 6.415 0 3.913 3.182 7.105 7.105 7.105a7.106 7.106 0 0 0 7.105-7.105 7.11 7.11 0 0 0-4.193-6.474c-.54-.24-.89-.781-.89-1.371v-5.134c0-1.16-.941-2.102-2.102-2.102"/><path fill="#191917" d="M516.879 164.608h-10.137v12.629h10.137z"/><path fill="#EBEBEB" d="M516.879 178.738h-10.137a1.5 1.5 0 0 1-1.502-1.501v-12.629a1.5 1.5 0 0 1 1.502-1.501h10.137a1.5 1.5 0 0 1 1.501 1.501v12.629a1.5 1.5 0 0 1-1.501 1.501m-8.636-3.002h7.135v-9.627h-7.135z"/><path fill="#191917" d="M534.832 176.957a5.324 5.324 0 1 0-.001-10.647 5.324 5.324 0 0 0 .001 10.647"/><path fill="#EBEBEB" d="M534.832 178.467c-3.763 0-6.825-3.062-6.825-6.824a6.833 6.833 0 0 1 6.825-6.825c3.762 0 6.824 3.062 6.824 6.825a6.833 6.833 0 0 1-6.824 6.824m0-10.657a3.822 3.822 0 1 0-.002 7.644 3.822 3.822 0 0 0 .002-7.644"/><path fill="#191917" d="M403.348 160.335h-8.446v17.052h8.446z"/><path fill="#EBEBEB" d="M403.348 178.888h-8.446a1.5 1.5 0 0 1-1.501-1.501v-17.052a1.5 1.5 0 0 1 1.501-1.502h8.446a1.5 1.5 0 0 1 1.501 1.502v17.052a1.5 1.5 0 0 1-1.501 1.501m-6.945-3.002h5.444v-14.05h-5.444z"/><path fill="#191917" d="M597.006 154.01a2.582 2.582 0 1 0 0-5.164 2.582 2.582 0 0 0 0 5.164"/><path fill="#EBEBEB" d="M597.006 155.511a4.087 4.087 0 0 1-4.083-4.083 4.087 4.087 0 0 1 4.083-4.083 4.087 4.087 0 0 1 4.083 4.083 4.09 4.09 0 0 1-4.083 4.083m0-5.154c-.591 0-1.081.48-1.081 1.081 0 .6.48 1.081 1.081 1.081.6 0 1.081-.481 1.081-1.081 0-.601-.481-1.081-1.081-1.081"/><path fill="#191917" d="M664.624 154.01a2.582 2.582 0 1 0 0-5.164 2.582 2.582 0 0 0 0 5.164"/><path fill="#EBEBEB" d="M664.624 155.511a4.087 4.087 0 0 1-4.083-4.083 4.087 4.087 0 0 1 4.083-4.083 4.087 4.087 0 0 1 4.083 4.083 4.087 4.087 0 0 1-4.083 4.083m0-5.154c-.59 0-1.081.48-1.081 1.081 0 .6.481 1.081 1.081 1.081.601 0 1.081-.481 1.081-1.081 0-.601-.48-1.081-1.081-1.081"/><path fill="#191917" d="M532.5 187.123v10.978h4.953v-10.978z"/><path fill="#EBEBEB" d="M537.463 199.612h-4.953a1.5 1.5 0 0 1-1.501-1.501v-10.978a1.5 1.5 0 0 1 1.501-1.501h4.953a1.5 1.5 0 0 1 1.501 1.501v10.978c0 .831-.67 1.501-1.501 1.501m-3.452-3.002h1.951v-7.975h-1.951z"/><path fill="#EBEBEB" d="M583.136 247.486c-30.141 0-49.615-16.331-49.615-41.609 0-.831.67-1.501 1.501-1.501a1.5 1.5 0 0 1 1.501 1.501c0 23.457 18.293 38.607 46.613 38.607 25.708 0 46.613-20.915 46.613-46.613a1.5 1.5 0 0 1 1.501-1.501 1.5 1.5 0 0 1 1.501 1.501c0 27.36-22.255 49.615-49.615 49.615"/><path fill="#191917" d="M531.049 192.977h7.885v9.347l-1 1.851v3.713h-5.564v-3.713l-1.321-1.781z"/><path fill="#EBEBEB" d="M537.934 209.389h-5.564a1.5 1.5 0 0 1-1.501-1.501v-3.212l-1.031-1.391a1.5 1.5 0 0 1-.29-.891v-9.407a1.5 1.5 0 0 1 1.501-1.501h7.885a1.5 1.5 0 0 1 1.501 1.501v9.337c0 .25-.06.49-.18.71l-.82 1.521v3.333a1.5 1.5 0 0 1-1.501 1.501m-4.063-3.002h2.562v-2.212c0-.25.06-.49.18-.71l.82-1.521v-7.466h-4.883v7.416l1.03 1.391c.191.26.291.57.291.89z"/><path fill="#191917" d="M631.761 201.054h-1.081a2.904 2.904 0 0 1-2.902-2.903v-14.98c0-.31.25-.561.56-.561h5.754a.56.56 0 0 1 .561.561v14.98a2.904 2.904 0 0 1-2.902 2.903z"/><path fill="#EBEBEB" d="M631.771 202.554h-1.081a4.41 4.41 0 0 1-4.403-4.403v-14.98c0-1.141.92-2.062 2.061-2.062h5.754a2.06 2.06 0 0 1 2.062 2.062v14.98a4.41 4.41 0 0 1-4.403 4.403zm-2.482-18.433v14.04c0 .771.63 1.401 1.401 1.401h1.081c.77 0 1.401-.63 1.401-1.401v-14.04z"/><path fill="#191917" d="M258.755 170.441H134.716a2.54 2.54 0 0 0-2.542 2.542V295.63a2.54 2.54 0 0 0 2.542 2.542h124.039a2.54 2.54 0 0 0 2.541-2.542V172.983a2.54 2.54 0 0 0-2.541-2.542"/><path fill="#EBEBEB" d="M258.755 299.673H134.726a4.045 4.045 0 0 1-4.043-4.043V172.993a4.045 4.045 0 0 1 4.043-4.043h124.029a4.045 4.045 0 0 1 4.043 4.043V295.63a4.045 4.045 0 0 1-4.043 4.043M134.726 171.942a1.04 1.04 0 0 0-1.041 1.041V295.62a1.04 1.04 0 0 0 1.041 1.041h124.029c.58 0 1.04-.47 1.04-1.041V172.983c0-.58-.47-1.041-1.04-1.041z"/><path fill="#EBEBEB" d="M261.306 213.022H132.184a1.5 1.5 0 0 1-1.501-1.502 1.5 1.5 0 0 1 1.501-1.501h129.122a1.5 1.5 0 0 1 1.502 1.501 1.5 1.5 0 0 1-1.502 1.502"/><path fill="#191917" d="M147.075 270.823a5.613 5.613 0 1 0 0-11.228 5.614 5.614 0 0 0 0 11.228"/><path fill="#EBEBEB" d="M147.075 272.324c-3.923 0-7.105-3.192-7.105-7.115s3.192-7.105 7.105-7.105 7.115 3.192 7.115 7.105-3.192 7.115-7.115 7.115m0-11.218a4.11 4.11 0 0 0-4.103 4.103c0 2.262 1.841 4.113 4.103 4.113a4.12 4.12 0 0 0 4.113-4.113 4.104 4.104 0 0 0-4.113-4.103"/><path fill="#191917" d="M247.977 270.823a5.613 5.613 0 1 0 0-11.228 5.615 5.615 0 0 0 0 11.228"/><path fill="#EBEBEB" d="M247.977 272.324c-3.923 0-7.105-3.192-7.105-7.115s3.192-7.105 7.105-7.105 7.115 3.192 7.115 7.105-3.192 7.115-7.115 7.115m0-11.218a4.11 4.11 0 0 0-4.103 4.103c0 2.262 1.841 4.113 4.103 4.113a4.12 4.12 0 0 0 4.113-4.113 4.104 4.104 0 0 0-4.113-4.103"/><path fill="#191917" d="M209.52 252.73h-24.728v13.51h24.728z"/><path fill="#EBEBEB" d="M209.51 267.741h-24.728a1.5 1.5 0 0 1-1.501-1.501v-13.51c0-.831.67-1.501 1.501-1.501h24.728a1.5 1.5 0 0 1 1.501 1.501v13.51a1.5 1.5 0 0 1-1.501 1.501m-23.217-3.002h21.725v-10.508h-21.725z"/><path fill="#191917" d="m183.761 274.255 1.091-8.015h24.727l.961 8.015"/><path fill="#EBEBEB" d="M183.761 275.756c-.07 0-.14 0-.21-.01a1.493 1.493 0 0 1-1.281-1.691l1.101-8.015c.1-.741.74-1.301 1.491-1.301h24.727c.761 0 1.401.57 1.492 1.321l.96 8.015c.1.821-.49 1.571-1.311 1.671a1.505 1.505 0 0 1-1.671-1.31l-.8-6.695h-22.086l-.921 6.715c-.1.75-.75 1.3-1.481 1.3z"/><path fill="#191917" d="M205.707 184.291h-17.943v13.51h17.943z"/><path fill="#EBEBEB" d="M205.717 199.302h-17.943a1.5 1.5 0 0 1-1.501-1.501v-13.51a1.5 1.5 0 0 1 1.501-1.501h17.943a1.5 1.5 0 0 1 1.501 1.501v13.51a1.5 1.5 0 0 1-1.501 1.501m-16.452-3.002h14.941v-10.508h-14.941z"/><path fill="#191917" d="m187.024 205.817.79-8.016h17.943l.7 8.016"/><path fill="#EBEBEB" d="M187.024 207.318h-.151a1.496 1.496 0 0 1-1.341-1.641l.801-8.016a1.5 1.5 0 0 1 1.491-1.351h17.943c.78 0 1.431.59 1.491 1.371l.7 8.016c.071.83-.54 1.551-1.36 1.621a1.495 1.495 0 0 1-1.622-1.361l-.58-6.645h-15.211l-.66 6.665a1.506 1.506 0 0 1-1.491 1.351z"/><path fill="#191917" d="m134.396 170.311 10.838-4.703h103.363l10.488 4.703z"/><path fill="#EBEBEB" d="M259.085 171.812H134.386a1.503 1.503 0 0 1-.601-2.882l10.848-4.703q.285-.12.601-.12h103.353c.21 0 .421.04.611.13l10.497 4.703a1.49 1.49 0 0 1 .851 1.681 1.51 1.51 0 0 1-1.471 1.191zm-117.464-3.002H252.07l-3.803-1.701H145.544z"/><path fill="#EBEBEB" d="M143.683 271.183c-.321 0-.651-.1-.921-.32a1.507 1.507 0 0 1-.26-2.111l6.905-8.837c.51-.65 1.451-.77 2.111-.26.651.51.771 1.451.26 2.112l-6.905 8.836c-.3.38-.74.58-1.18.58z"/><path fill="#EBEBEB" d="M244.314 270.953c-.35 0-.7-.12-.98-.37a1.513 1.513 0 0 1-.15-2.122l7.365-8.456c.54-.62 1.491-.69 2.121-.15.621.54.691 1.491.15 2.121l-7.365 8.456c-.3.341-.71.521-1.131.521z"/><path fill="#191917" d="M258.755 170.441H134.716a2.54 2.54 0 0 0-2.542 2.542V295.63a2.54 2.54 0 0 0 2.542 2.542h124.039a2.54 2.54 0 0 0 2.541-2.542V172.983a2.54 2.54 0 0 0-2.541-2.542"/><path fill="#EBEBEB" d="M258.755 299.673H134.726a4.045 4.045 0 0 1-4.043-4.043V172.993a4.045 4.045 0 0 1 4.043-4.043h124.029a4.045 4.045 0 0 1 4.043 4.043V295.63a4.045 4.045 0 0 1-4.043 4.043M134.726 171.942a1.04 1.04 0 0 0-1.041 1.041V295.62a1.04 1.04 0 0 0 1.041 1.041h124.029c.58 0 1.04-.47 1.04-1.041V172.983c0-.58-.47-1.041-1.04-1.041z"/><path fill="#EBEBEB" d="M261.306 213.022H132.184a1.5 1.5 0 0 1-1.501-1.502 1.5 1.5 0 0 1 1.501-1.501h129.122a1.5 1.5 0 0 1 1.502 1.501 1.5 1.5 0 0 1-1.502 1.502"/><path fill="#191917" d="M147.075 270.823a5.613 5.613 0 1 0 0-11.228 5.614 5.614 0 0 0 0 11.228"/><path fill="#EBEBEB" d="M147.075 272.324c-3.923 0-7.105-3.192-7.105-7.115s3.192-7.105 7.105-7.105 7.115 3.192 7.115 7.105-3.192 7.115-7.115 7.115m0-11.218a4.11 4.11 0 0 0-4.103 4.103c0 2.262 1.841 4.113 4.103 4.113a4.12 4.12 0 0 0 4.113-4.113 4.104 4.104 0 0 0-4.113-4.103"/><path fill="#191917" d="M247.977 270.823a5.613 5.613 0 1 0 0-11.228 5.615 5.615 0 0 0 0 11.228"/><path fill="#EBEBEB" d="M247.977 272.324c-3.923 0-7.105-3.192-7.105-7.115s3.192-7.105 7.105-7.105 7.115 3.192 7.115 7.105-3.192 7.115-7.115 7.115m0-11.218a4.11 4.11 0 0 0-4.103 4.103c0 2.262 1.841 4.113 4.103 4.113a4.12 4.12 0 0 0 4.113-4.113 4.104 4.104 0 0 0-4.113-4.103"/><path fill="#191917" d="M209.52 252.73h-24.728v13.51h24.728z"/><path fill="#EBEBEB" d="M209.51 267.741h-24.728a1.5 1.5 0 0 1-1.501-1.501v-13.51c0-.831.67-1.501 1.501-1.501h24.728a1.5 1.5 0 0 1 1.501 1.501v13.51a1.5 1.5 0 0 1-1.501 1.501m-23.217-3.002h21.725v-10.508h-21.725z"/><path fill="#191917" d="m183.761 274.255 1.091-8.015h24.727l.961 8.015"/><path fill="#EBEBEB" d="M183.761 275.756c-.07 0-.14 0-.21-.01a1.493 1.493 0 0 1-1.281-1.691l1.101-8.015c.1-.741.74-1.301 1.491-1.301h24.727c.761 0 1.401.57 1.492 1.321l.96 8.015c.1.821-.49 1.571-1.311 1.671a1.505 1.505 0 0 1-1.671-1.31l-.8-6.695h-22.086l-.921 6.715c-.1.75-.75 1.3-1.481 1.3z"/><path fill="#191917" d="M205.707 184.291h-17.943v13.51h17.943z"/><path fill="#EBEBEB" d="M205.717 199.302h-17.943a1.5 1.5 0 0 1-1.501-1.501v-13.51a1.5 1.5 0 0 1 1.501-1.501h17.943a1.5 1.5 0 0 1 1.501 1.501v13.51a1.5 1.5 0 0 1-1.501 1.501m-16.452-3.002h14.941v-10.508h-14.941z"/><path fill="#191917" d="m187.024 205.817.79-8.016h17.943l.7 8.016"/><path fill="#EBEBEB" d="M187.024 207.318h-.151a1.496 1.496 0 0 1-1.341-1.641l.801-8.016a1.5 1.5 0 0 1 1.491-1.351h17.943c.78 0 1.431.59 1.491 1.371l.7 8.016c.071.83-.54 1.551-1.36 1.621a1.495 1.495 0 0 1-1.622-1.361l-.58-6.645h-15.211l-.66 6.665a1.506 1.506 0 0 1-1.491 1.351z"/><path fill="#191917" d="m134.396 170.311 10.838-4.703h103.363l10.488 4.703z"/><path fill="#EBEBEB" d="M259.085 171.812H134.386a1.503 1.503 0 0 1-.601-2.882l10.848-4.703q.285-.12.601-.12h103.353c.21 0 .421.04.611.13l10.497 4.703a1.49 1.49 0 0 1 .851 1.681 1.51 1.51 0 0 1-1.471 1.191zm-117.464-3.002H252.07l-3.803-1.701H145.544z"/><path fill="#EBEBEB" d="M143.683 271.183c-.321 0-.651-.1-.921-.32a1.507 1.507 0 0 1-.26-2.111l6.905-8.837c.51-.65 1.451-.77 2.111-.26.651.51.771 1.451.26 2.112l-6.905 8.836c-.3.38-.74.58-1.18.58z"/><path fill="#EBEBEB" d="M244.314 270.953c-.35 0-.7-.12-.98-.37a1.513 1.513 0 0 1-.15-2.122l7.365-8.456c.54-.62 1.491-.69 2.121-.15.621.54.691 1.491.15 2.121l-7.365 8.456c-.3.341-.71.521-1.131.521z"/><path fill="#EBEBEB" d="M137.058 403.348c-33.744 0-61.184-27.45-61.184-61.184h3.002c0 32.083 26.099 58.181 58.182 58.181s58.181-26.098 58.181-58.181V294.94h3.002v47.224c0 33.744-27.449 61.184-61.183 61.184"/><path fill="#191917" d="M100.742 295.631H14.851c-7.373 0-13.35 5.977-13.35 13.349v45.673c0 7.373 5.977 13.349 13.35 13.349h85.891c7.373 0 13.349-5.976 13.349-13.349V308.98c0-7.372-5.976-13.349-13.349-13.349"/><path fill="#EBEBEB" d="M100.742 369.503H14.841C6.655 369.503 0 362.848 0 354.663V308.98c0-8.186 6.665-14.841 14.84-14.841h85.902c8.186 0 14.84 6.655 14.84 14.841v45.683c0 8.185-6.664 14.84-14.84 14.84m-85.891-72.371c-6.535 0-11.839 5.313-11.839 11.838v45.683c0 6.534 5.314 11.838 11.839 11.838h85.901c6.535 0 11.838-5.314 11.838-11.838V308.97c0-6.535-5.314-11.838-11.838-11.838z"/><path fill="#191917" d="M95.988 344.285V196.77c0-10.047-8.145-18.183-18.183-18.183H37.226c-9.386 0-17.002 7.615-17.002 17.002v148.706a6.257 6.257 0 0 0 6.255 6.254h63.265a6.257 6.257 0 0 0 6.254-6.254z"/><path fill="#EBEBEB" d="M89.734 352.041H26.469c-4.273 0-7.756-3.483-7.756-7.756V195.579c0-10.197 8.296-18.503 18.504-18.503h40.578c10.858 0 19.695 8.836 19.695 19.684v147.525c0 4.273-3.483 7.756-7.756 7.756M37.217 180.078c-8.547 0-15.502 6.955-15.502 15.501v148.706a4.76 4.76 0 0 0 4.754 4.754h63.265a4.76 4.76 0 0 0 4.753-4.754V196.76c0-9.197-7.485-16.682-16.692-16.682z"/><path fill="#191917" d="M31.863 182.14v-10.368a3.46 3.46 0 0 1 3.452-3.452 3.46 3.46 0 0 1 3.453 3.452v10.368"/><path fill="#EBEBEB" d="M38.768 183.641a1.5 1.5 0 0 1-1.502-1.501v-10.368c0-1.071-.87-1.951-1.951-1.951s-1.951.87-1.951 1.951v10.368a1.5 1.5 0 0 1-1.501 1.501 1.5 1.5 0 0 1-1.501-1.501v-10.368a4.96 4.96 0 0 1 4.953-4.953 4.96 4.96 0 0 1 4.954 4.953v10.368a1.5 1.5 0 0 1-1.501 1.501"/><path fill="#191917" d="M95.988 350.029V202.514c0-10.047-8.145-18.183-18.183-18.183H37.226c-9.386 0-17.002 7.616-17.002 17.002v148.706a6.257 6.257 0 0 0 6.255 6.255h63.265a6.257 6.257 0 0 0 6.254-6.255z"/><path fill="#EBEBEB" d="M89.734 357.775H26.469c-4.273 0-7.756-3.483-7.756-7.756V201.313c0-10.197 8.296-18.503 18.504-18.503h40.578c10.858 0 19.695 8.836 19.695 19.684v147.525c0 4.273-3.483 7.756-7.756 7.756M37.217 185.822c-8.547 0-15.502 6.955-15.502 15.501v148.706a4.76 4.76 0 0 0 4.754 4.754h63.265a4.76 4.76 0 0 0 4.753-4.754V202.504c0-9.196-7.485-16.682-16.692-16.682z"/><path fill="#191917" d="M83.04 202.314H33.173a2.85 2.85 0 0 0-2.852 2.852v25.759a2.85 2.85 0 0 0 2.852 2.852h49.865a2.85 2.85 0 0 0 2.852-2.852v-25.759a2.85 2.85 0 0 0-2.852-2.852"/><path fill="#EBEBEB" d="M83.04 235.278H33.173a4.357 4.357 0 0 1-4.353-4.353v-25.759a4.357 4.357 0 0 1 4.353-4.353h49.865a4.357 4.357 0 0 1 4.353 4.353v25.759a4.357 4.357 0 0 1-4.353 4.353m-49.866-31.463c-.75 0-1.351.611-1.351 1.351v25.759c0 .75.61 1.351 1.35 1.351H83.04c.75 0 1.351-.611 1.351-1.351v-25.759c0-.75-.61-1.351-1.35-1.351z"/><path fill="#191917" d="M65.237 193.377h-14.27a1.22 1.22 0 0 0-1.222 1.216c0 .672.547 1.216 1.221 1.216h14.27c.675 0 1.221-.544 1.221-1.216s-.546-1.216-1.22-1.216"/><path fill="#EBEBEB" d="M65.247 197.31h-14.28a2.725 2.725 0 0 1-2.723-2.722 2.725 2.725 0 0 1 2.722-2.722h14.28a2.725 2.725 0 0 1 2.722 2.722 2.725 2.725 0 0 1-2.722 2.722"/><path fill="#191917" d="M58.101 258.184a8.356 8.356 0 1 0 0-16.712 8.356 8.356 0 0 0 0 16.712"/><path fill="#EBEBEB" d="M58.101 259.685c-5.434 0-9.857-4.423-9.857-9.857s4.423-9.857 9.857-9.857 9.857 4.423 9.857 9.857-4.423 9.857-9.857 9.857m0-16.712a6.86 6.86 0 0 0-6.855 6.855 6.86 6.86 0 0 0 6.855 6.855 6.86 6.86 0 0 0 6.855-6.855 6.86 6.86 0 0 0-6.855-6.855"/><path fill="#191917" d="M79.056 241.472h5.254c.87 0 1.581.711 1.581 1.581v3.393c0 .87-.71 1.581-1.58 1.581h-5.255a3.274 3.274 0 0 1 0-6.545z"/><path fill="#EBEBEB" d="M84.31 249.528h-5.254a4.78 4.78 0 0 1-4.773-4.774 4.78 4.78 0 0 1 4.773-4.773h5.254a3.084 3.084 0 0 1 3.082 3.082v3.392a3.084 3.084 0 0 1-3.082 3.083zm-5.254-6.555c-.98 0-1.77.79-1.77 1.771s.79 1.771 1.77 1.771h5.254s.08-.04.08-.08v-3.392s-.04-.08-.08-.08h-5.254z"/><path fill="#191917" d="M79.056 251.729h5.284c.86 0 1.551.691 1.551 1.551v3.443c0 .861-.69 1.551-1.55 1.551h-5.285a3.274 3.274 0 0 1 0-6.545"/><path fill="#EBEBEB" d="M84.34 259.775h-5.284a4.78 4.78 0 0 1-4.773-4.773 4.78 4.78 0 0 1 4.773-4.774h5.284a3.06 3.06 0 0 1 3.052 3.052v3.443a3.06 3.06 0 0 1-3.052 3.052m-5.284-6.545c-.98 0-1.77.791-1.77 1.772 0 .98.79 1.771 1.77 1.771h5.284s.05-.03.05-.05v-3.443z"/><path fill="#191917" d="M32.383 241.472h5.324a3.274 3.274 0 0 1 0 6.545h-5.324c-.87 0-1.581-.711-1.581-1.581v-3.383c0-.87.71-1.581 1.581-1.581"/><path fill="#EBEBEB" d="M37.707 249.528h-5.324a3.084 3.084 0 0 1-3.082-3.083v-3.382a3.084 3.084 0 0 1 3.082-3.082h5.324a4.78 4.78 0 0 1 4.773 4.773 4.78 4.78 0 0 1-4.773 4.774m-5.324-6.555s-.08.04-.08.08v3.382s.04.08.08.08h5.324c.98 0 1.771-.79 1.771-1.771s-.79-1.771-1.771-1.771z"/><path fill="#191917" d="M32.383 251.729h5.324a3.274 3.274 0 0 1 0 6.545h-5.324c-.87 0-1.581-.711-1.581-1.581V253.3c0-.87.71-1.581 1.581-1.581z"/><path fill="#EBEBEB" d="M37.707 259.775h-5.324a3.084 3.084 0 0 1-3.082-3.082V253.3a3.084 3.084 0 0 1 3.082-3.082h5.324a4.78 4.78 0 0 1 4.773 4.773 4.78 4.78 0 0 1-4.773 4.774zm-5.324-6.545s-.08.04-.08.08v3.393s.04.08.08.08h5.324c.98 0 1.771-.791 1.771-1.772 0-.98-.79-1.771-1.771-1.771h-5.324z"/><path fill="#191917" d="M43.971 268.901h-9.857a3.313 3.313 0 0 0-3.312 3.313v7.115a3.31 3.31 0 0 0 3.312 3.312h9.857a3.31 3.31 0 0 0 3.313-3.312v-7.115a3.313 3.313 0 0 0-3.313-3.313"/><path fill="#EBEBEB" d="M43.971 284.142h-9.857a4.82 4.82 0 0 1-4.813-4.813v-7.115a4.82 4.82 0 0 1 4.813-4.814h9.857a4.82 4.82 0 0 1 4.814 4.814v7.115a4.82 4.82 0 0 1-4.814 4.813m-9.857-13.74c-1 0-1.81.811-1.81 1.812v7.115c0 1 .81 1.811 1.81 1.811h9.857a1.81 1.81 0 0 0 1.812-1.811v-7.115c0-1.001-.81-1.812-1.812-1.812z"/><path fill="#191917" d="M63.275 268.901h-9.857a3.31 3.31 0 0 0-3.312 3.313v7.115a3.31 3.31 0 0 0 3.312 3.312h9.857a3.31 3.31 0 0 0 3.312-3.312v-7.115a3.31 3.31 0 0 0-3.312-3.313"/><path fill="#EBEBEB" d="M63.275 284.142h-9.857a4.82 4.82 0 0 1-4.813-4.813v-7.115a4.82 4.82 0 0 1 4.813-4.814h9.857a4.82 4.82 0 0 1 4.813 4.814v7.115a4.82 4.82 0 0 1-4.813 4.813m-9.857-13.74c-1 0-1.811.811-1.811 1.812v7.115c0 1 .81 1.811 1.81 1.811h9.858c1 0 1.811-.811 1.811-1.811v-7.115a1.81 1.81 0 0 0-1.811-1.812z"/><path fill="#191917" d="M82.579 268.901h-9.857a3.31 3.31 0 0 0-3.313 3.313v7.115a3.31 3.31 0 0 0 3.313 3.312h9.857a3.31 3.31 0 0 0 3.312-3.312v-7.115a3.313 3.313 0 0 0-3.312-3.313"/><path fill="#EBEBEB" d="M82.579 284.142h-9.857a4.82 4.82 0 0 1-4.814-4.813v-7.115a4.82 4.82 0 0 1 4.814-4.814h9.857a4.82 4.82 0 0 1 4.813 4.814v7.115a4.82 4.82 0 0 1-4.813 4.813m-9.857-13.74a1.81 1.81 0 0 0-1.812 1.812v7.115c0 1 .811 1.811 1.812 1.811h9.857c1 0 1.811-.811 1.811-1.811v-7.115a1.81 1.81 0 0 0-1.811-1.812z"/><path fill="#191917" d="M43.971 285.313h-9.857a3.31 3.31 0 0 0-3.312 3.312v7.115a3.313 3.313 0 0 0 3.312 3.313h9.857a3.313 3.313 0 0 0 3.313-3.313v-7.115a3.31 3.31 0 0 0-3.313-3.312"/><path fill="#EBEBEB" d="M43.971 300.544h-9.857a4.82 4.82 0 0 1-4.813-4.813v-7.116a4.82 4.82 0 0 1 4.813-4.813h9.857a4.82 4.82 0 0 1 4.814 4.813v7.116a4.82 4.82 0 0 1-4.814 4.813m-9.857-13.73c-1 0-1.81.811-1.81 1.811v7.116c0 1 .81 1.811 1.81 1.811h9.857a1.81 1.81 0 0 0 1.812-1.811v-7.116c0-1-.81-1.811-1.812-1.811z"/><path fill="#191917" d="M63.275 285.313h-9.857a3.31 3.31 0 0 0-3.312 3.312v7.115a3.31 3.31 0 0 0 3.312 3.313h9.857a3.31 3.31 0 0 0 3.312-3.313v-7.115a3.31 3.31 0 0 0-3.312-3.312"/><path fill="#EBEBEB" d="M63.275 300.544h-9.857a4.82 4.82 0 0 1-4.813-4.813v-7.116a4.82 4.82 0 0 1 4.813-4.813h9.857a4.82 4.82 0 0 1 4.813 4.813v7.116a4.82 4.82 0 0 1-4.813 4.813m-9.857-13.73c-1 0-1.811.811-1.811 1.811v7.116c0 1 .81 1.811 1.81 1.811h9.858c1 0 1.811-.811 1.811-1.811v-7.116c0-1-.81-1.811-1.811-1.811z"/><path fill="#191917" d="M82.579 285.313h-9.857a3.31 3.31 0 0 0-3.313 3.312v7.115a3.31 3.31 0 0 0 3.313 3.313h9.857a3.313 3.313 0 0 0 3.312-3.313v-7.115a3.31 3.31 0 0 0-3.312-3.312"/><path fill="#EBEBEB" d="M82.579 300.544h-9.857a4.82 4.82 0 0 1-4.814-4.813v-7.116a4.82 4.82 0 0 1 4.814-4.813h9.857a4.82 4.82 0 0 1 4.813 4.813v7.116a4.82 4.82 0 0 1-4.813 4.813m-9.857-13.73a1.81 1.81 0 0 0-1.812 1.811v7.116c0 1 .811 1.811 1.812 1.811h9.857c1 0 1.811-.811 1.811-1.811v-7.116c0-1-.81-1.811-1.811-1.811z"/><path fill="#191917" d="M43.971 301.715h-9.857a3.31 3.31 0 0 0-3.312 3.312v7.115a3.313 3.313 0 0 0 3.312 3.313h9.857a3.313 3.313 0 0 0 3.313-3.313v-7.115a3.31 3.31 0 0 0-3.313-3.312"/><path fill="#EBEBEB" d="M43.971 316.956h-9.857a4.82 4.82 0 0 1-4.813-4.814v-7.115a4.82 4.82 0 0 1 4.813-4.813h9.857a4.82 4.82 0 0 1 4.814 4.813v7.115a4.82 4.82 0 0 1-4.814 4.814m-9.857-13.74c-1 0-1.81.81-1.81 1.811v7.115a1.81 1.81 0 0 0 1.81 1.811h9.857a1.81 1.81 0 0 0 1.812-1.811v-7.115a1.81 1.81 0 0 0-1.812-1.811z"/><path fill="#191917" d="M63.275 301.715h-9.857a3.31 3.31 0 0 0-3.312 3.312v7.115a3.31 3.31 0 0 0 3.312 3.313h9.857a3.31 3.31 0 0 0 3.312-3.313v-7.115a3.31 3.31 0 0 0-3.312-3.312"/><path fill="#EBEBEB" d="M63.275 316.956h-9.857a4.82 4.82 0 0 1-4.813-4.814v-7.115a4.82 4.82 0 0 1 4.813-4.813h9.857a4.82 4.82 0 0 1 4.813 4.813v7.115a4.82 4.82 0 0 1-4.813 4.814m-9.857-13.74c-1 0-1.811.81-1.811 1.811v7.115a1.81 1.81 0 0 0 1.81 1.811h9.858c1 0 1.811-.81 1.811-1.811v-7.115a1.81 1.81 0 0 0-1.811-1.811z"/><path fill="#191917" d="M82.579 301.715h-9.857a3.31 3.31 0 0 0-3.313 3.312v7.115a3.31 3.31 0 0 0 3.313 3.313h9.857a3.313 3.313 0 0 0 3.312-3.313v-7.115a3.31 3.31 0 0 0-3.312-3.312"/><path fill="#EBEBEB" d="M82.579 316.956h-9.857a4.82 4.82 0 0 1-4.814-4.814v-7.115a4.82 4.82 0 0 1 4.814-4.813h9.857a4.82 4.82 0 0 1 4.813 4.813v7.115a4.82 4.82 0 0 1-4.813 4.814m-9.857-13.74a1.81 1.81 0 0 0-1.812 1.811v7.115a1.81 1.81 0 0 0 1.812 1.811h9.857c1 0 1.811-.81 1.811-1.811v-7.115a1.81 1.81 0 0 0-1.811-1.811z"/><path fill="#191917" d="M43.971 318.127h-9.857a3.31 3.31 0 0 0-3.312 3.312v7.115a3.313 3.313 0 0 0 3.312 3.313h9.857a3.313 3.313 0 0 0 3.313-3.313v-7.115a3.31 3.31 0 0 0-3.313-3.312"/><path fill="#EBEBEB" d="M43.971 333.368h-9.857a4.82 4.82 0 0 1-4.813-4.814v-7.115a4.82 4.82 0 0 1 4.813-4.813h9.857a4.82 4.82 0 0 1 4.814 4.813v7.115a4.82 4.82 0 0 1-4.814 4.814m-9.857-13.74c-1 0-1.81.81-1.81 1.811v7.115a1.81 1.81 0 0 0 1.81 1.812h9.857a1.81 1.81 0 0 0 1.812-1.812v-7.115a1.81 1.81 0 0 0-1.812-1.811z"/><path fill="#191917" d="M63.275 318.127h-9.857a3.31 3.31 0 0 0-3.312 3.312v7.115a3.31 3.31 0 0 0 3.312 3.313h9.857a3.31 3.31 0 0 0 3.312-3.313v-7.115a3.31 3.31 0 0 0-3.312-3.312"/><path fill="#EBEBEB" d="M63.275 333.368h-9.857a4.82 4.82 0 0 1-4.813-4.814v-7.115a4.82 4.82 0 0 1 4.813-4.813h9.857a4.82 4.82 0 0 1 4.813 4.813v7.115a4.82 4.82 0 0 1-4.813 4.814m-9.857-13.74c-1 0-1.811.81-1.811 1.811v7.115a1.81 1.81 0 0 0 1.81 1.812h9.858c1 0 1.811-.811 1.811-1.812v-7.115a1.81 1.81 0 0 0-1.811-1.811z"/><path fill="#191917" d="M82.579 318.127h-9.857a3.31 3.31 0 0 0-3.313 3.312v7.115a3.31 3.31 0 0 0 3.313 3.313h9.857a3.313 3.313 0 0 0 3.312-3.313v-7.115a3.31 3.31 0 0 0-3.312-3.312"/><path fill="#EBEBEB" d="M82.579 333.368h-9.857a4.82 4.82 0 0 1-4.814-4.814v-7.115a4.82 4.82 0 0 1 4.814-4.813h9.857a4.82 4.82 0 0 1 4.813 4.813v7.115a4.82 4.82 0 0 1-4.813 4.814m-9.857-13.74a1.81 1.81 0 0 0-1.812 1.811v7.115c0 1.001.811 1.812 1.812 1.812h9.857c1 0 1.811-.811 1.811-1.812v-7.115a1.81 1.81 0 0 0-1.811-1.811z"/><path fill="#191917" d="M99.591 346.507h-83.58v11.478h83.58z"/><path fill="#EBEBEB" d="M101.963 348.008H14.24a1.5 1.5 0 0 1-1.5-1.501c0-.831.67-1.501 1.5-1.501h87.723a1.5 1.5 0 0 1 1.501 1.501 1.5 1.5 0 0 1-1.501 1.501"/><path fill="#191917" d="M20.224 340.583v5.924H14.25z"/><path fill="#EBEBEB" d="M20.225 348.008H14.25a1.505 1.505 0 0 1-1.06-2.572l5.974-5.924a1.495 1.495 0 0 1 2.551 1.061v5.924a1.5 1.5 0 0 1-1.5 1.501zm-2.332-3.002h.83v-.821z"/><path fill="#191917" d="M20.224 340.583v5.924H14.25z"/><path fill="#EBEBEB" d="M20.225 348.008H14.25a1.505 1.505 0 0 1-1.06-2.572l5.974-5.924a1.495 1.495 0 0 1 2.551 1.061v5.924a1.5 1.5 0 0 1-1.5 1.501zm-2.332-3.002h.83v-.821z"/><path fill="#191917" d="M95.949 340.582v5.924h5.964z"/><path fill="#EBEBEB" d="M101.913 348.008h-5.974a1.5 1.5 0 0 1-1.501-1.501v-5.925c0-.61.36-1.15.92-1.381.56-.23 1.201-.11 1.631.321l5.975 5.924a1.507 1.507 0 0 1-1.061 2.572zm-4.473-3.002h.83l-.83-.821z"/><path fill="#191917" d="M190.646 287.735v22.276c0 .731.59 1.321 1.321 1.321h10.367a1.32 1.32 0 0 0 1.321-1.321v-22.276c0-.73-.59-1.321-1.321-1.321h-10.367a1.32 1.32 0 0 0-1.321 1.321"/><path fill="#EBEBEB" d="M202.334 312.843h-10.367a2.825 2.825 0 0 1-2.822-2.822v-22.276a2.825 2.825 0 0 1 2.822-2.822h10.367a2.825 2.825 0 0 1 2.822 2.822v22.276a2.825 2.825 0 0 1-2.822 2.822m-10.187-3.002h10.017v-21.926h-10.017z"/><path fill="#EBEBEB" d="M194.329 308.49a1.004 1.004 0 0 1-1.001-1.001v-8.616c0-.551.45-1.001 1.001-1.001s1 .45 1 1.001v8.616c0 .55-.45 1.001-1 1.001"/><path fill="#EBEBEB" d="M197.311 308.49a1.004 1.004 0 0 1-1.001-1.001v-8.616c0-.551.45-1.001 1.001-1.001s1 .45 1 1.001v8.616c0 .55-.45 1.001-1 1.001"/><path fill="#EBEBEB" d="M200.303 308.49a1.004 1.004 0 0 1-1.001-1.001v-8.616c0-.551.45-1.001 1.001-1.001s1 .45 1 1.001v8.616c0 .55-.45 1.001-1 1.001"/><path fill="#191917" d="M328.924 251.429H252.97c-15.511 0-30.051-6.885-39.898-18.874l-10.608-12.929 4.644-3.802 10.607 12.929c8.696 10.597 21.545 16.682 35.255 16.682h75.954c20.975 0 38.048-17.063 38.048-38.048v-8.686h6.004v8.686c0 24.288-19.764 44.052-44.052 44.052z"/><path fill="#EBEBEB" d="M328.925 252.93H252.97c-15.961 0-30.932-7.085-41.059-19.424l-11.558-14.09 6.965-5.714 11.558 14.09c8.406 10.248 20.835 16.132 34.094 16.132h75.955c20.154 0 36.546-16.392 36.546-36.546V197.19h9.006v10.188c0 25.118-20.435 45.552-45.552 45.552m-124.339-33.093 9.657 11.768c9.557 11.648 23.677 18.323 38.737 18.323h75.955c23.456 0 42.55-19.084 42.55-42.55v-7.185h-3.002v7.185c0 21.805-17.743 39.548-39.548 39.548H252.98c-14.16 0-27.429-6.275-36.416-17.232l-9.656-11.769-2.322 1.902z"/><path fill="#191917" d="M366.501 185.922h-2.742a1.12 1.12 0 0 0-1.121 1.121v10.477l-3.062 6.995h2.652l3.102-7.065h9.227"/><path fill="#EBEBEB" d="M362.228 206.026h-2.652c-.51 0-.98-.26-1.261-.68s-.32-.961-.12-1.421l2.932-6.715v-10.167a2.625 2.625 0 0 1 2.622-2.622h2.742a1.5 1.5 0 0 1 1.501 1.501c0 .831-.67 1.501-1.501 1.501h-2.361v9.117a1.51 1.51 0 0 1 1.19-.581h9.227a1.5 1.5 0 0 1 1.501 1.501c0 .831-.67 1.501-1.501 1.501h-8.246l-2.702 6.165c-.24.55-.78.9-1.371.9"/><path fill="#191917" d="M374.677 186.883v16.111a.96.96 0 0 1-.96.961h-7.506a.96.96 0 0 1-.961-.961v-16.111c0-.531.431-.961.961-.961h7.506c.53 0 .96.43.96.961"/><path fill="#EBEBEB" d="M373.717 205.456h-7.506a2.467 2.467 0 0 1-2.462-2.462v-16.111a2.467 2.467 0 0 1 2.462-2.462h7.506a2.467 2.467 0 0 1 2.461 2.462v16.111a2.467 2.467 0 0 1-2.461 2.462m-6.955-3.002h6.414v-15.021h-6.414z"/><path fill="#191917" d="M368.233 186.242v5.214h3.472v-5.214"/><path fill="#EBEBEB" d="M371.705 192.457h-3.472a1.004 1.004 0 0 1-1.001-1.001v-5.214c0-.55.45-1.001 1.001-1.001s1 .451 1 1.001v4.213h1.471v-4.213c0-.55.451-1.001 1.001-1.001s1.001.451 1.001 1.001v5.214c0 .55-.451 1.001-1.001 1.001"/><path fill="#191917" d="m199.372 205.646 2.152-1.811c.49-.41 1.211-.35 1.621.14l6.915 8.226 7.025 3.472-2.082 1.752-7.095-3.503-7.245 6.085"/><path fill="#EBEBEB" d="M200.673 221.508c-.43 0-.851-.18-1.151-.531-.53-.63-.45-1.581.18-2.111l7.246-6.084c.39-.331.92-.431 1.401-.291l-6.115-7.275-1.881 1.581a1.503 1.503 0 0 1-2.112-.18c-.53-.63-.45-1.581.18-2.111l2.152-1.812a2.66 2.66 0 0 1 3.743.321L211.03 211l6.735 3.333c.451.22.761.66.821 1.171.06.5-.14 1-.521 1.33l-2.081 1.752c-.46.38-1.101.46-1.631.2l-6.215-3.062-6.494 5.454c-.28.24-.621.35-.961.35z"/><path fill="#191917" d="m193.598 211.781 10.628 12.649c.35.411.97.471 1.381.12l5.884-4.953c.41-.35.47-.971.12-1.381l-3.753-4.463-6.885-8.186a.983.983 0 0 0-1.381-.12l-5.884 4.953a.983.983 0 0 0-.12 1.381z"/><path fill="#EBEBEB" d="M204.976 226.281c-.71 0-1.411-.3-1.901-.88l-10.628-12.649a2.487 2.487 0 0 1 .3-3.493l5.885-4.953a2.44 2.44 0 0 1 1.811-.571 2.45 2.45 0 0 1 1.681.881l10.628 12.649c.43.51.63 1.151.57 1.811a2.5 2.5 0 0 1-.881 1.691l-5.884 4.944a2.46 2.46 0 0 1-1.591.58zm-9.897-15.06 9.957 11.848 5.094-4.283-9.957-11.848z"/><path fill="#191917" d="m198.231 207.037 3.433 4.083-2.722 2.292-3.433-4.093"/><path fill="#EBEBEB" d="M198.942 214.413a.99.99 0 0 1-.771-.361l-3.442-4.093c-.36-.42-.3-1.05.12-1.411a1.01 1.01 0 0 1 1.411.121l2.792 3.322 1.191-1.001-2.792-3.322a1 1 0 0 1 .12-1.411 1.01 1.01 0 0 1 1.411.12l3.442 4.093a1 1 0 0 1-.12 1.411l-2.722 2.291a.98.98 0 0 1-.64.231z"/></svg>