<svg xmlns="http://www.w3.org/2000/svg" width="670" height="305" fill="none" viewBox="0 0 670 305"><path fill="#FFFBE8" d="M165.185 3.783a10 10 0 0 0-6.346-2.282H23.022a9.93 9.93 0 0 0-6.346 2.282L4.875 15.274A11.14 11.14 0 0 0 1.5 23.272v206.844a7.403 7.403 0 0 0 7.407 7.407h164.055a7.403 7.403 0 0 0 7.407-7.407V23.272c0-3.013-1.222-5.896-3.374-7.998l-11.801-11.49z"/><path fill="#000" d="M172.953 239.025H8.908c-4.914 0-8.908-3.994-8.908-8.909V23.272c0-3.393 1.391-6.706 3.824-9.069l11.8-11.49s.06-.06.09-.08A11.5 11.5 0 0 1 23.023.01H158.84c2.663 0 5.255.93 7.307 2.622.03.03.06.05.09.08l11.801 11.491a12.73 12.73 0 0 1 3.824 9.069v206.844c0 4.915-3.994 8.909-8.908 8.909M17.677 4.905 5.926 16.345a9.73 9.73 0 0 0-2.923 6.917v206.844a5.917 5.917 0 0 0 5.905 5.906h164.055c3.253 0 5.905-2.653 5.905-5.906V23.272a9.67 9.67 0 0 0-2.923-6.917l-11.751-11.44a8.53 8.53 0 0 0-5.345-1.902H23.022a8.45 8.45 0 0 0-5.345 1.902z"/><path fill="#000" d="M180.36 83.959H1.501A1.5 1.5 0 0 1 0 82.457a1.5 1.5 0 0 1 1.501-1.501H180.36a1.5 1.5 0 0 1 1.501 1.501 1.5 1.5 0 0 1-1.501 1.502"/><path fill="#000" d="M179.669 22.501H2.192A1.5 1.5 0 0 1 .691 21a1.5 1.5 0 0 1 1.501-1.502h177.477c.831 0 1.501.67 1.501 1.502a1.5 1.5 0 0 1-1.501 1.501"/><path fill="#000" d="M49.497 50.067h-4.465v-1.521q0-.538.18-.881.18-.345.481-.51c.2-.11.43-.17.68-.17s.461.05.671.16q.3.165.48.51c.12.23.18.53.18.89v.891h1.792v.641zm-2.323-.64v-.861c0-.33-.07-.57-.22-.721a.8.8 0 0 0-.58-.21q-.39 0-.601.21t-.21.72v.861z"/><path fill="#000" d="M49.747 50.317h-4.965v-1.771q0-.6.21-.991c.14-.27.34-.48.58-.61a1.72 1.72 0 0 1 1.592 0c.24.13.44.34.59.61.141.27.211.6.211 1v.641h1.792v1.141zm-4.464-.5h3.963v-.14h-1.791v-1.142c0-.32-.05-.58-.15-.77a.87.87 0 0 0-.38-.4 1.24 1.24 0 0 0-1.112 0 .95.95 0 0 0-.38.41c-.1.19-.15.45-.15.76zm2.142-.14h-2.112v-1.111c0-.41.09-.701.28-.891s.45-.29.78-.29c.31 0 .561.1.761.28q.3.285.3.9v1.112zm-1.612-.5h1.111v-.611c0-.26-.05-.45-.14-.54-.21-.201-.65-.181-.83 0-.09.09-.14.28-.14.54z"/><path fill="#000" d="M49.577 44.292c0 .43-.1.81-.29 1.13-.19.321-.461.581-.812.761-.35.18-.75.28-1.21.28-.461 0-.851-.09-1.202-.28a2.05 2.05 0 0 1-.81-.76c-.2-.33-.29-.701-.29-1.131s.1-.821.29-1.151q.3-.493.81-.761.526-.27 1.201-.27c.45 0 .861.09 1.211.27s.621.43.811.76.29.711.29 1.152m-.571-.01c0-.31-.07-.57-.21-.801a1.35 1.35 0 0 0-.6-.53 2.2 2.2 0 0 0-.932-.19c-.36 0-.67.06-.93.19-.26.12-.46.3-.601.53s-.21.5-.21.8.07.571.21.801q.21.345.6.54c.26.131.571.191.931.191s.671-.06.931-.19q.39-.195.6-.54c.14-.23.211-.501.211-.801"/><path fill="#000" d="M47.264 46.714c-.49 0-.94-.1-1.32-.31a2.3 2.3 0 0 1-.912-.861c-.22-.36-.33-.79-.33-1.261s.11-.911.33-1.272c.22-.37.53-.65.911-.86.77-.4 1.882-.39 2.643 0 .39.2.69.49.91.86.22.36.32.791.32 1.272 0 .48-.11.9-.32 1.26-.22.361-.52.651-.91.862-.38.2-.831.31-1.332.31zm0-4.354c-.41 0-.78.08-1.09.24s-.541.38-.711.67-.26.631-.26 1.022c0 .39.09.72.26 1q.255.433.72.671c.62.33 1.562.33 2.172 0 .31-.17.54-.38.711-.67.17-.28.25-.621.25-1.001s-.09-.731-.26-1.021-.4-.51-.71-.671a2.4 2.4 0 0 0-1.092-.24zm0 3.703c-.4 0-.75-.07-1.04-.22-.3-.15-.541-.36-.701-.63q-.24-.406-.24-.931 0-.526.24-.931c.16-.27.4-.48.7-.63.58-.281 1.492-.281 2.082 0 .3.15.54.36.701.63s.25.58.25.93-.08.661-.25.931c-.16.27-.4.481-.7.631-.29.14-.641.22-1.042.22m0-3.053c-.32 0-.6.05-.82.16-.22.1-.38.25-.49.441-.121.19-.171.41-.171.67s.06.481.17.671.27.33.49.44c.451.22 1.202.22 1.642 0 .22-.11.38-.25.5-.44s.17-.41.17-.67-.06-.48-.17-.671a1.23 1.23 0 0 0-.49-.44c-.22-.11-.5-.16-.82-.16z"/><path fill="#000" d="m49.497 40.598-4.465 1.211v-.68l3.714-.901-3.714-1.041v-.71l3.734-1.012-3.734-.92v-.681l4.465 1.231v.75l-3.554 1.002 3.553 1.03v.731z"/><path fill="#000" d="M44.782 42.14v-1.202l2.983-.72-2.983-.83v-1.092l2.983-.8-2.983-.731v-1.212l4.965 1.372v1.12l-2.893.812 2.893.84v1.111l-4.965 1.352zm.5-.811v.16l3.964-1.071v-.05zm0-2.332 3.964 1.11v-.04l-3.963-1.15zm0-.33v.1l3.964-1.122v-.06l-3.963 1.071zm0-2.313 3.964.971v-.04l-3.963-1.09z"/><path fill="#000" d="M49.497 35.233h-4.465v-2.822h.52v2.182h1.432V32.6h.51v1.992h1.482V32.41h.52z"/><path fill="#000" d="M49.747 35.483h-4.965V32.16h1.021v2.182h.93V32.35h1.012v1.992h.98V32.16h1.022zm-4.464-.5h3.963l-.02-2.322v2.182h-3.913l-.02-2.182v2.322z"/><path fill="#000" d="M49.497 31.6h-4.465v-1.512q0-.525.18-.87c.12-.22.28-.39.471-.501s.42-.16.67-.16c.24 0 .461.05.661.16q.3.165.48.51c.12.23.18.521.18.881v.851h1.813v.64zm-2.293-.64v-.832c0-.31-.08-.55-.23-.69a.85.85 0 0 0-.6-.22c-.25 0-.44.07-.591.22-.14.14-.22.38-.22.7v.831h1.631zm2.292-1.713-1.981.961v-.7l1.981-1.001z"/><path fill="#000" d="M49.747 31.85h-4.965v-1.762c0-.39.07-.72.21-.98.14-.27.34-.471.58-.601a1.71 1.71 0 0 1 1.572 0c.25.13.44.34.59.61v.01l2.013-1.02v1.3l-1.812.881v.42h1.812zm-4.464-.5h3.963v-.14h-3.933v-1.082c0-.39.1-.69.29-.88.38-.38 1.12-.39 1.531 0q.075.06.12.15l.02-.05a.87.87 0 0 0-.38-.4 1.16 1.16 0 0 0-1.09 0 .85.85 0 0 0-.371.4q-.15.285-.15.75v1.261zm.54-.641h1.131v-.58c0-.24-.05-.421-.16-.511-.22-.21-.64-.2-.83-.01-.09.09-.14.27-.14.52zm2.072-1.111s.02.09.02.14l1.331-.65v-.18l-1.351.68z"/><path fill="#000" d="M69.836 66.282H65.37v-1.651q0-.465.15-.78c.1-.211.24-.361.411-.471.17-.1.37-.16.58-.16s.411.05.571.15c.15.1.27.23.35.39s.13.33.14.51l-.06-.09c0-.2.06-.37.16-.54s.23-.29.401-.38a1.18 1.18 0 0 1 1.171.03c.18.11.33.27.44.49s.16.48.16.8v1.702zm-2.533-.64V64.7c0-.27-.06-.47-.19-.61a.67.67 0 0 0-.52-.21.65.65 0 0 0-.51.21q-.193.21-.191.63v.92h1.411m2.002 0v-.981c0-.28-.06-.5-.19-.65s-.31-.231-.55-.231-.42.08-.561.24q-.21.24-.21.66v.972h1.521z"/><path fill="#000" d="M70.086 66.533h-4.965V64.63c0-.35.06-.64.17-.891.12-.25.29-.44.5-.57.431-.26 1.042-.25 1.412 0 .12.08.22.16.3.27.11-.16.26-.29.43-.38a1.47 1.47 0 0 1 1.422.03c.23.14.41.34.53.6.12.25.181.56.181.91v1.953zm-4.464-.5h3.963V64.58c0-.27-.04-.51-.13-.69a1 1 0 0 0-.34-.391.94.94 0 0 0-.92-.02.76.76 0 0 0-.301.29c.18-.16.4-.24.67-.24.31 0 .561.11.741.32.17.2.25.47.25.81v1.232h-3.913V64.72c0-.34.08-.61.25-.8.32-.351.92-.381 1.281-.11a.7.7 0 0 0-.23-.221c-.22-.14-.61-.15-.89.01-.13.08-.231.2-.311.36-.08.17-.13.4-.13.67v1.402zm2.422-.642h1.021v-.73c0-.22-.05-.38-.14-.49-.05-.06-.14-.14-.36-.14-.16 0-.28.05-.37.15-.1.11-.15.28-.15.5v.72zm-1.902 0h.901v-.69q0-.3-.12-.45a.43.43 0 0 0-.33-.13c-.14 0-.24.04-.32.13s-.12.25-.12.46v.67z"/><path fill="#000" d="M69.836 62.369H65.37v-1.512q0-.525.18-.87c.12-.22.281-.391.471-.501s.42-.16.67-.16c.241 0 .461.05.661.16q.3.165.48.51c.121.23.181.52.181.881v.851h1.812v.64zm-2.292-.641v-.83c0-.311-.08-.551-.23-.691a.85.85 0 0 0-.601-.22c-.25 0-.44.07-.59.22-.14.14-.221.38-.221.7v.831h1.632zm2.292-1.712-1.982.961v-.7l1.982-1.001z"/><path fill="#000" d="M70.086 62.619h-4.965v-1.762c0-.39.07-.72.21-.98.14-.271.34-.471.581-.601a1.71 1.71 0 0 1 1.572 0c.25.13.44.34.59.61v.01l2.012-1.02v1.3l-1.812.881v.42h1.812zm-4.464-.5h3.963v-.14h-3.933v-1.082c0-.39.1-.69.29-.88.38-.381 1.121-.391 1.532 0q.075.06.12.15l.02-.05a.87.87 0 0 0-.38-.4 1.17 1.17 0 0 0-1.092 0c-.15.08-.28.21-.37.4q-.15.285-.15.75v1.261zm.54-.641h1.131v-.58c0-.241-.05-.421-.16-.511-.22-.21-.64-.2-.83-.01-.09.09-.14.27-.14.52zm2.072-1.111s.02.09.02.14l1.331-.65v-.18l-1.35.68z"/><path fill="#000" d="M69.916 56.493c0 .43-.1.81-.29 1.131s-.461.58-.811.76-.751.281-1.211.281-.851-.09-1.202-.28a2.05 2.05 0 0 1-.81-.76c-.2-.331-.29-.702-.29-1.132s.1-.82.29-1.15c.2-.331.47-.582.81-.762q.525-.27 1.202-.27c.45 0 .86.09 1.21.27.351.18.621.43.812.761.19.33.29.71.29 1.151m-.57-.01c0-.31-.07-.57-.211-.8a1.35 1.35 0 0 0-.6-.531c-.26-.12-.571-.19-.931-.19s-.671.06-.931.19c-.26.12-.46.3-.6.53-.141.23-.211.5-.211.801 0 .3.07.57.21.8q.21.346.6.541c.26.13.571.19.932.19.36 0 .67-.06.93-.19q.39-.195.601-.54c.14-.23.21-.5.21-.8"/><path fill="#000" d="M67.604 58.916c-.49 0-.941-.1-1.322-.31a2.3 2.3 0 0 1-.91-.862c-.22-.36-.33-.79-.33-1.26 0-.471.11-.912.33-1.272.22-.37.53-.65.91-.86.771-.401 1.882-.391 2.643 0 .39.2.69.49.91.86.22.36.321.79.321 1.271s-.11.901-.32 1.261c-.22.36-.52.651-.911.861-.38.2-.831.31-1.331.31zm0-4.355c-.41 0-.781.08-1.091.24s-.541.38-.711.671c-.17.29-.26.63-.26 1.021s.09.72.26 1.001c.17.29.41.51.72.67.621.331 1.562.331 2.173 0 .31-.17.54-.38.71-.67.17-.28.25-.62.25-1 0-.381-.09-.731-.26-1.022-.17-.29-.4-.51-.71-.67s-.681-.24-1.091-.24zm0 3.704c-.4 0-.751-.07-1.041-.22-.3-.15-.54-.36-.701-.631q-.24-.405-.24-.93 0-.527.24-.932c.16-.27.4-.48.7-.63.581-.28 1.492-.28 2.082 0 .3.15.541.36.701.63s.25.58.25.931c0 .35-.08.66-.25.931-.16.27-.4.48-.7.63-.29.14-.641.22-1.041.22m0-3.053c-.32 0-.601.05-.821.16-.22.1-.38.25-.49.44-.12.19-.17.41-.17.671 0 .26.06.48.17.67s.27.331.49.441c.45.22 1.2.22 1.641 0 .22-.11.38-.25.5-.44s.171-.41.171-.67-.06-.481-.17-.672a1.23 1.23 0 0 0-.49-.44c-.22-.11-.501-.16-.821-.16z"/><path fill="#000" d="M69.836 54.14 65.37 52.5v-.691l4.465-1.642v.68l-3.704 1.312 3.704 1.311zm-1.101-.74-.51-.18v-2.102l.51-.18z"/><path fill="#000" d="m70.086 54.501-4.965-1.821v-1.041l4.965-1.822v1.221l-1.101.39v1.482l1.101.39zm-1.101-.94.6.22v-.13l-.6-.21v.13zm-3.363-1.232 2.352.861v-.11l-2.352-.83v.09zm1.271-.17 1.081.39v-.77zm-1.271-.18v.09l2.352-.83v-.12zm3.363-1.231v.14l.6-.21v-.15z"/><path fill="#000" d="M69.836 49.527H65.37v-1.372q0-.78.27-1.291c.181-.34.441-.59.771-.75s.731-.25 1.192-.25.85.08 1.19.25q.498.24.772.75.27.51.27 1.291zm-.53-.631v-.71c0-.411-.07-.741-.201-.982-.13-.24-.33-.42-.58-.52s-.551-.16-.901-.16-.661.05-.911.16c-.25.1-.45.28-.59.52s-.201.57-.201.981v.71h3.393z"/><path fill="#000" d="M70.086 49.777h-4.965v-1.622q0-.84.3-1.411c.21-.39.511-.68.881-.86.731-.361 1.872-.361 2.593 0 .38.19.67.47.88.86.2.37.301.85.301 1.411v1.622zm-4.464-.5h3.963v-1.122q0-.72-.24-1.17a1.48 1.48 0 0 0-.66-.651c-.59-.29-1.562-.29-2.152 0-.29.14-.51.35-.661.65q-.24.45-.24 1.171v1.121zm3.933-.13h-3.893v-.962c0-.45.08-.82.24-1.1.16-.291.4-.501.71-.631.571-.23 1.442-.23 2.003 0 .31.13.54.34.71.63.16.28.24.65.24 1.101v.961zm-3.393-.501h2.893v-.46c0-.371-.06-.661-.17-.861a.92.92 0 0 0-.46-.41c-.441-.181-1.182-.181-1.622 0-.2.08-.35.22-.46.41-.11.2-.17.49-.17.86v.46z"/><path fill="#000" d="M69.836 45.102H65.37v-1.651q0-.465.15-.78c.1-.211.24-.361.411-.471.17-.1.37-.16.58-.16s.411.05.571.15c.15.1.27.23.35.39s.13.33.14.51l-.06-.09c0-.2.06-.37.16-.54s.23-.29.401-.38a1.18 1.18 0 0 1 1.171.03c.18.11.33.27.44.49s.16.48.16.8v1.702zm-2.533-.64v-.941c0-.27-.06-.47-.19-.61a.67.67 0 0 0-.52-.21.65.65 0 0 0-.51.21q-.193.21-.191.63v.92h1.411m2.002 0v-.981c0-.28-.06-.5-.19-.65s-.31-.23-.55-.23-.42.08-.561.24q-.21.24-.21.66v.97h1.521z"/><path fill="#000" d="M70.086 45.353h-4.965V43.45c0-.35.06-.64.17-.891.12-.25.29-.44.5-.57.431-.26 1.042-.25 1.412 0 .12.08.22.16.3.27.11-.16.26-.29.43-.38a1.47 1.47 0 0 1 1.422.03c.23.14.41.34.53.6.12.25.181.56.181.91v1.953zm-4.464-.5h3.963V43.4c0-.27-.04-.51-.13-.69a1 1 0 0 0-.34-.391.94.94 0 0 0-.92-.02.76.76 0 0 0-.301.29c.18-.16.4-.24.67-.24.31 0 .561.11.741.32.17.2.25.47.25.81v1.232h-3.913V43.54c0-.34.08-.61.25-.8.32-.351.92-.381 1.281-.11a.7.7 0 0 0-.23-.221c-.22-.14-.61-.15-.89.01-.13.08-.231.2-.311.36-.08.17-.13.4-.13.67v1.402zm2.422-.641h1.021v-.731c0-.22-.05-.38-.14-.49-.05-.06-.14-.14-.36-.14-.16 0-.28.05-.37.15-.1.11-.15.28-.15.5v.72zm-1.902 0h.901v-.691q0-.3-.12-.45a.43.43 0 0 0-.33-.13c-.14 0-.24.04-.32.13s-.12.25-.12.46v.67z"/><path fill="#000" d="m69.836 41.54-4.465-1.642v-.691l4.465-1.642v.681l-3.704 1.311 3.704 1.311zm-1.101-.742-.51-.18v-2.102l.51-.18z"/><path fill="#000" d="m70.086 41.9-4.965-1.822v-1.041l4.965-1.822v1.221l-1.101.39v1.482l1.101.39zm-1.101-.941.6.22v-.13l-.6-.21v.13zm-3.363-1.232 2.352.861v-.11l-2.352-.83v.09zm1.271-.17 1.081.39v-.77zm-1.271-.18v.09l2.352-.83v-.12zm3.363-1.231v.14l.6-.21v-.15z"/><path fill="#000" d="M69.836 36.925H65.37v-.64l3.424-2.273H65.37v-.64h4.465v.64l-3.424 2.272h3.424z"/><path fill="#000" d="M70.086 37.175h-4.965v-1.021l2.843-1.892h-2.843v-1.14h4.965v1.02l-2.843 1.892h2.843zm-4.464-.5h3.963v-.14h-3.963zm0-.25v.1l3.963-2.643v-.09zm0-2.663h3.963v-.14h-3.963z"/><path fill="#000" d="M69.836 32.44H65.37v-1.37q0-.782.27-1.292c.181-.34.441-.59.771-.75s.731-.25 1.192-.25.85.08 1.19.25q.498.24.772.75.27.51.27 1.291zm-.53-.63v-.71c0-.411-.07-.741-.201-.982-.13-.24-.33-.42-.58-.52s-.551-.16-.901-.16-.661.05-.911.16c-.25.1-.45.28-.59.52s-.201.57-.201.981v.71h3.393z"/><path fill="#000" d="M70.086 32.69h-4.965v-1.62q0-.842.3-1.412c.21-.39.511-.68.881-.86.731-.361 1.872-.361 2.593 0 .38.19.67.47.88.86.2.37.301.85.301 1.411v1.622zm-4.464-.5h3.963v-1.12q0-.722-.24-1.172a1.48 1.48 0 0 0-.66-.65c-.59-.29-1.562-.29-2.152 0-.29.14-.51.35-.661.65q-.24.45-.24 1.171v1.121zm3.933-.13h-3.893v-.96c0-.451.08-.822.24-1.102.16-.29.4-.5.71-.63.571-.23 1.442-.23 2.003 0 .31.13.54.34.71.63.16.28.24.65.24 1.101v.961zm-3.393-.5h2.893v-.46c0-.371-.06-.661-.17-.862a.92.92 0 0 0-.46-.41c-.441-.18-1.182-.18-1.622 0-.2.08-.35.22-.46.41-.11.2-.17.49-.17.861v.46z"/><path fill="#000" d="M90.255 51.518c0 .33-.06.611-.18.861s-.28.44-.49.57c-.21.14-.461.2-.751.2v-.67c.16 0 .31-.04.44-.12a.85.85 0 0 0 .32-.33c.08-.15.12-.32.12-.53 0-.18-.03-.33-.09-.461a.7.7 0 0 0-.25-.3.6.6 0 0 0-.36-.1c-.16 0-.29.04-.39.11s-.19.17-.25.29c-.07.12-.121.26-.181.42-.05.16-.11.33-.17.5-.11.351-.26.621-.45.792-.19.17-.421.26-.711.26-.25 0-.47-.06-.65-.18s-.331-.29-.431-.5-.16-.471-.16-.761.05-.541.16-.761.25-.39.44-.51q.285-.18.66-.18v.68a.7.7 0 0 0-.61.36.87.87 0 0 0-.11.44c0 .14.02.27.07.39.05.121.13.201.22.271.1.06.21.1.35.1q.21 0 .331-.09c.08-.06.15-.14.21-.25s.11-.24.16-.38.1-.31.16-.49c.07-.221.16-.421.26-.592s.241-.31.401-.41q.24-.15.63-.15c.22 0 .431.06.621.17.19.12.35.29.47.51q.18.346.18.841z"/><path fill="#000" d="M88.844 53.41h-.25v-1.16h.24c.12 0 .23-.04.33-.09a.6.6 0 0 0 .22-.23c.06-.1.09-.24.09-.4 0-.14-.02-.26-.07-.361a.4.4 0 0 0-.16-.19.49.49 0 0 0-.47 0q-.105.075-.18.21c-.06.11-.11.23-.16.38-.05.16-.11.33-.17.5-.131.391-.301.692-.511.892-.23.22-.53.33-.881.33-.3 0-.56-.07-.791-.22-.22-.14-.4-.35-.52-.6a2 2 0 0 1-.18-.872q0-.495.18-.87c.13-.26.3-.46.53-.611s.5-.23.79-.23h.251v1.18h-.25c-.07 0-.15.02-.22.061s-.13.09-.17.17a.57.57 0 0 0-.07.31c0 .11.01.21.05.29.03.07.07.12.13.16.11.07.32.07.4.01.05-.04.1-.09.14-.17.05-.1.1-.21.15-.35l.16-.49c.08-.24.17-.45.29-.64.12-.21.29-.371.491-.491.38-.23 1.011-.27 1.501.02.23.14.42.34.561.61q.21.39.21.961c0 .38-.07.691-.2.971-.14.29-.33.51-.58.68-.25.161-.551.241-.881.241m.25-.7v.18c.13-.02.25-.07.36-.14.17-.11.31-.27.4-.47q.15-.316.15-.752c0-.29-.05-.54-.15-.72a.95.95 0 0 0-.38-.41c-.33-.2-.76-.16-.99-.02-.13.08-.231.19-.321.32q-.135.225-.24.54l-.16.49q-.075.24-.18.42a1.1 1.1 0 0 1-.29.341c-.251.17-.681.18-.962 0a.83.83 0 0 1-.31-.38c-.07-.15-.1-.32-.09-.5 0-.21.05-.401.14-.561s.22-.28.37-.36c.07-.04.14-.06.21-.08v-.18q-.15.03-.27.12a.94.94 0 0 0-.35.41c-.09.18-.13.4-.13.65s.04.47.13.651c.08.17.2.3.34.4.31.2.801.19 1.061-.05.15-.14.28-.37.38-.68.06-.18.11-.34.17-.5.05-.17.12-.331.191-.461.08-.15.19-.28.33-.38.27-.19.721-.21 1.031-.01.14.1.26.23.34.4.07.16.11.35.11.57 0 .25-.05.47-.15.651a1 1 0 0 1-.42.42c-.1.05-.2.09-.31.12z"/><path fill="#000" d="M90.175 49.236H85.71v-2.822h.52v2.182h1.432v-1.992h.51v1.992h1.481v-2.182h.52z"/><path fill="#000" d="M90.425 49.486H85.46v-3.323h1.022v2.182h.93v-1.992h1.011v1.992h.981v-2.182h1.021zm-4.464-.5h3.964l-.02-2.322v2.182H85.99l-.02-2.182v2.322z"/><path fill="#000" d="M90.175 45.593H85.71V44.08q0-.525.18-.87c.12-.22.28-.39.47-.5.19-.111.42-.161.671-.161.24 0 .46.05.66.16q.3.165.481.51.18.343.18.881v.851h1.812v.64zm-2.292-.63v-.831c0-.31-.08-.551-.23-.691a.85.85 0 0 0-.601-.22c-.25 0-.44.07-.59.22-.14.14-.22.38-.22.7v.831h1.63zm2.292-1.712-1.982.96v-.7l1.982-1.001z"/><path fill="#000" d="M90.425 45.843H85.46v-1.762c0-.39.07-.72.21-.98.14-.27.341-.471.581-.601a1.71 1.71 0 0 1 1.572 0c.25.13.44.34.59.61v.01l2.012-1.02v1.3l-1.811.882v.42h1.811zm-4.464-.5h3.964v-.14H85.99V44.12c0-.39.1-.69.29-.88.38-.38 1.121-.39 1.532 0q.075.06.12.15l.02-.05a.87.87 0 0 0-.38-.4 1.17 1.17 0 0 0-1.091 0c-.15.08-.28.21-.37.4q-.151.285-.151.75v1.262zm.54-.631h1.131v-.58c0-.24-.05-.42-.16-.511-.22-.21-.64-.2-.83-.01-.09.09-.14.27-.14.52zm2.072-1.111s.02.09.02.14l1.332-.65v-.18l-1.352.68z"/><path fill="#000" d="M90.175 40.588 85.71 42.25v-.691l3.803-1.351-3.803-1.362v-.67l4.464 1.661v.761z"/><path fill="#000" d="M85.46 42.6v-1.221l3.304-1.181-3.303-1.191v-1.212l4.964 1.842v1.111L85.46 42.59zm.501-.87v.15l3.964-1.472v-.09zm0-3.074 3.964 1.422v-.09l-3.964-1.472z"/><path fill="#000" d="M90.175 37.565H85.71v-.64h4.464z"/><path fill="#000" d="M90.425 37.816H85.46v-1.142h4.965zm-4.464-.501h3.964v-.14H85.96z"/><path fill="#000" d="M90.255 34.042c0 .44-.1.81-.29 1.131s-.46.56-.811.73c-.35.17-.75.26-1.211.26-.46 0-.861-.09-1.201-.26a1.9 1.9 0 0 1-.811-.73 2.16 2.16 0 0 1-.29-1.131c0-.52.13-.951.38-1.271s.6-.53 1.061-.62v.7q-.39.09-.63.39c-.16.2-.24.46-.24.8q0 .451.21.782.21.33.6.51t.93.18.932-.18.6-.51.21-.781c0-.34-.08-.6-.23-.8s-.36-.331-.61-.391v-.7c.44.09.79.3 1.04.62.25.33.37.75.37 1.27z"/><path fill="#000" d="M87.943 36.414c-.49 0-.931-.1-1.311-.28-.39-.19-.701-.47-.921-.83-.22-.351-.33-.782-.33-1.262 0-.58.14-1.061.43-1.421.29-.37.69-.611 1.21-.711l.301-.06v1.201l-.19.05c-.21.05-.37.15-.49.3s-.18.37-.18.641c0 .26.06.47.17.65s.28.32.49.421c.45.21 1.201.21 1.662 0 .22-.1.38-.23.49-.41s.17-.39.17-.651c0-.28-.06-.5-.17-.65a.83.83 0 0 0-.48-.3l-.19-.051V31.85l.3.06c.5.1.9.34 1.18.71.281.371.421.851.421 1.422 0 .48-.11.91-.33 1.261-.22.36-.52.63-.911.83-.38.191-.82.281-1.321.281m-1.121-3.943c-.25.09-.45.24-.61.45-.211.28-.321.66-.321 1.121 0 .39.09.73.25 1 .17.281.4.491.71.642.631.31 1.572.31 2.193 0 .31-.15.54-.36.71-.641.17-.27.25-.61.25-1.001 0-.46-.11-.84-.32-1.121a1.3 1.3 0 0 0-.59-.44v.19c.23.09.42.23.56.42.18.24.28.56.28.951 0 .35-.08.66-.25.92-.16.261-.4.461-.71.601-.59.27-1.492.27-2.072 0-.3-.14-.54-.34-.71-.6-.171-.26-.251-.57-.251-.921 0-.39.1-.71.29-.96.15-.191.35-.331.58-.421v-.19z"/><path fill="#000" d="M90.175 31.38H85.71v-2.823h.52v2.182h1.432v-1.992h.51v1.992h1.481v-2.182h.52z"/><path fill="#000" d="M90.425 31.63H85.46v-3.323h1.022v2.182h.93v-1.992h1.011v1.992h.981v-2.183h1.021zm-4.464-.5h3.964l-.02-2.323v2.182H85.99l-.02-2.182v2.322z"/><path fill="#000" d="M110.524 58.795h-4.464v-2.822h.52v2.182h1.432v-1.992h.51v1.992h1.481v-2.182h.521z"/><path fill="#000" d="M110.774 59.046h-4.965v-3.324h1.021v2.182h.931v-1.992h1.011v1.992h.981v-2.182h1.021zm-4.464-.501h3.964l-.02-2.322v2.182h-3.914l-.02-2.182v2.322z"/><path fill="#000" d="M110.524 54.11h-3.944v1.322h-.52V52.15h.52v1.331h3.944v.64z"/><path fill="#000" d="M106.83 55.682h-1.021V51.9h1.021v1.331h3.944v1.141h-3.944v1.321zm-.52-.5h.02V53.86h3.944v-.14h-3.944l-.02-1.332v2.793"/><path fill="#000" d="M110.524 48.666h-4.464v-.64h4.464zm0 2.832h-4.464v-.64h4.464zm-2.022-.53h-.52v-2.452h.52z"/><path fill="#000" d="M110.774 51.749h-4.965v-1.141h1.922v-1.702h-1.922v-1.141h4.965v1.141h-2.012v1.702h2.012zm-4.464-.5h3.964v-.141h-1.512v.11h-1.021v-.11h-1.421v.14zm1.922-.631h.02l-.02-1.702zm.52-2.203h1.512v-.14h-1.512zm-2.442 0h1.421v-.14h-1.421z"/><path fill="#000" d="M110.524 47.094h-4.464v-2.822h.52v2.182h1.432v-1.992h.51v1.992h1.481v-2.182h.521z"/><path fill="#000" d="M110.774 47.345h-4.965V44.02h1.021v2.182h.931v-1.991h1.011v1.991h.981V44.02h1.021zm-4.464-.501h3.964l-.02-2.322v2.182h-3.914l-.02-2.182v2.322z"/><path fill="#000" d="M110.524 43.45h-4.464v-1.51q0-.526.18-.871c.12-.22.28-.39.47-.5.19-.111.421-.161.671-.161.24 0 .46.05.661.16q.3.165.48.51.18.343.18.881v.851h1.812v.64zm-2.302-.64v-.83c0-.31-.08-.551-.23-.691a.85.85 0 0 0-.601-.22c-.25 0-.44.07-.591.22-.14.14-.22.38-.22.7v.831h1.632zm2.302-1.701-1.982.96v-.7l1.982-1.001z"/><path fill="#000" d="M110.774 43.701h-4.965v-1.762c0-.39.071-.72.211-.98.14-.27.34-.471.58-.601a1.71 1.71 0 0 1 1.572 0c.25.13.44.34.59.61v.01l2.012-1.02v1.3l-1.812.882v.42h1.812zm-4.464-.5h3.964v-.14h-3.934v-1.082c0-.39.1-.69.29-.88.381-.38 1.121-.39 1.532 0q.075.06.12.15l.02-.05a.87.87 0 0 0-.381-.4 1.17 1.17 0 0 0-1.091 0c-.15.08-.28.21-.37.4q-.15.285-.15.75v1.262zm.53-.641h1.132v-.58c0-.24-.051-.421-.161-.511-.22-.21-.64-.2-.83-.01-.091.09-.141.27-.141.52zm2.072-1.101s.02.09.02.14l1.332-.65v-.18l-1.352.68z"/><path fill="#000" d="M110.524 39.587h-4.464v-.64l3.423-2.273h-3.423v-.64h4.464v.64l-3.423 2.273h3.423z"/><path fill="#000" d="M110.774 39.837h-4.965v-1.02l2.843-1.892h-2.843v-1.142h4.965v1.021l-2.843 1.892h2.843zm-4.464-.5h3.964v-.14h-3.964zm0-.25v.1l3.964-2.643v-.09zm0-2.663h3.964v-.14h-3.964z"/><path fill="#000" d="M110.524 35.103h-4.464V32.28h.52v2.182h1.432V32.47h.51v1.992h1.481V32.28h.521z"/><path fill="#000" d="M110.774 35.353h-4.965V32.03h1.021v2.182h.931V32.22h1.011v1.992h.981V32.03h1.021zm-4.464-.5h3.964l-.02-2.322v2.182h-3.914l-.02-2.182v2.322z"/><path fill="#000" d="M110.524 30.419h-3.944v1.32h-.52v-3.282h.52v1.33h3.944v.642z"/><path fill="#000" d="M106.83 31.99h-1.021v-3.783h1.021v1.33h3.944v1.142h-3.944V32zm-.52-.5h.02v-1.322h3.944v-.14h-3.944l-.02-1.331z"/><path fill="#FFFBE8" d="M391.648 279.723H111.895c-3.553 0-20.62-.56-26.184-1.742-17.547-3.723-30.099-18.597-30.85-36.364-.01-.35-.02-60.096-.03-60.447l7.127-.12c0 .351.02 60.107.03 60.457.701 14.424 10.92 26.475 25.194 29.508 4.664.991 21.14 1.581 24.703 1.581h279.743c3.774 0 20.72-.61 26.155-1.681 14.534-2.863 24.993-15.275 25.424-30.189v-.31l7.137.2v.311c-.541 18.257-13.363 33.461-31.18 36.974-6.266 1.232-23.912 1.822-27.536 1.822z"/><path fill="#000" d="M391.648 281.224H111.895c-3.593 0-20.82-.57-26.495-1.771-18.087-3.834-31.259-19.368-32.03-37.776 0-.19-.01-9.349-.02-40.818v-21.17l10.11-.17.02 1.501v18.347c0 16.516.01 41.479.02 42.09.66 13.653 10.53 25.214 24.002 28.076 4.485.951 20.98 1.552 24.393 1.552h279.743c3.744 0 20.52-.601 25.865-1.662 13.843-2.732 23.802-14.553 24.212-28.757l.051-1.811 10.129.29-.05 1.812c-.551 18.957-13.873 34.752-32.38 38.406-6.356 1.251-24.173 1.851-27.827 1.851zM56.343 182.652v18.217c0 16.946.01 40.148.02 40.728.72 17.006 12.912 31.38 29.658 34.933 5.465 1.161 22.341 1.702 25.874 1.702h279.743c3.594 0 21.08-.581 27.246-1.792 16.746-3.303 28.897-17.336 29.908-34.352l-4.124-.12c-.961 15.074-11.741 27.495-26.585 30.428-5.525 1.091-22.651 1.712-26.445 1.712H111.895c-3.723 0-20.159-.591-25.013-1.622-14.804-3.143-25.654-15.845-26.385-30.899 0-.2-.02-9.669-.03-42.199v-16.806z"/><path fill="#FFFBE8" d="M62.929 169.329h3.683c.831 0 1.512.681 1.512 1.512v14.073l4.114 9.399h-3.564l-4.164-9.489H52.12"/><path fill="#000" d="M72.238 195.814h-3.564c-.6 0-1.13-.35-1.37-.901l-3.764-8.588H52.129a1.5 1.5 0 0 1-1.502-1.501 1.5 1.5 0 0 1 1.502-1.502H64.52c.6 0 1.13.351 1.37.901l3.764 8.588h.29l-3.192-7.297a1.5 1.5 0 0 1-.13-.6v-14.073h-3.694a1.5 1.5 0 0 1-1.501-1.502c0-.831.67-1.501 1.501-1.501h3.683a3.016 3.016 0 0 1 3.013 3.013v13.763l3.984 9.108c.2.461.16 1.001-.12 1.421s-.75.681-1.261.681z"/><path fill="#FFB921" d="M51.959 170.61v21.641c0 .71.57 1.281 1.281 1.281h10.07c.71 0 1.28-.571 1.28-1.281V170.61c0-.71-.57-1.281-1.28-1.281H53.24c-.71 0-1.281.571-1.281 1.281"/><path fill="#000" d="M63.32 195.043H53.25a2.783 2.783 0 0 1-2.783-2.782V170.62a2.783 2.783 0 0 1 2.783-2.782h10.07a2.783 2.783 0 0 1 2.782 2.782v21.641a2.783 2.783 0 0 1-2.783 2.782m-9.86-3.002h9.64v-21.21h-9.64z"/><path fill="#FFFBE8" d="M60.607 169.76v6.996h-4.654v-6.996"/><path fill="#000" d="M60.617 177.757h-4.664c-.551 0-1.001-.45-1.001-1.001v-6.996c0-.551.45-1.001 1-1.001.551 0 1.002.45 1.002 1.001v5.995h2.662v-5.995c0-.551.45-1.001 1-1.001.551 0 1.002.45 1.002 1.001v6.996c0 .27-.11.521-.29.711a1 1 0 0 1-.711.29"/><path fill="#FFFBE8" d="M659.59 138.72h-82.217a8.9 8.9 0 0 0-8.898 8.899v80.876a8.9 8.9 0 0 0 8.898 8.898h82.217a8.9 8.9 0 0 0 8.899-8.898v-80.876a8.9 8.9 0 0 0-8.899-8.899"/><path fill="#000" d="M659.6 238.895h-82.227c-5.735 0-10.4-4.665-10.4-10.4v-80.876c0-5.736 4.665-10.4 10.4-10.4H659.6c5.736 0 10.4 4.664 10.4 10.4v80.876c0 5.735-4.664 10.4-10.4 10.4m-82.227-98.673c-4.074 0-7.397 3.313-7.397 7.397v80.876c0 4.074 3.313 7.397 7.397 7.397H659.6c4.074 0 7.397-3.313 7.397-7.397v-80.876c0-4.074-3.313-7.397-7.397-7.397z"/><path fill="#FFFBE8" d="M263.358 226.073h-8.328a.68.68 0 0 0-.681.68v15.645c0 .376.305.681.681.681h8.328a.68.68 0 0 0 .68-.681v-15.645a.68.68 0 0 0-.68-.68"/><path fill="#000" d="M263.358 244.58h-8.328a2.187 2.187 0 0 1-2.182-2.182v-15.645c0-1.201.981-2.182 2.182-2.182h8.328c1.201 0 2.182.981 2.182 2.182v15.645a2.187 2.187 0 0 1-2.182 2.182m-7.508-3.003h6.687v-14.003h-6.687z"/><path fill="#FFFBE8" d="M502.342 1.511H253.919c-15.341 0-27.776 12.436-27.776 27.777v180.459c0 15.341 12.435 27.776 27.776 27.776h248.423c15.341 0 27.777-12.435 27.777-27.776V29.287c0-15.34-12.436-27.776-27.777-27.776"/><path fill="#000" d="M502.342 239.025H253.909c-16.145 0-29.278-13.133-29.278-29.278V29.277C224.631 13.133 237.764 0 253.909 0h248.433c16.146 0 29.278 13.132 29.278 29.278v180.459c0 16.145-13.132 29.278-29.278 29.278zM253.919 3.013c-14.484 0-26.275 11.78-26.275 26.275v180.459c0 14.484 11.781 26.275 26.275 26.275h248.433c14.484 0 26.275-11.781 26.275-26.275V29.277c0-14.483-11.781-26.274-26.275-26.274H253.919z"/><path fill="#FFFBE8" d="M499.97 178.658H258.123c-7.729 0-13.993 6.265-13.993 13.993v19.428c0 7.729 6.264 13.994 13.993 13.994H499.97c7.728 0 13.993-6.265 13.993-13.994v-19.428c0-7.728-6.265-13.993-13.993-13.993"/><path fill="#000" d="M499.97 227.574H258.123c-8.538 0-15.495-6.947-15.495-15.495v-19.438c0-8.538 6.947-15.494 15.495-15.494H499.97c8.538 0 15.495 6.946 15.495 15.494v19.438c0 8.538-6.947 15.495-15.495 15.495m-241.847-47.415c-6.887 0-12.492 5.606-12.492 12.492v19.438c0 6.887 5.605 12.492 12.492 12.492H499.97c6.887 0 12.492-5.605 12.492-12.492v-19.438c0-6.886-5.605-12.492-12.492-12.492z"/><path fill="#EE6DBB" d="M455.298 201.209h-1.992v-3.713h-4.604v-2.342h-5.195v2.342h-4.504v3.713h-1.962v3.654h1.962v3.293h14.303v-3.293h1.992z"/><path fill="#000" d="M453.306 209.657h-14.303a1.5 1.5 0 0 1-1.502-1.501v-1.792h-.46a1.5 1.5 0 0 1-1.501-1.501v-3.654c0-.831.67-1.501 1.501-1.501h.46v-2.212a1.5 1.5 0 0 1 1.502-1.502h3.003v-.851a1.5 1.5 0 0 1 1.501-1.501h5.195a1.5 1.5 0 0 1 1.501 1.501v.851h3.103a1.5 1.5 0 0 1 1.502 1.502v2.212h.48c.831 0 1.501.67 1.501 1.501v3.654a1.5 1.5 0 0 1-1.501 1.501h-.48v1.792a1.5 1.5 0 0 1-1.502 1.501m-12.802-3.003h11.301v-1.791a1.5 1.5 0 0 1 1.501-1.502h.481v-.65h-.481a1.5 1.5 0 0 1-1.501-1.502v-2.212h-3.103a1.5 1.5 0 0 1-1.502-1.501v-.851h-2.192v.851a1.5 1.5 0 0 1-1.501 1.501h-3.003v2.212a1.5 1.5 0 0 1-1.501 1.502h-.461v.65h.461a1.5 1.5 0 0 1 1.501 1.502z"/><path fill="#FFFBE8" d="M433.858 201.209h-1.982v-3.713h-4.604v-2.342h-5.195v2.342h-4.504v3.713h-1.962v3.654h1.962v3.293h14.303v-3.293h1.982z"/><path fill="#000" d="M433.378 209.657h-17.307v-3.293h-1.962v-6.656h1.962v-3.714h4.505v-2.352h8.197v2.352h4.605v3.714h1.981v6.656h-1.981zm-14.304-3.003h11.301v-3.293h1.982v-.65h-1.982v-3.714h-4.605v-2.352h-2.192v2.352h-4.504v3.714h-1.962v.65h1.962z"/><path fill="#FFFBE8" d="M296.619 208.166h14.303v-10.66h-14.303z"/><path fill="#000" d="M312.424 209.657h-17.307v-13.663h17.307zm-14.304-3.003h11.301v-7.657H298.12z"/><path fill="#FFFBE8" d="M294.667 204.863h18.247v-3.654h-18.247z"/><path fill="#000" d="M314.406 206.364h-21.25v-6.656h21.25zm-18.248-3.003h15.245v-.65h-15.245z"/><path fill="#FFFBE8" d="M306.318 208.156v-13.002h-5.195v13.002z"/><path fill="#000" d="M307.819 209.657h-8.197v-16.005h8.197zm-5.195-3.003h2.193v-9.999h-2.193z"/><path fill="#FFFBE8" d="M275.189 208.166h14.303v-10.66h-14.303z"/><path fill="#000" d="M290.994 209.657h-17.307v-13.663h17.307zm-14.304-3.003h11.301v-7.657H276.69z"/><path fill="#FFFBE8" d="M273.227 204.863h18.247v-3.654h-18.247z"/><path fill="#000" d="M292.975 206.364h-21.249v-6.656h21.249zm-18.247-3.003h15.245v-.65h-15.245z"/><path fill="#FFFBE8" d="M284.888 208.156v-13.002h-5.195v13.002z"/><path fill="#000" d="M286.389 209.657h-8.197v-16.005h8.197zm-5.195-3.003h2.192v-9.999h-2.192z"/><path fill="#FFFBE8" d="M253.749 208.166h14.303v-10.66h-14.303z"/><path fill="#000" d="M269.564 209.657h-17.307v-13.663h17.307zm-14.304-3.003h11.301v-7.657H255.26z"/><path fill="#FFFBE8" d="M251.797 204.863h18.247v-3.654h-18.247z"/><path fill="#000" d="M271.545 206.364h-21.25v-6.656h21.25zm-18.247-3.003h15.244v-.65h-15.244z"/><path fill="#FFFBE8" d="M263.458 208.146v-13.003h-5.195v13.003z"/><path fill="#000" d="M264.949 209.657h-8.198v-16.005h8.198zm-5.185-3.003h2.192v-9.999h-2.192z"/><path fill="#FFFBE8" d="M312.904 201.209h-1.982v-3.713h-4.604v-2.342h-5.195v2.342h-4.504v3.713h-1.962v3.654h1.962v3.293h14.303v-3.293h1.982z"/><path fill="#000" d="M312.424 209.657h-17.307v-3.293h-1.961v-6.656h1.961v-3.714h4.505v-2.352h8.197v2.352h4.605v3.714h1.982v6.656h-1.982zm-14.304-3.003h11.301v-3.293h1.982v-.65h-1.982v-3.714h-4.604v-2.352h-2.193v2.352h-4.504v3.714h-1.962v.65h1.962z"/><path fill="#8CBA3B" d="M291.474 201.209h-1.982v-3.713h-4.604v-2.342h-5.195v2.342h-4.504v3.713h-1.962v3.654h1.962v3.293h14.303v-3.293h1.982z"/><path fill="#000" d="M289.492 209.657h-14.303a1.5 1.5 0 0 1-1.502-1.501v-1.792h-.46a1.5 1.5 0 0 1-1.501-1.501v-3.654c0-.831.67-1.501 1.501-1.501h.46v-2.212a1.5 1.5 0 0 1 1.502-1.502h3.003v-.851a1.5 1.5 0 0 1 1.501-1.501h5.195a1.5 1.5 0 0 1 1.501 1.501v.851h3.103a1.5 1.5 0 0 1 1.502 1.502v2.212h.48c.831 0 1.501.67 1.501 1.501v3.654a1.5 1.5 0 0 1-1.501 1.501h-.48v1.792a1.5 1.5 0 0 1-1.502 1.501m-12.802-3.003h11.301v-1.791a1.5 1.5 0 0 1 1.501-1.502h.481v-.65h-.481a1.5 1.5 0 0 1-1.501-1.502v-2.212h-3.103a1.5 1.5 0 0 1-1.502-1.501v-.851h-2.192v.851a1.5 1.5 0 0 1-1.501 1.501h-3.003v2.212a1.5 1.5 0 0 1-1.501 1.502h-.461v.65h.461a1.5 1.5 0 0 1 1.501 1.502z"/><path fill="#8CBA3B" d="M270.044 201.209h-1.982v-3.713h-4.614v-2.342h-5.185v2.342h-4.505v3.713h-1.961v3.654h1.961v3.293h14.304v-3.293h1.982z"/><path fill="#000" d="M268.062 209.657h-14.304a1.5 1.5 0 0 1-1.501-1.501v-1.792h-.46a1.5 1.5 0 0 1-1.502-1.501v-3.654a1.5 1.5 0 0 1 1.502-1.501h.46v-2.212a1.5 1.5 0 0 1 1.501-1.502h3.003v-.851a1.5 1.5 0 0 1 1.502-1.501h5.185a1.5 1.5 0 0 1 1.501 1.501v.851h3.103a1.5 1.5 0 0 1 1.501 1.502v2.212h.481c.831 0 1.501.67 1.501 1.501v3.654a1.5 1.5 0 0 1-1.501 1.501h-.481v1.792c0 .831-.67 1.501-1.501 1.501zm-12.802-3.003h11.301v-1.791a1.5 1.5 0 0 1 1.501-1.502h.48v-.65h-.48a1.5 1.5 0 0 1-1.501-1.502v-2.212h-3.103a1.5 1.5 0 0 1-1.502-1.501v-.851h-2.182v.851a1.5 1.5 0 0 1-1.501 1.501h-3.003v2.212a1.5 1.5 0 0 1-1.502 1.502h-.46v.65h.46a1.5 1.5 0 0 1 1.502 1.502v1.791z"/><path fill="#FFFBE8" d="M412.758 201.209h-1.982v-3.713h-4.614v-2.342h-5.185v2.342h-4.514v3.713h-1.952v3.654h1.952v3.293h14.313v-3.293h1.982z"/><path fill="#000" d="M412.278 209.657h-17.307v-3.293h-1.961v-6.656h1.961v-3.714h4.505v-2.352h8.197v2.352h4.605v3.714h1.982v6.656h-1.982zm-14.314-3.003h11.301v-3.293h1.982v-.65h-1.982v-3.714h-4.605v-2.352h-2.192v2.352h-4.504v3.714h-1.962v.65h1.962z"/><path fill="#FFFBE8" d="M391.328 201.209h-1.982v-3.713h-4.614v-2.342h-5.185v2.342h-4.514v3.713h-1.952v3.654h1.952v3.293h14.313v-3.293h1.982z"/><path fill="#000" d="M390.848 209.657h-17.307v-3.293h-1.962v-6.656h1.962v-3.714h4.505v-2.352h8.197v2.352h4.605v3.714h1.981v6.656h-1.981zm-14.314-3.003h11.301v-3.293h1.982v-.65h-1.982v-3.714h-4.605v-2.352h-2.192v2.352h-4.504v3.714h-1.962v.65h1.962z"/><path fill="#FFFBE8" d="M369.898 201.209h-1.992v-3.713h-4.605v-2.342h-5.194v2.342h-4.505v3.713h-1.961v3.654h1.961v3.293h14.304v-3.293h1.992z"/><path fill="#000" d="M369.407 209.657h-17.306v-3.293h-1.962v-6.656h1.962v-3.714h4.504v-2.352h8.198v2.352h4.604v3.714h1.982v6.656h-1.982zm-14.303-3.003h11.3v-3.293h1.982v-.65h-1.982v-3.714H361.8v-2.352h-2.192v2.352h-4.504v3.714h-1.962v.65h1.962z"/><path fill="#FFFBE8" d="M468.35 88.193H285.619a5.846 5.846 0 0 0-5.846 5.845v50.688a5.846 5.846 0 0 0 5.846 5.846H468.35a5.846 5.846 0 0 0 5.846-5.846V94.038a5.846 5.846 0 0 0-5.846-5.845"/><path fill="#000" d="M468.361 152.073H285.619c-4.044 0-7.347-3.293-7.347-7.347V94.028c0-4.043 3.293-7.347 7.347-7.347h182.742c4.043 0 7.346 3.294 7.346 7.347v50.698c0 4.044-3.293 7.347-7.346 7.347M285.619 89.694a4.346 4.346 0 0 0-4.344 4.344v50.698a4.346 4.346 0 0 0 4.344 4.344h182.742a4.347 4.347 0 0 0 4.344-4.344V94.038a4.347 4.347 0 0 0-4.344-4.344z"/><path fill="#000" d="M250.956 62.699c-.831 0-1.501-.67-1.501-1.502v-43.04c0-.83.67-1.501 1.501-1.501s1.501.67 1.501 1.501v43.04a1.5 1.5 0 0 1-1.501 1.502"/><path fill="#000" d="M260.735 62.699c-.831 0-1.501-.67-1.501-1.502v-43.04a1.5 1.5 0 0 1 1.501-1.501 1.5 1.5 0 0 1 1.502 1.501v43.04a1.5 1.5 0 0 1-1.502 1.502"/><path fill="#000" d="M270.514 62.699a1.5 1.5 0 0 1-1.501-1.502v-43.04a1.5 1.5 0 0 1 1.501-1.501 1.5 1.5 0 0 1 1.502 1.501v43.04a1.5 1.5 0 0 1-1.502 1.502"/><path fill="#000" d="M280.294 62.699a1.5 1.5 0 0 1-1.502-1.502v-43.04a1.5 1.5 0 0 1 1.502-1.501 1.5 1.5 0 0 1 1.501 1.501v43.04a1.5 1.5 0 0 1-1.501 1.502"/><path fill="#000" d="M290.073 62.699a1.5 1.5 0 0 1-1.502-1.502v-43.04a1.5 1.5 0 0 1 1.502-1.501c.831 0 1.501.67 1.501 1.501v43.04a1.5 1.5 0 0 1-1.501 1.502"/><path fill="#000" d="M299.852 62.699c-.831 0-1.501-.67-1.501-1.502v-43.04c0-.83.67-1.501 1.501-1.501s1.501.67 1.501 1.501v43.04a1.5 1.5 0 0 1-1.501 1.502"/><path fill="#000" d="M309.631 62.699c-.831 0-1.501-.67-1.501-1.502v-43.04c0-.83.67-1.501 1.501-1.501s1.501.67 1.501 1.501v43.04a1.5 1.5 0 0 1-1.501 1.502"/><path fill="#000" d="M319.41 62.699c-.831 0-1.501-.67-1.501-1.502v-43.04a1.5 1.5 0 0 1 1.501-1.501 1.5 1.5 0 0 1 1.502 1.501v43.04a1.5 1.5 0 0 1-1.502 1.502"/><path fill="#000" d="M329.189 62.699a1.5 1.5 0 0 1-1.501-1.502v-43.04a1.5 1.5 0 0 1 1.501-1.501 1.5 1.5 0 0 1 1.502 1.501v43.04a1.5 1.5 0 0 1-1.502 1.502"/><path fill="#000" d="M338.969 62.699a1.5 1.5 0 0 1-1.502-1.502v-43.04a1.5 1.5 0 0 1 1.502-1.501 1.5 1.5 0 0 1 1.501 1.501v43.04a1.5 1.5 0 0 1-1.501 1.502"/><path fill="#000" d="M348.748 62.699c-.831 0-1.501-.67-1.501-1.502v-43.04c0-.83.67-1.501 1.501-1.501s1.501.67 1.501 1.501v43.04a1.5 1.5 0 0 1-1.501 1.502"/><path fill="#000" d="M358.517 62.699c-.831 0-1.501-.67-1.501-1.502v-43.04a1.5 1.5 0 0 1 1.501-1.501 1.5 1.5 0 0 1 1.502 1.501v43.04a1.5 1.5 0 0 1-1.502 1.502"/><path fill="#000" d="M368.296 62.699a1.5 1.5 0 0 1-1.501-1.502v-43.04a1.5 1.5 0 0 1 1.501-1.501 1.5 1.5 0 0 1 1.502 1.501v43.04a1.5 1.5 0 0 1-1.502 1.502"/><path fill="#000" d="M378.076 62.699a1.5 1.5 0 0 1-1.502-1.502v-43.04a1.5 1.5 0 0 1 1.502-1.501 1.5 1.5 0 0 1 1.501 1.501v43.04a1.5 1.5 0 0 1-1.501 1.502"/><path fill="#000" d="M387.855 62.699a1.5 1.5 0 0 1-1.502-1.502v-43.04a1.5 1.5 0 0 1 1.502-1.501c.831 0 1.501.67 1.501 1.501v43.04a1.5 1.5 0 0 1-1.501 1.502"/><path fill="#000" d="M397.634 62.699c-.831 0-1.501-.67-1.501-1.502v-43.04c0-.83.67-1.501 1.501-1.501s1.501.67 1.501 1.501v43.04a1.5 1.5 0 0 1-1.501 1.502"/><path fill="#000" d="M407.413 62.699c-.831 0-1.501-.67-1.501-1.502v-43.04a1.5 1.5 0 0 1 1.501-1.501 1.5 1.5 0 0 1 1.502 1.501v43.04a1.5 1.5 0 0 1-1.502 1.502"/><path fill="#000" d="M417.192 62.699a1.5 1.5 0 0 1-1.501-1.502v-43.04a1.5 1.5 0 0 1 1.501-1.501 1.5 1.5 0 0 1 1.502 1.501v43.04a1.5 1.5 0 0 1-1.502 1.502"/><path fill="#000" d="M426.972 62.699a1.5 1.5 0 0 1-1.502-1.502v-43.04a1.5 1.5 0 0 1 1.502-1.501 1.5 1.5 0 0 1 1.501 1.501v43.04a1.5 1.5 0 0 1-1.501 1.502"/><path fill="#000" d="M436.751 62.699a1.5 1.5 0 0 1-1.502-1.502v-43.04a1.5 1.5 0 0 1 1.502-1.501 1.5 1.5 0 0 1 1.501 1.501v43.04a1.5 1.5 0 0 1-1.501 1.502"/><path fill="#000" d="M446.53 62.699a1.5 1.5 0 0 1-1.502-1.502v-43.04a1.5 1.5 0 0 1 1.502-1.501c.831 0 1.501.67 1.501 1.501v43.04a1.5 1.5 0 0 1-1.501 1.502"/><path fill="#000" d="M456.309 62.699c-.831 0-1.501-.67-1.501-1.502v-43.04c0-.83.67-1.501 1.501-1.501s1.501.67 1.501 1.501v43.04a1.5 1.5 0 0 1-1.501 1.502"/><path fill="#000" d="M466.078 62.699c-.831 0-1.501-.67-1.501-1.502v-43.04a1.5 1.5 0 0 1 1.501-1.501 1.5 1.5 0 0 1 1.502 1.501v43.04a1.5 1.5 0 0 1-1.502 1.502"/><path fill="#000" d="M475.857 62.699a1.5 1.5 0 0 1-1.501-1.502v-43.04a1.5 1.5 0 0 1 1.501-1.501 1.5 1.5 0 0 1 1.502 1.501v43.04a1.5 1.5 0 0 1-1.502 1.502"/><path fill="#000" d="M485.637 62.699a1.5 1.5 0 0 1-1.502-1.502v-43.04a1.5 1.5 0 0 1 1.502-1.501 1.5 1.5 0 0 1 1.501 1.501v43.04a1.5 1.5 0 0 1-1.501 1.502"/><path fill="#000" d="M495.416 62.699a1.5 1.5 0 0 1-1.502-1.502v-43.04a1.5 1.5 0 0 1 1.502-1.501c.831 0 1.501.67 1.501 1.501v43.04a1.5 1.5 0 0 1-1.501 1.502"/><path fill="#000" d="M505.195 62.699c-.831 0-1.501-.67-1.501-1.502v-43.04a1.5 1.5 0 0 1 1.501-1.501 1.5 1.5 0 0 1 1.502 1.501v43.04a1.5 1.5 0 0 1-1.502 1.502"/><path fill="#FFFBE8" d="M505.195 109.333v-6.096a4.285 4.285 0 0 0-4.274-4.274 4.285 4.285 0 0 0-4.274 4.274v6.186a10.21 10.21 0 0 0-5.836 9.228c0 5.646 4.575 10.21 10.21 10.21s10.21-4.574 10.21-10.21c0-4.153-2.483-7.717-6.036-9.318"/><path fill="#000" d="M501.011 130.362c-6.456 0-11.711-5.254-11.711-11.711 0-4.173 2.262-8.047 5.836-10.129v-5.285a5.784 5.784 0 0 1 5.775-5.775 5.784 5.784 0 0 1 5.775 5.775v5.175a11.74 11.74 0 0 1 6.036 10.239c0 6.457-5.255 11.711-11.711 11.711m-.09-29.908a2.774 2.774 0 0 0-2.773 2.773v6.186c0 .58-.33 1.111-.86 1.351a8.76 8.76 0 0 0-4.975 7.877c0 4.805 3.904 8.709 8.708 8.709s8.708-3.904 8.708-8.709a8.73 8.73 0 0 0-5.145-7.947c-.54-.24-.89-.781-.89-1.371v-6.096a2.774 2.774 0 0 0-2.773-2.773"/><path fill="#FFFBE8" d="M258.523 109.333v-6.096a4.285 4.285 0 0 0-4.274-4.274 4.285 4.285 0 0 0-4.274 4.274v6.186a10.21 10.21 0 0 0-5.835 9.228c0 5.646 4.574 10.21 10.209 10.21s10.21-4.574 10.21-10.21c0-4.153-2.483-7.717-6.036-9.318"/><path fill="#000" d="M254.349 130.362c-6.456 0-11.711-5.254-11.711-11.711 0-4.173 2.262-8.047 5.836-10.129v-5.285a5.784 5.784 0 0 1 5.775-5.775 5.784 5.784 0 0 1 5.775 5.775v5.175a11.74 11.74 0 0 1 6.036 10.239c0 6.457-5.255 11.711-11.711 11.711m-.1-29.908a2.774 2.774 0 0 0-2.773 2.773v6.186c0 .58-.33 1.111-.86 1.351a8.76 8.76 0 0 0-4.975 7.877c0 4.805 3.904 8.709 8.708 8.709s8.708-3.904 8.708-8.709a8.73 8.73 0 0 0-5.145-7.947c-.54-.24-.89-.781-.89-1.371v-6.096a2.774 2.774 0 0 0-2.773-2.773"/><path fill="#FFFBE8" d="M478.55 195.154h-12.041v14.994h12.041z"/><path fill="#000" d="M478.55 211.649h-12.041a1.5 1.5 0 0 1-1.502-1.501v-14.994a1.5 1.5 0 0 1 1.502-1.502h12.041a1.5 1.5 0 0 1 1.502 1.502v14.994a1.5 1.5 0 0 1-1.502 1.501m-10.54-3.003h9.039v-11.991h-9.039z"/><path fill="#FFFBE8" d="M500.35 209.827a6.326 6.326 0 1 0 0-12.651 6.326 6.326 0 0 0 0 12.651"/><path fill="#000" d="M500.35 211.319c-4.314 0-7.827-3.514-7.827-7.828s3.513-7.827 7.827-7.827 7.828 3.513 7.828 7.827-3.514 7.828-7.828 7.828m0-12.642a4.827 4.827 0 0 0-4.824 4.824 4.827 4.827 0 0 0 4.824 4.825 4.827 4.827 0 0 0 4.825-4.825 4.827 4.827 0 0 0-4.825-4.824"/><path fill="#FFFBE8" d="M343.763 190.089h-10.029v20.249h10.029z"/><path fill="#000" d="M343.763 211.829h-10.029a1.5 1.5 0 0 1-1.502-1.501v-20.249a1.5 1.5 0 0 1 1.502-1.502h10.029a1.5 1.5 0 0 1 1.502 1.502v20.249a1.5 1.5 0 0 1-1.502 1.501m-8.528-3.003h7.027V191.58h-7.027z"/><path fill="#FFFBE8" d="M596.541 225.292h43.891a9.5 9.5 0 0 0 9.499-9.499v-55.482a9.5 9.5 0 0 0-9.499-9.499h-43.891a9.5 9.5 0 0 0-9.499 9.499v55.482a9.5 9.5 0 0 0 9.499 9.499"/><path fill="#000" d="M640.422 226.793h-43.881c-6.066 0-11-4.934-11-11v-55.472c0-6.066 4.934-11.001 11-11.001h43.881c6.066 0 11.001 4.935 11.001 11.001v55.472c0 6.066-4.935 11-11.001 11m-43.881-74.47c-4.414 0-7.997 3.594-7.997 7.998v55.472c0 4.414 3.593 7.997 7.997 7.997h43.881c4.414 0 7.998-3.593 7.998-7.997v-55.472c0-4.414-3.594-7.998-7.998-7.998z"/><path fill="#000" d="M560.927 304.656c-33.121 0-60.076-26.945-60.076-60.076a1.5 1.5 0 0 1 1.501-1.501 1.5 1.5 0 0 1 1.502 1.501c0 31.47 25.604 57.074 57.073 57.074s57.064-25.604 57.064-57.074a1.5 1.5 0 0 1 1.501-1.501 1.5 1.5 0 0 1 1.502 1.501c0 33.121-26.945 60.076-60.067 60.076"/><path fill="#FFFBE8" d="M596.541 225.292h43.891a9.5 9.5 0 0 0 9.499-9.499v-55.482a9.5 9.5 0 0 0-9.499-9.499h-43.891a9.5 9.5 0 0 0-9.499 9.499v55.482a9.5 9.5 0 0 0 9.499 9.499"/><path fill="#000" d="M640.422 226.793h-43.881c-6.066 0-11-4.934-11-11v-55.472c0-6.066 4.934-11.001 11-11.001h43.881c6.066 0 11.001 4.935 11.001 11.001v55.472c0 6.066-4.935 11-11.001 11m-43.881-74.47c-4.414 0-7.997 3.594-7.997 7.998v55.472c0 4.414 3.593 7.997 7.997 7.997h43.881c4.414 0 7.998-3.593 7.998-7.997v-55.472c0-4.414-3.594-7.998-7.998-7.998z"/><path fill="#FFFBE8" d="M620.133 248.464h-1.311a3.53 3.53 0 0 1-3.523-3.524v-18.237c0-.38.31-.68.68-.68h7.007c.38 0 .681.31.681.68v18.237a3.53 3.53 0 0 1-3.524 3.524z"/><path fill="#000" d="M620.133 249.965h-1.311a5.03 5.03 0 0 1-5.025-5.025v-18.237c0-1.201.981-2.182 2.182-2.182h7.007c1.201 0 2.182.981 2.182 2.182v18.237a5.03 5.03 0 0 1-5.025 5.025zm-3.343-22.441v17.416c0 1.121.911 2.022 2.022 2.022h1.311a2.023 2.023 0 0 0 2.022-2.022v-17.416h-5.365z"/><path fill="#FFFBE8" d="M499.299 220.537V233.9h6.026v-13.363z"/><path fill="#000" d="M505.335 235.411h-6.026a1.503 1.503 0 0 1-1.501-1.501v-13.363a1.5 1.5 0 0 1 1.501-1.501h6.026a1.504 1.504 0 0 1 1.502 1.501v13.363a1.5 1.5 0 0 1-1.502 1.501m-4.524-3.002h3.023v-10.36h-3.023z"/><path fill="#FFFBE8" d="M577.823 191.2a3.143 3.143 0 1 0 0-6.286 3.143 3.143 0 0 0 0 6.286"/><path fill="#000" d="M577.823 192.701a4.65 4.65 0 0 1-4.644-4.644 4.65 4.65 0 0 1 4.644-4.645 4.65 4.65 0 0 1 4.645 4.645 4.65 4.65 0 0 1-4.645 4.644m0-6.286a1.642 1.642 0 1 0 .002 3.284 1.642 1.642 0 0 0-.002-3.284"/><path fill="#FFFBE8" d="M497.528 226.453h9.589v11.371l-1.211 2.262v4.514h-6.767v-4.514l-1.611-2.182z"/><path fill="#000" d="M505.906 246.101h-6.777a1.5 1.5 0 0 1-1.501-1.501v-4.024l-1.321-1.781a1.5 1.5 0 0 1-.29-.891v-11.451c0-.831.67-1.501 1.501-1.501h9.599c.831 0 1.501.67 1.501 1.501v11.371c0 .25-.06.49-.18.71l-1.031 1.922v4.144c0 .831-.67 1.501-1.501 1.501m-5.265-3.002h3.773v-3.013c0-.25.061-.491.181-.711l1.031-1.922v-9.489h-6.597v9.449l1.322 1.782c.19.26.29.571.29.891z"/><path fill="#FFFBE8" d="M441.035 223.33h-3.834c-.871 0-1.571.701-1.571 1.571v14.674l-4.284 9.799h3.713l4.334-9.889h12.922"/><path fill="#000" d="M435.059 250.866h-3.714c-.51 0-.98-.26-1.261-.681-.28-.42-.32-.961-.12-1.421l4.164-9.509v-14.354a3.08 3.08 0 0 1 3.073-3.072h3.834a1.5 1.5 0 0 1 1.501 1.501 1.5 1.5 0 0 1-1.501 1.501h-3.834s-.07.03-.07.07v14.674c0 .21-.04.411-.13.601l-3.363 7.697h.44l3.944-8.988c.24-.551.78-.901 1.371-.901h12.922a1.5 1.5 0 0 1 1.502 1.501 1.5 1.5 0 0 1-1.502 1.502h-11.941l-3.944 8.988c-.24.55-.78.901-1.371.901z"/><path fill="#FFB921" d="M452.475 224.671v22.551c0 .741-.6 1.342-1.341 1.342h-10.5c-.74 0-1.341-.601-1.341-1.342v-22.561c0-.741.601-1.341 1.341-1.341h10.5c.741 0 1.341.6 1.341 1.341z"/><path fill="#000" d="M451.134 250.065h-10.5a2.84 2.84 0 0 1-2.842-2.843v-22.551a2.847 2.847 0 0 1 2.842-2.842h10.5a2.84 2.84 0 0 1 2.843 2.842v22.551a2.847 2.847 0 0 1-2.843 2.843m-10.34-3.003h10.18v-22.231h-10.18z"/><path fill="#FFFBE8" d="M443.457 223.77v7.297h4.854v-7.297"/><path fill="#000" d="M448.311 232.068h-4.854c-.551 0-1.001-.45-1.001-1.001v-7.297c0-.55.45-1.001 1.001-1.001s1.001.451 1.001 1.001v6.296h2.853v-6.296c0-.55.45-1.001 1-1.001.551 0 1.001.451 1.001 1.001v7.297c0 .551-.45 1.001-1.001 1.001"/><path fill="#FFFBE8" d="M657.879 191.45a3.143 3.143 0 1 0 0-6.287 3.143 3.143 0 0 0 0 6.287"/><path fill="#000" d="M657.879 192.941a4.65 4.65 0 0 1-4.645-4.644 4.65 4.65 0 0 1 4.645-4.644 4.65 4.65 0 0 1 4.644 4.644 4.65 4.65 0 0 1-4.644 4.644m0-6.275a1.642 1.642 0 1 0 0 3.284 1.642 1.642 0 0 0 0-3.284"/></svg>