<svg xmlns="http://www.w3.org/2000/svg" width="649" height="322" fill="none" viewBox="0 0 649 322"><path fill="#FFFBE8" d="M314.79 301.404h-42.857c-2.819 0-16.357-.444-20.778-1.377-14.188-3.007-24.266-15.216-24.502-29.687l5.656-.094c.189 11.813 8.419 21.787 20.015 24.247 3.705.783 16.771 1.254 19.599 1.254h42.857c2.989 0 16.442-.49 20.759-1.339 11.539-2.272 19.836-12.123 20.175-23.955v-.245l5.666.161v.245c-.424 14.49-10.597 26.547-24.747 29.338-4.968.98-18.977 1.442-21.853 1.442z"/><path fill="#000" d="M314.79 302.818h-42.857c-2.96 0-16.479-.434-21.07-1.414-14.839-3.149-25.379-15.914-25.624-31.045l-.019-1.414 8.485-.141.019 1.414c.179 11.152 7.947 20.561 18.892 22.88 3.545.754 16.602 1.226 19.307 1.226h42.857c2.866 0 16.329-.491 20.486-1.311 10.879-2.149 18.713-11.445 19.034-22.607l.047-1.659 8.485.245-.047 1.659c-.444 15.15-11.078 27.764-25.879 30.687-5.062.999-19.222 1.47-22.126 1.47zm-86.666-31.092c.829 13.18 10.247 24.134 23.323 26.915 4.242.896 17.79 1.348 20.486 1.348h42.857c2.847 0 16.696-.452 21.579-1.414 13.113-2.583 22.645-13.528 23.54-26.821l-2.828-.084c-.858 11.972-9.456 21.805-21.259 24.134-4.61.905-18.336 1.367-21.032 1.367h-42.857c-2.96 0-16.027-.472-19.892-1.292-11.775-2.498-20.269-12.34-21.08-24.191l-2.828.048z"/><path fill="#FFFBE8" d="M258.81 5.665H147.058a2.48 2.48 0 0 0-2.48 2.48v110.489a2.48 2.48 0 0 0 2.48 2.479H258.81a2.48 2.48 0 0 0 2.479-2.479V8.144a2.48 2.48 0 0 0-2.479-2.479"/><path fill="#000" d="M258.81 122.527H147.058a3.895 3.895 0 0 1-3.894-3.893V8.136a3.9 3.9 0 0 1 3.894-3.894H258.81a3.895 3.895 0 0 1 3.894 3.894v110.498a3.9 3.9 0 0 1-3.894 3.893M147.048 7.08c-.584 0-1.065.471-1.065 1.065v110.498a1.07 1.07 0 0 0 1.065 1.066h111.753c.584 0 1.065-.472 1.065-1.066V8.145a1.07 1.07 0 0 0-1.065-1.065z"/><path fill="#000" d="M261.28 44.215H144.569a1.41 1.41 0 0 1-1.414-1.414c0-.783.631-1.414 1.414-1.414H261.28c.782 0 1.414.631 1.414 1.414s-.632 1.414-1.414 1.414"/><path fill="#FFFBE8" d="M158.437 96.395a5.07 5.07 0 0 0 5.071-5.072 5.071 5.071 0 1 0-10.143 0 5.07 5.07 0 0 0 5.072 5.072"/><path fill="#000" d="M158.437 97.809c-3.573 0-6.486-2.913-6.486-6.486s2.913-6.486 6.486-6.486 6.486 2.913 6.486 6.486-2.913 6.486-6.486 6.486m0-10.144a3.66 3.66 0 0 0-3.658 3.658 3.66 3.66 0 0 0 3.658 3.657 3.66 3.66 0 0 0 3.657-3.657 3.66 3.66 0 0 0-3.657-3.658"/><path fill="#FFFBE8" d="M249.646 96.395a5.071 5.071 0 1 0 .001-10.143 5.071 5.071 0 0 0-.001 10.143"/><path fill="#000" d="M249.646 97.809c-3.572 0-6.486-2.913-6.486-6.486s2.914-6.486 6.486-6.486c3.573 0 6.487 2.913 6.487 6.486s-2.914 6.486-6.487 6.486m0-10.144a3.66 3.66 0 0 0-3.657 3.658 3.66 3.66 0 0 0 3.657 3.657 3.66 3.66 0 0 0 3.658-3.657 3.66 3.66 0 0 0-3.658-3.658"/><path fill="#FFFBE8" d="M215.991 80.048h-22.352v12.209h22.352z"/><path fill="#000" d="M215.981 93.67h-22.352a1.41 1.41 0 0 1-1.414-1.414V80.048c0-.783.632-1.414 1.414-1.414h22.352c.783 0 1.415.631 1.415 1.414v12.208c0 .783-.632 1.414-1.415 1.414m-20.928-2.828h19.524v-9.38h-19.524z"/><path fill="#FFFBE8" d="m192.639 99.498 1-7.24h22.342l.868 7.24"/><path fill="#000" d="M192.649 100.911c-.066 0-.132 0-.198-.009a1.41 1.41 0 0 1-1.207-1.593l.99-7.24a1.42 1.42 0 0 1 1.404-1.226h22.353c.716 0 1.32.537 1.404 1.244l.868 7.24a1.42 1.42 0 0 1-1.235 1.575 1.42 1.42 0 0 1-1.575-1.235l-.716-5.996h-19.864l-.82 6.024a1.42 1.42 0 0 1-1.395 1.226z"/><path fill="#FFFBE8" d="m146.53 5.666 9.823-4.252h93.652l9.503 4.252z"/><path fill="#000" d="M259.508 7.08H146.52a1.42 1.42 0 0 1-1.385-1.131c-.132-.66.207-1.32.82-1.584l9.823-4.252q.269-.113.566-.113h93.651c.198 0 .396.038.575.123l9.513 4.251c.612.274.942.934.801 1.584a1.42 1.42 0 0 1-1.386 1.122zM153.355 4.252h99.535l-3.187-1.424h-93.058z"/><path fill="#000" d="M246.422 96.65a1.415 1.415 0 0 1-1.055-2.357l6.759-7.542a1.417 1.417 0 0 1 2.112 1.885l-6.76 7.542a1.43 1.43 0 0 1-1.056.471"/><path fill="#000" d="M155.212 96.65a1.416 1.416 0 0 1-1.056-2.357l6.76-7.542a1.415 1.415 0 0 1 2.112 1.885l-6.76 7.542a1.43 1.43 0 0 1-1.056.471"/><path fill="#FFFBE8" d="m159.436 235.382 12.171-76.39a4.62 4.62 0 0 1 4.563-3.893h56.385a5.704 5.704 0 0 1 5.637 4.826l11.53 73.704"/><path fill="#000" d="M159.436 236.797c-.076 0-.151 0-.226-.019a1.42 1.42 0 0 1-1.179-1.622l12.171-76.39a6.01 6.01 0 0 1 5.958-5.091h56.385a7.076 7.076 0 0 1 7.033 6.025l11.53 73.703a1.404 1.404 0 0 1-1.179 1.612 1.403 1.403 0 0 1-1.612-1.179l-11.529-73.703a4.27 4.27 0 0 0-4.243-3.629H176.16a3.195 3.195 0 0 0-3.168 2.705l-12.17 76.39a1.415 1.415 0 0 1-1.396 1.188z"/><path fill="#FFFBE8" d="M246.158 231.404h-82.744a3.98 3.98 0 0 0-3.978 3.978v14.236a3.98 3.98 0 0 0 3.978 3.978h82.744a3.98 3.98 0 0 0 3.979-3.978v-14.236a3.98 3.98 0 0 0-3.979-3.978"/><path fill="#000" d="M246.149 255.01h-82.735a5.397 5.397 0 0 1-5.392-5.392v-14.236a5.397 5.397 0 0 1 5.392-5.392h82.735a5.4 5.4 0 0 1 5.393 5.392v14.236a5.397 5.397 0 0 1-5.393 5.392m-82.735-22.192a2.567 2.567 0 0 0-2.564 2.564v14.236a2.567 2.567 0 0 0 2.564 2.564h82.735a2.567 2.567 0 0 0 2.564-2.564v-14.236a2.567 2.567 0 0 0-2.564-2.564z"/><path fill="#FFFBE8" d="M235.892 236.853h-1.64v-1.046h-2.225v-.953h-4.403v.953h-2.225v1.046h-1.649v13.293h12.142z"/><path fill="#000" d="M237.306 251.56h-14.971v-16.13h1.641v-1.047h2.225v-.952h7.23v.952h2.225v1.047h1.641v16.13zm-12.142-2.828h9.314v-10.474h-1.64v-1.046h-2.225v-.952h-1.575v.952h-2.225v1.046h-1.64v10.474z"/><path fill="#000" d="M233.384 246.281h-7.117v1.583h7.117z"/><path fill="#FFFBE8" d="M193.874 237.654h-19.92c-.958 0-1.734.776-1.734 1.734v6.223c0 .958.776 1.734 1.734 1.734h19.92c.958 0 1.735-.776 1.735-1.734v-6.223c0-.958-.777-1.734-1.735-1.734"/><path fill="#000" d="M193.874 248.759h-19.92a3.155 3.155 0 0 1-3.149-3.148v-6.213a3.155 3.155 0 0 1 3.149-3.149h19.92a3.154 3.154 0 0 1 3.149 3.149v6.213a3.154 3.154 0 0 1-3.149 3.148m-19.91-9.691a.325.325 0 0 0-.321.321v6.212c0 .179.151.321.321.321h19.92c.179 0 .32-.151.32-.321v-6.212a.324.324 0 0 0-.32-.321z"/><path fill="#000" d="M204.782 156.513a1.41 1.41 0 0 1-1.414-1.414v-26.302a1.413 1.413 0 1 1 2.828 0v26.302c0 .782-.632 1.414-1.414 1.414"/><path fill="#FFFBE8" d="M208.854 106.577h3.423c.773 0 1.404.631 1.404 1.404v13.095l3.828 8.749h-3.319l-3.79-9.022"/><path fill="#000" d="M217.509 131.239h-3.319c-.565 0-1.084-.34-1.301-.868l-3.79-9.022a1.415 1.415 0 0 1 .755-1.848 1.413 1.413 0 0 1 1.847.755l3.423 8.154h.216l-2.96-6.769a1.5 1.5 0 0 1-.122-.565v-13.095h-3.413a1.404 1.404 0 0 1-1.414-1.405c0-.782.631-1.414 1.414-1.414h3.422a2.82 2.82 0 0 1 2.819 2.819v12.803l3.705 8.475a1.41 1.41 0 0 1-.113 1.338 1.43 1.43 0 0 1-1.188.642z"/><path fill="#FFFBE8" d="M198.644 107.773v20.137a1.2 1.2 0 0 0 1.198 1.197h9.37a1.2 1.2 0 0 0 1.198-1.197v-20.137a1.2 1.2 0 0 0-1.198-1.197h-9.37a1.2 1.2 0 0 0-1.198 1.197"/><path fill="#000" d="M209.212 130.512h-9.37a2.61 2.61 0 0 1-2.612-2.611v-20.137a2.61 2.61 0 0 1 2.612-2.611h9.37a2.61 2.61 0 0 1 2.612 2.611v20.137a2.61 2.61 0 0 1-2.612 2.611m-9.154-2.828h8.938v-19.703h-8.938z"/><path fill="#000" d="M201.972 126.562a.945.945 0 0 1-.942-.943v-7.787c0-.518.424-.942.942-.942.519 0 .943.424.943.942v7.787a.945.945 0 0 1-.943.943"/><path fill="#000" d="M204.669 126.562a.945.945 0 0 1-.943-.943v-7.787c0-.518.424-.942.943-.942s.942.424.942.942v7.787a.945.945 0 0 1-.942.943"/><path fill="#000" d="M207.374 126.562a.946.946 0 0 1-.943-.943v-7.787c0-.518.425-.942.943-.942.519 0 .943.424.943.942v7.787a.945.945 0 0 1-.943.943"/><path fill="#FFFBE8" d="M91.106 192.31H13.462c-6.659 0-12.057 5.398-12.057 12.057v41.292c0 6.659 5.398 12.058 12.057 12.058h77.644c6.66 0 12.058-5.399 12.058-12.058v-41.292c0-6.659-5.399-12.057-12.058-12.057"/><path fill="#000" d="M91.106 259.131H13.472C6.043 259.131 0 253.088 0 245.659v-41.292c0-7.429 6.043-13.472 13.472-13.472h77.634c7.429 0 13.472 6.043 13.472 13.472v41.292c0 7.429-6.043 13.472-13.472 13.472m-77.644-65.408c-5.873 0-10.643 4.78-10.643 10.644v41.292c0 5.873 4.78 10.643 10.643 10.643h77.635c5.873 0 10.643-4.779 10.643-10.643v-41.292c0-5.873-4.78-10.644-10.643-10.644z"/><path fill="#FFFBE8" d="M86.807 236.279V102.947c0-9.078-7.363-16.441-16.441-16.441H33.684c-8.485 0-15.367 6.882-15.367 15.367v134.406a5.645 5.645 0 0 0 5.647 5.647h57.187a5.645 5.645 0 0 0 5.647-5.647z"/><path fill="#000" d="M81.16 243.35H23.974c-3.894 0-7.061-3.168-7.061-7.062V101.882c0-9.248 7.532-16.78 16.78-16.78h36.682c9.843 0 17.856 8.013 17.856 17.855v133.331c0 3.894-3.168 7.062-7.061 7.062zM33.684 87.92c-7.693 0-13.953 6.26-13.953 13.953v134.406a4.24 4.24 0 0 0 4.233 4.233h57.187a4.24 4.24 0 0 0 4.233-4.233V102.948c0-8.287-6.74-15.028-15.028-15.028H33.675z"/><path fill="#FFFBE8" d="M28.848 89.73v-9.37a3.13 3.13 0 0 1 3.12-3.121 3.13 3.13 0 0 1 3.12 3.12v9.371"/><path fill="#000" d="M35.08 91.144a1.41 1.41 0 0 1-1.415-1.414v-9.37a1.706 1.706 0 1 0-3.413 0v9.37c0 .782-.631 1.414-1.414 1.414a1.41 1.41 0 0 1-1.414-1.414v-9.37a4.54 4.54 0 0 1 4.535-4.535 4.54 4.54 0 0 1 4.534 4.534v9.371c0 .782-.631 1.414-1.414 1.414"/><path fill="#FFFBE8" d="M86.807 241.473V108.141c0-9.078-7.363-16.44-16.441-16.44H33.684c-8.485 0-15.367 6.881-15.367 15.366v134.406a5.645 5.645 0 0 0 5.647 5.647h57.187a5.645 5.645 0 0 0 5.647-5.647z"/><path fill="#000" d="M81.16 248.534H23.974c-3.894 0-7.061-3.167-7.061-7.07V107.058c0-9.249 7.532-16.781 16.78-16.781h36.682c9.843 0 17.856 8.013 17.856 17.855v133.332c0 3.893-3.168 7.07-7.061 7.07zM33.684 93.114c-7.693 0-13.953 6.26-13.953 13.953v134.406c0 2.338 1.905 4.243 4.233 4.243h57.187a4.24 4.24 0 0 0 4.233-4.243V108.142c0-8.287-6.74-15.027-15.028-15.027H33.675z"/><path fill="#FFFBE8" d="M75.099 107.972H30.036a2.583 2.583 0 0 0-2.584 2.583v23.266a2.583 2.583 0 0 0 2.584 2.583h45.063a2.583 2.583 0 0 0 2.583-2.583v-23.266a2.583 2.583 0 0 0-2.584-2.583"/><path fill="#000" d="M75.098 137.819H30.026a4 4 0 0 1-3.997-3.997v-23.276a4 4 0 0 1 3.997-3.998h45.072a4 4 0 0 1 3.998 3.998v23.276a4 4 0 0 1-3.998 3.997m-45.072-28.433a1.17 1.17 0 0 0-1.169 1.169v23.276a1.17 1.17 0 0 0 1.17 1.169h45.071c.642 0 1.17-.518 1.17-1.169v-23.276a1.17 1.17 0 0 0-1.17-1.169z"/><path fill="#FFFBE8" d="M59.016 99.883H46.119a1.103 1.103 0 1 0 0 2.206h12.897a1.103 1.103 0 0 0 0-2.206"/><path fill="#000" d="M59.015 103.503H46.11a2.52 2.52 0 0 1-2.517-2.517 2.523 2.523 0 0 1 2.517-2.517h12.906a2.523 2.523 0 0 1 2.517 2.517 2.52 2.52 0 0 1-2.517 2.517"/><path fill="#FFFBE8" d="M52.567 158.465a7.551 7.551 0 1 0 0-15.103 7.551 7.551 0 0 0 0 15.103"/><path fill="#000" d="M52.567 159.879c-4.94 0-8.965-4.025-8.965-8.965s4.025-8.966 8.965-8.966 8.965 4.026 8.965 8.966-4.025 8.965-8.965 8.965m0-15.103a6.144 6.144 0 0 0-6.137 6.138 6.144 6.144 0 0 0 6.137 6.137 6.144 6.144 0 0 0 6.137-6.137 6.144 6.144 0 0 0-6.137-6.138"/><path fill="#FFFBE8" d="M71.507 143.362h4.751c.792 0 1.424.641 1.424 1.424v3.064c0 .791-.642 1.423-1.424 1.423h-4.751a2.965 2.965 0 0 1-2.96-2.96 2.965 2.965 0 0 1 2.96-2.96z"/><path fill="#000" d="M76.249 150.687h-4.752a4.377 4.377 0 0 1-4.374-4.374 4.38 4.38 0 0 1 4.374-4.375h4.752a2.84 2.84 0 0 1 2.837 2.838v3.064a2.84 2.84 0 0 1-2.837 2.838zm-4.742-5.911a1.547 1.547 0 0 0 0 3.092h4.75v-3.073l-4.75-.01z"/><path fill="#FFFBE8" d="M71.507 152.63h4.77c.773 0 1.404.631 1.404 1.404v3.111c0 .773-.631 1.405-1.404 1.405h-4.77a2.965 2.965 0 0 1-2.96-2.96 2.965 2.965 0 0 1 2.96-2.96"/><path fill="#000" d="M76.277 159.964h-4.77a4.377 4.377 0 0 1-4.375-4.374 4.38 4.38 0 0 1 4.375-4.375h4.77a2.82 2.82 0 0 1 2.819 2.819v3.111a2.82 2.82 0 0 1-2.82 2.819m-.01-5.93h-4.76a1.567 1.567 0 0 0-1.547 1.556c0 .848.689 1.546 1.547 1.546h4.76z"/><path fill="#FFFBE8" d="M29.319 143.362h4.808a2.965 2.965 0 0 1 2.96 2.96c0 1.631-1.33 2.96-2.96 2.96h-4.808a1.43 1.43 0 0 1-1.433-1.433v-3.054c0-.792.641-1.433 1.433-1.433"/><path fill="#000" d="M34.127 150.687h-4.808a2.85 2.85 0 0 1-2.847-2.847v-3.055a2.85 2.85 0 0 1 2.847-2.847h4.808a4.38 4.38 0 0 1 4.374 4.375 4.377 4.377 0 0 1-4.374 4.374m-4.808-5.911-.019 3.073 4.827.019a1.547 1.547 0 0 0 0-3.092z"/><path fill="#FFFBE8" d="M29.31 152.63h4.817a2.965 2.965 0 0 1 2.96 2.96c0 1.631-1.33 2.96-2.96 2.96h-4.818a1.42 1.42 0 0 1-1.423-1.424v-3.063c0-.792.641-1.424 1.424-1.424z"/><path fill="#000" d="M34.127 159.964h-4.818a2.84 2.84 0 0 1-2.837-2.837v-3.064a2.84 2.84 0 0 1 2.837-2.838h4.818a4.377 4.377 0 0 1 4.374 4.374 4.38 4.38 0 0 1-4.374 4.375zm-4.818-5.92v3.073l4.818.01a1.548 1.548 0 0 0 0-3.093h-4.818z"/><path fill="#FFFBE8" d="M39.793 168.147h-8.919a2.99 2.99 0 0 0-2.988 2.989v6.439a2.99 2.99 0 0 0 2.988 2.988h8.918a2.99 2.99 0 0 0 2.989-2.988v-6.439a2.99 2.99 0 0 0-2.989-2.989"/><path fill="#000" d="M39.793 181.977h-8.91a4.407 4.407 0 0 1-4.402-4.402v-6.43a4.407 4.407 0 0 1 4.403-4.402h8.909a4.41 4.41 0 0 1 4.402 4.402v6.43a4.407 4.407 0 0 1-4.402 4.402m-8.919-12.415c-.867 0-1.574.707-1.574 1.574v6.429c0 .868.707 1.575 1.574 1.575h8.91c.867 0 1.574-.707 1.574-1.575v-6.429c0-.867-.707-1.574-1.575-1.574z"/><path fill="#FFFBE8" d="M57.243 168.147h-8.919a2.99 2.99 0 0 0-2.988 2.989v6.439a2.99 2.99 0 0 0 2.988 2.988h8.919a2.99 2.99 0 0 0 2.988-2.988v-6.439a2.99 2.99 0 0 0-2.988-2.989"/><path fill="#000" d="M57.233 181.977h-8.909a4.407 4.407 0 0 1-4.402-4.402v-6.43a4.407 4.407 0 0 1 4.402-4.402h8.91a4.41 4.41 0 0 1 4.402 4.402v6.43a4.407 4.407 0 0 1-4.403 4.402m-8.909-12.415c-.867 0-1.574.707-1.574 1.574v6.429c0 .868.707 1.575 1.574 1.575h8.91c.867 0 1.574-.707 1.574-1.575v-6.429c0-.867-.707-1.574-1.575-1.574z"/><path fill="#FFFBE8" d="M74.693 168.147h-8.918a2.99 2.99 0 0 0-2.989 2.989v6.439a2.99 2.99 0 0 0 2.989 2.988h8.918a2.99 2.99 0 0 0 2.988-2.988v-6.439a2.99 2.99 0 0 0-2.988-2.989"/><path fill="#000" d="M74.684 181.977h-8.91a4.407 4.407 0 0 1-4.402-4.402v-6.43a4.407 4.407 0 0 1 4.403-4.402h8.908a4.41 4.41 0 0 1 4.403 4.402v6.43a4.407 4.407 0 0 1-4.403 4.402m-8.91-12.415c-.867 0-1.574.707-1.574 1.574v6.429c0 .868.707 1.575 1.575 1.575h8.908c.868 0 1.575-.707 1.575-1.575v-6.429c0-.867-.707-1.574-1.575-1.574z"/><path fill="#FFFBE8" d="M39.793 182.976h-8.918a2.99 2.99 0 0 0-2.989 2.989v6.438a2.99 2.99 0 0 0 2.989 2.989h8.918a2.99 2.99 0 0 0 2.988-2.989v-6.438a2.99 2.99 0 0 0-2.988-2.989"/><path fill="#000" d="M39.793 196.806h-8.909a4.41 4.41 0 0 1-4.403-4.402v-6.43a4.41 4.41 0 0 1 4.403-4.403h8.909a4.41 4.41 0 0 1 4.403 4.403v6.43a4.407 4.407 0 0 1-4.403 4.402m-8.918-12.416c-.868 0-1.575.707-1.575 1.575v6.429c0 .867.707 1.574 1.575 1.574h8.908c.868 0 1.575-.707 1.575-1.574v-6.429c0-.868-.707-1.575-1.575-1.575z"/><path fill="#FFFBE8" d="M57.243 182.976h-8.918a2.99 2.99 0 0 0-2.989 2.989v6.438a2.99 2.99 0 0 0 2.989 2.989h8.918a2.99 2.99 0 0 0 2.988-2.989v-6.438a2.99 2.99 0 0 0-2.988-2.989"/><path fill="#000" d="M57.234 196.806h-8.91a4.41 4.41 0 0 1-4.402-4.402v-6.43a4.41 4.41 0 0 1 4.403-4.403h8.908a4.41 4.41 0 0 1 4.403 4.403v6.43a4.407 4.407 0 0 1-4.403 4.402m-8.91-12.416c-.867 0-1.574.707-1.574 1.575v6.429c0 .867.707 1.574 1.575 1.574h8.908c.868 0 1.575-.707 1.575-1.574v-6.429c0-.868-.707-1.575-1.575-1.575z"/><path fill="#FFFBE8" d="M74.693 182.976h-8.918a2.99 2.99 0 0 0-2.989 2.989v6.438a2.99 2.99 0 0 0 2.989 2.989h8.918a2.99 2.99 0 0 0 2.989-2.989v-6.438a2.99 2.99 0 0 0-2.989-2.989"/><path fill="#000" d="M74.684 196.806h-8.91a4.41 4.41 0 0 1-4.402-4.402v-6.43a4.41 4.41 0 0 1 4.403-4.403h8.909a4.41 4.41 0 0 1 4.402 4.403v6.43a4.407 4.407 0 0 1-4.402 4.402m-8.91-12.416c-.867 0-1.573.707-1.573 1.575v6.429c0 .867.707 1.574 1.574 1.574h8.909c.867 0 1.574-.707 1.574-1.574v-6.429c0-.868-.707-1.575-1.574-1.575z"/><path fill="#FFFBE8" d="M39.793 197.806h-8.919a2.99 2.99 0 0 0-2.988 2.988v6.439a2.99 2.99 0 0 0 2.988 2.989h8.918a2.99 2.99 0 0 0 2.989-2.989v-6.439a2.99 2.99 0 0 0-2.989-2.988"/><path fill="#000" d="M39.793 211.636h-8.91a4.41 4.41 0 0 1-4.402-4.403v-6.429a4.407 4.407 0 0 1 4.403-4.403h8.909a4.41 4.41 0 0 1 4.402 4.403v6.429a4.41 4.41 0 0 1-4.402 4.403m-8.919-12.416c-.867 0-1.574.707-1.574 1.574v6.43c0 .867.707 1.574 1.574 1.574h8.91c.867 0 1.574-.707 1.574-1.574v-6.43c0-.867-.707-1.574-1.575-1.574z"/><path fill="#FFFBE8" d="M57.243 197.806h-8.919a2.99 2.99 0 0 0-2.988 2.988v6.439a2.99 2.99 0 0 0 2.988 2.989h8.919a2.99 2.99 0 0 0 2.988-2.989v-6.439a2.99 2.99 0 0 0-2.988-2.988"/><path fill="#000" d="M57.233 211.636h-8.909a4.41 4.41 0 0 1-4.402-4.403v-6.429a4.41 4.41 0 0 1 4.402-4.403h8.91a4.41 4.41 0 0 1 4.402 4.403v6.429a4.41 4.41 0 0 1-4.403 4.403m-8.909-12.416c-.867 0-1.574.707-1.574 1.574v6.43c0 .867.707 1.574 1.574 1.574h8.91c.867 0 1.574-.707 1.574-1.574v-6.43c0-.867-.707-1.574-1.575-1.574z"/><path fill="#FFFBE8" d="M74.693 197.806h-8.918a2.99 2.99 0 0 0-2.989 2.988v6.439a2.99 2.99 0 0 0 2.989 2.989h8.918a2.99 2.99 0 0 0 2.988-2.989v-6.439a2.99 2.99 0 0 0-2.988-2.988"/><path fill="#000" d="M74.684 211.636h-8.91a4.41 4.41 0 0 1-4.402-4.403v-6.429a4.407 4.407 0 0 1 4.403-4.403h8.908a4.41 4.41 0 0 1 4.403 4.403v6.429a4.41 4.41 0 0 1-4.403 4.403m-8.91-12.416c-.867 0-1.574.707-1.574 1.574v6.43c0 .867.707 1.574 1.575 1.574h8.908c.868 0 1.575-.707 1.575-1.574v-6.43c0-.867-.707-1.574-1.575-1.574z"/><path fill="#FFFBE8" d="M39.793 212.644h-8.919a2.99 2.99 0 0 0-2.988 2.989v6.439a2.99 2.99 0 0 0 2.988 2.988h8.918a2.99 2.99 0 0 0 2.989-2.988v-6.439a2.99 2.99 0 0 0-2.989-2.989"/><path fill="#000" d="M39.793 226.474h-8.91a4.41 4.41 0 0 1-4.402-4.402v-6.43a4.407 4.407 0 0 1 4.403-4.402h8.909a4.407 4.407 0 0 1 4.402 4.402v6.43a4.407 4.407 0 0 1-4.402 4.402m-8.919-12.416c-.867 0-1.574.707-1.574 1.575v6.429c0 .868.707 1.575 1.574 1.575h8.91c.867 0 1.574-.707 1.574-1.575v-6.429c0-.868-.707-1.575-1.575-1.575z"/><path fill="#FFFBE8" d="M57.243 212.644h-8.919a2.99 2.99 0 0 0-2.988 2.989v6.439a2.99 2.99 0 0 0 2.988 2.988h8.919a2.99 2.99 0 0 0 2.988-2.988v-6.439a2.99 2.99 0 0 0-2.988-2.989"/><path fill="#000" d="M57.233 226.474h-8.909a4.41 4.41 0 0 1-4.402-4.402v-6.43a4.407 4.407 0 0 1 4.402-4.402h8.91a4.407 4.407 0 0 1 4.402 4.402v6.43a4.407 4.407 0 0 1-4.403 4.402m-8.909-12.416c-.867 0-1.574.707-1.574 1.575v6.429c0 .868.707 1.575 1.574 1.575h8.91c.867 0 1.574-.707 1.574-1.575v-6.429c0-.868-.707-1.575-1.575-1.575z"/><path fill="#FFFBE8" d="M74.693 212.644h-8.918a2.99 2.99 0 0 0-2.989 2.989v6.439a2.99 2.99 0 0 0 2.989 2.988h8.918a2.99 2.99 0 0 0 2.988-2.988v-6.439a2.99 2.99 0 0 0-2.988-2.989"/><path fill="#000" d="M74.684 226.474h-8.91a4.41 4.41 0 0 1-4.402-4.402v-6.43a4.407 4.407 0 0 1 4.403-4.402h8.908a4.407 4.407 0 0 1 4.403 4.402v6.43a4.407 4.407 0 0 1-4.403 4.402m-8.91-12.416c-.867 0-1.574.707-1.574 1.575v6.429c0 .868.707 1.575 1.575 1.575h8.908c.868 0 1.575-.707 1.575-1.575v-6.429c0-.868-.707-1.575-1.575-1.575z"/><path fill="#FFFBE8" d="M90.06 238.296H14.518v10.38H90.06z"/><path fill="#000" d="M92.21 239.71H12.924a1.41 1.41 0 0 1-1.414-1.414c0-.783.631-1.414 1.414-1.414h79.284c.783 0 1.414.631 1.414 1.414s-.631 1.414-1.414 1.414"/><path fill="#FFFBE8" d="M18.317 232.941v5.354h-5.392z"/><path fill="#000" d="M18.317 239.71h-5.401a1.418 1.418 0 0 1-1-2.423l5.402-5.355a1.41 1.41 0 0 1 1.537-.301c.528.216.867.735.867 1.301v5.354c0 .783-.632 1.414-1.414 1.414zm-1.96-2.828h.546v-.547z"/><path fill="#FFFBE8" d="M18.317 232.941v5.354h-5.392z"/><path fill="#000" d="M18.317 239.71h-5.401a1.418 1.418 0 0 1-1-2.423l5.402-5.355a1.41 1.41 0 0 1 1.537-.301c.528.216.867.735.867 1.301v5.354c0 .783-.632 1.414-1.414 1.414zm-1.96-2.828h.546v-.547z"/><path fill="#FFFBE8" d="M86.76 232.941v5.354h5.402z"/><path fill="#000" d="M92.162 239.709H86.76a1.41 1.41 0 0 1-1.414-1.414v-5.355a1.41 1.41 0 0 1 2.404-.999l5.402 5.355a1.418 1.418 0 0 1-1 2.423zm-3.988-2.828h.547l-.547-.547z"/><path fill="#FFFBE8" d="M178.036 243.537v20.137c0 .66.537 1.197 1.197 1.197h9.371c.66 0 1.197-.537 1.197-1.197v-20.137c0-.66-.537-1.197-1.197-1.197h-9.371c-.66 0-1.197.537-1.197 1.197"/><path fill="#000" d="M188.604 266.276h-9.371a2.61 2.61 0 0 1-2.611-2.611v-20.137a2.61 2.61 0 0 1 2.611-2.611h9.371a2.61 2.61 0 0 1 2.612 2.611v20.137a2.61 2.61 0 0 1-2.612 2.611m-9.154-2.828h8.937v-19.703h-8.937z"/><path fill="#000" d="M181.364 262.326a.946.946 0 0 1-.943-.943v-7.787c0-.518.425-.942.943-.942.519 0 .943.424.943.942v7.787a.945.945 0 0 1-.943.943"/><path fill="#000" d="M184.07 262.326a.945.945 0 0 1-.943-.943v-7.787c0-.518.424-.942.943-.942s.942.424.942.942v7.787a.945.945 0 0 1-.942.943"/><path fill="#000" d="M186.766 262.326a.945.945 0 0 1-.943-.943v-7.787c0-.518.424-.942.943-.942s.943.424.943.942v7.787a.946.946 0 0 1-.943.943"/><path fill="#000" d="M130.739 306.739c-30.036 0-54.471-18.958-54.471-42.272v-6.75h2.828v6.75c0 21.749 23.172 39.444 51.643 39.444s51.643-17.695 51.643-39.444h2.829c0 23.304-24.436 42.272-54.472 42.272"/><path fill="#FFFBE8" d="M232.696 257.141h2.536c.575 0 1.047.462 1.047 1.046v9.711l2.837 6.486h-2.46l-2.876-6.552h-8.55"/><path fill="#000" d="M239.116 275.798h-2.46a1.4 1.4 0 0 1-1.292-.849l-2.498-5.704h-7.627a1.41 1.41 0 0 1-1.414-1.414c0-.782.632-1.414 1.414-1.414h8.551c.424 0 .811.189 1.075.5v-8.362h-2.169a1.413 1.413 0 0 1-1.414-1.414c0-.783.632-1.414 1.414-1.414h2.536a2.46 2.46 0 0 1 2.461 2.46v9.418l2.715 6.213a1.41 1.41 0 0 1-.113 1.338 1.43 1.43 0 0 1-1.188.642z"/><path fill="#FFFBE8" d="M225.126 258.027v14.933c0 .49.396.886.886.886h6.948c.49 0 .886-.396.886-.886v-14.933a.885.885 0 0 0-.886-.886h-6.948a.885.885 0 0 0-.886.886"/><path fill="#000" d="M232.96 275.26h-6.948a2.304 2.304 0 0 1-2.3-2.3v-14.933c0-1.273 1.028-2.3 2.3-2.3h6.948c1.273 0 2.3 1.037 2.3 2.3v14.933c0 1.273-1.027 2.3-2.3 2.3m-6.42-2.828h5.892v-13.877h-5.892z"/><path fill="#FFFBE8" d="M231.093 257.443v4.827h-3.214v-4.827"/><path fill="#000" d="M231.093 263.212h-3.214a.945.945 0 0 1-.943-.943v-4.826c0-.519.424-.943.943-.943s.942.424.942.943v3.884h1.33v-3.884c0-.519.424-.943.942-.943.519 0 .943.424.943.943v4.826a.945.945 0 0 1-.943.943"/><path fill="#FFFBE8" d="M640.525 189.519h-65.238a7.06 7.06 0 0 0-7.061 7.061v64.172c0 3.9 3.162 7.061 7.061 7.061h65.238a7.06 7.06 0 0 0 7.061-7.061V196.58a7.06 7.06 0 0 0-7.061-7.061"/><path fill="#000" d="M640.525 269.227h-65.238c-4.676 0-8.475-3.799-8.475-8.475V196.58c0-4.676 3.799-8.475 8.475-8.475h65.238c4.676 0 8.475 3.799 8.475 8.475v64.172c0 4.676-3.799 8.475-8.475 8.475m-65.238-78.294a5.657 5.657 0 0 0-5.647 5.647v64.172a5.657 5.657 0 0 0 5.647 5.647h65.238a5.657 5.657 0 0 0 5.647-5.647V196.58a5.657 5.657 0 0 0-5.647-5.647z"/><path fill="#FFFBE8" d="M326.122 258.829h-6.609a.537.537 0 0 0-.537.537v12.416c0 .297.24.538.537.538h6.609a.54.54 0 0 0 .537-.538v-12.416a.54.54 0 0 0-.537-.537"/><path fill="#000" d="M326.122 273.733h-6.609a1.954 1.954 0 0 1-1.951-1.951v-12.416c0-1.075.876-1.951 1.951-1.951h6.609c1.074 0 1.951.876 1.951 1.951v12.416a1.955 1.955 0 0 1-1.951 1.951m-5.732-2.828h4.855v-10.662h-4.855z"/><path fill="#FFFBE8" d="M515.754 80.642H318.636c-12.173 0-22.041 9.869-22.041 22.042v143.192c0 12.173 9.868 22.041 22.041 22.041h197.118c12.173 0 22.041-9.868 22.041-22.041V102.684c0-12.173-9.868-22.042-22.041-22.042"/><path fill="#000" d="M515.754 269.331H318.627c-12.934 0-23.455-10.521-23.455-23.455V102.683c0-12.934 10.521-23.455 23.455-23.455h197.127c12.934 0 23.455 10.521 23.455 23.455v143.193c0 12.934-10.521 23.455-23.455 23.455M318.627 82.056c-11.37 0-20.627 9.249-20.627 20.627v143.193c0 11.369 9.248 20.627 20.627 20.627h197.127c11.369 0 20.627-9.248 20.627-20.627V102.683c0-11.369-9.249-20.627-20.627-20.627z"/><path fill="#FFFBE8" d="M513.877 221.205H321.964c-6.128 0-11.096 4.967-11.096 11.096v15.432c0 6.128 4.968 11.096 11.096 11.096h191.913c6.128 0 11.096-4.968 11.096-11.096v-15.432c0-6.129-4.968-11.096-11.096-11.096"/><path fill="#000" d="M513.877 260.243H321.973c-6.9 0-12.51-5.618-12.51-12.51V232.31c0-6.901 5.619-12.51 12.51-12.51h191.904c6.901 0 12.51 5.619 12.51 12.51v15.423c0 6.901-5.618 12.51-12.51 12.51m-191.904-37.624c-5.345 0-9.681 4.346-9.681 9.682v15.423c0 5.345 4.346 9.682 9.681 9.682h191.904c5.346 0 9.682-4.346 9.682-9.682v-15.423c0-5.346-4.346-9.682-9.682-9.682z"/><path fill="#EE6DBB" d="M478.421 239.107h-1.574v-2.951h-3.658v-1.857h-4.12v1.857h-3.573v2.951h-1.555v2.894h1.555v2.612h11.351v-2.612h1.574z"/><path fill="#000" d="M476.847 246.027h-11.351a1.413 1.413 0 0 1-1.414-1.414v-1.198h-.141a1.41 1.41 0 0 1-1.415-1.414v-2.894c0-.782.632-1.414 1.415-1.414h.141v-1.527c0-.783.632-1.414 1.414-1.414h2.159v-.453c0-.782.632-1.414 1.414-1.414h4.12c.782 0 1.414.632 1.414 1.414v.453h2.244c.782 0 1.414.631 1.414 1.414v1.527h.16c.782 0 1.414.632 1.414 1.414v2.894c0 .783-.632 1.414-1.414 1.414h-.16v1.198c0 .782-.632 1.414-1.414 1.414m-9.937-2.829h8.523v-1.197c0-.782.631-1.414 1.414-1.414h.16v-.066h-.16a1.41 1.41 0 0 1-1.414-1.414v-1.527h-2.244a1.41 1.41 0 0 1-1.414-1.414v-.453h-1.292v.453c0 .782-.631 1.414-1.414 1.414h-2.159v1.527c0 .782-.631 1.414-1.414 1.414h-.141v.066h.141c.783 0 1.414.632 1.414 1.414z"/><path fill="#FFFBE8" d="M461.414 239.107h-1.574v-2.951h-3.658v-1.857h-4.12v1.857h-3.573v2.951h-1.555v2.894h1.555v2.612h11.351v-2.612h1.574z"/><path fill="#000" d="M461.254 246.027h-14.179v-2.612h-1.555v-5.722h1.555v-2.941h3.573v-1.867h6.948v1.867h3.658v2.941h1.574v5.722h-1.574zm-11.351-2.829h8.523v-2.611H460v-.066h-1.574v-2.941h-3.658v-1.867h-1.292v1.867h-3.573v2.941h-1.555v.066h1.555z"/><path fill="#FFFBE8" d="M352.509 244.622h11.35v-8.456h-11.35z"/><path fill="#000" d="M365.283 246.027h-14.179v-11.285h14.179zm-11.351-2.829h8.523v-5.628h-8.523z"/><path fill="#FFFBE8" d="M350.954 242.002h14.48v-2.894h-14.48z"/><path fill="#000" d="M366.857 243.416h-17.308v-5.722h17.308zm-14.48-2.828h11.652v-.066h-11.652z"/><path fill="#FFFBE8" d="M360.211 244.622v-10.323h-4.12v10.323z"/><path fill="#000" d="M361.625 246.027h-6.948v-13.151h6.948zm-4.119-2.828h1.291v-7.495h-1.291z"/><path fill="#FFFBE8" d="M335.511 244.622h11.351v-8.456h-11.351z"/><path fill="#000" d="M348.276 246.027h-14.179v-11.285h14.179zm-11.351-2.829h8.523v-5.628h-8.523z"/><path fill="#FFFBE8" d="M333.956 242.002h14.48v-2.894h-14.48z"/><path fill="#000" d="M349.85 243.416h-17.308v-5.722h17.308zm-14.48-2.828h11.652v-.066H335.37z"/><path fill="#FFFBE8" d="M343.204 244.622v-10.323h-4.12v10.323z"/><path fill="#000" d="M344.618 246.027h-6.948v-13.151h6.948zm-4.12-2.828h1.292v-7.495h-1.292z"/><path fill="#FFFBE8" d="M318.504 244.622h11.351v-8.456h-11.351z"/><path fill="#000" d="M331.269 246.027H317.09v-11.285h14.179zm-11.351-2.829h8.523v-5.628h-8.523z"/><path fill="#FFFBE8" d="M316.949 242.002h14.48v-2.894h-14.48z"/><path fill="#000" d="M332.843 243.416h-17.308v-5.722h17.308zm-14.48-2.828h11.652v-.066h-11.652z"/><path fill="#FFFBE8" d="M326.197 244.613V234.29h-4.12v10.323z"/><path fill="#000" d="M327.611 246.027h-6.948v-13.151h6.948zm-4.119-2.828h1.291v-7.495h-1.291z"/><path fill="#FFFBE8" d="M365.443 239.107h-1.574v-2.951h-3.658v-1.857h-4.12v1.857h-3.573v2.951h-1.555v2.894h1.555v2.612h11.351v-2.612h1.574z"/><path fill="#000" d="M365.283 246.027h-14.179v-2.612h-1.555v-5.722h1.555v-2.941h3.573v-1.867h6.948v1.867h3.658v2.941h1.574v5.722h-1.574zm-11.351-2.829h8.523v-2.611h1.574v-.066h-1.574v-2.941h-3.658v-1.867h-1.292v1.867h-3.573v2.941h-1.555v.066h1.555z"/><path fill="#8CBA3B" d="M348.436 239.107h-1.574v-2.951h-3.658v-1.857h-4.12v1.857h-3.573v2.951h-1.555v2.894h1.555v2.612h11.351v-2.612h1.574z"/><path fill="#000" d="M346.862 246.027h-11.351a1.413 1.413 0 0 1-1.414-1.414v-1.198h-.141a1.41 1.41 0 0 1-1.414-1.414v-2.894c0-.782.631-1.414 1.414-1.414h.141v-1.527c0-.783.632-1.414 1.414-1.414h2.159v-.453c0-.782.632-1.414 1.414-1.414h4.12c.782 0 1.414.632 1.414 1.414v.453h2.244c.782 0 1.414.631 1.414 1.414v1.527h.16c.783 0 1.414.632 1.414 1.414v2.894c0 .783-.631 1.414-1.414 1.414h-.16v1.198c0 .782-.632 1.414-1.414 1.414m-9.937-2.829h8.523v-1.197c0-.782.631-1.414 1.414-1.414h.16v-.066h-.16a1.41 1.41 0 0 1-1.414-1.414v-1.527h-2.244a1.413 1.413 0 0 1-1.414-1.414v-.453h-1.292v.453c0 .782-.631 1.414-1.414 1.414h-2.159v1.527c0 .782-.631 1.414-1.414 1.414h-.141v.066h.141c.783 0 1.414.632 1.414 1.414z"/><path fill="#8CBA3B" d="M331.429 239.107h-1.574v-2.951h-3.658v-1.857h-4.12v1.857h-3.573v2.951h-1.555v2.894h1.555v2.612h11.351v-2.612h1.574z"/><path fill="#000" d="M329.855 246.027h-11.351a1.413 1.413 0 0 1-1.414-1.414v-1.198h-.141a1.41 1.41 0 0 1-1.414-1.414v-2.894c0-.782.631-1.414 1.414-1.414h.141v-1.527c0-.783.632-1.414 1.414-1.414h2.159v-.453c0-.782.632-1.414 1.414-1.414h4.12c.783 0 1.414.632 1.414 1.414v.453h2.244c.782 0 1.414.631 1.414 1.414v1.527h.16c.783 0 1.414.632 1.414 1.414v2.894c0 .783-.631 1.414-1.414 1.414h-.16v1.198c0 .782-.632 1.414-1.414 1.414m-9.937-2.829h8.523v-1.197c0-.782.631-1.414 1.414-1.414h.16v-.066h-.16a1.41 1.41 0 0 1-1.414-1.414v-1.527h-2.244a1.413 1.413 0 0 1-1.414-1.414v-.453h-1.292v.453c0 .782-.631 1.414-1.414 1.414h-2.159v1.527c0 .782-.631 1.414-1.414 1.414h-.141v.066h.141c.783 0 1.414.632 1.414 1.414z"/><path fill="#FFFBE8" d="M444.671 239.107h-1.574v-2.951h-3.658v-1.857h-4.12v1.857h-3.573v2.951h-1.556v2.894h1.556v2.612h11.351v-2.612h1.574z"/><path fill="#000" d="M444.511 246.027h-14.179v-2.612h-1.556v-5.722h1.556v-2.941h3.573v-1.867h6.948v1.867h3.658v2.941h1.574v5.722h-1.574zm-11.351-2.829h8.522v-2.611h1.575v-.066h-1.575v-2.941h-3.657v-1.867h-1.292v1.867h-3.573v2.941h-1.555v.066h1.555z"/><path fill="#FFFBE8" d="M427.664 239.107h-1.574v-2.951h-3.658v-1.857h-4.12v1.857h-3.573v2.951h-1.555v2.894h1.555v2.612h11.351v-2.612h1.574z"/><path fill="#000" d="M427.504 246.027h-14.179v-2.612h-1.556v-5.722h1.556v-2.941h3.573v-1.867h6.948v1.867h3.658v2.941h1.574v5.722h-1.574zm-11.351-2.829h8.523v-2.611h1.574v-.066h-1.574v-2.941h-3.658v-1.867h-1.292v1.867h-3.573v2.941h-1.555v.066h1.555z"/><path fill="#FFFBE8" d="M410.657 239.107h-1.575v-2.951h-3.657v-1.857h-4.12v1.857h-3.573v2.951h-1.556v2.894h1.556v2.612h11.35v-2.612h1.575z"/><path fill="#000" d="M410.497 246.027h-14.179v-2.612h-1.556v-5.722h1.556v-2.941h3.573v-1.867h6.948v1.867h3.658v2.941h1.574v5.722h-1.574zm-11.351-2.829h8.522v-2.611h1.575v-.066h-1.575v-2.941h-3.657v-1.867h-1.292v1.867h-3.573v2.941h-1.556v.066h1.556z"/><path fill="#FFFBE8" d="M488.782 149.424H343.789a4.64 4.64 0 0 0-4.639 4.638v40.217a4.64 4.64 0 0 0 4.639 4.638h144.993a4.64 4.64 0 0 0 4.638-4.638v-40.217a4.64 4.64 0 0 0-4.638-4.638"/><path fill="#000" d="M488.791 200.332H343.789a6.06 6.06 0 0 1-6.053-6.053v-40.226a6.06 6.06 0 0 1 6.053-6.053h145.002a6.06 6.06 0 0 1 6.053 6.053v40.226a6.06 6.06 0 0 1-6.053 6.053m-145.002-49.494a3.23 3.23 0 0 0-3.225 3.224v40.227a3.23 3.23 0 0 0 3.225 3.224h145.002a3.23 3.23 0 0 0 3.224-3.224v-40.227a3.23 3.23 0 0 0-3.224-3.224z"/><path fill="#000" d="M316.289 129.42a1.41 1.41 0 0 1-1.414-1.414V93.85c0-.782.631-1.414 1.414-1.414s1.414.632 1.414 1.414v34.156c0 .782-.632 1.414-1.414 1.414"/><path fill="#000" d="M324.048 129.42a1.41 1.41 0 0 1-1.414-1.414V93.85c0-.782.631-1.414 1.414-1.414s1.414.632 1.414 1.414v34.156c0 .782-.632 1.414-1.414 1.414"/><path fill="#000" d="M331.806 129.42a1.413 1.413 0 0 1-1.414-1.414V93.85c0-.782.632-1.414 1.414-1.414.783 0 1.414.632 1.414 1.414v34.156c0 .782-.631 1.414-1.414 1.414"/><path fill="#000" d="M339.565 129.42a1.413 1.413 0 0 1-1.414-1.414V93.85c0-.782.632-1.414 1.414-1.414s1.414.632 1.414 1.414v34.156c0 .782-.632 1.414-1.414 1.414"/><path fill="#000" d="M347.324 129.42a1.41 1.41 0 0 1-1.414-1.414V93.85c0-.782.631-1.414 1.414-1.414s1.414.632 1.414 1.414v34.156c0 .782-.632 1.414-1.414 1.414"/><path fill="#000" d="M355.083 129.42a1.413 1.413 0 0 1-1.415-1.414V93.85c0-.782.632-1.414 1.415-1.414.782 0 1.414.632 1.414 1.414v34.156c0 .782-.632 1.414-1.414 1.414"/><path fill="#000" d="M362.841 129.42a1.413 1.413 0 0 1-1.414-1.414V93.85c0-.782.632-1.414 1.414-1.414.783 0 1.415.632 1.415 1.414v34.156c0 .782-.632 1.414-1.415 1.414"/><path fill="#000" d="M370.6 129.42a1.413 1.413 0 0 1-1.414-1.414V93.85c0-.782.632-1.414 1.414-1.414.783 0 1.414.632 1.414 1.414v34.156c0 .782-.631 1.414-1.414 1.414"/><path fill="#000" d="M378.359 129.42a1.41 1.41 0 0 1-1.414-1.414V93.85c0-.782.631-1.414 1.414-1.414s1.414.632 1.414 1.414v34.156c0 .782-.632 1.414-1.414 1.414"/><path fill="#000" d="M386.118 129.42a1.413 1.413 0 0 1-1.415-1.414V93.85c0-.782.632-1.414 1.415-1.414.782 0 1.414.632 1.414 1.414v34.156c0 .782-.632 1.414-1.414 1.414"/><path fill="#000" d="M393.876 129.42a1.413 1.413 0 0 1-1.414-1.414V93.85c0-.782.632-1.414 1.414-1.414.783 0 1.414.632 1.414 1.414v34.156c0 .782-.631 1.414-1.414 1.414"/><path fill="#000" d="M401.635 129.42a1.413 1.413 0 0 1-1.414-1.414V93.85c0-.782.632-1.414 1.414-1.414.783 0 1.414.632 1.414 1.414v34.156c0 .782-.631 1.414-1.414 1.414"/><path fill="#000" d="M409.394 129.42a1.41 1.41 0 0 1-1.414-1.414V93.85c0-.782.631-1.414 1.414-1.414s1.414.632 1.414 1.414v34.156c0 .782-.632 1.414-1.414 1.414"/><path fill="#000" d="M417.152 129.42a1.413 1.413 0 0 1-1.414-1.414V93.85c0-.782.632-1.414 1.414-1.414.783 0 1.415.632 1.415 1.414v34.156c0 .782-.632 1.414-1.415 1.414"/><path fill="#000" d="M424.911 129.42a1.413 1.413 0 0 1-1.414-1.414V93.85c0-.782.632-1.414 1.414-1.414.783 0 1.414.632 1.414 1.414v34.156c0 .782-.631 1.414-1.414 1.414"/><path fill="#000" d="M432.67 129.42a1.41 1.41 0 0 1-1.414-1.414V93.85c0-.782.631-1.414 1.414-1.414s1.414.632 1.414 1.414v34.156c0 .782-.632 1.414-1.414 1.414"/><path fill="#000" d="M440.429 129.42a1.413 1.413 0 0 1-1.415-1.414V93.85c0-.782.632-1.414 1.415-1.414.782 0 1.414.632 1.414 1.414v34.156c0 .782-.632 1.414-1.414 1.414"/><path fill="#000" d="M448.187 129.42a1.413 1.413 0 0 1-1.414-1.414V93.85c0-.782.632-1.414 1.414-1.414.783 0 1.415.632 1.415 1.414v34.156c0 .782-.632 1.414-1.415 1.414"/><path fill="#000" d="M455.946 129.42a1.413 1.413 0 0 1-1.414-1.414V93.85c0-.782.632-1.414 1.414-1.414.783 0 1.414.632 1.414 1.414v34.156c0 .782-.631 1.414-1.414 1.414"/><path fill="#000" d="M463.705 129.42a1.413 1.413 0 0 1-1.414-1.414V93.85c0-.782.632-1.414 1.414-1.414s1.414.632 1.414 1.414v34.156c0 .782-.632 1.414-1.414 1.414"/><path fill="#000" d="M471.464 129.42a1.41 1.41 0 0 1-1.414-1.414V93.85c0-.782.631-1.414 1.414-1.414s1.414.632 1.414 1.414v34.156c0 .782-.632 1.414-1.414 1.414"/><path fill="#000" d="M479.223 129.42a1.413 1.413 0 0 1-1.415-1.414V93.85c0-.782.632-1.414 1.415-1.414.782 0 1.414.632 1.414 1.414v34.156c0 .782-.632 1.414-1.414 1.414"/><path fill="#000" d="M486.981 129.42a1.413 1.413 0 0 1-1.414-1.414V93.85c0-.782.632-1.414 1.414-1.414.783 0 1.414.632 1.414 1.414v34.156c0 .782-.631 1.414-1.414 1.414"/><path fill="#000" d="M494.74 129.42a1.41 1.41 0 0 1-1.414-1.414V93.85c0-.782.631-1.414 1.414-1.414s1.414.632 1.414 1.414v34.156c0 .782-.632 1.414-1.414 1.414"/><path fill="#000" d="M502.499 129.42a1.41 1.41 0 0 1-1.414-1.414V93.85c0-.782.631-1.414 1.414-1.414s1.414.632 1.414 1.414v34.156c0 .782-.632 1.414-1.414 1.414"/><path fill="#000" d="M510.257 129.42a1.413 1.413 0 0 1-1.414-1.414V93.85c0-.782.632-1.414 1.414-1.414.783 0 1.414.632 1.414 1.414v34.156c0 .782-.631 1.414-1.414 1.414"/><path fill="#000" d="M518.016 129.42a1.413 1.413 0 0 1-1.414-1.414V93.85c0-.782.632-1.414 1.414-1.414s1.414.632 1.414 1.414v34.156c0 .782-.632 1.414-1.414 1.414"/><path fill="#FFFBE8" d="M518.016 166.196v-4.837a3.404 3.404 0 0 0-3.394-3.394 3.405 3.405 0 0 0-3.394 3.394v4.912a8.11 8.11 0 0 0-4.628 7.325 8.108 8.108 0 1 0 16.215 0 8.11 8.11 0 0 0-4.789-7.391z"/><path fill="#000" d="M514.698 183.108c-5.251 0-9.522-4.271-9.522-9.522 0-3.346 1.791-6.457 4.629-8.164v-4.063a4.816 4.816 0 0 1 4.808-4.808 4.816 4.816 0 0 1 4.808 4.808v3.978a9.55 9.55 0 0 1 4.789 8.259c0 5.251-4.271 9.521-9.522 9.521zm-.076-23.729a1.98 1.98 0 0 0-1.98 1.98v4.912a1.39 1.39 0 0 1-.81 1.272 6.74 6.74 0 0 0-3.828 6.043c0 3.686 2.998 6.694 6.694 6.694a6.695 6.695 0 0 0 6.693-6.694 6.7 6.7 0 0 0-3.95-6.099 1.42 1.42 0 0 1-.839-1.292v-4.836a1.98 1.98 0 0 0-1.98-1.98"/><path fill="#FFFBE8" d="M322.294 166.196v-4.837a3.404 3.404 0 0 0-3.394-3.394 3.405 3.405 0 0 0-3.394 3.394v4.912a8.11 8.11 0 0 0 3.479 15.433 8.105 8.105 0 0 0 3.318-15.499z"/><path fill="#000" d="M318.976 183.108c-5.252 0-9.522-4.271-9.522-9.522 0-3.346 1.791-6.457 4.629-8.164v-4.063a4.816 4.816 0 0 1 4.808-4.808 4.816 4.816 0 0 1 4.808 4.808v3.978a9.55 9.55 0 0 1 4.789 8.259c0 5.251-4.271 9.521-9.522 9.521zm-.085-23.729a1.98 1.98 0 0 0-1.98 1.98v4.912a1.39 1.39 0 0 1-.811 1.272 6.74 6.74 0 0 0-3.827 6.043c0 3.686 2.998 6.694 6.693 6.694a6.695 6.695 0 0 0 6.694-6.694 6.7 6.7 0 0 0-3.951-6.099 1.42 1.42 0 0 1-.839-1.292v-4.836a1.98 1.98 0 0 0-1.979-1.98"/><path fill="#FFFBE8" d="M496.871 234.299h-9.55v11.898h9.55z"/><path fill="#000" d="M496.871 247.61h-9.55a1.41 1.41 0 0 1-1.415-1.414v-11.897c0-.782.632-1.414 1.415-1.414h9.55c.782 0 1.414.632 1.414 1.414v11.897c0 .783-.632 1.414-1.414 1.414m-8.136-2.828h6.721v-9.069h-6.721z"/><path fill="#FFFBE8" d="M514.17 245.933a5.015 5.015 0 1 0-.001-10.031 5.015 5.015 0 0 0 .001 10.031"/><path fill="#000" d="M514.17 247.347a6.44 6.44 0 0 1-6.43-6.43 6.44 6.44 0 0 1 6.43-6.429 6.44 6.44 0 0 1 6.429 6.429 6.44 6.44 0 0 1-6.429 6.43m0-10.031a3.602 3.602 0 1 0 0 7.203 3.602 3.602 0 0 0 0-7.203"/><path fill="#FFFBE8" d="M389.926 230.273h-7.956v16.064h7.956z"/><path fill="#000" d="M389.926 247.751h-7.956a1.41 1.41 0 0 1-1.415-1.414v-16.064c0-.783.632-1.414 1.415-1.414h7.956c.783 0 1.414.631 1.414 1.414v16.064c0 .783-.631 1.414-1.414 1.414m-6.542-2.828h5.128v-13.236h-5.128z"/><path fill="#FFFBE8" d="M590.494 258.217h34.815a7.54 7.54 0 0 0 7.542-7.542v-44.007a7.54 7.54 0 0 0-7.542-7.542h-34.815a7.54 7.54 0 0 0-7.542 7.542v44.007a7.54 7.54 0 0 0 7.542 7.542"/><path fill="#000" d="M625.319 259.631h-34.825c-4.94 0-8.956-4.017-8.956-8.956v-44.017c0-4.94 4.016-8.956 8.956-8.956h34.825c4.94 0 8.956 4.016 8.956 8.956v44.017c0 4.939-4.016 8.956-8.956 8.956m-34.825-59.101a6.134 6.134 0 0 0-6.128 6.128v44.017a6.133 6.133 0 0 0 6.128 6.127h34.825a6.133 6.133 0 0 0 6.127-6.127v-44.017a6.133 6.133 0 0 0-6.127-6.128z"/><path fill="#000" d="M562.24 321.408c-26.406 0-47.891-21.485-47.891-47.891 0-.783.632-1.414 1.414-1.414s1.414.631 1.414 1.414c0 24.85 20.212 45.063 45.063 45.063s45.063-20.213 45.063-45.063c0-.783.632-1.414 1.414-1.414s1.414.631 1.414 1.414c0 26.406-21.485 47.891-47.891 47.891"/><path fill="#FFFBE8" d="M590.494 258.217h34.815a7.54 7.54 0 0 0 7.542-7.542v-44.007a7.54 7.54 0 0 0-7.542-7.542h-34.815a7.54 7.54 0 0 0-7.542 7.542v44.007a7.54 7.54 0 0 0 7.542 7.542"/><path fill="#000" d="M625.319 259.631h-34.825c-4.94 0-8.956-4.017-8.956-8.956v-44.017c0-4.94 4.016-8.956 8.956-8.956h34.825c4.94 0 8.956 4.016 8.956 8.956v44.017c0 4.939-4.016 8.956-8.956 8.956m-34.825-59.101a6.134 6.134 0 0 0-6.128 6.128v44.017a6.133 6.133 0 0 0 6.128 6.127h34.825a6.133 6.133 0 0 0 6.127-6.127v-44.017a6.133 6.133 0 0 0-6.127-6.128z"/><path fill="#FFFBE8" d="M609.207 276.6h-1.046a2.8 2.8 0 0 1-2.8-2.8v-14.471c0-.302.245-.538.537-.538h5.562c.302 0 .538.246.538.538V273.8a2.8 2.8 0 0 1-2.8 2.8z"/><path fill="#000" d="M609.217 278.014h-1.047a4.22 4.22 0 0 1-4.214-4.214v-14.471c0-1.075.877-1.951 1.952-1.951h5.562c1.074 0 1.951.876 1.951 1.951V273.8a4.22 4.22 0 0 1-4.214 4.214zm-2.433-17.808V273.8c0 .764.622 1.386 1.386 1.386h1.047c.763 0 1.385-.622 1.385-1.386v-13.594z"/><path fill="#FFFBE8" d="M513.33 254.437v10.606h4.789v-10.606z"/><path fill="#000" d="M518.129 266.466h-4.789c-.377 0-.735-.151-.999-.415a1.4 1.4 0 0 1-.415-.999v-10.606c0-.783.631-1.414 1.414-1.414h4.789c.377 0 .735.151.999.415s.415.622.415.999v10.606c0 .782-.632 1.414-1.414 1.414m-3.375-2.828h1.961v-7.778h-1.961z"/><path fill="#FFFBE8" d="M575.646 231.16a2.49 2.49 0 1 0 0-4.978 2.49 2.49 0 0 0 0 4.978"/><path fill="#000" d="M575.646 232.574a3.91 3.91 0 0 1-3.903-3.903 3.91 3.91 0 0 1 3.903-3.903 3.91 3.91 0 0 1 3.903 3.903 3.91 3.91 0 0 1-3.903 3.903m0-4.987a1.075 1.075 0 1 0 0 2.15 1.075 1.075 0 0 0 0-2.15"/><path fill="#FFFBE8" d="M511.926 259.141h7.617v9.022l-.961 1.791v3.582h-5.374v-3.582l-1.282-1.735z"/><path fill="#000" d="M518.582 274.95h-5.374a1.41 1.41 0 0 1-1.414-1.414v-3.12l-.999-1.348a1.4 1.4 0 0 1-.274-.839v-9.088c0-.783.632-1.415 1.414-1.415h7.618c.782 0 1.414.632 1.414 1.415v9.022c0 .235-.057.462-.17.669l-.792 1.48v3.224c0 .783-.631 1.414-1.414 1.414zm-3.96-2.828h2.546v-2.168q0-.356.169-.67l.792-1.48v-7.249h-4.789v7.202l.999 1.348c.179.245.274.538.274.839v2.169z"/><path fill="#FFFBE8" d="M355.205 255.312h-2.649c-.603 0-1.084.49-1.084 1.084v10.125l-2.96 6.76h2.564l2.988-6.826h8.909"/><path fill="#000" d="M351.076 274.695h-2.564a1.43 1.43 0 0 1-1.188-.641 1.41 1.41 0 0 1-.113-1.339l2.837-6.486v-9.823a2.5 2.5 0 0 1 2.498-2.498h2.65c.782 0 1.414.631 1.414 1.414s-.632 1.414-1.414 1.414h-2.32v8.956a1.4 1.4 0 0 1 1.188-.641h8.909c.783 0 1.414.631 1.414 1.414s-.631 1.414-1.414 1.414h-7.985l-2.621 5.977a1.41 1.41 0 0 1-1.291.848z"/><path fill="#FFFBE8" d="M363.096 256.237v15.565a.926.926 0 0 1-.924.924h-7.24a.926.926 0 0 1-.924-.924v-15.565c0-.509.415-.924.924-.924h7.24c.509 0 .924.415.924.924"/><path fill="#000" d="M362.172 274.139h-7.24a2.337 2.337 0 0 1-2.338-2.338v-15.564a2.337 2.337 0 0 1 2.338-2.338h7.24a2.34 2.34 0 0 1 2.338 2.338v15.564a2.34 2.34 0 0 1-2.338 2.338m-6.75-2.828h6.269v-14.584h-6.269z"/><path fill="#FFFBE8" d="M356.874 255.615v5.034h3.356v-5.034"/><path fill="#000" d="M360.23 261.592h-3.356a.946.946 0 0 1-.943-.943v-5.034c0-.519.424-.943.943-.943s.942.424.942.943v4.091h1.471v-4.091c0-.519.424-.943.943-.943s.943.424.943.943v5.034a.947.947 0 0 1-.943.943"/><path fill="#FFFBE8" d="M639.167 231.348a2.489 2.489 0 1 0 0-4.977 2.489 2.489 0 0 0 0 4.977"/><path fill="#000" d="M639.167 232.772a3.91 3.91 0 0 1-3.903-3.903 3.91 3.91 0 0 1 3.903-3.903 3.91 3.91 0 0 1 3.903 3.903 3.91 3.91 0 0 1-3.903 3.903m0-4.987a1.074 1.074 0 1 0 0 2.15 1.074 1.074 0 0 0 0-2.15"/></svg>