<svg xmlns="http://www.w3.org/2000/svg" width="487" height="458" fill="none" viewBox="0 0 487 458"><path fill="#FFFBE8" d="M401.366 1.502H84.126c-6.536 0-11.834 5.298-11.834 11.833v431.33c0 6.535 5.298 11.833 11.834 11.833h317.24c6.535 0 11.833-5.298 11.833-11.833V13.335c0-6.535-5.298-11.833-11.833-11.833"/><path fill="#000" d="M401.366 458H84.126c-7.359 0-13.336-5.987-13.336-13.335V13.335C70.79 5.977 76.777 0 84.125 0h317.231c7.358 0 13.335 5.987 13.335 13.335v431.32c0 7.358-5.987 13.335-13.335 13.335zM84.126 3.003c-5.697 0-10.332 4.636-10.332 10.332v431.32c0 5.696 4.635 10.332 10.332 10.332h317.23c5.696 0 10.331-4.636 10.331-10.332V13.335c0-5.696-4.635-10.332-10.331-10.332z"/><path fill="#FFFBE8" d="M250.244 23.767h-81.643V43.91h81.643z"/><path fill="#000" d="M250.254 45.422h-81.643a1.5 1.5 0 0 1-1.501-1.502V23.777a1.5 1.5 0 0 1 1.501-1.502h81.643a1.5 1.5 0 0 1 1.502 1.502V43.92a1.5 1.5 0 0 1-1.502 1.502m-80.151-3.004h78.639v-17.14h-78.639z"/><path fill="#FFFBE8" d="M316.88 28.012h-62.061v11.663h62.061z"/><path fill="#000" d="M316.89 41.177h-62.061a1.5 1.5 0 0 1-1.501-1.502V28.012a1.5 1.5 0 0 1 1.501-1.502h62.061a1.5 1.5 0 0 1 1.502 1.502v11.663a1.5 1.5 0 0 1-1.502 1.502m-60.569-3.004h59.057v-8.66h-59.057z"/><path fill="#FFFBE8" d="M248.832 48.865c8.2 0 14.847-6.647 14.847-14.846s-6.647-14.847-14.847-14.847-14.846 6.647-14.846 14.847 6.647 14.846 14.846 14.846"/><path fill="#000" d="M248.832 50.367c-9.01 0-16.348-7.328-16.348-16.348s7.328-16.349 16.348-16.349c9.021 0 16.349 7.328 16.349 16.349 0 9.02-7.328 16.348-16.349 16.348m0-29.694c-7.358 0-13.345 5.987-13.345 13.346 0 7.358 5.987 13.345 13.345 13.345s13.346-5.987 13.346-13.345-5.987-13.346-13.346-13.346"/><path fill="#000" d="M238.831 45.031c-.38 0-.771-.15-1.061-.44a1.49 1.49 0 0 1 0-2.123l20.013-20.013c.59-.59 1.541-.59 2.122 0a1.493 1.493 0 0 1 0 2.123l-20.013 20.013c-.29.29-.681.44-1.061.44"/><path fill="#000" d="M393.176 17.85h-68.918a1.5 1.5 0 0 1-1.502-1.501 1.5 1.5 0 0 1 1.502-1.502h68.918a1.5 1.5 0 0 1 1.502 1.502 1.5 1.5 0 0 1-1.502 1.501"/><path fill="#000" d="M93.496 269.406a1.5 1.5 0 0 1-1.502-1.502V246.34a1.5 1.5 0 0 1 1.502-1.502 1.5 1.5 0 0 1 1.502 1.502v21.564a1.5 1.5 0 0 1-1.502 1.502"/><path fill="#000" d="M102.887 269.406a1.5 1.5 0 0 1-1.502-1.502V246.34a1.5 1.5 0 0 1 1.502-1.502 1.5 1.5 0 0 1 1.502 1.502v21.564a1.5 1.5 0 0 1-1.502 1.502"/><path fill="#000" d="M109.464 269.406a1.5 1.5 0 0 1-1.501-1.502V246.34a1.5 1.5 0 0 1 1.501-1.502 1.5 1.5 0 0 1 1.502 1.502v21.564a1.5 1.5 0 0 1-1.502 1.502"/><path fill="#000" d="M116.032 269.406a1.5 1.5 0 0 1-1.502-1.502V246.34a1.5 1.5 0 0 1 1.502-1.502 1.5 1.5 0 0 1 1.501 1.502v21.564a1.5 1.5 0 0 1-1.501 1.502"/><path fill="#000" d="M125.422 269.406a1.5 1.5 0 0 1-1.501-1.502V246.34a1.5 1.5 0 0 1 1.501-1.502 1.5 1.5 0 0 1 1.502 1.502v21.564a1.5 1.5 0 0 1-1.502 1.502"/><path fill="#000" d="M134.813 269.406a1.5 1.5 0 0 1-1.502-1.502V246.34a1.5 1.5 0 0 1 1.502-1.502 1.5 1.5 0 0 1 1.502 1.502v21.564a1.5 1.5 0 0 1-1.502 1.502"/><path fill="#000" d="M141.38 269.406a1.5 1.5 0 0 1-1.501-1.502V246.34a1.5 1.5 0 0 1 1.501-1.502 1.5 1.5 0 0 1 1.502 1.502v21.564a1.5 1.5 0 0 1-1.502 1.502"/><path fill="#000" d="M147.958 269.406a1.5 1.5 0 0 1-1.502-1.502V246.34a1.5 1.5 0 0 1 1.502-1.502 1.5 1.5 0 0 1 1.502 1.502v21.564a1.5 1.5 0 0 1-1.502 1.502"/><path fill="#000" d="M157.339 269.406a1.5 1.5 0 0 1-1.502-1.502V246.34a1.5 1.5 0 0 1 1.502-1.502 1.5 1.5 0 0 1 1.501 1.502v21.564a1.5 1.5 0 0 1-1.501 1.502"/><path fill="#000" d="M166.729 269.406a1.5 1.5 0 0 1-1.501-1.502V246.34a1.5 1.5 0 0 1 1.501-1.502 1.5 1.5 0 0 1 1.502 1.502v21.564a1.5 1.5 0 0 1-1.502 1.502"/><path fill="#000" d="M173.307 269.406a1.5 1.5 0 0 1-1.502-1.502V246.34a1.5 1.5 0 0 1 1.502-1.502 1.5 1.5 0 0 1 1.502 1.502v21.564a1.5 1.5 0 0 1-1.502 1.502"/><path fill="#000" d="M179.874 269.406a1.5 1.5 0 0 1-1.502-1.502V246.34a1.5 1.5 0 0 1 1.502-1.502 1.5 1.5 0 0 1 1.502 1.502v21.564a1.5 1.5 0 0 1-1.502 1.502"/><path fill="#000" d="M189.265 269.406a1.5 1.5 0 0 1-1.502-1.502V246.34a1.5 1.5 0 0 1 1.502-1.502 1.5 1.5 0 0 1 1.502 1.502v21.564a1.5 1.5 0 0 1-1.502 1.502"/><path fill="#000" d="M198.655 269.406a1.5 1.5 0 0 1-1.501-1.502V246.34a1.5 1.5 0 0 1 1.501-1.502 1.5 1.5 0 0 1 1.502 1.502v21.564a1.5 1.5 0 0 1-1.502 1.502"/><path fill="#000" d="M205.223 269.406a1.5 1.5 0 0 1-1.502-1.502V246.34a1.5 1.5 0 0 1 1.502-1.502 1.5 1.5 0 0 1 1.502 1.502v21.564a1.5 1.5 0 0 1-1.502 1.502"/><path fill="#000" d="M214.614 269.406a1.5 1.5 0 0 1-1.502-1.502V246.34a1.5 1.5 0 0 1 1.502-1.502 1.5 1.5 0 0 1 1.501 1.502v21.564a1.5 1.5 0 0 1-1.501 1.502"/><path fill="#000" d="M224.004 269.406a1.5 1.5 0 0 1-1.501-1.502V246.34a1.5 1.5 0 0 1 1.501-1.502 1.5 1.5 0 0 1 1.502 1.502v21.564a1.5 1.5 0 0 1-1.502 1.502"/><path fill="#000" d="M230.572 269.406a1.5 1.5 0 0 1-1.502-1.502V246.34a1.5 1.5 0 0 1 1.502-1.502 1.5 1.5 0 0 1 1.502 1.502v21.564a1.5 1.5 0 0 1-1.502 1.502"/><path fill="#000" d="M237.149 269.406a1.5 1.5 0 0 1-1.502-1.502V246.34a1.5 1.5 0 0 1 1.502-1.502 1.5 1.5 0 0 1 1.502 1.502v21.564a1.5 1.5 0 0 1-1.502 1.502"/><path fill="#000" d="M246.53 269.406a1.5 1.5 0 0 1-1.502-1.502V246.34a1.5 1.5 0 0 1 1.502-1.502 1.5 1.5 0 0 1 1.502 1.502v21.564a1.5 1.5 0 0 1-1.502 1.502"/><path fill="#000" d="M166.729 283.202H93.496a1.5 1.5 0 0 1-1.502-1.502 1.5 1.5 0 0 1 1.502-1.502h73.233a1.5 1.5 0 0 1 1.502 1.502 1.5 1.5 0 0 1-1.502 1.502"/><path fill="#000" d="M391.995 295.926H261.567a1.5 1.5 0 0 1-1.502-1.502 1.5 1.5 0 0 1 1.502-1.501h130.428a1.5 1.5 0 0 1 1.502 1.501 1.5 1.5 0 0 1-1.502 1.502"/><path fill="#000" d="M391.995 309.712H231.082a1.5 1.5 0 0 1-1.501-1.502 1.5 1.5 0 0 1 1.501-1.502h160.913a1.5 1.5 0 0 1 1.502 1.502 1.5 1.5 0 0 1-1.502 1.502"/><path fill="#FFFBE8" d="M100.674 72.552h284.153a7.17 7.17 0 0 1 7.168 7.168v191.368a7.17 7.17 0 0 1-7.168 7.168h-68.898a7.17 7.17 0 0 1-7.169-7.168V163.486a7.167 7.167 0 0 0-7.168-7.169H100.684a7.167 7.167 0 0 1-7.168-7.168V79.721a7.167 7.167 0 0 1 7.168-7.169z"/><path fill="#000" d="M384.817 279.758h-68.898c-4.786 0-8.67-3.895-8.67-8.67V163.486a5.674 5.674 0 0 0-5.667-5.667H100.674c-4.785 0-8.67-3.894-8.67-8.67V79.721c0-4.786 3.895-8.67 8.67-8.67h284.153c4.785 0 8.67 3.894 8.67 8.67v191.367c0 4.785-3.895 8.67-8.67 8.67zM100.674 74.054a5.674 5.674 0 0 0-5.666 5.666v69.429a5.674 5.674 0 0 0 5.666 5.667h200.908c4.786 0 8.67 3.894 8.67 8.67v107.602a5.674 5.674 0 0 0 5.667 5.666h68.898a5.674 5.674 0 0 0 5.666-5.666V79.721a5.674 5.674 0 0 0-5.666-5.667H100.664z"/><path fill="#FFFBE8" d="M284.363 91.634H110.816v46.653h173.547z"/><path fill="#000" d="M284.363 139.789H110.816a1.5 1.5 0 0 1-1.502-1.502V91.634a1.5 1.5 0 0 1 1.502-1.502h173.547a1.5 1.5 0 0 1 1.502 1.502v46.653a1.5 1.5 0 0 1-1.502 1.502m-172.046-3.004h170.544v-43.65H112.317z"/><path fill="#6DB5C3" d="M356.465 128.045c12.689 0 22.976-10.286 22.976-22.976s-10.287-22.976-22.976-22.976-22.976 10.287-22.976 22.976c0 12.69 10.287 22.976 22.976 22.976"/><path fill="#000" d="M356.465 129.537c-13.495 0-24.478-10.982-24.478-24.478 0-13.495 10.983-24.477 24.478-24.477s24.478 10.982 24.478 24.477-10.983 24.478-24.478 24.478m0-45.942c-11.844 0-21.475 9.63-21.475 21.474s9.631 21.475 21.475 21.475c11.843 0 21.474-9.631 21.474-21.475 0-11.843-9.631-21.474-21.474-21.474"/><path fill="#FFFBE8" d="M365.505 264.821c10.444 0 18.911-22.313 18.911-49.837s-8.467-49.837-18.911-49.837-18.912 22.313-18.912 49.837 8.467 49.837 18.912 49.837"/><path fill="#000" d="M365.505 266.322c-11.443 0-20.413-22.545-20.413-51.338s8.97-51.338 20.413-51.338 20.413 22.545 20.413 51.338-8.97 51.338-20.413 51.338m0-99.673c-8.41 0-17.41 19.422-17.41 48.335s9 48.335 17.41 48.335 17.41-19.422 17.41-48.335-9.001-48.335-17.41-48.335"/><path fill="#FFFBE8" d="M372.223 194.841a6.717 6.717 0 0 0-6.718-6.717 6.717 6.717 0 0 0-6.718 6.717v40.286a6.718 6.718 0 0 0 13.436 0z"/><path fill="#000" d="M365.505 243.356c-4.535 0-8.219-3.684-8.219-8.219v-40.296c0-4.535 3.684-8.219 8.219-8.219s8.219 3.684 8.219 8.219v40.296c0 4.535-3.684 8.219-8.219 8.219m0-53.731a5.226 5.226 0 0 0-5.216 5.216v40.296a5.226 5.226 0 0 0 5.216 5.216 5.226 5.226 0 0 0 5.216-5.216v-40.296a5.226 5.226 0 0 0-5.216-5.216"/><path fill="#FFFBE8" d="m328.373 196.613-11.403 16.699h6.628v34.199h9.54v-34.199h6.628z"/><path fill="#000" d="M333.138 249.013h-9.541a1.5 1.5 0 0 1-1.501-1.502v-32.697h-5.126c-.561 0-1.071-.31-1.332-.801a1.49 1.49 0 0 1 .091-1.552l11.402-16.699c.561-.821 1.923-.821 2.483 0l11.403 16.699c.311.461.351 1.051.09 1.552-.26.501-.771.801-1.331.801h-5.126v32.697a1.5 1.5 0 0 1-1.502 1.502zm-8.039-3.004h6.538v-32.697c0-.831.67-1.501 1.501-1.501h3.785l-8.56-12.535-8.56 12.535h3.784a1.5 1.5 0 0 1 1.502 1.501v32.697z"/><path fill="#FFFBE8" d="M235.667 400.124v56.374h13.916v-56.374z"/><path fill="#000" d="M249.583 458h-13.916a1.5 1.5 0 0 1-1.501-1.502v-56.374a1.5 1.5 0 0 1 1.501-1.501h13.916a1.5 1.5 0 0 1 1.502 1.501v56.374a1.5 1.5 0 0 1-1.502 1.502m-12.414-3.003h10.913v-53.371h-10.913z"/><path fill="#FFFBE8" d="M238.591 368.188v28.773h8.049v-28.773z"/><path fill="#000" d="M246.65 398.462h-8.049a1.5 1.5 0 0 1-1.502-1.501v-28.773a1.5 1.5 0 0 1 1.502-1.502h8.049a1.5 1.5 0 0 1 1.502 1.502v28.773a1.5 1.5 0 0 1-1.502 1.501m-6.548-3.003h5.046V369.69h-5.046z"/><path fill="#FFFBE8" d="M242.746 411.347c5.661 0 10.251-4.59 10.251-10.252 0-5.661-4.59-10.251-10.251-10.251-5.662 0-10.252 4.59-10.252 10.251 0 5.662 4.59 10.252 10.252 10.252"/><path fill="#000" d="M242.746 412.849c-6.478 0-11.754-5.276-11.754-11.754s5.276-11.753 11.754-11.753 11.753 5.276 11.753 11.753-5.276 11.754-11.753 11.754m0-20.504c-4.826 0-8.75 3.925-8.75 8.75s3.924 8.75 8.75 8.75c4.825 0 8.75-3.924 8.75-8.75 0-4.825-3.925-8.75-8.75-8.75"/><path fill="#000" d="M249.313 409.505c-.38 0-.771-.15-1.061-.441l-13.816-13.815a1.494 1.494 0 0 1 0-2.123 1.494 1.494 0 0 1 2.123 0l13.815 13.816a1.49 1.49 0 0 1 0 2.122c-.29.291-.68.441-1.061.441"/><path fill="#000" d="M413.199 360.349H72.292a1.5 1.5 0 0 1-1.502-1.502 1.5 1.5 0 0 1 1.502-1.501h340.907a1.5 1.5 0 0 1 1.502 1.501 1.5 1.5 0 0 1-1.502 1.502"/><path fill="#000" d="M111.436 109.224c-.26 0-.51-.1-.71-.29L10.672 8.97a.997.997 0 1 1 1.412-1.411l100.053 99.963a.996.996 0 0 1-.711 1.702z"/><path fill="#6DB5C3" d="M26.46 2.353H5.596a4.595 4.595 0 0 0-4.595 4.595v15.558A4.595 4.595 0 0 0 5.596 27.1H26.46a4.595 4.595 0 0 0 4.595-4.595V6.948a4.595 4.595 0 0 0-4.595-4.595"/><path fill="#000" d="M26.47 28.102H5.596A5.606 5.606 0 0 1 0 22.506V6.938a5.606 5.606 0 0 1 5.596-5.596H26.47a5.606 5.606 0 0 1 5.596 5.596v15.568a5.606 5.606 0 0 1-5.596 5.596M5.596 3.354a3.6 3.6 0 0 0-3.594 3.594v15.568a3.6 3.6 0 0 0 3.594 3.594H26.47a3.597 3.597 0 0 0 3.594-3.594V6.948a3.6 3.6 0 0 0-3.594-3.594z"/><path fill="#000" d="M11.753 19.632q-1.155 0-2.012-.63c-.57-.42-1.021-1.011-1.332-1.792-.31-.771-.47-1.692-.47-2.744 0-1.05.16-1.982.47-2.753.31-.77.761-1.361 1.332-1.782.57-.42 1.251-.63 2.012-.63s1.452.21 2.023.63q.855.628 1.321 1.782c.31.771.47 1.682.47 2.754 0 1.07-.16 1.972-.47 2.743s-.75 1.371-1.321 1.792c-.571.42-1.242.63-2.023.63m-2.272-5.166c0 .531.05 1.022.14 1.452.09.44.23.821.4 1.141l2.493-6.167c-.24-.11-.49-.17-.75-.17-.662 0-1.212.33-1.643 1.001-.43.671-.64 1.582-.64 2.743m2.272 3.765c.45 0 .841-.15 1.182-.46.34-.301.61-.742.8-1.302s.29-1.232.29-2.003c0-.53-.05-1.02-.14-1.451-.1-.44-.23-.811-.4-1.122l-2.493 6.168c.24.11.491.17.751.17z"/><path fill="#000" d="M16.97 19.452V18.1h2.462v-6.837l-2.353.43v-1.221l2.934-.981h.92v8.62h2.654v1.351h-6.628z"/><path fill="#000" d="M379.441 104.579a.997.997 0 0 1-.711-1.702l95.268-95.358a.997.997 0 1 1 1.412 1.411l-95.268 95.358a.98.98 0 0 1-.711.291z"/><path fill="#6DB5C3" d="M480.976 2.353h-20.864a4.596 4.596 0 0 0-4.595 4.595v15.558a4.596 4.596 0 0 0 4.595 4.595h20.864a4.595 4.595 0 0 0 4.595-4.595V6.948a4.595 4.595 0 0 0-4.595-4.595"/><path fill="#000" d="M480.986 28.102h-20.874a5.606 5.606 0 0 1-5.596-5.596V6.938a5.606 5.606 0 0 1 5.596-5.596h20.874a5.605 5.605 0 0 1 5.596 5.596v15.568a5.605 5.605 0 0 1-5.596 5.596M460.112 3.354a3.6 3.6 0 0 0-3.594 3.594v15.568a3.6 3.6 0 0 0 3.594 3.594h20.874a3.6 3.6 0 0 0 3.594-3.594V6.948a3.6 3.6 0 0 0-3.594-3.594z"/><path fill="#000" d="M466.269 19.632q-1.156 0-2.012-.63c-.571-.42-1.021-1.011-1.331-1.792-.311-.771-.471-1.692-.471-2.744 0-1.05.16-1.982.471-2.753.31-.77.76-1.361 1.331-1.782.571-.42 1.251-.63 2.012-.63s1.452.21 2.023.63q.856.628 1.321 1.782c.31.771.471 1.682.471 2.754 0 1.07-.161 1.972-.471 2.743s-.751 1.371-1.321 1.792c-.571.42-1.242.63-2.023.63m-2.272-5.166c0 .531.05 1.022.14 1.452.09.44.23.821.4 1.141l2.493-6.167c-.24-.11-.49-.17-.751-.17-.66 0-1.211.33-1.642 1.001s-.64 1.582-.64 2.743m2.272 3.765c.451 0 .841-.15 1.182-.46.34-.301.61-.742.801-1.302.19-.56.29-1.232.29-2.003 0-.53-.05-1.02-.14-1.451-.1-.44-.231-.811-.401-1.122l-2.493 6.168c.241.11.491.17.751.17z"/><path fill="#000" d="M471.545 19.452v-1.201a60 60 0 0 0 2.573-2.153c.731-.65 1.312-1.291 1.732-1.892.421-.61.631-1.221.631-1.852 0-.52-.15-.931-.441-1.231q-.435-.45-1.201-.45c-.581 0-1.021.18-1.342.55-.32.37-.47.8-.47 1.301h-1.472c0-.7.16-1.291.441-1.772.28-.47.67-.83 1.161-1.081.491-.25 1.051-.37 1.672-.37 1.021 0 1.802.27 2.353.82.55.551.831 1.272.831 2.193 0 .58-.131 1.141-.381 1.672a6.7 6.7 0 0 1-.991 1.532c-.41.48-.861.94-1.362 1.381-.5.44-1.001.851-1.501 1.252h4.505v1.301z"/><path fill="#000" d="M474.759 332.788c-.26 0-.511-.1-.711-.29l-92.555-92.465a.998.998 0 1 1 1.412-1.412l92.555 92.465a.998.998 0 0 1-.711 1.702z"/><path fill="#6DB5C3" d="M480.976 312.705h-20.864a4.595 4.595 0 0 0-4.595 4.595v15.558a4.595 4.595 0 0 0 4.595 4.595h20.864a4.595 4.595 0 0 0 4.595-4.595V317.3a4.595 4.595 0 0 0-4.595-4.595"/><path fill="#000" d="M480.986 338.454h-20.874a5.606 5.606 0 0 1-5.596-5.596V317.29a5.606 5.606 0 0 1 5.596-5.596h20.874a5.605 5.605 0 0 1 5.596 5.596v15.568a5.605 5.605 0 0 1-5.596 5.596m-20.874-24.748a3.6 3.6 0 0 0-3.594 3.594v15.568a3.6 3.6 0 0 0 3.594 3.594h20.874a3.6 3.6 0 0 0 3.594-3.594V317.3a3.6 3.6 0 0 0-3.594-3.594z"/><path fill="#000" d="M466.269 329.985q-1.156 0-2.012-.631c-.571-.42-1.021-1.011-1.331-1.792-.311-.771-.471-1.692-.471-2.743s.16-1.982.471-2.753.76-1.362 1.331-1.782c.571-.421 1.251-.631 2.012-.631s1.452.21 2.023.631c.57.42 1.011 1.011 1.321 1.782s.471 1.682.471 2.753-.161 1.972-.471 2.743-.751 1.372-1.321 1.792c-.571.42-1.242.631-2.023.631m-2.272-5.166c0 .53.05 1.021.14 1.452.09.44.23.82.4 1.141l2.493-6.167c-.24-.11-.49-.17-.751-.17-.66 0-1.211.33-1.642 1.001s-.64 1.582-.64 2.743m2.272 3.764c.451 0 .841-.15 1.182-.46.34-.301.61-.741.801-1.302.19-.561.29-1.231.29-2.002 0-.531-.05-1.021-.14-1.452-.1-.44-.231-.811-.401-1.121l-2.493 6.167c.241.11.491.17.751.17z"/><path fill="#000" d="M475.92 329.805v-2.153h-4.735v-1.181l4.455-6.638h1.782v6.458h1.291v1.371h-1.291v2.153h-1.512zm-3.053-3.514H476v-4.756z"/><path fill="#000" d="M11.423 380.492c-.26 0-.51-.1-.71-.29a1 1 0 0 1 0-1.412l96.869-96.96a.998.998 0 1 1 1.412 1.412l-96.87 96.96c-.2.2-.45.29-.711.29z"/><path fill="#6DB5C3" d="M26.46 358.757H5.596a4.596 4.596 0 0 0-4.595 4.596v15.557a4.595 4.595 0 0 0 4.595 4.595H26.46a4.595 4.595 0 0 0 4.595-4.595v-15.557a4.596 4.596 0 0 0-4.595-4.596"/><path fill="#000" d="M26.47 384.507H5.596A5.606 5.606 0 0 1 0 378.91v-15.567a5.606 5.606 0 0 1 5.596-5.597H26.47a5.606 5.606 0 0 1 5.596 5.597v15.567a5.606 5.606 0 0 1-5.596 5.597M5.596 359.758a3.6 3.6 0 0 0-3.594 3.595v15.567a3.6 3.6 0 0 0 3.594 3.594H26.47a3.6 3.6 0 0 0 3.594-3.594v-15.567a3.6 3.6 0 0 0-3.594-3.595z"/><path fill="#000" d="M11.753 376.037q-1.155 0-2.012-.631c-.57-.42-1.021-1.011-1.332-1.792-.31-.771-.47-1.692-.47-2.743s.16-1.982.47-2.753.761-1.362 1.332-1.782c.57-.42 1.251-.631 2.012-.631s1.452.211 2.023.631c.57.42 1.01 1.011 1.321 1.782s.47 1.682.47 2.753-.16 1.972-.47 2.743-.75 1.372-1.321 1.792c-.571.421-1.242.631-2.023.631m-2.272-5.166c0 .531.05 1.021.14 1.452.09.44.23.821.4 1.141l2.493-6.167c-.24-.11-.49-.17-.75-.17-.662 0-1.212.33-1.643 1.001-.43.671-.64 1.582-.64 2.743m2.272 3.764c.45 0 .841-.15 1.182-.46.34-.3.61-.741.8-1.302.19-.56.29-1.231.29-2.002 0-.53-.05-1.021-.14-1.451a4.3 4.3 0 0 0-.4-1.122l-2.493 6.167c.24.11.491.17.751.17z"/><path fill="#000" d="M20.383 376.037c-.65 0-1.251-.12-1.782-.37a3.06 3.06 0 0 1-1.271-1.092q-.466-.72-.511-1.742h1.512c.03.521.22.951.58 1.302q.54.51 1.472.51c.62 0 1.101-.15 1.452-.46.35-.3.53-.721.53-1.251 0-.591-.21-1.022-.64-1.292-.431-.28-.952-.41-1.572-.41h-.881v-1.342h.75c.561 0 1.022-.11 1.382-.34s.54-.581.54-1.072c0-.42-.14-.75-.41-.991q-.405-.36-1.171-.36c-.51 0-.921.14-1.221.41q-.45.421-.511 1.052h-1.492c.03-.571.18-1.072.46-1.492a2.85 2.85 0 0 1 1.122-1.001q.705-.361 1.652-.361c.68 0 1.251.12 1.712.351q.69.345 1.021.931c.23.39.34.831.34 1.311 0 .481-.14.921-.43 1.272q-.435.525-1.051.781v.08c.55.15 1 .43 1.361.851.36.41.53.971.53 1.662 0 .56-.14 1.071-.41 1.541-.27.471-.66.841-1.18 1.122-.521.28-1.152.41-1.893.41z"/></svg>