<svg xmlns="http://www.w3.org/2000/svg" width="293" height="377" fill="none" viewBox="0 0 293 377"><path fill="#191917" d="M243.292 200.517a542 542 0 0 0-2.251-17.543c-.05-.42-.11-.821-.16-1.221-.531-3.603-1.061-7.205-1.642-10.788a654 654 0 0 0-6.174-32.895c-1.912 3.583-3.363 7.526-4.374 11.659 1.221-5.064 2.442-10.128 3.603-15.192.03 0 0-.03 0-.03a522 522 0 0 0-2.862-12.639c-.03-.26-.11-.5-.16-.771-4.404-18.584-9.467-36.998-15.082-55.211a936 936 0 0 0-8.616-26.77c-1.011-3.023-2.042-6.045-3.152-9.037a132 132 0 0 0-2.332-5.935c-1.221-2.912-2.542-5.804-4.053-8.586-4.133-7.686-11.239-15.352-19.405-13.86-4.583.85-8.406 4.583-10.578 9.016a28 28 0 0 0-1.851 5.224v.05c-.16.61-.29 1.221-.421 1.832-.16.74-.26 1.48-.37 2.251-.26 1.701-.4 3.423-.5 5.144-.24 3.813-.24 7.636-.08 11.449.05 1.56.13 3.132.24 4.693.21 3.343.53 6.675.901 10.018 2.942 27.04 8.776 53.2 14.681 79.41-3.793-16.433-12.67-30.483-25.76-37.429-6.465-3.442-14.371-5.163-20.856-1.77-6.304 3.311-9.937 10.897-10.708 18.393-.74 7.506.901 15.031 2.682 22.317 5.995 24.488 14.131 45.804 21.737 69.762l31.754-.08h3.362l11.719-.03h50.888c-.05-.48-.11-.95-.16-1.431z"/><path fill="#EBEBEB" d="M145.719 203.56a1.5 1.5 0 0 1-1.431-1.051c-2.322-7.326-4.734-14.491-7.056-21.416-5.414-16.142-10.538-31.394-14.711-48.447-1.861-7.646-3.472-15.141-2.712-22.827.901-8.827 5.314-16.322 11.509-19.575 6.075-3.172 14.191-2.522 22.267 1.782 7.726 4.103 14.311 10.828 19.214 19.414-4.133-19.054-8.106-39.45-10.338-59.905-.42-3.773-.72-7.075-.91-10.088-.11-1.56-.19-3.152-.24-4.733-.171-4.153-.151-7.946.08-11.599.1-1.681.24-3.482.52-5.284.11-.8.22-1.551.39-2.332.13-.6.261-1.18.411-1.771 0-.06.02-.12.03-.16.49-1.951 1.141-3.803 1.961-5.504 2.602-5.304 6.955-8.977 11.659-9.848 11.098-2.021 18.874 10.688 20.996 14.631 1.381 2.542 2.732 5.405 4.113 8.717.74 1.751 1.511 3.713 2.352 5.994 1.221 3.283 2.331 6.585 3.172 9.087a970 970 0 0 1 8.627 26.81c5.734 18.585 10.818 37.189 15.111 55.302l.06.27c.05.191.09.381.12.581a518 518 0 0 1 2.832 12.519c.08.301.08.621-.03.921l-.36 1.551c.58.12 1.051.571 1.171 1.161a677 677 0 0 1 6.194 32.965c.581 3.583 1.121 7.255 1.642 10.798l.16 1.261a534 534 0 0 1 2.251 17.563l.161 1.431c.05.421-.09.851-.371 1.171-.28.32-.69.501-1.121.501h-50.888zm-5.845-112.295c-2.622 0-5.053.55-7.165 1.651-5.314 2.792-9.107 9.387-9.907 17.213-.711 7.206.84 14.421 2.642 21.807 4.143 16.922 9.236 32.114 14.641 48.196 2.221 6.605 4.503 13.43 6.735 20.415l45.734-.1h49.217a529 529 0 0 0-2.221-17.263l-.161-1.241c-.52-3.522-1.06-7.185-1.641-10.748a666 666 0 0 0-5.244-28.441 51.6 51.6 0 0 0-2.372 7.325 1.5 1.5 0 0 1-1.811 1.101 1.506 1.506 0 0 1-1.111-1.811c1.181-4.914 2.392-9.928 3.533-14.861a515 515 0 0 0-2.792-12.3.7.7 0 0 1-.03-.2c-.01-.1-.04-.19-.06-.29-.03-.11-.05-.22-.08-.34-4.264-17.994-9.327-36.538-15.042-55.062a922 922 0 0 0-8.606-26.73c-.831-2.482-1.932-5.744-3.143-8.997a120 120 0 0 0-2.311-5.874c-1.351-3.233-2.662-5.995-3.993-8.457-1.882-3.492-8.717-14.76-17.814-13.1-3.763.701-7.315 3.763-9.497 8.197a26.5 26.5 0 0 0-1.721 4.813c0 .07-.02.13-.03.18-.15.581-.28 1.171-.41 1.752a25 25 0 0 0-.351 2.151c-.27 1.702-.39 3.423-.49 5.034-.22 3.543-.25 7.236-.08 11.299.05 1.55.13 3.122.24 4.653.19 2.972.48 6.225.891 9.958 2.992 27.54 9.187 55.011 14.661 79.25.18.81-.321 1.611-1.131 1.791a1.513 1.513 0 0 1-1.801-1.131c-3.873-16.783-12.98-30.063-25.009-36.437-4.264-2.272-8.487-3.423-12.3-3.423z"/><path fill="#191917" d="M243.452 200.517h-50.888c-1.961-14.291-4.664-28.331-7.636-42.272-7.555-35.567-16.933-70.533-20.966-107.08-.34-3.263-.66-6.525-.9-9.808a123 123 0 0 1-.24-4.693c-.161-3.843-.161-7.656.05-11.479.11-1.701.26-3.423.53-5.114.11-.77.21-1.511.37-2.252.13-.61.26-1.22.421-1.831v-.05a27.6 27.6 0 0 1 1.851-5.114c2.172-4.403 5.995-8.086 10.578-8.937 8.166-1.46 15.272 6.125 19.405 13.76a98 98 0 0 1 4.053 8.507c.82 1.932 1.591 3.923 2.331 5.935a242 242 0 0 1 3.153 8.936 1007 1007 0 0 1 8.696 26.77c5.645 18.214 10.738 36.608 15.132 55.162.05.16.11.34.13.501v.03a490 490 0 0 1 2.862 12.619c-.03.13-.05.29-.11.42 0 0 .03.03 0 .03a1670 1670 0 0 1-3.603 15.192c1.011-4.133 2.462-8.086 4.374-11.659.05-.11.11-.19.16-.26a665 665 0 0 1 6.284 33.685 612 612 0 0 1 1.512 9.838c.05.42.11.85.16 1.271a569 569 0 0 1 2.281 17.913z"/><path fill="#EBEBEB" d="M243.442 202.019h-50.888c-.75 0-1.381-.551-1.491-1.301-1.711-12.47-4.063-25.479-7.616-42.172-1.931-9.097-4.023-18.314-6.034-27.221-5.875-25.929-11.949-52.73-14.952-80.01-.28-2.682-.64-6.225-.91-9.867-.11-1.572-.19-3.173-.24-4.754-.171-4.093-.151-7.896.05-11.609.12-1.991.3-3.702.55-5.264.11-.8.22-1.55.39-2.331.13-.6.261-1.181.411-1.772 0-.06.02-.12.03-.17a28.4 28.4 0 0 1 1.961-5.394c2.592-5.244 6.945-8.887 11.659-9.757 11.108-1.982 18.874 10.608 20.996 14.52a98 98 0 0 1 4.123 8.647c.74 1.752 1.511 3.713 2.352 5.995 1.191 3.162 2.271 6.305 3.172 8.976a1008 1008 0 0 1 8.707 26.81c5.804 18.715 10.898 37.279 15.151 55.192.07.21.13.461.17.661v.03a474 474 0 0 1 2.842 12.549c.04.2.04.411 0 .611-.03.13-.05.26-.08.37-.01.09-.04.19-.07.28l-.3 1.281c.02 0 .05 0 .08.01.59.11 1.061.571 1.191 1.161a658 658 0 0 1 6.295 33.766c.52 3.172 1.02 6.484 1.511 9.857l.16 1.301a560 560 0 0 1 2.282 17.943c.05.421-.09.851-.371 1.171-.28.321-.69.501-1.121.501zm-49.577-3.003h47.906a586 586 0 0 0-2.081-16.202l-.16-1.301a605 605 0 0 0-1.502-9.777 663 663 0 0 0-5.364-29.312 52 52 0 0 0-2.512 7.666 1.5 1.5 0 0 1-1.811 1.1c-.801-.19-1.301-1-1.111-1.811a1508 1508 0 0 0 3.573-15.071c.01-.08.03-.16.05-.24a506 506 0 0 0-2.782-12.25c-.01-.06-.03-.13-.03-.19l-.06-.22c-.01-.04-.03-.09-.04-.13-4.233-17.874-9.317-36.398-15.112-55.062a1049 1049 0 0 0-8.676-26.73c-.891-2.642-1.952-5.764-3.133-8.886a132 132 0 0 0-2.311-5.885 98 98 0 0 0-3.993-8.386c-1.872-3.453-8.697-14.621-17.814-12.99-3.773.7-7.325 3.733-9.497 8.116a26 26 0 0 0-1.721 4.704c0 .06-.02.12-.03.18-.15.58-.28 1.17-.41 1.751-.151.69-.251 1.381-.351 2.152-.23 1.49-.4 3.122-.52 5.003-.2 3.603-.22 7.316-.05 11.319.05 1.551.13 3.112.24 4.654.26 3.592.62 7.095.901 9.747 2.982 27.1 9.037 53.82 14.891 79.67 2.021 8.917 4.113 18.144 6.044 27.26 3.443 16.193 5.765 28.932 7.476 41.091z"/><path fill="#191917" d="M178.764 130.465c-3.723-16.543-12.65-30.684-25.88-37.659-6.475-3.412-14.371-5.134-20.866-1.751-6.314 3.292-9.937 10.808-10.698 18.244-.76 7.435.891 14.891 2.672 22.126 5.985 24.299 14.111 46.866 21.717 70.644"/><path fill="#EBEBEB" d="M145.719 203.57a1.51 1.51 0 0 1-1.431-1.041c-1.922-5.995-3.903-11.999-5.815-17.814-5.884-17.853-11.448-34.716-15.932-52.929-1.871-7.596-3.482-15.042-2.712-22.638.891-8.756 5.294-16.202 11.499-19.424 8.286-4.314 17.503-.75 22.257 1.761 12.949 6.825 22.657 20.916 26.65 38.659.18.811-.33 1.611-1.131 1.792a1.5 1.5 0 0 1-1.791-1.131c-3.793-16.883-12.95-30.243-25.119-36.658-7.206-3.803-14.301-4.443-19.475-1.751-5.314 2.762-9.107 9.307-9.897 17.063-.731 7.125.83 14.29 2.642 21.616 4.463 18.104 10.007 34.916 15.871 52.71a1989 1989 0 0 1 5.825 17.833 1.51 1.51 0 0 1-.971 1.892c-.15.05-.31.07-.46.07z"/><path fill="#191917" d="M176.632 1.897c15.522 65.36 36.367 131.399 41.051 198.63z"/><path fill="#EBEBEB" d="M217.673 202.028a1.49 1.49 0 0 1-1.491-1.401c-3.553-51.088-16.643-102.157-29.302-151.544-3.943-15.372-8.016-31.264-11.709-46.835a1.51 1.51 0 0 1 1.111-1.812c.81-.19 1.611.31 1.811 1.111 3.693 15.552 7.766 31.434 11.699 46.785 12.69 49.518 25.809 100.726 29.382 152.085a1.5 1.5 0 0 1-1.391 1.601h-.11z"/><path fill="#191917" d="M137.433 89.504c12.219 36.297 23.948 75.367 33.765 112.475z"/><path fill="#EBEBEB" d="M171.198 203.49c-.66 0-1.271-.441-1.451-1.121-9.827-37.168-21.496-76.027-33.735-112.385-.261-.79.16-1.641.94-1.901.781-.26 1.641.16 1.902.94 12.259 36.408 23.948 75.337 33.795 112.575a1.5 1.5 0 0 1-1.451 1.882z"/><path fill="#EBEBEB" d="M194.516 74.502h-.14a1.504 1.504 0 0 1-1.351-1.641l4.823-50.568a1.505 1.505 0 0 1 2.993.29l-4.824 50.568a1.5 1.5 0 0 1-1.491 1.361z"/><path fill="#EBEBEB" d="M206.315 124.89c-.411 0-.821-.17-1.121-.5l-37.959-42.322c-.55-.62-.5-1.571.12-2.122.621-.55 1.561-.5 2.122.12l37.958 42.322a1.503 1.503 0 0 1-1.12 2.502"/><path fill="#EBEBEB" d="M215.651 180.522a1.5 1.5 0 0 1-1.461-1.851l13.881-57.564a1.5 1.5 0 0 1 1.811-1.11c.811.19 1.301 1 1.111 1.811l-13.88 57.563a1.505 1.505 0 0 1-1.462 1.151"/><path fill="#EBEBEB" d="M153.665 141.783c-.42 0-.841-.181-1.141-.521l-31.283-36.357a1.505 1.505 0 0 1 2.281-1.962l31.284 36.358c.54.63.47 1.571-.16 2.121a1.5 1.5 0 0 1-.981.361"/><path fill="#EBEBEB" d="M164.103 177.641c-.251 0-.511-.061-.751-.201a1.493 1.493 0 0 1-.55-2.051l17.923-31.214c.41-.72 1.331-.97 2.052-.55.72.41.97 1.331.55 2.051l-17.923 31.214c-.281.48-.781.751-1.301.751"/><path fill="#191917" d="M274.116 134.098a18.4 18.4 0 0 0-.851-4.003c-1.271-4.083-3.843-7.716-7.636-9.568-5.114-2.521-11.368-1.24-16.482 1.301-6.835 3.393-12.219 9.037-15.932 15.982-.05.081-.11.161-.16.261-1.912 3.582-3.363 7.525-4.374 11.658 1.221-5.063 2.442-10.127 3.603-15.191.03 0 0-.03 0-.03.05-.13.08-.29.11-.42.401-1.642.771-3.263 1.111-4.904.42-1.851.851-3.733 1.241-5.614.34-1.561.661-3.133.981-4.694.34-1.621.66-3.262.981-4.903.08-.291.13-.581.16-.871.08-.4.16-.771.24-1.171.5-2.652.951-5.304 1.401-7.956.29-1.771.56-3.583.821-5.384.08-.4.13-.82.19-1.221.32-2.172.58-4.343.85-6.545.741-6.415 1.271-12.88.851-19.324-.24-3.683-.791-7.426-2.522-10.709-1.701-3.262-4.714-6.014-8.346-6.625-6.465-1.11-12.089 4.564-15.352 10.228-.26.45-.53.9-.74 1.381-.05.03-.08.08-.08.11-2.753 5.034-4.774 10.468-6.736 15.902a746 746 0 0 0-6.334 18.294 645 645 0 0 0-2.572 7.876c-5.274 16.562-9.888 33.315-13.62 50.278-3.183 14.441-5.725 29.052-7.446 43.733h40.26l37.058.08c6.045-17.683 12.46-33.425 17.203-51.499 1.401-5.384 2.702-10.918 2.122-16.462z"/><path fill="#EBEBEB" d="m254.791 203.56-37.058-.08h-40.26c-.43 0-.841-.18-1.121-.501-.28-.32-.42-.75-.37-1.171 1.661-14.12 4.173-28.881 7.475-43.883 3.563-16.182 8.157-33.145 13.661-50.418.85-2.662 1.701-5.294 2.582-7.896a749 749 0 0 1 6.344-18.323c2.092-5.805 4.053-11.019 6.766-16.002.05-.12.11-.23.19-.34.22-.461.47-.881.71-1.292 1.701-2.952 7.956-12.5 16.903-10.958 3.823.64 7.345 3.413 9.427 7.416 1.972 3.762 2.472 8.016 2.682 11.308.45 6.855-.18 13.75-.851 19.595-.28 2.342-.54 4.443-.85 6.595v.1c-.07.39-.12.8-.2 1.19a313 313 0 0 1-.811 5.325c-.45 2.622-.901 5.324-1.411 7.986l-.23 1.111c-.03.33-.1.66-.18.99-.321 1.632-.631 3.273-.981 4.884-.32 1.561-.641 3.132-.981 4.704-.4 1.881-.82 3.763-1.251 5.634a129 129 0 0 1-.87 3.873c3.782-5.674 8.696-10.098 14.37-12.92 6.465-3.212 12.96-3.693 17.814-1.301 3.913 1.912 6.895 5.634 8.406 10.468.461 1.411.771 2.862.911 4.293.6 5.735-.681 11.309-2.162 16.993-3.342 12.75-7.445 24.148-11.789 36.207-1.791 4.984-3.642 10.138-5.444 15.402-.21.61-.78 1.011-1.421 1.011m-75.627-3.083h38.569l35.987.08c1.702-4.933 3.433-9.757 5.114-14.43 4.313-11.999 8.397-23.328 11.709-35.948 1.411-5.404 2.632-10.688 2.082-15.922v-.01a17.3 17.3 0 0 0-.781-3.682c-1.261-4.063-3.703-7.136-6.865-8.687-4.013-1.971-9.537-1.501-15.162 1.291-6.294 3.122-11.578 8.426-15.271 15.342-.02.04-.05.08-.07.12-.03.04-.05.07-.07.11-1.832 3.432-3.253 7.235-4.253 11.348a1.503 1.503 0 0 1-2.923-.71 1443 1443 0 0 0 3.573-15.061c.02-.121.05-.241.09-.351 0 0 0-.05.01-.09 0-.02.02-.11.03-.13.43-1.761.791-3.352 1.101-4.854.43-1.871.851-3.742 1.251-5.624.35-1.571.66-3.122.981-4.683.35-1.622.66-3.253.98-4.894 0-.04.02-.07.03-.11.06-.2.091-.41.111-.611 0-.05.01-.11.02-.16l.24-1.171c.5-2.622.95-5.304 1.401-7.906.29-1.761.55-3.552.82-5.344.08-.4.12-.74.171-1.07l.02-.13c.31-2.132.57-4.214.84-6.525.661-5.705 1.281-12.43.841-19.045-.19-2.992-.641-6.845-2.352-10.107-1.651-3.173-4.363-5.354-7.265-5.845-7.036-1.21-12.34 6.965-13.801 9.497-.26.44-.5.841-.67 1.241-.05.11-.11.22-.191.31-2.611 4.804-4.533 9.908-6.584 15.602-2.002 5.514-4.064 11.479-6.325 18.254a506 506 0 0 0-2.562 7.856c-5.474 17.183-10.038 34.056-13.59 50.148-3.153 14.301-5.575 28.401-7.226 41.911z"/><path fill="#191917" d="M240.37 90.845c-.26 2.201-.53 4.373-.85 6.545-.05.4-.11.82-.19 1.22a313 313 0 0 1-.821 5.385c-.45 2.652-.901 5.304-1.401 7.956-.08.37-.16.77-.21 1.141l-.03.03c-.03.29-.08.58-.16.87-.321 1.641-.641 3.283-.981 4.904-.32 1.561-.641 3.132-.981 4.693-.4 1.882-.821 3.763-1.241 5.615-.34 1.641-.72 3.262-1.111 4.903-.03.13-.05.291-.11.421 0 0 .03.03 0 .03a1670 1670 0 0 1-3.603 15.191c0 .03-.03.08-.03.11-.87 3.583-1.721 7.186-2.571 10.788-3.153 13.17-6.095 26.37-8.107 39.89-.11.481-.16.951-.24 1.432v.03h-40.26c1.721-14.682 4.263-29.293 7.446-43.733 3.732-16.963 8.346-33.716 13.62-50.278a509 509 0 0 1 2.572-7.876 745 745 0 0 1 6.334-18.294c1.962-5.434 3.973-10.868 6.736-15.902 0-.03.03-.08.08-.11.21-.48.48-.93.74-1.381 3.263-5.674 8.877-11.349 15.352-10.228 3.632.61 6.655 3.363 8.346 6.625 1.721 3.283 2.282 7.025 2.522 10.708.42 6.445-.11 12.91-.851 19.325z"/><path fill="#EBEBEB" d="M217.733 203.48h-40.26c-.43 0-.841-.18-1.121-.501-.28-.32-.42-.75-.37-1.171 1.661-14.12 4.173-28.881 7.475-43.883 3.563-16.182 8.157-33.145 13.661-50.418.85-2.662 1.701-5.294 2.582-7.896a749 749 0 0 1 6.344-18.323c2.092-5.805 4.053-11.019 6.766-16.002.05-.12.11-.23.19-.34.22-.461.47-.881.71-1.292 1.701-2.952 7.956-12.5 16.903-10.958 3.823.64 7.345 3.413 9.427 7.416 1.972 3.762 2.472 8.016 2.682 11.308.45 6.855-.18 13.75-.851 19.595-.28 2.332-.54 4.433-.85 6.585v.1c-.07.39-.12.8-.2 1.19a313 313 0 0 1-.811 5.325c-.45 2.622-.901 5.324-1.411 7.986-.08.37-.15.73-.2 1.071-.01.07-.03.15-.05.22-.04.27-.09.54-.16.81-.321 1.632-.631 3.273-.981 4.884-.32 1.561-.641 3.132-.981 4.704-.4 1.881-.82 3.762-1.251 5.634-.32 1.511-.68 3.132-1.121 4.924-.02.1-.04.21-.07.32-.01.09-.04.19-.07.28-1.151 4.994-2.372 10.068-3.552 14.981-.01.07-.03.13-.04.17a1495 1495 0 0 0-2.572 10.779c-2.973 12.419-6.005 25.819-8.086 39.77 0 .04-.01.07-.02.1-.061.28-.101.57-.151.85l-.07.451c-.1.74-.73 1.331-1.491 1.331m-38.569-3.003h37.288c.01-.08.03-.15.05-.23 2.092-14.04 5.144-27.511 8.126-39.97.851-3.603 1.702-7.215 2.572-10.798 0 0 .01-.06.02-.08v-.02c1.201-4.984 2.432-10.068 3.583-15.071.02-.121.05-.241.09-.351 0 0 0-.05.01-.09 0-.02.02-.11.03-.13.43-1.761.791-3.352 1.101-4.854.43-1.871.851-3.742 1.251-5.624.35-1.571.66-3.122.981-4.683.35-1.622.66-3.253.98-4.894 0-.04.02-.07.03-.11.06-.2.091-.41.111-.611.01-.12.04-.23.07-.34.05-.33.12-.68.19-1.001.49-2.602.95-5.284 1.391-7.886.29-1.761.55-3.552.82-5.344.08-.4.12-.74.171-1.07l.02-.13c.31-2.132.57-4.214.84-6.525.661-5.705 1.281-12.43.841-19.045-.19-2.992-.641-6.845-2.352-10.107-1.651-3.173-4.363-5.354-7.265-5.845-7.036-1.21-12.34 6.965-13.801 9.497-.26.44-.5.841-.67 1.241-.05.11-.11.22-.191.31-2.611 4.804-4.533 9.908-6.584 15.602-2.002 5.514-4.064 11.479-6.325 18.254a506 506 0 0 0-2.562 7.856c-5.474 17.183-10.038 34.056-13.59 50.148-3.153 14.301-5.575 28.401-7.226 41.911z"/><path fill="#191917" d="M230.343 54.178c-12.28 48.636-28.772 97.773-32.475 147.811z"/><path fill="#EBEBEB" d="M197.868 203.49h-.11a1.504 1.504 0 0 1-1.391-1.612c2.832-38.258 13.22-76.387 23.258-113.255 3.112-11.428 6.334-23.237 9.257-34.806.2-.8 1.02-1.291 1.821-1.09s1.291 1.02 1.091 1.82c-2.932 11.6-6.155 23.428-9.267 34.867-10.008 36.727-20.356 74.716-23.168 112.685-.06.79-.72 1.391-1.491 1.391"/><path fill="#191917" d="M261.356 119.376a1238 1238 0 0 0-26.17 81.972z"/><path fill="#EBEBEB" d="M235.186 202.849c-.13 0-.27-.02-.41-.06a1.5 1.5 0 0 1-1.041-1.851 1239 1239 0 0 1 26.2-82.072 1.505 1.505 0 0 1 2.832 1.011 1235 1235 0 0 0-26.13 81.872c-.19.66-.79 1.09-1.441 1.09z"/><path fill="#EBEBEB" d="M216.192 108.588c-.761 0-1.411-.58-1.491-1.351l-3.823-37.628c-.08-.82.52-1.561 1.341-1.641.831-.08 1.561.52 1.641 1.34l3.823 37.629c.08.821-.52 1.561-1.341 1.641h-.15z"/><path fill="#EBEBEB" d="M206.855 146.086c-.37 0-.741-.14-1.031-.41a1.503 1.503 0 0 1-.05-2.122l30.033-31.494a1.501 1.501 0 0 1 2.171 2.072l-30.032 31.494c-.291.31-.691.46-1.091.46"/><path fill="#EBEBEB" d="M199.469 187.477c-.67 0-1.281-.45-1.451-1.131l-10.988-42.832c-.21-.8.28-1.621 1.081-1.831s1.621.28 1.831 1.081l10.988 42.832a1.506 1.506 0 0 1-1.451 1.881z"/><path fill="#EBEBEB" d="M248.516 158.655c-.36 0-.72-.13-1.01-.39a1.5 1.5 0 0 1-.09-2.121l24.758-27.051a1.504 1.504 0 0 1 2.122-.09c.61.561.65 1.511.09 2.122l-24.759 27.05c-.3.32-.7.49-1.111.49z"/><path fill="#EBEBEB" d="M240.25 185.336c-.51 0-1.001-.261-1.281-.721l-14.181-23.227a1.5 1.5 0 0 1 .501-2.062c.71-.43 1.631-.21 2.061.5l14.181 23.228c.43.71.21 1.631-.5 2.061a1.46 1.46 0 0 1-.781.221"/><path fill="#191917" d="M144.198 202.009H266.66c4.103 36.938-21.957 73.505-36.327 78.169h-62.357c-14.371-4.664-40.431-41.231-36.328-78.169H254.11"/><path fill="#EBEBEB" d="M230.333 281.689h-62.357c-.16 0-.311-.02-.461-.07-15.271-4.964-41.551-42.062-37.358-79.771.08-.76.731-1.331 1.491-1.331H266.66c.761 0 1.411.571 1.491 1.331 4.193 37.709-22.086 74.807-37.358 79.771-.15.05-.31.07-.46.07m-62.107-3.003h61.866c13.961-4.823 38.399-40.11 35.217-75.166h-132.3c-3.192 35.056 21.246 70.343 35.217 75.166"/><path fill="#191917" d="M144.198 202.009H266.66c4.103 36.938-21.957 73.505-36.327 78.169h-62.357c-14.371-4.664-40.431-41.231-36.328-78.169H254.11"/><path fill="#EBEBEB" d="M230.333 281.689h-62.357c-.16 0-.311-.02-.461-.07-15.271-4.964-41.551-42.062-37.358-79.771.08-.76.731-1.331 1.491-1.331H266.66c.761 0 1.411.571 1.491 1.331 4.193 37.709-22.086 74.807-37.358 79.771-.15.05-.31.07-.46.07m-62.107-3.003h61.866c13.961-4.823 38.399-40.11 35.217-75.166h-132.3c-3.192 35.056 21.246 70.343 35.217 75.166"/><path fill="#EBEBEB" d="M255.141 253.307H143.177c-.831 0-1.501-.67-1.501-1.501s.67-1.501 1.501-1.501h111.964c.831 0 1.501.67 1.501 1.501s-.67 1.501-1.501 1.501"/><path fill="#191917" d="M200 188.037v-6.845h-66.75v34.236H200v-6.845h-59.905v-20.546z"/><path fill="#EBEBEB" d="M200 216.929h-66.76a1.5 1.5 0 0 1-1.502-1.501v-34.236a1.5 1.5 0 0 1 1.502-1.501H200a1.5 1.5 0 0 1 1.501 1.501v6.845a1.5 1.5 0 0 1-1.501 1.502h-58.404v17.543H200c.831 0 1.501.67 1.501 1.501v6.845c0 .831-.67 1.501-1.501 1.501m-65.249-3.002h63.758v-3.843h-58.404c-.831 0-1.501-.67-1.501-1.501v-20.546a1.5 1.5 0 0 1 1.501-1.501h58.404v-3.843h-63.758z"/><path fill="#191917" d="M133.249 181.192H30.542v34.236H133.25z"/><path fill="#EBEBEB" d="M133.249 216.929H30.542a1.5 1.5 0 0 1-1.501-1.501v-34.236a1.5 1.5 0 0 1 1.501-1.501H133.25a1.5 1.5 0 0 1 1.502 1.501v34.236a1.5 1.5 0 0 1-1.502 1.501m-101.206-3.002h99.705v-31.234H32.043z"/><path fill="#191917" d="M50.71 201.996a5.994 5.994 0 1 0-7.813-9.093 5.994 5.994 0 0 0 7.813 9.093"/><path fill="#EBEBEB" d="M46.804 204.951c-4.133 0-7.495-3.363-7.495-7.496s3.362-7.495 7.495-7.495 7.496 3.362 7.496 7.495-3.363 7.496-7.496 7.496m0-11.979a4.494 4.494 0 1 0 0 8.987 4.494 4.494 0 0 0 0-8.987"/><path fill="#191917" d="M213.69 153.812v-6.856h-66.75v34.236h66.75v-6.845h-59.905v-20.535z"/><path fill="#EBEBEB" d="M213.69 182.693h-66.76c-.831 0-1.501-.67-1.501-1.501v-34.236a1.5 1.5 0 0 1 1.501-1.501h66.76a1.5 1.5 0 0 1 1.501 1.501v6.846a1.5 1.5 0 0 1-1.501 1.501h-58.404v17.543h58.404a1.5 1.5 0 0 1 1.501 1.501v6.845c0 .831-.67 1.501-1.501 1.501m-65.249-3.002h63.758v-3.843h-58.404c-.831 0-1.501-.67-1.501-1.501v-20.545c0-.831.67-1.501 1.501-1.501h58.404v-3.843h-63.758z"/><path fill="#191917" d="M146.94 146.956H44.232v34.236H146.94z"/><path fill="#EBEBEB" d="M146.94 182.693H44.232c-.83 0-1.5-.67-1.5-1.501v-34.236a1.5 1.5 0 0 1 1.5-1.501H146.94a1.5 1.5 0 0 1 1.501 1.501v34.236a1.5 1.5 0 0 1-1.501 1.501m-101.207-3.002h99.706v-31.233H45.733z"/><path fill="#191917" d="M66.298 164.691a5.995 5.995 0 1 0-11.623-2.943 5.995 5.995 0 0 0 11.623 2.943"/><path fill="#EBEBEB" d="M60.495 170.714c-4.133 0-7.496-3.362-7.496-7.496 0-4.133 3.362-7.495 7.496-7.495 4.133 0 7.495 3.362 7.495 7.495 0 4.134-3.362 7.496-7.495 7.496m0-11.979a4.493 4.493 0 1 0 0 8.987 4.493 4.493 0 0 0 0-8.987"/><path fill="#191917" d="M200 119.576v-6.846h-66.75v34.226H200v-6.845h-59.905v-20.535z"/><path fill="#EBEBEB" d="M200 148.458h-66.76a1.5 1.5 0 0 1-1.502-1.501v-34.236a1.5 1.5 0 0 1 1.502-1.501H200c.831 0 1.501.67 1.501 1.501v6.845a1.5 1.5 0 0 1-1.501 1.501h-58.404V138.6H200a1.5 1.5 0 0 1 1.501 1.501v6.846a1.5 1.5 0 0 1-1.501 1.501zm-65.249-3.003h63.758v-3.843h-58.404c-.831 0-1.501-.67-1.501-1.501v-20.535c0-.831.67-1.501 1.501-1.501h58.404v-3.843h-63.758v31.233z"/><path fill="#191917" d="M133.249 112.73H30.542v34.236H133.25z"/><path fill="#EBEBEB" d="M133.249 148.458H30.542a1.5 1.5 0 0 1-1.501-1.501v-34.236c0-.831.67-1.501 1.501-1.501H133.25a1.5 1.5 0 0 1 1.502 1.501v34.236a1.5 1.5 0 0 1-1.502 1.501m-101.206-3.003h99.705v-31.233H32.043z"/><path fill="#191917" d="M50.71 133.53a5.995 5.995 0 1 0-7.814-9.094 5.995 5.995 0 0 0 7.815 9.094"/><path fill="#EBEBEB" d="M46.804 136.478c-4.133 0-7.495-3.362-7.495-7.495s3.362-7.496 7.495-7.496 7.496 3.363 7.496 7.496-3.363 7.495-7.496 7.495m0-11.979a4.493 4.493 0 1 0 4.493 4.494 4.494 4.494 0 0 0-4.493-4.494"/><path fill="#191917" d="M197.808 118.715h-57.713v21.397h57.713z"/><path fill="#EBEBEB" d="M197.808 141.613h-57.713a1.5 1.5 0 0 1-1.502-1.501v-21.397a1.5 1.5 0 0 1 1.502-1.501h57.713a1.5 1.5 0 0 1 1.501 1.501v21.397a1.5 1.5 0 0 1-1.501 1.501m-56.212-3.003h54.711v-18.393h-54.711z"/><path fill="#EBEBEB" d="M196.617 127.762H146.94c-.831 0-1.501-.67-1.501-1.501a1.5 1.5 0 0 1 1.501-1.501h49.677a1.5 1.5 0 0 1 1.501 1.501c0 .831-.67 1.501-1.501 1.501"/><path fill="#EBEBEB" d="M197.808 134.667H146.94a1.5 1.5 0 0 1-1.501-1.501c0-.831.67-1.501 1.501-1.501h50.868c.831 0 1.501.67 1.501 1.501a1.5 1.5 0 0 1-1.501 1.501"/><path fill="#191917" d="M211.288 153.381h-57.713v21.396h57.713z"/><path fill="#EBEBEB" d="M211.288 176.279h-57.713a1.5 1.5 0 0 1-1.501-1.502v-21.396a1.5 1.5 0 0 1 1.501-1.501h57.713a1.5 1.5 0 0 1 1.501 1.501v21.396a1.5 1.5 0 0 1-1.501 1.502m-56.212-3.003h54.711v-18.394h-54.711z"/><path fill="#EBEBEB" d="M210.097 162.428H160.42c-.831 0-1.501-.67-1.501-1.501s.67-1.501 1.501-1.501h49.677a1.5 1.5 0 0 1 1.502 1.501 1.5 1.5 0 0 1-1.502 1.501"/><path fill="#EBEBEB" d="M211.288 169.334H160.42a1.5 1.5 0 0 1-1.501-1.501 1.5 1.5 0 0 1 1.501-1.502h50.868a1.5 1.5 0 0 1 1.501 1.502 1.5 1.5 0 0 1-1.501 1.501"/><path fill="#191917" d="M197.808 187.617h-57.713v21.396h57.713z"/><path fill="#EBEBEB" d="M197.808 210.514h-57.713a1.5 1.5 0 0 1-1.502-1.501v-21.396a1.5 1.5 0 0 1 1.502-1.501h57.713c.831 0 1.501.67 1.501 1.501v21.396c0 .831-.67 1.501-1.501 1.501m-56.212-3.002h54.711v-18.394h-54.711z"/><path fill="#EBEBEB" d="M196.617 196.654H146.94c-.831 0-1.501-.67-1.501-1.501s.67-1.501 1.501-1.501h49.677c.831 0 1.501.67 1.501 1.501s-.67 1.501-1.501 1.501"/><path fill="#EBEBEB" d="M197.808 203.569H146.94c-.831 0-1.501-.67-1.501-1.501a1.5 1.5 0 0 1 1.501-1.501h50.868a1.5 1.5 0 0 1 1.501 1.501c0 .831-.67 1.501-1.501 1.501"/><path fill="#191917" d="M275.216 209.524H18.663v165.975h256.553z"/><path fill="#EBEBEB" d="M275.226 377H18.673a1.5 1.5 0 0 1-1.501-1.501V209.524a1.5 1.5 0 0 1 1.501-1.501h256.553a1.5 1.5 0 0 1 1.502 1.501v165.975a1.5 1.5 0 0 1-1.502 1.501m-255.062-3.002h253.551V211.025H20.165z"/><path fill="#191917" d="M275.216 209.524H147.18v165.975h128.036z"/><path fill="#EBEBEB" d="M275.226 377H147.19c-.831 0-1.501-.67-1.501-1.501V209.524a1.5 1.5 0 0 1 1.501-1.501h128.036a1.5 1.5 0 0 1 1.501 1.501v165.975c0 .831-.67 1.501-1.501 1.501m-126.545-3.002h125.034V211.025H148.681z"/><path fill="#EBEBEB" d="M129.787 241.989H97.883c-.831 0-1.501-.67-1.501-1.501s.67-1.501 1.5-1.501h31.905a1.5 1.5 0 0 1 1.501 1.501 1.5 1.5 0 0 1-1.501 1.501"/><path fill="#EBEBEB" d="M121.34 247.213H97.883a1.5 1.5 0 0 1-1.501-1.501 1.5 1.5 0 0 1 1.5-1.502h23.458a1.5 1.5 0 0 1 1.501 1.502 1.5 1.5 0 0 1-1.501 1.501"/><path fill="#191917" d="m147.18 209.524-15.532-21.986H1.5l17.163 21.986z"/><path fill="#EBEBEB" d="M147.18 211.026H18.663c-.46 0-.9-.211-1.18-.581L.318 188.459a1.51 1.51 0 0 1-.17-1.582c.25-.52.77-.84 1.351-.84h130.138c.491 0 .941.24 1.231.63l15.542 21.987c.32.46.36 1.061.11 1.561-.26.5-.771.811-1.331.811zm-127.776-3.003h124.884l-13.42-18.984H4.582z"/><path fill="#191917" d="m147.18 209.524 17.293-21.986h126.666l-15.912 21.986z"/><path fill="#EBEBEB" d="M275.226 211.025H147.19c-.57 0-1.101-.33-1.351-.84a1.49 1.49 0 0 1 .17-1.582l17.293-21.986a1.5 1.5 0 0 1 1.181-.571h126.656c.56 0 1.08.321 1.34.821.261.5.211 1.101-.12 1.561l-15.912 21.987c-.28.39-.73.62-1.221.62zm-124.954-3.002h124.184l13.74-18.984H165.204z"/></svg>