<svg xmlns="http://www.w3.org/2000/svg" width="368" height="350" fill="none" viewBox="0 0 368 350"><path fill="#191917" d="M13.427 348.499h339.769V101.447c-2.12-1.97-86.055-93.657-86.055-93.657l-98.597 94.787H13.437v245.922z"/><path fill="#EBEBEB" d="M353.186 350H13.427c-.83 0-1.5-.67-1.5-1.5V102.577c0-.83.67-1.5 1.5-1.5h154.507l98.167-94.366c.29-.28.68-.43 1.09-.42.4.01.79.19 1.06.49 28.975 31.645 84.225 91.936 85.965 93.566.3.28.48.68.48 1.1V348.5c0 .83-.67 1.5-1.5 1.5zm-338.258-3h336.768V102.057c-6.671-6.981-74.903-81.494-84.625-92.116l-97.487 93.716a1.5 1.5 0 0 1-1.04.421H14.938V347z"/><path fill="#191917" d="M13.417 348.5h155.107V102.577H13.417z"/><path fill="#EBEBEB" d="M168.534 350H13.427c-.83 0-1.5-.67-1.5-1.5V102.577c0-.83.67-1.5 1.5-1.5h155.107c.83 0 1.5.67 1.5 1.5V348.5c0 .83-.67 1.5-1.5 1.5m-153.606-3h152.106V104.078H14.928z"/><path fill="#191917" d="M142.68 214.517h-33.876v74.723h33.876z"/><path fill="#EBEBEB" d="M142.68 290.74h-33.876c-.83 0-1.5-.67-1.5-1.5v-74.723c0-.831.67-1.501 1.5-1.501h33.876c.83 0 1.5.67 1.5 1.501v74.723c0 .83-.67 1.5-1.5 1.5m-32.376-3.001h30.876v-71.722h-30.876z"/><path fill="#191917" d="M74.438 214.517H40.562v74.723h33.876z"/><path fill="#EBEBEB" d="M74.428 290.74H40.552c-.83 0-1.5-.67-1.5-1.5v-74.723c0-.831.67-1.501 1.5-1.501h33.876c.83 0 1.5.67 1.5 1.501v74.723c0 .83-.67 1.5-1.5 1.5m-32.366-3.001h30.876v-71.722H42.062z"/><path fill="#191917" d="M142.68 121.471h-33.876v74.723h33.876z"/><path fill="#EBEBEB" d="M142.68 197.694h-33.876c-.83 0-1.5-.67-1.5-1.5v-74.723c0-.83.67-1.5 1.5-1.5h33.876c.83 0 1.5.67 1.5 1.5v74.723c0 .83-.67 1.5-1.5 1.5m-32.376-3h30.876v-71.723h-30.876z"/><path fill="#191917" d="M74.438 121.471H40.562v74.723h33.876z"/><path fill="#EBEBEB" d="M74.428 197.694H40.552c-.83 0-1.5-.67-1.5-1.5v-74.723c0-.83.67-1.5 1.5-1.5h33.876c.83 0 1.5.67 1.5 1.5v74.723c0 .83-.67 1.5-1.5 1.5m-32.366-3h30.876v-71.723H42.062z"/><path fill="#191917" d="M328.402 214.517h-33.876v74.723h33.876z"/><path fill="#EBEBEB" d="M328.402 290.74h-33.876c-.83 0-1.5-.67-1.5-1.5v-74.723c0-.831.67-1.501 1.5-1.501h33.876c.83 0 1.5.67 1.5 1.501v74.723c0 .83-.67 1.5-1.5 1.5m-32.376-3.001h30.876v-71.722h-30.876z"/><path fill="#191917" d="M273.162 215.097H202.77V348.36h70.392z"/><path fill="#EBEBEB" d="M273.162 349.86H202.77c-.83 0-1.5-.67-1.5-1.5V215.097c0-.83.67-1.5 1.5-1.5h70.392c.83 0 1.501.67 1.501 1.5V348.36c0 .83-.671 1.5-1.501 1.5m-68.892-3h67.392V216.597H204.27z"/><path fill="#191917" d="m267.131 7.79 86.765 94.777h12.253L273.623 1.56"/><path fill="#EBEBEB" d="M366.149 104.068h-12.243c-.42 0-.82-.18-1.11-.49L266.031 8.792a1.502 1.502 0 0 1 2.211-2.03l86.324 94.296h8.172L272.522 2.56a1.502 1.502 0 0 1 2.211-2.03l92.526 101.008c.4.44.51 1.07.27 1.62-.24.54-.78.9-1.37.9z"/><path fill="#191917" d="M252.669 276.478h-29.405v10.511h29.405z"/><path fill="#EBEBEB" d="M252.669 288.49h-29.405a1.5 1.5 0 0 1-1.501-1.501v-10.511a1.5 1.5 0 0 1 1.501-1.501h29.405c.83 0 1.5.67 1.5 1.501v10.511c0 .83-.67 1.501-1.5 1.501m-27.905-3.001h26.405v-7.511h-26.405z"/><path fill="#191917" d="M100.873 1.5 1.485 102.568h167.049l13.643-13.183L273.112 1.62z"/><path fill="#EBEBEB" d="M168.534 104.068H1.495c-.6 0-1.15-.36-1.38-.92s-.11-1.2.31-1.63L99.813.45c.28-.29.67-.45 1.07-.45l172.239.12c.611 0 1.161.37 1.391.94s.09 1.22-.35 1.64l-90.936 87.766-13.642 13.182c-.281.27-.651.42-1.041.42zM5.066 101.067h162.858l13.213-12.762 88.265-85.194-167.899-.12-96.437 98.066z"/></svg>