<svg xmlns="http://www.w3.org/2000/svg" width="367" height="379" fill="none" viewBox="0 0 367 379"><path fill="#FFFBE8" d="m294.384 374.121 63.153-30.354s7.854 0 7.854-23.022S359.11 94.67 359.11 94.67s-1.042-41.344-43.959-47.625C272.244 40.763 67.627 2.565 67.627 2.565s-10.64-2.966-22.53 1.011c-9.317 3.116-17.712 6.472-17.712 6.472"/><path fill="#000" d="M294.384 375.624a1.503 1.503 0 0 1-.651-2.855l63.153-30.355c.2-.1.421-.15.651-.15 0 0 6.351-.781 6.351-21.518 0-22.741-6.221-223.992-6.281-226.026 0-.11-.331-10.228-5.78-20.927-7.243-14.236-19.656-22.731-36.896-25.256-42.447-6.21-245.54-44.109-247.584-44.49-.04 0-.08-.02-.13-.03-.1-.03-10.37-2.785-21.65.992-9.166 3.066-17.541 6.412-17.631 6.452a1.503 1.503 0 1 1-1.112-2.795c.08-.03 8.545-3.406 17.792-6.502C56.437-1.793 66.926.832 67.958 1.112c4.458.832 205.278 38.299 247.413 44.46 43.659 6.392 45.231 48.647 45.241 49.068.061 2.024 6.282 203.325 6.282 226.106 0 22.78-7.003 24.233-8.946 24.503l-62.903 30.235c-.21.1-.431.15-.651.15z"/><path fill="#FFFBE8" d="M24.61 308.413v1.643c0 .711.511 1.323 1.212 1.453l3.867.691c.491.09.992.05 1.463-.11l2.504-.842c.511-.17.491-.901-.03-1.052l-8.315-2.314a.546.546 0 0 0-.69.531z"/><path fill="#000" d="M30.21 313.753c-.26 0-.53-.02-.781-.07l-3.867-.692a2.966 2.966 0 0 1-2.455-2.925v-1.643c0-.651.3-1.242.812-1.633a2.02 2.02 0 0 1 1.793-.34l8.315 2.314a2.05 2.05 0 0 1 1.503 1.923 2.04 2.04 0 0 1-1.393 1.994l-2.504.841c-.461.15-.942.231-1.423.231m-4.097-4.088v.391l3.686.641z"/><path fill="#FFFBE8" d="M259.511 372.879c-.04.16-.06.4-.07.661a2.63 2.63 0 0 0 1.924 2.635l4.328 1.182c.961.26 1.983.15 2.865-.301l3.336-1.733z"/><path fill="#000" d="M266.734 379c-.481 0-.971-.061-1.442-.191l-4.328-1.182c-1.853-.501-3.096-2.204-3.035-4.137.01-.411.05-.722.12-.972a1.51 1.51 0 0 1 1.753-1.112l12.382 2.444a1.49 1.49 0 0 1 1.192 1.263 1.5 1.5 0 0 1-.791 1.542l-3.336 1.733a5.4 5.4 0 0 1-2.515.612m-3.276-3.807 2.625.721c.381.11.782.11 1.172.03z"/><path fill="#FFFBE8" d="M350.944 289.948c1.241-6.562-.873-12.471-4.722-13.199s-7.975 4.001-9.216 10.563c-1.241 6.561.873 12.471 4.722 13.199s7.975-4.001 9.216-10.563"/><path fill="#000" d="M342.55 302.112c-.361 0-.731-.03-1.092-.1-4.738-.902-7.333-7.474-5.91-14.967.651-3.436 2.063-6.532 3.977-8.726 2.104-2.414 4.588-3.486 7.002-3.035 4.739.901 7.333 7.473 5.911 14.966-.651 3.437-2.064 6.532-3.977 8.726-1.793 2.054-3.857 3.136-5.911 3.136m2.885-23.923c-1.562 0-2.935 1.282-3.656 2.104-1.573 1.793-2.735 4.388-3.286 7.303-1.052 5.54.591 10.899 3.526 11.45 1.773.341 3.376-1.142 4.178-2.053 1.573-1.794 2.735-4.388 3.286-7.304 1.052-5.539-.601-10.899-3.527-11.45-.18-.03-.35-.05-.521-.05"/><path fill="#FFFBE8" d="m30.73 8.816 272.91 51.312s31.046 5.76 27.74 47.626c-3.186 40.292-14.125 233.919-14.125 233.919s0 46.053-55.991 31.396-233.92-64.365-233.92-64.365S-.915 301.381 1.7 250.62C4.313 199.859 9.553 41.294 9.553 41.294S9.203 15.308 30.75 8.826z"/><path fill="#000" d="M281.31 377.457c-6.151 0-12.973-.982-20.446-2.935-55.37-14.486-232.167-63.875-233.95-64.376-1.172-.3-29.393-8.214-26.738-59.616C2.761 200.36 7.97 42.817 8.02 41.234c0-.2-.11-27.128 22.27-33.86.23-.07.47-.08.711-.04l272.91 51.311c.32.06 32.338 6.492 28.952 49.219-3.156 39.811-14.015 231.956-14.126 233.889 0 .651-.15 18.143-13.544 28.481-6.231 4.809-14.225 7.223-23.883 7.223M30.811 10.369C10.976 16.61 11.026 41.024 11.026 41.274 10.976 42.927 5.766 200.5 3.17 250.7c-.73 14.125.652 33.72 11.35 46.874 6.352 7.804 13.104 9.667 13.174 9.687 1.804.501 178.581 49.89 233.92 64.366 18.253 4.778 32.288 3.516 41.705-3.737 12.232-9.417 12.402-26.037 12.402-26.207.11-2.024 10.98-194.188 14.135-234.04 3.166-39.951-25.305-45.792-26.517-46.022L30.801 10.379z"/><path fill="#FFFBE8" d="M351.567 243.696c1.241-6.562-.873-12.472-4.722-13.2s-7.976 4.002-9.217 10.563.873 12.472 4.722 13.2 7.976-4.002 9.217-10.563"/><path fill="#000" d="M343.171 255.849c-.36 0-.731-.03-1.092-.1-4.738-.902-7.333-7.474-5.91-14.967.651-3.436 2.063-6.532 3.977-8.726 2.104-2.414 4.588-3.496 7.002-3.035 4.739.901 7.333 7.473 5.911 14.967-.651 3.436-2.064 6.531-3.977 8.725-1.793 2.054-3.857 3.136-5.911 3.136m-4.047-14.506c-1.182 6.221.871 10.95 3.526 11.45 1.773.341 3.376-1.142 4.178-2.053 1.573-1.793 2.735-4.388 3.286-7.303 1.052-5.54-.591-10.9-3.527-11.451-1.773-.33-3.376 1.142-4.177 2.054-1.573 1.793-2.735 4.388-3.286 7.303"/><path fill="#FFFBE8" d="M345.813 270.285c.272-1.44-.194-2.738-1.042-2.899-.848-.16-1.757.878-2.029 2.319-.273 1.44.194 2.738 1.042 2.898s1.756-.877 2.029-2.318"/><path fill="#000" d="M343.983 274.142c-.151 0-.301-.01-.461-.041-1.713-.32-2.675-2.324-2.234-4.658.18-.952.591-1.833 1.142-2.464.741-.842 1.703-1.222 2.635-1.052 1.713.32 2.674 2.324 2.234 4.658-.181.952-.592 1.833-1.143 2.475-.621.711-1.392 1.092-2.183 1.092zm.42-4.689c-.06.15-.12.341-.16.551s-.05.401-.05.571c.06-.15.12-.34.16-.551.04-.21.05-.401.05-.571"/><path fill="#FFFBE8" d="M346.445 224.033c.273-1.44-.194-2.738-1.042-2.898s-1.756.877-2.029 2.318c-.272 1.44.194 2.738 1.042 2.899.848.16 1.757-.878 2.029-2.319"/><path fill="#000" d="M344.604 227.889c-.151 0-.301-.01-.461-.04-.942-.18-1.693-.882-2.074-1.944-.28-.791-.34-1.763-.16-2.715.18-.951.591-1.833 1.142-2.474.741-.841 1.703-1.222 2.635-1.052 1.713.321 2.674 2.324 2.234 4.659-.181.951-.591 1.833-1.142 2.464-.622.711-1.393 1.092-2.184 1.092zm.26-4.148a3 3 0 0 0-.05.572c.06-.151.12-.341.16-.551s.05-.401.05-.572a3 3 0 0 0-.16.551"/><path fill="#FFFBE8" d="M347.07 200.003c.272-1.441-.194-2.738-1.043-2.899-.848-.16-1.756.878-2.028 2.318-.273 1.441.194 2.739 1.042 2.899s1.756-.877 2.029-2.318"/><path fill="#000" d="M345.225 203.856c-.15 0-.3-.01-.461-.04-1.713-.321-2.675-2.324-2.234-4.659.181-.951.591-1.833 1.142-2.464.742-.842 1.703-1.222 2.635-1.052.942.18 1.693.882 2.074 1.944.28.791.34 1.763.16 2.714s-.591 1.834-1.142 2.475c-.621.711-1.393 1.092-2.184 1.092zm.431-4.689a2.9 2.9 0 0 0-.211 1.122 2.9 2.9 0 0 0 .211-1.122"/><path fill="#FFFBE8" d="M347.694 175.973c.272-1.441-.194-2.739-1.042-2.899s-1.757.877-2.029 2.318c-.273 1.44.194 2.738 1.042 2.899.848.16 1.756-.878 2.029-2.318"/><path fill="#000" d="M345.856 179.823c-.15 0-.3-.01-.461-.04-1.713-.321-2.675-2.325-2.234-4.659.181-.951.591-1.833 1.142-2.474.742-.842 1.703-1.222 2.635-1.052 1.713.321 2.675 2.324 2.234 4.658-.18.952-.591 1.834-1.142 2.475-.621.711-1.393 1.092-2.184 1.092zm.421-4.689a2.9 2.9 0 0 0-.211 1.122 2.9 2.9 0 0 0 .211-1.122"/><path fill="#FFFBE8" d="M348.32 151.933c.272-1.441-.194-2.739-1.042-2.899s-1.757.877-2.029 2.318c-.273 1.44.194 2.738 1.042 2.899.848.16 1.757-.878 2.029-2.318"/><path fill="#000" d="M346.477 155.79c-.15 0-.3-.01-.461-.04-1.713-.321-2.674-2.324-2.234-4.659.181-.951.592-1.833 1.143-2.474.741-.841 1.703-1.222 2.634-1.052 1.713.321 2.675 2.324 2.234 4.658-.18.952-.591 1.834-1.142 2.475-.621.711-1.392 1.092-2.184 1.092zm.261-4.138c-.04.211-.05.401-.05.571.06-.15.12-.34.16-.55s.05-.401.05-.572a3 3 0 0 0-.16.551"/></svg>