<svg xmlns="http://www.w3.org/2000/svg" width="613" height="296" fill="none" viewBox="0 0 613 296"><path fill="#191917" d="M281.179 12.18H7.126a5.625 5.625 0 0 0-5.625 5.625v270.97a5.625 5.625 0 0 0 5.625 5.625h274.053a5.625 5.625 0 0 0 5.624-5.625V17.805a5.624 5.624 0 0 0-5.624-5.625"/><path fill="#EBEBEB" d="M281.179 295.901H7.126A7.13 7.13 0 0 1 0 288.775V17.805a7.13 7.13 0 0 1 7.126-7.126h274.043a7.13 7.13 0 0 1 7.126 7.126v270.97a7.13 7.13 0 0 1-7.126 7.126zM7.126 13.681a4.13 4.13 0 0 0-4.123 4.124v270.97a4.13 4.13 0 0 0 4.123 4.123h274.043a4.13 4.13 0 0 0 4.123-4.123V17.805a4.13 4.13 0 0 0-4.123-4.123z"/><path fill="#EBEBEB" d="M286.803 104.459H1.501A1.5 1.5 0 0 1 0 102.957a1.5 1.5 0 0 1 1.501-1.501h285.302a1.5 1.5 0 0 1 1.502 1.501 1.5 1.5 0 0 1-1.502 1.502"/><path fill="#191917" d="M35.4 233.968c6.843 0 12.39-5.547 12.39-12.39s-5.547-12.391-12.39-12.391-12.39 5.548-12.39 12.391 5.547 12.39 12.39 12.39"/><path fill="#EBEBEB" d="M35.4 235.47c-7.656 0-13.892-6.236-13.892-13.892 0-7.657 6.236-13.892 13.892-13.892 7.657 0 13.892 6.235 13.892 13.892S43.056 235.47 35.4 235.47m0-24.782c-6.005 0-10.89 4.885-10.89 10.89s4.885 10.889 10.89 10.889 10.89-4.884 10.89-10.889-4.885-10.89-10.89-10.89"/><path fill="#191917" d="M258.349 233.968c6.843 0 12.391-5.547 12.391-12.39s-5.548-12.391-12.391-12.391-12.39 5.548-12.39 12.391 5.547 12.39 12.39 12.39"/><path fill="#EBEBEB" d="M258.349 235.47c-7.656 0-13.892-6.236-13.892-13.892 0-7.657 6.236-13.892 13.892-13.892 7.657 0 13.892 6.235 13.892 13.892s-6.235 13.892-13.892 13.892m0-24.782c-6.005 0-10.889 4.885-10.889 10.89s4.884 10.889 10.889 10.889 10.889-4.884 10.889-10.889-4.884-10.89-10.889-10.89"/><path fill="#191917" d="M212.32 194.004h-54.636v29.846h54.636z"/><path fill="#EBEBEB" d="M212.32 225.351h-54.626a1.5 1.5 0 0 1-1.501-1.501v-29.846a1.5 1.5 0 0 1 1.501-1.501h54.626a1.5 1.5 0 0 1 1.501 1.501v29.846a1.5 1.5 0 0 1-1.501 1.501m-53.135-3.003h51.624v-26.842h-51.624z"/><path fill="#191917" d="m155.262 241.555 2.422-17.705h54.636l2.122 17.705"/><path fill="#EBEBEB" d="M155.262 243.056c-.07 0-.14 0-.21-.01a1.494 1.494 0 0 1-1.282-1.691l2.423-17.705c.1-.741.74-1.301 1.491-1.301h54.626c.761 0 1.401.57 1.491 1.321l2.132 17.705c.1.821-.49 1.571-1.311 1.671s-1.571-.49-1.671-1.311l-1.972-16.384h-51.994l-2.242 16.404a1.505 1.505 0 0 1-1.481 1.301"/><path fill="#191917" d="M132.322 194.004H92.669v29.846h39.653z"/><path fill="#EBEBEB" d="M132.322 225.351H92.669a1.5 1.5 0 0 1-1.502-1.501v-29.846a1.5 1.5 0 0 1 1.502-1.501h39.653a1.5 1.5 0 0 1 1.502 1.501v29.846a1.5 1.5 0 0 1-1.502 1.501m-38.152-3.003h36.651v-26.842H94.17z"/><path fill="#191917" d="m90.917 241.555 1.751-17.705h39.654l1.541 17.705"/><path fill="#EBEBEB" d="M90.917 243.056h-.15a1.496 1.496 0 0 1-1.341-1.641l1.761-17.705c.08-.771.72-1.351 1.492-1.351h39.653c.781 0 1.431.59 1.491 1.371l1.542 17.705c.07.83-.541 1.551-1.361 1.621a1.494 1.494 0 0 1-1.622-1.361l-1.421-16.334H94.05l-1.622 16.354a1.505 1.505 0 0 1-1.491 1.351z"/><path fill="#191917" d="m6.856 11.9 23.96-10.39H259.19l23.19 10.39z"/><path fill="#EBEBEB" d="M282.38 13.401H6.856a1.503 1.503 0 0 1-.6-2.883L30.215.12q.285-.12.6-.12H259.19c.21 0 .42.04.61.13l23.19 10.399c.651.29 1.001.99.851 1.681a1.51 1.51 0 0 1-1.471 1.191zM14.092 10.4h261.272L258.87 3.003H31.127l-17.045 7.396z"/><path fill="#EBEBEB" d="M27.924 232.967a1.509 1.509 0 0 1-1.181-2.432l15.263-19.516a1.51 1.51 0 0 1 2.111-.26c.65.51.771 1.451.26 2.111l-15.262 19.517c-.3.38-.741.58-1.181.58z"/><path fill="#EBEBEB" d="M250.252 232.457c-.35 0-.7-.12-.98-.37a1.514 1.514 0 0 1-.151-2.122l16.264-18.696a1.515 1.515 0 0 1 2.122-.15c.621.541.691 1.491.15 2.122l-16.264 18.696c-.3.34-.71.52-1.131.52z"/><path fill="#191917" d="M605.874 12.18H331.821a5.624 5.624 0 0 0-5.624 5.625v270.97a5.625 5.625 0 0 0 5.624 5.625h274.053a5.626 5.626 0 0 0 5.625-5.625V17.805a5.625 5.625 0 0 0-5.625-5.625"/><path fill="#EBEBEB" d="M605.874 295.901H331.831a7.13 7.13 0 0 1-7.126-7.126V17.805a7.13 7.13 0 0 1 7.126-7.126h274.043A7.13 7.13 0 0 1 613 17.805v270.97a7.13 7.13 0 0 1-7.126 7.126M331.821 13.681a4.13 4.13 0 0 0-4.123 4.124v270.97a4.13 4.13 0 0 0 4.123 4.123h274.043a4.13 4.13 0 0 0 4.123-4.123V17.805a4.13 4.13 0 0 0-4.123-4.123z"/><path fill="#EBEBEB" d="M611.499 104.459H326.197a1.5 1.5 0 0 1-1.502-1.502 1.5 1.5 0 0 1 1.502-1.501h285.302a1.5 1.5 0 0 1 1.501 1.501 1.5 1.5 0 0 1-1.501 1.502"/><path fill="#191917" d="M359.105 233.968c6.843 0 12.39-5.547 12.39-12.39s-5.547-12.391-12.39-12.391-12.391 5.548-12.391 12.391 5.547 12.39 12.391 12.39"/><path fill="#EBEBEB" d="M359.105 235.47c-7.657 0-13.892-6.236-13.892-13.892 0-7.657 6.235-13.892 13.892-13.892s13.891 6.235 13.891 13.892-6.235 13.892-13.891 13.892m0-24.782c-6.006 0-10.89 4.885-10.89 10.89s4.884 10.889 10.89 10.889c6.005 0 10.889-4.884 10.889-10.889s-4.884-10.89-10.889-10.89"/><path fill="#191917" d="M582.054 233.968c6.843 0 12.39-5.547 12.39-12.39s-5.547-12.391-12.39-12.391-12.391 5.548-12.391 12.391 5.548 12.39 12.391 12.39"/><path fill="#EBEBEB" d="M582.054 235.47c-7.657 0-13.892-6.236-13.892-13.892 0-7.657 6.235-13.892 13.892-13.892s13.891 6.235 13.891 13.892-6.235 13.892-13.891 13.892m0-24.782c-6.005 0-10.89 4.885-10.89 10.89s4.885 10.889 10.89 10.889 10.889-4.884 10.889-10.889-4.884-10.89-10.889-10.89"/><path fill="#191917" d="M497.071 194.004h-54.636v29.846h54.636z"/><path fill="#EBEBEB" d="M497.071 225.351h-54.626a1.5 1.5 0 0 1-1.501-1.501v-29.846a1.5 1.5 0 0 1 1.501-1.501h54.626a1.5 1.5 0 0 1 1.502 1.501v29.846a1.5 1.5 0 0 1-1.502 1.501m-53.135-3.003h51.624v-26.842h-51.624z"/><path fill="#191917" d="m440.163 241.555 2.422-17.705h54.627l2.132 17.705"/><path fill="#EBEBEB" d="M440.163 243.056c-.07 0-.14 0-.21-.01a1.493 1.493 0 0 1-1.281-1.691l2.422-17.705c.1-.741.741-1.301 1.491-1.301h54.637c.76 0 1.401.57 1.491 1.321l2.132 17.705c.1.821-.491 1.571-1.311 1.671-.821.1-1.572-.49-1.672-1.311l-1.971-16.384h-51.994l-2.242 16.404a1.506 1.506 0 0 1-1.482 1.301z"/><path fill="#191917" d="M488.674 42.796h-39.653v29.845h39.653z"/><path fill="#EBEBEB" d="M488.674 74.143h-39.653c-.831 0-1.501-.67-1.501-1.502V42.796a1.5 1.5 0 0 1 1.501-1.501h39.653a1.5 1.5 0 0 1 1.502 1.501v29.845a1.5 1.5 0 0 1-1.502 1.502m-38.152-3.003h36.651V44.297h-36.651z"/><path fill="#191917" d="m447.37 90.347 1.761-17.705h39.654l1.541 17.705"/><path fill="#EBEBEB" d="M447.37 91.848h-.151a1.496 1.496 0 0 1-1.341-1.642l1.762-17.705c.08-.77.72-1.35 1.491-1.35h39.654c.78 0 1.431.59 1.491 1.37l1.541 17.705c.07.831-.54 1.552-1.361 1.622a1.5 1.5 0 0 1-1.621-1.361l-1.421-16.334h-36.912l-1.621 16.354a1.506 1.506 0 0 1-1.491 1.35z"/><path fill="#191917" d="m331.091 11.9 23.96-10.389h228.364l23.19 10.389z"/><path fill="#EBEBEB" d="M606.605 13.401H331.091a1.503 1.503 0 0 1-.601-2.883L354.451.12q.285-.12.6-.12h228.374c.21 0 .42.04.61.13l23.19 10.399c.651.29 1.001.99.851 1.681a1.51 1.51 0 0 1-1.471 1.191M338.317 10.4h261.272l-16.494-7.396H355.362z"/><path fill="#EBEBEB" d="M351.628 232.967c-.32 0-.65-.1-.921-.32a1.51 1.51 0 0 1-.26-2.112l15.263-19.516a1.51 1.51 0 0 1 2.112-.26c.65.51.771 1.451.26 2.111l-15.263 19.517c-.3.38-.74.58-1.181.58z"/><path fill="#EBEBEB" d="M573.957 232.457c-.35 0-.701-.12-.981-.37a1.514 1.514 0 0 1-.15-2.122l16.264-18.696c.54-.62 1.491-.69 2.122-.15.62.541.69 1.491.15 2.122l-16.264 18.696c-.3.34-.711.52-1.131.52z"/></svg>