<svg xmlns="http://www.w3.org/2000/svg" width="312" height="345" fill="none" viewBox="0 0 312 345"><path fill="#191917" d="M4.763 28.267 25.005 4.823a14.44 14.44 0 0 1 9.196-3.312H278.67c3.642 0 7.144 1.37 9.806 3.852l18.121 22.904"/><path fill="#EBEBEB" d="M306.587 29.768c-.441 0-.881-.2-1.181-.57L287.365 6.384a12.9 12.9 0 0 0-8.705-3.372H34.19c-2.96 0-5.843 1.02-8.144 2.892L5.884 29.248c-.54.63-1.491.7-2.122.15-.63-.54-.7-1.491-.15-2.121L23.855 3.832q.075-.09.18-.18A15.94 15.94 0 0 1 34.19 0h244.47a15.85 15.85 0 0 1 10.826 4.253c.06.05.11.11.16.17l18.121 22.904c.511.65.401 1.59-.25 2.11-.28.221-.6.321-.93.321z"/><path fill="#191917" d="M295.95 19.942H15.41c-7.682 0-13.91 6.227-13.91 13.909v295.74c0 7.681 6.228 13.908 13.91 13.908h280.54c7.682 0 13.909-6.227 13.909-13.908V33.851c0-7.682-6.227-13.909-13.909-13.909"/><path fill="#EBEBEB" d="M295.94 345H15.41C6.913 345 0 338.086 0 329.591V33.851c0-8.495 6.914-15.41 15.41-15.41h280.53c8.495 0 15.41 6.915 15.41 15.41v295.73c0 8.495-6.915 15.409-15.41 15.409zM15.41 21.443c-6.845 0-12.408 5.564-12.408 12.408v295.73c0 6.844 5.563 12.407 12.407 12.407H295.94c6.844 0 12.408-5.563 12.408-12.407V33.851c0-6.844-5.564-12.408-12.408-12.408z"/><path fill="#191917" d="M295.95 19.942H15.41c-7.682 0-13.91 6.227-13.91 13.909v295.74c0 7.681 6.228 13.908 13.91 13.908h280.54c7.682 0 13.909-6.227 13.909-13.908V33.851c0-7.682-6.227-13.909-13.909-13.909"/><path fill="#EBEBEB" d="M295.94 345H15.41C6.913 345 0 338.086 0 329.591V33.851c0-8.495 6.914-15.41 15.41-15.41h280.53c8.495 0 15.41 6.915 15.41 15.41v295.73c0 8.495-6.915 15.409-15.41 15.409zM15.41 21.443c-6.845 0-12.408 5.564-12.408 12.408v295.73c0 6.844 5.563 12.407 12.407 12.407H295.94c6.844 0 12.408-5.563 12.408-12.407V33.851c0-6.844-5.564-12.408-12.408-12.408z"/><mask id="b" width="309" height="325" x="1" y="19" maskUnits="userSpaceOnUse" style="mask-type:luminance"><mask id="a" width="309" height="325" x="1" y="19" maskUnits="userSpaceOnUse" style="mask-type:luminance"><path fill="#fff" d="M295.95 19.942H15.41c-7.682 0-13.91 6.227-13.91 13.909v295.74c0 7.681 6.228 13.908 13.91 13.908h280.54c7.682 0 13.909-6.227 13.909-13.908V33.851c0-7.682-6.227-13.909-13.909-13.909"/></mask><g mask="url(#a)"><path fill="#fff" d="M295.94 345H15.41C6.913 345 0 338.086 0 329.591V33.851c0-8.495 6.914-15.41 15.41-15.41h280.53c8.495 0 15.41 6.915 15.41 15.41v295.73c0 8.495-6.915 15.409-15.41 15.409zM15.41 21.443c-6.845 0-12.408 5.564-12.408 12.408v295.73c0 6.844 5.563 12.407 12.407 12.407H295.94c6.844 0 12.408-5.563 12.408-12.407V33.851c0-6.844-5.564-12.408-12.408-12.408z"/></g></mask><g mask="url(#b)"><path fill="#191917" d="M65.61 496.322c106.678 0 193.158-86.48 193.158-193.158S172.288 110.007 65.61 110.007s-193.158 86.479-193.158 193.157 86.48 193.158 193.158 193.158"/><path fill="#EBEBEB" d="M65.61 497.823c-107.335 0-194.659-87.323-194.659-194.659 0-107.335 87.324-194.658 194.659-194.658s194.658 87.323 194.658 194.658c0 107.336-87.323 194.659-194.658 194.659m0-386.315c-105.674 0-191.657 85.972-191.657 191.656S-40.074 494.821 65.61 494.821s191.657-85.972 191.657-191.657c0-105.684-85.973-191.656-191.657-191.656"/></g><path fill="#EBEBEB" d="M57.995 65.75h3.572c.951 0 1.721.27 2.302.8q.87.795.87 2.132c0 .89-.29 1.58-.87 2.111-.58.53-1.351.8-2.302.8h-1.69v2.952h-1.882zm1.881 1.57v2.703h1.521q.66 0 1.05-.36c.261-.24.391-.571.391-.981s-.13-.75-.39-.99q-.39-.361-1.05-.361h-1.522z"/><path fill="#EBEBEB" d="M71.003 73.705c-.62.6-1.44.9-2.472.9-1.03 0-1.85-.3-2.471-.9-.62-.6-.93-1.401-.93-2.392q0-1.486.93-2.401c.62-.6 1.44-.9 2.471-.9s1.852.3 2.472.9q.93.9.93 2.401c0 1-.31 1.791-.93 2.392m-2.472-.54q.735 0 1.171-.511c.29-.34.43-.79.43-1.34 0-.551-.14-1.001-.43-1.342q-.435-.51-1.17-.51c-.49 0-.871.17-1.161.51s-.43.79-.43 1.341.14 1 .43 1.34.67.511 1.16.511"/><path fill="#EBEBEB" d="M72.114 68.091h1.87l1.292 4.543 1.22-4.543h1.591l1.181 4.553 1.32-4.553H82.4l-2.121 6.454h-1.882l-1.13-3.892-1.15 3.892h-1.882l-2.111-6.454z"/><path fill="#EBEBEB" d="M83.49 73.725c-.62-.59-.93-1.391-.93-2.392s.3-1.81.89-2.411c.591-.6 1.382-.9 2.362-.9q1.47 0 2.402.84c.61.56.92 1.31.93 2.261 0 .23-.02.43-.05.6h-4.683v.05c.04.47.19.841.45 1.101.26.27.611.4 1.071.4.76 0 1.221-.31 1.371-.92h1.741c-.1.65-.42 1.19-.95 1.621-.53.43-1.211.64-2.032.64-1.09 0-1.94-.3-2.561-.89zm.951-3.162h2.922c-.06-.39-.22-.7-.48-.91s-.6-.32-1-.32c-.401 0-.711.11-.971.33s-.42.52-.47.9"/><path fill="#EBEBEB" d="M93.727 68.091h.3v1.611h-.7q-1.453 0-1.451 1.681v3.162h-1.771v-6.454h1.6l.161.97c.39-.64 1.01-.97 1.861-.97"/><path fill="#EBEBEB" d="M120.403 74.535V65.75h1.882v7.164h3.492v1.621z"/><path fill="#EBEBEB" d="M133.271 66.95c.811.841 1.221 1.912 1.221 3.203s-.41 2.351-1.221 3.202c-.81.84-1.861 1.27-3.132 1.27s-2.321-.42-3.132-1.27c-.81-.84-1.22-1.911-1.22-3.202s.41-2.352 1.22-3.202c.811-.84 1.861-1.27 3.132-1.27s2.322.42 3.132 1.27m-4.893 1.132c-.45.54-.67 1.23-.67 2.06s.22 1.522.67 2.062 1.031.81 1.761.81c.731 0 1.311-.27 1.761-.81.44-.54.661-1.23.661-2.061 0-.83-.221-1.521-.661-2.061s-1.03-.81-1.761-.81-1.311.27-1.761.81"/><path fill="#EBEBEB" d="m135.282 71.654 1.842.03c.03.43.21.78.53 1.05q.48.39 1.291.39c.44 0 .8-.09 1.08-.28a.9.9 0 0 0 .421-.78c0-.33-.15-.58-.461-.72-.31-.14-.88-.29-1.721-.46-.33-.06-.62-.12-.87-.19a4 4 0 0 1-.751-.301c-.26-.13-.46-.28-.63-.45a2.1 2.1 0 0 1-.4-.66c-.1-.27-.15-.581-.15-.921 0-.77.31-1.401.92-1.911.611-.5 1.401-.75 2.352-.75s1.791.26 2.431.78.971 1.18.981 1.98h-1.841c-.04-.38-.201-.68-.481-.91s-.64-.34-1.09-.34c-.421 0-.751.09-1.001.26-.25.18-.38.43-.38.75s.15.561.45.701.871.29 1.691.45c.43.08.801.16 1.091.26q.435.15.87.42c.29.18.501.421.651.721.14.3.21.66.21 1.09 0 .801-.33 1.462-.981 1.992-.64.52-1.461.78-2.451.78-1.061 0-1.931-.28-2.602-.83-.67-.56-1.021-1.26-1.031-2.131z"/><path fill="#EBEBEB" d="M174.356 65.75h3.572c.951 0 1.721.27 2.302.8q.87.795.87 2.132c0 .89-.29 1.58-.87 2.111-.581.53-1.351.8-2.302.8h-1.691v2.952h-1.881zm1.881 1.57v2.703h1.521q.66 0 1.051-.36c.26-.24.39-.571.39-.981s-.13-.75-.39-.99q-.39-.361-1.051-.361h-1.521z"/><path fill="#EBEBEB" d="M189.295 66.95c.811.841 1.221 1.912 1.221 3.203s-.41 2.351-1.221 3.202c-.81.84-1.861 1.27-3.132 1.27s-2.321-.42-3.132-1.27c-.81-.84-1.22-1.911-1.22-3.202s.41-2.352 1.22-3.202c.811-.84 1.861-1.27 3.132-1.27s2.322.42 3.132 1.27m-4.893 1.132c-.45.54-.67 1.23-.67 2.06s.22 1.522.67 2.062 1.031.81 1.761.81c.731 0 1.311-.27 1.761-.81.441-.54.661-1.23.661-2.061 0-.83-.22-1.521-.661-2.061-.44-.54-1.03-.81-1.761-.81s-1.311.27-1.761.81"/><path fill="#EBEBEB" d="M191.657 74.535V65.75h1.711l3.722 5.533V65.75h1.861v8.785h-1.721l-3.722-5.533v5.533z"/><path fill="#EBEBEB" d="M230.86 74.535V65.75h1.882v7.164h3.492v1.621z"/><path fill="#EBEBEB" d="m236.614 74.535 3.212-8.785h2.261l3.182 8.785h-2.021l-.68-1.92h-3.332l-.681 1.92zm3.132-3.432h2.321l-1.17-3.342z"/><path fill="#EBEBEB" d="M246.08 74.535V65.75h1.701l3.722 5.533V65.75h1.861v8.785h-1.721l-3.722-5.533v5.533z"/><path fill="#EBEBEB" d="M33.92 296.981c-2.28 0-3.752 1.751-3.752 5.283s1.471 5.253 3.752 5.253c2.282 0 3.753-1.721 3.753-5.253s-1.441-5.283-3.753-5.283m0 12.417c-3.392 0-6.253-2.081-6.253-7.134s2.891-7.164 6.253-7.164 6.254 2.111 6.254 7.164-2.861 7.134-6.254 7.134m14.25-12.247c-2.112 0-3.753 1.721-3.753 4.523v4.192c.72.891 1.691 1.581 3.392 1.581 2.612 0 3.802-2.281 3.802-5.393 0-3.442-1.11-4.913-3.442-4.913m.27 12.257c-1.64 0-2.781-.28-4.032-1.14v4.653h-2.442V295.53l2.442-.08v1.561c1.11-1.281 2.221-1.921 4.413-1.921 2.641 0 5.273 1.831 5.273 6.914 0 4.663-2.442 7.384-5.664 7.384m13.258-12.517c-.97 0-1.75.28-2.361.89-.64.671-1.05 1.611-1.22 3.332h6.753c0-3.001-1.25-4.222-3.162-4.222m-3.592 6.003c.25 3.332 2.172 4.503 4.303 4.503 1.42 0 2.331-.19 3.412-.67l.64 1.801c-1.14.53-2.361.89-4.502.89-3.162 0-6.304-1.641-6.304-7.134 0-5.193 2.781-7.164 5.943-7.164s5.754 1.441 5.754 6.914v.86zm20.182 6.354c-.22-.75-.33-1.801-.33-3.582v-4.943c0-2.221-.47-3.532-2.661-3.532-2.642 0-3.663 2.752-3.663 5.003v6.774h-2.441V295.53l2.442-.06v1.921c.89-1.691 2.551-2.301 4.442-2.301 3.332 0 4.393 2.031 4.393 4.753v4.863c0 1.39-.06 2.721.33 4.052l-2.501.47zm11.497-11.497c-.39-.08-.97-.11-1.39-.11-1.721 0-3.302 1.831-3.302 5.614v5.723H82.65V295.54l2.442-.06v2.672c1.05-2.302 2.581-2.782 3.722-2.782.61 0 .92.08 1.19.19zm6.254-.86c-.97 0-1.75.28-2.361.89-.64.671-1.05 1.611-1.22 3.332h6.753c0-3.001-1.25-4.222-3.162-4.222m-3.592 6.003c.25 3.332 2.171 4.503 4.303 4.503 1.42 0 2.331-.19 3.412-.67l.64 1.801c-1.14.53-2.361.89-4.503.89-3.161 0-6.303-1.641-6.303-7.134 0-5.193 2.781-7.164 5.943-7.164s5.754 1.441 5.754 6.914v.86zm19.042-.5-3.032.33c-2.191.25-3.532.801-3.532 2.612 0 .97.42 1.301.69 1.551.39.36 1.001.53 2.081.53 2.302 0 3.773-1.611 3.773-3.752v-1.281zm.5 6.864c-.17-.3-.42-1.17-.5-1.581-1.031 1.031-2.252 1.671-4.523 1.671-2.862 0-4.443-1.611-4.443-3.892 0-1.171.31-2.251.971-3.002.8-.89 2.031-1.391 4.723-1.641l3.282-.31v-.5c0-2.112-1.441-2.862-3.412-2.862-1.831 0-3.302.5-4.223.971l-.28-1.942c.83-.39 2.441-1.05 5.083-1.05 3.722 0 5.223 1.751 5.223 5.003v4.663c0 1.25.03 2.641.561 4.032l-2.442.44zm13.488-10.976c-.69-.611-1.801-1.141-3.332-1.141-2.281 0-4.142 1.551-4.142 5.053 0 3.912 2.281 5.113 4.162 5.113 1.221 0 2.662-.47 3.332-.89l.781 1.831c-1.001.64-2.752 1.17-4.553 1.17-4.032 0-6.114-2.971-6.114-7.224 0-4.973 3.222-7.084 6.444-7.084 1.721 0 3.332.58 4.363 1.471l-.941 1.691zm11.497 10.966c-.22-.75-.33-1.801-.33-3.582v-4.943c0-2.221-.47-3.532-2.662-3.532-2.641 0-3.662 2.752-3.662 5.003v6.774h-2.441v-17.38l2.441-.061v5.884c.891-1.691 2.552-2.301 4.443-2.301 3.332 0 4.393 2.031 4.393 4.753v4.863c0 1.39-.06 2.721.33 4.052l-2.502.47z"/><path fill="#191917" d="M4.763 28.267 25.005 4.823a14.44 14.44 0 0 1 9.196-3.312H278.67c3.642 0 7.144 1.37 9.806 3.852l18.121 22.904"/><path fill="#EBEBEB" d="M306.587 29.768c-.441 0-.881-.2-1.181-.57L287.365 6.384a12.9 12.9 0 0 0-8.705-3.372H34.19c-2.96 0-5.843 1.02-8.144 2.892L5.884 29.248c-.54.63-1.491.7-2.122.15-.63-.54-.7-1.491-.15-2.121L23.855 3.832q.075-.09.18-.18A15.94 15.94 0 0 1 34.19 0h244.47a15.85 15.85 0 0 1 10.826 4.253c.06.05.11.11.16.17l18.121 22.904c.511.65.401 1.59-.25 2.11-.28.221-.6.321-.93.321z"/><path fill="#191917" d="M295.95 19.942H15.41c-7.682 0-13.91 6.227-13.91 13.909v295.74c0 7.681 6.228 13.908 13.91 13.908h280.54c7.682 0 13.909-6.227 13.909-13.908V33.851c0-7.682-6.227-13.909-13.909-13.909"/><path fill="#EBEBEB" d="M295.94 345H15.41C6.913 345 0 338.086 0 329.591V33.851c0-8.495 6.914-15.41 15.41-15.41h280.53c8.495 0 15.41 6.915 15.41 15.41v295.73c0 8.495-6.915 15.409-15.41 15.409zM15.41 21.443c-6.845 0-12.408 5.564-12.408 12.408v295.73c0 6.844 5.563 12.407 12.407 12.407H295.94c6.844 0 12.408-5.563 12.408-12.407V33.851c0-6.844-5.564-12.408-12.408-12.408z"/><path fill="#191917" d="M65.61 110.007c-22.474 0-44.047 3.852-64.11 10.907v208.667c0 7.654 6.265 13.908 13.91 13.908h239.125a194 194 0 0 0 4.232-40.334c0-106.675-86.482-193.158-193.157-193.158z"/><path fill="#EBEBEB" d="M254.535 345H15.409C6.914 345 0 338.086 0 329.591V120.924c0-.641.4-1.201 1-1.421 20.743-7.295 42.476-10.997 64.61-10.997 107.335 0 194.658 87.323 194.658 194.658 0 13.659-1.43 27.327-4.262 40.645a1.51 1.51 0 0 1-1.471 1.191M3.002 121.984v207.597c0 6.844 5.563 12.407 12.407 12.407h237.905a193 193 0 0 0 3.953-38.834c0-105.674-85.973-191.656-191.657-191.656-21.433 0-42.496 3.522-62.608 10.476z"/><path fill="#EBEBEB" d="M57.995 65.75h3.572c.951 0 1.721.27 2.302.8q.87.795.87 2.132c0 .89-.29 1.58-.87 2.111-.58.53-1.351.8-2.302.8h-1.69v2.952h-1.882zm1.881 1.57v2.703h1.521q.66 0 1.05-.36c.261-.24.391-.571.391-.981s-.13-.75-.39-.99q-.39-.361-1.05-.361h-1.522z"/><path fill="#EBEBEB" d="M71.003 73.705c-.62.6-1.44.9-2.472.9-1.03 0-1.85-.3-2.471-.9-.62-.6-.93-1.401-.93-2.392q0-1.486.93-2.401c.62-.6 1.44-.9 2.471-.9s1.852.3 2.472.9q.93.9.93 2.401c0 1-.31 1.791-.93 2.392m-2.472-.54q.735 0 1.171-.511c.29-.34.43-.79.43-1.34 0-.551-.14-1.001-.43-1.342q-.435-.51-1.17-.51c-.49 0-.871.17-1.161.51s-.43.79-.43 1.341.14 1 .43 1.34.67.511 1.16.511"/><path fill="#EBEBEB" d="M72.114 68.091h1.87l1.292 4.543 1.22-4.543h1.591l1.181 4.553 1.32-4.553H82.4l-2.121 6.454h-1.882l-1.13-3.892-1.15 3.892h-1.882l-2.111-6.454z"/><path fill="#EBEBEB" d="M83.49 73.725c-.62-.59-.93-1.391-.93-2.392s.3-1.81.89-2.411c.591-.6 1.382-.9 2.362-.9q1.47 0 2.402.84c.61.56.92 1.31.93 2.261 0 .23-.02.43-.05.6h-4.683v.05c.04.47.19.841.45 1.101.26.27.611.4 1.071.4.76 0 1.221-.31 1.371-.92h1.741c-.1.65-.42 1.19-.95 1.621-.53.43-1.211.64-2.032.64-1.09 0-1.94-.3-2.561-.89zm.951-3.162h2.922c-.06-.39-.22-.7-.48-.91s-.6-.32-1-.32c-.401 0-.711.11-.971.33s-.42.52-.47.9"/><path fill="#EBEBEB" d="M93.727 68.091h.3v1.611h-.7q-1.453 0-1.451 1.681v3.162h-1.771v-6.454h1.6l.161.97c.39-.64 1.01-.97 1.861-.97"/><path fill="#EBEBEB" d="M120.403 74.535V65.75h1.882v7.164h3.492v1.621z"/><path fill="#EBEBEB" d="M133.271 66.95c.811.841 1.221 1.912 1.221 3.203s-.41 2.351-1.221 3.202c-.81.84-1.861 1.27-3.132 1.27s-2.321-.42-3.132-1.27c-.81-.84-1.22-1.911-1.22-3.202s.41-2.352 1.22-3.202c.811-.84 1.861-1.27 3.132-1.27s2.322.42 3.132 1.27m-4.893 1.132c-.45.54-.67 1.23-.67 2.06s.22 1.522.67 2.062 1.031.81 1.761.81c.731 0 1.311-.27 1.761-.81.44-.54.661-1.23.661-2.061 0-.83-.221-1.521-.661-2.061s-1.03-.81-1.761-.81-1.311.27-1.761.81"/><path fill="#EBEBEB" d="m135.282 71.654 1.842.03c.03.43.21.78.53 1.05q.48.39 1.291.39c.44 0 .8-.09 1.08-.28a.9.9 0 0 0 .421-.78c0-.33-.15-.58-.461-.72-.31-.14-.88-.29-1.721-.46-.33-.06-.62-.12-.87-.19a4 4 0 0 1-.751-.301c-.26-.13-.46-.28-.63-.45a2.1 2.1 0 0 1-.4-.66c-.1-.27-.15-.581-.15-.921 0-.77.31-1.401.92-1.911.611-.5 1.401-.75 2.352-.75s1.791.26 2.431.78.971 1.18.981 1.98h-1.841c-.04-.38-.201-.68-.481-.91s-.64-.34-1.09-.34c-.421 0-.751.09-1.001.26-.25.18-.38.43-.38.75s.15.561.45.701.871.29 1.691.45c.43.08.801.16 1.091.26q.435.15.87.42c.29.18.501.421.651.721.14.3.21.66.21 1.09 0 .801-.33 1.462-.981 1.992-.64.52-1.461.78-2.451.78-1.061 0-1.931-.28-2.602-.83-.67-.56-1.021-1.26-1.031-2.131z"/><path fill="#EBEBEB" d="M174.356 65.75h3.572c.951 0 1.721.27 2.302.8q.87.795.87 2.132c0 .89-.29 1.58-.87 2.111-.581.53-1.351.8-2.302.8h-1.691v2.952h-1.881zm1.881 1.57v2.703h1.521q.66 0 1.051-.36c.26-.24.39-.571.39-.981s-.13-.75-.39-.99q-.39-.361-1.051-.361h-1.521z"/><path fill="#EBEBEB" d="M189.295 66.95c.811.841 1.221 1.912 1.221 3.203s-.41 2.351-1.221 3.202c-.81.84-1.861 1.27-3.132 1.27s-2.321-.42-3.132-1.27c-.81-.84-1.22-1.911-1.22-3.202s.41-2.352 1.22-3.202c.811-.84 1.861-1.27 3.132-1.27s2.322.42 3.132 1.27m-4.893 1.132c-.45.54-.67 1.23-.67 2.06s.22 1.522.67 2.062 1.031.81 1.761.81c.731 0 1.311-.27 1.761-.81.441-.54.661-1.23.661-2.061 0-.83-.22-1.521-.661-2.061-.44-.54-1.03-.81-1.761-.81s-1.311.27-1.761.81"/><path fill="#EBEBEB" d="M191.657 74.535V65.75h1.711l3.722 5.533V65.75h1.861v8.785h-1.721l-3.722-5.533v5.533z"/><path fill="#EBEBEB" d="M230.86 74.535V65.75h1.882v7.164h3.492v1.621z"/><path fill="#EBEBEB" d="m236.614 74.535 3.212-8.785h2.261l3.182 8.785h-2.021l-.68-1.92h-3.332l-.681 1.92zm3.132-3.432h2.321l-1.17-3.342z"/><path fill="#EBEBEB" d="M246.08 74.535V65.75h1.701l3.722 5.533V65.75h1.861v8.785h-1.721l-3.722-5.533v5.533z"/><path fill="#EBEBEB" d="M33.92 296.981c-2.28 0-3.752 1.751-3.752 5.283s1.471 5.253 3.752 5.253c2.282 0 3.753-1.721 3.753-5.253s-1.441-5.283-3.753-5.283m0 12.417c-3.392 0-6.253-2.081-6.253-7.134s2.891-7.164 6.253-7.164 6.254 2.111 6.254 7.164-2.861 7.134-6.254 7.134m14.25-12.247c-2.112 0-3.753 1.721-3.753 4.523v4.192c.72.891 1.691 1.581 3.392 1.581 2.612 0 3.802-2.281 3.802-5.393 0-3.442-1.11-4.913-3.442-4.913m.27 12.257c-1.64 0-2.781-.28-4.032-1.14v4.653h-2.442V295.53l2.442-.08v1.561c1.11-1.281 2.221-1.921 4.413-1.921 2.641 0 5.273 1.831 5.273 6.914 0 4.663-2.442 7.384-5.664 7.384m13.258-12.517c-.97 0-1.75.28-2.361.89-.64.671-1.05 1.611-1.22 3.332h6.753c0-3.001-1.25-4.222-3.162-4.222m-3.592 6.003c.25 3.332 2.172 4.503 4.303 4.503 1.42 0 2.331-.19 3.412-.67l.64 1.801c-1.14.53-2.361.89-4.502.89-3.162 0-6.304-1.641-6.304-7.134 0-5.193 2.781-7.164 5.943-7.164s5.754 1.441 5.754 6.914v.86zm20.182 6.354c-.22-.75-.33-1.801-.33-3.582v-4.943c0-2.221-.47-3.532-2.661-3.532-2.642 0-3.663 2.752-3.663 5.003v6.774h-2.441V295.53l2.442-.06v1.921c.89-1.691 2.551-2.301 4.442-2.301 3.332 0 4.393 2.031 4.393 4.753v4.863c0 1.39-.06 2.721.33 4.052l-2.501.47zm11.497-11.497c-.39-.08-.97-.11-1.39-.11-1.721 0-3.302 1.831-3.302 5.614v5.723H82.65V295.54l2.442-.06v2.672c1.05-2.302 2.581-2.782 3.722-2.782.61 0 .92.08 1.19.19zm6.254-.86c-.97 0-1.75.28-2.361.89-.64.671-1.05 1.611-1.22 3.332h6.753c0-3.001-1.25-4.222-3.162-4.222m-3.592 6.003c.25 3.332 2.171 4.503 4.303 4.503 1.42 0 2.331-.19 3.412-.67l.64 1.801c-1.14.53-2.361.89-4.503.89-3.161 0-6.303-1.641-6.303-7.134 0-5.193 2.781-7.164 5.943-7.164s5.754 1.441 5.754 6.914v.86zm19.042-.5-3.032.33c-2.191.25-3.532.801-3.532 2.612 0 .97.42 1.301.69 1.551.39.36 1.001.53 2.081.53 2.302 0 3.773-1.611 3.773-3.752v-1.281zm.5 6.864c-.17-.3-.42-1.17-.5-1.581-1.031 1.031-2.252 1.671-4.523 1.671-2.862 0-4.443-1.611-4.443-3.892 0-1.171.31-2.251.971-3.002.8-.89 2.031-1.391 4.723-1.641l3.282-.31v-.5c0-2.112-1.441-2.862-3.412-2.862-1.831 0-3.302.5-4.223.971l-.28-1.942c.83-.39 2.441-1.05 5.083-1.05 3.722 0 5.223 1.751 5.223 5.003v4.663c0 1.25.03 2.641.561 4.032l-2.442.44zm13.488-10.976c-.69-.611-1.801-1.141-3.332-1.141-2.281 0-4.142 1.551-4.142 5.053 0 3.912 2.281 5.113 4.162 5.113 1.221 0 2.662-.47 3.332-.89l.781 1.831c-1.001.64-2.752 1.17-4.553 1.17-4.032 0-6.114-2.971-6.114-7.224 0-4.973 3.222-7.084 6.444-7.084 1.721 0 3.332.58 4.363 1.471l-.941 1.691zm11.497 10.966c-.22-.75-.33-1.801-.33-3.582v-4.943c0-2.221-.47-3.532-2.662-3.532-2.641 0-3.662 2.752-3.662 5.003v6.774h-2.441v-17.38l2.441-.061v5.884c.891-1.691 2.552-2.301 4.443-2.301 3.332 0 4.393 2.031 4.393 4.753v4.863c0 1.39-.06 2.721.33 4.052l-2.502.47z"/></svg>