<svg xmlns="http://www.w3.org/2000/svg" width="385" height="272" fill="none" viewBox="0 0 385 272"><path fill="#191917" d="M14 269.88h355.939V106.205c-2.221-2.06-90.15-98.112-90.15-98.112l-103.295 99.293H14z"/><path fill="#EBEBEB" d="M369.939 271.381H14c-.83 0-1.5-.67-1.5-1.5V107.386c0-.83.67-1.5 1.5-1.5h161.894L278.748 7.013c.291-.28.681-.43 1.091-.42.4.01.79.19 1.06.49 30.36 33.17 88.27 96.342 90.07 98.022.3.281.481.681.481 1.101v163.675c0 .83-.671 1.5-1.501 1.5zM15.5 268.38h352.938V106.816c-6.852-7.172-78.706-85.639-88.719-96.572l-102.184 98.233c-.28.27-.651.42-1.041.42H15.501V268.39z"/><path fill="#191917" d="M14.01 269.891h162.494V107.397H14.01z"/><path fill="#EBEBEB" d="M176.494 271.381H14c-.83 0-1.5-.67-1.5-1.5V107.386c0-.83.67-1.5 1.5-1.5h162.494c.831 0 1.501.67 1.501 1.5v162.495c0 .83-.67 1.5-1.501 1.5M15.501 268.38h159.493V108.887H15.501z"/><path fill="#191917" d="M149.415 129.524h-35.482V207.8h35.482z"/><path fill="#EBEBEB" d="M149.415 209.3h-35.482c-.83 0-1.5-.67-1.5-1.5v-78.276c0-.831.67-1.501 1.5-1.501h35.482a1.5 1.5 0 0 1 1.501 1.501V207.8c0 .83-.671 1.5-1.501 1.5m-33.981-3.001h32.481v-75.275h-32.481z"/><path fill="#191917" d="M77.911 129.524H42.43V207.8h35.482z"/><path fill="#EBEBEB" d="M77.921 209.3H42.44c-.83 0-1.5-.67-1.5-1.5v-78.276c0-.831.67-1.501 1.5-1.501h35.482c.83 0 1.5.67 1.5 1.501V207.8c0 .83-.67 1.5-1.5 1.5m-33.991-3.001h32.48v-75.275H43.93z"/><path fill="#191917" d="M343.97 129.524h-35.482V207.8h35.482z"/><path fill="#EBEBEB" d="M343.97 209.3h-35.482c-.83 0-1.5-.67-1.5-1.5v-78.276c0-.831.67-1.501 1.5-1.501h35.482a1.5 1.5 0 0 1 1.501 1.501V207.8c0 .83-.671 1.5-1.501 1.5m-33.981-3.001h32.481v-75.275h-32.481z"/><path fill="#191917" d="M286.101 130.134h-73.735v139.607h73.735z"/><path fill="#EBEBEB" d="M286.111 271.241h-73.735c-.83 0-1.5-.67-1.5-1.5V130.134c0-.83.67-1.5 1.5-1.5h73.735c.83 0 1.5.67 1.5 1.5v139.607c0 .83-.67 1.5-1.5 1.5m-72.244-3.001H284.6V131.635h-70.733z"/><path fill="#191917" d="m279.789 8.093 90.9 99.293h12.824L286.591 1.571"/><path fill="#EBEBEB" d="M383.513 108.887h-12.824c-.42 0-.82-.18-1.11-.49L278.678 9.104a1.502 1.502 0 0 1 2.211-2.03l90.45 98.802h8.753L285.471 2.572a1.5 1.5 0 1 1 2.21-2.031l96.923 105.815c.4.44.51 1.071.27 1.621-.24.54-.78.9-1.371.9z"/><path fill="#191917" d="M264.644 194.425h-30.81v11.014h30.81z"/><path fill="#EBEBEB" d="M264.644 206.949h-30.81c-.831 0-1.501-.67-1.501-1.5v-11.014c0-.83.67-1.5 1.501-1.5h30.81c.83 0 1.5.67 1.5 1.5v11.014c0 .83-.67 1.5-1.5 1.5m-29.31-3.001h27.809v-8.012h-27.809z"/><path fill="#191917" d="M105.62 1.51 1.506 107.386h174.988l14.295-13.805 95.272-91.95z"/><path fill="#EBEBEB" d="M176.494 108.886H1.496c-.6 0-1.15-.36-1.38-.92s-.11-1.2.31-1.63L104.54.45c.28-.29.67-.45 1.07-.45l180.441.12c.61 0 1.16.37 1.39.94s.09 1.22-.35 1.64l-95.262 91.952-14.294 13.804c-.281.27-.651.42-1.041.42zM5.087 105.885h170.807l13.855-13.384L282.34 3.13l-176.099-.12L5.077 105.895z"/></svg>