<svg xmlns="http://www.w3.org/2000/svg" width="508" height="225" fill="none" viewBox="0 0 508 225"><path fill="#191917" d="M286.37 1.5H18.136C8.954 1.5 1.51 8.944 1.51 18.126v187.999c0 9.182 7.444 16.625 16.626 16.625H286.37c9.182 0 16.625-7.443 16.625-16.625v-188c0-9.181-7.443-16.625-16.625-16.625"/><path fill="#EBEBEB" d="M286.37 224.251H18.126c-4.822 0-9.373-1.891-12.804-5.322S0 210.946 0 206.125v-188C0 8.134 8.133 0 18.126 0H286.36c9.993 0 18.126 8.133 18.126 18.126v187.999c0 9.993-8.133 18.126-18.126 18.126zM18.126 3.001C9.783 3 3 9.783 3 18.126v187.999c0 4.021 1.58 7.812 4.441 10.683a15 15 0 0 0 10.684 4.442H286.36c8.343 0 15.125-6.782 15.125-15.125v-188c0-8.342-6.782-15.124-15.125-15.124z"/><path fill="#191917" d="M439.438 103.563H304.656a1.66 1.66 0 0 0-1.661 1.66v13.324c0 .917.744 1.661 1.661 1.661h134.782c.917 0 1.661-.744 1.661-1.661v-13.324a1.66 1.66 0 0 0-1.661-1.66"/><path fill="#EBEBEB" d="M439.438 121.708H304.646a3.167 3.167 0 0 1-3.161-3.161v-13.334c0-1.74 1.42-3.161 3.161-3.161h134.792a3.17 3.17 0 0 1 3.161 3.161v13.334a3.167 3.167 0 0 1-3.161 3.161m-134.792-16.645c-.08 0-.16.07-.16.16v13.334c0 .08.07.16.16.16h134.792c.08 0 .16-.07.16-.16v-13.334c0-.08-.07-.16-.16-.16z"/><path fill="#191917" d="M506.489 123.709v9.923a4.07 4.07 0 0 1-4.071 4.071h-37.922l-25.328 11.084v-9.603l26.118-10.964"/><path fill="#EBEBEB" d="M439.178 150.277c-.29 0-.57-.08-.82-.24-.42-.28-.68-.75-.68-1.26v-9.603c0-.6.36-1.151.92-1.381l26.118-10.963a1.5 1.5 0 0 1 1.961.8 1.5 1.5 0 0 1-.8 1.961l-25.198 10.573v6.312l23.227-10.163c.19-.08.39-.13.6-.13h37.922a2.57 2.57 0 0 0 2.571-2.571v-9.923c0-.83.67-1.501 1.5-1.501a1.5 1.5 0 0 1 1.501 1.501v9.923a5.58 5.58 0 0 1-5.572 5.572h-37.602l-25.038 10.953c-.19.08-.4.13-.6.13z"/><path fill="#191917" d="M503.028 94.15H444.72a3.46 3.46 0 0 0-3.461 3.46v27.139a3.46 3.46 0 0 0 3.461 3.461h58.308a3.46 3.46 0 0 0 3.462-3.461V97.611a3.463 3.463 0 0 0-3.462-3.461"/><path fill="#EBEBEB" d="M503.028 129.721H444.72a4.967 4.967 0 0 1-4.961-4.962V97.621a4.967 4.967 0 0 1 4.961-4.962h58.308a4.967 4.967 0 0 1 4.962 4.962v27.138a4.97 4.97 0 0 1-4.962 4.962m-58.308-34.07c-1.08 0-1.961.88-1.961 1.96v27.138c0 1.081.881 1.961 1.961 1.961h58.308c1.081 0 1.961-.88 1.961-1.961V97.611c0-1.08-.88-1.96-1.961-1.96z"/><path fill="#EBEBEB" d="M473.879 105.283h-22.537c-.83 0-1.5-.67-1.5-1.5 0-.831.67-1.501 1.5-1.501h22.537a1.5 1.5 0 0 1 1.501 1.501c0 .83-.671 1.5-1.501 1.5"/><path fill="#EBEBEB" d="M473.879 113.106h-22.537c-.83 0-1.5-.671-1.5-1.501s.67-1.5 1.5-1.5h22.537a1.5 1.5 0 1 1 0 3.001"/><path fill="#EBEBEB" d="M473.879 120.928h-22.537c-.83 0-1.5-.67-1.5-1.5 0-.831.67-1.501 1.5-1.501h22.537a1.5 1.5 0 0 1 1.501 1.501c0 .83-.671 1.5-1.501 1.5"/></svg>