<svg xmlns="http://www.w3.org/2000/svg" width="800" height="500" fill="none" viewBox="0 0 800 500"><path fill="#292626" d="M263.15 90.82a10 10 0 0 0-6.34-2.28h-135.7c-2.31 0-4.56.8-6.34 2.28l-11.79 11.48c-2.16 2.1-3.37 4.98-3.37 7.99v206.65c0 4.09 3.31 7.4 7.4 7.4h163.9c4.09 0 7.4-3.31 7.4-7.4V110.28c0-3.01-1.22-5.89-3.37-7.99l-11.79-11.48z"/><path fill="#fff" d="M270.91 325.83h-163.9c-4.91 0-8.9-3.99-8.9-8.9V110.28c0-3.39 1.39-6.7 3.82-9.06l11.79-11.48s.06-.06.09-.08c2.05-1.69 4.64-2.62 7.3-2.62H256.8c2.66 0 5.25.93 7.3 2.62.03.03.06.05.09.08l11.79 11.48c2.43 2.37 3.82 5.67 3.82 9.06v206.65c0 4.91-3.99 8.9-8.9 8.9zM115.77 91.94l-11.74 11.43a9.72 9.72 0 0 0-2.92 6.91v206.65c0 3.25 2.65 5.9 5.9 5.9h163.9c3.25 0 5.9-2.65 5.9-5.9V110.28c0-2.59-1.06-5.11-2.92-6.91l-11.74-11.43a8.52 8.52 0 0 0-5.34-1.9h-135.7c-1.94 0-3.84.67-5.34 1.9"/><path fill="#fff" d="M278.31 170.92H99.61c-.83 0-1.5-.67-1.5-1.5s.67-1.5 1.5-1.5H278.3c.83 0 1.5.67 1.5 1.5s-.67 1.5-1.5 1.5z"/><path fill="#fff" d="M277.62 109.51H100.3c-.83 0-1.5-.67-1.5-1.5s.67-1.5 1.5-1.5h177.31c.83 0 1.5.67 1.5 1.5s-.67 1.5-1.5 1.5z"/><path fill="#fff" d="M147.57 137.06h-4.46v-1.52c0-.36.06-.65.18-.88q.18-.345.48-.51c.2-.11.43-.17.68-.17s.46.05.67.16q.3.165.48.51c.12.23.18.53.18.89v.89h1.79v.64zm-2.32-.64v-.86c0-.33-.07-.57-.22-.72a.8.8 0 0 0-.58-.21q-.39 0-.6.21t-.21.72v.86z"/><path fill="#fff" d="M147.82 137.31h-4.96v-1.77q0-.6.21-.99c.14-.27.34-.48.58-.61.46-.25 1.1-.27 1.59 0 .24.13.44.34.59.61.14.27.21.6.21 1v.64h1.79v1.14zm-4.46-.5h3.96v-.14h-1.79v-1.14c0-.32-.05-.58-.15-.77a.87.87 0 0 0-.38-.4c-.34-.18-.79-.17-1.11 0a.95.95 0 0 0-.38.41c-.1.19-.15.45-.15.76zm2.14-.14h-2.11v-1.11c0-.41.09-.7.28-.89s.45-.29.78-.29c.31 0 .56.1.76.28q.3.285.3.9v1.11zm-1.62-.5h1.11v-.61c0-.26-.05-.45-.14-.54-.21-.2-.65-.18-.83 0-.09.09-.14.28-.14.54z"/><path fill="#fff" d="M147.64 131.28c0 .43-.1.81-.29 1.13s-.46.58-.81.76-.75.28-1.21.28-.85-.09-1.2-.28a2.05 2.05 0 0 1-.81-.76c-.2-.33-.29-.7-.29-1.13s.1-.82.29-1.15c.2-.33.47-.58.81-.76q.525-.27 1.2-.27c.45 0 .86.09 1.21.27s.62.43.81.76.29.71.29 1.15m-.57 0c0-.31-.07-.57-.21-.8a1.35 1.35 0 0 0-.6-.53c-.26-.12-.57-.19-.93-.19s-.67.06-.93.19c-.26.12-.46.3-.6.53s-.21.5-.21.8.07.57.21.8q.21.345.6.54c.26.13.57.19.93.19s.67-.06.93-.19q.39-.195.6-.54c.14-.23.21-.5.21-.8"/><path fill="#fff" d="M145.34 133.71c-.49 0-.94-.1-1.32-.31-.39-.21-.69-.49-.91-.86-.22-.36-.33-.79-.33-1.26s.11-.91.33-1.27c.22-.37.53-.65.91-.86.77-.4 1.88-.39 2.64 0 .39.2.69.49.91.86.22.36.32.79.32 1.27s-.11.9-.32 1.26c-.22.36-.52.65-.91.86-.38.2-.83.31-1.33.31zm0-4.36c-.41 0-.78.08-1.09.24s-.54.38-.71.67-.26.63-.26 1.02.09.72.26 1c.17.29.41.51.72.67.62.33 1.56.33 2.17 0 .31-.17.54-.38.71-.67.17-.28.25-.62.25-1s-.09-.73-.26-1.02-.4-.51-.71-.67-.68-.24-1.09-.24zm0 3.71c-.4 0-.75-.07-1.04-.22-.3-.15-.54-.36-.7-.63a1.8 1.8 0 0 1-.24-.93q0-.525.24-.93c.16-.27.4-.48.7-.63.58-.28 1.49-.28 2.08 0 .3.15.54.36.7.63s.25.58.25.93-.08.66-.25.93c-.16.27-.4.48-.7.63-.29.14-.64.22-1.04.22m0-3.06c-.32 0-.6.05-.82.16-.22.1-.38.25-.49.44-.12.19-.17.41-.17.67s.06.48.17.67.27.33.49.44c.45.22 1.2.22 1.64 0 .22-.11.38-.25.5-.44s.17-.41.17-.67-.06-.48-.17-.67a1.23 1.23 0 0 0-.49-.44c-.22-.11-.5-.16-.82-.16z"/><path fill="#fff" d="m147.57 127.6-4.46 1.21v-.68l3.71-.9-3.71-1.04v-.71l3.73-1.01-3.73-.92v-.68l4.46 1.23v.75l-3.55 1 3.55 1.03v.73z"/><path fill="#fff" d="M142.86 129.14v-1.2l2.98-.72-2.98-.83v-1.09l2.98-.8-2.98-.73v-1.21l4.96 1.37v1.12l-2.89.81 2.89.84v1.11l-4.96 1.35zm.5-.81v.16l3.96-1.07v-.05zm0-2.33 3.96 1.11v-.04l-3.96-1.15zm0-.33v.1l3.96-1.12v-.06l-3.96 1.07zm0-2.31 3.96.97v-.04l-3.96-1.09z"/><path fill="#fff" d="M147.57 122.24h-4.46v-2.82h.52v2.18h1.43v-1.99h.51v1.99h1.48v-2.18h.52z"/><path fill="#fff" d="M147.82 122.49h-4.96v-3.32h1.02v2.18h.93v-1.99h1.01v1.99h.98v-2.18h1.02zm-4.46-.5h3.96l-.02-2.32v2.18h-3.91l-.02-2.18v2.32z"/><path fill="#fff" d="M147.57 118.601h-4.46v-1.51q0-.525.18-.87c.12-.22.28-.39.47-.5s.42-.16.67-.16c.24 0 .46.05.66.16q.3.165.48.51c.12.23.18.52.18.88v.85h1.81v.64zm-2.3-.63v-.83c0-.31-.08-.55-.23-.69a.85.85 0 0 0-.6-.22c-.25 0-.44.07-.59.22-.14.14-.22.38-.22.7v.83h1.63zm2.3-1.71-1.98.96v-.7l1.98-1z"/><path fill="#fff" d="M147.82 118.85h-4.96v-1.76c0-.39.07-.72.21-.98.14-.27.34-.47.58-.6.46-.25 1.08-.26 1.57 0 .25.13.44.34.59.61v.01l2.01-1.02v1.3l-1.81.88v.42h1.81zm-4.46-.5h3.96v-.14h-3.93v-1.08c0-.39.1-.69.29-.88.38-.38 1.12-.39 1.53 0q.075.06.12.15l.02-.05a.87.87 0 0 0-.38-.4c-.34-.19-.78-.17-1.09 0-.15.08-.28.21-.37.4q-.15.285-.15.75v1.26zm.53-.63h1.13v-.58c0-.24-.05-.42-.16-.51-.22-.21-.64-.2-.83-.01-.09.09-.14.27-.14.52zm2.07-1.11s.02.09.02.14l1.33-.65v-.18l-1.35.68z"/><path fill="#fff" d="M167.89 153.26h-4.46v-1.65q0-.465.15-.78c.1-.21.24-.36.41-.47.17-.1.37-.16.58-.16s.41.05.57.15c.15.1.27.23.35.39s.13.33.14.51l-.06-.09c0-.2.06-.37.16-.54s.23-.29.4-.38.35-.14.55-.14c.23 0 .44.06.62.17s.33.27.44.49.16.48.16.8v1.7zm-2.54-.64v-.94c0-.27-.06-.47-.19-.61a.67.67 0 0 0-.52-.21.65.65 0 0 0-.51.21c-.13.14-.19.35-.19.63v.92zm2.01 0v-.98c0-.28-.06-.5-.19-.65s-.31-.23-.55-.23-.42.08-.56.24q-.21.24-.21.66v.97h1.52z"/><path fill="#fff" d="M168.14 153.51h-4.96v-1.9c0-.35.06-.64.17-.89.12-.25.29-.44.5-.57.43-.26 1.04-.25 1.41 0 .12.08.22.16.3.27.11-.16.26-.29.43-.38.43-.24 1-.22 1.42.03.23.14.41.34.53.6.12.25.18.56.18.91v1.95zm-4.46-.5h3.96v-1.45c0-.27-.04-.51-.13-.69-.09-.17-.2-.3-.34-.39a.94.94 0 0 0-.92-.02.76.76 0 0 0-.3.29c.18-.16.4-.24.67-.24.31 0 .56.11.74.32.17.2.25.47.25.81v1.23h-3.91v-1.17c0-.34.08-.61.25-.8.32-.35.92-.38 1.28-.11a.7.7 0 0 0-.23-.22c-.22-.14-.61-.15-.89.01a.85.85 0 0 0-.31.36c-.08.17-.12.4-.12.67zm2.41-.64h1.02v-.73c0-.22-.05-.38-.14-.49-.05-.06-.14-.14-.36-.14-.16 0-.28.05-.37.15-.1.11-.15.28-.15.5v.72zm-1.89 0h.9v-.69q0-.3-.12-.45a.43.43 0 0 0-.33-.13c-.14 0-.24.04-.32.13s-.12.25-.12.46v.67z"/><path fill="#fff" d="M167.89 149.35h-4.46v-1.51q0-.525.18-.87c.12-.22.28-.39.47-.5s.42-.16.67-.16c.24 0 .46.05.66.16q.3.165.48.51c.12.23.18.52.18.88v.85h1.81v.64zm-2.3-.64v-.83c0-.31-.08-.55-.23-.69a.85.85 0 0 0-.6-.22c-.25 0-.44.07-.59.22-.14.14-.22.38-.22.7v.83h1.63zm2.3-1.71-1.98.96v-.7l1.98-1z"/><path fill="#fff" d="M168.14 149.6h-4.96v-1.76c0-.39.07-.72.21-.98.14-.27.34-.47.58-.6.46-.25 1.08-.26 1.57 0 .25.13.44.34.59.61v.01l2.01-1.02v1.3l-1.81.88v.42h1.81zm-4.46-.5h3.96v-.14h-3.93v-1.08c0-.39.1-.69.29-.88.38-.38 1.12-.39 1.53 0q.075.06.12.15l.02-.05a.87.87 0 0 0-.38-.4c-.34-.19-.78-.17-1.09 0-.15.08-.28.21-.37.4q-.15.285-.15.75v1.26zm.53-.64h1.13v-.58c0-.24-.05-.42-.16-.51-.22-.21-.64-.2-.83-.01-.09.09-.14.27-.14.52zm2.07-1.11s.02.09.02.14l1.33-.65v-.18l-1.35.68z"/><path fill="#fff" d="M167.96 143.48c0 .43-.1.81-.29 1.13s-.46.58-.81.76-.75.28-1.21.28-.85-.09-1.2-.28a2.05 2.05 0 0 1-.81-.76c-.2-.33-.29-.7-.29-1.13s.1-.82.29-1.15c.2-.33.47-.58.81-.76q.525-.27 1.2-.27c.45 0 .86.09 1.21.27s.62.43.81.76.29.71.29 1.15m-.56-.01c0-.31-.07-.57-.21-.8a1.35 1.35 0 0 0-.6-.53c-.26-.12-.57-.19-.93-.19s-.67.06-.93.19c-.26.12-.46.3-.6.53s-.21.5-.21.8.07.57.21.8q.21.345.6.54c.26.13.57.19.93.19s.67-.06.93-.19q.39-.195.6-.54c.14-.23.21-.5.21-.8"/><path fill="#fff" d="M165.66 145.9c-.49 0-.94-.1-1.32-.31-.39-.21-.69-.49-.91-.86-.22-.36-.33-.79-.33-1.26s.11-.91.33-1.27c.22-.37.53-.65.91-.86.77-.4 1.88-.39 2.64 0 .39.2.69.49.91.86.22.36.32.79.32 1.27s-.11.9-.32 1.26c-.22.36-.52.65-.91.86-.38.2-.83.31-1.33.31zm0-4.35c-.41 0-.78.08-1.09.24s-.54.38-.71.67-.26.63-.26 1.02.09.72.26 1c.17.29.41.51.72.67.62.33 1.56.33 2.17 0 .31-.17.54-.38.71-.67.17-.28.25-.62.25-1s-.09-.73-.26-1.02-.4-.51-.71-.67-.68-.24-1.09-.24zm0 3.7c-.4 0-.75-.07-1.04-.22-.3-.15-.54-.36-.7-.63a1.8 1.8 0 0 1-.24-.93q0-.525.24-.93c.16-.27.4-.48.7-.63.58-.28 1.49-.28 2.08 0 .3.15.54.36.7.63s.25.58.25.93-.08.66-.25.93c-.16.27-.4.48-.7.63-.29.14-.64.22-1.04.22m0-3.05c-.32 0-.6.05-.82.16-.22.1-.38.25-.49.44-.12.19-.17.41-.17.67s.06.48.17.67.27.33.49.44c.45.22 1.2.22 1.64 0 .22-.11.38-.25.5-.44s.17-.41.17-.67-.06-.48-.17-.67a1.23 1.23 0 0 0-.49-.44c-.22-.11-.5-.16-.82-.16z"/><path fill="#fff" d="m167.89 141.13-4.46-1.64v-.69l4.46-1.64v.68l-3.7 1.31 3.7 1.31zm-1.11-.74-.51-.18v-2.1l.51-.18z"/><path fill="#fff" d="m168.14 141.48-4.96-1.82v-1.04l4.96-1.82v1.22l-1.1.39v1.48l1.1.39zm-1.11-.93.6.22v-.13l-.6-.21v.13zm-3.35-1.24 2.35.86v-.11l-2.35-.83v.09zm1.26-.16 1.08.39v-.77zm-1.26-.18v.09l2.35-.83v-.12zm3.35-1.23v.14l.6-.21v-.15z"/><path fill="#fff" d="M167.89 136.52h-4.46v-1.37q0-.78.27-1.29c.18-.34.44-.59.77-.75s.73-.25 1.19-.25.85.08 1.19.25c.33.16.59.41.77.75q.27.51.27 1.29zm-.54-.64v-.71c0-.41-.07-.74-.2-.98s-.33-.42-.58-.52-.55-.16-.9-.16-.66.05-.91.16c-.25.1-.45.28-.59.52s-.2.57-.2.98v.71h3.39z"/><path fill="#fff" d="M168.14 136.77h-4.96v-1.62q0-.84.3-1.41c.21-.39.51-.68.88-.86.73-.36 1.87-.36 2.59 0 .38.19.67.47.88.86.2.37.3.85.3 1.41v1.62zm-4.46-.5h3.96v-1.12q0-.72-.24-1.17a1.48 1.48 0 0 0-.66-.65c-.59-.29-1.56-.29-2.15 0-.29.14-.51.35-.66.65q-.24.45-.24 1.17v1.12zm3.92-.14h-3.89v-.96c0-.45.08-.82.24-1.1.16-.29.4-.5.71-.63.57-.23 1.44-.23 2 0 .31.13.54.34.71.63.16.28.24.65.24 1.1v.96zm-3.39-.5h2.89v-.46c0-.37-.06-.66-.17-.86a.92.92 0 0 0-.46-.41c-.44-.18-1.18-.18-1.62 0-.2.08-.35.22-.46.41-.11.2-.17.49-.17.86v.46z"/><path fill="#fff" d="M167.89 132.1h-4.46v-1.65q0-.465.15-.78c.1-.21.24-.36.41-.47.17-.1.37-.16.58-.16s.41.05.57.15c.15.1.27.23.35.39s.13.33.14.51l-.06-.09c0-.2.06-.37.16-.54s.23-.29.4-.38.35-.14.55-.14c.23 0 .44.06.62.17s.33.27.44.49.16.48.16.8v1.7zm-2.54-.64v-.94c0-.27-.06-.47-.19-.61a.67.67 0 0 0-.52-.21.65.65 0 0 0-.51.21c-.13.14-.19.35-.19.63v.92zm2.01 0v-.98c0-.28-.06-.5-.19-.65s-.31-.23-.55-.23-.42.08-.56.24q-.21.24-.21.66v.97h1.52z"/><path fill="#fff" d="M168.14 132.35h-4.96v-1.9c0-.35.06-.64.17-.89.12-.25.29-.44.5-.57.43-.26 1.04-.25 1.41 0 .12.08.22.16.3.27.11-.16.26-.29.43-.38.43-.24 1-.22 1.42.03.23.14.41.34.53.6.12.25.18.56.18.91v1.95zm-4.46-.5h3.96v-1.45c0-.27-.04-.51-.13-.69-.09-.17-.2-.3-.34-.39a.94.94 0 0 0-.92-.02.76.76 0 0 0-.3.29c.18-.16.4-.24.67-.24.31 0 .56.11.74.32.17.2.25.47.25.81v1.23h-3.91v-1.17c0-.34.08-.61.25-.8.32-.35.92-.38 1.28-.11a.7.7 0 0 0-.23-.22c-.22-.14-.61-.15-.89.01a.85.85 0 0 0-.31.36c-.08.17-.12.4-.12.67zm2.41-.64h1.02v-.73c0-.22-.05-.38-.14-.49-.05-.06-.14-.14-.36-.14-.16 0-.28.05-.37.15-.1.11-.15.28-.15.5v.72zm-1.89 0h.9v-.69q0-.3-.12-.45a.43.43 0 0 0-.33-.13c-.14 0-.24.04-.32.13s-.12.25-.12.46v.67z"/><path fill="#fff" d="m167.89 128.54-4.46-1.64v-.69l4.46-1.64v.68l-3.7 1.31 3.7 1.31zm-1.11-.74-.51-.18v-2.1l.51-.18z"/><path fill="#fff" d="m168.14 128.89-4.96-1.82v-1.04l4.96-1.82v1.22l-1.1.39v1.48l1.1.39zm-1.11-.93.6.22v-.13l-.6-.21v.13zm-3.35-1.24 2.35.86v-.11l-2.35-.83v.09zm1.26-.16 1.08.39v-.77zm-1.26-.18v.09l2.35-.83v-.12zm3.35-1.23v.14l.6-.21v-.15z"/><path fill="#fff" d="M167.89 123.93h-4.46v-.64l3.42-2.27h-3.42v-.64h4.46v.64l-3.42 2.27h3.42z"/><path fill="#fff" d="M168.14 124.18h-4.96v-1.02l2.84-1.89h-2.84v-1.14h4.96v1.02l-2.84 1.89h2.84zm-4.46-.5h3.96v-.14h-3.96zm0-.25v.1l3.96-2.64v-.09zm0-2.66h3.96v-.14h-3.96z"/><path fill="#fff" d="M167.89 119.45h-4.46v-1.37q0-.78.27-1.29c.18-.34.44-.59.77-.75s.73-.25 1.19-.25.85.08 1.19.25c.33.16.59.41.77.75q.27.51.27 1.29zm-.54-.64v-.71c0-.41-.07-.74-.2-.98s-.33-.42-.58-.52-.55-.16-.9-.16-.66.05-.91.16c-.25.1-.45.28-.59.52s-.2.57-.2.98v.71h3.39z"/><path fill="#fff" d="M168.14 119.7h-4.96v-1.62q0-.84.3-1.41c.21-.39.51-.68.88-.86.73-.36 1.87-.36 2.59 0 .38.19.67.47.88.86.2.37.3.85.3 1.41v1.62zm-4.46-.5h3.96v-1.12q0-.72-.24-1.17a1.48 1.48 0 0 0-.66-.65c-.59-.29-1.56-.29-2.15 0-.29.14-.51.35-.66.65q-.24.45-.24 1.17v1.12zm3.92-.14h-3.89v-.96c0-.45.08-.82.24-1.1.16-.29.4-.5.71-.63.57-.23 1.44-.23 2 0 .31.13.54.34.71.63.16.28.24.65.24 1.1v.96zm-3.39-.5h2.89v-.46c0-.37-.06-.66-.17-.86a.92.92 0 0 0-.46-.41c-.44-.18-1.18-.18-1.62 0-.2.08-.35.22-.46.41-.11.2-.17.49-.17.86v.46z"/><path fill="#fff" d="M188.28 138.51c0 .33-.06.61-.18.86s-.28.44-.49.57c-.21.14-.46.2-.75.2v-.67c.16 0 .31-.04.44-.12s.24-.18.32-.33.12-.32.12-.53c0-.18-.03-.33-.09-.46a.7.7 0 0 0-.25-.3.6.6 0 0 0-.36-.1c-.16 0-.29.04-.39.11s-.19.17-.25.29c-.07.12-.12.26-.18.42-.05.16-.11.33-.17.5-.11.35-.26.62-.45.79s-.42.26-.71.26c-.25 0-.47-.06-.65-.18s-.33-.29-.43-.5-.16-.47-.16-.76.05-.54.16-.76.25-.39.44-.51q.285-.18.66-.18v.68a.7.7 0 0 0-.61.36.87.87 0 0 0-.11.44c0 .14.02.27.07.39s.13.2.22.27c.1.06.21.1.35.1q.21 0 .33-.09c.08-.06.15-.14.21-.25s.11-.24.16-.38.1-.31.16-.49c.07-.22.16-.42.26-.59s.24-.31.4-.41q.24-.15.63-.15c.22 0 .43.06.62.17.19.12.35.29.47.51q.18.345.18.84z"/><path fill="#fff" d="M186.87 140.4h-.25v-1.16h.24c.12 0 .23-.04.33-.09.09-.05.17-.13.22-.23.06-.1.09-.24.09-.4 0-.14-.02-.26-.07-.36a.4.4 0 0 0-.16-.19.49.49 0 0 0-.47 0q-.105.075-.18.21c-.06.11-.11.23-.16.38-.05.16-.11.33-.17.5-.13.39-.3.69-.51.89-.23.22-.53.33-.89.33-.3 0-.56-.07-.79-.22-.22-.14-.4-.35-.52-.6q-.18-.375-.18-.87t.18-.87c.13-.26.3-.46.53-.61s.5-.23.79-.23h.25v1.18h-.25c-.07 0-.15.02-.22.06s-.13.09-.17.17a.57.57 0 0 0-.07.31c0 .11.01.21.05.29.03.07.07.12.13.16.11.07.32.07.4.01.05-.04.1-.09.14-.17.05-.1.1-.21.15-.35l.16-.49c.08-.24.17-.45.29-.64.12-.21.29-.37.49-.49.38-.23 1.01-.27 1.5.02.23.14.42.34.56.61q.21.39.21.96c0 .38-.07.69-.2.97-.14.29-.33.51-.58.68-.25.16-.55.24-.88.24zm.25-.7v.18c.13-.02.25-.07.36-.14.17-.11.31-.27.4-.47q.15-.315.15-.75c0-.29-.05-.54-.15-.72a.95.95 0 0 0-.38-.41c-.33-.2-.76-.16-.99-.02-.13.08-.23.19-.32.32q-.135.225-.24.54l-.16.49q-.075.24-.18.42c-.08.14-.18.26-.29.34-.25.17-.68.18-.96 0a.83.83 0 0 1-.31-.38c-.07-.15-.1-.32-.09-.5 0-.21.05-.4.14-.56s.22-.28.37-.36c.07-.04.14-.06.21-.08v-.18a.7.7 0 0 0-.27.12.94.94 0 0 0-.35.41c-.09.18-.13.4-.13.65s.04.47.13.65c.08.17.2.3.34.4.3.2.8.19 1.06-.05.15-.14.28-.37.38-.68.06-.18.11-.34.17-.5.05-.17.12-.33.19-.46.08-.15.19-.28.33-.38.27-.19.72-.21 1.03-.01.14.1.26.23.34.4.07.16.11.35.11.57 0 .25-.05.47-.15.65a1 1 0 0 1-.42.42c-.1.05-.2.09-.31.12z"/><path fill="#fff" d="M188.21 136.23h-4.46v-2.82h.52v2.18h1.43v-1.99h.51v1.99h1.48v-2.18h.52z"/><path fill="#fff" d="M188.46 136.48h-4.96v-3.32h1.02v2.18h.93v-1.99h1.01v1.99h.98v-2.18h1.02zm-4.46-.5h3.96l-.02-2.32v2.18h-3.91l-.02-2.18v2.32z"/><path fill="#fff" d="M188.21 132.59h-4.46v-1.51q0-.525.18-.87c.12-.22.28-.39.47-.5s.42-.16.67-.16c.24 0 .46.05.66.16q.3.165.48.51c.12.23.18.52.18.88v.85h1.81v.64zm-2.3-.64v-.83c0-.31-.08-.55-.23-.69a.85.85 0 0 0-.6-.22c-.25 0-.44.07-.59.22-.14.14-.22.38-.22.7v.83h1.63zm2.3-1.7-1.98.96v-.7l1.98-1z"/><path fill="#fff" d="M188.46 132.84h-4.96v-1.76c0-.39.07-.72.21-.98.14-.27.34-.47.58-.6.46-.25 1.08-.26 1.57 0 .25.13.44.34.59.61v.01l2.01-1.02v1.3l-1.81.88v.42h1.81zm-4.46-.5h3.96v-.14h-3.93v-1.08c0-.39.1-.69.29-.88.38-.38 1.12-.39 1.53 0q.075.06.12.15l.02-.05a.87.87 0 0 0-.38-.4c-.34-.19-.78-.17-1.09 0-.15.08-.28.21-.37.4q-.15.285-.15.75v1.26zm.53-.64h1.13v-.58c0-.24-.05-.42-.16-.51-.22-.21-.64-.2-.83-.01-.09.09-.14.27-.14.52zm2.07-1.1s.02.09.02.14l1.33-.65v-.18l-1.35.68z"/><path fill="#fff" d="m188.21 127.58-4.46 1.66v-.69l3.8-1.35-3.8-1.36v-.67l4.46 1.66v.76z"/><path fill="#fff" d="M183.5 129.6v-1.22l3.3-1.18-3.3-1.19v-1.21l4.96 1.84v1.11l-4.96 1.84zm.5-.87v.15l3.96-1.47v-.09zm0-3.07 3.96 1.42v-.09l-3.96-1.47z"/><path fill="#fff" d="M188.21 124.57h-4.46v-.64h4.46z"/><path fill="#fff" d="M188.46 124.82h-4.96v-1.14h4.96zm-4.46-.5h3.96v-.14H184z"/><path fill="#fff" d="M188.28 121.05c0 .44-.1.81-.29 1.13s-.46.56-.81.73-.75.26-1.21.26-.86-.09-1.2-.26c-.35-.17-.62-.42-.81-.73-.19-.32-.29-.69-.29-1.13 0-.52.13-.95.38-1.27s.6-.53 1.06-.62v.7q-.39.09-.63.39c-.16.2-.24.46-.24.8q0 .45.21.78t.6.51.93.18.93-.18.6-.51.21-.78c0-.34-.08-.6-.23-.8s-.36-.33-.61-.39v-.7c.44.09.79.3 1.04.62.25.33.37.75.37 1.27z"/><path fill="#fff" d="M185.98 123.42c-.49 0-.93-.1-1.31-.28-.39-.19-.7-.47-.92-.83-.22-.35-.33-.78-.33-1.26 0-.58.14-1.06.43-1.42.29-.37.69-.61 1.21-.71l.3-.06v1.2l-.19.05c-.21.05-.37.15-.49.3s-.18.37-.18.64c0 .26.06.47.17.65s.28.32.49.42c.45.21 1.2.21 1.66 0 .22-.1.38-.23.49-.41s.17-.39.17-.65c0-.28-.06-.5-.17-.65a.83.83 0 0 0-.48-.3l-.19-.05v-1.2l.3.06c.5.1.9.34 1.18.71s.42.85.42 1.42c0 .48-.11.91-.33 1.26-.22.36-.52.63-.91.83-.38.19-.82.28-1.32.28m-1.13-3.94c-.25.09-.45.24-.61.45-.21.28-.32.66-.32 1.12 0 .39.09.73.25 1 .17.28.4.49.71.64.63.31 1.57.31 2.19 0 .31-.15.54-.36.71-.64.17-.27.25-.61.25-1 0-.46-.11-.84-.32-1.12-.15-.2-.35-.35-.59-.44v.19c.23.09.42.23.56.42.18.24.28.56.28.95 0 .35-.08.66-.25.92-.16.26-.4.46-.71.6-.59.27-1.49.27-2.07 0-.3-.14-.54-.34-.71-.6s-.25-.57-.25-.92c0-.39.1-.71.29-.96.15-.19.35-.33.58-.42v-.19z"/><path fill="#fff" d="M188.21 118.39h-4.46v-2.82h.52v2.18h1.43v-1.99h.51v1.99h1.48v-2.18h.52z"/><path fill="#fff" d="M188.46 118.64h-4.96v-3.32h1.02v2.18h.93v-1.99h1.01v1.99h.98v-2.18h1.02zm-4.46-.5h3.96l-.02-2.32V118h-3.91l-.02-2.18v2.32z"/><path fill="#fff" d="M208.53 145.77h-4.46v-2.82h.52v2.18h1.43v-1.99h.51v1.99h1.48v-2.18h.52z"/><path fill="#fff" d="M208.78 146.02h-4.96v-3.32h1.02v2.18h.93v-1.99h1.01v1.99h.98v-2.18h1.02zm-4.46-.5h3.96l-.02-2.32v2.18h-3.91l-.02-2.18v2.32z"/><path fill="#fff" d="M208.53 141.1h-3.94v1.32h-.52v-3.28h.52v1.33h3.94v.64z"/><path fill="#fff" d="M204.84 142.66h-1.02v-3.78h1.02v1.33h3.94v1.14h-3.94v1.32zm-.52-.5h.02v-1.32h3.94v-.14h-3.94l-.02-1.33z"/><path fill="#fff" d="M208.53 135.65h-4.46v-.64h4.46zm0 2.84h-4.46v-.64h4.46zm-2.01-.53H206v-2.45h.52z"/><path fill="#fff" d="M208.78 138.74h-4.96v-1.14h1.92v-1.7h-1.92v-1.14h4.96v1.14h-2.01v1.7h2.01zm-4.46-.5h3.96v-.14h-1.51v.11h-1.02v-.11h-1.42v.14zm1.92-.64h.02l-.02-1.7zm.53-2.2h1.51v-.14h-1.51zm-2.45 0h1.42v-.14h-1.42z"/><path fill="#fff" d="M208.53 134.09h-4.46v-2.819h.52v2.18h1.43v-1.99h.51v1.99h1.48v-2.18h.52z"/><path fill="#fff" d="M208.78 134.34h-4.96v-3.319h1.02v2.18h.93v-1.99h1.01v1.99h.98v-2.18h1.02zm-4.46-.5h3.96l-.02-2.319v2.18h-3.91l-.02-2.18v2.319z"/><path fill="#fff" d="M208.53 130.45h-4.46v-1.51q0-.525.18-.87c.12-.22.28-.39.47-.5s.42-.16.67-.16c.24 0 .46.05.66.16q.3.165.48.51c.12.23.18.52.18.88v.85h1.81v.64zm-2.29-.64v-.83c0-.31-.08-.55-.23-.69a.85.85 0 0 0-.6-.22c-.25 0-.44.07-.59.22-.14.14-.22.38-.22.7v.83h1.63zm2.29-1.71-1.98.96v-.7l1.98-1z"/><path fill="#fff" d="M208.78 130.7h-4.96v-1.76c0-.39.07-.72.21-.98.14-.27.34-.47.58-.6.46-.25 1.08-.26 1.57 0 .25.13.44.34.59.61v.01l2.01-1.02v1.3l-1.81.88v.42h1.81zm-4.46-.5h3.96v-.14h-3.93v-1.08c0-.39.1-.69.29-.88.38-.38 1.12-.39 1.53 0q.075.06.12.15l.02-.05a.87.87 0 0 0-.38-.4c-.34-.19-.78-.17-1.09 0-.15.08-.28.21-.37.4q-.15.285-.15.75v1.26zm.53-.64h1.13v-.58c0-.24-.05-.42-.16-.51-.22-.21-.64-.2-.83-.01-.09.09-.14.27-.14.52zm2.08-1.11s.02.09.02.14l1.33-.65v-.18l-1.35.68z"/><path fill="#fff" d="M208.53 126.59h-4.46v-.64l3.42-2.27h-3.42v-.64h4.46v.64l-3.42 2.27h3.42z"/><path fill="#fff" d="M208.78 126.84h-4.96v-1.02l2.84-1.89h-2.84v-1.14h4.96v1.02l-2.84 1.89h2.84zm-4.46-.5h3.96v-.14h-3.96zm0-.26v.1l3.96-2.64v-.09zm0-2.65h3.96v-.14h-3.96z"/><path fill="#fff" d="M208.53 122.11h-4.46v-2.82h.52v2.18h1.43v-1.99h.51v1.99h1.48v-2.18h.52z"/><path fill="#fff" d="M208.78 122.36h-4.96v-3.32h1.02v2.18h.93v-1.99h1.01v1.99h.98v-2.18h1.02zm-4.46-.5h3.96l-.02-2.32v2.18h-3.91l-.02-2.18v2.32z"/><path fill="#fff" d="M208.53 117.43h-3.94v1.32h-.52v-3.28h.52v1.33h3.94v.64z"/><path fill="#fff" d="M204.84 119h-1.02v-3.78h1.02v1.33h3.94v1.14h-3.94v1.32zm-.52-.5h.02v-1.32h3.94v-.14h-3.94l-.02-1.33z"/><path fill="#292626" d="M489.39 366.5H209.91c-3.55 0-20.6-.56-26.16-1.74-17.53-3.72-30.07-18.58-30.82-36.33-.01-.35-.02-60.04-.03-60.39l7.12-.12c0 .35.02 60.05.03 60.4.7 14.41 10.91 26.45 25.17 29.48 4.66.99 21.12 1.58 24.68 1.58h279.48c3.77 0 20.7-.61 26.13-1.68 14.52-2.86 24.97-15.26 25.4-30.16v-.31l7.13.2v.31c-.54 18.24-13.35 33.43-31.15 36.94-6.26 1.23-23.89 1.82-27.51 1.82z"/><path fill="#fff" d="M489.39 368H209.91c-3.59 0-20.8-.57-26.47-1.77-18.07-3.83-31.23-19.35-32-37.74 0-.19-.01-9.32-.02-40.7v-19.74c0-.82.65-1.5 1.48-1.52l7.12-.12c.82.02 1.51.65 1.52 1.48v18.51c0 17.41.01 41.26.02 41.87.66 13.64 10.52 25.19 23.98 28.05 4.48.95 20.96 1.55 24.37 1.55h279.48c3.73 0 20.5-.6 25.84-1.66 13.83-2.73 23.78-14.54 24.19-28.73v-.31c.03-.83.73-1.48 1.55-1.46l7.12.2c.83.02 1.48.71 1.46 1.54v.31c-.56 18.94-13.86 34.72-32.36 38.37-6.36 1.25-24.15 1.85-27.8 1.85zM154.4 269.51v18.28c0 16.89.01 40.03.02 40.6.72 16.99 12.9 31.35 29.63 34.9 5.46 1.16 22.32 1.71 25.85 1.71h279.48c3.59 0 21.06-.58 27.22-1.79 16.73-3.3 28.87-17.32 29.88-34.32l-4.12-.12c-.96 15.06-11.73 27.47-26.56 30.4-5.52 1.09-22.63 1.71-26.42 1.71H209.91c-3.72 0-20.14-.59-24.99-1.61-14.79-3.14-25.63-15.83-26.36-30.87 0-.2-.02-9.61-.03-41.98v-16.96l-4.12.07z"/><path fill="#292626" d="M160.99 256.21h3.68c.83 0 1.51.68 1.51 1.51v14.06l4.11 9.39h-3.56l-4.16-9.48h-12.38"/><path fill="#fff" d="M170.28 282.67h-3.56c-.6 0-1.13-.35-1.37-.9l-3.76-8.58h-11.4c-.83 0-1.5-.67-1.5-1.5s.67-1.5 1.5-1.5h12.38c.6 0 1.13.35 1.37.9l3.76 8.58h.29l-3.19-7.29a1.5 1.5 0 0 1-.13-.6v-14.06h-3.69c-.83 0-1.5-.68-1.5-1.51s.67-1.5 1.5-1.5h3.68c1.66 0 3.01 1.35 3.01 3.01v13.75l3.98 9.1c.2.46.16 1-.12 1.42s-.75.68-1.26.68z"/><path fill="#FFB921" d="M150.03 257.49v21.62c0 .71.57 1.28 1.28 1.28h10.06c.71 0 1.28-.57 1.28-1.28v-21.62c0-.71-.57-1.28-1.28-1.28h-10.06c-.71 0-1.28.57-1.28 1.28"/><path fill="#fff" d="M161.37 281.89h-10.06a2.78 2.78 0 0 1-2.78-2.78v-21.62a2.78 2.78 0 0 1 2.78-2.78h10.06a2.78 2.78 0 0 1 2.78 2.78v21.62a2.78 2.78 0 0 1-2.78 2.78m-9.84-3h9.63V257.7h-9.63z"/><path fill="#292626" d="M158.67 256.63v7h-4.66v-7"/><path fill="#fff" d="M158.67 265.13h-4.66c-.83 0-1.5-.67-1.5-1.5v-6.99c0-.83.67-1.5 1.5-1.5s1.5.67 1.5 1.5v5.49h1.66v-5.49c0-.83.67-1.5 1.5-1.5s1.5.67 1.5 1.5v6.99c0 .83-.67 1.5-1.5 1.5"/><path fill="#292626" d="M757.09 225.63h-82.14a8.89 8.89 0 0 0-8.89 8.89v80.8a8.89 8.89 0 0 0 8.89 8.89h82.14a8.89 8.89 0 0 0 8.89-8.89v-80.8a8.89 8.89 0 0 0-8.89-8.89"/><path fill="#fff" d="M757.09 325.71h-82.15c-5.73 0-10.39-4.66-10.39-10.39v-80.8c0-5.73 4.66-10.39 10.39-10.39h82.15c5.73 0 10.39 4.66 10.39 10.39v80.8c0 5.73-4.66 10.39-10.39 10.39m-82.15-98.58c-4.07 0-7.39 3.31-7.39 7.39v80.8c0 4.07 3.31 7.39 7.39 7.39h82.15c4.07 0 7.39-3.31 7.39-7.39v-80.8c0-4.07-3.31-7.39-7.39-7.39z"/><path fill="#292626" d="M361.22 312.9h-8.32a.68.68 0 0 0-.68.68v15.63c0 .376.304.68.68.68h8.32a.68.68 0 0 0 .68-.68v-15.63a.68.68 0 0 0-.68-.68"/><path fill="#fff" d="M361.22 331.39h-8.32c-1.2 0-2.18-.98-2.18-2.18v-15.63c0-1.2.98-2.18 2.18-2.18h8.32c1.2 0 2.18.98 2.18 2.18v15.63c0 1.2-.98 2.18-2.18 2.18m-7.5-3h6.68V314.4h-6.68z"/><path fill="#292626" d="M599.98 88.54H351.79c-15.326 0-27.75 12.424-27.75 27.75v180.29c0 15.326 12.424 27.75 27.75 27.75h248.19c15.326 0 27.75-12.424 27.75-27.75V116.29c0-15.326-12.424-27.75-27.75-27.75"/><path fill="#fff" d="M599.99 325.83h-248.2c-16.13 0-29.25-13.12-29.25-29.25V116.29c0-16.13 13.12-29.25 29.25-29.25h248.2c16.13 0 29.25 13.12 29.25 29.25v180.29c0 16.13-13.12 29.25-29.25 29.25M351.79 90.04c-14.47 0-26.25 11.77-26.25 26.25v180.29c0 14.47 11.77 26.25 26.25 26.25h248.2c14.47 0 26.25-11.77 26.25-26.25V116.29c0-14.47-11.78-26.25-26.25-26.25z"/><path fill="#292626" d="M597.62 265.52H356c-7.721 0-13.98 6.259-13.98 13.98v19.41c0 7.72 6.259 13.98 13.98 13.98h241.62c7.721 0 13.98-6.26 13.98-13.98V279.5c0-7.721-6.259-13.98-13.98-13.98"/><path fill="#fff" d="M597.62 314.4H356c-8.53 0-15.48-6.94-15.48-15.48V279.5c0-8.53 6.94-15.48 15.48-15.48h241.62c8.53 0 15.48 6.94 15.48 15.48v19.42c0 8.53-6.94 15.48-15.48 15.48M356 267.02c-6.88 0-12.48 5.6-12.48 12.48v19.42c0 6.88 5.6 12.48 12.48 12.48h241.62c6.88 0 12.48-5.6 12.48-12.48V279.5c0-6.88-5.6-12.48-12.48-12.48z"/><path fill="#EE6DBB" d="M552.98 288.06H551v-3.71h-4.61v-2.34h-5.18v2.34h-4.5v3.71h-1.96v3.65h1.96V295H551v-3.29h1.98z"/><path fill="#fff" d="M551 296.5h-14.29c-.83 0-1.5-.67-1.5-1.5v-1.79h-.46c-.83 0-1.5-.67-1.5-1.5v-3.65c0-.83.67-1.5 1.5-1.5h.46v-2.21c0-.83.67-1.5 1.5-1.5h3V282c0-.83.67-1.5 1.5-1.5h5.19c.83 0 1.5.67 1.5 1.5v.85h3.1c.83 0 1.5.67 1.5 1.5v2.21h.48c.83 0 1.5.67 1.5 1.5v3.65c0 .83-.67 1.5-1.5 1.5h-.48V295c0 .83-.67 1.5-1.5 1.5m-12.79-3h11.29v-1.79c0-.83.67-1.5 1.5-1.5h.48v-.65H551c-.83 0-1.5-.67-1.5-1.5v-2.21h-3.1c-.83 0-1.5-.67-1.5-1.5v-.85h-2.19v.85c0 .83-.67 1.5-1.5 1.5h-3v2.21c0 .83-.67 1.5-1.5 1.5h-.46v.65h.46c.83 0 1.5.67 1.5 1.5z"/><path fill="#292626" d="M531.57 288.06h-1.98v-3.71h-4.61v-2.34h-5.18v2.34h-4.51v3.71h-1.95v3.65h1.95V295h14.3v-3.29h1.98z"/><path fill="#fff" d="M529.59 296.5H515.3c-.83 0-1.5-.67-1.5-1.5v-1.79h-.46c-.83 0-1.5-.67-1.5-1.5v-3.65c0-.83.67-1.5 1.5-1.5h.46v-2.21c0-.83.67-1.5 1.5-1.5h3V282c0-.83.67-1.5 1.5-1.5h5.19c.83 0 1.5.67 1.5 1.5v.85h3.1c.83 0 1.5.67 1.5 1.5v2.21h.48c.83 0 1.5.67 1.5 1.5v3.65c0 .83-.67 1.5-1.5 1.5h-.48V295c0 .83-.67 1.5-1.5 1.5m-12.8-3h11.29v-1.79c0-.83.67-1.5 1.5-1.5h.48v-.65h-.48c-.83 0-1.5-.67-1.5-1.5v-2.21h-3.1c-.83 0-1.5-.67-1.5-1.5v-.85h-2.19v.85c0 .83-.67 1.5-1.5 1.5h-3v2.21c0 .83-.67 1.5-1.5 1.5h-.46v.65h.46c.83 0 1.5.67 1.5 1.5z"/><path fill="#FFFBE8" d="M408.75 295h-14.29v-10.65h14.29z"/><path fill="#000" d="M410.25 296.5h-17.29v-13.65h17.29zm-14.3-3h11.29v-7.65h-11.29z"/><path fill="#FFFBE8" d="M410.73 291.7H392.5v-3.65h18.23z"/><path fill="#000" d="M412.23 293.21H391v-6.65h21.23zm-18.23-3h15.23v-.65H394z"/><path fill="#FFFBE8" d="M404.14 282v12.99h-5.19V282z"/><path fill="#000" d="M405.64 296.5h-8.19v-15.99h8.19zm-5.18-3h2.19v-9.99h-2.19z"/><path fill="#FFFBE8" d="M387.34 295h-14.29v-10.65h14.29z"/><path fill="#000" d="M388.84 296.5h-17.29v-13.65h17.29zm-14.3-3h11.29v-7.65h-11.29z"/><path fill="#FFFBE8" d="M389.32 291.7h-18.23v-3.65h18.23z"/><path fill="#000" d="M390.82 293.21h-21.23v-6.65h21.23zm-18.24-3h15.23v-.65h-15.23z"/><path fill="#FFFBE8" d="M382.73 282v12.99h-5.19V282z"/><path fill="#000" d="M384.23 296.5h-8.19v-15.99h8.19zm-5.18-3h2.19v-9.99h-2.19z"/><path fill="#FFFBE8" d="M365.92 295h-14.29v-10.65h14.29z"/><path fill="#000" d="M367.42 296.5h-17.29v-13.65h17.29zm-14.29-3h11.29v-7.65h-11.29z"/><path fill="#FFFBE8" d="M367.91 291.7h-18.23v-3.65h18.23z"/><path fill="#000" d="M369.4 293.21h-21.23v-6.65h21.23zm-18.23-3h15.23v-.65h-15.23z"/><path fill="#FFFBE8" d="M361.32 282.01V295h-5.19v-12.99z"/><path fill="#000" d="M362.82 296.5h-8.19v-15.99h8.19zm-5.19-3h2.19v-9.99h-2.19z"/><path fill="#292626" d="M410.73 288.06h-1.98v-3.71h-4.61v-2.34h-5.18v2.34h-4.51v3.71h-1.95v3.65h1.95V295h14.3v-3.29h1.98z"/><path fill="#fff" d="M408.75 296.5h-14.29c-.83 0-1.5-.67-1.5-1.5v-1.79h-.46c-.83 0-1.5-.67-1.5-1.5v-3.65c0-.83.67-1.5 1.5-1.5h.46v-2.21c0-.83.67-1.5 1.5-1.5h3V282c0-.83.67-1.5 1.5-1.5h5.19c.83 0 1.5.67 1.5 1.5v.85h3.1c.83 0 1.5.67 1.5 1.5v2.21h.48c.83 0 1.5.67 1.5 1.5v3.65c0 .83-.67 1.5-1.5 1.5h-.48V295c0 .83-.67 1.5-1.5 1.5m-12.8-3h11.29v-1.79c0-.83.67-1.5 1.5-1.5h.48v-.65h-.48c-.83 0-1.5-.67-1.5-1.5v-2.21h-3.1c-.83 0-1.5-.67-1.5-1.5v-.85h-2.19v.85c0 .83-.67 1.5-1.5 1.5h-3v2.21c0 .83-.67 1.5-1.5 1.5h-.46v.65h.46c.83 0 1.5.67 1.5 1.5z"/><path fill="#8CBA3B" d="M389.32 288.06h-1.98v-3.71h-4.61v-2.34h-5.18v2.34h-4.51v3.71h-1.96v3.65h1.96V295h14.3v-3.29h1.98z"/><path fill="#fff" d="M387.34 296.5h-14.29c-.83 0-1.5-.67-1.5-1.5v-1.79h-.46c-.83 0-1.5-.67-1.5-1.5v-3.65c0-.83.67-1.5 1.5-1.5h.46v-2.21c0-.83.67-1.5 1.5-1.5h3V282c0-.83.67-1.5 1.5-1.5h5.19c.83 0 1.5.67 1.5 1.5v.85h3.1c.83 0 1.5.67 1.5 1.5v2.21h.48c.83 0 1.5.67 1.5 1.5v3.65c0 .83-.67 1.5-1.5 1.5h-.48V295c0 .83-.67 1.5-1.5 1.5m-12.8-3h11.29v-1.79c0-.83.67-1.5 1.5-1.5h.48v-.65h-.48c-.83 0-1.5-.67-1.5-1.5v-2.21h-3.1c-.83 0-1.5-.67-1.5-1.5v-.85h-2.19v.85c0 .83-.67 1.5-1.5 1.5h-3v2.21c0 .83-.67 1.5-1.5 1.5h-.46v.65h.46c.83 0 1.5.67 1.5 1.5z"/><path fill="#8CBA3B" d="M367.9 288.06h-1.98v-3.71h-4.6v-2.34h-5.19v2.34h-4.5v3.71h-1.96v3.65h1.96V295h14.29v-3.29h1.98z"/><path fill="#fff" d="M365.92 296.5h-14.29c-.83 0-1.5-.67-1.5-1.5v-1.79h-.46c-.83 0-1.5-.67-1.5-1.5v-3.65c0-.83.67-1.5 1.5-1.5h.46v-2.21c0-.83.67-1.5 1.5-1.5h3V282c0-.83.67-1.5 1.5-1.5h5.19c.83 0 1.5.67 1.5 1.5v.85h3.1c.83 0 1.5.67 1.5 1.5v2.21h.48c.83 0 1.5.67 1.5 1.5v3.65c0 .83-.67 1.5-1.5 1.5h-.48V295c0 .83-.67 1.5-1.5 1.5m-12.79-3h11.29v-1.79c0-.83.67-1.5 1.5-1.5h.48v-.65h-.48c-.83 0-1.5-.67-1.5-1.5v-2.21h-3.1c-.83 0-1.5-.67-1.5-1.5v-.85h-2.19v.85c0 .83-.67 1.5-1.5 1.5h-3v2.21c0 .83-.67 1.5-1.5 1.5h-.46v.65h.46c.83 0 1.5.67 1.5 1.5z"/><path fill="#292626" d="M510.48 288.06h-1.98v-3.71h-4.6v-2.34h-5.19v2.34h-4.5v3.71h-1.96v3.65h1.96V295h14.29v-3.29h1.98z"/><path fill="#fff" d="M508.5 296.5h-14.29c-.83 0-1.5-.67-1.5-1.5v-1.79h-.46c-.83 0-1.5-.67-1.5-1.5v-3.65c0-.83.67-1.5 1.5-1.5h.46v-2.21c0-.83.67-1.5 1.5-1.5h3V282c0-.83.67-1.5 1.5-1.5h5.19c.83 0 1.5.67 1.5 1.5v.85h3.1c.83 0 1.5.67 1.5 1.5v2.21h.48c.83 0 1.5.67 1.5 1.5v3.65c0 .83-.67 1.5-1.5 1.5H510V295c0 .83-.67 1.5-1.5 1.5m-12.79-3H507v-1.79c0-.83.67-1.5 1.5-1.5h.48v-.65h-.48c-.83 0-1.5-.67-1.5-1.5v-2.21h-3.1c-.83 0-1.5-.67-1.5-1.5v-.85h-2.19v.85c0 .83-.67 1.5-1.5 1.5h-3v2.21c0 .83-.67 1.5-1.5 1.5h-.46v.65h.46c.83 0 1.5.67 1.5 1.5z"/><path fill="#292626" d="M489.07 288.06h-1.98v-3.71h-4.6v-2.34h-5.19v2.34h-4.5v3.71h-1.96v3.65h1.96V295h14.29v-3.29h1.98z"/><path fill="#fff" d="M487.09 296.5H472.8c-.83 0-1.5-.67-1.5-1.5v-1.79h-.46c-.83 0-1.5-.67-1.5-1.5v-3.65c0-.83.67-1.5 1.5-1.5h.46v-2.21c0-.83.67-1.5 1.5-1.5h3V282c0-.83.67-1.5 1.5-1.5h5.19c.83 0 1.5.67 1.5 1.5v.85h3.1c.83 0 1.5.67 1.5 1.5v2.21h.48c.83 0 1.5.67 1.5 1.5v3.65c0 .83-.67 1.5-1.5 1.5h-.48V295c0 .83-.67 1.5-1.5 1.5m-12.79-3h11.29v-1.79c0-.83.67-1.5 1.5-1.5h.48v-.65h-.48c-.83 0-1.5-.67-1.5-1.5v-2.21h-3.1c-.83 0-1.5-.67-1.5-1.5v-.85h-2.19v.85c0 .83-.67 1.5-1.5 1.5h-3v2.21c0 .83-.67 1.5-1.5 1.5h-.46v.65h.46c.83 0 1.5.67 1.5 1.5z"/><path fill="#292626" d="M467.66 288.06h-1.98v-3.71h-4.61v-2.34h-5.18v2.34h-4.51v3.71h-1.95v3.65h1.95V295h14.3v-3.29h1.98z"/><path fill="#fff" d="M465.68 296.5h-14.29c-.83 0-1.5-.67-1.5-1.5v-1.79h-.46c-.83 0-1.5-.67-1.5-1.5v-3.65c0-.83.67-1.5 1.5-1.5h.46v-2.21c0-.83.67-1.5 1.5-1.5h3V282c0-.83.67-1.5 1.5-1.5h5.19c.83 0 1.5.67 1.5 1.5v.85h3.1c.83 0 1.5.67 1.5 1.5v2.21h.48c.83 0 1.5.67 1.5 1.5v3.65c0 .83-.67 1.5-1.5 1.5h-.48V295c0 .83-.67 1.5-1.5 1.5m-12.8-3h11.29v-1.79c0-.83.67-1.5 1.5-1.5h.48v-.65h-.48c-.83 0-1.5-.67-1.5-1.5v-2.21h-3.1c-.83 0-1.5-.67-1.5-1.5v-.85h-2.19v.85c0 .83-.67 1.5-1.5 1.5h-3v2.21c0 .83-.67 1.5-1.5 1.5h-.46v.65h.46c.83 0 1.5.67 1.5 1.5z"/><path fill="#292626" d="M566.03 175.14H383.47a5.84 5.84 0 0 0-5.84 5.84v50.64a5.84 5.84 0 0 0 5.84 5.84h182.56a5.84 5.84 0 0 0 5.84-5.84v-50.64a5.84 5.84 0 0 0-5.84-5.84"/><path fill="#fff" d="M566.04 238.96H383.47c-4.04 0-7.34-3.29-7.34-7.33v-50.65c0-4.04 3.29-7.33 7.34-7.33h182.57c4.04 0 7.34 3.29 7.34 7.33v50.65c0 4.04-3.29 7.33-7.34 7.33m-182.58-62.32a4.34 4.34 0 0 0-4.34 4.33v50.65c0 2.39 1.94 4.33 4.34 4.33h182.57a4.34 4.34 0 0 0 4.34-4.33v-50.65c0-2.39-1.94-4.33-4.34-4.33z"/><path fill="#fff" d="M348.84 149.68c-.83 0-1.5-.67-1.5-1.5v-43c0-.83.67-1.5 1.5-1.5s1.5.67 1.5 1.5v43c0 .83-.67 1.5-1.5 1.5"/><path fill="#fff" d="M358.61 149.68c-.83 0-1.5-.67-1.5-1.5v-43c0-.83.67-1.5 1.5-1.5s1.5.67 1.5 1.5v43c0 .83-.67 1.5-1.5 1.5"/><path fill="#fff" d="M368.38 149.68c-.83 0-1.5-.67-1.5-1.5v-43c0-.83.67-1.5 1.5-1.5s1.5.67 1.5 1.5v43c0 .83-.67 1.5-1.5 1.5"/><path fill="#fff" d="M378.15 149.68c-.83 0-1.5-.67-1.5-1.5v-43c0-.83.67-1.5 1.5-1.5s1.5.67 1.5 1.5v43c0 .83-.67 1.5-1.5 1.5"/><path fill="#fff" d="M387.92 149.68c-.83 0-1.5-.67-1.5-1.5v-43c0-.83.67-1.5 1.5-1.5s1.5.67 1.5 1.5v43c0 .83-.67 1.5-1.5 1.5"/><path fill="#fff" d="M397.68 149.68c-.83 0-1.5-.67-1.5-1.5v-43c0-.83.67-1.5 1.5-1.5s1.5.67 1.5 1.5v43c0 .83-.67 1.5-1.5 1.5"/><path fill="#fff" d="M407.45 149.68c-.83 0-1.5-.67-1.5-1.5v-43c0-.83.67-1.5 1.5-1.5s1.5.67 1.5 1.5v43c0 .83-.67 1.5-1.5 1.5"/><path fill="#fff" d="M417.22 149.68c-.83 0-1.5-.67-1.5-1.5v-43c0-.83.67-1.5 1.5-1.5s1.5.67 1.5 1.5v43c0 .83-.67 1.5-1.5 1.5"/><path fill="#fff" d="M426.99 149.68c-.83 0-1.5-.67-1.5-1.5v-43c0-.83.67-1.5 1.5-1.5s1.5.67 1.5 1.5v43c0 .83-.67 1.5-1.5 1.5"/><path fill="#fff" d="M436.76 149.68c-.83 0-1.5-.67-1.5-1.5v-43c0-.83.67-1.5 1.5-1.5s1.5.67 1.5 1.5v43c0 .83-.67 1.5-1.5 1.5"/><path fill="#fff" d="M446.53 149.68c-.83 0-1.5-.67-1.5-1.5v-43c0-.83.67-1.5 1.5-1.5s1.5.67 1.5 1.5v43c0 .83-.67 1.5-1.5 1.5"/><path fill="#fff" d="M456.3 149.68c-.83 0-1.5-.67-1.5-1.5v-43c0-.83.67-1.5 1.5-1.5s1.5.67 1.5 1.5v43c0 .83-.67 1.5-1.5 1.5"/><path fill="#fff" d="M466.07 149.68c-.83 0-1.5-.67-1.5-1.5v-43c0-.83.67-1.5 1.5-1.5s1.5.67 1.5 1.5v43c0 .83-.67 1.5-1.5 1.5"/><path fill="#fff" d="M475.84 149.68c-.83 0-1.5-.67-1.5-1.5v-43c0-.83.67-1.5 1.5-1.5s1.5.67 1.5 1.5v43c0 .83-.67 1.5-1.5 1.5"/><path fill="#fff" d="M485.61 149.68c-.83 0-1.5-.67-1.5-1.5v-43c0-.83.67-1.5 1.5-1.5s1.5.67 1.5 1.5v43c0 .83-.67 1.5-1.5 1.5"/><path fill="#fff" d="M495.37 149.68c-.83 0-1.5-.67-1.5-1.5v-43c0-.83.67-1.5 1.5-1.5s1.5.67 1.5 1.5v43c0 .83-.67 1.5-1.5 1.5"/><path fill="#fff" d="M505.14 149.68c-.83 0-1.5-.67-1.5-1.5v-43c0-.83.67-1.5 1.5-1.5s1.5.67 1.5 1.5v43c0 .83-.67 1.5-1.5 1.5"/><path fill="#fff" d="M514.91 149.68c-.83 0-1.5-.67-1.5-1.5v-43c0-.83.67-1.5 1.5-1.5s1.5.67 1.5 1.5v43c0 .83-.67 1.5-1.5 1.5"/><path fill="#fff" d="M524.68 149.68c-.83 0-1.5-.67-1.5-1.5v-43c0-.83.67-1.5 1.5-1.5s1.5.67 1.5 1.5v43c0 .83-.67 1.5-1.5 1.5"/><path fill="#fff" d="M534.45 149.68c-.83 0-1.5-.67-1.5-1.5v-43c0-.83.67-1.5 1.5-1.5s1.5.67 1.5 1.5v43c0 .83-.67 1.5-1.5 1.5"/><path fill="#fff" d="M544.22 149.68c-.83 0-1.5-.67-1.5-1.5v-43c0-.83.67-1.5 1.5-1.5s1.5.67 1.5 1.5v43c0 .83-.67 1.5-1.5 1.5"/><path fill="#fff" d="M553.99 149.68c-.83 0-1.5-.67-1.5-1.5v-43c0-.83.67-1.5 1.5-1.5s1.5.67 1.5 1.5v43c0 .83-.67 1.5-1.5 1.5"/><path fill="#fff" d="M563.76 149.68c-.83 0-1.5-.67-1.5-1.5v-43c0-.83.67-1.5 1.5-1.5s1.5.67 1.5 1.5v43c0 .83-.67 1.5-1.5 1.5"/><path fill="#fff" d="M573.53 149.68c-.83 0-1.5-.67-1.5-1.5v-43c0-.83.67-1.5 1.5-1.5s1.5.67 1.5 1.5v43c0 .83-.67 1.5-1.5 1.5"/><path fill="#fff" d="M583.3 149.68c-.83 0-1.5-.67-1.5-1.5v-43c0-.83.67-1.5 1.5-1.5s1.5.67 1.5 1.5v43c0 .83-.67 1.5-1.5 1.5"/><path fill="#fff" d="M593.07 149.68c-.83 0-1.5-.67-1.5-1.5v-43c0-.83.67-1.5 1.5-1.5s1.5.67 1.5 1.5v43c0 .83-.67 1.5-1.5 1.5"/><path fill="#fff" d="M602.83 149.68c-.83 0-1.5-.67-1.5-1.5v-43c0-.83.67-1.5 1.5-1.5s1.5.67 1.5 1.5v43c0 .83-.67 1.5-1.5 1.5"/><path fill="#292626" d="M602.83 196.26v-6.09a4.28 4.28 0 0 0-4.27-4.27 4.28 4.28 0 0 0-4.27 4.27v6.18a10.2 10.2 0 0 0-5.83 9.22c0 5.64 4.57 10.2 10.2 10.2s10.2-4.57 10.2-10.2c0-4.15-2.48-7.71-6.03-9.31"/><path fill="#fff" d="M598.66 217.28c-6.45 0-11.7-5.25-11.7-11.7 0-4.17 2.26-8.04 5.83-10.12v-5.28c0-3.18 2.59-5.77 5.78-5.77s5.77 2.59 5.77 5.77v5.17c3.69 2.05 6.03 5.97 6.03 10.23 0 6.45-5.25 11.7-11.7 11.7zm-.1-29.89c-1.53 0-2.78 1.24-2.78 2.77v6.18c0 .58-.33 1.11-.86 1.35a8.75 8.75 0 0 0-4.97 7.87c0 4.8 3.9 8.7 8.7 8.7s8.7-3.9 8.7-8.7a8.72 8.72 0 0 0-5.14-7.94c-.54-.24-.89-.78-.89-1.37v-6.1a2.77 2.77 0 0 0-2.77-2.77z"/><path fill="#292626" d="M356.4 196.26v-6.09a4.28 4.28 0 0 0-4.27-4.27 4.28 4.28 0 0 0-4.27 4.27v6.18a10.2 10.2 0 0 0-5.83 9.22c0 5.64 4.57 10.2 10.2 10.2s10.2-4.57 10.2-10.2c0-4.15-2.48-7.71-6.03-9.31"/><path fill="#fff" d="M352.22 217.28c-6.45 0-11.7-5.25-11.7-11.7 0-4.17 2.26-8.04 5.83-10.12v-5.28c0-3.18 2.59-5.77 5.77-5.77s5.77 2.59 5.77 5.77v5.17c3.69 2.05 6.03 5.97 6.03 10.23 0 6.45-5.25 11.7-11.7 11.7m-.1-29.89a2.77 2.77 0 0 0-2.77 2.77v6.18c0 .58-.33 1.11-.86 1.35a8.75 8.75 0 0 0-4.97 7.87c0 4.8 3.9 8.7 8.7 8.7s8.7-3.9 8.7-8.7a8.72 8.72 0 0 0-5.14-7.94c-.54-.24-.89-.78-.89-1.37v-6.1a2.77 2.77 0 0 0-2.77-2.77z"/><path fill="#292626" d="M564.19 282.01h12.03v14.98h-12.03z"/><path fill="#fff" d="M576.22 298.49h-12.03c-.83 0-1.5-.67-1.5-1.5v-14.98c0-.83.67-1.5 1.5-1.5h12.03c.83 0 1.5.67 1.5 1.5v14.98c0 .83-.67 1.5-1.5 1.5m-10.53-3h9.03v-11.98h-9.03z"/><path fill="#292626" d="M598 296.66a6.32 6.32 0 1 0-.001-12.641A6.32 6.32 0 0 0 598 296.66"/><path fill="#fff" d="M598 298.16c-4.31 0-7.82-3.51-7.82-7.82s3.51-7.82 7.82-7.82 7.82 3.51 7.82 7.82-3.51 7.82-7.82 7.82m0-12.63c-2.66 0-4.82 2.16-4.82 4.82s2.16 4.82 4.82 4.82 4.82-2.16 4.82-4.82-2.16-4.82-4.82-4.82"/><path fill="#292626" d="M431.53 276.94h10.02v20.23h-10.02z"/><path fill="#fff" d="M441.56 298.67h-10.02c-.83 0-1.5-.67-1.5-1.5v-20.23c0-.83.67-1.5 1.5-1.5h10.02c.83 0 1.5.67 1.5 1.5v20.23c0 .83-.67 1.5-1.5 1.5m-8.53-3h7.02v-17.23h-7.02z"/><path fill="#292626" d="M694.095 312.116h43.85a9.49 9.49 0 0 0 9.49-9.49v-55.43a9.49 9.49 0 0 0-9.49-9.49h-43.85a9.49 9.49 0 0 0-9.49 9.49v55.43a9.49 9.49 0 0 0 9.49 9.49"/><path fill="#fff" d="M737.94 313.62H694.1c-6.06 0-10.99-4.93-10.99-10.99v-55.42c0-6.06 4.93-10.99 10.99-10.99h43.84c6.06 0 10.99 4.93 10.99 10.99v55.42c0 6.06-4.93 10.99-10.99 10.99m-43.84-74.4c-4.41 0-7.99 3.59-7.99 7.99v55.42c0 4.41 3.59 7.99 7.99 7.99h43.84c4.41 0 7.99-3.59 7.99-7.99v-55.42c0-4.41-3.59-7.99-7.99-7.99z"/><path fill="#fff" d="M658.51 391.41c-33.09 0-60.01-26.92-60.01-60.01 0-.83.67-1.5 1.5-1.5s1.5.67 1.5 1.5c0 31.44 25.58 57.01 57.01 57.01s57.01-25.58 57.01-57.01c0-.83.67-1.5 1.5-1.5s1.5.67 1.5 1.5c0 33.09-26.92 60.01-60.01 60.01"/><path fill="#292626" d="M694.095 312.116h43.85a9.49 9.49 0 0 0 9.49-9.49v-55.43a9.49 9.49 0 0 0-9.49-9.49h-43.85a9.49 9.49 0 0 0-9.49 9.49v55.43a9.49 9.49 0 0 0 9.49 9.49"/><path fill="#fff" d="M737.94 313.62H694.1c-6.06 0-10.99-4.93-10.99-10.99v-55.42c0-6.06 4.93-10.99 10.99-10.99h43.84c6.06 0 10.99 4.93 10.99 10.99v55.42c0 6.06-4.93 10.99-10.99 10.99m-43.84-74.4c-4.41 0-7.99 3.59-7.99 7.99v55.42c0 4.41 3.59 7.99 7.99 7.99h43.84c4.41 0 7.99-3.59 7.99-7.99v-55.42c0-4.41-3.59-7.99-7.99-7.99z"/><path fill="#292626" d="M717.655 335.272h-1.31c-1.94 0-3.52-1.58-3.52-3.52v-18.22c0-.38.31-.68.68-.68h7c.38 0 .68.31.68.68v18.22c0 1.94-1.58 3.52-3.52 3.52z"/><path fill="#fff" d="M717.66 336.77h-1.31c-2.77 0-5.02-2.25-5.02-5.02v-18.22c0-1.2.98-2.18 2.18-2.18h7c1.2 0 2.18.98 2.18 2.18v18.22c0 2.77-2.25 5.02-5.02 5.02zm-3.34-22.43v17.4c0 1.12.91 2.02 2.02 2.02h1.31c1.12 0 2.02-.91 2.02-2.02v-17.4h-5.36z"/><path fill="#FFFBE8" d="M596.93 320.72v-13.35h6.02v13.35z"/><path fill="#000" d="M602.98 322.23h-6.02a1.5 1.5 0 0 1-1.5-1.5v-13.35c0-.83.67-1.5 1.5-1.5h6.02a1.5 1.5 0 0 1 1.5 1.5v13.35c0 .83-.67 1.5-1.5 1.5m-4.53-3h3.02v-10.35h-3.02z"/><path fill="#292626" d="M675.39 278.06a3.14 3.14 0 1 0 0-6.28 3.14 3.14 0 0 0 0 6.28"/><path fill="#fff" d="M675.39 279.56c-2.56 0-4.64-2.08-4.64-4.64s2.08-4.64 4.64-4.64 4.64 2.08 4.64 4.64-2.08 4.64-4.64 4.64m0-6.28a1.641 1.641 0 1 0 .002 3.282 1.641 1.641 0 0 0-.002-3.282"/><path fill="#292626" d="M595.17 313.28h9.59v11.36l-1.21 2.26v4.51h-6.77v-4.51l-1.61-2.18z"/><path fill="#fff" d="M603.55 332.91h-6.77c-.83 0-1.5-.67-1.5-1.5v-4.02l-1.32-1.78c-.19-.26-.29-.57-.29-.89v-11.44c0-.83.67-1.5 1.5-1.5h9.59c.83 0 1.5.67 1.5 1.5v11.36c0 .25-.06.49-.18.71l-1.03 1.92v4.14c0 .83-.67 1.5-1.5 1.5m-5.27-3h3.77v-3.01c0-.25.06-.49.18-.71l1.03-1.92v-9.48h-6.59v9.45l1.32 1.78c.19.26.29.57.29.89v3.01z"/><path fill="#292626" d="M538.74 310.15h-3.83c-.87 0-1.57.7-1.57 1.57v14.66l-4.28 9.79h3.71l4.33-9.88h12.91"/><path fill="#fff" d="M532.76 337.67h-3.71c-.51 0-.98-.26-1.26-.68s-.32-.96-.12-1.42l4.16-9.5v-14.34c0-1.69 1.38-3.07 3.07-3.07h3.83c.83 0 1.5.67 1.5 1.5s-.67 1.5-1.5 1.5h-3.83s-.07.03-.07.07v14.65c0 .21-.04.41-.13.6l-3.36 7.69h.44l3.94-8.98c.24-.55.78-.9 1.37-.9H550c.83 0 1.5.67 1.5 1.5s-.67 1.5-1.5 1.5h-11.93l-3.94 8.98c-.24.55-.78.9-1.37.9"/><path fill="#FFB921" d="M550.16 311.49v22.53c0 .74-.6 1.34-1.34 1.34h-10.49c-.74 0-1.34-.6-1.34-1.34v-22.54c0-.74.6-1.34 1.34-1.34h10.49c.74 0 1.34.6 1.34 1.34z"/><path fill="#fff" d="M548.83 336.87h-10.49c-1.57 0-2.84-1.27-2.84-2.84V311.5c0-1.56 1.27-2.84 2.84-2.84h10.49c1.57 0 2.84 1.27 2.84 2.84v22.53c0 1.56-1.27 2.84-2.84 2.84m-10.33-3h10.17v-22.21H538.5z"/><path fill="#292626" d="M541.15 310.6v7.29h4.86v-7.29"/><path fill="#fff" d="M546.01 319.39h-4.85c-.83 0-1.5-.67-1.5-1.5v-7.29c0-.83.67-1.5 1.5-1.5s1.5.67 1.5 1.5v5.79h1.85v-5.79c0-.83.67-1.5 1.5-1.5s1.5.67 1.5 1.5v7.29c0 .83-.67 1.5-1.5 1.5"/><path fill="#292626" d="M755.38 278.3a3.14 3.14 0 1 0 0-6.28 3.14 3.14 0 0 0 0 6.28"/><path fill="#fff" d="M755.38 279.8c-2.56 0-4.64-2.08-4.64-4.64s2.08-4.64 4.64-4.64 4.64 2.08 4.64 4.64-2.08 4.64-4.64 4.64m0-6.27a1.641 1.641 0 1 0 .002 3.282 1.641 1.641 0 0 0-.002-3.282"/><path fill="#fff" d="M658.63 443.12v-13.3h4.54c1.06 0 1.94.18 2.62.53s1.19.83 1.52 1.43.49 1.27.49 2.03-.16 1.38-.48 1.99c-.32.6-.83 1.08-1.51 1.44q-1.02.54-2.64.54h-2.64v5.34zm1.9-6.92h2.56c1 0 1.71-.22 2.14-.66s.64-1.02.64-1.74c0-.77-.21-1.37-.64-1.79s-1.14-.63-2.14-.63h-2.56z"/><path fill="#fff" d="M673.6 443.35c-.9 0-1.71-.21-2.42-.63-.72-.42-1.28-1-1.69-1.76-.41-.75-.62-1.62-.62-2.61s.21-1.9.63-2.65.99-1.34 1.71-1.76q1.08-.63 2.43-.63c.9 0 1.72.21 2.43.63s1.27 1 1.68 1.75.62 1.63.62 2.64-.21 1.89-.62 2.64-.98 1.33-1.7 1.75-1.54.63-2.45.63m0-1.64c.52 0 .99-.13 1.42-.38.42-.25.77-.63 1.03-1.13s.39-1.12.39-1.87-.13-1.37-.38-1.87-.59-.88-1.02-1.13c-.42-.25-.89-.38-1.4-.38s-.98.13-1.41.38-.78.63-1.04 1.13-.39 1.12-.39 1.87.13 1.37.39 1.87.6.88 1.03 1.13c.42.25.88.38 1.38.38"/><path fill="#fff" d="m682.21 443.12-2.81-9.58h1.88l2.09 7.98-.36-.02 2.32-7.96h2.13l2.32 7.96-.36.02 2.07-7.98h1.92l-2.81 9.58h-1.96l-2.43-8.3h.38l-2.43 8.3z"/><path fill="#fff" d="M699.1 443.35q-1.365 0-2.43-.63c-.71-.42-1.26-1-1.66-1.75s-.6-1.62-.6-2.6.2-1.9.6-2.65.95-1.34 1.66-1.77 1.53-.64 2.47-.64 1.74.21 2.41.63 1.19.97 1.56 1.66.55 1.45.55 2.29v.41l-.03.48h-7.83v-1.35h5.97c-.04-.8-.3-1.42-.8-1.87-.49-.45-1.11-.67-1.84-.67-.52 0-.99.12-1.43.35s-.78.58-1.04 1.03-.39 1.02-.39 1.7v.53q0 1.065.39 1.8c.26.49.6.85 1.04 1.1.43.25.9.37 1.41.37.61 0 1.11-.13 1.5-.4q.585-.405.87-1.08h1.9a4 4 0 0 1-.84 1.57c-.39.46-.88.83-1.45 1.09s-1.24.4-1.99.4"/><path fill="#fff" d="M705.77 443.12v-9.58h1.71l.17 1.81a3.5 3.5 0 0 1 2.05-1.78c.46-.16.99-.25 1.59-.25v2.01h-.68c-.39 0-.77.05-1.12.14s-.67.26-.94.48c-.27.23-.48.54-.64.93s-.23.88-.23 1.46v4.77h-1.9z"/><path fill="#fff" d="M721.6 443.35c-.81 0-1.52-.13-2.13-.4s-1.09-.64-1.44-1.12-.57-1.04-.65-1.69h1.94c.06.3.19.58.37.84s.44.46.76.61.71.23 1.15.23c.42 0 .76-.06 1.04-.18.27-.12.47-.28.6-.49s.19-.43.19-.67c0-.35-.09-.62-.26-.81s-.42-.33-.76-.44-.74-.21-1.21-.29c-.44-.08-.87-.18-1.28-.31s-.78-.3-1.1-.5-.58-.46-.77-.77-.28-.69-.28-1.15c0-.54.15-1.04.44-1.47.29-.44.71-.78 1.24-1.03s1.17-.37 1.91-.37c1.06 0 1.92.25 2.56.76.65.51 1.03 1.22 1.14 2.15h-1.84c-.05-.43-.24-.76-.57-1-.33-.23-.77-.35-1.31-.35s-.96.11-1.25.32c-.29.22-.44.5-.44.85 0 .23.08.43.25.61.16.18.41.33.73.45s.72.23 1.19.33c.67.13 1.27.29 1.81.48.53.19.96.47 1.27.84.32.37.47.89.47 1.58.01.6-.14 1.12-.45 1.58s-.75.81-1.31 1.06-1.23.38-2 .38z"/><path fill="#fff" d="M731.12 443.35c-.75 0-1.4-.15-1.95-.46-.55-.3-.98-.76-1.27-1.37-.3-.61-.45-1.37-.45-2.3v-5.68h1.9v5.47c0 .9.2 1.58.59 2.03.39.46.96.68 1.69.68.49 0 .94-.12 1.34-.36s.71-.59.94-1.04.34-1.01.34-1.67v-5.11h1.9v9.58h-1.69l-.13-1.63c-.29.58-.72 1.04-1.27 1.37-.56.33-1.2.49-1.94.49"/><path fill="#fff" d="M738.75 447.3v-13.76h1.71l.19 1.48c.2-.29.46-.57.76-.83s.67-.47 1.09-.64c.42-.16.92-.25 1.49-.25.91 0 1.71.22 2.4.67q1.035.66 1.62 1.8c.39.75.58 1.61.58 2.57s-.2 1.82-.59 2.57-.93 1.35-1.62 1.78-1.49.65-2.4.65q-1.125 0-1.98-.45c-.57-.3-1.02-.71-1.35-1.24v5.64h-1.9zm4.93-5.6c.58 0 1.1-.14 1.55-.42s.8-.67 1.06-1.18q.39-.765.39-1.77c0-.67-.13-1.26-.39-1.76s-.61-.89-1.06-1.18c-.45-.28-.97-.43-1.55-.43s-1.12.14-1.57.43-.8.68-1.05 1.18-.38 1.09-.38 1.76.13 1.26.38 1.77.6.9 1.05 1.18.97.42 1.57.42"/><path fill="#fff" d="M750.82 447.3v-13.76h1.71l.19 1.48c.2-.29.46-.57.76-.83s.67-.47 1.09-.64c.42-.16.92-.25 1.49-.25.91 0 1.71.22 2.4.67q1.035.66 1.62 1.8c.39.75.58 1.61.58 2.57s-.2 1.82-.59 2.57-.93 1.35-1.62 1.78-1.49.65-2.4.65q-1.125 0-1.98-.45c-.57-.3-1.02-.71-1.35-1.24v5.64h-1.9zm4.92-5.6c.58 0 1.1-.14 1.55-.42s.8-.67 1.06-1.18q.39-.765.39-1.77c0-.67-.13-1.26-.39-1.76s-.61-.89-1.06-1.18c-.45-.28-.97-.43-1.55-.43s-1.12.14-1.57.43-.8.68-1.05 1.18-.38 1.09-.38 1.76.13 1.26.38 1.77.6.9 1.05 1.18.97.42 1.57.42"/><path fill="#fff" d="M762.88 443.12v-13.68h1.9v13.68z"/><path fill="#fff" d="m768.49 447.3 2.34-5.24h-.55l-3.78-8.51h2.05l3 6.95 3.02-6.95h2l-6.08 13.76h-2z"/><path fill="#fff" d="m419.8 443.12-3.61-13.3h2.03l2.7 11.08 3.1-11.08h2.11l3 11.11 2.74-11.11h2.03l-3.67 13.3h-2.22l-2.98-10.58-3.06 10.58z"/><path fill="#fff" d="M436.79 431.74c-.37 0-.67-.11-.9-.34s-.35-.52-.35-.87.12-.62.35-.85q.345-.33.9-.33c.37 0 .65.11.89.33s.36.5.36.85-.12.65-.36.87c-.24.23-.54.34-.89.34m-.97 11.38v-9.58h1.9v9.58z"/><path fill="#fff" d="M440.55 438.31v-1.6h7.68v1.6z"/><path fill="#fff" d="M451.02 443.12v-13.3h8.26v1.56h-6.36v4.31h5.32v1.52h-5.32v5.91z"/><path fill="#fff" d="M462.32 431.74c-.37 0-.67-.11-.9-.34s-.35-.52-.35-.87.12-.62.35-.85q.345-.33.9-.33c.37 0 .65.11.89.33s.36.5.36.85-.12.65-.36.87c-.24.23-.54.34-.89.34m-.97 11.38v-9.58h1.9v9.58z"/><path fill="#fff" d="M470.93 443.12v-13.3h1.9v13.3zm1.58-6v-1.56h7.3v1.56zm6.87 6v-13.3h1.9v13.3z"/><path fill="#fff" d="M487.48 443.35c-.75 0-1.4-.15-1.95-.46-.55-.3-.98-.76-1.27-1.37-.3-.61-.45-1.37-.45-2.3v-5.68h1.9v5.47c0 .9.2 1.58.59 2.03.39.46.96.68 1.69.68.49 0 .94-.12 1.34-.36s.71-.59.94-1.04.34-1.01.34-1.67v-5.11h1.9v9.58h-1.69l-.13-1.63c-.29.58-.72 1.04-1.27 1.37-.56.33-1.2.49-1.94.49"/><path fill="#fff" d="M500.34 443.35c-.52 0-.99-.07-1.42-.22a3.7 3.7 0 0 1-1.91-1.47l-.19 1.46h-1.71v-13.68h1.9v5.6c.3-.48.73-.89 1.28-1.23s1.23-.5 2.04-.5c.91 0 1.72.22 2.41.66.7.44 1.24 1.03 1.62 1.79.39.75.58 1.62.58 2.59s-.19 1.81-.58 2.56c-.39.76-.93 1.36-1.62 1.79-.7.43-1.5.65-2.41.65zm-.3-1.65c.58 0 1.1-.14 1.55-.42s.8-.67 1.06-1.18q.39-.765.39-1.77c0-.67-.13-1.26-.39-1.76s-.61-.89-1.06-1.18c-.45-.28-.97-.43-1.55-.43s-1.12.14-1.57.43-.8.68-1.05 1.18-.38 1.09-.38 1.76.13 1.26.38 1.77.6.9 1.05 1.18.97.42 1.57.42"/><path fill="#fff" d="M512.14 443.12v-13.3h4.54c1.06 0 1.94.18 2.62.53s1.19.83 1.52 1.43.49 1.27.49 2.03-.16 1.38-.48 1.99c-.32.6-.83 1.08-1.51 1.44q-1.02.54-2.64.54h-2.64v5.34zm1.9-6.92h2.56c1 0 1.71-.22 2.14-.66s.64-1.02.64-1.74c0-.77-.21-1.37-.64-1.79s-1.14-.63-2.14-.63h-2.56z"/><path fill="#fff" d="M523.27 443.12v-9.58h1.71l.17 1.81a3.5 3.5 0 0 1 2.05-1.78c.46-.16.99-.25 1.59-.25v2.01h-.68c-.39 0-.77.05-1.12.14s-.67.26-.94.48c-.27.23-.48.54-.64.93s-.23.88-.23 1.46v4.77h-1.9z"/><path fill="#fff" d="M534.6 443.35c-.9 0-1.71-.21-2.42-.63-.72-.42-1.28-1-1.69-1.76-.41-.75-.62-1.62-.62-2.61s.21-1.9.63-2.65.99-1.34 1.71-1.76q1.08-.63 2.43-.63c.9 0 1.72.21 2.43.63s1.27 1 1.68 1.75.62 1.63.62 2.64-.21 1.89-.62 2.64-.98 1.33-1.7 1.75-1.54.63-2.45.63m0-1.64c.52 0 .99-.13 1.42-.38.42-.25.77-.63 1.03-1.13s.39-1.12.39-1.87-.13-1.37-.38-1.87-.59-.88-1.02-1.13c-.42-.25-.89-.38-1.4-.38s-.98.13-1.41.38-.78.63-1.04 1.13-.39 1.12-.39 1.87.13 1.37.39 1.87.6.88 1.03 1.13c.42.25.88.38 1.38.38"/><path fill="#fff" d="M57.56 443.35c-1.28 0-2.4-.29-3.37-.86a6.1 6.1 0 0 1-2.28-2.41c-.55-1.03-.83-2.23-.83-3.6s.28-2.55.83-3.58 1.31-1.84 2.28-2.42 2.09-.87 3.37-.87 2.44.29 3.42.87 1.73 1.39 2.27 2.42.81 2.23.81 3.58-.27 2.57-.81 3.6-1.3 1.84-2.27 2.41c-.98.58-2.12.86-3.42.86m.02-1.69c.91 0 1.71-.21 2.39-.63s1.21-1.01 1.59-1.79c.37-.77.56-1.7.56-2.77s-.19-2-.56-2.77-.9-1.36-1.59-1.78c-.68-.41-1.48-.62-2.39-.62s-1.71.21-2.39.62-1.22 1-1.6 1.78-.57 1.7-.57 2.77.19 2 .57 2.77.91 1.37 1.6 1.79 1.48.63 2.39.63"/><path fill="#fff" d="M66.34 443.12v-13.3h1.9l6.78 10.2v-10.2h1.9v13.3h-1.9l-6.78-10.18v10.18z"/><path fill="#fff" d="M82.79 443.12v-11.74h-3.93v-1.56h9.79v1.56H84.7v11.74z"/><path fill="#fff" d="M98.7 445.87c-.68-.67-1.31-1.47-1.89-2.38-.58-.92-1.03-1.94-1.37-3.06s-.5-2.33-.5-3.64.17-2.52.5-3.64c.34-1.12.79-2.14 1.37-3.07.58-.92 1.21-1.72 1.89-2.38h1.94v.17q-1.155 1.185-2.01 2.58c-.57.94-1.01 1.94-1.33 3s-.48 2.17-.48 3.32q0 1.725.48 3.33c.32 1.06.76 2.06 1.34 3s1.24 1.8 2 2.58v.17H98.7z"/><path fill="#fff" d="M106.16 443.35c-.9 0-1.71-.21-2.42-.63-.72-.42-1.28-1-1.69-1.76-.41-.75-.62-1.62-.62-2.61s.21-1.9.63-2.65.99-1.34 1.71-1.76q1.08-.63 2.43-.63c.9 0 1.72.21 2.43.63s1.27 1 1.68 1.75.62 1.63.62 2.64-.21 1.89-.62 2.64-.98 1.33-1.7 1.75-1.54.63-2.45.63m0-1.64c.52 0 .99-.13 1.42-.38.42-.25.77-.63 1.03-1.13s.39-1.12.39-1.87-.13-1.37-.38-1.87-.59-.88-1.02-1.13c-.42-.25-.89-.38-1.4-.38s-.98.13-1.41.38-.78.63-1.04 1.13-.39 1.12-.39 1.87.13 1.37.39 1.87.6.88 1.03 1.13c.42.25.88.38 1.38.38"/><path fill="#fff" d="M113.18 447.3v-13.76h1.71l.19 1.48c.2-.29.46-.57.76-.83s.67-.47 1.09-.64c.42-.16.92-.25 1.49-.25.91 0 1.71.22 2.4.67q1.035.66 1.62 1.8c.39.75.58 1.61.58 2.57s-.2 1.82-.59 2.57-.93 1.35-1.62 1.78-1.49.65-2.4.65q-1.125 0-1.98-.45c-.57-.3-1.02-.71-1.35-1.24v5.64h-1.9zm4.92-5.6c.58 0 1.1-.14 1.55-.42s.8-.67 1.06-1.18q.39-.765.39-1.77c0-.67-.13-1.26-.39-1.76s-.61-.89-1.06-1.18c-.45-.28-.97-.43-1.55-.43s-1.12.14-1.57.43-.8.68-1.05 1.18-.38 1.09-.38 1.76.13 1.26.38 1.77.6.9 1.05 1.18.97.42 1.57.42"/><path fill="#fff" d="M128.79 443.12c-.6 0-1.11-.1-1.56-.29s-.79-.51-1.03-.95-.36-1.04-.36-1.81v-4.92h-1.65v-1.62h1.65l.23-2.39h1.67v2.39h2.72v1.62h-2.72v4.94c0 .54.11.92.34 1.11.23.2.62.29 1.18.29h1.1v1.62h-1.58z"/><path fill="#fff" d="M133.66 431.74c-.37 0-.67-.11-.9-.34s-.35-.52-.35-.87.12-.62.35-.85q.345-.33.9-.33c.37 0 .65.11.89.33s.36.5.36.85-.12.65-.36.87c-.24.23-.54.34-.89.34m-.97 11.38v-9.58h1.9v9.58z"/><path fill="#fff" d="M141.73 443.35c-.92 0-1.75-.21-2.47-.64a4.5 4.5 0 0 1-1.7-1.76c-.41-.75-.62-1.61-.62-2.6s.21-1.88.62-2.63.98-1.34 1.7-1.77 1.55-.64 2.47-.64c1.17 0 2.14.3 2.93.91s1.29 1.43 1.5 2.47h-1.98c-.13-.56-.42-.99-.86-1.29-.45-.3-.99-.46-1.61-.46q-.765 0-1.41.39c-.43.26-.78.64-1.04 1.14s-.39 1.12-.39 1.85c0 .54.08 1.03.23 1.45s.36.78.62 1.07q.39.435.9.66c.34.15.7.22 1.08.22.42 0 .79-.07 1.13-.2s.62-.33.85-.6.4-.58.48-.95h1.98c-.22 1.01-.72 1.83-1.5 2.44-.79.61-1.76.92-2.93.92z"/><path fill="#fff" d="M151.56 443.35c-.79 0-1.44-.13-1.96-.4s-.91-.62-1.16-1.07-.38-.93-.38-1.45c0-.63.16-1.17.49-1.62s.8-.79 1.41-1.04 1.34-.36 2.19-.36h2.49c0-.56-.08-1.02-.25-1.39-.16-.37-.41-.64-.73-.83-.32-.18-.73-.28-1.23-.28-.57 0-1.06.14-1.46.41s-.66.67-.76 1.21h-1.9c.08-.67.31-1.24.69-1.72.39-.48.88-.84 1.49-1.1s1.25-.39 1.94-.39c.9 0 1.65.16 2.26.48s1.07.76 1.38 1.34.47 1.26.47 2.06v5.93h-1.65l-.15-1.62c-.14.25-.3.49-.49.72s-.42.42-.67.59c-.26.17-.56.29-.89.39-.34.1-.71.14-1.11.14zm.36-1.54c.41 0 .77-.08 1.1-.25.33-.16.61-.39.85-.67s.41-.61.53-.97.19-.73.2-1.11v-.06h-2.26c-.54 0-.99.07-1.32.2-.34.13-.58.31-.73.54s-.23.49-.23.8.07.59.22.81.36.4.64.52c.28.13.61.19 1.01.19z"/><path fill="#fff" d="M158.96 443.12v-13.68h1.9v13.68z"/><path fill="#fff" d="M168.33 443.12v-9.58h1.71l.11 1.63c.3-.57.73-1.02 1.29-1.36s1.2-.5 1.92-.5c.76 0 1.41.15 1.96.46.54.3.97.76 1.27 1.38.3.61.46 1.38.46 2.31v5.66h-1.9v-5.47c0-.89-.2-1.56-.59-2.01s-.96-.68-1.71-.68c-.49 0-.94.12-1.33.35s-.71.58-.94 1.04-.35 1.01-.35 1.67v5.11h-1.9z"/><path fill="#fff" d="M183.82 443.35q-1.365 0-2.43-.63c-.71-.42-1.26-1-1.66-1.75s-.6-1.62-.6-2.6.2-1.9.6-2.65.95-1.34 1.66-1.77 1.53-.64 2.47-.64 1.74.21 2.41.63 1.19.97 1.56 1.66.55 1.45.55 2.29v.41l-.03.48h-7.83v-1.35h5.97c-.04-.8-.3-1.42-.8-1.87-.49-.45-1.11-.67-1.84-.67-.52 0-.99.12-1.43.35s-.78.58-1.04 1.03-.39 1.02-.39 1.7v.53q0 1.065.39 1.8c.26.49.6.85 1.04 1.1.43.25.9.37 1.41.37.61 0 1.11-.13 1.5-.4q.585-.405.87-1.08h1.9a4 4 0 0 1-.84 1.57c-.39.46-.88.83-1.45 1.09s-1.24.4-1.99.4"/><path fill="#fff" d="M194.15 443.12c-.6 0-1.11-.1-1.56-.29s-.79-.51-1.03-.95-.36-1.04-.36-1.81v-4.92h-1.65v-1.62h1.65l.23-2.39h1.67v2.39h2.72v1.62h-2.72v4.94c0 .54.11.92.34 1.11.23.2.62.29 1.18.29h1.1v1.62h-1.58z"/><path fill="#fff" d="m199.85 443.12-2.81-9.58h1.88l2.09 7.98-.36-.02 2.32-7.96h2.13l2.32 7.96-.36.02 2.07-7.98h1.92l-2.81 9.58h-1.96l-2.43-8.3h.38l-2.43 8.3z"/><path fill="#fff" d="M216.78 443.35c-.9 0-1.71-.21-2.42-.63-.72-.42-1.28-1-1.69-1.76-.41-.75-.62-1.62-.62-2.61s.21-1.9.63-2.65.99-1.34 1.71-1.76q1.08-.63 2.43-.63c.9 0 1.72.21 2.43.63s1.27 1 1.68 1.75.62 1.63.62 2.64-.21 1.89-.62 2.64-.98 1.33-1.7 1.75-1.54.63-2.45.63m0-1.64c.52 0 .99-.13 1.42-.38.42-.25.77-.63 1.03-1.13s.39-1.12.39-1.87-.13-1.37-.38-1.87-.59-.88-1.02-1.13c-.42-.25-.89-.38-1.4-.38s-.98.13-1.41.38-.78.63-1.04 1.13-.39 1.12-.39 1.87.13 1.37.39 1.87.6.88 1.03 1.13c.42.25.88.38 1.38.38"/><path fill="#fff" d="M223.79 443.12v-9.58h1.71l.17 1.81a3.5 3.5 0 0 1 2.05-1.78c.46-.16.99-.25 1.59-.25v2.01h-.68c-.39 0-.77.05-1.12.14s-.67.26-.94.48c-.27.23-.48.54-.64.93s-.23.88-.23 1.46v4.77h-1.9z"/><path fill="#fff" d="M231.05 443.12v-13.68h1.9v13.68zm6.02 0-4.41-5.24 3.99-4.33h2.3l-4.75 5.07v-1.43l5.26 5.93z"/><path fill="#fff" d="M249.86 443.12c-.6 0-1.11-.1-1.56-.29s-.79-.51-1.03-.95-.36-1.04-.36-1.81v-4.92h-1.65v-1.62h1.65l.23-2.39h1.67v2.39h2.72v1.62h-2.72v4.94c0 .54.11.92.34 1.11.23.2.62.29 1.18.29h1.1v1.62h-1.58z"/><path fill="#fff" d="M257.69 443.35q-1.365 0-2.43-.63c-.71-.42-1.26-1-1.66-1.75s-.6-1.62-.6-2.6.2-1.9.6-2.65.95-1.34 1.66-1.77 1.53-.64 2.47-.64 1.74.21 2.41.63 1.19.97 1.56 1.66.55 1.45.55 2.29v.41l-.03.48h-7.83v-1.35h5.97c-.04-.8-.3-1.42-.8-1.87-.49-.45-1.11-.67-1.84-.67-.52 0-.99.12-1.43.35s-.78.58-1.04 1.03-.39 1.02-.39 1.7v.53q0 1.065.39 1.8c.26.49.6.85 1.04 1.1.43.25.9.37 1.41.37.61 0 1.11-.13 1.5-.4q.585-.405.87-1.08h1.9a4 4 0 0 1-.84 1.57c-.39.46-.88.83-1.45 1.09s-1.24.4-1.99.4"/><path fill="#fff" d="M264.36 443.12v-9.58h1.71l.17 1.81a3.5 3.5 0 0 1 2.05-1.78c.46-.16.99-.25 1.59-.25v2.01h-.68c-.39 0-.77.05-1.12.14s-.67.26-.94.48c-.27.23-.48.54-.64.93s-.23.88-.23 1.46v4.77h-1.9z"/><path fill="#fff" d="M271.62 443.12v-9.58h1.71l.13 1.35c.3-.49.71-.88 1.22-1.16q.765-.42 1.71-.42c.48 0 .92.07 1.31.2s.74.33 1.04.6.55.6.74.99c.34-.56.8-.99 1.38-1.31q.87-.48 1.83-.48c.77 0 1.44.16 1.99.47.56.31.98.77 1.27 1.39.29.61.44 1.38.44 2.29v5.66h-1.88v-5.47q0-1.335-.54-2.01c-.36-.46-.89-.68-1.59-.68-.47 0-.89.12-1.25.36-.37.24-.66.59-.86 1.04s-.31 1.01-.31 1.67v5.09h-1.9v-5.47q0-1.335-.54-2.01c-.36-.46-.89-.68-1.59-.68-.44 0-.85.12-1.22.36s-.66.59-.87 1.04c-.22.46-.32 1.01-.32 1.67v5.09z"/><path fill="#fff" d="M289.95 431.74c-.37 0-.67-.11-.9-.34s-.35-.52-.35-.87.12-.62.35-.85q.345-.33.9-.33c.37 0 .65.11.89.33s.36.5.36.85-.12.65-.36.87c-.24.23-.54.34-.89.34m-.97 11.38v-9.58h1.9v9.58z"/><path fill="#fff" d="M293.6 443.12v-9.58h1.71l.11 1.63c.3-.57.73-1.02 1.29-1.36s1.2-.5 1.92-.5c.76 0 1.41.15 1.96.46.54.3.97.76 1.27 1.38.3.61.46 1.38.46 2.31v5.66h-1.9v-5.47c0-.89-.2-1.56-.59-2.01s-.96-.68-1.71-.68c-.49 0-.94.12-1.33.35s-.71.58-.94 1.04-.35 1.01-.35 1.67v5.11h-1.9z"/><path fill="#fff" d="M307.92 443.35c-.79 0-1.44-.13-1.96-.4s-.91-.62-1.16-1.07-.38-.93-.38-1.45c0-.63.16-1.17.49-1.62s.8-.79 1.41-1.04 1.34-.36 2.19-.36H311c0-.56-.08-1.02-.25-1.39-.16-.37-.41-.64-.73-.83-.32-.18-.73-.28-1.23-.28-.57 0-1.06.14-1.46.41s-.66.67-.76 1.21h-1.9c.08-.67.31-1.24.69-1.72.39-.48.88-.84 1.49-1.1s1.25-.39 1.94-.39c.9 0 1.65.16 2.26.48s1.07.76 1.38 1.34.47 1.26.47 2.06v5.93h-1.65l-.15-1.62c-.14.25-.3.49-.49.72s-.42.42-.67.59c-.26.17-.56.29-.89.39-.34.1-.71.14-1.11.14zm.37-1.54c.41 0 .77-.08 1.1-.25.33-.16.61-.39.85-.67s.41-.61.53-.97.19-.73.2-1.11v-.06h-2.26c-.54 0-.99.07-1.32.2-.34.13-.58.31-.73.54s-.23.49-.23.8.07.59.22.81.36.4.64.52c.28.13.61.19 1.01.19z"/><path fill="#fff" d="M315.33 443.12v-13.68h1.9v13.68z"/><path fill="#fff" d="M321.15 445.87h-1.92v-.17c.77-.79 1.44-1.65 2-2.58q.84-1.41 1.32-3t.48-3.33c0-1.16-.16-2.26-.48-3.32a13.4 13.4 0 0 0-3.32-5.58v-.17h1.92a11 11 0 0 1 1.91 2.38c.56.92 1.02 1.95 1.36 3.07s.51 2.33.51 3.64-.17 2.52-.51 3.64-.79 2.14-1.36 3.06c-.56.92-1.2 1.71-1.91 2.38z"/></svg>