<svg xmlns="http://www.w3.org/2000/svg" width="264" height="321" fill="none" viewBox="0 0 264 321"><path fill="#191917" d="M261.839 1.501H1.501v317.988h260.338z"/><path fill="#EBEBEB" d="M261.839 321H1.501A1.5 1.5 0 0 1 0 319.499V1.501A1.5 1.5 0 0 1 1.501 0h260.338c.831 0 1.501.67 1.501 1.501v317.988a1.5 1.5 0 0 1-1.501 1.501zM3.002 317.998h257.336V3.002H3.002z"/><path fill="#191917" d="M1.511 319.489h145.75V1.501H1.511z"/><path fill="#EBEBEB" d="M147.261 320.99H1.511a1.5 1.5 0 0 1-1.501-1.501V1.501A1.5 1.5 0 0 1 1.511 0h145.75a1.5 1.5 0 0 1 1.501 1.501v317.988a1.5 1.5 0 0 1-1.501 1.501M3.012 317.988H145.76V3.002H3.012z"/><path fill="#191917" d="M122.974 193.592H91.142v70.219h31.832z"/><path fill="#EBEBEB" d="M122.974 265.302H91.142a1.5 1.5 0 0 1-1.5-1.501v-70.218c0-.831.67-1.501 1.5-1.501h31.832c.831 0 1.501.67 1.501 1.501v70.218a1.5 1.5 0 0 1-1.501 1.501m-30.33-3.002h28.829v-67.216h-28.83z"/><path fill="#191917" d="M58.84 193.592H27.008v70.219H58.84z"/><path fill="#EBEBEB" d="M58.84 265.302H27.008a1.5 1.5 0 0 1-1.5-1.501v-70.218c0-.831.67-1.501 1.5-1.501H58.84a1.5 1.5 0 0 1 1.501 1.501v70.218a1.5 1.5 0 0 1-1.5 1.501M28.51 262.3h28.83v-67.216H28.51z"/><path fill="#191917" d="M122.974 106.153H91.142v70.218h31.832z"/><path fill="#EBEBEB" d="M122.974 177.872H91.142a1.5 1.5 0 0 1-1.5-1.501v-70.218c0-.831.67-1.501 1.5-1.501h31.832c.831 0 1.501.67 1.501 1.501v70.218a1.5 1.5 0 0 1-1.501 1.501m-30.33-3.002h28.829v-67.216h-28.83z"/><path fill="#191917" d="M58.84 106.153H27.008v70.218H58.84z"/><path fill="#EBEBEB" d="M58.84 177.872H27.008a1.5 1.5 0 0 1-1.5-1.501v-70.218c0-.831.67-1.501 1.5-1.501H58.84a1.5 1.5 0 0 1 1.501 1.501v70.218a1.5 1.5 0 0 1-1.5 1.501m-30.33-3.002h28.83v-67.216H28.51z"/><path fill="#191917" d="M122.974 18.723H91.142V88.94h31.832z"/><path fill="#EBEBEB" d="M122.974 90.442H91.142a1.5 1.5 0 0 1-1.5-1.501V18.723a1.5 1.5 0 0 1 1.5-1.501h31.832c.831 0 1.501.67 1.501 1.5v70.219c0 .83-.67 1.5-1.501 1.5m-30.33-3.002h28.829V20.224h-28.83z"/><path fill="#191917" d="M220.471 106.153h-31.832v70.218h31.832z"/><path fill="#EBEBEB" d="M220.461 177.872h-31.832a1.5 1.5 0 0 1-1.501-1.501v-70.218a1.5 1.5 0 0 1 1.501-1.501h31.832a1.5 1.5 0 0 1 1.501 1.501v70.218a1.5 1.5 0 0 1-1.501 1.501m-30.321-3.002h28.83v-67.216h-28.83z"/><path fill="#191917" d="M220.471 18.723h-31.832V88.94h31.832z"/><path fill="#EBEBEB" d="M220.461 90.442h-31.832a1.5 1.5 0 0 1-1.501-1.501V18.723a1.5 1.5 0 0 1 1.501-1.501h31.832a1.5 1.5 0 0 1 1.501 1.5v70.219a1.5 1.5 0 0 1-1.501 1.5M190.14 87.44h28.83V20.224h-28.83z"/><path fill="#191917" d="M58.84 18.723H27.008V88.94H58.84z"/><path fill="#EBEBEB" d="M58.84 90.442H27.008c-.83 0-1.5-.67-1.5-1.501V18.723c0-.83.67-1.501 1.5-1.501H58.84a1.5 1.5 0 0 1 1.501 1.5v70.219a1.5 1.5 0 0 1-1.5 1.5M28.51 87.44h28.83V20.224H28.51z"/><path fill="#191917" d="M237.623 194.133h-66.146v125.216h66.146z"/><path fill="#EBEBEB" d="M237.623 320.86h-66.146a1.5 1.5 0 0 1-1.501-1.501V194.143a1.5 1.5 0 0 1 1.501-1.501h66.146a1.5 1.5 0 0 1 1.501 1.501v125.216a1.5 1.5 0 0 1-1.501 1.501m-64.644-3.002h63.143V195.644h-63.143z"/><path fill="#191917" d="M218.37 251.802h-27.639v9.877h27.639z"/><path fill="#EBEBEB" d="M218.37 263.19h-27.639c-.831 0-1.501-.67-1.501-1.501v-9.876a1.5 1.5 0 0 1 1.501-1.502h27.639a1.5 1.5 0 0 1 1.501 1.502v9.876a1.5 1.5 0 0 1-1.501 1.501m-26.138-3.002h24.637v-6.874h-24.637z"/></svg>