<svg xmlns="http://www.w3.org/2000/svg" width="188" height="303" fill="none" viewBox="0 0 188 303"><path fill="#191917" d="m1.51 264.233 24.814-155.808a9.436 9.436 0 0 1 9.312-7.951H150.64a11.65 11.65 0 0 1 11.506 9.844l23.511 150.331"/><path fill="#EBEBEB" d="M1.51 265.735c-.08 0-.16 0-.24-.02a1.505 1.505 0 0 1-1.251-1.722l24.813-155.808a10.88 10.88 0 0 1 10.794-9.213H150.63c6.519 0 11.976 4.677 12.988 11.115l23.511 150.331a1.49 1.49 0 0 1-1.252 1.713 1.49 1.49 0 0 1-1.712-1.252l-23.511-150.331a10.09 10.09 0 0 0-10.024-8.572H35.626a7.905 7.905 0 0 0-7.83 6.679L2.983 264.464a1.5 1.5 0 0 1-1.482 1.261z"/><path fill="#191917" d="M178.377 256.113H9.631a8.12 8.12 0 0 0-8.12 8.12v29.029a8.12 8.12 0 0 0 8.12 8.121h168.746a8.12 8.12 0 0 0 8.121-8.121v-29.029a8.12 8.12 0 0 0-8.121-8.12"/><path fill="#EBEBEB" d="M178.377 302.885H9.631c-5.307 0-9.622-4.316-9.622-9.623v-29.029c0-5.307 4.315-9.622 9.622-9.622h168.746c5.307 0 9.623 4.315 9.623 9.622v29.029c0 5.307-4.316 9.623-9.623 9.623M9.631 257.615a6.626 6.626 0 0 0-6.618 6.618v29.029a6.626 6.626 0 0 0 6.618 6.619h168.746a6.626 6.626 0 0 0 6.619-6.619v-29.029c0-3.654-2.974-6.618-6.619-6.618z"/><path fill="#191917" d="M71.765 268.87H31.14a3.545 3.545 0 0 0-3.544 3.544v12.677a3.545 3.545 0 0 0 3.544 3.545h40.625a3.545 3.545 0 0 0 3.544-3.545v-12.677a3.545 3.545 0 0 0-3.544-3.544"/><path fill="#EBEBEB" d="M71.755 290.128H31.13a5.05 5.05 0 0 1-5.046-5.047v-12.667a5.05 5.05 0 0 1 5.046-5.046h40.624a5.05 5.05 0 0 1 5.047 5.046v12.667a5.05 5.05 0 0 1-5.047 5.047M31.14 270.372a2.045 2.045 0 0 0-2.043 2.042v12.667c0 1.122.922 2.043 2.043 2.043h40.625a2.045 2.045 0 0 0 2.042-2.043v-12.667a2.05 2.05 0 0 0-2.042-2.042z"/><path fill="#EBEBEB" d="M132.686 294.344h24.773v-27.127h-24.773z"/><path fill="#EBEBEB" d="M158.961 295.846h-27.777v-30.131h27.777zm-24.763-3.004h21.769v-24.123h-21.769z"/><path fill="#EBEBEB" d="M136.051 267.217h18.064v-2.132h-18.064z"/><path fill="#EBEBEB" d="M155.607 263.593h-21.068v5.136h21.068z"/><path fill="#EBEBEB" d="M149.558 294.334v-31.192h-8.982v31.192z"/><path fill="#EBEBEB" d="M151.071 295.846h-11.987V261.65h11.987zm-8.983-3.004h5.978v-28.188h-5.978z"/><path fill="#191917" d="M152.332 285.452h-14.519v5.227h14.519z"/><path fill="#EBEBEB" d="M152.342 292.181h-14.519a1.5 1.5 0 0 1-1.502-1.502v-5.227a1.5 1.5 0 0 1 1.502-1.502h14.519a1.5 1.5 0 0 1 1.502 1.502v5.227a1.5 1.5 0 0 1-1.502 1.502m-13.027-3.004h11.515v-2.223h-11.515z"/><path fill="#EBEBEB" d="M94.004 101.976a1.5 1.5 0 0 1-1.502-1.502V46.823a1.5 1.5 0 0 1 1.502-1.502 1.5 1.5 0 0 1 1.502 1.502v53.651a1.5 1.5 0 0 1-1.502 1.502"/><path fill="#191917" d="M102.306 1.502h6.989a2.863 2.863 0 0 1 2.864 2.864v26.706l7.8 17.843H113.2l-7.72-18.394"/><path fill="#EBEBEB" d="M119.969 50.428h-6.759a1.495 1.495 0 0 1-1.382-.922l-7.72-18.394c-.32-.761.04-1.643.801-1.963s1.642.04 1.963.801l7.339 17.473h3.465l-6.879-15.74c-.08-.19-.13-.391-.13-.601V4.376c0-.751-.611-1.362-1.362-1.362h-6.989a1.5 1.5 0 0 1-1.502-1.502A1.5 1.5 0 0 1 102.316.01h6.989a4.37 4.37 0 0 1 4.366 4.366V30.77l7.68 17.554a1.5 1.5 0 0 1-.12 1.421c-.28.421-.751.681-1.262.681"/><path fill="#191917" d="M81.478 3.945V45.01a2.44 2.44 0 0 0 2.443 2.444h19.115a2.44 2.44 0 0 0 2.444-2.444V3.935a2.44 2.44 0 0 0-2.444-2.443H83.921a2.44 2.44 0 0 0-2.443 2.443z"/><path fill="#EBEBEB" d="M103.036 48.956H83.921a3.953 3.953 0 0 1-3.945-3.946V3.945A3.953 3.953 0 0 1 83.92 0h19.115a3.954 3.954 0 0 1 3.946 3.945V45.01a3.954 3.954 0 0 1-3.946 3.946M82.98 3.946V45.01c0 .52.42.942.94.942h19.116a.94.94 0 0 0 .942-.942V3.945a.94.94 0 0 0-.942-.941H83.921a.94.94 0 0 0-.941.941"/><path fill="#EBEBEB" d="M88.267 41.856a1.5 1.5 0 0 1-1.502-1.502V24.483a1.5 1.5 0 0 1 1.502-1.502 1.5 1.5 0 0 1 1.502 1.502v15.87a1.5 1.5 0 0 1-1.502 1.503"/><path fill="#EBEBEB" d="M93.774 41.856a1.5 1.5 0 0 1-1.502-1.502V24.483a1.5 1.5 0 0 1 1.502-1.502 1.5 1.5 0 0 1 1.502 1.502v15.87a1.5 1.5 0 0 1-1.502 1.503"/><path fill="#EBEBEB" d="M99.282 41.856a1.5 1.5 0 0 1-1.502-1.502V24.483a1.5 1.5 0 0 1 1.501-1.502 1.5 1.5 0 0 1 1.502 1.502v15.87a1.5 1.5 0 0 1-1.502 1.503"/></svg>