<svg xmlns="http://www.w3.org/2000/svg" width="365" height="421" fill="none" viewBox="0 0 365 421"><path fill="#000" d="M291.793 421a1.5 1.5 0 0 1-1.503-1.503V1.503c0-.832.672-1.503 1.503-1.503a1.5 1.5 0 0 1 1.503 1.503v417.984a1.5 1.5 0 0 1-1.503 1.503z"/><path fill="#000" d="M363.262 421a1.5 1.5 0 0 1-1.502-1.503V1.503A1.5 1.5 0 0 1 363.262 0a1.5 1.5 0 0 1 1.503 1.503v417.984a1.5 1.5 0 0 1-1.503 1.503z"/><path fill="#FFFBE8" d="M356.61 169.426h-31.076a.52.52 0 0 0-.521.521v47.265a.52.52 0 0 0 .521.521h31.076a.52.52 0 0 0 .521-.521v-47.265a.52.52 0 0 0-.521-.521"/><path fill="#000" d="M356.6 219.236h-31.066a2.025 2.025 0 0 1-2.024-2.024v-47.265c0-1.122.912-2.024 2.024-2.024H356.6c1.122 0 2.024.912 2.024 2.024v47.265a2.025 2.025 0 0 1-2.024 2.024m-30.084-3.006h29.112v-45.301h-29.112z"/><path fill="#FFFBE8" d="M342.495 106.282h-29.934c-.604 0-1.092.489-1.092 1.092v206.252c0 .603.488 1.092 1.092 1.092h29.934c.603 0 1.092-.489 1.092-1.092V107.374c0-.603-.489-1.092-1.092-1.092"/><path fill="#000" d="M342.495 316.221H312.55a2.595 2.595 0 0 1-2.594-2.595V107.374a2.595 2.595 0 0 1 2.594-2.595h29.945a2.595 2.595 0 0 1 2.594 2.595v206.252a2.595 2.595 0 0 1-2.594 2.595m-29.524-3.006h29.113v-205.43h-29.113z"/><path fill="#FFFBE8" d="M327.528 134.613a8.045 8.045 0 1 0-.002-16.09 8.045 8.045 0 0 0 .002 16.09"/><path fill="#000" d="M327.528 136.106c-5.26 0-9.548-4.278-9.548-9.548 0-5.269 4.278-9.547 9.548-9.547 5.269 0 9.547 4.278 9.547 9.547s-4.278 9.548-9.547 9.548m0-16.079a6.55 6.55 0 0 0-6.542 6.541 6.55 6.55 0 0 0 6.542 6.542 6.55 6.55 0 0 0 6.541-6.542 6.55 6.55 0 0 0-6.541-6.541"/><path fill="#000" d="M321.847 133.741c-.381 0-.771-.15-1.062-.44a1.494 1.494 0 0 1 0-2.124l11.351-11.351a1.494 1.494 0 0 1 2.124 0 1.494 1.494 0 0 1 0 2.124l-11.351 11.351c-.29.29-.681.44-1.062.44"/><path fill="#FFFBE8" d="M327.528 302.476a8.045 8.045 0 1 0-.002-16.09 8.045 8.045 0 0 0 .002 16.09"/><path fill="#000" d="M327.528 303.979c-5.26 0-9.548-4.278-9.548-9.548 0-5.269 4.278-9.547 9.548-9.547 5.269 0 9.547 4.278 9.547 9.547s-4.278 9.548-9.547 9.548m0-16.079a6.55 6.55 0 0 0-6.542 6.542 6.55 6.55 0 0 0 6.542 6.541 6.55 6.55 0 0 0 6.541-6.541 6.55 6.55 0 0 0-6.541-6.542"/><path fill="#000" d="M321.847 301.614c-.381 0-.771-.15-1.062-.44a1.494 1.494 0 0 1 0-2.124l11.351-11.351a1.494 1.494 0 0 1 2.124 0 1.494 1.494 0 0 1 0 2.124l-11.351 11.351c-.29.29-.681.44-1.062.44"/><path fill="#FFFBE8" d="M346.241 169.426H318.13a.5.5 0 0 0-.5.501v47.305a.5.5 0 0 0 .5.501h28.111a.5.5 0 0 0 .501-.501v-47.305a.5.5 0 0 0-.501-.501"/><path fill="#000" d="M346.241 219.236H318.13a2.01 2.01 0 0 1-2.003-2.004v-47.315a2.01 2.01 0 0 1 2.003-2.004h28.111a2.01 2.01 0 0 1 2.004 2.004v47.315a2.01 2.01 0 0 1-2.004 2.004m-27.109-3.006h26.107v-45.301h-26.107z"/><path fill="#FFFBE8" d="M251.37 97.366h-90.613a1.864 1.864 0 0 0-1.864 1.863v222.542c0 1.029.835 1.863 1.864 1.863h90.613a1.864 1.864 0 0 0 1.864-1.863V99.229a1.864 1.864 0 0 0-1.864-1.863"/><path fill="#000" d="M251.37 325.137h-90.623a3.373 3.373 0 0 1-3.366-3.366V99.229a3.373 3.373 0 0 1 3.366-3.366h90.623a3.373 3.373 0 0 1 3.366 3.366v222.542a3.373 3.373 0 0 1-3.366 3.366M160.757 98.868a.36.36 0 0 0-.361.361v222.542c0 .2.16.361.361.361h90.623a.36.36 0 0 0 .361-.361V99.229c0-.2-.16-.36-.361-.36z"/><path fill="#FFFBE8" d="M234.219 97.366h-90.613c-1.03 0-1.864.834-1.864 1.863v222.542c0 1.029.834 1.863 1.864 1.863h90.613a1.864 1.864 0 0 0 1.864-1.863V99.229a1.864 1.864 0 0 0-1.864-1.863"/><path fill="#000" d="M234.219 325.137h-90.623a3.374 3.374 0 0 1-3.367-3.366V99.229a3.374 3.374 0 0 1 3.367-3.366h90.623a3.374 3.374 0 0 1 3.366 3.366v222.542a3.374 3.374 0 0 1-3.366 3.366M143.596 98.868a.36.36 0 0 0-.361.361v222.542c0 .2.16.361.361.361h90.623a.36.36 0 0 0 .361-.361V99.229a.36.36 0 0 0-.361-.36z"/><path fill="#FFFBE8" d="M203.203 159.598V138.41a4.237 4.237 0 0 0-4.237-4.238H29.85a4.24 4.24 0 0 0-4.237 4.238v21.188a4.24 4.24 0 0 0 4.237 4.238h169.116a4.237 4.237 0 0 0 4.237-4.238"/><path fill="#000" d="M198.966 165.338H29.85a5.746 5.746 0 0 1-5.74-5.74V138.41a5.747 5.747 0 0 1 5.74-5.741h169.116a5.747 5.747 0 0 1 5.74 5.741v21.188a5.746 5.746 0 0 1-5.74 5.74M29.85 135.675a2.73 2.73 0 0 0-2.735 2.735v21.188a2.73 2.73 0 0 0 2.735 2.735h169.116a2.73 2.73 0 0 0 2.735-2.735V138.41a2.73 2.73 0 0 0-2.735-2.735z"/><path fill="#FFFBE8" d="M202.843 249.811c0-8.255-7.183-14.837-15.639-13.835-6.06.721-11.13 5.57-12.061 11.601-.892 5.73 1.723 10.93 6.011 13.815l-5.641 18.563a1.407 1.407 0 0 0 1.343 1.814h24.093c.942 0 1.613-.912 1.343-1.814l-5.64-18.563c3.726-2.505 6.191-6.752 6.191-11.581"/><path fill="#000" d="M200.949 283.261h-24.093c-.932 0-1.783-.43-2.334-1.172a2.91 2.91 0 0 1-.451-2.574l5.329-17.532c-4.438-3.456-6.632-8.956-5.75-14.626 1.032-6.662 6.662-12.072 13.374-12.864 4.418-.521 8.836.852 12.132 3.787a15.45 15.45 0 0 1 5.189 11.541c0 4.779-2.204 9.247-5.94 12.172l5.329 17.532c.271.891.11 1.823-.451 2.574a2.86 2.86 0 0 1-2.334 1.172zm-23.953-3.005h23.823l-5.6-18.433c-.19-.631.05-1.313.601-1.683a12.42 12.42 0 0 0 5.52-10.329c0-3.546-1.523-6.943-4.178-9.297-2.694-2.394-6.161-3.476-9.777-3.045-5.4.641-9.918 4.989-10.75 10.338-.761 4.879 1.303 9.608 5.37 12.333.551.37.791 1.052.601 1.683l-5.6 18.433z"/><path fill="#FFFBE8" d="m202.291 279.955-5.64-18.563c3.727-2.505 6.191-6.752 6.191-11.581 0-6.492-4.448-11.932-10.448-13.474-5.23 1.372-9.397 5.83-10.239 11.25-.892 5.73 1.713 10.93 6.011 13.815l-5.64 18.563a1.407 1.407 0 0 0 1.342 1.814h17.081c.942 0 1.613-.912 1.342-1.814z"/><path fill="#000" d="M200.949 283.261h-17.081c-.932 0-1.783-.43-2.334-1.172a2.89 2.89 0 0 1-.441-2.574l5.33-17.532c-4.438-3.456-6.632-8.956-5.751-14.626.922-5.911 5.47-10.92 11.341-12.473.25-.07.511-.07.761 0a15.43 15.43 0 0 1 11.581 14.937c0 4.779-2.204 9.247-5.941 12.162l5.33 17.532c.271.891.11 1.823-.441 2.574a2.86 2.86 0 0 1-2.334 1.172zm-16.941-3.005h16.811l-5.6-18.433a1.5 1.5 0 0 1 .601-1.683 12.422 12.422 0 0 0-3.426-22.251c-4.539 1.353-8.035 5.29-8.756 9.918-.762 4.879 1.302 9.608 5.369 12.333.551.37.792 1.052.602 1.683z"/><path fill="#FFFBE8" d="M127.707 247.417H97.542v-1.924a1.39 1.39 0 0 0-1.392-1.392h-1.884a1.39 1.39 0 0 0-1.392 1.392v1.924H49.636v-1.924a1.39 1.39 0 0 0-1.393-1.392H46.36a1.39 1.39 0 0 0-1.392 1.392v1.924h-6.051c-1.583-9.908-10.86-17.262-21.49-15.649-8.204 1.263-14.796 8.075-15.778 16.35-1.322 11.39 7.544 21.078 18.714 21.078 9.377 0 17.131-6.882 18.554-15.839h6.05v1.924a1.39 1.39 0 0 0 1.393 1.392h1.883a1.39 1.39 0 0 0 1.393-1.392v-1.924h43.238v1.924a1.39 1.39 0 0 0 1.392 1.392h1.884a1.39 1.39 0 0 0 1.392-1.392v-1.924h5.4v19.285c0 .762.621 1.393 1.393 1.393h5.87c.762 0 1.393-.621 1.393-1.393v-9.247a1.39 1.39 0 0 1 1.392-1.392h2.435a1.39 1.39 0 0 1 1.392 1.392v9.247c0 .762.621 1.393 1.393 1.393h5.87c.762 0 1.393-.621 1.393-1.393v-19.285h2.274c.761 0 1.392-.631 1.392-1.392v-3.156c0-.761-.621-1.392-1.392-1.392zM20.353 263.295c-8.075 0-14.456-7.413-12.623-15.808 1.022-4.659 4.749-8.466 9.377-9.608 8.486-2.093 16.15 4.318 16.15 12.513 0 7.133-5.811 12.903-12.904 12.903"/><path fill="#000" d="M124.05 275.527h-5.87a2.897 2.897 0 0 1-2.896-2.895v-9.136h-2.203v9.136a2.897 2.897 0 0 1-2.896 2.895h-5.87a2.897 2.897 0 0 1-2.896-2.895V254.85h-2.394v.421a2.903 2.903 0 0 1-2.895 2.895h-1.883a2.903 2.903 0 0 1-2.896-2.895v-.421H51.12v.421a2.903 2.903 0 0 1-2.896 2.895H46.34a2.903 2.903 0 0 1-2.895-2.895v-.421h-3.306c-2.064 9.257-10.189 15.839-19.796 15.839-5.81 0-11.35-2.485-15.207-6.823-3.847-4.327-5.67-10.138-5-15.938 1.053-8.876 8.215-16.3 17.041-17.662 10.62-1.603 20.648 5.339 22.962 15.638h3.306v-.421a2.903 2.903 0 0 1 2.895-2.895h1.883a2.903 2.903 0 0 1 2.896 2.895v.421H91.35v-.421a2.903 2.903 0 0 1 2.895-2.895h1.884a2.903 2.903 0 0 1 2.895 2.895v.421h28.662a2.896 2.896 0 0 1 2.895 2.895v3.156a2.896 2.896 0 0 1-2.895 2.895h-.772v17.782a2.896 2.896 0 0 1-2.895 2.895zm-5.75-3.005h5.64v-19.165a1.5 1.5 0 0 1 1.503-1.502h2.154v-2.926H97.543a1.5 1.5 0 0 1-1.503-1.502v-1.814h-1.663v1.814a1.5 1.5 0 0 1-1.503 1.502H49.636a1.5 1.5 0 0 1-1.503-1.502v-1.814H46.47v1.814a1.5 1.5 0 0 1-1.502 1.502h-6.051a1.5 1.5 0 0 1-1.483-1.262c-1.493-9.367-10.369-15.828-19.786-14.406-7.513 1.152-13.614 7.484-14.506 15.037-.581 5.019.932 9.848 4.258 13.585a17.36 17.36 0 0 0 12.963 5.81c8.556 0 15.729-6.131 17.071-14.576a1.506 1.506 0 0 1 1.483-1.272h6.05a1.5 1.5 0 0 1 1.503 1.502v1.814h1.663v-1.814a1.5 1.5 0 0 1 1.503-1.502h43.238a1.5 1.5 0 0 1 1.503 1.502v1.814h1.663v-1.814a1.5 1.5 0 0 1 1.502-1.502h5.4a1.5 1.5 0 0 1 1.503 1.502v19.165h5.64v-9.137a2.897 2.897 0 0 1 2.895-2.895h2.435a2.897 2.897 0 0 1 2.895 2.895v9.137zm-97.947-7.724a14.36 14.36 0 0 1-11.26-5.4c-2.745-3.416-3.777-7.874-2.825-12.232 1.142-5.239 5.26-9.457 10.489-10.739 4.418-1.092 8.966-.13 12.482 2.625a14.33 14.33 0 0 1 5.53 11.34c0 7.944-6.461 14.406-14.406 14.406zm-.02-25.817c-.952 0-1.913.121-2.865.351-4.057 1.002-7.383 4.398-8.265 8.465-.761 3.467.05 7.013 2.234 9.708a11.41 11.41 0 0 0 8.926 4.278c6.291 0 11.4-5.12 11.4-11.401 0-3.526-1.592-6.792-4.377-8.976a11.35 11.35 0 0 0-7.043-2.425z"/></svg>