<svg xmlns="http://www.w3.org/2000/svg" width="263" height="345" fill="none" viewBox="0 0 263 345"><path fill="#FFFBE8" d="M238.699 4.793a14.5 14.5 0 0 0-9.196-3.302H32.692c-3.352 0-6.605 1.17-9.196 3.302L6.394 21.444a16.2 16.2 0 0 0-4.893 11.588v299.74c0 5.924 4.803 10.727 10.727 10.727h237.729c5.924 0 10.727-4.803 10.727-10.727V33.032c0-4.363-1.761-8.546-4.893-11.588l-17.102-16.65z"/><path fill="#000" d="M249.957 345H12.228C5.484 345 0 339.516 0 332.772V33.032c0-4.743 1.951-9.356 5.344-12.658L22.445 3.722s.06-.06.09-.08A16 16 0 0 1 32.692 0h196.811a16 16 0 0 1 10.157 3.642c.03.03.06.05.09.08l17.101 16.652a17.78 17.78 0 0 1 5.344 12.658v299.74c0 6.744-5.484 12.228-12.228 12.228zM24.497 5.914 7.444 22.515a14.73 14.73 0 0 0-4.433 10.507v299.74c0 5.093 4.143 9.226 9.226 9.226h237.729c5.093 0 9.226-4.143 9.226-9.226V33.032c0-3.933-1.621-7.765-4.433-10.507L237.708 5.924a13.03 13.03 0 0 0-8.195-2.922H32.702c-2.982 0-5.894 1.04-8.196 2.922z"/><path fill="#000" d="M260.694 120.3H1.511a1.5 1.5 0 0 1-1.501-1.501 1.5 1.5 0 0 1 1.501-1.501h259.183a1.5 1.5 0 0 1 1.501 1.501 1.5 1.5 0 0 1-1.501 1.501"/><path fill="#000" d="M259.693 31.24H2.512c-.83 0-1.501-.67-1.501-1.5s.67-1.501 1.5-1.501h257.182c.831 0 1.501.67 1.501 1.5a1.5 1.5 0 0 1-1.501 1.502"/><path fill="#000" d="M64.593 69.346c0-1.4.84-2.341 2.151-2.341s2.142.93 2.142 2.341v1.251h2.171v1.38h-6.464zm3.142 1.251v-1.12c0-.651-.38-1.061-.99-1.061s-1.001.42-1.001 1.06v1.121z"/><path fill="#000" d="M71.117 63.282c0 1.901-1.4 3.202-3.292 3.202s-3.292-1.3-3.292-3.202 1.4-3.202 3.292-3.202 3.292 1.301 3.292 3.202m-1.18 0c0-1.08-.901-1.781-2.112-1.781-1.21 0-2.111.7-2.111 1.781s.9 1.791 2.111 1.791 2.112-.7 2.112-1.79"/><path fill="#000" d="m64.583 58.529 4.733-1.19-4.723-1.262v-1.25l4.723-1.231-4.723-1.221v-1.401l6.464 1.791v1.601l-4.293 1.12 4.293 1.092v1.6l-6.464 1.792v-1.431z"/><path fill="#000" d="M64.593 45.98h1.19v2.953h1.452V46.53h1.14v2.402h1.502V45.87h1.19v4.442h-6.464V45.97z"/><path fill="#000" d="M64.593 42.418c0-1.42.84-2.371 2.151-2.371.831 0 1.502.43 1.822 1.11l2.491-1.27v1.53l-2.171 1.081v1.171h2.171v1.381h-6.464zm3.142 1.251v-1.14c0-.661-.39-1.071-.99-1.071s-1.001.42-1.001 1.07v1.141z"/><path fill="#000" d="M94.063 93.022c0-1.5.62-2.362 1.7-2.362.811 0 1.302.48 1.452 1.271.12-.91.57-1.5 1.5-1.5 1.122 0 1.822.89 1.822 2.471v2.582h-6.464v-2.462zm2.662 1.07v-1.11c0-.59-.3-.94-.781-.94-.48 0-.78.34-.78.94v1.11h1.57zm2.711 0v-1.2c0-.67-.3-1.04-.8-1.04-.53 0-.83.39-.83 1.04v1.2z"/><path fill="#000" d="M94.063 86.878c0-1.421.84-2.372 2.151-2.372.83 0 1.501.43 1.821 1.111l2.492-1.27v1.53l-2.171 1.081v1.17h2.171v1.382h-6.464zm3.142 1.25v-1.14c0-.66-.39-1.07-.99-1.07-.601 0-1.002.42-1.002 1.07v1.14z"/><path fill="#000" d="M100.587 80.724c0 1.901-1.4 3.202-3.292 3.202s-3.292-1.3-3.292-3.202 1.4-3.202 3.292-3.202 3.292 1.3 3.292 3.202m-1.17 0c0-1.08-.901-1.781-2.112-1.781s-2.112.7-2.112 1.78c0 1.082.901 1.792 2.112 1.792 1.21 0 2.111-.7 2.111-1.791"/><path fill="#000" d="M94.063 75.1v-1.66l6.464-2.342v1.491l-1.41.5v2.462l1.41.5v1.432l-6.464-2.362zm3.942-1.641-2.461.86 2.461.851z"/><path fill="#000" d="M94.063 70.497v-2.241c0-1.982 1.34-3.263 3.232-3.263 1.891 0 3.232 1.281 3.232 3.263v2.241zm5.313-2.241c0-1.201-.85-1.852-2.081-1.852s-2.082.65-2.082 1.852v.86h4.153v-.86z"/><path fill="#000" d="M94.063 61.681c0-1.5.62-2.361 1.7-2.361.811 0 1.302.48 1.452 1.27.12-.91.57-1.5 1.5-1.5 1.122 0 1.822.89 1.822 2.471v2.582h-6.464V61.68zm2.662 1.08v-1.11c0-.59-.3-.94-.781-.94-.48 0-.78.34-.78.94v1.11h1.57zm2.711 0v-1.2c0-.67-.3-1.04-.8-1.04-.53 0-.83.39-.83 1.04v1.2z"/><path fill="#000" d="M94.063 56.548v-1.661l6.464-2.342v1.491l-1.41.5v2.462l1.41.5v1.431l-6.464-2.361zm3.942-1.641-2.461.86 2.461.85z"/><path fill="#000" d="M94.063 51.945v-1.261l4.072-2.742h-4.072v-1.37h6.464v1.26l-4.073 2.742h4.073v1.36h-6.464z"/><path fill="#000" d="M94.063 45.47v-2.24c0-1.981 1.34-3.262 3.232-3.262 1.891 0 3.232 1.28 3.232 3.262v2.241zm5.313-2.241c0-1.2-.85-1.851-2.081-1.851s-2.082.65-2.082 1.85v.861h4.153v-.86z"/><path fill="#000" d="M127.905 75.1c.631-.05 1.061-.54 1.061-1.34 0-.641-.28-1.112-.78-1.112-.541 0-.661.53-.871 1.612-.2 1.09-.55 2.05-1.861 2.05-1.141 0-1.962-1.01-1.962-2.41 0-1.402.861-2.482 2.032-2.512v1.36c-.541.06-.921.48-.921 1.151 0 .59.25 1.021.751 1.021.53 0 .64-.51.84-1.581.2-1.11.541-2.091 1.842-2.082 1.18 0 2.041 1.071 2.041 2.522 0 1.571-.921 2.662-2.182 2.682l.02-1.36z"/><path fill="#000" d="M123.543 66.084h1.19v2.952h1.451v-2.401h1.141v2.401h1.501v-3.062h1.191v4.443h-6.464v-4.343z"/><path fill="#000" d="M123.543 62.522c0-1.421.84-2.372 2.151-2.372.831 0 1.501.43 1.821 1.11l2.492-1.27v1.531l-2.172 1.08v1.172h2.172v1.38h-6.464zm3.142 1.24v-1.14c0-.66-.391-1.07-.991-1.07s-1.001.42-1.001 1.07v1.14z"/><path fill="#000" d="m123.543 58.499 4.783-1.551-4.783-1.591v-1.431l6.464 2.191v1.652l-6.464 2.201z"/><path fill="#000" d="M123.543 51.985h6.464v1.38h-6.464z"/><path fill="#000" d="M123.482 47.972c0-1.531.961-2.612 2.362-2.772v1.381c-.72.16-1.191.68-1.191 1.461 0 1.05.871 1.681 2.112 1.681 1.24 0 2.111-.63 2.111-1.68 0-.782-.47-1.302-1.191-1.462v-1.38c1.401.16 2.362 1.24 2.362 2.771 0 1.961-1.301 3.172-3.292 3.172-1.992 0-3.293-1.21-3.293-3.172z"/><path fill="#000" d="M123.543 40.047h1.19v2.952h1.451v-2.402h1.141V43h1.501v-3.062h1.191v4.443h-6.464v-4.343z"/><path fill="#000" d="M153.022 80.284h1.191v2.951h1.451v-2.401h1.14v2.401h1.501v-3.062h1.191v4.443h-6.464v-4.343z"/><path fill="#000" d="M153.022 74.69h1.191v1.871h5.273v1.381h-5.273v1.871h-1.191z"/><path fill="#000" d="M153.022 72.548h2.592v-2.571h-2.592v-1.381h6.464v1.38h-2.672v2.572h2.672v1.381h-6.464z"/><path fill="#000" d="M153.022 63.142h1.191v2.952h1.451v-2.401h1.14v2.401h1.501v-3.062h1.191v4.443h-6.464v-4.343z"/><path fill="#000" d="M153.022 59.58c0-1.421.84-2.372 2.151-2.372.831 0 1.501.43 1.822 1.11l2.491-1.27v1.531l-2.171 1.08v1.172h2.171v1.38h-6.464zm3.132 1.24v-1.14c0-.66-.39-1.07-.991-1.07-.6 0-1 .42-1 1.07v1.14z"/><path fill="#000" d="M153.022 56.278v-1.261l4.073-2.742h-4.073v-1.371h6.464v1.26l-4.072 2.743h4.072v1.36h-6.464z"/><path fill="#000" d="M153.022 45.47h1.191v2.952h1.451v-2.401h1.14v2.401h1.501V45.36h1.191v4.443h-6.464V45.46z"/><path fill="#000" d="M153.022 39.877h1.191v1.87h5.273v1.382h-5.273v1.861h-1.191z"/></svg>