<svg xmlns="http://www.w3.org/2000/svg" width="391" height="325" fill="none" viewBox="0 0 391 325"><path fill="#FFFBE8" d="M141.512 59.674h173.567v-24.91H141.512"/><path fill="#000" d="M315.079 61.177H141.512a1.5 1.5 0 0 1-1.503-1.503c0-.831.672-1.503 1.503-1.503h172.064V36.268H141.512a1.5 1.5 0 0 1-1.503-1.503c0-.832.672-1.503 1.503-1.503h173.567c.831 0 1.503.671 1.503 1.503v24.91c0 .831-.672 1.502-1.503 1.502"/><path fill="#FFFBE8" d="M389.497 31.909V19.885a4.943 4.943 0 0 0-4.94-4.94h-45.992L307.844 1.508V13.15l31.012 13.597V67.25"/><path fill="#000" d="M338.866 68.752a1.5 1.5 0 0 1-1.503-1.503V27.73l-30.11-13.206a1.5 1.5 0 0 1-.902-1.373V1.508c0-.511.261-.982.681-1.263s.962-.32 1.423-.12l30.431 13.307h45.671A6.45 6.45 0 0 1 391 19.875v12.024a1.5 1.5 0 0 1-1.503 1.503 1.5 1.5 0 0 1-1.503-1.503V19.875a3.44 3.44 0 0 0-3.437-3.437h-45.992c-.21 0-.41-.04-.601-.13L309.357 3.793v8.366l30.11 13.207a1.5 1.5 0 0 1 .902 1.372V67.24a1.5 1.5 0 0 1-1.503 1.503z"/><path fill="#F4EEDF" d="M385.299 67.76h-70.711a4.204 4.204 0 0 1-4.199-4.199V30.646a4.204 4.204 0 0 1 4.199-4.199h70.711a4.204 4.204 0 0 1 4.198 4.199V63.56a4.204 4.204 0 0 1-4.198 4.199"/><path fill="#000" d="M385.299 69.263h-70.711a5.705 5.705 0 0 1-5.702-5.702V30.646a5.705 5.705 0 0 1 5.702-5.702h70.711A5.704 5.704 0 0 1 391 30.646V63.56a5.704 5.704 0 0 1-5.701 5.702M314.588 27.95a2.703 2.703 0 0 0-2.696 2.696V63.56a2.703 2.703 0 0 0 2.696 2.696h70.711a2.7 2.7 0 0 0 2.695-2.696V30.646a2.7 2.7 0 0 0-2.695-2.696z"/><path fill="#FFFBE8" d="M388.094 39.494h-22.875v15.22h22.875"/><path fill="#000" d="M388.094 56.218h-22.875a1.5 1.5 0 0 1-1.503-1.504v-15.23a1.5 1.5 0 0 1 1.503-1.503h22.875a1.5 1.5 0 0 1 1.503 1.503 1.5 1.5 0 0 1-1.503 1.503h-21.372v12.224h21.372a1.5 1.5 0 0 1 1.503 1.504 1.5 1.5 0 0 1-1.503 1.502"/><path fill="#FFFBE8" d="M141.512 35.156c-77.324 0-140.009 62.685-140.009 140.01s62.685 140.009 140.009 140.009c77.325 0 140.01-62.685 140.01-140.009 0-77.325-62.685-140.01-140.01-140.01m0 255.119c-63.567 0-115.1-51.533-115.1-115.099s51.534-115.1 115.1-115.1c63.567 0 115.1 51.533 115.1 115.1s-51.533 115.099-115.1 115.099"/><path fill="#000" d="M141.512 316.688C63.477 316.688 0 253.201 0 175.175 0 97.15 63.487 33.663 141.512 33.663S283.025 97.15 283.025 175.175s-63.487 141.513-141.513 141.513m0-280.03C65.14 36.659 3.006 98.794 3.006 175.166S65.14 313.672 141.512 313.672c76.373 0 138.507-62.134 138.507-138.507 0-76.372-62.134-138.506-138.507-138.506m0 255.12c-64.298 0-116.602-52.304-116.602-116.603S77.214 58.573 141.512 58.573c64.299 0 116.603 52.304 116.603 116.602 0 64.299-52.304 116.603-116.603 116.603m0-230.21c-62.635 0-113.596 50.962-113.596 113.597s50.961 113.597 113.596 113.597S255.109 237.8 255.109 175.165 204.147 61.569 141.512 61.569"/><path fill="#FFFBE8" d="M141.512 60.065c-63.567 0-115.1 51.533-115.1 115.1s51.533 115.1 115.1 115.1 115.1-51.533 115.1-115.1-51.533-115.1-115.1-115.1m0 201.743c-47.845 0-86.633-38.788-86.633-86.633s38.788-86.633 86.633-86.633 86.633 38.787 86.633 86.633-38.787 86.633-86.633 86.633"/><path fill="#000" d="M141.512 291.777c-64.298 0-116.602-52.304-116.602-116.602 0-64.299 52.304-116.603 116.602-116.603 64.299 0 116.603 52.304 116.603 116.603s-52.304 116.602-116.603 116.602m0-230.21c-62.635 0-113.596 50.963-113.596 113.598s50.961 113.596 113.596 113.596S255.109 237.8 255.109 175.165 204.147 61.568 141.512 61.568m0 201.744c-48.597 0-88.136-39.539-88.136-88.136s39.54-88.136 88.136-88.136c48.597 0 88.136 39.539 88.136 88.136s-39.539 88.136-88.136 88.136m0-173.266c-46.943 0-85.13 38.186-85.13 85.13s38.187 85.13 85.13 85.13c46.944 0 85.13-38.187 85.13-85.13 0-46.944-38.186-85.13-85.13-85.13"/><path fill="#FFFBE8" d="M141.512 315.184h173.567v-24.909H141.512"/><path fill="#000" d="M315.079 316.687H141.512a1.5 1.5 0 0 1-1.503-1.503c0-.831.672-1.503 1.503-1.503h172.064v-21.903H141.512a1.5 1.5 0 0 1-1.503-1.503c0-.832.672-1.503 1.503-1.503h173.567c.831 0 1.503.671 1.503 1.503v24.909c0 .832-.672 1.503-1.503 1.503"/><path fill="#FFFBE8" d="M389.497 287.418v-12.024a4.943 4.943 0 0 0-4.94-4.939h-45.992l-30.721-13.437v11.643l31.012 13.597v40.501"/><path fill="#000" d="M338.866 324.262a1.5 1.5 0 0 1-1.503-1.503V283.24l-30.11-13.206a1.5 1.5 0 0 1-.902-1.373v-11.643a1.502 1.502 0 0 1 2.104-1.383l30.431 13.307h45.671a6.45 6.45 0 0 1 6.443 6.443v12.024c0 .831-.671 1.503-1.503 1.503a1.5 1.5 0 0 1-1.503-1.503v-12.024a3.44 3.44 0 0 0-3.437-3.437h-45.992c-.21 0-.41-.04-.601-.131l-28.607-12.515v8.367l30.11 13.207c.551.24.902.781.902 1.372v40.501a1.5 1.5 0 0 1-1.503 1.503z"/><path fill="#F4EEDF" d="M385.299 323.27h-70.711a4.204 4.204 0 0 1-4.199-4.199v-32.915a4.204 4.204 0 0 1 4.199-4.199h70.711a4.204 4.204 0 0 1 4.198 4.199v32.915a4.204 4.204 0 0 1-4.198 4.199"/><path fill="#000" d="M385.299 324.773h-70.711a5.705 5.705 0 0 1-5.702-5.702v-32.915a5.705 5.705 0 0 1 5.702-5.702h70.711a5.705 5.705 0 0 1 5.701 5.702v32.915a5.705 5.705 0 0 1-5.701 5.702m-70.711-41.313a2.704 2.704 0 0 0-2.696 2.696v32.915a2.704 2.704 0 0 0 2.696 2.696h70.711a2.703 2.703 0 0 0 2.695-2.696v-32.915a2.703 2.703 0 0 0-2.695-2.696z"/><path fill="#FFFBE8" d="M388.094 295.004h-22.875v15.22h22.875"/><path fill="#000" d="M388.094 311.727h-22.875a1.5 1.5 0 0 1-1.503-1.503v-15.23a1.5 1.5 0 0 1 1.503-1.503h22.875a1.5 1.5 0 0 1 1.503 1.503 1.5 1.5 0 0 1-1.503 1.503h-21.372v12.224h21.372c.832 0 1.503.672 1.503 1.503a1.5 1.5 0 0 1-1.503 1.503"/></svg>