<svg xmlns="http://www.w3.org/2000/svg" width="325" height="467" fill="none" viewBox="0 0 325 467"><path fill="#EBEBEB" d="M202.247 466.916c-.831 0-1.501-.67-1.501-1.501V1.501A1.5 1.5 0 0 1 202.247 0a1.5 1.5 0 0 1 1.501 1.501v463.904a1.5 1.5 0 0 1-1.501 1.501z"/><path fill="#EBEBEB" d="M229.005 466.916c-.831 0-1.501-.67-1.501-1.501V1.501A1.5 1.5 0 0 1 229.005 0a1.5 1.5 0 0 1 1.501 1.501v463.904a1.5 1.5 0 0 1-1.501 1.501z"/><path fill="#191917" d="M294.139 169.714h-65.134v127.497h65.134z"/><path fill="#EBEBEB" d="M294.139 298.702h-65.134c-.831 0-1.501-.67-1.501-1.501V169.705c0-.831.67-1.501 1.501-1.501h65.134a1.5 1.5 0 0 1 1.501 1.501v127.496a1.5 1.5 0 0 1-1.501 1.501m-63.633-3.002h62.132V171.206h-62.132z"/><path fill="#191917" d="M252.621 184.875h-18.553a.4.4 0 0 0-.4.4v96.375a.4.4 0 0 0 .4.4h18.553a.4.4 0 0 0 .4-.4v-96.375a.4.4 0 0 0-.4-.4"/><path fill="#EBEBEB" d="M252.631 283.542h-18.563a1.9 1.9 0 0 1-1.901-1.902v-96.375a1.9 1.9 0 0 1 1.901-1.901h18.563a1.9 1.9 0 0 1 1.901 1.901v96.375a1.9 1.9 0 0 1-1.901 1.902m-17.462-3.002h16.351v-94.174h-16.351z"/><path fill="#191917" d="M323.499 297.201h-65.134V169.714h65.134"/><path fill="#EBEBEB" d="M323.499 298.702h-65.134c-.831 0-1.501-.67-1.501-1.501V169.705c0-.831.67-1.501 1.501-1.501h65.134a1.5 1.5 0 0 1 1.501 1.501 1.5 1.5 0 0 1-1.501 1.501h-63.633V295.7h63.633a1.5 1.5 0 0 1 1.501 1.501 1.5 1.5 0 0 1-1.501 1.501"/><path fill="#191917" d="M9.236 169.714h170.235v127.497H9.236a7.735 7.735 0 0 1-7.735-7.735V177.46a7.735 7.735 0 0 1 7.735-7.736z"/><path fill="#EBEBEB" d="M179.471 298.702H9.236c-5.093 0-9.236-4.143-9.236-9.236V177.45c0-5.094 4.143-9.237 9.236-9.237h170.235a1.5 1.5 0 0 1 1.501 1.501v127.497a1.5 1.5 0 0 1-1.501 1.501zM9.236 171.215a6.24 6.24 0 0 0-6.234 6.235v112.016a6.24 6.24 0 0 0 6.234 6.234H177.97V171.205H9.236z"/><path fill="#191917" d="M38.596 169.714H208.43c.22 0 .4.181.4.401V296.81c0 .221-.18.401-.4.401H38.596a7.735 7.735 0 0 1-7.735-7.735V177.46a7.735 7.735 0 0 1 7.735-7.736z"/><path fill="#EBEBEB" d="M208.431 298.702H38.596c-5.093 0-9.236-4.143-9.236-9.236V177.45c0-5.094 4.142-9.237 9.236-9.237H208.43a1.9 1.9 0 0 1 1.901 1.902V296.81a1.9 1.9 0 0 1-1.901 1.902zM38.596 171.215a6.24 6.24 0 0 0-6.234 6.235v112.016a6.24 6.24 0 0 0 6.234 6.234H207.33V171.205H38.596z"/><path fill="#191917" d="M155.615 268.942c19.597 0 35.484-15.887 35.484-35.484s-15.887-35.484-35.484-35.484-35.484 15.887-35.484 35.484 15.887 35.484 35.484 35.484"/><path fill="#EBEBEB" d="M155.615 270.443c-20.394 0-36.985-16.591-36.985-36.985s16.591-36.985 36.985-36.985 36.985 16.591 36.985 36.985-16.591 36.985-36.985 36.985m0-70.968c-18.743 0-33.983 15.24-33.983 33.983s15.24 33.983 33.983 33.983 33.983-15.24 33.983-33.983-15.24-33.983-33.983-33.983"/><path fill="#191917" d="M155.615 260.697c6.853 0 12.409-5.556 12.409-12.409s-5.556-12.408-12.409-12.408-12.408 5.555-12.408 12.408 5.555 12.409 12.408 12.409"/><path fill="#EBEBEB" d="M155.615 262.207c-7.675 0-13.909-6.244-13.909-13.909s6.244-13.909 13.909-13.909 13.91 6.244 13.91 13.909-6.245 13.909-13.91 13.909m0-24.826c-6.014 0-10.907 4.893-10.907 10.907s4.893 10.907 10.907 10.907 10.908-4.893 10.908-10.907-4.894-10.907-10.908-10.907"/><path fill="#EBEBEB" d="M155.615 256.413a1.5 1.5 0 0 1-1.501-1.501v-13.239a1.5 1.5 0 0 1 1.501-1.501 1.5 1.5 0 0 1 1.501 1.501v13.239c0 .831-.67 1.501-1.501 1.501"/><path fill="#191917" d="M249.399 192.901h-40.167a.4.4 0 0 0-.401.4v80.314c0 .221.18.4.401.4h40.167a.4.4 0 0 0 .4-.4v-80.314a.4.4 0 0 0-.4-.4"/><path fill="#EBEBEB" d="M249.389 275.516h-40.167a1.9 1.9 0 0 1-1.902-1.901v-80.314a1.9 1.9 0 0 1 1.902-1.901h40.167a1.9 1.9 0 0 1 1.901 1.901v80.314a1.9 1.9 0 0 1-1.901 1.901m-39.057-3.002h37.966v-78.112h-37.966z"/><path fill="#191917" d="M70.768 280.7c10.893 0 19.723-21.151 19.723-47.242s-8.83-47.242-19.723-47.242-19.723 21.151-19.723 47.242 8.83 47.242 19.723 47.242"/><path fill="#EBEBEB" d="M70.768 282.201c-11.898 0-21.224-21.415-21.224-48.743s9.326-48.743 21.224-48.743 21.224 21.414 21.224 48.743c0 27.328-9.326 48.743-21.224 48.743m0-94.484c-9.877 0-18.222 20.944-18.222 45.741s8.345 45.741 18.222 45.741 18.222-20.944 18.222-45.741-8.345-45.741-18.222-45.741"/><path fill="#191917" d="M257.034 326.051c-8.846-4.573-19.263-2.672-25.938 3.902-.36.361-.91.461-1.361.231l-47.041-23.466a1.2 1.2 0 0 0-.931-.06l-7.435 2.501a.81.81 0 0 0-.51 1.021l3.262 9.767c.13.39.56.6.95.45l6.135-2.302c.4-.15.84.07.96.481l1.892 6.404c.12.41.56.63.96.48l6.244-2.341c.401-.15.841.07.961.48l1.881 6.394c.12.411.561.631.961.481l6.254-2.342c.401-.15.841.07.961.48l1.891 6.405c.12.41.561.63.961.48l6.254-2.341c.4-.151.841.07.961.48l1.811 6.144c.34.781.2 1.301.1 1.541l-.08.16-1.081 2.162c-.21.41-.04.91.37 1.12l.751.371 1.291.65 3.342 1.671c1.711.851 2.942 2.412 3.442 4.263 1.612 5.934 5.634 11.148 11.558 14.1 11.218 5.593 24.877.88 30.211-10.577 4.933-10.648.46-23.757-9.947-29.17zm-1.051 29.32c-2.822-.791-4.113-3.853-2.872-6.345a4.51 4.51 0 0 1 6.034-2.021c2.482 1.241 3.293 4.473 1.521 6.795-1.07 1.4-2.982 2.041-4.683 1.561z"/><path fill="#EBEBEB" d="M246.717 369.66c-3.643 0-7.255-.851-10.617-2.522a23.76 23.76 0 0 1-12.329-15.05c-.4-1.461-1.361-2.672-2.661-3.312l-5.384-2.692a2.343 2.343 0 0 1-1.051-3.132l1.141-2.292s-.02-.07-.11-.29c-.03-.06-.05-.12-.07-.18l-1.581-5.354-5.474 2.052c-.58.22-1.231.18-1.781-.09a2.23 2.23 0 0 1-1.141-1.361l-1.651-5.604-5.474 2.051a2.24 2.24 0 0 1-1.781-.09c-.55-.28-.971-.77-1.141-1.36l-1.651-5.604-5.474 2.051c-.58.22-1.23.18-1.781-.09-.55-.28-.97-.77-1.141-1.361l-1.651-5.604-5.353 2.012c-.561.21-1.201.18-1.741-.07a2.28 2.28 0 0 1-1.161-1.311l-3.262-9.767a2.317 2.317 0 0 1 1.451-2.922l7.435-2.502c.68-.23 1.441-.18 2.081.141l46.832 23.365a23.78 23.78 0 0 1 27.528-4.022c11.128 5.784 15.891 19.753 10.617 31.131-2.741 5.894-7.625 10.317-13.749 12.458a23.9 23.9 0 0 1-7.885 1.351zm-29.06-25.957 4.793 2.391c2.062 1.031 3.593 2.932 4.213 5.214a20.8 20.8 0 0 0 10.778 13.149c5.073 2.531 10.817 2.892 16.17 1.03 5.354-1.871 9.617-5.734 12.019-10.887 4.603-9.947.44-22.145-9.287-27.209a20.79 20.79 0 0 0-24.196 3.643 2.7 2.7 0 0 1-3.092.51l-46.942-23.416-6.664 2.242 2.792 8.356 5.383-2.022a2.25 2.25 0 0 1 1.781.09c.551.27.971.771 1.141 1.361l1.651 5.604 5.474-2.051a2.22 2.22 0 0 1 2.922 1.461l1.651 5.603 5.474-2.051c.58-.22 1.231-.18 1.781.09.55.28.971.771 1.141 1.361l1.651 5.604 5.474-2.052c.58-.22 1.23-.18 1.781.09.55.281.97.771 1.141 1.361l1.791 6.064c.51 1.241.26 2.192.05 2.662l-.891 1.781zm39.477 13.329a6 6 0 0 1-1.561-.211 6.04 6.04 0 0 1-3.923-3.372 5.98 5.98 0 0 1 .11-5.093c1.481-2.962 5.094-4.173 8.056-2.692a5.93 5.93 0 0 1 3.152 4.003c.41 1.761 0 3.602-1.111 5.053a5.97 5.97 0 0 1-4.713 2.312zm-.751-3.103c1.101.311 2.392-.13 3.082-1.03.571-.751.781-1.661.571-2.552a2.95 2.95 0 0 0-1.571-1.991 3 3 0 0 0-4.023 1.341c-.4.79-.42 1.721-.06 2.531.37.841 1.081 1.441 1.991 1.691z"/></svg>