<svg xmlns="http://www.w3.org/2000/svg" width="398" height="390" fill="none" viewBox="0 0 398 390"><path fill="#191917" d="M359.203 202.283H248.167c-11.477 0-20.78 9.303-20.78 20.78v135.309c0 11.476 9.303 20.78 20.78 20.78h111.036c11.476 0 20.78-9.304 20.78-20.78V223.063c0-11.477-9.304-20.78-20.78-20.78"/><path fill="#EBEBEB" d="M359.203 380.653H248.167c-12.282 0-22.281-9.999-22.281-22.281V223.063c0-12.282 9.999-22.282 22.281-22.282h111.036c12.282 0 22.281 10 22.281 22.282v135.309c0 12.282-9.999 22.281-22.281 22.281M248.167 203.784c-10.63 0-19.279 8.649-19.279 19.279v135.309c0 10.63 8.649 19.278 19.279 19.278h111.036c10.63 0 19.278-8.648 19.278-19.278V223.063c0-10.63-8.648-19.279-19.278-19.279z"/><path fill="#191917" d="M154.377 111.636H25.614c-13.311 0-24.103 10.792-24.103 24.103v219.31c0 13.311 10.792 24.103 24.104 24.103h128.762c13.312 0 24.103-10.792 24.103-24.103v-219.31c0-13.311-10.791-24.103-24.103-24.103"/><path fill="#EBEBEB" d="M154.377 380.653H25.604C11.491 380.653 0 369.172 0 355.049V135.73c0-14.114 11.481-25.605 25.604-25.605h128.773c14.114 0 25.605 11.481 25.605 25.605v219.319c0 14.113-11.481 25.604-25.605 25.604M25.604 113.138c-12.461 0-22.601 10.14-22.601 22.602v219.319c0 12.462 10.14 22.601 22.601 22.601h128.773c12.462 0 22.602-10.139 22.602-22.601V135.74c0-12.462-10.14-22.602-22.602-22.602z"/><path fill="#191917" d="M154.377 120.645H25.614c-13.311 0-24.103 10.791-24.103 24.103v219.309c0 13.312 10.792 24.103 24.104 24.103h128.762c13.312 0 24.103-10.791 24.103-24.103V144.748c0-13.312-10.791-24.103-24.103-24.103"/><path fill="#EBEBEB" d="M154.377 389.662H25.604C11.491 389.662 0 378.181 0 364.058v-219.32c0-14.113 11.481-25.604 25.604-25.604h128.773c14.114 0 25.605 11.481 25.605 25.604v219.32c0 14.113-11.481 25.604-25.605 25.604M25.604 122.147c-12.461 0-22.601 10.139-22.601 22.601v219.32c0 12.461 10.14 22.601 22.601 22.601h128.773c12.462 0 22.602-10.14 22.602-22.601v-219.32c0-12.462-10.14-22.601-22.602-22.601z"/><path fill="#191917" d="M154.377 120.645H25.614c-13.311 0-24.103 10.791-24.103 24.103v219.309c0 13.312 10.792 24.103 24.104 24.103h128.762c13.312 0 24.103-10.791 24.103-24.103V144.748c0-13.312-10.791-24.103-24.103-24.103"/><path fill="#EBEBEB" d="M154.377 389.662H25.604C11.491 389.662 0 378.181 0 364.058v-219.32c0-14.113 11.481-25.604 25.604-25.604h128.773c14.114 0 25.605 11.481 25.605 25.604v219.32c0 14.113-11.481 25.604-25.605 25.604M25.604 122.147c-12.461 0-22.601 10.139-22.601 22.601v219.32c0 12.461 10.14 22.601 22.601 22.601h128.773c12.462 0 22.602-10.14 22.602-22.601v-219.32c0-12.462-10.14-22.601-22.602-22.601z"/><path fill="#191917" d="M142.396 212.362H37.606c-10.83 0-19.609 8.779-19.609 19.609v109.995c0 10.83 8.78 19.609 19.609 19.609h104.79c10.83 0 19.609-8.779 19.609-19.609V231.971c0-10.83-8.779-19.609-19.609-19.609"/><path fill="#EBEBEB" d="M142.386 363.076H37.606c-11.641 0-21.11-9.469-21.11-21.11V231.971c0-11.641 9.469-21.11 21.11-21.11h104.78c11.641 0 21.11 9.469 21.11 21.11v109.995c0 11.641-9.469 21.11-21.11 21.11M37.606 213.864c-9.99 0-18.107 8.128-18.107 18.107v109.995c0 9.99 8.127 18.107 18.107 18.107h104.78c9.989 0 18.107-8.127 18.107-18.107V231.971c0-9.989-8.128-18.107-18.107-18.107z"/><path fill="#191917" d="M359.203 211.292H248.167c-11.477 0-20.78 9.303-20.78 20.779v135.31c0 11.476 9.303 20.779 20.78 20.779h111.036c11.476 0 20.78-9.303 20.78-20.779v-135.31c0-11.476-9.304-20.779-20.78-20.779"/><path fill="#EBEBEB" d="M359.203 389.662H248.167c-12.282 0-22.281-10-22.281-22.281v-135.31c0-12.281 9.999-22.281 22.281-22.281h111.036c12.282 0 22.281 10 22.281 22.281v135.31c0 12.281-9.999 22.281-22.281 22.281M248.167 212.793c-10.63 0-19.279 8.648-19.279 19.278v135.31c0 10.63 8.649 19.278 19.279 19.278h111.036c10.63 0 19.278-8.648 19.278-19.278v-135.31c0-10.63-8.648-19.278-19.278-19.278z"/><path fill="#191917" d="M375.709 275.653h-28.628v-20.86c0-9.579-7.837-17.427-17.426-17.427h-51.94c-9.579 0-17.426 7.838-17.426 17.427v20.86h-28.638c-11.431 0-20.78 9.349-20.78 20.78v61.949c0 11.431 9.349 20.78 20.78 20.78h144.048c11.431 0 20.78-9.349 20.78-20.78v-61.949c0-11.431-9.349-20.78-20.78-20.78z"/><path fill="#EBEBEB" d="M375.709 380.653H231.661c-12.281 0-22.281-9.999-22.281-22.281v-61.949c0-12.282 10-22.281 22.281-22.281h27.136v-19.359c0-10.44 8.488-18.928 18.928-18.928h51.94c10.43 0 18.928 8.488 18.928 18.928v19.359h27.126c12.282 0 22.281 9.999 22.281 22.281v61.949c0 12.282-9.999 22.281-22.281 22.281zM231.661 277.154c-10.63 0-19.278 8.649-19.278 19.279v61.949c0 10.63 8.648 19.278 19.278 19.278h144.048c10.63 0 19.278-8.648 19.278-19.278v-61.949c0-10.63-8.648-19.279-19.278-19.279h-28.628a1.5 1.5 0 0 1-1.501-1.501v-20.86c0-8.778-7.147-15.925-15.925-15.925h-51.94c-8.778 0-15.925 7.147-15.925 15.925v20.86a1.5 1.5 0 0 1-1.501 1.501h-28.638z"/><path fill="#191917" d="M375.709 284.661h-28.628v-20.86c0-9.579-7.837-17.426-17.426-17.426h-51.94c-9.579 0-17.426 7.837-17.426 17.426v20.86h-28.638c-11.431 0-20.78 9.349-20.78 20.78v61.949c0 11.431 9.349 20.78 20.78 20.78h144.048c11.431 0 20.78-9.349 20.78-20.78v-61.949c0-11.431-9.349-20.78-20.78-20.78z"/><path fill="#EBEBEB" d="M375.709 389.662H231.661c-12.281 0-22.281-10-22.281-22.281v-61.95c0-12.281 10-22.281 22.281-22.281h27.136v-19.358c0-10.44 8.488-18.928 18.928-18.928h51.94c10.43 0 18.928 8.488 18.928 18.928v19.358h27.126c12.282 0 22.281 10 22.281 22.281v61.95c0 12.281-9.999 22.281-22.281 22.281zM231.661 286.163c-10.63 0-19.278 8.648-19.278 19.278v61.95c0 10.63 8.648 19.278 19.278 19.278h144.048c10.63 0 19.278-8.648 19.278-19.278v-61.95c0-10.63-8.648-19.278-19.278-19.278h-28.628a1.5 1.5 0 0 1-1.501-1.501v-20.86c0-8.779-7.147-15.926-15.925-15.926h-51.94c-8.778 0-15.925 7.147-15.925 15.926v20.86a1.5 1.5 0 0 1-1.501 1.501h-28.638z"/><path fill="#191917" d="M142.396 221.371H37.606c-10.83 0-19.609 8.779-19.609 19.609v109.995c0 10.829 8.78 19.608 19.609 19.608h104.79c10.83 0 19.609-8.779 19.609-19.608V240.98c0-10.83-8.779-19.609-19.609-19.609"/><path fill="#EBEBEB" d="M142.386 372.085H37.606c-11.641 0-21.11-9.469-21.11-21.11V240.98c0-11.641 9.469-21.11 21.11-21.11h104.78c11.641 0 21.11 9.469 21.11 21.11v109.995c0 11.641-9.469 21.11-21.11 21.11M37.606 222.872c-9.99 0-18.107 8.128-18.107 18.108v109.995c0 9.989 8.127 18.107 18.107 18.107h104.78c9.989 0 18.107-8.128 18.107-18.107V240.98c0-9.99-8.128-18.108-18.107-18.108z"/><path fill="#191917" d="M280.488 349.914h-38.217v9.559h38.217z"/><path fill="#EBEBEB" d="M280.488 360.975h-38.217a1.5 1.5 0 0 1-1.501-1.502v-9.559c0-.831.67-1.501 1.501-1.501h38.217c.831 0 1.501.67 1.501 1.501v9.559a1.5 1.5 0 0 1-1.501 1.502m-36.715-3.003h35.213v-6.557h-35.213z"/><path fill="#191917" d="M364.858 349.914h-38.216v9.559h38.216z"/><path fill="#EBEBEB" d="M364.858 360.975h-38.216a1.5 1.5 0 0 1-1.502-1.502v-9.559a1.5 1.5 0 0 1 1.502-1.501h38.216a1.5 1.5 0 0 1 1.502 1.501v9.559a1.5 1.5 0 0 1-1.502 1.502m-36.715-3.003h35.214v-6.557h-35.214z"/><path fill="#191917" d="M298.915 265.894v38.217h9.56v-38.217z"/><path fill="#EBEBEB" d="M308.465 305.612h-9.56a1.5 1.5 0 0 1-1.501-1.502v-38.216a1.5 1.5 0 0 1 1.501-1.502h9.56a1.5 1.5 0 0 1 1.501 1.502v38.216a1.5 1.5 0 0 1-1.501 1.502m-8.048-3.003h6.556v-35.214h-6.556z"/><path fill="#191917" d="M98.124 120.645H85.552c-.671 0-1.222-.55-1.222-1.221V86.713c0-3.483 2.843-6.326 6.326-6.326h2.363c3.483 0 6.326 2.843 6.326 6.326v32.711c0 .671-.55 1.221-1.221 1.221"/><path fill="#EBEBEB" d="M98.124 122.147H85.552a2.726 2.726 0 0 1-2.723-2.723V86.713c0-4.314 3.513-7.828 7.828-7.828h2.362c4.314 0 7.827 3.514 7.827 7.828v32.711a2.726 2.726 0 0 1-2.722 2.723m-12.292-3.003h12.011V86.703a4.827 4.827 0 0 0-4.824-4.825h-2.363a4.827 4.827 0 0 0-4.824 4.825z"/><path fill="#EBEBEB" d="M209.26 102.047c-14.194 0-28.207-8.207-38.387-22.781-3.934-5.626-6.956-12.742-10.159-20.28-7.428-17.486-15.105-35.553-34.894-35.273-8.268.12-16.596 4.644-21.71 11.801-8.919 12.472-11.321 30.61-10.6 43.431a1.495 1.495 0 0 1-1.412 1.582c-.83.04-1.541-.59-1.582-1.411-.75-13.333 1.782-32.241 11.161-45.344 5.756-8.037 14.764-12.922 24.113-13.062 21.801-.33 30.249 19.569 37.696 37.105 3.143 7.387 6.106 14.364 9.86 19.74 10.92 15.634 26.385 23.502 41.359 21.05 21.03-3.434 34.823-23.984 37.576-42.491.39-2.603.601-5.295.811-7.908.07-.83.79-1.441 1.621-1.371s1.442.79 1.372 1.621c-.211 2.653-.441 5.395-.841 8.108-2.913 19.599-17.607 41.35-40.068 45.013q-2.958.48-5.916.48z"/><path fill="#191917" d="M71.228 343.808H33.012v9.559h38.216z"/><path fill="#EBEBEB" d="M71.228 354.858H33.012a1.5 1.5 0 0 1-1.502-1.501v-9.559a1.5 1.5 0 0 1 1.501-1.502h38.217a1.5 1.5 0 0 1 1.501 1.502v9.559c0 .831-.67 1.501-1.501 1.501m-36.715-3.002h35.214v-6.557H34.513z"/><path fill="#191917" d="M149.483 343.808h-38.217v9.559h38.217z"/><path fill="#EBEBEB" d="M149.483 354.858h-38.217a1.5 1.5 0 0 1-1.501-1.501v-9.559a1.5 1.5 0 0 1 1.501-1.502h38.217a1.5 1.5 0 0 1 1.501 1.502v9.559c0 .831-.67 1.501-1.501 1.501m-36.715-3.002h35.213v-6.557h-35.213z"/><path fill="#191917" d="M247.046 1.501v27.887h13.543V1.5z"/><path fill="#EBEBEB" d="M247.066 30.89a1.5 1.5 0 0 1-1.502-1.501V1.5a1.5 1.5 0 0 1 1.502-1.5h13.543a1.5 1.5 0 0 1 1.501 1.501v27.887a1.5 1.5 0 0 1-1.501 1.502zm1.501-27.877v24.884h10.54V3.013z"/><path fill="#191917" d="M243.823 12.382h20.019v23.723l-2.522 4.714v9.43h-14.134v-9.43l-3.363-4.544z"/><path fill="#EBEBEB" d="M261.32 51.75h-14.134a1.5 1.5 0 0 1-1.501-1.502V41.32l-3.073-4.144a1.5 1.5 0 0 1-.291-.891V12.382a1.5 1.5 0 0 1 1.502-1.501h20.029c.831 0 1.501.67 1.501 1.5v23.734c0 .25-.06.49-.18.71l-2.342 4.384v9.05a1.5 1.5 0 0 1-1.501 1.5zm-12.633-3.003h11.131v-7.928c0-.25.06-.49.18-.71l2.342-4.385v-21.85h-17.026v21.9l3.073 4.144c.19.26.29.57.29.891v7.928z"/></svg>