<svg xmlns="http://www.w3.org/2000/svg" width="344" height="458" fill="none" viewBox="0 0 344 458"><path fill="#FFFBE8" d="M330.575 1.502H13.335C6.8 1.502 1.502 6.8 1.502 13.335v431.33c0 6.535 5.298 11.833 11.833 11.833h317.24c6.536 0 11.834-5.298 11.834-11.833V13.335c0-6.535-5.298-11.833-11.834-11.833"/><path fill="#000" d="M330.575 458H13.335C5.977 458 0 452.013 0 444.665V13.335C0 5.977 5.987 0 13.335 0h317.23c7.359 0 13.335 5.987 13.335 13.335v431.32c0 7.358-5.986 13.335-13.335 13.335zM13.335 3.003C7.64 3.003 3.003 7.64 3.003 13.335v431.32c0 5.696 4.636 10.332 10.332 10.332h317.23c5.697 0 10.332-4.636 10.332-10.332V13.335c0-5.696-4.635-10.332-10.332-10.332z"/><path fill="#FFFBE8" d="M179.454 23.767H97.811V43.91h81.643z"/><path fill="#000" d="M179.464 45.422H97.821a1.5 1.5 0 0 1-1.501-1.502V23.777a1.5 1.5 0 0 1 1.501-1.502h81.643a1.5 1.5 0 0 1 1.502 1.502V43.92a1.5 1.5 0 0 1-1.502 1.502m-80.151-3.004h78.639v-17.14H99.313z"/><path fill="#FFFBE8" d="M246.09 28.012h-62.061v11.663h62.061z"/><path fill="#000" d="M246.099 41.177h-62.06a1.5 1.5 0 0 1-1.502-1.502V28.012a1.5 1.5 0 0 1 1.502-1.502h62.06a1.5 1.5 0 0 1 1.502 1.502v11.663a1.5 1.5 0 0 1-1.502 1.502m-60.568-3.004h59.057v-8.66h-59.057z"/><path fill="#FFFBE8" d="M178.042 48.866c8.2 0 14.847-6.648 14.847-14.847s-6.647-14.847-14.847-14.847-14.846 6.647-14.846 14.847 6.647 14.846 14.846 14.846"/><path fill="#000" d="M178.042 50.367c-9.01 0-16.348-7.328-16.348-16.348s7.328-16.349 16.348-16.349c9.021 0 16.349 7.328 16.349 16.349 0 9.02-7.328 16.348-16.349 16.348m0-29.693c-7.358 0-13.345 5.986-13.345 13.345 0 7.358 5.987 13.345 13.345 13.345s13.346-5.987 13.346-13.345-5.987-13.345-13.346-13.345"/><path fill="#000" d="M168.041 45.031c-.38 0-.771-.15-1.061-.44a1.49 1.49 0 0 1 0-2.123l20.012-20.013a1.493 1.493 0 0 1 2.123 0c.581.591.591 1.542 0 2.123l-20.013 20.013c-.29.29-.681.44-1.061.44"/><path fill="#000" d="M322.386 17.85h-68.918a1.5 1.5 0 0 1-1.502-1.501 1.5 1.5 0 0 1 1.502-1.502h68.918a1.5 1.5 0 0 1 1.502 1.502 1.5 1.5 0 0 1-1.502 1.501"/><path fill="#000" d="M22.706 269.406a1.5 1.5 0 0 1-1.502-1.502V246.34a1.5 1.5 0 0 1 1.502-1.502 1.5 1.5 0 0 1 1.501 1.502v21.564a1.5 1.5 0 0 1-1.501 1.502"/><path fill="#000" d="M32.096 269.406a1.5 1.5 0 0 1-1.501-1.502V246.34a1.5 1.5 0 0 1 1.501-1.502 1.5 1.5 0 0 1 1.502 1.502v21.564a1.5 1.5 0 0 1-1.502 1.502"/><path fill="#000" d="M38.674 269.406a1.5 1.5 0 0 1-1.502-1.502V246.34a1.5 1.5 0 0 1 1.502-1.502 1.5 1.5 0 0 1 1.502 1.502v21.564a1.5 1.5 0 0 1-1.502 1.502"/><path fill="#000" d="M45.241 269.406a1.5 1.5 0 0 1-1.501-1.502V246.34a1.5 1.5 0 0 1 1.501-1.502 1.5 1.5 0 0 1 1.502 1.502v21.564a1.5 1.5 0 0 1-1.502 1.502"/><path fill="#000" d="M54.632 269.406a1.5 1.5 0 0 1-1.502-1.502V246.34a1.5 1.5 0 0 1 1.502-1.502 1.5 1.5 0 0 1 1.502 1.502v21.564a1.5 1.5 0 0 1-1.502 1.502"/><path fill="#000" d="M64.023 269.406a1.5 1.5 0 0 1-1.502-1.502V246.34a1.5 1.5 0 0 1 1.502-1.502 1.5 1.5 0 0 1 1.501 1.502v21.564a1.5 1.5 0 0 1-1.501 1.502"/><path fill="#000" d="M70.59 269.406a1.5 1.5 0 0 1-1.502-1.502V246.34a1.5 1.5 0 0 1 1.502-1.502 1.5 1.5 0 0 1 1.502 1.502v21.564a1.5 1.5 0 0 1-1.502 1.502"/><path fill="#000" d="M77.168 269.406a1.5 1.5 0 0 1-1.502-1.502V246.34a1.5 1.5 0 0 1 1.502-1.502 1.5 1.5 0 0 1 1.501 1.502v21.564a1.5 1.5 0 0 1-1.501 1.502"/><path fill="#000" d="M86.548 269.406a1.5 1.5 0 0 1-1.502-1.502V246.34a1.5 1.5 0 0 1 1.502-1.502 1.5 1.5 0 0 1 1.502 1.502v21.564a1.5 1.5 0 0 1-1.502 1.502"/><path fill="#000" d="M95.939 269.406a1.5 1.5 0 0 1-1.502-1.502V246.34a1.5 1.5 0 0 1 1.502-1.502 1.5 1.5 0 0 1 1.502 1.502v21.564a1.5 1.5 0 0 1-1.502 1.502"/><path fill="#000" d="M102.516 269.406a1.5 1.5 0 0 1-1.501-1.502V246.34a1.5 1.5 0 0 1 1.501-1.502 1.5 1.5 0 0 1 1.502 1.502v21.564a1.5 1.5 0 0 1-1.502 1.502"/><path fill="#000" d="M109.084 269.406a1.5 1.5 0 0 1-1.502-1.502V246.34a1.5 1.5 0 0 1 1.502-1.502 1.5 1.5 0 0 1 1.502 1.502v21.564a1.5 1.5 0 0 1-1.502 1.502"/><path fill="#000" d="M118.474 269.406a1.5 1.5 0 0 1-1.501-1.502V246.34a1.5 1.5 0 0 1 1.501-1.502 1.5 1.5 0 0 1 1.502 1.502v21.564a1.5 1.5 0 0 1-1.502 1.502"/><path fill="#000" d="M127.865 269.406a1.5 1.5 0 0 1-1.502-1.502V246.34a1.5 1.5 0 0 1 1.502-1.502 1.5 1.5 0 0 1 1.502 1.502v21.564a1.5 1.5 0 0 1-1.502 1.502"/><path fill="#000" d="M134.433 269.406a1.5 1.5 0 0 1-1.502-1.502V246.34a1.5 1.5 0 0 1 1.502-1.502 1.5 1.5 0 0 1 1.501 1.502v21.564a1.5 1.5 0 0 1-1.501 1.502"/><path fill="#000" d="M143.823 269.406a1.5 1.5 0 0 1-1.501-1.502V246.34a1.5 1.5 0 0 1 1.501-1.502 1.5 1.5 0 0 1 1.502 1.502v21.564a1.5 1.5 0 0 1-1.502 1.502"/><path fill="#000" d="M153.214 269.406a1.5 1.5 0 0 1-1.502-1.502V246.34a1.5 1.5 0 0 1 1.502-1.502 1.5 1.5 0 0 1 1.502 1.502v21.564a1.5 1.5 0 0 1-1.502 1.502"/><path fill="#000" d="M159.781 269.406a1.5 1.5 0 0 1-1.501-1.502V246.34a1.5 1.5 0 0 1 1.501-1.502 1.5 1.5 0 0 1 1.502 1.502v21.564a1.5 1.5 0 0 1-1.502 1.502"/><path fill="#000" d="M166.359 269.406a1.5 1.5 0 0 1-1.502-1.502V246.34a1.5 1.5 0 0 1 1.502-1.502 1.5 1.5 0 0 1 1.502 1.502v21.564a1.5 1.5 0 0 1-1.502 1.502"/><path fill="#000" d="M175.74 269.406a1.5 1.5 0 0 1-1.502-1.502V246.34a1.5 1.5 0 0 1 1.502-1.502 1.5 1.5 0 0 1 1.501 1.502v21.564a1.5 1.5 0 0 1-1.501 1.502"/><path fill="#000" d="M95.939 283.202H22.706a1.5 1.5 0 0 1-1.502-1.502 1.5 1.5 0 0 1 1.502-1.502h73.233a1.5 1.5 0 0 1 1.502 1.502 1.5 1.5 0 0 1-1.502 1.502"/><path fill="#000" d="M321.205 295.926H190.776a1.5 1.5 0 0 1-1.501-1.502c0-.831.67-1.501 1.501-1.501h130.429a1.5 1.5 0 0 1 1.501 1.501 1.5 1.5 0 0 1-1.501 1.502"/><path fill="#000" d="M321.205 309.712H160.292a1.5 1.5 0 0 1-1.502-1.502 1.5 1.5 0 0 1 1.502-1.502h160.913a1.5 1.5 0 0 1 1.502 1.502 1.5 1.5 0 0 1-1.502 1.502"/><path fill="#FFFBE8" d="M29.884 72.552h284.152a7.17 7.17 0 0 1 7.169 7.168v191.368a7.17 7.17 0 0 1-7.169 7.168h-68.898a7.17 7.17 0 0 1-7.168-7.168V163.486a7.17 7.17 0 0 0-7.168-7.169H29.894a7.167 7.167 0 0 1-7.168-7.168V79.721a7.167 7.167 0 0 1 7.168-7.169z"/><path fill="#000" d="M314.026 279.758h-68.898c-4.785 0-8.67-3.895-8.67-8.67V163.486a5.674 5.674 0 0 0-5.666-5.667H29.884c-4.786 0-8.67-3.894-8.67-8.67V79.721c0-4.786 3.895-8.67 8.67-8.67h284.152c4.786 0 8.67 3.894 8.67 8.67v191.367c0 4.785-3.894 8.67-8.67 8.67zM29.884 74.054a5.674 5.674 0 0 0-5.667 5.666v69.429a5.674 5.674 0 0 0 5.667 5.667h200.908c4.785 0 8.67 3.894 8.67 8.67v107.602a5.674 5.674 0 0 0 5.666 5.666h68.898a5.674 5.674 0 0 0 5.667-5.666V79.721a5.674 5.674 0 0 0-5.667-5.667H29.874z"/><path fill="#FFFBE8" d="M213.572 91.634H40.025v46.653h173.547z"/><path fill="#000" d="M213.572 139.789H40.025a1.5 1.5 0 0 1-1.501-1.502V91.634a1.5 1.5 0 0 1 1.501-1.502h173.547a1.5 1.5 0 0 1 1.502 1.502v46.653a1.5 1.5 0 0 1-1.502 1.502m-172.045-3.004h170.544v-43.65H41.527z"/><path fill="#6DB5C3" d="M285.674 128.045c12.69 0 22.976-10.286 22.976-22.976s-10.286-22.976-22.976-22.976-22.976 10.287-22.976 22.976c0 12.69 10.287 22.976 22.976 22.976"/><path fill="#000" d="M285.674 129.537c-13.495 0-24.478-10.982-24.478-24.478 0-13.495 10.983-24.477 24.478-24.477s24.478 10.982 24.478 24.477-10.982 24.478-24.478 24.478m0-45.942c-11.843 0-21.474 9.63-21.474 21.474s9.631 21.475 21.474 21.475 21.475-9.631 21.475-21.475c0-11.843-9.631-21.474-21.475-21.474"/><path fill="#FFFBE8" d="M294.715 264.821c10.444 0 18.911-22.313 18.911-49.837s-8.467-49.837-18.911-49.837-18.912 22.313-18.912 49.837 8.467 49.837 18.912 49.837"/><path fill="#000" d="M294.715 266.322c-11.443 0-20.414-22.545-20.414-51.338s8.971-51.338 20.414-51.338 20.413 22.545 20.413 51.338-8.97 51.338-20.413 51.338m0-99.673c-8.41 0-17.41 19.422-17.41 48.335s9 48.335 17.41 48.335 17.409-19.422 17.409-48.335-9-48.335-17.409-48.335"/><path fill="#FFFBE8" d="M301.432 194.841a6.717 6.717 0 0 0-13.435 0v40.286a6.717 6.717 0 0 0 13.435 0z"/><path fill="#000" d="M294.715 243.356c-4.535 0-8.22-3.684-8.22-8.219v-40.296c0-4.535 3.685-8.219 8.22-8.219s8.219 3.684 8.219 8.219v40.296c0 4.535-3.684 8.219-8.219 8.219m0-53.731a5.226 5.226 0 0 0-5.216 5.216v40.296a5.226 5.226 0 0 0 5.216 5.216 5.226 5.226 0 0 0 5.216-5.216v-40.296a5.226 5.226 0 0 0-5.216-5.216"/><path fill="#FFFBE8" d="m257.582 196.613-11.403 16.699h6.628v34.199h9.541v-34.199h6.627z"/><path fill="#000" d="M262.348 249.013h-9.541a1.5 1.5 0 0 1-1.502-1.502v-32.697h-5.126c-.56 0-1.071-.311-1.331-.801a1.5 1.5 0 0 1 .09-1.552l11.403-16.699c.561-.821 1.922-.821 2.483 0l11.403 16.699c.31.461.35 1.051.09 1.552a1.49 1.49 0 0 1-1.332.801h-5.126v32.697a1.5 1.5 0 0 1-1.501 1.502zm-8.039-3.004h6.537v-32.697a1.5 1.5 0 0 1 1.502-1.502h3.784l-8.56-12.534-8.559 12.534h3.784a1.5 1.5 0 0 1 1.502 1.502v32.697z"/><path fill="#FFFBE8" d="M164.877 400.124v56.374h13.916v-56.374z"/><path fill="#000" d="M178.793 458h-13.916a1.5 1.5 0 0 1-1.502-1.502v-56.374a1.5 1.5 0 0 1 1.502-1.501h13.916c.831 0 1.501.67 1.501 1.501v56.374a1.5 1.5 0 0 1-1.501 1.502m-12.414-3.003h10.912v-53.371h-10.912z"/><path fill="#FFFBE8" d="M167.8 368.188v28.773h8.049v-28.773z"/><path fill="#000" d="M175.859 398.462h-8.049a1.5 1.5 0 0 1-1.502-1.501v-28.773a1.5 1.5 0 0 1 1.502-1.502h8.049a1.5 1.5 0 0 1 1.502 1.502v28.773a1.5 1.5 0 0 1-1.502 1.501m-6.547-3.003h5.046V369.69h-5.046z"/><path fill="#FFFBE8" d="M171.955 411.347c5.662 0 10.252-4.59 10.252-10.252 0-5.661-4.59-10.251-10.252-10.251s-10.252 4.59-10.252 10.251c0 5.662 4.59 10.252 10.252 10.252"/><path fill="#000" d="M171.955 412.849c-6.477 0-11.753-5.276-11.753-11.754s5.276-11.753 11.753-11.753 11.753 5.276 11.753 11.753-5.276 11.754-11.753 11.754m0-20.504c-4.825 0-8.75 3.925-8.75 8.75s3.925 8.75 8.75 8.75 8.75-3.924 8.75-8.75c0-4.825-3.925-8.75-8.75-8.75"/><path fill="#000" d="M178.523 409.505a1.5 1.5 0 0 1-1.062-.441l-13.815-13.815a1.493 1.493 0 0 1 0-2.123c.59-.59 1.541-.59 2.122 0l13.816 13.816c.59.591.59 1.542 0 2.122a1.5 1.5 0 0 1-1.061.441"/><path fill="#000" d="M342.409 360.349H1.502A1.5 1.5 0 0 1 0 358.847a1.5 1.5 0 0 1 1.502-1.501h340.907a1.5 1.5 0 0 1 1.502 1.501 1.5 1.5 0 0 1-1.502 1.502"/></svg>