<svg xmlns="http://www.w3.org/2000/svg" width="498" height="395" fill="none" viewBox="0 0 498 395"><path fill="#191917" d="M92.01 1.501c18.911 0 34.261 15.35 34.261 34.262v81.572H57.747V35.763c0-18.912 15.35-34.262 34.262-34.262"/><path fill="#EBEBEB" d="M126.271 118.836H57.747c-.83 0-1.5-.67-1.5-1.501V35.763C56.246 16.04 72.286 0 92.008 0s35.763 16.04 35.763 35.763v81.572c0 .831-.67 1.501-1.501 1.501m-67.023-3.002h65.522V35.763c0-18.062-14.699-32.761-32.76-32.761-18.062 0-32.762 14.7-32.762 32.761z"/><path fill="#191917" d="M411.194 1.501c18.912 0 34.262 15.35 34.262 34.262v81.572h-68.524V35.763c0-18.912 15.35-34.262 34.262-34.262"/><path fill="#EBEBEB" d="M445.456 118.836h-68.524a1.5 1.5 0 0 1-1.501-1.501V35.763C375.431 16.04 391.472 0 411.194 0c19.723 0 35.763 16.04 35.763 35.763v81.572c0 .831-.67 1.501-1.501 1.501m-67.023-3.002h65.522V35.763c0-18.062-14.699-32.761-32.761-32.761-18.061 0-32.761 14.7-32.761 32.761z"/><path fill="#191917" d="M467.891 393.412H30.109c-9.736 0-17.981-6.854-19.282-16.04a931.4 931.4 0 0 1 0-262.879c1.31-9.186 9.546-16.04 19.282-16.04h437.782c9.736 0 17.981 6.854 19.282 16.04a931.4 931.4 0 0 1 0 262.879c-1.311 9.186-9.546 16.04-19.282 16.04"/><path fill="#EBEBEB" d="M467.891 394.914H30.109c-10.436 0-19.362-7.455-20.773-17.331a933 933 0 0 1 0-263.31c1.41-9.876 10.337-17.33 20.773-17.33h437.782c10.436 0 19.362 7.454 20.773 17.33a933 933 0 0 1 0 263.31c-1.411 9.876-10.337 17.331-20.773 17.331M30.109 99.954c-8.945 0-16.6 6.344-17.801 14.75a930 930 0 0 0 0 262.458c1.2 8.406 8.856 14.75 17.801 14.75h437.782c8.945 0 16.6-6.344 17.801-14.75a930 930 0 0 0 0-262.458c-1.201-8.406-8.856-14.75-17.801-14.75z"/><path fill="#EE6DBB" d="M261.278 346.373c9.384 0 16.991-7.607 16.991-16.991s-7.607-16.991-16.991-16.991-16.991 7.607-16.991 16.991 7.607 16.991 16.991 16.991"/><path fill="#EBEBEB" d="M261.278 347.874c-10.197 0-18.492-8.295-18.492-18.492 0-10.196 8.295-18.492 18.492-18.492 10.196 0 18.492 8.296 18.492 18.492s-8.296 18.492-18.492 18.492m0-33.982c-8.546 0-15.49 6.945-15.49 15.49s6.944 15.49 15.49 15.49 15.49-6.944 15.49-15.49-6.945-15.49-15.49-15.49"/><path fill="#FFB921" d="M41.957 122.658H201.77a5.42 5.42 0 0 1 5.423 5.424v156.04a5.42 5.42 0 0 1-5.423 5.423H79.25a5.42 5.42 0 0 1-5.423-5.423v-58.097a5.42 5.42 0 0 0-5.423-5.424H41.947a5.42 5.42 0 0 1-5.424-5.423v-87.106a5.42 5.42 0 0 1 5.424-5.424z"/><path fill="#EBEBEB" d="M201.77 291.037H79.25c-3.811 0-6.924-3.102-6.924-6.925v-58.097a3.93 3.93 0 0 0-3.922-3.923H41.947c-3.812 0-6.925-3.102-6.925-6.924v-87.106c0-3.813 3.102-6.925 6.925-6.925H201.76c3.812 0 6.924 3.102 6.924 6.925v156.04c0 3.813-3.102 6.925-6.924 6.925zM41.957 124.159a3.93 3.93 0 0 0-3.923 3.923v87.106a3.93 3.93 0 0 0 3.923 3.922h26.457c3.812 0 6.924 3.102 6.924 6.925v58.097a3.93 3.93 0 0 0 3.923 3.923H201.78a3.93 3.93 0 0 0 3.922-3.923v-156.04a3.93 3.93 0 0 0-3.922-3.923H41.967z"/><path fill="#191917" d="M188.161 154.67H55.556c-6.745 0-12.238-5.494-12.238-12.238s5.493-12.238 12.238-12.238H188.16c6.744 0 12.238 5.494 12.238 12.238s-5.494 12.238-12.238 12.238M55.556 133.196c-5.093 0-9.236 4.143-9.236 9.236s4.142 9.236 9.236 9.236H188.16c5.093 0 9.236-4.143 9.236-9.236s-4.143-9.236-9.236-9.236z"/><path fill="#191917" d="M188.351 143.932H55.376a1.5 1.5 0 0 1-1.501-1.501 1.5 1.5 0 0 1 1.5-1.501h132.976a1.5 1.5 0 0 1 1.501 1.501c0 .831-.67 1.501-1.501 1.501"/><path fill="#191917" d="M198.898 162.965H44.818v21.474h154.08z"/><path fill="#EBEBEB" d="M198.898 185.94H44.818a1.5 1.5 0 0 1-1.5-1.501v-21.474a1.5 1.5 0 0 1 1.5-1.501h154.08a1.5 1.5 0 0 1 1.501 1.501v21.474a1.5 1.5 0 0 1-1.501 1.501M46.32 182.938h151.077v-18.472H46.32z"/><path fill="#191917" d="M198.898 191.984H44.818v21.474h154.08z"/><path fill="#EBEBEB" d="M198.898 214.958H44.818c-.83 0-1.5-.67-1.5-1.5v-21.474c0-.831.67-1.501 1.5-1.501h154.08a1.5 1.5 0 0 1 1.501 1.501v21.474c0 .83-.671 1.5-1.501 1.5M46.32 211.957h151.077v-18.472H46.32z"/><path fill="#191917" d="M30.47 263.24c9.383 0 16.99-7.608 16.99-16.991 0-9.384-7.607-16.991-16.99-16.991-9.384 0-16.991 7.607-16.991 16.991 0 9.383 7.607 16.991 16.99 16.991"/><path fill="#EBEBEB" d="M30.47 264.74c-10.197 0-18.492-8.295-18.492-18.491s8.295-18.492 18.492-18.492c10.196 0 18.491 8.295 18.491 18.492 0 10.196-8.295 18.491-18.491 18.491m0-33.981c-8.546 0-15.49 6.944-15.49 15.49s6.944 15.49 15.49 15.49 15.49-6.945 15.49-15.49-6.945-15.49-15.49-15.49"/><path fill="#EBEBEB" d="M30.47 264.521a1.5 1.5 0 0 1-1.501-1.501v-33.352a1.5 1.5 0 0 1 1.5-1.501 1.5 1.5 0 0 1 1.502 1.501v33.352a1.5 1.5 0 0 1-1.501 1.501"/><path fill="#EBEBEB" d="M47.14 247.84H13.79c-.83 0-1.501-.67-1.501-1.501s.67-1.501 1.5-1.501H47.14c.83 0 1.501.67 1.501 1.501s-.67 1.501-1.5 1.501"/><path fill="#191917" d="M244.607 263.24c9.384 0 16.991-7.608 16.991-16.991 0-9.384-7.607-16.991-16.991-16.991s-16.991 7.607-16.991 16.991c0 9.383 7.607 16.991 16.991 16.991"/><path fill="#EBEBEB" d="M244.607 264.74c-10.196 0-18.492-8.295-18.492-18.491s8.296-18.492 18.492-18.492 18.492 8.295 18.492 18.492c0 10.196-8.295 18.491-18.492 18.491m0-33.981c-8.545 0-15.49 6.944-15.49 15.49s6.945 15.49 15.49 15.49 15.49-6.945 15.49-15.49-6.944-15.49-15.49-15.49"/><path fill="#EBEBEB" d="M244.607 264.521a1.5 1.5 0 0 1-1.501-1.501v-33.352a1.5 1.5 0 0 1 1.501-1.501 1.5 1.5 0 0 1 1.501 1.501v33.352a1.5 1.5 0 0 1-1.501 1.501"/><path fill="#EBEBEB" d="M261.278 247.84h-33.351c-.831 0-1.501-.67-1.501-1.501s.67-1.501 1.501-1.501h33.351a1.5 1.5 0 0 1 1.501 1.501 1.5 1.5 0 0 1-1.501 1.501"/><path fill="#191917" d="M468.751 263.24c9.384 0 16.991-7.608 16.991-16.991 0-9.384-7.607-16.991-16.991-16.991s-16.991 7.607-16.991 16.991c0 9.383 7.607 16.991 16.991 16.991"/><path fill="#EBEBEB" d="M468.751 264.74c-10.196 0-18.492-8.295-18.492-18.491s8.296-18.492 18.492-18.492 18.492 8.295 18.492 18.492c0 10.196-8.295 18.491-18.492 18.491m0-33.981c-8.545 0-15.49 6.944-15.49 15.49s6.945 15.49 15.49 15.49 15.49-6.945 15.49-15.49-6.944-15.49-15.49-15.49"/><path fill="#EBEBEB" d="M468.751 264.521a1.5 1.5 0 0 1-1.501-1.501v-33.352a1.5 1.5 0 0 1 1.501-1.501 1.5 1.5 0 0 1 1.501 1.501v33.352a1.5 1.5 0 0 1-1.501 1.501"/><path fill="#EBEBEB" d="M485.422 247.84h-33.351c-.831 0-1.501-.67-1.501-1.501s.67-1.501 1.501-1.501h33.351c.831 0 1.501.67 1.501 1.501s-.67 1.501-1.501 1.501"/><path fill="#191917" d="M448.658 158.822h-187.06v47.28h187.06z"/><path fill="#EBEBEB" d="M448.658 207.603h-187.06a1.5 1.5 0 0 1-1.501-1.501v-47.28a1.5 1.5 0 0 1 1.501-1.501h187.06c.831 0 1.501.67 1.501 1.501v47.28c0 .831-.67 1.501-1.501 1.501m-185.559-3.002h184.058v-44.278H263.099z"/><path fill="#EBEBEB" d="M416.638 224.364H310.029a1.5 1.5 0 0 1-1.501-1.501 1.5 1.5 0 0 1 1.501-1.501h106.609a1.5 1.5 0 0 1 1.501 1.501 1.5 1.5 0 0 1-1.501 1.501"/><path fill="#191917" d="M416.077 365.635H254.944a2.072 2.072 0 0 0 0 4.143h161.133a2.072 2.072 0 1 0 0-4.143"/><path fill="#EBEBEB" d="M416.067 371.279H254.934a3.574 3.574 0 0 1-3.572-3.572 3.574 3.574 0 0 1 3.572-3.573h161.133a3.575 3.575 0 0 1 3.573 3.573 3.574 3.574 0 0 1-3.573 3.572m-161.123-4.143a.58.58 0 0 0-.571.571c0 .31.261.57.571.57h161.133c.311 0 .571-.26.571-.57s-.26-.571-.571-.571z"/><path fill="#191917" d="M305.306 346.373c9.384 0 16.991-7.607 16.991-16.991s-7.607-16.991-16.991-16.991-16.991 7.607-16.991 16.991 7.607 16.991 16.991 16.991"/><path fill="#EBEBEB" d="M305.306 347.874c-10.196 0-18.492-8.295-18.492-18.492 0-10.196 8.296-18.492 18.492-18.492s18.492 8.296 18.492 18.492-8.295 18.492-18.492 18.492m0-33.982c-8.545 0-15.49 6.945-15.49 15.49s6.945 15.49 15.49 15.49 15.49-6.944 15.49-15.49-6.944-15.49-15.49-15.49"/><path fill="#EBEBEB" d="M38.795 382.586a1.5 1.5 0 0 1-1.501-1.501V358.11a1.5 1.5 0 0 1 1.501-1.501c.83 0 1.5.671 1.5 1.501v22.975a1.5 1.5 0 0 1-1.5 1.501"/><path fill="#EBEBEB" d="M48.801 382.586a1.5 1.5 0 0 1-1.5-1.501V358.11a1.5 1.5 0 0 1 1.5-1.501 1.5 1.5 0 0 1 1.501 1.501v22.975a1.5 1.5 0 0 1-1.5 1.501"/><path fill="#EBEBEB" d="M55.806 382.586a1.5 1.5 0 0 1-1.501-1.501V358.11a1.5 1.5 0 0 1 1.5-1.501 1.5 1.5 0 0 1 1.502 1.501v22.975a1.5 1.5 0 0 1-1.501 1.501"/><path fill="#EBEBEB" d="M62.81 382.586a1.5 1.5 0 0 1-1.5-1.501V358.11a1.5 1.5 0 0 1 1.5-1.501 1.5 1.5 0 0 1 1.501 1.501v22.975a1.5 1.5 0 0 1-1.5 1.501"/><path fill="#EBEBEB" d="M72.817 382.586a1.5 1.5 0 0 1-1.501-1.501V358.11a1.5 1.5 0 0 1 1.5-1.501 1.5 1.5 0 0 1 1.502 1.501v22.975a1.5 1.5 0 0 1-1.501 1.501"/><path fill="#EBEBEB" d="M82.823 382.586a1.5 1.5 0 0 1-1.5-1.501V358.11a1.5 1.5 0 0 1 1.5-1.501 1.5 1.5 0 0 1 1.501 1.501v22.975a1.5 1.5 0 0 1-1.5 1.501"/><path fill="#EBEBEB" d="M89.828 382.586a1.5 1.5 0 0 1-1.501-1.501V358.11a1.5 1.5 0 0 1 1.5-1.501 1.5 1.5 0 0 1 1.502 1.501v22.975a1.5 1.5 0 0 1-1.501 1.501"/><path fill="#EBEBEB" d="M96.832 382.586a1.5 1.5 0 0 1-1.5-1.501V358.11a1.5 1.5 0 0 1 1.5-1.501 1.5 1.5 0 0 1 1.501 1.501v22.975a1.5 1.5 0 0 1-1.5 1.501"/><path fill="#EBEBEB" d="M106.839 382.586a1.5 1.5 0 0 1-1.501-1.501V358.11a1.5 1.5 0 0 1 1.501-1.501 1.5 1.5 0 0 1 1.501 1.501v22.975a1.5 1.5 0 0 1-1.501 1.501"/><path fill="#EBEBEB" d="M116.845 382.586a1.5 1.5 0 0 1-1.501-1.501V358.11a1.5 1.5 0 0 1 1.501-1.501 1.5 1.5 0 0 1 1.501 1.501v22.975a1.5 1.5 0 0 1-1.501 1.501"/><path fill="#EBEBEB" d="M123.85 382.586a1.5 1.5 0 0 1-1.501-1.501V358.11a1.5 1.5 0 0 1 1.501-1.501 1.5 1.5 0 0 1 1.501 1.501v22.975a1.5 1.5 0 0 1-1.501 1.501"/><path fill="#EBEBEB" d="M130.854 382.586a1.5 1.5 0 0 1-1.501-1.501V358.11a1.5 1.5 0 0 1 1.501-1.501 1.5 1.5 0 0 1 1.501 1.501v22.975a1.5 1.5 0 0 1-1.501 1.501"/><path fill="#EBEBEB" d="M140.861 382.586a1.5 1.5 0 0 1-1.501-1.501V358.11a1.5 1.5 0 0 1 1.501-1.501 1.5 1.5 0 0 1 1.501 1.501v22.975a1.5 1.5 0 0 1-1.501 1.501"/><path fill="#EBEBEB" d="M150.867 382.586a1.5 1.5 0 0 1-1.501-1.501V358.11a1.5 1.5 0 0 1 1.501-1.501 1.5 1.5 0 0 1 1.501 1.501v22.975a1.5 1.5 0 0 1-1.501 1.501"/><path fill="#EBEBEB" d="M157.871 382.586c-.83 0-1.5-.671-1.5-1.501V358.11c0-.83.67-1.501 1.5-1.501a1.5 1.5 0 0 1 1.501 1.501v22.975a1.5 1.5 0 0 1-1.501 1.501"/><path fill="#EBEBEB" d="M167.878 382.586a1.5 1.5 0 0 1-1.501-1.501V358.11a1.5 1.5 0 0 1 1.501-1.501 1.5 1.5 0 0 1 1.501 1.501v22.975a1.5 1.5 0 0 1-1.501 1.501"/><path fill="#EBEBEB" d="M177.884 382.586a1.5 1.5 0 0 1-1.501-1.501V358.11a1.5 1.5 0 0 1 1.501-1.501 1.5 1.5 0 0 1 1.501 1.501v22.975a1.5 1.5 0 0 1-1.501 1.501"/><path fill="#EBEBEB" d="M184.889 382.586a1.5 1.5 0 0 1-1.501-1.501V358.11a1.5 1.5 0 0 1 1.501-1.501 1.5 1.5 0 0 1 1.501 1.501v22.975a1.5 1.5 0 0 1-1.501 1.501"/><path fill="#EBEBEB" d="M191.893 382.586a1.5 1.5 0 0 1-1.501-1.501V358.11a1.5 1.5 0 0 1 1.501-1.501 1.5 1.5 0 0 1 1.501 1.501v22.975a1.5 1.5 0 0 1-1.501 1.501"/><path fill="#EBEBEB" d="M201.9 382.586a1.5 1.5 0 0 1-1.501-1.501V358.11a1.5 1.5 0 0 1 1.501-1.501 1.5 1.5 0 0 1 1.501 1.501v22.975a1.5 1.5 0 0 1-1.501 1.501"/><path fill="#EBEBEB" d="M279.27 259.337a1.5 1.5 0 0 1-1.501-1.501v-22.975c0-.831.67-1.501 1.501-1.501a1.5 1.5 0 0 1 1.501 1.501v22.975a1.5 1.5 0 0 1-1.501 1.501"/><path fill="#EBEBEB" d="M289.276 259.337a1.5 1.5 0 0 1-1.501-1.501v-22.975c0-.831.67-1.501 1.501-1.501s1.501.67 1.501 1.501v22.975a1.5 1.5 0 0 1-1.501 1.501"/><path fill="#EBEBEB" d="M296.281 259.337a1.5 1.5 0 0 1-1.501-1.501v-22.975c0-.831.67-1.501 1.501-1.501s1.5.67 1.5 1.501v22.975c0 .83-.67 1.501-1.5 1.501"/><path fill="#EBEBEB" d="M303.285 259.337a1.5 1.5 0 0 1-1.501-1.501v-22.975c0-.831.67-1.501 1.501-1.501s1.501.67 1.501 1.501v22.975a1.5 1.5 0 0 1-1.501 1.501"/><path fill="#EBEBEB" d="M313.291 259.337a1.5 1.5 0 0 1-1.501-1.501v-22.975a1.5 1.5 0 0 1 1.501-1.501c.831 0 1.501.67 1.501 1.501v22.975a1.5 1.5 0 0 1-1.501 1.501"/><path fill="#EBEBEB" d="M323.298 259.337a1.5 1.5 0 0 1-1.501-1.501v-22.975c0-.831.67-1.501 1.501-1.501a1.5 1.5 0 0 1 1.501 1.501v22.975a1.5 1.5 0 0 1-1.501 1.501"/><path fill="#EBEBEB" d="M330.302 259.337a1.5 1.5 0 0 1-1.501-1.501v-22.975a1.5 1.5 0 0 1 1.501-1.501c.831 0 1.501.67 1.501 1.501v22.975a1.5 1.5 0 0 1-1.501 1.501"/><path fill="#EBEBEB" d="M337.307 259.337a1.5 1.5 0 0 1-1.501-1.501v-22.975c0-.831.67-1.501 1.501-1.501a1.5 1.5 0 0 1 1.501 1.501v22.975a1.5 1.5 0 0 1-1.501 1.501"/><path fill="#EBEBEB" d="M347.313 259.337a1.5 1.5 0 0 1-1.501-1.501v-22.975a1.5 1.5 0 0 1 1.501-1.501c.831 0 1.501.67 1.501 1.501v22.975a1.5 1.5 0 0 1-1.501 1.501"/><path fill="#EBEBEB" d="M357.32 259.337a1.5 1.5 0 0 1-1.501-1.501v-22.975c0-.831.67-1.501 1.501-1.501a1.5 1.5 0 0 1 1.501 1.501v22.975a1.5 1.5 0 0 1-1.501 1.501"/><path fill="#EBEBEB" d="M364.324 259.337a1.5 1.5 0 0 1-1.501-1.501v-22.975a1.5 1.5 0 0 1 1.501-1.501c.831 0 1.501.67 1.501 1.501v22.975a1.5 1.5 0 0 1-1.501 1.501"/><path fill="#EBEBEB" d="M371.329 259.337a1.5 1.5 0 0 1-1.501-1.501v-22.975c0-.831.67-1.501 1.501-1.501a1.5 1.5 0 0 1 1.501 1.501v22.975a1.5 1.5 0 0 1-1.501 1.501"/><path fill="#EBEBEB" d="M381.335 259.337a1.5 1.5 0 0 1-1.501-1.501v-22.975a1.5 1.5 0 0 1 1.501-1.501c.831 0 1.501.67 1.501 1.501v22.975a1.5 1.5 0 0 1-1.501 1.501"/><path fill="#EBEBEB" d="M391.342 259.337a1.5 1.5 0 0 1-1.501-1.501v-22.975c0-.831.67-1.501 1.501-1.501a1.5 1.5 0 0 1 1.501 1.501v22.975a1.5 1.5 0 0 1-1.501 1.501"/><path fill="#EBEBEB" d="M398.346 259.337a1.5 1.5 0 0 1-1.501-1.501v-22.975a1.5 1.5 0 0 1 1.501-1.501c.831 0 1.501.67 1.501 1.501v22.975a1.5 1.5 0 0 1-1.501 1.501"/><path fill="#EBEBEB" d="M408.353 259.337a1.5 1.5 0 0 1-1.501-1.501v-22.975c0-.831.67-1.501 1.501-1.501a1.5 1.5 0 0 1 1.501 1.501v22.975a1.5 1.5 0 0 1-1.501 1.501"/><path fill="#EBEBEB" d="M418.359 259.337a1.5 1.5 0 0 1-1.501-1.501v-22.975c0-.831.67-1.501 1.501-1.501s1.501.67 1.501 1.501v22.975a1.5 1.5 0 0 1-1.501 1.501"/><path fill="#EBEBEB" d="M425.363 259.337c-.83 0-1.5-.671-1.5-1.501v-22.975c0-.831.67-1.501 1.5-1.501.831 0 1.501.67 1.501 1.501v22.975a1.5 1.5 0 0 1-1.501 1.501"/><path fill="#EBEBEB" d="M432.368 259.337a1.5 1.5 0 0 1-1.501-1.501v-22.975c0-.831.67-1.501 1.501-1.501s1.501.67 1.501 1.501v22.975a1.5 1.5 0 0 1-1.501 1.501"/><path fill="#EBEBEB" d="M442.374 259.337a1.5 1.5 0 0 1-1.501-1.501v-22.975a1.5 1.5 0 0 1 1.501-1.501c.831 0 1.501.67 1.501 1.501v22.975a1.5 1.5 0 0 1-1.501 1.501"/><path fill="#191917" d="m255.084 335.336 5.143-14.009h2.182l5.143 14.009h-2.141l-4.103-11.608-4.123 11.608zm2.322-3.463.56-1.601h6.584l.561 1.601z"/><path fill="#191917" d="M267.912 335.586h-2.671l-1.221-3.462h-5.414l-1.23 3.462h-2.632l5.323-14.51h2.532l.06.161 5.263 14.349zm-2.321-.501h1.611l-4.963-13.508h-1.832l-4.963 13.508h1.571l1.051-2.961h-1.011l.741-2.102h1.02l2.502-7.044 2.492 7.044h.93l.741 2.102h-.921l1.051 2.961zm-1.231-3.462h.39l-.38-1.1h-.4zm-5.594 0h5.064l-.391-1.1h-4.282zm-1.01 0h.48l.39-1.1h-.49zm1.581-1.601h3.932l-1.961-5.543z"/><path fill="#EBEBEB" d="M219.011 394.913c-.831 0-1.501-.67-1.501-1.501V98.452c0-.83.67-1.5 1.501-1.5a1.5 1.5 0 0 1 1.501 1.5v294.971c0 .83-.671 1.5-1.501 1.5z"/></svg>