<svg xmlns="http://www.w3.org/2000/svg" width="682" height="262" fill="none" viewBox="0 0 682 262"><path fill="#191917" d="M80.79 110.666h98.28V96.569H80.79"/><path fill="#EBEBEB" d="M179.07 112.169H80.78a1.5 1.5 0 0 1-1.502-1.502 1.5 1.5 0 0 1 1.501-1.502h96.79V98.061h-96.79a1.5 1.5 0 0 1-1.501-1.502 1.5 1.5 0 0 1 1.501-1.501h98.291a1.5 1.5 0 0 1 1.502 1.501v14.108a1.5 1.5 0 0 1-1.502 1.502"/><path fill="#191917" d="M221.212 94.947v-6.809a2.794 2.794 0 0 0-2.793-2.793h-26.042l-17.391-7.61v6.599l17.561 7.699v22.938"/><path fill="#EBEBEB" d="M192.537 116.463a1.5 1.5 0 0 1-1.502-1.501V93.004l-16.66-7.309a1.5 1.5 0 0 1-.901-1.371v-6.598a1.5 1.5 0 0 1 2.102-1.382l17.111 7.48h25.732a4.3 4.3 0 0 1 4.295 4.294v6.809a1.5 1.5 0 0 1-1.502 1.502 1.5 1.5 0 0 1-1.501-1.502v-6.809c0-.71-.581-1.291-1.292-1.291h-26.042c-.21 0-.411-.04-.601-.13l-15.289-6.689v3.315l16.661 7.309c.551.24.901.78.901 1.371v22.939a1.5 1.5 0 0 1-1.502 1.501z"/><path fill="#232323" d="M218.829 115.252H178.79a2.38 2.38 0 0 1-2.383-2.383V94.227a2.38 2.38 0 0 1 2.383-2.383h40.049a2.38 2.38 0 0 1 2.383 2.383v18.642a2.38 2.38 0 0 1-2.383 2.383z"/><path fill="#EBEBEB" d="M218.829 116.754H178.79a3.89 3.89 0 0 1-3.885-3.885V94.227a3.89 3.89 0 0 1 3.885-3.885h40.039a3.89 3.89 0 0 1 3.885 3.885v18.642a3.89 3.89 0 0 1-3.885 3.885M178.79 93.355c-.48 0-.881.39-.881.882v18.642c0 .481.391.882.881.882h40.039a.883.883 0 0 0 .881-.882V94.237a.883.883 0 0 0-.881-.882z"/><path fill="#191917" d="M220.411 99.242h-12.946v8.621h12.946"/><path fill="#EBEBEB" d="M220.411 109.365h-12.956a1.5 1.5 0 0 1-1.501-1.502v-8.62a1.5 1.5 0 0 1 1.501-1.502h12.956a1.5 1.5 0 0 1 1.502 1.501 1.5 1.5 0 0 1-1.502 1.502h-11.454v5.617h11.454a1.5 1.5 0 0 1 1.502 1.502 1.5 1.5 0 0 1-1.502 1.502"/><path fill="#191917" d="M80.79 96.79c-43.784 0-79.288 35.493-79.288 79.287s35.494 79.287 79.288 79.287 79.287-35.493 79.287-79.287-35.494-79.288-79.287-79.288m0 144.467c-35.995 0-65.18-29.186-65.18-65.18s29.185-65.181 65.18-65.181c35.994 0 65.18 29.186 65.18 65.181s-29.186 65.18-65.18 65.18"/><path fill="#EBEBEB" d="M80.79 256.866C36.245 256.866 0 220.622 0 176.077s36.245-80.79 80.79-80.79c44.544 0 80.789 36.245 80.789 80.79s-36.245 80.789-80.79 80.789m0-158.575c-42.893 0-77.786 34.893-77.786 77.786s34.893 77.786 77.786 77.786 77.785-34.893 77.785-77.786-34.893-77.786-77.785-77.786m0 144.468c-36.766 0-66.683-29.917-66.683-66.682s29.917-66.682 66.683-66.682c36.765 0 66.682 29.916 66.682 66.682 0 36.765-29.917 66.682-66.682 66.682m0-130.361c-35.114 0-63.679 28.565-63.679 63.679 0 35.113 28.565 63.678 63.679 63.678 35.113 0 63.678-28.565 63.678-63.678s-28.565-63.679-63.678-63.679"/><path fill="#191917" d="M80.79 110.896c-35.995 0-65.18 29.186-65.18 65.181s29.185 65.18 65.18 65.18c35.994 0 65.18-29.186 65.18-65.18s-29.186-65.181-65.18-65.181m0 114.241c-27.094 0-49.06-21.967-49.06-49.06s21.966-49.061 49.06-49.061c27.093 0 49.06 21.967 49.06 49.061 0 27.093-21.967 49.06-49.06 49.06"/><path fill="#EBEBEB" d="M80.79 242.759c-36.766 0-66.682-29.917-66.682-66.682s29.916-66.683 66.682-66.683c36.765 0 66.682 29.917 66.682 66.683 0 36.765-29.917 66.682-66.682 66.682m0-130.361c-35.114 0-63.679 28.565-63.679 63.679 0 35.113 28.565 63.678 63.679 63.678 35.113 0 63.678-28.565 63.678-63.678s-28.565-63.679-63.678-63.679m0 114.241c-27.875 0-50.563-22.678-50.563-50.562 0-27.885 22.678-50.563 50.563-50.563 27.884 0 50.562 22.678 50.562 50.563 0 27.884-22.678 50.562-50.562 50.562m0-98.121c-26.223 0-47.559 21.336-47.559 47.559s21.336 47.558 47.559 47.558 47.558-21.336 47.558-47.558-21.336-47.559-47.558-47.559"/><path fill="#191917" d="M80.79 255.364h98.28v-14.107H80.79"/><path fill="#EBEBEB" d="M179.07 256.866H80.78a1.5 1.5 0 0 1-1.502-1.502 1.5 1.5 0 0 1 1.501-1.501h96.79v-11.104h-96.79a1.5 1.5 0 0 1-1.501-1.502 1.5 1.5 0 0 1 1.501-1.502h98.291a1.5 1.5 0 0 1 1.502 1.502v14.107a1.5 1.5 0 0 1-1.502 1.502"/><path fill="#191917" d="M221.212 239.635v-6.809a2.794 2.794 0 0 0-2.793-2.793h-26.042l-17.391-7.61v6.598l17.561 7.7v22.938"/><path fill="#EBEBEB" d="M192.537 261.151a1.5 1.5 0 0 1-1.502-1.502v-21.957l-16.66-7.309a1.5 1.5 0 0 1-.901-1.371v-6.598a1.5 1.5 0 0 1 2.102-1.382l17.111 7.479h25.732a4.3 4.3 0 0 1 4.295 4.295v6.809a1.5 1.5 0 0 1-1.502 1.502 1.5 1.5 0 0 1-1.501-1.502v-6.809c0-.71-.581-1.291-1.292-1.291h-26.042c-.21 0-.411-.04-.601-.13l-15.289-6.689v3.315l16.661 7.309c.551.24.901.78.901 1.371v22.938a1.5 1.5 0 0 1-1.502 1.502z"/><path fill="#232323" d="M218.829 259.94H178.79a2.38 2.38 0 0 1-2.383-2.383v-18.643a2.38 2.38 0 0 1 2.383-2.382h40.049a2.38 2.38 0 0 1 2.383 2.382v18.643a2.38 2.38 0 0 1-2.383 2.383z"/><path fill="#EBEBEB" d="M218.829 261.442H178.79a3.89 3.89 0 0 1-3.885-3.885v-18.643a3.89 3.89 0 0 1 3.885-3.884h40.039a3.89 3.89 0 0 1 3.885 3.884v18.643a3.89 3.89 0 0 1-3.885 3.885m-40.039-23.399a.883.883 0 0 0-.881.881v18.643c0 .481.391.882.881.882h40.039a.883.883 0 0 0 .881-.882v-18.643c0-.48-.39-.881-.881-.881z"/><path fill="#191917" d="M220.411 243.93h-12.946v8.621h12.946"/><path fill="#EBEBEB" d="M220.411 254.053h-12.956a1.5 1.5 0 0 1-1.501-1.502v-8.621a1.5 1.5 0 0 1 1.501-1.502h12.956a1.5 1.5 0 0 1 1.502 1.502 1.5 1.5 0 0 1-1.502 1.502h-11.454v5.617h11.454a1.5 1.5 0 0 1 1.502 1.502 1.5 1.5 0 0 1-1.502 1.502"/><path fill="#191917" d="M370.356 103.748h-73.01c-7.542 0-13.657 6.114-13.657 13.657v124.333c0 7.542 6.115 13.657 13.657 13.657h73.01c7.543 0 13.657-6.115 13.657-13.657V117.405c0-7.543-6.114-13.657-13.657-13.657"/><path fill="#EBEBEB" d="M370.356 256.896h-73c-8.36 0-15.158-6.798-15.158-15.158V117.414c0-8.36 6.798-15.158 15.158-15.158h73c8.36 0 15.159 6.798 15.159 15.158v124.324c0 8.36-6.799 15.158-15.159 15.158m-73-151.647c-6.708 0-12.155 5.457-12.155 12.155v124.324c0 6.708 5.457 12.155 12.155 12.155h73c6.708 0 12.155-5.457 12.155-12.155V117.404c0-6.708-5.457-12.155-12.155-12.155z"/><path fill="#191917" d="M370.356 103.748h-73.01c-7.542 0-13.657 6.114-13.657 13.657v124.333c0 7.542 6.115 13.657 13.657 13.657h73.01c7.543 0 13.657-6.115 13.657-13.657V117.405c0-7.543-6.114-13.657-13.657-13.657"/><path fill="#EBEBEB" d="M370.356 256.896h-73c-8.36 0-15.158-6.798-15.158-15.158V117.414c0-8.36 6.798-15.158 15.158-15.158h73c8.36 0 15.159 6.798 15.159 15.158v124.324c0 8.36-6.799 15.158-15.159 15.158m-73-151.647c-6.708 0-12.155 5.457-12.155 12.155v124.324c0 6.708 5.457 12.155 12.155 12.155h73c6.708 0 12.155-5.457 12.155-12.155V117.404c0-6.708-5.457-12.155-12.155-12.155z"/><path fill="#191917" d="M486.459 155.141h-62.947c-6.503 0-11.775 5.272-11.775 11.775v76.714c0 6.503 5.272 11.775 11.775 11.775h62.947c6.503 0 11.775-5.272 11.775-11.775v-76.714c0-6.503-5.272-11.775-11.775-11.775"/><path fill="#EBEBEB" d="M486.459 256.897h-62.937c-7.319 0-13.277-5.958-13.277-13.277v-76.704c0-7.319 5.958-13.277 13.277-13.277h62.937c7.319 0 13.277 5.958 13.277 13.277v76.704c0 7.319-5.958 13.277-13.277 13.277m-62.937-100.254c-5.667 0-10.273 4.606-10.273 10.273v76.704c0 5.667 4.606 10.273 10.273 10.273h62.937c5.667 0 10.273-4.606 10.273-10.273v-76.704c0-5.667-4.606-10.273-10.273-10.273z"/><path fill="#191917" d="M495.821 196.723h-16.23v-11.825c0-5.436-4.446-9.872-9.872-9.872h-29.447c-5.436 0-9.872 4.446-9.872 9.872v11.825h-16.23c-6.478 0-11.774 5.296-11.774 11.774v35.114c0 6.478 5.296 11.774 11.774 11.774h81.661c6.478 0 11.774-5.296 11.774-11.774v-35.114c0-6.478-5.296-11.774-11.774-11.774z"/><path fill="#EBEBEB" d="M495.821 256.897H414.16c-7.319 0-13.276-5.958-13.276-13.277v-35.113c0-7.319 5.957-13.276 13.276-13.276h14.728v-10.323c0-6.278 5.107-11.374 11.374-11.374h29.447c6.277 0 11.374 5.106 11.374 11.374v10.323h14.728c7.319 0 13.276 5.957 13.276 13.276v35.113c0 7.319-5.957 13.277-13.276 13.277zm-81.661-58.673c-5.667 0-10.272 4.606-10.272 10.273v35.113c0 5.667 4.605 10.273 10.272 10.273h81.661c5.667 0 10.272-4.606 10.272-10.273v-35.113c0-5.667-4.605-10.273-10.272-10.273h-16.23a1.5 1.5 0 0 1-1.502-1.501v-11.825c0-4.616-3.755-8.37-8.37-8.37h-29.447c-4.615 0-8.37 3.754-8.37 8.37v11.825a1.5 1.5 0 0 1-1.502 1.501z"/><path fill="#191917" d="M363.558 160.848h-59.403c-6.138 0-11.114 4.976-11.114 11.114v62.357c0 6.138 4.976 11.114 11.114 11.114h59.403c6.138 0 11.114-4.976 11.114-11.114v-62.357c0-6.138-4.976-11.114-11.114-11.114"/><path fill="#EBEBEB" d="M363.548 246.934h-59.403c-6.959 0-12.616-5.657-12.616-12.615v-62.347c0-6.959 5.657-12.616 12.616-12.616h59.403c6.958 0 12.615 5.657 12.615 12.616v62.347c0 6.958-5.657 12.615-12.615 12.615m-59.393-84.584c-5.297 0-9.612 4.315-9.612 9.612v62.347c0 5.296 4.315 9.612 9.612 9.612h59.403c5.296 0 9.612-4.316 9.612-9.612v-62.347c0-5.297-4.316-9.612-9.612-9.612z"/><path fill="#191917" d="M441.844 233.717h-21.666v5.417h21.666z"/><path fill="#EBEBEB" d="M441.834 240.636h-21.666a1.5 1.5 0 0 1-1.502-1.502v-5.417a1.5 1.5 0 0 1 1.502-1.501h21.666a1.5 1.5 0 0 1 1.502 1.501v5.417a1.5 1.5 0 0 1-1.502 1.502m-20.155-3.004h18.663v-2.413h-18.663z"/><path fill="#191917" d="M489.663 233.717h-21.667v5.417h21.667z"/><path fill="#EBEBEB" d="M489.663 240.636h-21.667a1.5 1.5 0 0 1-1.501-1.502v-5.417c0-.831.67-1.501 1.501-1.501h21.667a1.5 1.5 0 0 1 1.502 1.501v5.417a1.5 1.5 0 0 1-1.502 1.502m-20.165-3.004h18.663v-2.413h-18.663z"/><path fill="#191917" d="M452.277 186.078v21.667h5.417v-21.667z"/><path fill="#EBEBEB" d="M457.694 209.247h-5.417a1.5 1.5 0 0 1-1.502-1.502v-21.666a1.5 1.5 0 0 1 1.502-1.502h5.417a1.5 1.5 0 0 1 1.502 1.502v21.666a1.5 1.5 0 0 1-1.502 1.502m-3.915-3.003h2.413v-18.663h-2.413z"/><path fill="#191917" d="M338.457 103.748h-7.129a.693.693 0 0 1-.691-.691V84.514a3.594 3.594 0 0 1 3.585-3.584h1.341a3.594 3.594 0 0 1 3.585 3.584v18.543c0 .38-.311.691-.691.691"/><path fill="#EBEBEB" d="M338.457 105.25h-7.129a2.193 2.193 0 0 1-2.193-2.193V84.514a5.094 5.094 0 0 1 5.087-5.086h1.341a5.093 5.093 0 0 1 5.086 5.086v18.543a2.19 2.19 0 0 1-2.192 2.193m-6.308-3.004h5.507V84.514a2.08 2.08 0 0 0-2.083-2.082h-1.341a2.08 2.08 0 0 0-2.083 2.082z"/><path fill="#EBEBEB" d="M401.454 93.855c-8.26 0-16.39-4.746-22.287-13.186-2.273-3.244-3.995-7.31-5.827-11.614-4.125-9.712-8.4-19.775-19.174-19.605-4.485.06-9.001 2.524-11.784 6.418-4.956 6.929-6.298 17.051-5.888 24.2a1.493 1.493 0 0 1-1.411 1.582c-.831.04-1.542-.59-1.582-1.412-.431-7.67 1.031-18.553 6.448-26.122 3.384-4.726 8.68-7.6 14.187-7.68 12.816-.16 17.672 11.295 21.977 21.427 1.762 4.155 3.434 8.08 5.517 11.074 6.048 8.65 14.568 13.016 22.808 11.664 11.614-1.902 19.234-13.276 20.766-23.539.22-1.452.34-2.974.46-4.435a1.49 1.49 0 0 1 1.622-1.372c.831.07 1.442.791 1.372 1.622-.12 1.512-.25 3.084-.481 4.636-1.682 11.344-10.212 23.94-23.248 26.062a21 21 0 0 1-3.464.28z"/><path fill="#191917" d="M323.218 230.253h-21.666v5.417h21.666z"/><path fill="#EBEBEB" d="M323.218 237.172h-21.666a1.5 1.5 0 0 1-1.502-1.502v-5.417a1.5 1.5 0 0 1 1.502-1.502h21.666a1.5 1.5 0 0 1 1.502 1.502v5.417a1.5 1.5 0 0 1-1.502 1.502m-20.165-3.004h18.663v-2.413h-18.663z"/><path fill="#191917" d="M367.573 230.253h-21.667v5.417h21.667z"/><path fill="#EBEBEB" d="M367.573 237.172h-21.667a1.5 1.5 0 0 1-1.502-1.502v-5.417a1.5 1.5 0 0 1 1.502-1.502h21.667a1.5 1.5 0 0 1 1.501 1.502v5.417a1.5 1.5 0 0 1-1.501 1.502m-20.165-3.004h18.663v-2.413h-18.663z"/><path fill="#191917" d="M422.871 36.205v15.81h7.679v-15.81z"/><path fill="#EBEBEB" d="M430.56 53.526h-7.679a1.5 1.5 0 0 1-1.061-.44 1.5 1.5 0 0 1-.441-1.062v-15.81a1.5 1.5 0 0 1 1.502-1.501h7.679a1.5 1.5 0 0 1 1.502 1.502v15.809a1.5 1.5 0 0 1-1.502 1.502m-6.167-3.004h4.675V37.716h-4.675z"/><path fill="#191917" d="M421.049 42.382h11.354V55.83l-1.432 2.673v5.347h-8.01v-5.347l-1.912-2.573z"/><path fill="#EBEBEB" d="M430.971 65.35h-8.01a1.5 1.5 0 0 1-1.502-1.501v-4.846l-1.612-2.173c-.19-.26-.29-.57-.29-.891V42.392a1.5 1.5 0 0 1 1.502-1.502h11.354a1.5 1.5 0 0 1 1.501 1.502v13.457c0 .25-.06.49-.18.71l-1.251 2.343v4.966a1.5 1.5 0 0 1-1.502 1.502zm-6.508-3.003h5.006v-3.845c0-.25.06-.49.18-.711l1.252-2.343V43.874h-8.351v11.554l1.612 2.173c.191.26.291.57.291.89v3.846z"/><path fill="#191917" d="M569.261 112.188v134.856a8.36 8.36 0 0 0 8.36 8.36h94.517a8.36 8.36 0 0 0 8.36-8.36V112.188a8.36 8.36 0 0 0-8.36-8.36h-94.517a8.36 8.36 0 0 0-8.36 8.36"/><path fill="#EBEBEB" d="M672.138 256.896h-94.527c-5.436 0-9.862-4.425-9.862-9.862V112.168c0-5.437 4.426-9.862 9.862-9.862h94.527c5.436 0 9.862 4.425 9.862 9.862v134.866c0 5.437-4.426 9.862-9.862 9.862m-94.517-151.577a6.863 6.863 0 0 0-6.858 6.859v134.866a6.86 6.86 0 0 0 6.858 6.858h94.527a6.86 6.86 0 0 0 6.858-6.858V112.178a6.863 6.863 0 0 0-6.858-6.859z"/><path fill="#191917" d="M620.584 35.213v67.773a.83.83 0 0 0 .831.831h6.709a.83.83 0 0 0 .831-.831V35.213a.83.83 0 0 0-.831-.831h-6.709a.83.83 0 0 0-.831.83"/><path fill="#EBEBEB" d="M628.114 105.32h-6.709a2.336 2.336 0 0 1-2.333-2.333V35.213a2.336 2.336 0 0 1 2.333-2.333h6.709a2.335 2.335 0 0 1 2.332 2.333v67.774a2.335 2.335 0 0 1-2.332 2.333m-6.038-3.004h5.367V35.884h-5.367z"/><path fill="#191917" d="M630.707 1.502h4.986c1.131 0 2.043.911 2.043 2.042v19.064l5.566 12.735h-4.826l-5.516-13.126"/><path fill="#EBEBEB" d="M643.312 36.845h-4.826c-.6 0-1.151-.36-1.381-.92l-5.517-13.127c-.32-.76.04-1.642.801-1.962a1.5 1.5 0 0 1 1.962.8l5.127 12.206h1.532l-4.646-10.633a1.5 1.5 0 0 1-.13-.601V3.544c0-.3-.241-.54-.541-.54h-4.986a1.5 1.5 0 0 1-1.502-1.502A1.5 1.5 0 0 1 630.707 0h4.986a3.55 3.55 0 0 1 3.544 3.544v18.754l5.447 12.445a1.5 1.5 0 0 1-.12 1.421c-.28.421-.751.681-1.262.681z"/><path fill="#191917" d="M615.838 3.244V32.56c0 .961.781 1.742 1.743 1.742h13.646c.962 0 1.743-.78 1.743-1.742V3.244c0-.961-.781-1.742-1.743-1.742h-13.646c-.962 0-1.743.78-1.743 1.742"/><path fill="#EBEBEB" d="M631.227 35.804h-13.646a3.243 3.243 0 0 1-3.244-3.244V3.244A3.243 3.243 0 0 1 617.581 0h13.646a3.243 3.243 0 0 1 3.244 3.244V32.56a3.243 3.243 0 0 1-3.244 3.244m-13.646-32.8a.244.244 0 0 0-.241.24V32.56c0 .13.11.24.241.24h13.646c.131 0 .241-.11.241-.24V3.244c0-.13-.11-.24-.241-.24z"/><path fill="#EBEBEB" d="M620.685 30.738a1.5 1.5 0 0 1-1.502-1.502V17.902a1.5 1.5 0 0 1 1.502-1.502 1.5 1.5 0 0 1 1.501 1.502v11.334a1.5 1.5 0 0 1-1.501 1.502"/><path fill="#EBEBEB" d="M624.619 30.738a1.5 1.5 0 0 1-1.502-1.502V17.902a1.5 1.5 0 0 1 1.502-1.502 1.5 1.5 0 0 1 1.502 1.502v11.334a1.5 1.5 0 0 1-1.502 1.502"/><path fill="#EBEBEB" d="M628.554 30.738a1.5 1.5 0 0 1-1.502-1.502V17.902a1.5 1.5 0 0 1 1.502-1.502 1.5 1.5 0 0 1 1.502 1.502v11.334a1.5 1.5 0 0 1-1.502 1.502"/></svg>