<svg xmlns="http://www.w3.org/2000/svg" width="355" height="431" fill="none" viewBox="0 0 355 431"><path fill="#191917" d="M324.708 7.487H167.313a3.483 3.483 0 0 0-3.483 3.483v155.623a3.483 3.483 0 0 0 3.483 3.483h157.395a3.48 3.48 0 0 0 3.483-3.483V10.97a3.483 3.483 0 0 0-3.483-3.483"/><path fill="#EBEBEB" d="M324.708 171.567H167.323a4.99 4.99 0 0 1-4.984-4.984V10.97a4.99 4.99 0 0 1 4.984-4.984h157.385a4.99 4.99 0 0 1 4.984 4.984v155.613a4.99 4.99 0 0 1-4.984 4.984M167.323 8.988c-1.091 0-1.981.89-1.981 1.982v155.613c0 1.091.89 1.982 1.981 1.982h157.385a1.987 1.987 0 0 0 1.982-1.982V10.97a1.986 1.986 0 0 0-1.982-1.982z"/><path fill="#EBEBEB" d="M328.191 61.272H163.83a1.5 1.5 0 0 1-1.501-1.501 1.5 1.5 0 0 1 1.501-1.501h164.361c.831 0 1.501.67 1.501 1.5 0 .832-.67 1.502-1.501 1.502"/><path fill="#191917" d="M183.357 135.246a7.136 7.136 0 1 0 0-14.272 7.136 7.136 0 0 0 0 14.272"/><path fill="#EBEBEB" d="M183.357 136.757c-4.764 0-8.638-3.873-8.638-8.637s3.874-8.638 8.638-8.638 8.637 3.874 8.637 8.638-3.873 8.637-8.637 8.637m0-14.282a5.64 5.64 0 0 0-5.635 5.635 5.647 5.647 0 0 0 5.635 5.634 5.647 5.647 0 0 0 5.635-5.634 5.647 5.647 0 0 0-5.635-5.635"/><path fill="#191917" d="M311.797 135.246a7.136 7.136 0 1 0 0-14.272 7.136 7.136 0 0 0 0 14.272"/><path fill="#EBEBEB" d="M311.797 136.757c-4.764 0-8.637-3.873-8.637-8.637s3.873-8.638 8.637-8.638 8.637 3.874 8.637 8.638-3.873 8.637-8.637 8.637m0-14.282a5.64 5.64 0 0 0-5.635 5.635 5.647 5.647 0 0 0 5.635 5.634 5.647 5.647 0 0 0 5.635-5.634 5.647 5.647 0 0 0-5.635-5.635"/><path fill="#191917" d="M264.396 112.236h-31.477v17.194h31.477z"/><path fill="#EBEBEB" d="M264.396 130.922h-31.477a1.5 1.5 0 0 1-1.501-1.501v-17.195a1.5 1.5 0 0 1 1.501-1.501h31.477a1.5 1.5 0 0 1 1.502 1.501v17.195a1.5 1.5 0 0 1-1.502 1.501m-29.975-3.003h28.474v-14.192h-28.474z"/><path fill="#191917" d="m231.528 139.63 1.392-10.209h31.477l1.231 10.209"/><path fill="#EBEBEB" d="M231.528 141.131c-.07 0-.14 0-.21-.01a1.494 1.494 0 0 1-1.281-1.691l1.401-10.199c.1-.741.741-1.301 1.491-1.301h31.477c.761 0 1.402.57 1.492 1.321l1.231 10.199c.1.82-.491 1.571-1.311 1.671-.821.1-1.572-.49-1.672-1.311l-1.071-8.878h-28.834l-1.221 8.898a1.506 1.506 0 0 1-1.482 1.301z"/><path fill="#191917" d="m166.583 7.487 13.841-5.995h131.883l13.392 5.995z"/><path fill="#EBEBEB" d="M325.699 8.988H166.583a1.504 1.504 0 0 1-.601-2.882L179.824.12q.285-.12.6-.12h131.883c.211 0 .421.04.611.13l13.391 5.985a1.49 1.49 0 0 1 .851 1.682c-.15.69-.76 1.19-1.471 1.19zm-151.86-3.003h144.834l-6.676-2.982H180.745l-6.896 2.982z"/><path fill="#EBEBEB" d="M307.263 135.125c-.36 0-.71-.13-1.001-.38a1.504 1.504 0 0 1-.12-2.122l9.518-10.629a1.503 1.503 0 1 1 2.242 2.002l-9.518 10.629c-.3.33-.71.5-1.121.5"/><path fill="#EBEBEB" d="M178.823 135.125c-.36 0-.71-.13-1.001-.38a1.504 1.504 0 0 1-.12-2.122l9.518-10.629a1.503 1.503 0 1 1 2.242 2.002l-9.518 10.629c-.3.33-.71.5-1.121.5"/><path fill="#191917" d="m184.758 331.003 17.135-107.582a6.51 6.51 0 0 1 6.436-5.484h79.408a8.045 8.045 0 0 1 7.946 6.795l16.234 103.799"/><path fill="#EBEBEB" d="M184.758 332.505c-.08 0-.16 0-.24-.02a1.505 1.505 0 0 1-1.251-1.721l17.135-107.583a7.98 7.98 0 0 1 7.916-6.755h79.408a9.494 9.494 0 0 1 9.429 8.067l16.233 103.798a1.49 1.49 0 0 1-1.251 1.712 1.49 1.49 0 0 1-1.711-1.251l-16.234-103.799a6.5 6.5 0 0 0-6.456-5.525h-79.408a4.98 4.98 0 0 0-4.944 4.224L186.25 331.234a1.5 1.5 0 0 1-1.482 1.261z"/><path fill="#191917" d="M306.883 325.389h-116.52a5.605 5.605 0 0 0-5.605 5.605v20.047a5.606 5.606 0 0 0 5.605 5.605h116.52a5.606 5.606 0 0 0 5.605-5.605v-20.047a5.605 5.605 0 0 0-5.605-5.605"/><path fill="#EBEBEB" d="M306.883 358.157h-116.52c-3.923 0-7.106-3.193-7.106-7.106v-20.047c0-3.924 3.193-7.106 7.106-7.106h116.52c3.923 0 7.106 3.192 7.106 7.106v20.047c0 3.923-3.193 7.106-7.106 7.106m-116.52-31.267a4.11 4.11 0 0 0-4.103 4.104v20.047a4.11 4.11 0 0 0 4.103 4.103h116.52a4.11 4.11 0 0 0 4.103-4.103v-20.047a4.11 4.11 0 0 0-4.103-4.104z"/><path fill="#191917" d="M275.336 351.781h17.105v-18.726h-17.105z"/><path fill="#EBEBEB" d="M292.441 353.292h-17.105a1.5 1.5 0 0 1-1.501-1.501v-18.726c0-.401.16-.781.44-1.061.28-.281.661-.441 1.061-.441h17.105a1.5 1.5 0 0 1 1.501 1.502v18.726c0 .4-.16.78-.441 1.06-.28.281-.66.441-1.06.441m-15.604-3.003h14.102v-15.723h-14.102z"/><path fill="#191917" d="M277.658 333.065h12.471v-1.472h-12.471z"/><path fill="#EBEBEB" d="M290.129 334.566h-12.471a1.5 1.5 0 0 1-1.501-1.501v-1.471a1.5 1.5 0 0 1 1.501-1.502h12.471c.4 0 .78.16 1.061.441.28.28.44.66.44 1.061v1.471a1.5 1.5 0 0 1-1.501 1.501"/><path fill="#191917" d="M286.986 351.791v-21.538h-6.206v21.538z"/><path fill="#EBEBEB" d="M286.996 353.292h-6.205a1.5 1.5 0 0 1-1.502-1.501v-21.538c0-.401.16-.781.441-1.061.28-.281.66-.441 1.061-.441h6.205a1.5 1.5 0 0 1 1.501 1.502v21.538a1.5 1.5 0 0 1-1.501 1.501m-4.704-3.002h3.203v-18.536h-3.203z"/><path fill="#191917" d="M288.908 346.346h-10.029v2.232h10.029z"/><path fill="#EBEBEB" d="M288.908 344.845h-10.029c-.829 0-1.501.672-1.501 1.501v2.232c0 .83.672 1.502 1.501 1.502h10.029c.829 0 1.501-.672 1.501-1.502v-2.232c0-.829-.672-1.501-1.501-1.501"/><path fill="#191917" d="M233.26 334.196h-28.044a2.45 2.45 0 0 0-2.452 2.452v8.738a2.45 2.45 0 0 0 2.452 2.452h28.044a2.45 2.45 0 0 0 2.452-2.452v-8.738a2.45 2.45 0 0 0-2.452-2.452"/><path fill="#EBEBEB" d="M233.26 349.349h-28.044a3.955 3.955 0 0 1-3.954-3.953v-8.748a3.956 3.956 0 0 1 3.954-3.953h28.044a3.955 3.955 0 0 1 3.953 3.953v8.748a3.955 3.955 0 0 1-3.953 3.953m-28.044-13.651a.963.963 0 0 0-.951.95v8.748c0 .51.43.951.951.951h28.044c.51 0 .951-.431.951-.951v-8.748c0-.51-.431-.95-.951-.95z"/><path fill="#EBEBEB" d="M248.623 219.428a1.5 1.5 0 0 1-1.501-1.502v-37.051a1.5 1.5 0 0 1 1.501-1.502 1.5 1.5 0 0 1 1.501 1.502v37.051a1.5 1.5 0 0 1-1.501 1.502"/><path fill="#191917" d="M254.358 149.588h4.824c1.091 0 1.982.891 1.982 1.982v18.446l5.384 12.32h-4.674l-5.334-12.701"/><path fill="#EBEBEB" d="M266.548 183.837h-4.674c-.6 0-1.151-.36-1.381-.92l-5.335-12.701c-.32-.761.04-1.642.801-1.962s1.642.04 1.962.801l4.944 11.78h1.381l-4.464-10.219a1.5 1.5 0 0 1-.13-.6V151.57c0-.26-.21-.481-.48-.481h-4.824a1.5 1.5 0 0 1-1.502-1.501 1.5 1.5 0 0 1 1.502-1.501h4.824a3.485 3.485 0 0 1 3.483 3.483v18.125l5.264 12.031c.201.46.16 1-.12 1.421-.28.42-.75.68-1.261.68z"/><path fill="#191917" d="M239.976 151.279v28.355c0 .93.75 1.681 1.681 1.681h13.201a1.68 1.68 0 0 0 1.682-1.681v-28.355c0-.931-.751-1.681-1.682-1.681h-13.201c-.931 0-1.681.75-1.681 1.681"/><path fill="#EBEBEB" d="M254.858 182.816h-13.201a3.184 3.184 0 0 1-3.183-3.182v-28.355a3.184 3.184 0 0 1 3.183-3.182h13.201a3.184 3.184 0 0 1 3.183 3.182v28.355a3.19 3.19 0 0 1-3.183 3.182m-13.201-31.727c-.1 0-.18.08-.18.18v28.355c0 .1.08.18.18.18h13.201c.1 0 .18-.08.18-.18v-28.355c0-.1-.08-.18-.18-.18z"/><path fill="#EBEBEB" d="M244.67 177.912a1.5 1.5 0 0 1-1.502-1.501v-10.96a1.5 1.5 0 0 1 1.502-1.501 1.5 1.5 0 0 1 1.501 1.501v10.96a1.5 1.5 0 0 1-1.501 1.501"/><path fill="#EBEBEB" d="M248.473 177.912a1.5 1.5 0 0 1-1.501-1.501v-10.96a1.5 1.5 0 0 1 1.501-1.501 1.5 1.5 0 0 1 1.501 1.501v10.96a1.5 1.5 0 0 1-1.501 1.501"/><path fill="#EBEBEB" d="M252.266 177.912a1.5 1.5 0 0 1-1.501-1.501v-10.96a1.5 1.5 0 0 1 1.501-1.501 1.5 1.5 0 0 1 1.501 1.501v10.96a1.5 1.5 0 0 1-1.501 1.501"/><path fill="#191917" d="M127.84 270.331H18.496c-9.38 0-16.985 7.604-16.985 16.985v58.149c0 9.381 7.605 16.985 16.985 16.985H127.84c9.38 0 16.984-7.604 16.984-16.985v-58.149c0-9.381-7.604-16.985-16.984-16.985"/><path fill="#EBEBEB" d="M127.829 363.951H18.486C8.287 363.951 0 355.654 0 345.465v-58.149c0-10.199 8.297-18.486 18.486-18.486h109.343c10.199 0 18.486 8.297 18.486 18.486v58.149c0 10.199-8.297 18.486-18.486 18.486M18.496 271.832c-8.537 0-15.483 6.946-15.483 15.484v58.149c0 8.538 6.946 15.484 15.483 15.484h109.343c8.538 0 15.484-6.946 15.484-15.484v-58.149c0-8.538-6.946-15.484-15.484-15.484z"/><path fill="#191917" d="M121.784 332.254V144.473c0-12.791-10.368-23.149-23.15-23.149H46.98c-11.95 0-21.638 9.688-21.638 21.638v189.292a7.96 7.96 0 0 0 7.957 7.957h80.529a7.957 7.957 0 0 0 7.956-7.957"/><path fill="#EBEBEB" d="M113.818 341.722h-80.53c-5.214 0-9.457-4.243-9.457-9.458V142.972c0-12.761 10.378-23.14 23.14-23.14h51.654c13.591 0 24.651 11.06 24.651 24.651v187.781c0 5.215-4.244 9.458-9.458 9.458M46.97 122.825c-11.11 0-20.137 9.037-20.137 20.137v189.292a6.46 6.46 0 0 0 6.456 6.456h80.529a6.46 6.46 0 0 0 6.455-6.456V144.473c0-11.94-9.708-21.648-21.648-21.648z"/><path fill="#191917" d="M40.155 125.867v-13.191a4.406 4.406 0 0 1 4.393-4.394 4.406 4.406 0 0 1 4.394 4.394v13.191"/><path fill="#EBEBEB" d="M48.932 127.369a1.5 1.5 0 0 1-1.501-1.502v-13.191a2.9 2.9 0 0 0-2.893-2.893 2.9 2.9 0 0 0-2.892 2.893v13.191a1.5 1.5 0 0 1-1.501 1.502 1.5 1.5 0 0 1-1.502-1.502v-13.191a5.9 5.9 0 0 1 5.895-5.895 5.9 5.9 0 0 1 5.895 5.895v13.191a1.5 1.5 0 0 1-1.501 1.502"/><path fill="#191917" d="M121.784 339.57V151.789c0-12.791-10.368-23.15-23.15-23.15H46.98c-11.95 0-21.638 9.689-21.638 21.639V339.57a7.96 7.96 0 0 0 7.957 7.957h80.529a7.957 7.957 0 0 0 7.956-7.957"/><path fill="#EBEBEB" d="M113.818 349.028h-80.53c-5.214 0-9.457-4.243-9.457-9.458V150.278c0-12.761 10.378-23.14 23.14-23.14h51.654c13.591 0 24.651 11.06 24.651 24.651V339.57c0 5.215-4.244 9.458-9.458 9.458M46.97 130.141c-11.11 0-20.137 9.037-20.137 20.137V339.57a6.46 6.46 0 0 0 6.456 6.456h80.529a6.46 6.46 0 0 0 6.455-6.456V151.789c0-11.94-9.708-21.648-21.648-21.648z"/><path fill="#191917" d="M105.29 151.55H41.816a3.633 3.633 0 0 0-3.633 3.633v32.778a3.633 3.633 0 0 0 3.633 3.633h63.474a3.633 3.633 0 0 0 3.633-3.633v-32.778a3.63 3.63 0 0 0-3.633-3.633"/><path fill="#EBEBEB" d="M105.29 193.105H41.816a5.14 5.14 0 0 1-5.134-5.134v-32.778a5.14 5.14 0 0 1 5.134-5.135h63.474a5.14 5.14 0 0 1 5.135 5.135v32.778a5.14 5.14 0 0 1-5.135 5.134m-63.474-40.054a2.14 2.14 0 0 0-2.132 2.132v32.778a2.14 2.14 0 0 0 2.132 2.131h63.474a2.14 2.14 0 0 0 2.132-2.131v-32.778a2.14 2.14 0 0 0-2.132-2.132z"/><path fill="#191917" d="M82.64 140.17H64.476a1.55 1.55 0 1 0 0 3.103h18.166a1.552 1.552 0 0 0 0-3.103"/><path fill="#EBEBEB" d="M82.64 144.774H64.466a3.06 3.06 0 0 1-3.052-3.053 3.06 3.06 0 0 1 3.052-3.052h18.176a3.06 3.06 0 0 1 3.052 3.052 3.06 3.06 0 0 1-3.052 3.053m-18.165-3.103v.1h18.176z"/><path fill="#191917" d="M73.553 222.67c5.876 0 10.64-4.763 10.64-10.639s-4.764-10.639-10.64-10.639-10.639 4.763-10.639 10.639 4.763 10.639 10.64 10.639"/><path fill="#EBEBEB" d="M73.553 224.172c-6.696 0-12.14-5.445-12.14-12.141s5.444-12.14 12.14-12.14 12.14 5.445 12.14 12.14-5.444 12.141-12.14 12.141m0-21.279c-5.034 0-9.138 4.094-9.138 9.138 0 5.045 4.094 9.138 9.138 9.138s9.138-4.093 9.138-9.138c0-5.044-4.094-9.138-9.138-9.138"/><path fill="#191917" d="M100.226 201.392h6.686c1.11 0 2.011.901 2.011 2.012v4.314a2.01 2.01 0 0 1-2.011 2.011h-6.686a4.166 4.166 0 0 1-4.164-4.163 4.167 4.167 0 0 1 4.164-4.164z"/><path fill="#EBEBEB" d="M106.912 211.23h-6.686a5.67 5.67 0 0 1-5.665-5.664 5.67 5.67 0 0 1 5.665-5.665h6.686a3.52 3.52 0 0 1 3.513 3.513v4.313a3.52 3.52 0 0 1-3.513 3.513zm-6.686-8.337a2.66 2.66 0 0 0-2.662 2.663 2.66 2.66 0 0 0 2.662 2.662h6.686c.28 0 .51-.23.51-.511v-4.313a.51.51 0 0 0-.51-.511h-6.686z"/><path fill="#191917" d="M100.226 214.453h6.726c1.091 0 1.971.881 1.971 1.972v4.384c0 1.091-.88 1.971-1.971 1.971h-6.726a4.166 4.166 0 0 1-4.164-4.163 4.167 4.167 0 0 1 4.164-4.164"/><path fill="#EBEBEB" d="M106.952 224.282h-6.726a5.673 5.673 0 0 1-5.665-5.665 5.67 5.67 0 0 1 5.665-5.665h6.726a3.48 3.48 0 0 1 3.473 3.473v4.384a3.48 3.48 0 0 1-3.473 3.473m-6.726-8.328a2.66 2.66 0 0 0-2.662 2.663 2.66 2.66 0 0 0 2.662 2.662h6.726c.26 0 .47-.22.47-.47v-4.384c0-.26-.22-.471-.47-.471z"/><path fill="#191917" d="M40.815 201.392h6.776a4.167 4.167 0 0 1 4.163 4.164 4.166 4.166 0 0 1-4.163 4.163h-6.776c-1.111 0-2.012-.9-2.012-2.011v-4.304c0-1.111.901-2.012 2.012-2.012"/><path fill="#EBEBEB" d="M47.59 211.23h-6.775a3.517 3.517 0 0 1-3.513-3.513v-4.303a3.517 3.517 0 0 1 3.513-3.513h6.776a5.67 5.67 0 0 1 5.665 5.665 5.67 5.67 0 0 1-5.665 5.664m-6.775-8.337c-.28 0-.51.23-.51.511v4.303c0 .281.23.511.51.511h6.776a2.66 2.66 0 0 0 2.662-2.662 2.66 2.66 0 0 0-2.662-2.663z"/><path fill="#191917" d="M40.815 214.453h6.776a4.167 4.167 0 0 1 4.163 4.164 4.167 4.167 0 0 1-4.163 4.164h-6.776a2.01 2.01 0 0 1-2.012-2.012v-4.314c0-1.111.901-2.012 2.012-2.012z"/><path fill="#EBEBEB" d="M47.59 224.282h-6.775a3.517 3.517 0 0 1-3.513-3.513v-4.314a3.52 3.52 0 0 1 3.513-3.513h6.776a5.67 5.67 0 0 1 5.665 5.665 5.67 5.67 0 0 1-5.665 5.665zm-6.775-8.327c-.28 0-.51.23-.51.51v4.314c0 .28.23.51.51.51h6.776a2.661 2.661 0 1 0 0-5.324h-6.776z"/><path fill="#191917" d="M55.568 236.312H43.017a4.213 4.213 0 0 0-4.214 4.213v9.058a4.214 4.214 0 0 0 4.214 4.214h12.55a4.214 4.214 0 0 0 4.214-4.214v-9.058a4.213 4.213 0 0 0-4.213-4.213"/><path fill="#EBEBEB" d="M55.568 255.298H43.017a5.72 5.72 0 0 1-5.715-5.715v-9.058a5.72 5.72 0 0 1 5.715-5.715h12.55a5.72 5.72 0 0 1 5.715 5.715v9.058a5.72 5.72 0 0 1-5.714 5.715m-12.551-17.485a2.72 2.72 0 0 0-2.713 2.712v9.058a2.72 2.72 0 0 0 2.713 2.712h12.55a2.72 2.72 0 0 0 2.713-2.712v-9.058a2.72 2.72 0 0 0-2.712-2.712z"/><path fill="#191917" d="M80.139 236.312H67.588a4.213 4.213 0 0 0-4.214 4.213v9.058a4.214 4.214 0 0 0 4.214 4.214h12.55a4.214 4.214 0 0 0 4.214-4.214v-9.058a4.213 4.213 0 0 0-4.213-4.213"/><path fill="#EBEBEB" d="M80.139 255.298H67.588a5.72 5.72 0 0 1-5.715-5.715v-9.058a5.72 5.72 0 0 1 5.715-5.715h12.55a5.72 5.72 0 0 1 5.716 5.715v9.058a5.72 5.72 0 0 1-5.715 5.715m-12.551-17.485a2.72 2.72 0 0 0-2.712 2.712v9.058a2.72 2.72 0 0 0 2.712 2.712h12.55a2.72 2.72 0 0 0 2.713-2.712v-9.058a2.72 2.72 0 0 0-2.712-2.712z"/><path fill="#191917" d="M104.72 236.312H92.17a4.213 4.213 0 0 0-4.215 4.213v9.058a4.214 4.214 0 0 0 4.214 4.214h12.551a4.214 4.214 0 0 0 4.213-4.214v-9.058a4.213 4.213 0 0 0-4.213-4.213"/><path fill="#EBEBEB" d="M104.71 255.298H92.16a5.72 5.72 0 0 1-5.716-5.715v-9.058a5.72 5.72 0 0 1 5.715-5.715h12.551a5.72 5.72 0 0 1 5.715 5.715v9.058a5.72 5.72 0 0 1-5.715 5.715m-12.54-17.485a2.72 2.72 0 0 0-2.713 2.712v9.058a2.72 2.72 0 0 0 2.712 2.712h12.551a2.72 2.72 0 0 0 2.712-2.712v-9.058a2.72 2.72 0 0 0-2.712-2.712z"/><path fill="#191917" d="M55.568 257.19H43.017a4.213 4.213 0 0 0-4.214 4.214v9.057a4.214 4.214 0 0 0 4.214 4.214h12.55a4.214 4.214 0 0 0 4.214-4.214v-9.057a4.213 4.213 0 0 0-4.213-4.214"/><path fill="#EBEBEB" d="M55.568 276.176H43.017a5.72 5.72 0 0 1-5.715-5.715v-9.057a5.72 5.72 0 0 1 5.715-5.715h12.55a5.72 5.72 0 0 1 5.715 5.715v9.057a5.72 5.72 0 0 1-5.714 5.715m-12.551-17.485a2.72 2.72 0 0 0-2.713 2.713v9.057a2.72 2.72 0 0 0 2.713 2.713h12.55a2.72 2.72 0 0 0 2.713-2.713v-9.057a2.72 2.72 0 0 0-2.712-2.713z"/><path fill="#191917" d="M80.139 257.19H67.588a4.213 4.213 0 0 0-4.214 4.214v9.057a4.214 4.214 0 0 0 4.214 4.214h12.55a4.214 4.214 0 0 0 4.214-4.214v-9.057a4.213 4.213 0 0 0-4.213-4.214"/><path fill="#EBEBEB" d="M80.139 276.176H67.588a5.72 5.72 0 0 1-5.715-5.715v-9.057a5.72 5.72 0 0 1 5.715-5.715h12.55a5.72 5.72 0 0 1 5.716 5.715v9.057a5.72 5.72 0 0 1-5.715 5.715m-12.551-17.485a2.72 2.72 0 0 0-2.712 2.713v9.057a2.72 2.72 0 0 0 2.712 2.713h12.55a2.72 2.72 0 0 0 2.713-2.713v-9.057a2.72 2.72 0 0 0-2.712-2.713z"/><path fill="#191917" d="M104.72 257.19H92.17a4.213 4.213 0 0 0-4.215 4.214v9.057a4.214 4.214 0 0 0 4.214 4.214h12.551a4.214 4.214 0 0 0 4.213-4.214v-9.057a4.213 4.213 0 0 0-4.213-4.214"/><path fill="#EBEBEB" d="M104.71 276.176H92.16a5.72 5.72 0 0 1-5.716-5.715v-9.057a5.72 5.72 0 0 1 5.715-5.715h12.551a5.72 5.72 0 0 1 5.715 5.715v9.057a5.72 5.72 0 0 1-5.715 5.715m-12.54-17.485a2.72 2.72 0 0 0-2.713 2.713v9.057a2.72 2.72 0 0 0 2.712 2.713h12.551a2.72 2.72 0 0 0 2.712-2.713v-9.057a2.72 2.72 0 0 0-2.712-2.713z"/><path fill="#191917" d="M55.568 278.078H43.017a4.213 4.213 0 0 0-4.214 4.214v9.057a4.214 4.214 0 0 0 4.214 4.214h12.55a4.214 4.214 0 0 0 4.214-4.214v-9.057a4.213 4.213 0 0 0-4.213-4.214"/><path fill="#EBEBEB" d="M55.568 297.064H43.017a5.72 5.72 0 0 1-5.715-5.715v-9.057a5.72 5.72 0 0 1 5.715-5.715h12.55a5.72 5.72 0 0 1 5.715 5.715v9.057a5.72 5.72 0 0 1-5.714 5.715m-12.551-17.485a2.72 2.72 0 0 0-2.713 2.713v9.057a2.72 2.72 0 0 0 2.713 2.713h12.55a2.72 2.72 0 0 0 2.713-2.713v-9.057a2.72 2.72 0 0 0-2.712-2.713z"/><path fill="#191917" d="M80.139 278.078H67.588a4.213 4.213 0 0 0-4.214 4.214v9.057a4.214 4.214 0 0 0 4.214 4.214h12.55a4.214 4.214 0 0 0 4.214-4.214v-9.057a4.213 4.213 0 0 0-4.213-4.214"/><path fill="#EBEBEB" d="M80.139 297.064H67.588a5.72 5.72 0 0 1-5.715-5.715v-9.057a5.72 5.72 0 0 1 5.715-5.715h12.55a5.72 5.72 0 0 1 5.716 5.715v9.057a5.72 5.72 0 0 1-5.715 5.715m-12.551-17.485a2.72 2.72 0 0 0-2.712 2.713v9.057a2.72 2.72 0 0 0 2.712 2.713h12.55a2.72 2.72 0 0 0 2.713-2.713v-9.057a2.72 2.72 0 0 0-2.712-2.713z"/><path fill="#191917" d="M104.72 278.078H92.17a4.213 4.213 0 0 0-4.215 4.214v9.057a4.214 4.214 0 0 0 4.214 4.214h12.551a4.214 4.214 0 0 0 4.213-4.214v-9.057a4.213 4.213 0 0 0-4.213-4.214"/><path fill="#EBEBEB" d="M104.71 297.064H92.16a5.72 5.72 0 0 1-5.716-5.715v-9.057a5.72 5.72 0 0 1 5.715-5.715h12.551a5.72 5.72 0 0 1 5.715 5.715v9.057a5.72 5.72 0 0 1-5.715 5.715m-12.54-17.485a2.72 2.72 0 0 0-2.713 2.713v9.057a2.72 2.72 0 0 0 2.712 2.713h12.551a2.72 2.72 0 0 0 2.712-2.713v-9.057a2.72 2.72 0 0 0-2.712-2.713z"/><path fill="#191917" d="M55.568 298.965H43.017a4.214 4.214 0 0 0-4.214 4.214v9.057a4.213 4.213 0 0 0 4.214 4.214h12.55a4.213 4.213 0 0 0 4.214-4.214v-9.057a4.214 4.214 0 0 0-4.213-4.214"/><path fill="#EBEBEB" d="M55.568 317.951H43.017a5.72 5.72 0 0 1-5.715-5.715v-9.057a5.72 5.72 0 0 1 5.715-5.715h12.55a5.72 5.72 0 0 1 5.715 5.715v9.057a5.72 5.72 0 0 1-5.714 5.715m-12.551-17.485a2.72 2.72 0 0 0-2.713 2.713v9.057a2.72 2.72 0 0 0 2.713 2.713h12.55a2.72 2.72 0 0 0 2.713-2.713v-9.057a2.72 2.72 0 0 0-2.712-2.713z"/><path fill="#191917" d="M80.139 298.965H67.588a4.214 4.214 0 0 0-4.214 4.214v9.057a4.213 4.213 0 0 0 4.214 4.214h12.55a4.213 4.213 0 0 0 4.214-4.214v-9.057a4.214 4.214 0 0 0-4.213-4.214"/><path fill="#EBEBEB" d="M80.139 317.951H67.588a5.72 5.72 0 0 1-5.715-5.715v-9.057a5.72 5.72 0 0 1 5.715-5.715h12.55a5.72 5.72 0 0 1 5.716 5.715v9.057a5.72 5.72 0 0 1-5.715 5.715m-12.551-17.485a2.72 2.72 0 0 0-2.712 2.713v9.057a2.72 2.72 0 0 0 2.712 2.713h12.55a2.72 2.72 0 0 0 2.713-2.713v-9.057a2.72 2.72 0 0 0-2.712-2.713z"/><path fill="#191917" d="M104.72 298.965H92.17a4.214 4.214 0 0 0-4.215 4.214v9.057a4.213 4.213 0 0 0 4.214 4.214h12.551a4.213 4.213 0 0 0 4.213-4.214v-9.057a4.214 4.214 0 0 0-4.213-4.214"/><path fill="#EBEBEB" d="M104.71 317.951H92.16a5.72 5.72 0 0 1-5.716-5.715v-9.057a5.72 5.72 0 0 1 5.715-5.715h12.551a5.72 5.72 0 0 1 5.715 5.715v9.057a5.72 5.72 0 0 1-5.715 5.715m-12.54-17.485a2.72 2.72 0 0 0-2.713 2.713v9.057a2.72 2.72 0 0 0 2.712 2.713h12.551a2.72 2.72 0 0 0 2.712-2.713v-9.057a2.72 2.72 0 0 0-2.712-2.713z"/><path fill="#191917" d="M126.358 335.098H19.968v14.612h106.39z"/><path fill="#EBEBEB" d="M126.358 351.211H19.968c-.832 0-1.502-.67-1.502-1.501v-14.612a1.5 1.5 0 0 1 1.501-1.502h106.391a1.5 1.5 0 0 1 1.501 1.502v14.612c0 .831-.67 1.501-1.501 1.501m-104.89-3.002h103.389v-11.61H21.468z"/><path fill="#EBEBEB" d="M129.381 336.599H17.725a1.5 1.5 0 0 1-1.501-1.501 1.5 1.5 0 0 1 1.501-1.502h111.656a1.5 1.5 0 0 1 1.501 1.502 1.5 1.5 0 0 1-1.501 1.501"/><path fill="#55008F" d="M25.332 327.561v7.536h-7.607z"/><path fill="#EBEBEB" d="M25.332 336.599h-7.607c-.61 0-1.16-.371-1.391-.931-.23-.561-.1-1.211.33-1.642l7.607-7.536a1.49 1.49 0 0 1 1.631-.32c.56.23.921.78.921 1.381v7.536c0 .831-.67 1.501-1.501 1.501zm-3.954-3.003h2.452v-2.432z"/><path fill="#55008F" d="M25.332 327.561v7.536h-7.607z"/><path fill="#EBEBEB" d="M25.332 336.599h-7.607c-.61 0-1.16-.371-1.391-.931-.23-.561-.1-1.211.33-1.642l7.607-7.536a1.49 1.49 0 0 1 1.631-.32c.56.23.921.78.921 1.381v7.536c0 .831-.67 1.501-1.501 1.501zm-3.954-3.003h2.452v-2.432z"/><path fill="#55008F" d="M121.724 327.561v7.536h7.597z"/><path fill="#EBEBEB" d="M129.321 336.598h-7.607a1.5 1.5 0 0 1-1.501-1.501v-7.536c0-.611.36-1.151.921-1.382.56-.23 1.201-.11 1.631.321l7.607 7.536a1.505 1.505 0 0 1-1.061 2.572zm-6.095-3.002h2.452l-2.452-2.432z"/><path fill="#191917" d="M210.961 342.473v28.355c0 .93.75 1.681 1.681 1.681h13.201a1.68 1.68 0 0 0 1.682-1.681v-28.355a1.68 1.68 0 0 0-1.682-1.681h-13.201c-.931 0-1.681.751-1.681 1.681"/><path fill="#EBEBEB" d="M225.843 374.01h-13.201a3.185 3.185 0 0 1-3.183-3.182v-28.355a3.19 3.19 0 0 1 3.183-3.182h13.201a3.184 3.184 0 0 1 3.183 3.182v28.355a3.184 3.184 0 0 1-3.183 3.182m-13.381-31.537v28.355c0 .1.08.18.18.18h13.201a.18.18 0 0 0 .181-.18v-28.355c0-.1-.08-.18-.181-.18h-13.201c-.1 0-.18.08-.18.18"/><path fill="#EBEBEB" d="M215.645 369.116a1.5 1.5 0 0 1-1.502-1.502v-10.959a1.5 1.5 0 0 1 1.502-1.501 1.5 1.5 0 0 1 1.501 1.501v10.959a1.5 1.5 0 0 1-1.501 1.502"/><path fill="#EBEBEB" d="M219.448 369.116a1.5 1.5 0 0 1-1.501-1.502v-10.959c0-.831.67-1.501 1.501-1.501s1.501.67 1.501 1.501v10.959a1.5 1.5 0 0 1-1.501 1.502"/><path fill="#EBEBEB" d="M223.251 369.116a1.5 1.5 0 0 1-1.501-1.502v-10.959a1.5 1.5 0 0 1 1.501-1.501 1.5 1.5 0 0 1 1.502 1.501v10.959a1.5 1.5 0 0 1-1.502 1.502"/><path fill="#EBEBEB" d="M161.539 431c-32.558 0-59.041-26.483-59.041-59.041v-9.508h3.003v9.508c0 30.897 25.141 56.038 56.038 56.038s56.038-25.141 56.038-56.038h3.002c0 32.558-26.483 59.041-59.04 59.041"/><path fill="#191917" d="M353.373 424.804h-32.068c-22.999 0-41.635-18.646-41.635-41.636h7.406c0 18.906 15.323 34.229 34.229 34.229h32.068"/><path fill="#EBEBEB" d="M353.373 426.305h-32.068c-23.79 0-43.137-19.347-43.137-43.137a1.5 1.5 0 0 1 1.502-1.501h7.406c.831 0 1.501.67 1.501 1.501 0 18.045 14.683 32.728 32.728 32.728h32.068a1.5 1.5 0 0 1 1.501 1.501 1.5 1.5 0 0 1-1.501 1.502h-32.068c-19.196 0-34.91-15.223-35.7-34.23h-4.404c.791 21.439 18.476 38.633 40.104 38.633h32.068a1.5 1.5 0 0 1 1.501 1.502 1.5 1.5 0 0 1-1.501 1.501"/><path fill="#191917" d="M287.937 361.64h3.573c.81 0 1.471.66 1.471 1.471v13.672l3.993 9.138h-3.463l-4.043-9.218h-12.04"/><path fill="#EBEBEB" d="M296.974 387.412h-3.463c-.6 0-1.131-.35-1.371-.901l-3.653-8.327h-11.059a1.5 1.5 0 0 1-1.502-1.501 1.5 1.5 0 0 1 1.502-1.501h12.04c.6 0 1.131.35 1.371.9l3.653 8.328h.19l-3.072-7.036a1.6 1.6 0 0 1-.13-.601v-13.672l-3.543.03a1.5 1.5 0 0 1-1.502-1.501 1.5 1.5 0 0 1 1.502-1.501h3.573a2.97 2.97 0 0 1 2.972 2.972v13.362l3.873 8.847a1.5 1.5 0 0 1-.12 1.422c-.28.42-.75.68-1.261.68"/><path fill="#191917" d="M277.268 362.891v21.028c0 .69.56 1.251 1.251 1.251h9.788c.691 0 1.251-.561 1.251-1.251v-21.028a1.25 1.25 0 0 0-1.251-1.251h-9.788a1.25 1.25 0 0 0-1.251 1.251"/><path fill="#EBEBEB" d="M288.307 386.661h-9.788a2.75 2.75 0 0 1-2.753-2.752v-21.028a2.75 2.75 0 0 1 2.753-2.752h9.788a2.75 2.75 0 0 1 2.752 2.752v21.028a2.75 2.75 0 0 1-2.752 2.752m-9.538-3.002h9.288v-20.528h-9.288z"/><path fill="#191917" d="M285.675 362.05v6.806h-4.524v-6.806"/><path fill="#EBEBEB" d="M285.675 370.357h-4.524c-.831 0-1.501-.67-1.501-1.501v-6.806a1.5 1.5 0 0 1 1.501-1.501 1.5 1.5 0 0 1 1.501 1.501v5.305h1.522v-5.305a1.5 1.5 0 0 1 1.501-1.501 1.5 1.5 0 0 1 1.501 1.501v6.806c0 .831-.67 1.501-1.501 1.501"/></svg>