<svg xmlns="http://www.w3.org/2000/svg" width="434" height="345" fill="none" viewBox="0 0 434 345"><path fill="#191917" d="M54.185 319.424H42.397a.96.96 0 0 0-.96.96v22.154c0 .531.43.961.96.961h11.788c.53 0 .96-.43.96-.961v-22.154a.96.96 0 0 0-.96-.96"/><path fill="#EBEBEB" d="M54.185 345H42.397a2.46 2.46 0 0 1-2.462-2.462v-22.154a2.46 2.46 0 0 1 2.462-2.461h11.788a2.46 2.46 0 0 1 2.461 2.461v22.154A2.46 2.46 0 0 1 54.184 345m-11.248-3.002h10.707v-21.073H42.937z"/><path fill="#191917" d="M385.306 319.424h-13.129a1.01 1.01 0 0 0-1.01 1.01v22.054a1.01 1.01 0 0 0 1.01 1.011h13.129a1.01 1.01 0 0 0 1.01-1.011v-22.054a1.01 1.01 0 0 0-1.01-1.01"/><path fill="#EBEBEB" d="M385.306 345h-13.129a2.52 2.52 0 0 1-2.511-2.512v-22.054a2.52 2.52 0 0 1 2.511-2.511h13.129a2.52 2.52 0 0 1 2.511 2.511v22.054a2.52 2.52 0 0 1-2.511 2.512m-12.638-3.002h12.147v-21.073h-12.147z"/><path fill="#191917" d="M392.53 1.501H40.836c-21.719 0-39.325 17.606-39.325 39.325v255.473c0 21.719 17.606 39.325 39.325 39.325H392.53c21.719 0 39.325-17.606 39.325-39.325V40.826c0-21.719-17.606-39.325-39.325-39.325"/><path fill="#EBEBEB" d="M392.53 337.125H40.826C18.322 337.125 0 318.813 0 296.299V40.826C0 18.322 18.312 0 40.826 0H392.53c22.505 0 40.826 18.312 40.826 40.826v255.483c0 22.504-18.311 40.826-40.826 40.826zM40.826 3.002c-20.853 0-37.824 16.97-37.824 37.824v255.483c0 20.853 16.97 37.824 37.824 37.824H392.53c20.854 0 37.824-16.971 37.824-37.824V40.826c0-20.853-16.97-37.824-37.824-37.824z"/></svg>