<svg xmlns="http://www.w3.org/2000/svg" width="168" height="50" fill="none" viewBox="0 0 168 50"><g clip-path="url(#a)"><path fill="#FCFBF2" d="M47.878 24.606c5.731 0 9.694-4.166 9.694-9.81V.395h-7.99V14.96c0 1.28-.721 1.968-1.704 1.968-.982 0-1.703-.689-1.703-1.968V.394h-7.99v14.403c0 5.643 3.962 9.81 9.693 9.81M0 39.928c0 5.38 4.52 9.678 9.792 9.678h11.2c5.272 0 9.792-4.298 9.792-9.678V25.656h-7.991v14.698c0 1.28-.72 1.969-1.703 1.969-.982 0-1.703-.69-1.703-1.969V25.656h-7.99v14.698c0 1.28-.721 1.969-1.703 1.969s-1.703-.69-1.703-1.969V25.656H0zm39.593 2.835c0 1.181.753 2.133 1.932 2.133 1.18 0 1.932-.952 1.932-2.133 0-1.18-.753-2.132-1.932-2.132s-1.932.951-1.932 2.132m9.857-6.182v13.025H37.432c-2.358 0-5.437-1.903-5.437-5.643 0-3.51 2.882-4.954 5.273-5.97l2.676-1.159h-7.621v-6.519h10.84c3.602 0 6.287 2.657 6.287 6.266m1.18 13.025V30.315h11.068v6.365h-1.67c-1.113 0-1.932.82-1.932 1.935v10.991zm8.285-31.529V.394h7.466v4.658h4.487v6.365H66.38v4.66c0 1.082.819 1.902 1.9 1.902h2.587v6.365H65.17c-3.603 0-6.255-2.658-6.255-6.267m3.11 21.687c0 5.938 3.832 9.842 9.661 9.842h7.795v-6.693h-9.17l9.53-4.166c0-5.02-3.308-8.826-8.416-8.826-5.666 0-9.4 3.937-9.4 9.843m6.91-1.444c-.294-1.739.623-2.985 2.228-2.985.982 0 1.604.426 1.899 1.18zm2.686-34.186a4.113 4.113 0 0 0 4.126 4.134 4.113 4.113 0 0 0 4.127-4.134A4.113 4.113 0 0 0 75.747 0a4.113 4.113 0 0 0-4.126 4.134m.393 20.21h7.467V8.858h-7.467zm8.777 25.262v-23.95h7.466v4.659h3.603c3.602 0 6.287 2.657 6.287 6.266v13.025h-7.466V38.19c0-.919-.524-1.51-1.212-1.51s-1.212.591-1.212 1.51v11.417zm0-25.262h7.466V.394h-7.466zm8.383-20.21a4.113 4.113 0 0 0 4.127 4.134 4.113 4.113 0 0 0 4.126-4.134A4.113 4.113 0 0 0 93.3 0a4.113 4.113 0 0 0-4.127 4.134m.393 20.21h7.467V8.858h-7.467zm8.646-6.267V.394h7.467v4.658h4.486v6.365h-4.486v4.66c0 1.082.818 1.902 1.899 1.902h2.587v6.365h-5.698c-3.603 0-6.255-2.658-6.255-6.267m.786 21.85c0 5.94 3.7 10.073 9.038 10.073s9.006-4.134 9.006-10.072-3.7-10.007-9.006-10.007c-5.305 0-9.038 4.101-9.038 10.007m7.074.034c0-1.51.753-2.461 1.932-2.461s1.932.951 1.932 2.46c0 1.51-.753 2.461-1.932 2.461s-1.932-.951-1.932-2.46m5.272-21.884V5.052h7.467v11.811c0 .755.556 1.116 1.113 1.116s.95-.262 1.081-.853l2.816-12.074h7.762l-6.452 23.983h-7.368l1.211-4.691H117.6c-3.602 0-6.255-2.658-6.255-6.267m6.55 25.263V30.315h7.466v11.417c0 .919.524 1.51 1.212 1.51s1.212-.591 1.212-1.51V30.315h7.466v19.291h-11.069c-3.602 0-6.287-2.657-6.287-6.266m18.404 6.266v-6.364h4.389l-2.489-5.447c-1.736-3.806.589-7.48 4.748-7.48h6.747v6.365h-3.799l2.489 5.446c1.735 3.806-.59 7.48-4.749 7.48zm13.886-9.842c0 5.938 3.831 9.842 9.661 9.842h7.794v-6.693h-9.17l9.53-4.166c0-5.02-3.308-8.826-8.416-8.826-5.666 0-9.399 3.937-9.399 9.843m6.91-1.444c-.295-1.739.622-2.985 2.227-2.985.982 0 1.604.426 1.899 1.18z"/></g><defs><clipPath id="a"><path fill="#fff" d="M0 0h168v50H0z"/></clipPath></defs></svg>
