<svg width="163" height="50" viewBox="0 0 163 50" fill="none" xmlns="http://www.w3.org/2000/svg">
<g clip-path="url(#clip0_2711_10024)">
<path d="M27.8713 36.9797C27.8713 44.1352 33.9093 49.8509 40.9537 49.8509H55.9176C62.9619 49.8509 69 44.1352 69 36.9797V18H58.324V37.5469C58.324 39.2485 57.3614 40.1648 56.0488 40.1648C54.7362 40.1648 53.7736 39.2485 53.7736 37.5469V18H43.0976V37.5469C43.0976 39.2485 42.1351 40.1648 40.8224 40.1648C39.5098 40.1648 38.5472 39.2485 38.5472 37.5469V18H27.8713L27.8713 36.9797ZM12.9512 50.2C20.6081 50.2 25.9024 44.6588 25.9024 37.1542V18H15.2264V37.3724C15.2264 39.074 14.2638 39.9902 12.9512 39.9902C11.6386 39.9902 10.676 39.074 10.676 37.3724V18H0V37.1542C0 44.6588 5.29423 50.2 12.9512 50.2Z" fill="#7A42C8"/>
</g>
<path d="M98.676 37.732C98.676 38.852 98.748 39.712 98.892 40.312C99.044 40.904 99.264 41.376 99.552 41.728V43H93.504V41.728C93.792 41.376 94.008 40.904 94.152 40.312C94.304 39.712 94.38 38.852 94.38 37.732V36.076H87.18V37.732C87.18 38.86 87.252 39.72 87.396 40.312C87.54 40.904 87.756 41.376 88.044 41.728V43H81.996V41.728C82.284 41.376 82.5 40.904 82.644 40.312C82.796 39.712 82.872 38.852 82.872 37.732V31.108C82.872 29.98 82.796 29.12 82.644 28.528C82.5 27.936 82.284 27.464 81.996 27.112V25.84H88.044V27.112C87.756 27.464 87.54 27.936 87.396 28.528C87.252 29.12 87.18 29.98 87.18 31.108V32.632H94.38V31.108C94.38 29.98 94.304 29.12 94.152 28.528C94.008 27.936 93.792 27.464 93.504 27.112V25.84H99.552V27.112C99.264 27.464 99.044 27.936 98.892 28.528C98.748 29.12 98.676 29.98 98.676 31.108V37.732ZM106.679 43.24C105.383 43.24 104.247 42.96 103.271 42.4C102.295 41.84 101.543 41.096 101.015 40.168C100.495 39.24 100.235 38.232 100.235 37.144C100.235 36.048 100.523 35.036 101.099 34.108C101.683 33.172 102.487 32.432 103.511 31.888C104.535 31.336 105.691 31.06 106.979 31.06C108.139 31.06 109.155 31.3 110.027 31.78C110.899 32.252 111.587 32.884 112.091 33.676C112.595 34.46 112.903 35.324 113.015 36.268L112.787 36.928C111.763 37.12 110.435 37.324 108.803 37.54C107.179 37.748 105.739 37.904 104.483 38.008C104.547 38.68 104.815 39.228 105.287 39.652C105.759 40.068 106.371 40.276 107.123 40.276C108.347 40.276 109.443 39.688 110.411 38.512L112.895 39.82C112.343 40.748 111.575 41.552 110.591 42.232C109.607 42.904 108.303 43.24 106.679 43.24ZM104.447 36.1C105.911 35.996 107.359 35.824 108.791 35.584C108.703 35.064 108.483 34.628 108.131 34.276C107.787 33.924 107.307 33.748 106.691 33.748C106.067 33.748 105.551 33.964 105.143 34.396C104.743 34.82 104.511 35.388 104.447 36.1ZM116.77 43.24C115.994 43.24 115.326 43.092 114.766 42.796C114.206 42.5 113.782 42.116 113.494 41.644C113.206 41.164 113.062 40.656 113.062 40.12C113.062 38.112 114.578 36.816 117.61 36.232L120.934 35.56C120.91 34.976 120.742 34.5 120.43 34.132C120.126 33.764 119.686 33.58 119.11 33.58C118.542 33.58 118.098 33.736 117.778 34.048C117.466 34.36 117.254 34.772 117.142 35.284L113.53 34.864L113.278 34.36C113.534 33.744 113.958 33.184 114.55 32.68C115.15 32.176 115.878 31.78 116.734 31.492C117.598 31.204 118.538 31.06 119.554 31.06C120.65 31.06 121.614 31.244 122.446 31.612C123.286 31.972 123.934 32.488 124.39 33.16C124.846 33.824 125.074 34.608 125.074 35.512V38.008C125.074 38.976 125.15 39.716 125.302 40.228C125.462 40.732 125.73 41.128 126.106 41.416V42.532L122.002 43.144L121.414 42.736L121.114 41.092C120.882 41.452 120.546 41.796 120.106 42.124C119.674 42.452 119.166 42.72 118.582 42.928C117.998 43.136 117.394 43.24 116.77 43.24ZM117.202 39.544C117.202 39.904 117.314 40.176 117.538 40.36C117.77 40.536 118.086 40.624 118.486 40.624C118.798 40.624 119.122 40.56 119.458 40.432C119.802 40.296 120.11 40.108 120.382 39.868C120.654 39.628 120.842 39.348 120.946 39.028V37.276C120.69 37.396 120.414 37.508 120.118 37.612C119.83 37.708 119.542 37.8 119.254 37.888L118.678 38.08C117.694 38.416 117.202 38.904 117.202 39.544ZM126.268 41.884C126.484 41.596 126.644 41.32 126.748 41.056C126.86 40.792 126.936 40.488 126.976 40.144C127.024 39.8 127.048 39.344 127.048 38.776V36.136C127.048 35.152 126.976 34.416 126.832 33.928C126.688 33.432 126.436 33.056 126.076 32.8L126.184 31.672L130.336 31.06L130.924 31.468L131.188 33.292C131.78 32.548 132.336 31.992 132.856 31.624C133.376 31.248 133.964 31.06 134.62 31.06C134.932 31.06 135.216 31.1 135.472 31.18C135.736 31.26 135.944 31.38 136.096 31.54L135.448 35.428C134.976 34.836 134.352 34.54 133.576 34.54C132.96 34.54 132.456 34.72 132.064 35.08C131.672 35.44 131.38 35.932 131.188 36.556V38.776C131.188 39.344 131.212 39.804 131.26 40.156C131.308 40.5 131.392 40.804 131.512 41.068C131.632 41.324 131.816 41.596 132.064 41.884L131.92 43H126.268V41.884ZM143.42 43.24C142.252 43.24 141.272 43.004 140.48 42.532C139.696 42.06 139.116 41.448 138.74 40.696C138.364 39.944 138.176 39.14 138.176 38.284V34.084L136.22 34.036V31.444H136.34C137.076 31.388 137.652 31.068 138.068 30.484C138.484 29.892 138.716 29.164 138.764 28.3V28.18H142.268V31.3H146.264L145.94 34.24L142.328 34.156V37.528C142.328 38.272 142.492 38.86 142.82 39.292C143.148 39.716 143.592 39.928 144.152 39.928C144.496 39.928 144.832 39.832 145.16 39.64C145.488 39.44 145.792 39.192 146.072 38.896L147.584 41.596C147.128 42.068 146.552 42.46 145.856 42.772C145.168 43.084 144.356 43.24 143.42 43.24ZM147.433 41.884C147.649 41.596 147.809 41.32 147.913 41.056C148.025 40.792 148.101 40.488 148.141 40.144C148.189 39.8 148.213 39.344 148.213 38.776V30.652C148.213 29.972 148.181 29.424 148.117 29.008C148.061 28.584 147.961 28.24 147.817 27.976C147.681 27.704 147.489 27.456 147.241 27.232L147.361 26.116L151.777 25.48L152.353 25.888V33.292C152.977 32.636 153.677 32.1 154.453 31.684C155.229 31.268 155.953 31.06 156.625 31.06C157.497 31.06 158.237 31.256 158.845 31.648C159.453 32.04 159.913 32.596 160.225 33.316C160.537 34.036 160.693 34.88 160.693 35.848V38.776C160.693 39.352 160.713 39.812 160.753 40.156C160.801 40.5 160.885 40.804 161.005 41.068C161.133 41.324 161.317 41.596 161.557 41.884L161.413 43H155.761V41.884C155.977 41.588 156.141 41.312 156.253 41.056C156.365 40.792 156.441 40.488 156.481 40.144C156.529 39.792 156.553 39.336 156.553 38.776V36.952C156.553 36.176 156.401 35.576 156.097 35.152C155.801 34.728 155.349 34.516 154.741 34.516C154.221 34.516 153.737 34.724 153.289 35.14C152.849 35.556 152.537 36.06 152.353 36.652V38.776C152.353 39.344 152.377 39.804 152.425 40.156C152.473 40.5 152.557 40.804 152.677 41.068C152.797 41.324 152.981 41.596 153.229 41.884L153.085 43H147.433V41.884Z" fill="#101010"/>
<defs>
<clipPath id="clip0_2711_10024">
<rect width="69" height="32" fill="white" transform="translate(0 18)"/>
</clipPath>
</defs>
</svg>
