<svg xmlns="http://www.w3.org/2000/svg" width="20" height="20" fill="none" viewBox="0 0 20 20"><path fill="currentColor" d="M15.5 13.375q0 2.34-1.606 3.983Q12.288 19 10 19t-3.894-1.642T4.5 13.375V5.05q0-1.687 1.155-2.869Q6.81 1.001 8.46 1q1.65 0 2.805 1.181T12.42 5.05v7.875q0 1.035-.704 1.755T10 15.4t-1.716-.72-.704-1.755V4.6h1.76v8.325q0 .292.187.484A.63.63 0 0 0 10 13.6q.285 0 .473-.191a.66.66 0 0 0 .187-.484V5.05q-.022-.945-.649-1.597A2.07 2.07 0 0 0 8.46 2.8a2.1 2.1 0 0 0-1.562.653q-.638.652-.638 1.597v8.325q-.022 1.598 1.078 2.711A3.6 3.6 0 0 0 10 17.2q1.54 0 2.618-1.114 1.078-1.113 1.122-2.711V4.6h1.76z"/></svg>