<svg xmlns="http://www.w3.org/2000/svg" width="24" height="24" fill="none" viewBox="0 0 24 24">
  <path
    fill="currentColor"
    d="M13.412 19.423A1.93 1.93 0 0 1 12 20a1.93 1.93 0 0 1-1.412-.577 1.9 1.9 0 0 1-.582-1.399q0-.822.582-1.399A1.93 1.93 0 0 1 12 16.048q.83 0 1.412.577t.582 1.399-.582 1.399m8.47-8.393q-2.064-2.046-4.632-3.052A14.3 14.3 0 0 0 12 6.973q-2.682 0-5.25 1.005-2.568 1.006-4.632 3.052L0 8.93q2.505-2.48 5.612-3.706a17.28 17.28 0 0 1 12.776 0Q21.493 6.448 24 8.931zm-4.235 4.196a7.7 7.7 0 0 0-2.638-1.74A8.2 8.2 0 0 0 12 12.918q-1.553 0-3.009.568-1.456.57-2.638 1.74l-2.118-2.098q1.625-1.609 3.636-2.396A11.3 11.3 0 0 1 12 9.945q2.117 0 4.129.787t3.635 2.396z"
  />
</svg>
