<svg xmlns="http://www.w3.org/2000/svg" width="20" height="20" fill="none" viewBox="0 0 20 20">
  <path
    fill="currentColor"
    d="M11.177 16.031A1.63 1.63 0 0 1 10 16.5a1.63 1.63 0 0 1-1.176-.469 1.52 1.52 0 0 1-.486-1.136q0-.669.486-1.137A1.63 1.63 0 0 1 10 13.289q.69 0 1.177.469.485.469.485 1.137t-.486 1.136m7.058-6.82a11.3 11.3 0 0 0-3.86-2.479A12.2 12.2 0 0 0 10 5.915q-2.235 0-4.375.817a11.3 11.3 0 0 0-3.86 2.48L0 7.506q2.088-2.018 4.676-3.012T10 3.5q2.735 0 5.323.995 2.589.994 4.677 3.012zm-3.53 3.41a6.4 6.4 0 0 0-2.198-1.413A7 7 0 0 0 10 10.746q-1.294 0-2.507.462a6.4 6.4 0 0 0-2.199 1.413L3.53 10.916A8.9 8.9 0 0 1 6.559 8.97a9.58 9.58 0 0 1 6.882 0 8.9 8.9 0 0 1 3.03 1.946z"
  />
</svg>
