<svg xmlns="http://www.w3.org/2000/svg" width="24" height="24" fill="none" viewBox="0 0 24 24">
  <mask
    id="a"
    width="24"
    height="24"
    x="0"
    y="0"
    maskUnits="userSpaceOnUse"
    style="mask-type: alpha"
  >
    <path fill="currentColor" d="M0 0h24v24H0z" />
  </mask>
  <g mask="url(#a)">
    <path
      fill="currentColor"
      d="M6 13a1 1 0 0 0 1 1h10a1 1 0 1 0 0-2H7a1 1 0 0 0-1 1m0-3a1 1 0 0 0 1 1h10a1 1 0 1 0 0-2H7a1 1 0 0 0-1 1m0-3a1 1 0 0 0 1 1h10a1 1 0 1 0 0-2H7a1 1 0 0 0-1 1M3 18a1 1 0 0 1-1-1V3a1 1 0 0 1 1-1h18a1 1 0 0 1 1 1v19l-4-4z"
    />
  </g>
</svg>
