<svg xmlns="http://www.w3.org/2000/svg" width="24" height="24" fill="none" viewBox="0 0 24 24"><path fill="currentColor" fill-rule="evenodd" d="M9.325 17.675Q11.65 20 15 20t5.675-2.325T23 12t-2.325-5.675T15 4 9.325 6.325 7 12t2.325 5.675m2.826-1.005q.15.148.367.148h3.97q.705 0 1.381-.5.677-.502.677-1.263a.48.48 0 0 0-.159-.36.53.53 0 0 0-.374-.148.5.5 0 0 0-.338.12.66.66 0 0 0-.194.317q-.116.41-.367.614a.96.96 0 0 1-.626.204h-2.891a3.2 3.2 0 0 0 .82-2.172q0-.155-.007-.268a2 2 0 0 0-.036-.268h1.596q.217 0 .367-.148a.5.5 0 0 0 .151-.36.5.5 0 0 0-.15-.36.5.5 0 0 0-.368-.148h-1.927l-.72-1.199a1.97 1.97 0 0 1-.287-1.03q0-.761.546-1.297.547-.537 1.338-.536.504 0 .928.24t.698.648a.62.62 0 0 0 .302.24q.188.071.374-.014a.5.5 0 0 0 .28-.29.41.41 0 0 0-.035-.387 3 3 0 0 0-1.065-1.065A2.9 2.9 0 0 0 14.92 7q-1.222 0-2.071.832Q12 8.665 12 9.892q0 .522.194 1.03.195.507.655 1.156h-.331a.5.5 0 0 0-.367.149.5.5 0 0 0-.151.36q0 .21.151.359.15.148.367.148h.805a1.8 1.8 0 0 1 .058.466q0 .789-.302 1.206-.303.416-.892.881a.5.5 0 0 0-.137.177.5.5 0 0 0-.05.218v.268q0 .211.151.36" clip-rule="evenodd"/><path fill="currentColor" d="M2.263 16.325a7.9 7.9 0 0 0 3.362 2.925q.525.25.95-.05T7 18.275a.83.83 0 0 0-.162-.5 1.1 1.1 0 0 0-.413-.35 5.74 5.74 0 0 1-2.5-2.187A5.93 5.93 0 0 1 3 12q0-1.774.925-3.238a5.74 5.74 0 0 1 2.5-2.187q.25-.125.413-.362A.85.85 0 0 0 7 5.725q0-.65-.425-.937t-.95-.038a7.9 7.9 0 0 0-3.362 2.925Q1 9.625 1 12t1.263 4.325"/></svg>