<svg xmlns="http://www.w3.org/2000/svg" width="24" height="24" fill="none" viewBox="0 0 24 24"><path fill="currentColor" fill-rule="evenodd" d="M14.982 3.797q3.428 0 5.815 2.388T23.185 12t-2.388 5.815-5.815 2.388-5.815-2.388T6.778 12t2.387-5.815 5.816-2.388M14.758 7q-1.243 0-2.1.857-.858.858-.858 2.127 0 .42.085.87.085.453.439 1.002H11.8V13.4h1.284a.3.3 0 0 1 .025.138v.138q0 .17-.013.379-.012.21-.124.459a1.7 1.7 0 0 1-.38.504q-.268.254-.792.542V17h4.385q.773 0 1.38-.53.61-.53.806-1.381l-1.493-.497q-.077.471-.267.668a.58.58 0 0 1-.426.196h-2.107q.34-.38.458-.825t.118-.89q0-.09-.014-.17-.013-.079-.025-.17h1.87v-1.545h-2.381q-.419-.536-.589-.988a2.6 2.6 0 0 1-.17-.923q0-.601.406-1.002a1.38 1.38 0 0 1 1.007-.398q.576 0 .995.34t.602.981l1.427-.615q-.367-1.06-1.152-1.655Q15.846 7 14.758 7" clip-rule="evenodd"/><path fill="currentColor" d="M6.779 6.44a5.64 5.64 0 0 0-2.69 2.193A6 6 0 0 0 3.09 12q0 1.841.998 3.361a5.67 5.67 0 0 0 2.69 2.2v2.392Q4.112 19.212 2.464 17T.815 12t1.648-4.999T6.78 4.047z"/></svg>