<svg xmlns="http://www.w3.org/2000/svg" width="24" height="24" fill="none" viewBox="0 0 24 24"><path fill="currentColor" d="M6 19.75q-2.6-.675-4.3-2.8T0 12t1.7-4.95T6 4.25v2.1A5.74 5.74 0 0 0 3.113 8.5Q2 10.05 2 12t1.112 3.5A5.74 5.74 0 0 0 6 17.65zm8 .25q-3.325 0-5.662-2.337Q6 15.325 6 12t2.338-5.662T14 4q1.65 0 3.1.625a8.1 8.1 0 0 1 2.55 1.725l-1.4 1.4a6 6 0 0 0-1.913-1.287A5.9 5.9 0 0 0 14 6q-2.5 0-4.25 1.75T8 12t1.75 4.25T14 18a5.9 5.9 0 0 0 2.337-.462 6 6 0 0 0 1.913-1.288l1.4 1.4a8.1 8.1 0 0 1-2.55 1.725Q15.65 20 14 20m6-4-1.4-1.4 1.6-1.6H13v-2h7.2l-1.6-1.6L20 8l4 4z"/></svg>