<svg xmlns="http://www.w3.org/2000/svg" width="20" height="20" fill="none" viewBox="0 0 20 20"><path fill="currentColor" d="M10.117 14.2q.525 0 .888-.355.364-.355.364-.88t-.355-.899a1.17 1.17 0 0 0-.88-.373 1.2 1.2 0 0 0-.89.37 1.23 1.23 0 0 0-.363.894q0 .525.355.884.355.36.88.36m-1.121-3.368h2.258V5.798H8.996zm1.134 7.043a7.85 7.85 0 0 1-3.124-.623 8 8 0 0 1-2.544-1.714 8 8 0 0 1-1.713-2.543 7.9 7.9 0 0 1-.624-3.129 7.8 7.8 0 0 1 .624-3.12A8.05 8.05 0 0 1 7.004 2.5a7.85 7.85 0 0 1 3.129-.624 7.8 7.8 0 0 1 3.12.624 8.1 8.1 0 0 1 2.534 1.713A8.1 8.1 0 0 1 17.5 6.751q.624 1.449.624 3.12a7.85 7.85 0 0 1-.623 3.124 8 8 0 0 1-1.714 2.544 8.1 8.1 0 0 1-2.538 1.713 7.8 7.8 0 0 1-3.12.624"/></svg>