<svg xmlns="http://www.w3.org/2000/svg" width="20" height="20" fill="none" viewBox="0 0 20 20"><path fill="currentColor" d="m16 18.125-2.708-2.708q-.792.25-1.615.416A8.4 8.4 0 0 1 10 16q-2.979 0-5.448-1.615T1 10q.354-1.083 1.188-2.115a13.4 13.4 0 0 1 1.77-1.822L1.875 3.979l1.063-1.062 14.125 14.146zM10 13.5q.291 0 .583-.062.293-.062.584-.146L6.708 8.833q-.062.293-.135.584A2.4 2.4 0 0 0 6.5 10q0 1.458 1.02 2.48Q8.543 13.5 10 13.5m6.042.417-2.771-2.771q.105-.27.166-.563.063-.292.063-.583 0-1.458-1.02-2.48Q11.457 6.5 10 6.5a3 3 0 0 0-.573.052 4 4 0 0 0-.573.156L6.708 4.563a7.4 7.4 0 0 1 1.615-.438A11 11 0 0 1 10 4q2.979 0 5.448 1.615T19 10a8.3 8.3 0 0 1-1.219 2.156 11 11 0 0 1-1.74 1.76m-4.063-4.063L10.146 8q.417-.042.75.094.333.135.625.427.249.25.375.614.124.364.083.72"/></svg>