<svg xmlns="http://www.w3.org/2000/svg" width="24" height="24" fill="none" viewBox="0 0 24 24">
  <path
    fill="currentColor"
    d="M12 16q1.875 0 3.188-1.312Q16.5 13.375 16.5 11.5t-1.312-3.187T12 7 8.812 8.313Q7.5 9.625 7.5 11.5t1.312 3.188T12 16m0-1.8q-1.125 0-1.912-.787A2.6 2.6 0 0 1 9.3 11.5q0-1.125.787-1.912A2.6 2.6 0 0 1 12 8.8q1.125 0 1.912.787.788.788.788 1.913t-.787 1.912A2.6 2.6 0 0 1 12 14.2m0 4.8q-3.349 0-6.113-1.8-2.761-1.8-4.362-4.75a1.9 1.9 0 0 1-.187-1.437q.062-.238.187-.463 1.6-2.95 4.362-4.75T12 4q3.349 0 6.113 1.8 2.762 1.8 4.362 4.75a1.9 1.9 0 0 1 .188 1.438 2 2 0 0 1-.188.462q-1.6 2.95-4.363 4.75Q15.35 19 12 19"
  />
</svg>
