<svg xmlns="http://www.w3.org/2000/svg" width="24" height="24" fill="none" viewBox="0 0 24 24"><path fill="currentColor" d="M12.024 4.308q2.792 0 4.993 1.226T21 9.284l-1.251.913Q18.28 8.01 16.392 6.952T12.024 5.87Q9.57 5.845 7.68 6.94q-1.889 1.095-3.356 3.353L3 9.452Q4.733 6.88 6.995 5.594t5.03-1.286m0 2.307q3.273 0 5.559 2.248 2.286 2.247 2.286 5.469 0 1.321-.902 2.26a2.94 2.94 0 0 1-2.202.937 3.1 3.1 0 0 1-2.226-.89 2.9 2.9 0 0 1-.927-2.163q0-.697-.457-1.19a1.46 1.46 0 0 0-1.107-.493q-.65 0-1.107.493a1.7 1.7 0 0 0-.457 1.19q0 2.525 1.396 3.99 1.395 1.467 4.331 2.02l-.385 1.466q-3.417-.625-5.162-2.512-1.744-1.887-1.744-4.964 0-1.37.914-2.308a2.98 2.98 0 0 1 2.214-.937q1.299 0 2.214.901t.915 2.2q0 .696.469 1.178.47.48 1.119.48.65 0 1.107-.48t.457-1.178q0-2.572-1.841-4.375t-4.464-1.803q-2.599 0-4.416 1.85-1.816 1.852-1.817 4.472 0 .914.18 1.911.182.997.566 2.08l-1.395.576a12 12 0 0 1-.915-4.567q0-3.294 2.274-5.577t5.523-2.284M12.048 2q1.71 0 3.213.409 1.504.408 3.477 1.418l-.746 1.418q-1.636-.913-2.996-1.31a10.5 10.5 0 0 0-2.948-.397q-1.635 0-3.008.397T5.936 5.317L5.19 3.971Q7.043 2.89 8.595 2.445 10.148 2 12.048 2m0 6.923q2.503 0 3.995 1.707t1.492 4.591H15.97q0-2.259-1.035-3.51t-2.888-1.25q-1.635 0-2.78 1.178-1.142 1.178-1.142 2.837 0 1.923.601 3.27.601 1.345 2.238 3.028L10.003 22q-1.926-1.947-2.671-3.594-.746-1.647-.746-3.93 0-2.308 1.6-3.93t3.862-1.623m.939 9.52a4.45 4.45 0 0 1-1.3-1.936q-.41-1.166-.409-2.945h1.54q0 1.443.289 2.32.289.878.939 1.43.553.481 1.335.722a5.75 5.75 0 0 0 2.467.18q.384-.06.722-.228l.384 1.442a5.7 5.7 0 0 1-.926.3 4.2 4.2 0 0 1-.95.108 7.2 7.2 0 0 1-2.274-.348 5.05 5.05 0 0 1-1.817-1.046"/></svg>