<svg xmlns="http://www.w3.org/2000/svg" width="24" height="24" fill="none" viewBox="0 0 24 24">
  <path
    fill="currentColor"
    d="M3.5 14.632q0-2.778 1.328-5.088T7.75 5.553t2.922-2.617L12 2v3.48q0 .876.62 1.49.62.615 1.534.615.503 0 .9-.205.399-.204.723-.585l.473-.584q1.859 1.052 3.069 3.42a10.5 10.5 0 0 1 1.18 4.971q-.03 2.28-1.106 4.167-1.078 1.886-3.026 3.056a5.1 5.1 0 0 0 .709-1.433 5.3 5.3 0 0 0-.103-3.421 4.9 4.9 0 0 0-1.019-1.638L12 10.947l-3.955 4.386a4.9 4.9 0 0 0-1.018 1.638 5.3 5.3 0 0 0-.34 1.871q0 .819.251 1.594.25.775.753 1.447a8.4 8.4 0 0 1-3.07-3.07A8.2 8.2 0 0 1 3.5 14.632m8.5-.527 2.36 2.632q.414.438.62.98.207.54.207 1.125 0 1.316-.93 2.237T12 22t-2.258-.921a3.03 3.03 0 0 1-.93-2.237q0-.585.207-1.126t.62-.98z"
  />
</svg>
