<svg xmlns="http://www.w3.org/2000/svg" width="20" height="20" fill="none" viewBox="0 0 20 20">
  <path
    fill="currentColor"
    d="M3.5 12.105q0-2.222 1.016-4.07Q5.53 6.187 6.75 4.842 7.968 3.497 8.984 2.75L10 2v2.784q0 .7.474 1.193.474.49 1.173.49.384 0 .689-.163.304-.164.553-.468l.36-.468q1.422.843 2.348 2.737a8.7 8.7 0 0 1 .903 3.977q-.024 1.824-.847 3.333a6.56 6.56 0 0 1-2.313 2.445q.36-.538.542-1.146.18-.61.18-1.24a4.4 4.4 0 0 0-.26-1.497 4 4 0 0 0-.778-1.31L10 9.157l-3.024 3.51q-.519.585-.78 1.31a4.4 4.4 0 0 0-.067 2.771q.192.621.576 1.158a6.6 6.6 0 0 1-2.347-2.456 6.8 6.8 0 0 1-.858-3.345m6.5-.42 1.805 2.105q.316.35.474.783t.158.9q0 1.053-.71 1.79A2.3 2.3 0 0 1 10 18a2.3 2.3 0 0 1-1.727-.737q-.71-.737-.71-1.79 0-.467.157-.9.159-.433.474-.784z"
  />
</svg>
