<svg xmlns="http://www.w3.org/2000/svg" width="24" height="24" fill="none" viewBox="0 0 24 24">
  <path
    fill="currentColor"
    d="M14.584 7.124C11.509 4.794 12.848 2 12.848 2a9.6 9.6 0 0 0-2.292 1.829A9.1 9.1 0 0 0 8.281 8.41a9 9 0 0 0-.135 1.562 9 9 0 0 0 .6 3.24C7.645 12.307 6.9 11 6.763 9.523 5.367 10.843 4.5 12.687 4.5 14.728 4.5 18.744 7.858 22 11.999 22a7.57 7.57 0 0 0 5.9-2.784 7.1 7.1 0 0 0 1.601-4.488c0-3.801-1.84-5.274-4.916-7.604M12.02 20.12c-1.278 0-2.314-1.005-2.314-2.244s1.036-2.242 2.314-2.242c1.275 0 2.311 1.003 2.311 2.242s-1.036 2.244-2.311 2.244"
  />
</svg>
