<svg xmlns="http://www.w3.org/2000/svg" width="20" height="20" fill="none" viewBox="0 0 20 20">
  <path
    fill="currentColor"
    fill-rule="evenodd"
    d="M18 3.35v5.795q0 3.61-2.263 6.567T10 19.5q-3.476-.831-5.737-3.788Q2 12.756 2 9.145V3.35L10 .5zm-7.652 1.482q-.858 0-1.517.315-.66.314-1.034.894-.373.58-.373 1.39 0 .399.087.762.071.246.154.484H6.652v1.221H8.03q.016.134.017.266-.001.508-.113.907a2.2 2.2 0 0 1-.323.714q-.225.314-.547.628v1.028h6.284v-1.439H8.98q.473-.41.647-.895.187-.496.187-.955-.001-.127-.014-.254h1.98v-1.22h-2.3a15 15 0 0 1-.202-.594 2.2 2.2 0 0 1-.086-.58q0-.387.161-.653.162-.266.435-.398a1.35 1.35 0 0 1 .598-.134q.585 0 .884.339.298.338.31.858h1.73a3.06 3.06 0 0 0-.373-1.354 2.4 2.4 0 0 0-.97-.967q-.636-.363-1.619-.363"
    clip-rule="evenodd"
  />
</svg>
