<svg xmlns="http://www.w3.org/2000/svg" width="24" height="24" fill="none" viewBox="0 0 24 24"><path fill="currentColor" d="M10.625 17.375h2.75V11h-2.75zM12 9.5q.637 0 1.069-.431.43-.431.431-1.07 0-.636-.431-1.068A1.45 1.45 0 0 0 12 6.5q-.637 0-1.069.431A1.45 1.45 0 0 0 10.5 8q0 .637.431 1.069.432.43 1.069.43m0 13.35q-2.275 0-4.25-.852a10.9 10.9 0 0 1-3.435-2.313 10.9 10.9 0 0 1-2.313-3.435Q1.15 14.275 1.15 12t.852-4.25a10.9 10.9 0 0 1 2.313-3.435A10.9 10.9 0 0 1 7.75 2.002Q9.725 1.15 12 1.15t4.25.852a10.9 10.9 0 0 1 3.435 2.313 10.9 10.9 0 0 1 2.313 3.435q.852 1.975.852 4.25t-.852 4.25a10.9 10.9 0 0 1-2.313 3.435 10.9 10.9 0 0 1-3.435 2.313q-1.975.852-4.25.852"/></svg>