<svg xmlns="http://www.w3.org/2000/svg" width="24" height="24" fill="none" viewBox="0 0 24 24"><path fill="currentColor" d="M12.567 3h.245l.636.002c1.2.005 1.553.02 2.286.054.956.043 1.61.197 2.184.419a4.4 4.4 0 0 1 1.593 1.037c.46.45.812.992 1.04 1.597.223.57.377 1.227.42 2.183l.017.422.01.292c.013.455.017.95.018 1.976v1.813l-.001.44a47 47 0 0 1-.052 2.477c-.042.957-.197 1.61-.418 2.184a4.6 4.6 0 0 1-2.634 2.634c-.57.221-1.228.376-2.185.418-.806.036-1.15.049-2.69.052h-2.04c-1.539-.003-1.884-.016-2.69-.052-.957-.042-1.611-.197-2.185-.418a4.4 4.4 0 0 1-1.593-1.037 4.4 4.4 0 0 1-1.04-1.597c-.222-.57-.377-1.227-.42-2.184a45 45 0 0 1-.05-2.28l-.002-.637V11.21l.002-.637c.005-1.2.02-1.552.054-2.284.042-.957.197-1.61.419-2.184a4.4 4.4 0 0 1 1.037-1.593c.45-.46.992-.812 1.597-1.04.57-.222 1.227-.377 2.184-.42a47 47 0 0 1 2.281-.05l.637-.001h1.34m-.547 4.378a4.626 4.626 0 0 0-4.625 4.624 4.626 4.626 0 0 0 9.25 0 4.626 4.626 0 0 0-4.625-4.624m0 1.625a3 3 0 1 1 0 6 3 3 0 0 1 0-6m4.807-2.887a1.08 1.08 0 1 0 0 2.159 1.08 1.08 0 0 0 0-2.16"/></svg>