<svg xmlns="http://www.w3.org/2000/svg" width="20" height="20" fill="none" viewBox="0 0 20 20">
  <path
    fill="currentColor"
    d="M9.991 2.5.5 9.93l1.02 1.393 2.42-1.897V17.5h12.102V9.426l2.42 1.897 1.038-1.41zm3.199 8.797q-.132.37-.458.82a11 11 0 0 1-.865 1.007c-.363.37-.83.811-1.383 1.323l-.484.441-.484-.44a41 41 0 0 1-1.383-1.324 11 11 0 0 1-.873-1.006c-.208-.3-.363-.574-.45-.82a2.3 2.3 0 0 1-.13-.76c0-.53.174-.97.528-1.332q.519-.53 1.297-.53c.293 0 .561.062.82.186.14.062.26.14.381.238.104.088.208.185.294.291.086-.106.181-.203.285-.282q.18-.144.39-.247c.259-.124.526-.186.82-.186q.779 0 1.297.53c.346.362.527.803.527 1.332q0 .386-.13.76"
  />
</svg>
