<svg xmlns="http://www.w3.org/2000/svg" width="24" height="24" fill="none" viewBox="0 0 24 24">
  <path
    fill="currentColor"
    d="m2.275 10.194 4.2-4.2q.35-.35.825-.5t.975-.05l1.3.275q-1.35 1.6-2.125 2.9-.776 1.3-1.5 3.15zM7.4 12.47q.574-1.8 1.563-3.4a16.5 16.5 0 0 1 2.387-3 14.3 14.3 0 0 1 5.025-3.287Q19.2 1.696 21.65 2.12q.425 2.45-.65 5.275a14.2 14.2 0 0 1-3.275 5.025 16.8 16.8 0 0 1-3 2.388 15.2 15.2 0 0 1-3.425 1.587zm6.9-3a1.92 1.92 0 0 0 1.412.575 1.92 1.92 0 0 0 1.413-.575 1.92 1.92 0 0 0 .575-1.412 1.92 1.92 0 0 0-.575-1.413 1.92 1.92 0 0 0-1.412-.575 1.92 1.92 0 0 0-1.413.575 1.92 1.92 0 0 0-.575 1.413q0 .838.575 1.412m-.7 12.025L12 17.82q1.85-.724 3.162-1.5 1.313-.774 2.913-2.125l.25 1.3q.1.5-.05.988t-.5.837zM3.875 15.67A2.94 2.94 0 0 1 6 14.782a2.85 2.85 0 0 1 2.125.862Q9 16.52 9 17.77t-.875 2.125q-.625.625-2.088 1.075-1.461.45-4.037.8.35-2.574.8-4.025.45-1.45 1.075-2.075"
  />
</svg>
