<svg xmlns="http://www.w3.org/2000/svg" width="24" height="24" fill="none" viewBox="0 0 24 24">
  <path
    fill="currentColor"
    d="M10.45 15.5q.626.626 1.575.587.95-.037 1.375-.687L19 7l-8.4 5.6q-.649.45-.713 1.363-.062.912.563 1.537M5.1 20q-.55 0-1.012-.238a1.8 1.8 0 0 1-.738-.712 11.2 11.2 0 0 1-1-2.437A9.7 9.7 0 0 1 2 14q0-2.075.788-3.9a10.1 10.1 0 0 1 2.137-3.175q1.35-1.35 3.175-2.137A9.7 9.7 0 0 1 12 4a9.6 9.6 0 0 1 3.85.775q1.8.774 3.15 2.113 1.35 1.337 2.15 3.124a9.6 9.6 0 0 1 .825 3.838 10 10 0 0 1-.312 2.688 9.8 9.8 0 0 1-1.038 2.512q-.275.475-.738.712a2.2 2.2 0 0 1-1.012.238z"
  />
</svg>
