<svg xmlns="http://www.w3.org/2000/svg" width="24" height="24" fill="none" viewBox="0 0 24 24"><path fill="currentColor" d="M6.4 19h11.175l-2.1-2.1a5.8 5.8 0 0 1-1.612.813A6 6 0 0 1 12 18q-.974 0-1.863-.3a6 6 0 0 1-1.612-.825zM5 17.575l2.1-2.1a5.8 5.8 0 0 1-.812-1.612A6 6 0 0 1 6 12q0-.974.3-1.863.3-.887.825-1.612L5 6.4zm3.55-3.55L10.6 12 8.55 9.975q-.274.45-.413.95A4 4 0 0 0 8 12q0 .575.137 1.075.138.5.413.95M12 16a4 4 0 0 0 1.075-.137q.5-.138.95-.413L12 13.4l-2.05 2.05q.45.274.963.413A4.2 4.2 0 0 0 12 16m0-5.425 2.025-2.025q-.45-.274-.95-.413A4 4 0 0 0 12 8a4 4 0 0 0-1.075.137q-.5.138-.95.413zm3.45 3.45q.274-.45.413-.95A4 4 0 0 0 16 12a4.2 4.2 0 0 0-.137-1.088 3.7 3.7 0 0 0-.413-.962l-2.025 2.025zm3.55 3.55V6.4l-2.125 2.125q.525.724.825 1.612T18 12t-.288 1.863a5.8 5.8 0 0 1-.812 1.612zm-3.525-10.45L17.6 5H6.425l2.1 2.1a5.8 5.8 0 0 1 1.612-.812A6 6 0 0 1 12 6q.974 0 1.863.3.887.3 1.612.825M5 21q-.824 0-1.412-.587A1.93 1.93 0 0 1 3 19V5q0-.824.587-1.412A1.93 1.93 0 0 1 5 3h14q.824 0 1.413.587Q21 4.176 21 5v14q0 .824-.587 1.413A1.93 1.93 0 0 1 19 21z"/></svg>