<svg xmlns="http://www.w3.org/2000/svg" width="48" height="48" fill="none" viewBox="0 0 48 48">
  <path
    fill="currentColor"
    d="M11.094 39.006h25.75l-5.85-5.85a10.6 10.6 0 0 1-3.225 1.75q-1.775.6-3.775.6t-3.775-.625a11 11 0 0 1-3.225-1.775zm-1.992-2.258 5.742-5.742a10.6 10.6 0 0 1-1.75-3.225 11.7 11.7 0 0 1-.6-3.775q0-2 .625-3.775a11 11 0 0 1 1.775-3.225l-5.792-5.792zm7.892-7.892 4.9-4.85-4.85-4.85a10 10 0 0 0-1.125 2.275 7.8 7.8 0 0 0-.425 2.575q0 1.35.4 2.575a9.3 9.3 0 0 0 1.1 2.275m7 3.65q1.35 0 2.575-.4a9.3 9.3 0 0 0 2.275-1.1l-4.85-4.9-4.85 4.85q1.05.7 2.275 1.125a7.8 7.8 0 0 0 2.575.425m0-10.65 4.85-4.8a10 10 0 0 0-2.275-1.125 7.8 7.8 0 0 0-2.575-.425q-1.35 0-2.6.4a8.3 8.3 0 0 0-2.25 1.1zm7 7a8.3 8.3 0 0 0 1.1-2.25q.4-1.25.4-2.6a7.8 7.8 0 0 0-.425-2.575 10 10 0 0 0-1.125-2.275l-4.85 4.8zm7.892 7.892V11.215l-5.792 5.792a11 11 0 0 1 1.775 3.225q.625 1.775.625 3.775t-.6 3.775a10.6 10.6 0 0 1-1.75 3.225zm-7.892-21.842 5.9-5.9h-25.75l5.85 5.85a10.6 10.6 0 0 1 3.225-1.75q1.775-.6 3.775-.6t3.775.625a11 11 0 0 1 3.225 1.775M9.102 42.305q-1.38 0-2.394-1.014Q5.696 40.28 5.696 38.9V9.113q0-1.385 1.013-2.402t2.393-1.017h29.785q1.385 0 2.402 1.017t1.017 2.402v29.785q0 1.38-1.017 2.392-1.017 1.014-2.401 1.014z"
  />
</svg>
