<svg xmlns="http://www.w3.org/2000/svg" width="24" height="24" fill="none" viewBox="0 0 24 24"><path fill="currentColor" d="M11 21.225q-3.025-.375-5.012-2.638Q4 16.325 4 13.275q0-1.65.65-3.163A7.8 7.8 0 0 1 6.5 7.475L7.925 8.9a5.6 5.6 0 0 0-1.437 1.975 6 6 0 0 0-.488 2.4q0 2.2 1.4 3.887 1.4 1.688 3.6 2.063zm2 0v-2q2.175-.4 3.587-2.075T18 13.275q0-2.5-1.75-4.25T12 7.275h-.075l1.1 1.1-1.4 1.4-3.5-3.5 3.5-3.5 1.4 1.4-1.1 1.1H12q3.35 0 5.675 2.325T20 13.275q0 3.026-1.988 5.287-1.987 2.263-5.012 2.663"/></svg>