<svg xmlns="http://www.w3.org/2000/svg" width="24" height="24" fill="none" viewBox="0 0 24 24">
  <path
    fill="currentColor"
    d="m10.813 18.24-2.161 2.114a1.1 1.1 0 0 1-.826.33 1.13 1.13 0 0 1-.825-.355q-.35-.338-.35-.826 0-.486.35-.835l3.812-3.813v-1.668H9.145L5.322 17.01q-.338.339-.825.339t-.85-.363a1.12 1.12 0 0 1-.339-.819q0-.48.339-.818l2.113-2.162H3.162q-.499 0-.83-.344A1.17 1.17 0 0 1 2 12q0-.5.344-.843.344-.344.843-.344H5.76L3.647 8.676a1.1 1.1 0 0 1-.332-.826q.007-.486.356-.836.339-.338.826-.338t.836.338l3.812 3.8h1.668v-1.67L6.99 5.347a1.12 1.12 0 0 1-.339-.826q0-.487.363-.85.339-.338.819-.338t.819.338l2.161 2.089V3.187q0-.5.344-.843Q11.5 2 12 2t.843.344q.345.344.344.843V5.76l2.137-2.089a1.1 1.1 0 0 1 .826-.331q.486.007.836.345.338.349.338.836t-.338.826l-3.8 3.798v1.668h1.669l3.799-3.799q.337-.338.825-.338t.85.363q.338.338.338.818t-.338.819l-2.088 2.137h2.572q.5 0 .843.344Q22 11.5 22 12t-.344.843q-.343.345-.843.344h-2.572l2.088 2.162q.339.338.331.825-.007.487-.345.826a1.14 1.14 0 0 1-.836.349q-.488 0-.825-.35l-3.8-3.812h-1.667v1.668l3.799 3.823q.338.338.338.825t-.363.85a1.12 1.12 0 0 1-.818.339q-.48 0-.819-.338l-2.137-2.113v2.597q0 .499-.344.83Q12.5 22 12 22t-.843-.344q-.344-.343-.344-.843z"
  />
</svg>
