<svg xmlns="http://www.w3.org/2000/svg" width="24" height="24" fill="none" viewBox="0 0 24 24"><path fill="currentColor" fill-rule="evenodd" d="M19.085 7.265c-.876-.117-1.633-.587-2.27-1.291-.756-.822-1.194-1.918-1.154-2.974h-3.144v12.326c0 1.448-1.194 2.622-2.707 2.622-.875 0-1.67-.43-2.189-1.096-.318-.43-.477-.977-.477-1.526 0-1.447 1.194-2.622 2.666-2.622.28 0 .557.04.796.118V9.69a5 5 0 0 0-.796-.079h-.119C6.507 9.691 4 12.234 4 15.326c0 1.487.597 2.857 1.552 3.874a5.97 5.97 0 0 0 4.26 1.8c3.223 0 5.85-2.543 5.85-5.674V8.908A5.86 5.86 0 0 0 20 10.355V7.264a1.8 1.8 0 0 1-.916 0z" clip-rule="evenodd"/></svg>