<svg xmlns="http://www.w3.org/2000/svg" width="24" height="24" fill="none" viewBox="0 0 24 24"><path fill="currentColor" d="m15.3 16.7 1.4-1.4-3.7-3.7V7h-2v5.4zM12 22a9.7 9.7 0 0 1-3.9-.788 10.1 10.1 0 0 1-3.175-2.137q-1.35-1.35-2.137-3.175A9.7 9.7 0 0 1 2 12q0-2.075.788-3.9a10.1 10.1 0 0 1 2.137-3.175q1.35-1.35 3.175-2.137A9.7 9.7 0 0 1 12 2q2.075 0 3.9.788a10.1 10.1 0 0 1 3.175 2.137q1.35 1.35 2.137 3.175A9.7 9.7 0 0 1 22 12a9.7 9.7 0 0 1-.788 3.9 10.1 10.1 0 0 1-2.137 3.175q-1.35 1.35-3.175 2.137A9.7 9.7 0 0 1 12 22"/></svg>