<svg xmlns="http://www.w3.org/2000/svg" width="24" height="24" fill="none" viewBox="0 0 24 24">
  <path
    fill="currentColor"
    d="M21 6.718c-.675.297-1.39.49-2.121.577a3.68 3.68 0 0 0 1.624-2.027 7.4 7.4 0 0 1-2.345.89A3.7 3.7 0 0 0 15.462 5c-2.04 0-3.692 1.64-3.692 3.665q0 .431.095.835a10.5 10.5 0 0 1-7.611-3.83 3.63 3.63 0 0 0-.5 1.843c0 1.27.65 2.394 1.642 3.05a3.7 3.7 0 0 1-1.672-.458v.046a3.67 3.67 0 0 0 2.962 3.593 3.7 3.7 0 0 1-1.668.063 3.69 3.69 0 0 0 3.45 2.545A7.45 7.45 0 0 1 3.88 17.92q-.448 0-.881-.05a10.5 10.5 0 0 0 5.661 1.646c6.793 0 10.507-5.584 10.507-10.426q0-.24-.01-.475A7.5 7.5 0 0 0 21 6.718"
  />
</svg>
