<svg xmlns="http://www.w3.org/2000/svg" width="20" height="20" fill="none" viewBox="0 0 20 20">
  <path
    fill="currentColor"
    fill-rule="evenodd"
    d="M15.669 4.325A7.93 7.93 0 0 0 10.034 2C5.642 2 2.068 5.556 2.067 9.928A7.9 7.9 0 0 0 3.13 13.89L2 18l4.223-1.102a8 8 0 0 0 3.807.964h.004c4.39 0 7.965-3.556 7.966-7.927 0-2.12-.827-4.111-2.331-5.61m-5.635 12.199h-.003a6.63 6.63 0 0 1-3.37-.92l-.242-.142-2.506.654.669-2.432-.158-.249a6.55 6.55 0 0 1-1.012-3.507c.001-3.633 2.972-6.59 6.624-6.59a6.6 6.6 0 0 1 4.682 1.934 6.53 6.53 0 0 1 1.937 4.662c-.002 3.633-2.972 6.59-6.621 6.59m3.632-4.936c-.2-.099-1.178-.578-1.36-.644s-.316-.1-.448.099c-.133.199-.514.645-.63.777s-.233.148-.432.05c-.199-.1-.84-.31-1.6-.984a6 6 0 0 1-1.108-1.373c-.116-.198-.012-.305.087-.404.09-.089.2-.231.299-.347.1-.115.132-.199.199-.33.067-.133.033-.248-.017-.348s-.447-1.074-.613-1.47c-.162-.386-.326-.334-.448-.34a8 8 0 0 0-.382-.007.73.73 0 0 0-.53.248c-.183.198-.698.677-.698 1.652s.714 1.917.813 2.05c.1.132 1.404 2.133 3.4 2.991.475.204.846.326 1.136.418.477.15.91.13 1.254.078.382-.057 1.177-.48 1.343-.942s.166-.86.116-.942c-.05-.083-.182-.133-.381-.232"
    clip-rule="evenodd"
  />
</svg>
